<?xml version="1.0" standalone="no"?>
<!DOCTYPE svg PUBLIC "-//W3C//DTD SVG 1.1//EN" "http://www.w3.org/Graphics/SVG/1.1/DTD/svg11.dtd" >
<svg xmlns="http://www.w3.org/2000/svg">
<metadata></metadata>
<defs>
<font id="core_sans_nr_sc_93_ex_blackRg" horiz-adv-x="1528" >
<font-face units-per-em="2000" ascent="1600" descent="-400" />
<missing-glyph horiz-adv-x="720" />
<glyph horiz-adv-x="666" />
<glyph horiz-adv-x="0" />
<glyph horiz-adv-x="0" />
<glyph unicode="&#xd;" horiz-adv-x="682" />
<glyph unicode=" "  horiz-adv-x="720" />
<glyph unicode="&#x09;" horiz-adv-x="720" />
<glyph unicode="&#xa0;" horiz-adv-x="720" />
<glyph unicode="!" horiz-adv-x="800" d="M183 507l-53 601v254q0 16 11.5 27t27.5 11h463q16 0 27 -11t11 -27v-256l-53 -598q-1 -15 -13 -25.5t-26 -10.5h-356q-15 0 -26.5 10t-12.5 25zM400 -24q-147 0 -208.5 47.5t-61.5 146.5t61.5 146.5t208.5 47.5t208.5 -47.5t61.5 -146.5t-61.5 -146.5t-208.5 -47.5z" />
<glyph unicode="&#x22;" horiz-adv-x="1400" d="M201 770l-39 589q-1 17 10.5 29t28.5 12h376q16 0 27.5 -11t11.5 -27v-43l-72 -550q-1 -14 -12.5 -24.5t-25.5 -10.5h-266q-15 0 -26.5 10.5t-12.5 25.5zM826 770l-39 589q-1 17 10.5 29t28.5 12h376q16 0 27.5 -11t11.5 -27v-43l-72 -550q-1 -14 -12.5 -24.5 t-25.5 -10.5h-266q-15 0 -26.5 10.5t-12.5 25.5z" />
<glyph unicode="#" horiz-adv-x="1848" d="M1411 256l-45 -225q-3 -13 -13.5 -22t-24.5 -9h-339q-19 0 -29.5 13.5t-6.5 32.5l42 210h-322l-45 -225q-3 -13 -13.5 -22t-24.5 -9h-339q-19 0 -29.5 13.5t-6.5 32.5l42 210h-178q-16 0 -27.5 11.5t-11.5 27.5v254q0 16 11.5 27.5t27.5 11.5h245l47 232h-176 q-16 0 -27.5 11.5t-11.5 27.5v254q0 16 11.5 27.5t27.5 11.5h243l44 217q3 13 13.5 22t24.5 9h339q19 0 30 -13.5t6 -32.5l-41 -202h322l44 217q3 13 13.5 22t24.5 9h339q19 0 30 -13.5t6 -32.5l-41 -202h177q16 0 27.5 -11.5t11.5 -27.5v-254q0 -16 -11.5 -27.5 t-27.5 -11.5h-244l-47 -232h175q16 0 27.5 -11.5t11.5 -27.5v-254q0 -16 -11.5 -27.5t-27.5 -11.5h-242zM787 820l-47 -232h322l47 232h-322z" />
<glyph unicode="$" horiz-adv-x="1504" d="M123 52q-12 4 -20.5 16t-7.5 25l30 284q2 20 18 30t35 3q205 -76 462 -76q94 0 146 8.5t67 22t15 35.5q0 19 -25 35.5t-102.5 41.5t-226.5 61q-217 53 -320.5 158.5t-103.5 275.5q0 197 122.5 307t377.5 136v181q0 16 11.5 27t27.5 11h226q16 0 27.5 -11t11.5 -27v-175 q239 -11 406 -56q13 -4 22 -16t7 -26l-26 -278q-2 -20 -16 -30.5t-32 -4.5q-165 52 -395 52q-126 0 -170 -14.5t-44 -49.5q0 -21 23.5 -37t99.5 -41t231 -66q220 -58 322 -159.5t102 -272.5q0 -193 -123.5 -301t-394.5 -135v-178q0 -16 -11.5 -27t-27.5 -11h-226 q-16 0 -27.5 11t-11.5 27v170q-270 11 -479 74z" />
<glyph unicode="%" horiz-adv-x="2272" d="M546 824q66 0 102 42.5t36 123.5t-36 123.5t-102 42.5t-102 -42.5t-36 -123.5t36 -123.5t102 -42.5zM546 1414q226 0 346 -117.5t120 -306.5t-120 -306.5t-346 -117.5t-346 117.5t-120 306.5t120 306.5t346 117.5zM1726 244q66 0 102 42.5t36 123.5t-36 123.5t-102 42.5 t-102 -42.5t-36 -123.5t36 -123.5t102 -42.5zM1726 834q226 0 346 -117.5t120 -306.5t-120 -306.5t-346 -117.5t-346 117.5t-120 306.5t120 306.5t346 117.5zM1482 1364l-890 -1301q-18 -29 -8.5 -46t37.5 -17h91q55 0 79 36l890 1301q15 21 6 42t-35 21h-91q-55 0 -79 -36z " />
<glyph unicode="&#x26;" horiz-adv-x="2030" d="M980 1048q0 44 -37.5 68t-104.5 24t-108.5 -24t-41.5 -62q0 -35 30 -68t102 -76q89 31 124.5 63t35.5 75zM564 402q0 -60 63.5 -91t182.5 -31q112 0 174 26l-304 232q-116 -47 -116 -136zM1317 58l-27 20q-86 -49 -219.5 -75.5t-278.5 -26.5q-160 0 -288 25t-224 75.5 t-148 133t-52 192.5q0 128 81.5 224t228.5 138q-162 121 -162 280q0 170 153 275t445 105q272 0 433 -99.5t161 -270.5q0 -115 -86.5 -207.5t-227.5 -138.5l236 -180q87 83 103 206q2 16 13.5 29t25.5 13h357q18 0 30 -11t11 -28q-13 -138 -78 -256.5t-150 -184.5l306 -229 q23 -17 11 -42t-42 -25h-434q-100 0 -178 58z" />
<glyph unicode="'" horiz-adv-x="756" d="M191 770l-39 589q-1 17 10.5 29t28.5 12h376q16 0 27.5 -11t11.5 -27v-43l-72 -550q-1 -14 -12.5 -24.5t-25.5 -10.5h-266q-15 0 -26.5 10.5t-12.5 25.5z" />
<glyph unicode="(" horiz-adv-x="974" d="M160 621q0 481 312 825q49 54 117 54h264q26 0 36.5 -21t-5.5 -42q-312 -400 -312 -816t312 -816q16 -21 5.5 -42t-36.5 -21h-264q-68 0 -117 54q-312 344 -312 825z" />
<glyph unicode=")" horiz-adv-x="974" d="M814 621q0 -481 -312 -825q-49 -54 -117 -54h-264q-26 0 -36.5 21t5.5 42q312 400 312 816t-312 816q-16 21 -5.5 42t36.5 21h264q68 0 117 -54q312 -344 312 -825z" />
<glyph unicode="*" horiz-adv-x="1112" d="M987 733l-197 -67l197 -69q18 -6 24 -22.5t-3 -32.5l-119 -207q-10 -16 -27.5 -19t-31.5 10l-158 138l41 -206q4 -19 -7.5 -32.5t-30.5 -13.5h-238q-19 0 -30.5 13.5t-7.5 32.5l39 204l-156 -136q-14 -13 -31.5 -10t-27.5 19l-119 207q-9 16 -3 32.5t24 22.5l197 69 l-197 67q-18 6 -24 22.5t3 32.5l119 207q10 16 27.5 19t31.5 -10l156 -135l-39 203q-4 19 7.5 32.5t30.5 13.5h238q19 0 30.5 -13.5t7.5 -32.5l-41 -204l158 136q14 13 32 10t27 -19l119 -207q9 -16 3 -32.5t-24 -22.5z" />
<glyph unicode="+" horiz-adv-x="1284" d="M448 189v325h-330q-16 0 -27 11.5t-11 27.5v222q0 16 11 27.5t27 11.5h330v326q0 16 11 27t27 11h311q16 0 27.5 -11t11.5 -27v-326h329q16 0 27.5 -11.5t11.5 -27.5v-222q0 -16 -11.5 -27.5t-27.5 -11.5h-329v-325q0 -17 -11 -28t-28 -11h-311q-16 0 -27 11.5t-11 27.5z " />
<glyph unicode="," horiz-adv-x="744" d="M299 -343q-29 -17 -50 12l-60 89q-8 12 -4.5 28.5t14.5 25.5q41 34 70.5 79.5t36.5 90.5q-168 24 -168 212q0 111 57.5 164.5t176.5 53.5t176.5 -53.5t57.5 -164.5q0 -358 -307 -537z" />
<glyph unicode="-" horiz-adv-x="828" d="M709 504h-590q-16 0 -27.5 11.5t-11.5 27.5v242q0 17 11 28t28 11h590q16 0 27.5 -11.5t11.5 -27.5v-242q0 -16 -11.5 -27.5t-27.5 -11.5z" />
<glyph unicode="." horiz-adv-x="744" d="M372 -24q-119 0 -176.5 53.5t-57.5 164.5t57.5 164.5t176.5 53.5t176.5 -53.5t57.5 -164.5t-57.5 -164.5t-176.5 -53.5z" />
<glyph unicode="/" horiz-adv-x="1362" d="M1367 1437l-959 -1610q-28 -47 -82 -47h-298q-25 0 -35.5 19t2.5 40l959 1610q28 47 82 47h298q25 0 35.5 -19t-2.5 -40z" />
<glyph unicode="0" d="M28 700q0 334 195.5 529t540.5 195t540.5 -195t195.5 -529t-195.5 -529t-540.5 -195t-540.5 195t-195.5 529zM584 700q0 -146 21 -231t59 -117t100 -32t100 32t59 117t21 231t-21 231t-59 117t-100 32t-100 -32t-59 -117t-21 -231z" />
<glyph unicode="1" d="M668 942l-257 -174q-13 -8 -29 -4.5t-24 15.5l-160 223q-10 14 -7 31t17 26l461 316q15 10 43.5 17.5t50.5 7.5h394q16 0 27.5 -11t11.5 -27v-1323q0 -16 -11.5 -27.5t-27.5 -11.5h-450q-16 0 -27.5 11.5t-11.5 27.5v903z" />
<glyph unicode="2" d="M212 1361q199 63 480 63q339 0 504.5 -121t165.5 -339q0 -249 -206 -424q-72 -62 -159 -115t-163 -85h483q16 0 27.5 -11.5t11.5 -27.5v-262q0 -16 -11.5 -27.5t-27.5 -11.5h-1132q-16 0 -27.5 11.5t-11.5 27.5v247q0 25 23 40q275 178 421 298q118 96 173 167.5 t55 144.5q0 77 -65 110.5t-217 33.5q-163 0 -291 -41q-18 -5 -30.5 7t-14.5 32l-16 243q-1 12 7.5 24t20.5 16z" />
<glyph unicode="3" d="M152 43q-13 3 -21.5 15t-6.5 25l25 246q2 20 17.5 30t34.5 3q166 -62 363 -62q294 0 294 114q0 80 -121 122t-389 44q-15 0 -24.5 12t-9.5 29v220q0 16 9.5 27.5t24.5 11.5q260 1 374 32.5t114 95.5q0 49 -63.5 70.5t-204.5 21.5q-182 0 -339 -48q-18 -4 -32 7.5 t-16 30.5l-24 225q-2 13 6 25t20 16q201 68 525 68q309 0 484.5 -100t175.5 -292q0 -221 -226 -302q118 -41 183 -122t65 -192q0 -207 -191 -323.5t-529 -116.5q-284 0 -518 67z" />
<glyph unicode="4" d="M50 267v276q0 58 28 91l648 745q19 21 58 21h465q16 0 27.5 -11t11.5 -27v-774h132q16 0 27 -11t11 -27v-283q0 -16 -11 -27.5t-27 -11.5h-132v-189q0 -16 -11.5 -27.5t-27.5 -11.5h-424q-16 0 -27.5 11.5t-11.5 27.5v189h-698q-16 0 -27 11.5t-11 27.5zM786 961 l-322 -373h322v373z" />
<glyph unicode="5" d="M183 29q-41 13 -38 52l20 221q2 20 17 31t34 5q131 -42 260 -42q183 0 262.5 41.5t79.5 126.5q0 81 -82.5 118.5t-251.5 37.5q-119 0 -242 -30q-20 -5 -34 6.5t-14 31.5v734q0 16 11.5 27t27.5 11h1048q16 0 27.5 -11t11.5 -27v-243q0 -16 -11.5 -27.5t-27.5 -11.5h-583 v-204q73 22 184 22q222 0 357 -113t135 -317q0 -236 -191.5 -364t-548.5 -128q-276 0 -451 53z" />
<glyph unicode="6" d="M618 592v-30q0 -77 11 -129t34 -81t52.5 -40.5t70.5 -11.5q150 0 150 166q0 90 -40 128t-118 38q-100 0 -160 -40zM1267 1068q-128 36 -279 36q-183 0 -270.5 -57t-97.5 -187q111 80 312 80q246 0 388 -124.5t142 -349.5q0 -231 -168 -360.5t-488 -129.5 q-342 0 -531 171.5t-189 494.5q0 782 806 782q237 0 417 -50q14 -4 23.5 -16t8.5 -27l-20 -229q-1 -20 -17.5 -29.5t-36.5 -4.5z" />
<glyph unicode="7" d="M1382 1362v-260q0 -56 -47 -146l-482 -935q-4 -8 -14.5 -14.5t-19.5 -6.5h-517q-24 0 -34.5 18t0.5 38l514 984h-627q-16 0 -27.5 11.5t-11.5 27.5v283q0 16 11.5 27t27.5 11h1189q16 0 27 -11t11 -27z" />
<glyph unicode="8" d="M764 -24q-336 0 -524 117.5t-188 308.5q0 244 276 354q-202 86 -202 276q0 178 165 285t473 107t473 -107t165 -285q0 -190 -202 -276q276 -110 276 -354q0 -191 -188 -308.5t-524 -117.5zM764 612q-86 -41 -133 -97.5t-47 -114.5q0 -53 47.5 -88.5t132.5 -35.5 t132.5 35.5t47.5 88.5q0 58 -47 114.5t-133 97.5zM764 856q73 26 118.5 68.5t45.5 89.5q0 49 -44 79.5t-120 30.5t-120 -30.5t-44 -79.5q0 -47 45.5 -89.5t118.5 -68.5z" />
<glyph unicode="9" d="M910 808v30q0 77 -11 129t-34 81t-52.5 40.5t-70.5 11.5q-150 0 -150 -166q0 -90 40 -128t118 -38q100 0 160 40zM261 332q128 -36 279 -36q183 0 270.5 57t97.5 187q-111 -80 -312 -80q-246 0 -388 124.5t-142 349.5q0 231 168 360.5t488 129.5q342 0 531 -171.5 t189 -494.5q0 -782 -806 -782q-237 0 -417 50q-14 4 -23.5 16t-8.5 27l20 229q1 20 17.5 29.5t36.5 4.5z" />
<glyph unicode=":" horiz-adv-x="744" d="M372 -24q-119 0 -176.5 53.5t-57.5 164.5t57.5 164.5t176.5 53.5t176.5 -53.5t57.5 -164.5t-57.5 -164.5t-176.5 -53.5zM372 624q-119 0 -176.5 53.5t-57.5 164.5t57.5 164.5t176.5 53.5t176.5 -53.5t57.5 -164.5t-57.5 -164.5t-176.5 -53.5z" />
<glyph unicode=";" horiz-adv-x="744" d="M372 624q-119 0 -176.5 53.5t-57.5 164.5t57.5 164.5t176.5 53.5t176.5 -53.5t57.5 -164.5t-57.5 -164.5t-176.5 -53.5zM299 -343q-29 -17 -50 12l-60 89q-8 12 -4.5 28.5t14.5 25.5q41 34 70.5 79.5t36.5 90.5q-168 24 -168 212q0 111 57.5 164.5t176.5 53.5 t176.5 -53.5t57.5 -164.5q0 -358 -307 -537z" />
<glyph unicode="&#x3c;" horiz-adv-x="1284" d="M80 427v470q0 13 8.5 24t20.5 14l1047 251q20 5 34 -6.5t14 -31.5v-293q0 -13 -9 -24.5t-21 -13.5l-732 -155l732 -155q12 -2 21 -13.5t9 -24.5v-293q0 -20 -14 -31.5t-34 -6.5l-1047 251q-12 3 -20.5 14t-8.5 24z" />
<glyph unicode="=" horiz-adv-x="1284" d="M1165 754h-1047q-16 0 -27 11.5t-11 27.5v223q0 16 11 27t27 11h1047q16 0 27.5 -11t11.5 -27v-223q0 -17 -11 -28t-28 -11zM1165 274h-1047q-16 0 -27 11.5t-11 27.5v222q0 16 11 27.5t27 11.5h1047q16 0 27.5 -11.5t11.5 -27.5v-222q0 -17 -11 -28t-28 -11z" />
<glyph unicode="&#x3e;" horiz-adv-x="1284" d="M1204 897v-470q0 -13 -8.5 -24t-20.5 -14l-1047 -251q-20 -5 -34 6.5t-14 31.5v293q0 13 9 24.5t21 13.5l732 155l-732 155q-12 2 -21 13.5t-9 24.5v293q0 20 14 31.5t34 6.5l1047 -251q12 -3 20.5 -14t8.5 -24z" />
<glyph unicode="?" horiz-adv-x="1316" d="M572 -24q-147 0 -208.5 47.5t-61.5 146.5t61.5 146.5t208.5 47.5t208.5 -47.5t61.5 -146.5t-61.5 -146.5t-208.5 -47.5zM322 497v51q0 137 46 217.5t156 126.5q77 31 108.5 56t31.5 54q0 36 -42 52t-162 16q-167 0 -322 -51q-19 -6 -34 4t-17 29l-24 253q-3 36 36 49 q208 70 465 70q652 0 652 -392q0 -237 -274 -364q-68 -30 -94 -61t-26 -73v-37q0 -17 -11 -28t-28 -11h-423q-16 0 -27 11.5t-11 27.5z" />
<glyph unicode="@" horiz-adv-x="1920" d="M912 380q77 0 132 52l62 306q-26 26 -76 26q-85 0 -151.5 -81.5t-66.5 -198.5q0 -104 100 -104zM1502 -190q-223 -134 -538 -134q-141 0 -273 38t-242.5 113.5t-193 179.5t-129 244t-46.5 299q0 193 71.5 359t191 277.5t277 174.5t328.5 63q145 0 278.5 -35.5t245 -106 t194 -170t128.5 -234t46 -290.5q0 -230 -106 -362t-296 -132q-86 0 -157 40.5t-99 107.5q-126 -138 -336 -138q-186 0 -281 105t-95 271q0 119 45.5 225t121.5 181t178.5 118.5t212.5 43.5q119 0 216.5 -44t163.5 -122q33 -40 22 -94l-38 -188q-16 -83 -16 -138 q0 -84 26.5 -130t67.5 -46q67 0 102.5 79t35.5 223q0 291 -175 461.5t-485 170.5q-132 0 -250 -52t-202.5 -141.5t-134 -213.5t-49.5 -263q0 -194 87 -347.5t239.5 -238t341.5 -84.5q247 0 425 118q17 10 33.5 5t24.5 -22l54 -123q6 -15 1.5 -28t-16.5 -20z" />
<glyph unicode="A" horiz-adv-x="1788" d="M1136 241h-484l-63 -213q-9 -28 -38 -28h-494q-22 0 -33.5 16t-4.5 37l470 1309q14 38 54 38h702q40 0 54 -38l470 -1309q7 -21 -4.5 -37t-33.5 -16h-494q-29 0 -38 28zM756 600h276l-138 466z" />
<glyph unicode="B" horiz-adv-x="1664" d="M874 0h-715q-16 0 -27.5 11.5t-11.5 28.5v1320q0 17 11.5 28.5t27.5 11.5h687q338 0 518 -95.5t180 -286.5q0 -194 -174 -272q116 -31 180 -117t64 -197q0 -432 -740 -432zM648 300h212q100 0 151 38t51 98t-51 98t-151 38h-212v-272zM840 1100h-192v-232h192 q172 0 172 116t-172 116z" />
<glyph unicode="C" horiz-adv-x="1544" d="M1412 382q19 6 35 -4t18 -30l25 -258q2 -19 -8 -33.5t-26 -19.5q-201 -61 -480 -61q-436 0 -676 191.5t-240 534.5t240.5 532.5t677.5 189.5q261 0 466 -65q17 -6 26.5 -19.5t7.5 -32.5l-25 -254q-2 -20 -18 -30t-35 -4q-140 45 -304 45q-242 0 -361 -89t-119 -273 q0 -366 488 -366q173 0 308 46z" />
<glyph unicode="D" horiz-adv-x="1722" d="M1662 700q-1 -344 -227 -522t-634 -178h-640q-17 0 -28.5 12t-11.5 28v1320q0 16 11.5 28t28.5 12h640q407 0 633.5 -179t227.5 -521zM1106 700q0 197 -72.5 278.5t-224.5 81.5h-137v-720h137q152 0 224.5 81.5t72.5 278.5z" />
<glyph unicode="E" horiz-adv-x="1476" d="M121 40v1320q0 16 11.5 28t28.5 12h1182q16 0 27.5 -11.5t11.5 -28.5v-260q0 -17 -11.5 -28.5t-27.5 -11.5h-671v-186h618q16 0 28 -12t12 -28v-260q0 -16 -12 -28t-28 -12h-618v-194h684q16 0 28 -12t12 -28v-260q0 -16 -12 -28t-28 -12h-1195q-17 0 -28.5 12t-11.5 28z " />
<glyph unicode="F" horiz-adv-x="1422" d="M121 40v1320q0 16 11.5 28t28.5 12h1182q16 0 27.5 -12t11.5 -28v-260q0 -16 -11.5 -28t-27.5 -12h-670v-188h620q16 0 27.5 -12t11.5 -28v-260q0 -16 -11.5 -28t-27.5 -12h-620v-492q0 -16 -11.5 -28t-28.5 -12h-472q-17 0 -28.5 12t-11.5 28z" />
<glyph unicode="G" horiz-adv-x="1782" d="M1557 1015q-171 57 -387 57q-554 0 -554 -372q0 -95 37 -168t101.5 -116.5t146 -65.5t177.5 -22q91 0 154 12v192h-193q-16 0 -27.5 12t-11.5 28v201q0 16 11.5 27.5t27.5 11.5h595q16 0 27.5 -11.5t11.5 -27.5v-679q0 -11 -8.5 -22t-19.5 -15q-251 -81 -575 -81 q-484 0 -747 191t-263 533q0 161 61.5 293t180.5 228.5t306.5 149.5t427.5 53q332 0 565 -78q17 -6 26.5 -19.5t7.5 -32.5l-25 -245q-2 -20 -18 -30t-35 -4z" />
<glyph unicode="H" horiz-adv-x="1820" d="M120 40v1320q0 16 11.5 28t27.5 12h473q16 0 28 -12t12 -28v-440h476v440q0 16 12 28t28 12h472q16 0 28 -12t12 -28v-1320q0 -16 -12 -28t-28 -12h-472q-16 0 -28 12t-12 28v520h-476v-520q0 -16 -12 -28t-28 -12h-473q-16 0 -27.5 12t-11.5 28z" />
<glyph unicode="I" horiz-adv-x="812" d="M169 1400h473q16 0 28 -12t12 -28v-1320q0 -16 -12 -28t-28 -12h-473q-16 0 -27.5 12t-11.5 28v1320q0 16 11.5 28t27.5 12z" />
<glyph unicode="J" horiz-adv-x="1270" d="M598 492v868q0 16 12 28t28 12h472q16 0 28 -12t12 -28v-864q0 -262 -174.5 -391t-531.5 -129q-243 0 -403 48q-12 4 -20.5 15.5t-7.5 24.5l23 277q1 20 17 30.5t36 3.5q101 -37 237 -37q140 0 206 36t66 118z" />
<glyph unicode="K" horiz-adv-x="1802" d="M673 1360v-508l405 512q29 36 71 36h509q27 0 37 -22.5t-7 -42.5l-491 -587l570 -683q17 -20 7 -42.5t-37 -22.5h-543q-39 0 -56 25l-465 640v-625q0 -16 -11.5 -28t-28.5 -12h-472q-17 0 -28.5 12t-11.5 28v1320q0 16 11.5 28t28.5 12h472q17 0 28.5 -12t11.5 -28z" />
<glyph unicode="L" horiz-adv-x="1450" d="M120 40v1320q0 16 11.5 28t27.5 12h473q16 0 28 -12t12 -28v-1000h718q17 0 28.5 -11.5t11.5 -27.5v-281q0 -16 -12 -28t-28 -12h-1231q-16 0 -27.5 12t-11.5 28z" />
<glyph unicode="M" horiz-adv-x="2240" d="M1292 400h-344q-36 0 -57 29l-299 406v-795q0 -16 -12 -28t-28 -12h-391q-17 0 -28.5 12t-11.5 28v1320q0 16 11.5 28t28.5 12h526q38 0 59 -32l374 -544l374 544q21 32 59 32h526q17 0 28.5 -12t11.5 -28v-1320q0 -16 -11.5 -28t-28.5 -12h-391q-16 0 -28 12t-12 28v795 l-299 -406q-21 -29 -57 -29z" />
<glyph unicode="N" horiz-adv-x="1866" d="M1126 35l-534 749v-744q0 -16 -11.5 -28t-27.5 -12h-393q-16 0 -27.5 12t-11.5 28v1320q0 16 11.5 28t27.5 12h515q41 0 66 -35l534 -749v744q0 16 11.5 28t27.5 12h393q16 0 27.5 -12t11.5 -28v-1320q0 -16 -11.5 -28t-27.5 -12h-515q-42 0 -66 35z" />
<glyph unicode="O" horiz-adv-x="1808" d="M1748 700q0 -161 -53 -292.5t-156 -228.5t-265 -150t-370 -53q-207 0 -369 53.5t-265 150t-156.5 228.5t-53.5 292t53.5 292t156.5 228.5t265 150t369 53.5q208 0 370 -53t265 -150t156 -228.5t53 -292.5zM616 700q0 -192 70.5 -286t217.5 -94t217.5 94t70.5 286 t-70.5 286t-217.5 94t-217.5 -94t-70.5 -286z" />
<glyph unicode="P" horiz-adv-x="1580" d="M1540 902q0 -127 -51 -223t-147.5 -156t-230 -89.5t-304.5 -29.5h-159v-364q0 -16 -12 -28t-28 -12h-447q-17 0 -28.5 12t-11.5 28v1320q0 16 11.5 28t28.5 12h646q349 0 541 -122.5t192 -375.5zM1056 902q0 168 -227 168h-181v-336h181q227 0 227 168z" />
<glyph unicode="Q" horiz-adv-x="1808" d="M616 700q0 -192 70.5 -286t217.5 -94t217.5 94t70.5 286t-70.5 286t-217.5 94t-217.5 -94t-70.5 -286zM740 -14q-332 39 -506 229.5t-174 484.5q0 160 53.5 292t156.5 228.5t265 150t369 53.5q208 0 370 -53t265 -150t156 -228.5t53 -292.5q0 -260 -140 -443t-406 -249 q20 -42 72.5 -60t155.5 -18q102 0 181 16q17 4 30 -7t15 -29l26 -223q2 -16 -5.5 -28.5t-22.5 -14.5q-158 -24 -286 -24q-247 0 -408 88q-165 90 -220 278z" />
<glyph unicode="R" horiz-adv-x="1676" d="M1172 512l446 -444q20 -20 10 -44t-38 -24h-443q-76 0 -128 57l-372 408v-425q0 -16 -11.5 -28t-27.5 -12h-449q-16 0 -27.5 12t-11.5 28v1320q0 16 11.5 28t27.5 12h647q172 0 305 -26.5t230 -82t148 -145t51 -210.5q0 -326 -368 -424zM1008 936q0 73 -56.5 108.5 t-149.5 35.5h-154v-288h154q93 0 149.5 35.5t56.5 108.5z" />
<glyph unicode="S" horiz-adv-x="1464" d="M103 52q-12 4 -20.5 16t-7.5 25l30 284q2 20 18 30t35 3q205 -76 462 -76q94 0 146 8.5t67 22t15 35.5q0 19 -25 35.5t-102.5 41.5t-226.5 61q-217 53 -320.5 158.5t-103.5 275.5q0 229 166 340.5t512 111.5q312 0 532 -59q13 -4 22 -16t7 -26l-26 -278q-2 -20 -16 -30.5 t-32 -4.5q-165 52 -395 52q-126 0 -170 -14.5t-44 -49.5q0 -21 23.5 -37t99.5 -41t231 -66q220 -58 322 -159.5t102 -272.5q0 -225 -170 -335.5t-550 -110.5q-329 0 -581 76z" />
<glyph unicode="T" horiz-adv-x="1460" d="M454 40v1000h-394q-17 0 -28.5 11.5t-11.5 27.5v281q0 16 12 28t28 12h1340q16 0 28 -12t12 -28v-281q0 -16 -11.5 -27.5t-28.5 -11.5h-394v-1000q0 -16 -11.5 -28t-27.5 -12h-473q-16 0 -28 12t-12 28z" />
<glyph unicode="U" horiz-adv-x="1828" d="M914 -24q-373 0 -583 158t-210 464v762q0 16 11.5 28t28.5 12h475q16 0 28 -12t12 -28v-776q0 -129 58 -186.5t180 -57.5t180 57.5t58 186.5v776q0 16 12 28t28 12h475q17 0 28.5 -12t11.5 -28v-762q0 -306 -210 -464t-583 -158z" />
<glyph unicode="V" horiz-adv-x="1828" d="M1257 0h-686q-48 0 -64 42l-469 1305q-7 21 4 37t34 16h469q57 0 70 -44l299 -1022l299 1022q13 44 70 44h469q23 0 34 -16t4 -37l-469 -1305q-16 -42 -64 -42z" />
<glyph unicode="W" horiz-adv-x="2504" d="M999 1400h506q22 0 37 -14.5t20 -38.5l172 -905l195 927q3 13 14.5 22t24.5 9h464q21 0 32 -15.5t5 -35.5l-377 -1304q-14 -45 -60 -45h-555q-49 0 -59 54l-166 905l-166 -905q-10 -54 -59 -54h-555q-46 0 -60 45l-377 1304q-6 20 5 35.5t32 15.5h464q13 0 24.5 -9 t14.5 -22l195 -927l172 905q5 24 20 38.5t37 14.5z" />
<glyph unicode="X" horiz-adv-x="1780" d="M1149 29l-259 344l-259 -344q-8 -11 -26 -20t-36 -9h-476q-26 0 -37 23t6 44l512 644l-491 622q-17 21 -6 44t37 23h476q18 0 36 -9t26 -20l238 -316l238 316q8 11 26 20t36 9h476q26 0 37 -23t-6 -44l-491 -622l512 -644q17 -21 6 -44t-37 -23h-476q-18 0 -36 9t-26 20z " />
<glyph unicode="Y" horiz-adv-x="1832" d="M1153 0h-474q-16 0 -27.5 12t-11.5 28v501l-575 796q-15 21 -4.5 42t36.5 21h447q60 0 84 -38l288 -452l288 452q24 38 84 38h447q26 0 36.5 -21t-4.5 -42l-575 -796v-501q0 -16 -11.5 -28t-27.5 -12z" />
<glyph unicode="Z" horiz-adv-x="1440" d="M50 40v239q0 77 47 128l579 633h-554q-17 0 -28.5 11.5t-11.5 27.5v281q0 16 12 28t28 12h1205q16 0 27.5 -12t11.5 -28v-261q0 -54 -49 -108l-582 -631h615q17 0 28.5 -11.5t11.5 -27.5v-281q0 -16 -12 -28t-28 -12h-1260q-16 0 -28 12t-12 28z" />
<glyph unicode="[" horiz-adv-x="1008" d="M200 -221v1682q0 16 11.5 27.5t27.5 11.5h690q16 0 27.5 -11.5t11.5 -27.5v-222q0 -16 -11.5 -27.5t-27.5 -11.5h-303v-1160h303q16 0 27.5 -11.5t11.5 -27.5v-222q0 -16 -11.5 -27.5t-27.5 -11.5h-690q-16 0 -27.5 11.5t-11.5 27.5z" />
<glyph unicode="\" horiz-adv-x="1362" d="M954 -173l-959 1610q-13 21 -2.5 40t35.5 19h298q54 0 82 -47l959 -1610q13 -21 2.5 -40t-35.5 -19h-298q-54 0 -82 47z" />
<glyph unicode="]" horiz-adv-x="1008" d="M808 1461v-1682q0 -16 -11.5 -27.5t-27.5 -11.5h-690q-16 0 -27.5 11.5t-11.5 27.5v222q0 16 11.5 27.5t27.5 11.5h303v1160h-303q-16 0 -27.5 11.5t-11.5 27.5v222q0 16 11.5 27.5t27.5 11.5h690q16 0 27.5 -11.5t11.5 -27.5z" />
<glyph unicode="^" horiz-adv-x="1284" d="M434 1400h416q39 0 58 -37l305 -568q11 -20 0 -38.5t-34 -18.5h-300q-39 0 -59 38l-178 342l-178 -342q-20 -38 -59 -38h-300q-23 0 -34 18.5t0 38.5l305 568q19 37 58 37z" />
<glyph unicode="_" horiz-adv-x="1000" d="M0 -302v59q0 16 11.5 27.5t27.5 11.5h922q16 0 27.5 -11.5t11.5 -27.5v-59q0 -16 -11.5 -27t-27.5 -11h-922q-16 0 -27.5 11t-11.5 27z" />
<glyph unicode="`" horiz-adv-x="1080" d="M577 1445l224 -260q17 -20 7 -42.5t-37 -22.5h-192q-45 0 -87 32l-313 239q-19 14 -10.5 41.5t35.5 27.5h325q36 0 48 -15z" />
<glyph unicode="a" horiz-adv-x="1552" d="M962 200h-372l-42 -170q-8 -30 -39 -30h-453q-22 0 -33.5 16t-4.5 37l379 1110q4 10 16 18.5t23 8.5h680q11 0 23 -8.5t16 -18.5l379 -1110q7 -21 -4.5 -37t-33.5 -16h-453q-31 0 -39 30zM672 520h208l-104 402z" />
<glyph unicode="b" horiz-adv-x="1440" d="M756 0h-616q-16 0 -28 12t-12 28v1110q0 16 12 28t28 12h594q294 0 451 -83t157 -247q0 -152 -134 -224q91 -35 141.5 -105.5t50.5 -156.5q0 -374 -644 -374zM598 276h166q70 0 104 28.5t34 77.5q0 104 -138 104h-166v-210zM766 918h-168v-182h168q61 0 87.5 23.5 t26.5 68.5q0 46 -26 68t-88 22z" />
<glyph unicode="c" horiz-adv-x="1326" d="M1258 34q-197 -58 -428 -58q-376 0 -583 164t-207 456q0 293 207 455.5t585 162.5q213 0 412 -60q13 -4 23.5 -17.5t9.5 -26.5l-25 -240q-2 -21 -19 -30.5t-37 -1.5q-133 50 -266 50q-187 0 -278.5 -71.5t-91.5 -220.5q0 -294 376 -294q139 0 271 49q20 8 37 -2t19 -30 l24 -243q1 -13 -7.5 -25.5t-21.5 -16.5z" />
<glyph unicode="d" horiz-adv-x="1488" d="M694 0h-553q-17 0 -29 11.5t-12 28.5v1110q0 17 12 28.5t29 11.5h553q233 0 398 -66t255 -200.5t91 -329.5q-1 -292 -196.5 -443t-547.5 -151zM918 594q0 157 -53 221.5t-167 64.5h-82v-572h82q113 0 166.5 65t53.5 221z" />
<glyph unicode="e" horiz-adv-x="1278" d="M100 40v1110q0 16 12 28t28 12h1026q17 0 28.5 -11.5t11.5 -28.5v-229q0 -17 -11.5 -29t-28.5 -12h-548v-128h504q16 0 28 -12t12 -28v-228q0 -16 -12 -28t-28 -12h-504v-136h559q17 0 29 -11.5t12 -28.5v-228q0 -17 -12 -28.5t-29 -11.5h-1037q-16 0 -28 12t-12 28z" />
<glyph unicode="f" horiz-adv-x="1256" d="M100 40v1110q0 16 12 28t28 12h1026q16 0 28 -12t12 -28v-229q0 -17 -11.5 -29t-28.5 -12h-548v-158h506q17 0 28.5 -11.5t11.5 -28.5v-230q0 -17 -11.5 -28.5t-28.5 -11.5h-506v-372q0 -16 -12 -28t-28 -12h-438q-16 0 -28 12t-12 28z" />
<glyph unicode="g" horiz-adv-x="1530" d="M1016 299v153h-154q-16 0 -28 12t-12 28v170q0 17 11.5 28.5t28.5 11.5h537q17 0 29 -11.5t12 -28.5v-577q0 -12 -9 -23.5t-20 -14.5q-233 -71 -500 -71q-419 0 -645 163t-226 455q0 285 215.5 452.5t625.5 167.5q287 0 500 -72q12 -4 19.5 -15.5t6.5 -26.5l-22 -230 q-2 -20 -18.5 -30t-36.5 -3q-161 59 -337 59q-211 0 -321 -72.5t-110 -229.5q0 -77 28.5 -136t78 -94t112 -52.5t135.5 -17.5q37 0 100 5z" />
<glyph unicode="h" horiz-adv-x="1568" d="M100 40v1110q0 16 12 28t28 12h438q16 0 28 -12t12 -28v-358h332v358q0 17 11.5 28.5t28.5 11.5h438q16 0 28 -12t12 -28v-1110q0 -16 -12 -28t-28 -12h-438q-17 0 -28.5 11.5t-11.5 28.5v426h-332v-426q0 -16 -12 -28t-28 -12h-438q-16 0 -28 12t-12 28z" />
<glyph unicode="i" horiz-adv-x="738" d="M150 1190h438q17 0 28.5 -11.5t11.5 -28.5v-1110q0 -17 -11.5 -28.5t-28.5 -11.5h-438q-16 0 -28 12t-12 28v1110q0 16 12 28t28 12z" />
<glyph unicode="j" horiz-adv-x="1110" d="M492 418v732q0 17 12 28.5t29 11.5h437q16 0 28 -12t12 -28v-728q0 -224 -152.5 -335t-463.5 -111q-204 0 -359 44q-12 4 -20.5 16.5t-7.5 25.5l20 248q2 21 19 31t37 2q105 -39 215 -39q100 0 147 26.5t47 87.5z" />
<glyph unicode="k" horiz-adv-x="1568" d="M618 1150v-354l291 370q19 24 56 24h464q28 0 38 -22.5t-7 -43.5l-406 -488l472 -571q18 -21 7.5 -43t-38.5 -22h-482q-18 0 -37.5 9.5t-29.5 23.5l-328 449v-442q0 -16 -12 -28t-28 -12h-438q-16 0 -28 12t-12 28v1110q0 16 12 28t28 12h438q16 0 28 -12t12 -28z" />
<glyph unicode="l" horiz-adv-x="1262" d="M100 40v1110q0 16 12 28t28 12h438q17 0 28.5 -11.5t11.5 -28.5v-824h588q17 0 28.5 -11.5t11.5 -28.5v-246q0 -16 -12 -28t-28 -12h-1066q-16 0 -28 12t-12 28z" />
<glyph unicode="m" horiz-adv-x="1920" d="M1121 332h-322q-31 0 -54 33l-195 285v-610q0 -16 -12 -28t-28 -12h-370q-17 0 -28.5 11.5t-11.5 28.5v1110q0 17 11.5 28.5t28.5 11.5h463q20 0 33 -17l324 -465l324 465q13 17 33 17h463q17 0 28.5 -11.5t11.5 -28.5v-1110q0 -17 -11.5 -28.5t-28.5 -11.5h-370 q-16 0 -28 12t-12 28v610l-195 -285q-23 -33 -54 -33z" />
<glyph unicode="n" horiz-adv-x="1608" d="M954 18l-404 618v-596q0 -17 -11.5 -28.5t-28.5 -11.5h-370q-16 0 -28 12t-12 28v1110q0 16 12 28t28 12h480q8 0 19 -6t15 -13l402 -619v598q0 17 11.5 28.5t28.5 11.5h372q16 0 28 -12t12 -28v-1110q0 -16 -12 -28t-28 -12h-480q-22 0 -34 18z" />
<glyph unicode="o" horiz-adv-x="1544" d="M1504 594q0 -136 -46 -248.5t-135.5 -195.5t-230 -128.5t-320.5 -45.5t-320.5 45.5t-230 128.5t-135.5 195.5t-46 248.5q0 281 188 450.5t544 169.5t544 -169.5t188 -450.5zM562 594q0 -152 51 -228t159 -76t159 76t51 228q0 154 -51 230t-159 76t-159 -76t-51 -230z" />
<glyph unicode="p" horiz-adv-x="1374" d="M596 336v-296q0 -16 -12 -28t-28 -12h-416q-17 0 -28.5 11.5t-11.5 28.5v1110q0 17 11.5 28.5t28.5 11.5h560q305 0 471.5 -105t166.5 -323q0 -216 -167 -321t-471 -105h-104zM862 762q0 138 -160 138h-106v-272h106q160 0 160 134z" />
<glyph unicode="q" horiz-adv-x="1544" d="M1504 594q0 -220 -117 -374t-342 -212q28 -50 161 -50q95 0 169 15q18 4 32.5 -6t16.5 -28l25 -189q2 -16 -7.5 -29t-25.5 -16q-123 -21 -254 -21q-221 0 -360 78q-76 43 -123 97t-71 128q-278 38 -423 200t-145 407q0 281 188 450.5t544 169.5t544 -169.5t188 -450.5z M562 594q0 -152 51 -228t159 -76t159 76t51 228q0 154 -51 230t-159 76t-159 -76t-51 -230z" />
<glyph unicode="r" horiz-adv-x="1458" d="M1346 788q0 -262 -274 -354l339 -367q19 -20 9 -43.5t-38 -23.5h-463q-18 0 -31 15l-292 361v-336q0 -17 -11.5 -28.5t-28.5 -11.5h-416q-16 0 -28 12t-12 28v1110q0 16 12 28t28 12h570q306 0 471 -98.5t165 -303.5zM870 776q0 62 -38.5 93t-101.5 31h-134v-250h134 q63 0 101.5 31.5t38.5 94.5z" />
<glyph unicode="s" horiz-adv-x="1268" d="M1076 835q-164 51 -352 51q-81 0 -110.5 -9t-29.5 -31q0 -20 52 -41.5t220 -68.5q185 -51 280.5 -142.5t95.5 -231.5q0 -194 -148.5 -290t-479.5 -96q-280 0 -505 66q-13 4 -21.5 16.5t-7.5 25.5l25 254q2 21 18 30.5t36 2.5q200 -71 401 -71q66 0 102.5 6t47 14.5 t10.5 23.5q0 13 -18.5 25t-79 31.5t-172.5 47.5q-192 48 -284 138.5t-92 235.5q0 198 145.5 295t446.5 97q265 0 466 -55q13 -4 22 -16t7 -26l-22 -248q-1 -19 -17 -29.5t-36 -4.5z" />
<glyph unicode="t" horiz-adv-x="1298" d="M390 40v824h-320q-17 0 -28.5 11.5t-11.5 28.5v246q0 16 12 28t28 12h1157q17 0 29 -11.5t12 -28.5v-246q0 -17 -12 -28.5t-29 -11.5h-319v-824q0 -16 -12 -28t-28 -12h-438q-16 0 -28 12t-12 28z" />
<glyph unicode="u" horiz-adv-x="1576" d="M788 -24q-323 0 -505.5 134.5t-182.5 395.5v644q0 16 12 28t28 12h440q16 0 28 -12t12 -28v-656q0 -99 41.5 -144.5t126.5 -45.5t126.5 45.5t41.5 144.5v656q0 16 12 28t28 12h440q16 0 28 -12t12 -28v-644q0 -261 -182.5 -395.5t-505.5 -134.5z" />
<glyph unicode="v" horiz-adv-x="1584" d="M1133 0h-682q-11 0 -22.5 8t-15.5 19l-378 1110q-7 21 4.5 37t33.5 16h452q12 0 24 -9t15 -21l228 -892l228 892q3 12 15 21t24 9h452q22 0 33.5 -16t4.5 -37l-378 -1110q-4 -11 -15.5 -19t-22.5 -8z" />
<glyph unicode="w" horiz-adv-x="2148" d="M853 1190h442q13 0 25 -9.5t15 -23.5l143 -748l139 748q2 13 14 23t25 10h424q21 0 32 -15t6 -35l-302 -1110q-3 -12 -14.5 -21t-23.5 -9h-532q-14 0 -25.5 10t-13.5 24l-133 739l-133 -739q-2 -14 -13.5 -24t-25.5 -10h-532q-12 0 -23.5 9t-14.5 21l-302 1110 q-5 20 6 35t32 15h424q13 0 25 -10t14 -23l139 -748l143 748q3 14 15 23.5t25 9.5z" />
<glyph unicode="x" horiz-adv-x="1568" d="M784 297l-197 -271q-23 -26 -48 -26h-449q-26 0 -37 22t6 42l422 544l-400 518q-16 21 -5.5 42.5t36.5 21.5h449q29 0 48 -26l175 -244l175 244q20 26 48 26h449q26 0 36.5 -21.5t-5.5 -42.5l-401 -518l423 -544q17 -20 6 -42t-37 -22h-449q-25 0 -48 26z" />
<glyph unicode="y" horiz-adv-x="1600" d="M1018 0h-436q-17 0 -28.5 11.5t-11.5 28.5v423l-480 664q-15 21 -4 42t37 21h435q31 0 51 -31l219 -343l219 343q20 31 51 31h435q26 0 37 -21t-4 -42l-480 -664v-423q0 -17 -11.5 -28.5t-28.5 -11.5z" />
<glyph unicode="z" horiz-adv-x="1238" d="M32 40v183q0 93 66 165l442 476h-440q-17 0 -28.5 11.5t-11.5 28.5v246q0 17 11.5 28.5t28.5 11.5h1046q17 0 28.5 -11.5t11.5 -28.5v-204q0 -65 -50 -121l-462 -499h492q17 0 28.5 -11.5t11.5 -28.5v-246q0 -16 -12 -28t-28 -12h-1094q-16 0 -28 12t-12 28z" />
<glyph unicode="{" horiz-adv-x="1034" d="M120 506v228q0 13 9 24.5t20 13.5q59 14 101 66.5t42 131.5v279q0 123 77.5 187t208.5 64h377q16 0 27.5 -11.5t11.5 -27.5v-222q0 -16 -11.5 -27.5t-27.5 -11.5h-161q-40 0 -58 -18.5t-18 -59.5v-229q0 -221 -224 -273q224 -52 224 -273v-229q0 -41 18 -59.5t58 -18.5 h161q16 0 27.5 -11.5t11.5 -27.5v-222q0 -16 -11.5 -27.5t-27.5 -11.5h-377q-131 0 -208.5 64t-77.5 187v279q0 79 -42 131.5t-101 66.5q-11 2 -20 13.5t-9 24.5z" />
<glyph unicode="|" horiz-adv-x="632" d="M160 -361v1860q0 16 11.5 27.5t27.5 11.5h234q16 0 27.5 -11.5t11.5 -27.5v-1860q0 -16 -11.5 -27.5t-27.5 -11.5h-234q-16 0 -27.5 11.5t-11.5 27.5z" />
<glyph unicode="}" horiz-adv-x="1034" d="M914 734v-228q0 -13 -9 -24.5t-20 -13.5q-59 -14 -101 -66.5t-42 -131.5v-279q0 -123 -77.5 -187t-208.5 -64h-377q-16 0 -27.5 11.5t-11.5 27.5v222q0 16 11.5 27.5t27.5 11.5h161q40 0 58 18.5t18 59.5v229q0 221 224 273q-224 52 -224 273v229q0 41 -18 59.5t-58 18.5 h-161q-16 0 -27.5 11.5t-11.5 27.5v222q0 16 11.5 27.5t27.5 11.5h377q131 0 208.5 -64t77.5 -187v-279q0 -79 42 -131.5t101 -66.5q11 -2 20 -13.5t9 -24.5z" />
<glyph unicode="~" horiz-adv-x="1284" d="M712 473q-121 45 -175 45q-65 0 -78 -53q-3 -12 -14 -20.5t-24 -8.5h-301q-16 0 -27.5 11t-11.5 28q5 215 75 319t219 104q83 0 197 -41q121 -45 175 -45q65 0 78 53q3 12 14 20.5t24 8.5h301q16 0 27.5 -11t11.5 -28q-5 -215 -75 -319t-219 -104q-83 0 -197 41z" />
<glyph unicode="&#xa1;" horiz-adv-x="800" d="M130 58l53 601q1 15 12.5 25t26.5 10h356q14 0 26 -10.5t13 -25.5l53 -598v-256q0 -16 -11 -27t-27 -11h-463q-16 0 -27.5 11t-11.5 27v254zM400 1190q147 0 208.5 -47.5t61.5 -146.5t-61.5 -146.5t-208.5 -47.5t-208.5 47.5t-61.5 146.5t61.5 146.5t208.5 47.5z" />
<glyph unicode="&#xa2;" horiz-adv-x="1326" d="M1258 34q-150 -45 -328 -55v-173q0 -16 -12 -28t-28 -12h-216q-16 0 -28 12t-12 28v183q-286 40 -440 197.5t-154 409.5t153.5 408t440.5 197v183q0 16 12 28t28 12h216q16 0 28 -12t12 -28v-174q167 -12 314 -56q13 -4 23.5 -17.5t9.5 -26.5l-25 -240q-2 -21 -19 -30.5 t-37 -1.5q-133 50 -266 50q-187 0 -278.5 -71.5t-91.5 -220.5q0 -294 376 -294q139 0 271 49q20 8 37 -2t19 -30l24 -243q1 -13 -7.5 -25.5t-21.5 -16.5z" />
<glyph unicode="&#xa3;" horiz-adv-x="1398" d="M78 770h116v195q0 241 153 350t477 109q247 0 437 -58q13 -3 21.5 -15.5t6.5 -25.5l-24 -246q-2 -21 -17.5 -30t-35.5 -2q-103 35 -223 35q-136 0 -190.5 -34t-54.5 -103v-175h329q16 0 27.5 -11.5t11.5 -27.5v-58q0 -16 -11.5 -27.5t-27.5 -11.5h-329v-100 q0 -61 -25 -115t-75 -79h695q16 0 27.5 -11.5t11.5 -27.5v-262q0 -16 -11.5 -27.5t-27.5 -11.5h-1261q-16 0 -27 11.5t-11 27.5v275q0 24 24 37q60 29 95 73.5t35 93.5v116h-116q-16 0 -27 11.5t-11 27.5v58q0 16 11 27.5t27 11.5z" />
<glyph unicode="&#xa4;" horiz-adv-x="1478" d="M568 665q0 -104 44.5 -158.5t125.5 -54.5t125.5 54.5t44.5 158.5t-44.5 158.5t-125.5 54.5t-125.5 -54.5t-44.5 -158.5zM1290 665q0 -132 -56 -239l116 -116q11 -11 12 -28t-10 -28l-177 -188q-11 -12 -28 -12.5t-29 11.5l-136 136q-113 -45 -244 -45t-244 45l-136 -136 q-12 -12 -29 -11.5t-28 12.5l-177 188q-11 11 -10 28t12 28l116 116q-56 107 -56 239t56 239l-116 116q-11 11 -12 28t10 28l177 188q11 12 28 12.5t29 -11.5l136 -136q113 45 244 45t244 -45l136 136q12 12 29 11.5t28 -12.5l177 -188q11 -11 10 -28t-12 -28l-116 -116 q56 -107 56 -239z" />
<glyph unicode="&#xa5;" horiz-adv-x="1664" d="M1069 0h-474q-16 0 -27.5 11.5t-11.5 27.5v255h-329q-16 0 -27.5 11.5t-11.5 27.5v58q0 17 11 28t28 11h329v120h-329q-16 0 -27.5 11.5t-11.5 27.5v59q0 16 11.5 27t27.5 11h249l-417 654q-13 21 -2.5 40.5t35.5 19.5h456q21 0 34 -21l250 -495l250 495q13 21 34 21h456 q25 0 35.5 -19.5t-2.5 -40.5l-417 -654h249q16 0 27.5 -11t11.5 -27v-59q0 -16 -11.5 -27.5t-27.5 -11.5h-329v-120h329q17 0 28 -11t11 -28v-58q0 -16 -11.5 -27.5t-27.5 -11.5h-329v-255q0 -16 -11.5 -27.5t-27.5 -11.5z" />
<glyph unicode="&#xa6;" horiz-adv-x="632" d="M160 735v627q0 16 11.5 27t27.5 11h234q16 0 27.5 -11t11.5 -27v-627q0 -16 -11.5 -27.5t-27.5 -11.5h-234q-16 0 -27.5 11.5t-11.5 27.5zM160 -185v626q0 16 11.5 27.5t27.5 11.5h234q16 0 27.5 -11.5t11.5 -27.5v-626q0 -16 -11.5 -27.5t-27.5 -11.5h-234 q-16 0 -27.5 11.5t-11.5 27.5z" />
<glyph unicode="&#xa7;" horiz-adv-x="1366" d="M720 522q48 14 75 38t27 54q0 29 -49 58.5t-117 39.5q-48 -14 -75 -38t-27 -54q0 -29 49 -58.5t117 -39.5zM189 -135q-11 4 -19.5 15.5t-7.5 24.5l12 207q2 21 17.5 31t34.5 2q148 -55 328 -55q98 0 133 11.5t35 36.5q0 21 -21 39.5t-82 42t-169 50.5q-157 40 -247.5 120 t-90.5 202q0 94 48.5 163.5t125.5 106.5q-85 33 -130.5 98t-45.5 156q0 64 31.5 118t97 97.5t178 68t261.5 24.5q304 0 501 -67q12 -5 20 -17t7 -25l-22 -192q-2 -19 -16.5 -29.5t-32.5 -5.5q-121 46 -323 46q-168 0 -168 -54q0 -36 59 -62.5t213 -63.5q160 -39 249 -116 t89 -206q0 -93 -48.5 -162.5t-127.5 -107.5q81 -30 129.5 -95.5t48.5 -148.5q0 -146 -137 -232t-431 -86q-281 0 -499 65z" />
<glyph unicode="&#xa8;" horiz-adv-x="1080" d="M86 1290q0 85 43 125.5t135 40.5q93 0 136.5 -40t43.5 -126t-43.5 -126t-136.5 -40q-92 0 -135 40.5t-43 125.5zM636 1290q0 86 43.5 126t136.5 40q92 0 135 -40.5t43 -125.5t-43 -125.5t-135 -40.5q-93 0 -136.5 40t-43.5 126z" />
<glyph unicode="&#xa9;" horiz-adv-x="1660" d="M106 700q0 197 97 363.5t263.5 263.5t363.5 97t363.5 -97t263.5 -263.5t97 -363.5t-97 -363.5t-263.5 -263.5t-363.5 -97t-363.5 97t-263.5 263.5t-97 363.5zM218 700q0 -169 82 -312t223 -225.5t307 -82.5t307 82.5t223 225.5t82 312t-82 312t-223 225.5t-307 82.5 t-307 -82.5t-223 -225.5t-82 -312zM1128 294q-85 -30 -218 -30q-245 0 -381.5 113t-136.5 319q0 205 134.5 319.5t361.5 114.5q143 0 242 -40q10 -4 17.5 -16t6.5 -23l-12 -136q-2 -23 -16.5 -34t-34.5 -3q-56 22 -119 22q-74 0 -122 -55.5t-48 -148.5q0 -94 51.5 -148 t138.5 -54q50 0 99 15q18 6 33 -5.5t17 -31.5l12 -138q1 -12 -6.5 -24t-18.5 -16z" />
<glyph unicode="&#xaa;" horiz-adv-x="1108" d="M667 762h-226l-23 -93q-3 -12 -14.5 -21.5t-24.5 -9.5h-275q-22 0 -33.5 16t-4.5 37l229 682q4 10 15.5 18.5t22.5 8.5h442q11 0 22.5 -8.5t15.5 -18.5l229 -682q7 -21 -4.5 -37t-33.5 -16h-275q-13 0 -24.5 9.5t-14.5 21.5zM485 946h138l-69 281z" />
<glyph unicode="&#xab;" horiz-adv-x="1122" d="M100 508v232q0 30 27 55l351 325q20 19 43 9t23 -38v-261q0 -18 -13 -29l-197 -177l197 -177q13 -11 13 -29v-261q0 -28 -23 -38t-43 9l-351 325q-27 25 -27 55zM598 508v232q0 30 27 55l351 325q20 19 43 9t23 -38v-261q0 -18 -13 -29l-197 -177l197 -177q13 -11 13 -29 v-261q0 -28 -23 -38t-43 9l-351 325q-27 25 -27 55z" />
<glyph unicode="&#xac;" horiz-adv-x="1284" d="M70 658v224q0 16 11.5 27t27.5 11h1046q16 0 27.5 -11t11.5 -27v-545q0 -16 -11.5 -27.5t-27.5 -11.5h-310q-16 0 -27.5 11.5t-11.5 27.5v283h-697q-16 0 -27.5 11t-11.5 27z" />
<glyph unicode="&#xad;" horiz-adv-x="828" d="M709 504h-590q-16 0 -27.5 11.5t-11.5 27.5v242q0 17 11 28t28 11h590q16 0 27.5 -11.5t11.5 -27.5v-242q0 -16 -11.5 -27.5t-27.5 -11.5z" />
<glyph unicode="&#xae;" horiz-adv-x="1660" d="M1094 598l174 -260q14 -21 1.5 -38.5t-37.5 -17.5h-255q-32 0 -51 32l-128 225l1 -218q0 -16 -11.5 -27.5t-27.5 -11.5h-267q-16 0 -27.5 11.5t-11.5 27.5v757q0 16 11.5 27t27.5 11h407q162 0 254 -71.5t92 -204.5q0 -179 -152 -242zM898 840q0 86 -60 86h-58v-172h58 q60 0 60 86zM106 700q0 197 97 363.5t263.5 263.5t363.5 97t363.5 -97t263.5 -263.5t97 -363.5t-97 -363.5t-263.5 -263.5t-363.5 -97t-363.5 97t-263.5 263.5t-97 363.5zM218 700q0 -169 82 -312t223 -225.5t307 -82.5t307 82.5t223 225.5t82 312t-82 312t-223 225.5 t-307 82.5t-307 -82.5t-223 -225.5t-82 -312z" />
<glyph unicode="&#xaf;" horiz-adv-x="1080" d="M176 1211v156q0 16 11.5 27.5t27.5 11.5h651q16 0 27 -11.5t11 -27.5v-156q0 -16 -11 -27.5t-27 -11.5h-651q-16 0 -27.5 11.5t-11.5 27.5z" />
<glyph unicode="&#xb0;" horiz-adv-x="1080" d="M868 1110q0 -135 -93 -224.5t-235 -89.5t-235 89.5t-93 224.5t93 224.5t235 89.5t235 -89.5t93 -224.5zM436 1110q0 -44 29.5 -74t74.5 -30t74.5 30t29.5 74t-29.5 74t-74.5 30t-74.5 -30t-29.5 -74z" />
<glyph unicode="&#xb1;" horiz-adv-x="1284" d="M448 379v275h-330q-16 0 -27 11.5t-11 27.5v222q0 16 11 27.5t27 11.5h330v275q0 16 11 27.5t27 11.5h311q17 0 28 -11t11 -28v-275h329q16 0 27.5 -11.5t11.5 -27.5v-222q0 -17 -11 -28t-28 -11h-329v-275q0 -16 -11.5 -27.5t-27.5 -11.5h-311q-16 0 -27 11.5t-11 27.5z M1165 0h-1047q-16 0 -27 11.5t-11 27.5v222q0 16 11 27.5t27 11.5h1047q16 0 27.5 -11.5t11.5 -27.5v-222q0 -16 -11.5 -27.5t-27.5 -11.5z" />
<glyph unicode="&#xb2;" horiz-adv-x="1008" d="M119 695q155 98 267 189q78 63 115 111t37 97q0 51 -43.5 73.5t-146.5 22.5q-94 0 -177 -22q-18 -5 -30.5 5.5t-14.5 30.5l-10 136q-2 30 24 38q150 40 312 40q226 0 336 -80.5t110 -225.5q0 -165 -138 -282q-104 -88 -212 -132h307q16 0 27.5 -11.5t11.5 -27.5v-148 q0 -17 -11 -28t-28 -11h-726q-16 0 -27.5 11.5t-11.5 27.5v147q0 20 29 39z" />
<glyph unicode="&#xb3;" horiz-adv-x="1008" d="M115 496q-13 4 -22 16t-8 24l14 138q2 20 17.5 30t34.5 3q106 -39 225 -39q196 0 196 78q0 53 -73.5 80t-248.5 29q-16 0 -27 11.5t-11 27.5v123q0 16 9.5 26.5t25.5 10.5q166 2 238.5 23t72.5 63q0 33 -42.5 47.5t-135.5 14.5q-111 0 -211 -28q-18 -5 -32.5 5.5 t-16.5 29.5l-13 124q-1 13 6.5 25t20.5 16q132 42 338 42t322 -66t116 -194q0 -148 -150 -202q79 -26 122.5 -80t43.5 -128q0 -137 -127.5 -214.5t-350.5 -77.5q-174 0 -333 42z" />
<glyph unicode="&#xb4;" horiz-adv-x="1080" d="M279 1185l224 260q12 15 48 15h325q27 0 35.5 -27.5t-10.5 -41.5l-313 -239q-42 -32 -87 -32h-192q-27 0 -37 22.5t7 42.5z" />
<glyph unicode="&#xb5;" horiz-adv-x="1920" d="M1121 332h-322q-31 0 -54 33l-195 285v-610q0 -16 -12 -28t-28 -12h-370q-17 0 -28.5 11.5t-11.5 28.5v1110q0 17 11.5 28.5t28.5 11.5h463q20 0 33 -17l324 -465l324 465q13 17 33 17h463q17 0 28.5 -11.5t11.5 -28.5v-1110q0 -17 -11.5 -28.5t-28.5 -11.5h-370 q-16 0 -28 12t-12 28v610l-195 -285q-23 -33 -54 -33z" />
<glyph unicode="&#xb6;" horiz-adv-x="1360" d="M1240 1400v-1623q0 -16 -11.5 -27.5t-27.5 -11.5h-238q-16 0 -27.5 11.5t-11.5 27.5v1373h-76v-1373q0 -16 -11.5 -27.5t-27.5 -11.5h-246q-16 0 -27.5 11.5t-11.5 27.5v755h-10q-201 0 -327.5 115.5t-126.5 318.5t126.5 318.5t327.5 115.5h726z" />
<glyph unicode="&#xb7;" horiz-adv-x="744" d="M372 446q-119 0 -176.5 53.5t-57.5 164.5t57.5 164.5t176.5 53.5t176.5 -53.5t57.5 -164.5t-57.5 -164.5t-176.5 -53.5z" />
<glyph unicode="&#xb8;" horiz-adv-x="1080" d="M347 -199q-51 1 -28 37l94 145q13 17 32 17h196q25 0 37 -18t-2 -39l-36 -53q66 -13 112 -56t46 -102q0 -208 -360 -208q-59 0 -126 8q-14 1 -22 13t-8 26v83q0 19 10.5 30.5t28.5 8.5q35 -5 69 -5q134 0 134 48q0 58 -177 65z" />
<glyph unicode="&#xb9;" horiz-adv-x="1008" d="M109 1191l283 192q29 19 63 19h252q17 0 28 -11t11 -28v-854q0 -17 -11 -28t-28 -11h-275q-16 0 -27 11.5t-11 27.5v589l-160 -107q-14 -8 -29.5 -4.5t-23.5 16.5l-84 132q-9 14 -5.5 30.5t17.5 25.5z" />
<glyph unicode="&#xba;" horiz-adv-x="1108" d="M552 1416q230 0 368 -107.5t138 -288.5t-138 -288.5t-368 -107.5q-227 0 -364.5 107.5t-137.5 288.5t137.5 288.5t364.5 107.5zM552 836q122 0 122 184q0 186 -122 186q-118 0 -118 -186q0 -184 118 -184z" />
<glyph unicode="&#xbb;" horiz-adv-x="1122" d="M1022 740v-232q0 -30 -27 -55l-351 -325q-20 -19 -43 -9t-23 38v261q0 18 13 29l197 177l-197 177q-13 11 -13 29v261q0 28 23 38t43 -9l351 -325q27 -25 27 -55zM524 740v-232q0 -30 -27 -55l-351 -325q-20 -19 -43 -9t-23 38v261q0 18 13 29l197 177l-197 177 q-13 11 -13 29v261q0 28 23 38t43 -9l351 -325q27 -25 27 -55z" />
<glyph unicode="&#xbc;" horiz-adv-x="2424" d="M1755 1370l-883 -1366q-23 -34 -64 -34h-107q-25 0 -35.5 19.5t3.5 40.5l883 1366q23 34 64 34h107q25 0 35.5 -19.5t-3.5 -40.5zM1430 191v158q0 53 43 102l400 457q20 22 48 22h292q17 0 28 -11t11 -28v-499h73q16 0 27.5 -11.5t11.5 -27.5v-162q0 -16 -11.5 -27.5 t-27.5 -11.5h-73v-113q0 -17 -11 -28t-28 -11h-256q-16 0 -27.5 11.5t-11.5 27.5v113h-449q-16 0 -27.5 11.5t-11.5 27.5zM1918 638l-212 -246h212v246zM109 1191l283 192q29 19 63 19h252q17 0 28 -11t11 -28v-854q0 -17 -11 -28t-28 -11h-275q-16 0 -27 11.5t-11 27.5v589 l-160 -107q-14 -8 -29.5 -4.5t-23.5 16.5l-84 132q-9 14 -5.5 30.5t17.5 25.5z" />
<glyph unicode="&#xbd;" horiz-adv-x="2424" d="M1691 1370l-883 -1366q-23 -34 -64 -34h-107q-25 0 -35.5 19.5t3.5 40.5l883 1366q23 34 64 34h107q25 0 35.5 -19.5t-3.5 -40.5zM1567 223q155 98 267 189q78 63 115 111t37 97q0 51 -43.5 73.5t-146.5 22.5q-94 0 -177 -22q-18 -5 -30.5 5.5t-14.5 30.5l-10 136 q-2 30 24 38q150 40 312 40q226 0 336 -80.5t110 -225.5q0 -165 -138 -282q-104 -88 -212 -132h307q16 0 27.5 -11.5t11.5 -27.5v-148q0 -17 -11 -28t-28 -11h-726q-16 0 -27.5 11.5t-11.5 27.5v147q0 20 29 39zM109 1191l283 192q29 19 63 19h252q17 0 28 -11t11 -28v-854 q0 -17 -11 -28t-28 -11h-275q-16 0 -27 11.5t-11 27.5v589l-160 -107q-14 -8 -29.5 -4.5t-23.5 16.5l-84 132q-9 14 -5.5 30.5t17.5 25.5z" />
<glyph unicode="&#xbe;" horiz-adv-x="2424" d="M1791 1370l-883 -1366q-23 -34 -64 -34h-107q-25 0 -35.5 19.5t3.5 40.5l883 1366q23 34 64 34h107q25 0 35.5 -19.5t-3.5 -40.5zM1430 191v158q0 53 43 102l400 457q20 22 48 22h292q17 0 28 -11t11 -28v-499h73q16 0 27.5 -11.5t11.5 -27.5v-162q0 -16 -11.5 -27.5 t-27.5 -11.5h-73v-113q0 -17 -11 -28t-28 -11h-256q-16 0 -27.5 11.5t-11.5 27.5v113h-449q-16 0 -27.5 11.5t-11.5 27.5zM1918 638l-212 -246h212v246zM115 496q-13 4 -22 16t-8 24l14 138q2 20 17.5 30t34.5 3q106 -39 225 -39q196 0 196 78q0 53 -73.5 80t-248.5 29 q-16 0 -27 11.5t-11 27.5v123q0 16 9.5 26.5t25.5 10.5q166 2 238.5 23t72.5 63q0 33 -42.5 47.5t-135.5 14.5q-111 0 -211 -28q-18 -5 -32.5 5.5t-16.5 29.5l-13 124q-1 13 6.5 25t20.5 16q132 42 338 42t322 -66t116 -194q0 -148 -150 -202q79 -26 122.5 -80t43.5 -128 q0 -137 -127.5 -214.5t-350.5 -77.5q-174 0 -333 42z" />
<glyph unicode="&#xbf;" horiz-adv-x="1316" d="M744 1190q147 0 208.5 -47.5t61.5 -146.5t-61.5 -146.5t-208.5 -47.5t-208.5 47.5t-61.5 146.5t61.5 146.5t208.5 47.5zM994 669v-51q0 -137 -46 -217.5t-156 -126.5q-77 -31 -108.5 -56t-31.5 -54q0 -36 42 -52t162 -16q167 0 322 51q19 6 34 -4t17 -29l24 -260 q1 -11 -7.5 -23.5t-19.5 -16.5q-99 -34 -227 -53t-247 -19q-652 0 -652 392q0 237 274 364q68 30 94 61t26 73v37q0 17 11 28t28 11h423q16 0 27 -11.5t11 -27.5z" />
<glyph unicode="&#xc0;" horiz-adv-x="1788" d="M1136 241h-484l-63 -213q-9 -28 -38 -28h-494q-22 0 -33.5 16t-4.5 37l470 1309q14 38 54 38h702q40 0 54 -38l470 -1309q7 -21 -4.5 -37t-33.5 -16h-494q-29 0 -38 28zM756 600h276l-138 466zM823 1833l224 -260q17 -20 7 -42.5t-37 -22.5h-192q-45 0 -87 32l-313 239 q-19 14 -10.5 41.5t35.5 27.5h325q36 0 48 -15z" />
<glyph unicode="&#xc1;" horiz-adv-x="1788" d="M1136 241h-484l-63 -213q-9 -28 -38 -28h-494q-22 0 -33.5 16t-4.5 37l470 1309q14 38 54 38h702q40 0 54 -38l470 -1309q7 -21 -4.5 -37t-33.5 -16h-494q-29 0 -38 28zM756 600h276l-138 466zM741 1573l224 260q12 15 48 15h325q27 0 35.5 -27.5t-10.5 -41.5l-313 -239 q-42 -32 -87 -32h-192q-27 0 -37 22.5t7 42.5z" />
<glyph unicode="&#xc2;" horiz-adv-x="1788" d="M1136 241h-484l-63 -213q-9 -28 -38 -28h-494q-22 0 -33.5 16t-4.5 37l470 1309q14 38 54 38h702q40 0 54 -38l470 -1309q7 -21 -4.5 -37t-33.5 -16h-494q-29 0 -38 28zM756 600h276l-138 466zM717 1848h354q33 0 49 -21l194 -256q16 -21 5 -42t-37 -21h-213 q-25 0 -42 17l-133 133l-133 -133q-17 -17 -42 -17h-213q-26 0 -37 21t5 42l194 256q16 21 49 21z" />
<glyph unicode="&#xc3;" horiz-adv-x="1788" d="M1136 241h-484l-63 -213q-9 -28 -38 -28h-494q-22 0 -33.5 16t-4.5 37l470 1309q14 38 54 38h702q40 0 54 -38l470 -1309q7 -21 -4.5 -37t-33.5 -16h-494q-29 0 -38 28zM756 600h276l-138 466zM918 1546q-76 34 -130 34q-77 0 -95 -40q-10 -22 -26 -22h-134 q-17 0 -29 12.5t-11 29.5q10 139 70.5 208.5t161.5 69.5q78 0 145 -30q77 -34 130 -34q77 0 95 40q10 22 26 22h134q17 0 29 -12.5t11 -29.5q-10 -139 -70.5 -208.5t-161.5 -69.5q-78 0 -145 30z" />
<glyph unicode="&#xc4;" horiz-adv-x="1788" d="M1136 241h-484l-63 -213q-9 -28 -38 -28h-494q-22 0 -33.5 16t-4.5 37l470 1309q14 38 54 38h702q40 0 54 -38l470 -1309q7 -21 -4.5 -37t-33.5 -16h-494q-29 0 -38 28zM756 600h276l-138 466zM440 1678q0 85 43 125.5t135 40.5q93 0 136.5 -40t43.5 -126t-43.5 -126 t-136.5 -40q-92 0 -135 40.5t-43 125.5zM990 1678q0 86 43.5 126t136.5 40q92 0 135 -40.5t43 -125.5t-43 -125.5t-135 -40.5q-93 0 -136.5 40t-43.5 126z" />
<glyph unicode="&#xc5;" horiz-adv-x="1788" d="M1136 241h-484l-63 -213q-9 -28 -38 -28h-494q-22 0 -33.5 16t-4.5 37l470 1309q14 38 54 38h702q40 0 54 -38l470 -1309q7 -21 -4.5 -37t-33.5 -16h-494q-29 0 -38 28zM756 600h276l-138 466zM1172 1678q0 -112 -80 -189t-198 -77q-117 0 -196.5 77.5t-79.5 188.5 t79.5 188.5t196.5 77.5q118 0 198 -77t80 -189zM814 1678q0 -34 23 -57t57 -23q36 0 59 22.5t23 57.5t-23 57.5t-59 22.5q-34 0 -57 -23t-23 -57z" />
<glyph unicode="&#xc6;" horiz-adv-x="2360" d="M1134 40v200h-422l-104 -217q-12 -23 -36 -23h-505q-24 0 -35 18.5t0 39.5l696 1321q4 8 15.5 14.5t19.5 6.5h1461q16 0 28 -12t12 -28v-260q0 -16 -12 -28t-28 -12h-562v-186h512q16 0 28 -12t12 -28v-260q0 -16 -12 -28t-28 -12h-512v-194h578q16 0 28 -12t12 -28v-260 q0 -16 -12 -28t-28 -12h-1066q-16 0 -28 12t-12 28zM877 580h257v528z" />
<glyph unicode="&#xc7;" horiz-adv-x="1544" d="M1412 382q19 6 35 -4t18 -30l25 -258q2 -19 -8 -33.5t-26 -19.5q-154 -46 -355 -57l-59 -90q66 -13 111 -56t45 -102q0 -208 -360 -208q-59 0 -126 8q-14 1 -22 13t-8 26v83q0 19 10.5 30.5t28.5 8.5q35 -5 69 -5q134 0 134 48q0 58 -177 65q-51 1 -28 37l94 146 q-361 34 -557 221.5t-196 496.5q0 343 240.5 532.5t677.5 189.5q261 0 466 -65q17 -6 26.5 -19.5t7.5 -32.5l-25 -254q-2 -20 -18 -30t-35 -4q-140 45 -304 45q-242 0 -361 -89t-119 -273q0 -366 488 -366q173 0 308 46z" />
<glyph unicode="&#xc8;" horiz-adv-x="1476" d="M121 40v1320q0 16 11.5 28t28.5 12h1182q16 0 27.5 -11.5t11.5 -28.5v-260q0 -17 -11.5 -28.5t-27.5 -11.5h-671v-186h618q16 0 28 -12t12 -28v-260q0 -16 -12 -28t-28 -12h-618v-194h684q16 0 28 -12t12 -28v-260q0 -16 -12 -28t-28 -12h-1195q-17 0 -28.5 12t-11.5 28z M755 1833l224 -260q17 -20 7 -42.5t-37 -22.5h-192q-45 0 -87 32l-313 239q-19 14 -10.5 41.5t35.5 27.5h325q36 0 48 -15z" />
<glyph unicode="&#xc9;" horiz-adv-x="1476" d="M121 40v1320q0 16 11.5 28t28.5 12h1182q16 0 27.5 -11.5t11.5 -28.5v-260q0 -17 -11.5 -28.5t-27.5 -11.5h-671v-186h618q16 0 28 -12t12 -28v-260q0 -16 -12 -28t-28 -12h-618v-194h684q16 0 28 -12t12 -28v-260q0 -16 -12 -28t-28 -12h-1195q-17 0 -28.5 12t-11.5 28z M557 1573l224 260q12 15 48 15h325q27 0 35.5 -27.5t-10.5 -41.5l-313 -239q-42 -32 -87 -32h-192q-27 0 -37 22.5t7 42.5z" />
<glyph unicode="&#xca;" horiz-adv-x="1476" d="M121 40v1320q0 16 11.5 28t28.5 12h1182q16 0 27.5 -11.5t11.5 -28.5v-260q0 -17 -11.5 -28.5t-27.5 -11.5h-671v-186h618q16 0 28 -12t12 -28v-260q0 -16 -12 -28t-28 -12h-618v-194h684q16 0 28 -12t12 -28v-260q0 -16 -12 -28t-28 -12h-1195q-17 0 -28.5 12t-11.5 28z M567 1848h354q33 0 49 -21l194 -256q16 -21 5 -42t-37 -21h-213q-25 0 -42 17l-133 133l-133 -133q-17 -17 -42 -17h-213q-26 0 -37 21t5 42l194 256q16 21 49 21z" />
<glyph unicode="&#xcb;" horiz-adv-x="1476" d="M121 40v1320q0 16 11.5 28t28.5 12h1182q16 0 27.5 -11.5t11.5 -28.5v-260q0 -17 -11.5 -28.5t-27.5 -11.5h-671v-186h618q16 0 28 -12t12 -28v-260q0 -16 -12 -28t-28 -12h-618v-194h684q16 0 28 -12t12 -28v-260q0 -16 -12 -28t-28 -12h-1195q-17 0 -28.5 12t-11.5 28z M284 1678q0 85 43 125.5t135 40.5q93 0 136.5 -40t43.5 -126t-43.5 -126t-136.5 -40q-92 0 -135 40.5t-43 125.5zM834 1678q0 86 43.5 126t136.5 40q92 0 135 -40.5t43 -125.5t-43 -125.5t-135 -40.5q-93 0 -136.5 40t-43.5 126z" />
<glyph unicode="&#xcc;" horiz-adv-x="812" d="M169 1400h473q16 0 28 -12t12 -28v-1320q0 -16 -12 -28t-28 -12h-473q-16 0 -27.5 12t-11.5 28v1320q0 16 11.5 28t27.5 12zM329 1833l224 -260q17 -20 7 -42.5t-37 -22.5h-192q-45 0 -87 32l-313 239q-19 14 -10.5 41.5t35.5 27.5h325q36 0 48 -15z" />
<glyph unicode="&#xcd;" horiz-adv-x="812" d="M169 1400h473q16 0 28 -12t12 -28v-1320q0 -16 -12 -28t-28 -12h-473q-16 0 -27.5 12t-11.5 28v1320q0 16 11.5 28t27.5 12zM259 1573l224 260q12 15 48 15h325q27 0 35.5 -27.5t-10.5 -41.5l-313 -239q-42 -32 -87 -32h-192q-27 0 -37 22.5t7 42.5z" />
<glyph unicode="&#xce;" horiz-adv-x="812" d="M169 1400h473q16 0 28 -12t12 -28v-1320q0 -16 -12 -28t-28 -12h-473q-16 0 -27.5 12t-11.5 28v1320q0 16 11.5 28t27.5 12zM229 1848h354q33 0 49 -21l194 -256q16 -21 5 -42t-37 -21h-213q-25 0 -42 17l-133 133l-133 -133q-17 -17 -42 -17h-213q-26 0 -37 21t5 42 l194 256q16 21 49 21z" />
<glyph unicode="&#xcf;" horiz-adv-x="812" d="M169 1400h473q16 0 28 -12t12 -28v-1320q0 -16 -12 -28t-28 -12h-473q-16 0 -27.5 12t-11.5 28v1320q0 16 11.5 28t27.5 12zM-48 1678q0 85 43 125.5t135 40.5q93 0 136.5 -40t43.5 -126t-43.5 -126t-136.5 -40q-92 0 -135 40.5t-43 125.5zM502 1678q0 86 43.5 126 t136.5 40q92 0 135 -40.5t43 -125.5t-43 -125.5t-135 -40.5q-93 0 -136.5 40t-43.5 126z" />
<glyph unicode="&#xd0;" horiz-adv-x="1742" d="M1684 700q-1 -344 -227 -522t-634 -178h-640q-17 0 -28.5 12t-11.5 28v568h-100q-16 0 -27.5 12t-11.5 28v104q0 16 11.5 28t27.5 12h100v568q0 16 11.5 28t28.5 12h640q407 0 633.5 -179t227.5 -521zM1128 700q0 197 -72.5 278.5t-224.5 81.5h-137v-268h172q16 0 28 -12 t12 -28v-104q0 -16 -12 -28t-28 -12h-172v-268h137q152 0 224.5 81.5t72.5 278.5z" />
<glyph unicode="&#xd1;" horiz-adv-x="1866" d="M1126 35l-534 749v-744q0 -16 -11.5 -28t-27.5 -12h-393q-16 0 -27.5 12t-11.5 28v1320q0 16 11.5 28t27.5 12h515q41 0 66 -35l534 -749v744q0 16 11.5 28t27.5 12h393q16 0 27.5 -12t11.5 -28v-1320q0 -16 -11.5 -28t-27.5 -12h-515q-42 0 -66 35zM956 1546 q-76 34 -130 34q-77 0 -95 -40q-10 -22 -26 -22h-134q-17 0 -29 12.5t-11 29.5q10 139 70.5 208.5t161.5 69.5q78 0 145 -30q77 -34 130 -34q77 0 95 40q10 22 26 22h134q17 0 29 -12.5t11 -29.5q-10 -139 -70.5 -208.5t-161.5 -69.5q-78 0 -145 30z" />
<glyph unicode="&#xd2;" horiz-adv-x="1808" d="M1748 700q0 -161 -53 -292.5t-156 -228.5t-265 -150t-370 -53q-207 0 -369 53.5t-265 150t-156.5 228.5t-53.5 292t53.5 292t156.5 228.5t265 150t369 53.5q208 0 370 -53t265 -150t156 -228.5t53 -292.5zM616 700q0 -192 70.5 -286t217.5 -94t217.5 94t70.5 286 t-70.5 286t-217.5 94t-217.5 -94t-70.5 -286zM883 1833l224 -260q17 -20 7 -42.5t-37 -22.5h-192q-45 0 -87 32l-313 239q-19 14 -10.5 41.5t35.5 27.5h325q36 0 48 -15z" />
<glyph unicode="&#xd3;" horiz-adv-x="1808" d="M1748 700q0 -161 -53 -292.5t-156 -228.5t-265 -150t-370 -53q-207 0 -369 53.5t-265 150t-156.5 228.5t-53.5 292t53.5 292t156.5 228.5t265 150t369 53.5q208 0 370 -53t265 -150t156 -228.5t53 -292.5zM616 700q0 -192 70.5 -286t217.5 -94t217.5 94t70.5 286 t-70.5 286t-217.5 94t-217.5 -94t-70.5 -286zM701 1573l224 260q12 15 48 15h325q27 0 35.5 -27.5t-10.5 -41.5l-313 -239q-42 -32 -87 -32h-192q-27 0 -37 22.5t7 42.5z" />
<glyph unicode="&#xd4;" horiz-adv-x="1808" d="M1748 700q0 -161 -53 -292.5t-156 -228.5t-265 -150t-370 -53q-207 0 -369 53.5t-265 150t-156.5 228.5t-53.5 292t53.5 292t156.5 228.5t265 150t369 53.5q208 0 370 -53t265 -150t156 -228.5t53 -292.5zM616 700q0 -192 70.5 -286t217.5 -94t217.5 94t70.5 286 t-70.5 286t-217.5 94t-217.5 -94t-70.5 -286zM727 1848h354q33 0 49 -21l194 -256q16 -21 5 -42t-37 -21h-213q-25 0 -42 17l-133 133l-133 -133q-17 -17 -42 -17h-213q-26 0 -37 21t5 42l194 256q16 21 49 21z" />
<glyph unicode="&#xd5;" horiz-adv-x="1808" d="M1748 700q0 -161 -53 -292.5t-156 -228.5t-265 -150t-370 -53q-207 0 -369 53.5t-265 150t-156.5 228.5t-53.5 292t53.5 292t156.5 228.5t265 150t369 53.5q208 0 370 -53t265 -150t156 -228.5t53 -292.5zM616 700q0 -192 70.5 -286t217.5 -94t217.5 94t70.5 286 t-70.5 286t-217.5 94t-217.5 -94t-70.5 -286zM928 1546q-76 34 -130 34q-77 0 -95 -40q-10 -22 -26 -22h-134q-17 0 -29 12.5t-11 29.5q10 139 70.5 208.5t161.5 69.5q78 0 145 -30q76 -34 130 -34q77 0 95 40q10 22 26 22h134q17 0 29 -12.5t11 -29.5 q-10 -139 -70.5 -208.5t-161.5 -69.5q-78 0 -145 30z" />
<glyph unicode="&#xd6;" horiz-adv-x="1808" d="M1748 700q0 -161 -53 -292.5t-156 -228.5t-265 -150t-370 -53q-207 0 -369 53.5t-265 150t-156.5 228.5t-53.5 292t53.5 292t156.5 228.5t265 150t369 53.5q208 0 370 -53t265 -150t156 -228.5t53 -292.5zM616 700q0 -192 70.5 -286t217.5 -94t217.5 94t70.5 286 t-70.5 286t-217.5 94t-217.5 -94t-70.5 -286zM450 1678q0 85 43 125.5t135 40.5q93 0 136.5 -40t43.5 -126t-43.5 -126t-136.5 -40q-92 0 -135 40.5t-43 125.5zM1000 1678q0 86 43.5 126t136.5 40q92 0 135 -40.5t43 -125.5t-43 -125.5t-135 -40.5q-93 0 -136.5 40 t-43.5 126z" />
<glyph unicode="&#xd7;" horiz-adv-x="1284" d="M379 661l-268 240q-13 11 -13.5 27.5t11.5 28.5l194 194q10 11 26 11t27 -11l286 -257l286 257q11 11 27 11t26 -11l194 -194q12 -12 11.5 -28.5t-13.5 -27.5l-268 -240l268 -240q13 -11 13.5 -27.5t-11.5 -28.5l-194 -194q-10 -11 -26 -11t-27 11l-286 257l-286 -257 q-11 -11 -27 -11t-26 11l-194 194q-12 12 -11.5 28.5t13.5 27.5z" />
<glyph unicode="&#xd8;" horiz-adv-x="1808" d="M1748 700q0 -161 -53 -292.5t-156 -228.5t-265 -150t-370 -53q-206 0 -374 55l-146 -214q-12 -17 -42 -17h-61q-26 0 -37 20.5t3 41.5l154 225q-169 92 -255 250t-86 363q0 160 53.5 292t156.5 228.5t265 150t369 53.5t374 -55l147 214q12 17 42 17h61q26 0 37 -20.5 t-3 -41.5l-154 -225q168 -92 254 -250t86 -363zM616 700q0 -148 42 -238l398 582q-62 36 -152 36q-147 0 -217.5 -94t-70.5 -286zM1192 700q0 147 -42 237l-398 -582q60 -35 152 -35q147 0 217.5 94t70.5 286z" />
<glyph unicode="&#xd9;" horiz-adv-x="1828" d="M914 -24q373 0 583 158t210 464v762q0 16 -11.5 28t-28.5 12h-475q-16 0 -28 -12t-12 -28v-776q0 -129 -58 -186.5t-180 -57.5t-180 57.5t-58 186.5v776q0 16 -12 28t-28 12h-475q-17 0 -28.5 -12t-11.5 -28v-762q0 -306 210 -464t583 -158zM885 1833l224 -260 q17 -20 7 -42.5t-37 -22.5h-192q-45 0 -87 32l-313 239q-19 14 -10.5 41.5t35.5 27.5h325q36 0 48 -15z" />
<glyph unicode="&#xda;" horiz-adv-x="1828" d="M914 -24q-373 0 -583 158t-210 464v762q0 16 11.5 28t28.5 12h475q16 0 28 -12t12 -28v-776q0 -129 58 -186.5t180 -57.5t180 57.5t58 186.5v776q0 16 12 28t28 12h475q17 0 28.5 -12t11.5 -28v-762q0 -306 -210 -464t-583 -158zM719 1573l224 260q12 15 48 15h325 q27 0 35.5 -27.5t-10.5 -41.5l-313 -239q-42 -32 -87 -32h-192q-27 0 -37 22.5t7 42.5z" />
<glyph unicode="&#xdb;" horiz-adv-x="1828" d="M914 -24q373 0 583 158t210 464v762q0 16 -11.5 28t-28.5 12h-475q-16 0 -28 -12t-12 -28v-776q0 -129 -58 -186.5t-180 -57.5t-180 57.5t-58 186.5v776q0 16 -12 28t-28 12h-475q-17 0 -28.5 -12t-11.5 -28v-762q0 -306 210 -464t583 -158zM737 1848h354q33 0 49 -21 l194 -256q16 -21 5 -42t-37 -21h-213q-25 0 -42 17l-133 133l-133 -133q-17 -17 -42 -17h-213q-26 0 -37 21t5 42l194 256q16 21 49 21z" />
<glyph unicode="&#xdc;" horiz-adv-x="1828" d="M914 -24q373 0 583 158t210 464v762q0 16 -11.5 28t-28.5 12h-475q-16 0 -28 -12t-12 -28v-776q0 -129 -58 -186.5t-180 -57.5t-180 57.5t-58 186.5v776q0 16 -12 28t-28 12h-475q-17 0 -28.5 -12t-11.5 -28v-762q0 -306 210 -464t583 -158zM460 1678q0 85 43 125.5 t135 40.5q93 0 136.5 -40t43.5 -126t-43.5 -126t-136.5 -40q-92 0 -135 40.5t-43 125.5zM1010 1678q0 86 43.5 126t136.5 40q92 0 135 -40.5t43 -125.5t-43 -125.5t-135 -40.5q-93 0 -136.5 40t-43.5 126z" />
<glyph unicode="&#xdd;" horiz-adv-x="1832" d="M1153 0h-474q-16 0 -27.5 12t-11.5 28v501l-575 796q-15 21 -4.5 42t36.5 21h447q60 0 84 -38l288 -452l288 452q24 38 84 38h447q26 0 36.5 -21t-4.5 -42l-575 -796v-501q0 -16 -11.5 -28t-27.5 -12zM723 1573l224 260q12 15 48 15h325q27 0 35.5 -27.5t-10.5 -41.5 l-313 -239q-42 -32 -87 -32h-192q-27 0 -37 22.5t7 42.5z" />
<glyph unicode="&#xde;" horiz-adv-x="1580" d="M1540 708q0 -252 -193 -375t-541 -123h-158v-170q0 -16 -12 -28t-28 -12h-448q-16 0 -28 12t-12 28v1320q0 16 12 28t28 12h448q16 0 28 -12t12 -28v-154h158q349 0 541.5 -122.5t192.5 -375.5zM1056 708q0 168 -228 168h-180v-336h180q228 0 228 168z" />
<glyph unicode="&#xdf;" horiz-adv-x="1784" d="M912 536q-16 1 -27 12t-11 27v262q0 15 11 26.5t26 12.5q227 5 227 110q0 49 -60 73.5t-166 24.5q-141 0 -202.5 -60.5t-61.5 -199.5v-785q0 -16 -11.5 -27.5t-27.5 -11.5h-450q-16 0 -27.5 11.5t-11.5 27.5v713q0 347 193.5 509.5t624.5 162.5q344 0 538 -114t194 -294 q0 -110 -62.5 -191.5t-181.5 -118.5q148 -27 228 -115t80 -225q0 -179 -151.5 -284.5t-446.5 -105.5q-180 0 -327 31q-13 2 -22.5 14t-8.5 26l19 252q2 19 15.5 29t32.5 6q72 -18 151 -18q206 0 206 94q0 40 -20 64t-85.5 41t-184.5 21z" />
<glyph unicode="&#xe0;" horiz-adv-x="1552" d="M590 200h372l42 -170q8 -30 39 -30h453q22 0 33.5 16t4.5 37l-379 1110q-4 10 -16 18.5t-23 8.5h-680q-11 0 -23 -8.5t-16 -18.5l-379 -1110q-7 -21 4.5 -37t33.5 -16h453q31 0 39 30zM880 520h-208l104 402zM705 1623l224 -260q17 -20 7 -42.5t-37 -22.5h-192 q-45 0 -87 32l-313 239q-19 14 -10.5 41.5t35.5 27.5h325q36 0 48 -15z" />
<glyph unicode="&#xe1;" horiz-adv-x="1552" d="M962 200h-372l-42 -170q-8 -30 -39 -30h-453q-22 0 -33.5 16t-4.5 37l379 1110q4 10 16 18.5t23 8.5h680q11 0 23 -8.5t16 -18.5l379 -1110q7 -21 -4.5 -37t-33.5 -16h-453q-31 0 -39 30zM672 520h208l-104 402zM623 1363l224 260q12 15 48 15h325q27 0 35.5 -27.5 t-10.5 -41.5l-313 -239q-42 -32 -87 -32h-192q-27 0 -37 22.5t7 42.5z" />
<glyph unicode="&#xe2;" horiz-adv-x="1552" d="M590 200h372l42 -170q8 -30 39 -30h453q22 0 33.5 16t4.5 37l-379 1110q-4 10 -16 18.5t-23 8.5h-680q-11 0 -23 -8.5t-16 -18.5l-379 -1110q-7 -21 4.5 -37t33.5 -16h453q31 0 39 30zM880 520h-208l104 402zM599 1638h354q33 0 49 -21l194 -256q16 -21 5 -42t-37 -21 h-213q-25 0 -42 17l-133 133l-133 -133q-17 -17 -42 -17h-213q-26 0 -37 21t5 42l194 256q16 21 49 21z" />
<glyph unicode="&#xe3;" horiz-adv-x="1552" d="M590 200h372l42 -170q8 -30 39 -30h453q22 0 33.5 16t4.5 37l-379 1110q-4 10 -16 18.5t-23 8.5h-680q-11 0 -23 -8.5t-16 -18.5l-379 -1110q-7 -21 4.5 -37t33.5 -16h453q31 0 39 30zM880 520h-208l104 402zM800 1334q-77 34 -130 34q-77 0 -95 -40q-10 -22 -26 -22 h-134q-17 0 -29 12.5t-11 29.5q10 139 70.5 208.5t161.5 69.5q78 0 145 -30q76 -34 130 -34q77 0 95 40q10 22 26 22h134q17 0 29 -12.5t11 -29.5q-10 -139 -70.5 -208.5t-161.5 -69.5q-78 0 -145 30z" />
<glyph unicode="&#xe4;" horiz-adv-x="1552" d="M590 200h372l42 -170q8 -30 39 -30h453q22 0 33.5 16t4.5 37l-379 1110q-4 10 -16 18.5t-23 8.5h-680q-11 0 -23 -8.5t-16 -18.5l-379 -1110q-7 -21 4.5 -37t33.5 -16h453q31 0 39 30zM880 520h-208l104 402zM323 1468q0 86 43 126t135 40t136 -40.5t44 -125.5 q0 -86 -44 -126t-136 -40t-135 40t-43 126zM872 1468q0 86 43.5 126t136.5 40q92 0 135 -40t43 -126t-43 -126t-135 -40q-93 0 -136.5 40t-43.5 126z" />
<glyph unicode="&#xe5;" horiz-adv-x="1552" d="M590 200h372l42 -170q8 -30 39 -30h453q22 0 33.5 16t4.5 37l-379 1110q-4 10 -16 18.5t-23 8.5h-680q-11 0 -23 -8.5t-16 -18.5l-379 -1110q-7 -21 4.5 -37t33.5 -16h453q31 0 39 30zM880 520h-208l104 402zM1054 1468q0 -112 -80 -189t-198 -77q-117 0 -196.5 77.5 t-79.5 188.5t79.5 188.5t196.5 77.5q118 0 198 -77t80 -189zM696 1468q0 -34 23 -57t57 -23q36 0 59 22.5t23 57.5t-23 57.5t-59 22.5q-34 0 -57 -23t-23 -57z" />
<glyph unicode="&#xe6;" horiz-adv-x="2024" d="M1924 0h-932q-16 0 -28 12t-12 28v158h-310l-75 -174q-4 -9 -15.5 -16.5t-21.5 -7.5h-464q-24 0 -35.5 18t-1.5 40l550 1110q5 8 15.5 15t20.5 7h1297q16 0 28 -12t12 -28v-229q0 -17 -11.5 -29t-28.5 -12h-462v-128h420q16 0 28 -12t12 -28v-228q0 -16 -12 -28t-28 -12 h-420v-136h474q16 0 28 -12t12 -28v-228q0 -16 -12 -28t-28 -12zM776 506h176v402z" />
<glyph unicode="&#xe7;" horiz-adv-x="1326" d="M641 -199q-51 1 -28 37l93 144q-319 26 -492.5 186.5t-173.5 427.5q0 293 207 455.5t585 162.5q213 0 412 -60q13 -4 23.5 -17.5t9.5 -26.5l-25 -240q-2 -21 -19 -30.5t-37 -1.5q-133 50 -266 50q-187 0 -278.5 -71.5t-91.5 -220.5q0 -294 376 -294q139 0 271 49 q20 8 37 -2t19 -30l24 -243q1 -13 -7.5 -25.5t-21.5 -16.5q-122 -37 -262 -50l-62 -94q66 -13 112 -56t46 -102q0 -208 -360 -208q-59 0 -126 8q-14 1 -22 13t-8 26v83q0 19 10.5 30.5t28.5 8.5q35 -5 69 -5q134 0 134 48q0 58 -177 65z" />
<glyph unicode="&#xe8;" horiz-adv-x="1278" d="M100 40v1110q0 16 12 28t28 12h1026q17 0 28.5 -11.5t11.5 -28.5v-229q0 -17 -11.5 -29t-28.5 -12h-548v-128h504q16 0 28 -12t12 -28v-228q0 -16 -12 -28t-28 -12h-504v-136h559q17 0 29 -11.5t12 -28.5v-228q0 -17 -12 -28.5t-29 -11.5h-1037q-16 0 -28 12t-12 28z M663 1623l224 -260q17 -20 7 -42.5t-37 -22.5h-192q-45 0 -87 32l-313 239q-19 14 -10.5 41.5t35.5 27.5h325q36 0 48 -15z" />
<glyph unicode="&#xe9;" horiz-adv-x="1278" d="M100 40v1110q0 16 12 28t28 12h1026q17 0 28.5 -11.5t11.5 -28.5v-229q0 -17 -11.5 -29t-28.5 -12h-548v-128h504q16 0 28 -12t12 -28v-228q0 -16 -12 -28t-28 -12h-504v-136h559q17 0 29 -11.5t12 -28.5v-228q0 -17 -12 -28.5t-29 -11.5h-1037q-16 0 -28 12t-12 28z M417 1363l224 260q12 15 48 15h325q27 0 35.5 -27.5t-10.5 -41.5l-313 -239q-42 -32 -87 -32h-192q-27 0 -37 22.5t7 42.5z" />
<glyph unicode="&#xea;" horiz-adv-x="1278" d="M100 40v1110q0 16 12 28t28 12h1026q17 0 28.5 -11.5t11.5 -28.5v-229q0 -17 -11.5 -29t-28.5 -12h-548v-128h504q16 0 28 -12t12 -28v-228q0 -16 -12 -28t-28 -12h-504v-136h559q17 0 29 -11.5t12 -28.5v-228q0 -17 -12 -28.5t-29 -11.5h-1037q-16 0 -28 12t-12 28z M471 1638h354q33 0 49 -21l194 -256q16 -21 5 -42t-37 -21h-213q-25 0 -42 17l-133 133l-133 -133q-17 -17 -42 -17h-213q-26 0 -37 21t5 42l194 256q16 21 49 21z" />
<glyph unicode="&#xeb;" horiz-adv-x="1278" d="M100 40v1110q0 16 12 28t28 12h1026q17 0 28.5 -11.5t11.5 -28.5v-229q0 -17 -11.5 -29t-28.5 -12h-548v-128h504q16 0 28 -12t12 -28v-228q0 -16 -12 -28t-28 -12h-504v-136h559q17 0 29 -11.5t12 -28.5v-228q0 -17 -12 -28.5t-29 -11.5h-1037q-16 0 -28 12t-12 28z M201 1468q0 86 43 126t135 40t136 -40.5t44 -125.5q0 -86 -44 -126t-136 -40t-135 40t-43 126zM750 1468q0 86 43.5 126t136.5 40q92 0 135 -40t43 -126t-43 -126t-135 -40q-93 0 -136.5 40t-43.5 126z" />
<glyph unicode="&#xec;" horiz-adv-x="738" d="M150 1190h438q17 0 28.5 -11.5t11.5 -28.5v-1110q0 -17 -11.5 -28.5t-28.5 -11.5h-438q-16 0 -28 12t-12 28v1110q0 16 12 28t28 12zM293 1623l224 -260q17 -20 7 -42.5t-37 -22.5h-192q-45 0 -87 32l-313 239q-19 14 -10.5 41.5t35.5 27.5h325q36 0 48 -15z" />
<glyph unicode="&#xed;" horiz-adv-x="738" d="M150 1190h438q17 0 28.5 -11.5t11.5 -28.5v-1110q0 -17 -11.5 -28.5t-28.5 -11.5h-438q-16 0 -28 12t-12 28v1110q0 16 12 28t28 12zM221 1363l224 260q12 15 48 15h325q27 0 35.5 -27.5t-10.5 -41.5l-313 -239q-42 -32 -87 -32h-192q-27 0 -37 22.5t7 42.5z" />
<glyph unicode="&#xee;" horiz-adv-x="738" d="M150 1190h438q17 0 28.5 -11.5t11.5 -28.5v-1110q0 -17 -11.5 -28.5t-28.5 -11.5h-438q-16 0 -28 12t-12 28v1110q0 16 12 28t28 12zM191 1638h354q33 0 49 -21l194 -256q16 -21 5 -42t-37 -21h-213q-25 0 -42 17l-133 133l-133 -133q-17 -17 -42 -17h-213q-26 0 -37 21 t5 42l194 256q16 21 49 21z" />
<glyph unicode="&#xef;" horiz-adv-x="738" d="M-85 1468q0 86 43 126t135 40t136 -40.5t44 -125.5q0 -86 -44 -126t-136 -40t-135 40t-43 126zM464 1468q0 86 43.5 126t136.5 40q92 0 135 -40t43 -126t-43 -126t-135 -40q-93 0 -136.5 40t-43.5 126zM150 1190h438q17 0 28.5 -11.5t11.5 -28.5v-1110q0 -17 -11.5 -28.5 t-28.5 -11.5h-438q-16 0 -28 12t-12 28v1110q0 16 12 28t28 12z" />
<glyph unicode="&#xf0;" horiz-adv-x="1504" d="M720 0h-553q-17 0 -29 11.5t-12 28.5v464h-78q-17 0 -28.5 11.5t-11.5 28.5v104q0 17 11.5 28.5t28.5 11.5h78v462q0 17 12 28.5t29 11.5h553q233 0 398 -66t255 -200.5t91 -329.5q-1 -292 -196.5 -443t-547.5 -151zM944 594q0 157 -53 221.5t-167 64.5h-82v-192h108 q17 0 28.5 -11.5t11.5 -28.5v-104q0 -17 -11.5 -28.5t-28.5 -11.5h-108v-196h82q113 0 166.5 65t53.5 221z" />
<glyph unicode="&#xf1;" horiz-adv-x="1608" d="M954 18l-404 618v-596q0 -17 -11.5 -28.5t-28.5 -11.5h-370q-16 0 -28 12t-12 28v1110q0 16 12 28t28 12h480q8 0 19 -6t15 -13l402 -619v598q0 17 11.5 28.5t28.5 11.5h372q16 0 28 -12t12 -28v-1110q0 -16 -12 -28t-28 -12h-480q-22 0 -34 18zM828 1334q-76 34 -130 34 q-77 0 -95 -40q-10 -22 -26 -22h-134q-17 0 -29 12.5t-11 29.5q10 139 70.5 208.5t161.5 69.5q78 0 145 -30q76 -34 130 -34q77 0 95 40q10 22 26 22h134q17 0 29 -12.5t11 -29.5q-10 -139 -70.5 -208.5t-161.5 -69.5q-78 0 -145 30z" />
<glyph unicode="&#xf2;" horiz-adv-x="1544" d="M1504 594q0 -136 -46 -248.5t-135.5 -195.5t-230 -128.5t-320.5 -45.5t-320.5 45.5t-230 128.5t-135.5 195.5t-46 248.5q0 281 188 450.5t544 169.5t544 -169.5t188 -450.5zM562 594q0 -152 51 -228t159 -76t159 76t51 228q0 154 -51 230t-159 76t-159 -76t-51 -230z M747 1623l224 -260q17 -20 7 -42.5t-37 -22.5h-192q-45 0 -87 32l-313 239q-19 14 -10.5 41.5t35.5 27.5h325q36 0 48 -15z" />
<glyph unicode="&#xf3;" horiz-adv-x="1544" d="M1504 594q0 -136 -46 -248.5t-135.5 -195.5t-230 -128.5t-320.5 -45.5t-320.5 45.5t-230 128.5t-135.5 195.5t-46 248.5q0 281 188 450.5t544 169.5t544 -169.5t188 -450.5zM562 594q0 -152 51 -228t159 -76t159 76t51 228q0 154 -51 230t-159 76t-159 -76t-51 -230z M573 1363l224 260q12 15 48 15h325q27 0 35.5 -27.5t-10.5 -41.5l-313 -239q-42 -32 -87 -32h-192q-27 0 -37 22.5t7 42.5z" />
<glyph unicode="&#xf4;" horiz-adv-x="1544" d="M1504 594q0 -136 -46 -248.5t-135.5 -195.5t-230 -128.5t-320.5 -45.5t-320.5 45.5t-230 128.5t-135.5 195.5t-46 248.5q0 281 188 450.5t544 169.5t544 -169.5t188 -450.5zM562 594q0 -152 51 -228t159 -76t159 76t51 228q0 154 -51 230t-159 76t-159 -76t-51 -230z M595 1638h354q33 0 49 -21l194 -256q16 -21 5 -42t-37 -21h-213q-25 0 -42 17l-133 133l-133 -133q-17 -17 -42 -17h-213q-26 0 -37 21t5 42l194 256q16 21 49 21z" />
<glyph unicode="&#xf5;" horiz-adv-x="1544" d="M1504 594q0 -136 -46 -248.5t-135.5 -195.5t-230 -128.5t-320.5 -45.5t-320.5 45.5t-230 128.5t-135.5 195.5t-46 248.5q0 281 188 450.5t544 169.5t544 -169.5t188 -450.5zM562 594q0 -152 51 -228t159 -76t159 76t51 228q0 154 -51 230t-159 76t-159 -76t-51 -230z M796 1334q-76 34 -130 34q-77 0 -95 -40q-10 -22 -26 -22h-134q-17 0 -29 12.5t-11 29.5q10 139 70.5 208.5t161.5 69.5q78 0 145 -30q76 -34 130 -34q77 0 95 40q10 22 26 22h134q17 0 29 -12.5t11 -29.5q-10 -139 -70.5 -208.5t-161.5 -69.5q-78 0 -145 30z" />
<glyph unicode="&#xf6;" horiz-adv-x="1544" d="M1504 594q0 -136 -46 -248.5t-135.5 -195.5t-230 -128.5t-320.5 -45.5t-320.5 45.5t-230 128.5t-135.5 195.5t-46 248.5q0 281 188 450.5t544 169.5t544 -169.5t188 -450.5zM562 594q0 -152 51 -228t159 -76t159 76t51 228q0 154 -51 230t-159 76t-159 -76t-51 -230z M319 1468q0 86 43 126t135 40t136 -40.5t44 -125.5q0 -86 -44 -126t-136 -40t-135 40t-43 126zM868 1468q0 86 43.5 126t136.5 40q92 0 135 -40t43 -126t-43 -126t-135 -40q-93 0 -136.5 40t-43.5 126z" />
<glyph unicode="&#xf7;" horiz-adv-x="1284" d="M426 188q0 111 53 164.5t163 53.5t163 -53.5t53 -164.5t-53 -164.5t-163 -53.5t-163 53.5t-53 164.5zM426 1140q0 111 53 164.5t163 53.5t163 -53.5t53 -164.5t-53 -164.5t-163 -53.5t-163 53.5t-53 164.5zM1165 514h-1047q-16 0 -27 11.5t-11 27.5v222q0 16 11 27.5 t27 11.5h1047q16 0 27.5 -11.5t11.5 -27.5v-222q0 -16 -11.5 -27.5t-27.5 -11.5z" />
<glyph unicode="&#xf8;" horiz-adv-x="1544" d="M1504 594q0 -136 -46 -248.5t-135.5 -195.5t-230 -128.5t-320.5 -45.5q-178 0 -319 45l-132 -195q-18 -26 -52 -26h-53q-26 0 -32.5 11t7.5 31l152 224q-150 78 -226.5 214.5t-76.5 313.5q0 281 188 450.5t544 169.5q178 0 318 -46l133 196q18 26 52 26h53q26 0 32.5 -11 t-7.5 -31l-153 -225q150 -78 227 -214.5t77 -314.5zM982 594q0 103 -24 172l-301 -445q44 -31 115 -31q108 0 159 76t51 228zM562 594q0 -106 23 -171l302 445q-47 32 -115 32q-108 0 -159 -76t-51 -230z" />
<glyph unicode="&#xf9;" horiz-adv-x="1576" d="M788 -24q-323 0 -505.5 134.5t-182.5 395.5v644q0 16 12 28t28 12h440q16 0 28 -12t12 -28v-656q0 -99 41.5 -144.5t126.5 -45.5t126.5 45.5t41.5 144.5v656q0 16 12 28t28 12h440q16 0 28 -12t12 -28v-644q0 -261 -182.5 -395.5t-505.5 -134.5zM759 1623l224 -260 q17 -20 7 -42.5t-37 -22.5h-192q-45 0 -87 32l-313 239q-19 14 -10.5 41.5t35.5 27.5h325q36 0 48 -15z" />
<glyph unicode="&#xfa;" horiz-adv-x="1576" d="M788 -24q-323 0 -505.5 134.5t-182.5 395.5v644q0 16 12 28t28 12h440q16 0 28 -12t12 -28v-656q0 -99 41.5 -144.5t126.5 -45.5t126.5 45.5t41.5 144.5v656q0 16 12 28t28 12h440q16 0 28 -12t12 -28v-644q0 -261 -182.5 -395.5t-505.5 -134.5zM593 1363l224 260 q12 15 48 15h325q27 0 35.5 -27.5t-10.5 -41.5l-313 -239q-42 -32 -87 -32h-192q-27 0 -37 22.5t7 42.5z" />
<glyph unicode="&#xfb;" horiz-adv-x="1576" d="M788 -24q-323 0 -505.5 134.5t-182.5 395.5v644q0 16 12 28t28 12h440q16 0 28 -12t12 -28v-656q0 -99 41.5 -144.5t126.5 -45.5t126.5 45.5t41.5 144.5v656q0 16 12 28t28 12h440q16 0 28 -12t12 -28v-644q0 -261 -182.5 -395.5t-505.5 -134.5zM611 1638h354 q33 0 49 -21l194 -256q16 -21 5 -42t-37 -21h-213q-25 0 -42 17l-133 133l-133 -133q-17 -17 -42 -17h-213q-26 0 -37 21t5 42l194 256q16 21 49 21z" />
<glyph unicode="&#xfc;" horiz-adv-x="1576" d="M788 -24q-323 0 -505.5 134.5t-182.5 395.5v644q0 16 12 28t28 12h440q16 0 28 -12t12 -28v-656q0 -99 41.5 -144.5t126.5 -45.5t126.5 45.5t41.5 144.5v656q0 16 12 28t28 12h440q16 0 28 -12t12 -28v-644q0 -261 -182.5 -395.5t-505.5 -134.5zM335 1468q0 86 43 126 t135 40t136 -40.5t44 -125.5q0 -86 -44 -126t-136 -40t-135 40t-43 126zM884 1468q0 86 43.5 126t136.5 40q92 0 135 -40t43 -126t-43 -126t-135 -40q-93 0 -136.5 40t-43.5 126z" />
<glyph unicode="&#xfd;" horiz-adv-x="1600" d="M1018 0h-436q-17 0 -28.5 11.5t-11.5 28.5v423l-480 664q-15 21 -4 42t37 21h435q31 0 51 -31l219 -343l219 343q20 31 51 31h435q26 0 37 -21t-4 -42l-480 -664v-423q0 -17 -11.5 -28.5t-28.5 -11.5zM603 1363l224 260q12 15 48 15h325q27 0 35.5 -27.5t-10.5 -41.5 l-313 -239q-42 -32 -87 -32h-192q-27 0 -37 22.5t7 42.5z" />
<glyph unicode="&#xfe;" horiz-adv-x="1376" d="M598 170v-130q0 -16 -12 -28t-28 -12h-418q-17 0 -28.5 11.5t-11.5 28.5v1110q0 17 11.5 28.5t28.5 11.5h418q16 0 28 -12t12 -28v-120h104q200 0 340 -44t219 -141.5t79 -244.5q0 -217 -167 -323.5t-471 -106.5h-104zM880 600q0 128 -160 128h-122v-256h122 q160 0 160 128z" />
<glyph unicode="&#xff;" horiz-adv-x="1600" d="M1018 0h-436q-17 0 -28.5 11.5t-11.5 28.5v423l-480 664q-15 21 -4 42t37 21h435q31 0 51 -31l219 -343l219 343q20 31 51 31h435q26 0 37 -21t-4 -42l-480 -664v-423q0 -17 -11.5 -28.5t-28.5 -11.5zM347 1468q0 86 43 126t135 40t136 -40.5t44 -125.5q0 -86 -44 -126 t-136 -40t-135 40t-43 126zM896 1468q0 86 43.5 126t136.5 40q92 0 135 -40t43 -126t-43 -126t-135 -40q-93 0 -136.5 40t-43.5 126z" />
<glyph unicode="&#x152;" horiz-adv-x="2378" d="M2259 0h-1153q-1046 0 -1046 700t1046 700h1134q16 0 28 -12t12 -28v-260q0 -16 -12 -28t-28 -12h-560v-186h513q16 0 27.5 -12t11.5 -28v-260q0 -16 -11.5 -28t-27.5 -12h-513v-194h579q16 0 27.5 -11.5t11.5 -28.5v-260q0 -17 -11.5 -28.5t-27.5 -11.5zM608 700 q0 -338 476 -338h66v676h-66q-476 0 -476 -338z" />
<glyph unicode="&#x153;" horiz-adv-x="2022" d="M1922 0h-980q-902 0 -902 596q0 295 221.5 444.5t680.5 149.5h968q17 0 28.5 -11.5t11.5 -28.5v-229q0 -17 -11.5 -29t-28.5 -12h-462v-128h420q17 0 28.5 -11.5t11.5 -28.5v-228q0 -17 -11.5 -28.5t-28.5 -11.5h-420v-136h474q16 0 28 -12t12 -28v-228q0 -16 -12 -28 t-28 -12zM556 596q0 -266 368 -266h26v534h-26q-368 0 -368 -268z" />
<glyph unicode="&#x178;" horiz-adv-x="1832" d="M1153 0h-474q-16 0 -27.5 12t-11.5 28v501l-575 796q-15 21 -4.5 42t36.5 21h447q60 0 84 -38l288 -452l288 452q24 38 84 38h447q26 0 36.5 -21t-4.5 -42l-575 -796v-501q0 -16 -11.5 -28t-27.5 -12zM462 1678q0 85 43 125.5t135 40.5q93 0 136.5 -40t43.5 -126 t-43.5 -126t-136.5 -40q-92 0 -135 40.5t-43 125.5zM1012 1678q0 86 43.5 126t136.5 40q92 0 135 -40.5t43 -125.5t-43 -125.5t-135 -40.5q-93 0 -136.5 40t-43.5 126z" />
<glyph unicode="&#x2c6;" horiz-adv-x="1080" d="M363 1460h354q33 0 49 -21l194 -256q16 -21 5 -42t-37 -21h-213q-25 0 -42 17l-133 133l-133 -133q-17 -17 -42 -17h-213q-26 0 -37 21t5 42l194 256q16 21 49 21z" />
<glyph unicode="&#x2dc;" horiz-adv-x="1080" d="M564 1158q-77 34 -130 34q-77 0 -95 -40q-10 -22 -26 -22h-134q-17 0 -29 12.5t-11 29.5q10 139 70.5 208.5t161.5 69.5q78 0 145 -30q77 -34 130 -34q77 0 95 40q10 22 26 22h134q17 0 29 -12.5t11 -29.5q-10 -139 -70.5 -208.5t-161.5 -69.5q-78 0 -145 30z" />
<glyph unicode="&#x2000;" horiz-adv-x="972" />
<glyph unicode="&#x2001;" horiz-adv-x="1944" />
<glyph unicode="&#x2002;" horiz-adv-x="972" />
<glyph unicode="&#x2003;" horiz-adv-x="1944" />
<glyph unicode="&#x2004;" horiz-adv-x="648" />
<glyph unicode="&#x2005;" horiz-adv-x="486" />
<glyph unicode="&#x2006;" horiz-adv-x="324" />
<glyph unicode="&#x2007;" horiz-adv-x="324" />
<glyph unicode="&#x2008;" horiz-adv-x="243" />
<glyph unicode="&#x2009;" horiz-adv-x="388" />
<glyph unicode="&#x200a;" horiz-adv-x="108" />
<glyph unicode="&#x2010;" horiz-adv-x="828" d="M709 504h-590q-16 0 -27.5 11.5t-11.5 27.5v242q0 17 11 28t28 11h590q16 0 27.5 -11.5t11.5 -27.5v-242q0 -16 -11.5 -27.5t-27.5 -11.5z" />
<glyph unicode="&#x2011;" horiz-adv-x="828" d="M709 504h-590q-16 0 -27.5 11.5t-11.5 27.5v242q0 17 11 28t28 11h590q16 0 27.5 -11.5t11.5 -27.5v-242q0 -16 -11.5 -27.5t-27.5 -11.5z" />
<glyph unicode="&#x2012;" horiz-adv-x="828" d="M709 504h-590q-16 0 -27.5 11.5t-11.5 27.5v242q0 17 11 28t28 11h590q16 0 27.5 -11.5t11.5 -27.5v-242q0 -16 -11.5 -27.5t-27.5 -11.5z" />
<glyph unicode="&#x2013;" horiz-adv-x="1000" d="M961 514h-923q-16 0 -27 11.5t-11 27.5v222q0 16 11 27.5t27 11.5h923q16 0 27.5 -11.5t11.5 -27.5v-222q0 -16 -11.5 -27.5t-27.5 -11.5z" />
<glyph unicode="&#x2014;" horiz-adv-x="2000" d="M1961 514h-1923q-16 0 -27 11.5t-11 27.5v222q0 16 11 27.5t27 11.5h1923q16 0 27.5 -11.5t11.5 -27.5v-222q0 -16 -11.5 -27.5t-27.5 -11.5z" />
<glyph unicode="&#x2018;" horiz-adv-x="744" d="M445 1527q29 17 50 -12l60 -89q8 -12 4.5 -28.5t-14.5 -25.5q-41 -34 -70.5 -79.5t-36.5 -90.5q168 -24 168 -212q0 -111 -57.5 -164.5t-176.5 -53.5t-176.5 53.5t-57.5 164.5q0 358 307 537z" />
<glyph unicode="&#x2019;" horiz-adv-x="744" d="M299 789q-29 -17 -50 12l-60 89q-8 12 -4.5 28.5t14.5 25.5q41 34 70.5 79.5t36.5 90.5q-168 24 -168 212q0 111 57.5 164.5t176.5 53.5t176.5 -53.5t57.5 -164.5q0 -358 -307 -537z" />
<glyph unicode="&#x201a;" horiz-adv-x="744" d="M299 -343q-29 -17 -50 12l-60 89q-8 12 -4.5 28.5t14.5 25.5q41 34 70.5 79.5t36.5 90.5q-168 24 -168 212q0 111 57.5 164.5t176.5 53.5t176.5 -53.5t57.5 -164.5q0 -358 -307 -537z" />
<glyph unicode="&#x201c;" horiz-adv-x="1326" d="M1027 1527q29 17 50 -12l60 -89q8 -12 4.5 -28.5t-14.5 -25.5q-41 -34 -70.5 -79.5t-36.5 -90.5q168 -24 168 -212q0 -111 -57.5 -164.5t-176.5 -53.5t-176.5 53.5t-57.5 164.5q0 358 307 537zM445 1527q29 17 50 -12l60 -89q8 -12 4.5 -28.5t-14.5 -25.5 q-41 -34 -70.5 -79.5t-36.5 -90.5q168 -24 168 -212q0 -111 -57.5 -164.5t-176.5 -53.5t-176.5 53.5t-57.5 164.5q0 358 307 537z" />
<glyph unicode="&#x201d;" horiz-adv-x="1326" d="M881 789q-29 -17 -50 12l-60 89q-8 12 -4.5 28.5t14.5 25.5q41 34 70.5 79.5t36.5 90.5q-168 24 -168 212q0 111 57.5 164.5t176.5 53.5t176.5 -53.5t57.5 -164.5q0 -358 -307 -537zM299 789q-29 -17 -50 12l-60 89q-8 12 -4.5 28.5t14.5 25.5q41 34 70.5 79.5t36.5 90.5 q-168 24 -168 212q0 111 57.5 164.5t176.5 53.5t176.5 -53.5t57.5 -164.5q0 -358 -307 -537z" />
<glyph unicode="&#x201e;" horiz-adv-x="1326" d="M881 -343q-29 -17 -50 12l-60 89q-8 12 -4.5 28.5t14.5 25.5q41 34 70.5 79.5t36.5 90.5q-168 24 -168 212q0 111 57.5 164.5t176.5 53.5t176.5 -53.5t57.5 -164.5q0 -358 -307 -537zM299 -343q-29 -17 -50 12l-60 89q-8 12 -4.5 28.5t14.5 25.5q41 34 70.5 79.5 t36.5 90.5q-168 24 -168 212q0 111 57.5 164.5t176.5 53.5t176.5 -53.5t57.5 -164.5q0 -358 -307 -537z" />
<glyph unicode="&#x2022;" horiz-adv-x="1036" d="M518 352q-153 0 -235.5 82t-82.5 230t82.5 230t235.5 82t235.5 -82t82.5 -230t-82.5 -230t-235.5 -82z" />
<glyph unicode="&#x2026;" horiz-adv-x="2232" d="M372 -24q-119 0 -176.5 53.5t-57.5 164.5t57.5 164.5t176.5 53.5t176.5 -53.5t57.5 -164.5t-57.5 -164.5t-176.5 -53.5zM1860 -24q-119 0 -176.5 53.5t-57.5 164.5t57.5 164.5t176.5 53.5t176.5 -53.5t57.5 -164.5t-57.5 -164.5t-176.5 -53.5zM1116 -24 q-119 0 -176.5 53.5t-57.5 164.5t57.5 164.5t176.5 53.5t176.5 -53.5t57.5 -164.5t-57.5 -164.5t-176.5 -53.5z" />
<glyph unicode="&#x202f;" horiz-adv-x="388" />
<glyph unicode="&#x2039;" horiz-adv-x="624" d="M100 508v232q0 30 27 55l351 325q20 19 43 9t23 -38v-261q0 -18 -13 -29l-197 -177l197 -177q13 -11 13 -29v-261q0 -28 -23 -38t-43 9l-351 325q-27 25 -27 55z" />
<glyph unicode="&#x203a;" horiz-adv-x="624" d="M524 740v-232q0 -30 -27 -55l-351 -325q-20 -19 -43 -9t-23 38v261q0 18 13 29l197 177l-197 177q-13 11 -13 29v261q0 28 23 38t43 -9l351 -325q27 -25 27 -55z" />
<glyph unicode="&#x205f;" horiz-adv-x="486" />
<glyph unicode="&#x20ac;" horiz-adv-x="1644" d="M722 644h545q21 0 32.5 -14t6.5 -33l-17 -60q-3 -12 -14.5 -20.5t-23.5 -8.5h-487q60 -95 172 -133.5t272 -38.5q172 0 306 46q19 7 34 -3.5t17 -30.5l26 -268q1 -12 -8.5 -24t-21.5 -16q-202 -64 -482 -64q-361 0 -594.5 134t-302.5 398h-103q-16 0 -27.5 11.5 t-11.5 27.5v58q0 16 11.5 27.5t27.5 11.5h83q-2 40 -2 56q0 22 2 56h-83q-16 0 -27.5 11t-11.5 27v59q0 16 11.5 27.5t27.5 11.5h105q57 255 291.5 393.5t605.5 138.5q267 0 471 -68q12 -5 20 -16t7 -23l-26 -266q-2 -19 -17.5 -29t-34.5 -4q-133 46 -302 46 q-332 0 -440 -172h582q21 0 32.5 -14t6.5 -33l-17 -60q-3 -12 -14.5 -20.5t-23.5 -8.5h-603q-5 -37 -5 -56q0 -25 5 -56z" />
<glyph unicode="&#x2122;" horiz-adv-x="1568" d="M198 777v443h-149q-16 0 -27.5 11.5t-11.5 27.5v103q0 16 11.5 27t27.5 11h518q16 0 27.5 -11t11.5 -27v-103q0 -16 -11.5 -27.5t-27.5 -11.5h-149v-443q0 -16 -11.5 -27.5t-27.5 -11.5h-142q-16 0 -27.5 11.5t-11.5 27.5zM1148 930h-136q-7 0 -17.5 6t-14.5 12l-108 165 v-336q0 -16 -11.5 -27.5t-27.5 -11.5h-142q-16 0 -27.5 11.5t-11.5 27.5v585q0 16 11.5 27t27.5 11h194q20 0 33 -17l162 -247l162 247q13 17 33 17h194q16 0 27.5 -11t11.5 -27v-585q0 -16 -11.5 -27.5t-27.5 -11.5h-142q-16 0 -27.5 11.5t-11.5 27.5v336l-108 -165 q-4 -6 -14.5 -12t-17.5 -6z" />
<glyph unicode="&#x25fc;" horiz-adv-x="1190" d="M0 1190h1190v-1190h-1190v1190z" />
<glyph unicode="&#xfb02;" horiz-adv-x="2518" d="M100 40v1110q0 16 12 28t28 12h1026q16 0 28 -12t12 -28v-229q0 -17 -11.5 -29t-28.5 -12h-548v-158h506q17 0 28.5 -11.5t11.5 -28.5v-230q0 -17 -11.5 -28.5t-28.5 -11.5h-506v-372q0 -16 -12 -28t-28 -12h-438q-16 0 -28 12t-12 28zM1356 40v1110q0 16 12 28t28 12 h438q17 0 28.5 -11.5t11.5 -28.5v-824h588q17 0 28.5 -11.5t11.5 -28.5v-246q0 -16 -12 -28t-28 -12h-1066q-16 0 -28 12t-12 28z" />
<glyph unicode="&#xfb04;" horiz-adv-x="3774" d="M1356 40v1110q0 16 12 28t28 12h1026q16 0 28 -12t12 -28v-229q0 -17 -11.5 -29t-28.5 -12h-548v-158h506q17 0 28.5 -11.5t11.5 -28.5v-230q0 -17 -11.5 -28.5t-28.5 -11.5h-506v-372q0 -16 -12 -28t-28 -12h-438q-16 0 -28 12t-12 28zM2612 40v1110q0 16 12 28t28 12 h438q17 0 28.5 -11.5t11.5 -28.5v-824h588q17 0 28.5 -11.5t11.5 -28.5v-246q0 -16 -12 -28t-28 -12h-1066q-16 0 -28 12t-12 28zM100 40v1110q0 16 12 28t28 12h1026q16 0 28 -12t12 -28v-229q0 -17 -11.5 -29t-28.5 -12h-548v-158h506q17 0 28.5 -11.5t11.5 -28.5v-230 q0 -17 -11.5 -28.5t-28.5 -11.5h-506v-372q0 -16 -12 -28t-28 -12h-438q-16 0 -28 12t-12 28z" />
</font>
</defs>
</svg>
