<?xml version="1.0" standalone="no"?>
<!DOCTYPE svg PUBLIC "-//W3C//DTD SVG 1.1//EN" "http://www.w3.org/Graphics/SVG/1.1/DTD/svg11.dtd" >
<svg xmlns="http://www.w3.org/2000/svg">
<metadata></metadata>
<defs>
<font id="core_sans_nr_33_ex_lightIt" horiz-adv-x="1320" >
<font-face units-per-em="2000" ascent="1600" descent="-400" />
<missing-glyph horiz-adv-x="720" />
<glyph unicode="&#xfb01;" horiz-adv-x="1232" d="M1154 1248q-42 0 -55 24.5t-2 81.5q10 57 33 81.5t65 24.5t55.5 -24.5t2.5 -81.5t-34 -81.5t-65 -24.5zM853 30l190 976q2 13 13 21.5t24 8.5h67q13 0 19.5 -8.5t4.5 -21.5l-190 -976q-2 -13 -12 -21.5t-23 -8.5h-67q-13 0 -20.5 8.5t-5.5 21.5zM108 958l9 48 q2 13 12.5 21.5t23.5 8.5h232l11 56q72 368 434 368q76 0 135 -12q26 -6 18 -33l-17 -49q-11 -31 -42 -26q-41 8 -101 8q-127 0 -199.5 -59.5t-102.5 -208.5l-8 -44h338q13 0 19.5 -8.5t4.5 -21.5l-9 -48q-3 -13 -13 -21.5t-23 -8.5h-338l-250 -1284q-2 -13 -13 -21.5 t-23 -8.5h-68q-13 0 -19.5 8.5t-4.5 21.5l250 1284h-232q-13 0 -20 8.5t-4 21.5z" />
<glyph unicode="&#xfb02;" horiz-adv-x="1232" d="M853 30l272 1400q3 13 13.5 21.5t23.5 8.5h67q13 0 20 -8.5t4 -21.5l-272 -1400q-2 -13 -12 -21.5t-23 -8.5h-67q-13 0 -20.5 8.5t-5.5 21.5zM108 958l9 48q2 13 12.5 21.5t23.5 8.5h232l11 56q72 368 434 368q76 0 135 -12q26 -6 18 -33l-17 -49q-11 -31 -42 -26 q-41 8 -101 8q-127 0 -199.5 -59.5t-102.5 -208.5l-8 -44h338q13 0 19.5 -8.5t4.5 -21.5l-9 -48q-3 -13 -13 -21.5t-23 -8.5h-338l-250 -1284q-2 -13 -13 -21.5t-23 -8.5h-68q-13 0 -19.5 8.5t-4.5 21.5l250 1284h-232q-13 0 -20 8.5t-4 21.5z" />
<glyph unicode="&#xfb03;" horiz-adv-x="1962" d="M1883 1248q-42 0 -55 24.5t-2 81.5q10 57 33 81.5t65 24.5t55.5 -24.5t2.5 -81.5t-34 -81.5t-65 -24.5zM1582 30l190 976q2 13 13 21.5t24 8.5h67q13 0 19.5 -8.5t4.5 -21.5l-190 -976q-2 -13 -12 -21.5t-23 -8.5h-67q-13 0 -20.5 8.5t-5.5 21.5zM982 1336 q-54 12 -129 12q-133 0 -218.5 -61t-114.5 -207l-8 -44h572l11 56q72 368 434 368q76 0 135 -12q26 -6 18 -33l-17 -49q-11 -31 -42 -26q-41 8 -101 8q-127 0 -199.5 -59.5t-102.5 -208.5l-8 -44h338q13 0 19.5 -8.5t4.5 -21.5l-9 -48q-3 -13 -13 -21.5t-23 -8.5h-338 l-250 -1284q-2 -13 -13 -21.5t-23 -8.5h-68q-13 0 -19.5 8.5t-4.5 21.5l250 1284h-572l-250 -1284q-2 -13 -12.5 -21.5t-23.5 -8.5h-68q-13 0 -19.5 8.5t-4.5 21.5l250 1284h-231q-13 0 -20 8.5t-4 21.5l9 48q2 13 12.5 21.5t23.5 8.5h231l11 56q36 183 158 275.5t306 92.5 q94 0 164 -16q26 -6 18 -33l-17 -49q-11 -31 -42 -26z" />
<glyph unicode="&#xfb04;" horiz-adv-x="1962" d="M1582 30l272 1400q3 13 13.5 21.5t23.5 8.5h67q13 0 20 -8.5t4 -21.5l-272 -1400q-2 -13 -12 -21.5t-23 -8.5h-67q-13 0 -20.5 8.5t-5.5 21.5zM982 1336q-54 12 -129 12q-133 0 -218.5 -61t-114.5 -207l-8 -44h572l11 56q72 368 434 368q76 0 135 -12q26 -6 18 -33 l-17 -49q-11 -31 -42 -26q-41 8 -101 8q-127 0 -199.5 -59.5t-102.5 -208.5l-8 -44h338q13 0 19.5 -8.5t4.5 -21.5l-9 -48q-3 -13 -13 -21.5t-23 -8.5h-338l-250 -1284q-2 -13 -13 -21.5t-23 -8.5h-68q-13 0 -19.5 8.5t-4.5 21.5l250 1284h-572l-250 -1284 q-2 -13 -12.5 -21.5t-23.5 -8.5h-68q-13 0 -19.5 8.5t-4.5 21.5l250 1284h-231q-13 0 -20 8.5t-4 21.5l9 48q2 13 12.5 21.5t23.5 8.5h231l11 56q36 183 158 275.5t306 92.5q94 0 164 -16q26 -6 18 -33l-17 -49q-11 -31 -42 -26z" />
<glyph horiz-adv-x="0" />
<glyph horiz-adv-x="0" />
<glyph unicode="&#xd;" horiz-adv-x="682" />
<glyph horiz-adv-x="0" />
<glyph unicode="&#x9;" horiz-adv-x="682" />
<glyph horiz-adv-x="0" />
<glyph unicode=" "  horiz-adv-x="720" />
<glyph unicode="&#x09;" horiz-adv-x="720" />
<glyph unicode="&#xa0;" horiz-adv-x="720" />
<glyph unicode="!" horiz-adv-x="528" d="M190 367l96 611l76 391q2 13 12.5 22t23.5 9h82q13 0 19.5 -9t4.5 -22l-76 -391l-142 -611q-3 -12 -13.5 -20.5t-22.5 -8.5h-36q-12 0 -19 8.5t-5 20.5zM271 88q-22 -112 -112 -112t-68 112q21 112 111 112t69 -112z" />
<glyph unicode="&#x22;" horiz-adv-x="942" d="M285 873l84 495q2 13 13.5 22.5t23.5 9.5h87q13 0 19.5 -9t4.5 -22l-13 -65l-110 -432q-3 -11 -13.5 -19.5t-21.5 -8.5h-48q-12 0 -20 8.5t-6 20.5zM671 873l84 495q2 13 13.5 22.5t23.5 9.5h87q13 0 19.5 -9t4.5 -22l-13 -65l-110 -432q-3 -11 -13.5 -19.5t-21.5 -8.5 h-48q-12 0 -20 8.5t-6 20.5z" />
<glyph unicode="#" horiz-adv-x="1568" d="M585 1056l128 319q4 10 14 17.5t20 7.5h72q15 0 21 -10.5t0 -25.5l-124 -308h487l128 319q4 10 14 17.5t20 7.5h72q15 0 21 -10.5t0 -25.5l-124 -308h232q13 0 19.5 -8.5t4.5 -21.5l-10 -50q-2 -13 -12.5 -21.5t-23.5 -8.5h-255l-184 -460h252q13 0 19.5 -8.5t4.5 -21.5 l-10 -50q-2 -13 -12 -21.5t-23 -8.5h-275l-141 -351q-4 -10 -13.5 -17.5t-19.5 -7.5h-72q-15 0 -21 10.5t-1 25.5l137 340h-487l-141 -351q-4 -10 -13.5 -17.5t-19.5 -7.5h-72q-15 0 -21 10.5t-1 25.5l137 340h-238q-13 0 -20 8.5t-5 21.5l10 50q2 13 12.5 21.5t23.5 8.5 h261l184 460h-258q-13 0 -19.5 8.5t-4.5 21.5l10 50q2 13 12.5 21.5t23.5 8.5h281zM671 946l-184 -460h487l184 460h-487z" />
<glyph unicode="$" horiz-adv-x="1218" d="M420 -170l339 1742q2 13 12.5 21.5t23.5 8.5h58q13 0 19.5 -8.5t4.5 -21.5l-339 -1742q-2 -13 -12 -21.5t-23 -8.5h-58q-13 0 -20 8.5t-5 21.5zM42 49q-8 3 -12.5 12t-2.5 19l18 63q5 16 18 24.5t27 2.5q168 -74 384 -74q209 0 330 70t144 188q21 107 -62 180t-295 134 q-237 68 -324.5 162t-58.5 244q32 164 195 257t423 93q212 0 350 -46q9 -3 13.5 -12t1.5 -19l-17 -60q-4 -16 -17.5 -23.5t-27.5 -3.5q-124 44 -322 44q-203 0 -320.5 -62t-137.5 -164q-19 -99 54.5 -166t261.5 -124q263 -81 358.5 -178.5t65.5 -251.5q-35 -182 -199.5 -282 t-446.5 -100q-218 0 -401 73z" />
<glyph unicode="%" horiz-adv-x="2010" d="M1382 -16q-163 0 -241.5 102t-47.5 260q30 158 148.5 260t281.5 102t241.5 -102t48.5 -260q-31 -158 -149.5 -260t-281.5 -102zM1685 346q22 113 -28.5 181.5t-155.5 68.5t-181.5 -68.5t-98.5 -181.5t28 -181.5t155 -68.5t182 68.5t99 181.5zM558 690q-163 0 -241.5 102 t-48.5 260t148.5 260t281.5 102t241.5 -102t48.5 -260t-148.5 -260t-281.5 -102zM860 1052q22 113 -28 181.5t-155 68.5t-182 -68.5t-99 -181.5t28 -181.5t155 -68.5t182 68.5t99 181.5zM285 50l1380 1320q31 30 56 30h61q21 0 25 -17.5t-12 -32.5l-1380 -1320 q-13 -13 -19 -17.5t-15 -8.5t-21 -4h-61q-21 0 -25.5 17.5t11.5 32.5z" />
<glyph unicode="&#x26;" horiz-adv-x="1560" d="M1160 296l250 -243q14 -13 3.5 -33t-32.5 -20h-80q-33 0 -64 30l-171 164q-244 -220 -587 -220q-103 0 -188.5 23.5t-146 68.5t-86.5 116.5t-9 161.5q26 133 135 234.5t304 179.5q-100 101 -139 184t-22 170q27 140 157 226t307 86q184 0 279 -88t66 -236 q-22 -118 -122.5 -207t-291.5 -165l354 -348q102 140 151 342q3 12 13.5 21t22.5 9h71q13 0 19.5 -8t3.5 -21q-55 -248 -197 -427zM509 86q274 0 475 188l-412 400q-184 -67 -276.5 -149t-112.5 -185q-23 -116 69.5 -185t256.5 -69zM461 1114q-13 -63 24 -131t149 -175 q178 67 265.5 139t103.5 155q18 94 -47 152t-190 58q-119 0 -204 -57.5t-101 -140.5z" />
<glyph unicode="'" horiz-adv-x="536" d="M275 873l84 495q2 13 13.5 22.5t23.5 9.5h87q13 0 19.5 -9t4.5 -22l-13 -65l-110 -432q-3 -11 -13.5 -19.5t-21.5 -8.5h-48q-12 0 -20 8.5t-6 20.5z" />
<glyph unicode="(" horiz-adv-x="756" d="M222 620q47 241 179.5 461t329.5 398q24 21 53 21h32q20 0 25.5 -16.5t-10.5 -32.5q-188 -187 -311 -399t-166 -432q-41 -227 -1.5 -435.5t154.5 -395.5q10 -16 -1.5 -32.5t-31.5 -16.5h-32q-30 0 -45 21q-128 178 -175 398t0 461z" />
<glyph unicode=")" horiz-adv-x="756" d="M542 620q-47 -241 -179.5 -461t-329.5 -398q-24 -21 -53 -21h-32q-20 0 -25.5 16.5t10.5 32.5q188 187 311 399t166 432q41 227 1.5 435.5t-154.5 395.5q-10 16 1.5 32.5t31.5 16.5h32q30 0 45 -21q128 -178 175 -398t0 -461z" />
<glyph unicode="*" horiz-adv-x="1050" d="M162 479q-6 10 -2.5 22.5t14.5 18.5l267 144l-267 144q-11 6 -14.5 18.5t2.5 22.5l32 56q6 11 18.5 14t23.5 -4l259 -160l-10 304q-1 13 8 22t22 9h64q13 0 22 -9t8 -22l-11 -304l260 160q11 7 23.5 4t18.5 -14l32 -56q6 -10 2.5 -22.5t-14.5 -18.5l-268 -144l268 -144 q11 -6 14.5 -18.5t-2.5 -22.5l-32 -56q-16 -25 -42 -10l-260 159l11 -303q1 -13 -8 -22t-22 -9h-64q-13 0 -22 9t-8 22l10 303l-259 -159q-11 -7 -23.5 -4t-18.5 14z" />
<glyph unicode="+" horiz-adv-x="1308" d="M620 212v394h-436q-13 0 -21.5 8.5t-8.5 21.5v56q0 13 8.5 21.5t21.5 8.5h436v394q0 13 9 21.5t21 8.5h68q13 0 21.5 -8.5t8.5 -21.5v-394h435q13 0 22 -8.5t9 -21.5v-56q0 -13 -9 -21.5t-22 -8.5h-435v-394q0 -13 -8.5 -21.5t-21.5 -8.5h-68q-12 0 -21 8.5t-9 21.5z" />
<glyph unicode="," horiz-adv-x="660" d="M147 -237q-5 -4 -12 -4t-10 4l-16 26q-4 9 5 20q75 76 102 167q-44 2 -58.5 28.5t-3.5 83.5q11 58 37.5 85t73.5 27t63.5 -27t5.5 -85q-22 -112 -64.5 -189t-122.5 -136z" />
<glyph unicode="-" horiz-adv-x="846" d="M706 602h-538q-13 0 -20 8.5t-5 21.5l13 64q2 13 12.5 21.5t23.5 8.5h538q13 0 19.5 -8.5t4.5 -21.5l-13 -64q-2 -13 -12 -21.5t-23 -8.5z" />
<glyph unicode="." horiz-adv-x="660" d="M337 88q-22 -112 -112 -112t-68 112q21 112 111 112t69 -112z" />
<glyph unicode="/" horiz-adv-x="1148" d="M-140 -179l1329 1655q16 20 41 20h68q18 0 20 -12t-12 -29l-1330 -1655q-16 -20 -41 -20h-67q-18 0 -20 12t12 29z" />
<glyph unicode="0" d="M110 700q64 330 254.5 527t471.5 197q141 0 243 -53t155 -148.5t67.5 -229t-19.5 -293.5q-65 -330 -255.5 -527t-471.5 -197q-141 0 -243 53t-155 148.5t-67 229t20 293.5zM250 700q-56 -284 30.5 -444t297.5 -160q212 0 360 159.5t204 444.5q55 284 -31.5 444 t-297.5 160t-359.5 -160t-203.5 -444z" />
<glyph unicode="1" d="M411 1148l439 234q35 18 68 18h71q13 0 19.5 -9t4.5 -22l-261 -1339q-2 -13 -12 -21.5t-23 -8.5h-76q-13 0 -20 8.5t-5 21.5l237 1218l-399 -206q-11 -6 -23 -4t-16 12l-24 56q-4 11 2 23.5t18 18.5z" />
<glyph unicode="2" d="M422 1241q-17 -7 -28 -0.5t-10 25.5l5 59q1 22 25 32q79 31 183 49t197 18q116 0 206 -24t151.5 -70.5t86 -121t5.5 -170.5q-26 -134 -115 -250t-263 -258q-298 -242 -568 -410h749q13 0 20 -9t5 -22l-12 -59q-2 -13 -12.5 -21.5t-23.5 -8.5h-931q-13 0 -20 8.5t-5 21.5 l14 71q3 16 17 24q328 198 654 463q165 133 248 238.5t104 215.5q25 129 -68 195.5t-277 66.5q-176 0 -337 -63z" />
<glyph unicode="3" d="M90 26q-19 6 -11 31l19 66q4 15 17.5 22t27.5 2q137 -51 336 -51q217 0 346.5 71t152.5 191q29 148 -105.5 227t-428.5 89q-22 1 -17 30l12 62q7 28 28 28q177 5 309.5 36.5t216 95t101.5 154.5q20 101 -67 162.5t-283 61.5q-193 0 -352 -56q-14 -5 -25 2t-10 21l4 57 q0 25 24 34q186 62 388 62q260 0 376.5 -90t87.5 -240q-29 -151 -151 -240.5t-309 -121.5q192 -34 281 -128t60 -246q-33 -174 -202 -278t-454 -104q-213 0 -372 50z" />
<glyph unicode="4" d="M32 350l11 58q6 33 39 64l962 917q11 11 32 11h102q13 0 19.5 -9t4.5 -22l-182 -933h183q13 0 20.5 -8.5t4.5 -21.5l-10 -56q-3 -13 -13.5 -21.5t-23.5 -8.5h-183l-57 -290q-2 -13 -12 -21.5t-23 -8.5h-76q-13 0 -20 8.5t-5 21.5l57 290h-806q-13 0 -20 8.5t-4 21.5z M1035 1210l-829 -774h678z" />
<glyph unicode="5" d="M268 722l126 647q2 13 12.5 22t23.5 9h815q13 0 20 -9t5 -22l-11 -55q-2 -13 -13 -21.5t-24 -8.5h-709l-90 -464q142 34 262 34q250 0 372 -111.5t81 -320.5q-39 -199 -220.5 -322.5t-469.5 -123.5q-208 0 -363 52q-9 3 -13.5 12.5t-1.5 19.5l20 64q4 15 18 22.5t27 2.5 q143 -53 329 -53q222 0 363.5 91t171.5 245q16 81 -7.5 141.5t-78.5 94.5t-126.5 50t-159.5 16q-166 0 -328 -41q-15 -4 -24.5 5t-6.5 24z" />
<glyph unicode="6" d="M727 778q-117 0 -239.5 -50.5t-223.5 -137.5q-33 -239 53.5 -366.5t288.5 -127.5q171 0 299 94.5t157 245.5q31 158 -56 250t-279 92zM1200 1258q-109 46 -271 46q-248 0 -410 -149.5t-230 -428.5q106 79 232 125.5t245 46.5q113 0 203.5 -32.5t149 -91t81.5 -145 t3 -191.5q-26 -135 -117.5 -241.5t-222.5 -163.5t-278 -57q-125 0 -222 40.5t-163.5 124.5t-84.5 214t14 309q38 196 115 343.5t185 237.5t238.5 134.5t284.5 44.5q170 0 294 -45q9 -3 13.5 -13t0.5 -20l-19 -63q-5 -16 -16 -23t-25 -2z" />
<glyph unicode="7" d="M1307 1369l-11 -54q-8 -42 -37 -82l-836 -1209q-17 -24 -39 -24h-83q-18 0 -24 13.5t5 29.5l858 1239h-812q-13 0 -20 8.5t-4 21.5l11 57q2 13 12.5 22t23.5 9h931q13 0 20 -9t5 -22z" />
<glyph unicode="8" d="M63 362q23 121 145 223.5t297 158.5q-275 119 -232 338q30 153 186.5 247.5t375.5 94.5q223 0 340.5 -93.5t87.5 -246.5q-22 -111 -125 -200t-258 -144q105 -45 173 -90t101 -90.5t41.5 -95.5t-3.5 -106q-34 -175 -207.5 -278.5t-430.5 -103.5q-258 0 -392 103t-99 283z M1052 356q17 90 -70.5 170t-326.5 164q-192 -56 -312.5 -143t-140.5 -187q-22 -117 78 -190.5t297 -73.5q188 0 321 75t154 185zM413 1082q-18 -91 51 -147t283 -141q158 51 259.5 126.5t118.5 161.5q18 93 -64.5 157.5t-248.5 64.5q-157 0 -269 -65t-130 -157z" />
<glyph unicode="9" d="M658 622q117 0 239.5 50.5t223.5 137.5q33 239 -53.5 366.5t-288.5 127.5q-171 0 -299 -94.5t-157 -245.5q-31 -158 56 -250t279 -92zM185 142q109 -46 271 -46q248 0 410.5 149.5t230.5 428.5q-106 -79 -232.5 -125.5t-245.5 -46.5q-113 0 -203.5 32.5t-149 91 t-81.5 145t-3 191.5q26 135 117.5 241.5t222.5 163.5t278 57q125 0 222 -40.5t163.5 -124.5t85 -214t-13.5 -309q-38 -196 -115.5 -343.5t-185.5 -237.5t-238.5 -134.5t-284.5 -44.5q-170 0 -293 45q-10 3 -14.5 13t-0.5 20l19 63q5 16 16 23t25 2z" />
<glyph unicode=":" horiz-adv-x="660" d="M337 88q-22 -112 -112 -112t-68 112q21 112 111 112t69 -112zM504 948q-22 -112 -112 -112t-68 112t112 112t68 -112z" />
<glyph unicode=";" horiz-adv-x="660" d="M501 948q-22 -112 -112 -112t-68 112t112 112t68 -112zM147 -237q-5 -4 -12 -4t-10 4l-16 26q-4 9 5 20q75 76 102 167q-44 2 -58.5 28.5t-3.5 83.5q11 58 37.5 85t73.5 27t63.5 -27t5.5 -85q-22 -112 -64.5 -189t-122.5 -136z" />
<glyph unicode="&#x3c;" horiz-adv-x="1308" d="M154 626v76q0 20 19 28l999 419q16 7 29 -2t13 -26v-57q0 -25 -19 -32l-897 -368l897 -368q19 -7 19 -32v-57q0 -17 -13 -26t-29 -2l-999 419q-19 8 -19 28z" />
<glyph unicode="=" horiz-adv-x="1308" d="M1183 826h-999q-13 0 -21.5 8.5t-8.5 21.5v56q0 13 8.5 21.5t21.5 8.5h999q13 0 22 -8.5t9 -21.5v-56q0 -13 -9 -21.5t-22 -8.5zM1183 386h-999q-13 0 -21.5 8.5t-8.5 21.5v56q0 13 8.5 21.5t21.5 8.5h999q13 0 22 -8.5t9 -21.5v-56q0 -13 -9 -21.5t-22 -8.5z" />
<glyph unicode="&#x3e;" horiz-adv-x="1308" d="M1214 702v-76q0 -20 -19 -28l-999 -419q-16 -7 -29 2t-13 26v57q0 25 19 32l897 368l-897 368q-19 7 -19 32v57q0 17 13 26t29 2l999 -419q19 -8 19 -28z" />
<glyph unicode="?" horiz-adv-x="1180" d="M538 398l-4 -20q-2 -13 -12.5 -21.5t-23.5 -8.5h-76q-13 0 -19.5 8.5t-4.5 21.5l5 28q27 137 93 227t199 161q152 81 218.5 147.5t83.5 150.5q19 101 -69 153.5t-287 52.5q-183 0 -350 -62q-16 -6 -27.5 1.5t-9.5 23.5l7 68q1 9 8.5 18t16.5 12q182 65 387 65 q264 0 383.5 -85.5t87.5 -248.5q-42 -215 -362 -382q-116 -61 -169.5 -131.5t-74.5 -178.5zM498 88q-22 -112 -112 -112t-68 112q21 112 111 112t69 -112z" />
<glyph unicode="@" horiz-adv-x="1942" d="M797 218q227 0 396 186l140 372q-59 112 -234 112q-162 0 -309.5 -126.5t-181.5 -303.5q-22 -110 30.5 -175t158.5 -65zM1368 -182q-270 -142 -544 -142q-150 0 -279.5 43t-223 120.5t-155.5 186.5t-77.5 240.5t10.5 281.5q36 185 135.5 348t237.5 278.5t311.5 182.5 t353.5 67q189 0 341 -63t248 -173t133 -265t2 -333q-41 -214 -170 -352t-299 -138q-88 0 -135.5 50t-51.5 140q-191 -180 -437 -180q-149 0 -232 94.5t-55 241.5q30 156 133.5 283.5t238.5 195t270 67.5q214 0 315 -143q33 -45 6 -114l-135 -353q-17 -89 11 -140.5t95 -51.5 q116 0 210.5 115.5t127.5 284.5q30 154 -1.5 289.5t-114 233t-217 154.5t-302.5 57q-211 0 -405 -101.5t-329 -279.5t-177 -395q-42 -218 26.5 -395t229 -277t380.5 -100q262 0 494 130q14 7 25 3.5t15 -16.5l8 -33q9 -28 -17 -42z" />
<glyph unicode="A" horiz-adv-x="1490" d="M1112 382h-814l-224 -344q-24 -38 -65 -38h-61q-18 0 -24 14t4 30l879 1330q16 26 44 26h104q27 0 34 -26l361 -1330q4 -16 -7 -30t-29 -14h-61q-41 0 -51 38zM374 498h706l-203 770z" />
<glyph unicode="B" horiz-adv-x="1404" d="M638 0h-546q-13 0 -20 9t-4 22l260 1338q2 13 12.5 22t23.5 9h526q239 0 357.5 -100t87.5 -262q-21 -110 -93.5 -186.5t-182.5 -115.5q141 -39 200.5 -127.5t34.5 -216.5q-36 -187 -204.5 -289.5t-451.5 -102.5zM1156 394q25 129 -64.5 201.5t-286.5 72.5h-478l-107 -552 h424q227 0 356.5 71t155.5 207zM1198 1030q23 119 -69.5 186.5t-279.5 67.5h-402l-97 -500h462q163 0 263.5 67t122.5 179z" />
<glyph unicode="C" horiz-adv-x="1384" d="M1180 22q-158 -46 -353 -46q-391 0 -576.5 195.5t-120.5 528.5q64 330 325 527t647 197q203 0 333 -45q21 -8 15 -33l-19 -63q-4 -16 -17.5 -22t-27.5 -1q-122 44 -299 44q-325 0 -544.5 -164.5t-272.5 -439.5q-55 -280 102.5 -442t483.5 -162q175 0 320 47q18 6 28 -0.5 t9 -22.5l-6 -65q-1 -25 -27 -33z" />
<glyph unicode="D" horiz-adv-x="1534" d="M1334 700q56 293 -121.5 438.5t-547.5 145.5h-218l-227 -1168h218q244 0 428.5 61.5t306.5 193.5t161 329zM436 0h-343q-13 0 -20.5 9t-4.5 22l260 1338q2 13 13 22t24 9h343q204 0 360.5 -45t258.5 -131.5t141 -220t6 -303.5q-45 -227 -189.5 -386.5t-360 -236.5 t-488.5 -77z" />
<glyph unicode="E" horiz-adv-x="1268" d="M68 31l260 1338q2 13 13 22t24 9h938q13 0 20 -9t5 -22l-11 -54q-2 -13 -13 -22t-24 -9h-833l-98 -504h787q13 0 20.5 -8.5t4.5 -21.5l-11 -56q-2 -13 -12.5 -21.5t-23.5 -8.5h-787l-107 -548h853q13 0 20 -9t5 -22l-10 -54q-3 -13 -13.5 -22t-23.5 -9h-958 q-13 0 -20.5 9t-4.5 22z" />
<glyph unicode="F" horiz-adv-x="1212" d="M68 31l260 1338q2 13 12.5 22t24.5 9h939q13 0 19.5 -8.5t4.5 -22.5l-11 -54q-2 -13 -12.5 -22t-23.5 -9h-834l-97 -500h777q13 0 20 -8.5t5 -21.5l-11 -55q-2 -13 -13 -22t-24 -9h-777l-123 -637q-3 -13 -13.5 -22t-23.5 -9h-74q-14 0 -21 9t-4 22z" />
<glyph unicode="G" horiz-adv-x="1600" d="M1512 1239q-164 65 -397 65q-327 0 -560.5 -169t-284.5 -435q-54 -273 119 -438.5t519 -165.5q189 0 332 40l96 496h-468q-13 0 -19.5 9t-4.5 22l11 54q2 13 12.5 22t23.5 9h579q13 0 20 -9t5 -22l-121 -624q-9 -47 -50 -59q-199 -58 -445 -58q-201 0 -358 54 t-252.5 149.5t-132.5 229.5t-6 291q30 154 116 287t214.5 229.5t302 152t369.5 55.5q227 0 422 -60q28 -10 21 -36l-22 -70q-4 -14 -16 -19t-25 0z" />
<glyph unicode="H" horiz-adv-x="1566" d="M68 31l260 1338q2 13 12.5 22t23.5 9h75q13 0 20 -9t5 -22l-110 -565h966l110 565q2 13 13 22t24 9h75q13 0 19.5 -8.5t4.5 -22.5l-260 -1338q-3 -14 -13 -22.5t-23 -8.5h-75q-13 0 -20.5 9t-4.5 22l127 657h-966l-127 -657q-3 -13 -13.5 -22t-23.5 -9h-75q-13 0 -20 9 t-4 22z" />
<glyph unicode="I" horiz-adv-x="484" d="M374 1400h76q13 0 19.5 -8.5t4.5 -22.5l-260 -1338q-3 -14 -13 -22.5t-23 -8.5h-76q-13 0 -20 9t-4 22l260 1338q2 13 12.5 22t23.5 9z" />
<glyph unicode="J" horiz-adv-x="994" d="M673 456l178 913q2 13 13 22t24 9h78q13 0 20 -8.5t5 -22.5l-177 -909q-95 -484 -574 -484q-159 0 -282 49q-31 13 -22 51l15 49q5 15 19 22.5t28 0.5q108 -52 263 -52q343 0 412 360z" />
<glyph unicode="K" horiz-adv-x="1358" d="M464 1369l-118 -606l870 609q39 28 80 28h66q23 0 26 -19t-17 -33l-860 -602l712 -691q15 -14 4.5 -34.5t-33.5 -20.5h-72q-42 0 -61 18l-723 703l-134 -690q-3 -13 -13.5 -22t-23.5 -9h-74q-14 0 -21 9t-4 22l260 1338q2 13 12.5 22t24.5 9h74q13 0 20 -9t5 -22z" />
<glyph unicode="L" horiz-adv-x="1276" d="M68 31l260 1338q2 13 12.5 22t23.5 9h80q13 0 19.5 -8.5t4.5 -22.5l-244 -1253h897q13 0 20 -9t5 -22l-10 -54q-7 -31 -37 -31h-1007q-13 0 -20 9t-4 22z" />
<glyph unicode="M" horiz-adv-x="1888" d="M950 468h-36q-33 0 -51 29l-431 707l-228 -1173q-3 -14 -13 -22.5t-23 -8.5h-76q-13 0 -20 9t-4 22l260 1338q2 13 12.5 22t23.5 9h85q40 0 57 -32l455 -754l747 754q32 32 71 32h85q13 0 19.5 -8.5t4.5 -22.5l-260 -1338q-3 -14 -13 -22.5t-23 -8.5h-76q-13 0 -20 9 t-4 22l228 1173l-707 -707q-29 -29 -63 -29z" />
<glyph unicode="N" horiz-adv-x="1570" d="M1119 26l-684 1196l-231 -1191q-3 -13 -13.5 -22t-23.5 -9h-75q-13 0 -20 9t-4 22l260 1338q2 13 12.5 22t23.5 9h107q33 0 48 -26l683 -1196l232 1191q2 13 13 22t24 9h75q13 0 19.5 -8.5t4.5 -22.5l-260 -1338q-3 -14 -13 -22.5t-23 -8.5h-107q-35 0 -48 26z" />
<glyph unicode="O" horiz-adv-x="1634" d="M1576 700q-30 -153 -106 -285.5t-186.5 -229.5t-258.5 -153t-312 -56q-111 0 -205 25.5t-164 71.5t-121.5 112t-77 146t-31.5 173.5t16 195.5q30 153 106 285.5t186.5 229.5t258.5 153t313 56q110 0 204 -25.5t163.5 -71.5t121 -112t77 -146t32 -173.5t-15.5 -195.5z M270 700q-53 -270 73 -437t393 -167t457 167t243 437q52 270 -73 437t-392 167t-458 -167t-243 -437z" />
<glyph unicode="P" horiz-adv-x="1318" d="M303 542l-99 -511q-3 -13 -13.5 -22t-23.5 -9h-74q-14 0 -21 9t-4 22l260 1338q2 13 12.5 22t24.5 9h435q289 0 429.5 -111.5t100.5 -316.5q-40 -207 -224 -318.5t-473 -111.5h-330zM1190 972q30 155 -81 233.5t-344 78.5h-318l-122 -626h318q233 0 375 79.5t172 234.5z " />
<glyph unicode="Q" horiz-adv-x="1634" d="M269 700q-53 -270 73 -437t393 -167t457 167t243 437q52 270 -73 437t-392 167t-458 -167t-243 -437zM666 -22q-204 10 -340.5 108t-186 257.5t-10.5 356.5q30 153 106 285.5t186.5 229.5t258.5 153t313 56q110 0 204 -25.5t163.5 -71.5t121 -112t77 -146t32 -173.5 t-15.5 -195.5q-28 -141 -95.5 -265.5t-165 -220t-228 -156.5t-277.5 -76q-4 -90 67.5 -132t216.5 -42q96 0 175 16q16 3 24.5 -3.5t7.5 -22.5l-2 -52q-1 -12 -10.5 -22t-21.5 -12q-89 -18 -201 -18q-90 0 -162 15t-128 47.5t-84.5 89t-24.5 132.5z" />
<glyph unicode="R" horiz-adv-x="1392" d="M904 622l331 -569q10 -17 0 -35t-30 -18h-71q-35 0 -51 29l-322 573q-52 -2 -83 -2h-363l-110 -569q-3 -13 -13.5 -22t-23.5 -9h-75q-14 0 -21 9t-4 22l260 1338q2 13 12.5 22t24.5 9h469q269 0 409.5 -106.5t104.5 -293.5q-28 -144 -145.5 -242t-298.5 -136zM1208 1000 q26 135 -80 209.5t-329 74.5h-352l-110 -568h352q223 0 358 74.5t161 209.5z" />
<glyph unicode="S" horiz-adv-x="1218" d="M53 44q-34 13 -22 49l14 50q5 16 18 24.5t27 2.5q168 -74 384 -74q209 0 330 70t144 188q21 107 -62 180t-295 134q-237 68 -324.5 162t-58.5 244q32 164 195 257t423 93q200 0 342 -44q29 -9 22 -34l-16 -59q-4 -16 -17.5 -23.5t-27.5 -3.5q-143 44 -322 44 q-203 0 -320.5 -62t-137.5 -164q-19 -99 54.5 -166t261.5 -124q263 -81 358.5 -178.5t65.5 -251.5q-35 -182 -199.5 -282t-446.5 -100q-215 0 -390 68z" />
<glyph unicode="T" horiz-adv-x="1260" d="M464 31l243 1253h-508q-13 0 -19.5 9t-4.5 22l11 54q2 13 12.5 22t23.5 9h1152q13 0 19.5 -8.5t4.5 -22.5l-11 -54q-2 -13 -12.5 -22t-23.5 -9h-508l-243 -1253q-3 -13 -13.5 -22t-23.5 -9h-74q-14 0 -21 9t-4 22z" />
<glyph unicode="U" horiz-adv-x="1604" d="M696 -24q-139 0 -247 34t-182 103.5t-99.5 176t0.5 252.5l161 827q2 13 13 22t24 9h78q13 0 20 -9t5 -22l-158 -812q-44 -226 63 -343.5t345 -117.5t391 117.5t197 343.5l158 812q2 13 13 22t24 9h78q13 0 20 -9t5 -22l-161 -827q-28 -142 -97.5 -251.5t-169 -177.5 t-221 -102.5t-260.5 -34.5z" />
<glyph unicode="V" horiz-adv-x="1550" d="M714 0h-92q-41 0 -53 39l-348 1318q-4 17 7.5 30t29.5 13h70q37 0 47 -35l319 -1231l797 1231q22 35 61 35h70q18 0 24 -13t-5 -30l-860 -1318q-25 -39 -67 -39z" />
<glyph unicode="W" horiz-adv-x="2304" d="M1279 1400h82q45 0 50 -45l148 -1195l696 1201q24 39 61 39h67q17 0 23.5 -13t-3.5 -29l-769 -1326q-20 -32 -47 -32h-120q-32 0 -37 32l-143 1200l-609 -1200q-17 -32 -49 -32h-120q-30 0 -35 32l-255 1326q-2 16 9.5 29t28.5 13h67q38 0 45 -39l230 -1201l612 1195 q23 45 68 45z" />
<glyph unicode="X" horiz-adv-x="1538" d="M756 612l-647 -586q-31 -26 -66 -26h-82q-21 0 -22 17.5t18 33.5l729 659l-457 639q-13 16 -5.5 33.5t28.5 17.5h82q36 0 56 -26l405 -566l625 566q29 26 66 26h82q14 0 19 -8.5t0.5 -20.5t-16.5 -22l-706 -639l472 -659q13 -16 6 -33.5t-28 -17.5h-82q-38 0 -56 26z" />
<glyph unicode="Y" horiz-adv-x="1532" d="M690 0h-78q-13 0 -20.5 9t-4.5 22l102 525l-460 795q-10 16 2 32.5t32 16.5h61q44 0 66 -36l393 -683l659 683q34 36 80 36h61q20 0 25 -16t-11 -33l-768 -795l-102 -525q-3 -13 -13.5 -22t-23.5 -9z" />
<glyph unicode="Z" horiz-adv-x="1296" d="M-32 31l11 58q6 32 26 52l1177 1139h-906q-13 0 -19.5 8.5t-4.5 21.5l12 59q2 13 12.5 22t23.5 9h1047q13 0 20 -8.5t5 -22.5l-11 -53q-8 -40 -49 -80l-1155 -1116h965q13 0 20 -8.5t5 -21.5l-11 -59q-3 -13 -13.5 -22t-23.5 -9h-1106q-13 0 -20.5 9t-4.5 22z" />
<glyph unicode="[" horiz-adv-x="836" d="M96 -230l330 1700q3 13 13.5 21.5t23.5 8.5h486q13 0 20.5 -8.5t4.5 -21.5l-10 -52q-2 -13 -13 -21.5t-24 -8.5h-379l-298 -1536h379q13 0 20 -8.5t5 -21.5l-10 -52q-3 -13 -13.5 -21.5t-23.5 -8.5h-486q-13 0 -20.5 8.5t-4.5 21.5z" />
<glyph unicode="\" horiz-adv-x="1148" d="M307 1476l688 -1655q7 -17 0.5 -29t-24.5 -12h-68q-26 0 -33 20l-688 1655q-7 17 -0.5 29t24.5 12h68q26 0 33 -20z" />
<glyph unicode="]" horiz-adv-x="836" d="M775 1470l-330 -1700q-3 -13 -13.5 -21.5t-23.5 -8.5h-486q-13 0 -20 8.5t-4 21.5l9 52q2 13 13 21.5t24 8.5h379l298 1536h-379q-13 0 -20 8.5t-5 21.5l10 52q3 13 13.5 21.5t23.5 8.5h486q13 0 20.5 -8.5t4.5 -21.5z" />
<glyph unicode="^" horiz-adv-x="1308" d="M616 1400h112q17 0 25 -13l434 -610q11 -16 5.5 -27.5t-24.5 -11.5h-79q-32 0 -57 37l-360 517l-360 -517q-25 -37 -57 -37h-79q-19 0 -24.5 11.5t5.5 27.5l434 610q8 13 25 13z" />
<glyph unicode="_" horiz-adv-x="1000" d="M-163 -310l10 52q3 13 13 21.5t23 8.5h939q13 0 20 -8.5t4 -21.5l-10 -52q-2 -13 -12.5 -21.5t-23.5 -8.5h-939q-13 0 -19.5 8.5t-4.5 21.5z" />
<glyph unicode="`" horiz-adv-x="920" d="M783 1136h-69q-21 0 -34 14l-253 286q-7 8 -3.5 16t16.5 8h121q18 0 27 -13l205 -289q5 -7 1.5 -14.5t-11.5 -7.5z" />
<glyph unicode="a" horiz-adv-x="1300" d="M216 518q-39 -202 67 -316t302 -114q218 0 388 144l111 572q-55 70 -141.5 107t-190.5 37q-128 0 -238.5 -48.5t-191 -147.5t-106.5 -234zM933 28l14 74q-196 -126 -412 -126q-120 0 -215.5 37t-155.5 107t-82.5 170.5t2.5 227.5q49 249 232.5 395.5t429.5 146.5 q215 0 363 -126l14 74q7 28 34 28h72q12 0 18.5 -8t3.5 -20l-190 -980q-2 -12 -11.5 -20t-21.5 -8h-72q-12 0 -18.5 8t-4.5 20z" />
<glyph unicode="b" horiz-adv-x="1300" d="M189 102l-14 -72q-2 -13 -12 -21.5t-23 -8.5h-68q-13 0 -20 8.5t-5 21.5l272 1400q3 13 13 21.5t23 8.5h68q13 0 20 -8.5t4 -21.5l-96 -496q198 126 413 126q120 0 215 -37t155.5 -107t82.5 -170.5t-3 -227.5q-49 -249 -232 -395.5t-429 -146.5q-215 0 -364 126z M1082 518q39 202 -66.5 316t-301.5 114q-219 0 -388 -144l-111 -572q54 -70 140.5 -107t191.5 -37q128 0 238.5 48.5t190.5 147.5t106 234z" />
<glyph unicode="c" horiz-adv-x="1136" d="M940 27q-147 -51 -321 -51q-294 0 -438.5 146.5t-96.5 395.5q48 246 247.5 394t478.5 148q181 0 310 -48q25 -9 17 -32l-16 -51q-5 -16 -17.5 -23t-27.5 -1q-115 43 -280 43q-219 0 -380 -114.5t-200 -315.5q-39 -202 79.5 -316t353.5 -114q164 0 289 46q16 7 26.5 2.5 t9.5 -19.5l-3 -54q-3 -27 -31 -36z" />
<glyph unicode="d" horiz-adv-x="1300" d="M933 30l14 72q-196 -126 -412 -126q-120 0 -215.5 37t-155.5 107t-82.5 170.5t2.5 227.5q49 249 232.5 395.5t429.5 146.5q215 0 363 -126l96 496q3 13 13 21.5t23 8.5h68q13 0 20 -8.5t4 -21.5l-272 -1400q-2 -13 -12 -21.5t-23 -8.5h-68q-13 0 -20 8.5t-5 21.5z M216 518q-39 -202 67 -316t302 -114q218 0 388 144l111 572q-55 70 -141.5 107t-190.5 37q-128 0 -238.5 -48.5t-191 -147.5t-106.5 -234z" />
<glyph unicode="e" horiz-adv-x="1236" d="M939 38q-154 -62 -353 -62q-283 0 -417.5 145.5t-85.5 396.5q47 243 240 392.5t478 149.5q205 0 319.5 -80t89.5 -210q-30 -155 -221.5 -230.5t-575.5 -75.5h-200q-20 -185 85 -280.5t318 -95.5q182 0 324 57q15 6 25 0.5t9 -20.5l-4 -46q-3 -30 -31 -41zM234 572h168 q332 0 490 46t178 152q15 78 -62.5 128t-224.5 50q-206 0 -352 -98t-197 -278z" />
<glyph unicode="f" horiz-adv-x="796" d="M108 958l9 48q2 13 12.5 21.5t23.5 8.5h232l11 56q72 368 434 368q76 0 135 -12q26 -6 18 -33l-17 -49q-11 -31 -42 -26q-41 8 -101 8q-127 0 -199.5 -59.5t-102.5 -208.5l-8 -44h338q13 0 19.5 -8.5t4.5 -21.5l-9 -48q-3 -13 -13 -21.5t-23 -8.5h-338l-250 -1284 q-2 -13 -13 -21.5t-23 -8.5h-68q-13 0 -19.5 8.5t-4.5 21.5l250 1284h-232q-13 0 -20 8.5t-4 21.5z" />
<glyph unicode="g" horiz-adv-x="1300" d="M935 40l12 62q-196 -126 -412 -126q-120 0 -215.5 37t-155.5 107t-82.5 170.5t2.5 227.5q49 249 232.5 395.5t429.5 146.5q215 0 363 -126l14 72q2 13 12.5 21.5t23.5 8.5h68q13 0 19.5 -8.5t4.5 -21.5l-177 -910q-27 -141 -78.5 -237t-132 -153t-182.5 -81.5t-242 -24.5 q-201 0 -358 61q-31 12 -22 45l14 50q4 15 19 21t27 1q141 -66 344 -66q212 0 325.5 79t146.5 249zM216 518q-39 -202 67 -316t302 -114q218 0 388 144l111 572q-55 70 -141.5 107t-190.5 37q-128 0 -238.5 -48.5t-191 -147.5t-106.5 -234z" />
<glyph unicode="h" horiz-adv-x="1294" d="M1173 596l-110 -566q-2 -13 -12 -21.5t-23 -8.5h-68q-13 0 -20 8.5t-5 21.5l110 562q33 172 -51.5 264t-263.5 92q-110 0 -215 -36.5t-189 -107.5l-151 -774q-2 -13 -12 -21.5t-23 -8.5h-68q-13 0 -20 8.5t-5 21.5l272 1400q3 13 13 21.5t23 8.5h68q13 0 20 -8.5t4 -21.5 l-96 -496q87 59 197 92.5t224 33.5q227 0 335.5 -120t65.5 -344z" />
<glyph unicode="i" horiz-adv-x="436" d="M358 1248q-42 0 -55 24.5t-2 81.5q10 57 33 81.5t65 24.5t55.5 -24.5t2.5 -81.5t-34 -81.5t-65 -24.5zM57 30l190 976q2 13 13 21.5t24 8.5h67q13 0 19.5 -8.5t4.5 -21.5l-190 -976q-2 -13 -12 -21.5t-23 -8.5h-67q-13 0 -20.5 8.5t-5.5 21.5z" />
<glyph unicode="j" horiz-adv-x="510" d="M121 -64l208 1070q2 13 12.5 21.5t23.5 8.5h67q13 0 20 -8.5t5 -21.5l-207 -1063q-35 -179 -137.5 -261t-279.5 -82q-49 0 -100 9q-12 2 -17 13t0 24l14 47q4 13 15.5 20t24.5 5q38 -6 77 -6q231 0 274 224zM440 1248q-42 0 -55 24.5t-2 81.5q10 57 33 81.5t65 24.5 t55.5 -24.5t2.5 -81.5t-34 -81.5t-65 -24.5z" />
<glyph unicode="k" horiz-adv-x="1160" d="M447 1430l-161 -829l683 411q39 24 86 24h47q14 0 21 -10t2.5 -23.5t-17.5 -21.5l-659 -399l545 -534q14 -14 8.5 -31t-26.5 -17h-74q-50 0 -84 34l-540 526l-103 -530q-2 -13 -12 -21.5t-23 -8.5h-68q-13 0 -20 8.5t-5 21.5l272 1400q3 13 13 21.5t23 8.5h68 q13 0 20 -8.5t4 -21.5z" />
<glyph unicode="l" horiz-adv-x="436" d="M57 30l272 1400q3 13 13.5 21.5t23.5 8.5h67q13 0 20 -8.5t4 -21.5l-272 -1400q-2 -13 -12 -21.5t-23 -8.5h-67q-13 0 -20.5 8.5t-5.5 21.5z" />
<glyph unicode="m" horiz-adv-x="2006" d="M1889 614l-114 -584q-2 -13 -12 -21.5t-23 -8.5h-68q-12 0 -19.5 8.5t-5.5 21.5l114 586q32 161 -41.5 246.5t-229.5 85.5q-189 0 -389 -148q13 -84 -6 -186l-114 -584q-2 -13 -12 -21.5t-23 -8.5h-67q-13 0 -20.5 8.5t-5.5 21.5l114 586q32 160 -40 246t-225 86 q-96 0 -202 -42t-174 -102l-151 -774q-2 -13 -12 -21.5t-23 -8.5h-68q-13 0 -20 8.5t-5 21.5l190 976q2 13 12.5 21.5t23.5 8.5h68q13 0 19.5 -8.5t4.5 -21.5l-14 -72q73 58 180.5 92t212.5 34q248 0 327 -168q98 77 217 122.5t240 45.5q207 0 305 -114t56 -332z" />
<glyph unicode="n" horiz-adv-x="1294" d="M1173 596l-110 -566q-2 -13 -12 -21.5t-23 -8.5h-68q-13 0 -20 8.5t-5 21.5l110 562q33 172 -51.5 264t-263.5 92q-110 0 -215 -36.5t-189 -107.5l-151 -774q-2 -13 -12 -21.5t-23 -8.5h-68q-13 0 -20 8.5t-5 21.5l190 976q2 13 12.5 21.5t23.5 8.5h68q13 0 19.5 -8.5 t4.5 -21.5l-14 -72q87 59 197 92.5t224 33.5q227 0 335.5 -120t65.5 -344z" />
<glyph unicode="o" d="M555 -24q-126 0 -226 41t-161 113t-83.5 172t-0.5 216q46 236 236.5 389t445.5 153q168 0 286 -70t166 -193.5t18 -278.5t-126 -278.5t-241.5 -193.5t-313.5 -70zM744 948q-195 0 -342.5 -118.5t-185.5 -311.5q-37 -193 64.5 -311.5t296.5 -118.5t342.5 118.5 t184.5 311.5q38 193 -63.5 311.5t-296.5 118.5z" />
<glyph unicode="p" horiz-adv-x="1300" d="M371 1006l-14 -72q198 126 413 126q120 0 215 -37t155.5 -107t82.5 -170.5t-3 -227.5q-49 -249 -232 -395.5t-429 -146.5q-215 0 -364 126l-96 -496q-2 -13 -12.5 -21.5t-23.5 -8.5h-68q-13 0 -19.5 8.5t-4.5 21.5l272 1400q2 13 12.5 21.5t23.5 8.5h68q13 0 19.5 -8.5 t4.5 -21.5zM1088 518q39 202 -66.5 316t-301.5 114q-219 0 -388 -144l-111 -572q54 -70 140.5 -107t191.5 -37q128 0 238.5 48.5t190.5 147.5t106 234z" />
<glyph unicode="q" horiz-adv-x="1300" d="M1109 934l14 72q2 13 12.5 21.5t23.5 8.5h68q13 0 19.5 -8.5t4.5 -21.5l-272 -1400q-2 -13 -12.5 -21.5t-23.5 -8.5h-68q-13 0 -19.5 8.5t-4.5 21.5l96 496q-196 -126 -412 -126q-120 0 -215.5 37t-155.5 107t-82.5 170.5t2.5 227.5q49 249 232.5 395.5t429.5 146.5 q215 0 363 -126zM216 518q-39 -202 67 -316t302 -114q218 0 388 144l111 572q-55 70 -141.5 107t-190.5 37q-128 0 -238.5 -48.5t-191 -147.5t-106.5 -234z" />
<glyph unicode="r" horiz-adv-x="826" d="M734 948q-122 0 -234.5 -58t-186.5 -150l-138 -710q-2 -13 -12 -21.5t-23 -8.5h-68q-13 0 -20 8.5t-5 21.5l190 976q2 13 12.5 21.5t23.5 8.5h68q13 0 19.5 -8.5t4.5 -21.5l-23 -120q182 174 420 174q68 0 124 -13q26 -5 16 -36l-18 -51q-10 -31 -43 -24q-43 12 -107 12z " />
<glyph unicode="s" horiz-adv-x="1034" d="M907 902q-127 46 -284 46q-146 0 -236.5 -43.5t-104.5 -112.5q-13 -69 52 -120.5t220 -85.5q205 -44 280 -121.5t54 -190.5q-28 -146 -162.5 -222t-357.5 -76q-206 0 -346 67q-23 11 -12 45l12 44q5 17 19.5 24.5t28.5 0.5q135 -69 318 -69q160 0 255 46.5t112 133.5 q14 74 -53.5 126.5t-235.5 87.5q-186 39 -262.5 114t-54.5 190q25 130 148.5 202t339.5 72q178 0 315 -48q27 -9 17 -35l-18 -53q-11 -33 -44 -22z" />
<glyph unicode="t" horiz-adv-x="852" d="M118 958l9 48q2 13 12.5 21.5t23.5 8.5h204l54 280q3 13 13 21.5t23 8.5h68q13 0 20 -8.5t4 -21.5l-54 -280h372q13 0 19.5 -8.5t4.5 -21.5l-9 -48q-3 -13 -13 -21.5t-23 -8.5h-372l-111 -572q-29 -147 17 -207.5t177 -60.5q45 0 91 7q39 5 39 -24l-1 -47q0 -15 -9 -25.5 t-23 -12.5q-60 -10 -130 -10q-187 0 -259 83.5t-37 262.5l118 606h-204q-13 0 -20 8.5t-4 21.5z" />
<glyph unicode="u" horiz-adv-x="1294" d="M119 440l110 566q2 13 12.5 21.5t23.5 8.5h68q13 0 19.5 -8.5t4.5 -21.5l-109 -562q-34 -172 51 -264t264 -92q232 0 404 144l150 774q2 13 12.5 21.5t23.5 8.5h68q13 0 19.5 -8.5t4.5 -21.5l-190 -976q-2 -13 -12 -21.5t-23 -8.5h-68q-13 0 -20 8.5t-5 21.5l14 72 q-186 -126 -420 -126q-227 0 -336 120t-66 344z" />
<glyph unicode="v" horiz-adv-x="1180" d="M539 0h-112q-16 0 -28.5 9.5t-16.5 24.5l-243 960q-4 16 7 29t29 13h64q37 0 46 -35l223 -871l561 871q23 35 60 35h64q18 0 24 -13t-4 -29l-617 -960q-22 -34 -57 -34z" />
<glyph unicode="w" horiz-adv-x="1788" d="M944 1036h94q33 0 37 -30l121 -863l486 863q16 30 53 30h72q17 0 23.5 -12.5t-2.5 -27.5l-556 -967q-17 -29 -44 -29h-115q-27 0 -32 31l-118 863l-452 -863q-17 -31 -44 -31h-115q-29 0 -34 29l-180 967q-3 15 8.5 27.5t28.5 12.5h72q37 0 41 -30l150 -863l457 863 q16 30 49 30z" />
<glyph unicode="x" horiz-adv-x="1176" d="M545 435l-446 -407q-31 -28 -74 -28h-63q-21 0 -26.5 14.5t11.5 30.5l533 482l-328 464q-11 16 0 30.5t32 14.5h55q42 0 63 -28l279 -389l429 389q32 28 75 28h55q21 0 26 -14.5t-12 -30.5l-508 -464l345 -482q11 -16 0.5 -30.5t-31.5 -14.5h-63q-44 0 -64 28z" />
<glyph unicode="y" horiz-adv-x="1228" d="M1172 1036h67q17 0 23 -13.5t-4 -29.5l-896 -1341q-25 -38 -64 -38h-63q-18 0 -24 13.5t5 29.5l225 339l-301 997q-5 16 6 29.5t29 13.5h67q34 0 43 -29l257 -860l575 860q20 29 55 29z" />
<glyph unicode="z" horiz-adv-x="1072" d="M1087 1006l-11 -55q-6 -30 -44 -65l-883 -774h758q13 0 20 -8.5t4 -21.5l-10 -52q-2 -13 -12 -21.5t-23 -8.5h-904q-13 0 -20 8.5t-5 21.5l10 51q8 36 30 55l898 788h-700q-13 0 -19.5 8.5t-4.5 21.5l10 52q2 13 12.5 21.5t23.5 8.5h845q13 0 20 -8.5t5 -21.5z" />
<glyph unicode="{" horiz-adv-x="816" d="M178 593l10 54q6 24 29 29q74 18 124.5 67t66.5 129l69 354q29 149 112.5 211.5t228.5 62.5h114q31 0 24 -29l-9 -51q-7 -30 -36 -30h-102q-88 0 -133 -30t-59 -100l-72 -374q-21 -107 -71 -171t-151 -95q90 -31 114.5 -95t3.5 -171l-72 -374q-14 -70 19 -100t121 -30 h102q30 0 25 -30l-10 -51q-7 -29 -36 -29h-114q-145 0 -204.5 62.5t-30.5 211.5l69 354q16 80 -16 129t-99 67q-22 6 -17 29z" />
<glyph unicode="|" horiz-adv-x="560" d="M250 -370v1878q0 13 8.5 21.5t21.5 8.5h60q13 0 21.5 -8.5t8.5 -21.5v-1878q0 -13 -8.5 -21.5t-21.5 -8.5h-60q-13 0 -21.5 8.5t-8.5 21.5z" />
<glyph unicode="}" horiz-adv-x="816" d="M675 647l-10 -54q-6 -24 -29 -29q-74 -18 -124.5 -67t-66.5 -129l-69 -354q-29 -149 -112.5 -211.5t-228.5 -62.5h-114q-30 0 -23 29l9 51q5 30 35 30h102q88 0 133 30t59 100l72 374q21 107 71 171t151 95q-90 31 -114.5 95t-3.5 171l72 374q14 70 -19 100t-121 30h-102 q-31 0 -24 30l9 51q7 29 36 29h114q145 0 204.5 -62.5t30.5 -211.5l-69 -354q-16 -80 16 -129t99 -67q22 -6 17 -29z" />
<glyph unicode="~" horiz-adv-x="1308" d="M747 620q-119 96 -216 96q-143 0 -154 -178q-2 -28 -30 -28h-64q-32 0 -30 32q8 142 85 212t197 70q139 0 283 -114q119 -96 216 -96q143 0 154 178q2 28 30 28h64q32 0 30 -32q-8 -142 -85 -212t-197 -70q-139 0 -283 114z" />
<glyph unicode="&#xa1;" horiz-adv-x="528" d="M104 58l142 611q3 12 13 20.5t22 8.5h36q12 0 19.5 -8.5t5.5 -20.5l-96 -611l-76 -391q-3 -13 -13 -22t-23 -9h-82q-13 0 -20 9t-4 22zM435 948q-22 -112 -112 -112t-68 112t112 112t68 -112z" />
<glyph unicode="&#xa2;" horiz-adv-x="1136" d="M742 1057l29 149q2 12 12.5 21t23.5 9h44q13 0 19.5 -9t4.5 -21l-29 -147q163 -5 277 -49q21 -9 13 -30l-16 -51q-4 -14 -17.5 -21.5t-27.5 -2.5q-107 38 -250 43l-167 -860q157 2 279 46q15 6 26.5 1.5t10.5 -19.5l-4 -53q-2 -25 -26 -34q-134 -50 -308 -53l-29 -146 q-2 -12 -12 -21t-23 -9h-44q-13 0 -20 9t-5 21l30 150q-253 21 -373.5 164.5t-76.5 373.5q45 231 224 376t435 163zM215 518q-35 -181 57 -292t283 -133l165 851q-193 -19 -331 -131.5t-174 -294.5z" />
<glyph unicode="&#xa3;" horiz-adv-x="1328" d="M118 702l8 42q2 13 12.5 21.5t23.5 8.5h158l47 242q80 408 580 408q204 0 350 -64q8 -4 11.5 -13t1.5 -18l-18 -59q-4 -16 -18 -23t-27 -1q-127 57 -314 57q-188 0 -292.5 -67.5t-133.5 -217.5l-47 -244h496q13 0 19.5 -8.5t4.5 -21.5l-8 -42q-2 -13 -12.5 -21.5 t-23.5 -8.5h-496l-33 -172q-24 -123 -72 -217.5t-144 -166.5h963q13 0 20 -8.5t4 -21.5l-11 -56q-2 -13 -12 -21.5t-23 -8.5h-1120q-13 0 -20 8.5t-5 21.5l10 50q6 24 18 33q203 137 248 369l37 190h-158q-13 0 -19.5 8.5t-4.5 21.5z" />
<glyph unicode="&#xa4;" horiz-adv-x="1394" d="M369 664q0 -148 99.5 -249t248.5 -101t248.5 101t99.5 249t-99.5 249t-248.5 101t-248.5 -101t-99.5 -249zM233 664q0 154 98 284l-125 125q-9 8 -9 20.5t9 22.5l49 51q10 10 22.5 10t22.5 -10l123 -125q133 102 294 102t294 -102l123 125q10 10 22.5 10t22.5 -10l49 -51 q9 -10 9 -22.5t-9 -20.5l-125 -125q98 -130 98 -284t-98 -284l125 -125q9 -8 9 -20.5t-9 -22.5l-49 -51q-10 -10 -22.5 -10t-22.5 10l-123 125q-133 -102 -294 -102t-294 102l-123 -125q-10 -10 -22.5 -10t-22.5 10l-49 51q-9 10 -9 22.5t9 20.5l125 125q-98 130 -98 284z " />
<glyph unicode="&#xa5;" horiz-adv-x="1386" d="M629 0h-76q-13 0 -20.5 8.5t-5.5 21.5l57 290h-466q-13 0 -20 8.5t-4 21.5l8 42q2 13 12.5 21.5t23.5 8.5h466l25 132h-466q-13 0 -19.5 8.5t-4.5 21.5l8 42q2 13 12.5 21.5t23.5 8.5h404l-352 696q-7 16 4 32t31 16h84q24 0 35 -24l336 -682l602 682q21 24 45 24h84 q20 0 25 -16t-10 -32l-622 -696h404q13 0 19.5 -8.5t4.5 -21.5l-8 -42q-2 -13 -12.5 -21.5t-23.5 -8.5h-466l-25 -132h466q13 0 19.5 -8.5t4.5 -21.5l-8 -42q-3 -13 -13 -21.5t-23 -8.5h-466l-57 -290q-2 -13 -12.5 -21.5t-23.5 -8.5z" />
<glyph unicode="&#xa6;" horiz-adv-x="566" d="M281 444h64q13 0 22 -9t9 -22v-583q0 -12 -9 -21t-22 -9h-64q-13 0 -22 9t-9 21v583q0 13 9 22t22 9zM281 1376h64q13 0 22 -8.5t9 -21.5v-584q0 -13 -9 -21.5t-22 -8.5h-64q-13 0 -22 8.5t-9 21.5v584q0 13 9 21.5t22 8.5z" />
<glyph unicode="&#xa7;" horiz-adv-x="1136" d="M33 -129q-18 8 -10 33l17 56q4 16 19 23t28 0q141 -71 320 -71q156 0 250.5 46.5t110.5 131.5q14 75 -44 130t-213 90q-186 41 -276 118.5t-68 193.5q19 98 107 169t213 97q-126 38 -179 106.5t-35 159.5q25 127 154 198.5t328 71.5q168 0 313 -55q9 -4 13 -13.5t0 -19.5 l-17 -52q-5 -16 -18.5 -23.5t-26.5 -1.5q-119 53 -287 53q-137 0 -221.5 -43.5t-98.5 -120.5q-13 -65 53 -113t218 -87q182 -47 268 -125t65 -189q-19 -96 -100 -164t-212 -100q245 -70 204 -282q-27 -137 -164.5 -212.5t-355.5 -75.5q-204 0 -355 71zM636 840 q-144 -22 -226 -78t-97 -134q-14 -68 47.5 -122t188.5 -82q143 22 227.5 78t99.5 134q14 70 -46.5 123t-193.5 81z" />
<glyph unicode="&#xa8;" horiz-adv-x="920" d="M348 1192q-44 0 -60 25.5t-5 80.5q10 55 36 80.5t70 25.5t60 -25.5t6 -80.5q-21 -106 -107 -106zM832 1192q-44 0 -60 25.5t-5 80.5q10 55 36 80.5t70 25.5t60 -25.5t6 -80.5q-21 -106 -107 -106z" />
<glyph unicode="&#xa9;" horiz-adv-x="1668" d="M1111 400q9 5 17 0t9 -17l5 -51q2 -20 -13 -27q-100 -43 -237 -43q-185 0 -307.5 120.5t-122.5 313.5t122.5 313.5t307.5 120.5q131 0 233 -41q18 -7 17 -26l-6 -63q-1 -7 -8 -10t-13 0q-93 48 -215 48q-153 0 -242.5 -94.5t-89.5 -247.5t89.5 -247.5t242.5 -94.5 q116 0 211 46zM140 700q0 197 97 363.5t263.5 263.5t363.5 97t363.5 -97t263.5 -263.5t97 -363.5t-97 -363.5t-263.5 -263.5t-363.5 -97t-363.5 97t-263.5 263.5t-97 363.5zM212 700q0 -179 86 -329.5t236 -238.5t330 -88q181 0 331 88t235.5 238.5t85.5 329.5 q0 178 -85.5 328.5t-236 239t-330.5 88.5t-330 -88.5t-236 -239t-86 -328.5z" />
<glyph unicode="&#xaa;" horiz-adv-x="996" d="M262 1026q-26 -135 45 -210.5t191 -75.5q78 0 156.5 31.5t126.5 86.5l66 336q-28 56 -94 88t-143 32q-119 0 -220.5 -76.5t-127.5 -211.5zM747 680l10 54q-56 -46 -134.5 -72t-156.5 -26q-180 0 -273 106.5t-59 283.5t168.5 283.5t315.5 106.5q78 0 146.5 -25t106.5 -71 l10 53q2 12 12.5 20.5t22.5 8.5h67q12 0 18 -8.5t4 -20.5l-134 -693q-2 -12 -12 -20t-22 -8h-67q-12 0 -18.5 8t-4.5 20z" />
<glyph unicode="&#xab;" horiz-adv-x="1070" d="M159 607l7 32q2 12 14 22l428 336q19 14 35 7t12 -28l-7 -39q-5 -17 -19 -29l-366 -285l255 -285q11 -14 8 -29l-8 -39q-4 -21 -23 -28t-32 7l-298 336q-7 10 -6 22zM537 607l7 32q2 12 14 22l428 336q19 14 35 7t12 -28l-7 -39q-5 -17 -19 -29l-366 -285l255 -285 q11 -14 8 -29l-8 -39q-4 -21 -23 -28t-32 7l-298 336q-7 10 -6 22z" />
<glyph unicode="&#xac;" horiz-adv-x="1308" d="M144 798v56q0 13 9 21.5t22 8.5h999q13 0 21.5 -8.5t8.5 -21.5v-502q0 -13 -8.5 -21.5t-21.5 -8.5h-68q-13 0 -21.5 8.5t-8.5 21.5v416h-901q-13 0 -22 8.5t-9 21.5z" />
<glyph unicode="&#xad;" horiz-adv-x="856" d="M710 602h-538q-13 0 -20 8.5t-5 21.5l13 64q2 13 12.5 21.5t23.5 8.5h538q13 0 19.5 -8.5t4.5 -21.5l-13 -64q-2 -13 -12 -21.5t-23 -8.5z" />
<glyph unicode="&#xae;" horiz-adv-x="1668" d="M140 700q0 197 97 363.5t263.5 263.5t363.5 97t363.5 -97t263.5 -263.5t97 -363.5t-97 -363.5t-263.5 -263.5t-363.5 -97t-363.5 97t-263.5 263.5t-97 363.5zM212 700q0 -179 86 -329.5t236 -238.5t330 -88q181 0 331 88t235.5 238.5t85.5 329.5q0 178 -85.5 328.5 t-236 239t-330.5 88.5t-330 -88.5t-236 -239t-86 -328.5zM1076 868q0 156 -220 156h-178v-312h178q110 0 165 40.5t55 115.5zM602 1116h260q150 0 236 -65t86 -183q0 -169 -168 -224l190 -324q10 -16 4 -27t-25 -11h-56q-19 0 -26 15l-191 327q-48 -4 -78 -4h-156v-308 q0 -13 -9 -21.5t-22 -8.5h-45q-13 0 -21.5 8.5t-8.5 21.5v774q0 13 8.5 21.5t21.5 8.5z" />
<glyph unicode="&#xaf;" horiz-adv-x="920" d="M269 1262l11 56q2 13 12.5 21.5t23.5 8.5h604q12 0 19 -8.5t5 -21.5l-11 -56q-2 -13 -13 -21.5t-23 -8.5h-604q-13 0 -19.5 8.5t-4.5 21.5z" />
<glyph unicode="&#xb0;" horiz-adv-x="920" d="M465 852q-123 0 -191 83t-45 203t123.5 203t223.5 83t191.5 -83t45.5 -203t-124 -203t-224 -83zM699 1138q15 79 -26 130.5t-117 51.5t-137 -51.5t-76 -130.5q-16 -79 25 -130.5t117 -51.5t137 51.5t77 130.5z" />
<glyph unicode="&#xb1;" horiz-adv-x="1308" d="M620 342v390h-436q-13 0 -21.5 8.5t-8.5 21.5v54q0 13 8.5 21.5t21.5 8.5h436v390q0 13 9 21.5t21 8.5h68q13 0 21.5 -8.5t8.5 -21.5v-390h435q13 0 22 -8.5t9 -21.5v-54q0 -13 -9 -21.5t-22 -8.5h-435v-390q0 -13 -8.5 -21.5t-21.5 -8.5h-68q-12 0 -21 8.5t-9 21.5z M1183 92h-999q-13 0 -21.5 8.5t-8.5 21.5v54q0 13 8.5 21.5t21.5 8.5h999q13 0 22 -8.5t9 -21.5v-54q0 -13 -9 -21.5t-22 -8.5z" />
<glyph unicode="&#xb2;" horiz-adv-x="880" d="M291 576h443q13 0 20.5 -8.5t5.5 -21.5l-9 -44q-2 -13 -13 -21.5t-24 -8.5h-607q-13 0 -19.5 8.5t-4.5 21.5l10 51q3 18 18 24q277 171 447 321q88 77 132.5 134.5t55.5 113.5q16 83 -38.5 123.5t-165.5 40.5q-126 0 -238 -41q-16 -6 -24 -1.5t-6 19.5l7 57q2 18 18 24 q132 48 276 48q167 0 243 -68.5t51 -195.5q-15 -78 -63.5 -150t-152.5 -160q-171 -148 -362 -266z" />
<glyph unicode="&#xb3;" horiz-adv-x="880" d="M308 1279q-15 -4 -25.5 3t-9.5 21l2 42q1 11 8 20.5t17 12.5q124 38 260 38q169 0 250.5 -60.5t58.5 -177.5q-14 -76 -86.5 -135.5t-185.5 -84.5q116 -27 165.5 -89t31.5 -151q-23 -122 -138.5 -192t-298.5 -70q-139 0 -247 33q-9 2 -14 10.5t-1 18.5l19 61q9 28 42 15 q86 -32 218 -32q130 0 207.5 43.5t90.5 112.5q16 83 -64.5 133t-276.5 53q-12 0 -17.5 9t-3.5 21l8 42q2 12 12.5 21t22.5 9q182 4 281.5 51.5t111.5 114.5q13 67 -43.5 102.5t-171.5 35.5q-123 0 -223 -31z" />
<glyph unicode="&#xb4;" horiz-adv-x="920" d="M438 1136h-69q-8 0 -8 7.5t8 14.5l317 289q14 13 31 13h121q9 0 12.5 -3.5t1 -9.5t-8.5 -11l-365 -286q-18 -14 -40 -14z" />
<glyph unicode="&#xb5;" horiz-adv-x="1304" d="M926 30l15 78q-78 -61 -183.5 -96.5t-213.5 -35.5t-199.5 35.5t-147.5 96.5l-90 -464q-2 -13 -12.5 -21.5t-23.5 -8.5h-76q-13 0 -19.5 8.5t-4.5 21.5l265 1362q2 13 12.5 21.5t23.5 8.5h76q13 0 19.5 -8.5t4.5 -21.5l-152 -780q51 -61 144 -97.5t202 -36.5t217 36.5 t181 97.5l152 780q2 13 13 21.5t24 8.5h75q13 0 19.5 -8.5t4.5 -21.5l-190 -976q-2 -13 -12 -21.5t-23 -8.5h-75q-13 0 -20.5 8.5t-5.5 21.5z" />
<glyph unicode="&#xb6;" horiz-adv-x="1080" d="M613 620h-60q-130 0 -231.5 41t-164.5 131t-63 218q0 98 36.5 174t100 122.5t145 70t177.5 23.5h362q13 0 21.5 -9t8.5 -22v-1601q0 -13 -8.5 -21.5t-21.5 -8.5h-52q-13 0 -21.5 8.5t-8.5 21.5v1524h-106v-1524q0 -13 -8.5 -21.5t-21.5 -8.5h-53q-13 0 -22 8.5t-9 21.5 v852z" />
<glyph unicode="&#xb7;" horiz-adv-x="660" d="M447 662q-22 -112 -112 -112t-68 112t112 112t68 -112z" />
<glyph unicode="&#xb8;" horiz-adv-x="920" d="M69 -438l7 32q5 31 40 26q40 -6 82 -6q82 0 131.5 25.5t58.5 70.5q9 44 -33 73t-139 40q-18 2 -22.5 16.5t8.5 30.5l94 109q19 21 44 21h49q20 0 25 -15t-10 -32l-65 -73q99 -15 138.5 -65t25.5 -120q-15 -80 -96.5 -125.5t-222.5 -45.5q-50 0 -95 8q-24 3 -20 30z" />
<glyph unicode="&#xb9;" horiz-adv-x="880" d="M317 1239l273 149q26 14 51 14h48q13 0 19.5 -9t4.5 -22l-169 -869q-2 -13 -12.5 -21.5t-23.5 -8.5h-60q-13 0 -19.5 8.5t-4.5 21.5l148 763l-213 -116q-29 -14 -38 4l-20 41q-15 28 16 45z" />
<glyph unicode="&#xba;" horiz-adv-x="996" d="M1013 1026q-34 -172 -171.5 -281t-320.5 -109t-278.5 109t-61.5 281t171.5 281t320.5 109t278.5 -109t61.5 -281zM889 1026q26 135 -41 212.5t-195 77.5t-225 -77.5t-123 -212.5t41 -212.5t195 -77.5t225 77.5t123 212.5z" />
<glyph unicode="&#xbb;" horiz-adv-x="1070" d="M941 639l-7 -32q-2 -12 -14 -22l-428 -336q-19 -14 -35 -7t-12 28l8 39q3 17 18 29l367 285l-256 285q-11 14 -7 29l7 39q4 21 23 28t32 -7l298 -336q8 -10 6 -22zM563 639l-7 -32q-2 -12 -14 -22l-428 -336q-19 -14 -35 -7t-12 28l8 39q3 17 18 29l367 285l-256 285 q-11 14 -7 29l7 39q4 21 23 28t32 -7l298 -336q7 -10 6 -22z" />
<glyph unicode="&#xbc;" horiz-adv-x="2200" d="M1104 234l6 32q7 33 29 53l626 594q15 15 39 15h63q13 0 19.5 -9t4.5 -22l-115 -593h102q13 0 19.5 -8.5t4.5 -21.5l-8 -40q-2 -13 -12.5 -21.5t-23.5 -8.5h-102l-34 -174q-2 -13 -12 -21.5t-23 -8.5h-60q-12 0 -19.5 8.5t-5.5 21.5l34 174h-508q-13 0 -19.5 8.5 t-4.5 21.5zM1747 776l-495 -472h404zM351 10l1160 1381q32 39 62 39h48q19 0 22 -12t-11 -28l-1160 -1381q-32 -39 -62 -39h-48q-19 0 -22 12t11 28zM317 1239l273 149q26 14 51 14h48q13 0 19.5 -9t4.5 -22l-169 -869q-2 -13 -12.5 -21.5t-23.5 -8.5h-60q-13 0 -19.5 8.5 t-4.5 21.5l148 763l-213 -116q-29 -14 -38 4l-20 41q-15 28 16 45z" />
<glyph unicode="&#xbd;" horiz-adv-x="2200" d="M1453 104h443q13 0 20 -8.5t5 -21.5l-9 -44q-2 -13 -12.5 -21.5t-23.5 -8.5h-607q-13 0 -20 8.5t-5 21.5l10 51q3 18 18 24q277 171 447 321q89 77 133.5 134.5t55.5 113.5q16 83 -39 123.5t-166 40.5q-124 0 -238 -41q-16 -6 -24 -1.5t-6 19.5l7 57q2 18 19 24 q131 48 275 48q167 0 243.5 -68.5t51.5 -195.5q-16 -79 -64.5 -150.5t-152.5 -159.5q-174 -151 -361 -266zM351 10l1160 1381q32 39 62 39h48q19 0 22 -12t-11 -28l-1160 -1381q-32 -39 -62 -39h-48q-19 0 -22 12t11 28zM317 1239l273 149q26 14 51 14h48q13 0 19.5 -9 t4.5 -22l-169 -869q-2 -13 -12.5 -21.5t-23.5 -8.5h-60q-13 0 -19.5 8.5t-4.5 21.5l148 763l-213 -116q-29 -14 -38 4l-20 41q-15 28 16 45z" />
<glyph unicode="&#xbe;" horiz-adv-x="2200" d="M1196 234l6 32q7 33 29 53l626 594q15 15 39 15h63q13 0 19.5 -9t4.5 -22l-115 -593h102q13 0 19.5 -8.5t4.5 -21.5l-8 -40q-2 -13 -12.5 -21.5t-23.5 -8.5h-102l-34 -174q-2 -13 -12 -21.5t-23 -8.5h-60q-12 0 -19.5 8.5t-5.5 21.5l34 174h-508q-13 0 -19.5 8.5 t-4.5 21.5zM1839 776l-495 -472h404zM491 10l1160 1381q32 39 62 39h48q19 0 22 -12t-11 -28l-1160 -1381q-32 -39 -62 -39h-48q-19 0 -22 12t11 28zM308 1279q-15 -4 -25.5 3t-9.5 21l2 42q1 11 8 20.5t17 12.5q124 38 260 38q169 0 250.5 -60.5t58.5 -177.5 q-14 -76 -86.5 -135.5t-185.5 -84.5q116 -27 165.5 -89t31.5 -151q-23 -122 -138.5 -192t-298.5 -70q-139 0 -247 33q-9 2 -14 10.5t-1 18.5l19 61q9 28 42 15q86 -32 218 -32q130 0 207.5 43.5t90.5 112.5q16 83 -64.5 133t-276.5 53q-12 0 -17.5 9t-3.5 21l8 42 q2 12 12.5 21t22.5 9q182 4 281.5 51.5t111.5 114.5q13 67 -43.5 102.5t-171.5 35.5q-123 0 -223 -31z" />
<glyph unicode="&#xbf;" horiz-adv-x="1180" d="M639 638l3 20q3 13 13 21.5t23 8.5h76q13 0 20 -8.5t4 -21.5l-5 -28q-27 -137 -92.5 -227t-198.5 -161q-153 -81 -219.5 -147.5t-82.5 -150.5q-20 -101 68 -153.5t288 -52.5q181 0 350 62q16 6 27 -1.5t10 -23.5l-7 -68q-4 -22 -25 -30q-183 -65 -388 -65 q-264 0 -383.5 85.5t-87.5 248.5q41 214 362 382q117 61 170.5 131.5t74.5 178.5zM679 948q22 112 112 112t68 -112t-112 -112t-68 112z" />
<glyph unicode="&#xc0;" horiz-adv-x="1490" d="M298 382h814l90 -344q10 -38 51 -38h61q18 0 29 14t7 30l-361 1330q-7 26 -34 26h-104q-28 0 -44 -26l-879 -1330q-10 -16 -4 -30t24 -14h61q41 0 65 38zM1080 498h-706l503 770zM1049 1524h-69q-22 0 -35 14l-253 286q-7 8 -3 16t17 8h121q17 0 26 -13l205 -289 q5 -7 2 -14.5t-11 -7.5z" />
<glyph unicode="&#xc1;" horiz-adv-x="1490" d="M1112 382h-814l-224 -344q-24 -38 -65 -38h-61q-18 0 -24 14t4 30l879 1330q16 26 44 26h104q27 0 34 -26l361 -1330q4 -16 -7 -30t-29 -14h-61q-41 0 -51 38zM374 498h706l-203 770zM874 1524h-69q-8 0 -8.5 7.5t7.5 14.5l317 289q14 13 32 13h121q9 0 12 -3.5t1 -9 t-9 -11.5l-365 -286q-18 -14 -39 -14z" />
<glyph unicode="&#xc2;" horiz-adv-x="1490" d="M1112 382h-814l-224 -344q-24 -38 -65 -38h-61q-18 0 -24 14t4 30l879 1330q16 26 44 26h104q27 0 34 -26l361 -1330q4 -16 -7 -30t-29 -14h-61q-41 0 -51 38zM374 498h706l-203 770zM943 1848h92q19 0 30 -15l188 -284q7 -11 3 -22t-18 -11h-78q-22 0 -33 18l-154 234 l-244 -234q-18 -18 -41 -18h-78q-10 0 -12.5 5t0.5 12.5t11 15.5l298 284q15 15 36 15z" />
<glyph unicode="&#xc3;" horiz-adv-x="1490" d="M298 382h814l90 -344q10 -38 51 -38h61q18 0 29 14t7 30l-361 1330q-7 26 -34 26h-104q-28 0 -44 -26l-879 -1330q-10 -16 -4 -30t24 -14h61q41 0 65 38zM1080 498h-706l503 770zM913 1646q-23 31 -44.5 47.5t-48.5 16.5q-80 0 -114 -135q-3 -12 -13 -20.5t-22 -8.5h-60 q-13 0 -20 8.5t-4 21.5q31 128 94 186t144 58q62 0 101 -28t73 -76q48 -64 94 -64q80 0 114 135q3 12 12.5 20.5t21.5 8.5h60q14 0 21 -8.5t4 -21.5q-32 -128 -95 -186t-144 -58q-43 0 -78.5 17.5t-54 36.5t-41.5 50z" />
<glyph unicode="&#xc4;" horiz-adv-x="1490" d="M298 382h814l90 -344q10 -38 51 -38h61q18 0 29 14t7 30l-361 1330q-7 26 -34 26h-104q-28 0 -44 -26l-879 -1330q-10 -16 -4 -30t24 -14h61q41 0 65 38zM1080 498h-706l503 770zM695 1580q-44 0 -60 25.5t-6 80.5q21 106 107 106q44 0 60 -25.5t5 -80.5 q-10 -55 -36 -80.5t-70 -25.5zM1179 1580q-44 0 -60 25.5t-6 80.5q21 106 107 106q44 0 60 -25.5t5 -80.5q-10 -55 -36 -80.5t-70 -25.5z" />
<glyph unicode="&#xc5;" horiz-adv-x="1490" d="M298 382h814l90 -344q10 -38 51 -38h61q18 0 29 14t7 30l-361 1330q-7 26 -34 26h-104q-28 0 -44 -26l-879 -1330q-10 -16 -4 -30t24 -14h61q41 0 65 38zM1080 498h-706l503 770zM913 1456q-97 0 -152 65.5t-37 160.5q19 95 99 160.5t177 65.5t152 -65.5t36 -160.5 q-18 -95 -98 -160.5t-177 -65.5zM982 1816q-56 0 -102 -38t-58 -96q-11 -58 20.5 -96t87.5 -38t102.5 38t57.5 96q12 58 -20 96t-88 38z" />
<glyph unicode="&#xc6;" horiz-adv-x="1986" d="M959 384h-573l-307 -366q-15 -18 -36 -18h-101q-16 0 -20.5 12t6.5 26l1120 1339q20 23 57 23h908q10 0 15.5 -7t3.5 -17l-13 -67q-2 -11 -10.5 -18t-18.5 -7h-716l-98 -504h655q10 0 16 -7t4 -17l-13 -67q-1 -10 -9.5 -17.5t-19.5 -7.5h-655l-107 -548h736 q10 0 15.5 -7.5t3.5 -17.5l-13 -67q-1 -10 -9.5 -17t-18.5 -7h-852q-10 0 -16 7t-4 17zM1134 1281l-652 -781h500z" />
<glyph unicode="&#xc7;" horiz-adv-x="1384" d="M1181 22q-158 -46 -353 -46h-10l-85 -96q99 -15 138.5 -65t25.5 -120q-15 -80 -96.5 -125.5t-222.5 -45.5q-50 0 -95 8q-24 3 -20 30l7 32q5 31 40 26q40 -6 82 -6q82 0 131.5 25.5t58.5 70.5q9 44 -33 73t-139 40q-18 2 -22.5 16.5t8.5 30.5l97 113q-324 34 -472.5 224 t-89.5 493q64 330 325 527t647 197q203 0 333 -45q21 -8 15 -33l-19 -63q-4 -16 -17.5 -22t-27.5 -1q-122 44 -299 44q-325 0 -544.5 -164.5t-272.5 -439.5q-55 -280 102.5 -442t483.5 -162q175 0 320 47q18 6 28 -0.5t9 -22.5l-6 -65q-1 -25 -27 -33z" />
<glyph unicode="&#xc8;" horiz-adv-x="1268" d="M68 31l260 1338q2 13 13 22t24 9h938q13 0 20 -9t5 -22l-11 -54q-2 -13 -13 -22t-24 -9h-833l-98 -504h787q13 0 20.5 -8.5t4.5 -21.5l-11 -56q-2 -13 -12.5 -21.5t-23.5 -8.5h-787l-107 -548h853q13 0 20 -9t5 -22l-10 -54q-3 -13 -13.5 -22t-23.5 -9h-958 q-13 0 -20.5 9t-4.5 22zM1009 1524h-69q-22 0 -35 14l-253 286q-7 8 -3 16t17 8h121q17 0 26 -13l205 -289q5 -7 2 -14.5t-11 -7.5z" />
<glyph unicode="&#xc9;" horiz-adv-x="1268" d="M68 31l260 1338q2 13 13 22t24 9h938q13 0 20 -9t5 -22l-11 -54q-2 -13 -13 -22t-24 -9h-833l-98 -504h787q13 0 20.5 -8.5t4.5 -21.5l-11 -56q-2 -13 -12.5 -21.5t-23.5 -8.5h-787l-107 -548h853q13 0 20 -9t5 -22l-10 -54q-3 -13 -13.5 -22t-23.5 -9h-958 q-13 0 -20.5 9t-4.5 22zM782 1524h-69q-8 0 -8.5 7.5t7.5 14.5l317 289q14 13 32 13h121q9 0 12 -3.5t1 -9t-9 -11.5l-365 -286q-18 -14 -39 -14z" />
<glyph unicode="&#xca;" horiz-adv-x="1268" d="M68 31l260 1338q2 13 13 22t24 9h938q13 0 20 -9t5 -22l-11 -54q-2 -13 -13 -22t-24 -9h-833l-98 -504h787q13 0 20.5 -8.5t4.5 -21.5l-11 -56q-2 -13 -12.5 -21.5t-23.5 -8.5h-787l-107 -548h853q13 0 20 -9t5 -22l-10 -54q-3 -13 -13.5 -22t-23.5 -9h-958 q-13 0 -20.5 9t-4.5 22zM877 1848h92q19 0 30 -15l188 -284q7 -11 3 -22t-18 -11h-78q-22 0 -33 18l-154 234l-244 -234q-18 -18 -41 -18h-78q-10 0 -12.5 5t0.5 12.5t11 15.5l298 284q15 15 36 15z" />
<glyph unicode="&#xcb;" horiz-adv-x="1268" d="M68 31l260 1338q2 13 13 22t24 9h938q13 0 20 -9t5 -22l-11 -54q-2 -13 -13 -22t-24 -9h-833l-98 -504h787q13 0 20.5 -8.5t4.5 -21.5l-11 -56q-2 -13 -12.5 -21.5t-23.5 -8.5h-787l-107 -548h853q13 0 20 -9t5 -22l-10 -54q-3 -13 -13.5 -22t-23.5 -9h-958 q-13 0 -20.5 9t-4.5 22zM627 1580q-44 0 -60 25.5t-6 80.5q21 106 107 106q44 0 60 -25.5t5 -80.5q-10 -55 -36 -80.5t-70 -25.5zM1111 1580q-44 0 -60 25.5t-6 80.5q21 106 107 106q44 0 60 -25.5t5 -80.5q-10 -55 -36 -80.5t-70 -25.5z" />
<glyph unicode="&#xcc;" horiz-adv-x="484" d="M374 1400h76q13 0 19.5 -8.5t4.5 -22.5l-260 -1338q-3 -14 -13 -22.5t-23 -8.5h-76q-13 0 -20 9t-4 22l260 1338q2 13 12.5 22t23.5 9zM499 1524h-69q-22 0 -35 14l-253 286q-7 8 -3 16t17 8h121q17 0 26 -13l205 -289q5 -7 2 -14.5t-11 -7.5z" />
<glyph unicode="&#xcd;" horiz-adv-x="484" d="M374 1400h76q13 0 19.5 -8.5t4.5 -22.5l-260 -1338q-3 -14 -13 -22.5t-23 -8.5h-76q-13 0 -20 9t-4 22l260 1338q2 13 12.5 22t23.5 9zM442 1524h-69q-8 0 -8.5 7.5t7.5 14.5l317 289q14 13 32 13h121q9 0 12 -3.5t1 -9t-9 -11.5l-365 -286q-18 -14 -39 -14z" />
<glyph unicode="&#xce;" horiz-adv-x="484" d="M374 1400h76q13 0 19.5 -8.5t4.5 -22.5l-260 -1338q-3 -14 -13 -22.5t-23 -8.5h-76q-13 0 -20 9t-4 22l260 1338q2 13 12.5 22t23.5 9zM453 1848h92q19 0 30 -15l188 -284q7 -11 3 -22t-18 -11h-78q-22 0 -33 18l-154 234l-244 -234q-18 -18 -41 -18h-78q-10 0 -12.5 5 t0.5 12.5t11 15.5l298 284q15 15 36 15z" />
<glyph unicode="&#xcf;" horiz-adv-x="484" d="M374 1400h76q13 0 19.5 -8.5t4.5 -22.5l-260 -1338q-3 -14 -13 -22.5t-23 -8.5h-76q-13 0 -20 9t-4 22l260 1338q2 13 12.5 22t23.5 9zM205 1580q-44 0 -60 25.5t-6 80.5q21 106 107 106q44 0 60 -25.5t5 -80.5q-10 -55 -36 -80.5t-70 -25.5zM689 1580q-44 0 -60 25.5 t-6 80.5q21 106 107 106q44 0 60 -25.5t5 -80.5q-10 -55 -36 -80.5t-70 -25.5z" />
<glyph unicode="&#xd0;" horiz-adv-x="1544" d="M444 0h-343q-13 0 -20.5 9t-4.5 22l119 615h-147q-13 0 -20 9t-5 22l9 46q2 13 13 22t24 9h147l120 615q2 13 13 22t24 9h343q204 0 360.5 -45t258.5 -131.5t141 -220t6 -303.5q-45 -227 -189.5 -386.5t-360 -236.5t-488.5 -77zM1342 700q56 293 -121.5 438.5 t-547.5 145.5h-218l-103 -530h401q13 0 20 -9t5 -22l-9 -46q-2 -13 -13 -22t-24 -9h-401l-103 -530h218q244 0 428.5 61.5t306.5 193.5t161 329z" />
<glyph unicode="&#xd1;" horiz-adv-x="1570" d="M1119 26l-684 1196l-231 -1191q-3 -13 -13.5 -22t-23.5 -9h-75q-13 0 -20 9t-4 22l260 1338q2 13 12.5 22t23.5 9h107q33 0 48 -26l683 -1196l232 1191q2 13 13 22t24 9h75q13 0 19.5 -8.5t4.5 -22.5l-260 -1338q-3 -14 -13 -22.5t-23 -8.5h-107q-35 0 -48 26zM967 1646 q-23 31 -44.5 47.5t-48.5 16.5q-80 0 -114 -135q-3 -12 -13 -20.5t-22 -8.5h-60q-13 0 -20 8.5t-4 21.5q31 128 94 186t144 58q62 0 101 -28t73 -76q48 -64 94 -64q80 0 114 135q3 12 12.5 20.5t21.5 8.5h60q14 0 21 -8.5t4 -21.5q-32 -128 -95 -186t-144 -58 q-43 0 -78.5 17.5t-54 36.5t-41.5 50z" />
<glyph unicode="&#xd2;" horiz-adv-x="1634" d="M1576 700q-30 -153 -106 -285.5t-186.5 -229.5t-258.5 -153t-312 -56q-111 0 -205 25.5t-164 71.5t-121.5 112t-77 146t-31.5 173.5t16 195.5q30 153 106 285.5t186.5 229.5t258.5 153t313 56q110 0 204 -25.5t163.5 -71.5t121 -112t77 -146t32 -173.5t-15.5 -195.5z M270 700q-53 -270 73 -437t393 -167t457 167t243 437q52 270 -73 437t-392 167t-458 -167t-243 -437zM1179 1524h-69q-22 0 -35 14l-253 286q-7 8 -3 16t17 8h121q17 0 26 -13l205 -289q5 -7 2 -14.5t-11 -7.5z" />
<glyph unicode="&#xd3;" horiz-adv-x="1634" d="M1576 700q-30 -153 -106 -285.5t-186.5 -229.5t-258.5 -153t-312 -56q-111 0 -205 25.5t-164 71.5t-121.5 112t-77 146t-31.5 173.5t16 195.5q30 153 106 285.5t186.5 229.5t258.5 153t313 56q110 0 204 -25.5t163.5 -71.5t121 -112t77 -146t32 -173.5t-15.5 -195.5z M270 700q-53 -270 73 -437t393 -167t457 167t243 437q52 270 -73 437t-392 167t-458 -167t-243 -437zM932 1524h-69q-8 0 -8.5 7.5t7.5 14.5l317 289q14 13 32 13h121q9 0 12 -3.5t1 -9t-9 -11.5l-365 -286q-18 -14 -39 -14z" />
<glyph unicode="&#xd4;" horiz-adv-x="1634" d="M1576 700q-30 -153 -106 -285.5t-186.5 -229.5t-258.5 -153t-312 -56q-111 0 -205 25.5t-164 71.5t-121.5 112t-77 146t-31.5 173.5t16 195.5q30 153 106 285.5t186.5 229.5t258.5 153t313 56q110 0 204 -25.5t163.5 -71.5t121 -112t77 -146t32 -173.5t-15.5 -195.5z M270 700q-53 -270 73 -437t393 -167t457 167t243 437q52 270 -73 437t-392 167t-458 -167t-243 -437zM1029 1848h92q19 0 30 -15l188 -284q7 -11 3 -22t-18 -11h-78q-22 0 -33 18l-154 234l-244 -234q-18 -18 -41 -18h-78q-10 0 -12.5 5t0.5 12.5t11 15.5l298 284 q15 15 36 15z" />
<glyph unicode="&#xd5;" horiz-adv-x="1634" d="M1576 700q-30 -153 -106 -285.5t-186.5 -229.5t-258.5 -153t-312 -56q-111 0 -205 25.5t-164 71.5t-121.5 112t-77 146t-31.5 173.5t16 195.5q30 153 106 285.5t186.5 229.5t258.5 153t313 56q110 0 204 -25.5t163.5 -71.5t121 -112t77 -146t32 -173.5t-15.5 -195.5z M270 700q-53 -270 73 -437t393 -167t457 167t243 437q52 270 -73 437t-392 167t-458 -167t-243 -437zM999 1646q-23 31 -44.5 47.5t-48.5 16.5q-80 0 -114 -135q-3 -12 -13 -20.5t-22 -8.5h-60q-13 0 -20 8.5t-4 21.5q31 128 94 186t144 58q62 0 101 -28t73 -76 q48 -64 94 -64q80 0 114 135q3 12 12.5 20.5t21.5 8.5h60q14 0 21 -8.5t4 -21.5q-32 -128 -95 -186t-144 -58q-43 0 -78.5 17.5t-54 36.5t-41.5 50z" />
<glyph unicode="&#xd6;" horiz-adv-x="1634" d="M1576 700q-30 -153 -106 -285.5t-186.5 -229.5t-258.5 -153t-312 -56q-111 0 -205 25.5t-164 71.5t-121.5 112t-77 146t-31.5 173.5t16 195.5q30 153 106 285.5t186.5 229.5t258.5 153t313 56q110 0 204 -25.5t163.5 -71.5t121 -112t77 -146t32 -173.5t-15.5 -195.5z M270 700q-53 -270 73 -437t393 -167t457 167t243 437q52 270 -73 437t-392 167t-458 -167t-243 -437zM781 1580q-44 0 -60 25.5t-6 80.5q21 106 107 106q44 0 60 -25.5t5 -80.5q-10 -55 -36 -80.5t-70 -25.5zM1265 1580q-44 0 -60 25.5t-6 80.5q21 106 107 106 q44 0 60 -25.5t5 -80.5q-10 -55 -36 -80.5t-70 -25.5z" />
<glyph unicode="&#xd7;" horiz-adv-x="1308" d="M674 588l-347 -313q-8 -8 -21 -8t-21 8l-40 40q-9 9 -8.5 22.5t10.5 21.5l340 307l-341 308q-10 8 -10.5 21.5t8.5 22.5l40 40q8 8 21 8t21 -8l348 -314l348 314q8 8 21 8t21 -8l40 -40q9 -9 8.5 -22.5t-10.5 -21.5l-342 -308l341 -307q10 -8 10.5 -21.5t-8.5 -22.5 l-40 -40q-8 -8 -21 -8t-21 8z" />
<glyph unicode="&#xd8;" horiz-adv-x="1634" d="M1552 700q-30 -153 -106 -285.5t-186.5 -229.5t-258.5 -153t-312 -56q-208 0 -352 87l-213 -243q-18 -20 -49 -20h-40q-20 0 -25 16t9 32l239 272q-109 98 -148 248.5t-4 331.5q30 153 106 285.5t186.5 229.5t258.5 153t313 56q208 0 355 -90l217 246q17 20 49 20h40 q20 0 24.5 -16t-9.5 -32l-244 -277q107 -98 145.5 -247.5t4.5 -327.5zM246 700q-29 -151 -2 -272t107 -202l884 1005q-118 73 -288 73q-267 0 -458 -167t-243 -437zM1412 700q28 149 2 269t-104 201l-882 -1004q117 -70 284 -70q267 0 457 167t243 437z" />
<glyph unicode="&#xd9;" horiz-adv-x="1604" d="M696 -24q139 0 260.5 34.5t221 102.5t169 177.5t97.5 251.5l161 827q2 13 -5 22t-20 9h-78q-13 0 -24 -9t-13 -22l-158 -812q-44 -226 -197 -343.5t-391 -117.5t-345 117.5t-63 343.5l158 812q2 13 -5 22t-20 9h-78q-13 0 -24 -9t-13 -22l-161 -827q-26 -146 -0.5 -252.5 t99.5 -176t182 -103.5t247 -34zM1106 1524h-69q-22 0 -35 14l-253 286q-7 8 -3 16t17 8h121q17 0 26 -13l205 -289q5 -7 2 -14.5t-11 -7.5z" />
<glyph unicode="&#xda;" horiz-adv-x="1604" d="M696 -24q-139 0 -247 34t-182 103.5t-99.5 176t0.5 252.5l161 827q2 13 13 22t24 9h78q13 0 20 -9t5 -22l-158 -812q-44 -226 63 -343.5t345 -117.5t391 117.5t197 343.5l158 812q2 13 13 22t24 9h78q13 0 20 -9t5 -22l-161 -827q-28 -142 -97.5 -251.5t-169 -177.5 t-221 -102.5t-260.5 -34.5zM975 1524h-69q-8 0 -8.5 7.5t7.5 14.5l317 289q14 13 32 13h121q9 0 12 -3.5t1 -9t-9 -11.5l-365 -286q-18 -14 -39 -14z" />
<glyph unicode="&#xdb;" horiz-adv-x="1604" d="M696 -24q-139 0 -247 34t-182 103.5t-99.5 176t0.5 252.5l161 827q2 13 13 22t24 9h78q13 0 20 -9t5 -22l-158 -812q-44 -226 63 -343.5t345 -117.5t391 117.5t197 343.5l158 812q2 13 13 22t24 9h78q13 0 20 -9t5 -22l-161 -827q-28 -142 -97.5 -251.5t-169 -177.5 t-221 -102.5t-260.5 -34.5zM1014 1848h92q19 0 30 -15l188 -284q7 -11 3 -22t-18 -11h-78q-22 0 -33 18l-154 234l-244 -234q-18 -18 -41 -18h-78q-10 0 -12.5 5t0.5 12.5t11 15.5l298 284q15 15 36 15z" />
<glyph unicode="&#xdc;" horiz-adv-x="1604" d="M696 -24q139 0 260.5 34.5t221 102.5t169 177.5t97.5 251.5l161 827q2 13 -5 22t-20 9h-78q-13 0 -24 -9t-13 -22l-158 -812q-44 -226 -197 -343.5t-391 -117.5t-345 117.5t-63 343.5l158 812q2 13 -5 22t-20 9h-78q-13 0 -24 -9t-13 -22l-161 -827q-26 -146 -0.5 -252.5 t99.5 -176t182 -103.5t247 -34zM766 1580q-44 0 -60 25.5t-6 80.5q21 106 107 106q44 0 60 -25.5t5 -80.5q-10 -55 -36 -80.5t-70 -25.5zM1250 1580q-44 0 -60 25.5t-6 80.5q21 106 107 106q44 0 60 -25.5t5 -80.5q-10 -55 -36 -80.5t-70 -25.5z" />
<glyph unicode="&#xdd;" horiz-adv-x="1532" d="M690 0h-78q-13 0 -20.5 9t-4.5 22l102 525l-460 795q-10 16 2 32.5t32 16.5h61q44 0 66 -36l393 -683l659 683q34 36 80 36h61q20 0 25 -16t-11 -33l-768 -795l-102 -525q-3 -13 -13.5 -22t-23.5 -9zM895 1524h-69q-8 0 -8.5 7.5t7.5 14.5l317 289q14 13 32 13h121 q9 0 12 -3.5t1 -9t-9 -11.5l-365 -286q-18 -14 -39 -14z" />
<glyph unicode="&#xde;" horiz-adv-x="1318" d="M1280 710q-41 -207 -225 -318.5t-473 -111.5h-330l-48 -249q-3 -13 -13.5 -22t-23.5 -9h-74q-14 0 -21 9t-4 22l260 1338q2 13 12.5 22t24.5 9h74q13 0 20 -9t5 -22l-45 -231h330q289 0 429.5 -111t101.5 -317zM1140 710q30 154 -81.5 233t-344.5 79h-318l-122 -626h318 q233 0 375.5 79.5t172.5 234.5z" />
<glyph unicode="&#xdf;" horiz-adv-x="1260" d="M626 669q-12 0 -20.5 9.5t-5.5 21.5l11 60q2 12 13 21.5t23 9.5q175 0 290.5 73t139.5 194q21 108 -57.5 177t-222.5 69q-165 0 -273 -88.5t-141 -261.5l-180 -924q-2 -13 -12 -21.5t-23 -8.5h-76q-13 0 -20 8.5t-5 21.5l178 912q46 238 192.5 360t386.5 122 q203 0 314 -101t80 -261q-24 -123 -120.5 -208t-243.5 -120q160 -36 239 -132.5t50 -241.5q-35 -181 -178.5 -282.5t-377.5 -101.5q-140 0 -251 44q-8 3 -12.5 13t-0.5 19l20 64q5 17 19.5 24.5t27.5 0.5q96 -45 222 -45q163 0 266 74t125 190q26 133 -74 217.5t-303 91.5z " />
<glyph unicode="&#xe0;" horiz-adv-x="1300" d="M216 518q-39 -202 67 -316t302 -114q218 0 388 144l111 572q-55 70 -141.5 107t-190.5 37q-128 0 -238.5 -48.5t-191 -147.5t-106.5 -234zM933 28l14 74q-196 -126 -412 -126q-120 0 -215.5 37t-155.5 107t-82.5 170.5t2.5 227.5q49 249 232.5 395.5t429.5 146.5 q215 0 363 -126l14 74q7 28 34 28h72q12 0 18.5 -8t3.5 -20l-190 -980q-2 -12 -11.5 -20t-21.5 -8h-72q-12 0 -18.5 8t-4.5 20zM933 1176h-69q-21 0 -34 14l-254 286q-7 8 -3 16t17 8h121q17 0 27 -13l204 -289q5 -7 2 -14.5t-11 -7.5z" />
<glyph unicode="&#xe1;" horiz-adv-x="1300" d="M216 518q-39 -202 67 -316t302 -114q218 0 388 144l111 572q-55 70 -141.5 107t-190.5 37q-128 0 -238.5 -48.5t-191 -147.5t-106.5 -234zM933 28l14 74q-196 -126 -412 -126q-120 0 -215.5 37t-155.5 107t-82.5 170.5t2.5 227.5q49 249 232.5 395.5t429.5 146.5 q215 0 363 -126l14 74q7 28 34 28h72q12 0 18.5 -8t3.5 -20l-190 -980q-2 -12 -11.5 -20t-21.5 -8h-72q-12 0 -18.5 8t-4.5 20zM728 1176h-69q-8 0 -8 7.5t7 14.5l318 289q13 13 31 13h121q13 0 14 -8t-10 -16l-364 -286q-18 -14 -40 -14z" />
<glyph unicode="&#xe2;" horiz-adv-x="1300" d="M216 518q-39 -202 67 -316t302 -114q218 0 388 144l111 572q-55 70 -141.5 107t-190.5 37q-128 0 -238.5 -48.5t-191 -147.5t-106.5 -234zM933 28l14 74q-196 -126 -412 -126q-120 0 -215.5 37t-155.5 107t-82.5 170.5t2.5 227.5q49 249 232.5 395.5t429.5 146.5 q215 0 363 -126l14 74q7 28 34 28h72q12 0 18.5 -8t3.5 -20l-190 -980q-2 -12 -11.5 -20t-21.5 -8h-72q-12 0 -18.5 8t-4.5 20zM813 1500h92q21 0 30 -15l188 -284q7 -11 3.5 -22t-17.5 -11h-78q-23 0 -34 18l-153 234l-245 -234q-18 -18 -40 -18h-78q-10 0 -13 5t0 12.5 t11 15.5l298 284q17 15 36 15z" />
<glyph unicode="&#xe3;" horiz-adv-x="1300" d="M216 518q-39 -202 67 -316t302 -114q218 0 388 144l111 572q-55 70 -141.5 107t-190.5 37q-128 0 -238.5 -48.5t-191 -147.5t-106.5 -234zM933 28l14 74q-196 -126 -412 -126q-120 0 -215.5 37t-155.5 107t-82.5 170.5t2.5 227.5q49 249 232.5 395.5t429.5 146.5 q215 0 363 -126l14 74q7 28 34 28h72q12 0 18.5 -8t3.5 -20l-190 -980q-2 -12 -11.5 -20t-21.5 -8h-72q-12 0 -18.5 8t-4.5 20zM783 1296q-23 31 -44.5 47.5t-48.5 16.5q-80 0 -114 -135q-3 -12 -13 -20.5t-22 -8.5h-60q-13 0 -20 8.5t-4 21.5q31 128 94 186t144 58 q62 0 101 -28t73 -76q48 -64 94 -64q80 0 114 135q3 12 12.5 20.5t21.5 8.5h60q14 0 21 -8.5t4 -21.5q-32 -128 -95 -186t-144 -58q-43 0 -78.5 17.5t-54 36.5t-41.5 50z" />
<glyph unicode="&#xe4;" horiz-adv-x="1300" d="M216 518q-39 -202 67 -316t302 -114q218 0 388 144l111 572q-55 70 -141.5 107t-190.5 37q-128 0 -238.5 -48.5t-191 -147.5t-106.5 -234zM933 28l14 74q-196 -126 -412 -126q-120 0 -215.5 37t-155.5 107t-82.5 170.5t2.5 227.5q49 249 232.5 395.5t429.5 146.5 q215 0 363 -126l14 74q7 28 34 28h72q12 0 18.5 -8t3.5 -20l-190 -980q-2 -12 -11.5 -20t-21.5 -8h-72q-12 0 -18.5 8t-4.5 20zM565 1232q-44 0 -60 25.5t-5 80.5q10 55 36 80.5t70 25.5t60 -25.5t6 -80.5q-21 -106 -107 -106zM1049 1232q-44 0 -60 25.5t-5 80.5 q10 55 36 80.5t70 25.5t60 -25.5t6 -80.5q-21 -106 -107 -106z" />
<glyph unicode="&#xe5;" horiz-adv-x="1300" d="M216 518q-39 -202 67 -316t302 -114q218 0 388 144l111 572q-55 70 -141.5 107t-190.5 37q-128 0 -238.5 -48.5t-191 -147.5t-106.5 -234zM933 28l14 74q-196 -126 -412 -126q-120 0 -215.5 37t-155.5 107t-82.5 170.5t2.5 227.5q49 249 232.5 395.5t429.5 146.5 q215 0 363 -126l14 74q7 28 34 28h72q12 0 18.5 -8t3.5 -20l-190 -980q-2 -12 -11.5 -20t-21.5 -8h-72q-12 0 -18.5 8t-4.5 20zM783 1108q-97 0 -152 65.5t-36 160.5q18 95 98.5 160.5t177.5 65.5t151.5 -65.5t36.5 -160.5q-19 -95 -99 -160.5t-177 -65.5zM853 1468 q-56 0 -102.5 -38t-57.5 -96t20.5 -96t87.5 -38t102.5 38t57.5 96t-20.5 96t-87.5 38z" />
<glyph unicode="&#xe6;" horiz-adv-x="1972" d="M1678 38q-148 -62 -333 -62q-167 0 -283 70.5t-161 195.5q-85 -128 -219 -197t-293 -69q-85 0 -156 19.5t-122.5 57.5t-73.5 100.5t-6 142.5q31 159 177.5 247.5t391.5 88.5h310q29 149 -36 231.5t-235 82.5q-183 0 -339 -54q-14 -5 -22.5 1t-7.5 20l4 52q2 25 22 31 q178 64 368 64q155 0 251 -66t112 -186q112 120 259 186t302 66q183 0 283.5 -80t75.5 -210q-30 -158 -205.5 -232t-533.5 -74h-204q-21 -185 74.5 -280.5t290.5 -95.5q167 0 305 64q16 7 27 0.5t10 -21.5l-2 -48q-3 -33 -31 -45zM417 88q302 0 442 280l30 152h-304 q-190 0 -295.5 -58t-125.5 -162q-20 -102 54.5 -157t198.5 -55zM1028 578h172q317 0 458 43.5t161 148.5q15 74 -45.5 126t-191.5 52q-198 0 -346 -98t-208 -272z" />
<glyph unicode="&#xe7;" horiz-adv-x="1136" d="M941 27q-145 -48 -299 -51l-85 -96q99 -15 138.5 -65t25.5 -120q-15 -80 -96.5 -125.5t-222.5 -45.5q-50 0 -95 8q-24 3 -20 30l7 32q5 31 40 26q40 -6 82 -6q82 0 131.5 25.5t58.5 70.5q9 44 -33 73t-139 40q-18 2 -22.5 16.5t8.5 30.5l96 111q-244 26 -359.5 168.5 t-71.5 368.5q48 246 247.5 394t478.5 148q181 0 310 -48q25 -9 17 -32l-16 -51q-5 -16 -17.5 -23t-27.5 -1q-115 43 -280 43q-219 0 -380 -114.5t-200 -315.5q-39 -202 79.5 -316t353.5 -114q164 0 289 46q16 7 26.5 2.5t9.5 -19.5l-3 -54q-3 -27 -31 -36z" />
<glyph unicode="&#xe8;" horiz-adv-x="1236" d="M939 38q28 11 31 41l4 46q1 15 -9 20.5t-25 -0.5q-142 -57 -324 -57q-213 0 -318 95.5t-85 280.5h200q384 0 575.5 75.5t221.5 230.5q25 130 -89.5 210t-319.5 80q-285 0 -478 -149.5t-240 -392.5q-49 -251 85.5 -396.5t417.5 -145.5q199 0 353 62zM402 572h-168 q51 180 197 278t352 98q147 0 224.5 -50t62.5 -128q-20 -106 -178 -152t-490 -46zM904 1176h-69q-21 0 -34 14l-254 286q-7 8 -3 16t17 8h121q17 0 27 -13l204 -289q5 -7 2 -14.5t-11 -7.5z" />
<glyph unicode="&#xe9;" horiz-adv-x="1236" d="M939 38q-154 -62 -353 -62q-283 0 -417.5 145.5t-85.5 396.5q47 243 240 392.5t478 149.5q205 0 319.5 -80t89.5 -210q-30 -155 -221.5 -230.5t-575.5 -75.5h-200q-20 -185 85 -280.5t318 -95.5q182 0 324 57q15 6 25 0.5t9 -20.5l-4 -46q-3 -30 -31 -41zM234 572h168 q332 0 490 46t178 152q15 78 -62.5 128t-224.5 50q-206 0 -352 -98t-197 -278zM667 1176h-69q-8 0 -8 7.5t7 14.5l318 289q13 13 31 13h121q13 0 14 -8t-10 -16l-364 -286q-18 -14 -40 -14z" />
<glyph unicode="&#xea;" horiz-adv-x="1236" d="M939 38q-154 -62 -353 -62q-283 0 -417.5 145.5t-85.5 396.5q47 243 240 392.5t478 149.5q205 0 319.5 -80t89.5 -210q-30 -155 -221.5 -230.5t-575.5 -75.5h-200q-20 -185 85 -280.5t318 -95.5q182 0 324 57q15 6 25 0.5t9 -20.5l-4 -46q-3 -30 -31 -41zM234 572h168 q332 0 490 46t178 152q15 78 -62.5 128t-224.5 50q-206 0 -352 -98t-197 -278zM766 1500h92q21 0 30 -15l188 -284q8 -11 4 -22t-18 -11h-78q-23 0 -34 18l-153 234l-245 -234q-18 -18 -40 -18h-78q-10 0 -13 5t0 12.5t11 15.5l298 284q17 15 36 15z" />
<glyph unicode="&#xeb;" horiz-adv-x="1236" d="M939 38q28 11 31 41l4 46q1 15 -9 20.5t-25 -0.5q-142 -57 -324 -57q-213 0 -318 95.5t-85 280.5h200q384 0 575.5 75.5t221.5 230.5q25 130 -89.5 210t-319.5 80q-285 0 -478 -149.5t-240 -392.5q-49 -251 85.5 -396.5t417.5 -145.5q199 0 353 62zM402 572h-168 q51 180 197 278t352 98q147 0 224.5 -50t62.5 -128q-20 -106 -178 -152t-490 -46zM514 1232q-44 0 -60 25.5t-5 80.5q10 55 36 80.5t70 25.5t60 -25.5t6 -80.5q-21 -106 -107 -106zM998 1232q-44 0 -60 25.5t-5 80.5q10 55 36 80.5t70 25.5t60 -25.5t6 -80.5 q-21 -106 -107 -106z" />
<glyph unicode="&#xec;" horiz-adv-x="436" d="M57 30l190 976q2 13 13 21.5t24 8.5h67q13 0 19.5 -8.5t4.5 -21.5l-190 -976q-2 -13 -12 -21.5t-23 -8.5h-67q-13 0 -20.5 8.5t-5.5 21.5zM425 1176h-69q-21 0 -34 14l-254 286q-7 8 -3 16t17 8h121q17 0 27 -13l204 -289q5 -7 2 -14.5t-11 -7.5z" />
<glyph unicode="&#xed;" horiz-adv-x="436" d="M57 30l190 976q2 13 13 21.5t24 8.5h67q13 0 19.5 -8.5t4.5 -21.5l-190 -976q-2 -13 -12 -21.5t-23 -8.5h-67q-13 0 -20.5 8.5t-5.5 21.5zM332 1176h-69q-8 0 -8 7.5t7 14.5l318 289q13 13 31 13h121q13 0 14 -8t-10 -16l-364 -286q-18 -14 -40 -14z" />
<glyph unicode="&#xee;" horiz-adv-x="436" d="M42 30l190 976q2 13 13 21.5t24 8.5h67q13 0 19.5 -8.5t4.5 -21.5l-190 -976q-2 -13 -12 -21.5t-23 -8.5h-67q-13 0 -20.5 8.5t-5.5 21.5zM346 1500h92q21 0 30 -15l188 -284q8 -11 4 -22t-18 -11h-78q-23 0 -34 18l-153 234l-245 -234q-18 -18 -40 -18h-78q-10 0 -13 5 t0 12.5t11 15.5l298 284q17 15 36 15z" />
<glyph unicode="&#xef;" horiz-adv-x="436" d="M58 30l190 976q2 13 13 21.5t24 8.5h67q13 0 19.5 -8.5t4.5 -21.5l-190 -976q-2 -13 -12 -21.5t-23 -8.5h-67q-13 0 -20.5 8.5t-5.5 21.5zM114 1232q-44 0 -60 25.5t-5 80.5q10 55 36 80.5t70 25.5t60 -25.5t6 -80.5q-21 -106 -107 -106zM598 1232q-44 0 -60 25.5 t-5 80.5q10 55 36 80.5t70 25.5t60 -25.5t6 -80.5q-21 -106 -107 -106z" />
<glyph unicode="&#xf0;" horiz-adv-x="1232" d="M682 880q-189 0 -312 -101t-161 -295q-35 -179 45.5 -287.5t249.5 -108.5q198 0 339 134.5t197 423.5l8 40q-146 194 -366 194zM1256 1251l-187 -45q172 -203 103 -562q-61 -313 -238 -490.5t-452 -177.5q-222 0 -336.5 135.5t-68.5 372.5q47 241 209.5 374.5 t402.5 133.5q116 0 213 -41t157 -113q0 212 -135 332q-49 -12 -158 -39t-193 -47t-159 -36q-13 -3 -22.5 2.5t-10.5 17.5l-2 45q-2 13 6.5 24t21.5 14l404 97q-115 59 -260 89q-10 2 -15 12t-1 21l18 56q4 14 16.5 21.5t25.5 4.5q233 -53 385 -162l268 65q13 4 22.5 -2.5 t10.5 -18.5l3 -46q1 -12 -7 -23t-21 -14z" />
<glyph unicode="&#xf1;" horiz-adv-x="1294" d="M1173 596l-110 -566q-2 -13 -12 -21.5t-23 -8.5h-68q-13 0 -20 8.5t-5 21.5l110 562q33 172 -51.5 264t-263.5 92q-110 0 -215 -36.5t-189 -107.5l-151 -774q-2 -13 -12 -21.5t-23 -8.5h-68q-13 0 -20 8.5t-5 21.5l190 976q2 13 12.5 21.5t23.5 8.5h68q13 0 19.5 -8.5 t4.5 -21.5l-14 -72q87 59 197 92.5t224 33.5q227 0 335.5 -120t65.5 -344zM761 1296q-23 31 -44.5 47.5t-48.5 16.5q-80 0 -114 -135q-3 -12 -13 -20.5t-22 -8.5h-60q-13 0 -20 8.5t-4 21.5q31 128 94 186t144 58q62 0 101 -28t73 -76q48 -64 94 -64q80 0 114 135 q3 12 12.5 20.5t21.5 8.5h60q14 0 21 -8.5t4 -21.5q-32 -128 -95 -186t-144 -58q-43 0 -78.5 17.5t-54 36.5t-41.5 50z" />
<glyph unicode="&#xf2;" d="M555 -24q-126 0 -226 41t-161 113t-83.5 172t-0.5 216q46 236 236.5 389t445.5 153q168 0 286 -70t166 -193.5t18 -278.5t-126 -278.5t-241.5 -193.5t-313.5 -70zM744 948q-195 0 -342.5 -118.5t-185.5 -311.5q-37 -193 64.5 -311.5t296.5 -118.5t342.5 118.5 t184.5 311.5q38 193 -63.5 311.5t-296.5 118.5zM947 1176h-69q-21 0 -34 14l-254 286q-7 8 -3 16t17 8h121q17 0 27 -13l204 -289q5 -7 2 -14.5t-11 -7.5z" />
<glyph unicode="&#xf3;" d="M555 -24q-126 0 -226 41t-161 113t-83.5 172t-0.5 216q46 236 236.5 389t445.5 153q168 0 286 -70t166 -193.5t18 -278.5t-126 -278.5t-241.5 -193.5t-313.5 -70zM744 948q-195 0 -342.5 -118.5t-185.5 -311.5q-37 -193 64.5 -311.5t296.5 -118.5t342.5 118.5 t184.5 311.5q38 193 -63.5 311.5t-296.5 118.5zM714 1176h-69q-8 0 -8 7.5t7 14.5l318 289q13 13 31 13h121q13 0 14 -8t-10 -16l-364 -286q-18 -14 -40 -14z" />
<glyph unicode="&#xf4;" d="M555 -24q-126 0 -226 41t-161 113t-83.5 172t-0.5 216q46 236 236.5 389t445.5 153q168 0 286 -70t166 -193.5t18 -278.5t-126 -278.5t-241.5 -193.5t-313.5 -70zM744 948q-195 0 -342.5 -118.5t-185.5 -311.5q-37 -193 64.5 -311.5t296.5 -118.5t342.5 118.5 t184.5 311.5q38 193 -63.5 311.5t-296.5 118.5zM805 1500h92q21 0 30 -15l188 -284q7 -11 3.5 -22t-17.5 -11h-78q-23 0 -34 18l-153 234l-245 -234q-18 -18 -40 -18h-78q-10 0 -13 5t0 12.5t11 15.5l298 284q17 15 36 15z" />
<glyph unicode="&#xf5;" d="M555 -24q-126 0 -226 41t-161 113t-83.5 172t-0.5 216q46 236 236.5 389t445.5 153q168 0 286 -70t166 -193.5t18 -278.5t-126 -278.5t-241.5 -193.5t-313.5 -70zM744 948q-195 0 -342.5 -118.5t-185.5 -311.5q-37 -193 64.5 -311.5t296.5 -118.5t342.5 118.5 t184.5 311.5q38 193 -63.5 311.5t-296.5 118.5zM775 1296q-23 31 -44.5 47.5t-48.5 16.5q-80 0 -114 -135q-3 -12 -13 -20.5t-22 -8.5h-60q-13 0 -20 8.5t-4 21.5q31 128 94 186t144 58q62 0 101 -28t73 -76q48 -64 94 -64q80 0 114 135q3 12 12.5 20.5t21.5 8.5h60 q14 0 21 -8.5t4 -21.5q-32 -128 -95 -186t-144 -58q-43 0 -78.5 17.5t-54 36.5t-41.5 50z" />
<glyph unicode="&#xf6;" d="M555 -24q-126 0 -226 41t-161 113t-83.5 172t-0.5 216q46 236 236.5 389t445.5 153q168 0 286 -70t166 -193.5t18 -278.5t-126 -278.5t-241.5 -193.5t-313.5 -70zM744 948q-195 0 -342.5 -118.5t-185.5 -311.5q-37 -193 64.5 -311.5t296.5 -118.5t342.5 118.5 t184.5 311.5q38 193 -63.5 311.5t-296.5 118.5zM557 1232q-44 0 -60 25.5t-5 80.5q10 55 36 80.5t70 25.5t60 -25.5t6 -80.5q-21 -106 -107 -106zM1041 1232q-44 0 -60 25.5t-5 80.5q10 55 36 80.5t70 25.5t60 -25.5t6 -80.5q-21 -106 -107 -106z" />
<glyph unicode="&#xf7;" horiz-adv-x="1308" d="M774 262q0 -112 -90 -112t-90 112t90 112t90 -112zM774 1066q0 -112 -90 -112t-90 112t90 112t90 -112zM184 722h999q13 0 22 -8.5t9 -21.5v-56q0 -13 -9 -21.5t-22 -8.5h-999q-13 0 -21.5 8.5t-8.5 21.5v56q0 13 8.5 21.5t21.5 8.5z" />
<glyph unicode="&#xf8;" d="M532 -24q-148 0 -262 57l-205 -232q-20 -21 -47 -21h-41q-20 0 -25 15t9 32l229 259q-87 73 -121 185t-8 247q46 236 236.5 389t445.5 153q146 0 260 -57l207 232q18 21 47 21h41q20 0 25 -15t-9 -32l-230 -259q86 -74 120.5 -186t8.5 -246q-30 -155 -126 -278.5 t-241.5 -193.5t-313.5 -70zM1081 518q21 104 -2 189.5t-83 143.5l-640 -721q82 -42 198 -42q195 0 342.5 118.5t184.5 311.5zM721 948q-195 0 -342.5 -118.5t-185.5 -311.5q-41 -212 84 -334l641 722q-86 42 -197 42z" />
<glyph unicode="&#xf9;" horiz-adv-x="1294" d="M119 440l110 566q2 13 12.5 21.5t23.5 8.5h68q13 0 19.5 -8.5t4.5 -21.5l-109 -562q-34 -172 51 -264t264 -92q232 0 404 144l150 774q2 13 12.5 21.5t23.5 8.5h68q13 0 19.5 -8.5t4.5 -21.5l-190 -976q-2 -13 -12 -21.5t-23 -8.5h-68q-13 0 -20 8.5t-5 21.5l14 72 q-186 -126 -420 -126q-227 0 -336 120t-66 344zM899 1176h-69q-21 0 -34 14l-254 286q-7 8 -3 16t17 8h121q17 0 27 -13l204 -289q5 -7 2 -14.5t-11 -7.5z" />
<glyph unicode="&#xfa;" horiz-adv-x="1294" d="M119 440l110 566q2 13 12.5 21.5t23.5 8.5h68q13 0 19.5 -8.5t4.5 -21.5l-109 -562q-34 -172 51 -264t264 -92q232 0 404 144l150 774q2 13 12.5 21.5t23.5 8.5h68q13 0 19.5 -8.5t4.5 -21.5l-190 -976q-2 -13 -12 -21.5t-23 -8.5h-68q-13 0 -20 8.5t-5 21.5l14 72 q-186 -126 -420 -126q-227 0 -336 120t-66 344zM722 1176h-69q-8 0 -8 7.5t7 14.5l318 289q13 13 31 13h121q13 0 14 -8t-10 -16l-364 -286q-18 -14 -40 -14z" />
<glyph unicode="&#xfb;" horiz-adv-x="1294" d="M119 440l110 566q2 13 12.5 21.5t23.5 8.5h68q13 0 19.5 -8.5t4.5 -21.5l-109 -562q-34 -172 51 -264t264 -92q232 0 404 144l150 774q2 13 12.5 21.5t23.5 8.5h68q13 0 19.5 -8.5t4.5 -21.5l-190 -976q-2 -13 -12 -21.5t-23 -8.5h-68q-13 0 -20 8.5t-5 21.5l14 72 q-186 -126 -420 -126q-227 0 -336 120t-66 344zM787 1500h92q21 0 30 -15l188 -284q7 -11 3.5 -22t-17.5 -11h-78q-23 0 -34 18l-153 234l-245 -234q-18 -18 -40 -18h-78q-10 0 -13 5t0 12.5t11 15.5l298 284q17 15 36 15z" />
<glyph unicode="&#xfc;" horiz-adv-x="1294" d="M119 440l110 566q2 13 12.5 21.5t23.5 8.5h68q13 0 19.5 -8.5t4.5 -21.5l-109 -562q-34 -172 51 -264t264 -92q232 0 404 144l150 774q2 13 12.5 21.5t23.5 8.5h68q13 0 19.5 -8.5t4.5 -21.5l-190 -976q-2 -13 -12 -21.5t-23 -8.5h-68q-13 0 -20 8.5t-5 21.5l14 72 q-186 -126 -420 -126q-227 0 -336 120t-66 344zM539 1232q-44 0 -60 25.5t-5 80.5q10 55 36 80.5t70 25.5t60 -25.5t6 -80.5q-21 -106 -107 -106zM1023 1232q-44 0 -60 25.5t-5 80.5q10 55 36 80.5t70 25.5t60 -25.5t6 -80.5q-21 -106 -107 -106z" />
<glyph unicode="&#xfd;" horiz-adv-x="1228" d="M1172 1036h67q17 0 23 -13.5t-4 -29.5l-896 -1341q-25 -38 -64 -38h-63q-18 0 -24 13.5t5 29.5l225 339l-301 997q-5 16 6 29.5t29 13.5h67q34 0 43 -29l257 -860l575 860q20 29 55 29zM698 1176h-69q-8 0 -8 7.5t7 14.5l318 289q13 13 31 13h121q13 0 14 -8t-10 -16 l-364 -286q-18 -14 -40 -14z" />
<glyph unicode="&#xfe;" horiz-adv-x="1308" d="M453 1430l-96 -496q198 126 413 126q120 0 215 -37t155.5 -107t82.5 -170.5t-3 -227.5q-49 -249 -232 -395.5t-429 -146.5q-215 0 -364 126l-96 -496q-2 -13 -12.5 -21.5t-23.5 -8.5h-68q-13 0 -19.5 8.5t-4.5 21.5l354 1824q3 13 13 21.5t23 8.5h68q13 0 20 -8.5 t4 -21.5zM1088 518q39 202 -66.5 316t-301.5 114q-219 0 -388 -144l-111 -572q54 -70 140.5 -107t191.5 -37q128 0 238.5 48.5t190.5 147.5t106 234z" />
<glyph unicode="&#xff;" horiz-adv-x="1228" d="M1172 1036h67q17 0 23 -13.5t-4 -29.5l-896 -1341q-25 -38 -64 -38h-63q-18 0 -24 13.5t5 29.5l225 339l-301 997q-5 16 6 29.5t29 13.5h67q34 0 43 -29l257 -860l575 860q20 29 55 29zM505 1232q-44 0 -60 25.5t-5 80.5q10 55 36 80.5t70 25.5t60 -25.5t6 -80.5 q-21 -106 -107 -106zM989 1232q-44 0 -60 25.5t-5 80.5q10 55 36 80.5t70 25.5t60 -25.5t6 -80.5q-21 -106 -107 -106z" />
<glyph unicode="&#x152;" horiz-adv-x="1918" d="M853 116l229 1178h-18q-322 0 -532 -158.5t-262 -429.5t96 -430.5t469 -159.5h18zM1702 0h-875q-391 0 -576 190.5t-121 515.5q63 323 321.5 514.5t647.5 191.5h857q13 0 20 -8.5t5 -21.5l-11 -56q-2 -13 -13 -21.5t-24 -8.5h-705l-99 -512h646q13 0 19.5 -8.5t4.5 -21.5 l-11 -56q-2 -13 -12.5 -21.5t-23.5 -8.5h-646l-107 -552h725q13 0 20 -9t5 -22l-10 -54q-3 -13 -13.5 -22t-23.5 -9z" />
<glyph unicode="&#x153;" horiz-adv-x="2086" d="M1142 578h172q317 0 458 43.5t161 148.5q15 74 -45.5 126t-191.5 52q-198 0 -346 -98t-208 -272zM216 518q-39 -200 44 -315t267 -115q183 0 309.5 115t165.5 315q39 199 -43.5 314.5t-264.5 115.5q-184 0 -311.5 -115.5t-166.5 -314.5zM1788 152q16 7 27 0.5t10 -21.5 l-2 -48q-3 -32 -33 -45q-148 -62 -331 -62q-171 0 -289.5 74.5t-160.5 205.5q-82 -135 -215.5 -207.5t-288.5 -72.5q-245 0 -356.5 148.5t-64.5 393.5q47 244 217 393t415 149q152 0 264 -75.5t140 -208.5q108 142 258.5 213t323.5 71q182 0 283 -81.5t76 -208.5 q-20 -104 -102 -170.5t-240 -101t-397 -34.5h-204q-21 -185 74.5 -280.5t290.5 -95.5q92 0 160.5 15t144.5 49z" />
<glyph unicode="&#x178;" horiz-adv-x="1532" d="M690 0h-78q-13 0 -20.5 9t-4.5 22l102 525l-460 795q-10 16 2 32.5t32 16.5h61q44 0 66 -36l393 -683l659 683q34 36 80 36h61q20 0 25 -16t-11 -33l-768 -795l-102 -525q-3 -13 -13.5 -22t-23.5 -9zM716 1580q-44 0 -60 25.5t-6 80.5q21 106 107 106q44 0 60 -25.5 t5 -80.5q-10 -55 -36 -80.5t-70 -25.5zM1200 1580q-44 0 -60 25.5t-6 80.5q21 106 107 106q44 0 60 -25.5t5 -80.5q-10 -55 -36 -80.5t-70 -25.5z" />
<glyph unicode="&#x2c6;" horiz-adv-x="920" d="M580 1460h92q21 0 30 -15l188 -284q8 -11 4 -22t-18 -11h-78q-23 0 -34 18l-153 234l-245 -234q-18 -18 -40 -18h-78q-10 0 -13 5t0 12.5t11 15.5l298 284q17 15 36 15z" />
<glyph unicode="&#x2dc;" horiz-adv-x="920" d="M564 1260q-23 31 -44.5 47.5t-48.5 16.5q-80 0 -114 -135q-3 -12 -13 -20.5t-22 -8.5h-60q-13 0 -20 8.5t-4 21.5q31 128 94 186t144 58q62 0 101 -28t73 -76q48 -64 94 -64q80 0 114 135q3 12 12.5 20.5t21.5 8.5h60q14 0 21 -8.5t4 -21.5q-32 -128 -95 -186t-144 -58 q-43 0 -78.5 17.5t-54 36.5t-41.5 50z" />
<glyph unicode="&#x2000;" horiz-adv-x="954" />
<glyph unicode="&#x2001;" horiz-adv-x="1908" />
<glyph unicode="&#x2002;" horiz-adv-x="954" />
<glyph unicode="&#x2003;" horiz-adv-x="1908" />
<glyph unicode="&#x2004;" horiz-adv-x="636" />
<glyph unicode="&#x2005;" horiz-adv-x="477" />
<glyph unicode="&#x2006;" horiz-adv-x="318" />
<glyph unicode="&#x2007;" horiz-adv-x="318" />
<glyph unicode="&#x2008;" horiz-adv-x="238" />
<glyph unicode="&#x2009;" horiz-adv-x="381" />
<glyph unicode="&#x200a;" horiz-adv-x="106" />
<glyph unicode="&#x2010;" horiz-adv-x="846" d="M706 602h-538q-13 0 -20 8.5t-5 21.5l13 64q2 13 12.5 21.5t23.5 8.5h538q13 0 19.5 -8.5t4.5 -21.5l-13 -64q-2 -13 -12 -21.5t-23 -8.5z" />
<glyph unicode="&#x2011;" horiz-adv-x="846" d="M706 602h-538q-13 0 -20 8.5t-5 21.5l13 64q2 13 12.5 21.5t23.5 8.5h538q13 0 19.5 -8.5t4.5 -21.5l-13 -64q-2 -13 -12 -21.5t-23 -8.5z" />
<glyph unicode="&#x2012;" horiz-adv-x="846" d="M706 602h-538q-13 0 -20 8.5t-5 21.5l13 64q2 13 12.5 21.5t23.5 8.5h538q13 0 19.5 -8.5t4.5 -21.5l-13 -64q-2 -13 -12 -21.5t-23 -8.5z" />
<glyph unicode="&#x2013;" horiz-adv-x="1000" d="M983 606h-940q-13 0 -19.5 8.5t-4.5 21.5l11 56q2 13 12.5 21.5t23.5 8.5h940q13 0 19.5 -8.5t4.5 -21.5l-11 -56q-2 -13 -12.5 -21.5t-23.5 -8.5z" />
<glyph unicode="&#x2014;" horiz-adv-x="2000" d="M1983 606h-1940q-13 0 -19.5 8.5t-4.5 21.5l11 56q2 13 12.5 21.5t23.5 8.5h1940q13 0 19.5 -8.5t4.5 -21.5l-11 -56q-2 -13 -12.5 -21.5t-23.5 -8.5z" />
<glyph unicode="&#x2018;" horiz-adv-x="660" d="M558 1519q5 4 12 4t10 -4l16 -26q5 -8 -5 -20q-75 -78 -102 -167q43 -1 58.5 -28t4.5 -84q-12 -58 -39 -85t-73 -27q-47 0 -63.5 27t-4.5 85q21 112 63.5 189t122.5 136z" />
<glyph unicode="&#x2019;" horiz-adv-x="660" d="M404 1087q-5 -4 -12 -4t-10 4l-16 26q-6 9 5 20q76 79 101 167q-84 3 -62 112q11 58 38 85t74 27t63 -27t5 -85q-22 -113 -64 -189.5t-122 -135.5z" />
<glyph unicode="&#x201a;" horiz-adv-x="660" d="M147 -237q-5 -4 -12 -4t-10 4l-16 26q-4 9 5 20q75 76 102 167q-44 2 -58.5 28.5t-3.5 83.5q11 58 37.5 85t73.5 27t63.5 -27t5.5 -85q-22 -112 -64.5 -189t-122.5 -136z" />
<glyph unicode="&#x201c;" horiz-adv-x="994" d="M892 1519q5 4 12 4t10 -4l16 -26q5 -8 -5 -20q-75 -78 -102 -167q43 -1 58.5 -28t4.5 -84q-12 -58 -39 -85t-73 -27q-47 0 -63.5 27t-4.5 85q21 112 63.5 189t122.5 136zM558 1519q5 4 12 4t10 -4l16 -26q5 -8 -5 -20q-75 -78 -102 -167q43 -1 58.5 -28t4.5 -84 q-12 -58 -39 -85t-73 -27q-47 0 -63.5 27t-4.5 85q21 112 63.5 189t122.5 136z" />
<glyph unicode="&#x201d;" horiz-adv-x="994" d="M404 1087q-5 -4 -12 -4t-10 4l-16 26q-6 9 5 20q76 79 101 167q-84 3 -62 112q11 58 38 85t74 27t63 -27t5 -85q-22 -113 -64 -189.5t-122 -135.5zM738 1087q-5 -4 -12 -4t-10 4l-16 26q-6 9 5 20q76 79 101 167q-84 3 -62 112q11 58 38 85t74 27t63 -27t5 -85 q-22 -113 -64 -189.5t-122 -135.5z" />
<glyph unicode="&#x201e;" horiz-adv-x="994" d="M147 -237q-5 -4 -12 -4t-10 4l-16 26q-4 9 5 20q75 76 102 167q-44 2 -58.5 28.5t-3.5 83.5q11 58 37.5 85t73.5 27t63.5 -27t5.5 -85q-22 -112 -64.5 -189t-122.5 -136zM481 -237q-5 -4 -12 -4t-10 4l-16 26q-4 9 5 20q75 76 102 167q-44 2 -58.5 28.5t-3.5 83.5 q11 58 37.5 85t73.5 27t63.5 -27t5.5 -85q-22 -112 -64.5 -189t-122.5 -136z" />
<glyph unicode="&#x2022;" horiz-adv-x="852" d="M456 468q-108 0 -165 51.5t-57 144.5t57 144.5t165 51.5t165 -51.5t57 -144.5t-57 -144.5t-165 -51.5z" />
<glyph unicode="&#x2026;" horiz-adv-x="1980" d="M337 88q-22 -112 -112 -112t-68 112q21 112 111 112t69 -112zM997 88q-22 -112 -112 -112t-68 112q21 112 111 112t69 -112zM1657 88q-22 -112 -112 -112t-68 112q21 112 111 112t69 -112z" />
<glyph unicode="&#x202f;" horiz-adv-x="381" />
<glyph unicode="&#x2039;" horiz-adv-x="692" d="M159 607l7 32q2 12 14 22l428 336q19 14 35 7t12 -28l-7 -39q-5 -17 -19 -29l-366 -285l255 -285q11 -14 8 -29l-8 -39q-4 -21 -23 -28t-32 7l-298 336q-7 10 -6 22z" />
<glyph unicode="&#x203a;" horiz-adv-x="692" d="M563 639l-7 -32q-2 -12 -14 -22l-428 -336q-19 -14 -35 -7t-12 28l8 39q3 17 18 29l367 285l-256 285q-11 14 -7 29l7 39q4 21 23 28t32 -7l298 -336q7 -10 6 -22z" />
<glyph unicode="&#x205f;" horiz-adv-x="477" />
<glyph unicode="&#x20ac;" horiz-adv-x="1384" d="M1203 838l-18 -38q-14 -28 -44 -28h-795q-16 -52 -20 -73q-6 -31 -9 -73h737q16 0 20.5 -11.5t-3.5 -26.5l-18 -36q-14 -28 -45 -28h-694q13 -211 159 -319.5t399 -108.5q165 0 300 47q17 5 27.5 -1t9.5 -21l-5 -60q-3 -32 -35 -41q-150 -44 -326 -44q-312 0 -488 139.5 t-185 408.5h-109q-13 0 -19.5 8.5t-4.5 21.5l8 42q3 13 13 21.5t23 8.5h96q8 58 11 72q7 33 18 74h-96q-13 0 -20 9t-5 21l9 42q2 13 12 21.5t23 8.5h109q108 263 337.5 406.5t543.5 143.5q182 0 308 -44q27 -10 19 -34l-19 -61q-4 -15 -18 -22t-27 -2q-120 43 -279 43 q-249 0 -437.5 -111.5t-283.5 -318.5h804q15 0 20 -10.5t-3 -25.5z" />
<glyph unicode="&#x2122;" horiz-adv-x="1526" d="M292 778v534h-207q-13 0 -22 8.5t-9 21.5v27q0 13 9 22t22 9h520q13 0 22 -9t9 -22v-27q0 -13 -9 -21.5t-22 -8.5h-205v-534q0 -13 -8.5 -21.5t-21.5 -8.5h-48q-13 0 -21.5 8.5t-8.5 21.5zM1096 964h-52q-12 0 -23 11l-225 262v-461q0 -13 -8.5 -21.5t-21.5 -8.5h-48 q-13 0 -21.5 8.5t-8.5 21.5v593q0 13 8.5 22t21.5 9h61q13 0 22 -11l269 -319l269 319q9 11 22 11h61q13 0 21.5 -9t8.5 -22v-593q0 -13 -8.5 -21.5t-21.5 -8.5h-48q-13 0 -21.5 8.5t-8.5 21.5v461l-225 -262q-11 -11 -23 -11z" />
<glyph unicode="&#x25fc;" horiz-adv-x="1035" d="M0 1035h1035v-1035h-1035v1035z" />
</font>
</defs>
</svg>
