<?xml version="1.0" standalone="no"?>
<!DOCTYPE svg PUBLIC "-//W3C//DTD SVG 1.1//EN" "http://www.w3.org/Graphics/SVG/1.1/DTD/svg11.dtd" >
<svg xmlns="http://www.w3.org/2000/svg">
<metadata></metadata>
<defs>
<font id="core_sans_nr_sc_93_ex_blackIt" horiz-adv-x="1528" >
<font-face units-per-em="2000" ascent="1600" descent="-400" />
<missing-glyph horiz-adv-x="720" />
<glyph horiz-adv-x="666" />
<glyph horiz-adv-x="0" />
<glyph horiz-adv-x="0" />
<glyph unicode="&#xd;" horiz-adv-x="682" />
<glyph unicode=" "  horiz-adv-x="720" />
<glyph unicode="&#x09;" horiz-adv-x="720" />
<glyph unicode="&#xa0;" horiz-adv-x="720" />
<glyph unicode="!" horiz-adv-x="800" d="M181 507l64 601l49 254q3 16 17 27t30 11h463q16 0 24.5 -11t5.5 -27l-50 -256l-169 -598q-4 -15 -18 -25.5t-28 -10.5h-356q-15 0 -24 10t-8 25zM295 -24q-147 0 -199 47.5t-33 146.5t89.5 146.5t217.5 47.5t199.5 -47.5t33.5 -146.5t-90 -146.5t-218 -47.5z" />
<glyph unicode="&#x22;" horiz-adv-x="1400" d="M250 770l76 589q1 17 15.5 29t31.5 12h376q16 0 25 -11t6 -27l-8 -43l-179 -550q-4 -14 -17.5 -24.5t-27.5 -10.5h-266q-15 0 -24.5 10.5t-7.5 25.5zM875 770l76 589q1 17 15.5 29t31.5 12h376q16 0 25 -11t6 -27l-8 -43l-179 -550q-4 -14 -17.5 -24.5t-27.5 -10.5h-266 q-15 0 -24.5 10.5t-7.5 25.5z" />
<glyph unicode="#" horiz-adv-x="1848" d="M1360 256l-88 -225q-14 -31 -44 -31h-339q-19 0 -27 13.5t-1 32.5l83 210h-322l-88 -225q-14 -31 -44 -31h-339q-19 0 -27 13.5t-1 32.5l83 210h-178q-16 0 -25 11.5t-6 27.5l49 254q3 16 17 27.5t30 11.5h245l92 232h-176q-16 0 -25.5 11.5t-6.5 27.5l50 254 q3 16 16.5 27.5t29.5 11.5h243l87 217q5 13 17.5 22t26.5 9h339q19 0 27 -13.5t0 -32.5l-81 -202h322l87 217q5 13 17.5 22t26.5 9h339q19 0 27 -13.5t0 -32.5l-81 -202h177q16 0 25.5 -11.5t6.5 -27.5l-50 -254q-3 -16 -16.5 -27.5t-29.5 -11.5h-244l-92 -232h175 q16 0 25 -11.5t6 -27.5l-49 -254q-3 -16 -17 -27.5t-30 -11.5h-242zM846 820l-92 -232h322l92 232h-322z" />
<glyph unicode="$" horiz-adv-x="1504" d="M33 52q-12 4 -18 16.5t-2 24.5l85 284q6 20 24 30t35 3q191 -76 447 -76q94 0 147.5 8.5t71.5 22t22 35.5q4 19 -18 35.5t-94.5 41.5t-214.5 61q-206 53 -289.5 158.5t-50.5 275.5q38 197 182.5 307t404.5 136l35 181q3 16 16.5 27t29.5 11h226q16 0 25.5 -11t6.5 -27 l-34 -175q237 -11 395 -56q13 -4 19 -16t2 -26l-80 -278q-6 -20 -22 -30.5t-33 -4.5q-156 52 -385 52q-126 0 -173 -14.5t-54 -49.5q-4 -21 16.5 -37t91.5 -41t219 -66q208 -58 290.5 -159.5t49.5 -272.5q-38 -193 -182.5 -301t-420.5 -135l-35 -178q-3 -16 -16.5 -27 t-29.5 -11h-226q-16 0 -25.5 11t-6.5 27l33 170q-269 11 -464 74z" />
<glyph unicode="%" horiz-adv-x="2272" d="M606 824q66 0 110 42.5t60 123.5t-12 123.5t-94 42.5t-110 -42.5t-60 -123.5t12 -123.5t94 -42.5zM720 1414q226 0 323.5 -117.5t60.5 -306.5t-179.5 -306.5t-368.5 -117.5t-323.5 117.5t-60.5 306.5t179.5 306.5t368.5 117.5zM1673 244q66 0 110 42.5t60 123.5 t-12 123.5t-94 42.5t-110 -42.5t-60 -123.5t12 -123.5t94 -42.5zM1788 834q226 0 323 -117.5t60 -306.5t-179.5 -306.5t-368.5 -117.5t-323.5 117.5t-60.5 306.5t180 306.5t369 117.5zM1647 1364l-1143 -1301q-24 -29 -17.5 -46t34.5 -17h91q55 0 85 36l1143 1301 q19 21 14.5 42t-30.5 21h-91q-56 0 -86 -36z" />
<glyph unicode="&#x26;" horiz-adv-x="2030" d="M1083 1048q8 44 -24.5 68t-99.5 24t-113 -24t-54 -62q-7 -34 17 -67t87 -77q95 31 136.5 62.5t50.5 75.5zM542 402q-12 -60 45.5 -91t176.5 -31q112 0 179 26l-259 232q-125 -47 -142 -136zM1228 58l-23 20q-96 -49 -234.5 -75.5t-283.5 -26.5q-160 0 -283.5 25 t-209.5 75.5t-122 133t-14 192.5q25 129 124.5 224.5t255.5 137.5q-139 121 -108 280q33 170 206.5 275t465.5 105q272 0 414 -100t108 -270q-22 -115 -126.5 -207.5t-254.5 -138.5l201 -180q104 84 143 206q6 16 19.5 29t27.5 13h357q18 0 28 -11t6 -28q-40 -138 -128 -257 t-186 -184l262 -229q19 -17 2.5 -42t-46.5 -25h-434q-101 0 -167 58z" />
<glyph unicode="'" horiz-adv-x="756" d="M240 770l76 589q1 17 15.5 29t31.5 12h376q16 0 25 -11t6 -27l-8 -43l-179 -550q-4 -14 -17.5 -24.5t-27.5 -10.5h-266q-15 0 -24.5 10.5t-7.5 25.5z" />
<glyph unicode="(" horiz-adv-x="974" d="M180 621q94 481 473 825q59 54 127 54h264q26 0 32.5 -21t-13.5 -42q-390 -399 -471 -816t154 -816q11 -21 -3.5 -42t-40.5 -21h-264q-67 0 -106 54q-246 344 -152 825z" />
<glyph unicode=")" horiz-adv-x="974" d="M834 621q-94 -480 -472 -825q-59 -54 -128 -54h-264q-26 0 -32 21t14 42q389 400 470 816t-153 816q-12 21 2.5 42t40.5 21h264q68 0 107 -54q245 -345 151 -825z" />
<glyph unicode="*" horiz-adv-x="1112" d="M1017 733l-197 -67l197 -69q18 -6 24 -22.5t-3 -32.5l-119 -207q-10 -16 -27.5 -19t-31.5 10l-158 138l41 -206q4 -19 -7.5 -32.5t-30.5 -13.5h-238q-19 0 -30.5 13.5t-7.5 32.5l39 204l-156 -136q-14 -13 -31.5 -10t-27.5 19l-119 207q-9 16 -3 32.5t24 22.5l197 69 l-197 67q-18 6 -24 22.5t3 32.5l119 207q10 16 27.5 19t31.5 -10l156 -135l-39 203q-4 19 7.5 32.5t30.5 13.5h238q19 0 30.5 -13.5t7.5 -32.5l-41 -204l158 136q14 13 32 10t27 -19l119 -207q9 -16 3 -32.5t-24 -22.5z" />
<glyph unicode="+" horiz-adv-x="1284" d="M478 189v325h-330q-16 0 -27 11.5t-11 27.5v222q0 16 11 27.5t27 11.5h330v326q0 16 11 27t27 11h311q16 0 27.5 -11t11.5 -27v-326h329q16 0 27.5 -11.5t11.5 -27.5v-222q0 -16 -11.5 -27.5t-27.5 -11.5h-329v-325q0 -17 -11 -28t-28 -11h-311q-16 0 -27 11.5t-11 27.5z " />
<glyph unicode="," horiz-adv-x="744" d="M132 -343q-14 -7 -27.5 -4t-20.5 16l-43 89q-5 12 1.5 28.5t19.5 25.5q106 76 140 170q-163 24 -127 212q22 111 90 164.5t187 53.5t166 -53.5t25 -164.5q-35 -179 -139.5 -314.5t-271.5 -222.5z" />
<glyph unicode="-" horiz-adv-x="828" d="M706 504h-590q-16 0 -25 11.5t-6 27.5l47 242q3 16 16.5 27.5t30.5 11.5h590q16 0 25 -11.5t6 -27.5l-47 -242q-3 -16 -17 -27.5t-30 -11.5z" />
<glyph unicode="." horiz-adv-x="744" d="M267 -24q-119 0 -166.5 53.5t-25.5 164.5t90 164.5t187 53.5t166 -53.5t25 -164.5t-89.5 -164.5t-186.5 -53.5z" />
<glyph unicode="/" horiz-adv-x="1362" d="M1546 1437l-1272 -1610q-37 -47 -91 -47h-297q-25 0 -32 19t10 40l1271 1610q37 47 91 47h298q25 0 32 -19t-10 -40z" />
<glyph unicode="0" d="M64 700q64 334 297.5 529t578.5 195t502.5 -195t93.5 -529q-65 -334 -298.5 -529t-578.5 -195t-502.5 195t-92.5 529zM620 700q-31 -147 -24.5 -231t37.5 -116.5t93 -32.5t106 32t82 117t66 231q31 147 24 231t-38 116.5t-93 32.5t-106 -32t-81.5 -117t-65.5 -231z" />
<glyph unicode="1" d="M751 942l-291 -174q-14 -8 -29.5 -4.5t-21.5 15.5l-117 223q-7 14 -1 31t22 26l523 316q17 10 47 17.5t52 7.5h394q16 0 25 -11t6 -27l-257 -1323q-3 -16 -16.5 -27.5t-29.5 -11.5h-450q-16 0 -25.5 11.5t-6.5 27.5z" />
<glyph unicode="2" d="M376 1361q212 63 492 63q339 0 481 -121t100 -339q-49 -250 -289 -424q-171 -126 -360 -200h483q16 0 25 -11.5t6 -27.5l-51 -262q-3 -16 -16.5 -27.5t-29.5 -11.5h-1132q-16 0 -25.5 11.5t-6.5 27.5l48 247q4 25 31 40q312 180 479 298q137 96 205.5 167.5t82.5 144.5 q15 77 -43.5 110.5t-210.5 33.5q-163 0 -299 -41q-19 -5 -29 7t-8 32l31 243q2 12 12.5 24t23.5 16z" />
<glyph unicode="3" d="M60 43q-12 3 -18 15t-2 25l72 246q7 20 24.5 30t34.5 3q153 -62 351 -62q294 0 316 114q16 80 -97 122t-381 44q-15 0 -22 12t-4 29l43 220q3 16 15 27.5t27 11.5q260 1 380 32.5t132 95.5q10 49 -49.5 70.5t-200.5 21.5q-181 0 -348 -48q-18 -4 -30 7.5t-11 30.5l20 225 q1 13 11 25t23 16q214 68 538 68q309 0 465 -100t119 -292q-43 -221 -285 -302q111 -41 160 -122t27 -192q-40 -207 -253.5 -323.5t-551.5 -116.5q-285 0 -505 67z" />
<glyph unicode="4" d="M1 267l54 276q11 58 46 91l793 745q23 21 62 21h465q16 0 25 -11t6 -27l-150 -774h132q16 0 24.5 -11t5.5 -27l-55 -283q-3 -16 -16 -27.5t-29 -11.5h-132l-37 -189q-3 -16 -16.5 -27.5t-29.5 -11.5h-424q-16 0 -25.5 11.5t-6.5 27.5l37 189h-698q-16 0 -25 11.5t-6 27.5 zM872 961l-394 -373h322z" />
<glyph unicode="5" d="M88 29q-38 13 -28 52l63 221q5 20 23 31t35 5q123 -42 252 -42q183 0 270.5 41.5t104.5 126.5q16 81 -59.5 118.5t-244.5 37.5q-118 0 -248 -30q-20 -5 -32 6.5t-8 31.5l142 734q3 16 17 27t30 11h1048q16 0 25 -11t6 -27l-47 -243q-3 -16 -17 -27.5t-30 -11.5h-583 l-39 -204q77 22 188 22q222 0 335 -113t73 -317q-46 -236 -262 -364t-573 -128q-277 0 -441 53z" />
<glyph unicode="6" d="M633 592l-6 -30q-23 -103 -11 -161t42 -79.5t86 -21.5q151 0 182 166q18 90 -15 128t-111 38q-100 0 -167 -40zM1374 1068q-121 36 -272 36q-183 0 -281.5 -57t-133.5 -187q127 80 327 80q246 0 364 -124.5t74 -349.5q-45 -231 -238 -360.5t-513 -129.5 q-342 0 -497.5 171.5t-93.5 494.5q152 782 958 782q237 0 408 -50q13 -4 20 -15.5t3 -27.5l-64 -229q-6 -20 -24 -29.5t-37 -4.5z" />
<glyph unicode="7" d="M1546 1362l-50 -260q-12 -58 -76 -146l-663 -935q-5 -8 -17 -14.5t-21 -6.5h-517q-24 0 -31 18t7 38l706 984h-627q-16 0 -25.5 11.5t-6.5 27.5l55 283q3 16 17 27t30 11h1189q16 0 24.5 -11t5.5 -27z" />
<glyph unicode="8" d="M659 -24q-336 0 -501.5 117.5t-127.5 308.5q47 244 344 354q-185 86 -148 276q35 178 220.5 285t493.5 107t452.5 -107t109.5 -285q-37 -190 -256 -276q255 -110 208 -354q-38 -191 -248.5 -308.5t-546.5 -117.5zM782 612q-93 -41 -151.5 -97.5t-69.5 -114.5 q-10 -53 30.5 -88.5t125.5 -35.5t139.5 35.5t64.5 88.5q11 58 -25 114.5t-114 97.5zM830 856q78 26 132 68.5t63 89.5q9 49 -29 79.5t-114 30.5q-77 0 -126.5 -30.5t-58.5 -79.5q-9 -47 28 -89.5t105 -68.5z" />
<glyph unicode="9" d="M967 808l5 30q23 103 11 161t-42 79.5t-86 21.5q-149 0 -182 -166q-17 -90 15.5 -128t110.5 -38q100 0 168 40zM225 332q122 -36 272 -36q183 0 281.5 57t133.5 187q-125 -80 -327 -80q-246 0 -364 124.5t-74 349.5q45 231 238 360.5t513 129.5q342 0 497.5 -171.5 t93.5 -494.5q-152 -782 -958 -782q-237 0 -407 50q-13 4 -20.5 16t-3.5 27l64 229q6 20 24 29.5t37 4.5z" />
<glyph unicode=":" horiz-adv-x="744" d="M267 -24q-119 0 -166.5 53.5t-25.5 164.5t90 164.5t187 53.5t166 -53.5t25 -164.5t-89.5 -164.5t-186.5 -53.5zM393 624q-119 0 -166.5 53.5t-25.5 164.5t90 164.5t187 53.5t166 -53.5t25 -164.5t-89.5 -164.5t-186.5 -53.5z" />
<glyph unicode=";" horiz-adv-x="744" d="M393 624q-119 0 -166.5 53.5t-25.5 164.5t90 164.5t187 53.5t166 -53.5t25 -164.5t-89.5 -164.5t-186.5 -53.5zM132 -343q-14 -7 -27.5 -4t-20.5 16l-43 89q-5 12 1.5 28.5t19.5 25.5q106 76 140 170q-163 24 -127 212q22 111 90 164.5t187 53.5t166 -53.5t25 -164.5 q-35 -179 -139.5 -314.5t-271.5 -222.5z" />
<glyph unicode="&#x3c;" horiz-adv-x="1284" d="M110 427v470q0 13 8.5 24t20.5 14l1047 251q20 5 34 -6.5t14 -31.5v-293q0 -13 -9 -24.5t-21 -13.5l-732 -155l732 -155q12 -2 21 -13.5t9 -24.5v-293q0 -20 -14 -31.5t-34 -6.5l-1047 251q-12 3 -20.5 14t-8.5 24z" />
<glyph unicode="=" horiz-adv-x="1284" d="M1195 754h-1047q-16 0 -27 11.5t-11 27.5v223q0 16 11 27t27 11h1047q16 0 27.5 -11t11.5 -27v-223q0 -17 -11 -28t-28 -11zM1195 274h-1047q-16 0 -27 11.5t-11 27.5v222q0 16 11 27.5t27 11.5h1047q16 0 27.5 -11.5t11.5 -27.5v-222q0 -17 -11 -28t-28 -11z" />
<glyph unicode="&#x3e;" horiz-adv-x="1284" d="M1234 897v-470q0 -13 -8.5 -24t-20.5 -14l-1047 -251q-20 -5 -34 6.5t-14 31.5v293q0 13 9 24.5t21 13.5l732 155l-732 155q-12 2 -21 13.5t-9 24.5v293q0 20 14 31.5t34 6.5l1047 -251q12 -3 20.5 -14t8.5 -24z" />
<glyph unicode="?" horiz-adv-x="1316" d="M467 -24q-147 0 -199 47.5t-33 146.5t89.5 146.5t217.5 47.5t199.5 -47.5t33.5 -146.5t-90 -146.5t-218 -47.5zM318 497l10 51q27 137 88.5 217.5t180.5 126.5q83 31 119.5 56t41.5 54q5 24 -7.5 37.5t-56.5 22t-127 8.5q-168 0 -331 -51q-20 -6 -33.5 4t-11.5 29l25 253 q5 36 46 49q221 70 478 70q329 0 471.5 -98.5t104.5 -293.5q-46 -237 -345 -364q-74 -30 -105.5 -61t-40.5 -73l-7 -37q-3 -17 -16.5 -28t-29.5 -11h-423q-16 0 -25 11.5t-6 27.5z" />
<glyph unicode="@" horiz-adv-x="1920" d="M885 380q78 0 142 52l122 306q-21 26 -71 26q-85 0 -167 -81.5t-105 -198.5q-21 -104 79 -104zM1365 -190q-251 -134 -564 -134q-177 0 -325.5 61t-248.5 171t-139.5 277t-1.5 365q38 193 141.5 359t244.5 277.5t311 174.5t341 63q182 0 332.5 -56.5t252.5 -161 t142.5 -264.5t2.5 -354q-45 -230 -176.5 -362t-321.5 -132q-86 0 -149 40.5t-78 107.5q-154 -138 -363 -138q-95 0 -163 29.5t-101.5 80.5t-45 119.5t6.5 146.5q31 158 133.5 289.5t244.5 205t290 73.5q119 0 208 -44t140 -122q25 -40 4 -94l-75 -188q-32 -83 -43 -138 q-16 -84 1.5 -130t58.5 -46q67 0 118 79t79 223q56 291 -85.5 461.5t-451.5 170.5q-176 0 -339.5 -88.5t-277.5 -242.5t-150 -339q-30 -148 -1.5 -271t99 -211.5t184.5 -138t256 -49.5q247 0 448 118q19 10 34.5 5t20.5 -22l30 -123q4 -14 -3.5 -27.5t-20.5 -20.5z" />
<glyph unicode="A" horiz-adv-x="1788" d="M1082 241h-484l-104 -213q-15 -28 -43 -28h-494q-22 0 -31 16t3 37l724 1309q21 38 62 38h702q40 0 46 -38l216 -1309q3 -21 -11.5 -37t-36.5 -16h-494q-30 0 -33 28zM772 600h276l-47 466z" />
<glyph unicode="B" horiz-adv-x="1664" d="M774 0h-715q-16 0 -25.5 11.5t-6.5 28.5l257 1320q3 17 17 28.5t30 11.5h687q338 0 499.5 -95.5t123.5 -286.5q-38 -194 -226 -272q109 -31 156.5 -117t25.5 -197q-83 -432 -823 -432zM606 300h212q100 0 158 37.5t70 98.5t-31.5 98.5t-143.5 37.5h-212zM953 1100h-192 l-45 -232h192q172 0 195 116q11 53 -24 84.5t-126 31.5z" />
<glyph unicode="C" horiz-adv-x="1544" d="M1386 382q20 6 33.5 -4t12.5 -30l-25 -258q-1 -19 -14 -33.5t-30 -19.5q-213 -61 -492 -61q-437 0 -639.5 191.5t-135.5 534.5t344 532.5t714 189.5q261 0 454 -65q15 -6 22.5 -19.5t1.5 -32.5l-75 -254q-6 -20 -24 -30t-35 -4q-132 45 -296 45q-242 0 -378 -89 t-172 -273t69 -275t348 -91q173 0 317 46z" />
<glyph unicode="D" horiz-adv-x="1722" d="M1698 700q-69 -344 -329 -522t-668 -178h-640q-17 0 -26.5 12t-6.5 28l257 1320q3 16 17 28t31 12h640q407 0 598.5 -179t126.5 -521zM1142 700q38 198 -18.5 279t-208.5 81h-137l-140 -720h137q152 0 240.5 81.5t126.5 278.5z" />
<glyph unicode="E" horiz-adv-x="1476" d="M28 40l257 1320q3 16 17 28t31 12h1182q16 0 25 -11.5t6 -28.5l-51 -260q-3 -17 -16.5 -28.5t-29.5 -11.5h-671l-37 -186h618q17 0 26.5 -12t6.5 -28l-51 -260q-3 -16 -17 -28t-31 -12h-618l-37 -194h684q16 0 25.5 -11.5t6.5 -28.5l-51 -260q-3 -17 -17 -28.5t-30 -11.5 h-1195q-17 0 -26.5 12t-6.5 28z" />
<glyph unicode="F" horiz-adv-x="1422" d="M28 40l257 1320q3 16 17 28t31 12h1182q16 0 25 -12t6 -28l-51 -260q-3 -16 -16.5 -28t-29.5 -12h-670l-37 -188h620q16 0 25.5 -12t5.5 -28l-50 -260q-4 -17 -17.5 -28.5t-29.5 -11.5h-620l-96 -492q-3 -17 -17 -28.5t-30 -11.5h-472q-17 0 -26.5 12t-6.5 28z" />
<glyph unicode="G" horiz-adv-x="1782" d="M1654 1015q-160 57 -376 57q-554 0 -626 -372q-19 -95 4 -168t79 -116.5t133 -65.5t173 -22q91 0 157 12l37 192h-193q-16 0 -25.5 12t-5.5 28l39 201q3 16 16.5 27.5t29.5 11.5h595q16 0 25.5 -11.5t6.5 -27.5l-132 -679q-2 -11 -12.5 -22t-22.5 -15q-267 -81 -591 -81 q-484 0 -710 191t-159 533q31 161 118 293t225 228.5t335.5 149.5t437.5 53q332 0 550 -78q36 -13 24 -52l-73 -245q-6 -20 -24 -30t-35 -4z" />
<glyph unicode="H" horiz-adv-x="1820" d="M27 40l257 1320q3 16 17 28t30 12h473q16 0 25.5 -11.5t6.5 -28.5l-86 -440h476l86 440q3 16 17 28t31 12h472q16 0 25.5 -11.5t6.5 -28.5l-257 -1320q-3 -17 -17 -28.5t-30 -11.5h-472q-17 0 -26.5 12t-6.5 28l101 520h-476l-101 -520q-3 -17 -17 -28.5t-30 -11.5h-473 q-16 0 -25.5 12t-6.5 28z" />
<glyph unicode="I" horiz-adv-x="812" d="M341 1400h473q16 0 25.5 -11.5t6.5 -28.5l-257 -1320q-3 -17 -17 -28.5t-30 -11.5h-473q-16 0 -25.5 12t-6.5 28l257 1320q3 16 17 28t30 12z" />
<glyph unicode="J" horiz-adv-x="1270" d="M593 492l169 868q3 16 17 28t31 12h472q16 0 25.5 -11.5t6.5 -28.5l-168 -864q-51 -262 -250.5 -391t-556.5 -129q-243 0 -394 48q-11 4 -17 15.5t-3 24.5l77 277q5 20 23 30.5t36 3.5q95 -37 230 -37q140 0 213 36t89 118z" />
<glyph unicode="K" horiz-adv-x="1802" d="M837 1360l-99 -508l505 512q36 36 78 36h509q27 0 32.5 -22.5t-15.5 -42.5l-605 -587l437 -683q14 -20 -0.5 -42.5t-41.5 -22.5h-543q-40 0 -52 25l-340 640l-122 -625q-3 -17 -17 -28.5t-30 -11.5h-472q-17 0 -26.5 12t-6.5 28l257 1320q3 16 17 28t31 12h472 q16 0 25.5 -11.5t6.5 -28.5z" />
<glyph unicode="L" horiz-adv-x="1450" d="M27 40l257 1320q3 16 17 28t30 12h473q16 0 25.5 -11.5t6.5 -28.5l-195 -1000h718q17 0 26.5 -11.5t6.5 -27.5l-55 -281q-3 -17 -17 -28.5t-30 -11.5h-1231q-16 0 -25.5 12t-6.5 28z" />
<glyph unicode="M" horiz-adv-x="2240" d="M1269 400h-344q-37 0 -51 29l-220 406l-155 -795q-3 -17 -17 -28.5t-30 -11.5h-391q-17 0 -26.5 12t-6.5 28l257 1320q3 16 17 28t31 12h526q38 0 52 -32l269 -544l479 544q28 32 66 32h526q16 0 25.5 -11.5t6.5 -28.5l-257 -1320q-3 -17 -17 -28.5t-30 -11.5h-391 q-17 0 -26.5 12t-6.5 28l155 795l-378 -406q-27 -29 -63 -29z" />
<glyph unicode="N" horiz-adv-x="1866" d="M1032 35l-388 749l-145 -744q-3 -16 -16.5 -28t-29.5 -12h-393q-16 0 -25.5 12t-6.5 28l257 1320q3 16 17 28t30 12h515q41 0 59 -35l388 -749l145 744q3 16 17 28t30 12h393q16 0 25 -12t6 -28l-257 -1320q-3 -16 -16.5 -28t-29.5 -12h-515q-42 0 -60 35z" />
<glyph unicode="O" horiz-adv-x="1808" d="M1784 700q-31 -161 -110 -292.5t-200.5 -228.5t-294 -150t-380.5 -53q-139 0 -253.5 24t-197.5 69.5t-143 109.5t-89 144.5t-36 175.5t16 201q31 160 110 292t200.5 228.5t294 150t379.5 53.5q167 0 298.5 -34.5t217.5 -98t138.5 -153.5t62 -200t-12.5 -238zM652 700 q-38 -192 14 -286t200 -94q147 0 235.5 94t126.5 286q37 192 -15 286t-200 94q-147 0 -235.5 -94t-125.5 -286z" />
<glyph unicode="P" horiz-adv-x="1580" d="M1615 902q-33 -169 -145.5 -282t-284 -164.5t-400.5 -51.5h-159l-71 -364q-3 -17 -17 -28.5t-30 -11.5h-447q-17 0 -26.5 12t-6.5 28l257 1320q3 16 17 28t31 12h646q171 0 298.5 -29t212.5 -89t117.5 -156t7.5 -224zM1131 902q18 91 -35 129.5t-160 38.5h-181l-65 -336 h181q227 0 260 168z" />
<glyph unicode="Q" horiz-adv-x="1808" d="M652 700q-38 -192 14 -286t200 -94q147 0 235.5 94t126.5 286q37 192 -15 286t-200 94q-147 0 -235.5 -94t-125.5 -286zM637 -14q-325 39 -461.5 229.5t-79.5 484.5q31 160 110 292t200.5 228.5t294 150t379.5 53.5q167 0 298.5 -34.5t217.5 -98t138.5 -153.5t62 -200 t-12.5 -238q-51 -261 -226.5 -443.5t-454.5 -248.5q11 -42 60.5 -60t152.5 -18t184 16q18 4 29 -7t9 -29l-17 -223q-1 -16 -11 -28.5t-26 -14.5q-161 -24 -290 -24q-248 0 -391 88q-148 90 -166 278z" />
<glyph unicode="R" horiz-adv-x="1676" d="M1171 512l360 -444q16 -20 1.5 -44t-42.5 -24h-443q-78 0 -117 57l-293 408l-83 -425q-3 -16 -16.5 -28t-29.5 -12h-449q-16 0 -25.5 12t-6.5 28l257 1320q3 16 17 28t30 12h647q351 0 520 -113t123 -351q-62 -325 -450 -424zM1089 936q14 73 -35.5 108.5t-142.5 35.5 h-154l-56 -288h154q93 0 156.5 35.5t77.5 108.5z" />
<glyph unicode="S" horiz-adv-x="1464" d="M13 52q-12 4 -18 16.5t-2 24.5l85 284q6 20 24 30t35 3q191 -76 447 -76q94 0 147.5 8.5t71.5 22t22 35.5q4 19 -18 35.5t-94.5 41.5t-214.5 61q-206 53 -289.5 158.5t-50.5 275.5q45 229 232.5 340.5t533.5 111.5q313 0 521 -59q13 -4 19 -16t2 -26l-80 -278 q-6 -20 -22 -30.5t-33 -4.5q-156 52 -385 52q-126 0 -173 -14.5t-54 -49.5q-4 -21 16.5 -37t91.5 -41t219 -66q208 -58 290.5 -159.5t49.5 -272.5q-44 -225 -235.5 -335.5t-571.5 -110.5q-329 0 -566 76z" />
<glyph unicode="T" horiz-adv-x="1460" d="M361 40l195 1000h-394q-17 0 -26.5 11.5t-6.5 27.5l55 281q3 16 17 28t31 12h1340q16 0 25.5 -11.5t6.5 -28.5l-55 -281q-3 -16 -16.5 -27.5t-30.5 -11.5h-394l-195 -1000q-3 -16 -16.5 -28t-29.5 -12h-473q-17 0 -26.5 12t-6.5 28z" />
<glyph unicode="U" horiz-adv-x="1828" d="M809 -24q-246 0 -409 68t-233 208.5t-30 345.5l148 762q3 16 17 28t31 12h475q16 0 25.5 -11.5t6.5 -28.5l-151 -776q-25 -129 22 -186.5t169 -57.5q121 0 190.5 57.5t94.5 186.5l151 776q3 16 17 28t31 12h475q16 0 25.5 -11.5t6.5 -28.5l-148 -762 q-60 -306 -300.5 -464t-613.5 -158z" />
<glyph unicode="V" horiz-adv-x="1828" d="M1157 0h-686q-23 0 -38 11.5t-18 30.5l-216 1305q-3 21 12 37t37 16h469q57 0 61 -44l100 -1022l498 1022q21 44 79 44h469q23 0 31 -16t-4 -37l-722 -1305q-25 -42 -72 -42z" />
<glyph unicode="W" horiz-adv-x="2504" d="M1171 1400h506q22 0 34.5 -14.5t11.5 -38.5l-4 -905l376 927q5 13 18.5 22t26.5 9h464q21 0 29 -16t-2 -35l-631 -1304q-22 -45 -68 -45h-555q-51 0 -49 54l10 905l-342 -905q-21 -54 -69 -54h-555q-23 0 -36.5 13t-15.5 32l-123 1304q-2 20 12 35.5t35 15.5h464 q13 0 22.5 -9t10.5 -22l14 -927l348 905q22 53 68 53z" />
<glyph unicode="X" horiz-adv-x="1780" d="M1054 29l-192 344l-326 -344q-27 -29 -67 -29h-476q-26 0 -32.5 23t14.5 44l637 644l-370 622q-13 21 2.5 44t41.5 23h476q18 0 34 -9t22 -20l177 -316l299 316q29 29 68 29h476q26 0 32 -23t-14 -44l-612 -622l387 -644q12 -21 -3 -44t-41 -23h-476q-18 0 -34 9t-23 20z " />
<glyph unicode="Y" horiz-adv-x="1832" d="M1053 0h-474q-16 0 -25.5 12t-6.5 28l98 501l-421 796q-10 21 5 42t40 21h447q60 0 76 -38l200 -452l376 452q32 38 92 38h447q26 0 32 -21t-13 -42l-729 -796l-98 -501q-3 -16 -16.5 -28t-29.5 -12z" />
<glyph unicode="Z" horiz-adv-x="1440" d="M-43 40l47 239q15 77 72 128l702 633h-554q-17 0 -26.5 11.5t-6.5 27.5l55 281q3 16 17 28t31 12h1205q16 0 25 -12t6 -28l-51 -261q-10 -53 -70 -108l-705 -631h615q17 0 26.5 -11.5t6.5 -27.5l-55 -281q-3 -17 -17 -28.5t-30 -11.5h-1260q-17 0 -26.5 12t-6.5 28z" />
<glyph unicode="[" horiz-adv-x="1008" d="M57 -221l326 1682q4 16 17.5 27.5t29.5 11.5h690q16 0 25.5 -11.5t5.5 -27.5l-43 -222q-3 -16 -16.5 -27.5t-29.5 -11.5h-303l-226 -1160h303q16 0 25.5 -11.5t6.5 -27.5l-43 -222q-4 -16 -17.5 -27.5t-29.5 -11.5h-690q-16 0 -25.5 11.5t-5.5 27.5z" />
<glyph unicode="\" horiz-adv-x="1362" d="M820 -173l-646 1610q-9 21 5 40t39 19h298q55 0 73 -47l646 -1610q9 -21 -5 -40t-39 -19h-298q-55 0 -73 47z" />
<glyph unicode="]" horiz-adv-x="1008" d="M991 1461l-326 -1682q-4 -16 -17.5 -27.5t-29.5 -11.5h-690q-16 0 -25 11.5t-5 27.5l42 222q3 16 16.5 27.5t29.5 11.5h303l226 1160h-303q-16 0 -25.5 11.5t-6.5 27.5l43 222q4 16 17.5 27.5t29.5 11.5h690q16 0 25.5 -11.5t5.5 -27.5z" />
<glyph unicode="^" horiz-adv-x="1284" d="M464 1400h416q39 0 58 -37l305 -568q11 -20 0 -38.5t-34 -18.5h-300q-39 0 -59 38l-178 342l-178 -342q-20 -38 -59 -38h-300q-23 0 -34 18.5t0 38.5l305 568q19 37 58 37z" />
<glyph unicode="_" horiz-adv-x="1000" d="M-158 -302l11 59q3 16 17 27.5t30 11.5h921q16 0 25 -11.5t6 -27.5l-11 -59q-3 -16 -17 -27t-30 -11h-921q-16 0 -25 11t-6 27z" />
<glyph unicode="`" horiz-adv-x="1080" d="M757 1445l174 -260q14 -20 -1 -42.5t-42 -22.5h-192q-44 0 -81 32l-266 239q-16 14 -2.5 41.5t40.5 27.5h325q37 0 45 -15z" />
<glyph unicode="a" horiz-adv-x="1552" d="M900 200h-372l-75 -170q-13 -30 -44 -30h-453q-22 0 -31 16t3 37l595 1110q5 10 19 18.5t25 8.5h680q11 0 21.5 -8t12.5 -19l163 -1110q3 -21 -11.5 -37t-36.5 -16h-453q-13 0 -23 8t-11 22zM673 520h208l-26 402z" />
<glyph unicode="b" horiz-adv-x="1440" d="M656 0h-616q-17 0 -26.5 12t-6.5 28l216 1110q3 16 17 28t31 12h594q294 0 435 -83t109 -247q-31 -153 -178 -224q85 -35 121.5 -105.5t19.5 -156.5q-72 -374 -716 -374zM551 276h166q138 0 159 106q9 49 -19 76.5t-99 27.5h-166zM844 918h-168l-35 -182h168 q114 0 131 92q9 46 -12.5 68t-83.5 22z" />
<glyph unicode="c" horiz-adv-x="1326" d="M1164 34q-208 -58 -439 -58q-376 0 -551.5 164t-118.5 456q57 293 295.5 455.5t616.5 162.5q214 0 401 -60q12 -4 20 -17.5t4 -26.5l-71 -240q-7 -21 -25.5 -30.5t-37.5 -1.5q-122 50 -256 50q-187 0 -292.5 -71.5t-134.5 -220.5q-28 -148 52 -221t267 -73q140 0 281 49 q21 8 36 -2t14 -30l-24 -243q-1 -13 -12 -25.5t-25 -16.5z" />
<glyph unicode="d" horiz-adv-x="1488" d="M594 0h-553q-17 0 -27 11.5t-7 28.5l216 1110q3 17 17.5 28.5t31.5 11.5h553q352 0 517.5 -151.5t110.5 -444.5q-58 -292 -282.5 -443t-576.5 -151zM933 594q31 157 -10 221.5t-154 64.5h-82l-112 -572h82q113 0 179 65t97 221z" />
<glyph unicode="e" horiz-adv-x="1278" d="M7 40l216 1110q3 16 17 28t31 12h1026q17 0 26 -11.5t6 -28.5l-44 -229q-4 -17 -17.5 -29t-30.5 -12h-548l-25 -128h504q16 0 25.5 -11.5t6.5 -28.5l-44 -228q-4 -17 -18 -28.5t-30 -11.5h-504l-27 -136h559q17 0 27 -11.5t7 -28.5l-45 -228q-3 -17 -17 -28.5t-31 -11.5 h-1037q-17 0 -26.5 12t-6.5 28z" />
<glyph unicode="f" horiz-adv-x="1256" d="M7 40l216 1110q3 16 17 28t31 12h1026q16 0 25.5 -11.5t6.5 -28.5l-44 -229q-4 -17 -18 -29t-30 -12h-548l-31 -158h506q17 0 26 -11.5t6 -28.5l-45 -230q-3 -17 -16.5 -28.5t-30.5 -11.5h-506l-73 -372q-3 -17 -17 -28.5t-30 -11.5h-438q-17 0 -26.5 12t-6.5 28z" />
<glyph unicode="g" horiz-adv-x="1530" d="M974 299l29 153h-154q-16 0 -25.5 11.5t-6.5 28.5l33 170q4 17 17.5 28.5t30.5 11.5h537q17 0 27 -11.5t6 -28.5l-112 -577q-2 -12 -13.5 -23.5t-22.5 -14.5q-247 -71 -514 -71q-419 0 -613.5 163t-137.5 455q55 285 303 452.5t658 167.5q288 0 486 -72q28 -9 18 -42 l-66 -230q-7 -20 -25.5 -30t-36.5 -3q-149 59 -325 59q-211 0 -335 -72.5t-155 -229.5q-15 -77 2 -136t60 -94t102 -52.5t132 -17.5q36 0 101 5z" />
<glyph unicode="h" horiz-adv-x="1568" d="M7 40l216 1110q3 16 17 28t31 12h438q16 0 25.5 -11.5t6.5 -28.5l-70 -358h332l70 358q3 17 17 28.5t31 11.5h438q16 0 25.5 -11.5t6.5 -28.5l-216 -1110q-3 -17 -17 -28.5t-30 -11.5h-438q-17 0 -26.5 11.5t-6.5 28.5l83 426h-332l-83 -426q-3 -17 -17 -28.5t-30 -11.5 h-438q-17 0 -26.5 12t-6.5 28z" />
<glyph unicode="i" horiz-adv-x="738" d="M281 1190h438q17 0 26 -11.5t6 -28.5l-216 -1110q-3 -17 -16.5 -28.5t-30.5 -11.5h-438q-17 0 -26.5 12t-6.5 28l216 1110q3 16 17 28t31 12z" />
<glyph unicode="j" horiz-adv-x="1110" d="M473 418l142 732q3 17 17.5 28.5t31.5 11.5h437q16 0 25.5 -11.5t6.5 -28.5l-141 -728q-44 -224 -218 -335t-485 -111q-205 0 -351 44q-11 4 -17 16.5t-2 25.5l68 248q6 21 25 31t37 2q98 -39 208 -39q100 0 152 26.5t64 87.5z" />
<glyph unicode="k" horiz-adv-x="1568" d="M741 1150l-69 -354l363 370q24 24 61 24h464q28 0 33.5 -22.5t-15.5 -43.5l-501 -488l361 -571q14 -21 -0.5 -43t-42.5 -22h-482q-18 0 -36 9.5t-25 23.5l-241 449l-86 -442q-3 -17 -17 -28.5t-30 -11.5h-438q-17 0 -26.5 12t-6.5 28l216 1110q3 16 17 28t31 12h438 q16 0 25.5 -11.5t6.5 -28.5z" />
<glyph unicode="l" horiz-adv-x="1262" d="M7 40l216 1110q3 16 17 28t31 12h438q17 0 26 -11.5t6 -28.5l-160 -824h588q17 0 26.5 -11.5t5.5 -28.5l-48 -246q-3 -17 -17 -28.5t-30 -11.5h-1066q-17 0 -26.5 12t-6.5 28z" />
<glyph unicode="m" horiz-adv-x="1920" d="M1085 332h-322q-31 0 -48 33l-139 285l-119 -610q-3 -17 -17 -28.5t-30 -11.5h-370q-17 0 -26.5 11.5t-6.5 28.5l216 1110q3 17 17 28.5t31 11.5h463q19 0 30 -17l233 -465l415 465q15 17 36 17h463q17 0 26 -11.5t6 -28.5l-216 -1110q-3 -17 -16.5 -28.5t-30.5 -11.5 h-370q-17 0 -26.5 12t-6.5 28l119 610l-251 -285q-28 -33 -60 -33z" />
<glyph unicode="n" horiz-adv-x="1608" d="M857 18l-284 618l-116 -596q-3 -17 -16.5 -28.5t-30.5 -11.5h-370q-17 0 -26.5 12t-6.5 28l216 1110q3 16 17 28t31 12h480q8 0 17.5 -6t12.5 -13l282 -619l116 598q3 17 17 28.5t31 11.5h372q16 0 25.5 -11.5t6.5 -28.5l-216 -1110q-3 -17 -17 -28.5t-30 -11.5h-480 q-8 0 -18 5.5t-13 12.5z" />
<glyph unicode="o" horiz-adv-x="1544" d="M1519 594q-36 -183 -142 -320t-288.5 -217.5t-421.5 -80.5q-144 0 -258.5 29.5t-189 84t-120.5 131.5t-54.5 170.5t10.5 202.5q54 281 275 450.5t577 169.5q144 0 258.5 -29.5t189 -84.5t120.5 -131.5t54.5 -171t-10.5 -203.5zM577 594q-30 -152 6.5 -228t144.5 -76 t173.5 76t95.5 228q30 154 -6.5 230t-144.5 76t-173.5 -76t-95.5 -230z" />
<glyph unicode="p" horiz-adv-x="1374" d="M561 336l-58 -296q-3 -17 -17 -28.5t-30 -11.5h-416q-17 0 -26.5 11.5t-6.5 28.5l216 1110q3 17 17 28.5t31 11.5h560q305 0 451 -105t104 -323q-28 -145 -126 -241.5t-246.5 -140.5t-348.5 -44h-104zM910 762q27 138 -134 138h-106l-52 -272h106q160 0 186 134z" />
<glyph unicode="q" horiz-adv-x="1544" d="M1519 594q-43 -220 -189.5 -374t-383.5 -212q18 -50 151 -50q96 0 172 15q19 4 31.5 -6t11.5 -28l-12 -189q-1 -16 -13 -29t-29 -16q-128 -21 -258 -21q-221 0 -345 78q-68 43 -104 97t-46 128q-271 38 -384.5 200t-65.5 407q54 281 275 450.5t577 169.5 q144 0 258.5 -29.5t189 -84.5t120.5 -131.5t54.5 -171t-10.5 -203.5zM577 594q-30 -152 6.5 -228t144.5 -76t173.5 76t95.5 228q30 154 -6.5 230t-144.5 76t-173.5 -76t-95.5 -230z" />
<glyph unicode="r" horiz-adv-x="1458" d="M1399 788q-52 -262 -343 -354l268 -367q15 -20 0.5 -43.5t-42.5 -23.5h-463q-18 0 -29 15l-221 361l-66 -336q-3 -17 -16.5 -28.5t-30.5 -11.5h-416q-17 0 -26.5 12t-6.5 28l216 1110q3 16 17 28t31 12h570q306 0 451.5 -98.5t106.5 -303.5zM920 776q12 62 -20.5 93 t-95.5 31h-134l-48 -250h134q63 0 107.5 31.5t56.5 94.5z" />
<glyph unicode="s" horiz-adv-x="1268" d="M1138 835q-155 51 -342 51q-81 0 -112.5 -9t-35.5 -31q-2 -10 6.5 -19t36 -21.5t76.5 -29t132 -40.5q175 -51 252.5 -142t50.5 -232q-25 -129 -103.5 -213t-227.5 -128.5t-372 -44.5q-281 0 -492 66q-12 4 -18.5 16.5t-2.5 25.5l74 254q7 21 24.5 30.5t36.5 2.5 q185 -71 387 -71q96 0 130 11t38 33q3 13 -13.5 25t-73 31.5t-162.5 47.5q-182 47 -257 138t-47 236q38 198 202.5 295t465.5 97q265 0 456 -55q13 -4 19 -16t2 -26l-71 -248q-5 -19 -23 -29.5t-36 -4.5z" />
<glyph unicode="t" horiz-adv-x="1298" d="M297 40l160 824h-320q-17 0 -26 11.5t-6 28.5l48 246q3 16 17 28t31 12h1157q17 0 26.5 -11.5t6.5 -28.5l-48 -246q-3 -17 -17.5 -28.5t-31.5 -11.5h-319l-160 -824q-3 -17 -17 -28.5t-30 -11.5h-438q-17 0 -26.5 12t-6.5 28z" />
<glyph unicode="u" horiz-adv-x="1576" d="M683 -24q-323 0 -479.5 134.5t-105.5 395.5l125 644q3 16 17 28t31 12h440q16 0 25.5 -11.5t6.5 -28.5l-127 -656q-20 -99 13 -144.5t118 -45.5t135 45.5t70 144.5l127 656q3 16 17 28t31 12h440q16 0 25.5 -11.5t6.5 -28.5l-125 -644q-51 -261 -259 -395.5t-532 -134.5z " />
<glyph unicode="v" horiz-adv-x="1584" d="M1033 0h-682q-11 0 -21.5 8.5t-11.5 18.5l-162 1110q-4 21 11 37t37 16h452q12 0 22 -9t11 -21l55 -892l401 892q5 12 19 21t26 9h452q22 0 30.5 -16t-2.5 -37l-594 -1110q-6 -11 -19 -19t-24 -8z" />
<glyph unicode="w" horiz-adv-x="2148" d="M984 1190h442q14 0 23.5 -10t9.5 -23l-2 -748l284 748q5 13 19 23t27 10h424q21 0 29 -15t-1 -35l-518 -1110q-5 -12 -18 -21t-25 -9h-532q-14 0 -23.5 10t-9.5 24l11 739l-277 -739q-5 -14 -18 -24t-27 -10h-532q-12 0 -22 9t-11 21l-86 1110q-2 20 12.5 35t35.5 15h424 q13 0 23 -10t9 -23l-6 -748l288 748q6 14 20 23.5t27 9.5z" />
<glyph unicode="x" horiz-adv-x="1568" d="M741 297l-249 -271q-28 -26 -53 -26h-449q-26 0 -33 22t14 42l528 544l-300 518q-12 21 3 42.5t41 21.5h449q28 0 43 -26l127 -244l223 244q24 26 53 26h449q26 0 32.5 -21.5t-14.5 -42.5l-501 -518l317 -544q13 -20 -2 -42t-41 -22h-449q-26 0 -43 26z" />
<glyph unicode="y" horiz-adv-x="1600" d="M918 0h-436q-17 0 -26.5 11.5t-6.5 28.5l82 423l-350 664q-11 21 4 42t41 21h435q30 0 45 -31l152 -343l286 343q24 31 57 31h435q26 0 33 -21t-12 -42l-610 -664l-82 -423q-3 -17 -16.5 -28.5t-30.5 -11.5z" />
<glyph unicode="z" horiz-adv-x="1238" d="M-61 40l36 183q17 92 98 165l534 476h-440q-17 0 -26 11.5t-6 28.5l48 246q3 17 17 28.5t31 11.5h1046q17 0 26 -11.5t6 -28.5l-40 -204q-12 -66 -73 -121l-559 -499h492q17 0 26.5 -11.5t5.5 -28.5l-48 -246q-3 -17 -17 -28.5t-30 -11.5h-1094q-17 0 -26.5 12t-6.5 28z " />
<glyph unicode="{" horiz-adv-x="1034" d="M118 506l44 228q2 13 13.5 24.5t23.5 13.5q61 14 113 66.5t68 131.5l54 279q24 123 114 187t221 64h377q16 0 25.5 -11.5t5.5 -27.5l-43 -222q-3 -16 -16.5 -27.5t-29.5 -11.5h-161q-77 0 -91 -78l-45 -229q-42 -220 -277 -273q214 -52 171 -273l-45 -229 q-8 -41 6.5 -59.5t54.5 -18.5h161q16 0 25.5 -11.5t6.5 -27.5l-43 -222q-4 -16 -17.5 -27.5t-29.5 -11.5h-377q-131 0 -196 64t-41 187l54 279q16 78 -16.5 131t-88.5 67q-11 2 -17 13.5t-4 24.5z" />
<glyph unicode="|" horiz-adv-x="632" d="M190 -361v1860q0 16 11.5 27.5t27.5 11.5h234q16 0 27.5 -11.5t11.5 -27.5v-1860q0 -16 -11.5 -27.5t-27.5 -11.5h-234q-16 0 -27.5 11.5t-11.5 27.5z" />
<glyph unicode="}" horiz-adv-x="1034" d="M956 734l-44 -228q-2 -13 -13.5 -24.5t-23.5 -13.5q-61 -14 -113 -66.5t-68 -131.5l-54 -279q-24 -123 -114 -187t-221 -64h-377q-16 0 -25 11.5t-5 27.5l42 222q3 16 16.5 27.5t29.5 11.5h161q77 0 91 78l45 229q42 220 277 273q-214 52 -171 273l45 229q8 41 -6.5 59.5 t-54.5 18.5h-161q-16 0 -25.5 11.5t-6.5 27.5l43 222q4 16 17.5 27.5t29.5 11.5h377q131 0 196 -64t41 -187l-54 -279q-16 -78 16.5 -131t88.5 -67q11 -2 17 -13.5t4 -24.5z" />
<glyph unicode="~" horiz-adv-x="1284" d="M742 473q-122 45 -175 45q-65 0 -78 -53q-3 -12 -14 -20.5t-24 -8.5h-301q-16 0 -27.5 11t-11.5 28q5 215 75 319t219 104q83 0 197 -41q122 -45 175 -45q65 0 78 53q3 12 14 20.5t24 8.5h301q16 0 27.5 -11t11.5 -28q-5 -215 -75 -319t-219 -104q-83 0 -197 41z" />
<glyph unicode="&#xa1;" horiz-adv-x="800" d="M41 58l170 601q4 15 17 25t28 10h356q14 0 23.5 -10.5t8.5 -25.5l-63 -598l-50 -256q-3 -16 -16 -27t-29 -11h-463q-16 0 -25.5 11t-6.5 27zM531 1190q147 0 199 -47.5t33 -146.5t-90 -146.5t-218 -47.5t-199 47.5t-33 146.5t90 146.5t218 47.5z" />
<glyph unicode="&#xa2;" horiz-adv-x="1326" d="M1164 34q-160 -45 -339 -55l-33 -173q-3 -16 -17 -28t-31 -12h-216q-16 0 -25.5 11.5t-6.5 28.5l35 183q-278 40 -401.5 198t-74.5 409q50 252 233.5 408.5t478.5 196.5l36 183q3 17 17 28.5t30 11.5h216q17 0 26.5 -12t6.5 -28l-34 -174q164 -12 303 -56q12 -4 20 -17.5 t4 -26.5l-71 -240q-7 -21 -25.5 -30.5t-37.5 -1.5q-122 50 -256 50q-187 0 -292.5 -71.5t-134.5 -220.5q-28 -148 52 -221t267 -73q140 0 281 49q21 8 36 -2t14 -30l-24 -243q-1 -13 -12 -25.5t-25 -16.5z" />
<glyph unicode="&#xa3;" horiz-adv-x="1398" d="M127 770h116l38 195q47 241 221 350t498 109q247 0 426 -58q12 -3 18 -15.5t2 -25.5l-72 -246q-6 -21 -23.5 -30t-35.5 -2q-97 35 -216 35q-136 0 -197.5 -34t-74.5 -103l-34 -175h329q16 0 25.5 -11.5t6.5 -27.5l-12 -58q-3 -16 -16.5 -27.5t-29.5 -11.5h-329l-20 -100 q-12 -61 -47 -115t-90 -79h695q16 0 25 -11.5t6 -27.5l-51 -262q-3 -16 -16.5 -27.5t-29.5 -11.5h-1261q-16 0 -25 11.5t-6 27.5l54 275q4 24 31 37q66 30 109.5 74.5t52.5 92.5l23 116h-116q-16 0 -25 11.5t-6 27.5l12 58q3 16 16 27.5t29 11.5z" />
<glyph unicode="&#xa4;" horiz-adv-x="1478" d="M598 665q0 -104 44.5 -158.5t125.5 -54.5t125.5 54.5t44.5 158.5t-44.5 158.5t-125.5 54.5t-125.5 -54.5t-44.5 -158.5zM1320 665q0 -132 -56 -239l116 -116q11 -11 12 -28t-10 -28l-177 -188q-11 -12 -28 -12.5t-29 11.5l-136 136q-113 -45 -244 -45t-244 45l-136 -136 q-12 -12 -29 -11.5t-28 12.5l-177 188q-11 11 -10 28t12 28l116 116q-56 107 -56 239t56 239l-116 116q-11 11 -12 28t10 28l177 188q11 12 28 12.5t29 -11.5l136 -136q113 45 244 45t244 -45l136 136q12 12 29 11.5t28 -12.5l177 -188q11 -11 10 -28t-12 -28l-116 -116 q56 -107 56 -239z" />
<glyph unicode="&#xa5;" horiz-adv-x="1664" d="M969 0h-474q-16 0 -25.5 11.5t-6.5 27.5l50 255h-329q-16 0 -25.5 11.5t-6.5 27.5l12 58q3 17 16.5 28t29.5 11h329l23 120h-329q-16 0 -25 11.5t-6 27.5l11 59q4 16 17.5 27t29.5 11h249l-290 654q-9 21 5.5 40.5t39.5 19.5h456q20 0 30 -21l153 -495l347 495 q5 8 17 14.5t21 6.5h456q25 0 31.5 -19.5t-10.5 -40.5l-544 -654h249q17 0 26 -11t5 -27l-11 -59q-3 -16 -17 -27.5t-30 -11.5h-329l-23 -120h329q17 0 26 -11.5t6 -27.5l-12 -58q-3 -16 -16.5 -27.5t-29.5 -11.5h-329l-50 -255q-3 -16 -16.5 -27.5t-29.5 -11.5z" />
<glyph unicode="&#xa6;" horiz-adv-x="632" d="M190 735v627q0 16 11.5 27t27.5 11h234q16 0 27.5 -11t11.5 -27v-627q0 -16 -11.5 -27.5t-27.5 -11.5h-234q-16 0 -27.5 11.5t-11.5 27.5zM190 -185v626q0 16 11.5 27.5t27.5 11.5h234q16 0 27.5 -11.5t11.5 -27.5v-626q0 -16 -11.5 -27.5t-27.5 -11.5h-234 q-16 0 -27.5 11.5t-11.5 27.5z" />
<glyph unicode="&#xa7;" horiz-adv-x="1366" d="M721 522q107 29 120 92q5 29 -38 58.5t-109 39.5q-51 -13 -82.5 -37.5t-37.5 -54.5q-5 -29 38 -58.5t109 -39.5zM62 -135q-11 4 -16.5 15.5t-2.5 24.5l52 207q6 21 23.5 31t35.5 2q137 -55 317 -55q97 0 134.5 11.5t42.5 36.5q4 21 -13 39.5t-74 42t-159 50.5 q-149 40 -224 120t-51 202q18 94 79.5 163.5t146.5 106.5q-78 33 -111 98t-16 156q26 135 182 221.5t446 86.5q304 0 488 -67q11 -5 17 -17t2 -25l-59 -192q-6 -19 -22.5 -29.5t-33.5 -5.5q-112 46 -314 46q-168 0 -179 -54q-7 -36 47 -63t201 -63q153 -39 227 -116t48 -206 q-18 -93 -79.5 -162.5t-148.5 -107.5q75 -30 110.5 -95.5t19.5 -148.5q-28 -146 -181.5 -232t-447.5 -86q-281 0 -487 65z" />
<glyph unicode="&#xa8;" horiz-adv-x="1080" d="M236 1290q16 85 67.5 125.5t143.5 40.5q93 0 128.5 -40t18.5 -126t-68 -126t-144 -40q-92 0 -127 40.5t-19 125.5zM786 1290q16 85 68 125.5t145 40.5q91 0 126.5 -40t18.5 -126q-16 -85 -67 -125.5t-143 -40.5q-93 0 -129 40t-19 126z" />
<glyph unicode="&#xa9;" horiz-adv-x="1660" d="M136 700q0 197 97 363.5t263.5 263.5t363.5 97t363.5 -97t263.5 -263.5t97 -363.5t-97 -363.5t-263.5 -263.5t-363.5 -97t-363.5 97t-263.5 263.5t-97 363.5zM248 700q0 -169 82 -312t223 -225.5t307 -82.5t307 82.5t223 225.5t82 312t-82 312t-223 225.5t-307 82.5 t-307 -82.5t-223 -225.5t-82 -312zM1158 294q-85 -30 -218 -30q-245 0 -381.5 113t-136.5 319q0 205 134.5 319.5t361.5 114.5q143 0 242 -40q10 -4 17.5 -16t6.5 -23l-12 -136q-2 -23 -16.5 -34t-34.5 -3q-56 22 -119 22q-74 0 -122 -55.5t-48 -148.5q0 -94 51.5 -148 t138.5 -54q50 0 99 15q18 6 33 -5.5t17 -31.5l12 -138q1 -12 -6.5 -24t-18.5 -16z" />
<glyph unicode="&#xaa;" horiz-adv-x="1108" d="M715 762h-226l-41 -93q-6 -12 -19.5 -21.5t-25.5 -9.5h-275q-22 0 -30.5 16t2.5 37l361 682q6 10 19.5 18.5t24.5 8.5h442q11 0 21 -8.5t11 -18.5l97 -682q2 -21 -12 -37t-36 -16h-275q-13 0 -23 9.5t-10 21.5zM568 946h138l-14 281z" />
<glyph unicode="&#xab;" horiz-adv-x="1122" d="M98 508l45 232q7 30 38 55l414 325q23 19 44.5 9t16.5 -38l-51 -261q-5 -19 -19 -29l-231 -177l162 -177q10 -10 8 -29l-51 -261q-5 -28 -30.5 -38t-41.5 9l-287 325q-22 24 -17 55zM596 508l45 232q7 30 38 55l414 325q23 19 44.5 9t16.5 -38l-51 -261q-5 -19 -19 -29 l-231 -177l162 -177q10 -10 8 -29l-51 -261q-5 -28 -30.5 -38t-41.5 9l-287 325q-22 24 -17 55z" />
<glyph unicode="&#xac;" horiz-adv-x="1284" d="M100 658v224q0 16 11.5 27t27.5 11h1046q16 0 27.5 -11t11.5 -27v-545q0 -16 -11.5 -27.5t-27.5 -11.5h-310q-16 0 -27.5 11.5t-11.5 27.5v283h-697q-16 0 -27.5 11t-11.5 27z" />
<glyph unicode="&#xad;" horiz-adv-x="828" d="M706 504h-590q-16 0 -25 11.5t-6 27.5l47 242q3 16 16.5 27.5t30.5 11.5h590q16 0 25 -11.5t6 -27.5l-47 -242q-3 -16 -17 -27.5t-30 -11.5z" />
<glyph unicode="&#xae;" horiz-adv-x="1660" d="M1124 598l174 -260q14 -21 1.5 -38.5t-37.5 -17.5h-255q-32 0 -51 32l-128 225l1 -218q0 -16 -11.5 -27.5t-27.5 -11.5h-267q-16 0 -27.5 11.5t-11.5 27.5v757q0 16 11.5 27t27.5 11h407q162 0 254 -71.5t92 -204.5q0 -179 -152 -242zM928 840q0 86 -60 86h-58v-172h58 q60 0 60 86zM136 700q0 197 97 363.5t263.5 263.5t363.5 97t363.5 -97t263.5 -263.5t97 -363.5t-97 -363.5t-263.5 -263.5t-363.5 -97t-363.5 97t-263.5 263.5t-97 363.5zM248 700q0 -169 82 -312t223 -225.5t307 -82.5t307 82.5t223 225.5t82 312t-82 312t-223 225.5 t-307 82.5t-307 -82.5t-223 -225.5t-82 -312z" />
<glyph unicode="&#xaf;" horiz-adv-x="1080" d="M311 1211l30 156q3 16 17 27.5t30 11.5h651q16 0 24.5 -11.5t5.5 -27.5l-30 -156q-3 -16 -16.5 -27.5t-29.5 -11.5h-651q-16 0 -25 11.5t-6 27.5z" />
<glyph unicode="&#xb0;" horiz-adv-x="1080" d="M983 1110q-26 -135 -136.5 -224.5t-252.5 -89.5t-217.5 89.5t-49.5 224.5t136.5 224.5t252.5 89.5t217.5 -89.5t49.5 -224.5zM551 1110q-8 -44 15.5 -74t68.5 -30t80.5 30t43.5 74q9 44 -15 74t-69 30t-80 -30t-44 -74z" />
<glyph unicode="&#xb1;" horiz-adv-x="1284" d="M478 379v275h-330q-16 0 -27 11.5t-11 27.5v222q0 16 11 27.5t27 11.5h330v275q0 16 11 27.5t27 11.5h311q17 0 28 -11t11 -28v-275h329q16 0 27.5 -11.5t11.5 -27.5v-222q0 -17 -11 -28t-28 -11h-329v-275q0 -16 -11.5 -27.5t-27.5 -11.5h-311q-16 0 -27 11.5t-11 27.5z M1195 0h-1047q-16 0 -27 11.5t-11 27.5v222q0 16 11 27.5t27 11.5h1047q16 0 27.5 -11.5t11.5 -27.5v-222q0 -16 -11.5 -27.5t-27.5 -11.5z" />
<glyph unicode="&#xb2;" horiz-adv-x="1008" d="M154 695q174 99 303 189q91 63 137.5 111t55.5 97q10 51 -29.5 73.5t-142.5 22.5q-93 0 -181 -22q-19 -5 -29.5 5.5t-8.5 30.5l17 136q4 30 31 38q158 40 320 40q225 0 319.5 -80.5t66.5 -225.5q-33 -166 -193 -282q-119 -87 -237 -132h307q16 0 25 -11.5t6 -27.5 l-29 -148q-3 -17 -16.5 -28t-29.5 -11h-726q-16 0 -25.5 11.5t-6.5 27.5l29 147q5 21 37 39z" />
<glyph unicode="&#xb3;" horiz-adv-x="1008" d="M111 496q-12 4 -19 16t-3 24l41 138q6 20 23.5 30t34.5 3q98 -39 217 -39q196 0 212 78q10 53 -58.5 80t-242.5 29q-16 0 -25 11.5t-6 27.5l24 123q3 16 14.5 26.5t27.5 10.5q167 2 243.5 23t84.5 63q7 33 -32.5 47.5t-133.5 14.5q-111 0 -216 -28q-19 -5 -31.5 5.5 t-10.5 29.5l11 124q1 13 11 25t24 16q139 42 346 42q206 0 309 -66t78 -194q-29 -148 -189 -202q73 -26 106.5 -80t19.5 -128q-27 -137 -169.5 -214.5t-365.5 -77.5q-174 0 -325 42z" />
<glyph unicode="&#xb4;" horiz-adv-x="1080" d="M409 1185l274 260q16 15 51 15h325q18 0 26 -13t4 -30t-18 -26l-360 -239q-46 -32 -93 -32h-192q-27 0 -32.5 22.5t15.5 42.5z" />
<glyph unicode="&#xb5;" horiz-adv-x="1920" d="M1085 332h-322q-31 0 -48 33l-139 285l-119 -610q-3 -17 -17 -28.5t-30 -11.5h-370q-17 0 -26.5 11.5t-6.5 28.5l216 1110q3 17 17 28.5t31 11.5h463q19 0 30 -17l233 -465l415 465q15 17 36 17h463q17 0 26 -11.5t6 -28.5l-216 -1110q-3 -17 -16.5 -28.5t-30.5 -11.5 h-370q-17 0 -26.5 12t-6.5 28l119 610l-251 -285q-28 -33 -60 -33z" />
<glyph unicode="&#xb6;" horiz-adv-x="1360" d="M1270 1400v-1623q0 -16 -11.5 -27.5t-27.5 -11.5h-238q-16 0 -27.5 11.5t-11.5 27.5v1373h-76v-1373q0 -16 -11.5 -27.5t-27.5 -11.5h-246q-16 0 -27.5 11.5t-11.5 27.5v755h-10q-201 0 -327.5 115.5t-126.5 318.5t126.5 318.5t327.5 115.5h726z" />
<glyph unicode="&#xb7;" horiz-adv-x="744" d="M358 446q-119 0 -166 53.5t-25 164.5q41 218 276 218q119 0 166 -53.5t26 -164.5q-22 -111 -90 -164.5t-187 -53.5z" />
<glyph unicode="&#xb8;" horiz-adv-x="1080" d="M208 -199q-50 1 -21 37l122 145q17 17 36 17h196q25 0 33 -18t-10 -39l-46 -53q64 -13 101.5 -56t25.5 -102q-40 -208 -400 -208q-58 0 -124 8q-14 1 -19.5 12.5t-3.5 26.5l16 83q4 19 17 30.5t30 8.5q33 -5 68 -5q134 0 143 48q3 16 -9.5 29t-51.5 23.5t-103 12.5z" />
<glyph unicode="&#xb9;" horiz-adv-x="1008" d="M240 1191l320 192q34 19 67 19h252q17 0 26 -11.5t5 -27.5l-166 -854q-3 -17 -16.5 -28t-29.5 -11h-275q-16 0 -25 11.5t-6 27.5l115 589l-181 -107q-15 -8 -30 -4.5t-21 16.5l-58 132q-6 14 0.5 30.5t22.5 25.5z" />
<glyph unicode="&#xba;" horiz-adv-x="1108" d="M727 1416q230 0 347 -107.5t82 -288.5t-194 -288.5t-389 -107.5q-227 0 -343.5 107.5t-81.5 288.5t193.5 288.5t385.5 107.5zM614 836q123 0 158 184q36 186 -86 186q-118 0 -154 -186q-35 -184 82 -184z" />
<glyph unicode="&#xbb;" horiz-adv-x="1122" d="M1065 740l-45 -232q-5 -28 -37 -55l-415 -325q-23 -19 -44 -9t-16 38l51 261q1 6 7 15.5t11 13.5l232 177l-163 177q-11 11 -7 29l51 261q5 28 30 38t41 -9l288 -325q22 -26 16 -55zM567 740l-45 -232q-5 -28 -37 -55l-415 -325q-23 -19 -44 -9t-16 38l51 261q1 6 7 15.5 t11 13.5l232 177l-163 177q-11 11 -7 29l51 261q5 28 30 38t41 -9l288 -325q22 -26 16 -55z" />
<glyph unicode="&#xbc;" horiz-adv-x="2424" d="M1921 1370l-1149 -1366q-28 -34 -70 -34h-107q-25 0 -31.5 19.5t10.5 40.5l1149 1366q28 34 70 34h107q25 0 31.5 -19.5t-10.5 -40.5zM1367 191l30 158q11 53 63 102l489 457q24 22 52 22h292q17 0 26 -11.5t6 -27.5l-97 -499h73q16 0 25 -11.5t6 -27.5l-31 -162 q-3 -16 -17 -27.5t-30 -11.5h-73l-22 -113q-3 -17 -16.5 -28t-29.5 -11h-256q-16 0 -25.5 11.5t-6.5 27.5l22 113h-449q-16 0 -25 11.5t-6 27.5zM1942 638l-260 -246h212zM240 1191l320 192q34 19 67 19h252q17 0 26 -11.5t5 -27.5l-166 -854q-3 -17 -16.5 -28t-29.5 -11 h-275q-16 0 -25 11.5t-6 27.5l115 589l-181 -107q-15 -8 -30 -4.5t-21 16.5l-58 132q-6 14 0.5 30.5t22.5 25.5z" />
<glyph unicode="&#xbd;" horiz-adv-x="2424" d="M1857 1370l-1149 -1366q-28 -34 -70 -34h-107q-25 0 -31.5 19.5t10.5 40.5l1149 1366q28 34 70 34h107q25 0 31.5 -19.5t-10.5 -40.5zM1510 223q173 98 304 189q90 63 136.5 111t55.5 97q10 51 -29 73.5t-142 22.5q-94 0 -182 -22q-19 -5 -29.5 5.5t-8.5 30.5l17 136 q4 30 31 38q158 40 320 40q226 0 320.5 -80.5t66.5 -225.5q-32 -165 -193 -282q-121 -88 -238 -132h307q16 0 25.5 -11.5t5.5 -27.5l-28 -148q-4 -17 -17.5 -28t-29.5 -11h-726q-16 0 -25.5 11.5t-5.5 27.5l28 147q5 21 37 39zM240 1191l320 192q34 19 67 19h252 q17 0 26 -11.5t5 -27.5l-166 -854q-3 -17 -16.5 -28t-29.5 -11h-275q-16 0 -25 11.5t-6 27.5l115 589l-181 -107q-15 -8 -30 -4.5t-21 16.5l-58 132q-6 14 0.5 30.5t22.5 25.5z" />
<glyph unicode="&#xbe;" horiz-adv-x="2424" d="M1957 1370l-1149 -1366q-28 -34 -70 -34h-107q-25 0 -31.5 19.5t10.5 40.5l1149 1366q28 34 70 34h107q25 0 31.5 -19.5t-10.5 -40.5zM1367 191l30 158q11 53 63 102l489 457q24 22 52 22h292q17 0 26 -11.5t6 -27.5l-97 -499h73q16 0 25 -11.5t6 -27.5l-31 -162 q-3 -16 -17 -27.5t-30 -11.5h-73l-22 -113q-3 -17 -16.5 -28t-29.5 -11h-256q-16 0 -25.5 11.5t-6.5 27.5l22 113h-449q-16 0 -25 11.5t-6 27.5zM1942 638l-260 -246h212zM111 496q-12 4 -19 16t-3 24l41 138q6 20 23.5 30t34.5 3q98 -39 217 -39q196 0 212 78 q10 53 -58.5 80t-242.5 29q-16 0 -25 11.5t-6 27.5l24 123q3 16 14.5 26.5t27.5 10.5q167 2 243.5 23t84.5 63q7 33 -32.5 47.5t-133.5 14.5q-111 0 -216 -28q-19 -5 -31.5 5.5t-10.5 29.5l11 124q1 13 11 25t24 16q139 42 346 42q206 0 309 -66t78 -194q-29 -148 -189 -202 q73 -26 106.5 -80t19.5 -128q-27 -137 -169.5 -214.5t-365.5 -77.5q-174 0 -325 42z" />
<glyph unicode="&#xbf;" horiz-adv-x="1316" d="M875 1190q147 0 199 -47.5t33 -146.5t-90 -146.5t-218 -47.5t-199 47.5t-33 146.5t90 146.5t218 47.5zM1024 669l-10 -51q-27 -137 -88.5 -217.5t-180.5 -126.5q-83 -31 -119.5 -56t-42.5 -54q-4 -24 8 -37.5t56 -22t127 -8.5q167 0 332 51q20 6 33.5 -4t11.5 -29 l-27 -260q-2 -11 -12.5 -23.5t-22.5 -16.5q-105 -34 -237 -53t-251 -19q-329 0 -471.5 98.5t-103.5 293.5q46 237 344 364q74 30 106 61t40 73l8 37q3 17 16.5 28t29.5 11h423q16 0 25 -11.5t6 -27.5z" />
<glyph unicode="&#xc0;" horiz-adv-x="1788" d="M1082 241h-484l-104 -213q-15 -28 -43 -28h-494q-22 0 -31 16t3 37l724 1309q21 38 62 38h702q40 0 46 -38l216 -1309q3 -21 -11.5 -37t-36.5 -16h-494q-30 0 -33 28zM772 600h276l-47 466zM1079 1833l173 -260q14 -20 -0.5 -42.5t-41.5 -22.5h-192q-46 0 -81 32 l-267 239q-16 14 -2 41.5t41 27.5h325q35 0 45 -15z" />
<glyph unicode="&#xc1;" horiz-adv-x="1788" d="M1082 241h-484l-104 -213q-15 -28 -43 -28h-494q-22 0 -31 16t3 37l724 1309q21 38 62 38h702q40 0 46 -38l216 -1309q3 -21 -11.5 -37t-36.5 -16h-494q-30 0 -33 28zM772 600h276l-47 466zM946 1573l275 260q15 15 51 15h325q18 0 26 -13t3.5 -30t-18.5 -26l-359 -239 q-48 -32 -93 -32h-192q-27 0 -33 22.5t15 42.5z" />
<glyph unicode="&#xc2;" horiz-adv-x="1788" d="M1082 241h-484l-104 -213q-15 -28 -43 -28h-494q-22 0 -31 16t3 37l724 1309q21 38 62 38h702q40 0 46 -38l216 -1309q3 -21 -11.5 -37t-36.5 -16h-494q-30 0 -33 28zM772 600h276l-47 466zM976 1848h354q33 0 45 -21l144 -256q11 -21 -3.5 -42t-40.5 -21h-213 q-25 0 -39 17l-107 133l-159 -133q-20 -17 -45 -17h-213q-26 0 -33 21t13 42l244 256q19 21 53 21z" />
<glyph unicode="&#xc3;" horiz-adv-x="1788" d="M1082 241h-484l-104 -213q-15 -28 -43 -28h-494q-22 0 -31 16t3 37l724 1309q21 38 62 38h702q40 0 46 -38l216 -1309q3 -21 -11.5 -37t-36.5 -16h-494q-30 0 -33 28zM772 600h276l-47 466zM1118 1546q-69 34 -123 34q-76 0 -103 -40q-14 -22 -30 -22h-134 q-17 0 -26.5 12.5t-5.5 29.5q36 139 110 208.5t176 69.5q78 0 139 -30q69 -34 123 -34q76 0 103 40q14 22 30 22h134q17 0 26.5 -12.5t5.5 -29.5q-37 -139 -111 -208.5t-175 -69.5q-78 0 -139 30z" />
<glyph unicode="&#xc4;" horiz-adv-x="1788" d="M1082 241h-484l-104 -213q-15 -28 -43 -28h-494q-22 0 -31 16t3 37l724 1309q21 38 62 38h702q40 0 46 -38l216 -1309q3 -21 -11.5 -37t-36.5 -16h-494q-30 0 -33 28zM772 600h276l-47 466zM666 1678q16 85 67 125.5t143 40.5q93 0 129 -40t19 -126q-16 -85 -68 -125.5 t-145 -40.5q-91 0 -126.5 40t-18.5 126zM1216 1678q17 86 68 126t144 40q92 0 127 -40.5t19 -125.5t-67.5 -125.5t-143.5 -40.5q-93 0 -128.5 40t-18.5 126z" />
<glyph unicode="&#xc5;" horiz-adv-x="1788" d="M1082 241h-484l-104 -213q-15 -28 -43 -28h-494q-22 0 -31 16t3 37l724 1309q21 38 62 38h702q40 0 46 -38l216 -1309q3 -21 -11.5 -37t-36.5 -16h-494q-30 0 -33 28zM772 600h276l-47 466zM1398 1678q-22 -112 -117 -189t-213 -77q-117 0 -181.5 77.5t-42.5 188.5 q21 111 115.5 188.5t211.5 77.5q118 0 183 -77t44 -189zM1040 1678q-7 -35 11.5 -57.5t52.5 -22.5q36 0 63.5 22.5t34.5 57.5t-12 57.5t-55 22.5q-34 0 -61 -22.5t-34 -57.5z" />
<glyph unicode="&#xc6;" horiz-adv-x="2360" d="M1041 40l39 200h-422l-146 -217q-6 -9 -18 -16t-22 -7h-505q-24 0 -32 18.5t8 39.5l953 1321q6 8 18.5 14.5t20.5 6.5h1461q16 0 25.5 -11.5t6.5 -28.5l-51 -260q-3 -17 -17 -28.5t-30 -11.5h-562l-37 -186h512q17 0 26.5 -12t6.5 -28l-51 -260q-3 -16 -17 -28t-31 -12 h-512l-37 -194h578q16 0 25.5 -11.5t6.5 -28.5l-51 -260q-3 -17 -17 -28.5t-30 -11.5h-1066q-17 0 -26.5 12t-6.5 28zM889 580h257l103 528z" />
<glyph unicode="&#xc7;" horiz-adv-x="1544" d="M1386 382q20 6 33.5 -4t12.5 -30l-25 -258q-1 -19 -14 -33.5t-30 -19.5q-162 -46 -366 -57l-77 -90q63 -13 100 -56t25 -102q-40 -208 -400 -208q-58 0 -124 8q-14 1 -19.5 12.5t-3.5 26.5l16 83q4 19 17 30.5t30 8.5q33 -5 68 -5q134 0 143 48q3 16 -9.5 29t-51.5 23.5 t-103 12.5q-50 1 -21 37l122 146q-354 34 -513.5 221.5t-99.5 496.5q67 343 344 532.5t714 189.5q261 0 454 -65q15 -6 22.5 -19.5t1.5 -32.5l-75 -254q-6 -20 -24 -30t-35 -4q-132 45 -296 45q-242 0 -378 -89t-172 -273t69 -275t348 -91q173 0 317 46z" />
<glyph unicode="&#xc8;" horiz-adv-x="1476" d="M28 40l257 1320q3 16 17 28t31 12h1182q16 0 25 -11.5t6 -28.5l-51 -260q-3 -17 -16.5 -28.5t-29.5 -11.5h-671l-37 -186h618q17 0 26.5 -12t6.5 -28l-51 -260q-3 -16 -17 -28t-31 -12h-618l-37 -194h684q16 0 25.5 -11.5t6.5 -28.5l-51 -260q-3 -17 -17 -28.5t-30 -11.5 h-1195q-17 0 -26.5 12t-6.5 28zM1011 1833l173 -260q14 -20 -0.5 -42.5t-41.5 -22.5h-192q-46 0 -81 32l-267 239q-16 14 -2 41.5t41 27.5h325q35 0 45 -15z" />
<glyph unicode="&#xc9;" horiz-adv-x="1476" d="M28 40l257 1320q3 16 17 28t31 12h1182q16 0 25 -11.5t6 -28.5l-51 -260q-3 -17 -16.5 -28.5t-29.5 -11.5h-671l-37 -186h618q17 0 26.5 -12t6.5 -28l-51 -260q-3 -16 -17 -28t-31 -12h-618l-37 -194h684q16 0 25.5 -11.5t6.5 -28.5l-51 -260q-3 -17 -17 -28.5t-30 -11.5 h-1195q-17 0 -26.5 12t-6.5 28zM762 1573l275 260q15 15 51 15h325q18 0 26 -13t3.5 -30t-18.5 -26l-359 -239q-48 -32 -93 -32h-192q-27 0 -33 22.5t15 42.5z" />
<glyph unicode="&#xca;" horiz-adv-x="1476" d="M28 40l257 1320q3 16 17 28t31 12h1182q16 0 25 -11.5t6 -28.5l-51 -260q-3 -17 -16.5 -28.5t-29.5 -11.5h-671l-37 -186h618q17 0 26.5 -12t6.5 -28l-51 -260q-3 -16 -17 -28t-31 -12h-618l-37 -194h684q16 0 25.5 -11.5t6.5 -28.5l-51 -260q-3 -17 -17 -28.5t-30 -11.5 h-1195q-17 0 -26.5 12t-6.5 28zM826 1848h354q33 0 45 -21l144 -256q11 -21 -3.5 -42t-40.5 -21h-213q-25 0 -39 17l-107 133l-159 -133q-20 -17 -45 -17h-213q-26 0 -33 21t13 42l244 256q19 21 53 21z" />
<glyph unicode="&#xcb;" horiz-adv-x="1476" d="M28 40l257 1320q3 16 17 28t31 12h1182q16 0 25 -11.5t6 -28.5l-51 -260q-3 -17 -16.5 -28.5t-29.5 -11.5h-671l-37 -186h618q17 0 26.5 -12t6.5 -28l-51 -260q-3 -16 -17 -28t-31 -12h-618l-37 -194h684q16 0 25.5 -11.5t6.5 -28.5l-51 -260q-3 -17 -17 -28.5t-30 -11.5 h-1195q-17 0 -26.5 12t-6.5 28zM510 1678q16 85 67 125.5t143 40.5q93 0 129 -40t19 -126q-16 -85 -68 -125.5t-145 -40.5q-91 0 -126.5 40t-18.5 126zM1060 1678q17 86 68 126t144 40q92 0 127 -40.5t19 -125.5t-67.5 -125.5t-143.5 -40.5q-93 0 -128.5 40t-18.5 126z" />
<glyph unicode="&#xcc;" horiz-adv-x="812" d="M341 1400h473q16 0 25.5 -11.5t6.5 -28.5l-257 -1320q-3 -17 -17 -28.5t-30 -11.5h-473q-16 0 -25.5 12t-6.5 28l257 1320q3 16 17 28t30 12zM585 1833l173 -260q14 -20 -0.5 -42.5t-41.5 -22.5h-192q-46 0 -81 32l-267 239q-16 14 -2 41.5t41 27.5h325q35 0 45 -15z" />
<glyph unicode="&#xcd;" horiz-adv-x="812" d="M341 1400h473q16 0 25.5 -11.5t6.5 -28.5l-257 -1320q-3 -17 -17 -28.5t-30 -11.5h-473q-16 0 -25.5 12t-6.5 28l257 1320q3 16 17 28t30 12zM464 1573l275 260q15 15 51 15h325q18 0 26 -13t3.5 -30t-18.5 -26l-359 -239q-48 -32 -93 -32h-192q-27 0 -33 22.5t15 42.5z " />
<glyph unicode="&#xce;" horiz-adv-x="812" d="M341 1400h473q16 0 25.5 -11.5t6.5 -28.5l-257 -1320q-3 -17 -17 -28.5t-30 -11.5h-473q-16 0 -25.5 12t-6.5 28l257 1320q3 16 17 28t30 12zM488 1848h354q33 0 45 -21l144 -256q11 -21 -3.5 -42t-40.5 -21h-213q-25 0 -39 17l-107 133l-159 -133q-20 -17 -45 -17h-213 q-26 0 -33 21t13 42l244 256q19 21 53 21z" />
<glyph unicode="&#xcf;" horiz-adv-x="812" d="M341 1400h473q16 0 25.5 -11.5t6.5 -28.5l-257 -1320q-3 -17 -17 -28.5t-30 -11.5h-473q-16 0 -25.5 12t-6.5 28l257 1320q3 16 17 28t30 12zM178 1678q16 85 67 125.5t143 40.5q93 0 129 -40t19 -126q-16 -85 -68 -125.5t-145 -40.5q-91 0 -126.5 40t-18.5 126z M728 1678q17 86 68 126t144 40q92 0 127 -40.5t19 -125.5t-67.5 -125.5t-143.5 -40.5q-93 0 -128.5 40t-18.5 126z" />
<glyph unicode="&#xd0;" horiz-adv-x="1742" d="M1720 700q-69 -344 -329 -522t-668 -178h-640q-17 0 -26.5 12t-6.5 28l111 568h-100q-16 0 -25.5 12t-6.5 28l21 104q3 16 16.5 28t29.5 12h100l111 568q3 16 17 28t31 12h640q407 0 598.5 -179t126.5 -521zM1164 700q38 198 -18.5 279t-208.5 81h-137l-53 -268h172 q17 0 26.5 -12t6.5 -28l-21 -104q-3 -17 -17 -28.5t-30 -11.5h-172l-52 -268h137q152 0 240.5 81.5t126.5 278.5z" />
<glyph unicode="&#xd1;" horiz-adv-x="1866" d="M1032 35l-388 749l-145 -744q-3 -16 -16.5 -28t-29.5 -12h-393q-16 0 -25.5 12t-6.5 28l257 1320q3 16 17 28t30 12h515q41 0 59 -35l388 -749l145 744q3 16 17 28t30 12h393q16 0 25 -12t6 -28l-257 -1320q-3 -16 -16.5 -28t-29.5 -12h-515q-42 0 -60 35zM1156 1546 q-69 34 -123 34q-76 0 -103 -40q-14 -22 -30 -22h-134q-17 0 -26.5 12.5t-5.5 29.5q36 139 110 208.5t176 69.5q78 0 139 -30q69 -34 123 -34q76 0 103 40q14 22 30 22h134q17 0 26.5 -12.5t5.5 -29.5q-37 -139 -111 -208.5t-175 -69.5q-78 0 -139 30z" />
<glyph unicode="&#xd2;" horiz-adv-x="1808" d="M1784 700q-31 -161 -110 -292.5t-200.5 -228.5t-294 -150t-380.5 -53q-139 0 -253.5 24t-197.5 69.5t-143 109.5t-89 144.5t-36 175.5t16 201q31 160 110 292t200.5 228.5t294 150t379.5 53.5q167 0 298.5 -34.5t217.5 -98t138.5 -153.5t62 -200t-12.5 -238zM652 700 q-38 -192 14 -286t200 -94q147 0 235.5 94t126.5 286q37 192 -15 286t-200 94q-147 0 -235.5 -94t-125.5 -286zM1139 1833l173 -260q14 -20 -0.5 -42.5t-41.5 -22.5h-192q-46 0 -81 32l-267 239q-16 14 -2 41.5t41 27.5h325q35 0 45 -15z" />
<glyph unicode="&#xd3;" horiz-adv-x="1808" d="M1784 700q-31 -161 -110 -292.5t-200.5 -228.5t-294 -150t-380.5 -53q-139 0 -253.5 24t-197.5 69.5t-143 109.5t-89 144.5t-36 175.5t16 201q31 160 110 292t200.5 228.5t294 150t379.5 53.5q167 0 298.5 -34.5t217.5 -98t138.5 -153.5t62 -200t-12.5 -238zM652 700 q-38 -192 14 -286t200 -94q147 0 235.5 94t126.5 286q37 192 -15 286t-200 94q-147 0 -235.5 -94t-125.5 -286zM906 1573l275 260q15 15 51 15h325q18 0 26 -13t3.5 -30t-18.5 -26l-359 -239q-48 -32 -93 -32h-192q-27 0 -33 22.5t15 42.5z" />
<glyph unicode="&#xd4;" horiz-adv-x="1808" d="M1784 700q-31 -161 -110 -292.5t-200.5 -228.5t-294 -150t-380.5 -53q-139 0 -253.5 24t-197.5 69.5t-143 109.5t-89 144.5t-36 175.5t16 201q31 160 110 292t200.5 228.5t294 150t379.5 53.5q167 0 298.5 -34.5t217.5 -98t138.5 -153.5t62 -200t-12.5 -238zM652 700 q-38 -192 14 -286t200 -94q147 0 235.5 94t126.5 286q37 192 -15 286t-200 94q-147 0 -235.5 -94t-125.5 -286zM986 1848h354q33 0 45 -21l144 -256q11 -21 -3.5 -42t-40.5 -21h-213q-25 0 -39 17l-107 133l-159 -133q-20 -17 -45 -17h-213q-26 0 -33 21t13 42l244 256 q19 21 53 21z" />
<glyph unicode="&#xd5;" horiz-adv-x="1808" d="M1784 700q-31 -161 -110 -292.5t-200.5 -228.5t-294 -150t-380.5 -53q-139 0 -253.5 24t-197.5 69.5t-143 109.5t-89 144.5t-36 175.5t16 201q31 160 110 292t200.5 228.5t294 150t379.5 53.5q167 0 298.5 -34.5t217.5 -98t138.5 -153.5t62 -200t-12.5 -238zM652 700 q-38 -192 14 -286t200 -94q147 0 235.5 94t126.5 286q37 192 -15 286t-200 94q-147 0 -235.5 -94t-125.5 -286zM1128 1546q-69 34 -123 34q-76 0 -103 -40q-14 -22 -30 -22h-134q-17 0 -26.5 12.5t-5.5 29.5q36 139 110 208.5t176 69.5q78 0 139 -30q69 -34 123 -34 q76 0 103 40q14 22 30 22h134q17 0 26.5 -12.5t5.5 -29.5q-37 -139 -111 -208.5t-175 -69.5q-78 0 -139 30z" />
<glyph unicode="&#xd6;" horiz-adv-x="1808" d="M1784 700q-31 -161 -110 -292.5t-200.5 -228.5t-294 -150t-380.5 -53q-139 0 -253.5 24t-197.5 69.5t-143 109.5t-89 144.5t-36 175.5t16 201q31 160 110 292t200.5 228.5t294 150t379.5 53.5q167 0 298.5 -34.5t217.5 -98t138.5 -153.5t62 -200t-12.5 -238zM652 700 q-38 -192 14 -286t200 -94q147 0 235.5 94t126.5 286q37 192 -15 286t-200 94q-147 0 -235.5 -94t-125.5 -286zM676 1678q16 85 67 125.5t143 40.5q93 0 129 -40t19 -126q-16 -85 -68 -125.5t-145 -40.5q-91 0 -126.5 40t-18.5 126zM1226 1678q17 86 68 126t144 40 q92 0 127 -40.5t19 -125.5t-67.5 -125.5t-143.5 -40.5q-93 0 -128.5 40t-18.5 126z" />
<glyph unicode="&#xd7;" horiz-adv-x="1284" d="M409 661l-268 240q-13 11 -13.5 27.5t11.5 28.5l194 194q10 11 26 11t27 -11l286 -257l286 257q11 11 27 11t26 -11l194 -194q12 -12 11.5 -28.5t-13.5 -27.5l-268 -240l268 -240q13 -11 13.5 -27.5t-11.5 -28.5l-194 -194q-10 -11 -26 -11t-27 11l-286 257l-286 -257 q-11 -11 -27 -11t-26 11l-194 194q-12 12 -11.5 28.5t13.5 27.5z" />
<glyph unicode="&#xd8;" horiz-adv-x="1808" d="M1784 700q-31 -161 -110 -292.5t-200.5 -228.5t-294 -150t-380.5 -53q-206 0 -363 55l-188 -214q-15 -17 -45 -17h-61q-26 0 -33.5 20.5t11.5 41.5l197 225q-150 92 -205.5 250t-15.5 363q31 160 110 292t200.5 228.5t294 150t379.5 53.5t364 -55l188 214q15 17 46 17h61 q26 0 33 -20.5t-12 -41.5l-197 -225q150 -92 205.5 -250t15.5 -363zM652 700q-30 -146 -5 -238l511 582q-54 36 -145 36q-147 0 -235.5 -94t-125.5 -286zM1228 700q28 146 4 237l-511 -582q53 -35 145 -35q147 0 235.5 94t126.5 286z" />
<glyph unicode="&#xd9;" horiz-adv-x="1828" d="M809 -24q373 0 613.5 158t300.5 464l148 762q3 17 -6.5 28.5t-25.5 11.5h-475q-17 0 -31 -12t-17 -28l-151 -776q-25 -129 -94.5 -186.5t-190.5 -57.5q-122 0 -169 57.5t-22 186.5l151 776q3 17 -6.5 28.5t-25.5 11.5h-475q-17 0 -31 -12t-17 -28l-148 -762 q-40 -205 30 -345.5t233 -208.5t409 -68zM1141 1833l173 -260q14 -20 -0.5 -42.5t-41.5 -22.5h-192q-46 0 -81 32l-267 239q-16 14 -2 41.5t41 27.5h325q35 0 45 -15z" />
<glyph unicode="&#xda;" horiz-adv-x="1828" d="M809 -24q-246 0 -409 68t-233 208.5t-30 345.5l148 762q3 16 17 28t31 12h475q16 0 25.5 -11.5t6.5 -28.5l-151 -776q-25 -129 22 -186.5t169 -57.5q121 0 190.5 57.5t94.5 186.5l151 776q3 16 17 28t31 12h475q16 0 25.5 -11.5t6.5 -28.5l-148 -762 q-60 -306 -300.5 -464t-613.5 -158zM924 1573l275 260q15 15 51 15h325q18 0 26 -13t3.5 -30t-18.5 -26l-359 -239q-48 -32 -93 -32h-192q-27 0 -33 22.5t15 42.5z" />
<glyph unicode="&#xdb;" horiz-adv-x="1828" d="M809 -24q373 0 613.5 158t300.5 464l148 762q3 17 -6.5 28.5t-25.5 11.5h-475q-17 0 -31 -12t-17 -28l-151 -776q-25 -129 -94.5 -186.5t-190.5 -57.5q-122 0 -169 57.5t-22 186.5l151 776q3 17 -6.5 28.5t-25.5 11.5h-475q-17 0 -31 -12t-17 -28l-148 -762 q-40 -205 30 -345.5t233 -208.5t409 -68zM996 1848h354q33 0 45 -21l144 -256q11 -21 -3.5 -42t-40.5 -21h-213q-25 0 -39 17l-107 133l-159 -133q-20 -17 -45 -17h-213q-26 0 -33 21t13 42l244 256q19 21 53 21z" />
<glyph unicode="&#xdc;" horiz-adv-x="1828" d="M809 -24q373 0 613.5 158t300.5 464l148 762q3 17 -6.5 28.5t-25.5 11.5h-475q-17 0 -31 -12t-17 -28l-151 -776q-25 -129 -94.5 -186.5t-190.5 -57.5q-122 0 -169 57.5t-22 186.5l151 776q3 17 -6.5 28.5t-25.5 11.5h-475q-17 0 -31 -12t-17 -28l-148 -762 q-40 -205 30 -345.5t233 -208.5t409 -68zM686 1678q16 85 67 125.5t143 40.5q93 0 129 -40t19 -126q-16 -85 -68 -125.5t-145 -40.5q-91 0 -126.5 40t-18.5 126zM1236 1678q17 86 68 126t144 40q92 0 127 -40.5t19 -125.5t-67.5 -125.5t-143.5 -40.5q-93 0 -128.5 40 t-18.5 126z" />
<glyph unicode="&#xdd;" horiz-adv-x="1832" d="M1053 0h-474q-16 0 -25.5 12t-6.5 28l98 501l-421 796q-10 21 5 42t40 21h447q60 0 76 -38l200 -452l376 452q32 38 92 38h447q26 0 32 -21t-13 -42l-729 -796l-98 -501q-3 -16 -16.5 -28t-29.5 -12zM928 1573l275 260q15 15 51 15h325q18 0 26 -13t3.5 -30t-18.5 -26 l-359 -239q-48 -32 -93 -32h-192q-27 0 -33 22.5t15 42.5z" />
<glyph unicode="&#xde;" horiz-adv-x="1580" d="M1577 708q-33 -169 -146 -282t-284.5 -164.5t-400.5 -51.5h-158l-33 -170q-3 -17 -17 -28.5t-30 -11.5h-448q-17 0 -26.5 12t-6.5 28l257 1320q3 16 17 28t31 12h448q16 0 25.5 -11.5t6.5 -28.5l-30 -154h158q349 0 517.5 -122.5t119.5 -375.5zM1093 708q18 91 -35 129.5 t-160 38.5h-180l-66 -336h180q228 0 261 168z" />
<glyph unicode="&#xdf;" horiz-adv-x="1784" d="M916 536q-16 1 -25 12t-6 27l51 262q3 15 16.5 26.5t28.5 12.5q228 5 248 110q9 49 -46 73.5t-161 24.5q-141 0 -214 -60.5t-100 -199.5l-153 -785q-3 -16 -16.5 -27.5t-29.5 -11.5h-450q-16 0 -25.5 11.5t-6.5 27.5l139 713q67 347 292 509.5t656 162.5q344 0 516 -114 t137 -294q-21 -110 -99.5 -191.5t-204.5 -118.5q143 -27 205.5 -115t36.5 -225q-35 -179 -207 -284.5t-467 -105.5q-180 0 -321 31q-13 2 -20 14t-3 26l68 252q4 19 20.5 29.5t33.5 5.5q69 -18 148 -18q206 0 224 94q8 40 -7.5 64t-77.5 41t-180 21z" />
<glyph unicode="&#xe0;" horiz-adv-x="1552" d="M528 200h372l9 -170q1 -14 11 -22t23 -8h453q22 0 36.5 16t11.5 37l-163 1110q-2 11 -12.5 19t-21.5 8h-680q-11 0 -25 -8.5t-19 -18.5l-595 -1110q-12 -21 -3 -37t31 -16h453q31 0 44 30zM881 520h-208l182 402zM920 1623l173 -260q14 -20 -0.5 -42.5t-41.5 -22.5h-192 q-46 0 -81 32l-267 239q-16 14 -2 41.5t41 27.5h325q35 0 45 -15z" />
<glyph unicode="&#xe1;" horiz-adv-x="1552" d="M900 200h-372l-75 -170q-13 -30 -44 -30h-453q-22 0 -31 16t3 37l595 1110q5 10 19 18.5t25 8.5h680q11 0 21.5 -8t12.5 -19l163 -1110q3 -21 -11.5 -37t-36.5 -16h-453q-13 0 -23 8t-11 22zM673 520h208l-26 402zM787 1363l275 260q15 15 51 15h325q18 0 26 -13t3.5 -30 t-18.5 -26l-359 -239q-48 -32 -93 -32h-192q-27 0 -33 22.5t15 42.5z" />
<glyph unicode="&#xe2;" horiz-adv-x="1552" d="M528 200h372l9 -170q1 -14 11 -22t23 -8h453q22 0 36.5 16t11.5 37l-163 1110q-2 11 -12.5 19t-21.5 8h-680q-11 0 -25 -8.5t-19 -18.5l-595 -1110q-12 -21 -3 -37t31 -16h453q31 0 44 30zM881 520h-208l182 402zM817 1638h354q33 0 45 -21l144 -256q12 -21 -3 -42 t-41 -21h-213q-25 0 -39 17l-107 133l-159 -133q-20 -17 -45 -17h-213q-26 0 -32.5 21t12.5 42l244 256q19 21 53 21z" />
<glyph unicode="&#xe3;" horiz-adv-x="1552" d="M528 200h372l9 -170q1 -14 11 -22t23 -8h453q22 0 36.5 16t11.5 37l-163 1110q-2 11 -12.5 19t-21.5 8h-680q-11 0 -25 -8.5t-19 -18.5l-595 -1110q-12 -21 -3 -37t31 -16h453q31 0 44 30zM881 520h-208l182 402zM959 1334q-71 34 -124 34q-77 0 -102 -40 q-16 -22 -31 -22h-134q-17 0 -26.5 12.5t-4.5 29.5q36 139 110 208.5t176 69.5q78 0 139 -30q69 -34 123 -34q76 0 103 40q14 22 30 22h134q17 0 26.5 -12.5t5.5 -29.5q-37 -139 -111 -208.5t-175 -69.5q-79 0 -139 30z" />
<glyph unicode="&#xe4;" horiz-adv-x="1552" d="M528 200h372l9 -170q1 -14 11 -22t23 -8h453q22 0 36.5 16t11.5 37l-163 1110q-2 11 -12.5 19t-21.5 8h-680q-11 0 -25 -8.5t-19 -18.5l-595 -1110q-12 -21 -3 -37t31 -16h453q31 0 44 30zM881 520h-208l182 402zM508 1468q17 86 67.5 126t142.5 40t128 -40.5t20 -125.5 q-17 -86 -68.5 -126t-143.5 -40t-127.5 40t-18.5 126zM1057 1468q17 86 68 126t144 40q92 0 127.5 -40t18.5 -126t-67.5 -126t-142.5 -40q-93 0 -129 40t-19 126z" />
<glyph unicode="&#xe5;" horiz-adv-x="1552" d="M528 200h372l9 -170q1 -14 11 -22t23 -8h453q22 0 36.5 16t11.5 37l-163 1110q-2 11 -12.5 19t-21.5 8h-680q-11 0 -25 -8.5t-19 -18.5l-595 -1110q-12 -21 -3 -37t31 -16h453q31 0 44 30zM881 520h-208l182 402zM1239 1468q-22 -112 -117 -189t-213 -77 q-117 0 -181.5 77.5t-42.5 188.5t116.5 188.5t211.5 77.5q118 0 183 -77t43 -189zM881 1468q-7 -35 11.5 -57.5t52.5 -22.5q36 0 63.5 22.5t34.5 57.5t-12 57.5t-55 22.5q-34 0 -61 -22.5t-34 -57.5z" />
<glyph unicode="&#xe6;" horiz-adv-x="2024" d="M1824 0h-932q-17 0 -26.5 12t-6.5 28l31 158h-310l-109 -174q-5 -9 -18 -16.5t-23 -7.5h-464q-24 0 -32.5 18t6.5 40l766 1110q16 22 40 22h1297q16 0 25.5 -11.5t6.5 -28.5l-44 -229q-4 -17 -18 -29t-30 -12h-462l-25 -128h420q16 0 25.5 -11.5t6.5 -28.5l-44 -228 q-4 -17 -18 -28.5t-30 -11.5h-420l-27 -136h474q17 0 26.5 -12t6.5 -28l-45 -228q-3 -17 -17 -28.5t-30 -11.5zM774 506h176l78 402z" />
<glyph unicode="&#xe7;" horiz-adv-x="1326" d="M502 -199q-50 1 -21 37l121 144q-314 26 -456.5 186.5t-90.5 427.5q57 293 295.5 455.5t616.5 162.5q214 0 401 -60q12 -4 20 -17.5t4 -26.5l-71 -240q-7 -21 -25.5 -30.5t-37.5 -1.5q-122 50 -256 50q-187 0 -292.5 -71.5t-134.5 -220.5q-28 -148 52 -221t267 -73 q140 0 281 49q21 8 36 -2t14 -30l-24 -243q-1 -13 -12 -25.5t-25 -16.5q-130 -37 -272 -50l-80 -94q64 -13 101.5 -56t25.5 -102q-40 -208 -400 -208q-58 0 -124 8q-14 1 -19.5 12.5t-3.5 26.5l16 83q4 19 17 30.5t30 8.5q33 -5 68 -5q134 0 143 48q3 16 -9.5 29t-51.5 23.5 t-103 12.5z" />
<glyph unicode="&#xe8;" horiz-adv-x="1278" d="M7 40l216 1110q3 16 17 28t31 12h1026q17 0 26 -11.5t6 -28.5l-44 -229q-4 -17 -17.5 -29t-30.5 -12h-548l-25 -128h504q16 0 25.5 -11.5t6.5 -28.5l-44 -228q-4 -17 -18 -28.5t-30 -11.5h-504l-27 -136h559q17 0 27 -11.5t7 -28.5l-45 -228q-3 -17 -17 -28.5t-31 -11.5 h-1037q-17 0 -26.5 12t-6.5 28zM878 1623l173 -260q14 -20 -0.5 -42.5t-41.5 -22.5h-192q-46 0 -81 32l-267 239q-16 14 -2 41.5t41 27.5h325q35 0 45 -15z" />
<glyph unicode="&#xe9;" horiz-adv-x="1278" d="M7 40l216 1110q3 16 17 28t31 12h1026q17 0 26 -11.5t6 -28.5l-44 -229q-4 -17 -17.5 -29t-30.5 -12h-548l-25 -128h504q16 0 25.5 -11.5t6.5 -28.5l-44 -228q-4 -17 -18 -28.5t-30 -11.5h-504l-27 -136h559q17 0 27 -11.5t7 -28.5l-45 -228q-3 -17 -17 -28.5t-31 -11.5 h-1037q-17 0 -26.5 12t-6.5 28zM581 1363l275 260q15 15 51 15h325q18 0 26 -13t3.5 -30t-18.5 -26l-359 -239q-48 -32 -93 -32h-192q-27 0 -33 22.5t15 42.5z" />
<glyph unicode="&#xea;" horiz-adv-x="1278" d="M7 40l216 1110q3 16 17 28t31 12h1026q17 0 26 -11.5t6 -28.5l-44 -229q-4 -17 -17.5 -29t-30.5 -12h-548l-25 -128h504q16 0 25.5 -11.5t6.5 -28.5l-44 -228q-4 -17 -18 -28.5t-30 -11.5h-504l-27 -136h559q17 0 27 -11.5t7 -28.5l-45 -228q-3 -17 -17 -28.5t-31 -11.5 h-1037q-17 0 -26.5 12t-6.5 28zM689 1638h354q33 0 45 -21l144 -256q12 -21 -3 -42t-41 -21h-213q-25 0 -39 17l-107 133l-159 -133q-20 -17 -45 -17h-213q-26 0 -32.5 21t12.5 42l244 256q19 21 53 21z" />
<glyph unicode="&#xeb;" horiz-adv-x="1278" d="M7 40l216 1110q3 16 17 28t31 12h1026q17 0 26 -11.5t6 -28.5l-44 -229q-4 -17 -17.5 -29t-30.5 -12h-548l-25 -128h504q16 0 25.5 -11.5t6.5 -28.5l-44 -228q-4 -17 -18 -28.5t-30 -11.5h-504l-27 -136h559q17 0 27 -11.5t7 -28.5l-45 -228q-3 -17 -17 -28.5t-31 -11.5 h-1037q-17 0 -26.5 12t-6.5 28zM386 1468q17 86 67.5 126t142.5 40t128 -40.5t20 -125.5q-17 -86 -68.5 -126t-143.5 -40t-127.5 40t-18.5 126zM935 1468q17 86 68 126t144 40q92 0 127.5 -40t18.5 -126t-67.5 -126t-142.5 -40q-93 0 -129 40t-19 126z" />
<glyph unicode="&#xec;" horiz-adv-x="738" d="M281 1190h438q17 0 26 -11.5t6 -28.5l-216 -1110q-3 -17 -16.5 -28.5t-30.5 -11.5h-438q-17 0 -26.5 12t-6.5 28l216 1110q3 16 17 28t31 12zM508 1623l173 -260q14 -20 -0.5 -42.5t-41.5 -22.5h-192q-46 0 -81 32l-267 239q-16 14 -2 41.5t41 27.5h325q35 0 45 -15z" />
<glyph unicode="&#xed;" horiz-adv-x="738" d="M281 1190h438q17 0 26 -11.5t6 -28.5l-216 -1110q-3 -17 -16.5 -28.5t-30.5 -11.5h-438q-17 0 -26.5 12t-6.5 28l216 1110q3 16 17 28t31 12zM385 1363l275 260q15 15 51 15h325q18 0 26 -13t3.5 -30t-18.5 -26l-359 -239q-48 -32 -93 -32h-192q-27 0 -33 22.5t15 42.5z " />
<glyph unicode="&#xee;" horiz-adv-x="738" d="M281 1190h438q17 0 26 -11.5t6 -28.5l-216 -1110q-3 -17 -16.5 -28.5t-30.5 -11.5h-438q-17 0 -26.5 12t-6.5 28l216 1110q3 16 17 28t31 12zM409 1638h354q33 0 45 -21l144 -256q12 -21 -3 -42t-41 -21h-213q-25 0 -39 17l-107 133l-159 -133q-20 -17 -45 -17h-213 q-26 0 -32.5 21t12.5 42l244 256q19 21 53 21z" />
<glyph unicode="&#xef;" horiz-adv-x="738" d="M100 1468q17 86 67.5 126t142.5 40t128 -40.5t20 -125.5q-17 -86 -68.5 -126t-143.5 -40t-127.5 40t-18.5 126zM649 1468q17 86 68 126t144 40q92 0 127.5 -40t18.5 -126t-67.5 -126t-142.5 -40q-93 0 -129 40t-19 126zM281 1190h438q17 0 26 -11.5t6 -28.5l-216 -1110 q-3 -17 -16.5 -28.5t-30.5 -11.5h-438q-17 0 -26.5 12t-6.5 28l216 1110q3 16 17 28t31 12z" />
<glyph unicode="&#xf0;" horiz-adv-x="1504" d="M620 0h-553q-17 0 -27 11.5t-7 28.5l90 464h-78q-17 0 -26 11.5t-6 28.5l20 104q4 17 17.5 28.5t30.5 11.5h78l90 462q3 17 17.5 28.5t31.5 11.5h553q352 0 517.5 -151.5t110.5 -444.5q-58 -292 -282.5 -443t-576.5 -151zM959 594q31 157 -10 221.5t-154 64.5h-82 l-38 -192h108q17 0 26.5 -11.5t5.5 -28.5l-20 -104q-3 -17 -17 -28.5t-31 -11.5h-108l-38 -196h82q113 0 179 65t97 221z" />
<glyph unicode="&#xf1;" horiz-adv-x="1608" d="M857 18l-284 618l-116 -596q-3 -17 -16.5 -28.5t-30.5 -11.5h-370q-17 0 -26.5 12t-6.5 28l216 1110q3 16 17 28t31 12h480q8 0 17.5 -6t12.5 -13l282 -619l116 598q3 17 17 28.5t31 11.5h372q16 0 25.5 -11.5t6.5 -28.5l-216 -1110q-3 -17 -17 -28.5t-30 -11.5h-480 q-8 0 -18 5.5t-13 12.5zM987 1334q-71 34 -124 34q-77 0 -102 -40q-16 -22 -31 -22h-134q-17 0 -26.5 12.5t-4.5 29.5q36 139 110 208.5t176 69.5q78 0 139 -30q69 -34 123 -34q76 0 103 40q14 22 30 22h134q17 0 26.5 -12.5t5.5 -29.5q-37 -139 -111 -208.5t-175 -69.5 q-79 0 -139 30z" />
<glyph unicode="&#xf2;" horiz-adv-x="1544" d="M1519 594q-36 -183 -142 -320t-288.5 -217.5t-421.5 -80.5q-144 0 -258.5 29.5t-189 84t-120.5 131.5t-54.5 170.5t10.5 202.5q54 281 275 450.5t577 169.5q144 0 258.5 -29.5t189 -84.5t120.5 -131.5t54.5 -171t-10.5 -203.5zM577 594q-30 -152 6.5 -228t144.5 -76 t173.5 76t95.5 228q30 154 -6.5 230t-144.5 76t-173.5 -76t-95.5 -230zM962 1623l173 -260q14 -20 -0.5 -42.5t-41.5 -22.5h-192q-46 0 -81 32l-267 239q-16 14 -2 41.5t41 27.5h325q35 0 45 -15z" />
<glyph unicode="&#xf3;" horiz-adv-x="1544" d="M1519 594q-36 -183 -142 -320t-288.5 -217.5t-421.5 -80.5q-144 0 -258.5 29.5t-189 84t-120.5 131.5t-54.5 170.5t10.5 202.5q54 281 275 450.5t577 169.5q144 0 258.5 -29.5t189 -84.5t120.5 -131.5t54.5 -171t-10.5 -203.5zM577 594q-30 -152 6.5 -228t144.5 -76 t173.5 76t95.5 228q30 154 -6.5 230t-144.5 76t-173.5 -76t-95.5 -230zM737 1363l275 260q15 15 51 15h325q18 0 26 -13t3.5 -30t-18.5 -26l-359 -239q-48 -32 -93 -32h-192q-27 0 -33 22.5t15 42.5z" />
<glyph unicode="&#xf4;" horiz-adv-x="1544" d="M1519 594q-36 -183 -142 -320t-288.5 -217.5t-421.5 -80.5q-144 0 -258.5 29.5t-189 84t-120.5 131.5t-54.5 170.5t10.5 202.5q54 281 275 450.5t577 169.5q144 0 258.5 -29.5t189 -84.5t120.5 -131.5t54.5 -171t-10.5 -203.5zM577 594q-30 -152 6.5 -228t144.5 -76 t173.5 76t95.5 228q30 154 -6.5 230t-144.5 76t-173.5 -76t-95.5 -230zM813 1638h354q33 0 45 -21l144 -256q12 -21 -3 -42t-41 -21h-213q-25 0 -39 17l-107 133l-159 -133q-20 -17 -45 -17h-213q-26 0 -32.5 21t12.5 42l244 256q19 21 53 21z" />
<glyph unicode="&#xf5;" horiz-adv-x="1544" d="M1519 594q-36 -183 -142 -320t-288.5 -217.5t-421.5 -80.5q-144 0 -258.5 29.5t-189 84t-120.5 131.5t-54.5 170.5t10.5 202.5q54 281 275 450.5t577 169.5q144 0 258.5 -29.5t189 -84.5t120.5 -131.5t54.5 -171t-10.5 -203.5zM577 594q-30 -152 6.5 -228t144.5 -76 t173.5 76t95.5 228q30 154 -6.5 230t-144.5 76t-173.5 -76t-95.5 -230zM955 1334q-71 34 -124 34q-77 0 -102 -40q-16 -22 -31 -22h-134q-17 0 -26.5 12.5t-4.5 29.5q36 139 110 208.5t176 69.5q78 0 139 -30q69 -34 123 -34q76 0 103 40q14 22 30 22h134q17 0 26.5 -12.5 t5.5 -29.5q-37 -139 -111 -208.5t-175 -69.5q-79 0 -139 30z" />
<glyph unicode="&#xf6;" horiz-adv-x="1544" d="M1519 594q-36 -183 -142 -320t-288.5 -217.5t-421.5 -80.5q-144 0 -258.5 29.5t-189 84t-120.5 131.5t-54.5 170.5t10.5 202.5q54 281 275 450.5t577 169.5q144 0 258.5 -29.5t189 -84.5t120.5 -131.5t54.5 -171t-10.5 -203.5zM577 594q-30 -152 6.5 -228t144.5 -76 t173.5 76t95.5 228q30 154 -6.5 230t-144.5 76t-173.5 -76t-95.5 -230zM504 1468q17 86 67.5 126t142.5 40t128 -40.5t20 -125.5q-17 -86 -68.5 -126t-143.5 -40t-127.5 40t-18.5 126zM1053 1468q17 86 68 126t144 40q92 0 127.5 -40t18.5 -126t-67.5 -126t-142.5 -40 q-93 0 -129 40t-19 126z" />
<glyph unicode="&#xf7;" horiz-adv-x="1284" d="M456 188q0 111 53 164.5t163 53.5t163 -53.5t53 -164.5t-53 -164.5t-163 -53.5t-163 53.5t-53 164.5zM456 1140q0 111 53 164.5t163 53.5t163 -53.5t53 -164.5t-53 -164.5t-163 -53.5t-163 53.5t-53 164.5zM1195 514h-1047q-16 0 -27 11.5t-11 27.5v222q0 16 11 27.5 t27 11.5h1047q16 0 27.5 -11.5t11.5 -27.5v-222q0 -16 -11.5 -27.5t-27.5 -11.5z" />
<glyph unicode="&#xf8;" horiz-adv-x="1544" d="M1519 594q-36 -183 -142 -320t-288.5 -217.5t-421.5 -80.5q-178 0 -310 45l-170 -195q-24 -26 -57 -26h-53q-26 0 -30.5 11t13.5 31l195 224q-134 78 -184 214.5t-16 313.5q54 281 275 450.5t577 169.5q178 0 310 -46l171 196q23 26 57 26h53q26 0 30.5 -11t-13.5 -31 l-197 -225q135 -78 185 -214.5t16 -314.5zM997 594q19 103 9 172l-387 -445q38 -31 109 -31q108 0 173.5 76t95.5 228zM577 594q-21 -109 -10 -171l388 445q-41 32 -109 32q-108 0 -173.5 -76t-95.5 -230z" />
<glyph unicode="&#xf9;" horiz-adv-x="1576" d="M683 -24q-323 0 -479.5 134.5t-105.5 395.5l125 644q3 16 17 28t31 12h440q16 0 25.5 -11.5t6.5 -28.5l-127 -656q-20 -99 13 -144.5t118 -45.5t135 45.5t70 144.5l127 656q3 16 17 28t31 12h440q16 0 25.5 -11.5t6.5 -28.5l-125 -644q-51 -261 -259 -395.5t-532 -134.5z M974 1623l173 -260q14 -20 -0.5 -42.5t-41.5 -22.5h-192q-46 0 -81 32l-267 239q-16 14 -2 41.5t41 27.5h325q35 0 45 -15z" />
<glyph unicode="&#xfa;" horiz-adv-x="1576" d="M683 -24q-323 0 -479.5 134.5t-105.5 395.5l125 644q3 16 17 28t31 12h440q16 0 25.5 -11.5t6.5 -28.5l-127 -656q-20 -99 13 -144.5t118 -45.5t135 45.5t70 144.5l127 656q3 16 17 28t31 12h440q16 0 25.5 -11.5t6.5 -28.5l-125 -644q-51 -261 -259 -395.5t-532 -134.5z M757 1363l275 260q15 15 51 15h325q18 0 26 -13t3.5 -30t-18.5 -26l-359 -239q-48 -32 -93 -32h-192q-27 0 -33 22.5t15 42.5z" />
<glyph unicode="&#xfb;" horiz-adv-x="1576" d="M683 -24q-323 0 -479.5 134.5t-105.5 395.5l125 644q3 16 17 28t31 12h440q16 0 25.5 -11.5t6.5 -28.5l-127 -656q-20 -99 13 -144.5t118 -45.5t135 45.5t70 144.5l127 656q3 16 17 28t31 12h440q16 0 25.5 -11.5t6.5 -28.5l-125 -644q-51 -261 -259 -395.5t-532 -134.5z M829 1638h354q33 0 45 -21l144 -256q12 -21 -3 -42t-41 -21h-213q-25 0 -39 17l-107 133l-159 -133q-20 -17 -45 -17h-213q-26 0 -32.5 21t12.5 42l244 256q19 21 53 21z" />
<glyph unicode="&#xfc;" horiz-adv-x="1576" d="M683 -24q-323 0 -479.5 134.5t-105.5 395.5l125 644q3 16 17 28t31 12h440q16 0 25.5 -11.5t6.5 -28.5l-127 -656q-20 -99 13 -144.5t118 -45.5t135 45.5t70 144.5l127 656q3 16 17 28t31 12h440q16 0 25.5 -11.5t6.5 -28.5l-125 -644q-51 -261 -259 -395.5t-532 -134.5z M520 1468q17 86 67.5 126t142.5 40t128 -40.5t20 -125.5q-17 -86 -68.5 -126t-143.5 -40t-127.5 40t-18.5 126zM1069 1468q17 86 68 126t144 40q92 0 127.5 -40t18.5 -126t-67.5 -126t-142.5 -40q-93 0 -129 40t-19 126z" />
<glyph unicode="&#xfd;" horiz-adv-x="1600" d="M918 0h-436q-17 0 -26.5 11.5t-6.5 28.5l82 423l-350 664q-11 21 4 42t41 21h435q30 0 45 -31l152 -343l286 343q24 31 57 31h435q26 0 33 -21t-12 -42l-610 -664l-82 -423q-3 -17 -16.5 -28.5t-30.5 -11.5zM767 1363l275 260q15 15 51 15h325q18 0 26 -13t3.5 -30 t-18.5 -26l-359 -239q-48 -32 -93 -32h-192q-27 0 -33 22.5t15 42.5z" />
<glyph unicode="&#xfe;" horiz-adv-x="1376" d="M531 170l-26 -130q-3 -17 -17 -28.5t-30 -11.5h-418q-17 0 -26.5 11.5t-6.5 28.5l216 1110q3 17 17 28.5t31 11.5h418q16 0 25.5 -11.5t6.5 -28.5l-23 -120h104q304 0 450 -105.5t104 -324.5q-42 -217 -229.5 -323.5t-491.5 -106.5h-104zM896 600q13 68 -23.5 98 t-111.5 30h-122l-50 -256h122q160 0 185 128z" />
<glyph unicode="&#xff;" horiz-adv-x="1600" d="M918 0h-436q-17 0 -26.5 11.5t-6.5 28.5l82 423l-350 664q-11 21 4 42t41 21h435q30 0 45 -31l152 -343l286 343q24 31 57 31h435q26 0 33 -21t-12 -42l-610 -664l-82 -423q-3 -17 -16.5 -28.5t-30.5 -11.5zM532 1468q17 86 67.5 126t142.5 40t128 -40.5t20 -125.5 q-17 -86 -68.5 -126t-143.5 -40t-127.5 40t-18.5 126zM1081 1468q17 86 68 126t144 40q92 0 127.5 -40t18.5 -126t-67.5 -126t-142.5 -40q-93 0 -129 40t-19 126z" />
<glyph unicode="&#x152;" horiz-adv-x="2378" d="M2159 0h-1153q-532 0 -754.5 177.5t-155.5 522.5q135 700 1182 700h1134q16 0 25.5 -11.5t6.5 -28.5l-51 -260q-3 -17 -17 -28.5t-30 -11.5h-560l-37 -186h513q16 0 25.5 -12t6.5 -28l-51 -260q-3 -16 -17 -28t-30 -12h-513l-37 -194h579q16 0 25 -11.5t6 -28.5l-51 -260 q-3 -17 -16.5 -28.5t-29.5 -11.5zM644 700q-34 -175 72.5 -256.5t337.5 -81.5h66l131 676h-66q-476 0 -541 -338z" />
<glyph unicode="&#x153;" horiz-adv-x="2022" d="M1822 0h-980q-458 0 -651 151t-136 445q58 295 308.5 444.5t709.5 149.5h968q17 0 26 -11.5t6 -28.5l-44 -229q-4 -17 -17.5 -29t-30.5 -12h-462l-25 -128h420q17 0 26 -11.5t6 -28.5l-44 -228q-4 -17 -17.5 -28.5t-30.5 -11.5h-420l-27 -136h474q17 0 26.5 -12t6.5 -28 l-45 -228q-3 -17 -17 -28.5t-30 -11.5zM571 596q-27 -138 55 -202t262 -64h26l103 534h-26q-368 0 -420 -268z" />
<glyph unicode="&#x178;" horiz-adv-x="1832" d="M1053 0h-474q-16 0 -25.5 12t-6.5 28l98 501l-421 796q-10 21 5 42t40 21h447q60 0 76 -38l200 -452l376 452q32 38 92 38h447q26 0 32 -21t-13 -42l-729 -796l-98 -501q-3 -16 -16.5 -28t-29.5 -12zM688 1678q16 85 67 125.5t143 40.5q93 0 129 -40t19 -126 q-16 -85 -68 -125.5t-145 -40.5q-91 0 -126.5 40t-18.5 126zM1238 1678q17 86 68 126t144 40q92 0 127 -40.5t19 -125.5t-67.5 -125.5t-143.5 -40.5q-93 0 -128.5 40t-18.5 126z" />
<glyph unicode="&#x2c6;" horiz-adv-x="1080" d="M546 1460h354q13 0 27 -6t18 -15l144 -256q12 -21 -3 -42t-41 -21h-213q-26 0 -38 17l-108 133l-158 -133q-22 -17 -46 -17h-213q-26 0 -32.5 21t12.5 42l244 256q21 21 53 21z" />
<glyph unicode="&#x2dc;" horiz-adv-x="1080" d="M689 1158q-71 34 -124 34q-76 0 -103 -40q-14 -22 -30 -22h-134q-17 0 -26.5 12.5t-5.5 29.5q37 139 111 208.5t175 69.5q79 0 140 -30q69 -34 123 -34q76 0 103 40q14 22 30 22h134q17 0 26.5 -12.5t5.5 -29.5q-37 -139 -111 -208.5t-175 -69.5q-79 0 -139 30z" />
<glyph unicode="&#x2000;" horiz-adv-x="972" />
<glyph unicode="&#x2001;" horiz-adv-x="1944" />
<glyph unicode="&#x2002;" horiz-adv-x="972" />
<glyph unicode="&#x2003;" horiz-adv-x="1944" />
<glyph unicode="&#x2004;" horiz-adv-x="648" />
<glyph unicode="&#x2005;" horiz-adv-x="486" />
<glyph unicode="&#x2006;" horiz-adv-x="324" />
<glyph unicode="&#x2007;" horiz-adv-x="324" />
<glyph unicode="&#x2008;" horiz-adv-x="243" />
<glyph unicode="&#x2009;" horiz-adv-x="388" />
<glyph unicode="&#x200a;" horiz-adv-x="108" />
<glyph unicode="&#x2010;" horiz-adv-x="828" d="M706 504h-590q-16 0 -25 11.5t-6 27.5l47 242q3 16 16.5 27.5t30.5 11.5h590q16 0 25 -11.5t6 -27.5l-47 -242q-3 -16 -17 -27.5t-30 -11.5z" />
<glyph unicode="&#x2011;" horiz-adv-x="828" d="M706 504h-590q-16 0 -25 11.5t-6 27.5l47 242q3 16 16.5 27.5t30.5 11.5h590q16 0 25 -11.5t6 -27.5l-47 -242q-3 -16 -17 -27.5t-30 -11.5z" />
<glyph unicode="&#x2012;" horiz-adv-x="828" d="M706 504h-590q-16 0 -25 11.5t-6 27.5l47 242q3 16 16.5 27.5t30.5 11.5h590q16 0 25 -11.5t6 -27.5l-47 -242q-3 -16 -17 -27.5t-30 -11.5z" />
<glyph unicode="&#x2013;" horiz-adv-x="1000" d="M960 514h-923q-16 0 -24.5 11.5t-5.5 27.5l43 222q3 16 16.5 27.5t29.5 11.5h923q16 0 25 -11.5t6 -27.5l-43 -222q-3 -16 -17 -27.5t-30 -11.5z" />
<glyph unicode="&#x2014;" horiz-adv-x="2000" d="M1960 514h-1923q-16 0 -24.5 11.5t-5.5 27.5l43 222q3 16 16.5 27.5t29.5 11.5h1923q16 0 25 -11.5t6 -27.5l-43 -222q-3 -16 -17 -27.5t-30 -11.5z" />
<glyph unicode="&#x2018;" horiz-adv-x="744" d="M641 1527q14 7 27.5 4t20.5 -16l43 -89q6 -12 -0.5 -28.5t-20.5 -25.5q-48 -34 -86 -79.5t-54 -90.5q163 -24 127 -212q-22 -111 -89.5 -164.5t-186.5 -53.5t-166.5 53.5t-25.5 164.5q35 179 139.5 314.5t271.5 222.5z" />
<glyph unicode="&#x2019;" horiz-adv-x="744" d="M352 789q-14 -7 -27.5 -4t-20.5 16l-43 89q-5 12 1.5 28.5t19.5 25.5q106 76 140 170q-163 24 -127 212q22 111 90 164.5t187 53.5t166 -53.5t25 -164.5q-35 -179 -139.5 -314.5t-271.5 -222.5z" />
<glyph unicode="&#x201a;" horiz-adv-x="744" d="M132 -343q-14 -7 -27.5 -4t-20.5 16l-43 89q-5 12 1.5 28.5t19.5 25.5q106 76 140 170q-163 24 -127 212q22 111 90 164.5t187 53.5t166 -53.5t25 -164.5q-35 -179 -139.5 -314.5t-271.5 -222.5z" />
<glyph unicode="&#x201c;" horiz-adv-x="1326" d="M1223 1527q14 7 27.5 4t20.5 -16l43 -89q6 -12 -0.5 -28.5t-20.5 -25.5q-48 -34 -86 -79.5t-54 -90.5q163 -24 127 -212q-22 -111 -89.5 -164.5t-186.5 -53.5t-166.5 53.5t-25.5 164.5q35 179 139.5 314.5t271.5 222.5zM641 1527q14 7 27.5 4t20.5 -16l43 -89 q6 -12 -0.5 -28.5t-20.5 -25.5q-48 -34 -86 -79.5t-54 -90.5q163 -24 127 -212q-22 -111 -89.5 -164.5t-186.5 -53.5t-166.5 53.5t-25.5 164.5q35 179 139.5 314.5t271.5 222.5z" />
<glyph unicode="&#x201d;" horiz-adv-x="1326" d="M934 789q-14 -7 -27.5 -4t-20.5 16l-43 89q-5 12 1.5 28.5t19.5 25.5q106 76 140 170q-163 24 -127 212q22 111 90 164.5t187 53.5t166 -53.5t25 -164.5q-35 -179 -139.5 -314.5t-271.5 -222.5zM352 789q-14 -7 -27.5 -4t-20.5 16l-43 89q-5 12 1.5 28.5t19.5 25.5 q106 76 140 170q-163 24 -127 212q22 111 90 164.5t187 53.5t166 -53.5t25 -164.5q-35 -179 -139.5 -314.5t-271.5 -222.5z" />
<glyph unicode="&#x201e;" horiz-adv-x="1326" d="M714 -343q-14 -7 -27.5 -4t-20.5 16l-43 89q-5 12 1.5 28.5t19.5 25.5q106 76 140 170q-163 24 -127 212q22 111 90 164.5t187 53.5t166 -53.5t25 -164.5q-35 -179 -139.5 -314.5t-271.5 -222.5zM132 -343q-14 -7 -27.5 -4t-20.5 16l-43 89q-5 12 1.5 28.5t19.5 25.5 q106 76 140 170q-163 24 -127 212q22 111 90 164.5t187 53.5t166 -53.5t25 -164.5q-35 -179 -139.5 -314.5t-271.5 -222.5z" />
<glyph unicode="&#x2022;" horiz-adv-x="1036" d="M548 352q-153 0 -235.5 82t-82.5 230t82.5 230t235.5 82t235.5 -82t82.5 -230t-82.5 -230t-235.5 -82z" />
<glyph unicode="&#x2026;" horiz-adv-x="2232" d="M267 -24q-119 0 -166.5 53.5t-25.5 164.5t90 164.5t187 53.5t166 -53.5t25 -164.5t-89.5 -164.5t-186.5 -53.5zM1755 -24q-119 0 -166.5 53.5t-25.5 164.5t90 164.5t187 53.5t166 -53.5t25 -164.5t-89.5 -164.5t-186.5 -53.5zM1011 -24q-119 0 -166.5 53.5t-25.5 164.5 t90 164.5t187 53.5t166 -53.5t25 -164.5t-89.5 -164.5t-186.5 -53.5z" />
<glyph unicode="&#x202f;" horiz-adv-x="388" />
<glyph unicode="&#x2039;" horiz-adv-x="624" d="M98 508l45 232q7 30 38 55l414 325q23 19 44.5 9t16.5 -38l-51 -261q-5 -19 -19 -29l-231 -177l162 -177q10 -10 8 -29l-51 -261q-5 -28 -30.5 -38t-41.5 9l-287 325q-22 24 -17 55z" />
<glyph unicode="&#x203a;" horiz-adv-x="624" d="M567 740l-45 -232q-5 -28 -37 -55l-415 -325q-23 -19 -44 -9t-16 38l51 261q1 6 7 15.5t11 13.5l232 177l-163 177q-11 11 -7 29l51 261q5 28 30 38t41 -9l288 -325q22 -26 16 -55z" />
<glyph unicode="&#x205f;" horiz-adv-x="486" />
<glyph unicode="&#x20ac;" horiz-adv-x="1644" d="M747 644h545q21 0 30 -14t0 -33l-29 -60q-5 -12 -18.5 -20.5t-25.5 -8.5h-487q42 -95 146.5 -133.5t264.5 -38.5q173 0 315 46q20 7 33 -3.5t11 -30.5l-26 -268q-1 -12 -13 -24t-25 -16q-214 -64 -494 -64q-361 0 -568.5 134t-225.5 398h-103q-16 0 -25 11.5t-6 27.5 l11 58q3 16 17 27.5t30 11.5h83q7 44 9 56q2 14 12 56h-83q-16 0 -25 11t-6 27l11 59q3 16 17 27.5t30 11.5h105q106 255 367.5 393.5t632.5 138.5q267 0 458 -68q12 -5 17.5 -16t1.5 -23l-77 -266q-6 -19 -23.5 -29t-35.5 -4q-124 46 -293 46q-331 0 -473 -172h582 q21 0 30 -14t0 -33l-29 -60q-5 -12 -18.5 -20.5t-25.5 -8.5h-603q-13 -41 -15 -56q-4 -18 -6 -56z" />
<glyph unicode="&#x2122;" horiz-adv-x="1568" d="M228 777v443h-149q-16 0 -27.5 11.5t-11.5 27.5v103q0 16 11.5 27t27.5 11h518q16 0 27.5 -11t11.5 -27v-103q0 -16 -11.5 -27.5t-27.5 -11.5h-149v-443q0 -16 -11.5 -27.5t-27.5 -11.5h-142q-16 0 -27.5 11.5t-11.5 27.5zM1178 930h-136q-7 0 -17.5 6t-14.5 12l-108 165 v-336q0 -16 -11.5 -27.5t-27.5 -11.5h-142q-16 0 -27.5 11.5t-11.5 27.5v585q0 16 11.5 27t27.5 11h194q20 0 33 -17l162 -247l162 247q13 17 33 17h194q16 0 27.5 -11t11.5 -27v-585q0 -16 -11.5 -27.5t-27.5 -11.5h-142q-16 0 -27.5 11.5t-11.5 27.5v336l-108 -165 q-4 -6 -14.5 -12t-17.5 -6z" />
<glyph unicode="&#xfb02;" horiz-adv-x="2518" d="M7 40l216 1110q3 16 17 28t31 12h1026q16 0 25.5 -11.5t6.5 -28.5l-44 -229q-4 -17 -18 -29t-30 -12h-548l-31 -158h506q17 0 26 -11.5t6 -28.5l-45 -230q-3 -17 -16.5 -28.5t-30.5 -11.5h-506l-73 -372q-3 -17 -17 -28.5t-30 -11.5h-438q-17 0 -26.5 12t-6.5 28z M1263 40l216 1110q3 16 17 28t31 12h438q17 0 26 -11.5t6 -28.5l-160 -824h588q17 0 26.5 -11.5t5.5 -28.5l-48 -246q-3 -17 -17 -28.5t-30 -11.5h-1066q-17 0 -26.5 12t-6.5 28z" />
<glyph unicode="&#xfb04;" horiz-adv-x="3774" d="M1263 40l216 1110q3 16 17 28t31 12h1026q16 0 25.5 -11.5t6.5 -28.5l-44 -229q-4 -17 -18 -29t-30 -12h-548l-31 -158h506q17 0 26 -11.5t6 -28.5l-45 -230q-3 -17 -16.5 -28.5t-30.5 -11.5h-506l-73 -372q-3 -17 -17 -28.5t-30 -11.5h-438q-17 0 -26.5 12t-6.5 28z M2519 40l216 1110q3 16 17 28t31 12h438q17 0 26 -11.5t6 -28.5l-160 -824h588q17 0 26.5 -11.5t5.5 -28.5l-48 -246q-3 -17 -17 -28.5t-30 -11.5h-1066q-17 0 -26.5 12t-6.5 28zM7 40l216 1110q3 16 17 28t31 12h1026q16 0 25.5 -11.5t6.5 -28.5l-44 -229q-4 -17 -18 -29 t-30 -12h-548l-31 -158h506q17 0 26 -11.5t6 -28.5l-45 -230q-3 -17 -16.5 -28.5t-30.5 -11.5h-506l-73 -372q-3 -17 -17 -28.5t-30 -11.5h-438q-17 0 -26.5 12t-6.5 28z" />
</font>
</defs>
</svg>
