<?xml version="1.0" standalone="no"?>
<!DOCTYPE svg PUBLIC "-//W3C//DTD SVG 1.1//EN" "http://www.w3.org/Graphics/SVG/1.1/DTD/svg11.dtd" >
<svg xmlns="http://www.w3.org/2000/svg">
<metadata></metadata>
<defs>
<font id="core_sans_nr_45_regularRg" horiz-adv-x="1160" >
<font-face units-per-em="2000" ascent="1600" descent="-400" />
<missing-glyph horiz-adv-x="600" />
<glyph unicode="&#xfb01;" horiz-adv-x="1174" d="M856 38v960q0 16 10.5 27t25.5 11h96q15 0 25.5 -11t10.5 -27v-960q0 -16 -10.5 -27t-25.5 -11h-96q-15 0 -25.5 11t-10.5 27zM834 1354q0 106 106 106t106 -106t-106 -106t-106 106zM20 928v70q0 16 10.5 27t25.5 11h182v62q0 178 87 270t259 92q58 0 108 -10 q34 -6 30 -40l-10 -84q-4 -31 -30 -24q-40 10 -86 10q-102 0 -146 -52t-44 -182v-42h252q15 0 26.5 -11t11.5 -27v-70q0 -15 -11.5 -25.5t-26.5 -10.5h-252v-854q0 -16 -11.5 -27t-26.5 -11h-92q-15 0 -26.5 11t-11.5 27v854h-182q-15 0 -25.5 10.5t-10.5 25.5z" />
<glyph unicode="&#xfb02;" horiz-adv-x="1174" d="M856 38v1384q0 15 11.5 26.5t26.5 11.5h92q16 0 27 -11.5t11 -26.5v-1384q0 -16 -11 -27t-27 -11h-92q-15 0 -26.5 11t-11.5 27zM20 928v70q0 16 10.5 27t25.5 11h182v62q0 178 87 270t259 92q58 0 108 -10q34 -6 30 -40l-10 -84q-4 -31 -30 -24q-40 10 -86 10 q-102 0 -146 -52t-44 -182v-42h252q15 0 26.5 -11t11.5 -27v-70q0 -15 -11.5 -25.5t-26.5 -10.5h-252v-854q0 -16 -11.5 -27t-26.5 -11h-92q-15 0 -26.5 11t-11.5 27v854h-182q-15 0 -25.5 10.5t-10.5 25.5z" />
<glyph unicode="&#xfb03;" horiz-adv-x="1822" d="M866 1098q0 178 87 270t259 92q58 0 108 -10q34 -6 30 -40l-10 -84q-4 -31 -30 -24q-40 10 -86 10q-102 0 -146 -52t-44 -182v-42h252q15 0 26.5 -11t11.5 -27v-70q0 -15 -11.5 -25.5t-26.5 -10.5h-252v-854q0 -16 -11.5 -27t-26.5 -11h-92q-15 0 -26.5 11t-11.5 27v854 h-460v-854q0 -16 -11.5 -27t-26.5 -11h-92q-15 0 -26.5 11t-11.5 27v854h-182q-15 0 -25.5 10.5t-10.5 25.5v70q0 16 10.5 27t25.5 11h182v62q0 177 89 269.5t257 92.5q90 0 156 -18q34 -8 30 -40l-10 -84q-4 -31 -30 -24q-65 18 -134 18q-100 0 -145 -52.5t-45 -181.5v-42 h460v62zM1504 38v960q0 16 11 27t27 11h92q15 0 26.5 -11t11.5 -27v-960q0 -16 -11.5 -27t-26.5 -11h-92q-16 0 -27 11t-11 27zM1482 1354q0 106 106 106t106 -106t-106 -106t-106 106z" />
<glyph unicode="&#xfb04;" horiz-adv-x="1822" d="M1504 38v1384q0 15 10.5 26.5t25.5 11.5h96q15 0 25.5 -11.5t10.5 -26.5v-1384q0 -16 -10.5 -27t-25.5 -11h-96q-15 0 -25.5 11t-10.5 27zM866 1098q0 178 87 270t259 92q58 0 108 -10q34 -6 30 -40l-10 -84q-4 -31 -30 -24q-40 10 -86 10q-102 0 -146 -52t-44 -182v-42 h252q15 0 26.5 -11t11.5 -27v-70q0 -15 -11.5 -25.5t-26.5 -10.5h-252v-854q0 -16 -11.5 -27t-26.5 -11h-92q-15 0 -26.5 11t-11.5 27v854h-460v-854q0 -16 -11.5 -27t-26.5 -11h-92q-15 0 -26.5 11t-11.5 27v854h-182q-15 0 -25.5 10.5t-10.5 25.5v70q0 16 10.5 27t25.5 11 h182v62q0 177 89 269.5t257 92.5q90 0 156 -18q34 -8 30 -40l-10 -84q-4 -31 -30 -24q-65 18 -134 18q-100 0 -145 -52.5t-45 -181.5v-42h460v62z" />
<glyph horiz-adv-x="666" />
<glyph horiz-adv-x="0" />
<glyph horiz-adv-x="0" />
<glyph unicode="&#xd;" horiz-adv-x="474" />
<glyph unicode=" "  horiz-adv-x="600" />
<glyph unicode="&#x09;" horiz-adv-x="600" />
<glyph unicode="&#xa0;" horiz-adv-x="600" />
<glyph unicode="!" horiz-adv-x="576" d="M234 374l-46 666v322q0 16 11.5 27t26.5 11h124q15 0 26.5 -11t11.5 -27v-322l-46 -666q-1 -15 -12.5 -25.5t-25.5 -10.5h-34q-14 0 -24 10.5t-12 25.5zM170 94q0 118 118 118t118 -118t-118 -118t-118 118z" />
<glyph unicode="&#x22;" horiz-adv-x="976" d="M223 892l-22 468q-1 18 9.5 29t28.5 11h128q15 0 25.5 -11t10.5 -27v-20l-50 -452q-1 -15 -12 -24.5t-26 -9.5h-54q-15 0 -26 10.5t-12 25.5zM593 892l-22 468q-1 18 9.5 29t28.5 11h128q15 0 25.5 -11t10.5 -27v-20l-50 -452q-1 -15 -12 -24.5t-26 -9.5h-54 q-15 0 -26 10.5t-12 25.5z" />
<glyph unicode="#" horiz-adv-x="1358" d="M734 42l53 314h-336l-55 -324q-2 -13 -13 -22.5t-23 -9.5h-96q-18 0 -28.5 12t-7.5 30l53 314h-175q-15 0 -25.5 11t-10.5 27v76q0 15 10.5 25.5t25.5 10.5h201l67 396h-190q-15 0 -25.5 11t-10.5 27v76q0 15 10.5 25.5t25.5 10.5h216l54 318q2 12 13.5 21t24.5 9h96 q18 0 28.5 -12t7.5 -30l-53 -306h335l54 318q2 12 13.5 21t24.5 9h96q18 0 28.5 -12t7.5 -30l-53 -306h173q15 0 26.5 -10.5t11.5 -25.5v-76q0 -16 -11.5 -27t-26.5 -11h-199l-68 -396h189q15 0 26.5 -10.5t11.5 -25.5v-76q0 -16 -11.5 -27t-26.5 -11h-215l-55 -324 q-2 -13 -13 -22.5t-23 -9.5h-96q-18 0 -28.5 12t-7.5 30zM545 902l-68 -396h336l67 396h-335z" />
<glyph unicode="$" horiz-adv-x="1084" d="M526 1600h48q15 0 26.5 -11.5t11.5 -26.5v-139q153 -5 278 -51q13 -4 19.5 -15.5t4.5 -24.5l-8 -98q-3 -47 -44 -28q-109 50 -250 57v-475q205 -77 293.5 -172.5t88.5 -247.5q0 -161 -99.5 -260.5t-282.5 -123.5v-142q0 -15 -11.5 -26.5t-26.5 -11.5h-48q-16 0 -27 11.5 t-11 26.5v134q-198 2 -356 80q-25 13 -22 40l10 114q3 41 44 16q140 -87 324 -90v515q-193 64 -290.5 163t-97.5 254q0 145 102 238t286 113v143q0 15 11 26.5t27 11.5zM814 358q0 88 -51 146.5t-151 101.5v-461q99 19 150.5 73.5t51.5 139.5zM280 1068q0 -76 51 -132.5 t157 -101.5v424q-104 -15 -156 -64.5t-52 -125.5z" />
<glyph unicode="%" horiz-adv-x="1774" d="M160 1056q0 157 85.5 257.5t230.5 100.5t230.5 -100.5t85.5 -257.5t-85.5 -257.5t-230.5 -100.5t-230.5 100.5t-85.5 257.5zM332 1056q0 -206 144 -206t144 206t-144 206t-144 -206zM982 344q0 157 85.5 257.5t230.5 100.5t230.5 -100.5t85.5 -257.5t-85.5 -257.5 t-230.5 -100.5t-230.5 100.5t-85.5 257.5zM1154 344q0 -206 144 -206t144 206t-144 206t-144 -206zM1440 1340l-946 -1326q-8 -14 -30 -14h-100q-25 0 -34.5 20t4.5 40l946 1326q8 14 30 14h100q25 0 34.5 -20t-4.5 -40z" />
<glyph unicode="&#x26;" horiz-adv-x="1324" d="M1292 0h-114q-32 0 -56 24l-144 140q-161 -188 -450 -188q-126 0 -226 43t-161 132.5t-61 212.5q0 257 282 404q-98 98 -138 173t-40 163q0 145 102 232.5t264 87.5q160 0 264 -92t104 -240q0 -116 -63.5 -206.5t-208.5 -161.5l288 -282q45 140 48 298q0 16 10.5 26 t27.5 10h96q15 0 26.5 -11t11.5 -27q-6 -251 -86 -428l250 -246q20 -18 10.5 -41t-36.5 -23zM254 354q0 -100 74.5 -161t203.5 -61q202 0 322 154l-374 368q-123 -59 -174.5 -131.5t-51.5 -168.5zM744 1092q0 76 -56.5 128t-139.5 52q-90 0 -140 -48.5t-50 -117.5 q0 -56 32.5 -108.5t135.5 -155.5q118 57 168 115t50 135z" />
<glyph unicode="'" horiz-adv-x="584" d="M213 892l-22 468q-1 18 9.5 29t28.5 11h128q15 0 25.5 -11t10.5 -27v-20l-50 -452q-1 -15 -12 -24.5t-26 -9.5h-54q-15 0 -26 10.5t-12 25.5z" />
<glyph unicode="(" horiz-adv-x="718" d="M200 620q0 229 78.5 451t219.5 415q8 14 30 14h62q64 0 30 -58q-119 -196 -184.5 -406.5t-65.5 -415.5t65.5 -415.5t184.5 -406.5q34 -58 -30 -58h-62q-22 0 -30 14q-141 193 -219.5 415t-78.5 451z" />
<glyph unicode=")" horiz-adv-x="718" d="M500 620q0 -229 -78.5 -451t-219.5 -415q-8 -14 -30 -14h-62q-64 0 -30 58q119 196 184.5 406.5t65.5 415.5t-65.5 415.5t-184.5 406.5q-34 58 30 58h62q22 0 30 -14q141 -193 219.5 -415t78.5 -451z" />
<glyph unicode="*" horiz-adv-x="1092" d="M176 924q9 15 23.5 19t28.5 -5l236 -151l-12 281q0 15 11 26.5t27 11.5h92q16 0 27 -11.5t11 -26.5l-13 -281l237 151q13 8 28 4.5t24 -18.5l46 -78q7 -15 3.5 -29.5t-17.5 -22.5l-251 -130l251 -130q12 -8 16.5 -22.5t-2.5 -29.5l-46 -78q-9 -15 -23.5 -19t-28.5 5 l-237 150l13 -280q0 -15 -11 -26.5t-27 -11.5h-92q-16 0 -27 11.5t-11 26.5l12 280l-236 -150q-13 -8 -28 -4.5t-24 18.5l-46 78q-7 15 -3.5 29.5t17.5 22.5l251 130l-251 130q-12 8 -16.5 22.5t2.5 29.5z" />
<glyph unicode="+" horiz-adv-x="1236" d="M528 208v378h-372q-15 0 -25.5 11.5t-10.5 26.5v82q0 15 10.5 25.5t25.5 10.5h372v380q0 15 11 25.5t27 10.5h104q16 0 27 -10.5t11 -25.5v-380h372q15 0 25.5 -10.5t10.5 -25.5v-82q0 -15 -10.5 -26.5t-25.5 -11.5h-372v-378q0 -15 -11 -26.5t-27 -11.5h-104 q-16 0 -27 11.5t-11 26.5z" />
<glyph unicode="," horiz-adv-x="580" d="M170 92q0 120 116 120q64 0 93 -33t29 -113q0 -106 -49 -199t-132 -144q-19 -11 -29 4l-20 30q-10 15 5 28q39 36 64.5 87t28.5 104q-106 5 -106 116z" />
<glyph unicode="-" horiz-adv-x="812" d="M654 578h-496q-15 0 -26.5 10.5t-11.5 25.5v98q0 16 11.5 27t26.5 11h496q15 0 26.5 -11t11.5 -27v-98q0 -15 -11.5 -25.5t-26.5 -10.5z" />
<glyph unicode="." horiz-adv-x="580" d="M172 94q0 118 118 118t118 -118t-118 -118t-118 118z" />
<glyph unicode="/" horiz-adv-x="1002" d="M1002 1468l-834 -1668q-10 -20 -34 -20h-128q-15 0 -19.5 8t1.5 20l834 1668q10 20 34 20h128q14 0 19 -9t-1 -19z" />
<glyph unicode="0" d="M74 700q0 156 31 286t91.5 228.5t159 154t224.5 55.5t224.5 -55.5t159 -154t91.5 -228.5t31 -286t-31 -286t-91.5 -228.5t-159 -154t-224.5 -55.5t-224.5 55.5t-159 154t-91.5 228.5t-31 286zM258 700q0 -268 81.5 -416t240.5 -148t240.5 148t81.5 416t-81.5 416 t-240.5 148t-240.5 -148t-81.5 -416z" />
<glyph unicode="1" d="M540 1190l-236 -172q-12 -9 -28.5 -7.5t-25.5 13.5l-52 72q-8 12 -5 28t15 26l310 226q32 24 72 24h90q15 0 25.5 -11t10.5 -27v-1324q0 -16 -10.5 -27t-25.5 -11h-104q-15 0 -25.5 11t-10.5 27v1152z" />
<glyph unicode="2" d="M962 0h-802q-15 0 -26.5 11t-11.5 27v72q0 45 32 74q247 222 428 420q224 243 224 440q0 108 -82 164t-212 56q-154 0 -284 -70q-43 -21 -46 26l-6 90q-3 28 24 40q63 32 153.5 53t176.5 21q94 0 176 -25t146 -73t101 -124.5t37 -171.5q0 -129 -58 -243.5t-184 -254.5 q-191 -213 -382 -376h596q15 0 26.5 -11t11.5 -27v-80q0 -16 -11.5 -27t-26.5 -11z" />
<glyph unicode="3" d="M320 690v82q0 15 10 26t26 12q205 7 322.5 73.5t117.5 180.5q0 200 -292 200q-157 0 -286 -60q-37 -19 -40 26l-10 94q-3 26 26 38q155 62 320 62q224 0 345 -91t121 -251q0 -254 -268 -350q150 -50 220 -144t70 -216q0 -180 -136.5 -288t-367.5 -108q-195 0 -328 46 q-35 12 -32 46l10 94q5 42 50 24q132 -54 292 -54q153 0 240.5 64t87.5 178q0 92 -62 155t-163 92t-237 33q-16 1 -26 11t-10 25z" />
<glyph unicode="4" d="M64 348v98q0 39 24 74l616 852q20 28 60 28h118q15 0 25.5 -11t10.5 -27v-896h148q16 0 27 -10.5t11 -25.5v-82q0 -16 -11 -27t-27 -11h-148v-272q0 -16 -10.5 -27t-25.5 -11h-102q-16 0 -27 11t-11 27v272h-640q-15 0 -26.5 11t-11.5 27zM742 1148l-494 -682h494v682z " />
<glyph unicode="5" d="M212 704v658q0 16 10.5 27t25.5 11h706q15 0 26.5 -11t11.5 -27v-82q0 -15 -11.5 -25.5t-26.5 -10.5h-566v-398q65 20 168 20q215 0 346.5 -115t131.5 -327q0 -195 -141.5 -321.5t-378.5 -126.5q-185 0 -320 46q-35 12 -32 40l10 110q3 40 42 22q59 -28 138.5 -43 t151.5 -15q162 0 256 84.5t94 223.5q0 135 -89.5 198.5t-236.5 63.5q-136 0 -270 -38q-20 -6 -33 4t-13 32z" />
<glyph unicode="6" d="M604 -24q-112 0 -203 38.5t-160 118t-107 212t-38 309.5q0 203 43 354t121 240.5t177 132.5t221 43q161 0 290 -46q33 -11 30 -52l-8 -92q-7 -44 -42 -26q-115 56 -258 56q-63 0 -115 -14t-100.5 -49t-82.5 -89.5t-57 -139.5t-29 -196q62 69 154 100.5t186 31.5 q196 0 323 -133t127 -339q0 -204 -134 -332t-338 -128zM602 748q-98 0 -183 -44t-133 -120q1 -220 87.5 -334t228.5 -114q133 0 213.5 81.5t80.5 224.5q0 141 -82.5 223.5t-211.5 82.5z" />
<glyph unicode="7" d="M1016 1362v-82q0 -56 -26 -116l-484 -1132q-13 -32 -48 -32h-114q-25 0 -32 11t4 35l516 1198h-656q-15 0 -26.5 10.5t-11.5 25.5v82q0 16 11.5 27t26.5 11h804q15 0 25.5 -11t10.5 -27z" />
<glyph unicode="8" d="M580 -24q-223 0 -357.5 105.5t-134.5 284.5q0 121 75 219.5t209 154.5q-228 123 -228 322q0 152 116 257t320 105q199 0 317.5 -103t118.5 -253q0 -103 -65.5 -185.5t-180.5 -138.5q302 -142 302 -378q0 -179 -134.5 -284.5t-357.5 -105.5zM272 360q0 -100 85 -162 t223 -62t223 62t85 162q0 92 -73 164t-261 142q-136 -42 -209 -125t-73 -181zM834 1076q0 81 -68 134.5t-186 53.5t-186 -54.5t-68 -135.5q0 -89 59 -146.5t213 -117.5q236 92 236 266z" />
<glyph unicode="9" d="M556 1424q112 0 203 -38.5t160 -118t107 -212t38 -309.5q0 -203 -43 -354t-121 -240.5t-177 -132.5t-221 -43q-161 0 -290 46q-33 11 -30 52l8 92q7 44 42 26q115 -56 258 -56q63 0 115 14t100.5 49t82.5 89.5t57 139.5t29 196q-62 -69 -154 -100.5t-186 -31.5 q-196 0 -323 133t-127 339q0 204 134 332t338 128zM558 652q98 0 183 44t133 120q-1 220 -87.5 334t-228.5 114q-133 0 -213.5 -81.5t-80.5 -224.5q0 -141 82.5 -223.5t211.5 -82.5z" />
<glyph unicode=":" horiz-adv-x="580" d="M172 94q0 118 118 118t118 -118t-118 -118t-118 118zM172 942q0 118 118 118t118 -118t-118 -118t-118 118z" />
<glyph unicode=";" horiz-adv-x="580" d="M170 942q0 118 118 118t118 -118t-118 -118t-118 118zM170 92q0 120 116 120q64 0 93 -33t29 -113q0 -106 -49 -199t-132 -144q-19 -11 -29 4l-20 30q-10 15 5 28q39 36 64.5 87t28.5 104q-106 5 -106 116z" />
<glyph unicode="&#x3c;" horiz-adv-x="1236" d="M1084 984l-752 -320l752 -320q32 -15 32 -50v-100q0 -44 -38 -28l-926 398q-32 16 -32 48v104q0 32 32 48l926 398q38 16 38 -28v-100q0 -35 -32 -50z" />
<glyph unicode="=" horiz-adv-x="1236" d="M1080 818h-924q-15 0 -25.5 11.5t-10.5 26.5v82q0 15 10.5 25.5t25.5 10.5h924q15 0 25.5 -10.5t10.5 -25.5v-82q0 -15 -10.5 -26.5t-25.5 -11.5zM1080 354h-924q-15 0 -25.5 11.5t-10.5 26.5v82q0 15 10.5 25.5t25.5 10.5h924q15 0 25.5 -10.5t10.5 -25.5v-82 q0 -15 -10.5 -26.5t-25.5 -11.5z" />
<glyph unicode="&#x3e;" horiz-adv-x="1236" d="M904 664l-752 320q-32 15 -32 50v100q0 44 38 28l926 -398q32 -16 32 -48v-104q0 -32 -32 -48l-926 -398q-38 -16 -38 28v100q0 35 32 50z" />
<glyph unicode="?" horiz-adv-x="1066" d="M110 1214l-8 100q-3 23 22 36q155 74 328 74q218 0 346 -91t128 -259q0 -214 -238 -384q-82 -58 -115 -124.5t-33 -173.5v-16q0 -16 -10.5 -27t-25.5 -11h-102q-15 0 -26.5 11t-11.5 27v20q0 136 43.5 234.5t144.5 169.5q112 77 153 139t41 137q0 92 -74.5 140t-213.5 48 q-73 0 -155.5 -19.5t-148.5 -52.5q-41 -20 -44 22zM336 94q0 118 118 118t118 -118t-118 -118t-118 118z" />
<glyph unicode="@" horiz-adv-x="1928" d="M1366 838q32 -41 20 -110l-64 -346q-2 -81 37 -125.5t119 -44.5q101 0 162.5 108t61.5 272q0 148 -53 277t-148.5 223.5t-236.5 149t-308 54.5q-210 0 -377.5 -98t-260 -269t-92.5 -381q0 -158 56 -295.5t154.5 -236.5t240 -155.5t305.5 -56.5q269 0 446 116 q29 20 44 -10l26 -54q15 -31 -12 -46q-236 -134 -504 -134q-193 0 -359.5 66.5t-283 182.5t-183 277t-66.5 346q0 186 65.5 348.5t179.5 278.5t275 182.5t346 66.5q193 0 357.5 -63t279.5 -173t180 -264t65 -332q0 -217 -101 -352.5t-277 -135.5q-177 0 -250 156 q-132 -144 -372 -144q-148 0 -244 90.5t-96 237.5q0 119 45 222.5t118.5 173t168 109t192.5 39.5q111 0 199.5 -39t144.5 -111zM854 260q200 0 306 144l66 354q-58 86 -202 86q-138 0 -244 -114.5t-106 -273.5q0 -96 49.5 -146t130.5 -50z" />
<glyph unicode="A" horiz-adv-x="1292" d="M892 518l-254 676l-255 -676h509zM750 1363l507 -1319q7 -18 -1 -31t-26 -13h-111q-31 0 -43 30l-125 332h-627l-124 -332q-12 -30 -43 -30h-111q-18 0 -26 13t-1 31l507 1319q15 37 54 37h116q39 0 54 -37z" />
<glyph unicode="B" horiz-adv-x="1250" d="M160 38v1324q0 15 11.5 26.5t26.5 11.5h442q217 0 339.5 -103t122.5 -267q0 -92 -46 -167.5t-132 -118.5q120 -43 183 -137t63 -205q0 -190 -131 -296t-369 -106h-472q-15 0 -26.5 11.5t-11.5 26.5zM336 804h280q148 0 229 60.5t81 165.5q0 214 -310 214h-280v-440z M994 402q0 246 -352 246h-306v-492h306q352 0 352 246z" />
<glyph unicode="C" horiz-adv-x="1222" d="M1074 186q22 10 39 3t19 -31l8 -91q4 -31 -28 -44q-117 -47 -292 -47q-220 0 -386 90.5t-255 254.5t-89 379q0 156 51.5 290t144.5 229.5t228 150t296 54.5q171 0 295 -47q33 -12 29 -43l-12 -90q-6 -51 -54 -28q-104 48 -246 48q-170 0 -296.5 -73.5t-191 -200.5 t-64.5 -290q0 -259 150 -411.5t408 -152.5q126 0 246 50z" />
<glyph unicode="D" horiz-adv-x="1360" d="M1090 700q0 544 -600 544h-154v-1088h154q600 0 600 544zM1270 700q0 -171 -57.5 -305.5t-159 -220t-238 -130t-297.5 -44.5h-320q-16 0 -27 11.5t-11 26.5v1324q0 15 11 26.5t27 11.5h320q161 0 297.5 -44.5t238 -130t159 -220t57.5 -305.5z" />
<glyph unicode="E" horiz-adv-x="1130" d="M160 38v1324q0 15 11.5 26.5t26.5 11.5h796q16 0 27 -11.5t11 -26.5v-80q0 -15 -11 -26.5t-27 -11.5h-658v-444h608q15 0 26.5 -11t11.5 -27v-80q0 -16 -11.5 -27t-26.5 -11h-608v-488h676q15 0 26.5 -11.5t11.5 -26.5v-80q0 -15 -11.5 -26.5t-26.5 -11.5h-814 q-15 0 -26.5 11.5t-11.5 26.5z" />
<glyph unicode="F" horiz-adv-x="1072" d="M160 38v1324q0 15 11.5 26.5t26.5 11.5h796q16 0 27 -11.5t11 -26.5v-80q0 -15 -11 -26.5t-27 -11.5h-658v-438h608q15 0 26.5 -11.5t11.5 -26.5v-80q0 -15 -11.5 -26.5t-26.5 -11.5h-608v-612q0 -15 -11.5 -26.5t-26.5 -11.5h-100q-15 0 -26.5 11.5t-11.5 26.5z" />
<glyph unicode="G" horiz-adv-x="1412" d="M1176 1200q-147 64 -338 64q-257 0 -412.5 -157.5t-155.5 -406.5q0 -255 156.5 -409.5t435.5 -154.5q146 0 234 36v442h-348q-16 0 -27 11.5t-11 26.5v80q0 15 11 26.5t27 11.5h486q15 0 26.5 -11.5t11.5 -26.5v-645q0 -33 -32 -45q-176 -66 -390 -66q-227 0 -400.5 93 t-266.5 257t-93 374q0 153 52.5 286t147 230t234 152.5t304.5 55.5q222 0 385 -61q33 -12 29 -43l-12 -92q-6 -49 -54 -28z" />
<glyph unicode="H" horiz-adv-x="1404" d="M160 38v1324q0 15 11.5 26.5t26.5 11.5h100q15 0 26.5 -11.5t11.5 -26.5v-540h732v540q0 15 11 26.5t27 11.5h100q15 0 26.5 -11.5t11.5 -26.5v-1324q0 -15 -11.5 -26.5t-26.5 -11.5h-100q-16 0 -27 11.5t-11 26.5v628h-732v-628q0 -15 -11.5 -26.5t-26.5 -11.5h-100 q-15 0 -26.5 11.5t-11.5 26.5z" />
<glyph unicode="I" horiz-adv-x="516" d="M208 1400h100q15 0 26.5 -11.5t11.5 -26.5v-1324q0 -15 -11.5 -26.5t-26.5 -11.5h-100q-16 0 -27 11.5t-11 26.5v1324q0 15 11 26.5t27 11.5z" />
<glyph unicode="J" horiz-adv-x="890" d="M554 458v904q0 15 11 26.5t27 11.5h100q15 0 26.5 -11.5t11.5 -26.5v-904q0 -242 -108 -362t-308 -120q-159 0 -269 50q-26 11 -23 40l9 109q2 15 11 20t24 -3q103 -56 242 -56q246 0 246 322z" />
<glyph unicode="K" horiz-adv-x="1214" d="M336 780l562 588q31 32 70 32h124q19 0 24 -15t-8 -28l-586 -613l680 -701q13 -13 8 -28t-24 -15h-138q-39 0 -70 32l-642 675v-669q0 -15 -11 -26.5t-27 -11.5h-100q-15 0 -26.5 11.5t-11.5 26.5v1324q0 15 11.5 26.5t26.5 11.5h100q16 0 27 -11.5t11 -26.5v-582z" />
<glyph unicode="L" horiz-adv-x="1130" d="M160 38v1324q0 15 10.5 26.5t25.5 11.5h102q15 0 26.5 -11.5t11.5 -26.5v-1206h716q16 0 27 -11.5t11 -26.5v-80q0 -15 -11 -26.5t-27 -11.5h-856q-15 0 -25.5 11.5t-10.5 26.5z" />
<glyph unicode="M" horiz-adv-x="1692" d="M846 630l480 742q18 28 52 28h116q16 0 27 -11.5t11 -26.5v-1324q0 -15 -11 -26.5t-27 -11.5h-92q-16 0 -27 11.5t-11 26.5v1106l-430 -658q-15 -22 -38 -22h-100q-23 0 -38 22l-430 658v-1106q0 -15 -11 -26.5t-27 -11.5h-92q-16 0 -27 11.5t-11 26.5v1324q0 15 11 26.5 t27 11.5h116q34 0 52 -28z" />
<glyph unicode="N" horiz-adv-x="1416" d="M160 38v1324q0 15 11 26.5t27 11.5h138q34 0 52 -30l700 -1152v1144q0 15 11.5 26.5t26.5 11.5h94q15 0 25.5 -11.5t10.5 -26.5v-1324q0 -15 -10.5 -26.5t-25.5 -11.5h-142q-31 0 -50 30l-700 1152v-1144q0 -15 -11 -26.5t-27 -11.5h-92q-16 0 -27 11.5t-11 26.5z" />
<glyph unicode="O" horiz-adv-x="1430" d="M1340 700q0 -153 -42.5 -284.5t-120.5 -229.5t-197 -154t-264 -56q-194 0 -337.5 97t-216 259.5t-72.5 367.5t72.5 367.5t216 259.5t337.5 97q145 0 264 -56t197 -154t120.5 -229.5t42.5 -284.5zM270 700q0 -259 121 -411.5t325 -152.5q203 0 323.5 152.5t120.5 411.5 t-120.5 411.5t-323.5 152.5q-204 0 -325 -152.5t-121 -411.5z" />
<glyph unicode="P" horiz-adv-x="1186" d="M1116 964q0 -208 -141.5 -322t-380.5 -114h-258v-490q0 -15 -11.5 -26.5t-26.5 -11.5h-100q-16 0 -27 11.5t-11 26.5v1324q0 15 11 26.5t27 11.5h396q238 0 380 -114.5t142 -321.5zM936 964q0 144 -87 212t-269 68h-244v-560h244q182 0 269 68t87 212z" />
<glyph unicode="Q" horiz-adv-x="1430" d="M1340 700q0 -185 -59.5 -336.5t-177 -252t-277.5 -126.5q2 -14 8 -33q21 -65 76 -94q58 -32 180 -32q59 0 128 12q17 3 30 -6t16 -28l10 -70q2 -13 -7.5 -24t-26.5 -14q-72 -12 -154 -12q-176 0 -278 60q-104 61 -138 186q-8 32 -10 49q-177 13 -307.5 112t-196.5 256.5 t-66 352.5q0 205 72.5 367.5t216 259.5t337.5 97q145 0 264 -56t197 -154t120.5 -229.5t42.5 -284.5zM270 700q0 -259 121 -411.5t325 -152.5q203 0 323.5 152.5t120.5 411.5t-120.5 411.5t-323.5 152.5q-204 0 -325 -152.5t-121 -411.5z" />
<glyph unicode="R" horiz-adv-x="1238" d="M1132 992q0 -145 -82 -243t-230 -141l360 -550q16 -26 7 -42t-39 -16h-102q-30 0 -48 28l-360 556h-302v-546q0 -15 -11 -26.5t-27 -11.5h-100q-15 0 -26.5 11.5t-11.5 26.5v1324q0 15 11.5 26.5t26.5 11.5h428q144 0 257 -45t181 -139t68 -224zM952 992q0 252 -338 252 h-278v-504h278q338 0 338 252z" />
<glyph unicode="S" horiz-adv-x="1084" d="M914 1332l-8 -98q-3 -47 -44 -28q-124 58 -284 58q-149 0 -223.5 -52t-74.5 -144q0 -87 67.5 -149t210.5 -111q235 -81 335.5 -180t100.5 -260q0 -186 -132 -289t-372 -103q-195 0 -358 80q-25 13 -22 40l10 114q3 41 44 16q145 -90 342 -90q149 0 228.5 58t79.5 164 q0 108 -75.5 172.5t-228.5 113.5q-203 65 -306.5 165t-103.5 259q0 164 128 260t354 96q169 0 308 -52q13 -4 19.5 -15.5t4.5 -24.5z" />
<glyph unicode="T" horiz-adv-x="1088" d="M456 38v1206h-398q-15 0 -26.5 11.5t-11.5 26.5v80q0 15 11.5 26.5t26.5 11.5h974q15 0 25.5 -11.5t10.5 -26.5v-80q0 -15 -10.5 -26.5t-25.5 -11.5h-400v-1206q0 -15 -11.5 -26.5t-26.5 -11.5h-100q-16 0 -27 11.5t-11 26.5z" />
<glyph unicode="U" horiz-adv-x="1430" d="M716 -24q-254 0 -405 145.5t-151 424.5v816q0 15 11 26.5t27 11.5h100q15 0 26.5 -11.5t11.5 -26.5v-806q0 -420 380 -420q378 0 378 420v806q0 15 11.5 26.5t26.5 11.5h100q16 0 27 -11.5t11 -26.5v-816q0 -281 -147 -425.5t-407 -144.5z" />
<glyph unicode="V" horiz-adv-x="1352" d="M668 206l438 1164q12 30 43 30h111q18 0 26 -13t1 -31l-507 -1319q-15 -37 -54 -37h-116q-39 0 -54 37l-507 1319q-7 18 1 31t26 13h111q31 0 43 -30z" />
<glyph unicode="W" horiz-adv-x="1992" d="M920 1400h142q35 0 44 -35l289 -1161l352 1162q11 34 44 34h114q42 0 29 -42l-407 -1326q-10 -32 -42 -32h-168q-37 0 -44 32l-282 1142l-282 -1142q-7 -32 -44 -32h-168q-32 0 -42 32l-407 1326q-13 42 29 42h114q33 0 44 -34l352 -1162l289 1161q9 35 44 35z" />
<glyph unicode="X" horiz-adv-x="1336" d="M1069 24l-416 553l-416 -553q-18 -24 -46 -24h-124q-20 0 -26 12.5t6 29.5l504 671l-484 645q-13 16 -7.5 29t25.5 13h126q28 0 46 -24l396 -527l396 527q18 24 46 24h126q20 0 25.5 -13t-7.5 -29l-484 -645l504 -671q12 -17 6 -29.5t-26 -12.5h-124q-28 0 -46 24z" />
<glyph unicode="Y" horiz-adv-x="1324" d="M654 722l400 650q17 28 54 28h126q41 0 18 -38l-510 -808v-516q0 -15 -11 -26.5t-27 -11.5h-100q-15 0 -26.5 11.5t-11.5 26.5v516l-510 808q-23 38 18 38h126q37 0 54 -28z" />
<glyph unicode="Z" horiz-adv-x="1124" d="M1044 1362v-90q0 -48 -26 -84l-756 -1032h764q15 0 26.5 -11.5t11.5 -26.5v-80q0 -15 -11.5 -26.5t-26.5 -11.5h-930q-15 0 -25.5 11.5t-10.5 26.5v86q0 52 32 96l750 1024h-714q-16 0 -27 11.5t-11 26.5v80q0 15 11 26.5t27 11.5h878q16 0 27 -11.5t11 -26.5z" />
<glyph unicode="[" horiz-adv-x="812" d="M240 -222v1686q0 15 11 25.5t27 10.5h458q15 0 25.5 -10.5t10.5 -25.5v-66q0 -15 -10.5 -26.5t-25.5 -11.5h-324v-1480h324q15 0 25.5 -11.5t10.5 -26.5v-64q0 -16 -10.5 -27t-25.5 -11h-458q-16 0 -27 11t-11 27z" />
<glyph unicode="\" horiz-adv-x="1002" d="M822 -200l-834 1668q-6 10 -1 19t19 9h128q24 0 34 -20l834 -1668q6 -12 1.5 -20t-19.5 -8h-128q-24 0 -34 20z" />
<glyph unicode="]" horiz-adv-x="812" d="M572 1464v-1686q0 -16 -11 -27t-27 -11h-458q-15 0 -25.5 11t-10.5 27v64q0 15 10.5 26.5t25.5 11.5h324v1480h-324q-15 0 -25.5 11.5t-10.5 26.5v66q0 15 10.5 25.5t25.5 10.5h458q16 0 27 -10.5t11 -25.5z" />
<glyph unicode="^" horiz-adv-x="1236" d="M605 1260l-312 -490q-20 -32 -52 -32h-108q-23 0 -32.5 13t2.5 33l386 592q15 24 48 24h136q33 0 48 -24l386 -592q12 -20 2.5 -33t-32.5 -13h-108q-32 0 -52 32z" />
<glyph unicode="_" horiz-adv-x="1000" d="M0 -302v60q0 16 11 27t27 11h926q15 0 25.5 -11t10.5 -27v-60q0 -16 -10.5 -27t-25.5 -11h-926q-16 0 -27 11t-11 27z" />
<glyph unicode="`" horiz-adv-x="800" d="M372 1438l176 -242q20 -26 13 -43t-43 -17h-54q-30 0 -54 24l-234 244q-20 21 -13 38.5t39 17.5h130q25 0 40 -22z" />
<glyph unicode="a" horiz-adv-x="1082" d="M472 -24q-178 0 -290 85.5t-112 240.5q0 162 120 254t336 92h258v70q0 106 -62 150t-202 44q-72 0 -158 -18t-148 -46q-37 -17 -40 18l-10 88q-3 28 22 38q155 68 338 68q215 0 321.5 -88t106.5 -292v-642q0 -16 -10.5 -27t-25.5 -11h-96q-15 0 -25.5 11t-10.5 27v42 q-116 -104 -312 -104zM488 124q96 0 174 32t122 94v254h-248q-294 0 -294 -198q0 -92 68 -137t178 -45z" />
<glyph unicode="b" d="M308 80v-42q0 -16 -10.5 -27t-25.5 -11h-96q-15 0 -25.5 11t-10.5 27v1384q0 15 10.5 26.5t25.5 11.5h96q15 0 25.5 -11.5t10.5 -26.5v-466q114 104 290 104q208 0 345 -148t137 -394t-137 -394t-345 -148q-176 0 -290 104zM582 912q-84 0 -156 -33.5t-118 -94.5v-532 q46 -61 118 -94.5t156 -33.5q146 0 236 102.5t90 291.5t-90 291.5t-236 102.5z" />
<glyph unicode="c" horiz-adv-x="996" d="M869 174q18 9 30.5 3.5t14.5 -22.5l8 -84q3 -35 -28 -48q-111 -47 -260 -47q-250 0 -402 148.5t-152 393.5q0 244 151 393t389 149q155 0 264 -44q31 -11 28 -48l-8 -84q-1 -16 -14 -21.5t-31 2.5q-104 47 -233 47q-170 0 -272 -105t-102 -289q0 -185 102.5 -289.5 t279.5 -104.5q138 0 235 50z" />
<glyph unicode="d" d="M852 38v42q-114 -104 -290 -104q-208 0 -345 148t-137 394t137 394t345 148q176 0 290 -104v466q0 15 10.5 26.5t25.5 11.5h96q15 0 25.5 -11.5t10.5 -26.5v-1384q0 -16 -10.5 -27t-25.5 -11h-96q-15 0 -25.5 11t-10.5 27zM578 912q-146 0 -236 -102.5t-90 -291.5 t90 -291.5t236 -102.5q84 0 156 33.5t118 94.5v532q-46 61 -118 94.5t-156 33.5z" />
<glyph unicode="e" horiz-adv-x="1088" d="M254 594h590q-9 148 -87.5 233t-206.5 85q-131 0 -209 -85t-87 -233zM903 42q-126 -66 -303 -66q-126 0 -226 42t-163.5 115.5t-97 172t-33.5 214.5q0 244 127.5 392t342.5 148q219 0 343.5 -150.5t124.5 -397.5v-26q0 -15 -11.5 -25.5t-26.5 -10.5h-726 q12 -151 104.5 -238.5t245.5 -87.5q166 0 271 68q17 11 30.5 5t15.5 -23l9 -82q4 -34 -27 -50z" />
<glyph unicode="f" horiz-adv-x="706" d="M20 928v70q0 16 10.5 27t25.5 11h182v62q0 178 87 270t259 92q58 0 108 -10q34 -6 30 -40l-10 -85q-3 -30 -35 -22q-32 9 -81 9q-102 0 -146 -52t-44 -182v-42h252q15 0 26.5 -11t11.5 -27v-70q0 -15 -11.5 -25.5t-26.5 -10.5h-252v-854q0 -16 -11.5 -27t-26.5 -11h-92 q-15 0 -26.5 11t-11.5 27v854h-182q-15 0 -25.5 10.5t-10.5 25.5z" />
<glyph unicode="g" horiz-adv-x="1152" d="M844 52v52q-111 -108 -290 -108q-96 0 -181.5 37t-150.5 103.5t-103.5 168.5t-38.5 225t37.5 224.5t102.5 168t151 103t183 36.5q88 0 164.5 -28.5t125.5 -77.5v42q0 16 11.5 27t26.5 11h92q16 0 27 -11t11 -27v-922q0 -251 -115 -363.5t-365 -112.5q-173 0 -316 66 q-33 16 -30 48l6 90q1 22 15.5 28.5t30.5 -4.5q138 -80 304 -80q158 0 230 68.5t72 235.5zM570 144q85 0 156.5 34t117.5 98v508q-42 61 -114.5 95.5t-159.5 34.5q-139 0 -228.5 -98.5t-89.5 -285.5t89.5 -286.5t228.5 -99.5z" />
<glyph unicode="h" horiz-adv-x="1166" d="M584 912q-177 0 -276 -130v-744q0 -16 -11 -27t-27 -11h-92q-15 0 -26.5 11t-11.5 27v1384q0 15 11.5 26.5t26.5 11.5h92q16 0 27 -11.5t11 -26.5v-470q117 108 298 108q202 0 316 -121.5t114 -352.5v-548q0 -16 -11.5 -27t-26.5 -11h-92q-15 0 -26.5 11t-11.5 27v552 q0 165 -70 243.5t-214 78.5z" />
<glyph unicode="i" horiz-adv-x="468" d="M150 38v960q0 16 10.5 27t25.5 11h96q15 0 25.5 -11t10.5 -27v-960q0 -16 -10.5 -27t-25.5 -11h-96q-15 0 -25.5 11t-10.5 27zM128 1354q0 106 106 106t106 -106t-106 -106t-106 106z" />
<glyph unicode="j" horiz-adv-x="474" d="M166 -56v1054q0 16 10.5 27t25.5 11h96q15 0 25.5 -11t10.5 -27v-1042q0 -182 -80 -269t-254 -87q-51 0 -94 10q-27 5 -24 34l10 92q3 25 36 18q30 -6 58 -6q94 0 137 46.5t43 149.5zM144 1354q0 106 106 106t106 -106t-106 -106t-106 106z" />
<glyph unicode="k" horiz-adv-x="1034" d="M800 1036h127q18 0 22 -13t-11 -28l-454 -417l501 -536q13 -14 8.5 -28t-24.5 -14h-125q-41 0 -70 32l-466 511v-505q0 -16 -10.5 -27t-25.5 -11h-96q-15 0 -25.5 11t-10.5 27v1384q0 15 10.5 26.5t25.5 11.5h96q15 0 25.5 -11.5t10.5 -26.5v-809l424 391q35 32 68 32z " />
<glyph unicode="l" horiz-adv-x="468" d="M150 38v1384q0 15 10.5 26.5t25.5 11.5h96q15 0 25.5 -11.5t10.5 -26.5v-1384q0 -16 -10.5 -27t-25.5 -11h-96q-15 0 -25.5 11t-10.5 27z" />
<glyph unicode="m" horiz-adv-x="1758" d="M308 782v-744q0 -16 -11.5 -27t-26.5 -11h-92q-15 0 -26.5 11t-11.5 27v960q0 16 11.5 27t26.5 11h92q15 0 26.5 -11t11.5 -27v-46q52 52 124.5 80t151.5 28q193 0 300 -148q142 148 348 148q175 0 285.5 -120t110.5 -326v-576q0 -16 -11.5 -27t-26.5 -11h-92 q-15 0 -26.5 11t-11.5 27v592q0 131 -64.5 206.5t-173.5 75.5q-84 0 -149.5 -29t-126.5 -95q24 -75 24 -174v-576q0 -16 -10.5 -27t-25.5 -11h-96q-15 0 -25.5 11t-10.5 27v592q0 137 -64 209.5t-168 72.5q-80 0 -148.5 -34t-113.5 -96z" />
<glyph unicode="n" horiz-adv-x="1166" d="M584 912q-177 0 -276 -130v-744q0 -16 -11 -27t-27 -11h-92q-15 0 -26.5 11t-11.5 27v960q0 15 11.5 26.5t26.5 11.5h92q16 0 27 -11.5t11 -26.5v-46q117 108 298 108q202 0 316 -121.5t114 -352.5v-548q0 -16 -11.5 -27t-26.5 -11h-92q-15 0 -26.5 11t-11.5 27v552 q0 165 -70 243.5t-214 78.5z" />
<glyph unicode="o" d="M80 518q0 238 136.5 390t363.5 152t363.5 -152t136.5 -390t-136.5 -390t-363.5 -152t-363.5 152t-136.5 390zM252 518q0 -182 86.5 -288t241.5 -106t241.5 106t86.5 288t-86.5 288t-241.5 106t-241.5 -106t-86.5 -288z" />
<glyph unicode="p" d="M308 80v-428q0 -16 -10.5 -27t-25.5 -11h-96q-15 0 -25.5 11t-10.5 27v1346q0 15 10.5 26.5t25.5 11.5h96q15 0 25.5 -11.5t10.5 -26.5v-42q114 104 290 104q208 0 345 -148t137 -394t-137 -394t-345 -148q-176 0 -290 104zM582 912q-84 0 -156 -33.5t-118 -94.5v-532 q46 -61 118 -94.5t156 -33.5q146 0 236 102.5t90 291.5t-90 291.5t-236 102.5z" />
<glyph unicode="q" d="M852 -348v428q-114 -104 -290 -104q-208 0 -345 148t-137 394t137 394t345 148q176 0 290 -104v42q0 15 10.5 26.5t25.5 11.5h96q15 0 25.5 -11.5t10.5 -26.5v-1346q0 -16 -10.5 -27t-25.5 -11h-96q-15 0 -25.5 11t-10.5 27zM578 912q-146 0 -236 -102.5t-90 -291.5 t90 -291.5t236 -102.5q84 0 156 33.5t118 94.5v532q-46 61 -118 94.5t-156 33.5z" />
<glyph unicode="r" horiz-adv-x="750" d="M736 1012l-10 -96q-5 -32 -34 -24q-48 12 -94 12q-218 0 -290 -190v-676q0 -16 -11 -27t-27 -11h-92q-15 0 -26.5 11t-11.5 27v960q0 16 11.5 27t26.5 11h92q16 0 27 -11t11 -27v-78q111 140 308 140q58 0 90 -8q33 -9 30 -40z" />
<glyph unicode="s" horiz-adv-x="932" d="M145 205q130 -81 291 -81q234 0 234 152q0 72 -52 112t-180 74q-173 46 -256.5 120t-83.5 192q0 136 105.5 211t284.5 75q155 0 270 -44q31 -12 27 -45l-9 -84q-1 -17 -14 -23t-31 2q-104 46 -239 46q-109 0 -165.5 -33.5t-56.5 -90.5q0 -67 58.5 -109t183.5 -75 q174 -46 252 -120.5t78 -193.5q0 -150 -108 -232t-298 -82q-177 0 -317 74q-16 9 -22 18.5t-5 27.5l8 88q2 18 15 24.5t30 -3.5z" />
<glyph unicode="t" horiz-adv-x="748" d="M30 928v70q0 16 11 27t27 11h148v272q0 16 10.5 27t25.5 11h94q15 0 26.5 -11t11.5 -27v-272h278q15 0 25.5 -11t10.5 -27v-70q0 -15 -10.5 -25.5t-25.5 -10.5h-278v-496q0 -113 21 -172.5t60 -79.5t111 -20q35 0 62 5q35 7 40 -23l12 -87q5 -30 -31 -36q-53 -7 -99 -7 q-344 0 -344 354v562h-148q-16 0 -27 10.5t-11 25.5z" />
<glyph unicode="u" horiz-adv-x="1166" d="M582 124q177 0 276 130v744q0 16 11 27t27 11h92q15 0 26.5 -11t11.5 -27v-960q0 -15 -11.5 -26.5t-26.5 -11.5h-92q-16 0 -27 11.5t-11 26.5v46q-117 -108 -298 -108q-202 0 -316 121.5t-114 352.5v548q0 16 11.5 27t26.5 11h92q15 0 26.5 -11t11.5 -27v-552 q0 -165 70 -243.5t214 -78.5z" />
<glyph unicode="v" horiz-adv-x="1056" d="M571 0h-102q-39 0 -54 37l-376 955q-7 18 1 31t26 13h104q31 0 43 -30l307 -820l307 820q12 30 43 30h104q18 0 26 -13t1 -31l-376 -955q-15 -37 -54 -37z" />
<glyph unicode="w" horiz-adv-x="1576" d="M740 1036h86q34 0 44 -35l237 -789l241 790q11 34 44 34h106q20 0 28 -11t1 -31l-329 -962q-11 -32 -42 -32h-95q-35 0 -44 32l-234 772l-234 -772q-9 -32 -44 -32h-95q-31 0 -42 32l-329 962q-7 20 1 31t28 11h106q33 0 44 -34l241 -790l237 789q10 35 44 35z" />
<glyph unicode="x" horiz-adv-x="1032" d="M789 24l-288 385l-288 -385q-18 -24 -46 -24h-112q-20 0 -25.5 13t7.5 29l369 493l-343 459q-13 16 -7.5 29t25.5 13h112q28 0 46 -24l262 -350l262 350q18 24 46 24h112q20 0 25.5 -13t-7.5 -29l-343 -459l369 -493q13 -16 7.5 -29t-25.5 -13h-112q-28 0 -46 24z" />
<glyph unicode="y" horiz-adv-x="1058" d="M1007 999l-522 -1359q-10 -26 -36 -26h-110q-14 0 -21.5 11t-2.5 24l132 351l-409 999q-6 15 0.5 26t22.5 11h114q26 0 36 -24l318 -802l305 802q10 24 36 24h114q16 0 22.5 -11t0.5 -26z" />
<glyph unicode="z" horiz-adv-x="938" d="M50 38v64q0 37 8 58t32 50l588 682h-564q-15 0 -26.5 10.5t-11.5 25.5v70q0 16 11.5 27t26.5 11h716q15 0 26.5 -11t11.5 -27v-58q0 -40 -8 -63t-32 -51l-588 -684h612q15 0 25.5 -11.5t10.5 -26.5v-66q0 -16 -10.5 -27t-25.5 -11h-764q-15 0 -26.5 11t-11.5 27z" />
<glyph unicode="{" horiz-adv-x="770" d="M320 620q99 -26 141.5 -86t42.5 -160v-390q0 -100 94 -100h94q15 0 26.5 -10.5t11.5 -25.5v-72q0 -15 -11.5 -25.5t-26.5 -10.5h-92q-130 0 -199 62.5t-69 187.5v356q0 79 -41 131t-101 67q-13 3 -21.5 13.5t-8.5 22.5v80q0 12 8.5 22.5t21.5 13.5q60 15 101 67t41 131 v356q0 125 69 187.5t199 62.5h92q15 0 26.5 -10.5t11.5 -25.5v-72q0 -15 -11.5 -25.5t-26.5 -10.5h-94q-94 0 -94 -100v-390q0 -100 -42.5 -160t-141.5 -86z" />
<glyph unicode="|" horiz-adv-x="584" d="M220 -362v1862q0 15 11.5 26.5t26.5 11.5h68q15 0 26.5 -11.5t11.5 -26.5v-1862q0 -15 -11.5 -26.5t-26.5 -11.5h-68q-15 0 -26.5 11.5t-11.5 26.5z" />
<glyph unicode="}" horiz-adv-x="770" d="M450 620q-99 26 -141.5 86t-42.5 160v390q0 100 -94 100h-94q-15 0 -26.5 10.5t-11.5 25.5v72q0 15 11.5 25.5t26.5 10.5h92q130 0 199 -62.5t69 -187.5v-356q0 -79 41 -131t101 -67q13 -3 21.5 -13.5t8.5 -22.5v-80q0 -12 -8.5 -22.5t-21.5 -13.5q-60 -15 -101 -67 t-41 -131v-356q0 -125 -69 -187.5t-199 -62.5h-92q-15 0 -26.5 10.5t-11.5 25.5v72q0 15 11.5 25.5t26.5 10.5h94q94 0 94 100v390q0 100 42.5 160t141.5 86z" />
<glyph unicode="~" horiz-adv-x="1236" d="M405 828q119 0 244 -90q109 -80 180 -80q47 0 73 30.5t35 101.5q1 15 12 24.5t26 9.5h102q16 0 26.5 -10.5t9.5 -27.5q-9 -144 -85 -214t-199 -70q-65 0 -120 21t-118 65q-120 84 -184 84q-53 0 -77 -29.5t-33 -104.5q-2 -12 -12.5 -22t-25.5 -10h-102q-16 0 -26.5 11.5 t-9.5 28.5q9 142 83 212t201 70z" />
<glyph unicode="&#xa1;" horiz-adv-x="576" d="M188 -4l46 666q1 15 11.5 25.5t24.5 10.5h34q14 0 25.5 -10.5t12.5 -25.5l46 -666v-322q0 -16 -11.5 -27t-26.5 -11h-124q-15 0 -26.5 11t-11.5 27v322zM170 942q0 118 118 118t118 -118t-118 -118t-118 118z" />
<glyph unicode="&#xa2;" horiz-adv-x="996" d="M869 174q18 9 30.5 3.5t14.5 -22.5l8 -84q3 -35 -28 -48q-108 -46 -250 -47v-134q0 -15 -11.5 -26.5t-26.5 -11.5h-48q-15 0 -26.5 11.5t-11.5 26.5v143q-202 33 -321 175.5t-119 357.5q0 216 120.5 359.5t319.5 174.5v142q0 15 11.5 26.5t26.5 11.5h48q15 0 26.5 -11.5 t11.5 -26.5v-134q137 -3 240 -44q31 -11 28 -48l-8 -84q-1 -16 -14 -21.5t-31 2.5q-94 42 -215 47v-788q133 2 225 50zM252 518q0 -152 70.5 -251t197.5 -130v763q-125 -30 -196.5 -130t-71.5 -252z" />
<glyph unicode="&#xa3;" horiz-adv-x="1170" d="M240 670h-124q-15 0 -25.5 11t-10.5 27v40q0 15 10.5 26.5t25.5 11.5h124v230q0 199 116 303.5t322 104.5q184 0 318 -78q20 -10 20 -34l-8 -86q-2 -20 -16.5 -30t-33.5 0q-127 68 -274 68q-268 0 -268 -240v-238h376q15 0 26.5 -11.5t11.5 -26.5v-40q0 -16 -11.5 -27 t-26.5 -11h-376v-176q0 -227 -130 -338h786q16 0 27 -11t11 -27v-80q0 -16 -11 -27t-27 -11h-956q-15 0 -25.5 11t-10.5 27v80q0 6 4 16.5t8 13.5q148 123 148 312v210z" />
<glyph unicode="&#xa4;" horiz-adv-x="1414" d="M265 666q0 126 63 232l-153 154q-11 11 -11 27t11 27l72 72q28 28 54 2l150 -152q107 74 244 74q135 0 245 -75l151 153q26 26 54 -2l72 -72q11 -11 11 -27t-11 -27l-154 -154q64 -105 64 -232t-65 -233l155 -155q11 -11 11 -27t-11 -27l-72 -72q-28 -28 -54 -2l-152 153 q-109 -73 -244 -73t-243 73l-151 -153q-26 -26 -54 2l-72 72q-11 11 -11 27t11 27l154 154q-64 106 -64 234zM429 664q0 -118 74 -198t192 -80t193 80t75 198t-75 199t-193 81q-119 0 -192.5 -81t-73.5 -199z" />
<glyph unicode="&#xa5;" horiz-adv-x="1204" d="M133 422h382v132h-382q-15 0 -25.5 11t-10.5 27v40q0 15 10.5 26.5t25.5 11.5h316l-394 692q-11 20 -7 29t25 9h126q39 0 54 -28l350 -650l350 650q15 28 54 28h126q21 0 25 -9t-7 -29l-394 -692h314q15 0 26.5 -11.5t11.5 -26.5v-40q0 -16 -11.5 -27t-26.5 -11h-380 v-132h380q15 0 26.5 -11.5t11.5 -26.5v-40q0 -16 -11.5 -27t-26.5 -11h-380v-268q0 -15 -11 -26.5t-27 -11.5h-100q-15 0 -26.5 11.5t-11.5 26.5v268h-382q-15 0 -25.5 11t-10.5 27v40q0 15 10.5 26.5t25.5 11.5z" />
<glyph unicode="&#xa6;" horiz-adv-x="584" d="M258 440h68q15 0 26.5 -10.5t11.5 -25.5v-568q0 -15 -11.5 -25.5t-26.5 -10.5h-68q-15 0 -26.5 10.5t-11.5 25.5v568q0 15 11.5 25.5t26.5 10.5zM258 1376h68q15 0 26.5 -11t11.5 -27v-566q0 -15 -11.5 -25.5t-26.5 -10.5h-68q-15 0 -26.5 10.5t-11.5 25.5v566 q0 16 11.5 27t26.5 11z" />
<glyph unicode="&#xa7;" horiz-adv-x="1032" d="M798 1378q36 -14 32 -56l-6 -70q-3 -49 -52 -26q-114 54 -240 54q-101 0 -156.5 -41t-55.5 -105q0 -59 59.5 -101t186.5 -77q172 -48 247 -125.5t75 -192.5q0 -92 -49 -161.5t-133 -106.5q82 -33 134 -100.5t52 -151.5q0 -143 -106.5 -230.5t-301.5 -87.5q-157 0 -304 70 q-41 20 -38 54l8 74q2 20 15.5 27.5t34.5 -3.5q131 -78 284 -78q115 0 173.5 44.5t58.5 117.5q0 70 -49 114t-179 74q-340 78 -340 318q0 95 51 164t141 108q-196 81 -196 250q0 128 105 209t285 81q156 0 264 -46zM712 630q0 80 -48 127t-148 65q-85 -15 -138.5 -67.5 t-53.5 -126.5q0 -80 48 -127t148 -65q85 15 138.5 67.5t53.5 126.5z" />
<glyph unicode="&#xa8;" horiz-adv-x="800" d="M92 1298q0 106 106 106t106 -106t-106 -106t-106 106zM496 1298q0 106 106 106t106 -106t-106 -106t-106 106z" />
<glyph unicode="&#xa9;" horiz-adv-x="1660" d="M570 696q0 -148 81 -233t215 -85q109 0 184 36q37 19 42 -16l8 -62q3 -26 -22 -36q-94 -38 -216 -38q-187 0 -308.5 120t-121.5 314q0 195 122 314.5t308 119.5q126 0 214 -35q27 -10 24 -35l-6 -56q-5 -44 -44 -26q-80 36 -184 36q-135 0 -215.5 -85.5t-80.5 -232.5z M106 700q0 197 97 363.5t263.5 263.5t363.5 97t363.5 -97t263.5 -263.5t97 -363.5t-97 -363.5t-263.5 -263.5t-363.5 -97t-363.5 97t-263.5 263.5t-97 363.5zM218 700q0 -169 82 -312t223 -225.5t307 -82.5t307 82.5t223 225.5t82 312t-82 312t-223 225.5t-307 82.5 t-307 -82.5t-223 -225.5t-82 -312z" />
<glyph unicode="&#xaa;" horiz-adv-x="880" d="M390 650q-125 0 -206.5 60.5t-81.5 173.5q0 127 88 190.5t246 63.5h158v10q0 37 -7 61t-26 44t-56 29.5t-93 9.5q-103 0 -198 -38q-15 -6 -26 1t-12 23l-6 60q-4 26 18 34q102 44 230 44q164 0 242 -71.5t78 -224.5v-416q0 -15 -11 -26.5t-27 -11.5h-68q-15 0 -26.5 11.5 t-11.5 26.5v24q-81 -78 -204 -78zM396 774q131 0 198 88v156h-154q-92 0 -141 -33.5t-49 -90.5t38 -88.5t108 -31.5z" />
<glyph unicode="&#xab;" horiz-adv-x="1074" d="M140 618v12q0 25 24 46l378 332q14 13 24 8t10 -24v-90q0 -29 -22 -48l-260 -230l260 -230q22 -19 22 -48v-90q0 -19 -10 -24t-24 8l-378 332q-24 21 -24 46zM518 618v12q0 25 24 46l378 332q14 13 24 8t10 -24v-90q0 -29 -22 -48l-260 -230l260 -230q22 -19 22 -48v-90 q0 -19 -10 -24t-24 8l-378 332q-24 21 -24 46z" />
<glyph unicode="&#xac;" horiz-adv-x="1236" d="M110 768v82q0 15 10.5 26.5t25.5 11.5h924q15 0 25.5 -11.5t10.5 -26.5v-486q0 -15 -10.5 -26.5t-25.5 -11.5h-106q-15 0 -26.5 11.5t-11.5 26.5v368h-780q-15 0 -25.5 10.5t-10.5 25.5z" />
<glyph unicode="&#xad;" horiz-adv-x="812" d="M656 586h-498q-15 0 -26.5 11.5t-11.5 26.5v82q0 15 11.5 25.5t26.5 10.5h498q15 0 25.5 -10.5t10.5 -25.5v-82q0 -15 -10.5 -26.5t-25.5 -11.5z" />
<glyph unicode="&#xae;" horiz-adv-x="1660" d="M1144 874q0 -78 -43.5 -138.5t-132.5 -87.5l198 -334q9 -14 3 -23t-21 -9h-82q-27 0 -42 24l-186 324h-160v-310q0 -16 -10.5 -27t-25.5 -11h-64q-15 0 -25.5 11t-10.5 27v758q0 16 10.5 27t25.5 11h256q143 0 226.5 -64t83.5 -178zM1008 874q0 64 -42.5 97t-139.5 33 h-148v-260h148q182 0 182 130zM106 700q0 197 97 363.5t263.5 263.5t363.5 97t363.5 -97t263.5 -263.5t97 -363.5t-97 -363.5t-263.5 -263.5t-363.5 -97t-363.5 97t-263.5 263.5t-97 363.5zM218 700q0 -169 82 -312t223 -225.5t307 -82.5t307 82.5t223 225.5t82 312t-82 312 t-223 225.5t-307 82.5t-307 -82.5t-223 -225.5t-82 -312z" />
<glyph unicode="&#xaf;" horiz-adv-x="800" d="M108 1260v72q0 15 10.5 25.5t25.5 10.5h512q15 0 25.5 -10.5t10.5 -25.5v-72q0 -15 -10.5 -25.5t-25.5 -10.5h-512q-15 0 -25.5 10.5t-10.5 25.5z" />
<glyph unicode="&#xb0;" horiz-adv-x="800" d="M130 1154q0 112 79 191t191 79t191 -79t79 -191t-79 -191t-191 -79t-191 79t-79 191zM262 1154q0 -62 39 -103t99 -41t99 41t39 103t-39 103t-99 41t-99 -41t-39 -103z" />
<glyph unicode="&#xb1;" horiz-adv-x="1236" d="M528 350v362h-372q-15 0 -25.5 11.5t-10.5 26.5v80q0 15 10.5 26.5t25.5 11.5h372v362q0 15 11 25.5t27 10.5h104q16 0 27 -10.5t11 -25.5v-362h372q15 0 25.5 -11.5t10.5 -26.5v-80q0 -15 -10.5 -26.5t-25.5 -11.5h-372v-362q0 -15 -11 -25.5t-27 -10.5h-104 q-16 0 -27 10.5t-11 25.5zM1080 72h-922q-15 0 -25.5 11.5t-10.5 26.5v80q0 15 10.5 25.5t25.5 10.5h922q15 0 25.5 -10.5t10.5 -25.5v-80q0 -15 -10.5 -26.5t-25.5 -11.5z" />
<glyph unicode="&#xb2;" horiz-adv-x="780" d="M626 474h-512q-15 0 -26.5 10.5t-11.5 25.5v64q0 25 18 40q140 121 282 276q128 142 128 264q0 62 -44.5 94t-121.5 32q-89 0 -182 -50q-37 -20 -40 20l-6 84q0 23 20 32q111 50 218 50q143 -2 225.5 -69t82.5 -195q0 -161 -156 -332q-127 -138 -212 -214h338 q15 0 26.5 -11.5t11.5 -26.5v-58q0 -15 -11.5 -25.5t-26.5 -10.5z" />
<glyph unicode="&#xb3;" horiz-adv-x="780" d="M204 928v60q0 15 9.5 25t24.5 11q125 5 195.5 43.5t70.5 102.5q0 110 -168 110q-96 0 -176 -40q-17 -9 -31.5 -2t-15.5 25l-7 71q-3 30 24 40q106 42 210 42q152 0 234 -63t82 -171q0 -153 -144 -220q158 -70 158 -232q0 -122 -92 -197t-244 -75q-126 0 -220 34 q-27 9 -24 40l6 76q2 17 13 24.5t29 -0.5q80 -38 188 -38q93 0 142.5 36t49.5 100q0 77 -75 116.5t-205 45.5q-15 1 -24.5 11t-9.5 25z" />
<glyph unicode="&#xb4;" horiz-adv-x="800" d="M225 1196l176 242q15 22 40 22h130q32 0 39 -17.5t-13 -38.5l-234 -244q-24 -24 -54 -24h-54q-36 0 -43 17t13 43z" />
<glyph unicode="&#xb5;" horiz-adv-x="1176" d="M868 262v736q0 16 11.5 27t26.5 11h92q15 0 26.5 -11t11.5 -27v-960q0 -16 -11.5 -27t-26.5 -11h-92q-15 0 -26.5 11t-11.5 27v42q-114 -104 -278 -104q-168 0 -282 104v-430q0 -15 -11 -25.5t-27 -10.5h-92q-15 0 -26.5 10.5t-11.5 25.5v1348q0 16 11.5 27t26.5 11h92 q16 0 27 -11t11 -27v-736q47 -67 123.5 -100.5t158.5 -33.5q80 0 155.5 34t122.5 100z" />
<glyph unicode="&#xb6;" horiz-adv-x="1144" d="M532 1400h392q15 0 25.5 -11t10.5 -27v-1586q0 -16 -10.5 -27t-25.5 -11h-72q-16 0 -27 11t-11 27v1474h-90v-1474q0 -16 -11.5 -27t-26.5 -11h-76q-15 0 -26.5 11t-11.5 27v758h-16q-128 0 -233.5 50.5t-171 152t-65.5 235.5q0 200 124 314t322 114z" />
<glyph unicode="&#xb7;" horiz-adv-x="580" d="M172 664q0 118 118 118t118 -118t-118 -118t-118 118z" />
<glyph unicode="&#xb8;" horiz-adv-x="800" d="M216 -448v64q0 24 18 18q29 -8 78 -8q130 0 130 90q0 45 -45 74.5t-119 37.5q-12 2 -17 9.5t1 18.5l88 166q5 10 18 10h104q12 0 18.5 -7t1.5 -17l-64 -120q74 -20 115 -64.5t41 -107.5q0 -95 -63 -143.5t-201 -48.5q-53 0 -90 8q-14 3 -14 20z" />
<glyph unicode="&#xb9;" horiz-adv-x="780" d="M349 1212l-130 -94q-15 -10 -30.5 -7.5t-23.5 15.5l-36 58q-8 14 -5 27.5t15 22.5l192 142q36 26 82 26h46q15 0 26.5 -11t11.5 -27v-854q0 -15 -11.5 -25.5t-26.5 -10.5h-74q-15 0 -25.5 10.5t-10.5 25.5v702z" />
<glyph unicode="&#xba;" horiz-adv-x="880" d="M76 1034q0 166 101.5 274t262.5 108t262.5 -108t101.5 -274t-101.5 -274t-262.5 -108t-262.5 108t-101.5 274zM224 1034q0 -118 58.5 -188t157.5 -70t157.5 70t58.5 188t-58.5 188t-157.5 70t-157.5 -70t-58.5 -188z" />
<glyph unicode="&#xbb;" horiz-adv-x="1074" d="M934 630v-12q0 -25 -24 -46l-378 -332q-14 -13 -24 -8t-10 24v90q0 29 22 48l260 230l-260 230q-22 19 -22 48v90q0 19 10 24t24 -8l378 -332q24 -21 24 -46zM556 630v-12q0 -25 -24 -46l-378 -332q-14 -13 -24 -8t-10 24v90q0 29 22 48l260 230l-260 230q-22 19 -22 48 v90q0 19 10 24t24 -8l378 -332q24 -21 24 -46z" />
<glyph unicode="&#xbc;" horiz-adv-x="1900" d="M340 1212l-130 -94q-15 -10 -30.5 -7.5t-23.5 15.5l-36 58q-8 14 -5 27.5t15 22.5l192 142q36 26 82 26h46q15 0 26.5 -11t11.5 -27v-854q0 -15 -11.5 -25.5t-26.5 -10.5h-74q-15 0 -25.5 10.5t-10.5 25.5v702zM1509 200h-394q-15 0 -26.5 11t-11.5 27v60q0 39 28 76 l382 530q6 9 20.5 16.5t27.5 7.5h84q17 0 27.5 -11t10.5 -27v-558h74q15 0 26.5 -11t11.5 -27v-56q0 -16 -11.5 -27t-26.5 -11h-74v-162q0 -15 -11 -25.5t-27 -10.5h-74q-15 0 -25.5 10.5t-10.5 25.5v162zM1509 706l-268 -374h268v374zM1387 1402l-758 -1412 q-10 -20 -34 -20h-98q-15 0 -19.5 8t1.5 20l758 1412q10 20 34 20h98q15 0 20 -9t-2 -19z" />
<glyph unicode="&#xbd;" horiz-adv-x="1900" d="M340 1212l-130 -94q-15 -10 -30.5 -7.5t-23.5 15.5l-36 58q-8 14 -5 27.5t15 22.5l192 142q36 26 82 26h46q15 0 26.5 -11t11.5 -27v-854q0 -15 -11.5 -25.5t-26.5 -10.5h-74q-15 0 -25.5 10.5t-10.5 25.5v702zM1659 2h-512q-15 0 -26.5 10.5t-11.5 25.5v64q0 25 18 40 q140 121 282 276q128 142 128 264q0 62 -44.5 94t-121.5 32q-89 0 -182 -50q-37 -20 -40 20l-6 84q0 23 20 32q111 50 218 50q143 -2 225.5 -69t82.5 -195q0 -161 -156 -332q-127 -138 -212 -214h338q15 0 26.5 -11.5t11.5 -26.5v-58q0 -15 -11.5 -25.5t-26.5 -10.5z M1347 1402l-758 -1412q-10 -20 -34 -20h-98q-15 0 -19.5 8t1.5 20l758 1412q10 20 34 20h98q15 0 20 -9t-2 -19z" />
<glyph unicode="&#xbe;" horiz-adv-x="1900" d="M1518 200h-394q-15 0 -26.5 11t-11.5 27v60q0 39 28 76l382 530q6 9 20.5 16.5t27.5 7.5h84q16 0 27 -11t11 -27v-558h74q15 0 26.5 -11t11.5 -27v-56q0 -16 -11.5 -27t-26.5 -11h-74v-162q0 -15 -11 -25.5t-27 -10.5h-74q-15 0 -25.5 10.5t-10.5 25.5v162zM1518 706 l-268 -374h268v374zM204 928v60q0 15 9.5 25t24.5 11q125 5 195.5 43.5t70.5 102.5q0 110 -168 110q-96 0 -176 -40q-17 -9 -31.5 -2t-15.5 25l-7 71q-3 30 24 40q106 42 210 42q152 0 234 -63t82 -171q0 -153 -144 -220q158 -70 158 -232q0 -122 -92 -197t-244 -75 q-126 0 -220 34q-27 9 -24 40l6 76q2 17 13 24.5t29 -0.5q80 -38 188 -38q93 0 142.5 36t49.5 100q0 77 -75 116.5t-205 45.5q-15 1 -24.5 11t-9.5 25zM1396 1402l-758 -1412q-10 -20 -34 -20h-98q-15 0 -19.5 8t1.5 20l758 1412q10 20 34 20h98q14 0 19 -9t-1 -19z" />
<glyph unicode="&#xbf;" horiz-adv-x="1066" d="M956 -178l8 -100q3 -23 -22 -36q-155 -74 -328 -74q-218 0 -346 91t-128 259q0 214 238 384q82 58 115 124.5t33 173.5v16q0 16 10.5 27t25.5 11h102q15 0 26.5 -11t11.5 -27v-20q0 -136 -43.5 -234.5t-144.5 -169.5q-112 -77 -153 -139t-41 -137q0 -92 74.5 -140 t213.5 -48q73 0 155.5 19.5t148.5 52.5q41 20 44 -22zM730 942q0 -118 -118 -118t-118 118t118 118t118 -118z" />
<glyph unicode="&#xc0;" horiz-adv-x="1292" d="M638 1194l254 -676h-509zM1257 44l-507 1319q-15 37 -54 37h-116q-39 0 -54 -37l-507 -1319q-7 -18 1 -31t26 -13h111q31 0 43 30l124 332h627l125 -332q12 -30 43 -30h111q18 0 26 13t1 31zM548 1826l176 -242q20 -26 13 -43t-43 -17h-54q-30 0 -54 24l-234 244 q-20 21 -13 38.5t39 17.5h130q25 0 40 -22z" />
<glyph unicode="&#xc1;" horiz-adv-x="1292" d="M892 518l-254 676l-255 -676h509zM750 1363l507 -1319q7 -18 -1 -31t-26 -13h-111q-31 0 -43 30l-125 332h-627l-124 -332q-12 -30 -43 -30h-111q-18 0 -26 13t-1 31l507 1319q15 37 54 37h116q39 0 54 -37zM541 1584l176 242q15 22 40 22h130q32 0 39 -17.5t-13 -38.5 l-234 -244q-24 -24 -54 -24h-54q-36 0 -43 17t13 43z" />
<glyph unicode="&#xc2;" horiz-adv-x="1292" d="M892 518l-254 676l-255 -676h509zM750 1363l507 -1319q7 -18 -1 -31t-26 -13h-111q-31 0 -43 30l-125 332h-627l-124 -332q-12 -30 -43 -30h-111q-18 0 -26 13t-1 31l507 1319q15 37 54 37h116q39 0 54 -37zM572 1848h128q28 0 46 -24l202 -266q12 -15 7.5 -24.5 t-23.5 -9.5h-90q-29 0 -48 22l-158 174l-158 -174q-19 -22 -48 -22h-90q-19 0 -23.5 9.5t7.5 24.5l202 266q18 24 46 24z" />
<glyph unicode="&#xc3;" horiz-adv-x="1292" d="M638 1194l254 -676h-509zM1257 44l-507 1319q-15 37 -54 37h-116q-39 0 -54 -37l-507 -1319q-7 -18 1 -31t26 -13h111q31 0 43 30l124 332h627l125 -332q12 -30 43 -30h111q18 0 26 13t1 31zM626 1630q-80 60 -108 60t-37.5 -23t-12.5 -79q-3 -32 -36 -32h-70 q-18 0 -28 10.5t-8 27.5q12 226 174 226q70 0 170 -78q81 -60 108 -60q28 0 37.5 23t12.5 79q3 32 36 32h70q18 0 28 -10.5t8 -27.5q-12 -226 -174 -226q-66 0 -170 78z" />
<glyph unicode="&#xc4;" horiz-adv-x="1292" d="M638 1194l254 -676h-509zM1257 44l-507 1319q-15 37 -54 37h-116q-39 0 -54 -37l-507 -1319q-7 -18 1 -31t26 -13h111q31 0 43 30l124 332h627l125 -332q12 -30 43 -30h111q18 0 26 13t1 31zM338 1686q0 106 106 106t106 -106t-106 -106t-106 106zM742 1686 q0 106 106 106t106 -106t-106 -106t-106 106z" />
<glyph unicode="&#xc5;" horiz-adv-x="1292" d="M638 1194l254 -676h-509zM1257 44l-507 1319q-15 37 -54 37h-116q-39 0 -54 -37l-507 -1319q-7 -18 1 -31t26 -13h111q31 0 43 30l124 332h627l125 -332q12 -30 43 -30h111q18 0 26 13t1 31zM858 1686q0 -87 -61 -147.5t-151 -60.5t-151 60.5t-61 147.5t61 147.5 t151 60.5t151 -60.5t61 -147.5zM560 1686q0 -39 24.5 -64.5t61.5 -25.5t61.5 25.5t24.5 64.5t-24.5 64.5t-61.5 25.5t-61.5 -25.5t-24.5 -64.5z" />
<glyph unicode="&#xc6;" horiz-adv-x="1698" d="M152 0h-108q-18 0 -24.5 9.5t2.5 26.5l686 1327q18 37 63 37h785q16 0 27 -11.5t11 -26.5v-80q0 -15 -11 -26.5t-27 -11.5h-550v-444h500q15 0 26.5 -11t11.5 -27v-80q0 -16 -11.5 -27t-26.5 -11h-500v-488h568q15 0 26.5 -11.5t11.5 -26.5v-80q0 -15 -11.5 -26.5 t-26.5 -11.5h-706q-15 0 -26.5 11.5t-11.5 26.5v324h-450l-177 -335q-15 -27 -51 -27zM462 518h368v694z" />
<glyph unicode="&#xc7;" horiz-adv-x="1222" d="M1074 186q22 10 39 3t19 -31l8 -91q4 -31 -28 -44q-105 -42 -262 -47l-46 -88q74 -20 115 -64.5t41 -107.5q0 -95 -63 -143.5t-201 -48.5q-53 0 -90 8q-14 3 -14 20v64q0 24 18 18q29 -8 78 -8q130 0 130 90q0 45 -45 74.5t-119 37.5q-12 2 -17 9.5t1 18.5l67 127 q-284 34 -449.5 227.5t-165.5 489.5q0 156 51.5 290t144.5 229.5t228 150t296 54.5q171 0 295 -47q33 -12 29 -43l-12 -90q-6 -51 -54 -28q-104 48 -246 48q-170 0 -296.5 -73.5t-191 -200.5t-64.5 -290q0 -259 150 -411.5t408 -152.5q126 0 246 50z" />
<glyph unicode="&#xc8;" horiz-adv-x="1130" d="M160 38v1324q0 15 11.5 26.5t26.5 11.5h796q16 0 27 -11.5t11 -26.5v-80q0 -15 -11 -26.5t-27 -11.5h-658v-444h608q15 0 26.5 -11t11.5 -27v-80q0 -16 -11.5 -27t-26.5 -11h-608v-488h676q15 0 26.5 -11.5t11.5 -26.5v-80q0 -15 -11.5 -26.5t-26.5 -11.5h-814 q-15 0 -26.5 11.5t-11.5 26.5zM508 1826l176 -242q20 -26 13 -43t-43 -17h-54q-30 0 -54 24l-234 244q-20 21 -13 38.5t39 17.5h130q25 0 40 -22z" />
<glyph unicode="&#xc9;" horiz-adv-x="1130" d="M160 38v1324q0 15 11.5 26.5t26.5 11.5h796q16 0 27 -11.5t11 -26.5v-80q0 -15 -11 -26.5t-27 -11.5h-658v-444h608q15 0 26.5 -11t11.5 -27v-80q0 -16 -11.5 -27t-26.5 -11h-608v-488h676q15 0 26.5 -11.5t11.5 -26.5v-80q0 -15 -11.5 -26.5t-26.5 -11.5h-814 q-15 0 -26.5 11.5t-11.5 26.5zM479 1584l176 242q15 22 40 22h130q32 0 39 -17.5t-13 -38.5l-234 -244q-24 -24 -54 -24h-54q-36 0 -43 17t13 43z" />
<glyph unicode="&#xca;" horiz-adv-x="1130" d="M160 38v1324q0 15 11.5 26.5t26.5 11.5h796q16 0 27 -11.5t11 -26.5v-80q0 -15 -11 -26.5t-27 -11.5h-658v-444h608q15 0 26.5 -11t11.5 -27v-80q0 -16 -11.5 -27t-26.5 -11h-608v-488h676q15 0 26.5 -11.5t11.5 -26.5v-80q0 -15 -11.5 -26.5t-26.5 -11.5h-814 q-15 0 -26.5 11.5t-11.5 26.5zM522 1848h128q28 0 46 -24l202 -266q12 -15 7.5 -24.5t-23.5 -9.5h-90q-29 0 -48 22l-158 174l-158 -174q-19 -22 -48 -22h-90q-19 0 -23.5 9.5t7.5 24.5l202 266q18 24 46 24z" />
<glyph unicode="&#xcb;" horiz-adv-x="1130" d="M160 38v1324q0 15 11.5 26.5t26.5 11.5h796q16 0 27 -11.5t11 -26.5v-80q0 -15 -11 -26.5t-27 -11.5h-658v-444h608q15 0 26.5 -11t11.5 -27v-80q0 -16 -11.5 -27t-26.5 -11h-608v-488h676q15 0 26.5 -11.5t11.5 -26.5v-80q0 -15 -11.5 -26.5t-26.5 -11.5h-814 q-15 0 -26.5 11.5t-11.5 26.5zM288 1686q0 106 106 106t106 -106t-106 -106t-106 106zM692 1686q0 106 106 106t106 -106t-106 -106t-106 106z" />
<glyph unicode="&#xcc;" horiz-adv-x="516" d="M208 1400h100q15 0 26.5 -11.5t11.5 -26.5v-1324q0 -15 -11.5 -26.5t-26.5 -11.5h-100q-16 0 -27 11.5t-11 26.5v1324q0 15 11 26.5t27 11.5zM142 1826l176 -242q20 -26 13 -43t-43 -17h-54q-30 0 -54 24l-234 244q-20 21 -13 38.5t39 17.5h130q25 0 40 -22z" />
<glyph unicode="&#xcd;" horiz-adv-x="516" d="M208 1400h100q15 0 26.5 -11.5t11.5 -26.5v-1324q0 -15 -11.5 -26.5t-26.5 -11.5h-100q-16 0 -27 11.5t-11 26.5v1324q0 15 11 26.5t27 11.5zM169 1584l176 242q15 22 40 22h130q32 0 39 -17.5t-13 -38.5l-234 -244q-24 -24 -54 -24h-54q-36 0 -43 17t13 43z" />
<glyph unicode="&#xce;" horiz-adv-x="516" d="M198 1400h100q15 0 26.5 -11.5t11.5 -26.5v-1324q0 -15 -11.5 -26.5t-26.5 -11.5h-100q-16 0 -27 11.5t-11 26.5v1324q0 15 11 26.5t27 11.5zM174 1848h128q28 0 46 -24l202 -266q12 -15 7.5 -24.5t-23.5 -9.5h-90q-29 0 -48 22l-158 174l-158 -174q-19 -22 -48 -22h-90 q-19 0 -23.5 9.5t7.5 24.5l202 266q18 24 46 24z" />
<glyph unicode="&#xcf;" horiz-adv-x="516" d="M208 1400h100q15 0 26.5 -11.5t11.5 -26.5v-1324q0 -15 -11.5 -26.5t-26.5 -11.5h-100q-16 0 -27 11.5t-11 26.5v1324q0 15 11 26.5t27 11.5zM-50 1686q0 106 106 106t106 -106t-106 -106t-106 106zM354 1686q0 106 106 106t106 -106t-106 -106t-106 106z" />
<glyph unicode="&#xd0;" horiz-adv-x="1360" d="M1270 700q0 -171 -57.5 -305.5t-159 -220t-238 -130t-297.5 -44.5h-320q-16 0 -27 11.5t-11 26.5v590h-112q-15 0 -26.5 11.5t-11.5 26.5v68q0 15 11.5 26.5t26.5 11.5h112v590q0 15 11 26.5t27 11.5h320q161 0 297.5 -44.5t238 -130t159 -220t57.5 -305.5zM1090 700 q0 544 -600 544h-154v-472h294q16 0 27 -11.5t11 -26.5v-68q0 -15 -11 -26.5t-27 -11.5h-294v-472h154q600 0 600 544z" />
<glyph unicode="&#xd1;" horiz-adv-x="1416" d="M160 38v1324q0 15 11 26.5t27 11.5h138q34 0 52 -30l700 -1152v1144q0 15 11.5 26.5t26.5 11.5h94q15 0 25.5 -11.5t10.5 -26.5v-1324q0 -15 -10.5 -26.5t-25.5 -11.5h-142q-31 0 -50 30l-700 1152v-1144q0 -15 -11 -26.5t-27 -11.5h-92q-16 0 -27 11.5t-11 26.5z M696 1630q-80 60 -108 60t-37.5 -23t-12.5 -79q-3 -32 -36 -32h-70q-18 0 -28 10.5t-8 27.5q12 226 174 226q70 0 170 -78q81 -60 108 -60q28 0 37.5 23t12.5 79q3 32 36 32h70q18 0 28 -10.5t8 -27.5q-12 -226 -174 -226q-66 0 -170 78z" />
<glyph unicode="&#xd2;" horiz-adv-x="1430" d="M1340 700q0 -153 -42.5 -284.5t-120.5 -229.5t-197 -154t-264 -56q-194 0 -337.5 97t-216 259.5t-72.5 367.5t72.5 367.5t216 259.5t337.5 97q145 0 264 -56t197 -154t120.5 -229.5t42.5 -284.5zM270 700q0 -259 121 -411.5t325 -152.5q203 0 323.5 152.5t120.5 411.5 t-120.5 411.5t-323.5 152.5q-204 0 -325 -152.5t-121 -411.5zM628 1826l176 -242q20 -26 13 -43t-43 -17h-54q-30 0 -54 24l-234 244q-20 21 -13 38.5t39 17.5h130q25 0 40 -22z" />
<glyph unicode="&#xd3;" horiz-adv-x="1430" d="M1340 700q0 -153 -42.5 -284.5t-120.5 -229.5t-197 -154t-264 -56q-194 0 -337.5 97t-216 259.5t-72.5 367.5t72.5 367.5t216 259.5t337.5 97q145 0 264 -56t197 -154t120.5 -229.5t42.5 -284.5zM270 700q0 -259 121 -411.5t325 -152.5q203 0 323.5 152.5t120.5 411.5 t-120.5 411.5t-323.5 152.5q-204 0 -325 -152.5t-121 -411.5zM599 1584l176 242q15 22 40 22h130q32 0 39 -17.5t-13 -38.5l-234 -244q-24 -24 -54 -24h-54q-36 0 -43 17t13 43z" />
<glyph unicode="&#xd4;" horiz-adv-x="1430" d="M1340 700q0 -153 -42.5 -284.5t-120.5 -229.5t-197 -154t-264 -56q-194 0 -337.5 97t-216 259.5t-72.5 367.5t72.5 367.5t216 259.5t337.5 97q145 0 264 -56t197 -154t120.5 -229.5t42.5 -284.5zM270 700q0 -259 121 -411.5t325 -152.5q203 0 323.5 152.5t120.5 411.5 t-120.5 411.5t-323.5 152.5q-204 0 -325 -152.5t-121 -411.5zM640 1848h128q28 0 46 -24l202 -266q12 -15 7.5 -24.5t-23.5 -9.5h-90q-29 0 -48 22l-158 174l-158 -174q-19 -22 -48 -22h-90q-19 0 -23.5 9.5t7.5 24.5l202 266q18 24 46 24z" />
<glyph unicode="&#xd5;" horiz-adv-x="1430" d="M1340 700q0 -153 -42.5 -284.5t-120.5 -229.5t-197 -154t-264 -56q-194 0 -337.5 97t-216 259.5t-72.5 367.5t72.5 367.5t216 259.5t337.5 97q145 0 264 -56t197 -154t120.5 -229.5t42.5 -284.5zM270 700q0 -259 121 -411.5t325 -152.5q203 0 323.5 152.5t120.5 411.5 t-120.5 411.5t-323.5 152.5q-204 0 -325 -152.5t-121 -411.5zM692 1630q-80 60 -108 60t-37.5 -23t-12.5 -79q-3 -32 -36 -32h-70q-18 0 -28 10.5t-8 27.5q12 226 174 226q70 0 170 -78q81 -60 108 -60q28 0 37.5 23t12.5 79q3 32 36 32h70q18 0 28 -10.5t8 -27.5 q-12 -226 -174 -226q-66 0 -170 78z" />
<glyph unicode="&#xd6;" horiz-adv-x="1430" d="M1340 700q0 -153 -42.5 -284.5t-120.5 -229.5t-197 -154t-264 -56q-194 0 -337.5 97t-216 259.5t-72.5 367.5t72.5 367.5t216 259.5t337.5 97q145 0 264 -56t197 -154t120.5 -229.5t42.5 -284.5zM270 700q0 -259 121 -411.5t325 -152.5q203 0 323.5 152.5t120.5 411.5 t-120.5 411.5t-323.5 152.5q-204 0 -325 -152.5t-121 -411.5zM408 1686q0 106 106 106t106 -106t-106 -106t-106 106zM812 1686q0 106 106 106t106 -106t-106 -106t-106 106z" />
<glyph unicode="&#xd7;" horiz-adv-x="1236" d="M902 244l-293 293l-293 -293q-9 -9 -24 -9.5t-26 9.5l-72 72q-11 14 -12 29.5t8 24.5l293 293l-291 291q-10 11 -9.5 26.5t11.5 27.5l72 72q10 10 26 10t26 -10l291 -291l293 293q9 9 24.5 8t29.5 -12l72 -72q10 -11 9.5 -26t-9.5 -24l-293 -293l293 -293q10 -10 10 -26 t-10 -26l-72 -72q-12 -11 -27.5 -11.5t-26.5 9.5z" />
<glyph unicode="&#xd8;" horiz-adv-x="1430" d="M1306 1572l-175 -308q101 -99 155 -245t54 -319q0 -153 -42.5 -284.5t-120.5 -229.5t-197 -154t-264 -56q-155 0 -281 64l-125 -220q-10 -20 -34 -20h-104q-15 0 -19.5 8t1.5 20l165 290q-111 98 -170 249t-59 333q0 205 72.5 367.5t216 259.5t337.5 97q170 0 302 -76 l132 232q10 20 34 20h104q14 0 19 -9t-1 -19zM270 700q0 -276 136 -429l530 933q-97 60 -220 60q-204 0 -325 -152.5t-121 -411.5zM1160 700q0 256 -118 408l-526 -925q88 -47 200 -47q203 0 323.5 152.5t120.5 411.5z" />
<glyph unicode="&#xd9;" horiz-adv-x="1430" d="M716 -24q-254 0 -405 145.5t-151 424.5v816q0 15 11 26.5t27 11.5h100q15 0 26.5 -11.5t11.5 -26.5v-806q0 -420 380 -420q378 0 378 420v806q0 15 11.5 26.5t26.5 11.5h100q16 0 27 -11.5t11 -26.5v-816q0 -281 -147 -425.5t-407 -144.5zM588 1826l176 -242 q20 -26 13 -43t-43 -17h-54q-30 0 -54 24l-234 244q-20 21 -13 38.5t39 17.5h130q25 0 40 -22z" />
<glyph unicode="&#xda;" horiz-adv-x="1430" d="M716 -24q-254 0 -405 145.5t-151 424.5v816q0 15 11 26.5t27 11.5h100q15 0 26.5 -11.5t11.5 -26.5v-806q0 -420 380 -420q378 0 378 420v806q0 15 11.5 26.5t26.5 11.5h100q16 0 27 -11.5t11 -26.5v-816q0 -281 -147 -425.5t-407 -144.5zM639 1584l176 242q15 22 40 22 h130q32 0 39 -17.5t-13 -38.5l-234 -244q-24 -24 -54 -24h-54q-36 0 -43 17t13 43z" />
<glyph unicode="&#xdb;" horiz-adv-x="1430" d="M716 -22q-254 0 -405 145.5t-151 424.5v816q0 15 11 26.5t27 11.5h100q15 0 26.5 -11.5t11.5 -26.5v-806q0 -420 380 -420q378 0 378 420v806q0 15 11.5 26.5t26.5 11.5h100q16 0 27 -11.5t11 -26.5v-816q0 -281 -147 -425.5t-407 -144.5zM640 1848h128q28 0 46 -24 l202 -266q12 -15 7.5 -24.5t-23.5 -9.5h-90q-29 0 -48 22l-158 174l-158 -174q-19 -22 -48 -22h-90q-19 0 -23.5 9.5t7.5 24.5l202 266q18 24 46 24z" />
<glyph unicode="&#xdc;" horiz-adv-x="1430" d="M716 -24q-254 0 -405 145.5t-151 424.5v816q0 15 11 26.5t27 11.5h100q15 0 26.5 -11.5t11.5 -26.5v-806q0 -420 380 -420q378 0 378 420v806q0 15 11.5 26.5t26.5 11.5h100q16 0 27 -11.5t11 -26.5v-816q0 -281 -147 -425.5t-407 -144.5zM406 1686q0 106 106 106 t106 -106t-106 -106t-106 106zM810 1686q0 106 106 106t106 -106t-106 -106t-106 106z" />
<glyph unicode="&#xdd;" horiz-adv-x="1324" d="M654 722l400 650q17 28 54 28h126q41 0 18 -38l-510 -808v-516q0 -15 -11 -26.5t-27 -11.5h-100q-15 0 -26.5 11.5t-11.5 26.5v516l-510 808q-23 38 18 38h126q37 0 54 -28zM559 1584l176 242q15 22 40 22h130q32 0 39 -17.5t-13 -38.5l-234 -244q-24 -24 -54 -24h-54 q-36 0 -43 17t13 43z" />
<glyph unicode="&#xde;" horiz-adv-x="1186" d="M1116 710q0 -207 -142 -321.5t-380 -114.5h-258v-236q0 -15 -11.5 -26.5t-26.5 -11.5h-100q-16 0 -27 11.5t-11 26.5v1324q0 15 11 26.5t27 11.5h100q15 0 26.5 -11.5t11.5 -26.5v-216h258q239 0 380.5 -114t141.5 -322zM936 710q0 144 -87 212t-269 68h-244v-560h244 q182 0 269 68t87 212z" />
<glyph unicode="&#xdf;" horiz-adv-x="1140" d="M542 684v88q0 14 9.5 25.5t26.5 12.5q114 8 182 76.5t68 177.5q0 94 -62.5 147t-177.5 53q-118 0 -184 -73.5t-66 -214.5v-938q0 -16 -10.5 -27t-25.5 -11h-104q-16 0 -27 11t-11 27v908q0 234 111.5 356t318.5 122q184 0 301 -101.5t117 -254.5q0 -242 -244 -336 q141 -37 218.5 -139t77.5 -239q0 -176 -105 -277t-295 -101q-121 0 -228 44q-33 14 -30 56l8 88q5 45 44 24q92 -52 188 -52q117 0 177.5 57t60.5 161q0 124 -83.5 202.5t-218.5 89.5q-16 1 -26 12t-10 26z" />
<glyph unicode="&#xe0;" horiz-adv-x="1082" d="M472 -24q-178 0 -290 85.5t-112 240.5q0 162 120 254t336 92h258v70q0 106 -62 150t-202 44q-72 0 -158 -18t-148 -46q-37 -17 -40 18l-10 88q-3 28 22 38q155 68 338 68q215 0 321.5 -88t106.5 -292v-642q0 -16 -10.5 -27t-25.5 -11h-96q-15 0 -25.5 11t-10.5 27v42 q-116 -104 -312 -104zM488 124q96 0 174 32t122 94v254h-248q-294 0 -294 -198q0 -92 68 -137t178 -45zM440 1478l176 -242q20 -26 13 -43t-43 -17h-54q-30 0 -54 24l-234 244q-20 21 -13 38.5t39 17.5h130q25 0 40 -22z" />
<glyph unicode="&#xe1;" horiz-adv-x="1082" d="M472 -24q-178 0 -290 85.5t-112 240.5q0 162 120 254t336 92h258v70q0 106 -62 150t-202 44q-72 0 -158 -18t-148 -46q-37 -17 -40 18l-10 88q-3 28 22 38q155 68 338 68q215 0 321.5 -88t106.5 -292v-642q0 -16 -10.5 -27t-25.5 -11h-96q-15 0 -25.5 11t-10.5 27v42 q-116 -104 -312 -104zM488 124q96 0 174 32t122 94v254h-248q-294 0 -294 -198q0 -92 68 -137t178 -45zM433 1236l176 242q15 22 40 22h130q32 0 39 -17.5t-13 -38.5l-234 -244q-24 -24 -54 -24h-54q-36 0 -43 17t13 43z" />
<glyph unicode="&#xe2;" horiz-adv-x="1082" d="M472 -24q-178 0 -290 85.5t-112 240.5q0 162 120 254t336 92h258v70q0 106 -62 150t-202 44q-72 0 -158 -18t-148 -46q-37 -17 -40 18l-10 88q-3 28 22 38q155 68 338 68q215 0 321.5 -88t106.5 -292v-642q0 -16 -10.5 -27t-25.5 -11h-96q-15 0 -25.5 11t-10.5 27v42 q-116 -104 -312 -104zM488 124q96 0 174 32t122 94v254h-248q-294 0 -294 -198q0 -92 68 -137t178 -45zM472 1500h128q28 0 46 -24l202 -266q12 -15 7.5 -24.5t-23.5 -9.5h-90q-29 0 -48 22l-158 174l-158 -174q-19 -22 -48 -22h-90q-19 0 -23.5 9.5t7.5 24.5l202 266 q18 24 46 24z" />
<glyph unicode="&#xe3;" horiz-adv-x="1082" d="M472 -24q-178 0 -290 85.5t-112 240.5q0 162 120 254t336 92h258v70q0 106 -62 150t-202 44q-72 0 -158 -18t-148 -46q-37 -17 -40 18l-10 88q-3 28 22 38q155 68 338 68q215 0 321.5 -88t106.5 -292v-642q0 -16 -10.5 -27t-25.5 -11h-96q-15 0 -25.5 11t-10.5 27v42 q-116 -104 -312 -104zM488 124q96 0 174 32t122 94v254h-248q-294 0 -294 -198q0 -92 68 -137t178 -45zM510 1282q-80 60 -108 60t-37.5 -23t-12.5 -79q-3 -32 -36 -32h-70q-18 0 -28 10.5t-8 27.5q12 226 174 226q70 0 170 -78q81 -60 108 -60q28 0 37.5 23t12.5 79 q3 32 36 32h70q18 0 28 -10.5t8 -27.5q-12 -226 -174 -226q-66 0 -170 78z" />
<glyph unicode="&#xe4;" horiz-adv-x="1082" d="M472 -24q-178 0 -290 85.5t-112 240.5q0 162 120 254t336 92h258v70q0 106 -62 150t-202 44q-72 0 -158 -18t-148 -46q-37 -17 -40 18l-10 88q-3 28 22 38q155 68 338 68q215 0 321.5 -88t106.5 -292v-642q0 -16 -10.5 -27t-25.5 -11h-96q-15 0 -25.5 11t-10.5 27v42 q-116 -104 -312 -104zM488 124q96 0 174 32t122 94v254h-248q-294 0 -294 -198q0 -92 68 -137t178 -45zM234 1338q0 106 106 106t106 -106t-106 -106t-106 106zM638 1338q0 106 106 106t106 -106t-106 -106t-106 106z" />
<glyph unicode="&#xe5;" horiz-adv-x="1082" d="M472 -24q-178 0 -290 85.5t-112 240.5q0 162 120 254t336 92h258v70q0 106 -62 150t-202 44q-72 0 -158 -18t-148 -46q-37 -17 -40 18l-10 88q-3 28 22 38q155 68 338 68q215 0 321.5 -88t106.5 -292v-642q0 -16 -10.5 -27t-25.5 -11h-96q-15 0 -25.5 11t-10.5 27v42 q-116 -104 -312 -104zM488 124q96 0 174 32t122 94v254h-248q-294 0 -294 -198q0 -92 68 -137t178 -45zM752 1338q0 -87 -61 -147.5t-151 -60.5t-151 60.5t-61 147.5t61 147.5t151 60.5t151 -60.5t61 -147.5zM454 1338q0 -39 24.5 -64.5t61.5 -25.5t61.5 25.5t24.5 64.5 t-24.5 64.5t-61.5 25.5t-61.5 -25.5t-24.5 -64.5z" />
<glyph unicode="&#xe6;" horiz-adv-x="1700" d="M448 124q213 0 296 206v180h-232q-143 0 -206.5 -51t-63.5 -147q0 -92 55.5 -140t150.5 -48zM906 594h550q-11 152 -79 235t-195 83q-128 0 -197.5 -83.5t-78.5 -234.5zM186 1005q136 55 316 55q265 0 344 -178q56 90 144 134t192 44q216 0 332 -149t116 -399v-26 q0 -15 -11 -25.5t-27 -10.5h-686q10 -156 96.5 -241t233.5 -85q150 0 248 68q15 11 31 5.5t19 -25.5l9 -82q4 -30 -20 -44q-120 -70 -291 -70q-123 0 -229.5 53t-166.5 159q-59 -102 -161.5 -157t-222.5 -55q-175 0 -278.5 86t-103.5 246q0 162 111 256t325 94h238v22 q0 122 -61 177t-201 55t-268 -52q-37 -15 -40 18l-11 89q-3 27 23 38z" />
<glyph unicode="&#xe7;" horiz-adv-x="996" d="M869 174q18 9 30.5 3.5t14.5 -22.5l8 -84q3 -35 -28 -48q-82 -35 -190 -44l-48 -91q74 -20 115 -64.5t41 -107.5q0 -95 -63 -143.5t-201 -48.5q-53 0 -90 8q-14 3 -14 20v64q0 24 18 18q29 -8 78 -8q130 0 130 90q0 45 -45 74.5t-119 37.5q-12 2 -17 9.5t1 18.5l66 124 q-218 23 -347 168t-129 370q0 244 151 393t389 149q155 0 264 -44q31 -11 28 -48l-8 -84q-1 -16 -14 -21.5t-31 2.5q-104 47 -233 47q-170 0 -272 -105t-102 -289q0 -185 102.5 -289.5t279.5 -104.5q138 0 235 50z" />
<glyph unicode="&#xe8;" horiz-adv-x="1088" d="M254 594h590q-9 148 -87.5 233t-206.5 85q-131 0 -209 -85t-87 -233zM903 42q-126 -66 -303 -66q-126 0 -226 42t-163.5 115.5t-97 172t-33.5 214.5q0 244 127.5 392t342.5 148q219 0 343.5 -150.5t124.5 -397.5v-26q0 -15 -11.5 -25.5t-26.5 -10.5h-726 q12 -151 104.5 -238.5t245.5 -87.5q166 0 271 68q17 11 30.5 5t15.5 -23l9 -82q4 -34 -27 -50zM460 1478l176 -242q20 -26 13 -43t-43 -17h-54q-30 0 -54 24l-234 244q-20 21 -13 38.5t39 17.5h130q25 0 40 -22z" />
<glyph unicode="&#xe9;" horiz-adv-x="1088" d="M254 594h590q-9 148 -87.5 233t-206.5 85q-131 0 -209 -85t-87 -233zM903 42q-126 -66 -303 -66q-126 0 -226 42t-163.5 115.5t-97 172t-33.5 214.5q0 244 127.5 392t342.5 148q219 0 343.5 -150.5t124.5 -397.5v-26q0 -15 -11.5 -25.5t-26.5 -10.5h-726 q12 -151 104.5 -238.5t245.5 -87.5q166 0 271 68q17 11 30.5 5t15.5 -23l9 -82q4 -34 -27 -50zM423 1236l176 242q15 22 40 22h130q32 0 39 -17.5t-13 -38.5l-234 -244q-24 -24 -54 -24h-54q-36 0 -43 17t13 43z" />
<glyph unicode="&#xea;" horiz-adv-x="1088" d="M254 594h590q-9 148 -87.5 233t-206.5 85q-131 0 -209 -85t-87 -233zM903 42q-126 -66 -303 -66q-126 0 -226 42t-163.5 115.5t-97 172t-33.5 214.5q0 244 127.5 392t342.5 148q219 0 343.5 -150.5t124.5 -397.5v-26q0 -15 -11.5 -25.5t-26.5 -10.5h-726 q12 -151 104.5 -238.5t245.5 -87.5q166 0 271 68q17 11 30.5 5t15.5 -23l9 -82q4 -34 -27 -50zM472 1500h128q28 0 46 -24l202 -266q12 -15 7.5 -24.5t-23.5 -9.5h-90q-29 0 -48 22l-158 174l-158 -174q-19 -22 -48 -22h-90q-19 0 -23.5 9.5t7.5 24.5l202 266q18 24 46 24z " />
<glyph unicode="&#xeb;" horiz-adv-x="1088" d="M254 594h590q-9 148 -87.5 233t-206.5 85q-131 0 -209 -85t-87 -233zM903 42q-126 -66 -303 -66q-126 0 -226 42t-163.5 115.5t-97 172t-33.5 214.5q0 244 127.5 392t342.5 148q219 0 343.5 -150.5t124.5 -397.5v-26q0 -15 -11.5 -25.5t-26.5 -10.5h-726 q12 -151 104.5 -238.5t245.5 -87.5q166 0 271 68q17 11 30.5 5t15.5 -23l9 -82q4 -34 -27 -50zM232 1338q0 106 106 106t106 -106t-106 -106t-106 106zM636 1338q0 106 106 106t106 -106t-106 -106t-106 106z" />
<glyph unicode="&#xec;" horiz-adv-x="468" d="M150 38v960q0 16 11.5 27t26.5 11h94q15 0 25.5 -11t10.5 -27v-960q0 -16 -10.5 -27t-25.5 -11h-94q-15 0 -26.5 11t-11.5 27zM122 1478l176 -242q20 -26 13 -43t-43 -17h-54q-30 0 -54 24l-234 244q-20 21 -13 38.5t39 17.5h130q25 0 40 -22z" />
<glyph unicode="&#xed;" horiz-adv-x="468" d="M150 38v960q0 16 11.5 27t26.5 11h94q15 0 25.5 -11t10.5 -27v-960q0 -16 -10.5 -27t-25.5 -11h-94q-15 0 -26.5 11t-11.5 27zM143 1236l176 242q15 22 40 22h130q32 0 39 -17.5t-13 -38.5l-234 -244q-24 -24 -54 -24h-54q-36 0 -43 17t13 43z" />
<glyph unicode="&#xee;" horiz-adv-x="468" d="M150 38v960q0 16 11.5 27t26.5 11h94q15 0 25.5 -11t10.5 -27v-960q0 -16 -10.5 -27t-25.5 -11h-94q-15 0 -26.5 11t-11.5 27zM164 1500h128q28 0 46 -24l202 -266q12 -15 7.5 -24.5t-23.5 -9.5h-90q-29 0 -48 22l-158 174l-158 -174q-19 -22 -48 -22h-90 q-19 0 -23.5 9.5t7.5 24.5l202 266q18 24 46 24z" />
<glyph unicode="&#xef;" horiz-adv-x="468" d="M150 38v960q0 16 11.5 27t26.5 11h94q15 0 25.5 -11t10.5 -27v-960q0 -16 -10.5 -27t-25.5 -11h-94q-15 0 -26.5 11t-11.5 27zM-70 1338q0 106 106 106t106 -106t-106 -106t-106 106zM334 1338q0 106 106 106t106 -106t-106 -106t-106 106z" />
<glyph unicode="&#xf0;" horiz-adv-x="1100" d="M976 1254l-141 -43q185 -197 185 -563q0 -314 -126 -493t-364 -179q-198 0 -324 135.5t-126 372.5q0 241 121.5 374.5t328.5 133.5q174 0 294 -104q-40 167 -159 270l-355 -108q-35 -6 -46 24l-18 54q-3 15 4 28.5t22 19.5l245 74q-71 31 -157 52q-17 4 -22.5 13t-3.5 27 l8 88q3 31 36 22q206 -54 339 -142l223 68q35 7 44 -24l16 -52q5 -15 -2 -29.5t-22 -18.5zM530 844q-130 0 -204 -97t-74 -263t74 -263t204 -97q149 0 235.5 126t86.5 400v42q-60 74 -145 113t-177 39z" />
<glyph unicode="&#xf1;" horiz-adv-x="1166" d="M584 912q-177 0 -276 -130v-744q0 -16 -11 -27t-27 -11h-92q-15 0 -26.5 11t-11.5 27v960q0 15 11.5 26.5t26.5 11.5h92q16 0 27 -11.5t11 -26.5v-46q117 108 298 108q202 0 316 -121.5t114 -352.5v-548q0 -16 -11.5 -27t-26.5 -11h-92q-15 0 -26.5 11t-11.5 27v552 q0 165 -70 243.5t-214 78.5zM566 1282q-80 60 -108 60t-37.5 -23t-12.5 -79q-3 -32 -36 -32h-70q-18 0 -28 10.5t-8 27.5q12 226 174 226q70 0 170 -78q81 -60 108 -60q28 0 37.5 23t12.5 79q3 32 36 32h70q18 0 28 -10.5t8 -27.5q-12 -226 -174 -226q-66 0 -170 78z" />
<glyph unicode="&#xf2;" d="M80 518q0 238 136.5 390t363.5 152t363.5 -152t136.5 -390t-136.5 -390t-363.5 -152t-363.5 152t-136.5 390zM252 518q0 -182 86.5 -288t241.5 -106t241.5 106t86.5 288t-86.5 288t-241.5 106t-241.5 -106t-86.5 -288zM500 1478l176 -242q20 -26 13 -43t-43 -17h-54 q-30 0 -54 24l-234 244q-20 21 -13 38.5t39 17.5h130q25 0 40 -22z" />
<glyph unicode="&#xf3;" d="M80 518q0 238 136.5 390t363.5 152t363.5 -152t136.5 -390t-136.5 -390t-363.5 -152t-363.5 152t-136.5 390zM252 518q0 -182 86.5 -288t241.5 -106t241.5 106t86.5 288t-86.5 288t-241.5 106t-241.5 -106t-86.5 -288zM465 1236l176 242q15 22 40 22h130q32 0 39 -17.5 t-13 -38.5l-234 -244q-24 -24 -54 -24h-54q-36 0 -43 17t13 43z" />
<glyph unicode="&#xf4;" d="M80 518q0 238 136.5 390t363.5 152t363.5 -152t136.5 -390t-136.5 -390t-363.5 -152t-363.5 152t-136.5 390zM252 518q0 -182 86.5 -288t241.5 -106t241.5 106t86.5 288t-86.5 288t-241.5 106t-241.5 -106t-86.5 -288zM506 1500h128q28 0 46 -24l202 -266 q12 -15 7.5 -24.5t-23.5 -9.5h-90q-29 0 -48 22l-158 174l-158 -174q-19 -22 -48 -22h-90q-19 0 -23.5 9.5t7.5 24.5l202 266q18 24 46 24z" />
<glyph unicode="&#xf5;" d="M80 518q0 238 136.5 390t363.5 152t363.5 -152t136.5 -390t-136.5 -390t-363.5 -152t-363.5 152t-136.5 390zM252 518q0 -182 86.5 -288t241.5 -106t241.5 106t86.5 288t-86.5 288t-241.5 106t-241.5 -106t-86.5 -288zM558 1282q-80 60 -108 60t-37.5 -23t-12.5 -79 q-3 -32 -36 -32h-70q-18 0 -28 10.5t-8 27.5q12 226 174 226q70 0 170 -78q81 -60 108 -60q28 0 37.5 23t12.5 79q3 32 36 32h70q18 0 28 -10.5t8 -27.5q-12 -226 -174 -226q-66 0 -170 78z" />
<glyph unicode="&#xf6;" d="M80 518q0 238 136.5 390t363.5 152t363.5 -152t136.5 -390t-136.5 -390t-363.5 -152t-363.5 152t-136.5 390zM252 518q0 -182 86.5 -288t241.5 -106t241.5 106t86.5 288t-86.5 288t-241.5 106t-241.5 -106t-86.5 -288zM272 1338q0 106 106 106t106 -106t-106 -106 t-106 106zM676 1338q0 106 106 106t106 -106t-106 -106t-106 106z" />
<glyph unicode="&#xf7;" horiz-adv-x="1236" d="M1080 586h-924q-15 0 -25.5 11.5t-10.5 26.5v82q0 15 10.5 25.5t25.5 10.5h924q15 0 25.5 -10.5t10.5 -25.5v-82q0 -15 -10.5 -26.5t-25.5 -11.5zM500 1060q0 118 118 118t118 -118t-118 -118t-118 118zM500 268q0 118 118 118t118 -118t-118 -118t-118 118z" />
<glyph unicode="&#xf8;" d="M1064 1228l-164 -284q84 -73 129 -183t45 -243q0 -238 -136.5 -390t-363.5 -152q-111 0 -209 41l-125 -217q-10 -20 -34 -20h-104q-15 0 -19.5 8t1.5 20l163 283q-83 73 -128 183.5t-45 243.5q0 238 136.5 390t363.5 152q113 0 208 -42l126 218q10 20 34 20h104 q14 0 19 -9t-1 -19zM902 518q0 179 -84 284l-377 -653q57 -25 133 -25q155 0 241.5 106t86.5 288zM246 518q0 -179 83 -284l377 653q-61 25 -132 25q-155 0 -241.5 -106t-86.5 -288z" />
<glyph unicode="&#xf9;" horiz-adv-x="1166" d="M582 124q177 0 276 130v744q0 16 11 27t27 11h92q15 0 26.5 -11t11.5 -27v-960q0 -15 -11.5 -26.5t-26.5 -11.5h-92q-16 0 -27 11.5t-11 26.5v46q-117 -108 -298 -108q-202 0 -316 121.5t-114 352.5v548q0 16 11.5 27t26.5 11h92q15 0 26.5 -11t11.5 -27v-552 q0 -165 70 -243.5t214 -78.5zM460 1478l176 -242q20 -26 13 -43t-43 -17h-54q-30 0 -54 24l-234 244q-20 21 -13 38.5t39 17.5h130q25 0 40 -22z" />
<glyph unicode="&#xfa;" horiz-adv-x="1166" d="M582 124q177 0 276 130v744q0 16 11 27t27 11h92q15 0 26.5 -11t11.5 -27v-960q0 -15 -11.5 -26.5t-26.5 -11.5h-92q-16 0 -27 11.5t-11 26.5v46q-117 -108 -298 -108q-202 0 -316 121.5t-114 352.5v548q0 16 11.5 27t26.5 11h92q15 0 26.5 -11t11.5 -27v-552 q0 -165 70 -243.5t214 -78.5zM483 1236l176 242q15 22 40 22h130q32 0 39 -17.5t-13 -38.5l-234 -244q-24 -24 -54 -24h-54q-36 0 -43 17t13 43z" />
<glyph unicode="&#xfb;" horiz-adv-x="1166" d="M582 124q177 0 276 130v744q0 16 11 27t27 11h92q15 0 26.5 -11t11.5 -27v-960q0 -15 -11.5 -26.5t-26.5 -11.5h-92q-16 0 -27 11.5t-11 26.5v46q-117 -108 -298 -108q-202 0 -316 121.5t-114 352.5v548q0 16 11.5 27t26.5 11h92q15 0 26.5 -11t11.5 -27v-552 q0 -165 70 -243.5t214 -78.5zM504 1500h128q28 0 46 -24l202 -266q12 -15 7.5 -24.5t-23.5 -9.5h-90q-29 0 -48 22l-158 174l-158 -174q-19 -22 -48 -22h-90q-19 0 -23.5 9.5t7.5 24.5l202 266q18 24 46 24z" />
<glyph unicode="&#xfc;" horiz-adv-x="1166" d="M582 124q177 0 276 130v744q0 16 11 27t27 11h92q15 0 26.5 -11t11.5 -27v-960q0 -15 -11.5 -26.5t-26.5 -11.5h-92q-16 0 -27 11.5t-11 26.5v46q-117 -108 -298 -108q-202 0 -316 121.5t-114 352.5v548q0 16 11.5 27t26.5 11h92q15 0 26.5 -11t11.5 -27v-552 q0 -165 70 -243.5t214 -78.5zM270 1338q0 106 106 106t106 -106t-106 -106t-106 106zM674 1338q0 106 106 106t106 -106t-106 -106t-106 106z" />
<glyph unicode="&#xfd;" horiz-adv-x="1058" d="M1007 999l-522 -1359q-10 -26 -36 -26h-110q-14 0 -21.5 11t-2.5 24l132 351l-409 999q-6 15 0.5 26t22.5 11h114q26 0 36 -24l318 -802l305 802q10 24 36 24h114q16 0 22.5 -11t0.5 -26zM429 1236l176 242q15 22 40 22h130q32 0 39 -17.5t-13 -38.5l-234 -244 q-24 -24 -54 -24h-54q-36 0 -43 17t13 43z" />
<glyph unicode="&#xfe;" d="M308 80v-428q0 -16 -10.5 -27t-25.5 -11h-96q-15 0 -25.5 11t-10.5 27v1770q0 15 10.5 26.5t25.5 11.5h96q15 0 25.5 -11.5t10.5 -26.5v-466q114 104 290 104q208 0 345 -148t137 -394t-137 -394t-345 -148q-176 0 -290 104zM582 912q-84 0 -156 -33.5t-118 -94.5v-532 q46 -61 118 -94.5t156 -33.5q146 0 236 102.5t90 291.5t-90 291.5t-236 102.5z" />
<glyph unicode="&#xff;" horiz-adv-x="1058" d="M1007 999l-522 -1359q-10 -26 -36 -26h-110q-14 0 -21.5 11t-2.5 24l132 351l-409 999q-6 15 0.5 26t22.5 11h114q26 0 36 -24l318 -802l305 802q10 24 36 24h114q16 0 22.5 -11t0.5 -26zM222 1338q0 106 106 106t106 -106t-106 -106t-106 106zM626 1338q0 106 106 106 t106 -106t-106 -106t-106 106z" />
<glyph unicode="&#x152;" horiz-adv-x="1678" d="M90 700q0 156 48.5 285t139.5 221t227.5 143t306.5 51h730q16 0 27 -11.5t11 -26.5v-80q0 -15 -11 -26.5t-27 -11.5h-550v-444h500q15 0 26.5 -11t11.5 -27v-80q0 -16 -11.5 -27t-26.5 -11h-500v-488h568q15 0 26.5 -11.5t11.5 -26.5v-80q0 -15 -11.5 -26.5t-26.5 -11.5 h-748q-170 0 -306.5 51t-227.5 143t-139.5 221t-48.5 285zM270 700q0 -119 34 -217.5t100 -172.5t171.5 -114.5t240.5 -39.5v1088q-135 1 -240.5 -39.5t-171.5 -114.5t-100 -172.5t-34 -217.5z" />
<glyph unicode="&#x153;" horiz-adv-x="1796" d="M1579 189q16 11 31.5 7t18.5 -24l9 -84q4 -31 -26 -46q-126 -66 -286 -66q-293 0 -410 220q-109 -220 -376 -220q-214 0 -337 151t-123 391t123 391t337 151q126 0 221 -55.5t151 -158.5q118 214 364 214q146 0 249 -70.5t152 -192.5t49 -285q0 -35 -13 -48.5t-45 -13.5 h-666q11 -152 94.5 -239t233.5 -87q141 0 249 65zM1002 594h550q-9 150 -78.5 234t-197.5 84q-127 0 -196 -84t-78 -234zM252 518q0 -183 75 -288.5t213 -105.5t213 105.5t75 288.5t-75 288.5t-213 105.5t-213 -105.5t-75 -288.5z" />
<glyph unicode="&#x178;" horiz-adv-x="1324" d="M654 722l400 650q17 28 54 28h126q41 0 18 -38l-510 -808v-516q0 -15 -11 -26.5t-27 -11.5h-100q-15 0 -26.5 11.5t-11.5 26.5v516l-510 808q-23 38 18 38h126q37 0 54 -28zM354 1686q0 106 106 106t106 -106t-106 -106t-106 106zM758 1686q0 106 106 106t106 -106 t-106 -106t-106 106z" />
<glyph unicode="&#x2c6;" horiz-adv-x="800" d="M326 1460h128q28 0 46 -24l202 -266q12 -15 7.5 -24.5t-23.5 -9.5h-90q-29 0 -48 22l-158 174l-158 -174q-19 -22 -48 -22h-90q-19 0 -23.5 9.5t7.5 24.5l202 266q18 24 46 24z" />
<glyph unicode="&#x2dc;" horiz-adv-x="800" d="M378 1244q-80 60 -108 60t-37.5 -23t-12.5 -79q-3 -32 -36 -32h-70q-18 0 -28 10.5t-8 27.5q12 226 174 226q70 0 170 -78q81 -60 108 -60q28 0 37.5 23t12.5 79q3 32 36 32h70q18 0 28 -10.5t8 -27.5q-12 -226 -174 -226q-66 0 -170 78z" />
<glyph unicode="&#x2000;" horiz-adv-x="947" />
<glyph unicode="&#x2001;" horiz-adv-x="1894" />
<glyph unicode="&#x2002;" horiz-adv-x="947" />
<glyph unicode="&#x2003;" horiz-adv-x="1894" />
<glyph unicode="&#x2004;" horiz-adv-x="631" />
<glyph unicode="&#x2005;" horiz-adv-x="473" />
<glyph unicode="&#x2006;" horiz-adv-x="315" />
<glyph unicode="&#x2007;" horiz-adv-x="315" />
<glyph unicode="&#x2008;" horiz-adv-x="236" />
<glyph unicode="&#x2009;" horiz-adv-x="378" />
<glyph unicode="&#x200a;" horiz-adv-x="105" />
<glyph unicode="&#x2010;" horiz-adv-x="812" d="M654 578h-496q-15 0 -26.5 10.5t-11.5 25.5v98q0 16 11.5 27t26.5 11h496q15 0 26.5 -11t11.5 -27v-98q0 -15 -11.5 -25.5t-26.5 -10.5z" />
<glyph unicode="&#x2011;" horiz-adv-x="812" d="M654 578h-496q-15 0 -26.5 10.5t-11.5 25.5v98q0 16 11.5 27t26.5 11h496q15 0 26.5 -11t11.5 -27v-98q0 -15 -11.5 -25.5t-26.5 -10.5z" />
<glyph unicode="&#x2012;" horiz-adv-x="812" d="M654 578h-496q-15 0 -26.5 10.5t-11.5 25.5v98q0 16 11.5 27t26.5 11h496q15 0 26.5 -11t11.5 -27v-98q0 -15 -11.5 -25.5t-26.5 -10.5z" />
<glyph unicode="&#x2013;" horiz-adv-x="1000" d="M964 586h-926q-16 0 -27 11.5t-11 26.5v82q0 15 11 25.5t27 10.5h926q15 0 25.5 -10.5t10.5 -25.5v-82q0 -15 -10.5 -26.5t-25.5 -11.5z" />
<glyph unicode="&#x2014;" horiz-adv-x="2000" d="M1962 586h-1924q-16 0 -27 11.5t-11 26.5v82q0 15 11 25.5t27 10.5h1924q15 0 26.5 -10.5t11.5 -25.5v-82q0 -15 -11.5 -26.5t-26.5 -11.5z" />
<glyph unicode="&#x2018;" horiz-adv-x="580" d="M408 1164q0 -120 -116 -120q-64 0 -93 33t-29 113q0 106 49 199t132 144q19 11 29 -4l20 -30q10 -15 -5 -28q-39 -36 -64.5 -87t-28.5 -104q106 -5 106 -116z" />
<glyph unicode="&#x2019;" horiz-adv-x="580" d="M170 1424q0 120 116 120q64 0 93 -33t29 -113q0 -106 -49 -199t-132 -144q-19 -11 -29 4l-20 30q-10 15 5 28q39 36 64.5 87t28.5 104q-106 5 -106 116z" />
<glyph unicode="&#x201a;" horiz-adv-x="580" d="M170 92q0 120 116 120q64 0 93 -33t29 -113q0 -106 -49 -199t-132 -144q-19 -11 -29 4l-20 30q-10 15 5 28q39 36 64.5 87t28.5 104q-106 5 -106 116z" />
<glyph unicode="&#x201c;" horiz-adv-x="916" d="M408 1164q0 -120 -116 -120q-64 0 -93 33t-29 113q0 106 49 199t132 144q19 11 29 -4l20 -30q10 -15 -5 -28q-39 -36 -64.5 -87t-28.5 -104q106 -5 106 -116zM744 1164q0 -120 -116 -120q-64 0 -93 33t-29 113q0 106 49 199t132 144q19 11 29 -4l20 -30q10 -15 -5 -28 q-39 -36 -64.5 -87t-28.5 -104q106 -5 106 -116z" />
<glyph unicode="&#x201d;" horiz-adv-x="916" d="M170 1424q0 120 116 120q64 0 93 -33t29 -113q0 -106 -49 -199t-132 -144q-19 -11 -29 4l-20 30q-10 15 5 28q39 36 64.5 87t28.5 104q-106 5 -106 116zM506 1424q0 120 116 120q64 0 93 -33t29 -113q0 -106 -49 -199t-132 -144q-19 -11 -29 4l-20 30q-10 15 5 28 q39 36 64.5 87t28.5 104q-106 5 -106 116z" />
<glyph unicode="&#x201e;" horiz-adv-x="916" d="M170 92q0 120 116 120q64 0 93 -33t29 -113q0 -106 -49 -199t-132 -144q-19 -11 -29 4l-20 30q-10 15 5 28q39 36 64.5 87t28.5 104q-106 5 -106 116zM506 92q0 120 116 120q64 0 93 -33t29 -113q0 -106 -49 -199t-132 -144q-19 -11 -29 4l-20 30q-10 15 5 28 q39 36 64.5 87t28.5 104q-106 5 -106 116z" />
<glyph unicode="&#x2022;" horiz-adv-x="896" d="M200 664q0 120 64.5 184t183.5 64t183.5 -64t64.5 -184t-64.5 -184t-183.5 -64t-183.5 64t-64.5 184z" />
<glyph unicode="&#x2026;" horiz-adv-x="1740" d="M172 94q0 118 118 118t118 -118t-118 -118t-118 118zM752 94q0 118 118 118t118 -118t-118 -118t-118 118zM1332 94q0 118 118 118t118 -118t-118 -118t-118 118z" />
<glyph unicode="&#x202f;" horiz-adv-x="378" />
<glyph unicode="&#x2039;" horiz-adv-x="696" d="M140 618v12q0 25 24 46l378 332q14 13 24 8t10 -24v-90q0 -29 -22 -48l-260 -230l260 -230q22 -19 22 -48v-90q0 -19 -10 -24t-24 8l-378 332q-24 21 -24 46z" />
<glyph unicode="&#x203a;" horiz-adv-x="696" d="M556 630v-12q0 -25 -24 -46l-378 -332q-14 -13 -24 -8t-10 24v90q0 29 22 48l260 230l-260 230q-22 19 -22 48v90q0 19 10 24t24 -8l378 -332q24 -21 24 -46z" />
<glyph unicode="&#x205f;" horiz-adv-x="473" />
<glyph unicode="&#x20ac;" horiz-adv-x="1222" d="M150 700q0 22 2 66h-74q-15 0 -26.5 11.5t-11.5 26.5v40q0 16 11.5 27t26.5 11h90q49 245 221.5 393.5t420.5 148.5q174 0 298 -48q12 -4 20 -17t6 -25l-12 -90q-6 -51 -54 -28q-104 48 -246 48q-189 0 -310 -102.5t-162 -279.5h626q19 0 26 -8t2 -26l-16 -56 q-3 -9 -13.5 -17.5t-20.5 -8.5h-622q-2 -44 -2 -66q0 -24 2 -66h570q19 0 26 -8t2 -26l-16 -56q-3 -9 -13.5 -17.5t-20.5 -8.5h-531q42 -181 166 -281.5t313 -100.5q132 0 250 52q48 20 54 -32l8 -94q1 -10 -6 -21.5t-18 -16.5q-123 -48 -296 -48q-262 0 -434 145.5 t-220 396.5h-88q-15 0 -26.5 11.5t-11.5 26.5v40q0 16 11.5 27t26.5 11h74q-2 21 -2 66z" />
<glyph unicode="&#x2122;" horiz-adv-x="1316" d="M918 958h-48q-8 0 -18.5 6t-13.5 12l-146 222v-406q0 -15 -11.5 -25.5t-26.5 -10.5h-44q-15 0 -26.5 10.5t-11.5 25.5v570q0 16 11.5 27t26.5 11h58q8 0 18.5 -5t13.5 -11l194 -300l194 300q3 6 13.5 11t18.5 5h58q15 0 26.5 -11t11.5 -27v-570q0 -15 -11.5 -25.5 t-26.5 -10.5h-44q-15 0 -26.5 10.5t-11.5 25.5v406l-146 -222q-3 -6 -13.5 -12t-18.5 -6zM212 794v508h-156q-15 0 -25.5 10.5t-10.5 25.5v24q0 16 10.5 27t25.5 11h432q15 0 25.5 -11t10.5 -27v-24q0 -15 -10.5 -25.5t-25.5 -10.5h-154v-508q0 -15 -11.5 -25.5t-26.5 -10.5 h-46q-16 0 -27 10.5t-11 25.5z" />
<glyph unicode="&#x25fc;" horiz-adv-x="1035" d="M0 1035h1035v-1035h-1035v1035z" />
</font>
</defs>
</svg>
