<?xml version="1.0" standalone="no"?>
<!DOCTYPE svg PUBLIC "-//W3C//DTD SVG 1.1//EN" "http://www.w3.org/Graphics/SVG/1.1/DTD/svg11.dtd" >
<svg xmlns="http://www.w3.org/2000/svg">
<metadata></metadata>
<defs>
<font id="core_sans_nr_73_ex_extrabolRg" horiz-adv-x="1440" >
<font-face units-per-em="2000" ascent="1600" descent="-400" />
<missing-glyph horiz-adv-x="720" />
<glyph unicode="&#xfb01;" horiz-adv-x="1586" d="M1270 1152q-109 0 -161.5 38t-52.5 116t52.5 116t161.5 38t161.5 -38t52.5 -116t-52.5 -116t-161.5 -38zM1078 39v958q0 16 11.5 27.5t27.5 11.5h306q16 0 27.5 -11.5t11.5 -27.5v-958q0 -16 -11.5 -27.5t-27.5 -11.5h-306q-16 0 -27.5 11.5t-11.5 27.5zM20 837v160 q0 16 11.5 27.5t27.5 11.5h187v43q0 381 476 381q118 0 217 -18q15 -3 24.5 -15.5t7.5 -27.5l-19 -146q-2 -17 -15.5 -27t-29.5 -7q-54 9 -100 9q-97 0 -137 -32t-40 -113v-47h275q16 0 27.5 -11.5t11.5 -27.5v-160q0 -16 -11.5 -27.5t-27.5 -11.5h-275v-759 q0 -16 -11.5 -27.5t-27.5 -11.5h-306q-16 0 -27.5 11.5t-11.5 27.5v759h-187q-16 0 -27.5 11.5t-11.5 27.5z" />
<glyph unicode="&#xfb02;" horiz-adv-x="1586" d="M1078 39v1382q0 16 11.5 27.5t27.5 11.5h306q16 0 27.5 -11.5t11.5 -27.5v-1382q0 -16 -11.5 -27.5t-27.5 -11.5h-306q-16 0 -27.5 11.5t-11.5 27.5zM20 837v160q0 16 11.5 27.5t27.5 11.5h187v43q0 381 476 381q118 0 217 -18q15 -3 24.5 -15.5t7.5 -27.5l-19 -146 q-2 -17 -15.5 -27t-29.5 -7q-54 9 -100 9q-97 0 -137 -32t-40 -113v-47h275q16 0 27.5 -11.5t11.5 -27.5v-160q0 -16 -11.5 -27.5t-27.5 -11.5h-275v-759q0 -16 -11.5 -27.5t-27.5 -11.5h-306q-16 0 -27.5 11.5t-11.5 27.5v759h-187q-16 0 -27.5 11.5t-11.5 27.5z" />
<glyph unicode="&#xfb03;" horiz-adv-x="2478" d="M20 837v160q0 16 11.5 27.5t27.5 11.5h187v43q0 187 121 284t363 97q124 0 229 -19q15 -3 24.5 -15.5t7.5 -27.5l-19 -145q-2 -17 -15.5 -27t-29.5 -7q-54 9 -112 9q-98 0 -141.5 -32t-43.5 -113v-47h478v43q0 381 476 381q118 0 217 -18q15 -3 24.5 -15.5t7.5 -27.5 l-19 -146q-2 -17 -15.5 -27t-29.5 -7q-54 9 -100 9q-97 0 -137 -32t-40 -113v-47h275q16 0 27.5 -11.5t11.5 -27.5v-160q0 -16 -11.5 -27.5t-27.5 -11.5h-275v-759q0 -16 -11.5 -27.5t-27.5 -11.5h-306q-16 0 -27.5 11.5t-11.5 27.5v759h-478v-759q0 -16 -11.5 -27.5 t-27.5 -11.5h-306q-16 0 -27.5 11.5t-11.5 27.5v759h-187q-16 0 -27.5 11.5t-11.5 27.5zM2162 1152q-109 0 -161.5 38t-52.5 116t52.5 116t161.5 38t161.5 -38t52.5 -116t-52.5 -116t-161.5 -38zM1970 39v958q0 16 11.5 27.5t27.5 11.5h306q16 0 27.5 -11.5t11.5 -27.5v-958 q0 -16 -11.5 -27.5t-27.5 -11.5h-306q-16 0 -27.5 11.5t-11.5 27.5z" />
<glyph unicode="&#xfb04;" horiz-adv-x="2478" d="M20 837v160q0 16 11.5 27.5t27.5 11.5h187v43q0 187 121 284t363 97q124 0 229 -19q15 -3 24.5 -15.5t7.5 -27.5l-19 -145q-2 -17 -15.5 -27t-29.5 -7q-54 9 -112 9q-98 0 -141.5 -32t-43.5 -113v-47h478v43q0 381 476 381q118 0 217 -18q15 -3 24.5 -15.5t7.5 -27.5 l-19 -146q-2 -17 -15.5 -27t-29.5 -7q-54 9 -100 9q-97 0 -137 -32t-40 -113v-47h275q16 0 27.5 -11.5t11.5 -27.5v-160q0 -16 -11.5 -27.5t-27.5 -11.5h-275v-759q0 -16 -11.5 -27.5t-27.5 -11.5h-306q-16 0 -27.5 11.5t-11.5 27.5v759h-478v-759q0 -16 -11.5 -27.5 t-27.5 -11.5h-306q-16 0 -27.5 11.5t-11.5 27.5v759h-187q-16 0 -27.5 11.5t-11.5 27.5zM1970 39v1382q0 16 11.5 27.5t27.5 11.5h306q16 0 27.5 -11.5t11.5 -27.5v-1382q0 -16 -11.5 -27.5t-27.5 -11.5h-306q-16 0 -27.5 11.5t-11.5 27.5z" />
<glyph horiz-adv-x="666" />
<glyph horiz-adv-x="0" />
<glyph horiz-adv-x="0" />
<glyph unicode="&#xd;" horiz-adv-x="682" />
<glyph unicode=" "  horiz-adv-x="720" />
<glyph unicode="&#x09;" horiz-adv-x="720" />
<glyph unicode="&#xa0;" horiz-adv-x="720" />
<glyph unicode="!" horiz-adv-x="744" d="M209 1400h326q16 0 27.5 -11t11.5 -27v-300l-53 -608q-2 -14 -13 -25t-25 -11h-223q-14 0 -25.5 11t-13.5 25l-51 607v301q0 16 11.5 27t27.5 11zM372 -24q-112 0 -162 41t-50 127q0 85 50 126.5t162 41.5t162 -41.5t50 -126.5q0 -86 -50 -127t-162 -41z" />
<glyph unicode="&#x22;" horiz-adv-x="1242" d="M209 821l-28 539q-1 17 10.5 28.5t28.5 11.5h284q16 0 27.5 -11t11.5 -27v-43l-56 -501q-2 -14 -13 -24t-26 -10h-201q-15 0 -26 11t-12 26zM727 821l-28 539q-1 17 10.5 28.5t28.5 11.5h284q16 0 27.5 -11t11.5 -27v-43l-56 -501q-2 -14 -13 -24t-26 -10h-201 q-15 0 -26 11t-12 26z" />
<glyph unicode="#" horiz-adv-x="1708" d="M1513 296h-249l-54 -266q-2 -12 -14 -21t-24 -9h-247q-19 0 -30 13.5t-7 32.5l51 250h-334l-54 -266q-2 -12 -14 -21t-24 -9h-247q-19 0 -30 13.5t-7 32.5l51 250h-187q-16 0 -27.5 11.5t-11.5 27.5v186q0 16 11.5 27.5t27.5 11.5h241l56 278h-195q-16 0 -27.5 11.5 t-11.5 27.5v186q0 16 11.5 27.5t27.5 11.5h249l55 268q3 12 14.5 21t23.5 9h247q19 0 30 -13.5t7 -32.5l-52 -252h334l55 268q3 12 14.5 21t23.5 9h247q19 0 30 -13.5t7 -32.5l-52 -252h187q16 0 27.5 -11.5t11.5 -27.5v-186q0 -16 -11.5 -27.5t-27.5 -11.5h-241l-56 -278 h195q16 0 27.5 -11.5t11.5 -27.5v-186q0 -16 -11.5 -27.5t-27.5 -11.5zM715 838l-56 -278h334l56 278h-334z" />
<glyph unicode="$" horiz-adv-x="1380" d="M163 336q194 -74 439 -74q155 0 215.5 30t60.5 92q0 38 -29 66.5t-102.5 57.5t-212.5 66q-235 63 -342.5 167t-107.5 269q0 369 500 409v160q0 16 11.5 27.5t27.5 11.5h132q16 0 27.5 -11.5t11.5 -27.5v-157q210 -8 378 -55q13 -4 21.5 -17t7.5 -26l-19 -206 q-2 -20 -17 -30t-34 -4q-156 50 -373 50q-103 0 -163 -13t-81.5 -35t-21.5 -58q0 -55 66 -93t262 -94q250 -71 358 -173t108 -268q0 -184 -118 -288.5t-374 -127.5v-163q0 -16 -11.5 -27.5t-27.5 -11.5h-132q-16 0 -27.5 11.5t-11.5 27.5v155q-265 5 -464 71q-13 4 -21.5 17 t-7.5 26l21 212q2 21 17 31t34 3z" />
<glyph unicode="%" horiz-adv-x="2164" d="M120 1018q0 175 111.5 285.5t310.5 110.5t310.5 -110.5t111.5 -285.5t-111.5 -285.5t-310.5 -110.5t-310.5 110.5t-111.5 285.5zM400 1018q0 -82 37 -124t105 -42t105 42t37 124t-37 124t-105 42t-105 -42t-37 -124zM1200 382q0 175 111.5 285.5t310.5 110.5 t310.5 -110.5t111.5 -285.5t-111.5 -285.5t-310.5 -110.5t-310.5 110.5t-111.5 285.5zM1480 382q0 -82 37 -124t105 -42t105 42t37 124t-37 124t-105 42t-105 -42t-37 -124zM1472 1364l-1004 -1301q-20 -27 -10 -45t39 -18h115q52 0 79 36l1004 1301q16 20 6.5 41.5 t-35.5 21.5h-115q-52 0 -79 -36z" />
<glyph unicode="&#x26;" horiz-adv-x="1858" d="M1454 312l314 -245q22 -18 10.5 -42.5t-41.5 -24.5h-277q-102 0 -178 59l-76 59q-88 -70 -221 -106t-289 -36q-181 0 -317 43t-217.5 137t-81.5 230q0 125 78 221t226 153q-88 71 -129 143.5t-41 160.5q0 160 137 260t379 100q240 0 379 -97t139 -261q0 -116 -79 -206.5 t-221 -151.5l256 -202q66 93 78 235q2 16 13 28.5t26 12.5h256q18 0 30 -11t11 -28q-10 -131 -54 -242t-110 -189zM910 1064q0 57 -46 88.5t-130 31.5q-79 0 -125.5 -34t-46.5 -80q0 -43 35 -87.5t121 -104.5q102 43 147 87.5t45 98.5zM440 382q0 -73 71 -114.5t201 -41.5 q168 0 258 70l-356 280q-174 -67 -174 -194z" />
<glyph unicode="'" horiz-adv-x="704" d="M199 821l-28 539q-1 17 10.5 28.5t28.5 11.5h284q16 0 27.5 -11t11.5 -27v-43l-56 -501q-2 -14 -13 -24t-26 -10h-201q-15 0 -26 11t-12 26z" />
<glyph unicode="(" horiz-adv-x="910" d="M180 621q0 477 335 850q27 29 68 29h195q26 0 36.5 -21t-5.5 -42q-307 -393 -307 -816q0 -425 307 -818q16 -21 5.5 -42t-36.5 -21h-195q-41 0 -68 29q-335 373 -335 852z" />
<glyph unicode=")" horiz-adv-x="910" d="M700 621q0 -479 -335 -852q-27 -29 -68 -29h-195q-26 0 -36.5 21t5.5 42q307 393 307 818q0 423 -307 816q-16 21 -5.5 42t36.5 21h195q41 0 68 -29q335 -373 335 -850z" />
<glyph unicode="*" horiz-adv-x="1108" d="M205 359l-93 162q-9 15 -3.5 31.5t21.5 23.5l208 88l-209 88q-17 7 -22 24t4 31l93 162q9 15 26 18.5t31 -7.5l182 -138l-28 226q-2 18 9.5 31t29.5 13h186q17 0 29 -12.5t10 -31.5l-28 -223l179 135q14 11 31 7.5t26 -18.5l93 -162q9 -14 4 -31t-22 -24l-210 -88 l209 -88q16 -7 21.5 -23.5t-3.5 -31.5l-93 -162q-9 -15 -25 -18.5t-32 7.5l-178 135l28 -223q2 -19 -10 -31.5t-29 -12.5h-186q-18 0 -29.5 13t-9.5 31l28 225l-181 -137q-16 -11 -32 -7.5t-25 18.5z" />
<glyph unicode="+" horiz-adv-x="1304" d="M496 199v339h-357q-16 0 -27.5 11.5t-11.5 27.5v174q0 16 11.5 27.5t27.5 11.5h357v339q0 16 11.5 27.5t27.5 11.5h234q16 0 27.5 -11.5t11.5 -27.5v-339h357q16 0 27.5 -11.5t11.5 -27.5v-174q0 -16 -11.5 -27.5t-27.5 -11.5h-357v-339q0 -16 -11.5 -27.5t-27.5 -11.5 h-234q-16 0 -27.5 11.5t-11.5 27.5z" />
<glyph unicode="," horiz-adv-x="720" d="M283 -309q-29 -16 -48 14l-42 62q-19 29 6 48q44 32 74 75.5t37 89.5q-144 21 -144 176q0 180 194 180t194 -180q0 -316 -271 -465z" />
<glyph unicode="-" horiz-adv-x="848" d="M709 528h-570q-16 0 -27.5 11.5t-11.5 27.5v194q0 17 11 28t28 11h570q17 0 28 -11t11 -28v-194q0 -16 -11.5 -27.5t-27.5 -11.5z" />
<glyph unicode="." horiz-adv-x="720" d="M166 156q0 180 194 180t194 -180t-194 -180t-194 180z" />
<glyph unicode="/" horiz-adv-x="1302" d="M310 -191q-18 -29 -50 -29h-240q-25 0 -35.5 19t2.5 40l969 1627q17 30 50 30h240q25 0 35.5 -19t-2.5 -40z" />
<glyph unicode="0" d="M44 700q0 331 177 527.5t499 196.5t499 -196.5t177 -527.5t-177 -527.5t-499 -196.5t-499 196.5t-177 527.5zM452 700q0 -234 67 -339t201 -105t201 105t67 339t-67 339t-201 105t-201 -105t-67 -339z" />
<glyph unicode="1" d="M639 1048l-261 -170q-13 -8 -29 -4.5t-24 15.5l-114 162q-10 14 -7 31t17 26l414 269q35 23 94 23h263q16 0 27.5 -11t11.5 -27v-1323q0 -16 -11.5 -27.5t-27.5 -11.5h-314q-16 0 -27.5 11.5t-11.5 27.5v1009z" />
<glyph unicode="2" d="M674 276h555q16 0 27.5 -11.5t11.5 -27.5v-198q0 -16 -11.5 -27.5t-27.5 -11.5h-1050q-16 0 -27.5 11.5t-11.5 27.5v199q0 21 16 30q260 166 472 352q127 111 182.5 190.5t55.5 169.5q0 86 -72 125t-224 39q-173 0 -314 -56q-20 -8 -36 2t-17 32l-14 193q-1 11 6.5 22.5 t18.5 15.5q181 71 442 71q294 0 452 -112t158 -322q0 -135 -58.5 -243t-181.5 -219q-157 -142 -352 -252z" />
<glyph unicode="3" d="M160 35q-13 4 -21 16t-7 25l19 198q2 20 18 29.5t35 1.5q146 -59 358 -59q161 0 241.5 36t80.5 114q0 201 -515 206q-16 0 -26.5 11.5t-10.5 27.5v179q0 16 10.5 27t26.5 11q240 0 366.5 42.5t126.5 125.5q0 67 -70 97.5t-220 30.5q-181 0 -346 -56q-18 -6 -28 2t-12 24 l-21 192q-1 13 6.5 24.5t19.5 16.5q196 67 457 67q291 0 449.5 -98.5t158.5 -273.5q0 -124 -65 -204.5t-183 -117.5q126 -38 198 -124.5t72 -209.5q0 -196 -171 -308t-487 -112q-257 0 -460 59z" />
<glyph unicode="4" d="M54 297v213q0 43 36 86l681 789q13 15 36 15h342q16 0 27.5 -11t11.5 -27v-818h145q16 0 27.5 -11.5t11.5 -27.5v-208q0 -16 -11.5 -27.5t-27.5 -11.5h-145v-219q0 -16 -11.5 -27.5t-27.5 -11.5h-298q-16 0 -27.5 11.5t-11.5 27.5v219h-720q-16 0 -27 11.5t-11 27.5z M812 1010l-404 -466h404v466z" />
<glyph unicode="5" d="M534 244q185 0 269.5 54t84.5 162q0 99 -86 144.5t-262 45.5q-142 0 -276 -33q-20 -5 -34 6.5t-14 31.5v707q0 16 11.5 27t27.5 11h950q16 0 27.5 -11t11.5 -27v-189q0 -16 -11.5 -27.5t-27.5 -11.5h-611v-254q79 18 180 18q240 0 380 -116.5t140 -330.5 q0 -220 -173 -347.5t-501 -127.5q-246 0 -424 54q-12 4 -20 15.5t-7 23.5l18 190q2 20 18 30t35 3q129 -48 294 -48z" />
<glyph unicode="6" d="M750 246q104 0 163 55t59 157q0 106 -59 159t-169 53q-158 0 -252 -78q1 -170 69.5 -258t188.5 -88zM1177 1111q-120 45 -283 45q-188 0 -284 -74.5t-114 -239.5q135 90 340 90q233 0 379.5 -125.5t146.5 -346.5t-160.5 -352.5t-441.5 -131.5q-310 0 -490 174t-180 512 q0 380 191.5 571t560.5 191q219 0 378 -50q13 -4 20.5 -15.5t6.5 -25.5l-18 -189q-2 -20 -17.5 -30t-34.5 -3z" />
<glyph unicode="7" d="M1282 1362v-194q0 -55 -28 -109l-535 -1038q-4 -8 -14.5 -14.5t-19.5 -6.5h-352q-23 0 -34 18t0 38l550 1058h-682q-16 0 -27.5 11.5t-11.5 27.5v209q0 16 11.5 27t27.5 11h1076q16 0 27.5 -11t11.5 -27z" />
<glyph unicode="8" d="M720 -24q-308 0 -480 114t-172 302q0 119 75 211t217 143q-222 99 -222 300q0 174 153.5 276t428.5 102q270 0 426 -103t156 -275q0 -96 -59 -172.5t-167 -123.5q149 -62 222.5 -150t73.5 -208q0 -189 -171.5 -302.5t-480.5 -113.5zM700 628q-238 -86 -238 -240 q0 -68 64.5 -111t193.5 -43q124 0 191 44t67 110q0 145 -278 240zM744 844q89 34 141.5 85t52.5 107q0 57 -57.5 93.5t-160.5 36.5q-105 0 -161.5 -35.5t-56.5 -94.5q0 -117 242 -192z" />
<glyph unicode="9" d="M690 1154q-104 0 -163 -55t-59 -157q0 -106 59 -159t169 -53q158 0 252 78q-1 170 -69.5 258t-188.5 88zM263 289q120 -45 283 -45q188 0 284 74.5t114 239.5q-135 -90 -340 -90q-233 0 -379.5 125.5t-146.5 346.5t160.5 352.5t441.5 131.5q310 0 490 -174t180 -512 q0 -380 -191.5 -571t-560.5 -191q-219 0 -378 50q-13 4 -20.5 15.5t-6.5 25.5l18 189q2 20 17.5 30t34.5 3z" />
<glyph unicode=":" horiz-adv-x="720" d="M166 156q0 180 194 180t194 -180t-194 -180t-194 180zM166 880q0 180 194 180t194 -180t-194 -180t-194 180z" />
<glyph unicode=";" horiz-adv-x="720" d="M166 880q0 180 194 180t194 -180t-194 -180t-194 180zM283 -309q-29 -16 -48 14l-42 62q-19 29 6 48q44 32 74 75.5t37 89.5q-144 21 -144 176q0 180 194 180t194 -180q0 -316 -271 -465z" />
<glyph unicode="&#x3c;" horiz-adv-x="1304" d="M100 526v276q0 11 8 22t19 15l1026 333q20 7 35.5 -4.5t15.5 -32.5v-218q0 -11 -9 -22.5t-20 -14.5l-762 -216l762 -216q11 -3 20 -14.5t9 -22.5v-218q0 -21 -15.5 -32.5t-35.5 -4.5l-1026 333q-11 4 -19 15t-8 22z" />
<glyph unicode="=" horiz-adv-x="1304" d="M1165 768h-1026q-16 0 -27.5 11t-11.5 27v175q0 16 11.5 27.5t27.5 11.5h1026q16 0 27.5 -11.5t11.5 -27.5v-175q0 -16 -11.5 -27t-27.5 -11zM1165 304h-1026q-16 0 -27.5 11t-11.5 27v175q0 16 11.5 27.5t27.5 11.5h1026q16 0 27.5 -11.5t11.5 -27.5v-175 q0 -16 -11.5 -27t-27.5 -11z" />
<glyph unicode="&#x3e;" horiz-adv-x="1304" d="M1204 802v-276q0 -11 -8 -22t-19 -15l-1026 -333q-20 -7 -35.5 4.5t-15.5 32.5v218q0 11 9 22.5t20 14.5l762 216l-762 216q-11 3 -20 14.5t-9 22.5v218q0 21 15.5 32.5t35.5 4.5l1026 -333q11 -4 19 -15t8 -22z" />
<glyph unicode="?" horiz-adv-x="1270" d="M153 1080q-20 -7 -35.5 3t-16.5 30l-19 199q-4 28 20 37q90 35 208.5 55t233.5 20q304 0 455 -95t151 -277q0 -227 -274 -378q-75 -40 -107.5 -87t-32.5 -113v-25q0 -17 -11 -28t-28 -11h-299q-16 0 -27 11.5t-11 27.5v35q0 136 50 226t166 150q98 50 134 88t36 88 q0 52 -59.5 77t-200.5 25q-174 0 -333 -58zM548 -24q-112 0 -162 41t-50 127q0 85 50 126.5t162 41.5t162 -41.5t50 -126.5q0 -86 -50 -127t-162 -41z" />
<glyph unicode="@" horiz-adv-x="1930" d="M886 336q124 0 198 88l64 320q-39 42 -114 42q-108 0 -190 -91t-82 -223q0 -67 33 -101.5t91 -34.5zM1411 842q20 -26 10 -78l-63 -342q0 -75 29.5 -115.5t82.5 -40.5q77 0 120.5 88.5t43.5 233.5q0 286 -186.5 467t-493.5 181q-184 0 -335 -91t-237 -248t-86 -347 q0 -196 89 -353t245.5 -245t351.5 -88q248 0 435 123q15 10 31 5.5t23 -20.5l48 -106q14 -33 -10 -47q-240 -143 -535 -143q-146 0 -281 40.5t-245 118t-192 183t-127 242.5t-45 290q0 189 69.5 353.5t187.5 278t277.5 178t335.5 64.5q186 0 349 -60t283 -167.5t189 -265 t69 -343.5q0 -225 -105.5 -359.5t-294.5 -134.5q-87 0 -155 37.5t-101 102.5q-136 -130 -344 -130q-169 0 -268.5 100.5t-99.5 259.5q0 155 78.5 285t205.5 201.5t270 71.5q243 0 381 -180z" />
<glyph unicode="A" horiz-adv-x="1668" d="M1118 286h-592l-92 -257q-10 -29 -46 -29h-336q-23 0 -34 16.5t-3 38.5l531 1320q4 10 15 17.5t22 7.5h478q11 0 22 -7.5t15 -17.5l531 -1320q8 -22 -3 -38.5t-34 -16.5h-336q-36 0 -46 29zM628 572h388l-194 542z" />
<glyph unicode="B" horiz-adv-x="1554" d="M836 0h-657q-16 0 -27.5 12t-11.5 28v1320q0 16 11.5 28t27.5 12h629q290 0 448 -100t158 -278q0 -96 -46.5 -167t-131.5 -111q119 -35 185.5 -122.5t66.5 -199.5q0 -209 -166 -315.5t-486 -106.5zM1072 426q0 83 -66 125.5t-210 42.5h-244v-338h244q276 0 276 170z M998 996q0 148 -236 148h-210v-296h210q122 0 179 37t57 111z" />
<glyph unicode="C" horiz-adv-x="1482" d="M1387 34q-183 -58 -431 -58q-418 0 -650 192.5t-232 531.5q0 338 231.5 531t646.5 193q245 0 425 -59q12 -4 20.5 -15.5t7.5 -24.5l-20 -203q-2 -21 -18 -31t-35 -3q-133 48 -314 48q-263 0 -395.5 -112t-132.5 -324q0 -215 136.5 -325.5t399.5 -110.5q176 0 316 50 q20 7 35.5 -2.5t17.5 -30.5l20 -205q1 -13 -7 -25.5t-21 -16.5z" />
<glyph unicode="D" horiz-adv-x="1642" d="M704 0h-524q-16 0 -28 12t-12 28v1320q0 16 12 28t28 12h524q266 0 459 -77.5t301 -236t108 -386.5q0 -229 -108 -387.5t-301 -235.5t-459 -77zM1164 700q0 227 -117 325.5t-359 98.5h-144v-848h144q243 0 359.5 98t116.5 326z" />
<glyph unicode="E" horiz-adv-x="1386" d="M1250 1124h-706v-274h656q16 0 28 -12t12 -28v-197q0 -16 -11.5 -27.5t-28.5 -11.5h-656v-298h722q17 0 28.5 -11.5t11.5 -27.5v-197q0 -16 -12 -28t-28 -12h-1086q-16 0 -28 12t-12 28v1320q0 16 12 28t28 12h1070q16 0 28 -12t12 -28v-197q0 -16 -11.5 -27.5 t-28.5 -11.5z" />
<glyph unicode="F" horiz-adv-x="1336" d="M544 574v-534q0 -16 -11.5 -28t-27.5 -12h-326q-16 0 -27.5 12t-11.5 28v1320q0 16 12 28t28 12h1070q16 0 28 -12t12 -28v-197q0 -16 -11.5 -27.5t-28.5 -11.5h-706v-274h656q16 0 28 -12t12 -28v-197q0 -16 -11.5 -27.5t-28.5 -11.5h-656z" />
<glyph unicode="G" horiz-adv-x="1710" d="M1559 51q-231 -75 -531 -75q-449 0 -701.5 195.5t-252.5 528.5q0 126 37.5 236t113.5 199.5t185.5 154t260 99.5t329.5 35q292 0 523 -73q12 -4 20.5 -16.5t7.5 -25.5l-20 -202q-2 -20 -14.5 -30.5t-29.5 -4.5q-194 68 -415 68q-284 0 -437 -113.5t-153 -326.5 q0 -214 149 -327t409 -113q124 0 204 20v278h-300q-16 0 -28 12t-12 28v166q0 16 12 28t28 12h603q16 0 27.5 -12t11.5 -28v-675q0 -11 -8 -22.5t-19 -15.5z" />
<glyph unicode="H" horiz-adv-x="1716" d="M140 40v1320q0 16 12 28t28 12h324q16 0 28 -12t12 -28v-474h628v474q0 16 12 28t28 12h324q16 0 28 -12t12 -28v-1320q0 -16 -12 -28t-28 -12h-324q-16 0 -28 12t-12 28v560h-628v-560q0 -16 -12 -28t-28 -12h-324q-16 0 -28 12t-12 28z" />
<glyph unicode="I" horiz-adv-x="704" d="M189 1400h325q16 0 28 -12t12 -28v-1320q0 -16 -12 -28t-28 -12h-325q-16 0 -27.5 12t-11.5 28v1320q0 16 11.5 28t27.5 12z" />
<glyph unicode="J" horiz-adv-x="1164" d="M618 492v868q0 16 11.5 28t27.5 12h325q16 0 28 -12t12 -28v-870q0 -514 -613 -514q-218 0 -368 51q-11 4 -19 16.5t-7 24.5l19 210q2 22 18.5 31t36.5 1q115 -46 258 -46q137 0 204 53t67 175z" />
<glyph unicode="K" horiz-adv-x="1614" d="M544 681v-641q0 -16 -12 -28t-28 -12h-324q-16 0 -28 12t-12 28v1320q0 16 12 28t28 12h324q16 0 28 -12t12 -28v-544l515 565q17 19 44 19h357q28 0 38 -23t-9 -43l-538 -588l624 -681q18 -20 8.5 -42.5t-37.5 -22.5h-370q-27 0 -44 19z" />
<glyph unicode="L" horiz-adv-x="1378" d="M140 40v1320q0 17 11.5 28.5t27.5 11.5h326q16 0 27.5 -12t11.5 -28v-1074h764q16 0 28 -12t12 -28v-206q0 -16 -12 -28t-28 -12h-1129q-16 0 -27.5 11.5t-11.5 28.5z" />
<glyph unicode="M" horiz-adv-x="2120" d="M1186 424h-252q-7 0 -17.5 5.5t-14.5 10.5l-384 516v-916q0 -16 -12 -28t-28 -12h-298q-16 0 -28 12t-12 28v1320q0 16 12 28t28 12h394q33 0 52 -25l434 -587l434 587q19 25 52 25h394q16 0 28 -12t12 -28v-1320q0 -16 -12 -28t-28 -12h-298q-16 0 -28 12t-12 28v916 l-384 -516q-4 -5 -14.5 -10.5t-17.5 -5.5z" />
<glyph unicode="N" horiz-adv-x="1754" d="M1119 32l-601 900v-892q0 -16 -12 -28t-28 -12h-299q-16 0 -27.5 12t-11.5 28v1320q0 16 11.5 28t27.5 12h394q40 0 62 -32l601 -900v892q0 16 12 28t28 12h299q16 0 27.5 -12t11.5 -28v-1320q0 -16 -11.5 -28t-27.5 -12h-394q-40 0 -62 32z" />
<glyph unicode="O" horiz-adv-x="1732" d="M1662 700q0 -156 -52 -288t-150.5 -229.5t-250.5 -152t-343 -54.5t-343 54.5t-250.5 152t-150.5 229.5t-52 288t52 288t150.5 229.5t250.5 152t343 54.5t343 -54.5t250.5 -152t150.5 -229.5t52 -288zM478 700q0 -215 99.5 -329.5t288.5 -114.5t288.5 114.5t99.5 329.5 t-99.5 329.5t-288.5 114.5t-288.5 -114.5t-99.5 -329.5z" />
<glyph unicode="P" horiz-adv-x="1474" d="M544 456v-416q0 -16 -11.5 -28t-27.5 -12h-326q-16 0 -27.5 12t-11.5 28v1320q0 16 11.5 28t27.5 12h571q318 0 494 -119t176 -353q0 -233 -176.5 -352.5t-493.5 -119.5h-206zM1012 928q0 109 -75 154.5t-227 45.5h-166v-400h166q151 0 226.5 46.5t75.5 153.5z" />
<glyph unicode="Q" horiz-adv-x="1732" d="M1662 700q0 -269 -149 -458t-425 -245q18 -97 244 -97q104 0 181 16q17 4 31 -6t16 -28l21 -166q2 -15 -8 -28t-25 -15q-126 -21 -268 -21q-222 0 -360.5 83t-183.5 248q-213 23 -365 122.5t-226.5 251.5t-74.5 343q0 156 52 288t150.5 229.5t250.5 152t343 54.5 t343 -54.5t250.5 -152t150.5 -229.5t52 -288zM478 700q0 -215 99.5 -329.5t288.5 -114.5t288.5 114.5t99.5 329.5t-99.5 329.5t-288.5 114.5t-288.5 -114.5t-99.5 -329.5z" />
<glyph unicode="R" horiz-adv-x="1570" d="M544 778h196q280 0 280 180t-280 180h-196v-360zM1134 570l382 -507q16 -20 5 -41.5t-37 -21.5h-354q-8 0 -18 5.5t-14 11.5l-349 499h-205v-476q0 -16 -12 -28t-28 -12h-324q-16 0 -28 12t-12 28v1320q0 16 12 28t28 12h588q148 0 268 -27t208 -80.5t136 -138.5t48 -196 q0 -142 -77 -239.5t-217 -148.5z" />
<glyph unicode="S" horiz-adv-x="1362" d="M163 336q194 -74 439 -74q155 0 215.5 30t60.5 92q0 38 -29 66.5t-102.5 57.5t-212.5 66q-235 63 -342.5 167t-107.5 269q0 414 624 414q262 0 464 -57q13 -4 21.5 -17t7.5 -26l-19 -206q-2 -20 -17 -30t-34 -4q-156 50 -373 50q-103 0 -163 -13t-81.5 -35t-21.5 -58 q0 -55 66 -93t262 -94q250 -71 358 -173t108 -268q0 -212 -157 -318t-505 -106q-288 0 -504 71q-13 4 -21.5 17t-7.5 26l21 212q2 21 17 31t34 3z" />
<glyph unicode="T" horiz-adv-x="1380" d="M488 40v1074h-428q-16 0 -28 12t-12 28v206q0 16 12 28t28 12h1261q17 0 28.5 -12t11.5 -28v-206q0 -16 -11.5 -28t-28.5 -12h-429v-1074q0 -16 -12 -28t-28 -12h-324q-16 0 -28 12t-12 28z" />
<glyph unicode="U" horiz-adv-x="1736" d="M868 -24q-165 0 -298 37.5t-229.5 110.5t-148.5 187.5t-52 262.5v786q0 16 12 28t28 12h325q16 0 27.5 -12t11.5 -28v-782q0 -159 78 -235.5t246 -76.5t246 76.5t78 235.5v782q0 16 11.5 28t27.5 12h325q16 0 28 -12t12 -28v-786q0 -148 -52 -262.5t-148.5 -187.5 t-229.5 -110.5t-298 -37.5z" />
<glyph unicode="V" horiz-adv-x="1720" d="M1086 0h-474q-10 0 -23 8.5t-17 18.5l-531 1318q-8 22 3 38.5t34 16.5h345q11 0 22 -8t15 -18l389 -1087l389 1087q4 10 15 18t22 8h345q23 0 34 -16.5t3 -38.5l-531 -1318q-4 -10 -17 -18.5t-23 -8.5z" />
<glyph unicode="W" horiz-adv-x="2452" d="M1002 1400h432q13 0 24 -9t14 -21l238 -1012l288 1013q3 11 14.5 20t23.5 9h323q22 0 33.5 -16t4.5 -36l-424 -1321q-3 -10 -14.5 -18.5t-22.5 -8.5h-455q-13 0 -24.5 9t-14.5 22l-224 993l-224 -993q-3 -13 -14.5 -22t-24.5 -9h-455q-11 0 -22.5 8.5t-14.5 18.5 l-424 1321q-7 20 4.5 36t33.5 16h323q12 0 23.5 -9t14.5 -20l288 -1013l238 1012q3 12 14 21t24 9z" />
<glyph unicode="X" horiz-adv-x="1684" d="M811 972l338 414q13 14 40 14h339q27 0 37.5 -22.5t-6.5 -42.5l-512 -623l533 -647q17 -20 6.5 -42.5t-37.5 -22.5h-339q-29 0 -40 14l-359 438l-359 -438q-11 -14 -40 -14h-339q-27 0 -37.5 22.5t6.5 42.5l532 647l-511 623q-17 20 -6.5 42.5t37.5 22.5h339q27 0 40 -14 z" />
<glyph unicode="Y" horiz-adv-x="1720" d="M995 0h-324q-17 0 -28.5 12t-11.5 28v508l-580 787q-16 21 -5 43t37 22h334q27 0 43 -22l373 -532l373 532q16 22 43 22h334q26 0 37 -22t-5 -43l-580 -787v-508q0 -16 -11.5 -28t-28.5 -12z" />
<glyph unicode="Z" horiz-adv-x="1376" d="M54 40v174q0 71 37 112l707 788h-670q-16 0 -28 12t-12 28v206q0 16 12 28t28 12h1131q16 0 27.5 -12t11.5 -28v-179q0 -69 -50 -123l-693 -772h727q16 0 28 -12t12 -28v-206q0 -16 -12 -28t-28 -12h-1188q-16 0 -28 12t-12 28z" />
<glyph unicode="[" horiz-adv-x="948" d="M220 -221v1682q0 17 11 28t28 11h610q17 0 28 -11t11 -28v-170q0 -16 -11.5 -27.5t-27.5 -11.5h-315v-1264h315q16 0 27.5 -11.5t11.5 -27.5v-170q0 -17 -11 -28t-28 -11h-610q-17 0 -28 11t-11 28z" />
<glyph unicode="\" horiz-adv-x="1302" d="M956 -191l-969 1628q-13 21 -2.5 40t35.5 19h240q33 0 50 -30l969 -1627q13 -21 2.5 -40t-35.5 -19h-240q-32 0 -50 29z" />
<glyph unicode="]" horiz-adv-x="948" d="M728 1461v-1682q0 -17 -11 -28t-28 -11h-610q-17 0 -28 11t-11 28v170q0 16 11.5 27.5t27.5 11.5h315v1264h-315q-16 0 -27.5 11.5t-11.5 27.5v170q0 17 11 28t28 11h610q17 0 28 -11t11 -28z" />
<glyph unicode="^" horiz-adv-x="1304" d="M475 1400h316q22 0 33 -18l353 -585q13 -21 2.5 -40t-35.5 -19h-253q-25 0 -35 19l-223 399l-223 -399q-10 -19 -35 -19h-253q-25 0 -35.5 19t2.5 40l353 585q11 18 33 18z" />
<glyph unicode="_" horiz-adv-x="1000" d="M0 -302v59q0 16 11.5 27.5t27.5 11.5h922q16 0 27.5 -11.5t11.5 -27.5v-59q0 -16 -11.5 -27t-27.5 -11h-922q-16 0 -27.5 11t-11.5 27z" />
<glyph unicode="`" horiz-adv-x="980" d="M509 1445l225 -260q17 -20 7 -42.5t-37 -22.5h-148q-49 0 -87 32l-293 239q-19 14 -10.5 41.5t35.5 27.5h260q36 0 48 -15z" />
<glyph unicode="a" horiz-adv-x="1312" d="M475 -24q-189 0 -305 86.5t-116 240.5q0 170 135.5 265.5t402.5 95.5h240v32q0 70 -49 97t-190 27q-192 0 -355 -57q-18 -6 -34 3.5t-18 28.5l-20 160q-2 13 6 25t21 16q203 64 461 64q294 0 421 -94.5t127 -305.5v-621q0 -16 -11.5 -27.5t-27.5 -11.5h-292 q-16 0 -27.5 11t-11.5 27v47q-77 -61 -161.5 -85t-195.5 -24zM593 204q162 0 239 74v158h-230q-210 0 -210 -122q0 -59 51 -84.5t150 -25.5z" />
<glyph unicode="b" horiz-adv-x="1420" d="M498 1421v-471q129 110 342 110q106 0 199.5 -36.5t164 -104t111.5 -171.5t41 -230t-41 -230t-111.5 -171.5t-164 -104t-199.5 -36.5q-213 0 -342 110v-47q0 -16 -11.5 -27.5t-27.5 -11.5h-307q-16 0 -27 11.5t-11 27.5v1382q0 16 11 27.5t27 11.5h307q16 0 27.5 -11.5 t11.5 -27.5zM968 518q0 298 -266 298q-124 0 -204 -68v-460q80 -68 204 -68q266 0 266 298z" />
<glyph unicode="c" horiz-adv-x="1178" d="M1099 17q-130 -41 -319 -41q-337 0 -526.5 143t-189.5 399q0 254 184 398t512 144q179 0 319 -39q14 -4 23.5 -17t8.5 -26l-16 -159q-2 -18 -18 -27t-34 -4q-98 30 -227 30q-170 0 -267 -78t-97 -222q0 -146 100 -223t282 -77q134 0 221 30q19 7 34 -3t17 -30l17 -158 q2 -13 -5 -24.5t-19 -15.5z" />
<glyph unicode="d" horiz-adv-x="1420" d="M922 950v471q0 16 11.5 27.5t27.5 11.5h307q16 0 27 -11.5t11 -27.5v-1382q0 -16 -11 -27.5t-27 -11.5h-307q-16 0 -27.5 11.5t-11.5 27.5v47q-129 -110 -342 -110q-106 0 -199.5 36.5t-164 104t-111.5 171.5t-41 230t41 230t111.5 171.5t164 104t199.5 36.5 q213 0 342 -110zM452 518q0 -298 266 -298q124 0 204 68v460q-80 68 -204 68q-266 0 -266 -298z" />
<glyph unicode="e" horiz-adv-x="1330" d="M1268 441q-1 -15 -11.5 -27t-25.5 -12h-807q10 -101 100.5 -146.5t271.5 -45.5q161 0 301 45q17 5 28.5 -5.5t13.5 -30.5l18 -152q1 -12 -9.5 -25.5t-23.5 -17.5q-157 -48 -370 -48q-173 0 -306.5 40.5t-216.5 114t-125 171.5t-42 218q0 247 162.5 393.5t437.5 146.5 q145 0 260.5 -41t191 -114.5t115 -175t39.5 -223.5q0 -25 -2 -65zM666 826q-112 0 -174 -51.5t-68 -144.5h486q-6 93 -68 144.5t-176 51.5z" />
<glyph unicode="f" horiz-adv-x="954" d="M20 837v160q0 16 11.5 27.5t27.5 11.5h187v43q0 381 476 381q118 0 217 -18q15 -3 24.5 -15.5t7.5 -27.5l-19 -146q-2 -17 -15.5 -27t-29.5 -7q-54 9 -100 9q-97 0 -137 -32t-40 -113v-47h275q16 0 27.5 -11.5t11.5 -27.5v-160q0 -16 -11.5 -27.5t-27.5 -11.5h-275v-759 q0 -16 -11.5 -27.5t-27.5 -11.5h-306q-16 0 -27.5 11.5t-11.5 27.5v759h-187q-16 0 -27.5 11.5t-11.5 27.5z" />
<glyph unicode="g" horiz-adv-x="1416" d="M922 55v63q-122 -110 -342 -110q-107 0 -200 34t-163.5 98.5t-111.5 166t-41 227.5t41 227.5t111.5 166t163.5 98.5t200 34q220 0 342 -110v47q0 16 11.5 27.5t27.5 11.5h302q16 0 27.5 -11.5t11.5 -27.5v-894q0 -266 -156 -384.5t-518 -118.5q-224 0 -387 51 q-12 4 -20 15.5t-7 24.5l12 162q1 21 17.5 30.5t36.5 2.5q133 -48 300 -48q170 0 256 50.5t86 166.5zM922 320v428q-80 68 -204 68q-266 0 -266 -282t266 -282q124 0 204 68z" />
<glyph unicode="h" horiz-adv-x="1436" d="M1330 564v-525q0 -16 -11 -27.5t-27 -11.5h-307q-16 0 -27.5 11.5t-11.5 27.5v507q0 145 -56.5 207.5t-175.5 62.5q-135 0 -216 -72v-705q0 -16 -11.5 -27.5t-27.5 -11.5h-306q-16 0 -27.5 11.5t-11.5 27.5v1382q0 16 11.5 27.5t27.5 11.5h306q16 0 27.5 -11.5 t11.5 -27.5v-471q136 110 338 110q245 0 369.5 -124.5t124.5 -371.5z" />
<glyph unicode="i" horiz-adv-x="632" d="M316 1152q-109 0 -161.5 38t-52.5 116t52.5 116t161.5 38t161.5 -38t52.5 -116t-52.5 -116t-161.5 -38zM124 39v958q0 16 11.5 27.5t27.5 11.5h306q16 0 27.5 -11.5t11.5 -27.5v-958q0 -16 -11.5 -27.5t-27.5 -11.5h-306q-16 0 -27.5 11.5t-11.5 27.5z" />
<glyph unicode="j" horiz-adv-x="732" d="M232 23v974q0 16 11.5 27.5t27.5 11.5h306q16 0 27.5 -11.5t11.5 -27.5v-962q0 -82 -15.5 -146.5t-52 -120t-95 -91.5t-147.5 -56.5t-205 -20.5q-99 0 -186 14q-16 2 -25.5 14t-7.5 27l17 160q2 18 16 29t31 7q39 -9 96 -9q101 0 145.5 42t44.5 139zM424 1152 q-109 0 -161.5 38t-52.5 116t52.5 116t161.5 38t161.5 -38t52.5 -116t-52.5 -116t-161.5 -38z" />
<glyph unicode="k" horiz-adv-x="1370" d="M895 20l-397 502v-483q0 -16 -11.5 -27.5t-27.5 -11.5h-306q-16 0 -27.5 11.5t-11.5 27.5v1382q0 16 11.5 27.5t27.5 11.5h306q16 0 27.5 -11.5t11.5 -27.5v-797l353 384q25 28 64 28h326q27 0 36.5 -24t-9.5 -43l-386 -397l428 -508q17 -20 7 -42t-37 -22h-341 q-27 0 -44 20z" />
<glyph unicode="l" horiz-adv-x="632" d="M124 39v1382q0 16 11.5 27.5t27.5 11.5h306q16 0 27.5 -11.5t11.5 -27.5v-1382q0 -16 -11.5 -27.5t-27.5 -11.5h-306q-16 0 -27.5 11.5t-11.5 27.5z" />
<glyph unicode="m" horiz-adv-x="2168" d="M2062 574v-535q0 -16 -11 -27.5t-27 -11.5h-307q-16 0 -27.5 11.5t-11.5 27.5v547q0 126 -46.5 178t-143.5 52q-135 0 -224 -86q16 -77 16 -158v-533q0 -16 -11.5 -27.5t-27.5 -11.5h-306q-16 0 -27.5 11.5t-11.5 27.5v547q0 126 -46.5 178t-143.5 52q-61 0 -117.5 -20.5 t-90.5 -51.5v-705q0 -16 -11.5 -27.5t-27.5 -11.5h-307q-16 0 -27 11.5t-11 27.5v958q0 16 11 27.5t27 11.5h307q16 0 27.5 -11.5t11.5 -27.5v-47q140 110 334 110q241 0 356 -150q74 68 183.5 109t226.5 41q224 0 344 -122t120 -364z" />
<glyph unicode="n" horiz-adv-x="1436" d="M1330 564v-525q0 -16 -11 -27.5t-27 -11.5h-307q-16 0 -27.5 11.5t-11.5 27.5v507q0 145 -56.5 207.5t-175.5 62.5q-135 0 -216 -72v-705q0 -16 -11.5 -27.5t-27.5 -11.5h-306q-16 0 -27.5 11.5t-11.5 27.5v958q0 16 11.5 27.5t27.5 11.5h306q16 0 27.5 -11.5t11.5 -27.5 v-47q136 110 338 110q245 0 369.5 -124.5t124.5 -371.5z" />
<glyph unicode="o" horiz-adv-x="1416" d="M64 518q0 242 176 392t468 150t468 -150t176 -392t-176 -392t-468 -150t-468 150t-176 392zM452 518q0 -149 67.5 -223.5t188.5 -74.5t188.5 74.5t67.5 223.5t-67.5 223.5t-188.5 74.5t-188.5 -74.5t-67.5 -223.5z" />
<glyph unicode="p" horiz-adv-x="1420" d="M498 86v-433q0 -16 -11.5 -27.5t-27.5 -11.5h-307q-16 0 -27 11.5t-11 27.5v1344q0 16 11 27.5t27 11.5h307q16 0 27.5 -11.5t11.5 -27.5v-47q129 110 342 110q106 0 199.5 -36.5t164 -104t111.5 -171.5t41 -230t-41 -230t-111.5 -171.5t-164 -104t-199.5 -36.5 q-213 0 -342 110zM968 518q0 298 -266 298q-124 0 -204 -68v-460q80 -68 204 -68q266 0 266 298z" />
<glyph unicode="q" horiz-adv-x="1420" d="M922 -347v433q-129 -110 -342 -110q-106 0 -199.5 36.5t-164 104t-111.5 171.5t-41 230t41 230t111.5 171.5t164 104t199.5 36.5q213 0 342 -110v47q0 16 11.5 27.5t27.5 11.5h307q16 0 27 -11.5t11 -27.5v-1344q0 -16 -11 -27.5t-27 -11.5h-307q-16 0 -27.5 11.5 t-11.5 27.5zM452 518q0 -298 266 -298q124 0 204 68v460q-80 68 -204 68q-266 0 -266 -298z" />
<glyph unicode="r" horiz-adv-x="986" d="M900 782q-68 16 -128 16q-102 0 -174 -45.5t-100 -118.5v-595q0 -16 -11.5 -27.5t-27.5 -11.5h-307q-16 0 -27 11.5t-11 27.5v958q0 16 11 27.5t27 11.5h307q16 0 27.5 -11.5t11.5 -27.5v-89q51 68 136 110t184 42q66 0 128 -14q14 -3 23 -16.5t7 -27.5l-27 -186 q-2 -18 -17 -28t-32 -6z" />
<glyph unicode="s" horiz-adv-x="1136" d="M101 39q-27 9 -26 40l12 169q2 21 19 31.5t36 2.5q151 -62 341 -62q109 0 151.5 16.5t42.5 59.5q0 26 -20 45t-79.5 41.5t-168.5 47.5q-332 77 -332 314q0 157 121.5 236.5t392.5 79.5q213 0 397 -54q12 -4 19.5 -16t5.5 -25l-18 -161q-2 -19 -17.5 -29t-33.5 -4 q-135 45 -299 45q-103 0 -142.5 -15t-39.5 -45q0 -24 20 -43t77 -40.5t163 -48.5q182 -45 260 -120t78 -192q0 -336 -528 -336q-252 0 -432 63z" />
<glyph unicode="t" horiz-adv-x="1020" d="M30 835v162q0 16 11 27.5t27 11.5h156v271q0 16 11.5 27.5t27.5 11.5h306q16 0 27.5 -11.5t11.5 -27.5v-271h305q16 0 27.5 -11.5t11.5 -27.5v-162q0 -16 -11.5 -27.5t-27.5 -11.5h-305v-367q0 -122 43.5 -165.5t160.5 -43.5q54 0 93 7q16 3 30 -8.5t16 -28.5l17 -157 q2 -15 -7.5 -27.5t-24.5 -14.5q-92 -15 -188 -15q-130 0 -222.5 23t-151 63.5t-92 108.5t-46 146t-12.5 188v291h-156q-16 0 -27 11.5t-11 27.5z" />
<glyph unicode="u" horiz-adv-x="1436" d="M106 472v525q0 16 11 27.5t27 11.5h307q16 0 27.5 -11.5t11.5 -27.5v-507q0 -145 56.5 -207.5t175.5 -62.5q135 0 216 72v705q0 16 11.5 27.5t27.5 11.5h306q16 0 27.5 -11.5t11.5 -27.5v-958q0 -16 -11.5 -27.5t-27.5 -11.5h-306q-16 0 -27.5 11.5t-11.5 27.5v47 q-136 -110 -338 -110q-245 0 -369.5 124.5t-124.5 371.5z" />
<glyph unicode="v" horiz-adv-x="1372" d="M876 0h-406q-29 0 -41 29l-398 953q-8 21 3 37.5t33 16.5h312q11 0 22.5 -8t14.5 -18l257 -718l257 718q3 10 14.5 18t22.5 8h312q22 0 33 -16.5t3 -37.5l-398 -953q-12 -29 -41 -29z" />
<glyph unicode="w" horiz-adv-x="2080" d="M863 1036h338q12 0 22.5 -8.5t14.5 -19.5l206 -695l218 696q4 11 15 19t22 8h298q22 0 33 -16t4 -36l-337 -958q-4 -10 -15 -18t-22 -8h-402q-12 0 -23 8.5t-14 19.5l-189 649l-189 -649q-3 -11 -14 -19.5t-23 -8.5h-402q-11 0 -22 8t-15 18l-337 958q-7 20 4 36t33 16 h298q11 0 22 -8t15 -19l218 -696l206 695q4 11 14.5 19.5t22.5 8.5z" />
<glyph unicode="x" horiz-adv-x="1326" d="M629 762l211 259q12 15 30 15h306q27 0 37 -24.5t-7 -44.5l-361 -438l380 -460q18 -19 7.5 -44t-37.5 -25h-306q-17 0 -30 15l-230 281l-230 -281q-13 -15 -30 -15h-306q-27 0 -37.5 25t7.5 44l380 460l-361 438q-17 20 -7 44.5t37 24.5h306q18 0 30 -15z" />
<glyph unicode="y" horiz-adv-x="1394" d="M413 1013l280 -646l262 645q4 9 15 16.5t21 7.5h311q22 0 33.5 -17t2.5 -38l-574 -1343q-4 -9 -15 -16.5t-21 -7.5h-318q-22 0 -33 17t-3 37l135 332l-475 980q-10 21 1 38.5t34 17.5h308q10 0 21 -7t15 -16z" />
<glyph unicode="z" horiz-adv-x="1158" d="M44 39v185q0 20 13 33l547 539h-491q-16 0 -27.5 11.5t-11.5 27.5v162q0 16 11.5 27.5t27.5 11.5h938q16 0 27.5 -11.5t11.5 -27.5v-177q0 -26 -20 -46l-544 -534h549q16 0 27.5 -11.5t11.5 -27.5v-162q0 -16 -11.5 -27.5t-27.5 -11.5h-992q-16 0 -27.5 11.5t-11.5 27.5z " />
<glyph unicode="{" horiz-adv-x="960" d="M140 542v164q0 12 9 23.5t21 14.5q58 12 100 64t42 131v310q0 123 78 187t209 64h282q16 0 27.5 -11.5t11.5 -27.5v-170q0 -16 -11.5 -27.5t-27.5 -11.5h-160q-40 0 -57.5 -19t-17.5 -60v-296q0 -209 -204 -258q204 -47 204 -257v-295q0 -41 17.5 -60t57.5 -19h160 q16 0 27.5 -11.5t11.5 -27.5v-170q0 -16 -11.5 -27.5t-27.5 -11.5h-282q-131 0 -209 64t-78 187v309q0 79 -42.5 135.5t-99.5 68.5q-12 3 -21 14.5t-9 23.5z" />
<glyph unicode="|" horiz-adv-x="634" d="M182 -361v1860q0 16 11.5 27.5t27.5 11.5h192q16 0 27.5 -11.5t11.5 -27.5v-1860q0 -16 -11.5 -27.5t-27.5 -11.5h-192q-16 0 -27.5 11.5t-11.5 27.5z" />
<glyph unicode="}" horiz-adv-x="960" d="M820 706v-164q0 -12 -9 -23.5t-21 -14.5q-57 -12 -99.5 -68.5t-42.5 -135.5v-309q0 -123 -78 -187t-209 -64h-282q-16 0 -27.5 11.5t-11.5 27.5v170q0 16 11.5 27.5t27.5 11.5h160q40 0 57.5 19t17.5 60v295q0 210 204 257q-204 49 -204 258v296q0 41 -17.5 60t-57.5 19 h-160q-16 0 -27.5 11.5t-11.5 27.5v170q0 16 11.5 27.5t27.5 11.5h282q131 0 209 -64t78 -187v-310q0 -79 42 -131t100 -64q12 -3 21 -14.5t9 -23.5z" />
<glyph unicode="~" horiz-adv-x="1304" d="M902 836q5 30 39 30h227q15 0 25.5 -14t9.5 -30q-17 -364 -309 -364q-118 0 -226 64q-94 54 -170 54q-83 0 -96 -83q-2 -14 -13.5 -22.5t-26.5 -8.5h-222q-16 0 -28 14.5t-11 31.5q16 362 309 362q118 0 226 -64q94 -54 170 -54q84 0 96 84z" />
<glyph unicode="&#xa1;" horiz-adv-x="744" d="M535 -364h-326q-16 0 -27.5 11t-11.5 27v301l51 607q2 14 13.5 25t25.5 11h223q14 0 25 -11t13 -25l53 -608v-300q0 -16 -11.5 -27t-27.5 -11zM372 1060q112 0 162 -41t50 -127q0 -85 -50 -126.5t-162 -41.5t-162 41.5t-50 126.5q0 86 50 127t162 41z" />
<glyph unicode="&#xa2;" horiz-adv-x="1178" d="M1099 17q-108 -33 -261 -40v-172q0 -16 -11.5 -27.5t-27.5 -11.5h-132q-16 0 -27.5 11.5t-11.5 27.5v179h7q-271 29 -421 168t-150 366t148 367t416 168v178q0 16 11.5 27.5t27.5 11.5h132q16 0 27.5 -11.5t11.5 -27.5v-173q133 -8 241 -37q14 -4 23.5 -17t8.5 -26 l-16 -159q-2 -18 -18 -27t-34 -4q-98 30 -227 30q-170 0 -267 -78t-97 -222q0 -146 100 -223t282 -77q134 0 221 30q19 7 34 -3t17 -30l17 -158q2 -13 -5 -24.5t-19 -15.5z" />
<glyph unicode="&#xa3;" horiz-adv-x="1370" d="M46 663v95q0 16 11.5 27t27.5 11h129v191q0 224 145 330.5t435 106.5q233 0 410 -62q13 -5 20.5 -17.5t6.5 -25.5l-16 -188q-2 -21 -18 -31t-35 -2q-117 46 -276 46q-148 0 -209 -40t-61 -129v-179h383q16 0 27.5 -11t11.5 -27v-95q0 -16 -11.5 -27.5t-27.5 -11.5h-383 v-104q0 -160 -107 -244h782q16 0 27.5 -11.5t11.5 -27.5v-198q0 -16 -11.5 -27.5t-27.5 -11.5h-1206q-16 0 -27.5 11.5t-11.5 27.5v203q0 22 20 34q148 84 148 218v130h-129q-16 0 -27.5 11.5t-11.5 27.5z" />
<glyph unicode="&#xa4;" horiz-adv-x="1464" d="M503 664q0 -110 60.5 -177t157.5 -67t157.5 67t60.5 177t-60.5 177t-157.5 67t-157.5 -67t-60.5 -177zM1247 664q0 -127 -64 -248l114 -116q11 -11 11 -26.5t-11 -26.5l-140 -146q-11 -12 -27.5 -12.5t-27.5 11.5l-123 124q-123 -61 -258 -61t-258 61l-123 -124 q-11 -12 -27.5 -11.5t-27.5 12.5l-140 146q-11 11 -11 26.5t11 26.5l114 116q-64 121 -64 248t64 248l-114 116q-11 11 -11 26.5t11 26.5l140 146q11 12 27.5 12.5t27.5 -11.5l123 -124q123 61 258 61t258 -61l123 124q11 12 27.5 11.5t27.5 -12.5l140 -146q11 -11 11 -27 t-11 -26l-114 -116q64 -121 64 -248z" />
<glyph unicode="&#xa5;" horiz-adv-x="1576" d="M930 0h-328q-16 0 -27 11.5t-11 27.5v245h-381q-17 0 -28 11t-11 28v62q0 16 11.5 27.5t27.5 11.5h381v126h-381q-16 0 -27.5 11.5t-11.5 27.5v62q0 17 11 28t28 11h291l-426 650q-13 21 -2 40.5t37 19.5h328q8 0 18.5 -6t14.5 -13l322 -543l322 543q4 7 14.5 13t18.5 6 h328q26 0 37 -19.5t-2 -40.5l-426 -650h291q17 0 28 -11t11 -28v-62q0 -16 -11.5 -27.5t-27.5 -11.5h-381v-126h381q16 0 27.5 -11.5t11.5 -27.5v-62q0 -17 -11 -28t-28 -11h-381v-245q0 -16 -11 -27.5t-27 -11.5z" />
<glyph unicode="&#xa6;" horiz-adv-x="634" d="M221 464h192q16 0 27.5 -11t11.5 -27v-599q0 -16 -11.5 -27.5t-27.5 -11.5h-192q-16 0 -27.5 11.5t-11.5 27.5v599q0 16 11.5 27t27.5 11zM221 1388h192q16 0 27.5 -11t11.5 -27v-601q0 -16 -11.5 -27.5t-27.5 -11.5h-192q-16 0 -27.5 11.5t-11.5 27.5v601q0 16 11.5 27 t27.5 11z" />
<glyph unicode="&#xa7;" horiz-adv-x="1278" d="M652 496q75 15 117.5 49.5t42.5 82.5q0 41 -48.5 75t-129.5 49q-76 -15 -119 -49.5t-43 -82.5q0 -41 49 -75t131 -49zM175 -131q-12 5 -19.5 17t-6.5 25l13 165q2 20 17.5 29.5t34.5 1.5q150 -69 340 -69q113 0 161.5 22.5t48.5 67.5q0 44 -56 78t-204 68 q-179 42 -277.5 123.5t-98.5 202.5q0 93 54 163t142 103q-96 35 -148 100.5t-52 153.5q0 138 129.5 221t392.5 83q247 0 425 -65q12 -5 19.5 -17t6.5 -25l-18 -152q-3 -20 -18 -29.5t-34 -1.5q-126 50 -315 50q-196 0 -196 -82q0 -41 62 -72t208 -68q179 -47 272.5 -126.5 t93.5 -201.5q0 -92 -50 -159.5t-140 -102.5q89 -30 140.5 -97.5t51.5 -152.5q0 -150 -130.5 -236t-401.5 -86q-242 0 -447 69z" />
<glyph unicode="&#xa8;" horiz-adv-x="980" d="M74 1290q0 146 156 146t156 -146t-156 -146t-156 146zM594 1290q0 146 156 146t156 -146t-156 -146t-156 146z" />
<glyph unicode="&#xa9;" horiz-adv-x="1660" d="M106 700q0 197 97 363.5t263.5 263.5t363.5 97t363.5 -97t263.5 -263.5t97 -363.5t-97 -363.5t-263.5 -263.5t-363.5 -97t-363.5 97t-263.5 263.5t-97 363.5zM218 700q0 -169 82 -312t223 -225.5t307 -82.5t307 82.5t223 225.5t82 312t-82 312t-223 225.5t-307 82.5 t-307 -82.5t-223 -225.5t-82 -312zM1111 299q-98 -37 -227 -37q-218 0 -348 116.5t-130 317.5q0 200 129 317t337 117q133 0 237 -41q12 -5 20 -16.5t7 -23.5l-12 -107q-2 -22 -19 -33t-36 -2q-64 29 -147 29q-98 0 -157 -64t-59 -176q0 -113 60 -176.5t166 -63.5 q81 0 138 26q19 8 35.5 -1.5t18.5 -30.5l12 -111q1 -12 -6.5 -24t-18.5 -16z" />
<glyph unicode="&#xaa;" horiz-adv-x="1072" d="M942 1110v-433q0 -16 -11 -27.5t-27 -11.5h-207q-16 0 -27.5 11.5t-11.5 27.5v17q-97 -72 -260 -72q-133 0 -216.5 64t-83.5 178q0 268 406 268h154q0 51 -39 74.5t-131 23.5q-130 0 -252 -37q-19 -5 -32.5 4t-16.5 28l-16 102q-2 13 6 26t22 18q152 45 339 45 q213 0 308.5 -72.5t95.5 -233.5zM494 800q100 0 164 46v108h-130q-86 0 -127 -18t-41 -62q0 -74 134 -74z" />
<glyph unicode="&#xab;" horiz-adv-x="1100" d="M120 545v158q0 18 13 29l365 337q20 19 43 9.5t23 -36.5v-184q0 -27 -19 -43l-211 -191l211 -191q19 -16 19 -43v-184q0 -27 -23 -36.5t-43 9.5l-365 337q-13 11 -13 29zM556 545v158q0 18 13 29l365 337q20 19 43 9.5t23 -36.5v-184q0 -27 -19 -43l-211 -191l211 -191 q19 -16 19 -43v-184q0 -27 -23 -36.5t-43 9.5l-365 337q-13 11 -13 29z" />
<glyph unicode="&#xac;" horiz-adv-x="1304" d="M90 699v174q0 16 11.5 27.5t27.5 11.5h1026q16 0 27.5 -11.5t11.5 -27.5v-526q0 -16 -11.5 -27.5t-27.5 -11.5h-234q-16 0 -27.5 11.5t-11.5 27.5v313h-753q-16 0 -27.5 11.5t-11.5 27.5z" />
<glyph unicode="&#xad;" horiz-adv-x="848" d="M709 528h-570q-16 0 -27.5 11.5t-11.5 27.5v194q0 17 11 28t28 11h570q17 0 28 -11t11 -28v-194q0 -16 -11.5 -27.5t-27.5 -11.5z" />
<glyph unicode="&#xae;" horiz-adv-x="1660" d="M546 1120h288q162 0 256 -67t94 -199q0 -81 -43 -144t-129 -98l193 -271q14 -20 4 -40.5t-35 -20.5h-157q-7 0 -17 6t-15 12l-181 278h-76v-257q0 -16 -11.5 -27.5t-27.5 -11.5h-143q-16 0 -27 11.5t-11 27.5v762q0 16 11 27.5t27 11.5zM956 854q0 110 -130 110h-98v-216 h98q130 0 130 106zM106 700q0 197 97 363.5t263.5 263.5t363.5 97t363.5 -97t263.5 -263.5t97 -363.5t-97 -363.5t-263.5 -263.5t-363.5 -97t-363.5 97t-263.5 263.5t-97 363.5zM218 700q0 -169 82 -312t223 -225.5t307 -82.5t307 82.5t223 225.5t82 312t-82 312t-223 225.5 t-307 82.5t-307 -82.5t-223 -225.5t-82 -312z" />
<glyph unicode="&#xaf;" horiz-adv-x="980" d="M134 1223v132q0 16 11 27.5t27 11.5h633q16 0 27.5 -11.5t11.5 -27.5v-132q0 -17 -11 -28t-28 -11h-633q-16 0 -27 11.5t-11 27.5z" />
<glyph unicode="&#xb0;" horiz-adv-x="980" d="M168 1116q0 131 92 219.5t230 88.5t230 -88.5t92 -219.5t-92 -219.5t-230 -88.5t-230 88.5t-92 219.5zM374 1116q0 -52 32.5 -85t83.5 -33t83.5 33t32.5 85t-32.5 85t-83.5 33t-83.5 -33t-32.5 -85z" />
<glyph unicode="&#xb1;" horiz-adv-x="1304" d="M496 357v315h-357q-16 0 -27.5 11.5t-11.5 27.5v174q0 16 11.5 27.5t27.5 11.5h357v303q0 16 11.5 27.5t27.5 11.5h234q16 0 27.5 -11.5t11.5 -27.5v-303h357q16 0 27.5 -11.5t11.5 -27.5v-174q0 -16 -11.5 -27.5t-27.5 -11.5h-357v-315q0 -16 -11.5 -27.5t-27.5 -11.5 h-234q-16 0 -27.5 11.5t-11.5 27.5zM1165 24h-1026q-16 0 -27.5 11.5t-11.5 27.5v174q0 16 11.5 27.5t27.5 11.5h1026q16 0 27.5 -11.5t11.5 -27.5v-174q0 -16 -11.5 -27.5t-27.5 -11.5z" />
<glyph unicode="&#xb2;" horiz-adv-x="964" d="M560 1112q0 54 -45 77t-136 23q-98 0 -197 -30q-19 -6 -34 4t-16 29l-10 116q-1 12 7 24.5t19 16.5q134 44 295 44q199 0 301 -75t102 -213q0 -87 -38 -160t-121 -148q-88 -80 -211 -152h333q16 0 27.5 -11.5t11.5 -27.5v-120q0 -16 -11.5 -27.5t-27.5 -11.5h-680 q-16 0 -27.5 11.5t-11.5 27.5v123q0 21 18 32q176 114 306 230q78 69 112 117.5t34 100.5z" />
<glyph unicode="&#xb3;" horiz-adv-x="964" d="M131 1375q131 41 306 41q191 0 297.5 -65t106.5 -189q0 -72 -40 -126t-118 -80q81 -26 126.5 -83t45.5 -133q0 -136 -116.5 -211t-325.5 -75q-162 0 -302 39q-12 4 -20 15.5t-7 24.5l12 124q2 20 18 29t35 2q91 -38 224 -38q200 0 200 90q0 59 -75 87t-248 33 q-15 1 -26 12.5t-11 26.5v110q0 16 11.5 27.5t27.5 11.5q163 2 235 26.5t72 73.5q0 36 -42.5 53t-135.5 17q-107 0 -216 -31q-18 -5 -32.5 5t-16.5 29l-12 113q-2 13 6 25t21 16z" />
<glyph unicode="&#xb4;" horiz-adv-x="980" d="M784 1390l-314 -256q-18 -14 -43 -14h-172q-26 0 -36.5 22t7.5 42l221 254q18 22 47 22h265q28 0 37.5 -26t-12.5 -44z" />
<glyph unicode="&#xb5;" horiz-adv-x="1444" d="M946 292v705q0 16 11.5 27.5t27.5 11.5h307q16 0 27 -11.5t11 -27.5v-958q0 -16 -11 -27.5t-27 -11.5h-307q-16 0 -27.5 11.5t-11.5 27.5v39q-34 -49 -94 -76.5t-130 -27.5t-130 27.5t-94 76.5v-425q0 -16 -11.5 -27.5t-27.5 -11.5h-306q-16 0 -27.5 11.5t-11.5 27.5 v1344q0 16 11.5 27.5t27.5 11.5h306q16 0 27.5 -11.5t11.5 -27.5v-705q81 -72 224 -72t224 72z" />
<glyph unicode="&#xb6;" horiz-adv-x="1260" d="M1120 1400v-1623q0 -16 -11.5 -27.5t-27.5 -11.5h-182q-16 0 -27.5 11.5t-11.5 27.5v1403h-76v-1403q0 -16 -11.5 -27.5t-27.5 -11.5h-182q-16 0 -27.5 11.5t-11.5 27.5v755h-10q-201 0 -327.5 115.5t-126.5 318.5t126.5 318.5t327.5 115.5h606z" />
<glyph unicode="&#xb7;" horiz-adv-x="720" d="M166 664q0 180 194 180t194 -180t-194 -180t-194 180z" />
<glyph unicode="&#xb8;" horiz-adv-x="980" d="M246 -430v74q0 18 13 30t31 9q33 -5 75 -5q131 0 131 55q0 62 -168 74q-24 1 -33.5 20.5t3.5 39.5l75 116q13 17 33 17h162q25 0 35.5 -19.5t-3.5 -40.5l-36 -54q77 -11 123.5 -56.5t46.5 -104.5q0 -201 -341 -201q-58 0 -114 7q-14 2 -23.5 13.5t-9.5 25.5z" />
<glyph unicode="&#xb9;" horiz-adv-x="964" d="M123 1204l273 177q32 21 63 21h180q17 0 28 -11t11 -28v-854q0 -17 -11 -28t-28 -11h-203q-16 0 -27 11.5t-11 27.5v619l-159 -100q-14 -8 -29.5 -4.5t-23.5 16.5l-73 109q-10 13 -7 29.5t17 25.5z" />
<glyph unicode="&#xba;" horiz-adv-x="1072" d="M66 1020q0 179 130 287.5t340 108.5t340 -108.5t130 -287.5t-130 -287.5t-340 -108.5t-340 108.5t-130 287.5zM362 1020q0 -104 47 -156t127 -52t127 52t47 156t-47 156t-127 52t-127 -52t-47 -156z" />
<glyph unicode="&#xbb;" horiz-adv-x="1100" d="M980 703v-158q0 -18 -13 -29l-365 -337q-20 -19 -43 -9.5t-23 36.5v184q0 27 19 43l211 191l-211 191q-19 16 -19 43v184q0 27 23 36.5t43 -9.5l365 -337q13 -11 13 -29zM544 703v-158q0 -18 -13 -29l-365 -337q-20 -19 -43 -9.5t-23 36.5v184q0 27 19 43l211 191 l-211 191q-19 16 -19 43v184q0 27 23 36.5t43 -9.5l365 -337q13 -11 13 -29z" />
<glyph unicode="&#xbc;" horiz-adv-x="2340" d="M1362 209v117q0 52 38 94l433 497q11 13 29 13h223q16 0 27.5 -11.5t11.5 -27.5v-515h81q17 0 28 -11t11 -28v-128q0 -17 -11 -28t-28 -11h-81v-131q0 -16 -11.5 -27.5t-27.5 -11.5h-194q-16 0 -27.5 11.5t-11.5 27.5v131h-451q-17 0 -28 11t-11 28zM1852 654l-238 -278 h238v278zM1674 1370l-885 -1366q-23 -34 -64 -34h-99q-25 0 -35.5 19.5t3.5 40.5l885 1366q23 34 64 34h99q25 0 35.5 -19.5t-3.5 -40.5zM113 1204l273 177q32 21 63 21h180q17 0 28 -11t11 -28v-854q0 -17 -11 -28t-28 -11h-203q-16 0 -27 11.5t-11 27.5v619l-159 -100 q-14 -8 -29.5 -4.5t-23.5 16.5l-73 109q-10 13 -7 29.5t17 25.5z" />
<glyph unicode="&#xbd;" horiz-adv-x="2340" d="M1904 642q0 54 -45 77t-136 23q-98 0 -197 -30q-19 -6 -34 4t-16 29l-10 116q-1 12 7 24.5t19 16.5q134 44 295 44q199 0 301 -75t102 -213q0 -87 -38 -160t-121 -148q-88 -80 -211 -152h333q16 0 27.5 -11.5t11.5 -27.5v-120q0 -16 -11.5 -27.5t-27.5 -11.5h-680 q-16 0 -27.5 11.5t-11.5 27.5v123q0 21 18 32q176 114 306 230q78 69 112 117.5t34 100.5zM1578 1370l-885 -1366q-23 -34 -64 -34h-99q-25 0 -35.5 19.5t3.5 40.5l885 1366q23 34 64 34h99q25 0 35.5 -19.5t-3.5 -40.5zM113 1204l273 177q32 21 63 21h180q17 0 28 -11 t11 -28v-854q0 -17 -11 -28t-28 -11h-203q-16 0 -27 11.5t-11 27.5v619l-159 -100q-14 -8 -29.5 -4.5t-23.5 16.5l-73 109q-10 13 -7 29.5t17 25.5z" />
<glyph unicode="&#xbe;" horiz-adv-x="2340" d="M1371 209v117q0 52 38 94l433 497q11 13 29 13h223q16 0 27.5 -11.5t11.5 -27.5v-515h81q16 0 27.5 -11t11.5 -28v-128q0 -17 -11.5 -28t-27.5 -11h-81v-131q0 -16 -11.5 -27.5t-27.5 -11.5h-194q-16 0 -27.5 11.5t-11.5 27.5v131h-451q-16 0 -27.5 11t-11.5 28z M1861 654l-238 -278h238v278zM1721 1370l-885 -1366q-23 -34 -64 -34h-99q-25 0 -35.5 19.5t3.5 40.5l885 1366q23 34 64 34h99q25 0 35.5 -19.5t-3.5 -40.5zM130 1375q131 41 306 41q191 0 297.5 -65t106.5 -189q0 -72 -40 -126t-118 -80q81 -26 126.5 -83t45.5 -133 q0 -136 -116.5 -211t-325.5 -75q-162 0 -302 39q-12 4 -20 15.5t-7 24.5l12 124q2 20 18 29t35 2q91 -38 224 -38q200 0 200 90q0 59 -75 87t-248 33q-15 1 -26 12.5t-11 26.5v110q0 16 11.5 27.5t27.5 11.5q163 2 235 26.5t72 73.5q0 36 -42.5 53t-135.5 17 q-107 0 -216 -31q-18 -5 -32.5 5t-16.5 29l-12 113q-2 13 6 25t21 16z" />
<glyph unicode="&#xbf;" horiz-adv-x="1270" d="M1137 -44q20 7 35.5 -3t16.5 -30l19 -199q4 -28 -20 -37q-90 -35 -208.5 -55t-233.5 -20q-304 0 -455 95t-151 277q0 227 274 378q75 40 107.5 87t32.5 113v25q0 17 11 28t28 11h299q16 0 27 -11.5t11 -27.5v-35q0 -136 -50 -226t-166 -150q-98 -50 -134 -88t-36 -88 q0 -52 59.5 -77t200.5 -25q174 0 333 58zM530 892q0 86 50 127t162 41t162 -41t50 -127q0 -85 -50 -126.5t-162 -41.5t-162 41.5t-50 126.5z" />
<glyph unicode="&#xc0;" horiz-adv-x="1668" d="M526 286h592l92 -257q10 -29 46 -29h336q23 0 34 16.5t3 38.5l-531 1320q-4 10 -15 17.5t-22 7.5h-478q-11 0 -22 -7.5t-15 -17.5l-531 -1320q-8 -22 3 -38.5t34 -16.5h336q36 0 46 29zM1016 572h-388l194 542zM759 1833l225 -260q17 -20 7 -42.5t-37 -22.5h-148 q-49 0 -87 32l-293 239q-19 14 -10.5 41.5t35.5 27.5h260q36 0 48 -15z" />
<glyph unicode="&#xc1;" horiz-adv-x="1668" d="M526 286h592l92 -257q10 -29 46 -29h336q23 0 34 16.5t3 38.5l-531 1320q-4 10 -15 17.5t-22 7.5h-478q-11 0 -22 -7.5t-15 -17.5l-531 -1320q-8 -22 3 -38.5t34 -16.5h336q36 0 46 29zM1016 572h-388l194 542zM1222 1778l-314 -256q-17 -14 -43 -14h-172q-26 0 -36.5 22 t7.5 42l221 254q18 22 47 22h265q28 0 37.5 -26t-12.5 -44z" />
<glyph unicode="&#xc2;" horiz-adv-x="1668" d="M1118 286h-592l-92 -257q-10 -29 -46 -29h-336q-23 0 -34 16.5t-3 38.5l531 1320q4 10 15 17.5t22 7.5h478q11 0 22 -7.5t15 -17.5l531 -1320q8 -22 -3 -38.5t-34 -16.5h-336q-36 0 -46 29zM628 572h388l-194 542zM663 1848h288q20 0 31 -14l216 -263q17 -20 6.5 -41.5 t-36.5 -21.5h-181q-17 0 -28 11l-152 153l-152 -153q-11 -11 -28 -11h-181q-26 0 -36.5 21.5t6.5 41.5l216 263q11 14 31 14z" />
<glyph unicode="&#xc3;" horiz-adv-x="1668" d="M526 286h592l92 -257q10 -29 46 -29h336q23 0 34 16.5t3 38.5l-531 1320q-4 10 -15 17.5t-22 7.5h-478q-11 0 -22 -7.5t-15 -17.5l-531 -1320q-8 -22 3 -38.5t34 -16.5h336q36 0 46 29zM1016 572h-388l194 542zM844 1563q-79 41 -121 41q-34 0 -52 -10.5t-25 -36.5 q-2 -12 -11 -20.5t-21 -8.5h-130q-18 0 -29 8t-10 24q5 125 62 198t160 73q79 0 158 -40q79 -41 121 -41q34 0 52 10.5t25 36.5q2 12 11 20.5t21 8.5h130q18 0 29 -8t10 -24q-5 -125 -62 -198t-160 -73q-79 0 -158 40z" />
<glyph unicode="&#xc4;" horiz-adv-x="1668" d="M526 286h592l92 -257q10 -29 46 -29h336q23 0 34 16.5t3 38.5l-531 1320q-4 10 -15 17.5t-22 7.5h-478q-11 0 -22 -7.5t-15 -17.5l-531 -1320q-8 -22 3 -38.5t34 -16.5h336q36 0 46 29zM1016 572h-388l194 542zM418 1678q0 146 156 146t156 -146t-156 -146t-156 146z M938 1678q0 146 156 146t156 -146t-156 -146t-156 146z" />
<glyph unicode="&#xc5;" horiz-adv-x="1668" d="M526 286h592l92 -257q10 -29 46 -29h336q23 0 34 16.5t3 38.5l-531 1320q-4 10 -15 17.5t-22 7.5h-478q-11 0 -22 -7.5t-15 -17.5l-531 -1320q-8 -22 3 -38.5t34 -16.5h336q36 0 46 29zM1016 572h-388l194 542zM574 1678q0 105 74.5 177.5t185.5 72.5t185.5 -72.5 t74.5 -177.5t-74.5 -177.5t-185.5 -72.5t-185.5 72.5t-74.5 177.5zM752 1678q0 -37 23.5 -60.5t58.5 -23.5t58.5 23.5t23.5 60.5t-23.5 60.5t-58.5 23.5t-58.5 -23.5t-23.5 -60.5z" />
<glyph unicode="&#xc6;" horiz-adv-x="2202" d="M1055 40v246h-466l-145 -265q-11 -21 -35 -21h-353q-25 0 -36.5 20t0.5 41l743 1314q13 25 46 25h1238q17 0 28.5 -12t11.5 -28v-197q0 -16 -11.5 -27.5t-28.5 -11.5h-600v-274h545q16 0 27.5 -12t11.5 -28v-197q0 -16 -11.5 -27.5t-27.5 -11.5h-545v-298h616 q17 0 28.5 -11.5t11.5 -27.5v-197q0 -16 -11.5 -28t-28.5 -12h-969q-16 0 -27.5 12t-11.5 28zM1055 1142l-310 -570h310v570z" />
<glyph unicode="&#xc7;" horiz-adv-x="1482" d="M661 -430v74q0 18 13 30t31 9q32 -5 75 -5q131 0 131 55q0 62 -168 74q-24 1 -33.5 20.5t3.5 39.5l77 119q-342 37 -529 224t-187 490q0 338 231.5 531t646.5 193q245 0 425 -59q12 -4 20.5 -15.5t7.5 -24.5l-20 -203q-2 -21 -18 -31t-35 -3q-133 48 -314 48 q-263 0 -395.5 -112t-132.5 -324q0 -215 136.5 -325.5t399.5 -110.5q176 0 316 50q20 7 35.5 -2.5t17.5 -30.5l20 -205q1 -13 -7 -25.5t-21 -16.5q-148 -48 -347 -56l-60 -92q76 -11 122.5 -56.5t46.5 -104.5q0 -201 -341 -201q-58 0 -114 7q-14 2 -23.5 13.5t-9.5 25.5z " />
<glyph unicode="&#xc8;" horiz-adv-x="1386" d="M1250 1124h-706v-274h656q16 0 28 -12t12 -28v-197q0 -16 -11.5 -27.5t-28.5 -11.5h-656v-298h722q17 0 28.5 -11.5t11.5 -27.5v-197q0 -16 -12 -28t-28 -12h-1086q-16 0 -28 12t-12 28v1320q0 16 12 28t28 12h1070q16 0 28 -12t12 -28v-197q0 -16 -11.5 -27.5 t-28.5 -11.5zM689 1833l225 -260q17 -20 7 -42.5t-37 -22.5h-148q-49 0 -87 32l-293 239q-19 14 -10.5 41.5t35.5 27.5h260q36 0 48 -15z" />
<glyph unicode="&#xc9;" horiz-adv-x="1386" d="M1250 1124h-706v-274h656q16 0 28 -12t12 -28v-197q0 -16 -11.5 -27.5t-28.5 -11.5h-656v-298h722q17 0 28.5 -11.5t11.5 -27.5v-197q0 -16 -12 -28t-28 -12h-1086q-16 0 -28 12t-12 28v1320q0 16 12 28t28 12h1070q16 0 28 -12t12 -28v-197q0 -16 -11.5 -27.5 t-28.5 -11.5zM1056 1778l-314 -256q-18 -14 -43 -14h-172q-26 0 -36.5 22t7.5 42l221 254q18 22 47 22h265q28 0 37.5 -26t-12.5 -44z" />
<glyph unicode="&#xca;" horiz-adv-x="1386" d="M1250 1124h-706v-274h656q16 0 28 -12t12 -28v-197q0 -16 -11.5 -27.5t-28.5 -11.5h-656v-298h722q17 0 28.5 -11.5t11.5 -27.5v-197q0 -16 -12 -28t-28 -12h-1086q-16 0 -28 12t-12 28v1320q0 16 12 28t28 12h1070q16 0 28 -12t12 -28v-197q0 -16 -11.5 -27.5 t-28.5 -11.5zM535 1848h288q20 0 31 -14l216 -263q17 -20 6.5 -41.5t-36.5 -21.5h-181q-17 0 -28 11l-152 153l-152 -153q-11 -11 -28 -11h-181q-26 0 -36.5 21.5t6.5 41.5l216 263q11 14 31 14z" />
<glyph unicode="&#xcb;" horiz-adv-x="1386" d="M1250 1124h-706v-274h656q16 0 28 -12t12 -28v-197q0 -16 -11.5 -27.5t-28.5 -11.5h-656v-298h722q17 0 28.5 -11.5t11.5 -27.5v-197q0 -16 -12 -28t-28 -12h-1086q-16 0 -28 12t-12 28v1320q0 16 12 28t28 12h1070q16 0 28 -12t12 -28v-197q0 -16 -11.5 -27.5 t-28.5 -11.5zM286 1678q0 146 156 146t156 -146t-156 -146t-156 146zM806 1678q0 146 156 146t156 -146t-156 -146t-156 146z" />
<glyph unicode="&#xcc;" horiz-adv-x="704" d="M189 1400h325q16 0 28 -12t12 -28v-1320q0 -16 -12 -28t-28 -12h-325q-16 0 -27.5 12t-11.5 28v1320q0 16 11.5 28t27.5 12zM253 1833l225 -260q17 -20 7 -42.5t-37 -22.5h-148q-49 0 -87 32l-293 239q-19 14 -10.5 41.5t35.5 27.5h260q36 0 48 -15z" />
<glyph unicode="&#xcd;" horiz-adv-x="704" d="M189 1400h325q16 0 28 -12t12 -28v-1320q0 -16 -12 -28t-28 -12h-325q-16 0 -27.5 12t-11.5 28v1320q0 16 11.5 28t27.5 12zM764 1778l-314 -256q-18 -14 -43 -14h-172q-26 0 -36.5 22t7.5 42l221 254q18 22 47 22h265q28 0 37.5 -26t-12.5 -44z" />
<glyph unicode="&#xce;" horiz-adv-x="704" d="M160 1400h325q17 0 28.5 -12t11.5 -28v-1320q0 -16 -11.5 -28t-28.5 -12h-325q-16 0 -27.5 12t-11.5 28v1320q0 16 11.5 28t27.5 12zM150 1848h288q20 0 31 -14l216 -263q17 -20 6.5 -41.5t-36.5 -21.5h-181q-17 0 -28 11l-152 153l-152 -153q-11 -11 -28 -11h-181 q-26 0 -36.5 21.5t6.5 41.5l216 263q11 14 31 14z" />
<glyph unicode="&#xcf;" horiz-adv-x="704" d="M189 1400h325q16 0 28 -12t12 -28v-1320q0 -16 -12 -28t-28 -12h-325q-16 0 -27.5 12t-11.5 28v1320q0 16 11.5 28t27.5 12zM-64 1678q0 146 156 146t156 -146t-156 -146t-156 146zM456 1678q0 146 156 146t156 -146t-156 -146t-156 146z" />
<glyph unicode="&#xd0;" horiz-adv-x="1662" d="M724 0h-524q-16 0 -28 12t-12 28v570h-99q-16 0 -27.5 11.5t-11.5 28.5v98q0 17 11.5 28.5t27.5 11.5h99v572q0 16 12 28t28 12h524q266 0 459 -77.5t301 -236t108 -386.5q0 -229 -108 -387.5t-301 -235.5t-459 -77zM1184 700q0 227 -117 325.5t-359 98.5h-144v-336h225 q16 0 27.5 -12t11.5 -28v-98q0 -16 -11.5 -28t-27.5 -12h-225v-334h144q243 0 359.5 98t116.5 326z" />
<glyph unicode="&#xd1;" horiz-adv-x="1754" d="M1119 32l-601 900v-892q0 -16 -12 -28t-28 -12h-299q-16 0 -27.5 12t-11.5 28v1320q0 16 11.5 28t27.5 12h394q40 0 62 -32l601 -900v892q0 16 12 28t28 12h299q16 0 27.5 -12t11.5 -28v-1320q0 -16 -11.5 -28t-27.5 -12h-394q-40 0 -62 32zM886 1563q-79 41 -121 41 q-34 0 -52 -10.5t-25 -36.5q-2 -12 -11 -20.5t-21 -8.5h-130q-18 0 -29 8t-10 24q5 125 62 198t160 73q79 0 158 -40q79 -41 121 -41q34 0 52 10.5t25 36.5q2 12 11 20.5t21 8.5h130q18 0 29 -8t10 -24q-5 -125 -62 -198t-160 -73q-79 0 -158 40z" />
<glyph unicode="&#xd2;" horiz-adv-x="1732" d="M1662 700q0 -156 -52 -288t-150.5 -229.5t-250.5 -152t-343 -54.5t-343 54.5t-250.5 152t-150.5 229.5t-52 288t52 288t150.5 229.5t250.5 152t343 54.5t343 -54.5t250.5 -152t150.5 -229.5t52 -288zM478 700q0 -215 99.5 -329.5t288.5 -114.5t288.5 114.5t99.5 329.5 t-99.5 329.5t-288.5 114.5t-288.5 -114.5t-99.5 -329.5zM835 1833l225 -260q17 -20 7 -42.5t-37 -22.5h-148q-49 0 -87 32l-293 239q-19 14 -10.5 41.5t35.5 27.5h260q36 0 48 -15z" />
<glyph unicode="&#xd3;" horiz-adv-x="1732" d="M1662 700q0 -156 -52 -288t-150.5 -229.5t-250.5 -152t-343 -54.5t-343 54.5t-250.5 152t-150.5 229.5t-52 288t52 288t150.5 229.5t250.5 152t343 54.5t343 -54.5t250.5 -152t150.5 -229.5t52 -288zM478 700q0 -215 99.5 -329.5t288.5 -114.5t288.5 114.5t99.5 329.5 t-99.5 329.5t-288.5 114.5t-288.5 -114.5t-99.5 -329.5zM1210 1778l-314 -256q-18 -14 -43 -14h-172q-26 0 -36.5 22t7.5 42l221 254q18 22 47 22h265q28 0 37.5 -26t-12.5 -44z" />
<glyph unicode="&#xd4;" horiz-adv-x="1732" d="M1662 700q0 -156 -52 -288t-150.5 -229.5t-250.5 -152t-343 -54.5t-343 54.5t-250.5 152t-150.5 229.5t-52 288t52 288t150.5 229.5t250.5 152t343 54.5t343 -54.5t250.5 -152t150.5 -229.5t52 -288zM478 700q0 -215 99.5 -329.5t288.5 -114.5t288.5 114.5t99.5 329.5 t-99.5 329.5t-288.5 114.5t-288.5 -114.5t-99.5 -329.5zM693 1848h288q20 0 31 -14l216 -263q17 -20 6.5 -41.5t-36.5 -21.5h-181q-17 0 -28 11l-152 153l-152 -153q-11 -11 -28 -11h-181q-26 0 -36.5 21.5t6.5 41.5l216 263q11 14 31 14z" />
<glyph unicode="&#xd5;" horiz-adv-x="1732" d="M1662 700q0 -156 -52 -288t-150.5 -229.5t-250.5 -152t-343 -54.5t-343 54.5t-250.5 152t-150.5 229.5t-52 288t52 288t150.5 229.5t250.5 152t343 54.5t343 -54.5t250.5 -152t150.5 -229.5t52 -288zM478 700q0 -215 99.5 -329.5t288.5 -114.5t288.5 114.5t99.5 329.5 t-99.5 329.5t-288.5 114.5t-288.5 -114.5t-99.5 -329.5zM876 1563q-79 41 -121 41q-34 0 -52 -10.5t-25 -36.5q-2 -12 -11 -20.5t-21 -8.5h-130q-18 0 -29 8t-10 24q5 125 62 198t160 73q79 0 158 -40q79 -41 121 -41q34 0 52 10.5t25 36.5q2 12 11 20.5t21 8.5h130 q18 0 29 -8t10 -24q-5 -125 -62 -198t-160 -73q-79 0 -158 40z" />
<glyph unicode="&#xd6;" horiz-adv-x="1732" d="M1662 700q0 -156 -52 -288t-150.5 -229.5t-250.5 -152t-343 -54.5t-343 54.5t-250.5 152t-150.5 229.5t-52 288t52 288t150.5 229.5t250.5 152t343 54.5t343 -54.5t250.5 -152t150.5 -229.5t52 -288zM478 700q0 -215 99.5 -329.5t288.5 -114.5t288.5 114.5t99.5 329.5 t-99.5 329.5t-288.5 114.5t-288.5 -114.5t-99.5 -329.5zM450 1678q0 146 156 146t156 -146t-156 -146t-156 146zM970 1678q0 146 156 146t156 -146t-156 -146t-156 146z" />
<glyph unicode="&#xd7;" horiz-adv-x="1304" d="M639 853l304 272q11 11 27 10.5t26 -11.5l147 -145q11 -11 11 -28t-13 -28l-290 -260l289 -258q13 -11 13 -28t-11 -28l-145 -146q-10 -11 -26 -11.5t-27 10.5l-305 272l-305 -272q-11 -11 -27 -10.5t-26 11.5l-145 146q-11 11 -11 28t13 28l289 258l-290 260 q-13 11 -13 28t11 28l147 145q10 11 26 11.5t27 -10.5z" />
<glyph unicode="&#xd8;" horiz-adv-x="1732" d="M1662 700q0 -156 -52 -288t-150.5 -229.5t-250.5 -152t-343 -54.5q-196 0 -357 60l-150 -219q-12 -17 -42 -17h-86q-26 0 -37 20.5t3 41.5l168 246q-144 96 -219.5 249t-75.5 343q0 156 52 288t150.5 229.5t250.5 152t343 54.5q198 0 358 -61l150 220q12 17 42 17h86 q26 0 37 -20.5t-3 -41.5l-169 -247q144 -96 219.5 -249t75.5 -342zM478 700q0 -195 82 -307l489 715q-78 36 -183 36q-189 0 -288.5 -114.5t-99.5 -329.5zM1254 700q0 194 -82 306l-488 -715q78 -35 182 -35q189 0 288.5 114.5t99.5 329.5z" />
<glyph unicode="&#xd9;" horiz-adv-x="1736" d="M868 -24q165 0 298 37.5t229.5 110.5t148.5 187.5t52 262.5v786q0 16 -12 28t-28 12h-325q-16 0 -27.5 -12t-11.5 -28v-782q0 -159 -78 -235.5t-246 -76.5t-246 76.5t-78 235.5v782q0 16 -11.5 28t-27.5 12h-325q-16 0 -28 -12t-12 -28v-786q0 -148 52 -262.5 t148.5 -187.5t229.5 -110.5t298 -37.5zM771 1833l225 -260q17 -20 7 -42.5t-37 -22.5h-148q-49 0 -87 32l-293 239q-19 14 -10.5 41.5t35.5 27.5h260q36 0 48 -15z" />
<glyph unicode="&#xda;" horiz-adv-x="1736" d="M868 -24q165 0 298 37.5t229.5 110.5t148.5 187.5t52 262.5v786q0 16 -12 28t-28 12h-325q-16 0 -27.5 -12t-11.5 -28v-782q0 -159 -78 -235.5t-246 -76.5t-246 76.5t-78 235.5v782q0 16 -11.5 28t-27.5 12h-325q-16 0 -28 -12t-12 -28v-786q0 -148 52 -262.5 t148.5 -187.5t229.5 -110.5t298 -37.5zM1278 1778l-314 -256q-18 -14 -43 -14h-172q-26 0 -36.5 22t7.5 42l221 254q18 22 47 22h265q28 0 37.5 -26t-12.5 -44z" />
<glyph unicode="&#xdb;" horiz-adv-x="1736" d="M868 -24q-165 0 -298 37.5t-229.5 110.5t-148.5 187.5t-52 262.5v786q0 16 12 28t28 12h325q16 0 27.5 -12t11.5 -28v-782q0 -159 78 -235.5t246 -76.5t246 76.5t78 235.5v782q0 16 11.5 28t27.5 12h325q16 0 28 -12t12 -28v-786q0 -148 -52 -262.5t-148.5 -187.5 t-229.5 -110.5t-298 -37.5zM695 1848h288q20 0 31 -14l216 -263q17 -20 6.5 -41.5t-36.5 -21.5h-181q-17 0 -28 11l-152 153l-152 -153q-11 -11 -28 -11h-181q-26 0 -36.5 21.5t6.5 41.5l216 263q11 14 31 14z" />
<glyph unicode="&#xdc;" horiz-adv-x="1736" d="M868 -24q165 0 298 37.5t229.5 110.5t148.5 187.5t52 262.5v786q0 16 -12 28t-28 12h-325q-16 0 -27.5 -12t-11.5 -28v-782q0 -159 -78 -235.5t-246 -76.5t-246 76.5t-78 235.5v782q0 16 -11.5 28t-27.5 12h-325q-16 0 -28 -12t-12 -28v-786q0 -148 52 -262.5 t148.5 -187.5t229.5 -110.5t298 -37.5zM452 1678q0 146 156 146t156 -146t-156 -146t-156 146zM972 1678q0 146 156 146t156 -146t-156 -146t-156 146z" />
<glyph unicode="&#xdd;" horiz-adv-x="1720" d="M995 0h-324q-17 0 -28.5 12t-11.5 28v508l-580 787q-16 21 -5 43t37 22h334q27 0 43 -22l373 -532l373 532q16 22 43 22h334q26 0 37 -22t-5 -43l-580 -787v-508q0 -16 -11.5 -28t-28.5 -12zM1224 1778l-314 -256q-18 -14 -43 -14h-172q-26 0 -36.5 22t7.5 42l221 254 q18 22 47 22h265q28 0 37.5 -26t-12.5 -44z" />
<glyph unicode="&#xde;" horiz-adv-x="1474" d="M1420 708q0 -233 -176.5 -352.5t-492.5 -119.5h-207v-196q0 -16 -11.5 -28t-27.5 -12h-326q-16 0 -27.5 12t-11.5 28v1320q0 16 11.5 28t27.5 12h326q16 0 27.5 -12t11.5 -28v-180h207q317 0 493 -119.5t176 -352.5zM1012 708q0 109 -74.5 154.5t-227.5 45.5h-166v-400 h166q153 0 227.5 46t74.5 154z" />
<glyph unicode="&#xdf;" horiz-adv-x="1552" d="M140 39v807q0 293 163 435.5t505 142.5q283 0 449.5 -109.5t166.5 -278.5q0 -112 -61 -193.5t-183 -122.5q146 -31 227 -122t81 -222q0 -191 -139 -295.5t-411 -104.5q-165 0 -275 32q-12 4 -20.5 16.5t-7.5 25.5l16 197q1 20 16.5 29.5t34.5 3.5q78 -26 170 -26 q105 0 158.5 37t53.5 107q0 78 -75 125.5t-230 53.5q-15 1 -26 13t-11 27v199q0 15 11 26.5t26 12.5q241 11 241 161q0 59 -62.5 94.5t-163.5 35.5q-134 0 -192 -60.5t-58 -193.5v-853q0 -16 -11.5 -27.5t-27.5 -11.5h-326q-16 0 -27.5 11.5t-11.5 27.5z" />
<glyph unicode="&#xe0;" horiz-adv-x="1312" d="M475 -24q-189 0 -305 86.5t-116 240.5q0 170 135.5 265.5t402.5 95.5h240v32q0 70 -49 97t-190 27q-192 0 -355 -57q-18 -6 -34 3.5t-18 28.5l-20 160q-2 13 6 25t21 16q203 64 461 64q294 0 421 -94.5t127 -305.5v-621q0 -16 -11.5 -27.5t-27.5 -11.5h-292 q-16 0 -27.5 11t-11.5 27v47q-77 -61 -161.5 -85t-195.5 -24zM593 204q162 0 239 74v158h-230q-210 0 -210 -122q0 -59 51 -84.5t150 -25.5zM615 1485l225 -260q17 -20 7 -42.5t-37 -22.5h-148q-49 0 -87 32l-293 239q-19 14 -10.5 41.5t35.5 27.5h260q36 0 48 -15z" />
<glyph unicode="&#xe1;" horiz-adv-x="1312" d="M475 -24q-189 0 -305 86.5t-116 240.5q0 170 135.5 265.5t402.5 95.5h240v32q0 70 -49 97t-190 27q-192 0 -355 -57q-18 -6 -34 3.5t-18 28.5l-20 160q-2 13 6 25t21 16q203 64 461 64q294 0 421 -94.5t127 -305.5v-621q0 -16 -11.5 -27.5t-27.5 -11.5h-292 q-16 0 -27.5 11t-11.5 27v47q-77 -61 -161.5 -85t-195.5 -24zM593 204q162 0 239 74v158h-230q-210 0 -210 -122q0 -59 51 -84.5t150 -25.5zM980 1430l-314 -256q-18 -14 -43 -14h-172q-26 0 -36.5 22t7.5 42l221 254q18 22 47 22h265q28 0 37.5 -26t-12.5 -44z" />
<glyph unicode="&#xe2;" horiz-adv-x="1312" d="M475 -24q-189 0 -305 86.5t-116 240.5q0 170 135.5 265.5t402.5 95.5h240v32q0 70 -49 97t-190 27q-192 0 -355 -57q-18 -6 -34 3.5t-18 28.5l-20 160q-2 13 6 25t21 16q203 64 461 64q294 0 421 -94.5t127 -305.5v-621q0 -16 -11.5 -27.5t-27.5 -11.5h-292 q-16 0 -27.5 11t-11.5 27v47q-77 -61 -161.5 -85t-195.5 -24zM593 204q162 0 239 74v158h-230q-210 0 -210 -122q0 -59 51 -84.5t150 -25.5zM481 1500h288q20 0 31 -14l216 -263q17 -20 6.5 -41.5t-36.5 -21.5h-181q-17 0 -28 11l-152 153l-152 -153q-11 -11 -28 -11h-181 q-26 0 -36.5 21.5t6.5 41.5l216 263q11 14 31 14z" />
<glyph unicode="&#xe3;" horiz-adv-x="1312" d="M475 -24q-189 0 -305 86.5t-116 240.5q0 170 135.5 265.5t402.5 95.5h240v32q0 70 -49 97t-190 27q-192 0 -355 -57q-18 -6 -34 3.5t-18 28.5l-20 160q-2 13 6 25t21 16q203 64 461 64q294 0 421 -94.5t127 -305.5v-621q0 -16 -11.5 -27.5t-27.5 -11.5h-292 q-16 0 -27.5 11t-11.5 27v47q-77 -61 -161.5 -85t-195.5 -24zM593 204q162 0 239 74v158h-230q-210 0 -210 -122q0 -59 51 -84.5t150 -25.5zM668 1213q-79 41 -121 41q-34 0 -52 -10.5t-25 -36.5q-2 -12 -11 -20.5t-21 -8.5h-130q-18 0 -29 8t-10 24q5 125 62 198t160 73 q79 0 158 -40q79 -41 121 -41q34 0 52 10.5t25 36.5q2 12 11 20.5t21 8.5h130q18 0 29 -8t10 -24q-5 -125 -62 -198t-160 -73q-79 0 -158 40z" />
<glyph unicode="&#xe4;" horiz-adv-x="1312" d="M475 -24q-189 0 -305 86.5t-116 240.5q0 170 135.5 265.5t402.5 95.5h240v32q0 70 -49 97t-190 27q-192 0 -355 -57q-18 -6 -34 3.5t-18 28.5l-20 160q-2 13 6 25t21 16q203 64 461 64q294 0 421 -94.5t127 -305.5v-621q0 -16 -11.5 -27.5t-27.5 -11.5h-292 q-16 0 -27.5 11t-11.5 27v47q-77 -61 -161.5 -85t-195.5 -24zM593 204q162 0 239 74v158h-230q-210 0 -210 -122q0 -59 51 -84.5t150 -25.5zM236 1330q0 146 156 146t156 -146t-156 -146t-156 146zM756 1330q0 146 156 146t156 -146t-156 -146t-156 146z" />
<glyph unicode="&#xe5;" horiz-adv-x="1312" d="M475 -24q-189 0 -305 86.5t-116 240.5q0 170 135.5 265.5t402.5 95.5h240v32q0 70 -49 97t-190 27q-192 0 -355 -57q-18 -6 -34 3.5t-18 28.5l-20 160q-2 13 6 25t21 16q203 64 461 64q294 0 421 -94.5t127 -305.5v-621q0 -16 -11.5 -27.5t-27.5 -11.5h-292 q-16 0 -27.5 11t-11.5 27v47q-77 -61 -161.5 -85t-195.5 -24zM593 204q162 0 239 74v158h-230q-210 0 -210 -122q0 -59 51 -84.5t150 -25.5zM390 1340q0 105 74.5 177.5t185.5 72.5t185.5 -72.5t74.5 -177.5t-74.5 -177.5t-185.5 -72.5t-185.5 72.5t-74.5 177.5zM568 1340 q0 -37 23.5 -60.5t58.5 -23.5t58.5 23.5t23.5 60.5t-23.5 60.5t-58.5 23.5t-58.5 -23.5t-23.5 -60.5z" />
<glyph unicode="&#xe6;" horiz-adv-x="2052" d="M566 198q194 0 266 112v126h-218q-126 0 -183 -29t-57 -95q0 -114 192 -114zM1172 628h478q-6 99 -69 152.5t-171 53.5q-107 0 -169 -53.5t-69 -152.5zM576 826q-182 0 -348 -58q-18 -7 -33 3.5t-18 30.5l-23 150q-4 31 26 41q190 67 416 67q141 0 252 -40.5t172 -121.5 q68 78 170 120t226 42q141 0 252 -42.5t181 -118t106.5 -176t36.5 -219.5q0 -29 -3 -59q-2 -16 -12.5 -27.5t-25.5 -11.5h-779q18 -103 104 -155.5t252 -52.5q168 0 284 43q19 7 34 -3t17 -30l15 -140q3 -30 -26 -40q-153 -52 -364 -52q-329 0 -474 178q-163 -178 -488 -178 q-220 0 -346 84.5t-126 249.5q0 168 134 261t390 93h254q-6 89 -58.5 125.5t-197.5 36.5z" />
<glyph unicode="&#xe7;" horiz-adv-x="1178" d="M462 -430v74q0 18 13 30t31 9q33 -5 75 -5q131 0 131 55q0 62 -168 74q-24 1 -33.5 20.5t3.5 39.5l75 116q1 2 5 6q-253 37 -391.5 174t-138.5 355q0 254 184 398t512 144q179 0 319 -39q14 -4 23.5 -17t8.5 -26l-16 -159q-2 -18 -18 -27t-34 -4q-98 30 -227 30 q-170 0 -267 -78t-97 -222q0 -146 100 -223t282 -77q134 0 221 30q19 7 34 -3t17 -30l17 -158q2 -13 -5 -24.5t-19 -15.5q-104 -32 -261 -39l-58 -92q77 -11 123.5 -56.5t46.5 -104.5q0 -201 -341 -201q-58 0 -114 7q-14 2 -23.5 13.5t-9.5 25.5z" />
<glyph unicode="&#xe8;" horiz-adv-x="1330" d="M1268 441q-1 -15 -11.5 -27t-25.5 -12h-807q10 -101 100.5 -146.5t271.5 -45.5q161 0 301 45q17 5 28.5 -5.5t13.5 -30.5l18 -152q1 -12 -9.5 -25.5t-23.5 -17.5q-157 -48 -370 -48q-173 0 -306.5 40.5t-216.5 114t-125 171.5t-42 218q0 247 162.5 393.5t437.5 146.5 q145 0 260.5 -41t191 -114.5t115 -175t39.5 -223.5q0 -25 -2 -65zM666 826q-112 0 -174 -51.5t-68 -144.5h486q-6 93 -68 144.5t-176 51.5zM647 1485l225 -260q17 -20 7 -42.5t-37 -22.5h-148q-49 0 -87 32l-293 239q-19 14 -10.5 41.5t35.5 27.5h260q36 0 48 -15z" />
<glyph unicode="&#xe9;" horiz-adv-x="1330" d="M1268 441q-1 -15 -11.5 -27t-25.5 -12h-807q10 -101 100.5 -146.5t271.5 -45.5q161 0 301 45q17 5 28.5 -5.5t13.5 -30.5l18 -152q1 -12 -9.5 -25.5t-23.5 -17.5q-157 -48 -370 -48q-173 0 -306.5 40.5t-216.5 114t-125 171.5t-42 218q0 247 162.5 393.5t437.5 146.5 q145 0 260.5 -41t191 -114.5t115 -175t39.5 -223.5q0 -25 -2 -65zM666 826q-112 0 -174 -51.5t-68 -144.5h486q-6 93 -68 144.5t-176 51.5zM966 1430l-314 -256q-18 -14 -43 -14h-172q-26 0 -36.5 22t7.5 42l221 254q18 22 47 22h265q28 0 37.5 -26t-12.5 -44z" />
<glyph unicode="&#xea;" horiz-adv-x="1330" d="M1268 441q-1 -15 -11.5 -27t-25.5 -12h-807q10 -101 100.5 -146.5t271.5 -45.5q161 0 301 45q17 5 28.5 -5.5t13.5 -30.5l18 -152q1 -12 -9.5 -25.5t-23.5 -17.5q-157 -48 -370 -48q-173 0 -306.5 40.5t-216.5 114t-125 171.5t-42 218q0 247 162.5 393.5t437.5 146.5 q145 0 260.5 -41t191 -114.5t115 -175t39.5 -223.5q0 -25 -2 -65zM666 826q-112 0 -174 -51.5t-68 -144.5h486q-6 93 -68 144.5t-176 51.5zM493 1500h288q20 0 31 -14l216 -263q17 -20 6.5 -41.5t-36.5 -21.5h-181q-17 0 -28 11l-152 153l-152 -153q-11 -11 -28 -11h-181 q-26 0 -36.5 21.5t6.5 41.5l216 263q11 14 31 14z" />
<glyph unicode="&#xeb;" horiz-adv-x="1330" d="M1268 441q-1 -15 -11.5 -27t-25.5 -12h-807q10 -101 100.5 -146.5t271.5 -45.5q161 0 301 45q17 5 28.5 -5.5t13.5 -30.5l18 -152q1 -12 -9.5 -25.5t-23.5 -17.5q-157 -48 -370 -48q-173 0 -306.5 40.5t-216.5 114t-125 171.5t-42 218q0 247 162.5 393.5t437.5 146.5 q145 0 260.5 -41t191 -114.5t115 -175t39.5 -223.5q0 -25 -2 -65zM666 826q-112 0 -174 -51.5t-68 -144.5h486q-6 93 -68 144.5t-176 51.5zM250 1330q0 146 156 146t156 -146t-156 -146t-156 146zM770 1330q0 146 156 146t156 -146t-156 -146t-156 146z" />
<glyph unicode="&#xec;" horiz-adv-x="632" d="M124 39v958q0 16 11.5 27.5t27.5 11.5h306q16 0 27.5 -11.5t11.5 -27.5v-958q0 -16 -11.5 -27.5t-27.5 -11.5h-306q-16 0 -27.5 11.5t-11.5 27.5zM207 1485l225 -260q17 -20 7 -42.5t-37 -22.5h-148q-49 0 -87 32l-293 239q-19 14 -10.5 41.5t35.5 27.5h260q36 0 48 -15z " />
<glyph unicode="&#xed;" horiz-adv-x="632" d="M124 39v958q0 16 11.5 27.5t27.5 11.5h306q16 0 27.5 -11.5t11.5 -27.5v-958q0 -16 -11.5 -27.5t-27.5 -11.5h-306q-16 0 -27.5 11.5t-11.5 27.5zM738 1430l-314 -256q-17 -14 -43 -14h-172q-26 0 -36.5 22t7.5 42l221 254q18 22 47 22h265q28 0 37.5 -26t-12.5 -44z" />
<glyph unicode="&#xee;" horiz-adv-x="632" d="M124 39v958q0 16 11.5 27.5t27.5 11.5h306q16 0 27.5 -11.5t11.5 -27.5v-958q0 -16 -11.5 -27.5t-27.5 -11.5h-306q-16 0 -27.5 11.5t-11.5 27.5zM143 1500h288q20 0 31 -14l216 -263q17 -20 6.5 -41.5t-36.5 -21.5h-181q-17 0 -28 11l-152 153l-152 -153 q-11 -11 -28 -11h-181q-26 0 -36.5 21.5t6.5 41.5l216 263q11 14 31 14z" />
<glyph unicode="&#xef;" horiz-adv-x="632" d="M124 39v958q0 16 11.5 27.5t27.5 11.5h306q16 0 27.5 -11.5t11.5 -27.5v-958q0 -16 -11.5 -27.5t-27.5 -11.5h-306q-16 0 -27.5 11.5t-11.5 27.5zM-100 1330q0 146 156 146t156 -146t-156 -146t-156 146zM420 1330q0 146 156 146t156 -146t-156 -146t-156 146z" />
<glyph unicode="&#xf0;" horiz-adv-x="1354" d="M654 218q48 0 86.5 12.5t72.5 44t57 80.5t36.5 126t13.5 177q-93 90 -242 90q-114 0 -178 -65t-64 -197q0 -129 58 -198.5t160 -69.5zM1164 1237l-136 -39q262 -214 262 -560q0 -310 -164.5 -486t-473.5 -176q-167 0 -298.5 57.5t-210.5 175t-79 277.5q0 118 40.5 212.5 t111.5 153.5t162.5 90.5t197.5 31.5q198 0 320 -98q-33 148 -180 228l-345 -96q-14 -4 -27.5 3t-18.5 21l-25 68q-6 16 2 30.5t25 19.5l175 47q-26 7 -126 26q-14 3 -23.5 15t-8.5 26l18 149q2 18 15 28t30 7q263 -44 458 -142l250 72q15 4 29 -3t19 -22l24 -65 q6 -17 0 -31.5t-23 -19.5z" />
<glyph unicode="&#xf1;" horiz-adv-x="1436" d="M1330 564v-525q0 -16 -11 -27.5t-27 -11.5h-307q-16 0 -27.5 11.5t-11.5 27.5v507q0 145 -56.5 207.5t-175.5 62.5q-135 0 -216 -72v-705q0 -16 -11.5 -27.5t-27.5 -11.5h-306q-16 0 -27.5 11.5t-11.5 27.5v958q0 16 11.5 27.5t27.5 11.5h306q16 0 27.5 -11.5t11.5 -27.5 v-47q136 110 338 110q245 0 369.5 -124.5t124.5 -371.5zM732 1213q-79 41 -121 41q-34 0 -52 -10.5t-25 -36.5q-2 -12 -11 -20.5t-21 -8.5h-130q-18 0 -29 8t-10 24q5 125 62 198t160 73q79 0 158 -40q79 -41 121 -41q34 0 52 10.5t25 36.5q2 12 11 20.5t21 8.5h130 q18 0 29 -8t10 -24q-5 -125 -62 -198t-160 -73q-79 0 -158 40z" />
<glyph unicode="&#xf2;" horiz-adv-x="1416" d="M64 518q0 242 176 392t468 150t468 -150t176 -392t-176 -392t-468 -150t-468 150t-176 392zM452 518q0 -149 67.5 -223.5t188.5 -74.5t188.5 74.5t67.5 223.5t-67.5 223.5t-188.5 74.5t-188.5 -74.5t-67.5 -223.5zM691 1485l225 -260q17 -20 7 -42.5t-37 -22.5h-148 q-49 0 -87 32l-293 239q-19 14 -10.5 41.5t35.5 27.5h260q36 0 48 -15z" />
<glyph unicode="&#xf3;" horiz-adv-x="1416" d="M64 518q0 242 176 392t468 150t468 -150t176 -392t-176 -392t-468 -150t-468 150t-176 392zM452 518q0 -149 67.5 -223.5t188.5 -74.5t188.5 74.5t67.5 223.5t-67.5 223.5t-188.5 74.5t-188.5 -74.5t-67.5 -223.5zM1038 1430l-314 -256q-18 -14 -43 -14h-172 q-26 0 -36.5 22t7.5 42l221 254q18 22 47 22h265q28 0 37.5 -26t-12.5 -44z" />
<glyph unicode="&#xf4;" horiz-adv-x="1416" d="M64 518q0 242 176 392t468 150t468 -150t176 -392t-176 -392t-468 -150t-468 150t-176 392zM452 518q0 -149 67.5 -223.5t188.5 -74.5t188.5 74.5t67.5 223.5t-67.5 223.5t-188.5 74.5t-188.5 -74.5t-67.5 -223.5zM535 1500h288q20 0 31 -14l216 -263q17 -20 6.5 -41.5 t-36.5 -21.5h-181q-17 0 -28 11l-152 153l-152 -153q-11 -11 -28 -11h-181q-26 0 -36.5 21.5t6.5 41.5l216 263q11 14 31 14z" />
<glyph unicode="&#xf5;" horiz-adv-x="1416" d="M64 518q0 242 176 392t468 150t468 -150t176 -392t-176 -392t-468 -150t-468 150t-176 392zM452 518q0 -149 67.5 -223.5t188.5 -74.5t188.5 74.5t67.5 223.5t-67.5 223.5t-188.5 74.5t-188.5 -74.5t-67.5 -223.5zM718 1213q-79 41 -121 41q-34 0 -52 -10.5t-25 -36.5 q-2 -12 -11 -20.5t-21 -8.5h-130q-18 0 -29 8t-10 24q5 125 62 198t160 73q79 0 158 -40q79 -41 121 -41q34 0 52 10.5t25 36.5q2 12 11 20.5t21 8.5h130q18 0 29 -8t10 -24q-5 -125 -62 -198t-160 -73q-79 0 -158 40z" />
<glyph unicode="&#xf6;" horiz-adv-x="1416" d="M64 518q0 242 176 392t468 150t468 -150t176 -392t-176 -392t-468 -150t-468 150t-176 392zM452 518q0 -149 67.5 -223.5t188.5 -74.5t188.5 74.5t67.5 223.5t-67.5 223.5t-188.5 74.5t-188.5 -74.5t-67.5 -223.5zM292 1330q0 146 156 146t156 -146t-156 -146t-156 146z M812 1330q0 146 156 146t156 -146t-156 -146t-156 146z" />
<glyph unicode="&#xf7;" horiz-adv-x="1304" d="M832 1098q0 -180 -180 -180t-180 180t180 180t180 -180zM832 230q0 -180 -180 -180t-180 180t180 180t180 -180zM139 790h1026q16 0 27.5 -11.5t11.5 -27.5v-174q0 -16 -11.5 -27.5t-27.5 -11.5h-1026q-16 0 -27.5 11.5t-11.5 27.5v174q0 16 11.5 27.5t27.5 11.5z" />
<glyph unicode="&#xf8;" horiz-adv-x="1416" d="M64 518q0 242 176 392t468 150q141 0 263 -39l144 208q19 27 49 27h66q25 0 35.5 -20t-3.5 -41l-161 -232q120 -72 185.5 -186.5t65.5 -258.5q0 -242 -176 -392t-468 -150q-142 0 -264 39l-144 -208q-19 -27 -49 -27h-66q-25 0 -35.5 20t3.5 41l161 232 q-120 72 -185 186.5t-65 258.5zM964 518q0 114 -42 187l-323 -466q47 -19 109 -19q121 0 188.5 74.5t67.5 223.5zM452 518q0 -116 41 -186l322 465q-45 19 -107 19q-121 0 -188.5 -74.5t-67.5 -223.5z" />
<glyph unicode="&#xf9;" horiz-adv-x="1436" d="M106 472v525q0 16 11 27.5t27 11.5h307q16 0 27.5 -11.5t11.5 -27.5v-507q0 -145 56.5 -207.5t175.5 -62.5q135 0 216 72v705q0 16 11.5 27.5t27.5 11.5h306q16 0 27.5 -11.5t11.5 -27.5v-958q0 -16 -11.5 -27.5t-27.5 -11.5h-306q-16 0 -27.5 11.5t-11.5 27.5v47 q-136 -110 -338 -110q-245 0 -369.5 124.5t-124.5 371.5zM661 1485l225 -260q17 -20 7 -42.5t-37 -22.5h-148q-49 0 -87 32l-293 239q-19 14 -10.5 41.5t35.5 27.5h260q36 0 48 -15z" />
<glyph unicode="&#xfa;" horiz-adv-x="1436" d="M106 472v525q0 16 11 27.5t27 11.5h307q16 0 27.5 -11.5t11.5 -27.5v-507q0 -145 56.5 -207.5t175.5 -62.5q135 0 216 72v705q0 16 11.5 27.5t27.5 11.5h306q16 0 27.5 -11.5t11.5 -27.5v-958q0 -16 -11.5 -27.5t-27.5 -11.5h-306q-16 0 -27.5 11.5t-11.5 27.5v47 q-136 -110 -338 -110q-245 0 -369.5 124.5t-124.5 371.5zM1052 1430l-314 -256q-18 -14 -43 -14h-172q-26 0 -36.5 22t7.5 42l221 254q18 22 47 22h265q28 0 37.5 -26t-12.5 -44z" />
<glyph unicode="&#xfb;" horiz-adv-x="1436" d="M106 472v525q0 16 11 27.5t27 11.5h307q16 0 27.5 -11.5t11.5 -27.5v-507q0 -145 56.5 -207.5t175.5 -62.5q135 0 216 72v705q0 16 11.5 27.5t27.5 11.5h306q16 0 27.5 -11.5t11.5 -27.5v-958q0 -16 -11.5 -27.5t-27.5 -11.5h-306q-16 0 -27.5 11.5t-11.5 27.5v47 q-136 -110 -338 -110q-245 0 -369.5 124.5t-124.5 371.5zM541 1500h288q20 0 31 -14l216 -263q17 -20 6.5 -41.5t-36.5 -21.5h-181q-17 0 -28 11l-152 153l-152 -153q-11 -11 -28 -11h-181q-26 0 -36.5 21.5t6.5 41.5l216 263q11 14 31 14z" />
<glyph unicode="&#xfc;" horiz-adv-x="1436" d="M106 472v525q0 16 11 27.5t27 11.5h307q16 0 27.5 -11.5t11.5 -27.5v-507q0 -145 56.5 -207.5t175.5 -62.5q135 0 216 72v705q0 16 11.5 27.5t27.5 11.5h306q16 0 27.5 -11.5t11.5 -27.5v-958q0 -16 -11.5 -27.5t-27.5 -11.5h-306q-16 0 -27.5 11.5t-11.5 27.5v47 q-136 -110 -338 -110q-245 0 -369.5 124.5t-124.5 371.5zM298 1330q0 146 156 146t156 -146t-156 -146t-156 146zM818 1330q0 146 156 146t156 -146t-156 -146t-156 146z" />
<glyph unicode="&#xfd;" horiz-adv-x="1394" d="M413 1013l280 -646l262 645q4 9 15 16.5t21 7.5h311q22 0 33.5 -17t2.5 -38l-574 -1343q-4 -9 -15 -16.5t-21 -7.5h-318q-22 0 -33 17t-3 37l135 332l-475 980q-10 21 1 38.5t34 17.5h308q10 0 21 -7t15 -16zM1058 1430l-314 -256q-18 -14 -43 -14h-172q-26 0 -36.5 22 t7.5 42l221 254q18 22 47 22h265q28 0 37.5 -26t-12.5 -44z" />
<glyph unicode="&#xfe;" horiz-adv-x="1420" d="M498 86v-433q0 -16 -11.5 -27.5t-27.5 -11.5h-307q-16 0 -27 11.5t-11 27.5v1768q0 16 11 27.5t27 11.5h307q16 0 27.5 -11.5t11.5 -27.5v-471q129 110 342 110q106 0 199.5 -36.5t164 -104t111.5 -171.5t41 -230t-41 -230t-111.5 -171.5t-164 -104t-199.5 -36.5 q-213 0 -342 110zM968 518q0 298 -266 298q-124 0 -204 -68v-460q80 -68 204 -68q266 0 266 298z" />
<glyph unicode="&#xff;" horiz-adv-x="1394" d="M413 1013l280 -646l262 645q4 9 15 16.5t21 7.5h311q22 0 33.5 -17t2.5 -38l-574 -1343q-4 -9 -15 -16.5t-21 -7.5h-318q-22 0 -33 17t-3 37l135 332l-475 980q-10 21 1 38.5t34 17.5h308q10 0 21 -7t15 -16zM278 1330q0 146 156 146t156 -146t-156 -146t-156 146z M798 1330q0 146 156 146t156 -146t-156 -146t-156 146z" />
<glyph unicode="&#x152;" horiz-adv-x="2164" d="M2045 0h-1022q-474 0 -713.5 182.5t-239.5 517.5q0 334 239.5 517t713.5 183h1005q16 0 28 -12t12 -28v-197q0 -16 -11.5 -27.5t-28.5 -11.5h-600v-274h545q16 0 27.5 -11.5t11.5 -28.5v-197q0 -17 -11 -28t-28 -11h-545v-298h617q16 0 27.5 -11.5t11.5 -27.5v-197 q0 -16 -11.5 -28t-27.5 -12zM474 700q0 -412 523 -412h40v824h-40q-523 0 -523 -412z" />
<glyph unicode="&#x153;" horiz-adv-x="2168" d="M676 218q116 0 177 74.5t61 225.5t-61 225.5t-177 74.5t-177 -74.5t-61 -225.5t61 -225.5t177 -74.5zM1528 834q-108 0 -170 -53.5t-68 -152.5h478q-6 99 -69 152.5t-171 53.5zM1970 30q-156 -54 -380 -54q-168 0 -296 49t-192 141q-65 -92 -182.5 -141t-267.5 -49 q-280 0 -434 146.5t-154 395.5q0 248 154 395t434 147q140 0 261.5 -51t188.5 -141q66 92 175 142t253 50q274 0 426 -150t152 -404q0 -23 -2 -63q-1 -15 -12.5 -26t-26.5 -11h-777q15 -101 104 -154.5t244 -53.5q181 0 296 44q18 7 30 -3.5t14 -31.5l16 -135 q2 -13 -5 -25.5t-19 -16.5z" />
<glyph unicode="&#x178;" horiz-adv-x="1720" d="M995 0h-324q-17 0 -28.5 12t-11.5 28v508l-580 787q-16 21 -5 43t37 22h334q27 0 43 -22l373 -532l373 532q16 22 43 22h334q26 0 37 -22t-5 -43l-580 -787v-508q0 -16 -11.5 -28t-28.5 -12zM444 1678q0 146 156 146t156 -146t-156 -146t-156 146zM964 1678 q0 146 156 146t156 -146t-156 -146t-156 146z" />
<glyph unicode="&#x2c6;" horiz-adv-x="980" d="M317 1460h288q20 0 31 -14l216 -263q17 -20 6.5 -41.5t-36.5 -21.5h-181q-17 0 -28 11l-152 153l-152 -153q-11 -11 -28 -11h-181q-26 0 -36.5 21.5t6.5 41.5l216 263q11 14 31 14z" />
<glyph unicode="&#x2dc;" horiz-adv-x="980" d="M498 1175q-79 41 -121 41q-34 0 -52 -10.5t-25 -36.5q-2 -12 -11 -20.5t-21 -8.5h-130q-18 0 -29 8t-10 24q5 125 62 198t160 73q79 0 158 -40q79 -41 121 -41q34 0 52 10.5t25 36.5q2 12 11 20.5t21 8.5h130q18 0 29 -8t10 -24q-5 -125 -62 -198t-160 -73q-79 0 -158 40 z" />
<glyph unicode="&#x2000;" horiz-adv-x="964" />
<glyph unicode="&#x2001;" horiz-adv-x="1928" />
<glyph unicode="&#x2002;" horiz-adv-x="964" />
<glyph unicode="&#x2003;" horiz-adv-x="1928" />
<glyph unicode="&#x2004;" horiz-adv-x="642" />
<glyph unicode="&#x2005;" horiz-adv-x="482" />
<glyph unicode="&#x2006;" horiz-adv-x="321" />
<glyph unicode="&#x2007;" horiz-adv-x="321" />
<glyph unicode="&#x2008;" horiz-adv-x="241" />
<glyph unicode="&#x2009;" horiz-adv-x="385" />
<glyph unicode="&#x200a;" horiz-adv-x="107" />
<glyph unicode="&#x2010;" horiz-adv-x="848" d="M709 528h-570q-16 0 -27.5 11.5t-11.5 27.5v194q0 17 11 28t28 11h570q17 0 28 -11t11 -28v-194q0 -16 -11.5 -27.5t-27.5 -11.5z" />
<glyph unicode="&#x2011;" horiz-adv-x="848" d="M709 528h-570q-16 0 -27.5 11.5t-11.5 27.5v194q0 17 11 28t28 11h570q17 0 28 -11t11 -28v-194q0 -16 -11.5 -27.5t-27.5 -11.5z" />
<glyph unicode="&#x2012;" horiz-adv-x="848" d="M709 528h-570q-16 0 -27.5 11.5t-11.5 27.5v194q0 17 11 28t28 11h570q17 0 28 -11t11 -28v-194q0 -16 -11.5 -27.5t-27.5 -11.5z" />
<glyph unicode="&#x2013;" horiz-adv-x="1000" d="M961 538h-922q-16 0 -27.5 11.5t-11.5 27.5v174q0 16 11.5 27.5t27.5 11.5h922q16 0 27.5 -11.5t11.5 -27.5v-174q0 -16 -11.5 -27.5t-27.5 -11.5z" />
<glyph unicode="&#x2014;" horiz-adv-x="2000" d="M1961 538h-1922q-16 0 -27.5 11.5t-11.5 27.5v174q0 16 11.5 27.5t27.5 11.5h1922q16 0 27.5 -11.5t11.5 -27.5v-174q0 -16 -11.5 -27.5t-27.5 -11.5z" />
<glyph unicode="&#x2018;" horiz-adv-x="720" d="M437 1529q29 16 48 -14l42 -62q19 -29 -6 -48q-44 -32 -74 -75.5t-37 -89.5q144 -21 144 -176q0 -180 -194 -180t-194 180q0 316 271 465z" />
<glyph unicode="&#x2019;" horiz-adv-x="720" d="M283 899q-29 -16 -48 14l-42 62q-19 29 6 48q44 32 74 75.5t37 89.5q-144 21 -144 176q0 180 194 180t194 -180q0 -316 -271 -465z" />
<glyph unicode="&#x201a;" horiz-adv-x="720" d="M283 -309q-29 -16 -48 14l-42 62q-19 29 6 48q44 32 74 75.5t37 89.5q-144 21 -144 176q0 180 194 180t194 -180q0 -316 -271 -465z" />
<glyph unicode="&#x201c;" horiz-adv-x="1226" d="M437 1529q29 16 48 -14l42 -62q19 -29 -6 -48q-44 -32 -74 -75.5t-37 -89.5q144 -21 144 -176q0 -180 -194 -180t-194 180q0 316 271 465zM943 1529q29 16 48 -14l42 -62q19 -29 -6 -48q-44 -32 -74 -75.5t-37 -89.5q144 -21 144 -176q0 -180 -194 -180t-194 180 q0 316 271 465z" />
<glyph unicode="&#x201d;" horiz-adv-x="1226" d="M283 899q-29 -16 -48 14l-42 62q-19 29 6 48q44 32 74 75.5t37 89.5q-144 21 -144 176q0 180 194 180t194 -180q0 -316 -271 -465zM789 899q-29 -16 -48 14l-42 62q-19 29 6 48q44 32 74 75.5t37 89.5q-144 21 -144 176q0 180 194 180t194 -180q0 -316 -271 -465z" />
<glyph unicode="&#x201e;" horiz-adv-x="1226" d="M283 -309q-29 -16 -48 14l-42 62q-19 29 6 48q44 32 74 75.5t37 89.5q-144 21 -144 176q0 180 194 180t194 -180q0 -316 -271 -465zM789 -309q-29 -16 -48 14l-42 62q-19 29 6 48q44 32 74 75.5t37 89.5q-144 21 -144 176q0 180 194 180t194 -180q0 -316 -271 -465z" />
<glyph unicode="&#x2022;" horiz-adv-x="1012" d="M200 664q0 138 78.5 213t227.5 75t227.5 -75t78.5 -213t-78.5 -213t-227.5 -75t-227.5 75t-78.5 213z" />
<glyph unicode="&#x2026;" horiz-adv-x="2160" d="M166 156q0 180 194 180t194 -180t-194 -180t-194 180zM886 156q0 180 194 180t194 -180t-194 -180t-194 180zM1606 156q0 180 194 180t194 -180t-194 -180t-194 180z" />
<glyph unicode="&#x202f;" horiz-adv-x="385" />
<glyph unicode="&#x2039;" horiz-adv-x="664" d="M120 545v158q0 18 13 29l365 337q20 19 43 9.5t23 -36.5v-184q0 -27 -19 -43l-211 -191l211 -191q19 -16 19 -43v-184q0 -27 -23 -36.5t-43 9.5l-365 337q-13 11 -13 29z" />
<glyph unicode="&#x203a;" horiz-adv-x="664" d="M544 703v-158q0 -18 -13 -29l-365 -337q-20 -19 -43 -9.5t-23 36.5v184q0 27 19 43l211 191l-211 191q-19 16 -19 43v184q0 27 23 36.5t43 -9.5l365 -337q13 -11 13 -29z" />
<glyph unicode="&#x205f;" horiz-adv-x="482" />
<glyph unicode="&#x20ac;" horiz-adv-x="1536" d="M1431 1365q11 -4 20 -16t8 -25l-19 -201q-2 -20 -17.5 -31t-34.5 -4q-126 48 -302 48q-186 0 -307 -62t-171 -180h639q20 0 31 -15t6 -35l-18 -63q-3 -10 -14.5 -18.5t-22.5 -8.5h-653q-7 -58 0 -110h597q20 0 31 -15t6 -35l-18 -63q-3 -10 -14.5 -18.5t-22.5 -8.5h-545 q105 -240 484 -240q171 0 303 50q19 7 34.5 -4t17.5 -31l20 -205q1 -12 -6.5 -24t-19.5 -16q-187 -58 -419 -58q-343 0 -563 138.5t-283 389.5h-99q-16 0 -27.5 11.5t-11.5 27.5v62q0 16 11.5 27.5t27.5 11.5h79q-3 53 0 110h-79q-16 0 -27.5 11.5t-11.5 27.5v62 q0 16 11.5 27.5t27.5 11.5h99q62 251 281.5 390.5t560.5 139.5q231 0 411 -59z" />
<glyph unicode="&#x2122;" horiz-adv-x="1528" d="M216 777v463h-163q-16 0 -27.5 11.5t-11.5 27.5v83q0 16 11.5 27t27.5 11h525q16 0 27 -11t11 -27v-83q0 -16 -11 -27.5t-27 -11.5h-164v-463q0 -16 -11.5 -27.5t-27.5 -11.5h-120q-16 0 -27.5 11.5t-11.5 27.5zM1010 930h112q16 0 31 17l125 173v-343q0 -16 11.5 -27.5 t27.5 -11.5h118q16 0 27.5 11.5t11.5 27.5v585q0 16 -11.5 27t-27.5 11h-149q-19 0 -31 -16l-189 -264l-189 264q-12 16 -31 16h-149q-16 0 -27.5 -11t-11.5 -27v-585q0 -16 11.5 -27.5t27.5 -11.5h118q16 0 27.5 11.5t11.5 27.5v343l125 -173q15 -17 31 -17z" />
<glyph unicode="&#x25fc;" horiz-adv-x="1035" d="M0 1035h1035v-1035h-1035v1035z" />
</font>
</defs>
</svg>
