<?xml version="1.0" standalone="no"?>
<!DOCTYPE svg PUBLIC "-//W3C//DTD SVG 1.1//EN" "http://www.w3.org/Graphics/SVG/1.1/DTD/svg11.dtd" >
<svg xmlns="http://www.w3.org/2000/svg">
<metadata></metadata>
<defs>
<font id="core_sans_nr_sc_83_ex_heavyIt" horiz-adv-x="1472" >
<font-face units-per-em="2000" ascent="1600" descent="-400" />
<missing-glyph horiz-adv-x="720" />
<glyph horiz-adv-x="666" />
<glyph horiz-adv-x="0" />
<glyph horiz-adv-x="0" />
<glyph unicode="&#xd;" horiz-adv-x="682" />
<glyph unicode=" "  horiz-adv-x="720" />
<glyph unicode="&#x09;" horiz-adv-x="720" />
<glyph unicode="&#xa0;" horiz-adv-x="720" />
<glyph unicode="!" horiz-adv-x="772" d="M74 156q18 93 82.5 137.5t194.5 44.5t177.5 -44.5t29.5 -137.5q-19 -93 -83.5 -137.5t-194.5 -44.5t-177.5 44.5t-28.5 137.5zM196 480l64 601l54 279q3 16 17 28t31 12h392q16 0 25.5 -11.5t6.5 -28.5l-54 -279l-170 -601q-4 -15 -17.5 -25.5t-28.5 -10.5h-288 q-15 0 -24.5 10.5t-7.5 25.5z" />
<glyph unicode="&#x22;" horiz-adv-x="1320" d="M261 795l75 562q3 17 17.5 30t31.5 13h328q16 0 25 -11.5t6 -28.5l-8 -41l-166 -526q-4 -14 -18.5 -24.5t-28.5 -10.5h-229q-15 0 -25 11t-8 26zM831 795l75 562q3 17 17.5 30t31.5 13h328q16 0 25 -11.5t6 -28.5l-8 -41l-166 -526q-4 -14 -18.5 -24.5t-28.5 -10.5h-229 q-15 0 -25 11t-8 26z" />
<glyph unicode="#" horiz-adv-x="1780" d="M1535 276h-244l-96 -243q-6 -14 -18.5 -23.5t-25.5 -9.5h-293q-20 0 -28.5 14.5t-1.5 33.5l90 228h-323l-96 -243q-6 -14 -18.5 -23.5t-25.5 -9.5h-293q-20 0 -28.5 14.5t-1.5 33.5l90 228h-181q-16 0 -25.5 11.5t-6.5 28.5l42 219q4 16 17.5 27.5t30.5 11.5h242l100 254 h-183q-16 0 -25.5 11.5t-6.5 28.5l43 219q3 16 16.5 27.5t30.5 11.5h244l96 241q6 14 19 23.5t26 9.5h293q19 0 28 -14t1 -34l-90 -226h323l96 241q6 14 19 23.5t26 9.5h293q19 0 28 -14t1 -34l-90 -226h181q17 0 26.5 -11.5t6.5 -27.5l-43 -219q-3 -16 -17 -28t-31 -12 h-242l-100 -254h183q17 0 26.5 -11.5t5.5 -27.5l-42 -219q-3 -16 -17 -28t-31 -12zM814 828l-100 -254h323l100 254h-323z" />
<glyph unicode="$" horiz-adv-x="1412" d="M21 50q-12 5 -18.5 17.5t-2.5 24.5l74 246q7 21 25 31t36 3q188 -74 434 -74q146 0 203.5 22.5t67.5 71.5q5 29 -17.5 51t-92.5 49t-206 64q-211 57 -299 164t-57 270q75 384 593 428l30 153q3 17 16.5 28t30.5 11h179q17 0 26 -11.5t6 -27.5l-29 -150q218 -10 375 -55 q13 -4 19 -16t2 -26l-69 -242q-7 -21 -23.5 -31.5t-34.5 -4.5q-158 52 -376 52q-139 0 -193.5 -20.5t-63.5 -65.5q-5 -29 16.5 -50t89 -48.5t204.5 -67.5q216 -64 304.5 -169t56.5 -267q-36 -187 -175.5 -293t-404.5 -132l-30 -154q-4 -17 -17.5 -28t-30.5 -11h-178 q-17 0 -26 11.5t-6 27.5l28 146q-283 6 -466 73z" />
<glyph unicode="%" horiz-adv-x="2218" d="M1083 1004q-36 -182 -174 -296t-350 -114t-306 114t-58 296q35 182 173 296t350 114t306 -114t59 -296zM499 1004q-16 -81 11.5 -123.5t95.5 -42.5t112.5 42.5t60.5 123.5t-12 123.5t-96 42.5t-112 -42.5t-60 -123.5zM2094 396q-35 -182 -173 -296t-350 -114t-306 114 t-59 296q36 182 174 296t350 114t306 -114t58 -296zM1510 396q-16 -81 12 -123.5t96 -42.5t112 42.5t60 123.5t-11.5 123.5t-95.5 42.5t-112.5 -42.5t-60.5 -123.5zM1641 1364l-1200 -1301q-25 -27 -18.5 -45t35.5 -18h105q52 0 85 36l1200 1301q20 20 15 41.5t-31 21.5 h-105q-53 0 -86 -36z" />
<glyph unicode="&#x26;" horiz-adv-x="1944" d="M1406 737q5 16 19 28.5t28 12.5h306q18 0 28 -11t5 -28q-38 -136 -115 -251t-164 -184l265 -237q19 -17 2.5 -42t-46.5 -25h-357q-103 0 -167 59l-43 39q-99 -60 -238.5 -91t-289.5 -31q-147 0 -262 25t-195 75t-113.5 131t-12.5 187q25 127 123 223t255 145 q-72 67 -99 137.5t-11 154.5q33 165 198 267.5t432 102.5q248 0 383 -99.5t103 -264.5q-23 -116 -124.5 -207.5t-252.5 -144.5l209 -192q95 90 134 221zM1049 1056q10 49 -29.5 77.5t-112.5 28.5t-121 -29t-56 -71q-8 -39 17.5 -77.5t93.5 -90.5q103 37 150.5 75t57.5 87z M478 392q-13 -66 46.5 -103t183.5 -37q142 0 226 48l-280 256q-77 -28 -121.5 -70.5t-54.5 -93.5z" />
<glyph unicode="'" horiz-adv-x="750" d="M261 795l75 562q3 17 17.5 30t31.5 13h328q16 0 25 -11.5t6 -28.5l-8 -41l-166 -526q-4 -14 -18.5 -24.5t-28.5 -10.5h-229q-15 0 -25 11t-8 26z" />
<glyph unicode="(" horiz-adv-x="940" d="M189 621q93 476 500 850q34 29 74 29h245q26 0 32.5 -21t-13.5 -42q-390 -399 -471 -816q-81 -418 153 -818q12 -21 -2.5 -42t-40.5 -21h-245q-42 0 -62 29q-262 371 -170 852z" />
<glyph unicode=")" horiz-adv-x="940" d="M791 621q-92 -477 -500 -852q-34 -29 -74 -29h-245q-26 0 -32.5 21t13.5 42q389 399 471 818q81 416 -153 816q-12 21 2.5 42t40.5 21h245q42 0 62 -29q263 -373 170 -850z" />
<glyph unicode="*" horiz-adv-x="1108" d="M364 663l-203 77q-18 7 -24 24t3 33l106 184q10 17 27.5 20t32.5 -9l168 -139l-35 215q-3 19 8.5 32.5t30.5 13.5h212q19 0 30.5 -13.5t8.5 -32.5l-35 -214l167 138q15 12 32.5 9t27.5 -20l106 -184q9 -16 3 -33t-24 -24l-203 -77l202 -75q18 -7 24.5 -23.5t-3.5 -33.5 l-106 -184q-10 -16 -27.5 -19.5t-32.5 8.5l-166 137l35 -213q3 -19 -8.5 -32.5t-30.5 -13.5h-212q-19 0 -30.5 13.5t-8.5 32.5l35 213l-167 -137q-15 -12 -32.5 -8.5t-27.5 19.5l-106 184q-10 17 -3.5 33.5t24.5 23.5z" />
<glyph unicode="+" horiz-adv-x="1296" d="M504 192v334h-344q-16 0 -28 12t-12 28v194q0 16 12 28t28 12h344v332q0 17 11.5 28.5t27.5 11.5h269q16 0 28 -12t12 -28v-332h344q16 0 28 -12t12 -28v-194q0 -16 -12 -28t-28 -12h-344v-334q0 -16 -12 -28t-28 -12h-269q-16 0 -27.5 11.5t-11.5 28.5z" />
<glyph unicode="," horiz-adv-x="736" d="M124 -326q-29 -15 -44 16l-34 75q-5 11 0.5 26.5t18.5 24.5q49 32 87 76t54 90q-151 24 -118 194q39 200 253 200t175 -200q-66 -339 -392 -502z" />
<glyph unicode="-" horiz-adv-x="838" d="M708 516h-579q-17 0 -26 12t-5 28l41 214q3 17 17 28.5t30 11.5h579q16 0 25.5 -11.5t6.5 -28.5l-41 -214q-4 -17 -18 -28.5t-30 -11.5z" />
<glyph unicode="." horiz-adv-x="736" d="M88 176q39 200 253 200t175 -200t-253 -200t-175 200z" />
<glyph unicode="/" horiz-adv-x="1330" d="M224 -191q-23 -29 -55 -29h-279q-25 0 -32 19t10 40l1284 1627q24 30 56 30h280q25 0 32 -19t-10 -40z" />
<glyph unicode="0" d="M1470 700q-65 -333 -285.5 -528.5t-553.5 -195.5t-477.5 195.5t-79.5 528.5q64 333 284.5 528.5t553.5 195.5t477.5 -195.5t80.5 -528.5zM558 700q-32 -152 -22.5 -243.5t47 -130t108.5 -38.5q107 0 179.5 95t115.5 317q31 152 21.5 243.5t-47 130t-108.5 38.5 q-107 0 -179 -95t-115 -317z" />
<glyph unicode="1" d="M719 995l-293 -172q-14 -8 -29 -4.5t-21 15.5l-100 191q-8 14 -1.5 31t22.5 26l497 295q41 23 99 23h328q16 0 25 -11t6 -27l-257 -1323q-3 -16 -16.5 -27.5t-29.5 -11.5h-384q-16 0 -25.5 11.5t-6.5 27.5z" />
<glyph unicode="2" d="M355 1357q205 67 473 67q316 0 456.5 -117.5t98.5 -330.5q-25 -129 -102.5 -236t-209.5 -206q-175 -133 -380 -226h520q17 0 26.5 -11.5t6.5 -28.5l-45 -228q-3 -17 -16.5 -28.5t-30.5 -11.5h-1091q-17 0 -26.5 12t-6.5 28l43 222q2 8 10.5 19t15.5 15q259 143 509 326 q143 102 213.5 178.5t86.5 157.5t-46 117.5t-214 36.5q-169 0 -305 -47q-21 -7 -35 3.5t-12 31.5l26 217q5 30 35 40z" />
<glyph unicode="3" d="M61 38q-13 4 -19 16t-2 26l66 217q7 21 24 32t35 4q144 -61 349 -61q309 0 334 132q17 91 -97 137t-377 49q-16 0 -24.5 11.5t-5.5 28.5l38 198q4 16 17.5 28t29.5 12q254 3 378 39t138 109q11 58 -51.5 84t-207.5 26q-186 0 -345 -50q-20 -7 -34 4t-12 31l19 206 q1 14 13 25.5t26 15.5q213 66 499 66q300 0 449 -99.5t113 -282.5q-45 -233 -297 -312q114 -40 166 -123.5t29 -200.5q-39 -202 -242.5 -316t-530.5 -114q-255 0 -478 62z" />
<glyph unicode="4" d="M16 282l40 206q19 92 85 154l780 735q25 23 54 23h408q16 0 25 -11.5t6 -28.5l-154 -794h136q16 0 25.5 -11.5t6.5 -28.5l-48 -244q-3 -17 -16.5 -28.5t-30.5 -11.5h-136l-40 -202q-3 -17 -16.5 -28.5t-29.5 -11.5h-363q-17 0 -26.5 11.5t-6.5 28.5l40 202h-706 q-17 0 -26.5 11.5t-6.5 28.5zM899 984l-443 -418h362z" />
<glyph unicode="5" d="M93 30q-12 4 -18 16t-2 25l61 209q6 21 22.5 31t35.5 3q112 -44 266 -44q184 0 276 48t111 144q18 90 -58.5 131t-249.5 41q-127 0 -263 -31q-21 -5 -33.5 6.5t-8.5 32.5l140 718q3 16 17 28t31 12h999q16 0 25 -11.5t6 -28.5l-42 -214q-3 -17 -17 -28.5t-30 -11.5h-597 l-44 -228q80 20 184 20q230 0 346.5 -114.5t76.5 -323.5q-45 -229 -253 -356.5t-551 -127.5q-261 0 -430 54z" />
<glyph unicode="6" d="M555 592q-32 -164 6 -242t145 -78q90 0 147.5 47.5t75.5 142.5q20 99 -21 143.5t-136 44.5q-133 0 -217 -58zM1322 1091q-109 39 -277 39q-186 0 -290 -65.5t-146 -214.5q134 86 342 86q239 0 360 -125t78 -349q-43 -225 -234 -355.5t-492 -130.5q-326 0 -477.5 172.5 t-87.5 503.5q151 772 930 772q236 0 393 -50q12 -4 17.5 -16.5t1.5 -25.5l-60 -206q-6 -20 -23.5 -30.5t-34.5 -4.5z" />
<glyph unicode="7" d="M1496 1360l-44 -227q-5 -24 -15.5 -47.5t-18.5 -36.5t-26 -39l-703 -989q-5 -8 -17.5 -14.5t-21.5 -6.5h-432q-24 0 -32 18.5t8 39.5l727 1018h-651q-17 0 -26.5 11.5t-6.5 27.5l48 245q3 16 17 28t31 12h1131q16 0 25.5 -11.5t6.5 -28.5z" />
<glyph unicode="8" d="M631 -24q-322 0 -478.5 116t-119.5 306q23 119 113 209.5t240 144.5q-194 93 -156 288q34 175 212 279.5t470 104.5q288 0 428 -104.5t106 -279.5q-19 -95 -88.5 -169t-181.5 -117q263 -117 217 -356q-37 -190 -238.5 -306t-523.5 -116zM746 620q-111 -42 -174 -100.5 t-76 -125.5q-12 -61 35 -99.5t154 -38.5q103 0 166 39t75 99q13 64 -31 122.5t-149 103.5zM813 850q85 31 141.5 77.5t66.5 98.5q10 53 -32 86.5t-131 33.5q-90 0 -145 -33t-66 -87q-22 -110 166 -176z" />
<glyph unicode="9" d="M989 808q31 164 -7 242t-145 78q-90 0 -147.5 -47.5t-75.5 -142.5q-20 -99 21 -143.5t136 -44.5q133 0 218 58zM222 309q107 -39 276 -39q186 0 290 65.5t146 214.5q-134 -86 -342 -86q-239 0 -360 125t-78 349q43 225 234 355.5t492 130.5q326 0 477.5 -172.5 t87.5 -503.5q-150 -772 -930 -772q-236 0 -392 50q-12 4 -18 16.5t-2 25.5l60 206q6 20 23.5 30.5t35.5 4.5z" />
<glyph unicode=":" horiz-adv-x="736" d="M88 176q39 200 253 200t175 -200t-253 -200t-175 200zM221 860q39 200 253 200t175 -200t-253 -200t-175 200z" />
<glyph unicode=";" horiz-adv-x="736" d="M221 860q39 200 253 200t175 -200t-253 -200t-175 200zM124 -326q-29 -15 -44 16l-34 75q-5 11 0.5 26.5t18.5 24.5q49 32 87 76t54 90q-151 24 -118 194q39 200 253 200t175 -200q-66 -339 -392 -502z" />
<glyph unicode="&#x3c;" horiz-adv-x="1296" d="M120 489v346q0 11 9 22.5t20 15.5l1036 304q20 6 35.5 -5.5t15.5 -32.5v-252q0 -12 -9 -23.5t-21 -14.5l-714 -187l714 -187q12 -3 21 -14.5t9 -23.5v-252q0 -21 -15.5 -32.5t-35.5 -5.5l-1036 304q-11 4 -20 15.5t-9 22.5z" />
<glyph unicode="=" horiz-adv-x="1296" d="M1196 762h-1036q-17 0 -28.5 11.5t-11.5 27.5v195q0 16 12 28t28 12h1036q16 0 28 -12t12 -28v-195q0 -16 -11.5 -27.5t-28.5 -11.5zM1196 290h-1036q-17 0 -28.5 11.5t-11.5 28.5v194q0 17 11.5 28.5t28.5 11.5h1036q17 0 28.5 -11.5t11.5 -28.5v-194q0 -17 -11.5 -28.5 t-28.5 -11.5z" />
<glyph unicode="&#x3e;" horiz-adv-x="1296" d="M1236 835v-346q0 -11 -9 -22.5t-20 -15.5l-1036 -304q-20 -6 -35.5 5.5t-15.5 32.5v252q0 12 9 23.5t21 14.5l714 187l-714 187q-12 3 -21 14.5t-9 23.5v252q0 21 15.5 32.5t35.5 5.5l1036 -304q11 -4 20 -15.5t9 -22.5z" />
<glyph unicode="?" horiz-adv-x="1292" d="M777 504l-5 -30q-4 -17 -17 -28.5t-29 -11.5h-362q-17 0 -26.5 12t-5.5 28l8 42q26 136 91 221.5t189 138.5q95 40 134 71t47 71q9 44 -37.5 65t-177.5 21q-155 0 -335 -55q-20 -7 -34 4t-12 31l22 226q2 29 29 39q102 34 230.5 54.5t243.5 20.5q316 0 453 -97t101 -285 q-45 -235 -346 -372q-79 -36 -114.5 -74t-46.5 -92zM248 156q18 93 82.5 137.5t194.5 44.5t177.5 -44.5t29.5 -137.5q-19 -93 -83.5 -137.5t-194.5 -44.5t-177.5 44.5t-28.5 137.5z" />
<glyph unicode="@" horiz-adv-x="1924" d="M867 358q102 0 180 70l122 312q-25 36 -91 36q-97 0 -186.5 -87.5t-113.5 -210.5q-23 -120 89 -120zM1483 849q12 -25 -10 -84l-121 -321q-27 -81 -4.5 -124.5t75.5 -43.5q69 0 126 84.5t85 227.5q37 190 -15 334.5t-189 225t-342 80.5q-180 0 -346 -89.5t-280.5 -245.5 t-151.5 -343q-21 -119 -10 -222.5t57.5 -187.5t117 -143.5t168.5 -92t212 -32.5q253 0 453 120q19 10 34.5 5t20.5 -22l29 -113q3 -13 -4.5 -28t-20.5 -22q-253 -136 -562 -136q-180 0 -329.5 62.5t-248.5 173.5t-138 277t-1 361q37 191 139.5 356t243 277.5t311 176.5 t344.5 64q147 0 274.5 -37t224 -108t159.5 -173t81.5 -232t-9.5 -286q-45 -228 -176.5 -361t-321.5 -133q-87 0 -148.5 39.5t-78.5 110.5q-151 -140 -367 -140q-178 0 -255 102.5t-46 265.5q31 157 134 287t244.5 202.5t286.5 72.5q259 0 355 -185z" />
<glyph unicode="A" horiz-adv-x="1728" d="M1084 262h-540l-107 -209q-28 -53 -76 -53h-401q-23 0 -31.5 16.5t3.5 38.5l751 1306q24 39 63 39h580q19 0 31.5 -11t15.5 -28l243 -1306q4 -22 -10.5 -38.5t-37.5 -16.5h-401q-49 0 -56 53zM713 586h328l-66 504z" />
<glyph unicode="B" horiz-adv-x="1612" d="M754 0h-684q-17 0 -26.5 12t-6.5 29l257 1318q3 17 17 29t31 12h656q314 0 464 -98t114 -282q-39 -195 -230 -276q111 -32 159.5 -119t26.5 -199q-83 -426 -778 -426zM556 278h224q237 0 267 152q14 72 -36 112t-172 40h-224zM916 1122h-196l-52 -264h196q204 0 230 132 q12 63 -30.5 97.5t-147.5 34.5z" />
<glyph unicode="C" horiz-adv-x="1508" d="M1319 33q-202 -57 -460 -57q-427 0 -626 192t-133 532t339 532t699 192q248 0 428 -60q16 -5 23.5 -20.5t2.5 -34.5l-64 -221q-6 -20 -24 -31t-37 -4q-128 47 -300 47q-502 0 -579 -400q-39 -199 71 -299.5t361 -100.5q172 0 322 47q21 7 35 -3.5t12 -31.5l-22 -224 q-2 -19 -16 -34.5t-32 -20.5z" />
<glyph unicode="D" horiz-adv-x="1680" d="M652 0h-582q-17 0 -26.5 12t-6.5 29l257 1318q3 17 17 29t31 12h582q405 0 599.5 -179t128.5 -521q-45 -229 -182 -387.5t-344 -235.5t-474 -77zM1168 700q41 212 -36 302t-274 90h-136l-153 -784h136q197 0 309 89.5t154 302.5z" />
<glyph unicode="E" horiz-adv-x="1430" d="M37 41l257 1318q3 17 17.5 29t31.5 12h1125q16 0 25.5 -12t6.5 -29l-44 -227q-4 -17 -18 -28.5t-30 -11.5h-686l-45 -230h634q17 0 26.5 -11.5t5.5 -28.5l-44 -228q-3 -17 -17 -28.5t-31 -11.5h-634l-47 -245h700q17 0 26 -11.5t6 -28.5l-45 -228q-3 -17 -16.5 -29 t-30.5 -12h-1139q-17 0 -27 12t-7 29z" />
<glyph unicode="F" horiz-adv-x="1380" d="M37 41l257 1318q3 17 17.5 29t31.5 12h1125q16 0 25.5 -12t6.5 -29l-44 -227q-4 -17 -18 -28.5t-30 -11.5h-686l-45 -232h636q16 0 25.5 -11.5t6.5 -28.5l-44 -227q-4 -17 -18 -29t-30 -12h-636l-100 -511q-3 -17 -17 -29t-31 -12h-398q-17 0 -27 12t-7 29z" />
<glyph unicode="G" horiz-adv-x="1744" d="M1508 52q-256 -76 -567 -76q-466 0 -686.5 193.5t-154.5 530.5q31 160 117 291.5t221.5 228.5t328.5 150.5t425 53.5q316 0 532 -77q12 -4 18 -16.5t2 -25.5l-67 -226q-6 -22 -21.5 -32.5t-33.5 -3.5q-164 63 -390 63q-275 0 -442 -102t-206 -304q-39 -200 81 -303 t348 -103q112 0 183 16l45 234h-245q-17 0 -26.5 11.5t-6.5 28.5l36 184q3 17 17.5 28.5t31.5 11.5h594q17 0 26.5 -11.5t6.5 -28.5l-132 -677q-2 -12 -12.5 -23.5t-22.5 -15.5z" />
<glyph unicode="H" horiz-adv-x="1768" d="M37 41l257 1318q3 17 17 29t31 12h400q17 0 26 -12t6 -29l-89 -457h548l89 457q3 17 17 29t31 12h400q16 0 25.5 -12t6.5 -29l-257 -1318q-3 -17 -16.5 -29t-30.5 -12h-400q-17 0 -26.5 12t-6.5 29l105 539h-548l-105 -539q-3 -17 -16.5 -29t-30.5 -12h-400 q-17 0 -26.5 12t-6.5 29z" />
<glyph unicode="I" horiz-adv-x="760" d="M353 1400h398q17 0 26.5 -12t6.5 -29l-257 -1318q-3 -17 -17 -29t-31 -12h-398q-17 0 -27 12t-7 29l257 1318q3 17 17.5 29t31.5 12z" />
<glyph unicode="J" horiz-adv-x="1216" d="M603 492l169 867q3 17 17.5 29t31.5 12h398q17 0 26.5 -12t6.5 -29l-169 -867q-100 -516 -760 -516q-238 0 -377 49q-11 5 -16.5 17t-1.5 25l67 239q5 21 24 31.5t38 3.5q102 -41 240 -41q137 0 211.5 45t94.5 147z" />
<glyph unicode="K" horiz-adv-x="1712" d="M774 1359l-102 -524l568 542q25 23 51 23h443q27 0 33 -23t-16 -44l-629 -587l464 -679q14 -21 -1 -44t-42 -23h-462q-31 0 -46 25l-395 645l-123 -629q-3 -17 -16.5 -29t-30.5 -12h-400q-17 0 -26.5 12t-6.5 29l257 1318q3 17 17 29t31 12h400q16 0 25.5 -12t6.5 -29z " />
<glyph unicode="L" horiz-adv-x="1414" d="M37 41l257 1318q3 17 17.5 29t31.5 12h399q17 0 26 -12t6 -29l-202 -1037h737q17 0 27 -12t6 -28l-47 -241q-3 -17 -17 -29t-31 -12h-1176q-17 0 -27 12t-7 29z" />
<glyph unicode="M" horiz-adv-x="2180" d="M1227 412h-314q-7 0 -17 5t-13 11l-257 462l-165 -849q-3 -17 -16.5 -29t-30.5 -12h-343q-17 0 -27 12t-7 29l257 1318q3 17 17.5 29t31.5 12h475q7 0 16.5 -5.5t12.5 -11.5l299 -576l523 576q17 17 37 17h475q17 0 26.5 -12t6.5 -29l-257 -1318q-3 -17 -17 -29t-31 -12 h-343q-17 0 -26.5 12t-6.5 29l165 849l-435 -462q-16 -16 -36 -16z" />
<glyph unicode="N" horiz-adv-x="1810" d="M1036 18l-416 839l-159 -816q-3 -17 -17 -29t-31 -12h-343q-17 0 -26.5 12t-6.5 29l257 1318q3 17 17 29t31 12h473q7 0 16.5 -6t12.5 -12l417 -837l159 814q3 17 17 29t31 12h344q17 0 26 -12t6 -29l-257 -1318q-3 -17 -16.5 -29t-30.5 -12h-474q-7 0 -17 6t-13 12z" />
<glyph unicode="O" horiz-adv-x="1772" d="M1744 700q-31 -158 -109.5 -289.5t-198.5 -229t-288 -151.5t-367 -54q-133 0 -244 24.5t-191.5 70t-139 110.5t-87 145.5t-35.5 175t16 198.5q31 158 109 289.5t198 229t288 151.5t367 54q133 0 244 -24.5t191.5 -70t139 -110.5t87 -145.5t35.5 -174.5t-15 -199z M1260 700q39 203 -26 307.5t-232 104.5q-168 0 -273.5 -104.5t-144.5 -307.5q-40 -203 24.5 -307.5t232.5 -104.5t273.5 104.5t145.5 307.5z" />
<glyph unicode="P" horiz-adv-x="1532" d="M1561 914q-47 -245 -254.5 -365.5t-541.5 -120.5h-184l-76 -387q-3 -17 -17 -29t-31 -12h-387q-17 0 -26.5 12t-6.5 29l257 1318q3 17 17 29t31 12h612q164 0 286.5 -29t203 -88t111 -152t6.5 -217zM1113 914q19 99 -40.5 141.5t-189.5 42.5h-172l-72 -368h172 q130 0 206.5 42t95.5 142z" />
<glyph unicode="Q" horiz-adv-x="1772" d="M1744 700q-52 -266 -233.5 -451.5t-467.5 -246.5q9 -44 62 -65t160 -21q88 0 182 16q19 4 31 -6.5t10 -28.5l-13 -193q-2 -14 -12 -28t-24 -16q-138 -24 -284 -24q-238 0 -370.5 87.5t-148.5 260.5q-319 37 -456 230.5t-80 485.5q31 158 109 289.5t198 229t288 151.5 t367 54q133 0 244 -24.5t191.5 -70t139 -110.5t87 -145.5t35.5 -174.5t-15 -199zM1260 700q39 203 -26 307.5t-232 104.5q-168 0 -273.5 -104.5t-144.5 -307.5q-40 -203 24.5 -307.5t232.5 -104.5t273.5 104.5t145.5 307.5z" />
<glyph unicode="R" horiz-adv-x="1626" d="M1099 946q17 82 -40 122t-172 40h-174l-63 -324h174q114 0 186.5 40t88.5 122zM1160 540l322 -473q14 -21 0 -44t-42 -23h-428q-7 0 -17 5.5t-12 10.5l-278 474h-112l-88 -449q-3 -17 -16.5 -29t-30.5 -12h-387q-17 0 -27 12t-7 29l257 1318q3 17 17.5 29t31.5 12h619 q160 0 281.5 -27t203.5 -81.5t114.5 -142t9.5 -203.5q-29 -154 -135 -255.5t-276 -150.5z" />
<glyph unicode="S" horiz-adv-x="1416" d="M21 50q-12 5 -18.5 17.5t-2.5 24.5l74 246q7 21 25 31t36 3q188 -74 434 -74q146 0 203.5 22.5t67.5 71.5q5 29 -17.5 51t-92.5 49t-206 64q-211 57 -299 164t-57 270q84 434 738 434q292 0 489 -58q13 -4 19 -16t2 -26l-69 -242q-7 -21 -23.5 -31.5t-34.5 -4.5 q-158 52 -376 52q-139 0 -193.5 -20.5t-63.5 -65.5q-5 -29 16.5 -50t89 -48.5t204.5 -67.5q216 -64 304.5 -169t56.5 -267q-42 -218 -227 -326t-549 -108q-323 0 -530 74z" />
<glyph unicode="T" horiz-adv-x="1424" d="M379 41l202 1035h-411q-17 0 -27 11.5t-7 28.5l48 243q3 17 17.5 29t31.5 12h1303q16 0 25.5 -12t6.5 -29l-48 -243q-3 -17 -17 -28.5t-30 -11.5h-412l-202 -1035q-3 -17 -17 -29t-31 -12h-399q-17 0 -26.5 12t-6.5 29z" />
<glyph unicode="U" horiz-adv-x="1786" d="M788 -24q-234 0 -390.5 66t-225 204.5t-29.5 339.5l151 773q3 17 17.5 29t31.5 12h398q17 0 26.5 -12t6.5 -29l-152 -779q-27 -142 28.5 -210t200.5 -68t227.5 68t109.5 210l152 779q3 17 17.5 29t31.5 12h398q17 0 26.5 -12t6.5 -29l-151 -773q-58 -300 -291.5 -455 t-589.5 -155z" />
<glyph unicode="V" horiz-adv-x="1772" d="M1089 0h-606q-11 0 -21 8t-11 18l-246 1319q-3 22 12 38.5t37 16.5h422q11 0 21.5 -8.5t11.5 -19.5l137 -1061l549 1061q6 11 20 19.5t25 8.5h422q23 0 31 -16.5t-4 -38.5l-758 -1319q-6 -10 -19 -18t-23 -8z" />
<glyph unicode="W" horiz-adv-x="2476" d="M1170 1400h480q13 0 23 -9.5t10 -22.5l18 -968l430 969q5 12 19 21.5t27 9.5h392q22 0 30 -15.5t-2 -36.5l-661 -1320q-6 -11 -18.5 -19.5t-24.5 -8.5h-520q-13 0 -23 9.5t-10 22.5l-10 958l-382 -958q-6 -13 -19 -22.5t-26 -9.5h-520q-12 0 -21.5 8.5t-11.5 19.5 l-147 1320q-3 21 11.5 36.5t36.5 15.5h392q13 0 23 -9.5t11 -21.5l52 -969l394 968q6 13 20 22.5t27 9.5z" />
<glyph unicode="X" horiz-adv-x="1732" d="M964 1022l364 363q4 5 15.5 10t18.5 5h424q28 0 33.5 -22.5t-15.5 -43.5l-630 -623l401 -645q14 -21 -0.5 -43.5t-42.5 -22.5h-424q-18 0 -29 15l-235 387l-387 -387q-15 -15 -33 -15h-424q-28 0 -34 22.5t15 43.5l653 645l-388 623q-14 21 1 43.5t43 22.5h424 q19 0 28 -15z" />
<glyph unicode="Y" horiz-adv-x="1780" d="M989 0h-398q-17 0 -27 12t-7 29l98 503l-426 792q-11 21 4 42.5t42 21.5h416q8 0 17.5 -5.5t12.5 -12.5l239 -504l435 504q16 18 38 18h416q27 0 33.5 -21.5t-13.5 -42.5l-734 -792l-98 -503q-3 -17 -17 -29t-31 -12z" />
<glyph unicode="Z" horiz-adv-x="1408" d="M-41 41l46 232q9 46 46 81l794 722h-611q-17 0 -27 11.5t-7 28.5l48 243q3 17 17.5 29t31.5 12h1167q17 0 26 -12t6 -29l-45 -230q-9 -49 -73 -108l-769 -699h668q17 0 27 -12t6 -28l-47 -241q-3 -17 -17 -29t-31 -12h-1222q-17 0 -27 12t-7 29z" />
<glyph unicode="[" horiz-adv-x="978" d="M67 -221l326 1682q4 16 17.5 27.5t30.5 11.5h648q17 0 26.5 -11.5t5.5 -27.5l-37 -195q-4 -17 -18 -28.5t-30 -11.5h-308l-236 -1214h308q17 0 26.5 -11.5t5.5 -28.5l-37 -193q-4 -16 -17.5 -27.5t-30.5 -11.5h-648q-17 0 -26.5 11.5t-5.5 27.5z" />
<glyph unicode="\" horiz-adv-x="1330" d="M830 -191l-652 1628q-9 21 5 40t39 19h280q33 0 44 -30l653 -1627q9 -21 -5 -40t-39 -19h-280q-32 0 -45 29z" />
<glyph unicode="]" horiz-adv-x="978" d="M951 1461l-326 -1682q-4 -16 -17.5 -27.5t-30.5 -11.5h-648q-17 0 -26 11.5t-5 27.5l36 193q4 17 17.5 28.5t30.5 11.5h308l236 1214h-308q-17 0 -26.5 12t-5.5 28l37 195q4 16 17.5 27.5t30.5 11.5h648q17 0 26.5 -11.5t5.5 -27.5z" />
<glyph unicode="^" horiz-adv-x="1296" d="M482 1400h392q8 0 18.5 -6.5t15.5 -14.5l327 -582q12 -22 1 -40.5t-35 -18.5h-293q-9 0 -20 6.5t-15 14.5l-195 367l-195 -367q-4 -8 -15 -14.5t-20 -6.5h-293q-24 0 -35 18.5t1 40.5l327 582q5 8 15.5 14.5t18.5 6.5z" />
<glyph unicode="_" horiz-adv-x="1000" d="M-158 -300l11 56q3 17 17 28.5t30 11.5h920q16 0 25.5 -11.5t6.5 -28.5l-11 -56q-3 -16 -17 -28t-31 -12h-920q-16 0 -25 11.5t-6 28.5z" />
<glyph unicode="`" horiz-adv-x="1036" d="M723 1445l174 -260q14 -20 -1 -42.5t-42 -22.5h-170q-49 0 -81 32l-256 239q-16 14 -2.5 41.5t40.5 27.5h293q37 0 45 -15z" />
<glyph unicode="a" horiz-adv-x="1504" d="M902 210h-420l-91 -182q-5 -11 -18 -19.5t-24 -8.5h-390q-22 0 -29.5 18t3.5 38l628 1109q5 10 17.5 17.5t23.5 7.5h562q10 0 19.5 -7.5t11.5 -17.5l196 -1109q4 -21 -10.5 -38.5t-35.5 -17.5h-390q-11 0 -21 8.5t-11 19.5zM637 514h228l-41 371z" />
<glyph unicode="b" horiz-adv-x="1388" d="M640 0h-591q-16 0 -25.5 11.5t-6.5 27.5l216 1112q3 16 17 27.5t30 11.5h567q279 0 411.5 -82t100.5 -244q-30 -156 -176 -230q85 -31 120.5 -103.5t17.5 -162.5q-72 -368 -681 -368zM496 258h176q88 0 138 30.5t60 83.5q10 52 -28 82t-126 30h-176zM803 934h-176 l-37 -192h176q150 0 168 94q9 46 -22 72t-109 26z" />
<glyph unicode="c" horiz-adv-x="1292" d="M1126 28q-171 -52 -413 -52q-366 0 -536.5 163.5t-113.5 454.5q56 292 290 456t600 164q216 0 379 -55q12 -4 18.5 -17t2.5 -26l-61 -211q-6 -20 -23.5 -31.5t-35.5 -4.5q-118 41 -249 41q-406 0 -467 -316q-30 -156 58.5 -236t292.5 -80q138 0 268 42q20 7 34 -2.5 t12 -29.5l-22 -219q-1 -13 -11 -25t-23 -16z" />
<glyph unicode="d" horiz-adv-x="1444" d="M564 0h-515q-16 0 -25.5 11.5t-6.5 27.5l216 1112q3 16 17 27.5t30 11.5h515q228 0 378 -65.5t213 -199.5t25 -329q-57 -293 -279 -444.5t-568 -151.5zM959 596q33 167 -22 237.5t-198 70.5h-106l-120 -618h106q143 0 225 70.5t115 239.5z" />
<glyph unicode="e" horiz-adv-x="1238" d="M17 39l216 1112q3 16 17 27.5t30 11.5h974q16 0 25 -11.5t6 -27.5l-40 -208q-3 -16 -17 -27.5t-30 -11.5h-563l-31 -162h519q16 0 25 -11.5t6 -28.5l-40 -205q-3 -17 -16.5 -28t-29.5 -11h-519l-34 -172h575q16 0 25.5 -11.5t6.5 -27.5l-41 -208q-3 -16 -16.5 -27.5 t-29.5 -11.5h-986q-16 0 -25.5 11.5t-6.5 27.5z" />
<glyph unicode="f" horiz-adv-x="1216" d="M17 39l216 1112q3 16 17.5 27.5t30.5 11.5h973q16 0 25 -11.5t6 -27.5l-40 -208q-3 -16 -17 -27.5t-30 -11.5h-563l-35 -182h519q16 0 25 -11.5t6 -27.5l-40 -206q-3 -16 -16.5 -27.5t-29.5 -11.5h-519l-78 -399q-3 -16 -17 -27.5t-30 -11.5h-370q-16 0 -26 11.5t-7 27.5 z" />
<glyph unicode="g" horiz-adv-x="1498" d="M1363 866q-142 52 -319 52q-225 0 -361 -80t-168 -242q-31 -159 65 -241.5t272 -82.5q81 0 135 12l32 166h-179q-16 0 -25.5 11.5t-5.5 27.5l32 168q3 16 17 27.5t30 11.5h505q16 0 25.5 -11.5t6.5 -27.5l-112 -577q-2 -11 -12.5 -22t-21.5 -15q-221 -67 -490 -67 q-404 0 -593 165t-133 455q27 137 100 249.5t189 195t282 128t367 45.5q280 0 460 -66q11 -5 17.5 -17t2.5 -24l-60 -208q-5 -20 -23 -30t-35 -3z" />
<glyph unicode="h" horiz-adv-x="1532" d="M17 39l216 1112q3 16 17 27.5t30 11.5h369q16 0 25.5 -11.5t6.5 -27.5l-71 -369h416l71 369q3 16 17 27.5t30 11.5h369q16 0 25.5 -11.5t6.5 -27.5l-216 -1112q-3 -16 -17 -27.5t-30 -11.5h-369q-16 0 -25.5 11.5t-6.5 27.5l85 439h-416l-85 -439q-3 -16 -17 -27.5 t-30 -11.5h-369q-16 0 -25.5 11.5t-6.5 27.5z" />
<glyph unicode="i" horiz-adv-x="692" d="M290 1190h374q16 0 25 -11.5t6 -27.5l-216 -1112q-3 -16 -16.5 -27.5t-29.5 -11.5h-374q-16 0 -25.5 11.5t-6.5 27.5l216 1112q3 16 17 27.5t30 11.5z" />
<glyph unicode="j" horiz-adv-x="1064" d="M487 418l142 733q3 16 17 27.5t30 11.5h370q16 0 25 -11.5t6 -27.5l-142 -732q-43 -224 -208.5 -333.5t-460.5 -109.5q-202 0 -327 40q-11 4 -17.5 15.5t-3.5 24.5l64 225q7 21 24.5 30.5t36.5 2.5q85 -36 196 -36q112 0 172.5 32.5t75.5 107.5z" />
<glyph unicode="k" horiz-adv-x="1512" d="M681 1151l-82 -423l424 423q40 39 89 39h389q27 0 33 -22t-16 -42l-505 -492l368 -570q13 -21 -1 -42.5t-41 -21.5h-416q-21 0 -38.5 12t-25.5 26l-293 519l-101 -518q-3 -16 -17 -27.5t-30 -11.5h-369q-16 0 -25.5 11.5t-6.5 27.5l216 1112q3 16 17 27.5t30 11.5h369 q16 0 25.5 -11.5t6.5 -27.5z" />
<glyph unicode="l" horiz-adv-x="1226" d="M17 39l216 1112q3 16 17 27.5t30 11.5h372q16 0 25 -11.5t6 -27.5l-165 -849h607q16 0 25.5 -11.5t6.5 -27.5l-44 -224q-3 -16 -16.5 -27.5t-29.5 -11.5h-1018q-16 0 -25.5 11.5t-6.5 27.5z" />
<glyph unicode="m" horiz-adv-x="1880" d="M1027 338h-244q-15 0 -31 7t-20 16l-190 362l-133 -684q-3 -16 -16.5 -27.5t-29.5 -11.5h-314q-16 0 -25.5 11.5t-6.5 27.5l216 1112q3 16 17 27.5t30 11.5h419q31 0 43 -23l234 -465l414 465q21 23 53 23h419q16 0 25 -11.5t6 -27.5l-216 -1112q-3 -16 -16.5 -27.5 t-29.5 -11.5h-314q-16 0 -25.5 11.5t-6.5 27.5l133 684l-330 -362q-9 -9 -27.5 -16t-33.5 -7z" />
<glyph unicode="n" horiz-adv-x="1570" d="M862 25l-324 689l-131 -675q-3 -16 -16.5 -27.5t-29.5 -11.5h-312q-16 0 -25.5 11.5t-6.5 27.5l216 1112q3 16 17 27.5t30 11.5h400q38 0 51 -25l331 -689l131 675q3 16 17 27.5t30 11.5h312q16 0 25 -11.5t6 -27.5l-216 -1112q-3 -16 -16.5 -27.5t-29.5 -11.5h-407 q-40 0 -52 25z" />
<glyph unicode="o" horiz-adv-x="1512" d="M1479 596q-26 -135 -93 -248t-170 -196t-247.5 -129.5t-317.5 -46.5q-138 0 -248 30t-182 85t-116.5 132t-52 171t10.5 202q26 135 93 247.5t170 195.5t247.5 129t317.5 46q139 0 248.5 -30t181.5 -84.5t116.5 -131.5t52.5 -170.5t-11 -201.5zM515 596 q-31 -161 16.5 -245.5t175.5 -84.5t208.5 84.5t111.5 245.5q32 160 -16 244t-176 84q-255 0 -320 -328z" />
<glyph unicode="p" horiz-adv-x="1344" d="M1341 768q-42 -213 -221.5 -316.5t-470.5 -103.5h-138l-60 -309q-3 -16 -16.5 -27.5t-29.5 -11.5h-356q-16 0 -25.5 11.5t-6.5 27.5l216 1112q3 16 17 27.5t30 11.5h533q290 0 429.5 -104.5t98.5 -317.5zM933 768q15 77 -30.5 109.5t-142.5 32.5h-140l-54 -282h140 q96 0 154 32t73 108z" />
<glyph unicode="q" horiz-adv-x="1512" d="M1209 -292q-114 -20 -234 -20q-202 0 -318.5 75t-138.5 221q-182 22 -296 107t-152 213.5t-7 291.5q26 135 93 247.5t170 195.5t247.5 129t317.5 46q139 0 248.5 -30t181.5 -84.5t116.5 -131.5t52.5 -170.5t-11 -201.5q-43 -222 -192 -379t-385 -213q28 -54 172 -54 q75 0 155 14q18 3 29.5 -7.5t10.5 -27.5l-12 -174q-1 -19 -16.5 -31.5t-31.5 -15.5zM515 596q-31 -161 16.5 -245.5t175.5 -84.5t208.5 84.5t111.5 245.5q32 160 -16 244t-176 84q-255 0 -320 -328z" />
<glyph unicode="r" horiz-adv-x="1416" d="M1346 796q-24 -127 -108 -214t-238 -138l276 -378q15 -20 0.5 -43t-41.5 -23h-400q-6 0 -16 5t-13 10l-232 379h-56l-69 -355q-3 -16 -16.5 -27.5t-29.5 -11.5h-353q-16 0 -26 11.5t-7 27.5l216 1112q3 16 17.5 27.5t30.5 11.5h532q289 0 430.5 -97t102.5 -297zM908 796 q12 61 -31 91.5t-127 30.5h-130l-47 -242h130q85 0 139 29.5t66 90.5z" />
<glyph unicode="s" horiz-adv-x="1220" d="M771 1214q238 0 428 -51q13 -4 19.5 -16t2.5 -25l-63 -221q-5 -19 -22.5 -29.5t-34.5 -4.5q-142 43 -321 43q-105 0 -146 -14.5t-47 -43.5q-4 -25 48.5 -49.5t211.5 -72.5q177 -53 253 -143t48 -233q-37 -191 -196.5 -284.5t-475.5 -93.5q-281 0 -468 62q-12 4 -18 15 t-2 25l66 229q6 20 24.5 30.5t35.5 3.5q169 -65 371 -65q116 0 157.5 13.5t47.5 44.5q4 18 -14.5 33.5t-77.5 37t-173 53.5q-177 48 -250.5 139.5t-45.5 234.5q38 192 195.5 287t446.5 95z" />
<glyph unicode="t" horiz-adv-x="1254" d="M311 39l165 847h-335q-16 0 -25.5 11.5t-6.5 28.5l44 225q3 16 17 27.5t30 11.5h1116q16 0 25 -11.5t6 -27.5l-44 -225q-3 -17 -16.5 -28.5t-29.5 -11.5h-333l-165 -847q-3 -16 -17 -27.5t-30 -11.5h-368q-16 0 -26 11.5t-7 27.5z" />
<glyph unicode="u" horiz-adv-x="1544" d="M667 -24q-204 0 -340 57t-195 176t-25 291l126 651q3 16 17.5 27.5t30.5 11.5h370q16 0 25.5 -11.5t6.5 -27.5l-128 -659q-21 -109 21.5 -160.5t149.5 -51.5q213 0 253 212l128 659q3 16 17.5 27.5t30.5 11.5h370q16 0 25.5 -11.5t6.5 -27.5l-126 -651 q-51 -258 -252.5 -391t-511.5 -133z" />
<glyph unicode="v" horiz-adv-x="1536" d="M939 0h-542q-15 0 -28 10t-15 23l-195 1104q-4 20 11 36.5t37 16.5h388q11 0 21 -8.5t11 -19.5l100 -854l432 854q6 11 19.5 19.5t24.5 8.5h388q22 0 30.5 -16.5t-2.5 -36.5l-625 -1104q-8 -14 -24.5 -23.5t-30.5 -9.5z" />
<glyph unicode="w" horiz-adv-x="2112" d="M971 1190h432q13 0 23.5 -9.5t10.5 -22.5l-3 -818l336 819q5 13 18.5 22t26.5 9h356q21 0 29.5 -15t-0.5 -35l-537 -1112q-5 -11 -17.5 -19.5t-24.5 -8.5h-480q-14 0 -23.5 10t-8.5 23l13 825l-307 -825q-5 -13 -18 -23t-26 -10h-480q-12 0 -21.5 8.5t-10.5 19.5 l-105 1112q-2 20 13 35t36 15h356q13 0 22.5 -9t10.5 -22l18 -819l315 818q4 13 18.5 22.5t27.5 9.5z" />
<glyph unicode="x" horiz-adv-x="1518" d="M830 884l270 280q26 26 63 26h370q27 0 33 -22.5t-15 -43.5l-518 -518l332 -540q13 -21 -1.5 -43.5t-41.5 -22.5h-373q-37 0 -53 26l-174 301l-290 -301q-26 -26 -63 -26h-373q-27 0 -33.5 22.5t14.5 43.5l542 540l-316 518q-13 21 2 43.5t42 22.5h370q37 0 53 -26z" />
<glyph unicode="y" horiz-adv-x="1544" d="M855 0h-366q-16 0 -25.5 11.5t-6.5 27.5l81 418l-355 670q-12 21 2.5 42t40.5 21h372q30 0 44 -29l181 -383l329 383q24 29 56 29h372q26 0 32 -21t-13 -42l-617 -670l-81 -418q-3 -16 -16.5 -27.5t-29.5 -11.5z" />
<glyph unicode="z" horiz-adv-x="1206" d="M-53 39l39 200q12 59 72 114l594 533h-474q-17 0 -26.5 12t-6.5 28l44 225q3 16 17.5 27.5t30.5 11.5h1001q16 0 25 -11.5t6 -27.5l-45 -231q-5 -24 -24 -43l-639 -575h523q16 0 26 -11.5t7 -27.5l-44 -224q-3 -16 -17 -27.5t-30 -11.5h-1047q-16 0 -25.5 11.5t-6.5 27.5 z" />
<glyph unicode="{" horiz-adv-x="996" d="M131 521l38 198q3 13 14 24.5t25 14.5q60 13 112.5 66t67.5 130l57 294q24 124 114 188t221 64h327q17 0 26.5 -11.5t5.5 -27.5l-37 -195q-4 -17 -17.5 -28.5t-30.5 -11.5h-159q-76 0 -90 -78l-51 -262q-21 -108 -88.5 -176t-178.5 -90q102 -22 143 -90t20 -176l-51 -262 q-8 -41 6.5 -59.5t53.5 -18.5h159q17 0 26.5 -11.5t5.5 -28.5l-37 -195q-4 -17 -17.5 -28t-30.5 -11h-327q-131 0 -196 64t-41 188l57 294q15 77 -17 130t-87 66q-12 3 -19 14.5t-4 24.5z" />
<glyph unicode="|" horiz-adv-x="632" d="M204 -360v1859q0 16 11.5 27.5t28.5 11.5h204q17 0 28.5 -11.5t11.5 -27.5v-1859q0 -16 -12 -28t-28 -12h-204q-16 0 -28 12t-12 28z" />
<glyph unicode="}" horiz-adv-x="996" d="M995 719l-38 -198q-3 -13 -14 -24.5t-25 -14.5q-60 -13 -112.5 -66t-67.5 -130l-57 -294q-24 -124 -114 -188t-221 -64h-327q-17 0 -26.5 11.5t-5.5 27.5l37 195q4 17 17.5 28.5t30.5 11.5h159q76 0 90 78l51 262q21 108 88.5 176t178.5 90q-102 22 -143 90t-20 176 l51 262q8 41 -6.5 59.5t-53.5 18.5h-159q-17 0 -26.5 11.5t-5.5 28.5l37 195q4 17 17.5 28t30.5 11h327q131 0 196 -64t41 -188l-57 -294q-15 -77 17 -130t87 -66q12 -3 19 -14.5t4 -24.5z" />
<glyph unicode="~" horiz-adv-x="1296" d="M722 494q-111 50 -183 50q-28 0 -50 -15.5t-28 -48.5q-3 -13 -14 -22.5t-24 -9.5h-263q-17 0 -29 12t-11 29q8 195 84.5 295t212.5 100q103 0 217 -50q111 -50 183 -50q28 0 50 15.5t28 48.5q3 13 14 22.5t24 9.5h263q17 0 29 -12t11 -29q-8 -195 -84.5 -295t-212.5 -100 q-103 0 -217 50z" />
<glyph unicode="&#xa1;" horiz-adv-x="772" d="M239 1008q19 93 83.5 137.5t194.5 44.5t177.5 -44.5t28.5 -137.5q-18 -93 -82.5 -137.5t-194.5 -44.5t-177.5 44.5t-29.5 137.5zM66 83l169 601q5 15 18 25.5t28 10.5h288q15 0 24.5 -10.5t7.5 -25.5l-63 -601l-55 -279q-3 -17 -17 -28.5t-30 -11.5h-392q-17 0 -26.5 12 t-6.5 28z" />
<glyph unicode="&#xa2;" horiz-adv-x="1292" d="M1126 28q-138 -42 -331 -50l-33 -173q-4 -16 -17.5 -27.5t-29.5 -11.5h-174q-16 0 -25.5 11.5t-5.5 27.5l35 181q-281 36 -406.5 194.5t-75.5 413.5t236.5 414t482.5 196l35 181q3 16 16.5 27.5t29.5 11.5h174q16 0 25.5 -11.5t6.5 -27.5l-34 -174q168 -9 297 -52 q12 -4 18.5 -17t2.5 -26l-61 -211q-6 -20 -23.5 -31.5t-35.5 -4.5q-118 41 -249 41q-406 0 -467 -316q-30 -156 58.5 -236t292.5 -80q138 0 268 42q20 7 34 -2.5t12 -29.5l-22 -219q-1 -13 -11 -25t-23 -16z" />
<glyph unicode="&#xa3;" horiz-adv-x="1384" d="M734 782h352q17 0 26 -11.5t6 -28.5l-15 -74q-3 -17 -16.5 -28.5t-30.5 -11.5h-352l-20 -102q-12 -62 -48.5 -122.5t-98.5 -95.5h736q17 0 26.5 -11.5t6.5 -27.5l-45 -229q-3 -17 -17 -28.5t-30 -11.5h-1233q-16 0 -25.5 11.5t-6.5 28.5l47 238q4 22 29 35 q71 35 118.5 85.5t58.5 107.5l24 122h-123q-17 0 -26 11.5t-6 28.5l15 74q3 17 16.5 28.5t30.5 11.5h123l37 192q45 233 214.5 341.5t475.5 108.5q247 0 414 -61q11 -4 17 -17t2 -25l-62 -217q-5 -20 -23.5 -30t-36.5 -3q-97 41 -242 41q-141 0 -205 -37.5t-79 -116.5z" />
<glyph unicode="&#xa4;" horiz-adv-x="1474" d="M574 664q0 -106 51.5 -167t141.5 -61t141.5 61t51.5 167t-51.5 167t-141.5 61t-141.5 -61t-51.5 -167zM1306 664q0 -128 -58 -245l113 -114q11 -11 11 -27.5t-11 -27.5l-160 -168q-11 -11 -27.5 -11t-28.5 11l-126 130q-127 -52 -252 -52t-252 52l-126 -130 q-12 -11 -28.5 -11t-27.5 11l-160 168q-11 11 -11 27.5t11 27.5l113 114q-58 117 -58 245t58 245l-113 114q-11 11 -11 27.5t11 27.5l160 168q11 11 27.5 11t28.5 -11l126 -130q127 52 252 52t252 -52l126 130q12 11 28.5 11t27.5 -11l160 -168q11 -11 11 -27.5t-11 -27.5 l-113 -114q58 -117 58 -245z" />
<glyph unicode="&#xa5;" horiz-adv-x="1620" d="M911 0h-402q-16 0 -25.5 11.5t-6.5 28.5l48 248h-354q-16 0 -25.5 11.5t-6.5 28.5l12 58q3 17 17 28.5t30 11.5h354l24 124h-354q-16 0 -25.5 11.5t-6.5 28.5l11 58q4 17 18 28.5t30 11.5h270l-294 647q-10 22 5.5 43.5t40.5 21.5h392q8 0 18 -6.5t13 -14.5l183 -519 l385 519q6 8 18.5 14.5t20.5 6.5h392q25 0 32 -21.5t-12 -43.5l-546 -647h270q17 0 26.5 -12t5.5 -28l-11 -58q-3 -16 -17 -28t-31 -12h-354l-24 -124h354q17 0 26.5 -12t6.5 -28l-12 -58q-3 -16 -17 -28t-31 -12h-354l-48 -248q-3 -17 -16.5 -28.5t-29.5 -11.5z" />
<glyph unicode="&#xa6;" horiz-adv-x="632" d="M204 741v614q0 16 11.5 27.5t28.5 11.5h204q17 0 28.5 -11.5t11.5 -27.5v-614q0 -16 -11.5 -27.5t-28.5 -11.5h-204q-17 0 -28.5 11.5t-11.5 27.5zM204 -178v610q0 16 12 28t28 12h204q16 0 28 -12t12 -28v-610q0 -16 -12 -28t-28 -12h-204q-16 0 -28 12t-12 28z" />
<glyph unicode="&#xa7;" horiz-adv-x="1324" d="M686 508q65 15 105 44t47 68q7 35 -35.5 67t-114.5 45q-65 -15 -106 -44t-48 -68q-7 -35 36 -67t116 -45zM58 -133q-11 4 -16.5 15.5t-2.5 23.5l48 184q5 21 24.5 31.5t38.5 2.5q135 -60 318 -60q105 0 150 16.5t51 51.5q7 39 -43.5 71t-195.5 69q-160 41 -238 121.5 t-55 202.5q19 94 83.5 163.5t152.5 104.5q-84 33 -120 99t-18 155q26 136 177 221t428 85q265 0 448 -67q11 -4 17 -16.5t2 -24.5l-53 -171q-6 -20 -23 -30.5t-36 -3.5q-113 47 -306 47q-183 0 -196 -68q-7 -38 47.5 -66.5t197.5 -65.5q161 -43 237 -121.5t51 -204.5 q-17 -92 -79.5 -160.5t-153.5 -105.5q78 -30 115 -96t21 -150q-29 -148 -179.5 -234t-432.5 -86q-271 0 -459 67z" />
<glyph unicode="&#xa8;" horiz-adv-x="1036" d="M234 1290q16 80 64 118t133 38t118 -38t17 -118q-29 -156 -196 -156q-85 0 -118 38t-18 118zM770 1290q16 80 64 118t133 38t118 -38t17 -118q-29 -156 -196 -156q-85 0 -118 38t-18 118z" />
<glyph unicode="&#xa9;" horiz-adv-x="1660" d="M1584 700q0 -197 -97 -363.5t-263.5 -263.5t-363.5 -97t-363.5 97t-263.5 263.5t-97 363.5t97 363.5t263.5 263.5t363.5 97t363.5 -97t263.5 -263.5t97 -363.5zM1472 700q0 169 -82 312t-223 225.5t-307 82.5t-307 -82.5t-223 -225.5t-82 -312t82 -312t223 -225.5 t307 -82.5t307 82.5t223 225.5t82 312zM1148 295q-92 -33 -222 -33q-231 0 -364.5 115t-133.5 319q0 203 132 318.5t350 115.5q134 0 239 -42q11 -5 18.5 -17t6.5 -24l-12 -121q-2 -22 -19 -31t-37 -1q-56 24 -130 24q-85 0 -138.5 -60t-53.5 -162q0 -104 55.5 -163 t152.5 -59q63 0 115 19q20 8 37 -2t18 -32l11 -124q1 -12 -6 -24t-19 -16z" />
<glyph unicode="&#xaa;" horiz-adv-x="1092" d="M711 768h-232l-45 -100q-5 -12 -17.5 -21t-25.5 -9h-257q-22 0 -30 16t3 36l364 683q6 11 19.5 19t24.5 8h406q11 0 20.5 -8t11.5 -19l100 -683q2 -21 -12 -36.5t-35 -15.5h-257q-13 0 -23 9t-10 21zM561 952h140l-18 272z" />
<glyph unicode="&#xab;" horiz-adv-x="1110" d="M140 541v166q0 37 21 56l357 330q20 19 43 9.5t23 -37.5v-205q0 -37 -18 -54l-202 -182l202 -182q18 -17 18 -54v-205q0 -28 -23 -37.5t-43 9.5l-357 330q-21 19 -21 56zM606 541v166q0 37 21 56l357 330q20 19 43 9.5t23 -37.5v-205q0 -37 -18 -54l-202 -182l202 -182 q18 -17 18 -54v-205q0 -28 -23 -37.5t-43 9.5l-357 330q-21 19 -21 56z" />
<glyph unicode="&#xac;" horiz-adv-x="1296" d="M112 680l37 194q4 17 17.5 28.5t30.5 11.5h1036q17 0 26.5 -11.5t5.5 -28.5l-103 -532q-3 -17 -17 -28.5t-31 -11.5h-268q-17 0 -26 11.5t-6 28.5l58 298h-728q-17 0 -26.5 11.5t-5.5 28.5z" />
<glyph unicode="&#xad;" horiz-adv-x="838" d="M708 516h-579q-17 0 -26 12t-5 28l41 214q3 17 17 28.5t30 11.5h579q16 0 25.5 -11.5t6.5 -28.5l-41 -214q-4 -17 -18 -28.5t-30 -11.5z" />
<glyph unicode="&#xae;" horiz-adv-x="1660" d="M954 840q0 86 -80 86h-94v-172h94q80 0 80 86zM1584 700q0 -197 -97 -363.5t-263.5 -263.5t-363.5 -97t-363.5 97t-263.5 263.5t-97 363.5t97 363.5t263.5 263.5t363.5 97t363.5 -97t263.5 -263.5t97 -363.5zM1472 700q0 169 -82 312t-223 225.5t-307 82.5t-307 -82.5 t-223 -225.5t-82 -312t82 -312t223 -225.5t307 -82.5t307 82.5t223 225.5t82 312zM553 1116h341q162 0 254 -71.5t92 -204.5q0 -179 -152 -242l175 -254q15 -21 4.5 -41.5t-36.5 -20.5h-227q-8 0 -19 6.5t-15 13.5l-142 250h-48v-231q0 -17 -11 -28t-28 -11h-188 q-17 0 -28 11t-11 28v756q0 17 11 28t28 11z" />
<glyph unicode="&#xaf;" horiz-adv-x="1036" d="M294 1218l28 142q3 16 17 28t31 12h641q16 0 25 -11.5t6 -28.5l-28 -142q-3 -17 -17 -28.5t-30 -11.5h-641q-16 0 -25.5 11.5t-6.5 28.5z" />
<glyph unicode="&#xb0;" horiz-adv-x="1036" d="M958 1112q-26 -134 -136 -223t-249 -89t-214 89t-49 223t135.5 223t248.5 89t214.5 -89t49.5 -223zM524 1112q-10 -48 15 -80t73 -32t85 32t47 80q9 48 -16 80t-73 32t-85 -32t-46 -80z" />
<glyph unicode="&#xb1;" horiz-adv-x="1296" d="M504 352v302h-344q-17 0 -28.5 11.5t-11.5 27.5v195q0 16 12 28t28 12h344v302q0 17 11.5 28.5t27.5 11.5h269q16 0 28 -12t12 -28v-302h344q16 0 28 -12t12 -28v-195q0 -16 -11.5 -27.5t-28.5 -11.5h-344v-302q0 -16 -12 -28t-28 -12h-269q-16 0 -27.5 11.5t-11.5 28.5z M1196 10h-1036q-16 0 -28 12t-12 28v195q0 16 11.5 27.5t28.5 11.5h1036q17 0 28.5 -11.5t11.5 -27.5v-195q0 -16 -12 -28t-28 -12z" />
<glyph unicode="&#xb2;" horiz-adv-x="988" d="M659 1100q10 54 -28 77t-137 23q-104 0 -188 -25q-21 -6 -34 5.5t-11 31.5l13 120q2 13 12.5 25.5t23.5 16.5q133 42 310 42q213 0 304 -78t63 -220q-32 -162 -204 -293q-113 -88 -241 -143h318q17 0 26.5 -11.5t5.5 -27.5l-25 -133q-4 -17 -18 -28.5t-30 -11.5h-700 q-17 0 -26.5 12t-5.5 28l25 133q4 20 26 33q191 111 330 211q92 67 137 115t54 98z" />
<glyph unicode="&#xb3;" horiz-adv-x="988" d="M113 494q-12 4 -18.5 16t-2.5 25l37 128q6 21 24 31t36 3q99 -39 216 -39q198 0 215 84q11 56 -61.5 85t-241.5 31q-15 0 -22.5 12t-4.5 28l22 112q3 16 17 28t31 12q162 2 238.5 25.5t85.5 68.5q7 34 -32.5 50t-132.5 16q-104 0 -217 -29q-19 -5 -31.5 5t-11.5 29l9 116 q4 33 31 42q147 43 334 43q199 0 297.5 -65.5t74.5 -192.5q-30 -150 -194 -204q75 -26 108.5 -81t18.5 -131q-27 -136 -163.5 -212t-352.5 -76q-190 0 -309 40z" />
<glyph unicode="&#xb4;" horiz-adv-x="1036" d="M399 1185l274 260q16 15 51 15h293q18 0 26 -13t4 -30t-18 -26l-350 -239q-44 -32 -93 -32h-170q-27 0 -32.5 22.5t15.5 42.5z" />
<glyph unicode="&#xb5;" horiz-adv-x="1880" d="M1027 338h-244q-15 0 -31 7t-20 16l-190 362l-133 -684q-3 -16 -16.5 -27.5t-29.5 -11.5h-314q-16 0 -25.5 11.5t-6.5 27.5l216 1112q3 16 17 27.5t30 11.5h419q31 0 43 -23l234 -465l414 465q21 23 53 23h419q16 0 25 -11.5t6 -27.5l-216 -1112q-3 -16 -16.5 -27.5 t-29.5 -11.5h-314q-16 0 -25.5 11.5t-6.5 27.5l133 684l-330 -362q-9 -9 -27.5 -16t-33.5 -7z" />
<glyph unicode="&#xb6;" horiz-adv-x="1310" d="M1210 1400v-1623q0 -16 -11.5 -27.5t-28.5 -11.5h-209q-17 0 -28 11t-11 28v1387h-76v-1387q0 -16 -11.5 -27.5t-28.5 -11.5h-212q-17 0 -28.5 11.5t-11.5 27.5v755q-208 0 -336 115.5t-128 318.5t126.5 318.5t327.5 115.5h666z" />
<glyph unicode="&#xb7;" horiz-adv-x="736" d="M183 664q39 200 252 200q215 0 176 -200t-253 -200t-175 200z" />
<glyph unicode="&#xb8;" horiz-adv-x="1036" d="M526 -61l-44 -51q69 -10 106.5 -56.5t26.5 -103.5q-40 -204 -392 -204q-75 0 -115 6q-13 2 -21 13.5t-5 26.5l15 79q4 19 20 30.5t34 8.5q38 -6 65 -6q134 0 144 51q5 28 -30.5 46.5t-119.5 23.5q-24 2 -31 20.5t10 38.5l101 119q15 18 38 18h175q25 0 33 -19.5 t-10 -40.5z" />
<glyph unicode="&#xb9;" horiz-adv-x="988" d="M249 1196l313 186q35 20 67 20h216q17 0 26 -11.5t5 -27.5l-166 -854q-3 -17 -16.5 -28t-29.5 -11h-239q-16 0 -25 11.5t-6 27.5l118 603l-178 -103q-16 -8 -30.5 -4.5t-20.5 16.5l-57 120q-7 13 0 29.5t23 25.5z" />
<glyph unicode="&#xba;" horiz-adv-x="1092" d="M1130 1020q-35 -179 -190 -287.5t-373 -108.5t-331 108.5t-78 287.5q34 179 189.5 287.5t373.5 108.5t330.5 -108.5t78.5 -287.5zM498 1020q-39 -196 108 -196q145 0 184 196q37 196 -108 196q-147 0 -184 -196z" />
<glyph unicode="&#xbb;" horiz-adv-x="1110" d="M1037 707l-32 -166q-7 -36 -32 -56l-421 -330q-24 -19 -45 -9.5t-16 37.5l40 205q7 37 28 54l238 182l-167 182q-14 17 -7 54l40 205q5 28 30 37.5t41 -9.5l293 -330q17 -20 10 -56zM571 707l-32 -166q-7 -36 -32 -56l-421 -330q-24 -19 -45 -9.5t-16 37.5l40 205 q7 37 28 54l238 182l-167 182q-14 17 -7 54l40 205q5 28 30 37.5t41 -9.5l293 -330q17 -20 10 -56z" />
<glyph unicode="&#xbc;" horiz-adv-x="2370" d="M1897 1370l-1151 -1366q-28 -34 -70 -34h-101q-25 0 -31.5 19.5t10.5 40.5l1151 1366q28 34 70 34h101q25 0 31.5 -19.5t-10.5 -40.5zM249 1196l313 186q35 20 67 20h216q17 0 26 -11.5t5 -27.5l-166 -854q-3 -17 -16.5 -28t-29.5 -11h-239q-16 0 -25 11.5t-6 27.5 l118 603l-178 -103q-16 -8 -30.5 -4.5t-20.5 16.5l-57 120q-7 13 0 29.5t23 25.5zM1334 200l24 123q14 66 73 122l504 471q4 4 15 9t16 5h264q17 0 26.5 -12t5.5 -28l-98 -506h75q17 0 26 -12t5 -28l-28 -144q-3 -17 -16.5 -28.5t-29.5 -11.5h-75l-24 -120 q-3 -17 -16.5 -28.5t-30.5 -11.5h-224q-17 0 -26.5 11.5t-6.5 28.5l24 120h-451q-16 0 -25.5 11.5t-6.5 28.5zM1911 646l-277 -262h226z" />
<glyph unicode="&#xbd;" horiz-adv-x="2370" d="M1817 1370l-1151 -1366q-28 -34 -70 -34h-101q-25 0 -31.5 19.5t10.5 40.5l1151 1366q28 34 70 34h101q25 0 31.5 -19.5t-10.5 -40.5zM249 1196l313 186q35 20 67 20h216q17 0 26 -11.5t5 -27.5l-166 -854q-3 -17 -16.5 -28t-29.5 -11h-239q-16 0 -25 11.5t-6 27.5 l118 603l-178 -103q-16 -8 -30.5 -4.5t-20.5 16.5l-57 120q-7 13 0 29.5t23 25.5zM1942 628q10 54 -28.5 77t-137.5 23q-104 0 -188 -25q-20 -6 -33.5 5.5t-11.5 31.5l14 120q1 12 11.5 24.5t23.5 17.5q133 42 310 42q213 0 304 -78t63 -220q-32 -163 -204 -293 q-113 -88 -241 -143h318q17 0 26.5 -11.5t6.5 -27.5l-26 -133q-3 -16 -17 -28t-31 -12h-700q-16 0 -25.5 11.5t-6.5 28.5l26 133q4 20 25 33q191 111 330 211q92 67 137 115t55 98z" />
<glyph unicode="&#xbe;" horiz-adv-x="2370" d="M1931 1370l-1151 -1366q-28 -34 -70 -34h-101q-25 0 -31.5 19.5t10.5 40.5l1151 1366q28 34 70 34h101q25 0 31.5 -19.5t-10.5 -40.5zM113 494q-12 4 -18.5 16t-2.5 25l37 128q6 21 24 31t36 3q99 -39 216 -39q198 0 215 84q11 56 -61.5 85t-241.5 31q-15 0 -22.5 12 t-4.5 28l22 112q3 16 17 28t31 12q162 2 238.5 25.5t85.5 68.5q7 34 -32.5 50t-132.5 16q-104 0 -217 -29q-19 -5 -31.5 5t-11.5 29l9 116q4 33 31 42q147 43 334 43q199 0 297.5 -65.5t74.5 -192.5q-30 -150 -194 -204q75 -26 108.5 -81t18.5 -131q-27 -136 -163.5 -212 t-352.5 -76q-190 0 -309 40zM1334 200l24 123q14 66 73 122l504 471q4 4 15 9t16 5h264q17 0 26.5 -12t5.5 -28l-98 -506h75q17 0 26 -12t5 -28l-28 -144q-3 -17 -16.5 -28.5t-29.5 -11.5h-75l-24 -120q-3 -17 -16.5 -28.5t-30.5 -11.5h-224q-17 0 -26.5 11.5t-6.5 28.5 l24 120h-451q-16 0 -25.5 11.5t-6.5 28.5zM1911 646l-277 -262h226z" />
<glyph unicode="&#xbf;" horiz-adv-x="1292" d="M540 660l6 30q3 17 16 28.5t29 11.5h362q17 0 26.5 -12t6.5 -28l-9 -42q-26 -136 -91 -221.5t-189 -138.5q-95 -40 -134 -71t-47 -71q-9 -44 37.5 -65t177.5 -21q155 0 335 55q21 7 34.5 -3.5t11.5 -31.5l-22 -226q-2 -30 -28 -39q-103 -34 -231.5 -54.5t-243.5 -20.5 q-316 0 -453 97t-101 285q47 236 347 372q78 36 113.5 74t46.5 92zM1069 1008q-18 -93 -82.5 -137.5t-194.5 -44.5t-177.5 44.5t-29.5 137.5q19 93 83.5 137.5t194.5 44.5t177.5 -44.5t28.5 -137.5z" />
<glyph unicode="&#xc0;" horiz-adv-x="1728" d="M544 262h540l27 -209q7 -53 56 -53h401q23 0 37.5 16.5t10.5 38.5l-243 1306q-3 17 -15.5 28t-31.5 11h-580q-39 0 -63 -39l-751 -1306q-12 -22 -3.5 -38.5t31.5 -16.5h401q48 0 76 53zM1041 586h-328l262 504zM1041 1833l173 -260q14 -20 -0.5 -42.5t-41.5 -22.5h-170 q-49 0 -81 32l-257 239q-16 14 -2 41.5t41 27.5h293q35 0 45 -15z" />
<glyph unicode="&#xc1;" horiz-adv-x="1728" d="M1084 262h-540l-107 -209q-28 -53 -76 -53h-401q-23 0 -31.5 16.5t3.5 38.5l751 1306q24 39 63 39h580q19 0 31.5 -11t15.5 -28l243 -1306q4 -22 -10.5 -38.5t-37.5 -16.5h-401q-49 0 -56 53zM713 586h328l-66 504zM878 1573l275 260q15 15 51 15h293q18 0 26 -13 t3.5 -30t-18.5 -26l-349 -239q-44 -32 -93 -32h-170q-27 0 -33 22.5t15 42.5z" />
<glyph unicode="&#xc2;" horiz-adv-x="1728" d="M1084 262h-540l-107 -209q-28 -53 -76 -53h-401q-23 0 -31.5 16.5t3.5 38.5l751 1306q24 39 63 39h580q19 0 31.5 -11t15.5 -28l243 -1306q4 -22 -10.5 -38.5t-37.5 -16.5h-401q-49 0 -56 53zM713 586h328l-66 504zM953 1848h340q6 0 15 -5t12 -10l154 -260 q13 -21 -2 -43t-41 -22h-190q-27 0 -38 14l-116 142l-172 -142q-17 -14 -42 -14h-190q-26 0 -32.5 22t13.5 43l256 260q4 5 15.5 10t17.5 5z" />
<glyph unicode="&#xc3;" horiz-adv-x="1728" d="M544 262h540l27 -209q7 -53 56 -53h401q23 0 37.5 16.5t10.5 38.5l-243 1306q-3 17 -15.5 28t-31.5 11h-580q-39 0 -63 -39l-751 -1306q-12 -22 -3.5 -38.5t31.5 -16.5h401q48 0 76 53zM1041 586h-328l262 504zM1081 1554q-73 38 -118 38q-71 0 -93 -43q-6 -11 -19 -19 t-24 -8h-123q-17 0 -26.5 12t-5.5 29q33 133 108 202t170 69q81 0 147 -36q73 -38 118 -38q69 0 93 43q6 11 18.5 19t23.5 8h123q17 0 26.5 -12t5.5 -29q-33 -133 -107.5 -202t-169.5 -69q-81 0 -147 36z" />
<glyph unicode="&#xc4;" horiz-adv-x="1728" d="M544 262h540l27 -209q7 -53 56 -53h401q23 0 37.5 16.5t10.5 38.5l-243 1306q-3 17 -15.5 28t-31.5 11h-580q-39 0 -63 -39l-751 -1306q-12 -22 -3.5 -38.5t31.5 -16.5h401q48 0 76 53zM1041 586h-328l262 504zM656 1678q29 156 196 156q85 0 118 -38t18 -118 q-16 -80 -64 -118t-133 -38t-118 38t-17 118zM1192 1678q29 156 196 156q85 0 118 -38t18 -118q-16 -80 -64 -118t-133 -38t-118 38t-17 118z" />
<glyph unicode="&#xc5;" horiz-adv-x="1728" d="M544 262h540l27 -209q7 -53 56 -53h401q23 0 37.5 16.5t10.5 38.5l-243 1306q-3 17 -15.5 28t-31.5 11h-580q-39 0 -63 -39l-751 -1306q-12 -22 -3.5 -38.5t31.5 -16.5h401q48 0 76 53zM1041 586h-328l262 504zM1358 1678q-21 -108 -112.5 -183t-205.5 -75t-176.5 75 t-41.5 183t112.5 183t205.5 75t176.5 -75t41.5 -183zM1008 1678q-7 -36 12 -59t54 -23t63 23t35 59t-12 59t-54 23t-63 -23t-35 -59z" />
<glyph unicode="&#xc6;" horiz-adv-x="2280" d="M396 0h-425q-25 0 -33 19t8 41l977 1319q6 8 18.5 14.5t21.5 6.5h1353q16 0 25.5 -12t6.5 -29l-44 -227q-4 -17 -18 -28.5t-30 -11.5h-580l-45 -230h528q17 0 26.5 -12t5.5 -28l-44 -228q-3 -16 -17 -28t-31 -12h-528l-48 -246h596q17 0 26.5 -12t6.5 -28l-45 -227 q-3 -17 -16.5 -29t-30.5 -12h-1015q-17 0 -27 12t-7 29l43 221h-444l-166 -233q-20 -29 -48 -29zM1115 576l107 548l-391 -548h284z" />
<glyph unicode="&#xc7;" horiz-adv-x="1508" d="M1319 33q-157 -45 -358 -54l-75 -91q69 -10 106.5 -56.5t26.5 -103.5q-40 -204 -392 -204q-75 0 -115 6q-13 2 -21 13.5t-5 26.5l15 79q4 19 20 30.5t34 8.5q38 -6 65 -6q134 0 144 51q5 28 -30.5 46.5t-119.5 23.5q-24 2 -31 20.5t10 38.5l103 122q-345 36 -500.5 223.5 t-95.5 492.5q66 340 339 532t699 192q248 0 428 -60q16 -5 23.5 -20.5t2.5 -34.5l-64 -221q-6 -20 -24 -31t-37 -4q-128 47 -300 47q-502 0 -579 -400q-39 -199 71 -299.5t361 -100.5q172 0 322 47q21 7 35 -3.5t12 -31.5l-22 -224q-2 -19 -16 -34.5t-32 -20.5z" />
<glyph unicode="&#xc8;" horiz-adv-x="1430" d="M37 41l257 1318q3 17 17.5 29t31.5 12h1125q16 0 25.5 -12t6.5 -29l-44 -227q-4 -17 -18 -28.5t-30 -11.5h-686l-45 -230h634q17 0 26.5 -11.5t5.5 -28.5l-44 -228q-3 -17 -17 -28.5t-31 -11.5h-634l-47 -245h700q17 0 26 -11.5t6 -28.5l-45 -228q-3 -17 -16.5 -29 t-30.5 -12h-1139q-17 0 -27 12t-7 29zM971 1833l173 -260q14 -20 -0.5 -42.5t-41.5 -22.5h-170q-49 0 -81 32l-257 239q-16 14 -2 41.5t41 27.5h293q35 0 45 -15z" />
<glyph unicode="&#xc9;" horiz-adv-x="1430" d="M37 41l257 1318q3 17 17.5 29t31.5 12h1125q16 0 25.5 -12t6.5 -29l-44 -227q-4 -17 -18 -28.5t-30 -11.5h-686l-45 -230h634q17 0 26.5 -11.5t5.5 -28.5l-44 -228q-3 -17 -17 -28.5t-31 -11.5h-634l-47 -245h700q17 0 26 -11.5t6 -28.5l-45 -228q-3 -17 -16.5 -29 t-30.5 -12h-1139q-17 0 -27 12t-7 29zM742 1573l275 260q15 15 51 15h293q18 0 26 -13t3.5 -30t-18.5 -26l-349 -239q-44 -32 -93 -32h-170q-27 0 -33 22.5t15 42.5z" />
<glyph unicode="&#xca;" horiz-adv-x="1430" d="M37 41l257 1318q3 17 17.5 29t31.5 12h1125q16 0 25.5 -12t6.5 -29l-44 -227q-4 -17 -18 -28.5t-30 -11.5h-686l-45 -230h634q17 0 26.5 -11.5t5.5 -28.5l-44 -228q-3 -17 -17 -28.5t-31 -11.5h-634l-47 -245h700q17 0 26 -11.5t6 -28.5l-45 -228q-3 -17 -16.5 -29 t-30.5 -12h-1139q-17 0 -27 12t-7 29zM825 1848h340q6 0 15 -5t12 -10l154 -260q13 -21 -2 -43t-41 -22h-190q-27 0 -38 14l-116 142l-172 -142q-17 -14 -42 -14h-190q-26 0 -32.5 22t13.5 43l256 260q4 5 15.5 10t17.5 5z" />
<glyph unicode="&#xcb;" horiz-adv-x="1430" d="M37 41l257 1318q3 17 17.5 29t31.5 12h1125q16 0 25.5 -12t6.5 -29l-44 -227q-4 -17 -18 -28.5t-30 -11.5h-686l-45 -230h634q17 0 26.5 -11.5t5.5 -28.5l-44 -228q-3 -17 -17 -28.5t-31 -11.5h-634l-47 -245h700q17 0 26 -11.5t6 -28.5l-45 -228q-3 -17 -16.5 -29 t-30.5 -12h-1139q-17 0 -27 12t-7 29zM526 1678q29 156 196 156q85 0 118 -38t18 -118q-16 -80 -64 -118t-133 -38t-118 38t-17 118zM1062 1678q29 156 196 156q85 0 118 -38t18 -118q-16 -80 -64 -118t-133 -38t-118 38t-17 118z" />
<glyph unicode="&#xcc;" horiz-adv-x="760" d="M353 1400h398q17 0 26.5 -12t6.5 -29l-257 -1318q-3 -17 -17 -29t-31 -12h-398q-17 0 -27 12t-7 29l257 1318q3 17 17.5 29t31.5 12zM541 1833l173 -260q14 -20 -0.5 -42.5t-41.5 -22.5h-170q-49 0 -81 32l-257 239q-16 14 -2 41.5t41 27.5h293q35 0 45 -15z" />
<glyph unicode="&#xcd;" horiz-adv-x="760" d="M353 1400h398q17 0 26.5 -12t6.5 -29l-257 -1318q-3 -17 -17 -29t-31 -12h-398q-17 0 -27 12t-7 29l257 1318q3 17 17.5 29t31.5 12zM456 1573l275 260q15 15 51 15h293q18 0 26 -13t3.5 -30t-18.5 -26l-349 -239q-44 -32 -93 -32h-170q-27 0 -33 22.5t15 42.5z" />
<glyph unicode="&#xce;" horiz-adv-x="760" d="M353 1400h398q17 0 26.5 -12t6.5 -29l-257 -1318q-3 -17 -17 -29t-31 -12h-398q-17 0 -27 12t-7 29l257 1318q3 17 17.5 29t31.5 12zM469 1848h340q6 0 15 -5t12 -10l154 -260q13 -21 -2 -43t-41 -22h-190q-27 0 -38 14l-116 142l-172 -142q-17 -14 -42 -14h-190 q-26 0 -32.5 22t13.5 43l256 260q4 5 15.5 10t17.5 5z" />
<glyph unicode="&#xcf;" horiz-adv-x="760" d="M353 1400h398q17 0 26.5 -12t6.5 -29l-257 -1318q-3 -17 -17 -29t-31 -12h-398q-17 0 -27 12t-7 29l257 1318q3 17 17.5 29t31.5 12zM172 1678q29 156 196 156q85 0 118 -38t18 -118q-16 -80 -64 -118t-133 -38t-118 38t-17 118zM708 1678q29 156 196 156q85 0 118 -38 t18 -118q-16 -80 -64 -118t-133 -38t-118 38t-17 118z" />
<glyph unicode="&#xd0;" horiz-adv-x="1700" d="M672 0h-582q-17 0 -26.5 12t-6.5 29l111 567h-97q-17 0 -27 11.5t-7 28.5l20 102q4 17 18 28.5t31 11.5h97l111 569q3 17 17 29t31 12h582q405 0 599.5 -179t128.5 -521q-45 -229 -182 -387.5t-344 -235.5t-474 -77zM1188 700q41 212 -36 302t-274 90h-136l-59 -302h224 q17 0 26.5 -11.5t5.5 -28.5l-20 -102q-3 -17 -17 -28.5t-30 -11.5h-224l-59 -300h136q197 0 309 89.5t154 302.5z" />
<glyph unicode="&#xd1;" horiz-adv-x="1810" d="M1036 18l-416 839l-159 -816q-3 -17 -17 -29t-31 -12h-343q-17 0 -26.5 12t-6.5 29l257 1318q3 17 17 29t31 12h473q7 0 16.5 -6t12.5 -12l417 -837l159 814q3 17 17 29t31 12h344q17 0 26 -12t6 -29l-257 -1318q-3 -17 -16.5 -29t-30.5 -12h-474q-7 0 -17 6t-13 12z M1121 1554q-73 38 -118 38q-71 0 -93 -43q-6 -11 -19 -19t-24 -8h-123q-17 0 -26.5 12t-5.5 29q33 133 108 202t170 69q81 0 147 -36q73 -38 118 -38q69 0 93 43q6 11 18.5 19t23.5 8h123q17 0 26.5 -12t5.5 -29q-33 -133 -107.5 -202t-169.5 -69q-81 0 -147 36z" />
<glyph unicode="&#xd2;" horiz-adv-x="1772" d="M1744 700q-31 -158 -109.5 -289.5t-198.5 -229t-288 -151.5t-367 -54q-133 0 -244 24.5t-191.5 70t-139 110.5t-87 145.5t-35.5 175t16 198.5q31 158 109 289.5t198 229t288 151.5t367 54q133 0 244 -24.5t191.5 -70t139 -110.5t87 -145.5t35.5 -174.5t-15 -199z M1260 700q39 203 -26 307.5t-232 104.5q-168 0 -273.5 -104.5t-144.5 -307.5q-40 -203 24.5 -307.5t232.5 -104.5t273.5 104.5t145.5 307.5zM1111 1833l173 -260q14 -20 -0.5 -42.5t-41.5 -22.5h-170q-49 0 -81 32l-257 239q-16 14 -2 41.5t41 27.5h293q35 0 45 -15z" />
<glyph unicode="&#xd3;" horiz-adv-x="1772" d="M1744 700q-31 -158 -109.5 -289.5t-198.5 -229t-288 -151.5t-367 -54q-133 0 -244 24.5t-191.5 70t-139 110.5t-87 145.5t-35.5 175t16 198.5q31 158 109 289.5t198 229t288 151.5t367 54q133 0 244 -24.5t191.5 -70t139 -110.5t87 -145.5t35.5 -174.5t-15 -199z M1260 700q39 203 -26 307.5t-232 104.5q-168 0 -273.5 -104.5t-144.5 -307.5q-40 -203 24.5 -307.5t232.5 -104.5t273.5 104.5t145.5 307.5zM898 1573l275 260q15 15 51 15h293q18 0 26 -13t3.5 -30t-18.5 -26l-349 -239q-44 -32 -93 -32h-170q-27 0 -33 22.5t15 42.5z" />
<glyph unicode="&#xd4;" horiz-adv-x="1772" d="M1744 700q-31 -158 -109.5 -289.5t-198.5 -229t-288 -151.5t-367 -54q-133 0 -244 24.5t-191.5 70t-139 110.5t-87 145.5t-35.5 175t16 198.5q31 158 109 289.5t198 229t288 151.5t367 54q133 0 244 -24.5t191.5 -70t139 -110.5t87 -145.5t35.5 -174.5t-15 -199z M1260 700q39 203 -26 307.5t-232 104.5q-168 0 -273.5 -104.5t-144.5 -307.5q-40 -203 24.5 -307.5t232.5 -104.5t273.5 104.5t145.5 307.5zM975 1848h340q6 0 15 -5t12 -10l154 -260q13 -21 -2 -43t-41 -22h-190q-27 0 -38 14l-116 142l-172 -142q-17 -14 -42 -14h-190 q-26 0 -32.5 22t13.5 43l256 260q4 5 15.5 10t17.5 5z" />
<glyph unicode="&#xd5;" horiz-adv-x="1772" d="M1744 700q-31 -158 -109.5 -289.5t-198.5 -229t-288 -151.5t-367 -54q-133 0 -244 24.5t-191.5 70t-139 110.5t-87 145.5t-35.5 175t16 198.5q31 158 109 289.5t198 229t288 151.5t367 54q133 0 244 -24.5t191.5 -70t139 -110.5t87 -145.5t35.5 -174.5t-15 -199z M1260 700q39 203 -26 307.5t-232 104.5q-168 0 -273.5 -104.5t-144.5 -307.5q-40 -203 24.5 -307.5t232.5 -104.5t273.5 104.5t145.5 307.5zM1103 1554q-73 38 -118 38q-71 0 -93 -43q-6 -11 -19 -19t-24 -8h-123q-17 0 -26.5 12t-5.5 29q33 133 108 202t170 69 q81 0 147 -36q73 -38 118 -38q69 0 93 43q6 11 18.5 19t23.5 8h123q17 0 26.5 -12t5.5 -29q-33 -133 -107.5 -202t-169.5 -69q-81 0 -147 36z" />
<glyph unicode="&#xd6;" horiz-adv-x="1772" d="M1744 700q-31 -158 -109.5 -289.5t-198.5 -229t-288 -151.5t-367 -54q-133 0 -244 24.5t-191.5 70t-139 110.5t-87 145.5t-35.5 175t16 198.5q31 158 109 289.5t198 229t288 151.5t367 54q133 0 244 -24.5t191.5 -70t139 -110.5t87 -145.5t35.5 -174.5t-15 -199z M1260 700q39 203 -26 307.5t-232 104.5q-168 0 -273.5 -104.5t-144.5 -307.5q-40 -203 24.5 -307.5t232.5 -104.5t273.5 104.5t145.5 307.5zM678 1678q29 156 196 156q85 0 118 -38t18 -118q-16 -80 -64 -118t-133 -38t-118 38t-17 118zM1214 1678q29 156 196 156 q85 0 118 -38t18 -118q-16 -80 -64 -118t-133 -38t-118 38t-17 118z" />
<glyph unicode="&#xd7;" horiz-adv-x="1296" d="M678 874l287 257q12 10 28.5 9.5t27.5 -11.5l164 -164q12 -13 12 -31t-13 -29l-271 -242l270 -241q13 -11 13 -29t-12 -31l-164 -164q-11 -11 -27.5 -11.5t-28.5 9.5l-286 256l-286 -256q-12 -10 -28.5 -9.5t-27.5 11.5l-164 164q-12 13 -12 31t13 29l269 241l-270 242 q-13 11 -13 29t12 31l164 164q11 11 27.5 11.5t28.5 -9.5z" />
<glyph unicode="&#xd8;" horiz-adv-x="1772" d="M1744 700q-31 -158 -109.5 -289.5t-198.5 -229t-288 -151.5t-367 -54q-200 0 -355 57l-190 -216q-15 -17 -45 -17h-74q-26 0 -33.5 20.5t11.5 41.5l206 235q-138 94 -189 250t-12 353q31 158 109 289.5t198 229t288 151.5t367 54q201 0 355 -58l190 217q15 17 46 17h74 q26 0 33 -20.5t-12 -41.5l-207 -236q139 -93 190 -249t13 -353zM584 700q-35 -171 8 -273l570 649q-63 36 -160 36q-168 0 -273.5 -104.5t-144.5 -307.5zM1260 700q33 169 -9 272l-570 -649q64 -35 160 -35q168 0 273.5 104.5t145.5 307.5z" />
<glyph unicode="&#xd9;" horiz-adv-x="1786" d="M788 -24q356 0 589.5 155t291.5 455l151 773q3 17 -6.5 29t-26.5 12h-398q-17 0 -31.5 -12t-17.5 -29l-152 -779q-27 -142 -109.5 -210t-227.5 -68t-200.5 68t-28.5 210l152 779q3 17 -6.5 29t-26.5 12h-398q-17 0 -31.5 -12t-17.5 -29l-151 -773q-39 -201 29.5 -339.5 t225 -204.5t390.5 -66zM1079 1833l173 -260q14 -20 -0.5 -42.5t-41.5 -22.5h-170q-49 0 -81 32l-257 239q-16 14 -2 41.5t41 27.5h293q35 0 45 -15z" />
<glyph unicode="&#xda;" horiz-adv-x="1786" d="M788 -24q-234 0 -390.5 66t-225 204.5t-29.5 339.5l151 773q3 17 17.5 29t31.5 12h398q17 0 26.5 -12t6.5 -29l-152 -779q-27 -142 28.5 -210t200.5 -68t227.5 68t109.5 210l152 779q3 17 17.5 29t31.5 12h398q17 0 26.5 -12t6.5 -29l-151 -773q-58 -300 -291.5 -455 t-589.5 -155zM896 1573l275 260q15 15 51 15h293q18 0 26 -13t3.5 -30t-18.5 -26l-349 -239q-44 -32 -93 -32h-170q-27 0 -33 22.5t15 42.5z" />
<glyph unicode="&#xdb;" horiz-adv-x="1786" d="M788 -24q-234 0 -390.5 66t-225 204.5t-29.5 339.5l151 773q3 17 17.5 29t31.5 12h398q17 0 26.5 -12t6.5 -29l-152 -779q-27 -142 28.5 -210t200.5 -68t227.5 68t109.5 210l152 779q3 17 17.5 29t31.5 12h398q17 0 26.5 -12t6.5 -29l-151 -773q-58 -300 -291.5 -455 t-589.5 -155zM981 1848h340q6 0 15 -5t12 -10l154 -260q13 -21 -2 -43t-41 -22h-190q-27 0 -38 14l-116 142l-172 -142q-17 -14 -42 -14h-190q-26 0 -32.5 22t13.5 43l256 260q4 5 15.5 10t17.5 5z" />
<glyph unicode="&#xdc;" horiz-adv-x="1786" d="M788 -24q356 0 589.5 155t291.5 455l151 773q3 17 -6.5 29t-26.5 12h-398q-17 0 -31.5 -12t-17.5 -29l-152 -779q-27 -142 -109.5 -210t-227.5 -68t-200.5 68t-28.5 210l152 779q3 17 -6.5 29t-26.5 12h-398q-17 0 -31.5 -12t-17.5 -29l-151 -773q-39 -201 29.5 -339.5 t225 -204.5t390.5 -66zM684 1678q29 156 196 156q85 0 118 -38t18 -118q-16 -80 -64 -118t-133 -38t-118 38t-17 118zM1220 1678q29 156 196 156q85 0 118 -38t18 -118q-16 -80 -64 -118t-133 -38t-118 38t-17 118z" />
<glyph unicode="&#xdd;" horiz-adv-x="1780" d="M989 0h-398q-17 0 -27 12t-7 29l98 503l-426 792q-11 21 4 42.5t42 21.5h416q8 0 17.5 -5.5t12.5 -12.5l239 -504l435 504q16 18 38 18h416q27 0 33.5 -21.5t-13.5 -42.5l-734 -792l-98 -503q-3 -17 -17 -29t-31 -12zM898 1573l275 260q15 15 51 15h293q18 0 26 -13 t3.5 -30t-18.5 -26l-349 -239q-44 -32 -93 -32h-170q-27 0 -33 22.5t15 42.5z" />
<glyph unicode="&#xde;" horiz-adv-x="1532" d="M541 222l-36 -181q-3 -17 -17 -29t-31 -12h-387q-17 0 -26.5 12t-6.5 29l257 1318q3 17 17 29t31 12h387q17 0 26.5 -12t6.5 -29l-32 -165h184q220 0 364.5 -51t209.5 -161t33 -274q-48 -244 -255 -365t-541 -121h-184zM1073 708q19 100 -40 142t-190 42h-172l-72 -368 h172q131 0 207 42t95 142z" />
<glyph unicode="&#xdf;" horiz-adv-x="1672" d="M851 556q-15 1 -22 12.5t-4 27.5l45 229q3 16 16 27.5t30 12.5q233 8 258 135q10 55 -45 84.5t-159 29.5q-137 0 -208.5 -60t-97.5 -196l-159 -818q-3 -17 -17 -28.5t-30 -11.5h-388q-16 0 -26 12t-7 29l148 757q62 320 270.5 473t594.5 153q314 0 473.5 -112t125.5 -286 q-21 -111 -99 -192.5t-206 -121.5q142 -28 204.5 -118t36.5 -224q-35 -185 -201.5 -289.5t-450.5 -104.5q-178 0 -293 31q-12 3 -18.5 15.5t-3.5 26.5l60 223q5 19 23 29.5t35 5.5q74 -23 155 -23q208 0 231 120q14 70 -45.5 109t-225.5 43z" />
<glyph unicode="&#xe0;" horiz-adv-x="1504" d="M482 210h420l21 -182q1 -11 11 -19.5t21 -8.5h390q21 0 35.5 17.5t10.5 38.5l-196 1109q-2 10 -11.5 17.5t-19.5 7.5h-562q-11 0 -23.5 -7.5t-17.5 -17.5l-628 -1109q-11 -20 -3.5 -38t29.5 -18h390q11 0 24 8.5t18 19.5zM865 514h-228l187 371zM888 1623l173 -260 q14 -20 -0.5 -42.5t-41.5 -22.5h-170q-49 0 -81 32l-257 239q-16 14 -2 41.5t41 27.5h293q35 0 45 -15z" />
<glyph unicode="&#xe1;" horiz-adv-x="1504" d="M902 210h-420l-91 -182q-5 -11 -18 -19.5t-24 -8.5h-390q-22 0 -29.5 18t3.5 38l628 1109q5 10 17.5 17.5t23.5 7.5h562q10 0 19.5 -7.5t11.5 -17.5l196 -1109q4 -21 -10.5 -38.5t-35.5 -17.5h-390q-11 0 -21 8.5t-11 19.5zM637 514h228l-41 371zM771 1363l275 260 q15 15 51 15h293q18 0 26 -13t3.5 -30t-18.5 -26l-349 -239q-44 -32 -93 -32h-170q-27 0 -33 22.5t15 42.5z" />
<glyph unicode="&#xe2;" horiz-adv-x="1504" d="M902 210h-420l-91 -182q-5 -11 -18 -19.5t-24 -8.5h-390q-22 0 -29.5 18t3.5 38l628 1109q5 10 17.5 17.5t23.5 7.5h562q10 0 19.5 -7.5t11.5 -17.5l196 -1109q4 -21 -10.5 -38.5t-35.5 -17.5h-390q-11 0 -21 8.5t-11 19.5zM637 514h228l-41 371zM800 1638h340q6 0 15 -5 t12 -10l154 -260q13 -21 -2 -43t-41 -22h-190q-26 0 -37 14l-117 142l-171 -142q-17 -14 -43 -14h-190q-26 0 -32.5 22t13.5 43l256 260q4 5 15.5 10t17.5 5z" />
<glyph unicode="&#xe3;" horiz-adv-x="1504" d="M482 210h420l21 -182q1 -11 11 -19.5t21 -8.5h390q21 0 35.5 17.5t10.5 38.5l-196 1109q-2 10 -11.5 17.5t-19.5 7.5h-562q-11 0 -23.5 -7.5t-17.5 -17.5l-628 -1109q-11 -20 -3.5 -38t29.5 -18h390q11 0 24 8.5t18 19.5zM865 514h-228l187 371zM927 1342q-73 38 -117 38 q-70 0 -94 -43q-5 -11 -18 -19t-24 -8h-123q-17 0 -26.5 12t-5.5 29q33 133 108 202t170 69q81 0 147 -36q73 -38 117 -38q70 0 94 43q5 11 18 19t24 8h123q17 0 26.5 -12t5.5 -29q-33 -133 -108 -202t-170 -69q-81 0 -147 36z" />
<glyph unicode="&#xe4;" horiz-adv-x="1504" d="M482 210h420l21 -182q1 -11 11 -19.5t21 -8.5h390q21 0 35.5 17.5t10.5 38.5l-196 1109q-2 10 -11.5 17.5t-19.5 7.5h-562q-11 0 -23.5 -7.5t-17.5 -17.5l-628 -1109q-11 -20 -3.5 -38t29.5 -18h390q11 0 24 8.5t18 19.5zM865 514h-228l187 371zM504 1469q16 80 63 117.5 t132 37.5q86 0 119 -37.5t17 -117.5t-63 -117.5t-133 -37.5t-118.5 37.5t-16.5 117.5zM1041 1469q16 80 63 117.5t132 37.5q86 0 119 -38t17 -117q-16 -80 -63 -117.5t-133 -37.5t-118.5 37.5t-16.5 117.5z" />
<glyph unicode="&#xe5;" horiz-adv-x="1504" d="M482 210h420l21 -182q1 -11 11 -19.5t21 -8.5h390q21 0 35.5 17.5t10.5 38.5l-196 1109q-2 10 -11.5 17.5t-19.5 7.5h-562q-11 0 -23.5 -7.5t-17.5 -17.5l-628 -1109q-11 -20 -3.5 -38t29.5 -18h390q11 0 24 8.5t18 19.5zM865 514h-228l187 371zM1205 1468 q-21 -108 -112.5 -183t-205.5 -75t-176.5 75t-41.5 183t112.5 183t205.5 75t176.5 -75t41.5 -183zM855 1468q-7 -36 12 -59t54 -23t63 23t35 59t-12 59t-54 23t-63 -23t-35 -59z" />
<glyph unicode="&#xe6;" horiz-adv-x="1970" d="M1766 0h-880q-16 0 -26 11.5t-7 27.5l33 171h-350l-130 -189q-16 -21 -38 -21h-401q-23 0 -31 18.5t8 39.5l810 1111q6 8 18 14.5t21 6.5h1190q16 0 25.5 -11.5t6.5 -27.5l-40 -208q-3 -16 -17.5 -27.5t-30.5 -11.5h-474l-31 -162h431q16 0 25 -12t6 -28l-40 -205 q-3 -16 -16.5 -27.5t-29.5 -11.5h-431l-34 -173h488q16 0 25.5 -11.5t6.5 -27.5l-40 -207q-3 -16 -17 -27.5t-30 -11.5zM1022 909l-283 -409h204z" />
<glyph unicode="&#xe7;" horiz-adv-x="1292" d="M1126 28q-117 -36 -272 -47l-80 -93q69 -10 106.5 -56.5t26.5 -103.5q-40 -204 -392 -204q-75 0 -115 6q-13 2 -21 13.5t-5 26.5l15 79q4 19 20 30.5t34 8.5q38 -6 65 -6q134 0 144 51q5 28 -30.5 46.5t-119.5 23.5q-24 2 -31 20.5t10 38.5l101 120q-299 28 -434.5 188.5 t-84.5 423.5q56 292 290 456t600 164q216 0 379 -55q12 -4 18.5 -17t2.5 -26l-61 -211q-6 -20 -23.5 -31.5t-35.5 -4.5q-118 41 -249 41q-406 0 -467 -316q-30 -156 58.5 -236t292.5 -80q138 0 268 42q20 7 34 -2.5t12 -29.5l-22 -219q-1 -13 -11 -25t-23 -16z" />
<glyph unicode="&#xe8;" horiz-adv-x="1238" d="M17 39l216 1112q3 16 17 27.5t30 11.5h974q16 0 25 -11.5t6 -27.5l-40 -208q-3 -16 -17 -27.5t-30 -11.5h-563l-31 -162h519q16 0 25 -11.5t6 -28.5l-40 -205q-3 -17 -16.5 -28t-29.5 -11h-519l-34 -172h575q16 0 25.5 -11.5t6.5 -27.5l-41 -208q-3 -16 -16.5 -27.5 t-29.5 -11.5h-986q-16 0 -25.5 11.5t-6.5 27.5zM844 1623l173 -260q14 -20 -0.5 -42.5t-41.5 -22.5h-170q-49 0 -81 32l-257 239q-16 14 -2 41.5t41 27.5h293q35 0 45 -15z" />
<glyph unicode="&#xe9;" horiz-adv-x="1238" d="M17 39l216 1112q3 16 17 27.5t30 11.5h974q16 0 25 -11.5t6 -27.5l-40 -208q-3 -16 -17 -27.5t-30 -11.5h-563l-31 -162h519q16 0 25 -11.5t6 -28.5l-40 -205q-3 -17 -16.5 -28t-29.5 -11h-519l-34 -172h575q16 0 25.5 -11.5t6.5 -27.5l-41 -208q-3 -16 -16.5 -27.5 t-29.5 -11.5h-986q-16 0 -25.5 11.5t-6.5 27.5zM583 1363l275 260q15 15 51 15h293q18 0 26 -13t3.5 -30t-18.5 -26l-349 -239q-44 -32 -93 -32h-170q-27 0 -33 22.5t15 42.5z" />
<glyph unicode="&#xea;" horiz-adv-x="1238" d="M17 39l216 1112q3 16 17 27.5t30 11.5h974q16 0 25 -11.5t6 -27.5l-40 -208q-3 -16 -17 -27.5t-30 -11.5h-563l-31 -162h519q16 0 25 -11.5t6 -28.5l-40 -205q-3 -17 -16.5 -28t-29.5 -11h-519l-34 -172h575q16 0 25.5 -11.5t6.5 -27.5l-41 -208q-3 -16 -16.5 -27.5 t-29.5 -11.5h-986q-16 0 -25.5 11.5t-6.5 27.5zM682 1638h340q6 0 15 -5t12 -10l154 -260q13 -21 -2 -43t-41 -22h-190q-26 0 -37 14l-117 142l-171 -142q-17 -14 -43 -14h-190q-26 0 -32.5 22t13.5 43l256 260q4 5 15.5 10t17.5 5z" />
<glyph unicode="&#xeb;" horiz-adv-x="1238" d="M17 39l216 1112q3 16 17 27.5t30 11.5h974q16 0 25 -11.5t6 -27.5l-40 -208q-3 -16 -17 -27.5t-30 -11.5h-563l-31 -162h519q16 0 25 -11.5t6 -28.5l-40 -205q-3 -17 -16.5 -28t-29.5 -11h-519l-34 -172h575q16 0 25.5 -11.5t6.5 -27.5l-41 -208q-3 -16 -16.5 -27.5 t-29.5 -11.5h-986q-16 0 -25.5 11.5t-6.5 27.5zM386 1469q16 80 63 117.5t132 37.5q86 0 119 -37.5t17 -117.5t-63 -117.5t-133 -37.5t-118.5 37.5t-16.5 117.5zM923 1469q16 80 63 117.5t132 37.5q86 0 119 -38t17 -117q-16 -80 -63 -117.5t-133 -37.5t-118.5 37.5 t-16.5 117.5z" />
<glyph unicode="&#xec;" horiz-adv-x="692" d="M290 1190h374q16 0 25 -11.5t6 -27.5l-216 -1112q-3 -16 -16.5 -27.5t-29.5 -11.5h-374q-16 0 -25.5 11.5t-6.5 27.5l216 1112q3 16 17 27.5t30 11.5zM466 1623l173 -260q14 -20 -0.5 -42.5t-41.5 -22.5h-170q-49 0 -81 32l-257 239q-16 14 -2 41.5t41 27.5h293 q35 0 45 -15z" />
<glyph unicode="&#xed;" horiz-adv-x="692" d="M290 1190h374q16 0 25 -11.5t6 -27.5l-216 -1112q-3 -16 -16.5 -27.5t-29.5 -11.5h-374q-16 0 -25.5 11.5t-6.5 27.5l216 1112q3 16 17 27.5t30 11.5zM381 1363l275 260q15 15 51 15h293q18 0 26 -13t3.5 -30t-18.5 -26l-349 -239q-44 -32 -93 -32h-170q-27 0 -33 22.5 t15 42.5z" />
<glyph unicode="&#xee;" horiz-adv-x="692" d="M290 1190h374q16 0 25 -11.5t6 -27.5l-216 -1112q-3 -16 -16.5 -27.5t-29.5 -11.5h-374q-16 0 -25.5 11.5t-6.5 27.5l216 1112q3 16 17 27.5t30 11.5zM394 1638h340q6 0 15 -5t12 -10l154 -260q13 -21 -2 -43t-41 -22h-190q-26 0 -37 14l-117 142l-171 -142 q-17 -14 -43 -14h-190q-26 0 -32.5 22t13.5 43l256 260q4 5 15.5 10t17.5 5z" />
<glyph unicode="&#xef;" horiz-adv-x="692" d="M98 1469q16 80 63 117.5t132 37.5q86 0 119 -37.5t17 -117.5t-63 -117.5t-133 -37.5t-118.5 37.5t-16.5 117.5zM635 1469q16 80 63 117.5t132 37.5q86 0 119 -38t17 -117q-16 -80 -63 -117.5t-133 -37.5t-118.5 37.5t-16.5 117.5zM290 1190h374q16 0 25 -11.5t6 -27.5 l-216 -1112q-3 -16 -16.5 -27.5t-29.5 -11.5h-374q-16 0 -25.5 11.5t-6.5 27.5l216 1112q3 16 17 27.5t30 11.5z" />
<glyph unicode="&#xf0;" horiz-adv-x="1458" d="M578 0h-515q-16 0 -25.5 11.5t-6.5 27.5l91 469h-80q-16 0 -25.5 11.5t-6.5 27.5l18 96q4 16 18 27.5t30 11.5h80l91 469q3 16 17 27.5t30 11.5h515q228 0 378 -65.5t213 -199.5t25 -329q-57 -293 -279 -444.5t-568 -151.5zM973 596q33 167 -22 237.5t-198 70.5h-106 l-43 -222h163q16 0 25.5 -11.5t5.5 -27.5l-18 -96q-3 -16 -17 -27.5t-30 -11.5h-163l-43 -222h106q143 0 225 70.5t115 239.5z" />
<glyph unicode="&#xf1;" horiz-adv-x="1570" d="M862 25l-324 689l-131 -675q-3 -16 -16.5 -27.5t-29.5 -11.5h-312q-16 0 -25.5 11.5t-6.5 27.5l216 1112q3 16 17 27.5t30 11.5h400q38 0 51 -25l331 -689l131 675q3 16 17 27.5t30 11.5h312q16 0 25 -11.5t6 -27.5l-216 -1112q-3 -16 -16.5 -27.5t-29.5 -11.5h-407 q-40 0 -52 25zM959 1342q-73 38 -117 38q-70 0 -94 -43q-5 -11 -18 -19t-24 -8h-123q-17 0 -26.5 12t-5.5 29q33 133 108 202t170 69q81 0 147 -36q73 -38 117 -38q70 0 94 43q5 11 18 19t24 8h123q17 0 26.5 -12t5.5 -29q-33 -133 -108 -202t-170 -69q-81 0 -147 36z" />
<glyph unicode="&#xf2;" horiz-adv-x="1512" d="M1479 596q-26 -135 -93 -248t-170 -196t-247.5 -129.5t-317.5 -46.5q-138 0 -248 30t-182 85t-116.5 132t-52 171t10.5 202q26 135 93 247.5t170 195.5t247.5 129t317.5 46q139 0 248.5 -30t181.5 -84.5t116.5 -131.5t52.5 -170.5t-11 -201.5zM515 596 q-31 -161 16.5 -245.5t175.5 -84.5t208.5 84.5t111.5 245.5q32 160 -16 244t-176 84q-255 0 -320 -328zM940 1623l173 -260q14 -20 -0.5 -42.5t-41.5 -22.5h-170q-49 0 -81 32l-257 239q-16 14 -2 41.5t41 27.5h293q35 0 45 -15z" />
<glyph unicode="&#xf3;" horiz-adv-x="1512" d="M1479 596q-26 -135 -93 -248t-170 -196t-247.5 -129.5t-317.5 -46.5q-138 0 -248 30t-182 85t-116.5 132t-52 171t10.5 202q26 135 93 247.5t170 195.5t247.5 129t317.5 46q139 0 248.5 -30t181.5 -84.5t116.5 -131.5t52.5 -170.5t-11 -201.5zM515 596 q-31 -161 16.5 -245.5t175.5 -84.5t208.5 84.5t111.5 245.5q32 160 -16 244t-176 84q-255 0 -320 -328zM727 1363l275 260q15 15 51 15h293q18 0 26 -13t3.5 -30t-18.5 -26l-349 -239q-44 -32 -93 -32h-170q-27 0 -33 22.5t15 42.5z" />
<glyph unicode="&#xf4;" horiz-adv-x="1512" d="M1479 596q-26 -135 -93 -248t-170 -196t-247.5 -129.5t-317.5 -46.5q-138 0 -248 30t-182 85t-116.5 132t-52 171t10.5 202q26 135 93 247.5t170 195.5t247.5 129t317.5 46q139 0 248.5 -30t181.5 -84.5t116.5 -131.5t52.5 -170.5t-11 -201.5zM515 596 q-31 -161 16.5 -245.5t175.5 -84.5t208.5 84.5t111.5 245.5q32 160 -16 244t-176 84q-255 0 -320 -328zM804 1638h340q6 0 15 -5t12 -10l154 -260q13 -21 -2 -43t-41 -22h-190q-26 0 -37 14l-117 142l-171 -142q-17 -14 -43 -14h-190q-26 0 -32.5 22t13.5 43l256 260 q4 5 15.5 10t17.5 5z" />
<glyph unicode="&#xf5;" horiz-adv-x="1512" d="M1479 596q-26 -135 -93 -248t-170 -196t-247.5 -129.5t-317.5 -46.5q-138 0 -248 30t-182 85t-116.5 132t-52 171t10.5 202q26 135 93 247.5t170 195.5t247.5 129t317.5 46q139 0 248.5 -30t181.5 -84.5t116.5 -131.5t52.5 -170.5t-11 -201.5zM515 596 q-31 -161 16.5 -245.5t175.5 -84.5t208.5 84.5t111.5 245.5q32 160 -16 244t-176 84q-255 0 -320 -328zM931 1342q-73 38 -117 38q-70 0 -94 -43q-5 -11 -18 -19t-24 -8h-123q-17 0 -26.5 12t-5.5 29q33 133 108 202t170 69q81 0 147 -36q73 -38 117 -38q70 0 94 43 q5 11 18 19t24 8h123q17 0 26.5 -12t5.5 -29q-33 -133 -108 -202t-170 -69q-81 0 -147 36z" />
<glyph unicode="&#xf6;" horiz-adv-x="1512" d="M1479 596q-26 -135 -93 -248t-170 -196t-247.5 -129.5t-317.5 -46.5q-138 0 -248 30t-182 85t-116.5 132t-52 171t10.5 202q26 135 93 247.5t170 195.5t247.5 129t317.5 46q139 0 248.5 -30t181.5 -84.5t116.5 -131.5t52.5 -170.5t-11 -201.5zM515 596 q-31 -161 16.5 -245.5t175.5 -84.5t208.5 84.5t111.5 245.5q32 160 -16 244t-176 84q-255 0 -320 -328zM508 1469q16 80 63 117.5t132 37.5q86 0 119 -37.5t17 -117.5t-63 -117.5t-133 -37.5t-118.5 37.5t-16.5 117.5zM1045 1469q16 80 63 117.5t132 37.5q86 0 119 -38 t17 -117q-16 -80 -63 -117.5t-133 -37.5t-118.5 37.5t-16.5 117.5z" />
<glyph unicode="&#xf7;" horiz-adv-x="1296" d="M678 920q-101 0 -149.5 49t-48.5 151t48.5 151t149.5 49t149.5 -49t48.5 -151t-48.5 -151t-149.5 -49zM678 406q101 0 149.5 -49t48.5 -151t-48.5 -151t-149.5 -49t-149.5 49t-48.5 151t48.5 151t149.5 49zM160 800h1036q16 0 28 -12t12 -28v-194q0 -16 -12 -28t-28 -12 h-1036q-16 0 -28 12t-12 28v194q0 16 12 28t28 12z" />
<glyph unicode="&#xf8;" horiz-adv-x="1512" d="M1479 596q-26 -135 -93 -248t-170 -196t-247.5 -129.5t-317.5 -46.5q-170 0 -300 46l-170 -195q-23 -27 -52 -27h-70q-25 0 -29.5 13t14.5 34l198 229q-122 80 -167 214.5t-12 305.5q26 135 93 247.5t170 195.5t247.5 129t317.5 46q174 0 301 -46l169 195q23 27 53 27h70 q25 0 29 -13t-14 -34l-199 -229q122 -79 167 -213t12 -305zM515 596q-25 -130 0 -207l441 507q-50 28 -121 28q-255 0 -320 -328zM1027 596q25 128 0 205l-440 -507q48 -28 120 -28q128 0 208.5 84.5t111.5 245.5z" />
<glyph unicode="&#xf9;" horiz-adv-x="1544" d="M667 -24q310 0 511.5 133t252.5 391l126 651q3 16 -6.5 27.5t-25.5 11.5h-370q-16 0 -30.5 -11.5t-17.5 -27.5l-128 -659q-40 -212 -253 -212q-107 0 -149.5 51.5t-21.5 160.5l128 659q3 16 -6.5 27.5t-25.5 11.5h-370q-16 0 -30.5 -11.5t-17.5 -27.5l-126 -651 q-34 -172 25 -291t195 -176t340 -57zM932 1623l173 -260q14 -20 -0.5 -42.5t-41.5 -22.5h-170q-49 0 -81 32l-257 239q-16 14 -2 41.5t41 27.5h293q35 0 45 -15z" />
<glyph unicode="&#xfa;" horiz-adv-x="1544" d="M667 -24q-204 0 -340 57t-195 176t-25 291l126 651q3 16 17.5 27.5t30.5 11.5h370q16 0 25.5 -11.5t6.5 -27.5l-128 -659q-21 -109 21.5 -160.5t149.5 -51.5q213 0 253 212l128 659q3 16 17.5 27.5t30.5 11.5h370q16 0 25.5 -11.5t6.5 -27.5l-126 -651 q-51 -258 -252.5 -391t-511.5 -133zM767 1363l275 260q15 15 51 15h293q18 0 26 -13t3.5 -30t-18.5 -26l-349 -239q-44 -32 -93 -32h-170q-27 0 -33 22.5t15 42.5z" />
<glyph unicode="&#xfb;" horiz-adv-x="1544" d="M667 -24q-204 0 -340 57t-195 176t-25 291l126 651q3 16 17.5 27.5t30.5 11.5h370q16 0 25.5 -11.5t6.5 -27.5l-128 -659q-21 -109 21.5 -160.5t149.5 -51.5q213 0 253 212l128 659q3 16 17.5 27.5t30.5 11.5h370q16 0 25.5 -11.5t6.5 -27.5l-126 -651 q-51 -258 -252.5 -391t-511.5 -133zM820 1638h340q6 0 15 -5t12 -10l154 -260q13 -21 -2 -43t-41 -22h-190q-26 0 -37 14l-117 142l-171 -142q-17 -14 -43 -14h-190q-26 0 -32.5 22t13.5 43l256 260q4 5 15.5 10t17.5 5z" />
<glyph unicode="&#xfc;" horiz-adv-x="1544" d="M667 -24q310 0 511.5 133t252.5 391l126 651q3 16 -6.5 27.5t-25.5 11.5h-370q-16 0 -30.5 -11.5t-17.5 -27.5l-128 -659q-40 -212 -253 -212q-107 0 -149.5 51.5t-21.5 160.5l128 659q3 16 -6.5 27.5t-25.5 11.5h-370q-16 0 -30.5 -11.5t-17.5 -27.5l-126 -651 q-34 -172 25 -291t195 -176t340 -57zM524 1469q16 80 63 117.5t132 37.5q86 0 119 -37.5t17 -117.5t-63 -117.5t-133 -37.5t-118.5 37.5t-16.5 117.5zM1061 1469q16 80 63 117.5t132 37.5q86 0 119 -38t17 -117q-16 -80 -63 -117.5t-133 -37.5t-118.5 37.5t-16.5 117.5z" />
<glyph unicode="&#xfd;" horiz-adv-x="1544" d="M855 0h-366q-16 0 -25.5 11.5t-6.5 27.5l81 418l-355 670q-12 21 2.5 42t40.5 21h372q30 0 44 -29l181 -383l329 383q24 29 56 29h372q26 0 32 -21t-13 -42l-617 -670l-81 -418q-3 -16 -16.5 -27.5t-29.5 -11.5zM729 1363l275 260q15 15 51 15h293q18 0 26 -13t3.5 -30 t-18.5 -26l-349 -239q-44 -32 -93 -32h-170q-27 0 -33 22.5t15 42.5z" />
<glyph unicode="&#xfe;" horiz-adv-x="1332" d="M478 176l-27 -137q-3 -16 -16.5 -27.5t-29.5 -11.5h-356q-16 0 -25.5 11.5t-6.5 27.5l216 1112q3 16 17 27.5t30 11.5h356q16 0 25 -11.5t6 -27.5l-25 -131h136q291 0 431.5 -103.5t98.5 -316.5q-42 -214 -222.5 -319t-471.5 -105h-136zM900 600q14 74 -31.5 106 t-141.5 32h-140l-54 -280h140q97 0 154.5 32t72.5 110z" />
<glyph unicode="&#xff;" horiz-adv-x="1544" d="M855 0h-366q-16 0 -25.5 11.5t-6.5 27.5l81 418l-355 670q-12 21 2.5 42t40.5 21h372q30 0 44 -29l181 -383l329 383q24 29 56 29h372q26 0 32 -21t-13 -42l-617 -670l-81 -418q-3 -16 -16.5 -27.5t-29.5 -11.5zM524 1469q16 80 63 117.5t132 37.5q86 0 119 -37.5 t17 -117.5t-63 -117.5t-133 -37.5t-118.5 37.5t-16.5 117.5zM1061 1469q16 80 63 117.5t132 37.5q86 0 119 -38t17 -117q-16 -80 -63 -117.5t-133 -37.5t-118.5 37.5t-16.5 117.5z" />
<glyph unicode="&#x152;" horiz-adv-x="2270" d="M2050 0h-1086q-503 0 -716.5 179.5t-147.5 520.5q66 339 350 519.5t786 180.5h1070q16 0 25.5 -12t6.5 -29l-44 -227q-4 -17 -18 -28.5t-30 -11.5h-580l-45 -230h528q17 0 26.5 -12t5.5 -28l-44 -228q-3 -16 -17 -28t-31 -12h-528l-48 -246h596q17 0 26.5 -12t6.5 -28 l-45 -227q-3 -17 -16.5 -29t-30.5 -12zM576 700q-37 -188 72 -282t355 -94h51l146 750h-51q-501 0 -573 -374z" />
<glyph unicode="&#x153;" horiz-adv-x="1960" d="M1756 0h-940q-440 0 -624.5 151.5t-128.5 444.5q117 594 984 594h926q16 0 25.5 -11.5t6.5 -27.5l-40 -208q-3 -16 -17.5 -27.5t-30.5 -11.5h-474l-31 -162h430q16 0 25.5 -11.5t6.5 -28.5l-40 -205q-3 -16 -16.5 -27.5t-30.5 -11.5h-430l-34 -172h488q16 0 26 -11.5 t7 -27.5l-41 -208q-3 -16 -17 -27.5t-30 -11.5zM507 596q-29 -149 60.5 -220.5t287.5 -71.5h40l113 582h-40q-404 0 -461 -290z" />
<glyph unicode="&#x178;" horiz-adv-x="1780" d="M989 0h-398q-17 0 -27 12t-7 29l98 503l-426 792q-11 21 4 42.5t42 21.5h416q8 0 17.5 -5.5t12.5 -12.5l239 -504l435 504q16 18 38 18h416q27 0 33.5 -21.5t-13.5 -42.5l-734 -792l-98 -503q-3 -17 -17 -29t-31 -12zM682 1678q29 156 196 156q85 0 118 -38t18 -118 q-16 -80 -64 -118t-133 -38t-118 38t-17 118zM1218 1678q29 156 196 156q85 0 118 -38t18 -118q-16 -80 -64 -118t-133 -38t-118 38t-17 118z" />
<glyph unicode="&#x2c6;" horiz-adv-x="1036" d="M531 1460h340q6 0 15.5 -5t11.5 -10l155 -260q12 -21 -3 -43t-41 -22h-190q-26 0 -37 14l-116 142l-172 -142q-17 -14 -43 -14h-190q-26 0 -32.5 22t14.5 43l255 260q15 15 33 15z" />
<glyph unicode="&#x2dc;" horiz-adv-x="1036" d="M659 1166q-73 38 -117 38q-70 0 -94 -43q-6 -11 -18.5 -19t-23.5 -8h-123q-17 0 -26.5 12t-5.5 29q33 133 108 202t170 69q81 0 147 -36q73 -38 117 -38q70 0 94 43q5 11 18 19t24 8h123q17 0 26.5 -12t5.5 -29q-33 -133 -108 -202t-170 -69q-81 0 -147 36z" />
<glyph unicode="&#x2000;" horiz-adv-x="968" />
<glyph unicode="&#x2001;" horiz-adv-x="1936" />
<glyph unicode="&#x2002;" horiz-adv-x="968" />
<glyph unicode="&#x2003;" horiz-adv-x="1936" />
<glyph unicode="&#x2004;" horiz-adv-x="645" />
<glyph unicode="&#x2005;" horiz-adv-x="484" />
<glyph unicode="&#x2006;" horiz-adv-x="322" />
<glyph unicode="&#x2007;" horiz-adv-x="322" />
<glyph unicode="&#x2008;" horiz-adv-x="242" />
<glyph unicode="&#x2009;" horiz-adv-x="387" />
<glyph unicode="&#x200a;" horiz-adv-x="107" />
<glyph unicode="&#x2010;" horiz-adv-x="838" d="M708 516h-579q-17 0 -26 12t-5 28l41 214q3 17 17 28.5t30 11.5h579q16 0 25.5 -11.5t6.5 -28.5l-41 -214q-4 -17 -18 -28.5t-30 -11.5z" />
<glyph unicode="&#x2011;" horiz-adv-x="838" d="M708 516h-579q-17 0 -26 12t-5 28l41 214q3 17 17 28.5t30 11.5h579q16 0 25.5 -11.5t6.5 -28.5l-41 -214q-4 -17 -18 -28.5t-30 -11.5z" />
<glyph unicode="&#x2012;" horiz-adv-x="838" d="M708 516h-579q-17 0 -26 12t-5 28l41 214q3 17 17 28.5t30 11.5h579q16 0 25.5 -11.5t6.5 -28.5l-41 -214q-4 -17 -18 -28.5t-30 -11.5z" />
<glyph unicode="&#x2013;" horiz-adv-x="1000" d="M962 526h-921q-17 0 -26 12t-5 28l37 194q4 17 17.5 28.5t29.5 11.5h921q17 0 26.5 -12t5.5 -28l-37 -194q-4 -17 -18 -28.5t-30 -11.5z" />
<glyph unicode="&#x2014;" horiz-adv-x="2000" d="M1962 526h-1921q-17 0 -26 12t-5 28l37 194q4 17 17.5 28.5t29.5 11.5h1921q17 0 26.5 -12t5.5 -28l-37 -194q-4 -17 -18 -28.5t-30 -11.5z" />
<glyph unicode="&#x2018;" horiz-adv-x="736" d="M645 1528q14 7 26 2t17 -18l35 -75q5 -11 -0.5 -26.5t-18.5 -24.5q-49 -32 -87 -76t-54 -90q151 -24 118 -194q-39 -200 -253 -200t-175 200q33 170 133.5 296.5t258.5 205.5z" />
<glyph unicode="&#x2019;" horiz-adv-x="736" d="M352 844q-14 -7 -26.5 -2t-17.5 18l-35 75q-5 11 0.5 26.5t18.5 24.5q49 32 87 76t54 90q-151 24 -118 194q39 200 253 200t175 -200q-33 -170 -133.5 -296.5t-257.5 -205.5z" />
<glyph unicode="&#x201a;" horiz-adv-x="736" d="M124 -326q-29 -15 -44 16l-34 75q-5 11 0.5 26.5t18.5 24.5q49 32 87 76t54 90q-151 24 -118 194q39 200 253 200t175 -200q-66 -339 -392 -502z" />
<glyph unicode="&#x201c;" horiz-adv-x="1280" d="M645 1528q14 7 26 2t17 -18l35 -75q5 -11 -0.5 -26.5t-18.5 -24.5q-49 -32 -87 -76t-54 -90q151 -24 118 -194q-39 -200 -253 -200t-175 200q33 170 133.5 296.5t258.5 205.5zM1189 1528q14 7 26 2t17 -18l35 -75q5 -11 -0.5 -26.5t-18.5 -24.5q-49 -32 -87 -76t-54 -90 q151 -24 118 -194q-39 -200 -253 -200t-175 200q33 170 133.5 296.5t258.5 205.5z" />
<glyph unicode="&#x201d;" horiz-adv-x="1280" d="M352 844q-14 -7 -26.5 -2t-17.5 18l-35 75q-5 11 0.5 26.5t18.5 24.5q49 32 87 76t54 90q-151 24 -118 194q39 200 253 200t175 -200q-33 -170 -133.5 -296.5t-257.5 -205.5zM896 844q-14 -7 -26.5 -2t-17.5 18l-35 75q-5 11 0.5 26.5t18.5 24.5q49 32 87 76t54 90 q-151 24 -118 194q39 200 253 200t175 -200q-33 -170 -133.5 -296.5t-257.5 -205.5z" />
<glyph unicode="&#x201e;" horiz-adv-x="1280" d="M124 -326q-29 -15 -44 16l-34 75q-5 11 0.5 26.5t18.5 24.5q49 32 87 76t54 90q-151 24 -118 194q39 200 253 200t175 -200q-66 -339 -392 -502zM668 -326q-29 -15 -44 16l-34 75q-5 11 0.5 26.5t18.5 24.5q49 32 87 76t54 90q-151 24 -118 194q39 200 253 200t175 -200 q-66 -339 -392 -502z" />
<glyph unicode="&#x2022;" horiz-adv-x="1024" d="M230 664q0 143 80.5 221.5t231.5 78.5t231.5 -78.5t80.5 -221.5t-80.5 -221.5t-231.5 -78.5t-231.5 78.5t-80.5 221.5z" />
<glyph unicode="&#x2026;" horiz-adv-x="2208" d="M88 176q39 200 253 200t175 -200t-253 -200t-175 200zM824 176q39 200 253 200t175 -200t-253 -200t-175 200zM1560 176q39 200 253 200t175 -200t-253 -200t-175 200z" />
<glyph unicode="&#x202f;" horiz-adv-x="387" />
<glyph unicode="&#x2039;" horiz-adv-x="644" d="M115 541l32 166q7 37 32 56l421 330q24 19 45 9.5t16 -37.5l-40 -205q-8 -38 -29 -54l-237 -182l166 -182q15 -17 8 -54l-40 -205q-5 -28 -30 -37.5t-41 9.5l-293 330q-17 19 -10 56z" />
<glyph unicode="&#x203a;" horiz-adv-x="644" d="M571 707l-32 -166q-7 -36 -32 -56l-421 -330q-24 -19 -45 -9.5t-16 37.5l40 205q7 37 28 54l238 182l-167 182q-14 17 -7 54l40 205q5 28 30 37.5t41 -9.5l293 -330q17 -20 10 -56z" />
<glyph unicode="&#x205f;" horiz-adv-x="484" />
<glyph unicode="&#x20ac;" horiz-adv-x="1586" d="M152 892h105q118 262 366.5 397t593.5 135q248 0 437 -62q11 -4 17 -16.5t2 -25.5l-67 -232q-6 -20 -24 -30t-36 -4q-123 46 -299 46q-161 0 -289.5 -51t-195.5 -157h604q20 0 29 -15t0 -34l-28 -58q-5 -12 -19.5 -21.5t-26.5 -9.5h-621q-11 -32 -16 -56q-6 -30 -4 -54 h563q21 0 29.5 -16t-2.5 -37l-26 -55q-5 -11 -18.5 -20.5t-26.5 -9.5h-512q71 -206 413 -206q177 0 319 47q21 7 34.5 -3.5t11.5 -30.5l-21 -235q-1 -13 -12 -25t-25 -17q-200 -60 -469 -60q-220 0 -382.5 55.5t-262 176t-111.5 298.5h-105q-17 0 -26 12t-5 28l11 58 q3 17 17 28.5t30 11.5h85q1 17 8 53q6 30 14 57h-86q-16 0 -25 11.5t-6 28.5l11 58q3 17 17 28.5t30 11.5z" />
<glyph unicode="&#x2122;" horiz-adv-x="1562" d="M238 777v453h-154q-17 0 -28.5 11.5t-11.5 28.5v90q0 16 12 28t28 12h518q16 0 28 -12t12 -28v-90q0 -17 -11.5 -28.5t-28.5 -11.5h-154v-453q0 -16 -11.5 -27.5t-28.5 -11.5h-130q-17 0 -28.5 11.5t-11.5 27.5zM1164 930h-124q-7 0 -18 5.5t-15 11.5l-117 169v-339 q0 -16 -11.5 -27.5t-28.5 -11.5h-128q-17 0 -28.5 11t-11.5 28v583q0 17 11.5 28.5t28.5 11.5h171q22 0 33 -17l176 -255l176 255q11 17 33 17h171q17 0 28.5 -11.5t11.5 -28.5v-583q0 -17 -11.5 -28t-28.5 -11h-128q-17 0 -28.5 11.5t-11.5 27.5v339l-117 -169 q-4 -6 -15 -11.5t-18 -5.5z" />
<glyph unicode="&#x25fc;" horiz-adv-x="1190" d="M0 1190h1190v-1190h-1190v1190z" />
<glyph unicode="&#xfb02;" horiz-adv-x="2442" d="M17 39l216 1112q3 16 17.5 27.5t30.5 11.5h973q16 0 25 -11.5t6 -27.5l-40 -208q-3 -16 -17 -27.5t-30 -11.5h-563l-35 -182h519q16 0 25 -11.5t6 -27.5l-40 -206q-3 -16 -16.5 -27.5t-29.5 -11.5h-519l-78 -399q-3 -16 -17 -27.5t-30 -11.5h-370q-16 0 -26 11.5t-7 27.5 zM1233 39l216 1112q3 16 17 27.5t30 11.5h372q16 0 25 -11.5t6 -27.5l-165 -849h607q16 0 25.5 -11.5t6.5 -27.5l-44 -224q-3 -16 -16.5 -27.5t-29.5 -11.5h-1018q-16 0 -25.5 11.5t-6.5 27.5z" />
<glyph unicode="&#xfb04;" horiz-adv-x="3658" d="M17 39l216 1112q3 16 17.5 27.5t30.5 11.5h973q16 0 25 -11.5t6 -27.5l-40 -208q-3 -16 -17 -27.5t-30 -11.5h-563l-35 -182h519q16 0 25 -11.5t6 -27.5l-40 -206q-3 -16 -16.5 -27.5t-29.5 -11.5h-519l-78 -399q-3 -16 -17 -27.5t-30 -11.5h-370q-16 0 -26 11.5t-7 27.5 zM1233 39l216 1112q3 16 17.5 27.5t30.5 11.5h973q16 0 25 -11.5t6 -27.5l-40 -208q-3 -16 -17 -27.5t-30 -11.5h-563l-35 -182h519q16 0 25 -11.5t6 -27.5l-40 -206q-3 -16 -16.5 -27.5t-29.5 -11.5h-519l-78 -399q-3 -16 -17 -27.5t-30 -11.5h-370q-16 0 -26 11.5t-7 27.5 zM2449 39l216 1112q3 16 17 27.5t30 11.5h372q16 0 25 -11.5t6 -27.5l-165 -849h607q16 0 25.5 -11.5t6.5 -27.5l-44 -224q-3 -16 -16.5 -27.5t-29.5 -11.5h-1018q-16 0 -25.5 11.5t-6.5 27.5z" />
</font>
</defs>
</svg>
