<?xml version="1.0" standalone="no"?>
<!DOCTYPE svg PUBLIC "-//W3C//DTD SVG 1.1//EN" "http://www.w3.org/Graphics/SVG/1.1/DTD/svg11.dtd" >
<svg xmlns="http://www.w3.org/2000/svg">
<metadata></metadata>
<defs>
<font id="core_sans_nr_87_cn_heavyIt" horiz-adv-x="1020" >
<font-face units-per-em="2000" ascent="1600" descent="-400" />
<missing-glyph horiz-adv-x="446" />
<glyph unicode="&#xfb01;" horiz-adv-x="1270" d="M703 37l187 962q3 15 16 26t28 11h308q15 0 24 -11t6 -26l-187 -962q-3 -15 -16 -26t-28 -11h-308q-15 0 -24 11t-6 26zM1106 1124q-106 0 -148 41.5t-25 126.5q31 168 238 168q106 0 148 -41.5t26 -126.5q-33 -168 -239 -168zM58 827l34 172q3 15 15.5 26t28.5 11h107 l13 66q69 358 437 358q104 0 190 -24q18 -5 22.5 -15.5t-1.5 -30.5l-45 -159q-12 -40 -49 -28q-23 7 -53 7q-53 0 -81 -26.5t-39 -86.5l-12 -61h157q15 0 24 -11t6 -26l-34 -172q-3 -16 -16 -26.5t-28 -10.5h-157l-221 -1139q-3 -15 -16.5 -26t-28.5 -11h-307 q-16 0 -24.5 11t-5.5 26l221 1139h-107q-16 0 -24.5 10.5t-5.5 26.5z" />
<glyph unicode="&#xfb02;" horiz-adv-x="1268" d="M703 37l269 1386q3 15 16 26t28 11h308q15 0 24 -11t6 -26l-269 -1386q-3 -15 -16 -26t-28 -11h-308q-15 0 -24 11t-6 26zM58 827l34 172q3 15 15.5 26t28.5 11h107l13 66q69 358 437 358q104 0 190 -24q18 -5 22.5 -15.5t-1.5 -30.5l-45 -159q-12 -40 -49 -28 q-23 7 -53 7q-53 0 -81 -26.5t-39 -86.5l-12 -61h157q15 0 24 -11t6 -26l-34 -172q-3 -16 -16 -26.5t-28 -10.5h-157l-221 -1139q-3 -15 -16.5 -26t-28.5 -11h-307q-16 0 -24.5 11t-5.5 26l221 1139h-107q-16 0 -24.5 10.5t-5.5 26.5z" />
<glyph unicode="&#xfb03;" horiz-adv-x="1924" d="M1357 37l187 962q3 15 16 26t28 11h308q15 0 24 -11t6 -26l-187 -962q-3 -15 -16 -26t-28 -11h-308q-15 0 -24 11t-6 26zM1760 1124q-106 0 -148 41.5t-25 126.5q31 168 238 168q106 0 148 -41.5t26 -126.5q-33 -168 -239 -168zM58 827l34 172q3 15 15.5 26t28.5 11h107 l13 66q69 358 437 358q104 0 190 -24q18 -5 22.5 -15.5t-1.5 -30.5l-45 -159q-12 -40 -49 -28q-23 7 -53 7q-53 0 -81 -26.5t-39 -86.5l-12 -61h272l13 66q69 358 437 358q104 0 190 -24q18 -5 22.5 -15.5t-1.5 -30.5l-45 -159q-12 -40 -49 -28q-23 7 -53 7q-53 0 -81 -26.5 t-39 -86.5l-12 -61h157q15 0 24 -11t6 -26l-34 -172q-3 -16 -16 -26.5t-28 -10.5h-157l-221 -1139q-3 -15 -16.5 -26t-28.5 -11h-307q-16 0 -24.5 11t-5.5 26l221 1139h-272l-221 -1139q-3 -15 -16.5 -26t-28.5 -11h-307q-16 0 -24.5 11t-5.5 26l221 1139h-107 q-16 0 -24.5 10.5t-5.5 26.5z" />
<glyph unicode="&#xfb04;" horiz-adv-x="1922" d="M1357 37l269 1386q3 15 16 26t28 11h308q15 0 24 -11t6 -26l-269 -1386q-3 -15 -16 -26t-28 -11h-308q-15 0 -24 11t-6 26zM58 827l34 172q3 15 15.5 26t28.5 11h107l13 66q69 358 437 358q104 0 190 -24q18 -5 22.5 -15.5t-1.5 -30.5l-45 -159q-12 -40 -49 -28 q-23 7 -53 7q-53 0 -81 -26.5t-39 -86.5l-12 -61h272l13 66q69 358 437 358q104 0 190 -24q18 -5 22.5 -15.5t-1.5 -30.5l-45 -159q-12 -40 -49 -28q-23 7 -53 7q-53 0 -81 -26.5t-39 -86.5l-12 -61h157q15 0 24 -11t6 -26l-34 -172q-3 -16 -16 -26.5t-28 -10.5h-157 l-221 -1139q-3 -15 -16.5 -26t-28.5 -11h-307q-16 0 -24.5 11t-5.5 26l221 1139h-272l-221 -1139q-3 -15 -16.5 -26t-28.5 -11h-307q-16 0 -24.5 11t-5.5 26l221 1139h-107q-16 0 -24.5 10.5t-5.5 26.5z" />
<glyph horiz-adv-x="666" />
<glyph horiz-adv-x="0" />
<glyph horiz-adv-x="0" />
<glyph unicode="&#xd;" horiz-adv-x="262" />
<glyph unicode=" "  horiz-adv-x="446" />
<glyph unicode="&#x09;" horiz-adv-x="446" />
<glyph unicode="&#xa0;" horiz-adv-x="446" />
<glyph unicode="!" horiz-adv-x="628" d="M209 -24q-106 0 -146.5 44.5t-22.5 137.5t76 137.5t164 44.5t146 -44t22 -138t-75.5 -138t-163.5 -44zM425 444h-250q-15 0 -23.5 10t-6.5 25l83 612l52 272q3 15 16.5 26t29.5 11h320q16 0 24.5 -11t5.5 -26l-52 -272l-155 -612q-4 -15 -16.5 -25t-27.5 -10z" />
<glyph unicode="&#x22;" horiz-adv-x="1066" d="M212 796l88 564q2 16 15 28t30 12h281q16 0 24 -11t5 -26l-7 -40l-148 -529q-5 -14 -18 -24t-26 -10h-214q-15 0 -23.5 10.5t-6.5 25.5zM642 796l88 564q2 16 15 28t30 12h281q16 0 24 -11t5 -26l-7 -40l-148 -529q-5 -14 -18 -24t-26 -10h-214q-15 0 -23.5 10.5 t-6.5 25.5z" />
<glyph unicode="#" horiz-adv-x="1190" d="M877 280l-78 -248q-5 -13 -18 -22.5t-26 -9.5h-254q-17 0 -26 12.5t-3 29.5l75 238h-110l-78 -248q-5 -13 -18 -22.5t-26 -9.5h-254q-17 0 -26 12.5t-3 29.5l75 238h-103q-16 0 -24.5 11t-5.5 26l41 212q3 16 16 26.5t29 10.5h139l89 276h-107q-16 0 -24.5 11t-5.5 26 l42 212q3 16 15.5 26.5t28.5 10.5h143l76 240q5 13 18.5 22.5t26.5 9.5h254q17 0 25.5 -12.5t2.5 -29.5l-73 -230h110l76 240q5 13 18.5 22.5t26.5 9.5h254q17 0 25.5 -12.5t2.5 -29.5l-73 -230h103q16 0 24.5 -10.5t5.5 -26.5l-42 -212q-3 -15 -15.5 -26t-28.5 -11h-139 l-89 -276h107q16 0 24 -10.5t5 -26.5l-41 -212q-3 -15 -15.5 -26t-28.5 -11h-143zM618 842l-89 -276h110l89 276h-110z" />
<glyph unicode="$" horiz-adv-x="1008" d="M3 43q-30 14 -20 50l64 245q5 20 23.5 27.5t33.5 -2.5q116 -75 253 -75q148 0 168 100q11 57 -21 94.5t-133 81.5q-281 123 -219 436q33 169 136.5 273.5t273.5 136.5l34 178q3 16 16 27t29 11h132q16 0 24 -11t5 -27l-32 -166q150 -8 259 -54q29 -12 19 -46l-60 -228 q-5 -20 -22 -27t-34 1q-103 44 -216 44q-142 0 -162 -100q-11 -58 21.5 -93.5t136.5 -82.5q141 -64 193.5 -169.5t23.5 -258.5q-35 -180 -144.5 -288t-293.5 -135l-34 -171q-3 -16 -15.5 -27t-28.5 -11h-132q-16 0 -24.5 11t-5.5 27l32 165q-174 12 -280 64z" />
<glyph unicode="%" horiz-adv-x="1562" d="M1469 394q-79 -408 -409 -408q-164 0 -227 103t-24 305q80 408 409 408q164 0 227.5 -103t23.5 -305zM1193 394q14 73 15 114.5t-7.5 54.5t-26.5 13q-27 0 -47.5 -38t-41.5 -144q-14 -73 -14.5 -114.5t7.5 -54.5t26 -13q27 0 48 38t41 144zM823 1010q-80 -408 -409 -408 q-164 0 -227.5 103t-23.5 305q79 408 409 408q164 0 227 -103t24 -305zM547 1010q14 73 14.5 114.5t-7.5 54.5t-26 13q-27 0 -48 -38t-41 -144q-14 -73 -15 -114.5t7 -54.5t26 -13q27 0 48 38t42 144zM309 47l850 1326q18 27 52 27h95q21 0 25.5 -14t-9.5 -33l-850 -1326 q-18 -27 -51 -27h-95q-21 0 -25.5 14t8.5 33z" />
<glyph unicode="&#x26;" horiz-adv-x="1286" d="M714 1064q11 63 0.5 86.5t-42.5 23.5q-60 0 -81 -104q-18 -96 30 -158q73 52 93 152zM375 390q-12 -65 17 -107.5t90 -42.5q63 0 117 46l-146 246q-61 -53 -78 -142zM765 17l-32 51q-146 -92 -342 -92q-95 0 -169.5 24.5t-127 75.5t-70 129.5t1.5 186.5q23 116 98 212.5 t189 153.5q-102 144 -71 304q32 165 154.5 263.5t319.5 98.5q187 0 278 -95t59 -261q-21 -106 -99 -198t-193 -152l83 -140q41 84 60 165q3 13 16.5 23t27.5 10h268q16 0 25 -11.5t5 -27.5q-26 -114 -83.5 -233t-137.5 -216l142 -229q12 -19 -1 -39t-38 -20h-319 q-35 0 -44 17z" />
<glyph unicode="'" horiz-adv-x="616" d="M204 796l88 564q2 16 15 28t30 12h281q16 0 24 -11t5 -26l-7 -40l-148 -529q-5 -14 -18 -24t-26 -10h-214q-15 0 -23.5 10.5t-6.5 25.5z" />
<glyph unicode="(" horiz-adv-x="702" d="M157 620q86 443 390 849q24 31 58 31h223q22 0 25.5 -15t-10.5 -34q-274 -400 -358 -831q-83 -426 34 -831q6 -20 -2.5 -34.5t-30.5 -14.5h-223q-33 0 -46 31q-146 404 -60 849z" />
<glyph unicode=")" horiz-adv-x="702" d="M567 620q-86 -443 -390 -849q-24 -31 -58 -31h-223q-21 0 -24.5 15t10.5 34q273 401 357 831q83 426 -34 831q-6 20 2.5 34.5t30.5 14.5h223q33 0 46 -31q146 -404 60 -849z" />
<glyph unicode="*" horiz-adv-x="1052" d="M657 854l169 139q14 12 31 9t27 -19l107 -187q8 -15 2.5 -31t-21.5 -22l-205 -79l204 -77q17 -7 23.5 -22.5t-2.5 -31.5l-108 -187q-9 -15 -25.5 -18.5t-30.5 7.5l-172 139l36 -215q3 -18 -7.5 -31.5t-29.5 -13.5h-216q-17 0 -28.5 13t-8.5 30l34 217l-168 -139 q-14 -12 -31 -9t-27 19l-107 187q-8 15 -2.5 31t21.5 22l204 79l-203 77q-17 7 -23.5 22.5t2.5 31.5l108 187q9 15 25.5 18.5t30.5 -7.5l171 -140l-35 216q-3 18 7.5 31.5t29.5 13.5h216q17 0 28.5 -13t8.5 -30z" />
<glyph unicode="+" d="M386 189v341h-279q-15 0 -26 11t-11 26v190q0 15 11 26t26 11h279v341q0 16 10.5 26.5t26.5 10.5h234q16 0 26.5 -10.5t10.5 -26.5v-341h279q15 0 26 -11t11 -26v-190q0 -15 -11 -26t-26 -11h-279v-341q0 -15 -10.5 -26t-26.5 -11h-234q-16 0 -26.5 11t-10.5 26z" />
<glyph unicode="," horiz-adv-x="524" d="M-28 -190q98 91 117 174q-105 29 -72 192q20 103 71 151.5t142 48.5t123 -48.5t12 -151.5q-64 -329 -320 -493q-39 -24 -53 9l-32 72q-12 26 12 46z" />
<glyph unicode="-" horiz-adv-x="682" d="M582 522h-488q-15 0 -24 11t-6 27l41 207q2 15 15.5 26t28.5 11h488q15 0 23.5 -11t6.5 -26l-41 -207q-3 -16 -16 -27t-28 -11z" />
<glyph unicode="." horiz-adv-x="524" d="M156 -24q-91 0 -123 48.5t-12 151.5t71 151.5t142 48.5t123 -48.5t12 -151.5t-71 -151.5t-142 -48.5z" />
<glyph unicode="/" horiz-adv-x="892" d="M-163 -174l930 1641q16 29 50 29h243q21 0 26.5 -13t-5.5 -33l-931 -1641q-16 -29 -50 -29h-242q-21 0 -26.5 13t5.5 33z" />
<glyph unicode="0" horiz-adv-x="1048" d="M419 -24q-236 0 -319.5 175.5t-11.5 548.5t224 548.5t388 175.5t320 -175.5t12 -548.5t-224.5 -548.5t-388.5 -175.5zM643 1128q-36 0 -61.5 -27.5t-57 -124t-66.5 -276.5q-22 -110 -32.5 -188t-11.5 -124.5t7.5 -72.5t21 -34.5t33.5 -8.5q36 0 61.5 27.5t57.5 124 t67 276.5q21 110 31.5 188t11.5 124.5t-7.5 72.5t-21 34.5t-33.5 8.5z" />
<glyph unicode="1" horiz-adv-x="1048" d="M192 1086l393 291q32 23 73 23h272q15 0 23.5 -11t5.5 -26l-257 -1326q-3 -15 -16 -26t-28 -11h-322q-15 0 -24 11t-6 26l180 929l-162 -121q-15 -11 -31 -9t-23 16l-95 185q-5 11 -0.5 25.5t17.5 23.5z" />
<glyph unicode="2" horiz-adv-x="1048" d="M62 285q126 102 236 212t199.5 235t107.5 218q32 162 -126 162q-93 0 -197 -40q-21 -8 -35 0t-10 30l34 220q5 32 35 43q145 59 327 59q222 0 320.5 -115.5t58.5 -322.5q-20 -103 -70.5 -201t-125 -184.5t-146 -153t-164.5 -139.5h333q16 0 24.5 -11t5.5 -27l-45 -233 q-3 -15 -15.5 -26t-28.5 -11h-754q-15 0 -24 11t-6 26l40 205q4 24 26 43z" />
<glyph unicode="3" horiz-adv-x="1048" d="M258 596q-14 1 -22.5 11.5t-5.5 25.5l36 188q3 14 16 25t27 12q288 11 317 160q25 126 -113 126q-116 0 -226 -40q-21 -8 -35.5 1.5t-12.5 30.5l23 177q4 38 39 52q155 59 348 59q218 0 318.5 -96t67.5 -268q-47 -241 -277 -332q99 -36 141 -124t17 -216 q-38 -196 -190.5 -304t-375.5 -108q-200 0 -330 57q-30 13 -18 55l53 191q5 21 23.5 31t35.5 1q101 -55 216 -55q160 0 189 146q18 95 -50 141t-211 53z" />
<glyph unicode="4" horiz-adv-x="1048" d="M466 246h-449q-15 0 -23.5 11t-5.5 26l43 223q9 47 39 92l512 775q19 27 53 27h399q16 0 24 -11t5 -26l-157 -811h74q16 0 24.5 -11t6.5 -26l-45 -232q-3 -15 -16.5 -26t-29.5 -11h-74l-40 -209q-3 -15 -15.5 -26t-28.5 -11h-306q-15 0 -24 11t-6 26zM609 982l-285 -430 h202z" />
<glyph unicode="5" horiz-adv-x="1048" d="M133 302q81 -36 183 -36q94 0 149 45.5t75 146.5q17 93 -21 131.5t-136 38.5q-97 0 -177 -22q-20 -5 -31.5 3.5t-7.5 28.5l140 725q3 15 16.5 26t28.5 11h700q16 0 24 -11t5 -26l-41 -214q-3 -16 -15.5 -26.5t-28.5 -10.5h-357l-44 -224q49 6 85 6q156 0 228.5 -110.5 t31.5 -321.5q-46 -237 -199.5 -361.5t-398.5 -124.5q-183 0 -306 47q-26 11 -17 41l56 207q5 20 23 29t35 2z" />
<glyph unicode="6" horiz-adv-x="1048" d="M561 662q-53 0 -99 -36q-37 -198 -29 -280t63 -82q42 0 70 43.5t50 154.5q40 200 -55 200zM962 1102q-74 34 -173 34q-94 0 -156.5 -58.5t-107.5 -187.5q95 44 217 44q163 0 228 -121t20 -351q-45 -232 -182.5 -359t-357.5 -127q-242 0 -332 170t-25 506q79 404 253 588 t441 184q144 0 261 -40q32 -11 24 -49l-51 -202q-6 -22 -23.5 -30.5t-35.5 -0.5z" />
<glyph unicode="7" horiz-adv-x="1048" d="M1021 1046l-522 -1010q-17 -36 -55 -36h-327q-22 0 -30 14t3 34l541 1044h-414q-16 0 -25 11t-6 26l45 234q3 15 16.5 26t29.5 11h793q16 0 24 -11t5 -26l-40 -206q-12 -59 -38 -111z" />
<glyph unicode="8" horiz-adv-x="1048" d="M1062 1058q-36 -189 -230 -310q115 -74 142.5 -155.5t4.5 -198.5q-37 -189 -189 -303.5t-372 -114.5q-222 0 -330 114.5t-71 303.5q26 131 96.5 213.5t181.5 144.5q-78 72 -100 138t-3 168q33 169 166.5 267.5t340.5 98.5q205 0 300.5 -98t62.5 -268zM586 386 q9 49 -4.5 90t-62.5 90q-42 -34 -70.5 -74.5t-40.5 -105.5q-15 -74 2.5 -110t58.5 -36q40 0 71 36t46 110zM549 1034q-18 -95 41 -152q88 62 105 152q13 69 1.5 98.5t-48.5 29.5q-38 0 -62 -30.5t-37 -97.5z" />
<glyph unicode="9" horiz-adv-x="1048" d="M552 738q52 0 99 36q37 198 29 280t-63 82q-42 0 -70 -43.5t-50 -154.5q-40 -200 55 -200zM151 298q74 -34 173 -34q94 0 156.5 58.5t107.5 187.5q-95 -44 -217 -44q-163 0 -228 121t-20 351q45 232 182.5 359t357.5 127q242 0 332 -170t25 -506q-79 -404 -253 -588 t-441 -184q-145 0 -260 40q-33 11 -25 49l51 202q6 21 23.5 30t35.5 1z" />
<glyph unicode=":" horiz-adv-x="524" d="M156 -24q-91 0 -123 48.5t-12 151.5t71 151.5t142 48.5t123 -48.5t12 -151.5t-71 -151.5t-142 -48.5zM289 660q-91 0 -123 48.5t-12 151.5t71 151.5t142 48.5t123 -48.5t12 -151.5t-71 -151.5t-142 -48.5z" />
<glyph unicode=";" horiz-adv-x="524" d="M-28 -190q98 91 117 174q-105 29 -72 192q20 103 71 151.5t142 48.5t123 -48.5t12 -151.5q-64 -329 -320 -493q-39 -24 -53 9l-32 72q-12 26 12 46zM285 660q-91 0 -123 48.5t-12 151.5t71 151.5t142 48.5t123 -48.5t12 -151.5t-71 -151.5t-142 -48.5z" />
<glyph unicode="&#x3c;" d="M70 502v320q0 36 37 49l853 303q20 7 35 -2t15 -30v-212q0 -38 -35 -50l-653 -218l653 -218q35 -12 35 -50v-212q0 -21 -15 -30t-35 -2l-853 303q-37 13 -37 49z" />
<glyph unicode="=" d="M973 768h-866q-15 0 -26 11t-11 26v190q0 16 11 26.5t26 10.5h866q15 0 26 -10.5t11 -26.5v-190q0 -15 -11 -26t-26 -11zM973 292h-866q-15 0 -26 11t-11 26v190q0 16 11 26.5t26 10.5h866q15 0 26 -10.5t11 -26.5v-190q0 -15 -11 -26t-26 -11z" />
<glyph unicode="&#x3e;" d="M1010 822v-320q0 -36 -37 -49l-853 -303q-20 -7 -35 2t-15 30v212q0 38 35 50l653 218l-653 218q-35 12 -35 50v212q0 21 15 30t35 2l853 -303q37 -13 37 -49z" />
<glyph unicode="?" horiz-adv-x="920" d="M124 156q18 93 76 137.5t163 44.5q106 0 146.5 -44.5t22.5 -137.5q-18 -92 -75.5 -136t-163.5 -44q-105 0 -146 44t-23 136zM587 512l-8 -41q-3 -15 -15.5 -26t-28.5 -11h-306q-15 0 -24 11t-6 26l12 59q21 109 72 190t151 155q83 62 100 147q10 51 -16.5 78.5 t-90.5 27.5q-98 0 -204 -49q-24 -11 -38.5 -3t-12.5 29l25 202q5 41 45 57q143 60 312 60q226 0 325 -97t64 -281q-38 -197 -268 -370q-66 -50 -88 -164z" />
<glyph unicode="@" horiz-adv-x="1480" d="M973 -35q12 9 23.5 11t20 -3.5t10.5 -19.5l20 -106q5 -28 -21 -46q-180 -125 -444 -125q-143 0 -257.5 57t-188.5 168t-96.5 274t17.5 375q33 171 98.5 315t150.5 245.5t187 173.5t210 106t218 34q204 0 339.5 -102.5t181.5 -288.5t-1 -445q-22 -115 -56 -203t-84 -157.5 t-122.5 -106.5t-163.5 -37q-140 0 -212 94q-114 -80 -239 -80q-74 0 -127.5 29t-79 80t-33 119t9.5 146q47 241 208.5 401.5t340.5 160.5q94 0 162.5 -38.5t105.5 -108.5q25 -47 6 -105l-124 -358q-10 -28 -12 -40q-9 -49 5 -68.5t50 -19.5q54 0 91.5 64t69.5 228 q59 306 -37 480t-314 174q-98 0 -194 -44t-180.5 -127.5t-151 -217.5t-99.5 -303q-63 -323 39 -508.5t325 -185.5q202 0 348 109zM665 344q58 0 107 54l118 370q-14 22 -52 22q-64 0 -129 -88t-92 -224q-25 -134 48 -134z" />
<glyph unicode="A" horiz-adv-x="1180" d="M691 1072l-188 -504h178zM516 1400h478q40 0 42 -39l41 -1315q2 -46 -45 -46h-318q-41 0 -41 41l3 235h-282l-87 -235q-15 -41 -55 -41h-318q-48 0 -29 46l553 1315q16 39 58 39z" />
<glyph unicode="B" horiz-adv-x="1120" d="M493 0h-458q-16 0 -25 11t-6 27l257 1324q3 16 16.5 27t29.5 11h440q227 0 327.5 -96t64.5 -282q-18 -94 -70 -166t-134 -112q83 -37 119 -126t15 -194q-82 -424 -576 -424zM427 262h106q119 0 150 164q33 164 -86 164h-106zM766 994q15 81 -13 112.5t-89 31.5h-66 l-56 -288h66q63 0 102 30.5t56 113.5z" />
<glyph unicode="C" horiz-adv-x="1048" d="M915 322q23 9 37 1t11 -31l-28 -220q-4 -37 -40 -50q-129 -46 -298 -46q-313 0 -443.5 190.5t-63.5 533.5q66 341 269 532.5t513 191.5q173 0 282 -50q27 -13 18 -44l-57 -221q-6 -22 -23.5 -30.5t-37.5 0.5q-84 33 -186 33q-144 0 -241.5 -105t-136.5 -307 q-40 -203 18 -307.5t205 -104.5q109 0 202 34z" />
<glyph unicode="D" horiz-adv-x="1182" d="M777 700q23 119 27 198t-12 125.5t-46.5 65.5t-81.5 19h-72l-159 -816h72q68 0 115 35t86.5 125t70.5 248zM307 1400h424q289 0 394 -173.5t36 -526.5q-69 -355 -241 -527.5t-461 -172.5h-424q-16 0 -25 11t-6 27l257 1324q3 16 16.5 27t29.5 11z" />
<glyph unicode="E" d="M4 38l257 1324q3 16 16.5 27t29.5 11h778q16 0 24.5 -11t5.5 -27l-45 -232q-3 -16 -16 -27t-29 -11h-420l-46 -234h386q16 0 25 -11t6 -27l-45 -232q-3 -15 -16.5 -26.5t-29.5 -11.5h-386l-47 -242h430q16 0 25 -11t6 -27l-45 -232q-3 -16 -16 -27t-29 -11h-788 q-16 0 -25 11t-6 27z" />
<glyph unicode="F" horiz-adv-x="966" d="M4 38l257 1324q3 16 16.5 27t28.5 11h779q16 0 24.5 -11t5.5 -27l-45 -232q-3 -16 -16 -27t-29 -11h-420l-46 -236h386q16 0 25 -11t6 -27l-46 -233q-3 -15 -16 -26t-29 -11h-386l-99 -510q-3 -16 -16 -27t-29 -11h-321q-15 0 -24 11t-6 27z" />
<glyph unicode="G" horiz-adv-x="1220" d="M790 533l-140 1q-16 0 -24.5 11t-5.5 27l43 225q3 15 16.5 26t29.5 11h446q16 0 24.5 -11t5.5 -26l-134 -692q-5 -27 -17.5 -41.5t-35.5 -23.5q-157 -64 -386 -64q-315 0 -452.5 190t-70.5 534q65 339 276.5 531.5t535.5 192.5q212 0 338 -67q31 -17 20 -58l-54 -211 q-6 -23 -24 -30.5t-35 2.5q-103 52 -241 52q-164 0 -269 -97.5t-147 -314.5q-41 -211 13.5 -311.5t189.5 -100.5q34 0 52 10z" />
<glyph unicode="H" horiz-adv-x="1242" d="M4 38l257 1324q3 16 16.5 27t29.5 11h320q16 0 24.5 -11t5.5 -27l-91 -468h250l91 468q3 16 16.5 27t29.5 11h320q16 0 24.5 -11t5.5 -27l-257 -1324q-3 -16 -16 -27t-29 -11h-320q-16 0 -25 11t-6 27l107 550h-250l-107 -550q-3 -16 -16 -27t-29 -11h-320q-16 0 -25 11 t-6 27z" />
<glyph unicode="I" horiz-adv-x="616" d="M316 1400h321q16 0 24.5 -11t5.5 -27l-257 -1324q-3 -16 -16 -27t-29 -11h-321q-15 0 -24 11t-6 27l257 1324q3 16 16.5 27t28.5 11z" />
<glyph unicode="J" horiz-adv-x="878" d="M373 485l170 877q3 16 17 27t29 11h320q16 0 24.5 -11t5.5 -27l-170 -877q-51 -262 -186.5 -385.5t-379.5 -123.5q-151 0 -261 41q-37 14 -24 64l56 206q6 20 23.5 30t34.5 2q64 -31 144 -31q81 0 128.5 45t68.5 152z" />
<glyph unicode="K" horiz-adv-x="1186" d="M552 820l322 545q20 35 65 35h323q25 0 31.5 -15.5t-8.5 -38.5l-389 -600l192 -693q7 -23 -6 -38t-38 -15h-339q-46 0 -53 34l-127 650l-125 -646q-3 -16 -16 -27t-29 -11h-320q-16 0 -25 11t-6 27l257 1324q3 16 16.5 27t29.5 11h320q16 0 24.5 -11t5.5 -27z" />
<glyph unicode="L" horiz-adv-x="996" d="M4 38l257 1324q3 16 16.5 27t29.5 11h320q16 0 24.5 -11t5.5 -27l-205 -1054h450q16 0 25 -11t6 -27l-45 -232q-3 -16 -16 -27t-29 -11h-808q-16 0 -25 11t-6 27z" />
<glyph unicode="M" horiz-adv-x="1492" d="M817 418h-186q-39 0 -43 40l-65 458l-171 -878q-3 -16 -16 -27t-28 -11h-273q-16 0 -25 11t-6 27l257 1324q3 16 16.5 27t29.5 11h375q38 0 44 -34l79 -532l285 532q18 34 58 34h375q16 0 24.5 -11t5.5 -27l-257 -1324q-3 -16 -16 -27t-29 -11h-273q-15 0 -24 11t-6 27 l171 878l-243 -458q-22 -40 -59 -40z" />
<glyph unicode="N" horiz-adv-x="1264" d="M621 36l-108 746l-145 -744q-3 -16 -16 -27t-29 -11h-288q-16 0 -25 11t-6 27l257 1324q3 16 16.5 27t29.5 11h349q46 0 52 -36l109 -746l144 744q3 16 16.5 27t29.5 11h288q16 0 24.5 -11t5.5 -27l-257 -1324q-3 -16 -16 -27t-29 -11h-349q-47 0 -53 36z" />
<glyph unicode="O" horiz-adv-x="1234" d="M1216 700q-69 -356 -247 -540t-458 -184q-280 1 -385 185t-36 539t245.5 539t456.5 185q280 0 386.5 -184t37.5 -540zM816 700q33 157 29.5 249t-30 127.5t-81.5 35.5q-56 0 -97.5 -35t-79 -127.5t-67.5 -249.5q-23 -119 -28.5 -200t7 -127t38 -65.5t66.5 -19.5 q55 0 96 35.5t78.5 128t68.5 248.5z" />
<glyph unicode="P" horiz-adv-x="1088" d="M753 916q20 104 -1.5 148t-79.5 44h-80l-74 -382h80q58 0 96 43t59 147zM307 1400h416q231 0 337 -120t59 -364q-47 -242 -200 -362t-384 -120h-74l-77 -396q-3 -16 -16 -27t-28 -11h-305q-16 0 -25 11t-6 27l257 1324q3 16 16.5 27t29.5 11z" />
<glyph unicode="Q" horiz-adv-x="1234" d="M956 -73q20 5 31.5 -4t9.5 -27l-20 -193q-6 -43 -47 -51q-87 -18 -182 -18q-109 0 -189.5 29.5t-123 80t-58 113t-3.5 133.5q-202 43 -273 223t-11 487q69 355 245.5 539.5t456.5 184.5t386.5 -184t37.5 -540q-112 -576 -500 -696q-4 -48 28.5 -69t98.5 -21q64 0 113 13z M816 700q33 157 29.5 249t-30 127.5t-81.5 35.5q-56 0 -97.5 -35t-79 -127.5t-67.5 -249.5q-23 -119 -28.5 -200t7 -127t38 -65.5t66.5 -19.5q55 0 96 35.5t78.5 128t68.5 248.5z" />
<glyph unicode="R" horiz-adv-x="1096" d="M869 566l137 -512q5 -22 -7.5 -38t-37.5 -16h-313q-42 0 -48 35l-75 461h-52l-89 -458q-3 -16 -16 -27t-28 -11h-305q-16 0 -25 11t-6 27l257 1324q3 16 16.5 27t29.5 11h422q231 0 337.5 -111.5t62.5 -340.5q-53 -272 -260 -382zM745 948q33 174 -72 174h-78l-68 -348 h78q106 0 140 174z" />
<glyph unicode="S" horiz-adv-x="1008" d="M3 43q-30 14 -20 50l64 245q5 20 23.5 27.5t33.5 -2.5q116 -75 253 -75q148 0 168 100q11 57 -21 94.5t-133 81.5q-281 123 -219 436q40 206 184 315t382 109q182 0 311 -56q29 -12 19 -46l-60 -228q-5 -20 -22 -27t-34 1q-103 44 -216 44q-142 0 -162 -100 q-11 -58 21.5 -93.5t136.5 -82.5q141 -64 193.5 -169.5t23.5 -258.5q-40 -209 -182 -320.5t-384 -111.5q-100 0 -197.5 17.5t-162.5 49.5z" />
<glyph unicode="T" horiz-adv-x="980" d="M196 38l205 1054h-244q-16 0 -25 11t-6 27l45 232q3 16 16.5 27t29.5 11h884q16 0 24.5 -11t5.5 -27l-45 -232q-3 -16 -16 -27t-29 -11h-244l-205 -1054q-3 -16 -16 -27t-29 -11h-321q-15 0 -24 11t-6 27z" />
<glyph unicode="U" horiz-adv-x="1252" d="M659 1362l-165 -848q-23 -129 -2.5 -177.5t88.5 -48.5t109 50.5t65 175.5l165 848q3 16 16.5 27t29.5 11h320q16 0 24.5 -11t5.5 -27l-160 -822q-56 -289 -219.5 -426.5t-415.5 -137.5t-362.5 137.5t-54.5 426.5l160 822q3 16 16.5 27t28.5 11h321q16 0 24.5 -11t5.5 -27 z" />
<glyph unicode="V" horiz-adv-x="1196" d="M735 0h-474q-41 0 -43 39l-41 1315q-2 46 46 46h315q43 0 43 -40l-24 -1056l386 1056q15 40 59 40h315q47 0 28 -46l-553 -1315q-16 -39 -57 -39z" />
<glyph unicode="W" horiz-adv-x="1616" d="M828 1400h304q47 0 44 -45l-71 -913l297 915q15 43 59 43h275q22 0 30 -13t0 -33l-494 -1301q-20 -53 -68 -53h-331q-46 0 -43 49l64 909l-290 -909q-16 -49 -61 -49h-331q-48 0 -48 53l12 1301q0 20 13 33t35 13h275q44 0 41 -43l-59 -915l285 913q15 45 62 45z" />
<glyph unicode="X" horiz-adv-x="1138" d="M591 38l-71 308l-191 -308q-23 -38 -71 -38h-321q-25 0 -32 16t8 38l421 648l-168 643q-6 23 6.5 39t36.5 16h330q41 0 48 -34l71 -308l191 308q20 34 62 34h330q24 0 30 -16t-9 -39l-418 -643l169 -648q5 -22 -7 -38t-37 -16h-321q-49 0 -57 38z" />
<glyph unicode="Y" horiz-adv-x="1162" d="M637 0h-322q-16 0 -25 11t-6 27l101 522l-200 784q-7 24 5.5 40t38.5 16h312q41 0 45 -33l72 -429l238 429q19 33 59 33h312q26 0 32 -16t-10 -40l-506 -784l-101 -522q-3 -16 -16 -27t-29 -11z" />
<glyph unicode="Z" horiz-adv-x="980" d="M807 0h-840q-16 0 -25 11t-6 27l41 210q8 45 36 82l570 762h-384q-16 0 -25 11t-6 27l45 232q3 16 16.5 27t29.5 11h806q16 0 24.5 -11t5.5 -27l-41 -210q-8 -45 -36 -82l-570 -762h418q16 0 25 -11t6 -27l-45 -232q-3 -16 -16 -27t-29 -11z" />
<glyph unicode="[" horiz-adv-x="786" d="M28 -223l328 1686q3 15 16 26t28 11h520q16 0 24.5 -11t5.5 -26l-37 -188q-3 -15 -15.5 -26t-28.5 -11h-229l-240 -1236h229q16 0 24.5 -10.5t5.5 -26.5l-37 -188q-3 -15 -15.5 -26t-28.5 -11h-520q-15 0 -24 11t-6 26z" />
<glyph unicode="\" horiz-adv-x="892" d="M481 1467l293 -1641q4 -20 -7 -33t-32 -13h-243q-36 0 -40 29l-293 1641q-4 20 7 33t32 13h243q36 0 40 -29z" />
<glyph unicode="]" horiz-adv-x="786" d="M791 1463l-328 -1686q-3 -15 -16 -26t-28 -11h-520q-15 0 -23.5 11t-5.5 26l36 188q3 16 15.5 26.5t28.5 10.5h229l240 1236h-229q-16 0 -24.5 11t-5.5 26l37 188q3 15 15.5 26t28.5 11h520q15 0 24 -11t6 -26z" />
<glyph unicode="^" d="M385 1400h286q47 0 66 -42l257 -567q11 -19 3 -36t-36 -17h-238q-37 0 -51 33l-144 347l-144 -347q-14 -33 -51 -33h-238q-28 0 -36 17t3 36l257 567q19 42 66 42z" />
<glyph unicode="_" horiz-adv-x="1000" d="M-164 -315l18 90q3 15 16 26t27 11h926q15 0 24 -11t6 -26l-18 -90q-3 -15 -16 -26t-28 -11h-925q-15 0 -24 11t-6 26z" />
<glyph unicode="`" horiz-adv-x="784" d="M634 1422l93 -258q6 -17 -3.5 -30.5t-31.5 -13.5h-173q-41 0 -66 36l-146 230q-17 29 -14 47q5 27 43 27h237q46 0 61 -38z" />
<glyph unicode="a" horiz-adv-x="1024" d="M483 37l6 31q-95 -92 -214 -92q-346 0 -241 542t452 542q118 0 178 -92l6 31q3 15 16 26t28 11h298q16 0 24.5 -11t5.5 -26l-187 -962q-3 -15 -15.5 -26t-28.5 -11h-298q-15 0 -24 11t-6 26zM406 518q-22 -114 -25.5 -175.5t12 -89t54.5 -27.5q42 0 78 30l102 524 q-24 30 -66 30q-57 0 -90 -62.5t-65 -229.5z" />
<glyph unicode="b" horiz-adv-x="1024" d="M358 68l-6 -31q-3 -15 -16 -26t-28 -11h-297q-16 0 -25 11t-6 26l269 1386q3 15 16 26t29 11h297q15 0 24 -11t6 -26l-88 -455q94 92 214 92q345 0 240 -542t-451 -542q-120 0 -178 92zM615 518q22 114 25.5 175.5t-12 89t-54.5 27.5q-42 0 -78 -30l-102 -524 q24 -30 66 -30q57 0 90 62.5t65 229.5z" />
<glyph unicode="c" horiz-adv-x="836" d="M698 237q20 5 30 -2.5t8 -25.5l-19 -162q-6 -41 -43 -50q-88 -21 -196 -21q-269 0 -382.5 140t-62.5 402q50 261 218 401.5t432 140.5q96 0 185 -24q35 -9 25 -47l-45 -164q-11 -38 -50 -28q-50 13 -108 13q-100 0 -171 -70t-100 -222q-57 -292 165 -292q64 0 114 11z " />
<glyph unicode="d" horiz-adv-x="1024" d="M483 37l6 31q-95 -92 -214 -92q-346 0 -241 542t452 542q118 0 178 -92l88 455q3 15 16 26t28 11h297q16 0 25 -11t6 -26l-269 -1386q-3 -15 -16 -26t-29 -11h-297q-15 0 -24 11t-6 26zM406 518q-22 -114 -25.5 -175.5t12 -89t54.5 -27.5q42 0 78 30l102 524 q-24 30 -66 30q-57 0 -90 -62.5t-65 -229.5z" />
<glyph unicode="e" horiz-adv-x="950" d="M413 628h10q96 0 139.5 24t55.5 84q16 84 -48 84q-53 0 -91 -44.5t-66 -147.5zM444 -24q-249 0 -355 141.5t-55 402.5q51 263 206.5 401.5t372.5 138.5q193 0 283.5 -89.5t62.5 -236.5q-29 -153 -174 -245.5t-378 -92.5h-38q-7 -97 31 -133.5t136 -36.5q104 0 193 34 q20 7 33 -1.5t11 -28.5l-19 -165q-2 -24 -13.5 -36.5t-34.5 -18.5q-124 -34 -262 -34z" />
<glyph unicode="f" horiz-adv-x="714" d="M58 827l34 172q3 15 15.5 26t28.5 11h107l13 66q69 358 437 358q104 0 190 -24q18 -5 22.5 -15.5t-1.5 -30.5l-45 -159q-12 -40 -49 -28q-23 7 -53 7q-53 0 -81 -26.5t-39 -86.5l-12 -61h157q15 0 24 -11t6 -26l-34 -172q-3 -16 -16 -26.5t-28 -10.5h-157l-221 -1139 q-3 -15 -16.5 -26t-28.5 -11h-307q-16 0 -24.5 11t-5.5 26l221 1139h-107q-16 0 -24.5 10.5t-5.5 26.5z" />
<glyph unicode="g" horiz-adv-x="1024" d="M408 534q-30 -164 -19 -220t64 -56q41 0 77 30l96 492q-24 30 -66 30q-53 0 -87 -58.5t-65 -217.5zM77 -112q90 -38 182 -38q90 0 146.5 42t75.5 140l13 68q-95 -92 -214 -92q-346 0 -244 526t449 526q118 0 178 -92l6 31q3 15 16 26t28 11h298q16 0 24.5 -11t5.5 -26 l-170 -871q-27 -141 -70.5 -237.5t-115.5 -163t-176 -97t-250 -30.5q-160 0 -256 40q-18 7 -24.5 18t-0.5 32l42 166q5 20 22.5 30t34.5 2z" />
<glyph unicode="h" horiz-adv-x="1070" d="M1017 628l-115 -591q-3 -15 -15.5 -26t-28.5 -11h-308q-16 0 -24.5 11t-5.5 26l109 561q23 135 13 173.5t-54 38.5q-45 0 -82 -30l-144 -743q-3 -15 -15.5 -26t-28.5 -11h-308q-16 0 -24.5 11t-5.5 26l269 1386q3 15 15.5 26t28.5 11h308q16 0 24.5 -11t5.5 -26l-88 -455 q47 42 111.5 67t134.5 25q152 0 211.5 -103.5t16.5 -328.5z" />
<glyph unicode="i" horiz-adv-x="556" d="M-10 37l187 962q3 15 16 26t28 11h308q15 0 24 -11t6 -26l-187 -962q-3 -15 -16 -26t-28 -11h-308q-15 0 -24 11t-6 26zM393 1124q-106 0 -148 41.5t-25 126.5q16 85 74 126.5t164 41.5t148 -41.5t26 -126.5q-33 -168 -239 -168z" />
<glyph unicode="j" horiz-adv-x="582" d="M16 18l191 981q3 15 16 26t28 11h308q15 0 24 -11t6 -26l-187 -960q-22 -112 -51 -186.5t-81 -135t-134.5 -89t-200.5 -28.5q-94 0 -183 21q-39 9 -28 52l39 150q5 19 19.5 28.5t31.5 5.5q28 -7 68 -7q57 0 86 35t48 133zM423 1124q-106 0 -148 41.5t-25 126.5 q16 85 74 126.5t164 41.5t148 -41.5t26 -126.5q-33 -168 -239 -168z" />
<glyph unicode="k" horiz-adv-x="1026" d="M631 1423l-150 -771l201 350q19 34 55 34h313q21 0 27 -16t-6 -36l-261 -412l103 -522q4 -20 -9 -35t-34 -15h-314q-38 0 -43 35l-64 451l-87 -449q-3 -15 -16 -26t-29 -11h-307q-16 0 -24.5 11t-5.5 26l269 1386q3 15 15.5 26t28.5 11h307q16 0 25 -11t6 -26z" />
<glyph unicode="l" horiz-adv-x="554" d="M-10 37l269 1386q3 15 16 26t28 11h308q15 0 24 -11t6 -26l-269 -1386q-3 -15 -16 -26t-28 -11h-308q-15 0 -24 11t-6 26z" />
<glyph unicode="m" horiz-adv-x="1500" d="M980 37l110 567q17 86 16.5 132.5t-13 60t-39.5 13.5q-47 0 -88 -32q-5 -78 -18 -144l-116 -597q-3 -15 -15.5 -26t-28.5 -11h-276q-15 0 -25 11t-7 26l110 567q17 86 16.5 132.5t-12.5 60t-38 13.5q-43 0 -80 -30l-144 -743q-3 -15 -15.5 -26t-28.5 -11h-278 q-15 0 -24 11t-6 26l187 962q3 15 16 26t28 11h278q16 0 24.5 -11t5.5 -26l-6 -31q46 43 109.5 67.5t130.5 24.5q146 0 193 -118q128 118 293 118q152 0 202 -100.5t7 -325.5l-116 -597q-3 -15 -16 -26t-29 -11h-276q-16 0 -25 11t-6 26z" />
<glyph unicode="n" horiz-adv-x="1070" d="M1017 628l-115 -591q-3 -15 -15.5 -26t-28.5 -11h-308q-16 0 -24.5 11t-5.5 26l109 561q23 135 13 173.5t-54 38.5q-45 0 -82 -30l-144 -743q-3 -15 -15.5 -26t-28.5 -11h-308q-16 0 -24.5 11t-5.5 26l187 962q3 15 15.5 26t28.5 11h308q16 0 24.5 -11t5.5 -26l-6 -31 q47 42 111.5 67t134.5 25q152 0 211.5 -103.5t16.5 -328.5z" />
<glyph unicode="o" horiz-adv-x="1008" d="M398 -24q-226 0 -321 138t-44 404q52 266 201 404t375 138t321 -138t43 -404q-51 -266 -200 -404t-375 -138zM601 518q23 116 23.5 182t-15.5 88t-49 22t-57.5 -22t-49.5 -88t-48 -182q-22 -117 -23 -182.5t15 -87.5t49 -22q51 0 86.5 61t68.5 231z" />
<glyph unicode="p" horiz-adv-x="1024" d="M538 999l-6 -31q94 92 214 92q345 0 240 -542t-451 -542q-120 0 -178 92l-81 -417q-3 -15 -16.5 -26t-28.5 -11h-297q-16 0 -24.5 11t-5.5 26l262 1348q3 15 16 26t29 11h297q15 0 24 -11t6 -26zM614 518q22 114 25.5 175.5t-12 89t-54.5 27.5q-42 0 -78 -30l-102 -524 q24 -30 66 -30q57 0 90 62.5t65 229.5z" />
<glyph unicode="q" horiz-adv-x="1024" d="M664 968l6 31q3 15 16 26t28 11h297q16 0 25 -11t6 -26l-262 -1348q-3 -15 -16.5 -26t-29.5 -11h-297q-15 0 -23.5 11t-5.5 26l81 417q-95 -92 -214 -92q-346 0 -241 542t452 542q118 0 178 -92zM406 518q-22 -114 -25.5 -175.5t12 -89t54.5 -27.5q42 0 78 30l102 524 q-24 30 -66 30q-57 0 -90 -62.5t-65 -229.5z" />
<glyph unicode="r" horiz-adv-x="762" d="M736 774q-38 10 -77 10q-65 0 -112 -42.5t-71 -117.5l-114 -587q-3 -15 -15.5 -26t-28.5 -11h-308q-16 0 -24.5 11t-5.5 26l187 962q3 15 15.5 26t28.5 11h308q16 0 24.5 -11t5.5 -26l-8 -39q34 44 90.5 72t115.5 28q48 0 85 -14q29 -12 18 -46l-61 -198 q-5 -17 -19.5 -25t-33.5 -3z" />
<glyph unicode="s" horiz-adv-x="838" d="M51 280q101 -54 202 -54q49 0 74.5 14t31.5 48q8 42 -15 72.5t-103 77.5q-193 108 -154 310q29 153 150.5 232.5t312.5 79.5q151 0 260 -34q18 -6 22.5 -16t-0.5 -29l-46 -170q-5 -19 -20 -26.5t-33 -0.5q-69 26 -150 26q-98 0 -110 -64q-8 -37 15.5 -64.5t108.5 -77.5 q96 -59 133 -131.5t19 -168.5q-30 -153 -147 -240.5t-309 -87.5q-195 0 -312 49q-18 8 -23.5 18.5t-1.5 29.5l43 183q5 19 20 26t32 -2z" />
<glyph unicode="t" horiz-adv-x="772" d="M72 827l34 172q3 15 16 26t28 11h83l53 275q3 15 16 26t29 11h307q16 0 24.5 -11t5.5 -26l-53 -275h175q15 0 24 -11t6 -26l-34 -172q-3 -16 -16 -26.5t-28 -10.5h-175l-74 -381q-18 -109 -1 -146t76 -37q32 0 62 6q21 5 32 -4t9 -28l-18 -158q-6 -41 -49 -50 q-74 -16 -162 -16q-124 0 -200 33t-108 97t-33.5 157.5t23.5 214.5l61 312h-83q-15 0 -24 10.5t-6 26.5z" />
<glyph unicode="u" horiz-adv-x="1074" d="M54 408l115 591q3 15 15.5 26t28.5 11h308q16 0 24.5 -11t5.5 -26l-109 -561q-23 -135 -13.5 -173.5t53.5 -38.5q47 0 82 30l145 743q3 15 15.5 26t28.5 11h308q16 0 24.5 -11t5.5 -26l-187 -962q-3 -15 -15.5 -26t-28.5 -11h-308q-16 0 -24.5 11t-5.5 26l6 31 q-104 -92 -246 -92q-312 0 -228 432z" />
<glyph unicode="v" horiz-adv-x="992" d="M585 0h-384q-39 0 -41 38l-57 952q-1 19 12.5 32.5t32.5 13.5h296q42 0 42 -42l-21 -620l221 620q14 42 58 42h296q19 0 27 -13.5t0 -32.5l-427 -952q-17 -38 -55 -38z" />
<glyph unicode="w" horiz-adv-x="1448" d="M689 1036h268q42 0 40 -42l-38 -616l205 616q14 42 62 42h273q19 0 27 -13t0 -32l-387 -951q-17 -40 -58 -40h-344q-43 0 -40 43l35 525l-169 -525q-13 -43 -56 -43h-344q-42 0 -44 40l-17 951q0 19 13 32t32 13h273q23 0 35 -10.5t11 -31.5l-35 -616l202 616 q14 42 56 42z" />
<glyph unicode="x" horiz-adv-x="892" d="M415 34l-31 234l-123 -234q-18 -34 -55 -34h-281q-23 0 -29.5 16t6.5 35l285 471l-99 463q-5 23 7 37t37 14h279q38 0 42 -32l29 -228l119 228q16 32 54 32h279q25 0 31.5 -14t-7.5 -37l-279 -463l101 -471q5 -20 -6.5 -35.5t-34.5 -15.5h-281q-39 0 -43 34z" />
<glyph unicode="y" horiz-adv-x="980" d="M722 1036h301q20 0 28 -14t-1 -34l-599 -1333q-18 -41 -67 -41h-290q-20 0 -27.5 13t0.5 32l143 343l-109 986q-3 21 9.5 34.5t34.5 13.5h299q35 0 35 -34l-1 -506l197 508q12 32 47 32z" />
<glyph unicode="z" horiz-adv-x="838" d="M-13 265l423 525h-280q-16 0 -25 10.5t-6 26.5l34 172q3 15 16 26t29 11h683q15 0 24 -11t6 -26l-31 -156q-8 -41 -30 -71l-424 -526h317q15 0 24 -10.5t6 -26.5l-33 -172q-3 -15 -16 -26t-28 -11h-720q-15 0 -24 11t-6 26l30 157q8 42 31 71z" />
<glyph unicode="{" horiz-adv-x="784" d="M102 523l38 194q6 34 35 42q109 30 136 171l62 318q24 124 109.5 188t211.5 64h227q15 0 24 -11t6 -26l-37 -188q-3 -15 -16 -26t-28 -11h-109q-64 0 -77 -70l-57 -292q-40 -202 -250 -256q190 -55 150 -256l-57 -292q-13 -70 51 -70h109q15 0 24 -11t6 -26l-37 -188 q-3 -15 -16 -26t-28 -11h-227q-126 0 -186.5 64t-36.5 188l62 318q27 141 -70 171q-25 8 -19 42z" />
<glyph unicode="|" horiz-adv-x="544" d="M172 -363v1864q0 15 10.5 26t26.5 11h184q15 0 26 -11t11 -26v-1864q0 -15 -11 -26t-26 -11h-184q-16 0 -26.5 11t-10.5 26z" />
<glyph unicode="}" horiz-adv-x="784" d="M718 717l-38 -194q-6 -34 -35 -42q-109 -30 -136 -171l-62 -318q-24 -124 -109.5 -188t-211.5 -64h-227q-14 0 -23 11t-6 26l36 188q3 15 16 26t28 11h109q64 0 77 70l57 292q40 202 250 256q-190 55 -150 256l57 292q13 70 -51 70h-109q-15 0 -24 11t-6 26l37 188 q3 15 16 26t28 11h227q126 0 186.5 -64t36.5 -188l-62 -318q-27 -141 70 -171q25 -8 19 -42z" />
<glyph unicode="~" d="M741 444q-105 0 -194 70q-76 60 -118 60q-25 0 -37 -19.5t-14 -70.5q-2 -36 -38 -36h-230q-16 0 -28 10.5t-11 25.5q8 206 79 303t191 97q105 0 194 -70q76 -60 118 -60q25 0 37 19.5t14 70.5q2 36 38 36h230q16 0 28 -10.5t11 -25.5q-8 -206 -79 -303t-191 -97z" />
<glyph unicode="&#xa1;" horiz-adv-x="694" d="M450 1062q106 0 146.5 -44.5t22.5 -137.5q-19 -94 -76.5 -138t-163.5 -44t-146.5 44.5t-21.5 137.5q18 94 75.5 138t163.5 44zM234 592h250q15 0 23.5 -10t6.5 -25l-83 -612l-53 -272q-3 -15 -16 -26t-29 -11h-320q-16 0 -25 11t-6 26l53 272l155 612q4 15 16.5 25 t27.5 10z" />
<glyph unicode="&#xa2;" horiz-adv-x="836" d="M415 -234h-132q-15 0 -24 11t-6 26l38 195q-167 45 -232.5 177.5t-24.5 342.5q41 209 158 342.5t301 177.5l38 195q3 15 16 26t28 11h132q15 0 24 -11t6 -26l-33 -173q80 -3 165 -24q35 -9 25 -47l-45 -164q-11 -38 -50 -28q-50 13 -108 13q-100 0 -171 -70t-100 -222 q-57 -292 165 -292q65 0 114 11q20 5 30 -2.5t8 -25.5l-19 -162q-6 -41 -43 -50q-82 -19 -182 -21l-34 -173q-3 -15 -16 -26t-28 -11z" />
<glyph unicode="&#xa3;" horiz-adv-x="942" d="M1016 1375q33 -15 22 -51l-57 -215q-6 -21 -23 -29.5t-35 -0.5q-66 33 -146 33q-147 0 -175 -148l-38 -194h211q15 0 24 -11t6 -26l-9 -47q-3 -16 -16.5 -29t-28.5 -13h-211l-23 -116q-15 -73 -42 -123t-81 -97h467q16 0 24.5 -11t5.5 -27l-45 -233q-3 -15 -15.5 -26 t-28.5 -11h-848q-16 0 -24.5 11t-5.5 26l43 221q6 38 39 62q46 36 71.5 79.5t38.5 110.5l26 134h-63q-16 0 -24.5 11t-5.5 26l10 52q3 15 15.5 26t28.5 11h63l44 226q84 428 531 428q162 0 275 -49z" />
<glyph unicode="&#xa4;" horiz-adv-x="1412" d="M1203 662q0 -107 -44 -198l160 -165q10 -11 10 -26t-10 -26l-161 -170q-11 -11 -26.5 -11t-26.5 11l-174 175q-97 -40 -207 -40t-207 40l-173 -175q-11 -11 -26.5 -11t-26.5 11l-161 170q-10 11 -10 26t10 26l159 164q-44 91 -44 199t44 199l-159 164q-10 11 -10 26 t10 26l161 170q11 11 26.5 11t26.5 -11l173 -175q97 40 207 40t207 -40l174 175q11 11 26.5 11t26.5 -11l161 -170q10 -11 10 -26t-10 -26l-160 -165q44 -91 44 -198zM586 662q0 -84 38 -131t100 -47t100 47t38 131t-38 131t-100 47t-100 -47t-38 -131z" />
<glyph unicode="&#xa5;" horiz-adv-x="1048" d="M278 298h-211q-15 0 -23.5 11t-5.5 26l10 51q3 16 16 27t28 11h211l25 130h-211q-15 0 -24 11t-6 26l10 52q3 15 16.5 26t28.5 11h163l-130 665q-4 23 8 39t37 16h291q20 0 32.5 -10.5t14.5 -28.5l35 -461l215 461q20 39 63 39h291q25 0 31 -16.5t-8 -38.5l-388 -665h163 q15 0 23.5 -11t5.5 -26l-10 -52q-3 -15 -16 -26t-28 -11h-211l-25 -130h211q15 0 24 -11t6 -27l-10 -51q-3 -15 -16.5 -26t-28.5 -11h-211l-50 -261q-3 -15 -15.5 -26t-28.5 -11h-322q-16 0 -24.5 11t-5.5 26z" />
<glyph unicode="&#xa6;" horiz-adv-x="542" d="M172 740v617q0 15 10.5 26t26.5 11h184q15 0 26 -11t11 -26v-617q0 -16 -11 -27t-26 -11h-184q-16 0 -26.5 11t-10.5 27zM172 -180v617q0 15 10.5 26t26.5 11h184q15 0 26 -11t11 -26v-617q0 -16 -11 -27t-26 -11h-184q-16 0 -26.5 11t-10.5 27z" />
<glyph unicode="&#xa7;" horiz-adv-x="948" d="M424 622q-13 -68 59 -108q30 12 50.5 39t27.5 63q7 34 -8 61.5t-46 42.5q-31 -10 -53.5 -36.5t-29.5 -61.5zM92 122q94 -62 209 -62q51 0 79 18t36 60q8 38 -21.5 69t-106.5 65q-113 49 -161.5 128t-24.5 200q17 87 68 155t123 109q-126 84 -91 258q27 143 139 224.5 t310 81.5q188 0 306 -70q28 -15 18 -51l-44 -155q-5 -22 -22 -30t-35 1q-89 43 -198 43q-96 0 -110 -74q-7 -36 23 -68t109 -66q110 -48 157 -126t23 -200q-17 -86 -67.5 -155t-121.5 -109q125 -80 89 -260q-28 -143 -140.5 -225.5t-314.5 -82.5q-183 0 -311 66 q-26 16 -18 52l41 175q4 22 22 31t35 -2z" />
<glyph unicode="&#xa8;" horiz-adv-x="784" d="M322 1134q-145 0 -114 156t175 156t113 -156t-174 -156zM702 1134q-145 0 -114 156t175 156t113 -156t-174 -156z" />
<glyph unicode="&#xa9;" horiz-adv-x="1292" d="M676 -24q-173 0 -303.5 91t-200.5 255t-70 378t70 378t200.5 255t303.5 91t303.5 -91t200.5 -255t70 -378t-70 -378t-200.5 -255t-303.5 -91zM1124 700q0 278 -121.5 442t-326.5 164t-326.5 -164t-121.5 -442t121.5 -442t326.5 -164t326.5 164t121.5 442zM714 254 q-171 0 -266.5 115t-95.5 327q0 214 95 330t265 116q90 0 159 -27q32 -12 31 -47l-6 -119q-1 -23 -15.5 -30.5t-34.5 2.5q-44 19 -100 19q-74 0 -113 -61.5t-39 -182.5q0 -118 39.5 -179t114.5 -61q57 0 100 20q20 10 34.5 2.5t15.5 -30.5l7 -120q3 -34 -31 -47 q-69 -27 -160 -27z" />
<glyph unicode="&#xaa;" horiz-adv-x="768" d="M866 1361l-133 -686q-3 -15 -16 -26t-29 -11h-203q-16 0 -24.5 11t-5.5 26l3 15q-55 -70 -154 -70q-250 0 -173 398q78 398 328 398q99 0 126 -70l3 15q3 15 15.5 26t28.5 11h203q16 0 25 -11t6 -26zM484 824l75 388q-20 20 -46 20q-40 0 -64 -45.5t-48 -168.5 q-12 -63 -16.5 -103t-1 -65.5t14.5 -35.5t32 -10q26 0 54 20z" />
<glyph unicode="&#xab;" horiz-adv-x="924" d="M82 538l34 172q7 41 44 74l347 303q27 24 46.5 17.5t13.5 -38.5l-41 -208q-7 -39 -32 -59l-211 -175l143 -175q16 -21 9 -59l-40 -208q-6 -32 -28 -38.5t-40 17.5l-229 303q-24 33 -16 74zM484 538l34 172q7 41 44 74l347 303q27 24 46.5 17.5t13.5 -38.5l-41 -208 q-7 -39 -32 -59l-211 -175l143 -175q16 -21 9 -59l-40 -208q-6 -32 -28 -38.5t-40 17.5l-229 303q-24 33 -16 74z" />
<glyph unicode="&#xac;" d="M60 687v190q0 16 10.5 26.5t26.5 10.5h866q15 0 26 -10.5t11 -26.5v-538q0 -16 -11 -26.5t-26 -10.5h-233q-16 0 -27 10.5t-11 26.5v311h-595q-16 0 -26.5 10.5t-10.5 26.5z" />
<glyph unicode="&#xad;" horiz-adv-x="682" d="M582 522h-488q-15 0 -24 11t-6 27l41 207q2 15 15.5 26t28.5 11h488q15 0 23.5 -11t6.5 -26l-41 -207q-3 -16 -16 -27t-28 -11z" />
<glyph unicode="&#xae;" horiz-adv-x="1292" d="M866 622l129 -292q8 -20 -0.5 -33t-32.5 -13h-170q-35 0 -48 35l-86 255h-22v-253q0 -15 -10.5 -26t-26.5 -11h-165q-16 0 -27 11t-11 26v758q0 15 11 26t27 11h238q144 0 222 -66t78 -202q0 -157 -106 -226zM732 848q0 94 -58 94h-38v-186h38q58 0 58 92zM676 -24 q-173 0 -303.5 91t-200.5 255t-70 378t70 378t200.5 255t303.5 91t303.5 -91t200.5 -255t70 -378t-70 -378t-200.5 -255t-303.5 -91zM1124 700q0 278 -121.5 442t-326.5 164t-326.5 -164t-121.5 -442t121.5 -442t326.5 -164t326.5 164t121.5 442z" />
<glyph unicode="&#xaf;" horiz-adv-x="784" d="M250 1221l26 136q3 15 15.5 26t28.5 11h478q15 0 24 -11t6 -26l-26 -136q-3 -15 -16 -26t-28 -11h-478q-16 0 -24.5 11t-5.5 26z" />
<glyph unicode="&#xb0;" horiz-adv-x="784" d="M400 896q-117 0 -182 76t-43 188t116 188t211 76t182 -76t43 -188t-116 -188t-211 -76zM468 1246q-38 0 -65.5 -24t-35.5 -62t10.5 -62t56.5 -24t65.5 24t35.5 62t-10.5 62t-56.5 24z" />
<glyph unicode="&#xb1;" d="M973 16h-866q-15 0 -26 10.5t-11 26.5v190q0 15 11 26t26 11h866q15 0 26 -11t11 -26v-190q0 -16 -11 -26.5t-26 -10.5zM386 349v311h-279q-15 0 -26 10.5t-11 26.5v190q0 15 11 26t26 11h279v309q0 15 10.5 26t26.5 11h234q16 0 26.5 -11t10.5 -26v-309h279q15 0 26 -11 t11 -26v-190q0 -16 -11 -26.5t-26 -10.5h-279v-311q0 -16 -10.5 -26.5t-26.5 -10.5h-234q-16 0 -26.5 10.5t-10.5 26.5z" />
<glyph unicode="&#xb2;" horiz-adv-x="704" d="M418 672h198q16 0 25 -10.5t6 -26.5l-25 -128q-3 -16 -16 -26.5t-29 -10.5h-482q-16 0 -25 10.5t-6 26.5l21 110q7 32 41 60q155 130 236.5 233.5t99.5 195.5q11 54 -7.5 79t-65.5 25q-61 0 -121 -18q-22 -7 -33.5 1.5t-8.5 27.5l16 111q6 35 34 46q101 38 213 38 q150 0 216 -77t39 -215q-47 -239 -326 -452z" />
<glyph unicode="&#xb3;" horiz-adv-x="704" d="M241 861q-14 1 -22 12t-5 25l21 108q3 15 15 25.5t27 11.5q178 6 197 101q15 76 -75 76q-72 0 -135 -20q-23 -7 -35 2t-10 31l13 99q4 36 38 48q101 36 223 36q148 0 215.5 -65t44.5 -181q-29 -151 -176 -218q61 -23 88 -80.5t11 -139.5q-26 -135 -127.5 -206.5 t-252.5 -71.5q-131 0 -212 32q-29 11 -19 50l28 107q6 23 22.5 32.5t36.5 -0.5q51 -27 127 -27q106 0 124 92q11 57 -28.5 87t-133.5 34z" />
<glyph unicode="&#xb4;" horiz-adv-x="784" d="M278 1164l193 258q28 38 75 38h237q17 0 26 -7t7 -20q-3 -18 -32 -47l-236 -230q-38 -36 -80 -36h-173q-22 0 -26 14t9 30z" />
<glyph unicode="&#xb5;" horiz-adv-x="1068" d="M518 28q-52 -52 -108 -52q-40 0 -60 32l-69 -357q-3 -15 -16.5 -26t-28.5 -11h-308q-15 0 -23 11t-6 26l262 1348q3 15 16 26t28 11h308q15 0 24 -11t6 -26l-144 -741q19 -32 73 -32q51 0 93 44l142 729q3 15 16 26t29 11h307q16 0 24.5 -11t5.5 -26l-187 -962 q-3 -15 -15.5 -26t-28.5 -11h-308q-13 0 -22.5 8.5t-9.5 19.5z" />
<glyph unicode="&#xb6;" horiz-adv-x="1156" d="M484 -225v757h-12q-186 0 -299 115t-113 319t113 319t299 115h577q15 0 26 -11t11 -26v-1588q0 -15 -11 -26t-26 -11h-200q-15 0 -26 11t-11 26v1399h-54v-1399q0 -15 -11 -26t-27 -11h-199q-15 0 -26 11t-11 26z" />
<glyph unicode="&#xb7;" horiz-adv-x="524" d="M249 466q-91 0 -123 48.5t-12 151.5t71 151.5t142 48.5t123 -48.5t12 -151.5t-71 -151.5t-142 -48.5z" />
<glyph unicode="&#xb8;" horiz-adv-x="784" d="M105 -198q-44 5 -16 51l72 119q16 28 49 28h184q13 0 17 -8.5t-4 -20.5l-53 -83q45 -20 66 -63.5t10 -100.5q-18 -92 -100 -146t-201 -54q-68 0 -108 8q-31 6 -26 35l16 82q4 22 18 32t32 5q16 -4 39 -4q68 0 78 52q5 28 -10.5 45t-62.5 23z" />
<glyph unicode="&#xb9;" horiz-adv-x="704" d="M201 1200l241 170q42 30 90 30h155q16 0 24 -11t5 -26l-166 -856q-3 -16 -15.5 -26.5t-28.5 -10.5h-200q-15 0 -24 10.5t-6 26.5l115 589l-98 -69q-16 -11 -31 -9t-23 16l-56 118q-5 11 0.5 25.5t17.5 22.5z" />
<glyph unicode="&#xba;" horiz-adv-x="768" d="M402 620q-164 0 -235.5 102t-33.5 296t149 296t275 102t235 -102t33 -296t-148.5 -296t-274.5 -102zM543 1018q16 82 17 128.5t-9 62t-32 15.5q-33 0 -57 -43t-47 -163q-16 -82 -17 -128.5t9 -62t32 -15.5q33 0 57 43t47 163z" />
<glyph unicode="&#xbb;" horiz-adv-x="924" d="M873 710l-34 -172q-8 -42 -44 -74l-347 -303q-27 -24 -46.5 -17.5t-13.5 38.5l40 208q7 38 33 59l211 175l-143 175q-17 22 -10 59l41 208q6 32 28 38.5t40 -17.5l229 -303q23 -32 16 -74zM471 710l-34 -172q-8 -42 -44 -74l-347 -303q-27 -24 -46.5 -17.5t-13.5 38.5 l40 208q7 38 33 59l211 175l-143 175q-17 22 -10 59l41 208q6 32 28 38.5t40 -17.5l229 -303q23 -32 16 -74z" />
<glyph unicode="&#xbc;" horiz-adv-x="1660" d="M1379 1389l-830 -1386q-20 -33 -54 -33h-125q-40 0 -16 41l830 1386q20 33 54 33h125q41 0 16 -41zM201 1200l241 170q42 30 90 30h155q16 0 24 -11t5 -26l-166 -856q-3 -16 -15.5 -26.5t-28.5 -10.5h-200q-15 0 -24 10.5t-6 26.5l115 589l-98 -69q-16 -11 -31 -9t-23 16 l-56 118q-5 11 0.5 25.5t17.5 22.5zM1161 162h-283q-15 0 -24 10.5t-6 26.5l28 142q5 29 24 58l331 499q21 32 55 32h249q16 0 24.5 -11t5.5 -27l-101 -520h37q15 0 24 -11t6 -26l-27 -136q-3 -16 -16 -26.5t-28 -10.5h-37l-24 -124q-3 -16 -15.5 -27t-28.5 -11h-188 q-15 0 -24 11t-6 27zM1253 636l-175 -264h124z" />
<glyph unicode="&#xbd;" horiz-adv-x="1660" d="M201 1200l241 170q42 30 90 30h155q16 0 24 -11t5 -26l-166 -856q-3 -16 -15.5 -26.5t-28.5 -10.5h-200q-15 0 -24 10.5t-6 26.5l115 589l-98 -69q-16 -11 -31 -9t-23 16l-56 118q-5 11 0.5 25.5t17.5 22.5zM1299 202h198q16 0 25 -10.5t6 -26.5l-25 -128 q-3 -16 -16 -26.5t-29 -10.5h-482q-16 0 -25 10.5t-6 26.5l21 110q7 32 41 60q155 131 236.5 234t99.5 195q21 104 -74 104q-61 0 -120 -18q-21 -7 -33 1.5t-10 27.5l17 111q3 19 10 29.5t24 16.5q99 38 212 38q150 0 216 -77t40 -215q-46 -237 -326 -452zM1365 1389 l-830 -1386q-20 -33 -54 -33h-125q-40 0 -16 41l830 1386q20 33 54 33h125q41 0 16 -41z" />
<glyph unicode="&#xbe;" horiz-adv-x="1660" d="M1397 1389l-830 -1386q-20 -33 -54 -33h-125q-40 0 -16 41l830 1386q20 33 54 33h125q41 0 16 -41zM241 861q-14 1 -22 12t-5 25l21 108q3 15 15 25.5t27 11.5q178 6 197 101q15 76 -75 76q-72 0 -135 -20q-23 -7 -35 2t-10 31l13 99q4 36 38 48q101 36 223 36 q148 0 215.5 -65t44.5 -181q-29 -151 -176 -218q61 -23 88 -80.5t11 -139.5q-26 -135 -127.5 -206.5t-252.5 -71.5q-131 0 -212 32q-29 11 -19 50l28 107q6 23 22.5 32.5t36.5 -0.5q51 -27 127 -27q106 0 124 92q11 57 -28.5 87t-133.5 34zM1183 162h-283q-15 0 -24 10.5 t-6 26.5l28 142q5 29 24 58l331 499q21 32 55 32h249q16 0 24.5 -11t5.5 -27l-101 -520h37q15 0 24 -11t6 -26l-27 -136q-3 -16 -16 -26.5t-28 -10.5h-37l-24 -124q-3 -16 -15.5 -27t-28.5 -11h-188q-15 0 -24 11t-6 27zM1275 636l-175 -264h124z" />
<glyph unicode="&#xbf;" horiz-adv-x="920" d="M794 872q-18 -93 -76 -137.5t-163 -44.5q-106 0 -146.5 44.5t-22.5 137.5q18 92 75.5 136t163.5 44q105 0 146 -44t23 -136zM331 516l8 41q3 15 15.5 26t28.5 11h306q15 0 24 -11t6 -26l-12 -59q-21 -109 -72 -190t-151 -155q-83 -62 -100 -147q-10 -51 16.5 -78.5 t90.5 -27.5q98 0 204 49q24 11 38.5 3t12.5 -29l-25 -202q-5 -41 -45 -57q-143 -60 -312 -60q-226 0 -325 97t-64 281q38 197 268 370q66 50 88 164z" />
<glyph unicode="&#xc0;" horiz-adv-x="1180" d="M691 1072l-188 -504h178zM516 1400h478q40 0 42 -39l41 -1315q2 -46 -45 -46h-318q-41 0 -41 41l3 235h-282l-87 -235q-15 -41 -55 -41h-318q-48 0 -29 46l553 1315q16 39 58 39zM827 1810l93 -258q6 -17 -3 -30.5t-31 -13.5h-173q-43 0 -66 36l-147 230q-17 29 -14 47 q6 27 44 27h237q47 0 60 -38z" />
<glyph unicode="&#xc1;" horiz-adv-x="1180" d="M691 1072l-188 -504h178zM516 1400h478q40 0 42 -39l41 -1315q2 -46 -45 -46h-318q-41 0 -41 41l3 235h-282l-87 -235q-15 -41 -55 -41h-318q-48 0 -29 46l553 1315q16 39 58 39zM642 1552l193 258q30 38 76 38h237q17 0 26 -7t6 -20q-3 -18 -32 -47l-235 -230 q-39 -36 -80 -36h-173q-22 0 -26.5 14t8.5 30z" />
<glyph unicode="&#xc2;" horiz-adv-x="1180" d="M691 1072l-188 -504h178zM516 1400h478q40 0 42 -39l41 -1315q2 -46 -45 -46h-318q-41 0 -41 41l3 235h-282l-87 -235q-15 -41 -55 -41h-318q-48 0 -29 46l553 1315q16 39 58 39zM700 1848h284q36 0 44 -29l78 -258q7 -23 -5.5 -38t-37.5 -15h-172q-34 0 -43 30l-40 136 l-94 -136q-20 -30 -53 -30h-172q-25 0 -31.5 15t8.5 38l178 258q19 29 56 29z" />
<glyph unicode="&#xc3;" horiz-adv-x="1180" d="M691 1072l-188 -504h178zM516 1400h478q40 0 42 -39l41 -1315q2 -46 -45 -46h-318q-41 0 -41 41l3 235h-282l-87 -235q-15 -41 -55 -41h-318q-48 0 -29 46l553 1315q16 39 58 39zM908 1520q-35 0 -76.5 17t-74 34t-46.5 17q-29 0 -43 -30q-16 -36 -49 -36h-125 q-38 0 -30 36q34 140 100 207t145 67q35 0 76.5 -17t73.5 -34t46 -17q30 0 43 30q16 36 49 36h125q39 0 30 -36q-33 -140 -99 -207t-145 -67z" />
<glyph unicode="&#xc4;" horiz-adv-x="1180" d="M691 1072l-188 -504h178zM516 1400h478q40 0 42 -39l41 -1315q2 -46 -45 -46h-318q-41 0 -41 41l3 235h-282l-87 -235q-15 -41 -55 -41h-318q-48 0 -29 46l553 1315q16 39 58 39zM588 1522q-144 0 -113 156q29 156 174 156q143 0 114 -156q-31 -156 -175 -156zM968 1522 q-144 0 -113 156q29 156 174 156q143 0 114 -156q-31 -156 -175 -156z" />
<glyph unicode="&#xc5;" horiz-adv-x="1180" d="M691 1072l-188 -504h178zM516 1400h478q40 0 42 -39l41 -1315q2 -46 -45 -46h-318q-41 0 -41 41l3 235h-282l-87 -235q-15 -41 -55 -41h-318q-48 0 -29 46l553 1315q16 39 58 39zM763 1442q-106 0 -164 69t-38 169t104 169t190 69t164 -69t38 -169t-104 -169t-190 -69z M889 1680q7 36 -10.5 59t-53.5 23t-62.5 -23t-33.5 -59t10.5 -59t53.5 -23t62.5 23t33.5 59z" />
<glyph unicode="&#xc6;" horiz-adv-x="1510" d="M668 548l108 556l-246 -556h138zM569 38l42 218h-204l-98 -222q-15 -34 -50 -34h-327q-21 0 -28 15t4 37l625 1306q22 42 68 42h965q16 0 24.5 -11t5.5 -27l-42 -216q-3 -15 -16 -26.5t-29 -11.5h-344l-49 -254h310q16 0 24.5 -11t5.5 -27l-42 -216q-3 -16 -16 -27 t-29 -11h-310l-53 -270h354q16 0 25 -11.5t6 -26.5l-42 -216q-3 -16 -16 -27t-29 -11h-704q-16 0 -25 11t-6 27z" />
<glyph unicode="&#xc7;" horiz-adv-x="1048" d="M380 -198q-44 5 -16 51l81 136q-232 44 -323 229t-33 482q66 341 269 532.5t513 191.5q173 0 282 -50q27 -13 18 -44l-57 -221q-6 -22 -23.5 -30.5t-37.5 0.5q-84 33 -186 33q-144 0 -241.5 -105t-136.5 -307q-40 -203 18 -307.5t205 -104.5q108 0 202 34q23 9 37 1 t11 -31l-28 -220q-4 -37 -40 -50q-89 -33 -206 -42l-59 -92q45 -20 66 -63.5t10 -100.5q-18 -92 -100 -146t-201 -54q-68 0 -108 8q-31 6 -26 35l16 82q4 22 18 32t32 5q16 -4 39 -4q68 0 78 52q5 28 -10.5 45t-62.5 23z" />
<glyph unicode="&#xc8;" d="M4 38l257 1324q3 16 16.5 27t29.5 11h778q16 0 24.5 -11t5.5 -27l-45 -232q-3 -16 -16 -27t-29 -11h-420l-46 -234h386q16 0 25 -11t6 -27l-45 -232q-3 -15 -16.5 -26.5t-29.5 -11.5h-386l-47 -242h430q16 0 25 -11t6 -27l-45 -232q-3 -16 -16 -27t-29 -11h-788 q-16 0 -25 11t-6 27zM815 1810l93 -258q6 -17 -3 -30.5t-31 -13.5h-173q-43 0 -66 36l-147 230q-17 29 -14 47q6 27 44 27h237q47 0 60 -38z" />
<glyph unicode="&#xc9;" d="M4 38l257 1324q3 16 16.5 27t29.5 11h778q16 0 24.5 -11t5.5 -27l-45 -232q-3 -16 -16 -27t-29 -11h-420l-46 -234h386q16 0 25 -11t6 -27l-45 -232q-3 -15 -16.5 -26.5t-29.5 -11.5h-386l-47 -242h430q16 0 25 -11t6 -27l-45 -232q-3 -16 -16 -27t-29 -11h-788 q-16 0 -25 11t-6 27zM556 1552l193 258q30 38 76 38h237q17 0 26 -7t6 -20q-3 -18 -32 -47l-235 -230q-39 -36 -80 -36h-173q-22 0 -26.5 14t8.5 30z" />
<glyph unicode="&#xca;" d="M4 38l257 1324q3 16 16.5 27t29.5 11h778q16 0 24.5 -11t5.5 -27l-45 -232q-3 -16 -16 -27t-29 -11h-420l-46 -234h386q16 0 25 -11t6 -27l-45 -232q-3 -15 -16.5 -26.5t-29.5 -11.5h-386l-47 -242h430q16 0 25 -11t6 -27l-45 -232q-3 -16 -16 -27t-29 -11h-788 q-16 0 -25 11t-6 27zM640 1848h284q36 0 44 -29l78 -258q7 -23 -5.5 -38t-37.5 -15h-172q-34 0 -43 30l-40 136l-94 -136q-20 -30 -53 -30h-172q-25 0 -31.5 15t8.5 38l178 258q19 29 56 29z" />
<glyph unicode="&#xcb;" d="M4 38l257 1324q3 16 16.5 27t29.5 11h778q16 0 24.5 -11t5.5 -27l-45 -232q-3 -16 -16 -27t-29 -11h-420l-46 -234h386q16 0 25 -11t6 -27l-45 -232q-3 -15 -16.5 -26.5t-29.5 -11.5h-386l-47 -242h430q16 0 25 -11t6 -27l-45 -232q-3 -16 -16 -27t-29 -11h-788 q-16 0 -25 11t-6 27zM520 1522q-144 0 -113 156q29 156 174 156q143 0 114 -156q-31 -156 -175 -156zM900 1522q-144 0 -113 156q29 156 174 156q143 0 114 -156q-31 -156 -175 -156z" />
<glyph unicode="&#xcc;" horiz-adv-x="616" d="M316 1400h321q16 0 24.5 -11t5.5 -27l-257 -1324q-3 -16 -16 -27t-29 -11h-321q-15 0 -24 11t-6 27l257 1324q3 16 16.5 27t28.5 11zM553 1810l93 -258q6 -17 -3 -30.5t-31 -13.5h-173q-43 0 -66 36l-147 230q-17 29 -14 47q6 27 44 27h237q47 0 60 -38z" />
<glyph unicode="&#xcd;" horiz-adv-x="616" d="M316 1400h321q16 0 24.5 -11t5.5 -27l-257 -1324q-3 -16 -16 -27t-29 -11h-321q-15 0 -24 11t-6 27l257 1324q3 16 16.5 27t28.5 11zM366 1552l193 258q30 38 76 38h237q17 0 26 -7t6 -20q-3 -18 -32 -47l-235 -230q-39 -36 -80 -36h-173q-22 0 -26.5 14t8.5 30z" />
<glyph unicode="&#xce;" horiz-adv-x="616" d="M316 1400h321q16 0 24.5 -11t5.5 -27l-257 -1324q-3 -16 -16 -27t-29 -11h-321q-15 0 -24 11t-6 27l257 1324q3 16 16.5 27t28.5 11zM422 1848h284q36 0 44 -29l78 -258q7 -23 -5.5 -38t-37.5 -15h-172q-34 0 -43 30l-40 136l-94 -136q-20 -30 -53 -30h-172 q-25 0 -31.5 15t8.5 38l178 258q19 29 56 29z" />
<glyph unicode="&#xcf;" horiz-adv-x="616" d="M316 1400h321q16 0 24.5 -11t5.5 -27l-257 -1324q-3 -16 -16 -27t-29 -11h-321q-15 0 -24 11t-6 27l257 1324q3 16 16.5 27t28.5 11zM310 1522q-144 0 -113 156q29 156 174 156q143 0 114 -156q-31 -156 -175 -156zM690 1522q-144 0 -113 156q29 156 174 156 q143 0 114 -156q-31 -156 -175 -156z" />
<glyph unicode="&#xd0;" horiz-adv-x="1192" d="M317 1400h424q289 0 394 -173.5t36 -526.5q-69 -355 -241 -527.5t-461 -172.5h-424q-16 0 -25 11t-6 27l113 584h-73q-15 0 -23.5 11t-5.5 27l16 82q3 16 16 27t28 11h73l113 582q3 16 16.5 27t29.5 11zM787 700q23 119 27 198t-12 125.5t-46.5 65.5t-81.5 19h-72 l-64 -328h116q16 0 25 -11t6 -27l-16 -82q-3 -16 -16.5 -27t-29.5 -11h-116l-64 -330h72q68 0 115 35t86.5 125t70.5 248z" />
<glyph unicode="&#xd1;" horiz-adv-x="1264" d="M621 36l-108 746l-145 -744q-3 -16 -16 -27t-29 -11h-288q-16 0 -25 11t-6 27l257 1324q3 16 16.5 27t29.5 11h349q46 0 52 -36l109 -746l144 744q3 16 16.5 27t29.5 11h288q16 0 24.5 -11t5.5 -27l-257 -1324q-3 -16 -16 -27t-29 -11h-349q-47 0 -53 36zM954 1520 q-35 0 -76.5 17t-74 34t-46.5 17q-29 0 -43 -30q-16 -36 -49 -36h-125q-38 0 -30 36q34 140 100 207t145 67q35 0 76.5 -17t73.5 -34t46 -17q30 0 43 30q16 36 49 36h125q39 0 30 -36q-33 -140 -99 -207t-145 -67z" />
<glyph unicode="&#xd2;" horiz-adv-x="1234" d="M1216 700q-69 -356 -247 -540t-458 -184q-280 1 -385 185t-36 539t245.5 539t456.5 185q280 0 386.5 -184t37.5 -540zM816 700q33 157 29.5 249t-30 127.5t-81.5 35.5q-56 0 -97.5 -35t-79 -127.5t-67.5 -249.5q-23 -119 -28.5 -200t7 -127t38 -65.5t66.5 -19.5 q55 0 96 35.5t78.5 128t68.5 248.5zM900 1810l93 -258q6 -17 -3 -30.5t-31 -13.5h-173q-43 0 -66 36l-147 230q-17 29 -14 47q6 27 44 27h237q47 0 60 -38z" />
<glyph unicode="&#xd3;" horiz-adv-x="1234" d="M1216 700q-69 -356 -247 -540t-458 -184q-280 1 -385 185t-36 539t245.5 539t456.5 185q280 0 386.5 -184t37.5 -540zM816 700q33 157 29.5 249t-30 127.5t-81.5 35.5q-56 0 -97.5 -35t-79 -127.5t-67.5 -249.5q-23 -119 -28.5 -200t7 -127t38 -65.5t66.5 -19.5 q55 0 96 35.5t78.5 128t68.5 248.5zM643 1552l193 258q30 38 76 38h237q17 0 26 -7t6 -20q-3 -18 -32 -47l-235 -230q-39 -36 -80 -36h-173q-22 0 -26.5 14t8.5 30z" />
<glyph unicode="&#xd4;" horiz-adv-x="1234" d="M1216 700q-69 -356 -247 -540t-458 -184q-280 1 -385 185t-36 539t245.5 539t456.5 185q280 0 386.5 -184t37.5 -540zM816 700q33 157 29.5 249t-30 127.5t-81.5 35.5q-56 0 -97.5 -35t-79 -127.5t-67.5 -249.5q-23 -119 -28.5 -200t7 -127t38 -65.5t66.5 -19.5 q55 0 96 35.5t78.5 128t68.5 248.5zM733 1848h284q36 0 44 -29l78 -258q7 -23 -5.5 -38t-37.5 -15h-172q-34 0 -43 30l-40 136l-94 -136q-20 -30 -53 -30h-172q-25 0 -31.5 15t8.5 38l178 258q19 29 56 29z" />
<glyph unicode="&#xd5;" horiz-adv-x="1234" d="M1216 700q-69 -356 -247 -540t-458 -184q-280 1 -385 185t-36 539t245.5 539t456.5 185q280 0 386.5 -184t37.5 -540zM816 700q33 157 29.5 249t-30 127.5t-81.5 35.5q-56 0 -97.5 -35t-79 -127.5t-67.5 -249.5q-23 -119 -28.5 -200t7 -127t38 -65.5t66.5 -19.5 q55 0 96 35.5t78.5 128t68.5 248.5zM941 1520q-35 0 -76.5 17t-74 34t-46.5 17q-29 0 -43 -30q-16 -36 -49 -36h-125q-38 0 -30 36q34 140 100 207t145 67q35 0 76.5 -17t73.5 -34t46 -17q30 0 43 30q16 36 49 36h125q39 0 30 -36q-33 -140 -99 -207t-145 -67z" />
<glyph unicode="&#xd6;" horiz-adv-x="1234" d="M1216 700q-69 -356 -247 -540t-458 -184q-280 1 -385 185t-36 539t245.5 539t456.5 185q280 0 386.5 -184t37.5 -540zM816 700q33 157 29.5 249t-30 127.5t-81.5 35.5q-56 0 -97.5 -35t-79 -127.5t-67.5 -249.5q-23 -119 -28.5 -200t7 -127t38 -65.5t66.5 -19.5 q55 0 96 35.5t78.5 128t68.5 248.5zM621 1522q-144 0 -113 156q29 156 174 156q143 0 114 -156q-31 -156 -175 -156zM1001 1522q-144 0 -113 156q29 156 174 156q143 0 114 -156q-31 -156 -175 -156z" />
<glyph unicode="&#xd7;" d="M80 420l232 244l-231 243q-11 11 -11 26t11 26l171 170q11 11 26 11t26 -11l225 -237l226 237q11 11 26 11t26 -11l171 -170q11 -11 11 -26t-11 -26l-232 -243l233 -244q10 -11 10 -26t-11 -26l-169 -169q-11 -11 -27 -11t-26 11l-227 237l-226 -237q-11 -11 -26.5 -11 t-26.5 11l-169 169q-11 11 -11 26t10 26z" />
<glyph unicode="&#xd8;" horiz-adv-x="1234" d="M1205 700q-69 -356 -247 -540t-458 -184q-126 1 -218 39l-119 -190q-16 -25 -40 -25h-67q-21 0 -26 12t7 31l146 233q-193 173 -104 624q69 355 245.5 539t456.5 185q128 0 223 -40l120 191q16 25 41 25h67q44 0 18 -43l-148 -236q189 -173 103 -621zM479 700 q-25 -124 -29 -198l358 569q-28 41 -85 41q-56 0 -97.5 -35t-79 -127.5t-67.5 -249.5zM805 700q23 126 27 191l-354 -565q24 -38 84 -38q55 0 96 35.5t78.5 128t68.5 248.5z" />
<glyph unicode="&#xd9;" horiz-adv-x="1252" d="M659 1362l-165 -848q-23 -129 -2.5 -177.5t88.5 -48.5t109 50.5t65 175.5l165 848q3 16 16.5 27t29.5 11h320q16 0 24.5 -11t5.5 -27l-160 -822q-56 -289 -219.5 -426.5t-415.5 -137.5t-362.5 137.5t-54.5 426.5l160 822q3 16 16.5 27t28.5 11h321q16 0 24.5 -11t5.5 -27 zM895 1810l93 -258q6 -17 -3 -30.5t-31 -13.5h-173q-43 0 -66 36l-147 230q-17 29 -14 47q6 27 44 27h237q47 0 60 -38z" />
<glyph unicode="&#xda;" horiz-adv-x="1252" d="M659 1362l-165 -848q-23 -129 -2.5 -177.5t88.5 -48.5t109 50.5t65 175.5l165 848q3 16 16.5 27t29.5 11h320q16 0 24.5 -11t5.5 -27l-160 -822q-56 -289 -219.5 -426.5t-415.5 -137.5t-362.5 137.5t-54.5 426.5l160 822q3 16 16.5 27t28.5 11h321q16 0 24.5 -11t5.5 -27 zM662 1552l193 258q30 38 76 38h237q17 0 26 -7t6 -20q-3 -18 -32 -47l-235 -230q-39 -36 -80 -36h-173q-22 0 -26.5 14t8.5 30z" />
<glyph unicode="&#xdb;" horiz-adv-x="1252" d="M659 1362l-165 -848q-23 -129 -2.5 -177.5t88.5 -48.5t109 50.5t65 175.5l165 848q3 16 16.5 27t29.5 11h320q16 0 24.5 -11t5.5 -27l-160 -822q-56 -289 -219.5 -426.5t-415.5 -137.5t-362.5 137.5t-54.5 426.5l160 822q3 16 16.5 27t28.5 11h321q16 0 24.5 -11t5.5 -27 zM742 1848h284q36 0 44 -29l78 -258q7 -23 -5.5 -38t-37.5 -15h-172q-34 0 -43 30l-40 136l-94 -136q-20 -30 -53 -30h-172q-25 0 -31.5 15t8.5 38l178 258q19 29 56 29z" />
<glyph unicode="&#xdc;" horiz-adv-x="1252" d="M659 1362l-165 -848q-23 -129 -2.5 -177.5t88.5 -48.5t109 50.5t65 175.5l165 848q3 16 16.5 27t29.5 11h320q16 0 24.5 -11t5.5 -27l-160 -822q-56 -289 -219.5 -426.5t-415.5 -137.5t-362.5 137.5t-54.5 426.5l160 822q3 16 16.5 27t28.5 11h321q16 0 24.5 -11t5.5 -27 zM630 1522q-144 0 -113 156q29 156 174 156q143 0 114 -156q-31 -156 -175 -156zM1010 1522q-144 0 -113 156q29 156 174 156q143 0 114 -156q-31 -156 -175 -156z" />
<glyph unicode="&#xdd;" horiz-adv-x="1162" d="M637 0h-322q-16 0 -25 11t-6 27l101 522l-200 784q-7 24 5.5 40t38.5 16h312q41 0 45 -33l72 -429l238 429q19 33 59 33h312q26 0 32 -16t-10 -40l-506 -784l-101 -522q-3 -16 -16 -27t-29 -11zM600 1552l193 258q30 38 76 38h237q17 0 26 -7t6 -20q-3 -18 -32 -47 l-235 -230q-39 -36 -80 -36h-173q-22 0 -26.5 14t8.5 30z" />
<glyph unicode="&#xde;" horiz-adv-x="1074" d="M692 708q20 104 1 147t-68 43h-58l-74 -380h58q104 0 141 190zM657 1362l-33 -172h76q220 0 316 -122.5t50 -359.5q-46 -238 -189.5 -360t-364.5 -122h-76l-36 -188q-3 -16 -16 -27t-28 -11h-321q-16 0 -25 11t-6 27l257 1324q3 16 16.5 27t29.5 11h321q15 0 23.5 -11 t5.5 -27z" />
<glyph unicode="&#xdf;" horiz-adv-x="1194" d="M622 859q155 14 179 143q13 63 -8.5 95.5t-74.5 32.5q-67 0 -105 -55.5t-67 -202.5l-162 -835q-3 -15 -16 -26t-28 -11h-306q-15 0 -24 11t-6 26l158 815q61 314 205.5 443t417.5 129q230 0 341.5 -110t78.5 -280q-21 -113 -89.5 -195.5t-179.5 -122.5 q109 -35 159.5 -126.5t24.5 -221.5q-36 -184 -165.5 -288t-338.5 -104q-76 0 -166 22q-36 9 -28 49l41 199q4 22 20 32t36 2q30 -12 76 -12q56 0 94.5 34.5t50.5 95.5q15 75 -26.5 118t-147.5 49q-14 1 -22.5 12t-5.5 25l42 220q3 14 15.5 25t26.5 12z" />
<glyph unicode="&#xe0;" horiz-adv-x="1024" d="M489 68l-6 -31q-3 -15 6 -26t24 -11h298q16 0 28.5 11t15.5 26l187 962q3 15 -5.5 26t-24.5 11h-298q-15 0 -28 -11t-16 -26l-6 -31q-60 92 -178 92q-347 0 -452 -542t241 -542q119 0 214 92zM406 518q32 167 65 229.5t90 62.5q42 0 66 -30l-102 -524q-36 -30 -78 -30 q-39 0 -54.5 27.5t-12 89t25.5 175.5zM767 1462l93 -258q6 -17 -3.5 -30.5t-31.5 -13.5h-173q-41 0 -66 36l-146 230q-17 29 -14 47q5 27 43 27h237q46 0 61 -38z" />
<glyph unicode="&#xe1;" horiz-adv-x="1024" d="M489 68l-6 -31q-3 -15 6 -26t24 -11h298q16 0 28.5 11t15.5 26l187 962q3 15 -5.5 26t-24.5 11h-298q-15 0 -28 -11t-16 -26l-6 -31q-60 92 -178 92q-347 0 -452 -542t241 -542q119 0 214 92zM406 518q32 167 65 229.5t90 62.5q42 0 66 -30l-102 -524q-36 -30 -78 -30 q-39 0 -54.5 27.5t-12 89t25.5 175.5zM480 1204l193 258q28 38 75 38h237q17 0 26 -7t7 -20q-3 -18 -32 -47l-236 -230q-38 -36 -80 -36h-173q-22 0 -26.5 14t9.5 30z" />
<glyph unicode="&#xe2;" horiz-adv-x="1024" d="M489 68l-6 -31q-3 -15 6 -26t24 -11h298q16 0 28.5 11t15.5 26l187 962q3 15 -5.5 26t-24.5 11h-298q-15 0 -28 -11t-16 -26l-6 -31q-60 92 -178 92q-347 0 -452 -542t241 -542q119 0 214 92zM406 518q32 167 65 229.5t90 62.5q42 0 66 -30l-102 -524q-36 -30 -78 -30 q-39 0 -54.5 27.5t-12 89t25.5 175.5zM583 1498h284q36 0 44 -29l78 -258q7 -23 -5.5 -38t-37.5 -15h-172q-34 0 -43 30l-40 136l-94 -136q-20 -30 -53 -30h-172q-25 0 -31.5 15t8.5 38l178 258q19 29 56 29z" />
<glyph unicode="&#xe3;" horiz-adv-x="1024" d="M489 68l-6 -31q-3 -15 6 -26t24 -11h298q16 0 28.5 11t15.5 26l187 962q3 15 -5.5 26t-24.5 11h-298q-15 0 -28 -11t-16 -26l-6 -31q-60 92 -178 92q-347 0 -452 -542t241 -542q119 0 214 92zM406 518q32 167 65 229.5t90 62.5q42 0 66 -30l-102 -524q-36 -30 -78 -30 q-39 0 -54.5 27.5t-12 89t25.5 175.5zM797 1170q-35 0 -76.5 17t-74 34t-46.5 17q-29 0 -43 -30q-16 -36 -49 -36h-125q-38 0 -30 36q34 140 100 207t145 67q35 0 76.5 -17t73.5 -34t46 -17q30 0 43 30q16 36 49 36h125q39 0 30 -36q-33 -140 -99 -207t-145 -67z" />
<glyph unicode="&#xe4;" horiz-adv-x="1024" d="M489 68l-6 -31q-3 -15 6 -26t24 -11h298q16 0 28.5 11t15.5 26l187 962q3 15 -5.5 26t-24.5 11h-298q-15 0 -28 -11t-16 -26l-6 -31q-60 92 -178 92q-347 0 -452 -542t241 -542q119 0 214 92zM406 518q32 167 65 229.5t90 62.5q42 0 66 -30l-102 -524q-36 -30 -78 -30 q-39 0 -54.5 27.5t-12 89t25.5 175.5zM476 1174q-145 0 -114 156t174 156q145 0 114 -156t-174 -156zM856 1174q-145 0 -114 156t174 156q145 0 114 -156t-174 -156z" />
<glyph unicode="&#xe5;" horiz-adv-x="1024" d="M489 68l-6 -31q-3 -15 6 -26t24 -11h298q16 0 28.5 11t15.5 26l187 962q3 15 -5.5 26t-24.5 11h-298q-15 0 -28 -11t-16 -26l-6 -31q-60 92 -178 92q-347 0 -452 -542t241 -542q119 0 214 92zM406 518q32 167 65 229.5t90 62.5q42 0 66 -30l-102 -524q-36 -30 -78 -30 q-39 0 -54.5 27.5t-12 89t25.5 175.5zM653 1110q-106 0 -163.5 69t-37.5 169q19 100 103.5 169t190.5 69t163.5 -69t38.5 -169q-20 -100 -104.5 -169t-190.5 -69zM780 1348q7 36 -11 59t-54 23t-62 -23t-33 -59q-8 -36 10 -59t54 -23t62 23t34 59z" />
<glyph unicode="&#xe6;" horiz-adv-x="1416" d="M491 442h-60q-81 0 -106 -124q-11 -55 3 -81.5t42 -26.5q56 0 87 56zM880 628h28q73 0 111 24.5t50 83.5q16 84 -38 84q-51 0 -87.5 -44.5t-63.5 -147.5zM540 1060q174 0 226 -130q142 130 360 130q154 0 241 -91t59 -235q-30 -154 -157.5 -246t-342.5 -92h-90 q-7 -97 29.5 -133.5t137.5 -36.5q104 0 192 33q21 8 34.5 0t10.5 -29l-19 -165q-6 -43 -51 -56q-113 -33 -243 -33q-247 0 -321 138q-123 -138 -339 -138q-156 0 -235.5 86t-50.5 236q36 180 150 269t318 89h84l11 58q11 56 -12 78t-86 22q-115 0 -234 -45q-20 -8 -35 -0.5 t-14 27.5l13 152q3 35 39 49q160 63 325 63z" />
<glyph unicode="&#xe7;" horiz-adv-x="836" d="M243 -198q-44 5 -16 51l84 140q-178 40 -248.5 174.5t-28.5 350.5q50 261 218 401.5t432 140.5q96 0 185 -24q35 -9 25 -47l-45 -164q-11 -38 -50 -28q-50 13 -108 13q-100 0 -171 -70t-100 -222q-57 -292 165 -292q65 0 114 11q20 5 30 -2.5t8 -25.5l-19 -162 q-6 -41 -43 -50q-59 -13 -126 -18l-57 -91q45 -20 66 -63.5t10 -100.5q-18 -92 -100 -146t-201 -54q-68 0 -108 8q-31 6 -26 35l16 82q4 22 18 32t32 5q16 -4 39 -4q68 0 78 52q5 28 -10.5 45t-62.5 23z" />
<glyph unicode="&#xe8;" horiz-adv-x="950" d="M423 628h-10q28 103 66 147.5t91 44.5q64 0 48 -84q-12 -60 -55.5 -84t-139.5 -24zM444 -24q138 0 262 34q23 6 34.5 18.5t13.5 36.5l19 165q2 20 -11 28.5t-33 1.5q-89 -34 -193 -34q-98 0 -136 36.5t-31 133.5h38q233 0 378 92.5t174 245.5q28 147 -62.5 236.5 t-283.5 89.5q-217 0 -372.5 -138.5t-206.5 -401.5q-51 -261 55 -402.5t355 -141.5zM718 1462l93 -258q6 -17 -3.5 -30.5t-31.5 -13.5h-173q-41 0 -66 36l-146 230q-17 29 -14 47q5 27 43 27h237q46 0 61 -38z" />
<glyph unicode="&#xe9;" horiz-adv-x="950" d="M423 628h-10q28 103 66 147.5t91 44.5q64 0 48 -84q-12 -60 -55.5 -84t-139.5 -24zM444 -24q138 0 262 34q23 6 34.5 18.5t13.5 36.5l19 165q2 20 -11 28.5t-33 1.5q-89 -34 -193 -34q-98 0 -136 36.5t-31 133.5h38q233 0 378 92.5t174 245.5q28 147 -62.5 236.5 t-283.5 89.5q-217 0 -372.5 -138.5t-206.5 -401.5q-51 -261 55 -402.5t355 -141.5zM411 1204l193 258q28 38 75 38h237q17 0 26 -7t7 -20q-3 -18 -32 -47l-236 -230q-38 -36 -80 -36h-173q-22 0 -26.5 14t9.5 30z" />
<glyph unicode="&#xea;" horiz-adv-x="950" d="M423 628h-10q28 103 66 147.5t91 44.5q64 0 48 -84q-12 -60 -55.5 -84t-139.5 -24zM444 -24q138 0 262 34q23 6 34.5 18.5t13.5 36.5l19 165q2 20 -11 28.5t-33 1.5q-89 -34 -193 -34q-98 0 -136 36.5t-31 133.5h38q233 0 378 92.5t174 245.5q28 147 -62.5 236.5 t-283.5 89.5q-217 0 -372.5 -138.5t-206.5 -401.5q-51 -261 55 -402.5t355 -141.5zM534 1498h284q36 0 44 -29l78 -258q7 -23 -5.5 -38t-37.5 -15h-172q-34 0 -43 30l-40 136l-94 -136q-20 -30 -53 -30h-172q-25 0 -31.5 15t8.5 38l178 258q19 29 56 29z" />
<glyph unicode="&#xeb;" horiz-adv-x="950" d="M423 628h-10q28 103 66 147.5t91 44.5q64 0 48 -84q-12 -60 -55.5 -84t-139.5 -24zM444 -24q138 0 262 34q23 6 34.5 18.5t13.5 36.5l19 165q2 20 -11 28.5t-33 1.5q-89 -34 -193 -34q-98 0 -136 36.5t-31 133.5h38q233 0 378 92.5t174 245.5q28 147 -62.5 236.5 t-283.5 89.5q-217 0 -372.5 -138.5t-206.5 -401.5q-51 -261 55 -402.5t355 -141.5zM423 1174q-145 0 -114 156t174 156q145 0 114 -156t-174 -156zM803 1174q-145 0 -114 156t174 156q145 0 114 -156t-174 -156z" />
<glyph unicode="&#xec;" horiz-adv-x="556" d="M-10 37l187 962q3 15 16 26t28 11h308q15 0 24 -11t6 -26l-187 -962q-3 -15 -16 -26t-28 -11h-308q-15 0 -24 11t-6 26zM470 1462l93 -258q6 -17 -3.5 -30.5t-31.5 -13.5h-173q-41 0 -66 36l-146 230q-17 29 -14 47q5 27 43 27h237q46 0 61 -38z" />
<glyph unicode="&#xed;" horiz-adv-x="556" d="M-8 37l187 962q3 15 16 26t28 11h308q15 0 24 -11t6 -26l-187 -962q-3 -15 -16 -26t-28 -11h-308q-15 0 -24 11t-6 26zM255 1204l193 258q28 38 75 38h237q17 0 26 -7t7 -20q-3 -18 -32 -47l-236 -230q-38 -36 -80 -36h-173q-22 0 -26.5 14t9.5 30z" />
<glyph unicode="&#xee;" horiz-adv-x="556" d="M-8 37l187 962q3 15 16 26t28 11h308q15 0 24 -11t6 -26l-187 -962q-3 -15 -16 -26t-28 -11h-308q-15 0 -24 11t-6 26zM324 1498h284q36 0 44 -29l78 -258q7 -23 -5.5 -38t-37.5 -15h-172q-34 0 -43 30l-40 136l-94 -136q-20 -30 -53 -30h-172q-25 0 -31.5 15t8.5 38 l178 258q19 29 56 29z" />
<glyph unicode="&#xef;" horiz-adv-x="556" d="M-8 37l187 962q3 15 16 26t28 11h308q15 0 24 -11t6 -26l-187 -962q-3 -15 -16 -26t-28 -11h-308q-15 0 -24 11t-6 26zM213 1174q-145 0 -114 156t174 156q145 0 114 -156t-174 -156zM593 1174q-145 0 -114 156t174 156q145 0 114 -156t-174 -156z" />
<glyph unicode="&#xf0;" horiz-adv-x="976" d="M813 1300l176 59q17 5 30 -2t14 -23l7 -74q2 -15 -7.5 -29t-24.5 -19l-98 -32q120 -216 56 -546q-128 -658 -610 -658q-210 0 -296.5 126t-37.5 378q45 229 160.5 354.5t276.5 125.5q91 0 153 -28q-8 86 -38 138l-226 -75q-17 -5 -30 2t-14 23l-8 74q-2 15 7.5 29 t24.5 19l107 34q-29 12 -75 25q-11 3 -16.5 14.5t-2.5 23.5l51 184q6 21 22 31t35 7q231 -37 364 -161zM534 730q-42 0 -70 -54t-56 -196q-29 -152 -25 -204t43 -52q27 0 48 28.5t48 120t60 261.5q10 52 13 76q-30 20 -61 20z" />
<glyph unicode="&#xf1;" horiz-adv-x="1070" d="M1017 628l-115 -591q-3 -15 -15.5 -26t-28.5 -11h-308q-16 0 -24.5 11t-5.5 26l109 561q23 135 13 173.5t-54 38.5q-45 0 -82 -30l-144 -743q-3 -15 -15.5 -26t-28.5 -11h-308q-16 0 -24.5 11t-5.5 26l187 962q3 15 15.5 26t28.5 11h308q16 0 24.5 -11t5.5 -26l-6 -31 q47 42 111.5 67t134.5 25q152 0 211.5 -103.5t16.5 -328.5zM768 1170q-35 0 -76.5 17t-74 34t-46.5 17q-29 0 -43 -30q-16 -36 -49 -36h-125q-38 0 -30 36q34 140 100 207t145 67q35 0 76.5 -17t73.5 -34t46 -17q30 0 43 30q16 36 49 36h125q39 0 30 -36q-33 -140 -99 -207 t-145 -67z" />
<glyph unicode="&#xf2;" horiz-adv-x="1008" d="M398 -24q-226 0 -321 138t-44 404q52 266 201 404t375 138t321 -138t43 -404q-51 -266 -200 -404t-375 -138zM601 518q23 116 23.5 182t-15.5 88t-49 22t-57.5 -22t-49.5 -88t-48 -182q-22 -117 -23 -182.5t15 -87.5t49 -22q51 0 86.5 61t68.5 231zM708 1462l93 -258 q6 -17 -3.5 -30.5t-31.5 -13.5h-173q-41 0 -66 36l-146 230q-17 29 -14 47q5 27 43 27h237q46 0 61 -38z" />
<glyph unicode="&#xf3;" horiz-adv-x="1008" d="M398 -24q-226 0 -321 138t-44 404q52 266 201 404t375 138t321 -138t43 -404q-51 -266 -200 -404t-375 -138zM601 518q23 116 23.5 182t-15.5 88t-49 22t-57.5 -22t-49.5 -88t-48 -182q-22 -117 -23 -182.5t15 -87.5t49 -22q51 0 86.5 61t68.5 231zM469 1204l193 258 q28 38 75 38h237q17 0 26 -7t7 -20q-3 -18 -32 -47l-236 -230q-38 -36 -80 -36h-173q-22 0 -26.5 14t9.5 30z" />
<glyph unicode="&#xf4;" horiz-adv-x="1008" d="M398 -24q-226 0 -321 138t-44 404q52 266 201 404t375 138t321 -138t43 -404q-51 -266 -200 -404t-375 -138zM601 518q23 116 23.5 182t-15.5 88t-49 22t-57.5 -22t-49.5 -88t-48 -182q-22 -117 -23 -182.5t15 -87.5t49 -22q51 0 86.5 61t68.5 231zM552 1498h284 q36 0 44 -29l78 -258q7 -23 -5.5 -38t-37.5 -15h-172q-34 0 -43 30l-40 136l-94 -136q-20 -30 -53 -30h-172q-25 0 -31.5 15t8.5 38l178 258q19 29 56 29z" />
<glyph unicode="&#xf5;" horiz-adv-x="1008" d="M398 -24q-226 0 -321 138t-44 404q52 266 201 404t375 138t321 -138t43 -404q-51 -266 -200 -404t-375 -138zM601 518q23 116 23.5 182t-15.5 88t-49 22t-57.5 -22t-49.5 -88t-48 -182q-22 -117 -23 -182.5t15 -87.5t49 -22q51 0 86.5 61t68.5 231zM760 1170 q-35 0 -76.5 17t-74 34t-46.5 17q-29 0 -43 -30q-16 -36 -49 -36h-125q-38 0 -30 36q34 140 100 207t145 67q35 0 76.5 -17t73.5 -34t46 -17q30 0 43 30q16 36 49 36h125q39 0 30 -36q-33 -140 -99 -207t-145 -67z" />
<glyph unicode="&#xf6;" horiz-adv-x="1008" d="M398 -24q-226 0 -321 138t-44 404q52 266 201 404t375 138t321 -138t43 -404q-51 -266 -200 -404t-375 -138zM601 518q23 116 23.5 182t-15.5 88t-49 22t-57.5 -22t-49.5 -88t-48 -182q-22 -117 -23 -182.5t15 -87.5t49 -22q51 0 86.5 61t68.5 231zM441 1174 q-145 0 -114 156t174 156q145 0 114 -156t-174 -156zM821 1174q-145 0 -114 156t174 156q145 0 114 -156t-174 -156z" />
<glyph unicode="&#xf7;" d="M973 530h-866q-15 0 -26 11t-11 26v190q0 15 11 26t26 11h866q15 0 26 -11t11 -26v-190q0 -15 -11 -26t-26 -11zM540 6q-91 0 -132.5 48.5t-41.5 151.5t41.5 151.5t132.5 48.5t132.5 -48.5t41.5 -151.5t-41.5 -151.5t-132.5 -48.5zM540 920q-91 0 -132.5 48.5 t-41.5 151.5t41.5 151.5t132.5 48.5t132.5 -48.5t41.5 -151.5t-41.5 -151.5t-132.5 -48.5z" />
<glyph unicode="&#xf8;" horiz-adv-x="1008" d="M993 1213l-139 -224q175 -131 108 -471q-51 -266 -200 -404t-375 -138q-82 0 -150 20l-118 -191q-17 -25 -41 -25h-67q-21 0 -26 12t7 31l138 223q-175 131 -108 472q52 266 201 404t375 138q81 0 150 -20l119 191q16 25 41 25h67q44 0 18 -43zM394 518l-13 -66l212 340 q-14 18 -44 18q-33 0 -57.5 -22t-49.5 -88t-48 -182zM590 518q9 39 11 64l-210 -339q13 -17 44 -17q51 0 86.5 61t68.5 231z" />
<glyph unicode="&#xf9;" horiz-adv-x="1074" d="M54 408l115 591q3 15 15.5 26t28.5 11h308q16 0 24.5 -11t5.5 -26l-109 -561q-23 -135 -13.5 -173.5t53.5 -38.5q47 0 82 30l145 743q3 15 15.5 26t28.5 11h308q16 0 24.5 -11t5.5 -26l-187 -962q-3 -15 -15.5 -26t-28.5 -11h-308q-16 0 -24.5 11t-5.5 26l6 31 q-104 -92 -246 -92q-312 0 -228 432zM724 1462l93 -258q6 -17 -3.5 -30.5t-31.5 -13.5h-173q-41 0 -66 36l-146 230q-17 29 -14 47q5 27 43 27h237q46 0 61 -38z" />
<glyph unicode="&#xfa;" horiz-adv-x="1074" d="M54 408l115 591q3 15 15.5 26t28.5 11h308q16 0 24.5 -11t5.5 -26l-109 -561q-23 -135 -13.5 -173.5t53.5 -38.5q47 0 82 30l145 743q3 15 15.5 26t28.5 11h308q16 0 24.5 -11t5.5 -26l-187 -962q-3 -15 -15.5 -26t-28.5 -11h-308q-16 0 -24.5 11t-5.5 26l6 31 q-104 -92 -246 -92q-312 0 -228 432zM521 1204l193 258q28 38 75 38h237q17 0 26 -7t7 -20q-3 -18 -32 -47l-236 -230q-38 -36 -80 -36h-173q-22 0 -26.5 14t9.5 30z" />
<glyph unicode="&#xfb;" horiz-adv-x="1074" d="M54 408l115 591q3 15 15.5 26t28.5 11h308q16 0 24.5 -11t5.5 -26l-109 -561q-23 -135 -13.5 -173.5t53.5 -38.5q47 0 82 30l145 743q3 15 15.5 26t28.5 11h308q16 0 24.5 -11t5.5 -26l-187 -962q-3 -15 -15.5 -26t-28.5 -11h-308q-16 0 -24.5 11t-5.5 26l6 31 q-104 -92 -246 -92q-312 0 -228 432zM584 1498h284q36 0 44 -29l78 -258q7 -23 -5.5 -38t-37.5 -15h-172q-34 0 -43 30l-40 136l-94 -136q-20 -30 -53 -30h-172q-25 0 -31.5 15t8.5 38l178 258q19 29 56 29z" />
<glyph unicode="&#xfc;" horiz-adv-x="1074" d="M54 408l115 591q3 15 15.5 26t28.5 11h308q16 0 24.5 -11t5.5 -26l-109 -561q-23 -135 -13.5 -173.5t53.5 -38.5q47 0 82 30l145 743q3 15 15.5 26t28.5 11h308q16 0 24.5 -11t5.5 -26l-187 -962q-3 -15 -15.5 -26t-28.5 -11h-308q-16 0 -24.5 11t-5.5 26l6 31 q-104 -92 -246 -92q-312 0 -228 432zM473 1174q-145 0 -114 156t174 156q145 0 114 -156t-174 -156zM853 1174q-145 0 -114 156t174 156q145 0 114 -156t-174 -156z" />
<glyph unicode="&#xfd;" horiz-adv-x="980" d="M722 1036h301q20 0 28 -14t-1 -34l-599 -1333q-18 -41 -67 -41h-290q-20 0 -27.5 13t0.5 32l143 343l-109 986q-3 21 9.5 34.5t34.5 13.5h299q35 0 35 -34l-1 -506l197 508q12 32 47 32zM442 1204l193 258q28 38 75 38h237q17 0 26 -7t7 -20q-3 -18 -32 -47l-236 -230 q-38 -36 -80 -36h-173q-22 0 -26.5 14t9.5 30z" />
<glyph unicode="&#xfe;" horiz-adv-x="1024" d="M614 518q32 166 23 229t-66 63q-43 0 -76 -30l-102 -524q21 -30 64 -30q57 0 91 63t66 229zM620 1425l-88 -457q94 92 210 92q170 0 233.5 -134t10.5 -408t-169 -408t-286 -134q-117 0 -174 92l-81 -417q-3 -15 -16.5 -26t-28.5 -11h-297q-16 0 -24.5 11t-5.5 26 l344 1774q3 15 16.5 26t29.5 11h297q15 0 23.5 -11t5.5 -26z" />
<glyph unicode="&#xff;" horiz-adv-x="980" d="M722 1036h301q20 0 28 -14t-1 -34l-599 -1333q-18 -41 -67 -41h-290q-20 0 -27.5 13t0.5 32l143 343l-109 986q-3 21 9.5 34.5t34.5 13.5h299q35 0 35 -34l-1 -506l197 508q12 32 47 32zM420 1174q-145 0 -114 156t174 156q145 0 114 -156t-174 -156zM800 1174 q-145 0 -114 156t174 156q145 0 114 -156t-174 -156z" />
<glyph unicode="&#x152;" horiz-adv-x="1542" d="M489 700q-39 -202 3.5 -294.5t171.5 -97.5l152 782q-130 -3 -209 -96t-118 -294zM1347 0h-702q-341 0 -483 174t-73 526q68 351 277.5 525.5t550.5 174.5h692q16 0 24.5 -11t5.5 -27l-45 -232q-3 -16 -16 -27t-29 -11h-346l-46 -234h312q16 0 25 -11t6 -27l-45 -232 q-3 -15 -16.5 -26.5t-29.5 -11.5h-312l-47 -242h356q16 0 25 -11t6 -27l-45 -232q-3 -16 -16 -27t-29 -11z" />
<glyph unicode="&#x153;" horiz-adv-x="1496" d="M1007 -24q-130 0 -205.5 34t-115.5 104q-111 -138 -311 -138q-212 0 -303 135t-38 407q53 271 197 406.5t355 135.5q90 0 160 -37t98 -95q140 132 362 132q74 0 136 -23.5t103 -65t58 -103.5t3 -134q-31 -160 -161.5 -249t-338.5 -89h-90q-7 -97 29.5 -133.5t137.5 -36.5 q104 0 192 33q21 8 34.5 0t10.5 -29l-19 -165q-6 -43 -51 -56q-113 -33 -243 -33zM406 518q-23 -116 -25 -180t12 -87t47 -23q49 0 81 60t65 230q23 116 25.5 180t-11.5 87t-47 23q-49 0 -81.5 -60t-65.5 -230zM960 628h28q73 0 111 24.5t50 83.5q16 84 -38 84 q-51 0 -87.5 -44.5t-63.5 -147.5z" />
<glyph unicode="&#x178;" horiz-adv-x="1162" d="M637 0h-322q-16 0 -25 11t-6 27l101 522l-200 784q-7 24 5.5 40t38.5 16h312q41 0 45 -33l72 -429l238 429q19 33 59 33h312q26 0 32 -16t-10 -40l-506 -784l-101 -522q-3 -16 -16 -27t-29 -11zM580 1522q-144 0 -113 156q29 156 174 156q143 0 114 -156 q-31 -156 -175 -156zM960 1522q-144 0 -113 156q29 156 174 156q143 0 114 -156q-31 -156 -175 -156z" />
<glyph unicode="&#x2c6;" horiz-adv-x="784" d="M417 1460h284q37 0 45 -29l78 -258q6 -23 -6.5 -38t-37.5 -15h-172q-33 0 -42 30l-41 136l-93 -136q-20 -30 -54 -30h-172q-25 0 -31.5 15t9.5 38l178 258q19 29 55 29z" />
<glyph unicode="&#x2dc;" horiz-adv-x="784" d="M638 1132q-35 0 -76.5 17t-74 34t-46.5 17q-30 0 -43 -30q-16 -36 -49 -36h-125q-39 0 -30 36q33 140 99 207t145 67q35 0 76.5 -17t74 -34t46.5 -17q29 0 43 30q16 36 49 36h125q38 0 30 -36q-33 -140 -99 -207t-145 -67z" />
<glyph unicode="&#x2000;" horiz-adv-x="959" />
<glyph unicode="&#x2001;" horiz-adv-x="1918" />
<glyph unicode="&#x2002;" horiz-adv-x="959" />
<glyph unicode="&#x2003;" horiz-adv-x="1918" />
<glyph unicode="&#x2004;" horiz-adv-x="639" />
<glyph unicode="&#x2005;" horiz-adv-x="479" />
<glyph unicode="&#x2006;" horiz-adv-x="319" />
<glyph unicode="&#x2007;" horiz-adv-x="319" />
<glyph unicode="&#x2008;" horiz-adv-x="239" />
<glyph unicode="&#x2009;" horiz-adv-x="383" />
<glyph unicode="&#x200a;" horiz-adv-x="106" />
<glyph unicode="&#x2010;" horiz-adv-x="682" d="M582 522h-488q-15 0 -24 11t-6 27l41 207q2 15 15.5 26t28.5 11h488q15 0 23.5 -11t6.5 -26l-41 -207q-3 -16 -16 -27t-28 -11z" />
<glyph unicode="&#x2011;" horiz-adv-x="682" d="M582 522h-488q-15 0 -24 11t-6 27l41 207q2 15 15.5 26t28.5 11h488q15 0 23.5 -11t6.5 -26l-41 -207q-3 -16 -16 -27t-28 -11z" />
<glyph unicode="&#x2012;" horiz-adv-x="682" d="M582 522h-488q-15 0 -24 11t-6 27l41 207q2 15 15.5 26t28.5 11h488q15 0 23.5 -11t6.5 -26l-41 -207q-3 -16 -16 -27t-28 -11z" />
<glyph unicode="&#x2013;" horiz-adv-x="1000" d="M962 532h-926q-15 0 -24 10.5t-6 26.5l37 188q3 15 16 26t28 11h926q15 0 24 -11t6 -26l-37 -188q-3 -16 -16 -26.5t-28 -10.5z" />
<glyph unicode="&#x2014;" horiz-adv-x="2000" d="M1962 532h-1926q-15 0 -24 10.5t-6 26.5l37 188q3 15 16 26t28 11h1926q16 0 24.5 -11t5.5 -26l-37 -188q-3 -16 -15.5 -26.5t-28.5 -10.5z" />
<glyph unicode="&#x2018;" horiz-adv-x="524" d="M580 1392q-43 -39 -75.5 -86t-42.5 -88q104 -29 73 -192q-20 -103 -71 -151.5t-142 -48.5t-123 48.5t-12 151.5q64 329 320 493q15 10 30.5 8.5t22.5 -17.5l32 -72q12 -24 -12 -46z" />
<glyph unicode="&#x2019;" horiz-adv-x="524" d="M198 980q99 90 118 174q-104 29 -73 192q20 103 71 151.5t142 48.5t123 -48.5t12 -151.5q-64 -329 -320 -493q-15 -10 -30.5 -8.5t-22.5 17.5l-32 72q-12 24 12 46z" />
<glyph unicode="&#x201a;" horiz-adv-x="524" d="M-28 -190q98 91 117 174q-105 29 -72 192q20 103 71 151.5t142 48.5t123 -48.5t12 -151.5q-64 -329 -320 -493q-39 -24 -53 9l-32 72q-12 26 12 46z" />
<glyph unicode="&#x201c;" horiz-adv-x="920" d="M976 1392q-43 -39 -75.5 -86t-42.5 -88q104 -29 73 -192q-20 -103 -71 -151.5t-142 -48.5t-123 48.5t-12 151.5q64 329 320 493q15 10 30.5 8.5t22.5 -17.5l32 -72q12 -24 -12 -46zM580 1392q-43 -39 -75.5 -86t-42.5 -88q104 -29 73 -192q-20 -103 -71 -151.5 t-142 -48.5t-123 48.5t-12 151.5q64 329 320 493q15 10 30.5 8.5t22.5 -17.5l32 -72q12 -24 -12 -46z" />
<glyph unicode="&#x201d;" horiz-adv-x="920" d="M594 980q99 90 118 174q-104 29 -73 192q20 103 71 151.5t142 48.5t123 -48.5t12 -151.5q-64 -329 -320 -493q-15 -10 -30.5 -8.5t-22.5 17.5l-32 72q-12 24 12 46zM198 980q99 90 118 174q-104 29 -73 192q20 103 71 151.5t142 48.5t123 -48.5t12 -151.5 q-64 -329 -320 -493q-15 -10 -30.5 -8.5t-22.5 17.5l-32 72q-12 24 12 46z" />
<glyph unicode="&#x201e;" horiz-adv-x="920" d="M-28 -190q98 91 117 174q-105 29 -72 192q20 103 71 151.5t142 48.5t123 -48.5t12 -151.5q-64 -329 -320 -493q-39 -24 -53 9l-32 72q-12 26 12 46zM368 -190q98 91 117 174q-105 29 -72 192q20 103 71 151.5t142 48.5t123 -48.5t12 -151.5q-64 -329 -320 -493 q-39 -24 -53 9l-32 72q-12 26 12 46z" />
<glyph unicode="&#x2022;" horiz-adv-x="856" d="M716 662q0 -302 -258 -302t-258 302t258 302t258 -302z" />
<glyph unicode="&#x2026;" horiz-adv-x="1568" d="M156 -24q-91 0 -123 48.5t-12 151.5t71 151.5t142 48.5t123 -48.5t12 -151.5t-71 -151.5t-142 -48.5zM1200 -24q-91 0 -123 48.5t-12 151.5t71 151.5t142 48.5t123 -48.5t12 -151.5t-71 -151.5t-142 -48.5zM678 -24q-91 0 -123 48.5t-12 151.5t71 151.5t142 48.5 t123 -48.5t12 -151.5t-71 -151.5t-142 -48.5z" />
<glyph unicode="&#x202f;" horiz-adv-x="383" />
<glyph unicode="&#x2039;" horiz-adv-x="522" d="M82 538l34 172q7 41 44 74l347 303q27 24 46.5 17.5t13.5 -38.5l-41 -208q-7 -39 -32 -59l-211 -175l143 -175q16 -21 9 -59l-40 -208q-6 -32 -28 -38.5t-40 17.5l-229 303q-24 33 -16 74z" />
<glyph unicode="&#x203a;" horiz-adv-x="522" d="M471 710l-34 -172q-8 -42 -44 -74l-347 -303q-27 -24 -46.5 -17.5t-13.5 38.5l40 208q7 38 33 59l211 175l-143 175q-17 22 -10 59l41 208q6 32 28 38.5t40 -17.5l229 -303q23 -32 16 -74z" />
<glyph unicode="&#x205f;" horiz-adv-x="479" />
<glyph unicode="&#x20ac;" horiz-adv-x="1032" d="M887 318q28 10 43 1t13 -30l-27 -211q-6 -43 -47 -58q-118 -44 -272 -44q-266 0 -393.5 139t-116.5 397h-41q-15 0 -24 11t-6 26l10 52q3 15 16.5 26t28.5 11h27q4 59 23 122h-27q-15 0 -23.5 11t-6.5 26l11 52q2 15 15.5 26t28.5 11h39q90 259 270 398.5t444 139.5 q143 0 256 -47q33 -14 20 -60l-52 -205q-6 -21 -24.5 -30.5t-42.5 0.5q-63 30 -161 30q-209 0 -304 -226h353q20 0 27 -14t-4 -34l-23 -50q-5 -11 -17.5 -19.5t-24.5 -8.5h-354q-20 -69 -21 -122h302q20 0 27 -14t-4 -34l-26 -50q-5 -11 -17 -19.5t-24 -8.5h-267 q10 -224 222 -224q98 0 174 30z" />
<glyph unicode="&#x2122;" horiz-adv-x="1090" d="M476 1366v-92q0 -16 -9.5 -25t-25.5 -9h-97v-468q0 -16 -9.5 -25t-24.5 -9h-128q-34 0 -34 34v468h-96q-34 0 -34 34v92q0 15 9 24.5t25 9.5h389q16 0 25.5 -9.5t9.5 -24.5zM814 938h-40q-22 0 -28 20l-58 188v-368q0 -16 -10 -28t-25 -12h-111q-15 0 -24.5 9t-9.5 25 v594q0 15 9.5 24.5t24.5 9.5h145q26 0 35 -26l72 -224l72 224q9 26 35 26h145q15 0 24.5 -9.5t9.5 -24.5v-594q0 -16 -9.5 -25t-24.5 -9h-111q-15 0 -25 12t-10 28v368l-58 -188q-6 -20 -28 -20z" />
<glyph unicode="&#x25fc;" horiz-adv-x="1035" d="M0 1035h1035v-1035h-1035v1035z" />
</font>
</defs>
</svg>
