<?xml version="1.0" standalone="no"?>
<!DOCTYPE svg PUBLIC "-//W3C//DTD SVG 1.1//EN" "http://www.w3.org/Graphics/SVG/1.1/DTD/svg11.dtd" >
<svg xmlns="http://www.w3.org/2000/svg">
<metadata></metadata>
<defs>
<font id="core_sans_nr_53_ex_mediumRg" horiz-adv-x="1342" >
<font-face units-per-em="2000" ascent="1600" descent="-400" />
<missing-glyph horiz-adv-x="720" />
<glyph unicode="&#xfb01;" horiz-adv-x="1390" d="M38 882v117q0 15 10.5 26t26.5 11h189v58q0 179 108.5 272.5t310.5 93.5q78 0 151 -14q15 -3 24.5 -13.5t7.5 -24.5l-17 -125q-2 -15 -13.5 -22.5t-26.5 -5.5q-47 9 -92 9q-108 0 -158.5 -42t-50.5 -153v-33h289q16 0 26.5 -11t10.5 -26v-117q0 -16 -10.5 -27t-26.5 -11 h-289v-807q0 -15 -11 -26t-26 -11h-170q-15 0 -26 11t-11 26v807h-189q-16 0 -26.5 11t-10.5 27zM996 37v962q0 15 11 26t26 11h169q16 0 27 -11t11 -26v-962q0 -15 -11 -26t-27 -11h-169q-15 0 -26 11t-11 26zM972 1324q0 136 146 136t146 -136t-146 -136t-146 136z" />
<glyph unicode="&#xfb02;" horiz-adv-x="1372" d="M20 882v117q0 15 10.5 26t26.5 11h189v58q0 179 108.5 272.5t310.5 93.5q78 0 151 -14q15 -3 24.5 -13.5t7.5 -24.5l-17 -125q-2 -15 -13.5 -22.5t-26.5 -5.5q-47 9 -92 9q-108 0 -158.5 -42t-50.5 -153v-33h289q16 0 26.5 -11t10.5 -26v-117q0 -16 -10.5 -27t-26.5 -11 h-289v-807q0 -15 -11 -26t-26 -11h-170q-15 0 -26 11t-11 26v807h-189q-16 0 -26.5 11t-10.5 27zM978 37v1386q0 15 11 26t26 11h169q16 0 27 -11t11 -26v-1386q0 -15 -11 -26t-27 -11h-169q-15 0 -26 11t-11 26z" />
<glyph unicode="&#xfb03;" horiz-adv-x="2164" d="M831 1252q-60 12 -115 12q-116 0 -171 -44t-55 -154v-30h518v58q0 179 108.5 272.5t310.5 93.5q78 0 151 -14q15 -3 24.5 -13.5t7.5 -24.5l-17 -125q-2 -15 -13.5 -22.5t-26.5 -5.5q-47 9 -92 9q-108 0 -158.5 -42t-50.5 -153v-33h289q16 0 26.5 -11t10.5 -26v-117 q0 -16 -10.5 -27t-26.5 -11h-289v-807q0 -15 -11 -26t-26 -11h-170q-15 0 -26 11t-11 26v807h-518v-807q0 -15 -11 -26t-26 -11h-170q-15 0 -26 11t-11 26v807h-189q-16 0 -26.5 11t-10.5 27v117q0 15 10.5 26t26.5 11h189v54q0 181 112 275.5t324 94.5q91 0 174 -17 q15 -3 24.5 -14t7.5 -25l-17 -124q-2 -15 -13.5 -23t-26.5 -5zM1770 37v962q0 15 11 26t26 11h169q16 0 27 -11t11 -26v-962q0 -15 -11 -26t-27 -11h-169q-15 0 -26 11t-11 26zM1746 1324q0 136 146 136t146 -136t-146 -136t-146 136z" />
<glyph unicode="&#xfb04;" horiz-adv-x="2164" d="M831 1252q-60 12 -115 12q-116 0 -171 -44t-55 -154v-30h518v58q0 179 108.5 272.5t310.5 93.5q78 0 151 -14q15 -3 24.5 -13.5t7.5 -24.5l-17 -125q-2 -15 -13.5 -22.5t-26.5 -5.5q-47 9 -92 9q-108 0 -158.5 -42t-50.5 -153v-33h289q16 0 26.5 -11t10.5 -26v-117 q0 -16 -10.5 -27t-26.5 -11h-289v-807q0 -15 -11 -26t-26 -11h-170q-15 0 -26 11t-11 26v807h-518v-807q0 -15 -11 -26t-26 -11h-170q-15 0 -26 11t-11 26v807h-189q-16 0 -26.5 11t-10.5 27v117q0 15 10.5 26t26.5 11h189v54q0 181 112 275.5t324 94.5q91 0 174 -17 q15 -3 24.5 -14t7.5 -25l-17 -124q-2 -15 -13.5 -23t-26.5 -5zM1770 37v1386q0 15 11 26t26 11h169q16 0 27 -11t11 -26v-1386q0 -15 -11 -26t-27 -11h-169q-15 0 -26 11t-11 26z" />
<glyph horiz-adv-x="666" />
<glyph horiz-adv-x="0" />
<glyph horiz-adv-x="0" />
<glyph unicode="&#xd;" horiz-adv-x="682" />
<glyph unicode=" "  horiz-adv-x="720" />
<glyph unicode="&#x09;" horiz-adv-x="720" />
<glyph unicode="&#xa0;" horiz-adv-x="720" />
<glyph unicode="!" horiz-adv-x="648" d="M245 397l-55 619v347q0 15 11 26t26 11h194q15 0 26 -11t11 -26v-347l-55 -618q-2 -14 -13 -24t-24 -10h-84q-14 0 -24.5 9.5t-12.5 23.5zM170 118q0 142 154 142t154 -142t-154 -142t-154 142z" />
<glyph unicode="&#x22;" horiz-adv-x="1086" d="M228 870l-26 490q-1 18 9.5 29t28.5 11h196q15 0 25.5 -11t10.5 -27v-45l-50 -449q-1 -15 -12 -24.5t-26 -9.5h-118q-15 0 -25.5 10.5t-12.5 25.5zM642 870l-26 490q-1 18 9.5 29t28.5 11h196q15 0 25.5 -11t10.5 -27v-45l-50 -449q-1 -15 -12 -24.5t-26 -9.5h-118 q-15 0 -25.5 10.5t-12.5 25.5z" />
<glyph unicode="#" horiz-adv-x="1572" d="M305 336h-198q-15 0 -26 11t-11 26v124q0 16 11 26.5t26 10.5h239l66 324h-217q-15 0 -26 11t-11 26v124q0 16 11 26.5t26 10.5h258l65 314q2 12 13 21t23 9h158q19 0 30 -13.5t7 -31.5l-62 -299h344l65 314q2 12 13 21t23 9h158q19 0 30 -13.5t7 -31.5l-62 -299h200 q15 0 26 -10.5t11 -26.5v-124q0 -15 -11 -26t-26 -11h-241l-66 -324h219q15 0 26 -10.5t11 -26.5v-124q0 -15 -11 -26t-26 -11h-260l-63 -306q-2 -12 -13 -21t-23 -9h-158q-19 0 -30 13.5t-7 31.5l60 291h-344l-63 -306q-2 -12 -13 -21t-23 -9h-158q-19 0 -30 13.5t-7 31.5z M646 858l-66 -324h344l66 324h-344z" />
<glyph unicode="$" horiz-adv-x="1258" d="M558 -167v143q-237 3 -419 68q-12 5 -20 16t-7 23l15 149q2 18 16.5 28t31.5 3q155 -68 383 -71v424q-244 68 -351 171t-107 263t115.5 256t342.5 114v147q0 15 11 26t26 11h77q16 0 27 -11t11 -26v-145q184 -7 338 -54q12 -4 20 -15.5t7 -23.5l-14 -140 q-2 -18 -16.5 -27.5t-31.5 -3.5q-125 44 -303 50v-394q250 -80 354 -180t104 -254q0 -175 -110.5 -274.5t-347.5 -121.5v-153q0 -14 -11 -24.5t-27 -10.5h-77q-15 0 -26 11t-11 26zM912 370q0 67 -45.5 113.5t-156.5 86.5v-372q106 15 154 57.5t48 114.5zM356 1058 q0 -64 47.5 -109.5t154.5 -86.5v340q-111 -11 -156.5 -47t-45.5 -97z" />
<glyph unicode="%" horiz-adv-x="2054" d="M344 61l1140 1328q13 13 28 13h170q25 0 35 -21t-7 -41q-173 -201 -677 -789q-81 -95 -236 -276t-224 -262q-11 -13 -28 -13h-173q-25 0 -34.5 21t6.5 40zM160 1051q0 159 104 262.5t274 103.5q172 0 276 -103.5t104 -262.5q0 -158 -104 -261.5t-276 -103.5 q-170 0 -274 103.5t-104 261.5zM389 1051q0 -170 149 -170q151 0 151 170q0 171 -151 171q-149 0 -149 -171zM1898 351q0 -158 -104.5 -261.5t-274.5 -103.5q-171 0 -275.5 103.5t-104.5 261.5q0 159 104.5 262t275.5 103t275 -103t104 -262zM1668 351q0 170 -149 170 q-151 0 -151 -170t151 -170q149 0 149 170z" />
<glyph unicode="&#x26;" horiz-adv-x="1558" d="M436 1088q0 -52 40 -108t140 -132q115 55 169.5 112t54.5 122q0 69 -54.5 107.5t-153.5 38.5q-92 0 -144 -43t-52 -97zM616 174q220 0 336 116l-404 326q-232 -105 -232 -254q0 -86 78.5 -137t221.5 -51zM1291 19l-171 139q-177 -180 -518 -180q-148 0 -264 43t-187 133 t-71 216q0 239 298 388q-93 82 -135.5 158t-42.5 170q0 150 121.5 244t314.5 94q209 0 325.5 -93.5t116.5 -252.5q0 -116 -72.5 -204.5t-213.5 -163.5l276 -224q48 112 52 267q1 15 12 25t26 10h159q16 0 26.5 -11t9.5 -27q-6 -253 -99 -422l327 -266q21 -16 14.5 -39 t-33.5 -23h-212q-35 0 -59 19z" />
<glyph unicode="'" horiz-adv-x="652" d="M218 870l-27 491q-1 16 11 27.5t28 11.5h194q15 0 26.5 -11t11.5 -26v-45l-50 -450q-1 -14 -12 -24t-25 -10h-120q-14 0 -25 10.5t-12 25.5z" />
<glyph unicode="(" horiz-adv-x="848" d="M200 621q0 244 89.5 459.5t250.5 393.5q24 26 61 26h108q25 0 34.5 -20t-5.5 -40q-306 -388 -306 -819q0 -433 306 -821q15 -20 5.5 -40t-34.5 -20h-108q-37 0 -61 26q-161 178 -250.5 394.5t-89.5 460.5z" />
<glyph unicode=")" horiz-adv-x="848" d="M618 621q0 -244 -89.5 -460.5t-250.5 -394.5q-24 -26 -61 -26h-108q-25 0 -34.5 20t5.5 40q306 388 306 821q0 431 -306 819q-15 20 -5.5 40t34.5 20h108q37 0 61 -26q161 -178 250.5 -393.5t89.5 -459.5z" />
<glyph unicode="*" horiz-adv-x="1120" d="M207 378l-76 131q-8 14 -3.5 29.5t19.5 22.5l215 104l-215 102q-15 7 -19.5 22.5t4.5 30.5l75 131q8 14 23.5 18t29.5 -6l195 -132l-16 235q-1 16 9.5 28t27.5 12h151q17 0 28.5 -11.5t9.5 -28.5l-20 -237l199 134q14 10 29.5 6t23.5 -18l75 -131q9 -15 4.5 -30.5 t-19.5 -22.5l-216 -102l216 -104q15 -7 19.5 -22.5t-3.5 -29.5l-76 -131q-8 -15 -23.5 -19t-29.5 6l-199 137l20 -240q2 -17 -9.5 -28.5t-28.5 -11.5h-151q-17 0 -27.5 12t-9.5 28l17 238l-196 -135q-14 -10 -29.5 -6t-23.5 19z" />
<glyph unicode="+" horiz-adv-x="1332" d="M546 207v355h-389q-15 0 -26 11t-11 26v130q0 15 11 26t26 11h389v354q0 16 11 27t26 11h166q15 0 26 -11t11 -27v-354h389q15 0 26 -11t11 -26v-130q0 -15 -11 -26t-26 -11h-389v-355q0 -15 -11 -26t-26 -11h-166q-15 0 -26 11t-11 26z" />
<glyph unicode="," horiz-adv-x="672" d="M245 -275q-10 -6 -24 -2.5t-21 13.5l-25 38q-20 31 6 48q95 63 110 154q-58 7 -89 43.5t-31 96.5q0 144 154 144q78 0 117 -38t39 -120q0 -126 -62.5 -224t-173.5 -153z" />
<glyph unicode="-" horiz-adv-x="852" d="M695 552h-538q-15 0 -26 11t-11 26v150q0 16 11 26.5t26 10.5h538q15 0 26 -10.5t11 -26.5v-150q0 -15 -11 -26t-26 -11z" />
<glyph unicode="." horiz-adv-x="672" d="M182 118q0 142 154 142t154 -142t-154 -142t-154 142z" />
<glyph unicode="/" horiz-adv-x="1242" d="M1238 1468l-995 -1668q-12 -20 -34 -20h-203q-14 0 -19 9t1 19l995 1668q13 20 34 20h203q14 0 19 -9t-1 -19z" />
<glyph unicode="0" horiz-adv-x="1344" d="M56 700q0 160 39 291.5t114.5 228.5t193.5 150.5t269 53.5t269 -53.5t193.5 -150.5t114.5 -228.5t39 -291.5t-39 -291.5t-114.5 -228.5t-193.5 -150.5t-269 -53.5t-269 53.5t-193.5 150.5t-114.5 228.5t-39 291.5zM312 700q0 -253 92.5 -380.5t267.5 -127.5t267.5 127.5 t92.5 380.5t-92.5 380.5t-267.5 127.5t-267.5 -127.5t-92.5 -380.5z" />
<glyph unicode="1" horiz-adv-x="1344" d="M658 1139l-268 -155q-14 -7 -28 -3.5t-22 15.5l-70 105q-9 14 -6 31t17 25l377 227q27 16 54 16h161q15 0 26 -10.5t11 -26.5v-1326q0 -15 -11 -26t-26 -11h-178q-15 0 -26 11t-11 26v1102z" />
<glyph unicode="2" horiz-adv-x="1344" d="M149 216q310 210 515 400q134 125 190 213t56 197q0 182 -310 182q-189 0 -342 -72q-18 -9 -34 1t-18 27l-12 142q-1 11 5.5 23t15.5 16q79 36 187 57.5t216 21.5q162 0 283 -42.5t193 -136t72 -229.5q0 -145 -63.5 -255t-210.5 -245q-169 -157 -382 -304h629 q15 0 26 -11t11 -26v-138q0 -15 -11 -26t-26 -11h-970q-16 0 -26.5 11t-10.5 26v143q0 25 17 36z" />
<glyph unicode="3" horiz-adv-x="1344" d="M202 250q159 -58 357 -58q178 0 265 44t87 142q0 236 -525 246q-16 0 -26.5 10.5t-10.5 26.5v138q0 15 11 25.5t27 11.5q253 7 376.5 57t123.5 153q0 84 -76 123t-236 39q-178 0 -337 -57q-18 -6 -33 1.5t-17 25.5l-16 139q-3 32 23 41q181 66 392 66q275 0 415.5 -96 t140.5 -256q0 -137 -72.5 -222t-197.5 -120q134 -36 214 -127t80 -227q0 -186 -151 -293t-445 -107q-232 0 -410 52q-26 7 -23 41l14 153q1 18 16.5 26t33.5 2z" />
<glyph unicode="4" horiz-adv-x="1344" d="M68 325v159q0 23 17 42l740 863q13 13 28 13h208q16 0 26.5 -11t10.5 -26v-865h161q15 0 26 -11t11 -26v-138q0 -16 -11 -26.5t-26 -10.5h-161v-251q0 -15 -10.5 -26t-26.5 -11h-178q-16 0 -26.5 11t-10.5 26v251h-741q-15 0 -26 10.5t-11 26.5zM846 1062l-484 -562h484 v562z" />
<glyph unicode="5" horiz-adv-x="1344" d="M575 192q368 0 368 266q0 116 -92 169t-274 53q-147 0 -310 -38q-18 -4 -32 9t-14 32v680q0 15 11 26t26 11h855q16 0 27 -11t11 -26v-138q0 -16 -11 -26.5t-27 -10.5h-640v-320q101 26 175 26q259 0 405 -117.5t146 -339.5q0 -100 -37.5 -183t-111.5 -145.5t-192 -97.5 t-271 -35q-215 0 -381 52q-12 3 -20.5 15t-7.5 24l14 152q1 19 18.5 28t36.5 2q140 -57 328 -57z" />
<glyph unicode="6" horiz-adv-x="1344" d="M1124 1374q28 -10 25 -39l-14 -150q-2 -20 -15 -28.5t-31 -1.5q-122 53 -293 53q-193 0 -298 -91t-130 -291q162 100 368 100q106 0 200.5 -32t166.5 -90t114.5 -148.5t42.5 -199.5q0 -212 -153.5 -346t-394.5 -134q-106 0 -198 25.5t-170.5 81t-134 137t-86.5 199.5 t-31 263q0 191 50 334.5t142.5 232t218.5 132t285 43.5q194 0 336 -50zM706 710q-214 0 -344 -118q29 -398 350 -398q132 0 212 69.5t80 188.5q0 121 -78 189.5t-220 68.5z" />
<glyph unicode="7" horiz-adv-x="1344" d="M1188 1363v-150q0 -30 -12 -53l-585 -1140q-10 -20 -33 -20h-191q-23 0 -33 17t0 37l586 1134h-737q-15 0 -26 10.5t-11 26.5v138q0 15 11 26t26 11h968q15 0 26 -11t11 -26z" />
<glyph unicode="8" horiz-adv-x="1344" d="M1198 1062q0 -204 -250 -316q164 -72 240 -156.5t76 -205.5q0 -188 -154 -298t-436 -110q-281 0 -437.5 110.5t-156.5 297.5q0 118 82.5 212.5t225.5 139.5q-127 62 -184.5 140.5t-57.5 183.5q0 174 141.5 269t386.5 95q152 0 269 -41t186 -124t69 -197zM1008 378 q0 75 -83.5 139t-290.5 127q-298 -88 -298 -266q0 -83 81.5 -134.5t256.5 -51.5q161 0 247.5 52.5t86.5 133.5zM402 1060q0 -65 65 -112.5t253 -115.5q106 42 165 101t59 125t-70 108t-200 42q-135 0 -203.5 -40.5t-68.5 -107.5z" />
<glyph unicode="9" horiz-adv-x="1344" d="M222 26q-28 10 -25 39l14 150q2 20 15 28.5t31 1.5q122 -53 293 -53q193 0 298 91t130 291q-162 -100 -368 -100q-106 0 -200.5 32t-166.5 90t-114.5 148.5t-42.5 199.5q0 212 153.5 346t394.5 134q106 0 198 -25.5t170.5 -81t134 -137t86.5 -199.5t31 -263 q0 -191 -50 -334.5t-142.5 -232t-218.5 -132t-285 -43.5q-194 0 -336 50zM640 690q214 0 344 118q-29 398 -350 398q-132 0 -212 -69.5t-80 -188.5q0 -121 78 -189.5t220 -68.5z" />
<glyph unicode=":" horiz-adv-x="672" d="M182 918q0 142 154 142t154 -142t-154 -142t-154 142zM182 118q0 142 154 142t154 -142t-154 -142t-154 142z" />
<glyph unicode=";" horiz-adv-x="672" d="M171 918q0 142 154 142t154 -142t-154 -142t-154 142zM245 -275q-10 -6 -24 -2.5t-21 13.5l-25 38q-20 31 6 48q95 63 110 154q-58 7 -89 43.5t-31 96.5q0 144 154 144q78 0 117 -38t39 -120q0 -126 -62.5 -224t-173.5 -153z" />
<glyph unicode="&#x3c;" horiz-adv-x="1332" d="M120 587v154q0 26 23 35l1021 383q19 7 33.5 -2t14.5 -25v-155q0 -27 -24 -35l-798 -278l798 -278q24 -8 24 -35v-155q0 -16 -14.5 -25t-33.5 -2l-1021 383q-23 9 -23 35z" />
<glyph unicode="=" horiz-adv-x="1332" d="M1175 784h-1018q-15 0 -26 11t-11 26v130q0 15 11 26t26 11h1018q15 0 26 -11t11 -26v-130q0 -15 -11 -26t-26 -11zM1175 340h-1018q-15 0 -26 10.5t-11 26.5v130q0 15 11 26t26 11h1018q15 0 26 -11t11 -26v-130q0 -16 -11 -26.5t-26 -10.5z" />
<glyph unicode="&#x3e;" horiz-adv-x="1332" d="M1212 741v-154q0 -26 -23 -35l-1021 -383q-19 -7 -33.5 2t-14.5 25v155q0 27 24 35l798 278l-798 278q-24 8 -24 35v155q0 16 14.5 25t33.5 2l1021 -383q23 -9 23 -35z" />
<glyph unicode="?" horiz-adv-x="1226" d="M167 1141q-19 -8 -34.5 1.5t-17.5 29.5l-13 140q-3 26 22 38q171 74 402 74q280 0 420 -90.5t140 -261.5q0 -217 -276 -390q-82 -52 -121 -115.5t-39 -150.5v-15q0 -16 -11 -26.5t-26 -10.5h-178q-16 0 -26.5 10.5t-10.5 26.5v19q0 138 54 235t176 171q118 71 160 122.5 t42 121.5q0 138 -318 138q-189 0 -345 -67zM370 118q0 142 154 142t154 -142t-154 -142t-154 142z" />
<glyph unicode="@" horiz-adv-x="1940" d="M860 292q171 0 266 124l64 334q-49 64 -164 64q-125 0 -219.5 -106t-94.5 -248q0 -81 40.5 -124.5t107.5 -43.5zM1507 -180q-125 -73 -249.5 -108.5t-271.5 -35.5q-252 0 -457.5 114.5t-322 314.5t-116.5 445q0 185 67.5 348t183.5 278t277 181.5t342 66.5 q254 0 457.5 -108t318 -299t114.5 -429q0 -219 -105.5 -356.5t-292.5 -137.5q-178 0 -258 132q-147 -122 -350 -122q-154 0 -258 96.5t-104 249.5q0 115 47.5 218.5t124.5 174.5t176.5 113t203.5 42q223 0 348 -153q41 -50 28 -116l-68 -345q-2 -65 31 -101.5t97 -36.5 q86 0 138 97.5t52 244.5q0 139 -52 261.5t-143 211t-222 140t-283 51.5q-192 0 -347.5 -93t-243 -253.5t-87.5 -355.5q0 -149 53.5 -279t146 -223t223.5 -146.5t281 -53.5q239 0 440 126q15 9 30.5 4.5t23.5 -19.5l44 -90q6 -12 0.5 -27t-17.5 -22z" />
<glyph unicode="A" horiz-adv-x="1548" d="M1108 334h-692l-128 -310q-4 -10 -14.5 -17t-20.5 -7h-196q-22 0 -33 16.5t-2 36.5l590 1324q4 9 14.5 16t19.5 7h232q9 0 19.5 -7t14.5 -16l590 -1324q9 -20 -2 -36.5t-33 -16.5h-196q-10 0 -20.5 7t-14.5 17zM504 546h516l-258 617z" />
<glyph unicode="B" horiz-adv-x="1444" d="M800 0h-602q-16 0 -27 11t-11 27v1323q0 16 11.5 27.5t27.5 11.5h571q245 0 379.5 -103.5t134.5 -270.5q0 -97 -48 -169.5t-134 -112.5q124 -40 193 -129t69 -203q0 -198 -143.5 -305t-420.5 -107zM1108 418q0 104 -82 152t-268 48h-346v-406h346q186 0 268 49t82 157z M1030 1008q0 94 -74.5 137t-227.5 43h-316v-358h316q153 0 227.5 42t74.5 136z" />
<glyph unicode="C" horiz-adv-x="1424" d="M1277 249q18 7 33.5 -3t17.5 -30l14 -144q1 -13 -6.5 -25t-19.5 -16q-172 -55 -378 -55q-400 0 -624 193.5t-224 530.5q0 332 223 528t615 196q216 0 377 -52q12 -4 19.5 -16t6.5 -25l-14 -140q-2 -20 -17.5 -30t-33.5 -3q-131 50 -326 50q-285 0 -439.5 -135.5 t-154.5 -372.5q0 -245 158 -376.5t444 -131.5q182 0 329 57z" />
<glyph unicode="D" horiz-adv-x="1574" d="M1228 700q0 257 -161.5 372.5t-494.5 115.5h-160v-976h160q333 0 494.5 115.5t161.5 372.5zM610 0h-412q-16 0 -27 11t-11 27v1324q0 16 11 27t27 11h412q194 0 353.5 -44.5t276 -130.5t180.5 -220t64 -305t-64 -305t-180.5 -220t-276 -130.5t-353.5 -44.5z" />
<glyph unicode="E" horiz-adv-x="1296" d="M160 38v1324q0 16 11 27t27 11h962q16 0 27 -11t11 -27v-136q0 -16 -11 -27t-27 -11h-748v-362h701q15 0 26 -11t11 -27v-136q0 -16 -11 -27t-26 -11h-701v-402h766q16 0 27 -11t11 -27v-136q0 -16 -11 -27t-27 -11h-980q-16 0 -27 11t-11 27z" />
<glyph unicode="F" horiz-adv-x="1238" d="M160 38v1324q0 16 11 27t27 11h963q15 0 26 -11t11 -27v-136q0 -16 -11 -27t-26 -11h-749v-358h700q16 0 27 -11t11 -27v-137q0 -15 -11 -26t-27 -11h-700v-580q0 -16 -11 -27t-27 -11h-176q-16 0 -27 11t-11 27z" />
<glyph unicode="G" horiz-adv-x="1640" d="M1474 45q-228 -69 -486 -69q-207 0 -376 53t-283.5 148.5t-176.5 229t-62 293.5q0 155 58.5 287t167 229.5t275.5 152.5t373 55q251 0 476 -67q12 -4 20 -14.5t7 -23.5l-14 -153q-2 -20 -17 -29t-34 -2q-195 73 -426 73q-302 0 -466 -137.5t-164 -370.5 q0 -243 168.5 -375.5t487.5 -132.5q155 0 256 28v366h-412q-16 0 -27 11t-11 27v137q0 15 11 26t27 11h616q16 0 27 -11t11 -26v-680q0 -11 -8 -22t-18 -14z" />
<glyph unicode="H" horiz-adv-x="1612" d="M160 38v1324q0 16 11 27t27 11h176q16 0 27 -11t11 -27v-510h788v510q0 16 11 27t27 11h176q16 0 27 -11t11 -27v-1324q0 -16 -11 -27t-27 -11h-176q-16 0 -27 11t-11 27v602h-788v-602q0 -16 -11 -27t-27 -11h-176q-16 0 -27 11t-11 27z" />
<glyph unicode="I" horiz-adv-x="592" d="M208 1400h176q16 0 27 -11t11 -27v-1324q0 -16 -11 -27t-27 -11h-176q-16 0 -27 11t-11 27v1324q0 16 11 27t27 11z" />
<glyph unicode="J" horiz-adv-x="1054" d="M641 494v868q0 16 11 27t26 11h178q15 0 26 -11t11 -27v-877q0 -509 -513 -509q-193 0 -334 55q-11 4 -18.5 15.5t-6.5 22.5l15 150q2 20 18.5 29t34.5 0q116 -56 287 -56q134 0 199.5 69.5t65.5 232.5z" />
<glyph unicode="K" horiz-adv-x="1446" d="M692 744l751 -713q12 -12 8.5 -21.5t-19.5 -9.5h-262q-34 0 -69 32l-689 667v-661q0 -16 -11 -27t-27 -11h-176q-16 0 -27 11t-11 27v1324q0 16 11 27t27 11h176q16 0 27 -11t11 -27v-582l607 588q35 32 69 32h237q17 0 20 -10t-10 -22z" />
<glyph unicode="L" horiz-adv-x="1308" d="M160 38v1324q0 16 11 27t27 11h176q16 0 27 -11t11 -27v-1150h819q15 0 26 -11t11 -27v-136q0 -16 -11 -27t-26 -11h-1033q-16 0 -27 11t-11 27z" />
<glyph unicode="M" horiz-adv-x="1924" d="M1031 448h-137q-18 0 -30 16l-460 610v-1036q0 -16 -11 -27t-27 -11h-168q-16 0 -27 11t-11 27v1324q0 16 11 27t27 11h224q30 0 41 -15l499 -675l500 675q11 15 41 15h224q16 0 27 -11t11 -27v-1324q0 -16 -11 -27t-27 -11h-168q-16 0 -27 11t-11 27v1036l-460 -610 q-12 -16 -30 -16z" />
<glyph unicode="N" horiz-adv-x="1602" d="M1118 17l-714 1065v-1044q0 -16 -11 -27t-27 -11h-168q-16 0 -27 11t-11 27v1324q0 16 11 27t27 11h255q7 0 17 -5.5t14 -11.5l714 -1065v1044q0 16 11 27t27 11h168q16 0 27 -11t11 -27v-1324q0 -16 -11 -27t-27 -11h-255q-7 0 -17 5.5t-14 11.5z" />
<glyph unicode="O" horiz-adv-x="1676" d="M90 700q0 153 50.5 284.5t144 229.5t236.5 154t317 56t317 -56t236.5 -154t144 -229.5t50.5 -284.5t-50.5 -284.5t-144 -229.5t-236.5 -154t-317 -56t-317 56t-236.5 154t-144 229.5t-50.5 284.5zM346 700q0 -239 131 -373.5t361 -134.5t361 134.5t131 373.5t-131 373.5 t-361 134.5t-361 -134.5t-131 -373.5z" />
<glyph unicode="P" horiz-adv-x="1370" d="M412 510v-472q0 -16 -11 -27t-27 -11h-176q-16 0 -27 11t-11 27v1324q0 16 11 27t27 11h496q286 0 446 -115.5t160 -328.5q0 -214 -160 -330t-446 -116h-282zM1044 956q0 125 -90 178.5t-284 53.5h-258v-466h258q194 0 284 54.5t90 179.5z" />
<glyph unicode="Q" horiz-adv-x="1676" d="M90 700q0 153 50.5 284.5t144 229.5t236.5 154t317 56t317 -56t236.5 -154t144 -229.5t50.5 -284.5q0 -135 -40 -255t-115 -214t-188 -157.5t-254 -85.5q21 -58 68 -82q59 -30 205 -30q71 0 165 15q17 3 30 -6.5t15 -25.5l18 -114q2 -16 -6 -28.5t-24 -15.5 q-99 -17 -215 -17q-209 0 -324 60q-136 72 -179 237q-203 20 -352.5 120t-224.5 254.5t-75 344.5zM346 700q0 -239 131 -373.5t361 -134.5t361 134.5t131 373.5t-131 373.5t-361 134.5t-361 -134.5t-131 -373.5z" />
<glyph unicode="R" horiz-adv-x="1464" d="M978 594l417 -532q16 -20 5.5 -41t-36.5 -21h-191q-21 0 -38 21l-411 543h-312v-526q0 -16 -11 -27t-27 -11h-176q-16 0 -27 11t-11 27v1324q0 16 11 27t27 11h532q168 0 299 -46.5t210 -142.5t79 -229q0 -145 -91.5 -244.5t-248.5 -143.5zM1062 982q0 111 -87.5 162.5 t-266.5 51.5h-296v-428h296q354 0 354 214z" />
<glyph unicode="S" horiz-adv-x="1258" d="M174 262q171 -70 410 -70q173 0 250.5 44.5t77.5 133.5q0 84 -73.5 138t-262.5 104q-254 68 -365 172t-111 266q0 180 144.5 277t425.5 97q231 0 397 -54q11 -4 19 -16t7 -24l-11 -140q-1 -19 -16 -28.5t-33 -3.5q-143 50 -357 50q-176 0 -248 -38t-72 -112 q0 -77 70 -128t234 -100q280 -83 394 -186t114 -264q0 -201 -144 -302.5t-458 -101.5q-243 0 -432 69q-10 4 -18.5 16.5t-7.5 23.5l13 148q1 20 17.5 28.5t35.5 0.5z" />
<glyph unicode="T" horiz-adv-x="1292" d="M520 38v1150h-462q-16 0 -27 11t-11 27v136q0 16 11 27t27 11h1176q16 0 27 -11t11 -27v-136q0 -16 -11 -27t-27 -11h-462v-1150q0 -16 -11 -27t-27 -11h-176q-16 0 -27 11t-11 27z" />
<glyph unicode="U" horiz-adv-x="1648" d="M824 -24q-147 0 -267 35.5t-209.5 105.5t-138.5 180.5t-49 253.5v811q0 16 11 27t27 11h176q16 0 27 -11t11 -27v-789q0 -186 98 -283.5t314 -97.5t314 97.5t98 283.5v789q0 16 11 27t27 11h176q16 0 27 -11t11 -27v-811q0 -143 -49 -253.5t-138.5 -180.5t-209.5 -105.5 t-267 -35.5z" />
<glyph unicode="V" horiz-adv-x="1608" d="M925 0h-266q-9 0 -20 7t-15 16l-573 1324q-8 20 2.5 36.5t32.5 16.5h197q10 0 20.5 -7t14.5 -17l474 -1140l474 1140q4 10 14.5 17t20.5 7h197q22 0 32.5 -16.5t2.5 -36.5l-573 -1324q-4 -9 -15 -16t-20 -7z" />
<glyph unicode="W" horiz-adv-x="2324" d="M1029 1400h252q12 0 23 -8t14 -19l299 -1097l383 1098q4 10 14.5 18t21.5 8h188q21 0 32 -15.5t4 -34.5l-470 -1324q-4 -10 -14.5 -18t-21.5 -8h-280q-11 0 -22.5 8.5t-14.5 19.5l-282 1062l-282 -1062q-3 -11 -14.5 -19.5t-22.5 -8.5h-280q-11 0 -21.5 8t-14.5 18 l-470 1324q-7 19 4 34.5t32 15.5h188q11 0 21.5 -8t14.5 -18l383 -1098l299 1097q3 11 14 19t23 8z" />
<glyph unicode="X" horiz-adv-x="1588" d="M763 889l422 490q17 21 54 21h181q26 0 37 -22t-6 -42l-537 -623l559 -649q17 -20 6 -42t-37 -22h-181q-37 0 -54 21l-444 516l-444 -516q-17 -21 -54 -21h-181q-26 0 -37 22t6 42l558 649l-536 623q-17 20 -6 42t37 22h181q37 0 54 -21z" />
<glyph unicode="Y" horiz-adv-x="1608" d="M862 0h-176q-16 0 -27 11t-11 27v516l-588 781q-15 20 -5 42.5t35 22.5h195q27 0 37 -15l452 -601l452 601q10 15 37 15h195q25 0 35 -22.5t-5 -42.5l-588 -781v-516q0 -16 -11 -27t-27 -11z" />
<glyph unicode="Z" horiz-adv-x="1316" d="M60 38v147q0 33 20 56l840 947h-786q-16 0 -27 11t-11 27v136q0 16 11 27t27 11h1060q16 0 27 -11t11 -27v-142q0 -38 -25 -66l-837 -942h848q15 0 26.5 -11t11.5 -27v-136q0 -16 -11.5 -27t-26.5 -11h-1120q-16 0 -27 11t-11 27z" />
<glyph unicode="[" horiz-adv-x="890" d="M240 -223v1686q0 15 11 26t26 11h536q15 0 26 -11t11 -26v-120q0 -16 -11 -26.5t-26 -10.5h-329v-1372h329q15 0 26 -11t11 -27v-119q0 -15 -11 -26t-26 -11h-536q-15 0 -26 11t-11 26z" />
<glyph unicode="\" horiz-adv-x="1242" d="M983 -200l-995 1668q-6 10 -1 19t19 9h203q21 0 34 -20l995 -1668q6 -10 1 -19t-19 -9h-203q-22 0 -34 20z" />
<glyph unicode="]" horiz-adv-x="890" d="M650 1463v-1686q0 -15 -11 -26t-26 -11h-536q-15 0 -26 11t-11 26v119q0 16 11 27t26 11h329v1372h-329q-15 0 -26 10.5t-11 26.5v120q0 15 11 26t26 11h536q15 0 26 -11t11 -26z" />
<glyph unicode="^" horiz-adv-x="1332" d="M545 1400h202q19 0 31 -17l396 -588q13 -20 3 -38.5t-33 -18.5h-161q-28 0 -41 21l-296 445l-296 -445q-13 -21 -41 -21h-161q-23 0 -33 18.5t3 38.5l396 588q12 17 31 17z" />
<glyph unicode="_" horiz-adv-x="1000" d="M0 -302v61q0 16 11 26.5t26 10.5h926q15 0 26 -10.5t11 -26.5v-61q0 -16 -11 -27t-26 -11h-926q-15 0 -26 11t-11 27z" />
<glyph unicode="`" horiz-adv-x="1008" d="M505 1438l225 -258q23 -24 15 -42t-45 -18h-130q-26 0 -54 24l-289 251q-23 19 -15 42t40 23h213q20 0 40 -22z" />
<glyph unicode="a" horiz-adv-x="1258" d="M1128 670v-633q0 -15 -11 -26t-26 -11h-170q-15 0 -26 11t-11 26v51q-127 -112 -354 -112q-200 0 -330 87.5t-130 248.5q0 164 135.5 258t384.5 94h294v50q0 88 -61.5 119t-218.5 31q-190 0 -362 -62q-18 -7 -33 2.5t-17 28.5l-15 116q-2 11 5.5 23.5t18.5 16.5 q188 71 415 71q270 0 391 -88.5t121 -301.5zM568 172q214 0 316 102v198h-284q-153 0 -218.5 -38.5t-65.5 -117.5q0 -144 252 -144z" />
<glyph unicode="b" horiz-adv-x="1352" d="M384 760v-484q50 -47 124.5 -75.5t159.5 -28.5q161 0 253.5 87.5t92.5 258.5t-92.5 258.5t-253.5 87.5q-85 0 -159.5 -28.5t-124.5 -75.5zM384 86v-49q0 -15 -11 -26t-26 -11h-170q-15 0 -26 11t-11 26v1386q0 15 11 26t26 11h170q15 0 26 -11t11 -26v-473 q138 110 340 110q242 0 390 -148t148 -394t-148 -394t-390 -148q-211 0 -340 110z" />
<glyph unicode="c" horiz-adv-x="1166" d="M768 172q145 0 262 40q18 6 32.5 -3t16.5 -28l14 -115q2 -12 -5.5 -24t-19.5 -16q-147 -50 -316 -50q-311 0 -491.5 146t-180.5 396q0 247 176 394.5t470 147.5q183 0 330 -50q12 -4 19.5 -16t5.5 -24l-14 -115q-2 -19 -16.5 -28t-32.5 -3q-117 40 -278 40 q-187 0 -299.5 -90.5t-112.5 -255.5q0 -166 116 -256t324 -90z" />
<glyph unicode="d" d="M958 276v484q-50 47 -124.5 75.5t-159.5 28.5q-161 0 -253.5 -87.5t-92.5 -258.5t92.5 -258.5t253.5 -87.5q85 0 159.5 28.5t124.5 75.5zM958 37v49q-129 -110 -340 -110q-242 0 -390 148t-148 394t148 394t390 148q203 0 340 -110v473q0 15 11 26t26 11h170q15 0 26 -11 t11 -26v-1386q0 -15 -11 -26t-26 -11h-170q-15 0 -26 11t-11 26z" />
<glyph unicode="e" horiz-adv-x="1270" d="M1199 459q-1 -14 -12 -24.5t-25 -10.5h-828q14 -125 109.5 -188.5t282.5 -63.5q182 0 307 51q18 7 33.5 -1.5t17.5 -27.5l15 -118q1 -12 -6 -23.5t-18 -16.5q-154 -60 -361 -60q-310 0 -472 147t-162 397q0 240 151 390t407 150q135 0 242.5 -41.5t177 -115.5t106 -173.5 t36.5 -217.5q0 -38 -1 -53zM334 616h612q-28 248 -308 248q-279 0 -304 -248z" />
<glyph unicode="f" horiz-adv-x="828" d="M20 882v117q0 15 10.5 26t26.5 11h189v58q0 179 108.5 272.5t310.5 93.5q78 0 151 -14q15 -3 24.5 -13.5t7.5 -24.5l-17 -125q-2 -15 -13.5 -22.5t-26.5 -5.5q-47 9 -92 9q-108 0 -158.5 -42t-50.5 -153v-33h289q16 0 26.5 -11t10.5 -26v-117q0 -16 -10.5 -27t-26.5 -11 h-289v-807q0 -15 -11 -26t-26 -11h-170q-15 0 -26 11t-11 26v807h-189q-16 0 -26.5 11t-10.5 27z" />
<glyph unicode="g" d="M958 296v464q-50 47 -124.5 75.5t-159.5 28.5q-160 0 -253 -86t-93 -250t93 -250t253 -86q85 0 159.5 28.5t124.5 75.5zM236 -336q-11 5 -18 16t-6 22l10 124q2 20 17.5 29.5t34.5 1.5q148 -65 348 -65q166 0 251 57t85 189v68q-129 -110 -340 -110q-242 0 -390 146 t-148 386t148 386t390 146q203 0 340 -110v49q0 15 11 26t26 11h170q15 0 26 -11t11 -26v-905q0 -261 -139.5 -377.5t-444.5 -116.5q-221 0 -382 64z" />
<glyph unicode="h" d="M1212 584v-547q0 -15 -10.5 -26t-26.5 -11h-170q-15 0 -26 11t-11 26v541q0 149 -70.5 217.5t-217.5 68.5q-89 0 -168.5 -28t-127.5 -76v-723q0 -15 -11 -26t-26 -11h-170q-15 0 -26 11t-11 26v1386q0 15 11 26t26 11h170q15 0 26 -11t11 -26v-473q125 110 338 110 q227 0 358.5 -122.5t131.5 -353.5z" />
<glyph unicode="i" horiz-adv-x="544" d="M150 37v962q0 15 11 26t26 11h169q16 0 27 -11t11 -26v-962q0 -15 -11 -26t-27 -11h-169q-15 0 -26 11t-11 26zM126 1324q0 136 146 136t146 -136t-146 -136t-146 136z" />
<glyph unicode="j" horiz-adv-x="600" d="M214 -25v1024q0 15 11 26t26 11h169q16 0 27 -11t11 -26v-1024q0 -375 -414 -375q-63 0 -131 13q-14 3 -23 14.5t-8 25.5l13 118q2 17 15 26.5t30 6.5q37 -8 88 -8q186 0 186 179zM190 1324q0 136 146 136t146 -136t-146 -136t-146 136z" />
<glyph unicode="k" horiz-adv-x="1226" d="M895 1036h228q14 0 18 -12t-10 -26l-477 -422l525 -538q13 -11 8.5 -24.5t-22.5 -13.5h-229q-34 0 -70 32l-482 506v-501q0 -15 -11 -26t-26 -11h-170q-15 0 -26 11t-11 26v1386q0 15 11 26t26 11h170q15 0 26 -11t11 -26v-807l436 388q43 32 75 32z" />
<glyph unicode="l" horiz-adv-x="544" d="M150 37v1386q0 15 11 26t26 11h169q16 0 27 -11t11 -26v-1386q0 -15 -11 -26t-27 -11h-169q-15 0 -26 11t-11 26z" />
<glyph unicode="m" horiz-adv-x="2054" d="M384 999v-49q54 50 138 80t180 30q234 0 356 -146q79 68 185 107t219 39q214 0 338 -116t124 -334v-573q0 -15 -10.5 -26t-26.5 -11h-172q-15 0 -26 11t-11 26v581q0 123 -63 184.5t-181 61.5q-79 0 -157.5 -29t-138.5 -83q16 -70 16 -142v-573q0 -15 -10.5 -26 t-26.5 -11h-172q-15 0 -26 11t-11 26v581q0 246 -244 246q-85 0 -159.5 -30t-120.5 -74v-723q0 -15 -11 -26t-26 -11h-170q-16 0 -26.5 11t-10.5 26v962q0 15 10.5 26t26.5 11h170q15 0 26 -11t11 -26z" />
<glyph unicode="n" d="M177 1036h170q15 0 26 -11t11 -26v-49q125 110 338 110q227 0 358.5 -122.5t131.5 -353.5v-547q0 -15 -10.5 -26t-26.5 -11h-170q-15 0 -26 11t-11 26v541q0 149 -70.5 217.5t-217.5 68.5q-89 0 -168.5 -28t-127.5 -76v-723q0 -15 -11 -26t-26 -11h-170q-15 0 -26 11 t-11 26v962q0 15 11 26t26 11z" />
<glyph unicode="o" horiz-adv-x="1356" d="M80 518q0 236 164 389t434 153t434 -153t164 -389t-164 -389t-434 -153t-434 153t-164 389zM328 518q0 -162 92.5 -254t257.5 -92t257.5 92t92.5 254t-92.5 254t-257.5 92t-257.5 -92t-92.5 -254z" />
<glyph unicode="p" d="M384 760v-484q50 -47 124.5 -75.5t159.5 -28.5q161 0 253.5 87.5t92.5 258.5t-92.5 258.5t-253.5 87.5q-85 0 -159.5 -28.5t-124.5 -75.5zM384 999v-49q129 110 340 110q242 0 390 -148t148 -394t-148 -394t-390 -148q-202 0 -340 110v-435q0 -15 -11 -26t-26 -11h-170 q-15 0 -26 11t-11 26v1348q0 15 11 26t26 11h170q15 0 26 -11t11 -26z" />
<glyph unicode="q" d="M958 276v484q-50 47 -124.5 75.5t-159.5 28.5q-161 0 -253.5 -87.5t-92.5 -258.5t92.5 -258.5t253.5 -87.5q85 0 159.5 28.5t124.5 75.5zM958 950v49q0 15 11 26t26 11h170q15 0 26 -11t11 -26v-1348q0 -15 -11 -26t-26 -11h-170q-15 0 -26 11t-11 26v435 q-137 -110 -340 -110q-242 0 -390 148t-148 394t148 394t390 148q211 0 340 -110z" />
<glyph unicode="r" horiz-adv-x="870" d="M384 700v-663q0 -15 -11 -26t-27 -11h-169q-15 0 -26 11t-11 26v962q0 15 11 26t26 11h169q16 0 27 -11t11 -26v-75q51 64 130.5 100t179.5 36q71 0 133 -14q14 -3 22 -15t7 -26l-15 -124q-2 -18 -16 -27t-31 -4q-53 14 -118 14q-106 0 -181 -44.5t-111 -119.5z" />
<glyph unicode="s" horiz-adv-x="1072" d="M113 49q-9 5 -16 15.5t-6 20.5l10 128q2 22 18 32t35 0q146 -73 343 -73q122 0 179 26.5t57 89.5q0 54 -54 87t-204 65q-193 42 -285.5 121.5t-92.5 200.5q0 144 110.5 221t359.5 77q186 0 347 -50q12 -4 19.5 -15.5t6.5 -24.5l-13 -120q-2 -18 -16.5 -27.5t-31.5 -4.5 q-127 46 -294 46q-240 0 -240 -90q0 -50 52 -85t188 -67q220 -52 308 -128.5t88 -193.5q0 -324 -484 -324q-216 0 -384 73z" />
<glyph unicode="t" horiz-adv-x="898" d="M30 882v117q0 15 11 26t26 11h169v273q0 15 11 26t26 11h170q15 0 26 -11t11 -26v-273h331q15 0 26 -11t11 -26v-117q0 -16 -11 -27t-26 -11h-331v-435q0 -76 11.5 -123t38 -72t60.5 -33.5t89 -8.5q51 0 96 9q16 3 29 -5.5t15 -24.5l18 -122q2 -15 -7 -26.5t-24 -14.5 q-67 -12 -144 -12q-426 0 -426 361v507h-169q-15 0 -26 11t-11 27z" />
<glyph unicode="u" d="M665 172q86 0 164.5 27.5t128.5 76.5v723q0 15 11 26t26 11h170q15 0 26 -11t11 -26v-962q0 -15 -11 -26t-26 -11h-170q-15 0 -26 11t-11 26v49q-60 -56 -150.5 -83t-184.5 -27q-228 0 -360.5 122.5t-132.5 352.5v548q0 15 10.5 26t26.5 11h170q15 0 26 -11t11 -26v-536 q0 -152 71 -221.5t220 -69.5z" />
<glyph unicode="v" horiz-adv-x="1224" d="M732 0h-262q-10 0 -20 7t-14 16l-396 962q-7 19 5.5 35t33.5 16h178q10 0 20 -7t14 -16l310 -779l310 779q4 9 14 16t20 7h178q21 0 33.5 -16t5.5 -35l-396 -962q-4 -9 -14 -16t-20 -7z" />
<glyph unicode="w" horiz-adv-x="1828" d="M793 1036h226q11 0 21.5 -8.5t13.5 -18.5l216 -751l245 752q3 10 14 18t21 8h183q21 0 33.5 -15.5t5.5 -34.5l-345 -962q-4 -10 -14.5 -17t-20.5 -7h-236q-11 0 -22 8t-14 19l-214 751l-214 -751q-3 -11 -14 -19t-22 -8h-236q-10 0 -20.5 7t-14.5 17l-345 962 q-7 19 5.5 34.5t33.5 15.5h183q10 0 21 -8t14 -18l245 -752l216 751q3 10 13.5 18.5t21.5 8.5z" />
<glyph unicode="x" horiz-adv-x="1224" d="M576 697l277 326q11 13 32 13h176q25 0 35.5 -24.5t-6.5 -43.5l-372 -438l392 -462q17 -19 6.5 -43.5t-35.5 -24.5h-176q-21 0 -32 13l-297 350l-297 -350q-11 -13 -32 -13h-176q-25 0 -35.5 24.5t6.5 43.5l392 462l-372 438q-17 19 -6.5 43.5t35.5 24.5h176q21 0 32 -13 z" />
<glyph unicode="y" horiz-adv-x="1296" d="M636 275l340 740q4 8 14.5 14.5t19.5 6.5h186q21 0 31.5 -17t1.5 -36l-619 -1348q-4 -8 -14 -14.5t-19 -6.5h-186q-22 0 -32.5 16.5t-1.5 36.5l153 333l-467 983q-10 19 0.5 36t32.5 17h187q9 0 19 -6.5t14 -14.5z" />
<glyph unicode="z" horiz-adv-x="1098" d="M65 213l649 631h-595q-16 0 -26.5 11t-10.5 27v117q0 15 10.5 26t26.5 11h868q15 0 26 -11t11 -26v-142q0 -19 -15 -34l-649 -631h651q16 0 26.5 -11t10.5 -27v-117q0 -15 -10.5 -26t-26.5 -11h-924q-15 0 -26 11t-11 26v142q0 19 15 34z" />
<glyph unicode="{" horiz-adv-x="886" d="M160 560v120q0 11 8.5 22t19.5 14q60 14 102 65t42 130v338q0 123 79 187t210 64h188q15 0 26 -11t11 -26v-120q0 -16 -11 -26.5t-26 -10.5h-156q-40 0 -58.5 -19.5t-18.5 -62.5v-361q0 -98 -42.5 -157.5t-141.5 -85.5q99 -26 141.5 -85.5t42.5 -157.5v-361 q0 -43 18.5 -62.5t58.5 -19.5h156q15 0 26 -10.5t11 -26.5v-120q0 -15 -11 -26t-26 -11h-188q-131 0 -210 64t-79 187v338q0 79 -42 130t-102 65q-11 3 -19.5 14t-8.5 22z" />
<glyph unicode="|" horiz-adv-x="636" d="M212 -363v1864q0 15 11 26t26 11h138q15 0 26 -11t11 -26v-1864q0 -15 -11 -26t-26 -11h-138q-15 0 -26 11t-11 26z" />
<glyph unicode="}" horiz-adv-x="886" d="M726 680v-120q0 -11 -8.5 -22t-19.5 -14q-60 -14 -102 -65t-42 -130v-338q0 -123 -79 -187t-210 -64h-188q-15 0 -26 11t-11 26v120q0 16 11 26.5t26 10.5h156q40 0 58.5 19.5t18.5 62.5v361q0 98 42.5 157.5t141.5 85.5q-99 26 -141.5 85.5t-42.5 157.5v361 q0 43 -18.5 62.5t-58.5 19.5h-156q-15 0 -26 10.5t-11 26.5v120q0 15 11 26t26 11h188q131 0 210 -64t79 -187v-338q0 -79 42 -130t102 -65q11 -3 19.5 -14t8.5 -22z" />
<glyph unicode="~" horiz-adv-x="1332" d="M641 566q-118 86 -190 86q-88 0 -101 -129q-1 -13 -12 -23t-25 -10h-155q-16 0 -27 11.5t-9 28.5q12 158 97.5 236t223.5 78q142 0 250 -80q118 -86 190 -86q88 0 101 129q1 13 12 23t25 10h155q16 0 27 -11.5t9 -28.5q-12 -158 -97.5 -236t-223.5 -78q-142 0 -250 80z " />
<glyph unicode="&#xa1;" horiz-adv-x="648" d="M190 20l55 619q2 14 12.5 23.5t24.5 9.5h84q13 0 24 -10t13 -24l55 -618v-347q0 -15 -11 -26t-26 -11h-194q-15 0 -26 11t-11 26v347zM170 918q0 142 154 142t154 -142t-154 -142t-154 142z" />
<glyph unicode="&#xa2;" horiz-adv-x="1166" d="M806 -23v-144q0 -15 -10.5 -26t-26.5 -11h-78q-16 0 -26.5 11t-10.5 26v147q-268 22 -421 165.5t-153 372.5q0 231 155 376t419 163v146q0 15 10.5 26t26.5 11h78q16 0 26.5 -11t10.5 -26v-146q136 -9 250 -47q12 -4 19.5 -16t5.5 -24l-14 -115q-2 -19 -16.5 -28 t-32.5 -3q-89 30 -212 38v-690q122 4 224 40q18 6 32.5 -3t16.5 -28l14 -115q2 -12 -5.5 -24t-19.5 -16q-122 -42 -262 -49zM328 518q0 -142 85 -228.5t241 -109.5v678q-151 -20 -238.5 -108t-87.5 -232z" />
<glyph unicode="&#xa3;" horiz-adv-x="1370" d="M80 683v70q0 15 10.5 26t26.5 11h147v223q0 206 137 308.5t395 102.5q222 0 384 -70q24 -10 22 -36l-10 -139q-1 -20 -17 -29t-34 -1q-133 59 -325 59q-162 0 -231 -45.5t-69 -155.5v-217h439q15 0 26 -11t11 -26v-70q0 -15 -11 -26t-26 -11h-439v-140q0 -193 -119 -294 h875q16 0 27 -11t11 -26v-138q0 -15 -11 -26t-27 -11h-1155q-16 0 -26.5 11t-10.5 26v130q0 20 15 31q87 60 128 123t41 151v174h-147q-16 0 -26.5 11t-10.5 26z" />
<glyph unicode="&#xa4;" horiz-adv-x="1456" d="M447 665q0 -114 74.5 -193.5t193.5 -79.5t193.5 79.5t74.5 193.5t-74.5 193.5t-193.5 79.5t-193.5 -79.5t-74.5 -193.5zM1216 665q0 -135 -74 -255l113 -113q11 -11 11 -26t-10 -26l-104 -108q-11 -12 -26.5 -12t-26.5 11l-114 114q-128 -76 -270 -76t-270 76l-114 -114 q-11 -11 -26.5 -11t-26.5 12l-104 108q-10 11 -10 26t11 26l113 113q-74 120 -74 255t74 255l-113 113q-11 11 -11 26t10 26l104 108q11 12 26.5 12t26.5 -11l114 -114q128 76 270 76t270 -76l114 114q11 11 26.5 11t26.5 -12l104 -108q10 -11 10 -26t-11 -26l-113 -113 q74 -120 74 -255z" />
<glyph unicode="&#xa5;" horiz-adv-x="1488" d="M812 0h-180q-16 0 -26.5 11t-10.5 26v255h-434q-16 0 -27 11t-11 26v69q0 16 11 27t27 11h434v104h-434q-16 0 -27 11t-11 26v70q0 16 11 26.5t27 10.5h344l-447 656q-13 20 -1.5 40t35.5 20h197q28 0 42 -20l391 -592l391 592q14 20 42 20h197q24 0 35.5 -20t-1.5 -40 l-447 -656h344q16 0 27 -10.5t11 -26.5v-70q0 -15 -11 -26t-27 -11h-434v-104h434q16 0 27 -11t11 -27v-69q0 -15 -11 -26t-27 -11h-434v-255q0 -15 -10.5 -26t-26.5 -11z" />
<glyph unicode="&#xa6;" horiz-adv-x="636" d="M249 1376h138q15 0 26 -11t11 -27v-575q0 -16 -11 -26.5t-26 -10.5h-138q-15 0 -26 10.5t-11 26.5v575q0 16 11 27t26 11zM249 450h138q15 0 26 -11t11 -27v-575q0 -16 -11 -26.5t-26 -10.5h-138q-15 0 -26 10.5t-11 26.5v575q0 16 11 27t26 11z" />
<glyph unicode="&#xa7;" horiz-adv-x="1196" d="M616 792q-102 -15 -161 -60.5t-59 -109.5q0 -53 49.5 -92.5t142.5 -57.5q102 15 161 60.5t59 109.5q0 53 -49.5 92.5t-142.5 57.5zM560 -12q250 0 250 132q0 55 -55.5 93t-192.5 67q-200 43 -306 126t-106 204q0 93 58.5 163t157.5 99q-107 34 -164.5 100t-57.5 152 q0 142 120 221t356 79q188 0 346 -60q11 -5 18 -16.5t6 -22.5l-13 -112q-2 -20 -17.5 -29t-33.5 -2q-125 54 -308 54q-226 0 -226 -112q0 -45 66.5 -81t203.5 -73q392 -107 392 -334q0 -88 -51.5 -154t-150.5 -100q98 -29 151 -98t53 -156q0 -155 -123.5 -241.5 t-372.5 -86.5q-98 0 -206 20.5t-188 55.5q-11 5 -18 16.5t-6 22.5l12 124q2 20 17.5 30t33.5 1q66 -37 163 -59.5t192 -22.5z" />
<glyph unicode="&#xa8;" horiz-adv-x="1008" d="M262 1164q-136 0 -136 126t136 126t136 -126t-136 -126zM746 1164q-136 0 -136 126t136 126t136 -126t-136 -126z" />
<glyph unicode="&#xa9;" horiz-adv-x="1660" d="M1067 463q-87 -45 -193 -45q-126 0 -195 73t-69 205t69 205t195 73q112 0 192 -46q18 -9 29 2.5t13 33.5l9 86q3 26 -21 36q-106 44 -238 44q-190 0 -313 -119.5t-123 -314.5t123 -314.5t313 -119.5q129 0 239 43q24 10 21 36l-9 86q-2 23 -13 34t-29 2zM106 700 q0 197 97 363.5t263.5 263.5t363.5 97t363.5 -97t263.5 -263.5t97 -363.5t-97 -363.5t-263.5 -263.5t-363.5 -97t-363.5 97t-263.5 263.5t-97 363.5zM218 700q0 -127 48.5 -242.5t130.5 -198t195 -131t238 -48.5t238 48.5t195 131t130.5 198t48.5 242.5q0 168 -82 311 t-223 226t-307 83t-307 -83t-223 -226t-82 -311z" />
<glyph unicode="&#xaa;" horiz-adv-x="1032" d="M472 788q129 0 208 58v132h-160q-106 0 -155 -25t-49 -75q0 -49 39.5 -69.5t116.5 -20.5zM207 1371q131 45 301 45q191 0 285.5 -73.5t94.5 -238.5v-428q0 -16 -10 -27t-26 -11h-135q-15 0 -26 11t-11 27v12q-88 -64 -254 -64q-136 0 -229 63.5t-93 182.5q0 268 408 268 h168q0 67 -40.5 90.5t-153.5 23.5q-126 0 -246 -38q-17 -6 -31.5 3t-16.5 27l-10 87q-3 29 25 40z" />
<glyph unicode="&#xab;" horiz-adv-x="1080" d="M140 594v60q0 17 12 27l377 348q13 12 25.5 15t21 -4t8.5 -24v-144q0 -19 -12 -31l-238 -217l238 -217q12 -12 12 -31v-144q0 -17 -8.5 -24t-21 -4t-25.5 15l-377 348q-12 10 -12 27zM516 594v60q0 17 12 27l377 348q13 12 25.5 15t21 -4t8.5 -24v-144q0 -19 -12 -31 l-238 -217l238 -217q12 -12 12 -31v-144q0 -17 -8.5 -24t-21 -4t-25.5 15l-377 348q-12 10 -12 27z" />
<glyph unicode="&#xac;" horiz-adv-x="1332" d="M130 737v130q0 16 11 26.5t26 10.5h1017q16 0 27 -10.5t11 -26.5v-512q0 -15 -11 -26t-27 -11h-165q-16 0 -26.5 11t-10.5 26v345h-815q-15 0 -26 10.5t-11 26.5z" />
<glyph unicode="&#xad;" horiz-adv-x="852" d="M695 552h-538q-15 0 -26 11t-11 26v150q0 16 11 26.5t26 10.5h538q15 0 26 -10.5t11 -26.5v-150q0 -15 -11 -26t-26 -11z" />
<glyph unicode="&#xae;" horiz-adv-x="1660" d="M106 700q0 197 97 363.5t263.5 263.5t363.5 97t363.5 -97t263.5 -263.5t97 -363.5t-97 -363.5t-263.5 -263.5t-363.5 -97t-363.5 97t-263.5 263.5t-97 363.5zM218 700q0 -127 48.5 -242.5t130.5 -198t195 -131t238 -48.5t238 48.5t195 131t130.5 198t48.5 242.5 q0 168 -82 311t-223 226t-307 83t-307 -83t-223 -226t-82 -311zM996 638l176 -298q12 -20 1.5 -39t-33.5 -19h-114q-20 0 -33 19l-179 309h-94v-291q0 -15 -11 -26t-26 -11h-114q-15 0 -26 11t-11 26v760q0 15 11 26t26 11h257q152 0 240 -66t88 -186q0 -81 -41.5 -139 t-116.5 -87zM966 864q0 50 -33.5 75t-114.5 25h-98v-200h98q80 0 114 25.5t34 74.5z" />
<glyph unicode="&#xaf;" horiz-adv-x="1008" d="M158 1235v112q0 15 11 26t26 11h617q16 0 27 -11t11 -26v-112q0 -15 -11 -26t-27 -11h-617q-15 0 -26 11t-11 26z" />
<glyph unicode="&#xb0;" horiz-adv-x="1008" d="M188 1122q0 128 91.5 215t224.5 87q131 0 223.5 -87.5t92.5 -214.5q0 -128 -92.5 -216t-223.5 -88q-134 0 -225 87.5t-91 216.5zM376 1122q0 -62 35.5 -98t92.5 -36t92.5 36t35.5 98q0 60 -36 96t-92 36t-92 -36t-36 -96z" />
<glyph unicode="&#xb1;" horiz-adv-x="1332" d="M546 355v335h-389q-15 0 -26 11t-11 27v128q0 15 11 26t26 11h389v337q0 15 11 26t26 11h166q15 0 26 -11t11 -26v-337h389q15 0 26 -11t11 -26v-128q0 -16 -11 -27t-26 -11h-389v-335q0 -15 -11 -26t-26 -11h-166q-15 0 -26 11t-11 26zM1175 48h-1018q-15 0 -26 11 t-11 26v130q0 15 11 26t26 11h1018q15 0 26 -11t11 -26v-130q0 -15 -11 -26t-26 -11z" />
<glyph unicode="&#xb2;" horiz-adv-x="920" d="M100 637q193 134 330 265q79 75 112.5 124.5t33.5 103.5q0 58 -44 82t-132 24q-118 0 -220 -39q-19 -7 -33.5 2.5t-16.5 29.5l-8 101q-1 11 6.5 22t17.5 15q130 49 278 49q175 0 269.5 -69.5t94.5 -202.5q0 -91 -41 -166t-143 -170q-90 -82 -206 -166h361q15 0 26 -11 t11 -27v-97q0 -16 -11 -26.5t-26 -10.5h-638q-15 0 -26 10.5t-11 26.5v99q0 21 16 31z" />
<glyph unicode="&#xb3;" horiz-adv-x="920" d="M115 492q-12 4 -18.5 16t-5.5 25l10 109q1 18 17.5 26.5t35.5 2.5q80 -37 226 -37q202 0 202 102q0 66 -79.5 97t-244.5 33q-15 1 -25.5 11.5t-10.5 25.5v102q0 15 10.5 26t25.5 11q310 4 310 114q0 41 -42.5 60.5t-135.5 19.5q-119 0 -217 -33q-18 -6 -34 2.5t-18 26.5 l-11 101q-2 12 4.5 24.5t18.5 16.5q123 42 277 42q176 0 273 -63.5t97 -184.5q0 -69 -42.5 -126t-123.5 -84q84 -25 132 -85t48 -137q0 -137 -105.5 -209.5t-300.5 -72.5q-144 0 -273 38z" />
<glyph unicode="&#xb4;" horiz-adv-x="1008" d="M272 1180l225 258q20 22 41 22h207q32 0 40.5 -25t-14.5 -44l-286 -247q-28 -24 -54 -24h-129q-37 0 -44.5 17.5t14.5 42.5z" />
<glyph unicode="&#xb5;" horiz-adv-x="1352" d="M968 37v47q-50 -51 -126 -79.5t-166 -28.5t-166 28.5t-126 79.5v-433q0 -15 -11 -26t-26 -11h-170q-15 0 -26 11t-11 26v1348q0 15 11 26t26 11h170q15 0 26 -11t11 -26v-723q50 -50 126 -77t166 -27t166 27t126 77v723q0 15 11 26t26 11h170q16 0 26.5 -11t10.5 -26 v-962q0 -15 -10.5 -26t-26.5 -11h-170q-15 0 -26 11t-11 26z" />
<glyph unicode="&#xb6;" horiz-adv-x="1160" d="M524 532h-8q-201 0 -328.5 115.5t-127.5 318.5q0 202 127.5 318t328.5 116h447q15 0 26 -11t11 -26v-1588q0 -15 -11 -26t-26 -11h-122q-16 0 -26.5 11t-10.5 26v1435h-76v-1435q0 -15 -11 -26t-26 -11h-129q-16 0 -27 11t-11 26v757z" />
<glyph unicode="&#xb7;" horiz-adv-x="672" d="M182 664q0 142 154 142t154 -142t-154 -142t-154 142z" />
<glyph unicode="&#xb8;" horiz-adv-x="1008" d="M274 -432v67q0 17 9.5 27t26.5 9q47 -5 96 -5q126 0 126 65q0 74 -179 82q-23 1 -32 17.5t3 36.5l72 116q4 5 14 11t17 6h150q24 0 30 -13t-8 -33l-47 -70q81 -11 131.5 -55t50.5 -116q0 -189 -323 -189q-59 0 -106 6q-13 2 -22 13.5t-9 24.5z" />
<glyph unicode="&#xb9;" horiz-adv-x="920" d="M405 1161l-158 -98q-13 -7 -25.5 -4t-20.5 15l-63 99q-9 13 -6 28.5t17 23.5l269 164q22 13 46 13h112q16 0 26.5 -11t10.5 -27v-857q0 -16 -10.5 -26.5t-26.5 -10.5h-134q-15 0 -26 10.5t-11 26.5v654z" />
<glyph unicode="&#xba;" horiz-adv-x="1032" d="M80 1020q0 178 122.5 287t313.5 109t313.5 -109t122.5 -287t-122.5 -287t-313.5 -109t-313.5 109t-122.5 287zM288 1020q0 -108 63 -170t165 -62t165 62t63 170t-63 170t-165 62q-103 0 -165.5 -61t-62.5 -171z" />
<glyph unicode="&#xbb;" horiz-adv-x="1080" d="M940 654v-60q0 -17 -12 -27l-377 -348q-13 -12 -25.5 -15t-21 4t-8.5 24v144q0 19 12 31l238 217l-238 217q-12 12 -12 31v144q0 17 8.5 24t21 4t25.5 -15l377 -348q12 -10 12 -27zM564 654v-60q0 -17 -12 -27l-377 -348q-13 -12 -25.5 -15t-21 4t-8.5 24v144q0 19 12 31 l238 217l-238 217q-12 12 -12 31v144q0 17 8.5 24t21 4t25.5 -15l377 -348q12 -10 12 -27z" />
<glyph unicode="&#xbc;" horiz-adv-x="2260" d="M1655 1402l-915 -1412q-10 -20 -34 -20h-145q-15 0 -19.5 8t1.5 20l915 1412q10 20 34 20h145q15 0 20 -9t-2 -19zM396 1161l-158 -98q-13 -7 -25.5 -4t-20.5 15l-63 99q-9 13 -6 28.5t17 23.5l269 164q22 13 46 13h112q16 0 26.5 -11t10.5 -27v-857q0 -16 -10.5 -26.5 t-26.5 -10.5h-134q-15 0 -26 10.5t-11 26.5v654zM1305 225v108q0 16 18 38l473 546q13 13 28 13h146q15 0 26 -11t11 -27v-532h91q16 0 26.5 -11t10.5 -26v-98q0 -16 -10.5 -26.5t-26.5 -10.5h-91v-150q0 -16 -11 -27t-26 -11h-134q-15 0 -26 11t-11 27v150h-457 q-15 0 -26 10.5t-11 26.5zM1799 670l-265 -310h265v310z" />
<glyph unicode="&#xbd;" horiz-adv-x="2260" d="M1553 1402l-915 -1412q-10 -20 -34 -20h-145q-15 0 -19.5 8t1.5 20l915 1412q10 20 34 20h145q15 0 20 -9t-2 -19zM396 1161l-158 -98q-13 -7 -25.5 -4t-20.5 15l-63 99q-9 13 -6 28.5t17 23.5l269 164q22 13 46 13h112q16 0 26.5 -11t10.5 -27v-857q0 -16 -10.5 -26.5 t-26.5 -10.5h-134q-15 0 -26 10.5t-11 26.5v654zM1361 167q193 134 330 265q79 75 112.5 124.5t33.5 103.5q0 58 -44 82t-132 24q-118 0 -220 -39q-19 -7 -33.5 2.5t-16.5 29.5l-8 101q-1 11 6.5 22t17.5 15q130 49 278 49q175 0 269.5 -69.5t94.5 -202.5q0 -91 -41 -166 t-143 -170q-90 -82 -206 -166h361q15 0 26 -11t11 -27v-97q0 -16 -11 -26.5t-26 -10.5h-638q-15 0 -26 10.5t-11 26.5v99q0 21 16 31z" />
<glyph unicode="&#xbe;" horiz-adv-x="2260" d="M1690 1402l-915 -1412q-10 -20 -34 -20h-145q-15 0 -19.5 8t1.5 20l915 1412q10 20 34 20h145q14 0 19 -9t-1 -19zM1312 225v108q0 16 18 38l473 546q13 13 28 13h146q15 0 26 -11t11 -27v-532h91q16 0 26.5 -11t10.5 -26v-98q0 -16 -10.5 -26.5t-26.5 -10.5h-91v-150 q0 -16 -11 -27t-26 -11h-134q-15 0 -26 11t-11 27v150h-457q-15 0 -26 10.5t-11 26.5zM1806 670l-265 -310h265v310zM113 492q-12 4 -18.5 16t-5.5 25l10 109q1 18 17.5 26.5t35.5 2.5q80 -37 226 -37q202 0 202 102q0 66 -79.5 97t-244.5 33q-15 1 -25.5 11.5t-10.5 25.5 v102q0 15 10.5 26t25.5 11q310 4 310 114q0 41 -42.5 60.5t-135.5 19.5q-119 0 -217 -33q-18 -6 -34 2.5t-18 26.5l-11 101q-2 12 4.5 24.5t18.5 16.5q123 42 277 42q176 0 273 -63.5t97 -184.5q0 -69 -42.5 -126t-123.5 -84q84 -25 132 -85t48 -137q0 -137 -105.5 -209.5 t-300.5 -72.5q-144 0 -273 38z" />
<glyph unicode="&#xbf;" horiz-adv-x="1226" d="M1059 -105q19 8 34.5 -1.5t17.5 -29.5l13 -140q3 -26 -22 -38q-171 -74 -402 -74q-280 0 -420 90.5t-140 261.5q0 217 276 390q82 52 121 115.5t39 150.5v15q0 16 11 26.5t26 10.5h178q16 0 26.5 -10.5t10.5 -26.5v-19q0 -138 -54 -235t-176 -171q-118 -71 -160 -122.5 t-42 -121.5q0 -138 318 -138q189 0 345 67zM856 918q0 -142 -154 -142t-154 142t154 142t154 -142z" />
<glyph unicode="&#xc0;" horiz-adv-x="1548" d="M416 334h692l128 -310q4 -10 14.5 -17t20.5 -7h196q22 0 33 16.5t2 36.5l-590 1324q-4 9 -14.5 16t-19.5 7h-232q-9 0 -19.5 -7t-14.5 -16l-590 -1324q-9 -20 2 -36.5t33 -16.5h196q10 0 20.5 7t14.5 17zM1020 546h-516l258 617zM699 1826l225 -258q23 -24 15 -42 t-45 -18h-130q-26 0 -54 24l-289 251q-23 19 -15 42t40 23h213q20 0 40 -22z" />
<glyph unicode="&#xc1;" horiz-adv-x="1548" d="M1108 334h-692l-128 -310q-4 -10 -14.5 -17t-20.5 -7h-196q-22 0 -33 16.5t-2 36.5l590 1324q4 9 14.5 16t19.5 7h232q9 0 19.5 -7t14.5 -16l590 -1324q9 -20 -2 -36.5t-33 -16.5h-196q-10 0 -20.5 7t-14.5 17zM504 546h516l-258 617zM618 1568l225 258q20 22 41 22h207 q32 0 40.5 -25t-14.5 -44l-286 -247q-28 -24 -54 -24h-129q-37 0 -44.5 17.5t14.5 42.5z" />
<glyph unicode="&#xc2;" horiz-adv-x="1548" d="M1108 334h-692l-128 -310q-4 -10 -14.5 -17t-20.5 -7h-196q-22 0 -33 16.5t-2 36.5l590 1324q4 9 14.5 16t19.5 7h232q9 0 19.5 -7t14.5 -16l590 -1324q9 -20 -2 -36.5t-33 -16.5h-196q-10 0 -20.5 7t-14.5 17zM504 546h516l-258 617zM653 1848h192q20 0 32 -14l238 -271 q17 -19 10 -37t-32 -18h-154q-16 0 -27 11l-163 167l-163 -167q-11 -11 -27 -11h-154q-25 0 -32 18t10 37l238 271q12 14 32 14z" />
<glyph unicode="&#xc3;" horiz-adv-x="1548" d="M416 334h692l128 -310q4 -10 14.5 -17t20.5 -7h196q22 0 33 16.5t2 36.5l-590 1324q-4 9 -14.5 16t-19.5 7h-232q-9 0 -19.5 -7t-14.5 -16l-590 -1324q-9 -20 2 -36.5t33 -16.5h196q10 0 20.5 7t14.5 17zM1020 546h-516l258 617zM774 1586q-74 44 -116 44 q-28 0 -41 -12.5t-17 -55.5q-1 -22 -30 -22h-138q-16 0 -26.5 11t-8.5 26q7 126 63.5 185.5t149.5 59.5q88 0 170 -50q74 -44 116 -44q28 0 41 12.5t17 55.5q1 22 30 22h138q16 0 26.5 -11t8.5 -26q-7 -126 -63.5 -185.5t-149.5 -59.5q-88 0 -170 50z" />
<glyph unicode="&#xc4;" horiz-adv-x="1548" d="M416 334h692l128 -310q4 -10 14.5 -17t20.5 -7h196q22 0 33 16.5t2 36.5l-590 1324q-4 9 -14.5 16t-19.5 7h-232q-9 0 -19.5 -7t-14.5 -16l-590 -1324q-9 -20 2 -36.5t33 -16.5h196q10 0 20.5 7t14.5 17zM1020 546h-516l258 617zM532 1552q-136 0 -136 126t136 126 t136 -126t-136 -126zM1016 1552q-136 0 -136 126t136 126t136 -126t-136 -126z" />
<glyph unicode="&#xc5;" horiz-adv-x="1548" d="M416 334h692l128 -310q4 -10 14.5 -17t20.5 -7h196q22 0 33 16.5t2 36.5l-590 1324q-4 9 -14.5 16t-19.5 7h-232q-9 0 -19.5 -7t-14.5 -16l-590 -1324q-9 -20 2 -36.5t33 -16.5h196q10 0 20.5 7t14.5 17zM1020 546h-516l258 617zM528 1678q0 99 70.5 166.5t175.5 67.5 t175.5 -67.5t70.5 -166.5t-70.5 -166.5t-175.5 -67.5t-175.5 67.5t-70.5 166.5zM688 1678q0 -40 25 -64t61 -24t61 24t25 64t-25 64t-61 24t-61 -24t-25 -64z" />
<glyph unicode="&#xc6;" horiz-adv-x="2018" d="M980 552v638l-368 -638h368zM1808 614h-578v-402h656q16 0 27 -11t11 -27v-136q0 -16 -11 -27t-27 -11h-868q-16 0 -27 11t-11 27v302h-490l-183 -321q-4 -7 -14.5 -13t-18.5 -6h-215q-24 0 -34.5 18t1.5 39l783 1324q13 19 32 19h1027q16 0 27 -11t11 -27v-136 q0 -16 -11 -27t-27 -11h-638v-362h578q16 0 27 -11t11 -27v-136q0 -16 -11 -27t-27 -11z" />
<glyph unicode="&#xc7;" horiz-adv-x="1424" d="M640 -432v67q0 17 9.5 27t26.5 9q47 -5 96 -5q126 0 126 65q0 74 -179 82q-23 1 -32 17.5t3 36.5l74 120q-321 40 -497.5 227.5t-176.5 485.5q0 332 223 528t615 196q216 0 377 -52q12 -4 19.5 -16t6.5 -25l-14 -140q-2 -20 -17.5 -30t-33.5 -3q-131 50 -326 50 q-285 0 -439.5 -135.5t-154.5 -372.5q0 -245 158 -376.5t444 -131.5q182 0 329 57q18 7 33.5 -3t17.5 -30l14 -144q1 -13 -6.5 -25t-19.5 -16q-156 -49 -336 -54l-62 -93q81 -11 131.5 -55t50.5 -116q0 -189 -323 -189q-59 0 -106 6q-13 2 -22 13.5t-9 24.5z" />
<glyph unicode="&#xc8;" horiz-adv-x="1296" d="M160 38v1324q0 16 11 27t27 11h962q16 0 27 -11t11 -27v-136q0 -16 -11 -27t-27 -11h-748v-362h701q15 0 26 -11t11 -27v-136q0 -16 -11 -27t-26 -11h-701v-402h766q16 0 27 -11t11 -27v-136q0 -16 -11 -27t-27 -11h-980q-16 0 -27 11t-11 27zM627 1826l225 -258 q23 -24 15 -42t-45 -18h-130q-26 0 -54 24l-289 251q-23 19 -15 42t40 23h213q20 0 40 -22z" />
<glyph unicode="&#xc9;" horiz-adv-x="1296" d="M160 38v1324q0 16 11 27t27 11h962q16 0 27 -11t11 -27v-136q0 -16 -11 -27t-27 -11h-748v-362h701q15 0 26 -11t11 -27v-136q0 -16 -11 -27t-26 -11h-701v-402h766q16 0 27 -11t11 -27v-136q0 -16 -11 -27t-27 -11h-980q-16 0 -27 11t-11 27zM478 1568l225 258 q20 22 41 22h207q32 0 40.5 -25t-14.5 -44l-286 -247q-28 -24 -54 -24h-129q-37 0 -44.5 17.5t14.5 42.5z" />
<glyph unicode="&#xca;" horiz-adv-x="1296" d="M160 38v1324q0 16 11 27t27 11h962q16 0 27 -11t11 -27v-136q0 -16 -11 -27t-27 -11h-748v-362h701q15 0 26 -11t11 -27v-136q0 -16 -11 -27t-26 -11h-701v-402h766q16 0 27 -11t11 -27v-136q0 -16 -11 -27t-27 -11h-980q-16 0 -27 11t-11 27zM555 1848h192q20 0 32 -14 l238 -271q17 -19 10 -37t-32 -18h-154q-16 0 -27 11l-163 167l-163 -167q-11 -11 -27 -11h-154q-25 0 -32 18t10 37l238 271q12 14 32 14z" />
<glyph unicode="&#xcb;" horiz-adv-x="1296" d="M160 38v1324q0 16 11 27t27 11h962q16 0 27 -11t11 -27v-136q0 -16 -11 -27t-27 -11h-748v-362h701q15 0 26 -11t11 -27v-136q0 -16 -11 -27t-26 -11h-701v-402h766q16 0 27 -11t11 -27v-136q0 -16 -11 -27t-27 -11h-980q-16 0 -27 11t-11 27zM434 1552q-136 0 -136 126 t136 126t136 -126t-136 -126zM918 1552q-136 0 -136 126t136 126t136 -126t-136 -126z" />
<glyph unicode="&#xcc;" horiz-adv-x="592" d="M208 1400h176q16 0 27 -11t11 -27v-1324q0 -16 -11 -27t-27 -11h-176q-16 0 -27 11t-11 27v1324q0 16 11 27t27 11zM181 1826l225 -258q23 -24 15 -42t-45 -18h-130q-26 0 -54 24l-289 251q-23 19 -15 42t40 23h213q20 0 40 -22z" />
<glyph unicode="&#xcd;" horiz-adv-x="592" d="M208 1400h176q16 0 27 -11t11 -27v-1324q0 -16 -11 -27t-27 -11h-176q-16 0 -27 11t-11 27v1324q0 16 11 27t27 11zM180 1568l225 258q20 22 41 22h207q32 0 40.5 -25t-14.5 -44l-286 -247q-28 -24 -54 -24h-129q-37 0 -44.5 17.5t14.5 42.5z" />
<glyph unicode="&#xce;" horiz-adv-x="592" d="M183 1400h176q16 0 27 -11t11 -27v-1324q0 -16 -11 -27t-27 -11h-176q-16 0 -27 11t-11 27v1324q0 16 11 27t27 11zM150 1848h192q20 0 32 -14l238 -271q17 -19 10 -37t-32 -18h-154q-16 0 -27 11l-163 167l-163 -167q-11 -11 -27 -11h-154q-25 0 -32 18t10 37l238 271 q12 14 32 14z" />
<glyph unicode="&#xcf;" horiz-adv-x="592" d="M208 1400h176q16 0 27 -11t11 -27v-1324q0 -16 -11 -27t-27 -11h-176q-16 0 -27 11t-11 27v1324q0 16 11 27t27 11zM54 1552q-136 0 -136 126t136 126t136 -126t-136 -126zM538 1552q-136 0 -136 126t136 126t136 -126t-136 -126z" />
<glyph unicode="&#xd0;" horiz-adv-x="1584" d="M620 0h-412q-16 0 -27 11t-11 27v576h-138q-16 0 -27 11t-11 27v96q0 16 11 27t27 11h138v576q0 16 11 27t27 11h412q194 0 353.5 -44.5t276 -130.5t180.5 -220t64 -305t-64 -305t-180.5 -220t-276 -130.5t-353.5 -44.5zM738 614h-316v-402h160q333 0 494.5 115.5 t161.5 372.5t-161.5 372.5t-494.5 115.5h-160v-402h316q16 0 27 -11t11 -27v-96q0 -16 -11 -27t-27 -11z" />
<glyph unicode="&#xd1;" horiz-adv-x="1602" d="M1118 17l-714 1065v-1044q0 -16 -11 -27t-27 -11h-168q-16 0 -27 11t-11 27v1324q0 16 11 27t27 11h255q7 0 17 -5.5t14 -11.5l714 -1065v1044q0 16 11 27t27 11h168q16 0 27 -11t11 -27v-1324q0 -16 -11 -27t-27 -11h-255q-7 0 -17 5.5t-14 11.5zM800 1586 q-74 44 -116 44q-28 0 -41 -12.5t-17 -55.5q-1 -22 -30 -22h-138q-16 0 -26.5 11t-8.5 26q7 126 63.5 185.5t149.5 59.5q88 0 170 -50q74 -44 116 -44q28 0 41 12.5t17 55.5q1 22 30 22h138q16 0 26.5 -11t8.5 -26q-7 -126 -63.5 -185.5t-149.5 -59.5q-88 0 -170 50z" />
<glyph unicode="&#xd2;" horiz-adv-x="1676" d="M90 700q0 153 50.5 284.5t144 229.5t236.5 154t317 56t317 -56t236.5 -154t144 -229.5t50.5 -284.5t-50.5 -284.5t-144 -229.5t-236.5 -154t-317 -56t-317 56t-236.5 154t-144 229.5t-50.5 284.5zM346 700q0 -239 131 -373.5t361 -134.5t361 134.5t131 373.5t-131 373.5 t-361 134.5t-361 -134.5t-131 -373.5zM821 1826l225 -258q23 -24 15 -42t-45 -18h-130q-26 0 -54 24l-289 251q-23 19 -15 42t40 23h213q20 0 40 -22z" />
<glyph unicode="&#xd3;" horiz-adv-x="1676" d="M90 700q0 153 50.5 284.5t144 229.5t236.5 154t317 56t317 -56t236.5 -154t144 -229.5t50.5 -284.5t-50.5 -284.5t-144 -229.5t-236.5 -154t-317 -56t-317 56t-236.5 154t-144 229.5t-50.5 284.5zM346 700q0 -239 131 -373.5t361 -134.5t361 134.5t131 373.5t-131 373.5 t-361 134.5t-361 -134.5t-131 -373.5zM624 1568l225 258q20 22 41 22h207q32 0 40.5 -25t-14.5 -44l-286 -247q-28 -24 -54 -24h-129q-37 0 -44.5 17.5t14.5 42.5z" />
<glyph unicode="&#xd4;" horiz-adv-x="1676" d="M90 700q0 153 50.5 284.5t144 229.5t236.5 154t317 56t317 -56t236.5 -154t144 -229.5t50.5 -284.5t-50.5 -284.5t-144 -229.5t-236.5 -154t-317 -56t-317 56t-236.5 154t-144 229.5t-50.5 284.5zM346 700q0 -239 131 -373.5t361 -134.5t361 134.5t131 373.5t-131 373.5 t-361 134.5t-361 -134.5t-131 -373.5zM717 1848h192q20 0 32 -14l238 -271q17 -19 10 -37t-32 -18h-154q-16 0 -27 11l-163 167l-163 -167q-11 -11 -27 -11h-154q-25 0 -32 18t10 37l238 271q12 14 32 14z" />
<glyph unicode="&#xd5;" horiz-adv-x="1676" d="M90 700q0 153 50.5 284.5t144 229.5t236.5 154t317 56t317 -56t236.5 -154t144 -229.5t50.5 -284.5t-50.5 -284.5t-144 -229.5t-236.5 -154t-317 -56t-317 56t-236.5 154t-144 229.5t-50.5 284.5zM346 700q0 -239 131 -373.5t361 -134.5t361 134.5t131 373.5t-131 373.5 t-361 134.5t-361 -134.5t-131 -373.5zM838 1586q-74 44 -116 44q-28 0 -41 -12.5t-17 -55.5q-1 -22 -30 -22h-138q-16 0 -26.5 11t-8.5 26q7 126 63.5 185.5t149.5 59.5q88 0 170 -50q74 -44 116 -44q28 0 41 12.5t17 55.5q1 22 30 22h138q16 0 26.5 -11t8.5 -26 q-7 -126 -63.5 -185.5t-149.5 -59.5q-88 0 -170 50z" />
<glyph unicode="&#xd6;" horiz-adv-x="1676" d="M90 700q0 153 50.5 284.5t144 229.5t236.5 154t317 56t317 -56t236.5 -154t144 -229.5t50.5 -284.5t-50.5 -284.5t-144 -229.5t-236.5 -154t-317 -56t-317 56t-236.5 154t-144 229.5t-50.5 284.5zM346 700q0 -239 131 -373.5t361 -134.5t361 134.5t131 373.5t-131 373.5 t-361 134.5t-361 -134.5t-131 -373.5zM596 1552q-136 0 -136 126t136 126t136 -126t-136 -126zM1080 1552q-136 0 -136 126t136 126t136 -126t-136 -126z" />
<glyph unicode="&#xd7;" horiz-adv-x="1332" d="M490 665l-311 278q-13 11 -13 27t12 28l100 100q11 11 25.5 11.5t25.5 -9.5l324 -290l324 290q11 10 25.5 9.5t25.5 -11.5l100 -100q12 -12 12 -28t-13 -27l-311 -278l311 -278q13 -11 13 -27t-12 -28l-100 -100q-11 -11 -25.5 -11.5t-25.5 9.5l-324 290l-324 -290 q-11 -10 -25.5 -9.5t-25.5 11.5l-100 100q-12 12 -12 28t13 27z" />
<glyph unicode="&#xd8;" horiz-adv-x="1676" d="M1541 1572l-209 -305q123 -99 188.5 -245.5t65.5 -321.5q0 -153 -50.5 -284.5t-144 -229.5t-236.5 -154t-317 -56q-190 0 -344 67l-152 -223q-15 -20 -34 -20h-157q-15 0 -20.5 8.5t2.5 19.5l209 306q-122 98 -187 245t-65 321q0 153 50.5 284.5t144 229.5t236.5 154 t317 56q188 0 340 -66l152 222q15 20 34 20h159q15 0 20 -9t-2 -19zM1330 700q0 239 -131 373l-577 -843q96 -38 216 -38q230 0 361 134.5t131 373.5zM346 700q0 -237 129 -372l575 843q-96 37 -212 37q-230 0 -361 -134.5t-131 -373.5z" />
<glyph unicode="&#xd9;" horiz-adv-x="1648" d="M824 -24q147 0 267 35.5t209.5 105.5t138.5 180.5t49 253.5v811q0 16 -11 27t-27 11h-176q-16 0 -27 -11t-11 -27v-789q0 -186 -98 -283.5t-314 -97.5t-314 97.5t-98 283.5v789q0 16 -11 27t-27 11h-176q-16 0 -27 -11t-11 -27v-811q0 -143 49 -253.5t138.5 -180.5 t209.5 -105.5t267 -35.5zM735 1826l225 -258q23 -24 15 -42t-45 -18h-130q-26 0 -54 24l-289 251q-23 19 -15 42t40 23h213q20 0 40 -22z" />
<glyph unicode="&#xda;" horiz-adv-x="1648" d="M824 -24q-147 0 -267 35.5t-209.5 105.5t-138.5 180.5t-49 253.5v811q0 16 11 27t27 11h176q16 0 27 -11t11 -27v-789q0 -186 98 -283.5t314 -97.5t314 97.5t98 283.5v789q0 16 11 27t27 11h176q16 0 27 -11t11 -27v-811q0 -143 -49 -253.5t-138.5 -180.5t-209.5 -105.5 t-267 -35.5zM682 1568l225 258q20 22 41 22h207q32 0 40.5 -25t-14.5 -44l-286 -247q-28 -24 -54 -24h-129q-37 0 -44.5 17.5t14.5 42.5z" />
<glyph unicode="&#xdb;" horiz-adv-x="1648" d="M824 -24q-147 0 -267 35.5t-209.5 105.5t-138.5 180.5t-49 253.5v811q0 16 11 27t27 11h176q16 0 27 -11t11 -27v-789q0 -186 98 -283.5t314 -97.5t314 97.5t98 283.5v789q0 16 11 27t27 11h176q16 0 27 -11t11 -27v-811q0 -143 -49 -253.5t-138.5 -180.5t-209.5 -105.5 t-267 -35.5zM703 1848h192q20 0 32 -14l238 -271q17 -19 10 -37t-32 -18h-154q-16 0 -27 11l-163 167l-163 -167q-11 -11 -27 -11h-154q-25 0 -32 18t10 37l238 271q12 14 32 14z" />
<glyph unicode="&#xdc;" horiz-adv-x="1648" d="M824 -24q147 0 267 35.5t209.5 105.5t138.5 180.5t49 253.5v811q0 16 -11 27t-27 11h-176q-16 0 -27 -11t-11 -27v-789q0 -186 -98 -283.5t-314 -97.5t-314 97.5t-98 283.5v789q0 16 -11 27t-27 11h-176q-16 0 -27 -11t-11 -27v-811q0 -143 49 -253.5t138.5 -180.5 t209.5 -105.5t267 -35.5zM582 1552q-136 0 -136 126t136 126t136 -126t-136 -126zM1066 1552q-136 0 -136 126t136 126t136 -126t-136 -126z" />
<glyph unicode="&#xdd;" horiz-adv-x="1608" d="M862 0h-176q-16 0 -27 11t-11 27v516l-588 781q-15 20 -5 42.5t35 22.5h195q27 0 37 -15l452 -601l452 601q10 15 37 15h195q25 0 35 -22.5t-5 -42.5l-588 -781v-516q0 -16 -11 -27t-27 -11zM628 1568l225 258q20 22 41 22h207q32 0 40.5 -25t-14.5 -44l-286 -247 q-28 -24 -54 -24h-129q-37 0 -44.5 17.5t14.5 42.5z" />
<glyph unicode="&#xde;" horiz-adv-x="1370" d="M412 264v-226q0 -16 -11 -27t-27 -11h-176q-16 0 -27 11t-11 27v1324q0 16 11 27t27 11h176q16 0 27 -11t11 -27v-208h282q286 0 446 -115.5t160 -328.5q0 -214 -160 -330t-446 -116h-282zM1044 710q0 125 -90 178.5t-284 53.5h-258v-466h258q194 0 284 54.5t90 179.5z " />
<glyph unicode="&#xdf;" horiz-adv-x="1314" d="M509 11q-11 4 -19 15.5t-7 23.5l15 148q2 20 17.5 29t33.5 2q87 -37 191 -37q118 0 178 50.5t60 143.5q0 101 -90.5 164.5t-250.5 70.5q-14 1 -24.5 11.5t-10.5 25.5v139q0 15 10.5 26t24.5 12q138 6 207.5 60.5t69.5 150.5q0 72 -66 117t-180 45q-256 0 -256 -248v-923 q0 -15 -10.5 -26t-26.5 -11h-177q-16 0 -27 11t-11 26v903q0 240 130 362t382 122q221 0 359.5 -104.5t138.5 -263.5q0 -235 -242 -320q143 -36 224.5 -129.5t81.5 -220.5q0 -202 -127 -306t-373 -104q-120 0 -225 35z" />
<glyph unicode="&#xe0;" horiz-adv-x="1258" d="M1128 670v-633q0 -15 -11 -26t-26 -11h-170q-15 0 -26 11t-11 26v51q-127 -112 -354 -112q-200 0 -330 87.5t-130 248.5q0 164 135.5 258t384.5 94h294v50q0 88 -61.5 119t-218.5 31q-190 0 -362 -62q-18 -7 -33 2.5t-17 28.5l-15 116q-2 11 5.5 23.5t18.5 16.5 q188 71 415 71q270 0 391 -88.5t121 -301.5zM568 172q214 0 316 102v198h-284q-153 0 -218.5 -38.5t-65.5 -117.5q0 -144 252 -144zM573 1478l225 -258q23 -24 15 -42t-45 -18h-130q-26 0 -54 24l-289 251q-23 19 -15 42t40 23h213q20 0 40 -22z" />
<glyph unicode="&#xe1;" horiz-adv-x="1258" d="M1128 670v-633q0 -15 -11 -26t-26 -11h-170q-15 0 -26 11t-11 26v51q-127 -112 -354 -112q-200 0 -330 87.5t-130 248.5q0 164 135.5 258t384.5 94h294v50q0 88 -61.5 119t-218.5 31q-190 0 -362 -62q-18 -7 -33 2.5t-17 28.5l-15 116q-2 11 5.5 23.5t18.5 16.5 q188 71 415 71q270 0 391 -88.5t121 -301.5zM568 172q214 0 316 102v198h-284q-153 0 -218.5 -38.5t-65.5 -117.5q0 -144 252 -144zM448 1220l225 258q20 22 41 22h207q32 0 40.5 -25t-14.5 -44l-286 -247q-28 -24 -54 -24h-129q-37 0 -44.5 17.5t14.5 42.5z" />
<glyph unicode="&#xe2;" horiz-adv-x="1258" d="M1128 670v-633q0 -15 -11 -26t-26 -11h-170q-15 0 -26 11t-11 26v51q-127 -112 -354 -112q-200 0 -330 87.5t-130 248.5q0 164 135.5 258t384.5 94h294v50q0 88 -61.5 119t-218.5 31q-190 0 -362 -62q-18 -7 -33 2.5t-17 28.5l-15 116q-2 11 5.5 23.5t18.5 16.5 q188 71 415 71q270 0 391 -88.5t121 -301.5zM568 172q214 0 316 102v198h-284q-153 0 -218.5 -38.5t-65.5 -117.5q0 -144 252 -144zM515 1500h192q20 0 32 -14l238 -271q17 -19 10 -37t-32 -18h-154q-16 0 -27 11l-163 167l-163 -167q-11 -11 -27 -11h-154q-25 0 -32 18 t10 37l238 271q12 14 32 14z" />
<glyph unicode="&#xe3;" horiz-adv-x="1258" d="M1128 670v-633q0 -15 -11 -26t-26 -11h-170q-15 0 -26 11t-11 26v51q-127 -112 -354 -112q-200 0 -330 87.5t-130 248.5q0 164 135.5 258t384.5 94h294v50q0 88 -61.5 119t-218.5 31q-190 0 -362 -62q-18 -7 -33 2.5t-17 28.5l-15 116q-2 11 5.5 23.5t18.5 16.5 q188 71 415 71q270 0 391 -88.5t121 -301.5zM568 172q214 0 316 102v198h-284q-153 0 -218.5 -38.5t-65.5 -117.5q0 -144 252 -144zM622 1236q-74 44 -116 44q-28 0 -41 -12.5t-17 -55.5q-1 -22 -30 -22h-138q-16 0 -26.5 11t-8.5 26q7 126 63.5 185.5t149.5 59.5 q88 0 170 -50q74 -44 116 -44q28 0 41 12.5t17 55.5q1 22 30 22h138q16 0 26.5 -11t8.5 -26q-7 -126 -63.5 -185.5t-149.5 -59.5q-88 0 -170 50z" />
<glyph unicode="&#xe4;" horiz-adv-x="1258" d="M1128 670v-633q0 -15 -11 -26t-26 -11h-170q-15 0 -26 11t-11 26v51q-127 -112 -354 -112q-200 0 -330 87.5t-130 248.5q0 164 135.5 258t384.5 94h294v50q0 88 -61.5 119t-218.5 31q-190 0 -362 -62q-18 -7 -33 2.5t-17 28.5l-15 116q-2 11 5.5 23.5t18.5 16.5 q188 71 415 71q270 0 391 -88.5t121 -301.5zM568 172q214 0 316 102v198h-284q-153 0 -218.5 -38.5t-65.5 -117.5q0 -144 252 -144zM384 1204q-136 0 -136 126t136 126t136 -126t-136 -126zM868 1204q-136 0 -136 126t136 126t136 -126t-136 -126z" />
<glyph unicode="&#xe5;" horiz-adv-x="1258" d="M1128 670v-633q0 -15 -11 -26t-26 -11h-170q-15 0 -26 11t-11 26v51q-127 -112 -354 -112q-200 0 -330 87.5t-130 248.5q0 164 135.5 258t384.5 94h294v50q0 88 -61.5 119t-218.5 31q-190 0 -362 -62q-18 -7 -33 2.5t-17 28.5l-15 116q-2 11 5.5 23.5t18.5 16.5 q188 71 415 71q270 0 391 -88.5t121 -301.5zM568 172q214 0 316 102v198h-284q-153 0 -218.5 -38.5t-65.5 -117.5q0 -144 252 -144zM384 1330q0 99 70.5 166.5t175.5 67.5t175.5 -67.5t70.5 -166.5t-70.5 -166.5t-175.5 -67.5t-175.5 67.5t-70.5 166.5zM544 1330 q0 -40 25 -64t61 -24t61 24t25 64t-25 64t-61 24t-61 -24t-25 -64z" />
<glyph unicode="&#xe6;" horiz-adv-x="1994" d="M544 172q237 0 314 166v134h-258q-153 0 -218.5 -38.5t-65.5 -117.5q0 -77 57.5 -110.5t170.5 -33.5zM1086 616h594q-12 122 -87.5 187t-210.5 65q-132 0 -207 -65.5t-89 -186.5zM1803 43q-143 -67 -357 -67q-151 0 -273.5 52.5t-192.5 149.5q-65 -96 -184.5 -149 t-265.5 -53q-98 0 -179.5 19.5t-145 59.5t-99.5 105.5t-36 151.5q0 169 134.5 260.5t385.5 91.5h268q-3 112 -66.5 156t-211.5 44q-189 0 -338 -63q-17 -7 -32.5 2t-17.5 28l-14 121q-1 10 6.5 21.5t18.5 16.5q169 70 383 70q290 0 412 -164q62 79 164 121.5t220 42.5 q174 0 297.5 -71.5t184 -194t60.5 -284.5q0 -34 -1 -52q-1 -14 -12 -24t-25 -10h-800q21 -121 115 -186.5t257 -65.5q179 0 299 54q18 8 33.5 -1t18.5 -29l16 -115q4 -26 -22 -38z" />
<glyph unicode="&#xe7;" horiz-adv-x="1166" d="M768 172q145 0 262 40q18 6 32.5 -3t16.5 -28l14 -115q2 -12 -5.5 -24t-19.5 -16q-135 -45 -278 -49l-60 -93q81 -11 131.5 -55t50.5 -116q0 -189 -323 -189q-59 0 -106 6q-13 2 -22 13.5t-9 24.5v67q0 17 9.5 27t26.5 9q47 -5 96 -5q126 0 126 65q0 74 -179 82 q-23 1 -32 17.5t3 36.5l77 123q-235 38 -367 177t-132 351q0 247 176 394.5t470 147.5q183 0 330 -50q12 -4 19.5 -16t5.5 -24l-14 -115q-2 -19 -16.5 -28t-32.5 -3q-117 40 -278 40q-187 0 -299.5 -90.5t-112.5 -255.5q0 -166 116 -256t324 -90z" />
<glyph unicode="&#xe8;" horiz-adv-x="1270" d="M1199 459q-1 -14 -12 -24.5t-25 -10.5h-828q14 -125 109.5 -188.5t282.5 -63.5q182 0 307 51q18 7 33.5 -1.5t17.5 -27.5l15 -118q1 -12 -6 -23.5t-18 -16.5q-154 -60 -361 -60q-310 0 -472 147t-162 397q0 240 151 390t407 150q135 0 242.5 -41.5t177 -115.5t106 -173.5 t36.5 -217.5q0 -38 -1 -53zM334 616h612q-28 248 -308 248q-279 0 -304 -248zM601 1478l225 -258q23 -24 15 -42t-45 -18h-130q-26 0 -54 24l-289 251q-23 19 -15 42t40 23h213q20 0 40 -22z" />
<glyph unicode="&#xe9;" horiz-adv-x="1270" d="M1199 459q-1 -14 -12 -24.5t-25 -10.5h-828q14 -125 109.5 -188.5t282.5 -63.5q182 0 307 51q18 7 33.5 -1.5t17.5 -27.5l15 -118q1 -12 -6 -23.5t-18 -16.5q-154 -60 -361 -60q-310 0 -472 147t-162 397q0 240 151 390t407 150q135 0 242.5 -41.5t177 -115.5t106 -173.5 t36.5 -217.5q0 -38 -1 -53zM334 616h612q-28 248 -308 248q-279 0 -304 -248zM440 1220l225 258q20 22 41 22h207q32 0 40.5 -25t-14.5 -44l-286 -247q-28 -24 -54 -24h-129q-37 0 -44.5 17.5t14.5 42.5z" />
<glyph unicode="&#xea;" horiz-adv-x="1270" d="M1199 459q-1 -14 -12 -24.5t-25 -10.5h-828q14 -125 109.5 -188.5t282.5 -63.5q182 0 307 51q18 7 33.5 -1.5t17.5 -27.5l15 -118q1 -12 -6 -23.5t-18 -16.5q-154 -60 -361 -60q-310 0 -472 147t-162 397q0 240 151 390t407 150q135 0 242.5 -41.5t177 -115.5t106 -173.5 t36.5 -217.5q0 -38 -1 -53zM334 616h612q-28 248 -308 248q-279 0 -304 -248zM517 1500h192q20 0 32 -14l238 -271q17 -19 10 -37t-32 -18h-154q-16 0 -27 11l-163 167l-163 -167q-11 -11 -27 -11h-154q-25 0 -32 18t10 37l238 271q12 14 32 14z" />
<glyph unicode="&#xeb;" horiz-adv-x="1270" d="M1199 459q-1 -14 -12 -24.5t-25 -10.5h-828q14 -125 109.5 -188.5t282.5 -63.5q182 0 307 51q18 7 33.5 -1.5t17.5 -27.5l15 -118q1 -12 -6 -23.5t-18 -16.5q-154 -60 -361 -60q-310 0 -472 147t-162 397q0 240 151 390t407 150q135 0 242.5 -41.5t177 -115.5t106 -173.5 t36.5 -217.5q0 -38 -1 -53zM334 616h612q-28 248 -308 248q-279 0 -304 -248zM396 1204q-136 0 -136 126t136 126t136 -126t-136 -126zM880 1204q-136 0 -136 126t136 126t136 -126t-136 -126z" />
<glyph unicode="&#xec;" horiz-adv-x="544" d="M150 37v962q0 15 11 26t26 11h169q16 0 27 -11t11 -26v-962q0 -15 -11 -26t-27 -11h-169q-15 0 -26 11t-11 26zM153 1478l225 -258q23 -24 15 -42t-45 -18h-130q-26 0 -54 24l-289 251q-23 19 -15 42t40 23h213q20 0 40 -22z" />
<glyph unicode="&#xed;" horiz-adv-x="544" d="M150 37v962q0 15 11 26t26 11h169q16 0 27 -11t11 -26v-962q0 -15 -11 -26t-27 -11h-169q-15 0 -26 11t-11 26zM158 1220l225 258q20 22 41 22h207q32 0 40.5 -25t-14.5 -44l-286 -247q-28 -24 -54 -24h-129q-37 0 -44.5 17.5t14.5 42.5z" />
<glyph unicode="&#xee;" horiz-adv-x="544" d="M150 37v962q0 15 11 26t26 11h169q16 0 27 -11t11 -26v-962q0 -15 -11 -26t-27 -11h-169q-15 0 -26 11t-11 26zM151 1500h192q20 0 32 -14l238 -271q17 -19 10 -37t-32 -18h-154q-16 0 -27 11l-163 167l-163 -167q-11 -11 -27 -11h-154q-25 0 -32 18t10 37l238 271 q12 14 32 14z" />
<glyph unicode="&#xef;" horiz-adv-x="544" d="M150 37v962q0 15 11 26t26 11h169q16 0 27 -11t11 -26v-962q0 -15 -11 -26t-27 -11h-169q-15 0 -26 11t-11 26zM30 1204q-136 0 -136 126t136 126t136 -126t-136 -126zM514 1204q-136 0 -136 126t136 126t136 -126t-136 -126z" />
<glyph unicode="&#xf0;" horiz-adv-x="1284" d="M616 172q160 0 254 120.5t94 371.5q-144 138 -348 138q-138 0 -216 -84t-78 -228q0 -146 78 -232t216 -86zM1141 1226l-147 -38q210 -197 210 -542q0 -202 -64.5 -351t-198.5 -234t-325 -85q-114 0 -212 34.5t-170 98.5t-113 162t-41 219q0 240 145 374t391 134 q188 0 314 -98q-49 137 -180 228l-425 -107q-14 -4 -27.5 3.5t-17.5 21.5l-22 72q-4 14 4 27.5t22 17.5l252 63q-70 20 -135 32q-14 3 -23 15t-7 26l12 117q2 16 15.5 25.5t29.5 5.5q241 -54 410 -145l264 67q15 4 27.5 -4t17.5 -22l20 -67q5 -17 -2 -31.5t-24 -18.5z" />
<glyph unicode="&#xf1;" d="M347 1036h-170q-15 0 -26 -11t-11 -26v-962q0 -15 11 -26t26 -11h170q15 0 26 11t11 26v723q48 48 127.5 76t168.5 28q147 0 217.5 -68.5t70.5 -217.5v-541q0 -15 11 -26t26 -11h170q16 0 26.5 11t10.5 26v547q0 231 -131.5 353.5t-358.5 122.5q-213 0 -338 -110v49 q0 15 -11 26t-26 11zM676 1236q-74 44 -116 44q-28 0 -41 -12.5t-17 -55.5q-1 -22 -30 -22h-138q-16 0 -26.5 11t-8.5 26q7 126 63.5 185.5t149.5 59.5q88 0 170 -50q74 -44 116 -44q28 0 41 12.5t17 55.5q1 22 30 22h138q16 0 26.5 -11t8.5 -26q-7 -126 -63.5 -185.5 t-149.5 -59.5q-88 0 -170 50z" />
<glyph unicode="&#xf2;" horiz-adv-x="1356" d="M80 518q0 236 164 389t434 153t434 -153t164 -389t-164 -389t-434 -153t-434 153t-164 389zM328 518q0 -162 92.5 -254t257.5 -92t257.5 92t92.5 254t-92.5 254t-257.5 92t-257.5 -92t-92.5 -254zM641 1478l225 -258q23 -24 15 -42t-45 -18h-130q-26 0 -54 24l-289 251 q-23 19 -15 42t40 23h213q20 0 40 -22z" />
<glyph unicode="&#xf3;" horiz-adv-x="1356" d="M80 518q0 236 164 389t434 153t434 -153t164 -389t-164 -389t-434 -153t-434 153t-164 389zM328 518q0 -162 92.5 -254t257.5 -92t257.5 92t92.5 254t-92.5 254t-257.5 92t-257.5 -92t-92.5 -254zM484 1220l225 258q20 22 41 22h207q32 0 40.5 -25t-14.5 -44l-286 -247 q-28 -24 -54 -24h-129q-37 0 -44.5 17.5t14.5 42.5z" />
<glyph unicode="&#xf4;" horiz-adv-x="1356" d="M80 518q0 236 164 389t434 153t434 -153t164 -389t-164 -389t-434 -153t-434 153t-164 389zM328 518q0 -162 92.5 -254t257.5 -92t257.5 92t92.5 254t-92.5 254t-257.5 92t-257.5 -92t-92.5 -254zM557 1500h192q20 0 32 -14l238 -271q17 -19 10 -37t-32 -18h-154 q-16 0 -27 11l-163 167l-163 -167q-11 -11 -27 -11h-154q-25 0 -32 18t10 37l238 271q12 14 32 14z" />
<glyph unicode="&#xf5;" horiz-adv-x="1356" d="M80 518q0 236 164 389t434 153t434 -153t164 -389t-164 -389t-434 -153t-434 153t-164 389zM328 518q0 -162 92.5 -254t257.5 -92t257.5 92t92.5 254t-92.5 254t-257.5 92t-257.5 -92t-92.5 -254zM678 1236q-74 44 -116 44q-28 0 -41 -12.5t-17 -55.5q-1 -22 -30 -22 h-138q-16 0 -26.5 11t-8.5 26q7 126 63.5 185.5t149.5 59.5q88 0 170 -50q74 -44 116 -44q28 0 41 12.5t17 55.5q1 22 30 22h138q16 0 26.5 -11t8.5 -26q-7 -126 -63.5 -185.5t-149.5 -59.5q-88 0 -170 50z" />
<glyph unicode="&#xf6;" horiz-adv-x="1356" d="M80 518q0 236 164 389t434 153t434 -153t164 -389t-164 -389t-434 -153t-434 153t-164 389zM328 518q0 -162 92.5 -254t257.5 -92t257.5 92t92.5 254t-92.5 254t-257.5 92t-257.5 -92t-92.5 -254zM436 1204q-136 0 -136 126t136 126t136 -126t-136 -126zM920 1204 q-136 0 -136 126t136 126t136 -126t-136 -126z" />
<glyph unicode="&#xf7;" horiz-adv-x="1332" d="M1175 562h-1018q-15 0 -26 11t-11 26v130q0 15 11 26t26 11h1018q15 0 26 -11t11 -26v-130q0 -15 -11 -26t-26 -11zM524 268q0 142 142 142t142 -142t-142 -142t-142 142zM524 1060q0 142 142 142t142 -142t-142 -142t-142 142z" />
<glyph unicode="&#xf8;" horiz-adv-x="1380" d="M82 518q0 236 164 389t434 153q133 0 248 -41l151 217q15 20 34 20h143q15 0 20 -9t-2 -19l-200 -288q98 -73 151 -182t53 -240q0 -236 -164 -389t-434 -153q-135 0 -247 40l-150 -215q-15 -20 -34 -20h-141q-15 0 -20.5 8.5t2.5 19.5l197 285q-99 74 -152 183.5 t-53 240.5zM330 518q0 -153 82 -244l397 572q-59 18 -129 18q-165 0 -257.5 -92t-92.5 -254zM1030 518q0 150 -81 242l-397 -571q54 -17 128 -17q165 0 257.5 92t92.5 254z" />
<glyph unicode="&#xf9;" d="M665 172q86 0 164.5 27.5t128.5 76.5v723q0 15 11 26t26 11h170q15 0 26 -11t11 -26v-962q0 -15 -11 -26t-26 -11h-170q-15 0 -26 11t-11 26v49q-60 -56 -150.5 -83t-184.5 -27q-228 0 -360.5 122.5t-132.5 352.5v548q0 15 10.5 26t26.5 11h170q15 0 26 -11t11 -26v-536 q0 -152 71 -221.5t220 -69.5zM591 1478l225 -258q23 -24 15 -42t-45 -18h-130q-26 0 -54 24l-289 251q-23 19 -15 42t40 23h213q20 0 40 -22z" />
<glyph unicode="&#xfa;" d="M665 172q86 0 164.5 27.5t128.5 76.5v723q0 15 11 26t26 11h170q15 0 26 -11t11 -26v-962q0 -15 -11 -26t-26 -11h-170q-15 0 -26 11t-11 26v49q-60 -56 -150.5 -83t-184.5 -27q-228 0 -360.5 122.5t-132.5 352.5v548q0 15 10.5 26t26.5 11h170q15 0 26 -11t11 -26v-536 q0 -152 71 -221.5t220 -69.5zM500 1220l225 258q20 22 41 22h207q32 0 40.5 -25t-14.5 -44l-286 -247q-28 -24 -54 -24h-129q-37 0 -44.5 17.5t14.5 42.5z" />
<glyph unicode="&#xfb;" d="M665 172q86 0 164.5 27.5t128.5 76.5v723q0 15 11 26t26 11h170q15 0 26 -11t11 -26v-962q0 -15 -11 -26t-26 -11h-170q-15 0 -26 11t-11 26v49q-60 -56 -150.5 -83t-184.5 -27q-228 0 -360.5 122.5t-132.5 352.5v548q0 15 10.5 26t26.5 11h170q15 0 26 -11t11 -26v-536 q0 -152 71 -221.5t220 -69.5zM545 1500h192q20 0 32 -14l238 -271q17 -19 10 -37t-32 -18h-154q-16 0 -27 11l-163 167l-163 -167q-11 -11 -27 -11h-154q-25 0 -32 18t10 37l238 271q12 14 32 14z" />
<glyph unicode="&#xfc;" d="M665 172q86 0 164.5 27.5t128.5 76.5v723q0 15 11 26t26 11h170q15 0 26 -11t11 -26v-962q0 -15 -11 -26t-26 -11h-170q-15 0 -26 11t-11 26v49q-60 -56 -150.5 -83t-184.5 -27q-228 0 -360.5 122.5t-132.5 352.5v548q0 15 10.5 26t26.5 11h170q15 0 26 -11t11 -26v-536 q0 -152 71 -221.5t220 -69.5zM424 1204q-136 0 -136 126t136 126t136 -126t-136 -126zM908 1204q-136 0 -136 126t136 126t136 -126t-136 -126z" />
<glyph unicode="&#xfd;" horiz-adv-x="1296" d="M636 275l340 740q4 8 14.5 14.5t19.5 6.5h186q21 0 31.5 -17t1.5 -36l-619 -1348q-4 -8 -14 -14.5t-19 -6.5h-186q-22 0 -32.5 16.5t-1.5 36.5l153 333l-467 983q-10 19 0.5 36t32.5 17h187q9 0 19 -6.5t14 -14.5zM492 1220l225 258q20 22 41 22h207q32 0 40.5 -25 t-14.5 -44l-286 -247q-28 -24 -54 -24h-129q-37 0 -44.5 17.5t14.5 42.5z" />
<glyph unicode="&#xfe;" d="M384 760v-484q50 -47 124.5 -75.5t159.5 -28.5q161 0 253.5 87.5t92.5 258.5t-92.5 258.5t-253.5 87.5q-85 0 -159.5 -28.5t-124.5 -75.5zM384 1423v-473q129 110 340 110q242 0 390 -148t148 -394t-148 -394t-390 -148q-202 0 -340 110v-435q0 -15 -11 -26t-26 -11h-170 q-15 0 -26 11t-11 26v1772q0 15 11 26t26 11h170q15 0 26 -11t11 -26z" />
<glyph unicode="&#xff;" horiz-adv-x="1296" d="M636 275l340 740q4 8 14.5 14.5t19.5 6.5h186q21 0 31.5 -17t1.5 -36l-619 -1348q-4 -8 -14 -14.5t-19 -6.5h-186q-22 0 -32.5 16.5t-1.5 36.5l153 333l-467 983q-10 19 0.5 36t32.5 17h187q9 0 19 -6.5t14 -14.5zM406 1204q-136 0 -136 126t136 126t136 -126t-136 -126z M890 1204q-136 0 -136 126t136 126t136 -126t-136 -126z" />
<glyph unicode="&#x152;" horiz-adv-x="1956" d="M932 214v972h-16q-294 0 -432 -127t-138 -359t138 -359t432 -127h16zM1838 0h-892q-417 0 -636.5 188t-219.5 512t219.5 512t636.5 188h874q16 0 27 -11t11 -27v-136q0 -15 -10 -26.5t-20 -11.5h-646v-362h579q15 0 26 -11t11 -27v-136q0 -16 -13 -27t-35 -11h-568v-402 h656q16 0 27 -11t11 -27v-136q0 -16 -11 -27t-27 -11z" />
<glyph unicode="&#x153;" horiz-adv-x="2110" d="M2040 512v-51q0 -14 -12 -25.5t-27 -11.5h-799q20 -121 116.5 -186.5t269.5 -65.5q153 0 285 56q19 8 34.5 -1t17.5 -29l15 -115q4 -30 -21 -42q-146 -65 -357 -65q-338 0 -486 212q-68 -106 -180.5 -159t-257.5 -53q-270 0 -414 148t-144 394t144 394t414 148 q144 0 259 -53t179 -159q143 212 420 212q264 0 404 -148.5t140 -399.5zM1202 616h598q-12 122 -88 187t-212 65q-135 0 -209.5 -65t-88.5 -187zM328 518q0 -165 77.5 -255.5t232.5 -90.5q153 0 229.5 90t76.5 256t-76.5 256t-229.5 90q-155 0 -232.5 -90.5t-77.5 -255.5z " />
<glyph unicode="&#x178;" horiz-adv-x="1608" d="M862 0h-176q-16 0 -27 11t-11 27v516l-588 781q-15 20 -5 42.5t35 22.5h195q27 0 37 -15l452 -601l452 601q10 15 37 15h195q25 0 35 -22.5t-5 -42.5l-588 -781v-516q0 -16 -11 -27t-27 -11zM562 1552q-136 0 -136 126t136 126t136 -126t-136 -126zM1046 1552 q-136 0 -136 126t136 126t136 -126t-136 -126z" />
<glyph unicode="&#x2c6;" horiz-adv-x="1008" d="M383 1460h192q20 0 32 -14l238 -271q17 -19 10 -37t-32 -18h-154q-16 0 -27 11l-163 167l-163 -167q-11 -11 -27 -11h-154q-25 0 -32 18t10 37l238 271q12 14 32 14z" />
<glyph unicode="&#x2dc;" horiz-adv-x="1008" d="M502 1198q-74 44 -116 44q-28 0 -41 -12.5t-17 -55.5q-1 -22 -30 -22h-138q-16 0 -26.5 11t-8.5 26q7 126 63.5 185.5t149.5 59.5q88 0 170 -50q74 -44 116 -44q28 0 41 12.5t17 55.5q1 22 30 22h138q16 0 26.5 -11t8.5 -26q-7 -126 -63.5 -185.5t-149.5 -59.5 q-88 0 -170 50z" />
<glyph unicode="&#x2000;" horiz-adv-x="956" />
<glyph unicode="&#x2001;" horiz-adv-x="1912" />
<glyph unicode="&#x2002;" horiz-adv-x="956" />
<glyph unicode="&#x2003;" horiz-adv-x="1912" />
<glyph unicode="&#x2004;" horiz-adv-x="637" />
<glyph unicode="&#x2005;" horiz-adv-x="478" />
<glyph unicode="&#x2006;" horiz-adv-x="318" />
<glyph unicode="&#x2007;" horiz-adv-x="318" />
<glyph unicode="&#x2008;" horiz-adv-x="239" />
<glyph unicode="&#x2009;" horiz-adv-x="382" />
<glyph unicode="&#x200a;" horiz-adv-x="106" />
<glyph unicode="&#x2010;" horiz-adv-x="852" d="M695 552h-538q-15 0 -26 11t-11 26v150q0 16 11 26.5t26 10.5h538q15 0 26 -10.5t11 -26.5v-150q0 -15 -11 -26t-26 -11z" />
<glyph unicode="&#x2011;" horiz-adv-x="852" d="M695 552h-538q-15 0 -26 11t-11 26v150q0 16 11 26.5t26 10.5h538q15 0 26 -10.5t11 -26.5v-150q0 -15 -11 -26t-26 -11z" />
<glyph unicode="&#x2012;" horiz-adv-x="852" d="M695 552h-538q-15 0 -26 11t-11 26v150q0 16 11 26.5t26 10.5h538q15 0 26 -10.5t11 -26.5v-150q0 -15 -11 -26t-26 -11z" />
<glyph unicode="&#x2013;" horiz-adv-x="1000" d="M963 562h-926q-15 0 -26 11t-11 26v130q0 15 11 26t26 11h926q15 0 26 -11t11 -26v-130q0 -15 -11 -26t-26 -11z" />
<glyph unicode="&#x2014;" horiz-adv-x="2000" d="M1963 562h-1926q-15 0 -26 11t-11 26v130q0 15 11 26t26 11h1926q16 0 26.5 -11t10.5 -26v-130q0 -15 -10.5 -26t-26.5 -11z" />
<glyph unicode="&#x2018;" horiz-adv-x="672" d="M416 1533q10 6 24 2.5t21 -13.5l25 -38q20 -31 -6 -48q-95 -63 -110 -154q58 -7 89 -43.5t31 -96.5q0 -144 -154 -144q-78 0 -117 38t-39 120q0 126 62.5 224t173.5 153z" />
<glyph unicode="&#x2019;" horiz-adv-x="672" d="M245 1009q-10 -6 -24 -2.5t-21 13.5l-25 38q-20 31 6 48q95 63 110 154q-58 7 -89 43.5t-31 96.5q0 144 154 144q78 0 117 -38t39 -120q0 -126 -62.5 -224t-173.5 -153z" />
<glyph unicode="&#x201a;" horiz-adv-x="672" d="M245 -275q-10 -6 -24 -2.5t-21 13.5l-25 38q-20 31 6 48q95 63 110 154q-58 7 -89 43.5t-31 96.5q0 144 154 144q78 0 117 -38t39 -120q0 -126 -62.5 -224t-173.5 -153z" />
<glyph unicode="&#x201c;" horiz-adv-x="1104" d="M416 1531q10 6 24 2.5t21 -13.5l25 -38q20 -31 -6 -48q-95 -63 -110 -154q58 -7 89 -43.5t31 -96.5q0 -144 -154 -144q-78 0 -117 38t-39 120q0 126 62.5 224t173.5 153zM848 1531q10 6 24 2.5t21 -13.5l25 -38q20 -31 -6 -48q-95 -63 -110 -154q58 -7 89 -43.5t31 -96.5 q0 -144 -154 -144q-78 0 -117 38t-39 120q0 126 62.5 224t173.5 153z" />
<glyph unicode="&#x201d;" horiz-adv-x="1104" d="M677 1009q-10 -6 -24 -2.5t-21 13.5l-25 38q-20 31 6 48q95 63 110 154q-58 7 -89 43.5t-31 96.5q0 144 154 144q78 0 117 -38t39 -120q0 -126 -62.5 -224t-173.5 -153zM245 1009q-10 -6 -24 -2.5t-21 13.5l-25 38q-20 31 6 48q95 63 110 154q-58 7 -89 43.5t-31 96.5 q0 144 154 144q78 0 117 -38t39 -120q0 -126 -62.5 -224t-173.5 -153z" />
<glyph unicode="&#x201e;" horiz-adv-x="1104" d="M677 -275q-10 -6 -24 -2.5t-21 13.5l-25 38q-20 31 6 48q95 63 110 154q-58 7 -89 43.5t-31 96.5q0 144 154 144q78 0 117 -38t39 -120q0 -126 -62.5 -224t-173.5 -153zM245 -275q-10 -6 -24 -2.5t-21 13.5l-25 38q-20 31 6 48q95 63 110 154q-58 7 -89 43.5t-31 96.5 q0 144 154 144q78 0 117 -38t39 -120q0 -126 -62.5 -224t-173.5 -153z" />
<glyph unicode="&#x2022;" horiz-adv-x="992" d="M496 398q-144 0 -220 69.5t-76 196.5t76 196.5t220 69.5t220 -69.5t76 -196.5t-76 -196.5t-220 -69.5z" />
<glyph unicode="&#x2026;" horiz-adv-x="2016" d="M182 118q0 142 154 142t154 -142t-154 -142t-154 142zM1526 118q0 142 154 142t154 -142t-154 -142t-154 142zM854 118q0 142 154 142t154 -142t-154 -142t-154 142z" />
<glyph unicode="&#x202f;" horiz-adv-x="382" />
<glyph unicode="&#x2039;" horiz-adv-x="704" d="M140 594v60q0 17 12 27l377 348q13 12 25.5 15t21 -4t8.5 -24v-144q0 -19 -12 -31l-238 -217l238 -217q12 -12 12 -31v-144q0 -17 -8.5 -24t-21 -4t-25.5 15l-377 348q-12 10 -12 27z" />
<glyph unicode="&#x203a;" horiz-adv-x="704" d="M564 654v-60q0 -17 -12 -27l-377 -348q-13 -12 -25.5 -15t-21 4t-8.5 24v144q0 19 12 31l238 217l-238 217q-12 12 -12 31v144q0 17 8.5 24t21 4t25.5 -15l377 -348q12 -10 12 -27z" />
<glyph unicode="&#x205f;" horiz-adv-x="478" />
<glyph unicode="&#x20ac;" horiz-adv-x="1430" d="M77 648h81q-3 54 0 104h-81q-16 0 -26.5 10.5t-10.5 26.5v70q0 15 10.5 26t26.5 11h101q61 246 267.5 387t518.5 141q204 0 349 -52q28 -9 25 -39l-15 -144q-2 -20 -17 -28.5t-34 -1.5q-127 49 -296 49q-203 0 -340 -81.5t-192 -230.5h710q20 0 30.5 -14.5t4.5 -33.5 l-23 -71q-8 -25 -36 -25h-714q-6 -54 0 -104h659q20 0 30.5 -14.5t4.5 -33.5l-23 -71q-8 -25 -36 -25h-607q54 -152 194 -232t346 -80q156 0 297 56q19 7 34 -1.5t17 -28.5l15 -148q3 -30 -25 -39q-165 -55 -348 -55q-319 0 -527.5 139.5t-268.5 388.5h-101 q-16 0 -26.5 10.5t-10.5 26.5v70q0 15 10.5 26t26.5 11z" />
<glyph unicode="&#x2122;" horiz-adv-x="1542" d="M236 775v485h-179q-16 0 -26.5 11t-10.5 26v66q0 15 10.5 26t26.5 11h532q15 0 26 -11t11 -26v-66q0 -15 -11 -26t-26 -11h-179v-485q0 -16 -11 -26.5t-26 -10.5h-100q-15 0 -26 10.5t-11 26.5zM1011 932h86q6 0 16 4.5t14 9.5l141 182v-353q0 -16 11 -26.5t27 -10.5h99 q16 0 26.5 10.5t10.5 26.5v588q0 15 -10.5 26t-26.5 11h-102q-23 0 -34 -15l-215 -279l-215 279q-11 15 -34 15h-102q-16 0 -26.5 -11t-10.5 -26v-588q0 -16 10.5 -26.5t26.5 -10.5h99q16 0 27 10.5t11 26.5v353l141 -182q4 -5 14 -9.5t16 -4.5z" />
</font>
</defs>
</svg>
