<?xml version="1.0" standalone="no"?>
<!DOCTYPE svg PUBLIC "-//W3C//DTD SVG 1.1//EN" "http://www.w3.org/Graphics/SVG/1.1/DTD/svg11.dtd" >
<svg xmlns="http://www.w3.org/2000/svg">
<metadata></metadata>
<defs>
<font id="core_sans_nr_sc_33_ex_lightRg" horiz-adv-x="1308" >
<font-face units-per-em="2000" ascent="1600" descent="-400" />
<missing-glyph horiz-adv-x="720" />
<glyph horiz-adv-x="0" />
<glyph horiz-adv-x="0" />
<glyph unicode="&#xd;" horiz-adv-x="682" />
<glyph horiz-adv-x="0" />
<glyph unicode="&#x9;" horiz-adv-x="682" />
<glyph horiz-adv-x="0" />
<glyph unicode=" "  horiz-adv-x="720" />
<glyph unicode="&#x09;" horiz-adv-x="720" />
<glyph unicode="&#xa0;" horiz-adv-x="720" />
<glyph unicode="!" horiz-adv-x="528" d="M219 367l-23 611v391q0 13 8.5 22t21.5 9h82q13 0 21.5 -9t8.5 -22v-391l-23 -611q-1 -12 -9.5 -20.5t-20.5 -8.5h-36q-12 0 -20.5 8.5t-9.5 20.5zM354 88q0 -112 -90 -112t-90 112t90 112t90 -112z" />
<glyph unicode="&#x22;" horiz-adv-x="942" d="M217 873l-12 495q-1 13 8.5 22.5t21.5 9.5h87q13 0 21.5 -9t8.5 -22v-65l-26 -432q-1 -11 -10 -19.5t-20 -8.5h-48q-12 0 -21.5 8.5t-9.5 20.5zM603 873l-12 495q-1 13 8.5 22.5t21.5 9.5h87q13 0 21.5 -9t8.5 -22v-65l-26 -432q-1 -11 -10 -19.5t-20 -8.5h-48 q-12 0 -21.5 8.5t-9.5 20.5z" />
<glyph unicode="#" horiz-adv-x="1568" d="M483 1056l66 319q2 10 10.5 17.5t18.5 7.5h72q15 0 23 -10.5t5 -25.5l-64 -308h487l66 319q2 10 10.5 17.5t18.5 7.5h72q15 0 23 -10.5t5 -25.5l-64 -308h232q13 0 21.5 -8.5t8.5 -21.5v-50q0 -13 -8.5 -21.5t-21.5 -8.5h-255l-95 -460h252q13 0 21.5 -8.5t8.5 -21.5v-50 q0 -13 -8.5 -21.5t-21.5 -8.5h-275l-72 -351q-2 -10 -10.5 -17.5t-18.5 -7.5h-72q-15 0 -23 10.5t-5 25.5l70 340h-487l-72 -351q-2 -10 -10.5 -17.5t-18.5 -7.5h-72q-15 0 -23 10.5t-5 25.5l70 340h-238q-13 0 -21.5 8.5t-8.5 21.5v50q0 13 8.5 21.5t21.5 8.5h261l95 460 h-258q-13 0 -21.5 8.5t-8.5 21.5v50q0 13 8.5 21.5t21.5 8.5h281zM591 946l-95 -460h487l95 460h-487z" />
<glyph unicode="$" horiz-adv-x="1218" d="M137 49q-9 3 -15.5 12t-5.5 19l6 63q2 16 13 24.5t26 2.5q181 -74 397 -74v574q-245 67 -349.5 161t-104.5 243q0 148 119 239t335 107v152q0 13 8.5 21.5t21.5 8.5h58q13 0 21.5 -8.5t8.5 -21.5v-148q200 -3 337 -46q9 -3 15.5 -12t5.5 -19l-6 -60q-2 -16 -13 -23.5 t-26 -3.5q-130 42 -313 44v-534q244 -77 346 -172t102 -240q0 -160 -113.5 -257.5t-334.5 -118.5v-152q0 -13 -8.5 -21.5t-21.5 -8.5h-58q-13 0 -21.5 8.5t-8.5 21.5v146h-6q-217 0 -415 73zM984 354q0 93 -72.5 160t-235.5 121v-533q152 18 230 85t78 167zM244 1078 q0 -91 73.5 -155t240.5 -118v494q-154 -15 -234 -74t-80 -147z" />
<glyph unicode="%" horiz-adv-x="2010" d="M1486 -16q-163 0 -261.5 102t-98.5 260t98.5 260t261.5 102t261.5 -102t98.5 -260t-98.5 -260t-261.5 -102zM1718 346q0 113 -63.5 181.5t-168.5 68.5t-168.5 -68.5t-63.5 -181.5t63.5 -181.5t168.5 -68.5t168.5 68.5t63.5 181.5zM524 690q-163 0 -261.5 102t-98.5 260 t98.5 260t261.5 102t261.5 -102t98.5 -260t-98.5 -260t-261.5 -102zM756 1052q0 113 -63.5 181.5t-168.5 68.5t-168.5 -68.5t-63.5 -181.5t63.5 -181.5t168.5 -68.5t168.5 68.5t63.5 181.5zM376 50l1123 1320q15 17 24 23.5t26 6.5h61q21 0 28.5 -17.5t-5.5 -32.5 l-1123 -1320q-15 -17 -24 -23.5t-26 -6.5h-61q-21 0 -28.5 17.5t5.5 32.5z" />
<glyph unicode="&#x26;" horiz-adv-x="1560" d="M1204 296l297 -243q17 -13 10 -33t-29 -20h-80q-32 0 -69 30l-203 164q-201 -220 -544 -220q-103 0 -193 23.5t-159.5 68.5t-109.5 116.5t-40 161.5q0 133 89.5 234.5t268.5 179.5q-120 101 -175 184t-55 170q0 140 113.5 226t290.5 86q184 0 296 -88t112 -236 q0 -118 -82.5 -207.5t-259.5 -164.5l422 -348q75 141 84 342q1 12 9.5 21t20.5 9h71q13 0 21.5 -8t7.5 -21q-7 -249 -114 -427zM594 86q275 0 438 188l-490 400q-171 -67 -247.5 -149t-76.5 -185q0 -116 106 -185t270 -69zM346 1114q0 -63 49.5 -131t182.5 -175 q165 67 238.5 138.5t73.5 155.5q0 94 -76.5 152t-201.5 58q-119 0 -192.5 -57.5t-73.5 -140.5z" />
<glyph unicode="'" horiz-adv-x="536" d="M207 873l-12 495q-1 13 8.5 22.5t21.5 9.5h87q13 0 21.5 -9t8.5 -22v-65l-26 -432q-1 -11 -10 -19.5t-20 -8.5h-48q-12 0 -21.5 8.5t-9.5 20.5z" />
<glyph unicode="(" horiz-adv-x="756" d="M204 620q0 241 90 461t252 398q20 21 49 21h32q20 0 28.5 -16.5t-4.5 -32.5q-151 -187 -233 -399t-82 -432t82 -432t233 -399q13 -16 4.5 -32.5t-28.5 -16.5h-32q-29 0 -49 21q-162 178 -252 398t-90 461z" />
<glyph unicode=")" horiz-adv-x="756" d="M552 620q0 -241 -90 -461t-252 -398q-20 -21 -49 -21h-32q-20 0 -28.5 16.5t4.5 32.5q151 187 233 399t82 432t-82 432t-233 399q-13 16 -4.5 32.5t28.5 16.5h32q29 0 49 -21q162 -178 252 -398t90 -461z" />
<glyph unicode="*" horiz-adv-x="1050" d="M140 479q-6 10 -2.5 22.5t14.5 18.5l267 144l-267 144q-11 6 -14.5 18.5t2.5 22.5l32 56q6 11 18.5 14t23.5 -4l259 -160l-10 304q-1 13 8 22t22 9h64q13 0 22 -9t8 -22l-11 -304l260 160q11 7 23.5 4t18.5 -14l32 -56q6 -10 2.5 -22.5t-14.5 -18.5l-268 -144l268 -144 q11 -6 14.5 -18.5t-2.5 -22.5l-32 -56q-16 -25 -42 -10l-260 159l11 -303q1 -13 -8 -22t-22 -9h-64q-13 0 -22 9t-8 22l10 303l-259 -159q-11 -7 -23.5 -4t-18.5 14z" />
<glyph unicode="+" d="M590 212v394h-436q-13 0 -21.5 8.5t-8.5 21.5v56q0 13 8.5 21.5t21.5 8.5h436v394q0 13 9 21.5t21 8.5h68q13 0 21.5 -8.5t8.5 -21.5v-394h435q13 0 22 -8.5t9 -21.5v-56q0 -13 -9 -21.5t-22 -8.5h-435v-394q0 -13 -8.5 -21.5t-21.5 -8.5h-68q-12 0 -21 8.5t-9 21.5z" />
<glyph unicode="," horiz-adv-x="660" d="M297 -237q-4 -4 -11 -4t-11 4l-21 26q-7 9 1 20q60 77 69 167q-44 2 -64 28.5t-20 83.5q0 58 21.5 85t68.5 27t68.5 -27t21.5 -85q0 -113 -27 -189.5t-96 -135.5z" />
<glyph unicode="-" horiz-adv-x="846" d="M692 602h-538q-13 0 -21.5 8.5t-8.5 21.5v64q0 13 8.5 21.5t21.5 8.5h538q13 0 21.5 -8.5t8.5 -21.5v-64q0 -13 -8.5 -21.5t-21.5 -8.5z" />
<glyph unicode="." horiz-adv-x="660" d="M420 88q0 -112 -90 -112t-90 112t90 112t90 -112z" />
<glyph unicode="/" horiz-adv-x="1148" d="M9 -179l1009 1655q11 20 37 20h68q18 0 22 -12t-6 -29l-1009 -1655q-11 -20 -37 -20h-68q-18 0 -22 12t6 29z" />
<glyph unicode="0" horiz-adv-x="1320" d="M74 700q0 216 65.5 377.5t199 254t321.5 92.5t321.5 -92.5t199 -254t65.5 -377.5t-65.5 -377.5t-199 -254t-321.5 -92.5t-321.5 92.5t-199 254t-65.5 377.5zM214 700q0 -284 117.5 -444t328.5 -160q212 0 329 159.5t117 444.5q0 284 -117.5 444t-328.5 160t-328.5 -160 t-117.5 -444z" />
<glyph unicode="1" horiz-adv-x="1320" d="M293 1148l394 234q30 18 64 18h71q13 0 21.5 -9t8.5 -22v-1339q0 -13 -8.5 -21.5t-21.5 -8.5h-76q-13 0 -21.5 8.5t-8.5 21.5v1218l-359 -206q-10 -6 -22.5 -4t-18.5 12l-34 56q-6 10 -2.5 23t13.5 19z" />
<glyph unicode="2" horiz-adv-x="1320" d="M283 1241q-15 -7 -28 -0.5t-15 25.5l-6 59q-3 22 19 32q73 31 173.5 49t193.5 18q155 0 271 -41t184.5 -129.5t68.5 -215.5q0 -134 -67 -250t-213 -258q-249 -240 -488 -410h749q13 0 22 -9t9 -22v-59q0 -13 -9 -21.5t-22 -8.5h-931q-13 0 -21.5 8.5t-8.5 21.5v71 q0 16 12 24q292 200 564 463q139 133 201.5 239t62.5 215q0 129 -106 195.5t-290 66.5q-176 0 -325 -63z" />
<glyph unicode="3" horiz-adv-x="1320" d="M188 26q-20 6 -17 31l7 66q1 15 13 22t27 2q147 -51 346 -51q217 0 332.5 71t115.5 191q0 296 -596 316q-22 1 -22 30v62q0 28 22 28q268 7 420 78.5t152 207.5q0 101 -99 162.5t-295 61.5q-192 0 -341 -56q-13 -5 -25.5 2t-14.5 21l-7 57q-2 11 3 20.5t15 13.5 q173 62 376 62q260 0 394 -90t134 -240q0 -151 -104.5 -240.5t-285.5 -121.5q199 -34 306.5 -128t107.5 -246q0 -174 -148.5 -278t-433.5 -104q-213 0 -382 50z" />
<glyph unicode="4" horiz-adv-x="1320" d="M66 350v58q0 34 27 64l784 917q9 11 29 11h102q13 0 21.5 -9t8.5 -22v-933h183q13 0 22 -8.5t9 -21.5v-56q0 -13 -9 -21.5t-22 -8.5h-183v-290q0 -13 -8.5 -21.5t-21.5 -8.5h-76q-13 0 -21.5 8.5t-8.5 21.5v290h-806q-13 0 -21.5 8.5t-8.5 21.5zM902 1210l-678 -774h678 v774z" />
<glyph unicode="5" horiz-adv-x="1320" d="M232 722v647q0 13 8.5 22t21.5 9h815q13 0 22 -9t9 -22v-55q0 -13 -9 -21.5t-22 -8.5h-709v-464q136 34 255 34q250 0 393.5 -111.5t143.5 -320.5q0 -199 -157.5 -322.5t-445.5 -123.5q-208 0 -373 52q-10 3 -16 12.5t-5 19.5l7 64q2 15 14.5 22.5t26.5 2.5 q152 -53 339 -53q222 0 346 91t124 245q0 81 -35 141.5t-97 94.5t-136.5 50t-162.5 16q-166 0 -320 -41q-14 -4 -25.5 5t-11.5 24z" />
<glyph unicode="6" horiz-adv-x="1320" d="M676 778q-117 0 -229.5 -50.5t-196.5 -137.5q14 -239 125 -366.5t313 -127.5q171 0 280.5 94.5t109.5 245.5q0 158 -105 250t-297 92zM1056 1258q-118 46 -280 46q-248 0 -381 -149.5t-147 -428.5q91 79 208 125.5t236 46.5q151 0 270 -55t187.5 -160.5t68.5 -244.5 q0 -101 -41.5 -188t-112.5 -147t-168 -93.5t-206 -33.5q-125 0 -230 41t-186.5 123t-127.5 216t-46 308q0 196 48.5 343.5t139 237.5t212.5 134.5t276 44.5q170 0 302 -45q10 -3 16.5 -13t4.5 -20l-7 -63q-2 -16 -11.5 -23t-24.5 -2z" />
<glyph unicode="7" horiz-adv-x="1320" d="M1156 1369v-54q0 -42 -21 -82l-601 -1209q-12 -24 -35 -24h-83q-18 0 -26.5 13.5t-0.5 29.5l617 1239h-812q-13 0 -21.5 8.5t-8.5 21.5v57q0 13 8.5 22t21.5 9h931q13 0 22 -9t9 -22z" />
<glyph unicode="8" horiz-adv-x="1320" d="M94 362q0 121 102 223.5t266 158.5q-298 119 -298 338q0 153 138.5 247.5t357.5 94.5q223 0 358.5 -93.5t135.5 -246.5q0 -111 -86 -200t-230 -144q114 -45 190 -89.5t118.5 -91.5t60 -94.5t17.5 -106.5q0 -175 -153.5 -278.5t-410.5 -103.5q-258 0 -412 103t-154 283z M1084 356q0 90 -103.5 170t-358.5 164q-181 -56 -284.5 -143t-103.5 -187q0 -117 114.5 -190.5t311.5 -73.5q188 0 306 75t118 185zM304 1082q0 -91 80 -147t310 -141q148 51 235 126.5t87 161.5q0 93 -95 157.5t-261 64.5q-157 0 -256.5 -65t-99.5 -157z" />
<glyph unicode="9" horiz-adv-x="1320" d="M642 622q117 0 229.5 50.5t196.5 137.5q-14 239 -125 366.5t-313 127.5q-171 0 -280.5 -94.5t-109.5 -245.5q0 -158 105 -250t297 -92zM262 142q118 -46 280 -46q248 0 381 149.5t147 428.5q-91 -79 -208 -125.5t-236 -46.5q-151 0 -270 55t-187.5 160.5t-68.5 244.5 q0 101 41.5 188t112.5 147t168 93.5t206 33.5q125 0 230 -41t186.5 -123t127.5 -216t46 -308q0 -196 -48.5 -343.5t-139 -237.5t-212.5 -134.5t-276 -44.5q-170 0 -302 45q-10 3 -16.5 13t-4.5 20l7 63q2 16 11.5 23t24.5 2z" />
<glyph unicode=":" horiz-adv-x="660" d="M420 88q0 -112 -90 -112t-90 112t90 112t90 -112zM420 948q0 -112 -90 -112t-90 112t90 112t90 -112z" />
<glyph unicode=";" horiz-adv-x="660" d="M420 948q0 -112 -90 -112t-90 112t90 112t90 -112zM297 -237q-4 -4 -11 -4t-11 4l-21 26q-7 9 1 20q60 77 69 167q-44 2 -64 28.5t-20 83.5q0 58 21.5 85t68.5 27t68.5 -27t21.5 -85q0 -113 -27 -189.5t-96 -135.5z" />
<glyph unicode="&#x3c;" d="M124 626v76q0 20 19 28l999 419q16 7 29 -2t13 -26v-57q0 -25 -19 -32l-897 -368l897 -368q19 -7 19 -32v-57q0 -17 -13 -26t-29 -2l-999 419q-19 8 -19 28z" />
<glyph unicode="=" d="M1153 826h-999q-13 0 -21.5 8.5t-8.5 21.5v56q0 13 8.5 21.5t21.5 8.5h999q13 0 22 -8.5t9 -21.5v-56q0 -13 -9 -21.5t-22 -8.5zM1153 386h-999q-13 0 -21.5 8.5t-8.5 21.5v56q0 13 8.5 21.5t21.5 8.5h999q13 0 22 -8.5t9 -21.5v-56q0 -13 -9 -21.5t-22 -8.5z" />
<glyph unicode="&#x3e;" d="M1184 702v-76q0 -20 -19 -28l-999 -419q-16 -7 -29 2t-13 26v57q0 25 19 32l897 368l-897 368q-19 7 -19 32v57q0 17 13 26t29 2l999 -419q19 -8 19 -28z" />
<glyph unicode="?" horiz-adv-x="1180" d="M564 398v-20q0 -13 -8.5 -21.5t-21.5 -8.5h-76q-13 0 -21.5 8.5t-8.5 21.5v28q0 137 48.5 227t167.5 161q136 81 190 147.5t54 150.5q0 206 -396 206q-182 0 -338 -62q-15 -6 -27.5 1.5t-14.5 23.5l-6 68q-1 9 5 18t14 12q170 65 375 65q264 0 400 -85.5t136 -248.5 q0 -215 -288 -382q-104 -61 -144 -131.5t-40 -178.5zM584 88q0 -112 -90 -112t-90 112t90 112t90 -112z" />
<glyph unicode="@" horiz-adv-x="1942" d="M856 218q227 0 360 186l68 372q-81 112 -256 112q-78 0 -153 -34t-131 -91t-90 -137t-34 -168q0 -110 65 -175t171 -65zM1505 -182q-243 -142 -517 -142q-251 0 -455.5 113.5t-321.5 313.5t-117 445q0 185 67.5 348t183.5 278.5t276.5 182.5t340.5 67q252 0 454.5 -107.5 t317 -298t114.5 -428.5q0 -214 -102 -352t-272 -138q-88 0 -145.5 50t-78.5 140q-155 -180 -402 -180q-149 0 -250.5 94.5t-101.5 241.5q0 118 46 221.5t121.5 173.5t172 110.5t196.5 40.5q213 0 342 -143q42 -45 29 -114l-67 -353q0 -89 38.5 -140.5t105.5 -51.5 q116 0 188 115.5t72 284.5q0 205 -98.5 372.5t-277 264.5t-402.5 97q-158 0 -299 -60t-242 -162.5t-160 -247t-59 -306.5q0 -163 60.5 -306.5t165 -245.5t250 -161t310.5 -59q263 0 469 130q12 7 24 3.5t18 -16.5l15 -33q14 -28 -9 -42z" />
<glyph unicode="A" horiz-adv-x="1490" d="M1152 382h-814l-157 -344q-17 -38 -58 -38h-61q-18 0 -26.5 14t-1.5 30l620 1330q11 26 39 26h104q28 0 39 -26l620 -1330q8 -16 -1 -30t-27 -14h-61q-41 0 -58 38zM392 498h706l-353 770z" />
<glyph unicode="B" horiz-adv-x="1404" d="M740 0h-546q-13 0 -21.5 9t-8.5 22v1338q0 13 8.5 22t21.5 9h526q239 0 377.5 -100t138.5 -262q0 -111 -57.5 -187t-160.5 -115q149 -39 225.5 -127t76.5 -217q0 -187 -148.5 -289.5t-431.5 -102.5zM1182 394q0 129 -103.5 201.5t-300.5 72.5h-478v-552h424 q227 0 342.5 71t115.5 207zM1100 1030q0 119 -105.5 186.5t-292.5 67.5h-402v-500h462q163 0 250.5 67t87.5 179z" />
<glyph unicode="C" horiz-adv-x="1384" d="M1276 22q-150 -46 -344 -46q-391 0 -614.5 195.5t-223.5 528.5q0 330 223.5 527t608.5 197q203 0 341 -45q23 -8 22 -33l-7 -63q-1 -16 -13.5 -22t-26.5 -1q-131 44 -308 44q-324 0 -512 -164.5t-188 -439.5q0 -280 189 -442t515 -162q174 0 311 47q16 6 27.5 -0.5 t13.5 -22.5l7 -65q3 -25 -21 -33z" />
<glyph unicode="D" horiz-adv-x="1534" d="M1300 700q0 196 -96.5 328.5t-269 194t-416.5 61.5h-218v-1168h218q182 0 325 35t245.5 106t157 183t54.5 260zM538 0h-343q-13 0 -22 9t-9 22v1338q0 13 9 22t22 9h343q204 0 369 -45t284 -131.5t184 -220t65 -303.5q0 -227 -114 -386.5t-314.5 -236.5t-473.5 -77z" />
<glyph unicode="E" horiz-adv-x="1268" d="M164 31v1338q0 13 9 22t22 9h938q13 0 22 -9t9 -22v-54q0 -13 -9 -22t-22 -9h-833v-504h787q13 0 22 -8.5t9 -21.5v-56q0 -13 -9 -21.5t-22 -8.5h-787v-548h853q13 0 22 -9t9 -22v-54q0 -13 -9 -22t-22 -9h-958q-13 0 -22 9t-9 22z" />
<glyph unicode="F" horiz-adv-x="1212" d="M164 31v1338q0 13 9 22t22 9h939q13 0 21.5 -9t8.5 -22v-54q0 -13 -8.5 -22t-21.5 -9h-834v-500h777q13 0 22 -8.5t9 -21.5v-55q0 -13 -9 -22t-22 -9h-777v-637q0 -13 -9 -22t-22 -9h-74q-13 0 -22 9t-9 22z" />
<glyph unicode="G" horiz-adv-x="1600" d="M1372 1239q-177 65 -410 65q-327 0 -527.5 -169t-200.5 -435q0 -273 205 -438.5t551 -165.5q190 0 324 40v496h-468q-13 0 -21.5 9t-8.5 22v54q0 13 8.5 22t21.5 9h579q13 0 22 -9t9 -22v-624q0 -47 -38 -59q-188 -58 -434 -58q-201 0 -368.5 54t-281.5 149.5t-177 229.5 t-63 291q0 154 60.5 287t170.5 229.5t272.5 152t358.5 55.5q227 0 433 -60q31 -10 28 -36l-8 -70q-1 -14 -12.5 -19t-24.5 0z" />
<glyph unicode="H" horiz-adv-x="1566" d="M164 31v1338q0 13 8.5 22t21.5 9h75q13 0 22 -9t9 -22v-565h966v565q0 13 9 22t22 9h75q13 0 21.5 -9t8.5 -22v-1338q0 -13 -8.5 -22t-21.5 -9h-75q-13 0 -22 9t-9 22v657h-966v-657q0 -13 -9 -22t-22 -9h-75q-13 0 -21.5 9t-8.5 22z" />
<glyph unicode="I" horiz-adv-x="484" d="M204 1400h76q13 0 21.5 -9t8.5 -22v-1338q0 -13 -8.5 -22t-21.5 -9h-76q-13 0 -21.5 9t-8.5 22v1338q0 13 8.5 22t21.5 9z" />
<glyph unicode="J" horiz-adv-x="994" d="M690 456v913q0 13 9 22t22 9h78q13 0 22 -9t9 -22v-909q0 -484 -480 -484q-158 0 -291 49q-35 14 -32 51l5 49q2 15 14.5 22.5t28.5 0.5q118 -52 273 -52q342 0 342 360z" />
<glyph unicode="K" horiz-adv-x="1358" d="M300 1369v-606l752 609q34 28 74 28h66q23 0 30 -19t-11 -33l-743 -602l847 -691q18 -14 11 -34.5t-30 -20.5h-72q-41 0 -64 18l-860 703v-690q0 -13 -9 -22t-22 -9h-74q-13 0 -22 9t-9 22v1338q0 13 9 22t22 9h74q13 0 22 -9t9 -22z" />
<glyph unicode="L" horiz-adv-x="1276" d="M164 31v1338q0 13 8.5 22t21.5 9h80q13 0 21.5 -9t8.5 -22v-1253h897q13 0 22 -9t9 -22v-54q0 -13 -9 -22t-22 -9h-1007q-13 0 -21.5 9t-8.5 22z" />
<glyph unicode="M" horiz-adv-x="1888" d="M962 468h-36q-33 0 -57 29l-569 707v-1173q0 -13 -8.5 -22t-21.5 -9h-76q-13 0 -21.5 9t-8.5 22v1338q0 13 8.5 22t21.5 9h85q40 0 64 -32l601 -754l601 754q24 32 64 32h85q13 0 21.5 -9t8.5 -22v-1338q0 -13 -8.5 -22t-21.5 -9h-76q-13 0 -21.5 9t-8.5 22v1173 l-569 -707q-24 -29 -57 -29z" />
<glyph unicode="N" horiz-adv-x="1570" d="M1216 26l-916 1196v-1191q0 -13 -9 -22t-22 -9h-75q-13 0 -21.5 9t-8.5 22v1338q0 13 8.5 22t21.5 9h107q33 0 53 -26l916 -1196v1191q0 13 9 22t22 9h75q13 0 21.5 -9t8.5 -22v-1338q0 -13 -8.5 -22t-21.5 -9h-107q-33 0 -53 26z" />
<glyph unicode="O" horiz-adv-x="1634" d="M1540 700q0 -153 -50.5 -285.5t-142 -229.5t-228.5 -153t-301 -56q-165 0 -302.5 56t-229 153t-142 229.5t-50.5 285.5t50.5 285.5t142 229.5t229 153t302.5 56q164 0 301 -56t228.5 -153t142 -229.5t50.5 -285.5zM234 700q0 -270 158.5 -437t425.5 -167t424.5 167 t157.5 437t-157.5 437t-424.5 167t-425.5 -167t-158.5 -437z" />
<glyph unicode="P" horiz-adv-x="1318" d="M300 542v-511q0 -13 -9 -22t-22 -9h-74q-13 0 -22 9t-9 22v1338q0 13 9 22t22 9h435q289 0 451.5 -111.5t162.5 -316.5q0 -207 -162.5 -318.5t-451.5 -111.5h-330zM1104 972q0 155 -126.5 233.5t-359.5 78.5h-318v-626h318q233 0 359.5 79.5t126.5 234.5z" />
<glyph unicode="Q" horiz-adv-x="1634" d="M234 700q0 -270 158.5 -437t425.5 -167t424.5 167t157.5 437t-157.5 437t-424.5 167t-425.5 -167t-158.5 -437zM772 -22q-206 10 -361.5 108t-236 257.5t-80.5 356.5q0 153 50.5 285.5t142 229.5t229 153t302.5 56q164 0 301 -56t228.5 -153t142 -229.5t50.5 -285.5 q0 -189 -74 -344t-217 -254.5t-335 -119.5q26 -174 318 -174q96 0 172 16q32 6 37 -26l8 -52q1 -12 -6.5 -22t-19.5 -12q-84 -18 -197 -18q-122 0 -215 26t-159 91.5t-80 166.5z" />
<glyph unicode="R" horiz-adv-x="1392" d="M886 622l441 -569q13 -17 6.5 -35t-26.5 -18h-71q-35 0 -56 29l-434 573q-50 -2 -82 -2h-363v-569q0 -13 -9 -22t-22 -9h-75q-13 0 -22 9t-9 22v1338q0 13 9 22t22 9h469q269 0 430.5 -106.5t161.5 -293.5q0 -144 -98 -242t-272 -136zM1116 1000q0 135 -120.5 209.5 t-343.5 74.5h-352v-568h352q223 0 343.5 74.5t120.5 209.5z" />
<glyph unicode="S" horiz-adv-x="1218" d="M149 44q-35 13 -32 49l5 50q2 16 13 24.5t26 2.5q183 -74 399 -74q209 0 316.5 70t107.5 188q0 107 -97.5 180t-320.5 134q-250 68 -356 162t-106 244q0 164 145 257t405 93q200 0 350 -44q31 -9 29 -34l-5 -59q-2 -16 -13 -23.5t-26 -3.5q-152 44 -331 44 q-203 0 -308.5 -62t-105.5 -164q0 -99 86.5 -166t285.5 -124q279 -81 393.5 -178.5t114.5 -251.5q0 -182 -145 -282t-427 -100q-216 0 -403 68z" />
<glyph unicode="T" horiz-adv-x="1260" d="M562 31v1253h-508q-13 0 -21.5 9t-8.5 22v54q0 13 8.5 22t21.5 9h1152q13 0 21.5 -9t8.5 -22v-54q0 -13 -8.5 -22t-21.5 -9h-508v-1253q0 -13 -9 -22t-22 -9h-74q-13 0 -22 9t-9 22z" />
<glyph unicode="U" horiz-adv-x="1604" d="M802 -24q-139 0 -253.5 34.5t-201.5 102.5t-135 177.5t-48 251.5v827q0 13 9 22t22 9h78q13 0 22 -9t9 -22v-812q0 -226 130 -343.5t368 -117.5t368 117.5t130 343.5v812q0 13 9 22t22 9h78q13 0 22 -9t9 -22v-827q0 -142 -48 -251.5t-135 -177.5t-201.5 -102.5 t-253.5 -34.5z" />
<glyph unicode="V" horiz-adv-x="1550" d="M820 0h-92q-41 0 -60 39l-604 1318q-7 16 1.5 29.5t26.5 13.5h70q38 0 54 -35l558 -1231l558 1231q16 35 54 35h70q18 0 26.5 -13.5t1.5 -29.5l-604 -1318q-19 -39 -60 -39z" />
<glyph unicode="W" horiz-adv-x="2304" d="M1111 1400h82q45 0 59 -45l380 -1195l463 1201q15 39 53 39h67q17 0 26 -13t3 -29l-512 -1326q-12 -32 -41 -32h-120q-32 0 -43 32l-376 1200l-376 -1200q-11 -32 -43 -32h-120q-29 0 -41 32l-512 1326q-6 16 3 29t26 13h67q38 0 53 -39l463 -1201l380 1195q14 45 59 45z " />
<glyph unicode="X" horiz-adv-x="1538" d="M769 612l-534 -586q-24 -26 -61 -26h-82q-21 0 -25 17.5t12 33.5l600 659l-581 639q-16 16 -12 33.5t25 17.5h82q37 0 61 -26l515 -566l515 566q24 26 61 26h82q21 0 25 -17.5t-12 -33.5l-582 -639l601 -659q16 -16 12 -33.5t-25 -17.5h-82q-37 0 -61 26z" />
<glyph unicode="Y" horiz-adv-x="1532" d="M805 0h-78q-13 0 -22 9t-9 22v525l-614 795q-12 17 -4 33t28 16h61q45 0 73 -36l526 -683l526 683q28 36 73 36h61q20 0 28 -16t-4 -33l-614 -795v-525q0 -13 -9 -22t-22 -9z" />
<glyph unicode="Z" horiz-adv-x="1296" d="M64 31v58q0 32 16 52l956 1139h-906q-13 0 -21.5 8.5t-8.5 21.5v59q0 13 8.5 22t21.5 9h1047q13 0 22 -9t9 -22v-53q0 -41 -34 -80l-938 -1116h965q13 0 22 -8.5t9 -21.5v-59q0 -13 -9 -22t-22 -9h-1106q-13 0 -22 9t-9 22z" />
<glyph unicode="[" horiz-adv-x="836" d="M244 -230v1700q0 13 9 21.5t22 8.5h486q13 0 22 -8.5t9 -21.5v-52q0 -13 -9 -21.5t-22 -8.5h-379v-1536h379q13 0 22 -8.5t9 -21.5v-52q0 -13 -9 -21.5t-22 -8.5h-486q-13 0 -22 8.5t-9 21.5z" />
<glyph unicode="\" horiz-adv-x="1148" d="M130 1476l1009 -1655q10 -17 6 -29t-22 -12h-68q-26 0 -37 20l-1009 1655q-10 17 -6 29t22 12h68q26 0 37 -20z" />
<glyph unicode="]" horiz-adv-x="836" d="M592 1470v-1700q0 -13 -9 -21.5t-22 -8.5h-486q-13 0 -22 8.5t-9 21.5v52q0 13 9 21.5t22 8.5h379v1536h-379q-13 0 -22 8.5t-9 21.5v52q0 13 9 21.5t22 8.5h486q13 0 22 -8.5t9 -21.5z" />
<glyph unicode="^" d="M598 1400h112q17 0 25 -13l434 -610q11 -16 5.5 -27.5t-24.5 -11.5h-79q-32 0 -57 37l-360 517l-360 -517q-25 -37 -57 -37h-79q-19 0 -24.5 11.5t5.5 27.5l434 610q8 13 25 13z" />
<glyph unicode="_" horiz-adv-x="1000" d="M0 -310v52q0 13 8.5 21.5t21.5 8.5h940q13 0 21.5 -8.5t8.5 -21.5v-52q0 -13 -8.5 -21.5t-21.5 -8.5h-940q-13 0 -21.5 8.5t-8.5 21.5z" />
<glyph unicode="`" horiz-adv-x="920" d="M659 1136h-69q-22 0 -37 14l-309 286q-9 8 -6.5 16t15.5 8h121q17 0 29 -13l261 -289q6 -7 4.5 -14.5t-9.5 -7.5z" />
<glyph unicode="a" horiz-adv-x="1288" d="M986 316h-684l-138 -304q-6 -12 -19 -12h-100q-11 0 -17 9t-1 20l531 1149q6 12 18 12h136q12 0 18 -12l531 -1149q5 -11 -1 -20t-17 -9h-100q-13 0 -19 12zM352 428h584l-292 640z" />
<glyph unicode="b" horiz-adv-x="1188" d="M644 0h-479q-9 0 -15 6t-6 14v1150q0 8 6 14t15 6h461q205 0 321.5 -85.5t116.5 -224.5q0 -180 -168 -254q115 -34 176.5 -108.5t61.5 -179.5q0 -162 -125 -250t-365 -88zM998 338q0 106 -84.5 165t-249.5 59h-388v-450h350q372 0 372 226zM928 872q0 98 -84 152t-238 54 h-330v-404h370q137 0 209.5 53t72.5 145z" />
<glyph unicode="c" horiz-adv-x="1172" d="M74 594q0 285 190 452.5t520 167.5q171 0 299 -41q17 -6 15 -22l-9 -76q-4 -25 -27 -17q-107 40 -272 40q-270 0 -425 -137t-155 -367q0 -233 157 -367t427 -134q168 0 275 44q10 4 18 -0.5t10 -15.5l9 -82q2 -16 -15 -22q-140 -41 -303 -41q-334 0 -524 166t-190 452z " />
<glyph unicode="d" horiz-adv-x="1310" d="M1100 594q0 243 -169 363.5t-477 120.5h-178v-966h178q308 0 477 120t169 362zM476 0h-311q-9 0 -15 6t-6 14v1150q0 8 6 14t15 6h311q229 0 398.5 -66t265.5 -201.5t96 -328.5t-96.5 -328t-265.5 -200.5t-398 -65.5z" />
<glyph unicode="e" horiz-adv-x="1090" d="M144 20v1150q0 8 6 14t15 6h815q8 0 14 -6t6 -14v-72q0 -8 -6 -14t-14 -6h-704v-408h663q21 0 21 -20v-71q0 -9 -6 -15t-15 -6h-663v-446h719q9 0 15 -6t6 -14v-72q0 -8 -6 -14t-15 -6h-830q-9 0 -15 6t-6 14z" />
<glyph unicode="f" horiz-adv-x="1064" d="M144 20v1150q0 8 6 14t14 6h816q8 0 14 -6t6 -14v-72q0 -8 -6 -14t-14 -6h-704v-408h657q21 0 21 -20v-71q0 -9 -6 -15t-15 -6h-657v-538q0 -8 -6 -14t-15 -6h-91q-8 0 -14 6t-6 14z" />
<glyph unicode="g" horiz-adv-x="1364" d="M1174 1040q-153 58 -358 58q-274 0 -440 -141t-166 -363q0 -227 170 -364.5t458 -137.5q174 0 270 32v408h-400q-9 0 -14.5 6t-5.5 14v72q0 20 20 20h512q8 0 14 -5.5t6 -14.5v-570q0 -13 -14 -19q-171 -59 -394 -59q-229 0 -402 79.5t-264.5 219t-91.5 319.5 q0 132 51 245.5t144.5 196.5t232 130.5t306.5 47.5q212 0 386 -55q16 -6 14 -21l-7 -79q-1 -11 -9 -17t-18 -2z" />
<glyph unicode="h" horiz-adv-x="1350" d="M144 20v1150q0 8 6 14t14 6h92q9 0 14.5 -6t5.5 -14v-480h798v480q0 8 6 14t15 6h90q9 0 15 -6t6 -14v-1150q0 -8 -6 -14t-15 -6h-90q-9 0 -15 6t-6 14v558h-798v-558q0 -8 -5.5 -14t-14.5 -6h-92q-8 0 -14 6t-6 14z" />
<glyph unicode="i" horiz-adv-x="440" d="M174 1190h92q8 0 14 -6t6 -14v-1150q0 -8 -6 -14t-14 -6h-92q-9 0 -14.5 6t-5.5 14v1150q0 8 5.5 14t14.5 6z" />
<glyph unicode="j" horiz-adv-x="862" d="M586 388v782q0 8 6 14t14 6h92q9 0 14.5 -6t5.5 -14v-780q0 -414 -414 -414q-153 0 -270 47q-15 6 -13 19l8 85q3 26 29 14q105 -49 244 -49q284 0 284 296z" />
<glyph unicode="k" horiz-adv-x="1192" d="M276 1170v-521l627 524q20 17 41 17h107q14 0 19 -13t-7 -23l-625 -520l715 -598q11 -10 6.5 -23t-19.5 -13h-112q-28 0 -51 20l-701 591v-591q0 -8 -6 -14t-14 -6h-92q-9 0 -14.5 6t-5.5 14v1150q0 8 5.5 14t14.5 6h92q8 0 14 -6t6 -14z" />
<glyph unicode="l" horiz-adv-x="1092" d="M144 20v1150q0 8 5.5 14t14.5 6h92q8 0 14 -6t6 -14v-1058h762q9 0 14.5 -6t5.5 -14v-72q0 -8 -5.5 -14t-14.5 -6h-874q-9 0 -14.5 6t-5.5 14z" />
<glyph unicode="m" horiz-adv-x="1624" d="M843 394h-62q-16 0 -23 10l-482 612v-996q0 -8 -6 -14t-14 -6h-91q-9 0 -15 6t-6 14v1150q0 8 6 14t15 6h118q7 0 15 -8l514 -650l514 650q8 8 15 8h118q9 0 15 -6t6 -14v-1150q0 -8 -6 -14t-15 -6h-91q-8 0 -14 6t-6 14v996l-482 -612q-7 -10 -23 -10z" />
<glyph unicode="n" horiz-adv-x="1350" d="M314 1182l760 -1016v1004q0 8 5.5 14t14.5 6h92q8 0 14 -6t6 -14v-1150q0 -8 -6 -14t-14 -6h-134q-10 0 -16 8l-760 1016v-1004q0 -8 -5.5 -14t-14.5 -6h-92q-8 0 -14 6t-6 14v1150q0 8 6 14t14 6h134q10 0 16 -8z" />
<glyph unicode="o" horiz-adv-x="1388" d="M1314 594q0 -173 -74.5 -313t-217 -222.5t-328.5 -82.5t-328.5 82.5t-217 222.5t-74.5 313q0 174 74.5 314.5t217 223t328.5 82.5t328.5 -82.5t217 -223t74.5 -314.5zM210 594q0 -223 133 -362.5t351 -139.5t351 139.5t133 362.5q0 225 -133 364.5t-351 139.5 t-351 -139.5t-133 -364.5z" />
<glyph unicode="p" horiz-adv-x="1136" d="M1072 824q0 -177 -137 -272.5t-383 -95.5h-276v-436q0 -8 -6 -14t-14 -6h-92q-8 0 -14 6t-6 14v1150q0 8 6 14t14 6h388q245 0 382.5 -95t137.5 -271zM936 824q0 125 -102.5 189.5t-293.5 64.5h-264v-510h264q191 0 293.5 64.5t102.5 191.5z" />
<glyph unicode="q" horiz-adv-x="1388" d="M1314 594q0 -242 -143 -412t-385 -200q25 -134 264 -134q81 0 152 17q20 5 24 -17l11 -71q3 -18 -18 -22q-92 -17 -177 -17q-104 0 -184 22.5t-138 77.5t-72 140q-174 10 -305.5 94.5t-200 220t-68.5 301.5q0 174 74.5 314.5t217 223t328.5 82.5t328.5 -82.5t217 -223 t74.5 -314.5zM210 594q0 -223 133 -362.5t351 -139.5t351 139.5t133 362.5q0 225 -133 364.5t-351 139.5t-351 -139.5t-133 -364.5z" />
<glyph unicode="r" horiz-adv-x="1200" d="M1139 0h-85q-30 0 -46 21l-375 483q-32 -2 -107 -2h-250v-482q0 -8 -6 -14t-14 -6h-92q-9 0 -14.5 6t-5.5 14v1150q0 8 5.5 14t14.5 6h416q226 0 364 -92t138 -252q0 -121 -80.5 -205t-227.5 -118l381 -490q8 -11 3 -22t-19 -11zM568 1078h-292v-464h292q182 0 280 60 t98 172q0 111 -98.5 171.5t-279.5 60.5z" />
<glyph unicode="s" horiz-adv-x="1036" d="M862 1056q-119 40 -292 40q-168 0 -254 -49.5t-86 -132.5q0 -80 72.5 -135.5t235.5 -102.5q238 -68 335 -152.5t97 -217.5q0 -159 -123 -244.5t-369 -85.5q-200 0 -362 65q-15 6 -13 21l10 78q2 11 9.5 16t17.5 1q148 -65 348 -65q172 0 259 56t87 154q0 87 -80 147 t-264 111q-214 58 -305 139t-91 211q0 143 123.5 223.5t348.5 80.5q185 0 315 -43q17 -6 15 -22l-7 -76q-1 -10 -9 -15t-18 -2z" />
<glyph unicode="t" horiz-adv-x="1104" d="M486 20v1058h-432q-9 0 -14.5 6t-5.5 14v72q0 8 5.5 14t14.5 6h996q8 0 14 -6t6 -14v-72q0 -8 -6 -14t-14 -6h-432v-1058q0 -8 -6 -14t-14 -6h-92q-9 0 -14.5 6t-5.5 14z" />
<glyph unicode="u" horiz-adv-x="1380" d="M690 -24q-119 0 -217.5 29.5t-172.5 87.5t-115 151t-41 214v712q0 8 6 14t15 6h90q9 0 15 -6t6 -14v-698q0 -185 107 -282.5t307 -97.5t307 97.5t107 282.5v698q0 8 6 14t15 6h90q9 0 15 -6t6 -14v-712q0 -121 -41 -214t-115 -151t-172.5 -87.5t-217.5 -29.5z" />
<glyph unicode="v" horiz-adv-x="1324" d="M731 0h-134q-13 0 -19 12l-531 1149q-5 11 1 20t18 9h94q19 0 28 -21l476 -1044l476 1044q9 21 28 21h94q12 0 18 -9t1 -20l-531 -1149q-6 -12 -19 -12z" />
<glyph unicode="w" horiz-adv-x="1956" d="M911 1190h134q5 0 11.5 -4.5t7.5 -9.5l318 -1024l392 1024q5 14 23 14h96q11 0 17 -8.5t2 -18.5l-437 -1146q-7 -17 -25 -17h-141q-5 0 -11.5 4.5t-7.5 9.5l-312 1016l-312 -1016q-1 -5 -7.5 -9.5t-11.5 -4.5h-141q-18 0 -25 17l-437 1146q-4 10 2 18.5t17 8.5h96 q18 0 23 -14l392 -1024l318 1024q1 5 7.5 9.5t11.5 4.5z" />
<glyph unicode="x" horiz-adv-x="1310" d="M655 693l441 486q11 11 24 11h103q14 0 19.5 -12t-3.5 -22l-502 -553l518 -569q9 -10 3.5 -22t-19.5 -12h-104q-13 0 -24 11l-456 502l-456 -502q-11 -11 -24 -11h-104q-14 0 -19.5 12t3.5 22l518 569l-502 553q-9 10 -3.5 22t19.5 12h103q13 0 24 -11z" />
<glyph unicode="y" d="M700 0h-92q-8 0 -14 6t-6 14v452l-530 687q-8 11 -3 21t19 10h97q19 0 28 -12l455 -588l455 588q9 12 28 12h97q14 0 19 -10t-3 -21l-530 -687v-452q0 -8 -6 -14t-14 -6z" />
<glyph unicode="z" horiz-adv-x="1136" d="M1046 1170v-70q0 -29 -21 -52l-789 -936h812q9 0 14.5 -6t5.5 -14v-72q0 -8 -5.5 -14t-14.5 -6h-960q-9 0 -14.5 6t-5.5 14v55q0 39 20 63l792 940h-760q-9 0 -14.5 6t-5.5 14v72q0 8 5.5 14t14.5 6h906q9 0 14.5 -6t5.5 -14z" />
<glyph unicode="{" horiz-adv-x="816" d="M164 593v54q0 23 23 29q71 18 112 67t41 129v354q0 149 71.5 211.5t216.5 62.5h114q30 0 30 -29v-51q0 -30 -30 -30h-102q-88 0 -127 -30t-39 -100v-374q0 -107 -37 -171t-133 -95q96 -31 133 -95t37 -171v-374q0 -70 39 -100t127 -30h102q30 0 30 -30v-51q0 -29 -30 -29 h-114q-145 0 -216.5 62.5t-71.5 211.5v354q0 80 -41 129t-112 67q-23 6 -23 29z" />
<glyph unicode="|" horiz-adv-x="560" d="M220 -370v1878q0 13 8.5 21.5t21.5 8.5h60q13 0 21.5 -8.5t8.5 -21.5v-1878q0 -13 -8.5 -21.5t-21.5 -8.5h-60q-13 0 -21.5 8.5t-8.5 21.5z" />
<glyph unicode="}" horiz-adv-x="816" d="M652 647v-54q0 -23 -23 -29q-71 -18 -112 -67t-41 -129v-354q0 -149 -71.5 -211.5t-216.5 -62.5h-114q-30 0 -30 29v51q0 30 30 30h102q88 0 127 30t39 100v374q0 107 37 171t133 95q-96 31 -133 95t-37 171v374q0 70 -39 100t-127 30h-102q-30 0 -30 30v51q0 29 30 29 h114q145 0 216.5 -62.5t71.5 -211.5v-354q0 -80 41 -129t112 -67q23 -6 23 -29z" />
<glyph unicode="~" d="M619 620q-119 96 -216 96q-143 0 -154 -178q-2 -28 -30 -28h-64q-32 0 -30 32q8 142 85 212t197 70q139 0 283 -114q119 -96 216 -96q143 0 154 178q2 28 30 28h64q32 0 30 -32q-8 -142 -85 -212t-197 -70q-139 0 -283 114z" />
<glyph unicode="&#xa1;" horiz-adv-x="528" d="M196 188l23 611q1 12 9.5 20.5t20.5 8.5h36q12 0 20.5 -8.5t9.5 -20.5l23 -611v-391q0 -13 -8.5 -22t-21.5 -9h-82q-13 0 -21.5 9t-8.5 22v391zM354 1078q0 -112 -90 -112t-90 112t90 112t90 -112z" />
<glyph unicode="&#xa2;" horiz-adv-x="1172" d="M74 594q0 255 154 418t428 195v163q0 8 6 14t15 6h63q8 0 14 -6t6 -14v-157q4 0 12 0.5t12 0.5q171 0 299 -41q17 -6 15 -22l-9 -76q-4 -25 -27 -17q-107 40 -272 40q-20 0 -30 -1v-1003q11 -1 34 -1q168 0 275 44q10 4 18 -0.5t10 -15.5l9 -82q2 -16 -15 -22 q-140 -41 -303 -41q-5 0 -14.5 0.5t-13.5 0.5v-157q0 -8 -6 -14t-14 -6h-63q-9 0 -15 6t-6 14v164q-275 31 -428.5 193t-153.5 417zM210 594q0 -201 118 -329.5t328 -161.5v985q-210 -33 -328 -164t-118 -330z" />
<glyph unicode="&#xa3;" horiz-adv-x="1328" d="M84 702v42q0 13 8.5 21.5t21.5 8.5h158v242q0 205 128 306.5t373 101.5q204 0 362 -64q21 -9 19 -31l-6 -59q-1 -16 -14 -23t-27 -1q-137 57 -325 57t-279 -67.5t-91 -217.5v-244h496q13 0 21.5 -8.5t8.5 -21.5v-42q0 -13 -8.5 -21.5t-21.5 -8.5h-496v-172 q0 -124 -29.5 -218t-111.5 -166h963q13 0 21.5 -8.5t8.5 -21.5v-56q0 -13 -8.5 -21.5t-21.5 -8.5h-1120q-13 0 -21.5 8.5t-8.5 21.5v50q0 24 12 33q176 137 176 369v190h-158q-13 0 -21.5 8.5t-8.5 21.5z" />
<glyph unicode="&#xa4;" horiz-adv-x="1394" d="M348 664q0 -148 99.5 -249t248.5 -101t248.5 101t99.5 249t-99.5 249t-248.5 101t-248.5 -101t-99.5 -249zM212 664q0 154 98 284l-125 125q-9 8 -9 20.5t9 22.5l49 51q10 10 22.5 10t22.5 -10l123 -125q133 102 294 102t294 -102l123 125q10 10 22.5 10t22.5 -10l49 -51 q9 -10 9 -22.5t-9 -20.5l-125 -125q98 -130 98 -284t-98 -284l125 -125q9 -8 9 -20.5t-9 -22.5l-49 -51q-10 -10 -22.5 -10t-22.5 10l-123 125q-133 -102 -294 -102t-294 102l-123 -125q-10 -10 -22.5 -10t-22.5 10l-49 51q-9 10 -9 22.5t9 20.5l125 125q-98 130 -98 284z " />
<glyph unicode="&#xa5;" horiz-adv-x="1386" d="M731 0h-76q-13 0 -22 8.5t-9 21.5v290h-466q-13 0 -21.5 8.5t-8.5 21.5v42q0 13 8.5 21.5t21.5 8.5h466v132h-466q-13 0 -21.5 8.5t-8.5 21.5v42q0 13 8.5 21.5t21.5 8.5h404l-487 696q-11 16 -3 32t28 16h84q24 0 40 -24l469 -682l469 682q16 24 40 24h84q20 0 28 -16 t-3 -32l-487 -696h404q13 0 21.5 -8.5t8.5 -21.5v-42q0 -13 -8.5 -21.5t-21.5 -8.5h-466v-132h466q13 0 21.5 -8.5t8.5 -21.5v-42q0 -13 -8.5 -21.5t-21.5 -8.5h-466v-290q0 -13 -9 -21.5t-22 -8.5z" />
<glyph unicode="&#xa6;" horiz-adv-x="566" d="M251 444h64q13 0 22 -9t9 -22v-583q0 -12 -9 -21t-22 -9h-64q-13 0 -22 9t-9 21v583q0 13 9 22t22 9zM251 1376h64q13 0 22 -8.5t9 -21.5v-584q0 -13 -9 -21.5t-22 -8.5h-64q-13 0 -22 8.5t-9 21.5v584q0 13 9 21.5t22 8.5z" />
<glyph unicode="&#xa7;" horiz-adv-x="1136" d="M162 -129q-20 8 -17 33l6 56q1 16 15 23t28 0q154 -71 334 -71q156 0 241 46.5t85 131.5q0 75 -68.5 130t-231.5 90q-404 86 -404 312q0 98 74 169t194 97q-266 77 -266 266q0 127 115.5 198.5t314.5 71.5q169 0 323 -55q23 -9 20 -33l-7 -52q-2 -16 -14 -23.5t-26 -1.5 q-130 53 -298 53q-137 0 -212.5 -43.5t-75.5 -120.5q0 -65 75.5 -113t234.5 -87q394 -97 394 -314q0 -96 -67.5 -164t-192.5 -100q258 -70 258 -282q0 -137 -123 -212.5t-341 -75.5q-203 0 -368 71zM576 840q-139 -22 -210.5 -77.5t-71.5 -134.5q0 -68 72 -122t204 -82 q139 22 212.5 78t73.5 134q0 70 -70.5 123t-209.5 81z" />
<glyph unicode="&#xa8;" horiz-adv-x="920" d="M218 1192q-44 0 -65 25.5t-21 80.5t21 80.5t65 25.5t65 -25.5t21 -80.5t-21 -80.5t-65 -25.5zM702 1192q-44 0 -65 25.5t-21 80.5t21 80.5t65 25.5t65 -25.5t21 -80.5t-21 -80.5t-65 -25.5z" />
<glyph unicode="&#xa9;" horiz-adv-x="1668" d="M1081 400q9 5 17 0t9 -17l5 -51q2 -20 -13 -27q-100 -43 -237 -43q-185 0 -307.5 120.5t-122.5 313.5t122.5 313.5t307.5 120.5q131 0 233 -41q18 -7 17 -26l-6 -63q-1 -7 -8 -10t-13 0q-93 48 -215 48q-153 0 -242.5 -94.5t-89.5 -247.5t89.5 -247.5t242.5 -94.5 q116 0 211 46zM110 700q0 197 97 363.5t263.5 263.5t363.5 97t363.5 -97t263.5 -263.5t97 -363.5t-97 -363.5t-263.5 -263.5t-363.5 -97t-363.5 97t-263.5 263.5t-97 363.5zM182 700q0 -179 86 -329.5t236 -238.5t330 -88q181 0 331 88t235.5 238.5t85.5 329.5 q0 178 -85.5 328.5t-236 239t-330.5 88.5t-330 -88.5t-236 -239t-86 -328.5z" />
<glyph unicode="&#xaa;" horiz-adv-x="996" d="M704 834h-412l-72 -169q-6 -13 -19 -13h-86q-12 0 -17.5 9t-0.5 20l320 707q6 12 19 12h124q13 0 19 -12l320 -707q5 -11 -0.5 -20t-17.5 -9h-86q-13 0 -19 13zM336 934h324l-162 372z" />
<glyph unicode="&#xab;" horiz-adv-x="1070" d="M144 607v32q0 12 10 22l363 336q16 14 33.5 7t17.5 -28v-39q0 -16 -13 -29l-311 -285l311 -285q13 -13 13 -29v-39q0 -21 -17.5 -28t-33.5 7l-363 336q-10 10 -10 22zM522 607v32q0 12 10 22l363 336q16 14 33.5 7t17.5 -28v-39q0 -16 -13 -29l-311 -285l311 -285 q13 -13 13 -29v-39q0 -21 -17.5 -28t-33.5 7l-363 336q-10 10 -10 22z" />
<glyph unicode="&#xac;" d="M114 798v56q0 13 9 21.5t22 8.5h999q13 0 21.5 -8.5t8.5 -21.5v-502q0 -13 -8.5 -21.5t-21.5 -8.5h-68q-13 0 -21.5 8.5t-8.5 21.5v416h-901q-13 0 -22 8.5t-9 21.5z" />
<glyph unicode="&#xad;" horiz-adv-x="856" d="M696 602h-538q-13 0 -21.5 8.5t-8.5 21.5v64q0 13 8.5 21.5t21.5 8.5h538q13 0 21.5 -8.5t8.5 -21.5v-64q0 -13 -8.5 -21.5t-21.5 -8.5z" />
<glyph unicode="&#xae;" horiz-adv-x="1668" d="M110 700q0 197 97 363.5t263.5 263.5t363.5 97t363.5 -97t263.5 -263.5t97 -363.5t-97 -363.5t-263.5 -263.5t-363.5 -97t-363.5 97t-263.5 263.5t-97 363.5zM182 700q0 -179 86 -329.5t236 -238.5t330 -88q181 0 331 88t235.5 238.5t85.5 329.5q0 178 -85.5 328.5 t-236 239t-330.5 88.5t-330 -88.5t-236 -239t-86 -328.5zM1046 868q0 156 -220 156h-178v-312h178q110 0 165 40.5t55 115.5zM572 1116h260q150 0 236 -65t86 -183q0 -169 -168 -224l190 -324q10 -16 4 -27t-25 -11h-56q-19 0 -26 15l-191 327q-48 -4 -78 -4h-156v-308 q0 -13 -9 -21.5t-22 -8.5h-45q-13 0 -21.5 8.5t-8.5 21.5v774q0 13 8.5 21.5t21.5 8.5z" />
<glyph unicode="&#xaf;" horiz-adv-x="920" d="M128 1262v56q0 13 8.5 21.5t21.5 8.5h604q12 0 21 -8.5t9 -21.5v-56q0 -13 -9 -21.5t-21 -8.5h-604q-13 0 -21.5 8.5t-8.5 21.5z" />
<glyph unicode="&#xb0;" horiz-adv-x="920" d="M460 852q-123 0 -207.5 83t-84.5 203t84.5 203t207.5 83t207.5 -83t84.5 -203t-84.5 -203t-207.5 -83zM638 1138q0 79 -51 130.5t-127 51.5t-127 -51.5t-51 -130.5t51 -130.5t127 -51.5t127 51.5t51 130.5z" />
<glyph unicode="&#xb1;" d="M590 342v390h-436q-13 0 -21.5 8.5t-8.5 21.5v54q0 13 8.5 21.5t21.5 8.5h436v390q0 13 9 21.5t21 8.5h68q13 0 21.5 -8.5t8.5 -21.5v-390h435q13 0 22 -8.5t9 -21.5v-54q0 -13 -9 -21.5t-22 -8.5h-435v-390q0 -13 -8.5 -21.5t-21.5 -8.5h-68q-12 0 -21 8.5t-9 21.5z M1153 92h-999q-13 0 -21.5 8.5t-8.5 21.5v54q0 13 8.5 21.5t21.5 8.5h999q13 0 22 -8.5t9 -21.5v-54q0 -13 -9 -21.5t-22 -8.5z" />
<glyph unicode="&#xb2;" horiz-adv-x="880" d="M284 576h443q13 0 22 -8.5t9 -21.5v-44q0 -13 -9 -21.5t-22 -8.5h-607q-13 0 -21.5 8.5t-8.5 21.5v51q0 17 13 24q242 170 385 321q74 77 107 134.5t33 113.5q0 83 -62.5 123.5t-173.5 40.5q-125 0 -230 -41q-33 -11 -34 18l-4 57q-2 18 14 24q122 48 266 48 q167 0 256.5 -68.5t89.5 -195.5q0 -78 -34.5 -150t-121.5 -160q-144 -149 -310 -266z" />
<glyph unicode="&#xb3;" horiz-adv-x="880" d="M161 1279q-14 -4 -26 3t-14 21l-6 42q-2 11 3.5 20.5t15.5 12.5q116 38 252 38q169 0 262.5 -60.5t93.5 -177.5q0 -76 -61 -135.5t-169 -84.5q121 -27 182.5 -89t61.5 -151q0 -122 -101.5 -192t-284.5 -70q-139 0 -254 33q-9 2 -15 10.5t-5 18.5l7 61q3 28 39 15 q92 -32 224 -32q130 0 199 43.5t69 112.5q0 83 -90.5 133t-286.5 53q-12 0 -19.5 9t-7.5 21v42q0 12 8.5 21t20.5 9q181 4 271 51.5t90 114.5t-63.5 102.5t-178.5 35.5q-124 0 -217 -31z" />
<glyph unicode="&#xb4;" horiz-adv-x="920" d="M332 1136h-69q-8 0 -9.5 7.5t4.5 14.5l261 289q12 13 29 13h121q13 0 15.5 -8t-6.5 -16l-309 -286q-15 -14 -37 -14z" />
<glyph unicode="&#xb5;" horiz-adv-x="1624" d="M843 394h-62q-16 0 -23 10l-482 612v-996q0 -8 -6 -14t-14 -6h-91q-9 0 -15 6t-6 14v1150q0 8 6 14t15 6h118q7 0 15 -8l514 -650l514 650q8 8 15 8h118q9 0 15 -6t6 -14v-1150q0 -8 -6 -14t-15 -6h-91q-8 0 -14 6t-6 14v996l-482 -612q-7 -10 -23 -10z" />
<glyph unicode="&#xb6;" horiz-adv-x="1080" d="M584 620h-60q-130 0 -231.5 41t-164.5 131t-63 218q0 98 36.5 174t100 122.5t145 70t177.5 23.5h362q13 0 21.5 -9t8.5 -22v-1601q0 -13 -8.5 -21.5t-21.5 -8.5h-52q-13 0 -21.5 8.5t-8.5 21.5v1524h-106v-1524q0 -13 -8.5 -21.5t-21.5 -8.5h-53q-13 0 -22 8.5t-9 21.5 v852z" />
<glyph unicode="&#xb7;" horiz-adv-x="660" d="M420 662q0 -112 -90 -112t-90 112t90 112t90 -112z" />
<glyph unicode="&#xb8;" horiz-adv-x="920" d="M256 -438v32q0 32 35 26q42 -6 84 -6q82 0 126.5 25.5t44.5 70.5q0 92 -194 113q-19 2 -26 16.5t3 30.5l73 109q13 21 39 21h49q20 0 28 -15t-3 -32l-51 -73q102 -15 151 -65t49 -120q0 -80 -73 -125.5t-213 -45.5q-51 0 -97 8q-25 4 -25 30z" />
<glyph unicode="&#xb9;" horiz-adv-x="880" d="M184 1239l244 149q23 14 48 14h48q13 0 21.5 -9t8.5 -22v-869q0 -13 -8.5 -21.5t-21.5 -8.5h-60q-13 0 -21.5 8.5t-8.5 21.5v763l-191 -116q-25 -14 -39 4l-28 41q-20 28 8 45z" />
<glyph unicode="&#xba;" horiz-adv-x="996" d="M914 1026q0 -172 -116.5 -281t-299.5 -109t-299.5 109t-116.5 281t116.5 281t299.5 109t299.5 -109t116.5 -281zM790 1026q0 135 -82 212.5t-210 77.5t-210 -77.5t-82 -212.5t82 -212.5t210 -77.5t210 77.5t82 212.5z" />
<glyph unicode="&#xbb;" horiz-adv-x="1070" d="M926 639v-32q0 -12 -10 -22l-363 -336q-16 -14 -33.5 -7t-17.5 28v39q0 16 13 29l311 285l-311 285q-13 13 -13 29v39q0 21 17.5 28t33.5 -7l363 -336q10 -10 10 -22zM548 639v-32q0 -12 -10 -22l-363 -336q-16 -14 -33.5 -7t-17.5 28v39q0 16 13 29l311 285l-311 285 q-13 13 -13 29v39q0 21 17.5 28t33.5 -7l363 -336q10 -10 10 -22z" />
<glyph unicode="&#xbc;" horiz-adv-x="2200" d="M1166 234v32q0 32 18 53l511 594q12 15 36 15h63q13 0 21.5 -9t8.5 -22v-593h102q13 0 21.5 -8.5t8.5 -21.5v-40q0 -13 -8.5 -21.5t-21.5 -8.5h-102v-174q0 -13 -8.5 -21.5t-21.5 -8.5h-60q-12 0 -21 8.5t-9 21.5v174h-508q-13 0 -21.5 8.5t-8.5 21.5zM1704 776 l-404 -472h404v472zM457 10l891 1381q25 39 55 39h48q19 0 24 -12t-6 -28l-891 -1381q-25 -39 -55 -39h-48q-19 0 -24 12t6 28zM184 1239l244 149q23 14 48 14h48q13 0 21.5 -9t8.5 -22v-869q0 -13 -8.5 -21.5t-21.5 -8.5h-60q-13 0 -21.5 8.5t-8.5 21.5v763l-191 -116 q-25 -14 -39 4l-28 41q-20 28 8 45z" />
<glyph unicode="&#xbd;" horiz-adv-x="2200" d="M1540 104h443q13 0 22 -8.5t9 -21.5v-44q0 -13 -9 -21.5t-22 -8.5h-607q-13 0 -21.5 8.5t-8.5 21.5v51q0 17 13 24q242 170 385 321q74 77 107 134.5t33 113.5q0 83 -62.5 123.5t-173.5 40.5q-125 0 -230 -41q-33 -11 -34 18l-4 57q-2 18 14 24q122 48 266 48 q167 0 256.5 -68.5t89.5 -195.5q0 -78 -34.5 -150t-121.5 -160q-144 -149 -310 -266zM457 10l891 1381q25 39 55 39h48q19 0 24 -12t-6 -28l-891 -1381q-25 -39 -55 -39h-48q-19 0 -24 12t6 28zM184 1239l244 149q23 14 48 14h48q13 0 21.5 -9t8.5 -22v-869 q0 -13 -8.5 -21.5t-21.5 -8.5h-60q-13 0 -21.5 8.5t-8.5 21.5v763l-191 -116q-25 -14 -39 4l-28 41q-20 28 8 45z" />
<glyph unicode="&#xbe;" horiz-adv-x="2200" d="M1252 234v32q0 32 18 53l511 594q12 15 36 15h63q13 0 21.5 -9t8.5 -22v-593h102q13 0 21.5 -8.5t8.5 -21.5v-40q0 -13 -8.5 -21.5t-21.5 -8.5h-102v-174q0 -13 -8.5 -21.5t-21.5 -8.5h-60q-12 0 -21 8.5t-9 21.5v174h-508q-13 0 -21.5 8.5t-8.5 21.5zM1790 776 l-404 -472h404v472zM591 10l891 1381q25 39 55 39h48q19 0 24 -12t-6 -28l-891 -1381q-25 -39 -55 -39h-48q-19 0 -24 12t6 28zM161 1279q-14 -4 -26 3t-14 21l-6 42q-2 11 3.5 20.5t15.5 12.5q116 38 252 38q169 0 262.5 -60.5t93.5 -177.5q0 -76 -61 -135.5t-169 -84.5 q121 -27 182.5 -89t61.5 -151q0 -122 -101.5 -192t-284.5 -70q-139 0 -254 33q-9 2 -15 10.5t-5 18.5l7 61q3 28 39 15q92 -32 224 -32q130 0 199 43.5t69 112.5q0 83 -90.5 133t-286.5 53q-12 0 -19.5 9t-7.5 21v42q0 12 8.5 21t20.5 9q181 4 271 51.5t90 114.5 t-63.5 102.5t-178.5 35.5q-124 0 -217 -31z" />
<glyph unicode="&#xbf;" horiz-adv-x="1180" d="M616 768v20q0 13 8.5 21.5t21.5 8.5h76q13 0 21.5 -8.5t8.5 -21.5v-28q0 -137 -48.5 -227t-167.5 -161q-136 -81 -190 -147.5t-54 -150.5q0 -206 396 -206q182 0 338 62q15 6 27.5 -1.5t14.5 -23.5l6 -68q1 -9 -5 -18t-14 -12q-170 -65 -375 -65q-264 0 -400 85.5 t-136 248.5q0 215 288 382q104 61 144 131.5t40 178.5zM596 1078q0 112 90 112t90 -112t-90 -112t-90 112z" />
<glyph unicode="&#xc0;" horiz-adv-x="1490" d="M338 382h814l157 -344q17 -38 58 -38h61q18 0 27 14t1 30l-620 1330q-11 26 -39 26h-104q-28 0 -39 -26l-620 -1330q-7 -16 1.5 -30t26.5 -14h61q41 0 58 38zM1098 498h-706l353 770zM867 1524h-69q-22 0 -37 14l-309 286q-9 8 -6.5 16t15.5 8h121q17 0 29 -13l261 -289 q6 -7 4.5 -14.5t-9.5 -7.5z" />
<glyph unicode="&#xc1;" horiz-adv-x="1490" d="M1152 382h-814l-157 -344q-17 -38 -58 -38h-61q-18 0 -26.5 14t-1.5 30l620 1330q11 26 39 26h104q28 0 39 -26l620 -1330q8 -16 -1 -30t-27 -14h-61q-41 0 -58 38zM392 498h706l-353 770zM692 1524h-69q-8 0 -9.5 7.5t4.5 14.5l261 289q12 13 29 13h121q13 0 15.5 -8 t-6.5 -16l-309 -286q-15 -14 -37 -14z" />
<glyph unicode="&#xc2;" horiz-adv-x="1490" d="M1152 382h-814l-157 -344q-17 -38 -58 -38h-61q-18 0 -26.5 14t-1.5 30l620 1330q11 26 39 26h104q28 0 39 -26l620 -1330q8 -16 -1 -30t-27 -14h-61q-41 0 -58 38zM392 498h706l-353 770zM698 1848h92q20 0 33 -15l243 -284q10 -11 8 -22t-16 -11h-78q-23 0 -37 18 l-199 234l-199 -234q-14 -18 -37 -18h-78q-14 0 -16 11t8 22l243 284q13 15 33 15z" />
<glyph unicode="&#xc3;" horiz-adv-x="1490" d="M338 382h814l157 -344q17 -38 58 -38h61q18 0 27 14t1 30l-620 1330q-11 26 -39 26h-104q-28 0 -39 -26l-620 -1330q-7 -16 1.5 -30t26.5 -14h61q41 0 58 38zM1098 498h-706l353 770zM708 1646q-60 64 -106 64q-80 0 -88 -135q-1 -12 -9 -20.5t-20 -8.5h-60 q-13 0 -22 8.5t-8 21.5q6 128 58 186t133 58q62 0 106 -28t88 -76q60 -64 106 -64q80 0 88 135q1 12 9 20.5t20 8.5h60q13 0 22 -8.5t8 -21.5q-6 -128 -58 -186t-133 -58q-62 0 -106 28t-88 76z" />
<glyph unicode="&#xc4;" horiz-adv-x="1490" d="M338 382h814l157 -344q17 -38 58 -38h61q18 0 27 14t1 30l-620 1330q-11 26 -39 26h-104q-28 0 -39 -26l-620 -1330q-7 -16 1.5 -30t26.5 -14h61q41 0 58 38zM1098 498h-706l353 770zM502 1580q-44 0 -65 25.5t-21 80.5t21 80.5t65 25.5t65 -25.5t21 -80.5t-21 -80.5 t-65 -25.5zM986 1580q-44 0 -65 25.5t-21 80.5t21 80.5t65 25.5t65 -25.5t21 -80.5t-21 -80.5t-65 -25.5z" />
<glyph unicode="&#xc5;" horiz-adv-x="1490" d="M338 382h814l157 -344q17 -38 58 -38h61q18 0 27 14t1 30l-620 1330q-11 26 -39 26h-104q-28 0 -39 -26l-620 -1330q-7 -16 1.5 -30t26.5 -14h61q41 0 58 38zM1098 498h-706l353 770zM744 1456q-97 0 -164.5 65.5t-67.5 160.5t67.5 160.5t164.5 65.5t164.5 -65.5 t67.5 -160.5t-67.5 -160.5t-164.5 -65.5zM744 1816q-56 0 -95 -38t-39 -96t39 -96t95 -38t95 38t39 96t-39 96t-95 38z" />
<glyph unicode="&#xc6;" horiz-adv-x="1986" d="M1002 384h-573l-236 -366q-11 -18 -33 -18h-101q-16 0 -22.5 12t1.5 26l860 1339q15 23 52 23h908q10 0 17 -7t7 -17v-67q0 -11 -7 -18t-17 -7h-716v-504h655q10 0 17.5 -7t7.5 -17v-67q0 -11 -7 -18t-18 -7h-655v-548h736q10 0 17 -7.5t7 -17.5v-67q0 -10 -7 -17t-17 -7 h-852q-10 0 -17 7t-7 17v360zM1002 1281l-500 -781h500v781z" />
<glyph unicode="&#xc7;" horiz-adv-x="1384" d="M1276 22q-150 -46 -344 -46h-10l-66 -96q102 -15 151 -65t49 -120q0 -80 -73 -125.5t-213 -45.5q-51 0 -97 8q-25 4 -25 30v32q0 32 35 26q42 -6 84 -6q82 0 126.5 25.5t44.5 70.5q0 92 -194 113q-19 2 -26 16.5t3 30.5l75 113q-331 34 -516.5 224t-185.5 493 q0 330 223.5 527t608.5 197q203 0 341 -45q23 -8 22 -33l-7 -63q-1 -16 -13.5 -22t-26.5 -1q-131 44 -308 44q-324 0 -512 -164.5t-188 -439.5q0 -280 189 -442t515 -162q174 0 311 47q16 6 27.5 -0.5t13.5 -22.5l7 -65q3 -25 -21 -33z" />
<glyph unicode="&#xc8;" horiz-adv-x="1268" d="M164 31v1338q0 13 9 22t22 9h938q13 0 22 -9t9 -22v-54q0 -13 -9 -22t-22 -9h-833v-504h787q13 0 22 -8.5t9 -21.5v-56q0 -13 -9 -21.5t-22 -8.5h-787v-548h853q13 0 22 -9t9 -22v-54q0 -13 -9 -22t-22 -9h-958q-13 0 -22 9t-9 22zM815 1524h-69q-22 0 -37 14l-309 286 q-9 8 -6.5 16t15.5 8h121q17 0 29 -13l261 -289q6 -7 4.5 -14.5t-9.5 -7.5z" />
<glyph unicode="&#xc9;" horiz-adv-x="1268" d="M164 31v1338q0 13 9 22t22 9h938q13 0 22 -9t9 -22v-54q0 -13 -9 -22t-22 -9h-833v-504h787q13 0 22 -8.5t9 -21.5v-56q0 -13 -9 -21.5t-22 -8.5h-787v-548h853q13 0 22 -9t9 -22v-54q0 -13 -9 -22t-22 -9h-958q-13 0 -22 9t-9 22zM588 1524h-69q-8 0 -9.5 7.5t4.5 14.5 l261 289q12 13 29 13h121q13 0 15.5 -8t-6.5 -16l-309 -286q-15 -14 -37 -14z" />
<glyph unicode="&#xca;" horiz-adv-x="1268" d="M164 31v1338q0 13 9 22t22 9h938q13 0 22 -9t9 -22v-54q0 -13 -9 -22t-22 -9h-833v-504h787q13 0 22 -8.5t9 -21.5v-56q0 -13 -9 -21.5t-22 -8.5h-787v-548h853q13 0 22 -9t9 -22v-54q0 -13 -9 -22t-22 -9h-958q-13 0 -22 9t-9 22zM620 1848h92q20 0 33 -15l243 -284 q10 -11 8 -22t-16 -11h-78q-23 0 -37 18l-199 234l-199 -234q-14 -18 -37 -18h-78q-14 0 -16 11t8 22l243 284q13 15 33 15z" />
<glyph unicode="&#xcb;" horiz-adv-x="1268" d="M164 31v1338q0 13 9 22t22 9h938q13 0 22 -9t9 -22v-54q0 -13 -9 -22t-22 -9h-833v-504h787q13 0 22 -8.5t9 -21.5v-56q0 -13 -9 -21.5t-22 -8.5h-787v-548h853q13 0 22 -9t9 -22v-54q0 -13 -9 -22t-22 -9h-958q-13 0 -22 9t-9 22zM422 1580q-44 0 -65 25.5t-21 80.5 t21 80.5t65 25.5t65 -25.5t21 -80.5t-21 -80.5t-65 -25.5zM906 1580q-44 0 -65 25.5t-21 80.5t21 80.5t65 25.5t65 -25.5t21 -80.5t-21 -80.5t-65 -25.5z" />
<glyph unicode="&#xcc;" horiz-adv-x="484" d="M204 1400h76q13 0 21.5 -9t8.5 -22v-1338q0 -13 -8.5 -22t-21.5 -9h-76q-13 0 -21.5 9t-8.5 22v1338q0 13 8.5 22t21.5 9zM305 1524h-69q-22 0 -37 14l-309 286q-9 8 -6.5 16t15.5 8h121q17 0 29 -13l261 -289q6 -7 4.5 -14.5t-9.5 -7.5z" />
<glyph unicode="&#xcd;" horiz-adv-x="484" d="M204 1400h76q13 0 21.5 -9t8.5 -22v-1338q0 -13 -8.5 -22t-21.5 -9h-76q-13 0 -21.5 9t-8.5 22v1338q0 13 8.5 22t21.5 9zM248 1524h-69q-8 0 -9.5 7.5t4.5 14.5l261 289q12 13 29 13h121q13 0 15.5 -8t-6.5 -16l-309 -286q-15 -14 -37 -14z" />
<glyph unicode="&#xce;" horiz-adv-x="484" d="M204 1400h76q13 0 21.5 -9t8.5 -22v-1338q0 -13 -8.5 -22t-21.5 -9h-76q-13 0 -21.5 9t-8.5 22v1338q0 13 8.5 22t21.5 9zM196 1848h92q20 0 33 -15l243 -284q10 -11 8 -22t-16 -11h-78q-23 0 -37 18l-199 234l-199 -234q-14 -18 -37 -18h-78q-14 0 -16 11t8 22l243 284 q13 15 33 15z" />
<glyph unicode="&#xcf;" horiz-adv-x="484" d="M204 1400h76q13 0 21.5 -9t8.5 -22v-1338q0 -13 -8.5 -22t-21.5 -9h-76q-13 0 -21.5 9t-8.5 22v1338q0 13 8.5 22t21.5 9zM0 1580q-44 0 -65 25.5t-21 80.5t21 80.5t65 25.5t65 -25.5t21 -80.5t-21 -80.5t-65 -25.5zM484 1580q-44 0 -65 25.5t-21 80.5t21 80.5t65 25.5 t65 -25.5t21 -80.5t-21 -80.5t-65 -25.5z" />
<glyph unicode="&#xd0;" horiz-adv-x="1544" d="M548 0h-343q-13 0 -22 9t-9 22v615h-147q-13 0 -22 9t-9 22v46q0 13 9 22t22 9h147v615q0 13 9 22t22 9h343q204 0 369 -45t284 -131.5t184 -220t65 -303.5q0 -227 -114 -386.5t-314.5 -236.5t-473.5 -77zM1310 700q0 196 -96.5 328.5t-269 194t-416.5 61.5h-218v-530 h401q13 0 22 -9t9 -22v-46q0 -13 -9 -22t-22 -9h-401v-530h218q182 0 325 35t245.5 106t157 183t54.5 260z" />
<glyph unicode="&#xd1;" horiz-adv-x="1570" d="M1216 26l-916 1196v-1191q0 -13 -9 -22t-22 -9h-75q-13 0 -21.5 9t-8.5 22v1338q0 13 8.5 22t21.5 9h107q33 0 53 -26l916 -1196v1191q0 13 9 22t22 9h75q13 0 21.5 -9t8.5 -22v-1338q0 -13 -8.5 -22t-21.5 -9h-107q-33 0 -53 26zM750 1646q-60 64 -106 64 q-80 0 -88 -135q-1 -12 -9 -20.5t-20 -8.5h-60q-13 0 -22 8.5t-8 21.5q6 128 58 186t133 58q62 0 106 -28t88 -76q60 -64 106 -64q80 0 88 135q1 12 9 20.5t20 8.5h60q13 0 22 -8.5t8 -21.5q-6 -128 -58 -186t-133 -58q-62 0 -106 28t-88 76z" />
<glyph unicode="&#xd2;" horiz-adv-x="1634" d="M1540 700q0 -153 -50.5 -285.5t-142 -229.5t-228.5 -153t-301 -56q-165 0 -302.5 56t-229 153t-142 229.5t-50.5 285.5t50.5 285.5t142 229.5t229 153t302.5 56q164 0 301 -56t228.5 -153t142 -229.5t50.5 -285.5zM234 700q0 -270 158.5 -437t425.5 -167t424.5 167 t157.5 437t-157.5 437t-424.5 167t-425.5 -167t-158.5 -437zM983 1524h-69q-22 0 -37 14l-309 286q-9 8 -6.5 16t15.5 8h121q17 0 29 -13l261 -289q6 -7 4.5 -14.5t-9.5 -7.5z" />
<glyph unicode="&#xd3;" horiz-adv-x="1634" d="M1540 700q0 -153 -50.5 -285.5t-142 -229.5t-228.5 -153t-301 -56q-165 0 -302.5 56t-229 153t-142 229.5t-50.5 285.5t50.5 285.5t142 229.5t229 153t302.5 56q164 0 301 -56t228.5 -153t142 -229.5t50.5 -285.5zM234 700q0 -270 158.5 -437t425.5 -167t424.5 167 t157.5 437t-157.5 437t-424.5 167t-425.5 -167t-158.5 -437zM736 1524h-69q-8 0 -9.5 7.5t4.5 14.5l261 289q12 13 29 13h121q13 0 15.5 -8t-6.5 -16l-309 -286q-15 -14 -37 -14z" />
<glyph unicode="&#xd4;" horiz-adv-x="1634" d="M1540 700q0 -153 -50.5 -285.5t-142 -229.5t-228.5 -153t-301 -56q-165 0 -302.5 56t-229 153t-142 229.5t-50.5 285.5t50.5 285.5t142 229.5t229 153t302.5 56q164 0 301 -56t228.5 -153t142 -229.5t50.5 -285.5zM234 700q0 -270 158.5 -437t425.5 -167t424.5 167 t157.5 437t-157.5 437t-424.5 167t-425.5 -167t-158.5 -437zM770 1848h92q20 0 33 -15l243 -284q10 -11 8 -22t-16 -11h-78q-23 0 -37 18l-199 234l-199 -234q-14 -18 -37 -18h-78q-14 0 -16 11t8 22l243 284q13 15 33 15z" />
<glyph unicode="&#xd5;" horiz-adv-x="1634" d="M1540 700q0 -153 -50.5 -285.5t-142 -229.5t-228.5 -153t-301 -56q-165 0 -302.5 56t-229 153t-142 229.5t-50.5 285.5t50.5 285.5t142 229.5t229 153t302.5 56q164 0 301 -56t228.5 -153t142 -229.5t50.5 -285.5zM234 700q0 -270 158.5 -437t425.5 -167t424.5 167 t157.5 437t-157.5 437t-424.5 167t-425.5 -167t-158.5 -437zM780 1646q-60 64 -106 64q-80 0 -88 -135q-1 -12 -9 -20.5t-20 -8.5h-60q-13 0 -22 8.5t-8 21.5q6 128 58 186t133 58q62 0 106 -28t88 -76q60 -64 106 -64q80 0 88 135q1 12 9 20.5t20 8.5h60q13 0 22 -8.5 t8 -21.5q-6 -128 -58 -186t-133 -58q-62 0 -106 28t-88 76z" />
<glyph unicode="&#xd6;" horiz-adv-x="1634" d="M1540 700q0 -153 -50.5 -285.5t-142 -229.5t-228.5 -153t-301 -56q-165 0 -302.5 56t-229 153t-142 229.5t-50.5 285.5t50.5 285.5t142 229.5t229 153t302.5 56q164 0 301 -56t228.5 -153t142 -229.5t50.5 -285.5zM234 700q0 -270 158.5 -437t425.5 -167t424.5 167 t157.5 437t-157.5 437t-424.5 167t-425.5 -167t-158.5 -437zM574 1580q-44 0 -65 25.5t-21 80.5t21 80.5t65 25.5t65 -25.5t21 -80.5t-21 -80.5t-65 -25.5zM1058 1580q-44 0 -65 25.5t-21 80.5t21 80.5t65 25.5t65 -25.5t21 -80.5t-21 -80.5t-65 -25.5z" />
<glyph unicode="&#xd7;" d="M654 588l-347 -313q-8 -8 -21 -8t-21 8l-40 40q-9 9 -8.5 22.5t10.5 21.5l340 307l-341 308q-10 8 -10.5 21.5t8.5 22.5l40 40q8 8 21 8t21 -8l348 -314l348 314q8 8 21 8t21 -8l40 -40q9 -9 8.5 -22.5t-10.5 -21.5l-342 -308l341 -307q10 -8 10.5 -21.5t-8.5 -22.5 l-40 -40q-8 -8 -21 -8t-21 8z" />
<glyph unicode="&#xd8;" horiz-adv-x="1634" d="M1540 700q0 -153 -50.5 -285.5t-142 -229.5t-228.5 -153t-301 -56q-207 0 -369 87l-166 -243q-14 -20 -45 -20h-40q-20 0 -28 16t3 32l186 272q-127 98 -196 248.5t-69 331.5q0 153 50.5 285.5t142 229.5t229 153t302.5 56q208 0 372 -90l169 246q14 20 45 20h40 q20 0 28 -16t-3 -32l-190 -277q125 -98 193 -247.5t68 -327.5zM234 700q0 -150 51 -271.5t147 -202.5l688 1005q-132 73 -302 73q-267 0 -425.5 -167t-158.5 -437zM1400 700q0 148 -50 268.5t-143 201.5l-687 -1004q131 -70 298 -70q267 0 424.5 167t157.5 437z" />
<glyph unicode="&#xd9;" horiz-adv-x="1604" d="M802 -24q139 0 253.5 34.5t201.5 102.5t135 177.5t48 251.5v827q0 13 -9 22t-22 9h-78q-13 0 -22 -9t-9 -22v-812q0 -226 -130 -343.5t-368 -117.5t-368 117.5t-130 343.5v812q0 13 -9 22t-22 9h-78q-13 0 -22 -9t-9 -22v-827q0 -142 48 -251.5t135 -177.5t201.5 -102.5 t253.5 -34.5zM911 1524h-69q-22 0 -37 14l-309 286q-9 8 -6.5 16t15.5 8h121q17 0 29 -13l261 -289q6 -7 4.5 -14.5t-9.5 -7.5z" />
<glyph unicode="&#xda;" horiz-adv-x="1604" d="M802 -24q-139 0 -253.5 34.5t-201.5 102.5t-135 177.5t-48 251.5v827q0 13 9 22t22 9h78q13 0 22 -9t9 -22v-812q0 -226 130 -343.5t368 -117.5t368 117.5t130 343.5v812q0 13 9 22t22 9h78q13 0 22 -9t9 -22v-827q0 -142 -48 -251.5t-135 -177.5t-201.5 -102.5 t-253.5 -34.5zM780 1524h-69q-8 0 -9.5 7.5t4.5 14.5l261 289q12 13 29 13h121q13 0 15.5 -8t-6.5 -16l-309 -286q-15 -14 -37 -14z" />
<glyph unicode="&#xdb;" horiz-adv-x="1604" d="M802 -24q-139 0 -253.5 34.5t-201.5 102.5t-135 177.5t-48 251.5v827q0 13 9 22t22 9h78q13 0 22 -9t9 -22v-812q0 -226 130 -343.5t368 -117.5t368 117.5t130 343.5v812q0 13 9 22t22 9h78q13 0 22 -9t9 -22v-827q0 -142 -48 -251.5t-135 -177.5t-201.5 -102.5 t-253.5 -34.5zM756 1848h92q20 0 33 -15l243 -284q10 -11 8 -22t-16 -11h-78q-23 0 -37 18l-199 234l-199 -234q-14 -18 -37 -18h-78q-14 0 -16 11t8 22l243 284q13 15 33 15z" />
<glyph unicode="&#xdc;" horiz-adv-x="1604" d="M802 -24q139 0 253.5 34.5t201.5 102.5t135 177.5t48 251.5v827q0 13 -9 22t-22 9h-78q-13 0 -22 -9t-9 -22v-812q0 -226 -130 -343.5t-368 -117.5t-368 117.5t-130 343.5v812q0 13 -9 22t-22 9h-78q-13 0 -22 -9t-9 -22v-827q0 -142 48 -251.5t135 -177.5t201.5 -102.5 t253.5 -34.5zM560 1580q-44 0 -65 25.5t-21 80.5t21 80.5t65 25.5t65 -25.5t21 -80.5t-21 -80.5t-65 -25.5zM1044 1580q-44 0 -65 25.5t-21 80.5t21 80.5t65 25.5t65 -25.5t21 -80.5t-21 -80.5t-65 -25.5z" />
<glyph unicode="&#xdd;" horiz-adv-x="1532" d="M805 0h-78q-13 0 -22 9t-9 22v525l-614 795q-12 17 -4 33t28 16h61q45 0 73 -36l526 -683l526 683q28 36 73 36h61q20 0 28 -16t-4 -33l-614 -795v-525q0 -13 -9 -22t-22 -9zM714 1524h-69q-8 0 -9.5 7.5t4.5 14.5l261 289q12 13 29 13h121q13 0 15.5 -8t-6.5 -16 l-309 -286q-15 -14 -37 -14z" />
<glyph unicode="&#xde;" horiz-adv-x="1318" d="M1244 710q0 -207 -162 -318.5t-452 -111.5h-330v-249q0 -13 -9 -22t-22 -9h-74q-13 0 -22 9t-9 22v1338q0 13 9 22t22 9h74q13 0 22 -9t9 -22v-231h330q289 0 451.5 -111t162.5 -317zM1104 710q0 154 -126.5 233t-359.5 79h-318v-626h318q233 0 359.5 79.5t126.5 234.5z " />
<glyph unicode="&#xdf;" horiz-adv-x="1260" d="M598 669q-12 0 -22 9.5t-10 21.5v60q0 12 9 21.5t21 9.5q175 0 276.5 73t101.5 194q0 108 -92 177t-236 69q-165 0 -255.5 -88.5t-90.5 -261.5v-924q0 -13 -8.5 -21.5t-21.5 -8.5h-76q-13 0 -21.5 8.5t-8.5 21.5v912q0 238 123 360t363 122q203 0 333.5 -101t130.5 -261 q0 -123 -80 -208t-220 -120q167 -36 264.5 -132.5t97.5 -241.5q0 -181 -124 -282.5t-358 -101.5q-140 0 -259 44q-8 3 -14.5 13t-5.5 19l8 64q2 17 14.5 24.5t27.5 0.5q105 -45 231 -45q163 0 251.5 74t88.5 190q0 133 -117 217.5t-321 91.5z" />
<glyph unicode="&#xe0;" horiz-adv-x="1288" d="M302 316h684l138 -304q6 -12 19 -12h100q11 0 17 9t1 20l-531 1149q-6 12 -18 12h-136q-12 0 -18 -12l-531 -1149q-5 -11 1 -20t17 -9h100q13 0 19 12zM936 428h-584l292 640zM767 1314h-69q-22 0 -37 14l-309 286q-9 8 -6.5 16t15.5 8h121q17 0 29 -13l261 -289 q6 -7 4.5 -14.5t-9.5 -7.5z" />
<glyph unicode="&#xe1;" horiz-adv-x="1288" d="M986 316h-684l-138 -304q-6 -12 -19 -12h-100q-11 0 -17 9t-1 20l531 1149q6 12 18 12h136q12 0 18 -12l531 -1149q5 -11 -1 -20t-17 -9h-100q-13 0 -19 12zM352 428h584l-292 640zM590 1314h-69q-8 0 -9.5 7.5t4.5 14.5l261 289q12 13 29 13h121q13 0 15.5 -8t-6.5 -16 l-309 -286q-15 -14 -37 -14z" />
<glyph unicode="&#xe2;" horiz-adv-x="1288" d="M986 316h-684l-138 -304q-6 -12 -19 -12h-100q-11 0 -17 9t-1 20l531 1149q6 12 18 12h136q12 0 18 -12l531 -1149q5 -11 -1 -20t-17 -9h-100q-13 0 -19 12zM352 428h584l-292 640zM598 1638h92q20 0 33 -15l243 -284q10 -11 8 -22t-16 -11h-78q-23 0 -37 18l-199 234 l-199 -234q-14 -18 -37 -18h-78q-14 0 -16 11t8 22l243 284q13 15 33 15z" />
<glyph unicode="&#xe3;" horiz-adv-x="1288" d="M302 316h684l138 -304q6 -12 19 -12h100q11 0 17 9t1 20l-531 1149q-6 12 -18 12h-136q-12 0 -18 -12l-531 -1149q-5 -11 1 -20t17 -9h100q13 0 19 12zM936 428h-584l292 640zM608 1436q-60 64 -106 64q-80 0 -88 -135q-1 -12 -9 -20.5t-20 -8.5h-60q-13 0 -22 8.5 t-8 21.5q6 128 58 186t133 58q62 0 106 -28t88 -76q60 -64 106 -64q80 0 88 135q1 12 9 20.5t20 8.5h60q13 0 22 -8.5t8 -21.5q-6 -128 -58 -186t-133 -58q-62 0 -106 28t-88 76z" />
<glyph unicode="&#xe4;" horiz-adv-x="1288" d="M302 316h684l138 -304q6 -12 19 -12h100q11 0 17 9t1 20l-531 1149q-6 12 -18 12h-136q-12 0 -18 -12l-531 -1149q-5 -11 1 -20t17 -9h100q13 0 19 12zM936 428h-584l292 640zM403 1369q-45 0 -66 25.5t-21 80.5q0 56 21 81t66 25q44 0 65 -25t21 -81q0 -106 -86 -106z M885 1369q-85 0 -85 106q0 56 20.5 81t64.5 25q45 0 66 -25t21 -81q0 -55 -21 -80.5t-66 -25.5z" />
<glyph unicode="&#xe5;" horiz-adv-x="1288" d="M302 316h684l138 -304q6 -12 19 -12h100q11 0 17 9t1 20l-531 1149q-6 12 -18 12h-136q-12 0 -18 -12l-531 -1149q-5 -11 1 -20t17 -9h100q13 0 19 12zM936 428h-584l292 640zM644 1246q-97 0 -164.5 65.5t-67.5 160.5t67.5 160.5t164.5 65.5t164.5 -65.5t67.5 -160.5 t-67.5 -160.5t-164.5 -65.5zM644 1606q-56 0 -95 -38t-39 -96t39 -96t95 -38t95 38t39 96t-39 96t-95 38z" />
<glyph unicode="&#xe6;" horiz-adv-x="1700" d="M1606 0h-732q-9 0 -14.5 6t-5.5 14v296h-488l-195 -306q-6 -10 -18 -10h-102q-13 0 -18.5 10t1.5 21l734 1149q6 10 17 10h805q8 0 14 -6t6 -14v-72q0 -8 -6 -14t-14 -6h-604v-408h552q8 0 14 -5.5t6 -14.5v-71q0 -9 -6 -15t-14 -6h-552v-446h620q9 0 14.5 -6t5.5 -14 v-72q0 -8 -5.5 -14t-14.5 -6zM854 1082l-418 -654h418v654z" />
<glyph unicode="&#xe7;" horiz-adv-x="1172" d="M74 594q0 285 190 452.5t520 167.5q171 0 299 -41q17 -6 15 -22l-9 -76q-4 -25 -27 -17q-107 40 -272 40q-270 0 -425 -137t-155 -367q0 -233 157 -367t427 -134q168 0 275 44q10 4 18 -0.5t10 -15.5l9 -82q2 -16 -15 -22q-130 -38 -283 -41l-66 -96q102 -15 151 -65 t49 -120q0 -80 -73 -125.5t-213 -45.5q-51 0 -97 8q-10 1 -17.5 10t-7.5 20v28q0 15 10.5 23.5t24.5 6.5q42 -6 84 -6q82 0 126.5 25.5t44.5 70.5q0 92 -194 113q-19 2 -26 16.5t3 30.5l73 111q-286 27 -446 189.5t-160 423.5z" />
<glyph unicode="&#xe8;" horiz-adv-x="1090" d="M144 20v1150q0 8 6 14t15 6h815q8 0 14 -6t6 -14v-72q0 -8 -6 -14t-14 -6h-704v-408h663q21 0 21 -20v-71q0 -9 -6 -15t-15 -6h-663v-446h719q9 0 15 -6t6 -14v-72q0 -8 -6 -14t-15 -6h-830q-9 0 -15 6t-6 14zM721 1314h-69q-22 0 -37 14l-309 286q-9 8 -6.5 16t15.5 8 h121q17 0 29 -13l261 -289q6 -7 4.5 -14.5t-9.5 -7.5z" />
<glyph unicode="&#xe9;" horiz-adv-x="1090" d="M144 20v1150q0 8 6 14t15 6h815q8 0 14 -6t6 -14v-72q0 -8 -6 -14t-14 -6h-704v-408h663q21 0 21 -20v-71q0 -9 -6 -15t-15 -6h-663v-446h719q9 0 15 -6t6 -14v-72q0 -8 -6 -14t-15 -6h-830q-9 0 -15 6t-6 14zM466 1314h-69q-8 0 -9.5 7.5t4.5 14.5l261 289q12 13 29 13 h121q13 0 15.5 -8t-6.5 -16l-309 -286q-15 -14 -37 -14z" />
<glyph unicode="&#xea;" horiz-adv-x="1090" d="M144 20v1150q0 8 6 14t15 6h815q8 0 14 -6t6 -14v-72q0 -8 -6 -14t-14 -6h-704v-408h663q21 0 21 -20v-71q0 -9 -6 -15t-15 -6h-663v-446h719q9 0 15 -6t6 -14v-72q0 -8 -6 -14t-15 -6h-830q-9 0 -15 6t-6 14zM528 1638h92q20 0 33 -15l243 -284q10 -11 8 -22t-16 -11 h-78q-23 0 -37 18l-199 234l-199 -234q-14 -18 -37 -18h-78q-14 0 -16 11t8 22l243 284q13 15 33 15z" />
<glyph unicode="&#xeb;" horiz-adv-x="1090" d="M144 20v1150q0 8 6 14t15 6h815q8 0 14 -6t6 -14v-72q0 -8 -6 -14t-14 -6h-704v-408h663q21 0 21 -20v-71q0 -9 -6 -15t-15 -6h-663v-446h719q9 0 15 -6t6 -14v-72q0 -8 -6 -14t-15 -6h-830q-9 0 -15 6t-6 14zM327 1369q-45 0 -66 25.5t-21 80.5q0 56 21 81t66 25 q44 0 65 -25t21 -81q0 -106 -86 -106zM809 1369q-85 0 -85 106q0 56 20.5 81t64.5 25q45 0 66 -25t21 -81q0 -55 -21 -80.5t-66 -25.5z" />
<glyph unicode="&#xec;" horiz-adv-x="440" d="M174 1190h92q8 0 14 -6t6 -14v-1150q0 -8 -6 -14t-14 -6h-92q-9 0 -14.5 6t-5.5 14v1150q0 8 5.5 14t14.5 6zM283 1314h-69q-22 0 -37 14l-309 286q-9 8 -6.5 16t15.5 8h121q17 0 29 -13l261 -289q6 -7 4.5 -14.5t-9.5 -7.5z" />
<glyph unicode="&#xed;" horiz-adv-x="440" d="M174 1190h92q8 0 14 -6t6 -14v-1150q0 -8 -6 -14t-14 -6h-92q-9 0 -14.5 6t-5.5 14v1150q0 8 5.5 14t14.5 6zM226 1314h-69q-8 0 -9.5 7.5t4.5 14.5l261 289q12 13 29 13h121q13 0 15.5 -8t-6.5 -16l-309 -286q-15 -14 -37 -14z" />
<glyph unicode="&#xee;" horiz-adv-x="440" d="M174 1190h92q8 0 14 -6t6 -14v-1150q0 -8 -6 -14t-14 -6h-92q-9 0 -14.5 6t-5.5 14v1150q0 8 5.5 14t14.5 6zM174 1638h92q20 0 33 -15l243 -284q10 -11 8 -22t-16 -11h-78q-23 0 -37 18l-199 234l-199 -234q-14 -18 -37 -18h-78q-14 0 -16 11t8 22l243 284q13 15 33 15z " />
<glyph unicode="&#xef;" horiz-adv-x="440" d="M174 1190h92q8 0 14 -6t6 -14v-1150q0 -8 -6 -14t-14 -6h-92q-9 0 -14.5 6t-5.5 14v1150q0 8 5.5 14t14.5 6zM-21 1369q-45 0 -66 25.5t-21 80.5q0 56 21 81t66 25q44 0 65 -25t21 -81q0 -106 -86 -106zM461 1369q-85 0 -85 106q0 56 20.5 81t64.5 25q45 0 66 -25t21 -81 q0 -55 -21 -80.5t-66 -25.5z" />
<glyph unicode="&#xf0;" horiz-adv-x="1346" d="M512 0h-311q-9 0 -15 6t-6 14v522h-130q-9 0 -14.5 6t-5.5 14v68q0 8 5.5 14t14.5 6h130v520q0 8 6 14t15 6h311q229 0 398.5 -66t265.5 -201.5t96 -328.5t-96.5 -328t-265.5 -200.5t-398 -65.5zM1136 594q0 243 -169 363.5t-477 120.5h-178v-428h336q8 0 14 -6t6 -14 v-68q0 -8 -6 -14t-14 -6h-336v-430h178q308 0 477 120t169 362z" />
<glyph unicode="&#xf1;" horiz-adv-x="1350" d="M314 1182l760 -1016v1004q0 8 5.5 14t14.5 6h92q8 0 14 -6t6 -14v-1150q0 -8 -6 -14t-14 -6h-134q-10 0 -16 8l-760 1016v-1004q0 -8 -5.5 -14t-14.5 -6h-92q-8 0 -14 6t-6 14v1150q0 8 6 14t14 6h134q10 0 16 -8zM638 1436q-60 64 -106 64q-80 0 -88 -135 q-1 -12 -9 -20.5t-20 -8.5h-60q-13 0 -22 8.5t-8 21.5q6 128 58 186t133 58q62 0 106 -28t88 -76q60 -64 106 -64q80 0 88 135q1 12 9 20.5t20 8.5h60q13 0 22 -8.5t8 -21.5q-6 -128 -58 -186t-133 -58q-62 0 -106 28t-88 76z" />
<glyph unicode="&#xf2;" horiz-adv-x="1388" d="M1314 594q0 -173 -74.5 -313t-217 -222.5t-328.5 -82.5t-328.5 82.5t-217 222.5t-74.5 313q0 174 74.5 314.5t217 223t328.5 82.5t328.5 -82.5t217 -223t74.5 -314.5zM210 594q0 -223 133 -362.5t351 -139.5t351 139.5t133 362.5q0 225 -133 364.5t-351 139.5 t-351 -139.5t-133 -364.5zM863 1314h-69q-22 0 -37 14l-309 286q-9 8 -6.5 16t15.5 8h121q17 0 29 -13l261 -289q6 -7 4.5 -14.5t-9.5 -7.5z" />
<glyph unicode="&#xf3;" horiz-adv-x="1388" d="M1314 594q0 -173 -74.5 -313t-217 -222.5t-328.5 -82.5t-328.5 82.5t-217 222.5t-74.5 313q0 174 74.5 314.5t217 223t328.5 82.5t328.5 -82.5t217 -223t74.5 -314.5zM210 594q0 -223 133 -362.5t351 -139.5t351 139.5t133 362.5q0 225 -133 364.5t-351 139.5 t-351 -139.5t-133 -364.5zM594 1314h-69q-8 0 -9.5 7.5t4.5 14.5l261 289q12 13 29 13h121q13 0 15.5 -8t-6.5 -16l-309 -286q-15 -14 -37 -14z" />
<glyph unicode="&#xf4;" horiz-adv-x="1388" d="M1314 594q0 -173 -74.5 -313t-217 -222.5t-328.5 -82.5t-328.5 82.5t-217 222.5t-74.5 313q0 174 74.5 314.5t217 223t328.5 82.5t328.5 -82.5t217 -223t74.5 -314.5zM210 594q0 -223 133 -362.5t351 -139.5t351 139.5t133 362.5q0 225 -133 364.5t-351 139.5 t-351 -139.5t-133 -364.5zM648 1638h92q20 0 33 -15l243 -284q10 -11 8 -22t-16 -11h-78q-23 0 -37 18l-199 234l-199 -234q-14 -18 -37 -18h-78q-14 0 -16 11t8 22l243 284q13 15 33 15z" />
<glyph unicode="&#xf5;" horiz-adv-x="1388" d="M1314 594q0 -173 -74.5 -313t-217 -222.5t-328.5 -82.5t-328.5 82.5t-217 222.5t-74.5 313q0 174 74.5 314.5t217 223t328.5 82.5t328.5 -82.5t217 -223t74.5 -314.5zM210 594q0 -223 133 -362.5t351 -139.5t351 139.5t133 362.5q0 225 -133 364.5t-351 139.5 t-351 -139.5t-133 -364.5zM658 1436q-60 64 -106 64q-80 0 -88 -135q-1 -12 -9 -20.5t-20 -8.5h-60q-13 0 -22 8.5t-8 21.5q6 128 58 186t133 58q62 0 106 -28t88 -76q60 -64 106 -64q80 0 88 135q1 12 9 20.5t20 8.5h60q13 0 22 -8.5t8 -21.5q-6 -128 -58 -186t-133 -58 q-62 0 -106 28t-88 76z" />
<glyph unicode="&#xf6;" horiz-adv-x="1388" d="M1314 594q0 -173 -74.5 -313t-217 -222.5t-328.5 -82.5t-328.5 82.5t-217 222.5t-74.5 313q0 174 74.5 314.5t217 223t328.5 82.5t328.5 -82.5t217 -223t74.5 -314.5zM210 594q0 -223 133 -362.5t351 -139.5t351 139.5t133 362.5q0 225 -133 364.5t-351 139.5 t-351 -139.5t-133 -364.5zM453 1369q-45 0 -66 25.5t-21 80.5q0 56 21 81t66 25q44 0 65 -25t21 -81q0 -106 -86 -106zM935 1369q-85 0 -85 106q0 56 20.5 81t64.5 25q45 0 66 -25t21 -81q0 -55 -21 -80.5t-66 -25.5z" />
<glyph unicode="&#xf7;" d="M744 262q0 -112 -90 -112t-90 112t90 112t90 -112zM744 1066q0 -112 -90 -112t-90 112t90 112t90 -112zM154 722h999q13 0 22 -8.5t9 -21.5v-56q0 -13 -9 -21.5t-22 -8.5h-999q-13 0 -21.5 8.5t-8.5 21.5v56q0 13 8.5 21.5t21.5 8.5z" />
<glyph unicode="&#xf8;" horiz-adv-x="1388" d="M1314 594q0 -173 -74.5 -313t-217 -222.5t-328.5 -82.5q-174 0 -310 71l-157 -231q-12 -16 -36 -16h-63q-13 0 -18 10.5t2 21.5l185 272q-107 84 -165 211t-58 279q0 174 74.5 314.5t217 223t328.5 82.5q173 0 309 -72l158 232q12 16 36 16h63q13 0 18 -10.5t-2 -21.5 l-186 -273q107 -84 165.5 -212t58.5 -279zM1178 594q0 246 -158 388l-567 -834q106 -56 241 -56q218 0 351 139.5t133 362.5zM210 594q0 -246 157 -386l568 833q-106 57 -241 57q-218 0 -351 -139.5t-133 -364.5z" />
<glyph unicode="&#xf9;" horiz-adv-x="1380" d="M690 -24q-119 0 -217.5 29.5t-172.5 87.5t-115 151t-41 214v712q0 8 6 14t15 6h90q9 0 15 -6t6 -14v-698q0 -185 107 -282.5t307 -97.5t307 97.5t107 282.5v698q0 8 6 14t15 6h90q9 0 15 -6t6 -14v-712q0 -121 -41 -214t-115 -151t-172.5 -87.5t-217.5 -29.5zM803 1314 h-69q-22 0 -37 14l-309 286q-9 8 -6.5 16t15.5 8h121q17 0 29 -13l261 -289q6 -7 4.5 -14.5t-9.5 -7.5z" />
<glyph unicode="&#xfa;" horiz-adv-x="1380" d="M690 -24q-119 0 -217.5 29.5t-172.5 87.5t-115 151t-41 214v712q0 8 6 14t15 6h90q9 0 15 -6t6 -14v-698q0 -185 107 -282.5t307 -97.5t307 97.5t107 282.5v698q0 8 6 14t15 6h90q9 0 15 -6t6 -14v-712q0 -121 -41 -214t-115 -151t-172.5 -87.5t-217.5 -29.5zM646 1314 h-69q-8 0 -9.5 7.5t4.5 14.5l261 289q12 13 29 13h121q13 0 15.5 -8t-6.5 -16l-309 -286q-15 -14 -37 -14z" />
<glyph unicode="&#xfb;" horiz-adv-x="1380" d="M690 -24q-119 0 -217.5 29.5t-172.5 87.5t-115 151t-41 214v712q0 8 6 14t15 6h90q9 0 15 -6t6 -14v-698q0 -185 107 -282.5t307 -97.5t307 97.5t107 282.5v698q0 8 6 14t15 6h90q9 0 15 -6t6 -14v-712q0 -121 -41 -214t-115 -151t-172.5 -87.5t-217.5 -29.5zM644 1638 h92q20 0 33 -15l243 -284q10 -11 8 -22t-16 -11h-78q-23 0 -37 18l-199 234l-199 -234q-14 -18 -37 -18h-78q-14 0 -16 11t8 22l243 284q13 15 33 15z" />
<glyph unicode="&#xfc;" horiz-adv-x="1380" d="M690 -24q-119 0 -217.5 29.5t-172.5 87.5t-115 151t-41 214v712q0 8 6 14t15 6h90q9 0 15 -6t6 -14v-698q0 -185 107 -282.5t307 -97.5t307 97.5t107 282.5v698q0 8 6 14t15 6h90q9 0 15 -6t6 -14v-712q0 -121 -41 -214t-115 -151t-172.5 -87.5t-217.5 -29.5zM449 1369 q-45 0 -66 25.5t-21 80.5q0 56 21 81t66 25q44 0 65 -25t21 -81q0 -106 -86 -106zM931 1369q-85 0 -85 106q0 56 20.5 81t64.5 25q45 0 66 -25t21 -81q0 -55 -21 -80.5t-66 -25.5z" />
<glyph unicode="&#xfd;" d="M700 0h-92q-8 0 -14 6t-6 14v452l-530 687q-8 11 -3 21t19 10h97q19 0 28 -12l455 -588l455 588q9 12 28 12h97q14 0 19 -10t-3 -21l-530 -687v-452q0 -8 -6 -14t-14 -6zM602 1314h-69q-8 0 -9.5 7.5t4.5 14.5l261 289q12 13 29 13h121q13 0 15.5 -8t-6.5 -16l-309 -286 q-15 -14 -37 -14z" />
<glyph unicode="&#xfe;" horiz-adv-x="1128" d="M1064 604q0 -179 -139.5 -273.5t-382.5 -94.5h-266v-216q0 -8 -6 -14t-14 -6h-92q-9 0 -14.5 6t-5.5 14v1150q0 8 5.5 14t14.5 6h92q8 0 14 -6t6 -14v-198h266q243 0 382.5 -95t139.5 -273zM928 604q0 127 -102.5 191.5t-291.5 64.5h-258v-512h258q189 0 291.5 65 t102.5 191z" />
<glyph unicode="&#xff;" d="M700 0h-92q-8 0 -14 6t-6 14v452l-530 687q-8 11 -3 21t19 10h97q19 0 28 -12l455 -588l455 588q9 12 28 12h97q14 0 19 -10t-3 -21l-530 -687v-452q0 -8 -6 -14t-14 -6zM413 1369q-45 0 -66 25.5t-21 80.5q0 56 21 81t66 25q44 0 65 -25t21 -81q0 -106 -86 -106z M895 1369q-85 0 -85 106q0 56 20.5 81t64.5 25q45 0 66 -25t21 -81q0 -55 -21 -80.5t-66 -25.5z" />
<glyph unicode="&#x152;" horiz-adv-x="1918" d="M932 116v1178h-18q-322 0 -501 -158.5t-179 -429.5t179.5 -430.5t500.5 -159.5h18zM1803 0h-875q-391 0 -612.5 190.5t-221.5 515.5q0 323 221.5 514.5t610.5 191.5h857q13 0 22 -8.5t9 -21.5v-56q0 -13 -9 -21.5t-22 -8.5h-705v-512h646q13 0 21.5 -8.5t8.5 -21.5v-56 q0 -13 -8.5 -21.5t-21.5 -8.5h-646v-552h725q13 0 22 -9t9 -22v-54q0 -13 -9 -22t-22 -9z" />
<glyph unicode="&#x153;" horiz-adv-x="1634" d="M1539 0h-753q-335 0 -523.5 161t-188.5 437q0 274 188.5 433t523.5 159h738q8 0 14 -6t6 -14v-72q0 -8 -6 -14t-14 -6h-604v-408h552q8 0 14 -5.5t6 -14.5v-71q0 -9 -6 -15t-14 -6h-552v-446h619q9 0 15 -6t6 -14v-72q0 -8 -6 -14t-15 -6zM788 112v966h-16 q-268 0 -415 -129t-147 -351t147 -354t415 -132h16z" />
<glyph unicode="&#x178;" horiz-adv-x="1532" d="M805 0h-78q-13 0 -22 9t-9 22v525l-614 795q-12 17 -4 33t28 16h61q45 0 73 -36l526 -683l526 683q28 36 73 36h61q20 0 28 -16t-4 -33l-614 -795v-525q0 -13 -9 -22t-22 -9zM524 1580q-44 0 -65 25.5t-21 80.5t21 80.5t65 25.5t65 -25.5t21 -80.5t-21 -80.5t-65 -25.5z M1008 1580q-44 0 -65 25.5t-21 80.5t21 80.5t65 25.5t65 -25.5t21 -80.5t-21 -80.5t-65 -25.5z" />
<glyph unicode="&#x2c6;" horiz-adv-x="920" d="M414 1460h92q20 0 33 -15l243 -284q10 -11 8 -22t-16 -11h-78q-23 0 -37 18l-199 234l-199 -234q-14 -18 -37 -18h-78q-14 0 -16 11t8 22l243 284q13 15 33 15z" />
<glyph unicode="&#x2dc;" horiz-adv-x="920" d="M424 1260q-60 64 -106 64q-80 0 -88 -135q-1 -12 -9 -20.5t-20 -8.5h-60q-13 0 -22 8.5t-8 21.5q6 128 58 186t133 58q62 0 106 -28t88 -76q60 -64 106 -64q80 0 88 135q1 12 9 20.5t20 8.5h60q13 0 22 -8.5t8 -21.5q-6 -128 -58 -186t-133 -58q-62 0 -106 28t-88 76z " />
<glyph unicode="&#x2000;" horiz-adv-x="954" />
<glyph unicode="&#x2001;" horiz-adv-x="1908" />
<glyph unicode="&#x2002;" horiz-adv-x="954" />
<glyph unicode="&#x2003;" horiz-adv-x="1908" />
<glyph unicode="&#x2004;" horiz-adv-x="636" />
<glyph unicode="&#x2005;" horiz-adv-x="477" />
<glyph unicode="&#x2006;" horiz-adv-x="318" />
<glyph unicode="&#x2007;" horiz-adv-x="318" />
<glyph unicode="&#x2008;" horiz-adv-x="238" />
<glyph unicode="&#x2009;" horiz-adv-x="381" />
<glyph unicode="&#x200a;" horiz-adv-x="106" />
<glyph unicode="&#x2010;" horiz-adv-x="846" d="M692 602h-538q-13 0 -21.5 8.5t-8.5 21.5v64q0 13 8.5 21.5t21.5 8.5h538q13 0 21.5 -8.5t8.5 -21.5v-64q0 -13 -8.5 -21.5t-21.5 -8.5z" />
<glyph unicode="&#x2011;" horiz-adv-x="846" d="M692 602h-538q-13 0 -21.5 8.5t-8.5 21.5v64q0 13 8.5 21.5t21.5 8.5h538q13 0 21.5 -8.5t8.5 -21.5v-64q0 -13 -8.5 -21.5t-21.5 -8.5z" />
<glyph unicode="&#x2012;" horiz-adv-x="846" d="M692 602h-538q-13 0 -21.5 8.5t-8.5 21.5v64q0 13 8.5 21.5t21.5 8.5h538q13 0 21.5 -8.5t8.5 -21.5v-64q0 -13 -8.5 -21.5t-21.5 -8.5z" />
<glyph unicode="&#x2013;" horiz-adv-x="1000" d="M970 606h-940q-13 0 -21.5 8.5t-8.5 21.5v56q0 13 8.5 21.5t21.5 8.5h940q13 0 21.5 -8.5t8.5 -21.5v-56q0 -13 -8.5 -21.5t-21.5 -8.5z" />
<glyph unicode="&#x2014;" horiz-adv-x="2000" d="M1970 606h-1940q-13 0 -21.5 8.5t-8.5 21.5v56q0 13 8.5 21.5t21.5 8.5h1940q13 0 21.5 -8.5t8.5 -21.5v-56q0 -13 -8.5 -21.5t-21.5 -8.5z" />
<glyph unicode="&#x2018;" horiz-adv-x="660" d="M363 1519q4 4 11 4t11 -4l21 -26q7 -9 -1 -20q-60 -77 -69 -167q44 -2 64 -28.5t20 -83.5q0 -58 -21.5 -85t-68.5 -27t-68.5 27t-21.5 85q0 113 27 189.5t96 135.5z" />
<glyph unicode="&#x2019;" horiz-adv-x="660" d="M297 1087q-4 -4 -11 -4t-11 4l-21 26q-7 9 1 20q60 77 69 167q-44 2 -64 28.5t-20 83.5q0 58 21.5 85t68.5 27t68.5 -27t21.5 -85q0 -113 -27 -189.5t-96 -135.5z" />
<glyph unicode="&#x201a;" horiz-adv-x="660" d="M297 -237q-4 -4 -11 -4t-11 4l-21 26q-7 9 1 20q60 77 69 167q-44 2 -64 28.5t-20 83.5q0 58 21.5 85t68.5 27t68.5 -27t21.5 -85q0 -113 -27 -189.5t-96 -135.5z" />
<glyph unicode="&#x201c;" horiz-adv-x="994" d="M697 1519q4 4 11 4t11 -4l21 -26q7 -9 -1 -20q-60 -77 -69 -167q44 -2 64 -28.5t20 -83.5q0 -58 -21.5 -85t-68.5 -27t-68.5 27t-21.5 85q0 113 27 189.5t96 135.5zM363 1519q4 4 11 4t11 -4l21 -26q7 -9 -1 -20q-60 -77 -69 -167q44 -2 64 -28.5t20 -83.5 q0 -58 -21.5 -85t-68.5 -27t-68.5 27t-21.5 85q0 113 27 189.5t96 135.5z" />
<glyph unicode="&#x201d;" horiz-adv-x="994" d="M297 1087q-4 -4 -11 -4t-11 4l-21 26q-7 9 1 20q60 77 69 167q-44 2 -64 28.5t-20 83.5q0 58 21.5 85t68.5 27t68.5 -27t21.5 -85q0 -113 -27 -189.5t-96 -135.5zM631 1087q-4 -4 -11 -4t-11 4l-21 26q-7 9 1 20q60 77 69 167q-44 2 -64 28.5t-20 83.5q0 58 21.5 85 t68.5 27t68.5 -27t21.5 -85q0 -113 -27 -189.5t-96 -135.5z" />
<glyph unicode="&#x201e;" horiz-adv-x="994" d="M297 -237q-4 -4 -11 -4t-11 4l-21 26q-7 9 1 20q60 77 69 167q-44 2 -64 28.5t-20 83.5q0 58 21.5 85t68.5 27t68.5 -27t21.5 -85q0 -113 -27 -189.5t-96 -135.5zM631 -237q-4 -4 -11 -4t-11 4l-21 26q-7 9 1 20q60 77 69 167q-44 2 -64 28.5t-20 83.5q0 58 21.5 85 t68.5 27t68.5 -27t21.5 -85q0 -113 -27 -189.5t-96 -135.5z" />
<glyph unicode="&#x2022;" horiz-adv-x="852" d="M426 468q-108 0 -165 51.5t-57 144.5t57 144.5t165 51.5t165 -51.5t57 -144.5t-57 -144.5t-165 -51.5z" />
<glyph unicode="&#x2026;" horiz-adv-x="1980" d="M420 88q0 -112 -90 -112t-90 112t90 112t90 -112zM1080 88q0 -112 -90 -112t-90 112t90 112t90 -112zM1740 88q0 -112 -90 -112t-90 112t90 112t90 -112z" />
<glyph unicode="&#x202f;" horiz-adv-x="381" />
<glyph unicode="&#x2039;" horiz-adv-x="692" d="M144 607v32q0 12 10 22l363 336q16 14 33.5 7t17.5 -28v-39q0 -16 -13 -29l-311 -285l311 -285q13 -13 13 -29v-39q0 -21 -17.5 -28t-33.5 7l-363 336q-10 10 -10 22z" />
<glyph unicode="&#x203a;" horiz-adv-x="692" d="M548 639v-32q0 -12 -10 -22l-363 -336q-16 -14 -33.5 -7t-17.5 28v39q0 16 13 29l311 285l-311 285q-13 13 -13 29v39q0 21 17.5 28t33.5 -7l363 -336q10 -10 10 -22z" />
<glyph unicode="&#x205f;" horiz-adv-x="477" />
<glyph unicode="&#x20ac;" horiz-adv-x="1384" d="M1145 838l-11 -38q-8 -28 -39 -28h-795q-5 -43 -5 -73q0 -28 5 -73h737q16 0 22.5 -11t1.5 -27l-11 -36q-8 -28 -39 -28h-694q53 -211 220.5 -319.5t420.5 -108.5q164 0 291 47q15 5 27 -1t14 -21l7 -60q3 -32 -27 -41q-142 -44 -318 -44q-312 0 -515 139.5t-264 408.5 h-109q-13 0 -21.5 8.5t-8.5 21.5v42q0 13 8.5 21.5t21.5 8.5h96q-3 43 -3 72q0 38 3 74h-96q-13 0 -21.5 9t-8.5 21v42q0 13 8.5 21.5t21.5 8.5h109q56 263 258 406.5t516 143.5q181 0 316 -44q29 -10 26 -34l-7 -61q-1 -15 -13.5 -22t-27.5 -2q-127 43 -287 43 q-249 0 -415.5 -111.5t-221.5 -318.5h804q15 0 22 -10.5t2 -25.5z" />
<glyph unicode="&#x2122;" horiz-adv-x="1526" d="M262 778v534h-207q-13 0 -22 8.5t-9 21.5v27q0 13 9 22t22 9h520q13 0 22 -9t9 -22v-27q0 -13 -9 -21.5t-22 -8.5h-205v-534q0 -13 -8.5 -21.5t-21.5 -8.5h-48q-13 0 -21.5 8.5t-8.5 21.5zM1066 964h-52q-12 0 -23 11l-225 262v-461q0 -13 -8.5 -21.5t-21.5 -8.5h-48 q-13 0 -21.5 8.5t-8.5 21.5v593q0 13 8.5 22t21.5 9h61q13 0 22 -11l269 -319l269 319q9 11 22 11h61q13 0 21.5 -9t8.5 -22v-593q0 -13 -8.5 -21.5t-21.5 -8.5h-48q-13 0 -21.5 8.5t-8.5 21.5v461l-225 -262q-11 -11 -23 -11z" />
<glyph unicode="&#xfb02;" horiz-adv-x="2156" d="M144 20v1150q0 8 6 14t14 6h816q8 0 14 -6t6 -14v-72q0 -8 -6 -14t-14 -6h-704v-408h657q21 0 21 -20v-71q0 -9 -6 -15t-15 -6h-657v-538q0 -8 -6 -14t-15 -6h-91q-8 0 -14 6t-6 14zM1208 20v1150q0 8 5.5 14t14.5 6h92q8 0 14 -6t6 -14v-1058h762q9 0 14.5 -6t5.5 -14 v-72q0 -8 -5.5 -14t-14.5 -6h-874q-9 0 -14.5 6t-5.5 14z" />
<glyph unicode="&#xfb04;" horiz-adv-x="3220" d="M1208 20v1150q0 8 6 14t14 6h816q8 0 14 -6t6 -14v-72q0 -8 -6 -14t-14 -6h-704v-408h657q21 0 21 -20v-71q0 -9 -6 -15t-15 -6h-657v-538q0 -8 -6 -14t-15 -6h-91q-8 0 -14 6t-6 14zM2272 20v1150q0 8 5.5 14t14.5 6h92q8 0 14 -6t6 -14v-1058h762q9 0 14.5 -6t5.5 -14 v-72q0 -8 -5.5 -14t-14.5 -6h-874q-9 0 -14.5 6t-5.5 14zM144 20v1150q0 8 6 14t14 6h816q8 0 14 -6t6 -14v-72q0 -8 -6 -14t-14 -6h-704v-408h657q21 0 21 -20v-71q0 -9 -6 -15t-15 -6h-657v-538q0 -8 -6 -14t-15 -6h-91q-8 0 -14 6t-6 14z" />
</font>
</defs>
</svg>
