<?xml version="1.0" standalone="no"?>
<!DOCTYPE svg PUBLIC "-//W3C//DTD SVG 1.1//EN" "http://www.w3.org/Graphics/SVG/1.1/DTD/svg11.dtd" >
<svg xmlns="http://www.w3.org/2000/svg">
<metadata></metadata>
<defs>
<font id="core_sans_nr_73_ex_extrabolIt" horiz-adv-x="1420" >
<font-face units-per-em="2000" ascent="1600" descent="-400" />
<missing-glyph horiz-adv-x="720" />
<glyph unicode="&#xfb01;" horiz-adv-x="1586" d="M1389 1152q-109 0 -154 38t-30 116q31 154 244 154q109 0 154.5 -38t29.5 -116q-30 -154 -244 -154zM981 39l186 958q3 16 17 27.5t30 11.5h306q16 0 25 -11.5t6 -27.5l-186 -958q-3 -16 -16.5 -27.5t-29.5 -11.5h-306q-16 0 -25.5 11.5t-6.5 27.5zM78 837l31 160 q3 16 17 27.5t30 11.5h187l8 43q74 381 550 381q113 0 214 -19q35 -7 23 -42l-47 -146q-6 -18 -20.5 -27.5t-31.5 -6.5q-52 9 -98 9q-97 0 -143 -32t-62 -113l-9 -47h275q16 0 25 -11.5t6 -27.5l-31 -160q-3 -16 -16.5 -27.5t-29.5 -11.5h-275l-223 -1145q-3 -16 -17 -27.5 t-30 -11.5h-306q-16 0 -25 11.5t-6 27.5l223 1145h-187q-16 0 -25.5 11.5t-6.5 27.5z" />
<glyph unicode="&#xfb02;" horiz-adv-x="1586" d="M981 39l269 1382q3 16 16.5 27.5t29.5 11.5h306q16 0 25.5 -11.5t6.5 -27.5l-269 -1382q-3 -16 -16.5 -27.5t-29.5 -11.5h-306q-16 0 -25.5 11.5t-6.5 27.5zM78 837l31 160q3 16 17 27.5t30 11.5h187l8 43q74 381 550 381q113 0 214 -19q35 -7 23 -42l-47 -146 q-6 -18 -20.5 -27.5t-31.5 -6.5q-52 9 -98 9q-97 0 -143 -32t-62 -113l-9 -47h275q16 0 25 -11.5t6 -27.5l-31 -160q-3 -16 -16.5 -27.5t-29.5 -11.5h-275l-223 -1145q-3 -16 -17 -27.5t-30 -11.5h-306q-16 0 -25 11.5t-6 27.5l223 1145h-187q-16 0 -25.5 11.5t-6.5 27.5z " />
<glyph unicode="&#xfb03;" horiz-adv-x="2478" d="M2281 1152q-109 0 -154 38t-30 116q31 154 244 154q109 0 154.5 -38t29.5 -116q-30 -154 -244 -154zM1873 39l186 958q3 16 17 27.5t30 11.5h306q16 0 25 -11.5t6 -27.5l-186 -958q-3 -16 -16.5 -27.5t-29.5 -11.5h-306q-16 0 -25.5 11.5t-6.5 27.5zM736 1083l-9 -47h478 l8 43q74 381 550 381q113 0 214 -19q35 -7 23 -42l-47 -146q-6 -18 -20.5 -27.5t-31.5 -6.5q-52 9 -98 9q-97 0 -143 -32t-62 -113l-9 -47h275q16 0 25 -11.5t6 -27.5l-31 -160q-3 -16 -16.5 -27.5t-29.5 -11.5h-275l-223 -1145q-3 -16 -17 -27.5t-30 -11.5h-306 q-16 0 -25 11.5t-6 27.5l223 1145h-478l-223 -1145q-3 -16 -17 -27.5t-30 -11.5h-306q-16 0 -25 11.5t-6 27.5l223 1145h-187q-16 0 -25.5 11.5t-6.5 27.5l31 160q3 16 17 27.5t30 11.5h187l8 43q36 187 176 284t382 97q125 0 226 -19q14 -3 21 -15.5t2 -27.5l-47 -145 q-5 -17 -20.5 -27t-31.5 -7q-52 9 -110 9q-99 0 -148.5 -32t-64.5 -113z" />
<glyph unicode="&#xfb04;" horiz-adv-x="2478" d="M1873 39l269 1382q3 16 16.5 27.5t29.5 11.5h306q16 0 25.5 -11.5t6.5 -27.5l-269 -1382q-3 -16 -16.5 -27.5t-29.5 -11.5h-306q-16 0 -25.5 11.5t-6.5 27.5zM736 1083l-9 -47h478l8 43q74 381 550 381q113 0 214 -19q35 -7 23 -42l-47 -146q-6 -18 -20.5 -27.5 t-31.5 -6.5q-52 9 -98 9q-97 0 -143 -32t-62 -113l-9 -47h275q16 0 25 -11.5t6 -27.5l-31 -160q-3 -16 -16.5 -27.5t-29.5 -11.5h-275l-223 -1145q-3 -16 -17 -27.5t-30 -11.5h-306q-16 0 -25 11.5t-6 27.5l223 1145h-478l-223 -1145q-3 -16 -17 -27.5t-30 -11.5h-306 q-16 0 -25 11.5t-6 27.5l223 1145h-187q-16 0 -25.5 11.5t-6.5 27.5l31 160q3 16 17 27.5t30 11.5h187l8 43q36 187 176 284t382 97q125 0 226 -19q14 -3 21 -15.5t2 -27.5l-47 -145q-5 -17 -20.5 -27t-31.5 -7q-52 9 -110 9q-99 0 -148.5 -32t-64.5 -113z" />
<glyph horiz-adv-x="666" />
<glyph horiz-adv-x="0" />
<glyph horiz-adv-x="0" />
<glyph unicode="&#xd;" horiz-adv-x="682" />
<glyph unicode=" "  horiz-adv-x="720" />
<glyph unicode="&#x09;" horiz-adv-x="720" />
<glyph unicode="&#xa0;" horiz-adv-x="720" />
<glyph unicode="!" horiz-adv-x="744" d="M381 1400h326q16 0 25 -11t6 -27l-58 -300l-171 -608q-5 -14 -18 -25t-27 -11h-223q-14 0 -24 11t-8 25l67 607l58 301q3 16 17 27t30 11zM267 -24q-112 0 -154 41t-26 127q17 85 75.5 126.5t169.5 41.5q112 0 154 -42t25 -126q-16 -86 -74 -127t-170 -41z" />
<glyph unicode="&#x22;" horiz-adv-x="1242" d="M267 821l77 539q2 17 16 28.5t31 11.5h284q16 0 25 -11t6 -27l-8 -43l-153 -501q-5 -14 -18 -24t-28 -10h-201q-15 0 -24 11t-7 26zM785 821l77 539q2 17 16 28.5t31 11.5h284q16 0 25 -11t6 -27l-8 -43l-153 -501q-5 -14 -18 -24t-28 -10h-201q-15 0 -24 11t-7 26z" />
<glyph unicode="#" horiz-adv-x="1708" d="M1466 296h-249l-106 -266q-4 -12 -17.5 -21t-25.5 -9h-247q-19 0 -27.5 13.5t-1.5 32.5l100 250h-334l-106 -266q-4 -12 -17.5 -21t-25.5 -9h-247q-19 0 -27.5 13.5t-1.5 32.5l100 250h-187q-16 0 -25.5 11.5t-5.5 27.5l36 186q3 16 16.5 27.5t29.5 11.5h241l110 278 h-195q-16 0 -25 11.5t-6 27.5l36 186q3 16 17 27.5t30 11.5h249l107 268q5 12 18.5 21t25.5 9h247q19 0 27 -13.5t1 -32.5l-101 -252h334l107 268q5 12 18.5 21t25.5 9h247q19 0 27 -13.5t1 -32.5l-101 -252h187q16 0 25 -11.5t6 -27.5l-36 -186q-3 -16 -17 -27.5t-30 -11.5 h-241l-110 -278h195q16 0 25.5 -11.5t6.5 -27.5l-36 -186q-4 -16 -17.5 -27.5t-29.5 -11.5zM773 838l-110 -278h334l110 278h-334z" />
<glyph unicode="$" horiz-adv-x="1380" d="M124 336q179 -74 424 -74q155 0 221.5 30t78.5 92q8 38 -15.5 66.5t-91.5 57.5t-200 66q-223 63 -310 167t-55 269q72 369 579 409l31 160q4 16 17.5 27.5t29.5 11.5h132q16 0 25.5 -11.5t5.5 -27.5l-30 -157q208 -8 367 -55q12 -4 18.5 -17t2.5 -26l-59 -206 q-6 -20 -22.5 -30t-35.5 -4q-146 50 -363 50q-103 0 -165.5 -13t-88.5 -35t-33 -58q-11 -55 48 -93t244 -94q236 -71 324 -173t56 -268q-35 -184 -173.5 -288.5t-399.5 -127.5l-31 -163q-3 -16 -17 -27.5t-30 -11.5h-132q-16 0 -25 11.5t-6 27.5l30 155q-264 5 -450 71 q-12 4 -18.5 17t-2.5 26l62 212q6 21 23 31t35 3z" />
<glyph unicode="%" horiz-adv-x="2164" d="M216 1018q34 175 167 285.5t332 110.5t289 -110.5t56 -285.5t-167 -285.5t-332 -110.5t-289 110.5t-56 285.5zM496 1018q-16 -82 13 -124t97 -42t113 42t61 124t-12.5 124t-96.5 42t-113.5 -42t-61.5 -124zM1173 382q34 175 167 285.5t332 110.5t289 -110.5t56 -285.5 t-167 -285.5t-332 -110.5t-289 110.5t-56 285.5zM1453 382q-16 -82 12.5 -124t96.5 -42t113.5 42t61.5 124t-13 124t-97 42t-113 -42t-61 -124zM1636 1364l-1257 -1301q-25 -27 -18.5 -45t35.5 -18h115q52 0 85 36l1257 1301q20 20 15 41.5t-31 21.5h-115q-53 0 -86 -36z " />
<glyph unicode="&#x26;" horiz-adv-x="1858" d="M1414 312l267 -245q18 -18 2 -42.5t-46 -24.5h-277q-103 0 -167 59l-65 59q-101 -70 -241 -106t-296 -36q-135 0 -241 25t-180 74.5t-104.5 128.5t-10.5 182q24 125 120.5 221t255.5 153q-74 71 -101 144t-10 160q32 160 188 260t398 100q240 0 360.5 -97t88.5 -261 q-23 -116 -119.5 -206.5t-250.5 -151.5l217 -202q84 93 124 235q4 15 18 28t29 13h256q18 0 27.5 -11t5.5 -28q-35 -130 -101 -241.5t-147 -189.5zM1016 1064q11 57 -28.5 88.5t-123.5 31.5q-79 0 -132 -34t-63 -80q-8 -44 18.5 -88t100.5 -104q110 43 164 88t64 98z M414 382q-14 -73 48.5 -114.5t192.5 -41.5q168 0 272 70l-302 280q-186 -67 -211 -194z" />
<glyph unicode="'" horiz-adv-x="704" d="M257 821l77 539q2 17 16 28.5t31 11.5h284q16 0 25 -11t6 -27l-8 -43l-153 -501q-5 -14 -18 -24t-28 -10h-201q-15 0 -24 11t-7 26z" />
<glyph unicode="(" horiz-adv-x="910" d="M197 621q93 476 500 850q34 29 74 29h195q26 0 32.5 -21t-13.5 -42q-383 -393 -466 -816q-83 -424 148 -818q12 -21 -2.5 -42t-40.5 -21h-195q-42 0 -62 29q-262 371 -170 852z" />
<glyph unicode=")" horiz-adv-x="910" d="M714 621q-92 -477 -500 -852q-34 -29 -74 -29h-195q-26 0 -32.5 21t13.5 42q383 392 466 818q82 423 -148 816q-12 21 2.5 42t40.5 21h195q42 0 62 -29q263 -373 170 -850z" />
<glyph unicode="*" horiz-adv-x="1108" d="M235 359l-93 162q-9 15 -3.5 31.5t21.5 23.5l208 88l-209 88q-17 7 -22 24t4 31l93 162q9 15 26 18.5t31 -7.5l182 -138l-28 226q-2 18 9.5 31t29.5 13h186q17 0 29 -12.5t10 -31.5l-28 -223l179 135q14 11 31 7.5t26 -18.5l93 -162q9 -14 4 -31t-22 -24l-210 -88 l209 -88q16 -7 21.5 -23.5t-3.5 -31.5l-93 -162q-9 -15 -25 -18.5t-32 7.5l-178 135l28 -223q2 -19 -10 -31.5t-29 -12.5h-186q-18 0 -29.5 13t-9.5 31l28 225l-181 -137q-16 -11 -32 -7.5t-25 18.5z" />
<glyph unicode="+" horiz-adv-x="1304" d="M526 199v339h-357q-16 0 -27.5 11.5t-11.5 27.5v174q0 16 11.5 27.5t27.5 11.5h357v339q0 16 11.5 27.5t27.5 11.5h234q16 0 27.5 -11.5t11.5 -27.5v-339h357q16 0 27.5 -11.5t11.5 -27.5v-174q0 -16 -11.5 -27.5t-27.5 -11.5h-357v-339q0 -16 -11.5 -27.5t-27.5 -11.5 h-234q-16 0 -27.5 11.5t-11.5 27.5z" />
<glyph unicode="," horiz-adv-x="720" d="M114 -309q-31 -16 -45 14l-30 62q-13 29 16 48q50 31 88 75t55 90q-140 21 -110 176q35 180 229 180t159 -180q-62 -317 -362 -465z" />
<glyph unicode="-" horiz-adv-x="848" d="M707 528h-570q-16 0 -25 11.5t-6 27.5l37 194q4 17 17.5 28t29.5 11h570q17 0 26 -11.5t5 -27.5l-37 -194q-3 -16 -17 -27.5t-30 -11.5z" />
<glyph unicode="." horiz-adv-x="720" d="M96 156q34 180 229 180q193 0 159 -180q-36 -180 -229 -180q-195 0 -159 180z" />
<glyph unicode="/" horiz-adv-x="1302" d="M-150 -161l1276 1617q30 40 84 40h220q25 0 32 -19t-10 -40l-1276 -1617q-32 -40 -85 -40h-219q-25 0 -32 19t10 40z" />
<glyph unicode="0" horiz-adv-x="1440" d="M80 700q64 331 279 527.5t537 196.5q215 0 351 -91.5t181.5 -253.5t3.5 -379q-64 -331 -279.5 -527.5t-537.5 -196.5q-215 0 -351 91.5t-181 253.5t-3 379zM488 700q-46 -234 0.5 -339t180.5 -105t221.5 105t133.5 339q45 234 -1.5 339t-180.5 105t-221.5 -105 t-132.5 -339z" />
<glyph unicode="1" horiz-adv-x="1440" d="M745 1048l-294 -170q-14 -8 -29.5 -4.5t-21.5 15.5l-82 162q-7 14 -1 31t22 26l466 269q41 23 99 23h263q16 0 25 -11t6 -27l-257 -1323q-3 -16 -16.5 -27.5t-29.5 -11.5h-314q-16 0 -25.5 11.5t-6.5 27.5z" />
<glyph unicode="2" horiz-adv-x="1440" d="M624 276h555q16 0 25.5 -11.5t6.5 -27.5l-39 -198q-3 -16 -16.5 -27.5t-29.5 -11.5h-1050q-16 0 -25.5 11.5t-6.5 27.5l36 185q6 34 39 52q268 151 526 344q149 111 220 190.5t88 169.5q17 86 -47.5 125t-216.5 39q-173 0 -325 -56q-21 -8 -35 2t-11 32l23 193 q1 11 11 22.5t21 15.5q196 71 456 71q294 0 430 -112t96 -322q-26 -135 -105.5 -243t-224.5 -219q-184 -142 -401 -252z" />
<glyph unicode="3" horiz-adv-x="1440" d="M63 35q-12 4 -18 16t-2 25l58 198q6 20 24 29.5t35 1.5q134 -59 346 -59q323 0 351 150q20 102 -99.5 153t-374.5 53q-16 0 -24.5 11.5t-5.5 27.5l35 179q3 16 15.5 27t28.5 11q240 0 375 42.5t151 125.5q13 67 -51 97.5t-214 30.5q-182 0 -357 -56q-19 -6 -28 2t-7 24 l16 192q4 30 34 41q210 67 470 67q291 0 430.5 -98.5t105.5 -273.5q-24 -124 -104.5 -204.5t-206.5 -117.5q119 -38 174 -124.5t31 -209.5q-38 -196 -230.5 -308t-508.5 -112q-258 0 -449 59z" />
<glyph unicode="4" horiz-adv-x="1440" d="M8 297l42 213q8 44 52 86l820 775q29 29 64 29h332q16 0 25 -11t6 -27l-159 -818h145q16 0 25.5 -11.5t6.5 -27.5l-41 -208q-3 -16 -16.5 -27.5t-29.5 -11.5h-145l-43 -219q-3 -16 -16.5 -27.5t-29.5 -11.5h-298q-16 0 -25.5 11.5t-6.5 27.5l43 219h-720q-16 0 -25 11.5 t-6 27.5zM905 1010l-495 -466h404z" />
<glyph unicode="5" horiz-adv-x="1440" d="M477 244q185 0 280 54t116 162q19 100 -58 145t-253 45q-143 0 -283 -33q-20 -5 -32 6.5t-8 31.5l137 707q3 16 17 27t30 11h950q16 0 25 -11t6 -27l-36 -189q-4 -16 -17.5 -27.5t-29.5 -11.5h-611l-49 -254q82 18 183 18q240 0 357.5 -116.5t75.5 -330.5 q-43 -220 -241 -347.5t-525 -127.5q-245 0 -414 54q-11 4 -16.5 15.5t-2.5 23.5l55 190q6 20 24 30t35 3q119 -48 285 -48z" />
<glyph unicode="6" horiz-adv-x="1440" d="M697 246q104 0 174 55t90 157q21 106 -28 159t-159 53q-159 0 -267 -78q-32 -170 19 -258t171 -88zM1292 1111q-112 45 -274 45q-188 0 -298.5 -74.5t-160.5 -239.5q153 90 358 90q233 0 355 -125.5t79 -346.5t-229 -352.5t-467 -131.5q-152 0 -265.5 42t-186.5 127 t-95 214t10 303q74 380 302.5 571t597.5 191q219 0 369 -50q27 -9 19 -41l-55 -189q-6 -20 -23.5 -30t-35.5 -3z" />
<glyph unicode="7" horiz-adv-x="1440" d="M1426 1362l-37 -194q-12 -55 -50 -109l-727 -1023q-25 -36 -65 -36h-334q-23 0 -30.5 18t6.5 38l756 1058h-682q-16 0 -25 11.5t-6 27.5l40 209q3 16 17 27t30 11h1076q16 0 25 -11t6 -27z" />
<glyph unicode="8" horiz-adv-x="1440" d="M615 -24q-308 0 -458 114t-113 302q23 119 116 211t245 143q-203 100 -164 300q33 173 206.5 275.5t448.5 102.5q270 0 406 -103t103 -275q-19 -96 -93 -172.5t-191 -123.5q137 -62 193.5 -150t33.5 -208q-37 -189 -230.5 -302.5t-502.5 -113.5zM722 628 q-130 -44 -200.5 -105.5t-84.5 -134.5q-13 -68 43 -111t185 -43q124 0 199.5 44t88.5 110q29 145 -231 240zM808 844q95 34 157.5 85t73.5 107q11 58 -39.5 94t-153.5 36q-105 0 -168 -35.5t-75 -94.5q-12 -57 36.5 -105t168.5 -87z" />
<glyph unicode="9" horiz-adv-x="1440" d="M810 1154q-104 0 -174 -55t-89 -157q-21 -106 27.5 -159t158.5 -53q159 0 268 78q32 170 -19.5 258t-171.5 88zM215 289q112 -45 274 -45q188 0 298.5 74.5t160.5 239.5q-153 -90 -358 -90q-233 0 -354.5 125.5t-79.5 346.5q43 221 229 352.5t467 131.5q152 0 265.5 -42 t186.5 -127t95 -214t-10 -303q-74 -380 -302.5 -571t-597.5 -191q-219 0 -368 50q-12 4 -17.5 15.5t-1.5 25.5l54 189q6 20 23.5 30t35.5 3z" />
<glyph unicode=":" horiz-adv-x="720" d="M96 156q34 180 229 180q193 0 159 -180q-36 -180 -229 -180q-195 0 -159 180zM237 880q35 180 229 180t159 -180q-36 -180 -229 -180q-195 0 -159 180z" />
<glyph unicode=";" horiz-adv-x="720" d="M229 880q35 180 229 180t159 -180q-36 -180 -229 -180q-195 0 -159 180zM114 -309q-31 -16 -45 14l-30 62q-13 29 16 48q50 31 88 75t55 90q-140 21 -110 176q35 180 229 180t159 -180q-62 -317 -362 -465z" />
<glyph unicode="&#x3c;" horiz-adv-x="1304" d="M130 526v276q0 11 8 22t19 15l1026 333q20 7 35.5 -4.5t15.5 -32.5v-218q0 -11 -9 -22.5t-20 -14.5l-762 -216l762 -216q11 -3 20 -14.5t9 -22.5v-218q0 -21 -15.5 -32.5t-35.5 -4.5l-1026 333q-11 4 -19 15t-8 22z" />
<glyph unicode="=" horiz-adv-x="1304" d="M1195 768h-1026q-16 0 -27.5 11t-11.5 27v175q0 16 11.5 27.5t27.5 11.5h1026q16 0 27.5 -11.5t11.5 -27.5v-175q0 -16 -11.5 -27t-27.5 -11zM1195 304h-1026q-16 0 -27.5 11t-11.5 27v175q0 16 11.5 27.5t27.5 11.5h1026q16 0 27.5 -11.5t11.5 -27.5v-175 q0 -16 -11.5 -27t-27.5 -11z" />
<glyph unicode="&#x3e;" horiz-adv-x="1304" d="M1234 802v-276q0 -11 -8 -22t-19 -15l-1026 -333q-20 -7 -35.5 4.5t-15.5 32.5v218q0 11 9 22.5t20 14.5l762 216l-762 216q-11 3 -20 14.5t-9 22.5v218q0 21 15.5 32.5t35.5 4.5l1026 -333q11 -4 19 -15t8 -22z" />
<glyph unicode="?" horiz-adv-x="1270" d="M260 1080q-20 -7 -33.5 3t-11.5 30l20 199q0 27 27 37q207 75 456 75q304 0 437 -95t97 -277q-44 -226 -347 -378q-84 -40 -125.5 -87t-53.5 -113l-5 -25q-3 -16 -16.5 -27.5t-30.5 -11.5h-299q-16 0 -24.5 11t-5.5 28l7 35q26 136 93.5 226t195.5 150q108 50 151 88 t53 88q10 52 -44.5 77t-195.5 25q-174 0 -345 -58zM685 144q-16 -86 -74 -127t-170 -41t-154 41t-26 127q17 85 75.5 126.5t169.5 41.5q112 0 154 -42t25 -126z" />
<glyph unicode="@" horiz-adv-x="1930" d="M850 336q123 0 215 88l126 320q-30 42 -106 42q-108 0 -207.5 -91t-125.5 -223q-13 -67 13 -101.5t85 -34.5zM1473 842q15 -26 -5 -78l-129 -342q-15 -75 6.5 -115.5t74.5 -40.5q77 0 138 88.5t89 233.5q36 188 -18 335t-193 230t-343 83q-184 0 -353 -91t-285.5 -248 t-153.5 -347q-38 -196 20.5 -353t198 -245t334.5 -88q248 0 459 123q17 10 32 5.5t19 -20.5l27 -106q9 -32 -19 -47q-268 -143 -562 -143q-183 0 -334 64t-249 177t-136.5 277.5t-1.5 355.5q37 189 138.5 353.5t241.5 278t312 178t348 64.5q186 0 337.5 -60t250.5 -167.5 t137.5 -265t2.5 -343.5q-44 -225 -175.5 -359.5t-320.5 -134.5q-87 0 -148 37.5t-81 102.5q-161 -130 -369 -130q-170 0 -249.5 100.5t-48.5 259.5q30 155 133.5 285t244.5 201.5t284 71.5q243 0 346 -180z" />
<glyph unicode="A" horiz-adv-x="1668" d="M1068 286h-592l-142 -257q-16 -29 -51 -29h-336q-23 0 -31 16.5t4 38.5l788 1320q5 10 18 17.5t24 7.5h478q11 0 20.5 -7.5t11.5 -17.5l274 -1320q4 -22 -10 -38.5t-37 -16.5h-336q-37 0 -41 29zM634 572h388l-89 542z" />
<glyph unicode="B" horiz-adv-x="1554" d="M733 0h-657q-16 0 -25.5 12t-6.5 28l257 1320q3 16 17 28t30 12h629q290 0 428.5 -100t103.5 -278q-18 -96 -78.5 -167t-153.5 -111q112 -35 161.5 -122.5t28.5 -199.5q-41 -209 -228 -315.5t-506 -106.5zM1051 426q16 83 -41.5 125.5t-201.5 42.5h-244l-66 -338h244 q276 0 309 170zM1088 996q15 73 -35.5 110.5t-171.5 37.5h-210l-58 -296h210q236 0 265 148z" />
<glyph unicode="C" horiz-adv-x="1482" d="M1293 34q-193 -58 -442 -58q-418 0 -612.5 192.5t-128.5 531.5q66 338 334.5 531t683.5 193q245 0 414 -59q11 -4 17 -15.5t3 -24.5l-59 -203q-7 -21 -24.5 -31t-35.5 -3q-124 48 -305 48q-263 0 -417 -112t-195 -324q-42 -215 73 -325.5t378 -110.5q176 0 326 50 q21 7 34.5 -2.5t11.5 -30.5l-20 -205q-1 -13 -11.5 -25.5t-24.5 -16.5z" />
<glyph unicode="D" horiz-adv-x="1642" d="M601 0h-524q-17 0 -26.5 12t-6.5 28l257 1320q3 16 17 28t31 12h524q266 0 444 -77.5t255 -236t33 -386.5q-45 -229 -184 -387.5t-346.5 -235.5t-473.5 -77zM1197 700q44 227 -54 325.5t-340 98.5h-144l-165 -848h144q243 0 378.5 98t180.5 326z" />
<glyph unicode="E" horiz-adv-x="1386" d="M1365 1124h-706l-53 -274h656q16 0 25.5 -11.5t6.5 -28.5l-38 -197q-4 -16 -17.5 -27.5t-30.5 -11.5h-656l-58 -298h722q17 0 26.5 -11.5t6.5 -27.5l-39 -197q-3 -17 -17 -28.5t-30 -11.5h-1086q-17 0 -26.5 12t-6.5 28l257 1320q3 16 17 28t31 12h1070q16 0 25.5 -11.5 t6.5 -28.5l-38 -197q-4 -16 -17.5 -27.5t-30.5 -11.5z" />
<glyph unicode="F" horiz-adv-x="1336" d="M552 574l-104 -534q-3 -16 -16.5 -28t-29.5 -12h-326q-16 0 -25.5 12t-6.5 28l257 1320q3 16 17 28t31 12h1070q16 0 25.5 -11.5t6.5 -28.5l-38 -197q-4 -16 -17.5 -27.5t-30.5 -11.5h-706l-53 -274h656q16 0 25.5 -11.5t6.5 -28.5l-38 -197q-4 -16 -17.5 -27.5 t-30.5 -11.5h-656z" />
<glyph unicode="G" horiz-adv-x="1710" d="M1468 51q-244 -75 -545 -75q-449 0 -663.5 195.5t-149.5 528.5q24 126 83 236t152.5 199.5t215.5 154t279 99.5t336 35q292 0 509 -73q11 -4 17.5 -16.5t2.5 -25.5l-59 -202q-6 -20 -20.5 -30.5t-30.5 -4.5q-181 68 -402 68q-284 0 -459 -113.5t-216 -326.5 q-42 -214 85 -327t387 -113q124 0 208 20l54 278h-300q-17 0 -26.5 12t-5.5 28l32 166q3 16 17 28t31 12h603q16 0 25 -12t6 -28l-131 -675q-2 -11 -13 -22.5t-22 -15.5z" />
<glyph unicode="H" horiz-adv-x="1716" d="M44 40l257 1320q3 16 17 28t31 12h324q16 0 25.5 -11.5t6.5 -28.5l-92 -474h628l92 474q3 16 17 28t31 12h324q16 0 25.5 -11.5t6.5 -28.5l-257 -1320q-3 -17 -17 -28.5t-30 -11.5h-324q-17 0 -26.5 12t-6.5 28l109 560h-628l-109 -560q-3 -17 -17 -28.5t-30 -11.5h-324 q-17 0 -26.5 12t-6.5 28z" />
<glyph unicode="I" horiz-adv-x="704" d="M358 1400h325q16 0 25.5 -11.5t6.5 -28.5l-257 -1320q-3 -17 -17 -28.5t-30 -11.5h-325q-16 0 -25.5 12t-6.5 28l257 1320q3 16 17 28t30 12z" />
<glyph unicode="J" horiz-adv-x="1164" d="M609 492l169 868q3 16 17 28t30 12h325q16 0 25.5 -11.5t6.5 -28.5l-169 -870q-101 -514 -713 -514q-218 0 -358 51q-10 4 -15.5 16.5t-2.5 24.5l60 210q6 22 24 31t37 1q106 -46 249 -46q137 0 214.5 53t100.5 175z" />
<glyph unicode="K" horiz-adv-x="1614" d="M573 681l-125 -641q-3 -17 -17 -28.5t-30 -11.5h-324q-17 0 -26.5 12t-6.5 28l257 1320q3 16 17 28t31 12h324q16 0 25.5 -11.5t6.5 -28.5l-106 -544l598 542q47 42 103 42h329q28 0 33.5 -23t-17.5 -43l-652 -588l491 -681q14 -20 0.5 -42.5t-41.5 -22.5h-336 q-66 0 -100 52z" />
<glyph unicode="L" horiz-adv-x="1378" d="M44 40l257 1320q3 17 17 28.5t30 11.5h326q16 0 25 -12t6 -28l-209 -1074h764q17 0 26.5 -12t5.5 -28l-40 -206q-3 -17 -17 -28.5t-30 -11.5h-1129q-16 0 -25.5 11.5t-6.5 28.5z" />
<glyph unicode="M" horiz-adv-x="2120" d="M1148 424h-218q-37 0 -56 34l-274 498l-178 -916q-3 -17 -17 -28.5t-30 -11.5h-298q-17 0 -26.5 12t-6.5 28l257 1320q3 16 17 28t31 12h367q61 0 88 -50l306 -562l524 562q47 50 108 50h367q16 0 25.5 -11.5t6.5 -28.5l-257 -1320q-3 -17 -17 -28.5t-30 -11.5h-298 q-17 0 -26.5 12t-6.5 28l178 916l-466 -498q-32 -34 -70 -34z" />
<glyph unicode="N" horiz-adv-x="1754" d="M1016 41l-420 891l-174 -892q-3 -17 -17 -28.5t-30 -11.5h-299q-16 0 -25.5 12t-6.5 28l257 1320q3 16 17 28t30 12h373q62 0 82 -41l420 -891l174 892q3 16 17 28t31 12h299q16 0 25 -12t6 -28l-257 -1320q-3 -16 -16.5 -28t-29.5 -12h-373q-63 0 -83 41z" />
<glyph unicode="O" horiz-adv-x="1732" d="M1697 700q-31 -156 -108.5 -288t-194.5 -229.5t-280 -152t-354 -54.5q-128 0 -234.5 25t-184 71t-134 111t-84 145.5t-34 174.5t15.5 197q24 125 77.5 234.5t137 199.5t190 154.5t242.5 100t289 35.5q128 0 234.5 -25t184 -71t134.5 -111t84.5 -145.5t34 -174 t-15.5 -197.5zM513 700q-42 -215 35 -329.5t266 -114.5t311 114.5t164 329.5q41 215 -36 329.5t-266 114.5t-311 -114.5t-163 -329.5z" />
<glyph unicode="P" horiz-adv-x="1474" d="M529 456l-81 -416q-3 -16 -16.5 -28t-29.5 -12h-326q-16 0 -25.5 12t-6.5 28l257 1320q3 16 17 28t30 12h571q156 0 273.5 -29.5t193.5 -87t105 -147.5t6 -208q-46 -233 -245.5 -352.5t-516.5 -119.5h-206zM1089 928q21 109 -45 154.5t-218 45.5h-166l-78 -400h166 q151 0 235.5 46.5t105.5 153.5z" />
<glyph unicode="Q" horiz-adv-x="1732" d="M1698 700q-53 -270 -238.5 -458.5t-472.5 -244.5q-1 -49 54.5 -73t170.5 -24q104 0 184 16q18 4 30 -6t11 -28l-12 -166q-1 -16 -13 -28.5t-28 -14.5q-131 -21 -272 -21q-222 0 -344.5 83t-135.5 248q-209 23 -341.5 122.5t-177 251.5t-7.5 343q24 125 77.5 234.5 t137 199.5t190 154.5t242.5 100t289 35.5q128 0 234.5 -25t184 -71t134.5 -111t84.5 -145.5t34 -174t-15.5 -197.5zM514 700q-42 -215 35 -329.5t266 -114.5t311 114.5t164 329.5q41 215 -36 329.5t-266 114.5t-311 -114.5t-163 -329.5z" />
<glyph unicode="R" horiz-adv-x="1570" d="M592 778h196q279 0 315 180q18 92 -45.5 136t-199.5 44h-196zM1141 570l284 -507q11 -20 -3.5 -41.5t-40.5 -21.5h-317q-58 0 -76 37l-242 479h-205l-93 -476q-3 -17 -17 -28.5t-30 -11.5h-324q-17 0 -26.5 12t-6.5 28l257 1320q3 16 17 28t31 12h588q148 0 262.5 -27 t192 -80.5t109 -138.5t10.5 -196q-28 -142 -124 -239.5t-246 -148.5z" />
<glyph unicode="S" horiz-adv-x="1362" d="M123 336q179 -74 424 -74q155 0 221.5 30t78.5 92q8 38 -15.5 66.5t-91.5 57.5t-200 66q-223 63 -310 167t-55 269q80 414 704 414q237 0 440 -53q20 -5 29 -20t2 -36l-56 -197q-6 -20 -22.5 -30t-35.5 -4q-146 50 -363 50q-103 0 -165.5 -13t-88.5 -35t-33 -58 q-11 -55 48 -93t244 -94q236 -71 324 -173t56 -268q-41 -212 -218.5 -318t-525.5 -106q-263 0 -476 66q-45 14 -32 59l59 201q6 21 23 31t35 3z" />
<glyph unicode="T" horiz-adv-x="1380" d="M391 40l209 1074h-428q-16 0 -25.5 11.5t-6.5 28.5l40 206q3 16 17 28t31 12h1261q16 0 25.5 -11.5t6.5 -28.5l-40 -206q-3 -16 -17 -28t-31 -12h-429l-209 -1074q-3 -17 -17 -28.5t-30 -11.5h-324q-17 0 -26.5 12t-6.5 28z" />
<glyph unicode="U" horiz-adv-x="1736" d="M762 -24q-165 0 -290.5 37.5t-208 110.5t-112.5 187.5t-1 262.5l153 786q3 16 17 28t31 12h325q16 0 25 -12t6 -28l-152 -782q-31 -159 32 -235.5t231 -76.5t261 76.5t124 235.5l152 782q3 16 17 28t30 12h325q16 0 25.5 -11.5t6.5 -28.5l-153 -786q-38 -196 -156.5 -332 t-292.5 -201t-395 -65z" />
<glyph unicode="V" horiz-adv-x="1720" d="M971 0h-434q-23 0 -39 12.5t-20 32.5l-271 1300q-4 22 10.5 38.5t37.5 16.5h330q41 0 48 -42l176 -1071l592 1071q25 42 66 42h330q23 0 31 -16.5t-5 -38.5l-777 -1300q-26 -45 -75 -45z" />
<glyph unicode="W" horiz-adv-x="2452" d="M1191 1400h408q19 0 31 -12.5t12 -29.5l42 -1000l479 1000q22 42 66 42h307q22 0 30.5 -16t-2.5 -36l-673 -1304q-23 -44 -63 -44h-429q-44 0 -46 50l-31 974l-411 -974q-22 -50 -64 -50h-429q-41 0 -47 44l-165 1304q-3 20 11.5 36t36.5 16h307q44 0 48 -42l91 -1000 l430 1000q8 17 25 29.5t36 12.5z" />
<glyph unicode="X" horiz-adv-x="1684" d="M894 982l403 390q28 28 91 28h305q27 0 32.5 -22.5t-14.5 -42.5l-643 -623l417 -647q13 -20 -1.5 -42.5t-41.5 -22.5h-305q-61 0 -80 28l-267 415l-429 -415q-29 -28 -90 -28h-305q-27 0 -33 22.5t14 42.5l669 647l-401 623q-13 20 2 42.5t42 22.5h305q62 0 79 -28z" />
<glyph unicode="Y" horiz-adv-x="1720" d="M903 0h-324q-17 0 -26.5 12t-6.5 28l99 508l-427 787q-12 21 3.5 43t41.5 22h308q55 0 74 -39l260 -515l460 515q35 39 90 39h308q26 0 32.5 -22t-13.5 -43l-733 -787l-99 -508q-3 -17 -17 -28.5t-30 -11.5z" />
<glyph unicode="Z" horiz-adv-x="1376" d="M-42 40l34 174q14 71 59 112l860 788h-670q-16 0 -25.5 11.5t-6.5 28.5l40 206q3 16 17 28t31 12h1131q16 0 25 -12t6 -28l-35 -179q-13 -68 -74 -123l-843 -772h727q17 0 26.5 -12t5.5 -28l-40 -206q-3 -17 -17 -28.5t-30 -11.5h-1188q-17 0 -26.5 12t-6.5 28z" />
<glyph unicode="[" horiz-adv-x="948" d="M73 -221l326 1682q4 17 17.5 28t29.5 11h610q17 0 26 -11.5t5 -27.5l-33 -170q-3 -16 -16.5 -27.5t-29.5 -11.5h-315l-246 -1264h315q16 0 25.5 -11.5t6.5 -27.5l-33 -170q-4 -17 -17.5 -28t-29.5 -11h-610q-17 0 -26 11.5t-5 27.5z" />
<glyph unicode="\" horiz-adv-x="1302" d="M506 1456l647 -1617q9 -21 -5 -40t-39 -19h-220q-54 0 -69 40l-648 1617q-9 21 5 40t39 19h220q53 0 70 -40z" />
<glyph unicode="]" horiz-adv-x="948" d="M908 1461l-326 -1682q-4 -17 -17.5 -28t-29.5 -11h-610q-16 0 -25 11t-5 28l32 170q3 16 16.5 27.5t29.5 11.5h315l246 1264h-315q-16 0 -25.5 11.5t-6.5 27.5l33 170q4 17 17.5 28t29.5 11h610q17 0 26 -11.5t5 -27.5z" />
<glyph unicode="^" horiz-adv-x="1304" d="M523 1400h280q41 0 64 -39l340 -564q13 -21 2.5 -40t-35.5 -19h-227q-50 0 -79 51l-205 367l-205 -367q-29 -51 -79 -51h-227q-25 0 -35.5 19t2.5 40l340 564q23 39 64 39z" />
<glyph unicode="_" horiz-adv-x="1000" d="M-162 -302l11 59q3 16 17 27.5t30 11.5h921q16 0 25 -11.5t6 -27.5l-11 -59q-3 -16 -17 -27t-30 -11h-921q-16 0 -25 11t-6 27z" />
<glyph unicode="`" horiz-adv-x="980" d="M697 1431l165 -246q14 -20 -1 -42.5t-42 -22.5h-128q-67 0 -109 40l-238 231q-16 14 -2.5 41.5t40.5 27.5h245q50 0 70 -29z" />
<glyph unicode="a" d="M1005 950l10 49q3 15 15.5 26t28.5 11h310q16 0 24.5 -11t5.5 -26l-187 -962q-3 -15 -15.5 -26t-28.5 -11h-310q-16 0 -24.5 11t-5.5 26l9 49q-149 -110 -363 -110q-106 0 -192.5 36t-144 105t-78.5 170t4 231q32 168 127.5 293t223.5 187t271 62q213 0 320 -110z M451 518q-57 -298 208 -298q124 0 217 68l90 460q-68 68 -191 68q-266 0 -324 -298z" />
<glyph unicode="b" d="M671 1421l-92 -471q151 110 364 110q106 0 192.5 -36t143.5 -105t78 -170t-4 -231q-24 -126 -85 -230t-145 -171.5t-184.5 -104t-206.5 -36.5q-213 0 -321 110l-9 -47q-3 -16 -16.5 -27.5t-29.5 -11.5h-307q-16 0 -25 11.5t-6 27.5l269 1382q3 16 16 27.5t29 11.5h307 q16 0 25.5 -11.5t6.5 -27.5zM965 518q58 298 -208 298q-124 0 -217 -68l-90 -460q68 -68 191 -68q267 0 324 298z" />
<glyph unicode="c" horiz-adv-x="1178" d="M985 12q-141 -36 -310 -36q-337 0 -498.5 143t-112.5 399q50 254 262 398t540 144q167 0 303 -37q18 -5 26.5 -18t3.5 -31l-45 -155q-6 -18 -23.5 -27t-34.5 -4q-91 30 -221 30q-170 0 -282.5 -78t-140.5 -222q-28 -146 57 -223t267 -77q127 0 227 29q19 5 32.5 -4 t12.5 -27l-15 -155q-5 -39 -48 -49z" />
<glyph unicode="d" d="M1005 950l92 471q3 16 16.5 27.5t29.5 11.5h307q16 0 25 -11.5t6 -27.5l-269 -1382q-3 -16 -16 -27.5t-29 -11.5h-307q-16 0 -25.5 11.5t-6.5 27.5l9 47q-149 -110 -363 -110q-106 0 -192.5 36t-144 105t-78.5 170t4 231q32 168 127.5 293t223.5 187t271 62 q213 0 320 -110zM451 518q-57 -298 208 -298q124 0 217 68l90 460q-68 68 -191 68q-266 0 -324 -298z" />
<glyph unicode="e" horiz-adv-x="1330" d="M797 826q-272 0 -360 -196h134q207 0 298 24t102 80q8 44 -35 68t-139 24zM1029 24q-161 -48 -381 -48q-337 0 -485.5 145t-99.5 395q49 253 251.5 398.5t514.5 145.5q243 0 377 -89t105 -237q-33 -169 -211.5 -250.5t-532.5 -81.5h-174q5 -107 86 -149.5t256 -42.5 q157 0 304 43q19 5 31.5 -5t10.5 -28l-12 -141q-2 -22 -9.5 -35.5t-30.5 -19.5z" />
<glyph unicode="f" horiz-adv-x="954" d="M78 837l31 160q3 16 17 27.5t30 11.5h187l8 43q74 381 550 381q113 0 214 -19q35 -7 23 -42l-47 -146q-6 -18 -20.5 -27.5t-31.5 -6.5q-52 9 -98 9q-97 0 -143 -32t-62 -113l-9 -47h275q16 0 25 -11.5t6 -27.5l-31 -160q-3 -16 -16.5 -27.5t-29.5 -11.5h-275l-223 -1145 q-3 -16 -17 -27.5t-30 -11.5h-306q-16 0 -25 11.5t-6 27.5l223 1145h-187q-16 0 -25.5 11.5t-6.5 27.5z" />
<glyph unicode="g" horiz-adv-x="1416" d="M832 55l12 63q-144 -110 -363 -110q-107 0 -193 33.5t-144.5 99.5t-79.5 164.5t3 228.5q25 126 85.5 227.5t144 166t183 98.5t206.5 34q219 0 320 -110l9 47q3 16 17 27.5t30 11.5h302q16 0 25 -11.5t6 -27.5l-173 -894q-52 -266 -231 -384.5t-541 -118.5q-211 0 -365 48 q-18 6 -25 23t-2 36l39 146q5 21 23.5 30.5t36.5 2.5q124 -48 291 -48q170 0 266 50.5t118 166.5zM884 320l83 428q-68 68 -191 68q-266 0 -321 -282q-54 -282 211 -282q124 0 218 68z" />
<glyph unicode="h" horiz-adv-x="1436" d="M1336 564l-102 -525q-3 -16 -16 -27.5t-29 -11.5h-307q-16 0 -25.5 11.5t-6.5 27.5l99 507q28 145 -16.5 207.5t-163.5 62.5q-135 0 -230 -72l-137 -705q-3 -16 -16.5 -27.5t-29.5 -11.5h-306q-16 0 -25.5 11.5t-6.5 27.5l269 1382q3 16 16.5 27.5t29.5 11.5h306 q16 0 25.5 -11.5t6.5 -27.5l-92 -471q157 110 360 110q493 0 397 -496z" />
<glyph unicode="i" horiz-adv-x="632" d="M436 1152q-109 0 -154 38t-30 116q31 154 244 154q109 0 154.5 -38t29.5 -116q-30 -154 -244 -154zM28 39l186 958q3 16 17 27.5t30 11.5h306q16 0 25 -11.5t6 -27.5l-186 -958q-3 -16 -16.5 -27.5t-29.5 -11.5h-306q-16 0 -25.5 11.5t-6.5 27.5z" />
<glyph unicode="j" horiz-adv-x="732" d="M134 23l189 974q3 16 17 27.5t30 11.5h306q16 0 25 -11.5t6 -27.5l-187 -962q-16 -82 -44 -146.5t-75.5 -120t-113 -91.5t-158 -56.5t-208.5 -20.5q-98 0 -177 13q-16 2 -25 17t-3 35l46 150q5 18 21.5 29t32.5 7q36 -9 93 -9q101 0 153.5 42t71.5 139zM545 1152 q-109 0 -154 38t-30 116q31 154 244 154q109 0 154.5 -38t29.5 -116q-30 -154 -244 -154z" />
<glyph unicode="k" horiz-adv-x="1370" d="M783 39l-287 483l-94 -483q-3 -16 -16.5 -27.5t-29.5 -11.5h-306q-16 0 -25.5 11.5t-6.5 27.5l269 1382q3 16 16.5 27.5t29.5 11.5h306q16 0 25.5 -11.5t6.5 -27.5l-155 -797l414 372q19 17 48.5 28.5t53.5 11.5h307q27 0 32 -23t-18 -43l-463 -398l329 -508 q13 -20 -1 -42t-41 -22h-319q-53 0 -75 39z" />
<glyph unicode="l" horiz-adv-x="632" d="M28 39l269 1382q3 16 16.5 27.5t29.5 11.5h306q16 0 25.5 -11.5t6.5 -27.5l-269 -1382q-3 -16 -16.5 -27.5t-29.5 -11.5h-306q-16 0 -25.5 11.5t-6.5 27.5z" />
<glyph unicode="m" horiz-adv-x="2168" d="M2070 574l-104 -535q-3 -16 -16 -27.5t-29 -11.5h-307q-16 0 -25.5 11.5t-6.5 27.5l106 547q25 126 -11.5 178t-133.5 52q-135 0 -241 -86q2 -78 -14 -158l-104 -533q-3 -16 -16.5 -27.5t-29.5 -11.5h-306q-16 0 -25.5 11.5t-6.5 27.5l106 547q25 126 -11.5 178 t-133.5 52q-61 0 -121 -20.5t-101 -51.5l-137 -705q-3 -16 -16.5 -27.5t-29.5 -11.5h-307q-16 0 -25 11.5t-6 27.5l186 958q3 16 16.5 27.5t29.5 11.5h307q16 0 25 -11.5t6 -27.5l-9 -47q162 110 356 110q241 0 326 -150q87 68 205 109t235 41q224 0 320 -122t49 -364z" />
<glyph unicode="n" horiz-adv-x="1436" d="M1336 564l-102 -525q-3 -16 -16 -27.5t-29 -11.5h-307q-16 0 -25.5 11.5t-6.5 27.5l99 507q28 145 -16.5 207.5t-163.5 62.5q-135 0 -230 -72l-137 -705q-3 -16 -16.5 -27.5t-29.5 -11.5h-306q-16 0 -25.5 11.5t-6.5 27.5l186 958q3 16 17 27.5t30 11.5h306 q16 0 25 -11.5t6 -27.5l-9 -47q157 110 360 110q493 0 397 -496z" />
<glyph unicode="o" horiz-adv-x="1416" d="M64 518q47 242 252.5 392t497.5 150t438.5 -150t99.5 -392t-252 -392t-497 -150t-439 150t-100 392zM452 518q-29 -149 24 -223.5t174 -74.5t203.5 74.5t110.5 223.5q29 149 -24 223.5t-174 74.5t-203 -74.5t-111 -223.5z" />
<glyph unicode="p" d="M410 86l-84 -433q-3 -16 -17 -27.5t-30 -11.5h-307q-16 0 -24.5 11.5t-5.5 27.5l261 1344q3 16 16.5 27.5t29.5 11.5h307q16 0 25 -11.5t6 -27.5l-9 -47q151 110 364 110q106 0 192.5 -36t143.5 -105t78 -170t-4 -231q-24 -126 -85 -230t-145 -171.5t-184.5 -104 t-206.5 -36.5q-213 0 -321 110zM964 518q58 298 -208 298q-124 0 -217 -68l-90 -460q68 -68 191 -68q267 0 324 298z" />
<glyph unicode="q" d="M753 -347l84 433q-149 -110 -363 -110q-106 0 -192.5 36t-144 105t-78.5 170t4 231q32 168 127.5 293t223.5 187t271 62q213 0 320 -110l9 47q3 16 17 27.5t30 11.5h307q16 0 24.5 -11.5t5.5 -27.5l-261 -1344q-3 -16 -16.5 -27.5t-29.5 -11.5h-307q-16 0 -25 11.5 t-6 27.5zM451 518q-57 -298 208 -298q124 0 217 68l90 460q-68 68 -191 68q-266 0 -324 -298z" />
<glyph unicode="r" horiz-adv-x="986" d="M949 782q-66 16 -125 16q-102 0 -182.5 -45.5t-123.5 -118.5l-116 -595q-3 -16 -16.5 -27.5t-29.5 -11.5h-307q-16 0 -25 11.5t-6 27.5l186 958q3 16 16.5 27.5t29.5 11.5h307q16 0 25 -11.5t6 -27.5l-17 -89q64 68 157.5 110t192.5 42q66 0 125 -14q34 -8 21 -44 l-63 -186q-15 -43 -55 -34z" />
<glyph unicode="s" horiz-adv-x="1136" d="M93 282q147 -62 329 -62q109 0 155 16.5t54 59.5q5 26 -11.5 45t-71.5 41.5t-159 47.5q-317 77 -271 314q30 157 167.5 236.5t408.5 79.5q206 0 376 -52q37 -12 26 -47l-48 -157q-6 -21 -25.5 -29t-37.5 -2q-135 43 -285 43q-103 0 -145.5 -15t-48.5 -45q-4 -24 12.5 -43 t69.5 -40.5t153 -48.5q173 -45 236.5 -120t40.5 -192q-65 -336 -593 -336q-240 0 -411 60q-35 12 -25 47l43 168q6 21 24.5 29.5t36.5 1.5z" />
<glyph unicode="t" horiz-adv-x="1020" d="M88 835l31 162q3 16 16.5 27.5t29.5 11.5h156l53 271q3 16 16.5 27.5t29.5 11.5h306q16 0 25.5 -11.5t6.5 -27.5l-53 -271h305q16 0 25 -11.5t6 -27.5l-31 -162q-3 -16 -17 -27.5t-30 -11.5h-305l-71 -367q-24 -122 11 -165.5t152 -43.5q50 0 91 7q17 3 30.5 -6.5 t12.5 -25.5l-14 -159q-3 -39 -49 -46q-98 -14 -182 -14q-162 0 -260 34.5t-139.5 101t-45.5 165.5t24 228l56 291h-156q-16 0 -24.5 11.5t-5.5 27.5z" />
<glyph unicode="u" horiz-adv-x="1436" d="M96 472l102 525q3 16 16.5 27.5t29.5 11.5h307q16 0 25 -11.5t6 -27.5l-98 -507q-29 -145 15.5 -207.5t163.5 -62.5q135 0 230 72l137 705q3 16 17 27.5t30 11.5h306q16 0 25 -11.5t6 -27.5l-186 -958q-3 -16 -16.5 -27.5t-29.5 -11.5h-306q-16 0 -25.5 11.5t-6.5 27.5 l9 47q-157 -110 -359 -110q-245 0 -345.5 124.5t-52.5 371.5z" />
<glyph unicode="v" horiz-adv-x="1372" d="M763 0h-370q-48 0 -58 45l-209 937q-4 21 10.5 37.5t36.5 16.5h295q44 0 52 -43l114 -701l388 701q23 43 68 43h295q22 0 30 -16.5t-5 -37.5l-573 -937q-28 -45 -74 -45z" />
<glyph unicode="w" horiz-adv-x="2080" d="M981 1036h312q42 0 46 -40l69 -683l344 674q26 49 72 49h278q22 0 30 -16t-3 -36l-516 -944q-21 -40 -70 -40h-364q-21 0 -34.5 14t-16.5 37l-61 626l-305 -626q-11 -23 -29.5 -37t-39.5 -14h-364q-50 0 -56 40l-148 944q-4 20 10.5 36t36.5 16h278q25 0 37 -11.5 t15 -37.5l82 -674l335 683q19 40 62 40z" />
<glyph unicode="x" horiz-adv-x="1326" d="M668 761l240 238q37 37 87 37h274q27 0 32 -24.5t-16 -44.5l-447 -438l292 -460q14 -20 -1 -44.5t-42 -24.5h-274q-47 0 -73 37l-162 260l-262 -260q-41 -37 -87 -37h-274q-27 0 -32.5 25t15.5 44l469 460l-276 438q-12 21 2.5 45t41.5 24h274q50 0 73 -37z" />
<glyph unicode="y" horiz-adv-x="1394" d="M669 367l378 629q24 40 66 40h295q22 0 30 -17t-5 -38l-820 -1318q-31 -49 -81 -49h-293q-22 0 -29.5 17t4.5 37l200 332l-285 980q-7 21 8 38.5t38 17.5h293q40 0 50 -40z" />
<glyph unicode="z" horiz-adv-x="1158" d="M-52 39l32 163q8 43 52 78l623 516h-491q-16 0 -25 11.5t-6 27.5l31 162q3 16 17 27.5t30 11.5h938q16 0 25 -11.5t6 -27.5l-31 -160q-9 -44 -52 -80l-628 -517h549q16 0 25.5 -11.5t6.5 -27.5l-32 -162q-3 -16 -16.5 -27.5t-29.5 -11.5h-992q-16 0 -25.5 11.5t-6.5 27.5 z" />
<glyph unicode="{" horiz-adv-x="960" d="M141 542l32 164q2 12 13 23.5t24 14.5q61 12 112.5 64t67.5 131l60 310q24 123 114.5 187t221.5 64h282q16 0 25.5 -11.5t5.5 -27.5l-33 -170q-3 -16 -16.5 -27.5t-29.5 -11.5h-160q-76 0 -90 -79l-58 -296q-40 -209 -254 -258q194 -47 154 -257l-57 -295q-8 -41 5.5 -60 t53.5 -19h160q16 0 25.5 -11.5t6.5 -27.5l-33 -170q-4 -16 -17.5 -27.5t-29.5 -11.5h-282q-131 0 -196.5 64t-41.5 187l60 309q15 80 -16 136t-87 68q-11 3 -17.5 14.5t-4.5 23.5z" />
<glyph unicode="|" horiz-adv-x="634" d="M212 -361v1860q0 16 11.5 27.5t27.5 11.5h192q16 0 27.5 -11.5t11.5 -27.5v-1860q0 -16 -11.5 -27.5t-27.5 -11.5h-192q-16 0 -27.5 11.5t-11.5 27.5z" />
<glyph unicode="}" horiz-adv-x="960" d="M854 706l-32 -164q-2 -12 -13.5 -23.5t-24.5 -14.5q-59 -12 -112.5 -68.5t-68.5 -135.5l-60 -309q-24 -123 -114.5 -187t-221.5 -64h-282q-16 0 -25 11.5t-5 27.5l32 170q3 16 16.5 27.5t29.5 11.5h160q40 0 61.5 19t29.5 60l57 295q40 210 254 257q-194 49 -154 258 l58 296q8 42 -6 60.5t-54 18.5h-160q-16 0 -25.5 11.5t-6.5 27.5l33 170q4 16 17.5 27.5t29.5 11.5h282q131 0 196.5 -64t41.5 -187l-60 -310q-16 -79 16 -131t88 -64q11 -3 18 -14.5t5 -23.5z" />
<glyph unicode="~" horiz-adv-x="1304" d="M932 836q5 30 39 30h227q15 0 25.5 -14t9.5 -30q-17 -364 -309 -364q-118 0 -226 64q-94 54 -170 54q-83 0 -96 -83q-2 -14 -13.5 -22.5t-26.5 -8.5h-222q-16 0 -28 14.5t-11 31.5q16 362 309 362q118 0 226 -64q94 -54 170 -54q84 0 96 84z" />
<glyph unicode="&#xa1;" horiz-adv-x="744" d="M360 -364h-326q-16 0 -25.5 11t-6.5 27l59 301l169 607q4 14 18 25t28 11h223q14 0 23 -10.5t8 -25.5l-66 -608l-58 -300q-3 -16 -16.5 -27t-29.5 -11zM474 1060q112 0 154 -41t25 -127q-16 -84 -74.5 -126t-170.5 -42q-111 0 -153 41.5t-26 126.5q17 86 75 127t170 41z " />
<glyph unicode="&#xa2;" horiz-adv-x="1178" d="M1001 17q-115 -34 -269 -40l-33 -172q-3 -16 -17 -27.5t-30 -11.5h-132q-16 0 -25 11.5t-6 27.5l34 179h7q-265 29 -388 168t-79 366t219 367t449 168l35 178q3 16 16.5 27.5t29.5 11.5h132q16 0 25.5 -11.5t6.5 -27.5l-34 -173q132 -8 234 -37q13 -4 20.5 -17t3.5 -26 l-47 -159q-6 -18 -23.5 -27t-34.5 -4q-91 30 -221 30q-170 0 -282.5 -78t-140.5 -222q-28 -146 57 -223t267 -77q133 0 227 30q19 7 32.5 -3t11.5 -30l-13 -158q-4 -32 -32 -40z" />
<glyph unicode="&#xa3;" horiz-adv-x="1370" d="M71 663l19 95q3 16 16.5 27t29.5 11h129l37 191q44 224 209.5 330.5t455.5 106.5q233 0 398 -62q12 -4 17.5 -16.5t1.5 -26.5l-53 -188q-5 -21 -23 -31t-36 -2q-107 46 -267 46q-148 0 -216.5 -40t-86.5 -129l-35 -179h383q16 0 25.5 -11t6.5 -27l-19 -95 q-3 -16 -16.5 -27.5t-29.5 -11.5h-383l-20 -104q-33 -161 -155 -244h782q16 0 25.5 -11.5t6.5 -27.5l-39 -198q-3 -16 -16.5 -27.5t-29.5 -11.5h-1206q-16 0 -25.5 11.5t-6.5 27.5l40 203q4 22 26 34q165 84 191 218l25 130h-129q-16 0 -25.5 11.5t-6.5 27.5z" />
<glyph unicode="&#xa4;" horiz-adv-x="1464" d="M533 664q0 -110 60.5 -177t157.5 -67t157.5 67t60.5 177t-60.5 177t-157.5 67t-157.5 -67t-60.5 -177zM1277 664q0 -127 -64 -248l114 -116q11 -11 11 -26.5t-11 -26.5l-140 -146q-11 -12 -27.5 -12.5t-27.5 11.5l-123 124q-123 -61 -258 -61t-258 61l-123 -124 q-11 -12 -27.5 -11.5t-27.5 12.5l-140 146q-11 11 -11 26.5t11 26.5l114 116q-64 121 -64 248t64 248l-114 116q-11 11 -11 26.5t11 26.5l140 146q11 12 27.5 12.5t27.5 -11.5l123 -124q123 61 258 61t258 -61l123 124q11 12 27.5 11.5t27.5 -12.5l140 -146q11 -11 11 -27 t-11 -26l-114 -116q64 -121 64 -248z" />
<glyph unicode="&#xa5;" horiz-adv-x="1576" d="M848 0h-328q-16 0 -25 11.5t-6 27.5l48 245h-381q-17 0 -26 11.5t-6 27.5l12 62q3 16 17 27.5t30 11.5h381l24 126h-381q-16 0 -25 11.5t-6 27.5l12 62q3 16 16.5 27.5t30.5 11.5h291l-300 650q-10 21 5.5 40.5t41.5 19.5h328q8 0 17.5 -6t11.5 -13l216 -543l428 543 q5 7 17 13t20 6h328q25 0 32.5 -19.5t-9.5 -40.5l-552 -650h291q16 0 25 -11t6 -28l-12 -62q-3 -16 -17 -27.5t-30 -11.5h-381l-24 -126h381q16 0 25 -11.5t6 -27.5l-12 -62q-3 -17 -16.5 -28t-29.5 -11h-381l-48 -245q-3 -16 -16 -27.5t-29 -11.5z" />
<glyph unicode="&#xa6;" horiz-adv-x="634" d="M251 464h192q16 0 27.5 -11t11.5 -27v-599q0 -16 -11.5 -27.5t-27.5 -11.5h-192q-16 0 -27.5 11.5t-11.5 27.5v599q0 16 11.5 27t27.5 11zM251 1388h192q16 0 27.5 -11t11.5 -27v-601q0 -16 -11.5 -27.5t-27.5 -11.5h-192q-16 0 -27.5 11.5t-11.5 27.5v601q0 16 11.5 27 t27.5 11z" />
<glyph unicode="&#xa7;" horiz-adv-x="1278" d="M646 496q78 15 127 49.5t59 82.5q8 41 -34 75t-120 49q-79 -15 -129 -50t-59 -82q-8 -41 34.5 -75t121.5 -49zM47 -131q-11 4 -16.5 16.5t-1.5 25.5l45 165q6 20 23.5 29.5t34.5 1.5q137 -69 327 -69q113 0 165.5 22.5t61.5 67.5q9 44 -40.5 78t-190.5 68 q-171 42 -253.5 123.5t-59.5 202.5q18 93 85.5 163t162.5 103q-90 35 -129 100.5t-22 153.5q27 138 172.5 221t408.5 83q247 0 413 -65q11 -5 16 -17.5t1 -24.5l-47 -152q-7 -20 -24 -29.5t-34 -1.5q-116 50 -305 50q-197 0 -212 -82q-8 -41 48 -72t194 -68 q170 -47 248 -126.5t55 -201.5q-18 -92 -81 -159.5t-160 -102.5q83 -30 121.5 -97.5t21.5 -152.5q-29 -150 -176 -236t-418 -86q-241 0 -434 69z" />
<glyph unicode="&#xa8;" horiz-adv-x="980" d="M223 1290q28 146 185 146q79 0 110 -36t17 -110q-28 -146 -184 -146t-128 146zM743 1290q28 146 185 146q79 0 110 -36t17 -110q-28 -146 -184 -146t-128 146z" />
<glyph unicode="&#xa9;" horiz-adv-x="1660" d="M136 700q0 197 97 363.5t263.5 263.5t363.5 97t363.5 -97t263.5 -263.5t97 -363.5t-97 -363.5t-263.5 -263.5t-363.5 -97t-363.5 97t-263.5 263.5t-97 363.5zM248 700q0 -169 82 -312t223 -225.5t307 -82.5t307 82.5t223 225.5t82 312t-82 312t-223 225.5t-307 82.5 t-307 -82.5t-223 -225.5t-82 -312zM1141 299q-98 -37 -227 -37q-218 0 -348 116.5t-130 317.5q0 200 129 317t337 117q133 0 237 -41q12 -5 20 -16.5t7 -23.5l-12 -107q-2 -22 -19 -33t-36 -2q-64 29 -147 29q-98 0 -157 -64t-59 -176q0 -113 60 -176.5t166 -63.5 q81 0 138 26q19 8 35.5 -1.5t18.5 -30.5l12 -111q1 -12 -6.5 -24t-18.5 -16z" />
<glyph unicode="&#xaa;" horiz-adv-x="1072" d="M848 1334l5 27q3 15 16 26t28 11h212q15 0 24 -11t6 -26l-134 -692q-3 -15 -16.5 -26t-28.5 -11h-212q-15 0 -23.5 11t-5.5 26l5 27q-110 -82 -268 -82q-163 0 -251.5 107.5t-52.5 294.5q36 185 166.5 292.5t293.5 107.5q157 0 236 -82zM438 1016q-22 -114 21 -167 t134 -53q93 0 160 48l66 342q-50 50 -140 50q-91 0 -155 -53.5t-86 -166.5z" />
<glyph unicode="&#xab;" horiz-adv-x="1100" d="M124 545l31 158q3 18 19 29l430 337q24 19 45 9.5t16 -36.5l-36 -184q-5 -27 -27 -43l-248 -191l174 -191q16 -15 10 -43l-35 -184q-5 -27 -30.5 -36.5t-41.5 9.5l-299 337q-11 11 -8 29zM560 545l31 158q3 18 19 29l430 337q24 19 45 9.5t16 -36.5l-36 -184 q-5 -27 -27 -43l-248 -191l174 -191q16 -15 10 -43l-35 -184q-5 -27 -30.5 -36.5t-41.5 9.5l-299 337q-11 11 -8 29z" />
<glyph unicode="&#xac;" horiz-adv-x="1304" d="M120 699v174q0 16 11.5 27.5t27.5 11.5h1026q16 0 27.5 -11.5t11.5 -27.5v-526q0 -16 -11.5 -27.5t-27.5 -11.5h-234q-16 0 -27.5 11.5t-11.5 27.5v313h-753q-16 0 -27.5 11.5t-11.5 27.5z" />
<glyph unicode="&#xad;" horiz-adv-x="848" d="M707 528h-570q-16 0 -25 11.5t-6 27.5l37 194q4 17 17.5 28t29.5 11h570q17 0 26 -11.5t5 -27.5l-37 -194q-3 -16 -17 -27.5t-30 -11.5z" />
<glyph unicode="&#xae;" horiz-adv-x="1660" d="M576 1120h288q162 0 256 -67t94 -199q0 -81 -43 -144t-129 -98l193 -271q14 -20 4 -40.5t-35 -20.5h-157q-7 0 -17 6t-15 12l-181 278h-76v-257q0 -16 -11.5 -27.5t-27.5 -11.5h-143q-16 0 -27 11.5t-11 27.5v762q0 16 11 27.5t27 11.5zM986 854q0 110 -130 110h-98v-216 h98q130 0 130 106zM136 700q0 197 97 363.5t263.5 263.5t363.5 97t363.5 -97t263.5 -263.5t97 -363.5t-97 -363.5t-263.5 -263.5t-363.5 -97t-363.5 97t-263.5 263.5t-97 363.5zM248 700q0 -169 82 -312t223 -225.5t307 -82.5t307 82.5t223 225.5t82 312t-82 312t-223 225.5 t-307 82.5t-307 -82.5t-223 -225.5t-82 -312z" />
<glyph unicode="&#xaf;" horiz-adv-x="980" d="M268 1223l26 132q3 16 16 27.5t29 11.5h633q16 0 25.5 -11.5t6.5 -27.5l-26 -132q-3 -17 -16.5 -28t-29.5 -11h-633q-16 0 -25 11.5t-6 27.5z" />
<glyph unicode="&#xb0;" horiz-adv-x="980" d="M231 1116q26 131 135 219.5t247 88.5t213 -88.5t49 -219.5q-25 -131 -134 -219.5t-247 -88.5t-213 88.5t-50 219.5zM437 1116q-10 -52 16 -85t77 -33t90 33t49 85t-16 85t-77 33t-90 -33t-49 -85z" />
<glyph unicode="&#xb1;" horiz-adv-x="1304" d="M526 357v315h-357q-16 0 -27.5 11.5t-11.5 27.5v174q0 16 11.5 27.5t27.5 11.5h357v303q0 16 11.5 27.5t27.5 11.5h234q16 0 27.5 -11.5t11.5 -27.5v-303h357q16 0 27.5 -11.5t11.5 -27.5v-174q0 -16 -11.5 -27.5t-27.5 -11.5h-357v-315q0 -16 -11.5 -27.5t-27.5 -11.5 h-234q-16 0 -27.5 11.5t-11.5 27.5zM1195 24h-1026q-16 0 -27.5 11.5t-11.5 27.5v174q0 16 11.5 27.5t27.5 11.5h1026q16 0 27.5 -11.5t11.5 -27.5v-174q0 -16 -11.5 -27.5t-27.5 -11.5z" />
<glyph unicode="&#xb2;" horiz-adv-x="964" d="M672 1112q10 54 -30.5 77t-131.5 23q-97 0 -203 -30q-20 -6 -32.5 4t-10.5 29l12 116q2 12 12 24.5t22 16.5q142 44 304 44q199 0 286.5 -75t60.5 -213q-17 -87 -69.5 -160t-149.5 -148q-105 -81 -241 -152h333q16 0 25.5 -11.5t6.5 -27.5l-24 -120q-3 -16 -16.5 -27.5 t-29.5 -11.5h-680q-16 0 -25.5 11.5t-6.5 27.5l24 123q4 21 25 32q200 116 350 230q91 69 134.5 117.5t54.5 100.5z" />
<glyph unicode="&#xb3;" horiz-adv-x="964" d="M294 1375q138 41 314 41q191 0 284.5 -65t69.5 -189q-14 -72 -64.5 -126t-133.5 -80q76 -25 110.5 -82t19.5 -134q-26 -136 -157 -211t-340 -75q-162 0 -295 39q-11 4 -17 15.5t-2 24.5l36 124q6 20 24 29t35 2q84 -38 217 -38q200 0 217 90q12 59 -57.5 87t-241.5 33 q-15 1 -24 12.5t-6 26.5l22 110q3 16 16.5 27.5t29.5 11.5q164 2 240.5 26.5t86.5 73.5q7 36 -32.5 53t-132.5 17q-107 0 -222 -31q-19 -5 -31.5 5t-10.5 29l10 113q1 13 11.5 25t23.5 16z" />
<glyph unicode="&#xb4;" horiz-adv-x="980" d="M346 1185l261 246q32 29 80 29h245q18 0 26 -13t4 -30t-18 -26l-328 -231q-58 -40 -125 -40h-128q-27 0 -32.5 22.5t15.5 42.5z" />
<glyph unicode="&#xb5;" horiz-adv-x="1444" d="M898 292l137 705q3 16 17 27.5t30 11.5h307q16 0 24.5 -11.5t5.5 -27.5l-186 -958q-3 -16 -16 -27.5t-29 -11.5h-307q-16 0 -25.5 11.5t-6.5 27.5l8 39q-44 -49 -109.5 -76.5t-135.5 -27.5t-124 27.5t-79 76.5l-83 -425q-3 -16 -17 -27.5t-30 -11.5h-306q-16 0 -25 11.5 t-6 27.5l261 1344q3 16 17 27.5t30 11.5h306q16 0 25 -11.5t6 -27.5l-137 -705q67 -72 210 -72t238 72z" />
<glyph unicode="&#xb6;" horiz-adv-x="1260" d="M1150 1400v-1623q0 -16 -11.5 -27.5t-27.5 -11.5h-182q-16 0 -27.5 11.5t-11.5 27.5v1403h-76v-1403q0 -16 -11.5 -27.5t-27.5 -11.5h-182q-16 0 -27.5 11.5t-11.5 27.5v755h-10q-201 0 -327.5 115.5t-126.5 318.5t126.5 318.5t327.5 115.5h606z" />
<glyph unicode="&#xb7;" horiz-adv-x="720" d="M194 664q34 180 229 180q193 0 159 -180q-36 -180 -229 -180q-195 0 -159 180z" />
<glyph unicode="&#xb8;" horiz-adv-x="980" d="M58 -430l14 74q4 18 19.5 30t32.5 9q31 -5 74 -5q131 0 142 55q5 30 -31 48.5t-123 25.5q-24 1 -29.5 20.5t11.5 39.5l97 116q17 17 37 17h162q25 0 31.5 -19.5t-11.5 -40.5l-47 -54q74 -11 112 -56.5t27 -104.5q-39 -201 -380 -201q-57 0 -113 7q-13 2 -20.5 13.5 t-4.5 25.5z" />
<glyph unicode="&#xb9;" horiz-adv-x="964" d="M259 1204l307 177q36 21 67 21h180q17 0 26 -11.5t5 -27.5l-166 -854q-3 -17 -16.5 -28t-29.5 -11h-203q-16 0 -25 11.5t-6 27.5l121 619l-179 -100q-15 -8 -30 -4.5t-20 16.5l-52 109q-8 13 -1.5 29.5t22.5 25.5z" />
<glyph unicode="&#xba;" horiz-adv-x="1072" d="M163 1020q34 179 185.5 287.5t361.5 108.5t318.5 -108.5t74.5 -287.5q-35 -179 -186 -287.5t-361 -108.5t-319 108.5t-74 287.5zM459 1020q-20 -104 16.5 -156t116.5 -52t137.5 52t77.5 156t-17 156t-117 52t-137 -52t-77 -156z" />
<glyph unicode="&#xbb;" horiz-adv-x="1100" d="M1005 703l-31 -158q-3 -18 -18 -29l-431 -337q-24 -19 -44.5 -9.5t-15.5 36.5l35 184q5 26 28 43l248 191l-174 191q-16 16 -11 43l36 184q5 27 29.5 36.5t41.5 -9.5l300 -337q10 -10 7 -29zM569 703l-31 -158q-3 -18 -18 -29l-431 -337q-24 -19 -44.5 -9.5t-15.5 36.5 l35 184q5 26 28 43l248 191l-174 191q-16 16 -11 43l36 184q5 27 29.5 36.5t41.5 -9.5l300 -337q10 -10 7 -29z" />
<glyph unicode="&#xbc;" horiz-adv-x="2340" d="M1304 209l23 117q9 50 56 94l530 497q13 13 31 13h223q16 0 25.5 -11.5t6.5 -27.5l-100 -515h81q16 0 25 -11t6 -28l-25 -128q-3 -17 -16.5 -28t-29.5 -11h-81l-26 -131q-3 -16 -16.5 -27.5t-29.5 -11.5h-194q-16 0 -25.5 11.5t-6.5 27.5l26 131h-451q-17 0 -26 11.5 t-6 27.5zM1881 654l-292 -278h238zM1861 1370l-1151 -1366q-28 -34 -70 -34h-99q-25 0 -31.5 19.5t10.5 40.5l1151 1366q28 34 70 34h99q25 0 31.5 -19.5t-10.5 -40.5zM259 1204l307 177q36 21 67 21h180q17 0 26 -11.5t5 -27.5l-166 -854q-3 -17 -16.5 -28t-29.5 -11h-203 q-16 0 -25 11.5t-6 27.5l121 619l-179 -100q-15 -8 -30 -4.5t-20 16.5l-52 109q-8 13 -1.5 29.5t22.5 25.5z" />
<glyph unicode="&#xbd;" horiz-adv-x="2340" d="M1930 642q11 54 -29.5 77t-131.5 23q-99 0 -203 -30q-20 -6 -33 4t-11 29l13 116q2 12 12 24.5t22 16.5q142 44 303 44q200 0 287 -75t60 -213q-16 -87 -68.5 -160t-149.5 -148q-105 -81 -241 -152h333q16 0 25 -11.5t6 -27.5l-23 -120q-3 -16 -16.5 -27.5t-29.5 -11.5 h-680q-16 0 -25.5 11.5t-6.5 27.5l24 123q5 21 24 32q199 114 351 230q91 69 134.5 117.5t53.5 100.5zM1765 1370l-1151 -1366q-28 -34 -70 -34h-99q-25 0 -31.5 19.5t10.5 40.5l1151 1366q28 34 70 34h99q25 0 31.5 -19.5t-10.5 -40.5zM259 1204l307 177q36 21 67 21h180 q17 0 26 -11.5t5 -27.5l-166 -854q-3 -17 -16.5 -28t-29.5 -11h-203q-16 0 -25 11.5t-6 27.5l121 619l-179 -100q-15 -8 -30 -4.5t-20 16.5l-52 109q-8 13 -1.5 29.5t22.5 25.5z" />
<glyph unicode="&#xbe;" horiz-adv-x="2340" d="M1307 209l23 117q9 50 56 94l530 497q13 13 31 13h223q16 0 25.5 -11.5t6.5 -27.5l-100 -515h81q16 0 25 -11t6 -28l-25 -128q-3 -17 -16.5 -28t-29.5 -11h-81l-26 -131q-3 -16 -16.5 -27.5t-29.5 -11.5h-194q-16 0 -25.5 11.5t-6.5 27.5l26 131h-451q-17 0 -26 11.5 t-6 27.5zM1884 654l-292 -278h238zM1902 1370l-1151 -1366q-28 -34 -70 -34h-99q-25 0 -31.5 19.5t10.5 40.5l1151 1366q28 34 70 34h99q25 0 31.5 -19.5t-10.5 -40.5zM294 1375q138 41 314 41q191 0 284.5 -65t69.5 -189q-14 -72 -64.5 -126t-133.5 -80q76 -25 110.5 -82 t19.5 -134q-26 -136 -157 -211t-340 -75q-162 0 -295 39q-11 4 -17 15.5t-2 24.5l36 124q6 20 24 29t35 2q84 -38 217 -38q200 0 217 90q12 59 -57.5 87t-241.5 33q-15 1 -24 12.5t-6 26.5l22 110q3 16 16.5 27.5t29.5 11.5q164 2 240.5 26.5t86.5 73.5q7 36 -32.5 53 t-132.5 17q-107 0 -222 -31q-19 -5 -31.5 5t-10.5 29l10 113q1 13 11.5 25t23.5 16z" />
<glyph unicode="&#xbf;" horiz-adv-x="1270" d="M1028 -44q21 7 34.5 -3t11.5 -30l-20 -199q-2 -28 -27 -37q-97 -35 -219.5 -55t-237.5 -20q-304 0 -436.5 95t-97.5 277q45 227 348 378q83 40 124.5 87t54.5 113l5 25q3 17 16.5 28t29.5 11h299q16 0 25 -11.5t6 -27.5l-7 -35q-27 -137 -94 -226.5t-195 -149.5 q-108 -50 -151.5 -88t-52.5 -88q-10 -52 44.5 -77t195.5 -25q173 0 344 58zM603 892q17 86 75 127t170 41t154 -41t25 -127q-16 -84 -74.5 -126t-170.5 -42q-111 0 -153 41.5t-26 126.5z" />
<glyph unicode="&#xc0;" horiz-adv-x="1668" d="M476 286h592l42 -257q4 -29 41 -29h336q23 0 37 16.5t10 38.5l-274 1320q-2 10 -11.5 17.5t-20.5 7.5h-478q-11 0 -24 -7.5t-18 -17.5l-788 -1320q-12 -22 -4 -38.5t31 -16.5h336q35 0 51 29zM1022 572h-388l299 542zM995 1819l165 -246q14 -20 -0.5 -42.5t-41.5 -22.5 h-128q-67 0 -110 40l-238 231q-16 14 -2 41.5t41 27.5h245q49 0 69 -29z" />
<glyph unicode="&#xc1;" horiz-adv-x="1668" d="M1068 286h-592l-142 -257q-16 -29 -51 -29h-336q-23 0 -31 16.5t4 38.5l788 1320q5 10 18 17.5t24 7.5h478q11 0 20.5 -7.5t11.5 -17.5l274 -1320q4 -22 -10 -38.5t-37 -16.5h-336q-37 0 -41 29zM634 572h388l-89 542zM884 1573l261 246q32 29 81 29h245q18 0 26 -13 t3.5 -30t-18.5 -26l-328 -231q-56 -40 -124 -40h-128q-27 0 -33 22.5t15 42.5z" />
<glyph unicode="&#xc2;" horiz-adv-x="1668" d="M1068 286h-592l-142 -257q-16 -29 -51 -29h-336q-23 0 -31 16.5t4 38.5l788 1320q5 10 18 17.5t24 7.5h478q11 0 20.5 -7.5t11.5 -17.5l274 -1320q4 -22 -10 -38.5t-37 -16.5h-336q-37 0 -41 29zM634 572h388l-89 542zM934 1848h288q20 0 28 -14l165 -263 q13 -20 -1.5 -41.5t-40.5 -21.5h-181q-17 0 -26 11l-122 153l-182 -153q-13 -11 -30 -11h-181q-26 0 -32 21.5t14 41.5l267 263q14 14 34 14z" />
<glyph unicode="&#xc3;" horiz-adv-x="1668" d="M476 286h592l42 -257q4 -29 41 -29h336q23 0 37 16.5t10 38.5l-274 1320q-2 10 -11.5 17.5t-20.5 7.5h-478q-11 0 -24 -7.5t-18 -17.5l-788 -1320q-12 -22 -4 -38.5t31 -16.5h336q35 0 51 29zM1022 572h-388l299 542zM1030 1563q-70 41 -113 41q-34 0 -53.5 -10.5 t-32.5 -36.5q-11 -29 -37 -29h-130q-18 0 -27.5 8t-5.5 24q28 125 99.5 198t174.5 73q80 0 151 -40q70 -41 113 -41q34 0 53.5 10.5t32.5 36.5q11 29 37 29h130q18 0 27.5 -8t5.5 -24q-28 -125 -99.5 -198t-174.5 -73q-80 0 -151 40z" />
<glyph unicode="&#xc4;" horiz-adv-x="1668" d="M476 286h592l42 -257q4 -29 41 -29h336q23 0 37 16.5t10 38.5l-274 1320q-2 10 -11.5 17.5t-20.5 7.5h-478q-11 0 -24 -7.5t-18 -17.5l-788 -1320q-12 -22 -4 -38.5t31 -16.5h336q35 0 51 29zM1022 572h-388l299 542zM627 1678q28 146 184 146t128 -146t-185 -146 q-79 0 -110 36t-17 110zM1147 1678q28 146 184 146t128 -146t-185 -146q-79 0 -110 36t-17 110z" />
<glyph unicode="&#xc5;" horiz-adv-x="1668" d="M476 286h592l42 -257q4 -29 41 -29h336q23 0 37 16.5t10 38.5l-274 1320q-2 10 -11.5 17.5t-20.5 7.5h-478q-11 0 -24 -7.5t-18 -17.5l-788 -1320q-12 -22 -4 -38.5t31 -16.5h336q35 0 51 29zM1022 572h-388l299 542zM783 1678q20 105 108.5 177.5t199.5 72.5 t171.5 -72.5t40.5 -177.5q-21 -106 -110 -178t-199 -72q-111 0 -171.5 72.5t-39.5 177.5zM961 1678q-7 -37 11.5 -60.5t53.5 -23.5t63.5 23.5t35.5 60.5t-12 60.5t-54 23.5t-63 -23.5t-35 -60.5z" />
<glyph unicode="&#xc6;" horiz-adv-x="2202" d="M956 40l48 246h-466l-196 -265q-16 -21 -39 -21h-353q-25 0 -33 20t8 41l999 1314q18 25 51 25h1238q16 0 25.5 -11.5t6.5 -28.5l-38 -197q-4 -16 -17.5 -27.5t-30.5 -11.5h-600l-53 -274h545q16 0 25 -12t6 -28l-38 -197q-4 -16 -17.5 -27.5t-29.5 -11.5h-545l-58 -298 h616q17 0 26.5 -11.5t6.5 -27.5l-39 -197q-3 -17 -17 -28.5t-30 -11.5h-969q-16 0 -25.5 12t-6.5 28zM1170 1142l-420 -570h310z" />
<glyph unicode="&#xc7;" horiz-adv-x="1482" d="M476 -430l14 74q4 18 19.5 30t32.5 9q31 -5 74 -5q131 0 142 55q5 30 -31 48.5t-123 25.5q-24 1 -29.5 20.5t11.5 39.5l100 119q-335 37 -485.5 224t-91.5 490q66 338 334.5 531t683.5 193q245 0 414 -59q11 -4 17 -15.5t3 -24.5l-59 -203q-7 -21 -24.5 -31t-35.5 -3 q-125 48 -305 48q-263 0 -417 -112t-195 -324q-42 -215 73 -325.5t378 -110.5q176 0 326 50q21 7 34.5 -2.5t11.5 -30.5l-20 -205q-1 -13 -11.5 -25.5t-24.5 -16.5q-157 -48 -358 -56l-78 -92q74 -11 111.5 -56.5t26.5 -104.5q-39 -201 -380 -201q-57 0 -113 7 q-13 2 -20.5 13.5t-4.5 25.5z" />
<glyph unicode="&#xc8;" horiz-adv-x="1386" d="M1365 1124h-706l-53 -274h656q16 0 25.5 -11.5t6.5 -28.5l-38 -197q-4 -16 -17.5 -27.5t-30.5 -11.5h-656l-58 -298h722q17 0 26.5 -11.5t6.5 -27.5l-39 -197q-3 -17 -17 -28.5t-30 -11.5h-1086q-17 0 -26.5 12t-6.5 28l257 1320q3 16 17 28t31 12h1070q16 0 25.5 -11.5 t6.5 -28.5l-38 -197q-4 -16 -17.5 -27.5t-30.5 -11.5zM939 1819l165 -246q14 -20 -0.5 -42.5t-41.5 -22.5h-128q-67 0 -110 40l-238 231q-16 14 -2 41.5t41 27.5h245q49 0 69 -29z" />
<glyph unicode="&#xc9;" horiz-adv-x="1386" d="M1365 1124h-706l-53 -274h656q16 0 25.5 -11.5t6.5 -28.5l-38 -197q-4 -16 -17.5 -27.5t-30.5 -11.5h-656l-58 -298h722q17 0 26.5 -11.5t6.5 -27.5l-39 -197q-3 -17 -17 -28.5t-30 -11.5h-1086q-17 0 -26.5 12t-6.5 28l257 1320q3 16 17 28t31 12h1070q16 0 25.5 -11.5 t6.5 -28.5l-38 -197q-4 -16 -17.5 -27.5t-30.5 -11.5zM732 1573l261 246q32 29 81 29h245q18 0 26 -13t3.5 -30t-18.5 -26l-328 -231q-56 -40 -124 -40h-128q-27 0 -33 22.5t15 42.5z" />
<glyph unicode="&#xca;" horiz-adv-x="1386" d="M1365 1124h-706l-53 -274h656q16 0 25.5 -11.5t6.5 -28.5l-38 -197q-4 -16 -17.5 -27.5t-30.5 -11.5h-656l-58 -298h722q17 0 26.5 -11.5t6.5 -27.5l-39 -197q-3 -17 -17 -28.5t-30 -11.5h-1086q-17 0 -26.5 12t-6.5 28l257 1320q3 16 17 28t31 12h1070q16 0 25.5 -11.5 t6.5 -28.5l-38 -197q-4 -16 -17.5 -27.5t-30.5 -11.5zM820 1848h288q20 0 28 -14l165 -263q13 -20 -1.5 -41.5t-40.5 -21.5h-181q-17 0 -26 11l-122 153l-182 -153q-13 -11 -30 -11h-181q-26 0 -32 21.5t14 41.5l267 263q14 14 34 14z" />
<glyph unicode="&#xcb;" horiz-adv-x="1386" d="M1365 1124h-706l-53 -274h656q16 0 25.5 -11.5t6.5 -28.5l-38 -197q-4 -16 -17.5 -27.5t-30.5 -11.5h-656l-58 -298h722q17 0 26.5 -11.5t6.5 -27.5l-39 -197q-3 -17 -17 -28.5t-30 -11.5h-1086q-17 0 -26.5 12t-6.5 28l257 1320q3 16 17 28t31 12h1070q16 0 25.5 -11.5 t6.5 -28.5l-38 -197q-4 -16 -17.5 -27.5t-30.5 -11.5zM509 1678q28 146 184 146t128 -146t-185 -146q-79 0 -110 36t-17 110zM1029 1678q28 146 184 146t128 -146t-185 -146q-79 0 -110 36t-17 110z" />
<glyph unicode="&#xcc;" horiz-adv-x="704" d="M358 1400h325q16 0 25.5 -11.5t6.5 -28.5l-257 -1320q-3 -17 -17 -28.5t-30 -11.5h-325q-16 0 -25.5 12t-6.5 28l257 1320q3 16 17 28t30 12zM503 1819l165 -246q14 -20 -0.5 -42.5t-41.5 -22.5h-128q-67 0 -110 40l-238 231q-16 14 -2 41.5t41 27.5h245q49 0 69 -29z " />
<glyph unicode="&#xcd;" horiz-adv-x="704" d="M358 1400h325q16 0 25.5 -11.5t6.5 -28.5l-257 -1320q-3 -17 -17 -28.5t-30 -11.5h-325q-16 0 -25.5 12t-6.5 28l257 1320q3 16 17 28t30 12zM440 1573l261 246q32 29 81 29h245q18 0 26 -13t3.5 -30t-18.5 -26l-328 -231q-56 -40 -124 -40h-128q-27 0 -33 22.5t15 42.5z " />
<glyph unicode="&#xce;" horiz-adv-x="704" d="M358 1400h325q16 0 25.5 -11.5t6.5 -28.5l-257 -1320q-3 -17 -17 -28.5t-30 -11.5h-325q-16 0 -25.5 12t-6.5 28l257 1320q3 16 17 28t30 12zM464 1848h288q20 0 28 -14l165 -263q13 -20 -1.5 -41.5t-40.5 -21.5h-181q-17 0 -26 11l-122 153l-182 -153q-13 -11 -30 -11 h-181q-26 0 -32 21.5t14 41.5l267 263q14 14 34 14z" />
<glyph unicode="&#xcf;" horiz-adv-x="704" d="M358 1400h325q16 0 25.5 -11.5t6.5 -28.5l-257 -1320q-3 -17 -17 -28.5t-30 -11.5h-325q-16 0 -25.5 12t-6.5 28l257 1320q3 16 17 28t30 12zM159 1678q28 146 184 146t128 -146t-185 -146q-79 0 -110 36t-17 110zM679 1678q28 146 184 146t128 -146t-185 -146 q-79 0 -110 36t-17 110z" />
<glyph unicode="&#xd0;" horiz-adv-x="1662" d="M620 0h-524q-17 0 -26.5 12t-6.5 28l111 570h-99q-16 0 -25 11.5t-6 28.5l19 98q3 17 17 28.5t30 11.5h99l111 572q3 16 17 28t31 12h524q266 0 444 -77.5t255 -236t33 -386.5q-45 -229 -184 -387.5t-346.5 -235.5t-473.5 -77zM1216 700q44 227 -54 325.5t-340 98.5h-144 l-65 -336h225q16 0 25 -12t6 -28l-19 -98q-3 -16 -17 -28t-30 -12h-225l-65 -334h144q243 0 378.5 98t180.5 326z" />
<glyph unicode="&#xd1;" horiz-adv-x="1754" d="M1016 41l-420 891l-174 -892q-3 -17 -17 -28.5t-30 -11.5h-299q-16 0 -25.5 12t-6.5 28l257 1320q3 16 17 28t30 12h373q62 0 82 -41l420 -891l174 892q3 16 17 28t31 12h299q16 0 25 -12t6 -28l-257 -1320q-3 -16 -16.5 -28t-29.5 -12h-373q-63 0 -83 41zM1086 1563 q-70 41 -113 41q-34 0 -53.5 -10.5t-32.5 -36.5q-11 -29 -37 -29h-130q-18 0 -27.5 8t-5.5 24q28 125 99.5 198t174.5 73q80 0 151 -40q70 -41 113 -41q34 0 53.5 10.5t32.5 36.5q11 29 37 29h130q18 0 27.5 -8t5.5 -24q-28 -125 -99.5 -198t-174.5 -73q-80 0 -151 40z" />
<glyph unicode="&#xd2;" horiz-adv-x="1732" d="M1697 700q-31 -156 -108.5 -288t-194.5 -229.5t-280 -152t-354 -54.5q-128 0 -234.5 25t-184 71t-134 111t-84 145.5t-34 174.5t15.5 197q24 125 77.5 234.5t137 199.5t190 154.5t242.5 100t289 35.5q128 0 234.5 -25t184 -71t134.5 -111t84.5 -145.5t34 -174 t-15.5 -197.5zM513 700q-42 -215 35 -329.5t266 -114.5t311 114.5t164 329.5q41 215 -36 329.5t-266 114.5t-311 -114.5t-163 -329.5zM1087 1819l165 -246q14 -20 -0.5 -42.5t-41.5 -22.5h-128q-67 0 -110 40l-238 231q-16 14 -2 41.5t41 27.5h245q49 0 69 -29z" />
<glyph unicode="&#xd3;" horiz-adv-x="1732" d="M1697 700q-31 -156 -108.5 -288t-194.5 -229.5t-280 -152t-354 -54.5q-128 0 -234.5 25t-184 71t-134 111t-84 145.5t-34 174.5t15.5 197q24 125 77.5 234.5t137 199.5t190 154.5t242.5 100t289 35.5q128 0 234.5 -25t184 -71t134.5 -111t84.5 -145.5t34 -174 t-15.5 -197.5zM513 700q-42 -215 35 -329.5t266 -114.5t311 114.5t164 329.5q41 215 -36 329.5t-266 114.5t-311 -114.5t-163 -329.5zM888 1573l261 246q32 29 81 29h245q18 0 26 -13t3.5 -30t-18.5 -26l-328 -231q-56 -40 -124 -40h-128q-27 0 -33 22.5t15 42.5z" />
<glyph unicode="&#xd4;" horiz-adv-x="1732" d="M1697 700q-31 -156 -108.5 -288t-194.5 -229.5t-280 -152t-354 -54.5q-128 0 -234.5 25t-184 71t-134 111t-84 145.5t-34 174.5t15.5 197q24 125 77.5 234.5t137 199.5t190 154.5t242.5 100t289 35.5q128 0 234.5 -25t184 -71t134.5 -111t84.5 -145.5t34 -174 t-15.5 -197.5zM513 700q-42 -215 35 -329.5t266 -114.5t311 114.5t164 329.5q41 215 -36 329.5t-266 114.5t-311 -114.5t-163 -329.5zM980 1848h288q20 0 28 -14l165 -263q13 -20 -1.5 -41.5t-40.5 -21.5h-181q-17 0 -26 11l-122 153l-182 -153q-13 -11 -30 -11h-181 q-26 0 -32 21.5t14 41.5l267 263q14 14 34 14z" />
<glyph unicode="&#xd5;" horiz-adv-x="1732" d="M1697 700q-31 -156 -108.5 -288t-194.5 -229.5t-280 -152t-354 -54.5q-128 0 -234.5 25t-184 71t-134 111t-84 145.5t-34 174.5t15.5 197q24 125 77.5 234.5t137 199.5t190 154.5t242.5 100t289 35.5q128 0 234.5 -25t184 -71t134.5 -111t84.5 -145.5t34 -174 t-15.5 -197.5zM513 700q-42 -215 35 -329.5t266 -114.5t311 114.5t164 329.5q41 215 -36 329.5t-266 114.5t-311 -114.5t-163 -329.5zM1078 1563q-70 41 -113 41q-34 0 -53.5 -10.5t-32.5 -36.5q-11 -29 -37 -29h-130q-18 0 -27.5 8t-5.5 24q28 125 99.5 198t174.5 73 q80 0 151 -40q70 -41 113 -41q34 0 53.5 10.5t32.5 36.5q11 29 37 29h130q18 0 27.5 -8t5.5 -24q-28 -125 -99.5 -198t-174.5 -73q-80 0 -151 40z" />
<glyph unicode="&#xd6;" horiz-adv-x="1732" d="M1697 700q-31 -156 -108.5 -288t-194.5 -229.5t-280 -152t-354 -54.5q-128 0 -234.5 25t-184 71t-134 111t-84 145.5t-34 174.5t15.5 197q24 125 77.5 234.5t137 199.5t190 154.5t242.5 100t289 35.5q128 0 234.5 -25t184 -71t134.5 -111t84.5 -145.5t34 -174 t-15.5 -197.5zM513 700q-42 -215 35 -329.5t266 -114.5t311 114.5t164 329.5q41 215 -36 329.5t-266 114.5t-311 -114.5t-163 -329.5zM675 1678q28 146 184 146t128 -146t-185 -146q-79 0 -110 36t-17 110zM1195 1678q28 146 184 146t128 -146t-185 -146q-79 0 -110 36 t-17 110z" />
<glyph unicode="&#xd7;" horiz-adv-x="1304" d="M669 853l304 272q11 11 27 10.5t26 -11.5l147 -145q11 -11 11 -28t-13 -28l-290 -260l289 -258q13 -11 13 -28t-11 -28l-145 -146q-10 -11 -26 -11.5t-27 10.5l-305 272l-305 -272q-11 -11 -27 -10.5t-26 11.5l-145 146q-11 11 -11 28t13 28l289 258l-290 260 q-13 11 -13 28t11 28l147 145q10 11 26 11.5t27 -10.5z" />
<glyph unicode="&#xd8;" horiz-adv-x="1732" d="M1667 700q-31 -156 -108.5 -288t-194.5 -229.5t-280 -152t-354 -54.5q-196 0 -346 60l-192 -219q-15 -17 -45 -17h-86q-26 0 -33.5 20.5t11.5 41.5l215 246q-125 96 -170.5 249t-8.5 343q24 125 77.5 234.5t137 199.5t190 154.5t242.5 100t289 35.5q199 0 346 -61 l193 220q15 17 46 17h86q26 0 33 -20.5t-12 -41.5l-217 -247q126 -96 171.5 -249t9.5 -342zM483 700q-39 -194 22 -307l628 715q-70 36 -176 36q-189 0 -311 -114.5t-163 -329.5zM1259 700q38 194 -23 306l-627 -715q72 -35 175 -35q189 0 311 114.5t164 329.5z" />
<glyph unicode="&#xd9;" horiz-adv-x="1736" d="M762 -24q221 0 395 65t292.5 201t156.5 332l153 786q3 17 -6.5 28.5t-25.5 11.5h-325q-16 0 -30 -12t-17 -28l-152 -782q-31 -159 -124 -235.5t-261 -76.5t-231 76.5t-32 235.5l152 782q3 16 -6 28t-25 12h-325q-17 0 -31 -12t-17 -28l-153 -786q-29 -148 1 -262.5 t112.5 -187.5t208 -110.5t290.5 -37.5zM1023 1819l165 -246q14 -20 -0.5 -42.5t-41.5 -22.5h-128q-67 0 -110 40l-238 231q-16 14 -2 41.5t41 27.5h245q49 0 69 -29z" />
<glyph unicode="&#xda;" horiz-adv-x="1736" d="M762 -24q-165 0 -290.5 37.5t-208 110.5t-112.5 187.5t-1 262.5l153 786q3 16 17 28t31 12h325q16 0 25 -12t6 -28l-152 -782q-31 -159 32 -235.5t231 -76.5t261 76.5t124 235.5l152 782q3 16 17 28t30 12h325q16 0 25.5 -11.5t6.5 -28.5l-153 -786q-38 -196 -156.5 -332 t-292.5 -201t-395 -65zM956 1573l261 246q32 29 81 29h245q18 0 26 -13t3.5 -30t-18.5 -26l-328 -231q-56 -40 -124 -40h-128q-27 0 -33 22.5t15 42.5z" />
<glyph unicode="&#xdb;" horiz-adv-x="1736" d="M762 -24q-165 0 -290.5 37.5t-208 110.5t-112.5 187.5t-1 262.5l153 786q3 16 17 28t31 12h325q16 0 25 -12t6 -28l-152 -782q-31 -159 32 -235.5t231 -76.5t261 76.5t124 235.5l152 782q3 16 17 28t30 12h325q16 0 25.5 -11.5t6.5 -28.5l-153 -786q-38 -196 -156.5 -332 t-292.5 -201t-395 -65zM982 1848h288q20 0 28 -14l165 -263q13 -20 -1.5 -41.5t-40.5 -21.5h-181q-17 0 -26 11l-122 153l-182 -153q-13 -11 -30 -11h-181q-26 0 -32 21.5t14 41.5l267 263q14 14 34 14z" />
<glyph unicode="&#xdc;" horiz-adv-x="1736" d="M762 -24q221 0 395 65t292.5 201t156.5 332l153 786q3 17 -6.5 28.5t-25.5 11.5h-325q-16 0 -30 -12t-17 -28l-152 -782q-31 -159 -124 -235.5t-261 -76.5t-231 76.5t-32 235.5l152 782q3 16 -6 28t-25 12h-325q-17 0 -31 -12t-17 -28l-153 -786q-29 -148 1 -262.5 t112.5 -187.5t208 -110.5t290.5 -37.5zM677 1678q28 146 184 146t128 -146t-185 -146q-79 0 -110 36t-17 110zM1197 1678q28 146 184 146t128 -146t-185 -146q-79 0 -110 36t-17 110z" />
<glyph unicode="&#xdd;" horiz-adv-x="1720" d="M903 0h-324q-17 0 -26.5 12t-6.5 28l99 508l-427 787q-12 21 3.5 43t41.5 22h308q55 0 74 -39l260 -515l460 515q35 39 90 39h308q26 0 32.5 -22t-13.5 -43l-733 -787l-99 -508q-3 -17 -17 -28.5t-30 -11.5zM884 1573l261 246q32 29 81 29h245q18 0 26 -13t3.5 -30 t-18.5 -26l-328 -231q-56 -40 -124 -40h-128q-27 0 -33 22.5t15 42.5z" />
<glyph unicode="&#xde;" horiz-adv-x="1474" d="M1454 708q-45 -232 -245 -352t-516 -120h-207l-38 -196q-3 -16 -16.5 -28t-29.5 -12h-326q-16 0 -25.5 12t-6.5 28l257 1320q3 16 17 28t30 12h326q16 0 25 -12t6 -28l-35 -180h207q317 0 470 -119.5t107 -352.5zM1046 708q21 109 -44.5 154.5t-218.5 45.5h-166l-78 -400 h166q153 0 236.5 46t104.5 154z" />
<glyph unicode="&#xdf;" horiz-adv-x="1552" d="M44 39l157 807q57 293 247.5 435.5t532.5 142.5q283 0 428.5 -109.5t112.5 -278.5q-22 -112 -99 -193.5t-207 -122.5q140 -31 203.5 -122t38.5 -222q-37 -191 -196.5 -295.5t-431.5 -104.5q-165 0 -269 32q-11 4 -17 16t-3 26l55 197q5 20 22 29.5t35 3.5q73 -26 165 -26 q212 0 240 144q15 78 -51 125.5t-219 53.5q-15 1 -23.5 13t-6.5 27l39 199q3 15 16.5 26.5t28.5 12.5q243 11 272 161q12 59 -43.5 94.5t-157.5 35.5q-134 0 -203.5 -60.5t-95.5 -193.5l-166 -853q-3 -16 -16.5 -27.5t-29.5 -11.5h-326q-16 0 -25.5 11.5t-6.5 27.5z" />
<glyph unicode="&#xe0;" d="M1005 950l10 49q3 15 15.5 26t28.5 11h310q16 0 24.5 -11t5.5 -26l-187 -962q-3 -15 -15.5 -26t-28.5 -11h-310q-16 0 -24.5 11t-5.5 26l9 49q-149 -110 -363 -110q-106 0 -192.5 36t-144 105t-78.5 170t4 231q32 168 127.5 293t223.5 187t271 62q213 0 320 -110z M451 518q-57 -298 208 -298q124 0 217 68l90 460q-68 68 -191 68q-266 0 -324 -298zM843 1471l166 -246q13 -20 -1.5 -42.5t-41.5 -22.5h-128q-67 0 -109 40l-238 231q-17 14 -3.5 41.5t41.5 27.5h245q49 0 69 -29z" />
<glyph unicode="&#xe1;" d="M1005 950l10 49q3 15 15.5 26t28.5 11h310q16 0 24.5 -11t5.5 -26l-187 -962q-3 -15 -15.5 -26t-28.5 -11h-310q-16 0 -24.5 11t-5.5 26l9 49q-149 -110 -363 -110q-106 0 -192.5 36t-144 105t-78.5 170t4 231q32 168 127.5 293t223.5 187t271 62q213 0 320 -110z M451 518q-57 -298 208 -298q124 0 217 68l90 460q-68 68 -191 68q-266 0 -324 -298zM635 1225l260 246q32 29 81 29h245q18 0 26 -13.5t3.5 -30t-17.5 -25.5l-328 -231q-58 -40 -125 -40h-128q-27 0 -33 22.5t16 42.5z" />
<glyph unicode="&#xe2;" d="M1005 950l10 49q3 15 15.5 26t28.5 11h310q16 0 24.5 -11t5.5 -26l-187 -962q-3 -15 -15.5 -26t-28.5 -11h-310q-16 0 -24.5 11t-5.5 26l9 49q-149 -110 -363 -110q-106 0 -192.5 36t-144 105t-78.5 170t4 231q32 168 127.5 293t223.5 187t271 62q213 0 320 -110z M451 518q-57 -298 208 -298q124 0 217 68l90 460q-68 68 -191 68q-266 0 -324 -298zM778 1500h288q20 0 28 -14l165 -263q13 -20 -1.5 -41.5t-40.5 -21.5h-181q-17 0 -26 11l-122 153l-182 -153q-13 -11 -30 -11h-181q-26 0 -32 21.5t14 41.5l267 263q14 14 34 14z" />
<glyph unicode="&#xe3;" d="M1005 950l10 49q3 15 15.5 26t28.5 11h310q16 0 24.5 -11t5.5 -26l-187 -962q-3 -15 -15.5 -26t-28.5 -11h-310q-16 0 -24.5 11t-5.5 26l9 49q-149 -110 -363 -110q-106 0 -192.5 36t-144 105t-78.5 170t4 231q32 168 127.5 293t223.5 187t271 62q213 0 320 -110z M451 518q-57 -298 208 -298q124 0 217 68l90 460q-68 68 -191 68q-266 0 -324 -298zM876 1213q-70 41 -113 41q-34 0 -53.5 -10.5t-32.5 -36.5q-11 -29 -38 -29h-130q-18 0 -27 8t-5 24q28 125 99.5 198t174.5 73q80 0 151 -40q70 -41 113 -41q34 0 53.5 10.5t32.5 36.5 q11 29 37 29h130q18 0 27.5 -8t5.5 -24q-28 -125 -99.5 -198t-174.5 -73q-80 0 -151 40z" />
<glyph unicode="&#xe4;" d="M1005 950l10 49q3 15 15.5 26t28.5 11h310q16 0 24.5 -11t5.5 -26l-187 -962q-3 -15 -15.5 -26t-28.5 -11h-310q-16 0 -24.5 11t-5.5 26l9 49q-149 -110 -363 -110q-106 0 -192.5 36t-144 105t-78.5 170t4 231q32 168 127.5 293t223.5 187t271 62q213 0 320 -110z M451 518q-57 -298 208 -298q124 0 217 68l90 460q-68 68 -191 68q-266 0 -324 -298zM473 1330q28 146 184 146t128 -146t-184 -146t-128 146zM993 1330q28 146 184 146t128 -146t-184 -146t-128 146z" />
<glyph unicode="&#xe5;" d="M1005 950l10 49q3 15 15.5 26t28.5 11h310q16 0 24.5 -11t5.5 -26l-187 -962q-3 -15 -15.5 -26t-28.5 -11h-310q-16 0 -24.5 11t-5.5 26l9 49q-149 -110 -363 -110q-106 0 -192.5 36t-144 105t-78.5 170t4 231q32 168 127.5 293t223.5 187t271 62q213 0 320 -110z M451 518q-57 -298 208 -298q124 0 217 68l90 460q-68 68 -191 68q-266 0 -324 -298zM631 1340q20 105 109 177.5t200 72.5t171 -72.5t40 -177.5t-109 -177.5t-200 -72.5t-171 72.5t-40 177.5zM809 1340q-7 -37 12 -60.5t54 -23.5t63 23.5t35 60.5t-12 60.5t-54 23.5 t-63 -23.5t-35 -60.5z" />
<glyph unicode="&#xe6;" horiz-adv-x="2052" d="M1750 29q-165 -53 -367 -53q-337 0 -455 172q-189 -172 -507 -172q-220 0 -329.5 84.5t-77.5 249.5q33 168 185 261t408 93h254q7 60 -8 93.5t-66.5 51t-150.5 17.5q-184 0 -361 -58q-19 -6 -31.5 3.5t-11.5 27.5l7 151q1 13 13.5 26t26.5 17q207 67 423 67 q147 0 251 -46.5t138 -133.5q96 82 234.5 131t290.5 49q217 0 332 -89.5t86 -236.5q-63 -328 -718 -328h-154q5 -107 79 -157.5t225 -50.5q167 0 293 45q19 8 33.5 2t12.5 -24l-10 -143q-4 -37 -45 -49zM504 198q195 0 288 112l24 126h-218q-126 0 -188.5 -29t-75.5 -95 q-12 -60 31.5 -87t138.5 -27zM1206 628h102q195 0 284 25.5t100 80.5q9 45 -24.5 68.5t-107.5 23.5q-133 0 -224 -51t-130 -147z" />
<glyph unicode="&#xe7;" horiz-adv-x="1178" d="M985 12q-113 -29 -253 -35l-75 -91q74 -11 112 -56.5t27 -104.5q-39 -201 -380 -201q-57 0 -113 7q-13 2 -20.5 13.5t-4.5 25.5l14 74q4 18 19.5 30t32.5 9q31 -5 74 -5q131 0 142 55q5 30 -31 48.5t-123 25.5q-24 1 -29.5 20.5t11.5 39.5l102 123q-245 37 -356.5 174 t-69.5 354q50 254 262 398t540 144q167 0 303 -37q18 -5 26.5 -18t3.5 -31l-45 -155q-6 -18 -23.5 -27t-34.5 -4q-91 30 -221 30q-170 0 -282.5 -78t-140.5 -222q-28 -146 57 -223t267 -77q127 0 227 29q19 5 32.5 -4t12.5 -27l-15 -155q-5 -39 -48 -49z" />
<glyph unicode="&#xe8;" horiz-adv-x="1330" d="M797 826q-272 0 -360 -196h134q207 0 298 24t102 80q8 44 -35 68t-139 24zM1029 24q-161 -48 -381 -48q-337 0 -485.5 145t-99.5 395q49 253 251.5 398.5t514.5 145.5q243 0 377 -89t105 -237q-33 -169 -211.5 -250.5t-532.5 -81.5h-174q5 -107 86 -149.5t256 -42.5 q157 0 304 43q19 5 31.5 -5t10.5 -28l-12 -141q-2 -22 -9.5 -35.5t-30.5 -19.5zM831 1471l166 -246q13 -20 -1.5 -42.5t-41.5 -22.5h-128q-67 0 -109 40l-238 231q-17 14 -3.5 41.5t41.5 27.5h245q49 0 69 -29z" />
<glyph unicode="&#xe9;" horiz-adv-x="1330" d="M797 826q-272 0 -360 -196h134q207 0 298 24t102 80q8 44 -35 68t-139 24zM1029 24q-161 -48 -381 -48q-337 0 -485.5 145t-99.5 395q49 253 251.5 398.5t514.5 145.5q243 0 377 -89t105 -237q-33 -169 -211.5 -250.5t-532.5 -81.5h-174q5 -107 86 -149.5t256 -42.5 q157 0 304 43q19 5 31.5 -5t10.5 -28l-12 -141q-2 -22 -9.5 -35.5t-30.5 -19.5zM577 1225l260 246q32 29 81 29h245q18 0 26 -13.5t3.5 -30t-17.5 -25.5l-328 -231q-58 -40 -125 -40h-128q-27 0 -33 22.5t16 42.5z" />
<glyph unicode="&#xea;" horiz-adv-x="1330" d="M797 826q-272 0 -360 -196h134q207 0 298 24t102 80q8 44 -35 68t-139 24zM1029 24q-161 -48 -381 -48q-337 0 -485.5 145t-99.5 395q49 253 251.5 398.5t514.5 145.5q243 0 377 -89t105 -237q-33 -169 -211.5 -250.5t-532.5 -81.5h-174q5 -107 86 -149.5t256 -42.5 q157 0 304 43q19 5 31.5 -5t10.5 -28l-12 -141q-2 -22 -9.5 -35.5t-30.5 -19.5zM712 1500h288q20 0 28 -14l165 -263q13 -20 -1.5 -41.5t-40.5 -21.5h-181q-17 0 -26 11l-122 153l-182 -153q-13 -11 -30 -11h-181q-26 0 -32 21.5t14 41.5l267 263q14 14 34 14z" />
<glyph unicode="&#xeb;" horiz-adv-x="1330" d="M797 826q-272 0 -360 -196h134q207 0 298 24t102 80q8 44 -35 68t-139 24zM1029 24q-161 -48 -381 -48q-337 0 -485.5 145t-99.5 395q49 253 251.5 398.5t514.5 145.5q243 0 377 -89t105 -237q-33 -169 -211.5 -250.5t-532.5 -81.5h-174q5 -107 86 -149.5t256 -42.5 q157 0 304 43q19 5 31.5 -5t10.5 -28l-12 -141q-2 -22 -9.5 -35.5t-30.5 -19.5zM407 1330q28 146 184 146t128 -146t-184 -146t-128 146zM927 1330q28 146 184 146t128 -146t-184 -146t-128 146z" />
<glyph unicode="&#xec;" horiz-adv-x="632" d="M36 39l186 958q3 16 17 27.5t30 11.5h306q16 0 25 -11.5t6 -27.5l-186 -958q-3 -16 -16.5 -27.5t-29.5 -11.5h-306q-16 0 -25.5 11.5t-6.5 27.5zM397 1471l166 -246q13 -20 -1.5 -42.5t-41.5 -22.5h-128q-67 0 -109 40l-238 231q-17 14 -3.5 41.5t41.5 27.5h245 q49 0 69 -29z" />
<glyph unicode="&#xed;" horiz-adv-x="632" d="M28 39l186 958q3 16 17 27.5t30 11.5h306q16 0 25 -11.5t6 -27.5l-186 -958q-3 -16 -16.5 -27.5t-29.5 -11.5h-306q-16 0 -25.5 11.5t-6.5 27.5zM347 1225l260 246q32 29 81 29h245q18 0 26 -13.5t3.5 -30t-17.5 -25.5l-328 -231q-58 -40 -125 -40h-128q-27 0 -33 22.5 t16 42.5z" />
<glyph unicode="&#xee;" horiz-adv-x="632" d="M2 39l186 958q3 16 17 27.5t30 11.5h306q16 0 25 -11.5t6 -27.5l-186 -958q-3 -16 -16.5 -27.5t-29.5 -11.5h-306q-16 0 -25.5 11.5t-6.5 27.5zM334 1500h288q20 0 28 -14l165 -263q13 -20 -1.5 -41.5t-40.5 -21.5h-181q-17 0 -26 11l-122 153l-182 -153q-13 -11 -30 -11 h-181q-26 0 -32 21.5t14 41.5l267 263q14 14 34 14z" />
<glyph unicode="&#xef;" horiz-adv-x="632" d="M28 39l186 958q3 16 17 27.5t30 11.5h306q16 0 25 -11.5t6 -27.5l-186 -958q-3 -16 -16.5 -27.5t-29.5 -11.5h-306q-16 0 -25.5 11.5t-6.5 27.5zM55 1330q28 146 184 146t128 -146t-184 -146t-128 146zM575 1330q28 146 184 146t128 -146t-184 -146t-128 146z" />
<glyph unicode="&#xf0;" horiz-adv-x="1354" d="M596 218q60 0 110.5 21.5t97 70t83 136t60.5 212.5q-76 90 -224 90q-114 0 -191 -65t-102 -197q-25 -129 19.5 -198.5t146.5 -69.5zM1304 1237l-144 -39q221 -215 154 -560q-60 -310 -259 -486t-508 -176q-124 0 -224.5 34t-168 97t-93.5 160.5t-3 218.5q23 118 82 212.5 t141 153.5t180 90.5t204 31.5q198 0 301 -98q-4 148 -136 228l-364 -96q-15 -4 -26.5 3t-14.5 21l-12 68q-3 16 8.5 30.5t28.5 19.5l184 47q-25 7 -121 26q-14 3 -21 15t-3 26l47 149q6 18 21 28t31 7q254 -44 430 -142l264 72q16 4 28.5 -3t14.5 -22l12 -65q5 -40 -33 -51z " />
<glyph unicode="&#xf1;" horiz-adv-x="1436" d="M1336 564l-102 -525q-3 -16 -16 -27.5t-29 -11.5h-307q-16 0 -25.5 11.5t-6.5 27.5l99 507q28 145 -16.5 207.5t-163.5 62.5q-135 0 -230 -72l-137 -705q-3 -16 -16.5 -27.5t-29.5 -11.5h-306q-16 0 -25.5 11.5t-6.5 27.5l186 958q3 16 17 27.5t30 11.5h306 q16 0 25 -11.5t6 -27.5l-9 -47q157 110 360 110q493 0 397 -496zM864 1213q-70 41 -113 41q-34 0 -53.5 -10.5t-32.5 -36.5q-11 -29 -38 -29h-130q-18 0 -27 8t-5 24q28 125 99.5 198t174.5 73q80 0 151 -40q70 -41 113 -41q34 0 53.5 10.5t32.5 36.5q11 29 37 29h130 q18 0 27.5 -8t5.5 -24q-28 -125 -99.5 -198t-174.5 -73q-80 0 -151 40z" />
<glyph unicode="&#xf2;" horiz-adv-x="1416" d="M64 518q47 242 252.5 392t497.5 150t438.5 -150t99.5 -392t-252 -392t-497 -150t-439 150t-100 392zM452 518q-29 -149 24 -223.5t174 -74.5t203.5 74.5t110.5 223.5q29 149 -24 223.5t-174 74.5t-203 -74.5t-111 -223.5zM876 1471l166 -246q13 -20 -1.5 -42.5 t-41.5 -22.5h-128q-67 0 -109 40l-238 231q-17 14 -3.5 41.5t41.5 27.5h245q49 0 69 -29z" />
<glyph unicode="&#xf3;" horiz-adv-x="1416" d="M64 518q47 242 252.5 392t497.5 150t438.5 -150t99.5 -392t-252 -392t-497 -150t-439 150t-100 392zM452 518q-29 -149 24 -223.5t174 -74.5t203.5 74.5t110.5 223.5q29 149 -24 223.5t-174 74.5t-203 -74.5t-111 -223.5zM650 1225l260 246q32 29 81 29h245 q18 0 26 -13.5t3.5 -30t-17.5 -25.5l-328 -231q-58 -40 -125 -40h-128q-27 0 -33 22.5t16 42.5z" />
<glyph unicode="&#xf4;" horiz-adv-x="1416" d="M64 518q47 242 252.5 392t497.5 150t438.5 -150t99.5 -392t-252 -392t-497 -150t-439 150t-100 392zM452 518q-29 -149 24 -223.5t174 -74.5t203.5 74.5t110.5 223.5q29 149 -24 223.5t-174 74.5t-203 -74.5t-111 -223.5zM755 1500h288q20 0 28 -14l165 -263 q13 -20 -1.5 -41.5t-40.5 -21.5h-181q-17 0 -26 11l-122 153l-182 -153q-13 -11 -30 -11h-181q-26 0 -32 21.5t14 41.5l267 263q14 14 34 14z" />
<glyph unicode="&#xf5;" horiz-adv-x="1416" d="M64 518q47 242 252.5 392t497.5 150t438.5 -150t99.5 -392t-252 -392t-497 -150t-439 150t-100 392zM452 518q-29 -149 24 -223.5t174 -74.5t203.5 74.5t110.5 223.5q29 149 -24 223.5t-174 74.5t-203 -74.5t-111 -223.5zM853 1213q-70 41 -113 41q-34 0 -53.5 -10.5 t-32.5 -36.5q-11 -29 -38 -29h-130q-18 0 -27 8t-5 24q28 125 99.5 198t174.5 73q80 0 151 -40q70 -41 113 -41q34 0 53.5 10.5t32.5 36.5q11 29 37 29h130q18 0 27.5 -8t5.5 -24q-28 -125 -99.5 -198t-174.5 -73q-80 0 -151 40z" />
<glyph unicode="&#xf6;" horiz-adv-x="1416" d="M64 518q47 242 252.5 392t497.5 150t438.5 -150t99.5 -392t-252 -392t-497 -150t-439 150t-100 392zM452 518q-29 -149 24 -223.5t174 -74.5t203.5 74.5t110.5 223.5q29 149 -24 223.5t-174 74.5t-203 -74.5t-111 -223.5zM450 1330q28 146 184 146t128 -146t-184 -146 t-128 146zM970 1330q28 146 184 146t128 -146t-184 -146t-128 146z" />
<glyph unicode="&#xf7;" horiz-adv-x="1304" d="M862 1098q0 -180 -180 -180t-180 180t180 180t180 -180zM862 230q0 -180 -180 -180t-180 180t180 180t180 -180zM169 790h1026q16 0 27.5 -11.5t11.5 -27.5v-174q0 -16 -11.5 -27.5t-27.5 -11.5h-1026q-16 0 -27.5 11.5t-11.5 27.5v174q0 16 11.5 27.5t27.5 11.5z" />
<glyph unicode="&#xf8;" horiz-adv-x="1416" d="M34 518q47 242 252.5 392t497.5 150q141 0 255 -39l184 208q25 27 55 27h66q25 0 31 -20t-11 -41l-206 -232q106 -72 149 -187t15 -258q-47 -242 -252 -392t-497 -150q-142 0 -257 39l-184 -208q-24 -27 -54 -27h-66q-25 0 -31.5 20t11.5 41l206 232q-106 72 -149 186.5 t-15 258.5zM934 518q22 113 -5 187l-414 -466q42 -19 105 -19q121 0 203.5 74.5t110.5 223.5zM422 518q-22 -116 5 -186l412 465q-41 19 -103 19q-121 0 -203 -74.5t-111 -223.5z" />
<glyph unicode="&#xf9;" horiz-adv-x="1436" d="M96 472l102 525q3 16 16.5 27.5t29.5 11.5h307q16 0 25 -11.5t6 -27.5l-98 -507q-29 -145 15.5 -207.5t163.5 -62.5q135 0 230 72l137 705q3 16 17 27.5t30 11.5h306q16 0 25 -11.5t6 -27.5l-186 -958q-3 -16 -16.5 -27.5t-29.5 -11.5h-306q-16 0 -25.5 11.5t-6.5 27.5 l9 47q-157 -110 -359 -110q-245 0 -345.5 124.5t-52.5 371.5zM845 1471l166 -246q13 -20 -1.5 -42.5t-41.5 -22.5h-128q-67 0 -109 40l-238 231q-17 14 -3.5 41.5t41.5 27.5h245q49 0 69 -29z" />
<glyph unicode="&#xfa;" horiz-adv-x="1436" d="M96 472l102 525q3 16 16.5 27.5t29.5 11.5h307q16 0 25 -11.5t6 -27.5l-98 -507q-29 -145 15.5 -207.5t163.5 -62.5q135 0 230 72l137 705q3 16 17 27.5t30 11.5h306q16 0 25 -11.5t6 -27.5l-186 -958q-3 -16 -16.5 -27.5t-29.5 -11.5h-306q-16 0 -25.5 11.5t-6.5 27.5 l9 47q-157 -110 -359 -110q-245 0 -345.5 124.5t-52.5 371.5zM663 1225l260 246q32 29 81 29h245q18 0 26 -13.5t3.5 -30t-17.5 -25.5l-328 -231q-58 -40 -125 -40h-128q-27 0 -33 22.5t16 42.5z" />
<glyph unicode="&#xfb;" horiz-adv-x="1436" d="M96 472l102 525q3 16 16.5 27.5t29.5 11.5h307q16 0 25 -11.5t6 -27.5l-98 -507q-29 -145 15.5 -207.5t163.5 -62.5q135 0 230 72l137 705q3 16 17 27.5t30 11.5h306q16 0 25 -11.5t6 -27.5l-186 -958q-3 -16 -16.5 -27.5t-29.5 -11.5h-306q-16 0 -25.5 11.5t-6.5 27.5 l9 47q-157 -110 -359 -110q-245 0 -345.5 124.5t-52.5 371.5zM760 1500h288q20 0 28 -14l165 -263q13 -20 -1.5 -41.5t-40.5 -21.5h-181q-17 0 -26 11l-122 153l-182 -153q-13 -11 -30 -11h-181q-26 0 -32 21.5t14 41.5l267 263q14 14 34 14z" />
<glyph unicode="&#xfc;" horiz-adv-x="1436" d="M96 472l102 525q3 16 16.5 27.5t29.5 11.5h307q16 0 25 -11.5t6 -27.5l-98 -507q-29 -145 15.5 -207.5t163.5 -62.5q135 0 230 72l137 705q3 16 17 27.5t30 11.5h306q16 0 25 -11.5t6 -27.5l-186 -958q-3 -16 -16.5 -27.5t-29.5 -11.5h-306q-16 0 -25.5 11.5t-6.5 27.5 l9 47q-157 -110 -359 -110q-245 0 -345.5 124.5t-52.5 371.5zM455 1330q28 146 184 146t128 -146t-184 -146t-128 146zM975 1330q28 146 184 146t128 -146t-184 -146t-128 146z" />
<glyph unicode="&#xfd;" horiz-adv-x="1394" d="M669 367l378 629q24 40 66 40h295q22 0 30 -17t-5 -38l-820 -1318q-31 -49 -81 -49h-293q-22 0 -29.5 17t4.5 37l200 332l-285 980q-7 21 8 38.5t38 17.5h293q40 0 50 -40zM662 1225l260 246q32 29 81 29h245q18 0 26 -13.5t3.5 -30t-17.5 -25.5l-328 -231 q-58 -40 -125 -40h-128q-27 0 -33 22.5t16 42.5z" />
<glyph unicode="&#xfe;" d="M410 86l-84 -433q-3 -16 -17 -27.5t-30 -11.5h-307q-16 0 -24.5 11.5t-5.5 27.5l344 1768q3 16 16 27.5t29 11.5h307q16 0 25.5 -11.5t6.5 -27.5l-92 -471q151 110 364 110q106 0 192.5 -36t143.5 -105t78 -170t-4 -231q-24 -126 -85 -230t-145 -171.5t-184.5 -104 t-206.5 -36.5q-213 0 -321 110zM964 518q58 298 -208 298q-124 0 -217 -68l-90 -460q68 -68 191 -68q267 0 324 298z" />
<glyph unicode="&#xff;" horiz-adv-x="1394" d="M669 367l378 629q24 40 66 40h295q22 0 30 -17t-5 -38l-820 -1318q-31 -49 -81 -49h-293q-22 0 -29.5 17t4.5 37l200 332l-285 980q-7 21 8 38.5t38 17.5h293q40 0 50 -40zM428 1330q28 146 184 146t128 -146t-184 -146t-128 146zM948 1330q28 146 184 146t128 -146 t-184 -146t-128 146z" />
<glyph unicode="&#x152;" horiz-adv-x="2164" d="M1945 0h-1022q-474 0 -678.5 182.5t-138.5 517.5q64 334 339.5 517t749.5 183h1005q16 0 25.5 -11.5t6.5 -28.5l-38 -197q-4 -16 -17.5 -27.5t-30.5 -11.5h-600l-53 -274h545q16 0 25 -11.5t6 -28.5l-38 -197q-4 -17 -17.5 -28t-29.5 -11h-545l-58 -298h617 q16 0 25.5 -11.5t6.5 -27.5l-39 -197q-3 -16 -16.5 -28t-29.5 -12zM510 700q-40 -203 70 -307.5t372 -104.5h40l161 824h-40q-523 0 -603 -412z" />
<glyph unicode="&#x153;" horiz-adv-x="2168" d="M617 218q116 0 191.5 74.5t104.5 225.5q30 151 -16.5 225.5t-162.5 74.5t-191.5 -74.5t-105.5 -225.5q-57 -300 180 -300zM1321 628h102q195 0 284 25.5t100 80.5q9 45 -23 68.5t-105 23.5q-121 0 -214 -52.5t-144 -145.5zM1874 243q19 8 33.5 2t12.5 -24l-10 -143 q-3 -36 -45 -49q-168 -53 -367 -53q-357 0 -468 194q-79 -93 -202.5 -143.5t-281.5 -50.5q-280 0 -405.5 146.5t-77.5 395.5q48 248 231 395t463 147q148 0 256.5 -53t148.5 -143q235 196 587 196q211 0 320 -88.5t80 -237.5q-63 -328 -718 -328h-154q5 -107 79 -157.5 t225 -50.5q163 0 293 45z" />
<glyph unicode="&#x178;" horiz-adv-x="1720" d="M903 0h-324q-17 0 -26.5 12t-6.5 28l99 508l-427 787q-12 21 3.5 43t41.5 22h308q55 0 74 -39l260 -515l460 515q35 39 90 39h308q26 0 32.5 -22t-13.5 -43l-733 -787l-99 -508q-3 -17 -17 -28.5t-30 -11.5zM651 1678q28 146 184 146t128 -146t-185 -146q-79 0 -110 36 t-17 110zM1171 1678q28 146 184 146t128 -146t-185 -146q-79 0 -110 36t-17 110z" />
<glyph unicode="&#x2c6;" horiz-adv-x="980" d="M492 1460h288q20 0 29 -14l164 -263q13 -20 -1.5 -41.5t-40.5 -21.5h-181q-17 0 -26 11l-122 153l-182 -153q-13 -11 -30 -11h-181q-26 0 -32 21.5t14 41.5l268 263q12 14 33 14z" />
<glyph unicode="&#x2dc;" horiz-adv-x="980" d="M623 1175q-72 41 -113 41q-34 0 -53.5 -10.5t-32.5 -36.5q-11 -29 -38 -29h-130q-18 0 -27.5 8t-5.5 24q29 126 100.5 198.5t174.5 72.5q80 0 150 -40q72 -41 113 -41q65 0 86 47q11 29 38 29h130q18 0 27.5 -8t5.5 -24q-29 -126 -100.5 -198.5t-174.5 -72.5 q-80 0 -150 40z" />
<glyph unicode="&#x2000;" horiz-adv-x="964" />
<glyph unicode="&#x2001;" horiz-adv-x="1928" />
<glyph unicode="&#x2002;" horiz-adv-x="964" />
<glyph unicode="&#x2003;" horiz-adv-x="1928" />
<glyph unicode="&#x2004;" horiz-adv-x="642" />
<glyph unicode="&#x2005;" horiz-adv-x="482" />
<glyph unicode="&#x2006;" horiz-adv-x="321" />
<glyph unicode="&#x2007;" horiz-adv-x="321" />
<glyph unicode="&#x2008;" horiz-adv-x="241" />
<glyph unicode="&#x2009;" horiz-adv-x="385" />
<glyph unicode="&#x200a;" horiz-adv-x="107" />
<glyph unicode="&#x2010;" horiz-adv-x="848" d="M707 528h-570q-16 0 -25 11.5t-6 27.5l37 194q4 17 17.5 28t29.5 11h570q17 0 26 -11.5t5 -27.5l-37 -194q-3 -16 -17 -27.5t-30 -11.5z" />
<glyph unicode="&#x2011;" horiz-adv-x="848" d="M707 528h-570q-16 0 -25 11.5t-6 27.5l37 194q4 17 17.5 28t29.5 11h570q17 0 26 -11.5t5 -27.5l-37 -194q-3 -16 -17 -27.5t-30 -11.5z" />
<glyph unicode="&#x2012;" horiz-adv-x="848" d="M707 528h-570q-16 0 -25 11.5t-6 27.5l37 194q4 17 17.5 28t29.5 11h570q17 0 26 -11.5t5 -27.5l-37 -194q-3 -16 -17 -27.5t-30 -11.5z" />
<glyph unicode="&#x2013;" horiz-adv-x="1000" d="M961 538h-922q-16 0 -25 11.5t-6 27.5l33 174q4 16 17.5 27.5t29.5 11.5h922q16 0 25.5 -11.5t5.5 -27.5l-33 -174q-3 -16 -17 -27.5t-30 -11.5z" />
<glyph unicode="&#x2014;" horiz-adv-x="2000" d="M1961 538h-1922q-16 0 -25 11.5t-6 27.5l33 174q4 16 17.5 27.5t29.5 11.5h1922q16 0 25.5 -11.5t5.5 -27.5l-33 -174q-3 -16 -17 -27.5t-30 -11.5z" />
<glyph unicode="&#x2018;" horiz-adv-x="720" d="M635 1529q31 16 45 -14l30 -62q13 -29 -15 -48q-50 -32 -88.5 -75.5t-54.5 -89.5q140 -21 109 -176q-35 -180 -229 -180t-159 180q62 316 362 465z" />
<glyph unicode="&#x2019;" horiz-adv-x="720" d="M348 899q-31 -16 -45 14l-30 62q-13 29 15 48q50 32 88.5 75.5t54.5 89.5q-140 21 -109 176q34 180 229 180q193 0 159 -180q-62 -316 -362 -465z" />
<glyph unicode="&#x201a;" horiz-adv-x="720" d="M114 -309q-31 -16 -45 14l-30 62q-13 29 16 48q50 31 88 75t55 90q-140 21 -110 176q35 180 229 180t159 -180q-62 -317 -362 -465z" />
<glyph unicode="&#x201c;" horiz-adv-x="1226" d="M635 1529q31 16 45 -14l30 -62q13 -29 -15 -48q-50 -32 -88.5 -75.5t-54.5 -89.5q140 -21 109 -176q-35 -180 -229 -180t-159 180q62 316 362 465zM1141 1529q31 16 45 -14l30 -62q13 -29 -15 -48q-50 -32 -88.5 -75.5t-54.5 -89.5q140 -21 109 -176q-35 -180 -229 -180 t-159 180q62 316 362 465z" />
<glyph unicode="&#x201d;" horiz-adv-x="1226" d="M348 899q-31 -16 -45 14l-30 62q-13 29 15 48q50 32 88.5 75.5t54.5 89.5q-140 21 -109 176q34 180 229 180q193 0 159 -180q-62 -316 -362 -465zM854 899q-31 -16 -45 14l-30 62q-13 29 15 48q50 32 88.5 75.5t54.5 89.5q-140 21 -109 176q34 180 229 180 q193 0 159 -180q-62 -316 -362 -465z" />
<glyph unicode="&#x201e;" horiz-adv-x="1226" d="M114 -309q-31 -16 -45 14l-30 62q-13 29 16 48q50 31 88 75t55 90q-140 21 -110 176q35 180 229 180t159 -180q-62 -317 -362 -465zM620 -309q-31 -16 -45 14l-30 62q-13 29 16 48q50 31 88 75t55 90q-140 21 -110 176q34 180 229 180q193 0 159 -180q-62 -317 -362 -465 z" />
<glyph unicode="&#x2022;" horiz-adv-x="1012" d="M100 664q0 138 78.5 213t227.5 75t227.5 -75t78.5 -213t-78.5 -213t-227.5 -75t-227.5 75t-78.5 213z" />
<glyph unicode="&#x2026;" horiz-adv-x="2160" d="M96 156q34 180 229 180q193 0 159 -180q-36 -180 -229 -180q-195 0 -159 180zM816 156q34 180 229 180q193 0 159 -180q-36 -180 -229 -180q-195 0 -159 180zM1536 156q34 180 229 180q193 0 159 -180q-36 -180 -229 -180q-195 0 -159 180z" />
<glyph unicode="&#x202f;" horiz-adv-x="385" />
<glyph unicode="&#x2039;" horiz-adv-x="664" d="M124 545l31 158q3 18 19 29l430 337q24 19 45 9.5t16 -36.5l-36 -184q-5 -27 -27 -43l-248 -191l174 -191q16 -15 10 -43l-35 -184q-5 -27 -30.5 -36.5t-41.5 9.5l-299 337q-11 11 -8 29z" />
<glyph unicode="&#x203a;" horiz-adv-x="664" d="M569 703l-31 -158q-3 -18 -18 -29l-431 -337q-24 -19 -44.5 -9.5t-15.5 36.5l35 184q5 26 28 43l248 191l-174 191q-16 16 -11 43l36 184q5 27 29.5 36.5t41.5 -9.5l300 -337q10 -10 7 -29z" />
<glyph unicode="&#x205f;" horiz-adv-x="482" />
<glyph unicode="&#x20ac;" horiz-adv-x="1536" d="M1591 1365q11 -4 17 -16t3 -25l-58 -201q-5 -20 -23.5 -31t-35.5 -4q-117 48 -293 48q-186 0 -319 -62t-206 -180h639q20 0 28.5 -15t-0.5 -35l-31 -63q-4 -10 -17.5 -18.5t-24.5 -8.5h-653q-17 -53 -21 -110h597q20 0 28 -15t-1 -35l-30 -63q-5 -10 -18.5 -18.5 t-24.5 -8.5h-545q58 -240 438 -240q171 0 313 50q19 7 33 -4t12 -31l-20 -205q-1 -12 -11.5 -24t-22.5 -16q-198 -58 -430 -58q-343 0 -536 138.5t-208 389.5h-99q-16 0 -25 11.5t-6 27.5l12 62q3 16 17 27.5t30 11.5h79q7 58 21 110h-79q-16 0 -25.5 11.5t-5.5 27.5l12 62 q3 16 16.5 27.5t29.5 11.5h99q111 251 357.5 390.5t587.5 139.5q231 0 400 -59z" />
<glyph unicode="&#x2122;" horiz-adv-x="1528" d="M246 777v463h-163q-16 0 -27.5 11.5t-11.5 27.5v83q0 16 11.5 27t27.5 11h525q16 0 27 -11t11 -27v-83q0 -16 -11 -27.5t-27 -11.5h-164v-463q0 -16 -11.5 -27.5t-27.5 -11.5h-120q-16 0 -27.5 11.5t-11.5 27.5zM1040 930h112q16 0 31 17l125 173v-343q0 -16 11.5 -27.5 t27.5 -11.5h118q16 0 27.5 11.5t11.5 27.5v585q0 16 -11.5 27t-27.5 11h-149q-19 0 -31 -16l-189 -264l-189 264q-12 16 -31 16h-149q-16 0 -27.5 -11t-11.5 -27v-585q0 -16 11.5 -27.5t27.5 -11.5h118q16 0 27.5 11.5t11.5 27.5v343l125 -173q15 -17 31 -17z" />
<glyph unicode="&#x25fc;" horiz-adv-x="1035" d="M0 1035h1035v-1035h-1035v1035z" />
</font>
</defs>
</svg>
