<?xml version="1.0" standalone="no"?>
<!DOCTYPE svg PUBLIC "-//W3C//DTD SVG 1.1//EN" "http://www.w3.org/Graphics/SVG/1.1/DTD/svg11.dtd" >
<svg xmlns="http://www.w3.org/2000/svg">
<metadata></metadata>
<defs>
<font id="core_sans_nr_63_ex_bolditalic" horiz-adv-x="1382" >
<font-face units-per-em="2000" ascent="1600" descent="-400" />
<missing-glyph horiz-adv-x="720" />
<glyph unicode="&#xfb01;" horiz-adv-x="1486" d="M83 861l26 136q3 16 17 27.5t30 11.5h187l9 49q36 184 167 279.5t352 95.5q102 0 181 -15q16 -3 23 -15t2 -28l-44 -135q-5 -16 -20 -25.5t-32 -7.5q-50 8 -92 8q-101 0 -153.5 -37t-70.5 -129l-8 -40h281q16 0 25 -11.5t6 -27.5l-26 -136q-3 -16 -17 -27.5t-30 -11.5 h-281l-227 -1169q-3 -16 -17 -27.5t-30 -11.5h-236q-16 0 -25 11.5t-6 27.5l227 1169h-187q-16 0 -25 11.5t-6 27.5zM933 39l186 958q3 16 17 27.5t30 11.5h238q16 0 25 -11.5t6 -27.5l-186 -958q-3 -16 -16.5 -27.5t-29.5 -11.5h-238q-16 0 -25.5 11.5t-6.5 27.5z M1159 1314q29 146 208 146q92 0 129 -36.5t23 -109.5q-29 -146 -208 -146q-92 0 -129 36.5t-23 109.5z" />
<glyph unicode="&#xfb02;" horiz-adv-x="1486" d="M83 861l26 136q3 16 17 27.5t30 11.5h187l9 49q36 184 167 279.5t352 95.5q102 0 181 -15q16 -3 23 -15t2 -28l-44 -135q-5 -16 -20 -25.5t-32 -7.5q-50 8 -92 8q-101 0 -153.5 -37t-70.5 -129l-8 -40h281q16 0 25 -11.5t6 -27.5l-26 -136q-3 -16 -17 -27.5t-30 -11.5 h-281l-227 -1169q-3 -16 -17 -27.5t-30 -11.5h-236q-16 0 -25 11.5t-6 27.5l227 1169h-187q-16 0 -25 11.5t-6 27.5zM933 39l269 1382q3 16 16.5 27.5t29.5 11.5h238q16 0 25.5 -11.5t6.5 -27.5l-269 -1382q-3 -16 -16.5 -27.5t-29.5 -11.5h-238q-16 0 -25.5 11.5t-6.5 27.5 z" />
<glyph unicode="&#xfb03;" horiz-adv-x="2336" d="M1017 1233q-49 9 -114 9q-109 0 -165 -39t-74 -129l-7 -38h506l9 49q36 184 167 279.5t352 95.5q101 0 181 -15q16 -3 23 -15t2 -28l-44 -135q-5 -16 -20 -25.5t-32 -7.5q-50 8 -92 8q-101 0 -153.5 -37t-70.5 -129l-8 -40h281q16 0 25 -11.5t6 -27.5l-26 -136 q-3 -16 -17 -27.5t-30 -11.5h-281l-227 -1169q-3 -16 -17 -27.5t-30 -11.5h-236q-16 0 -25 11.5t-6 27.5l227 1169h-506l-227 -1169q-3 -16 -17 -27.5t-30 -11.5h-236q-16 0 -25 11.5t-6 27.5l227 1169h-187q-16 0 -25 11.5t-6 27.5l26 136q3 16 17 27.5t30 11.5h187l9 48 q36 182 170.5 279t364.5 97q106 0 196 -16q15 -3 23 -15.5t3 -27.5l-44 -135q-14 -38 -48 -33zM1783 39l186 958q3 16 17 27.5t30 11.5h238q16 0 25 -11.5t6 -27.5l-186 -958q-3 -16 -16.5 -27.5t-29.5 -11.5h-238q-16 0 -25.5 11.5t-6.5 27.5zM2009 1314q29 146 208 146 q92 0 129 -36.5t23 -109.5q-29 -146 -208 -146q-92 0 -129 36.5t-23 109.5z" />
<glyph unicode="&#xfb04;" horiz-adv-x="2336" d="M1017 1233q-49 9 -114 9q-109 0 -165 -39t-74 -129l-7 -38h506l9 49q36 184 167 279.5t352 95.5q101 0 181 -15q16 -3 23 -15t2 -28l-44 -135q-5 -16 -20 -25.5t-32 -7.5q-50 8 -92 8q-101 0 -153.5 -37t-70.5 -129l-8 -40h281q16 0 25 -11.5t6 -27.5l-26 -136 q-3 -16 -17 -27.5t-30 -11.5h-281l-227 -1169q-3 -16 -17 -27.5t-30 -11.5h-236q-16 0 -25 11.5t-6 27.5l227 1169h-506l-227 -1169q-3 -16 -17 -27.5t-30 -11.5h-236q-16 0 -25 11.5t-6 27.5l227 1169h-187q-16 0 -25 11.5t-6 27.5l26 136q3 16 17 27.5t30 11.5h187l9 48 q36 182 170.5 279t364.5 97q106 0 196 -16q15 -3 23 -15.5t3 -27.5l-44 -135q-14 -38 -48 -33zM1783 39l269 1382q3 16 16.5 27.5t29.5 11.5h238q16 0 25.5 -11.5t6.5 -27.5l-269 -1382q-3 -16 -16.5 -27.5t-29.5 -11.5h-238q-16 0 -25.5 11.5t-6.5 27.5z" />
<glyph horiz-adv-x="666" />
<glyph horiz-adv-x="0" />
<glyph horiz-adv-x="0" />
<glyph unicode="&#xd;" horiz-adv-x="682" />
<glyph unicode=" "  horiz-adv-x="720" />
<glyph unicode="&#x09;" horiz-adv-x="720" />
<glyph unicode="&#xa0;" horiz-adv-x="720" />
<glyph unicode="!" horiz-adv-x="712" d="M399 1400h255q16 0 25 -11t6 -27l-63 -324l-172 -612q-4 -14 -17.5 -25t-28.5 -11h-148q-14 0 -23.5 10.5t-8.5 24.5l66 612l63 325q3 16 16.5 27t29.5 11zM96 132q31 156 214 156q185 0 154 -156t-214 -156q-185 0 -154 156z" />
<glyph unicode="&#x22;" horiz-adv-x="1164" d="M279 845l74 515q2 17 16 28.5t31 11.5h239q16 0 24.5 -11t5.5 -27l-8 -43l-147 -476q-4 -14 -17.5 -24.5t-27.5 -10.5h-158q-16 0 -25 11t-7 26zM745 845l74 515q2 17 16 28.5t31 11.5h239q16 0 24.5 -11t5.5 -27l-8 -43l-147 -476q-4 -14 -17.5 -24.5t-27.5 -10.5h-158 q-16 0 -25 11t-7 26z" />
<glyph unicode="#" horiz-adv-x="1640" d="M1402 316h-254l-113 -285q-5 -13 -18 -22t-26 -9h-202q-19 0 -28 13.5t-2 32.5l108 270h-337l-113 -285q-5 -13 -18 -22t-26 -9h-202q-19 0 -28 13.5t-2 32.5l108 270h-191q-16 0 -25.5 11.5t-5.5 27.5l29 152q3 16 17 27.5t30 11.5h238l119 302h-205q-16 0 -25 11.5 t-6 27.5l29 152q4 16 17.5 27.5t29.5 11.5h252l117 291q5 13 18 22t26 9h202q19 0 28 -13.5t1 -32.5l-111 -276h337l117 291q5 13 18 22t26 9h202q19 0 28 -13.5t1 -32.5l-111 -276h193q16 0 25.5 -11.5t5.5 -27.5l-29 -152q-3 -16 -17 -27.5t-30 -11.5h-240l-119 -302h207 q16 0 25 -11.5t6 -27.5l-29 -152q-4 -16 -17.5 -27.5t-29.5 -11.5zM741 848l-119 -302h337l119 302h-337z" />
<glyph unicode="$" horiz-adv-x="1330" d="M50 45q-11 5 -16.5 17.5t-1.5 25.5l52 177q6 21 24.5 31t35.5 2q152 -72 403 -72l70 356q-5 2 -15.5 5t-16.5 5q-232 65 -320.5 169t-56.5 269q33 174 177 274t395 117l29 150q3 16 16.5 27.5t29.5 11.5h64q16 0 25.5 -11.5t6.5 -27.5l-29 -148q214 -5 376 -54 q14 -4 20.5 -17t1.5 -26l-48 -171q-5 -20 -22 -29.5t-35 -4.5q-150 47 -342 49l-65 -333q6 -2 10 -3q249 -76 340 -178.5t59 -265.5q-36 -185 -174.5 -287t-400.5 -122l-30 -152q-3 -16 -16.5 -27.5t-29.5 -11.5h-64q-16 0 -25.5 11.5t-6.5 27.5l29 147q-257 2 -449 69z M883 376q10 52 -19.5 89.5t-113.5 71.5l-59 -302q90 14 135 49t57 92zM542 1042q-10 -50 20 -86.5t113 -71.5l55 279q-92 -11 -135 -41.5t-53 -79.5z" />
<glyph unicode="%" horiz-adv-x="2108" d="M1040 1032q-32 -168 -160.5 -275t-313.5 -107t-271.5 107t-54.5 275t160.5 275t313.5 107t271.5 -107t54.5 -275zM496 1032q-16 -83 13 -124.5t99 -41.5q143 0 176 166q16 83 -13 124.5t-99 41.5q-143 0 -176 -166zM1939 368q-32 -168 -160.5 -275t-313.5 -107 t-271.5 107t-54.5 275t160.5 275t313.5 107t271.5 -107t54.5 -275zM1395 368q-16 -83 13 -124.5t99 -41.5q143 0 176 166q16 83 -13 124.5t-99 41.5q-143 0 -176 -166zM1862 1337l-1312 -1301q-36 -36 -85 -36h-130q-26 0 -31.5 22t14.5 41l1312 1301q36 36 86 36h130 q26 0 31 -22t-15 -41z" />
<glyph unicode="&#x26;" horiz-adv-x="1752" d="M982 1072q12 60 -32 97t-134 37q-85 0 -142 -39t-67 -89q-9 -47 19 -97.5t107 -118.5q227 94 249 210zM350 372q-15 -80 50 -126t202 -46q196 0 314 92l-321 304q-219 -86 -245 -224zM1216 19l-128 119q-208 -162 -545 -162q-122 0 -220 25.5t-165.5 74t-95.5 126 t-9 176.5q49 249 374 380q-75 76 -102.5 151t-10.5 165q30 155 178 252.5t366 97.5q223 0 332.5 -97t79.5 -255q-43 -221 -363 -364l225 -212q74 96 113 253q4 15 17 25t28 10h212q16 0 24.5 -11t4.5 -27q-67 -255 -215 -426l274 -258q17 -16 6.5 -39t-37.5 -23h-287 q-35 0 -56 19z" />
<glyph unicode="'" horiz-adv-x="678" d="M269 845l74 515q2 16 16 28t31 12h238q16 0 25 -11t6 -27l-8 -43l-147 -476q-4 -14 -17 -24.5t-28 -10.5h-158q-15 0 -24.5 11t-7.5 26z" />
<glyph unicode="(" horiz-adv-x="878" d="M207 621q93 476 500 850q34 29 74 29h147q26 0 32.5 -21t-13.5 -42q-383 -393 -466 -816q-83 -424 148 -818q12 -21 -2.5 -42t-40.5 -21h-147q-42 0 -62 29q-262 371 -170 852z" />
<glyph unicode=")" horiz-adv-x="878" d="M668 621q-92 -477 -500 -852q-34 -29 -74 -29h-147q-26 0 -32.5 21t13.5 42q383 392 466 818q82 423 -148 816q-12 21 2.5 42t40.5 21h147q42 0 62 -29q263 -373 170 -850z" />
<glyph unicode="*" horiz-adv-x="1112" d="M867 356l-189 134l22 -230q2 -17 -9.5 -29.5t-28.5 -12.5h-167q-17 0 -28.5 12.5t-10.5 29.5l22 230l-188 -134q-14 -10 -30.5 -6.5t-24.5 18.5l-84 144q-8 15 -3.5 31.5t20.5 23.5l210 96l-209 96q-16 8 -21 23.5t4 30.5l83 144q9 15 25.5 19t30.5 -6l187 -133l-22 229 q-1 17 10.5 29.5t28.5 12.5h167q17 0 28.5 -12.5t9.5 -29.5l-22 -230l188 134q14 10 30.5 6t25.5 -19l83 -144q9 -15 4 -30.5t-21 -23.5l-210 -96l211 -96q16 -7 20.5 -23.5t-3.5 -31.5l-84 -144q-8 -15 -24.5 -18.5t-30.5 6.5z" />
<glyph unicode="+" horiz-adv-x="1320" d="M552 201v349h-373q-16 0 -27.5 11.5t-11.5 27.5v148q0 16 12 27.5t29 11.5h371v347q0 16 11.5 27.5t27.5 11.5h198q16 0 27.5 -11.5t11.5 -27.5v-347h373q16 0 27.5 -11.5t11.5 -27.5v-148q0 -16 -11.5 -27.5t-27.5 -11.5h-373v-349q0 -16 -11.5 -27.5t-27.5 -11.5h-198 q-16 0 -27.5 11.5t-11.5 27.5z" />
<glyph unicode="," horiz-adv-x="696" d="M102 -292q-14 -7 -26.5 -3t-18.5 16l-22 47q-6 13 -0.5 29t18.5 24q101 63 139 159q-129 18 -102 158q32 162 206 162q87 0 122 -41.5t19 -128.5q-28 -142 -115.5 -251t-219.5 -171z" />
<glyph unicode="-" horiz-adv-x="858" d="M710 540h-561q-16 0 -25 11.5t-6 27.5l33 168q3 16 16.5 27.5t29.5 11.5h561q16 0 25 -11.5t6 -27.5l-33 -168q-3 -16 -16.5 -27.5t-29.5 -11.5z" />
<glyph unicode="." horiz-adv-x="696" d="M99 138q31 162 206 162q173 0 142 -162t-205 -162t-143 162z" />
<glyph unicode="/" horiz-adv-x="1270" d="M129 -191q-23 -29 -55 -29h-198q-25 0 -32 19t10 40l1285 1627q24 30 56 30h199q25 0 32 -19t-10 -40z" />
<glyph unicode="0" horiz-adv-x="1392" d="M1377 700q-42 -215 -145.5 -376.5t-269 -254.5t-372.5 -93q-125 0 -223 34.5t-161.5 98t-100.5 153t-40 200t20 238.5q31 161 98.5 293t166 228.5t232 149.5t289.5 53q207 0 336.5 -93t170 -254.5t-0.5 -376.5zM417 700q-93 -472 222 -472q155 0 256.5 114.5t149.5 357.5 q92 472 -223 472q-155 0 -256.5 -114.5t-148.5 -357.5z" />
<glyph unicode="1" horiz-adv-x="1392" d="M745 1092l-295 -160q-15 -7 -30 -4t-21 15l-65 133q-8 14 -1.5 31t22.5 26l436 244q41 23 99 23h204q16 0 25 -11t6 -27l-257 -1323q-3 -16 -16.5 -27.5t-29.5 -11.5h-250q-16 0 -25.5 11.5t-6.5 27.5z" />
<glyph unicode="2" horiz-adv-x="1392" d="M354 1112q-21 -8 -35.5 1.5t-11.5 31.5l19 156q5 39 41 52q203 71 426 71q271 0 404.5 -108t93.5 -314q-27 -140 -109 -248.5t-242 -231.5q-167 -131 -419 -274h591q16 0 25 -11.5t6 -27.5l-33 -170q-3 -16 -16.5 -27.5t-29.5 -11.5h-1008q-16 0 -25.5 11.5t-6.5 27.5 l31 158q7 38 43 58q318 186 549 363q150 115 221.5 200t90.5 184q18 90 -49 132t-217 42q-181 0 -339 -64z" />
<glyph unicode="3" horiz-adv-x="1392" d="M69 30q-12 3 -19 15t-3 25l54 185q6 20 27.5 28t40.5 0q138 -55 336 -55q171 0 257.5 35.5t103.5 122.5q21 112 -96 163.5t-375 54.5q-16 0 -24.5 11t-5.5 28l34 170q3 16 15.5 27.5t28.5 11.5q252 2 379.5 46.5t145.5 137.5q14 74 -49 105t-219 31q-186 0 -345 -54 q-20 -7 -34.5 2.5t-12.5 29.5l15 167q4 30 34 41q193 66 440 66q282 0 411.5 -98t96.5 -264q-25 -131 -109.5 -213.5t-213.5 -118.5q123 -37 182 -125.5t34 -218.5q-37 -191 -220 -300.5t-488 -109.5q-239 0 -421 54z" />
<glyph unicode="4" horiz-adv-x="1392" d="M16 311l33 170q10 50 54 91l830 800q29 28 67 28h271q16 0 25 -11t6 -27l-163 -840h153q16 0 25 -11.5t6 -27.5l-33 -172q-3 -16 -16.5 -27.5t-30.5 -11.5h-153l-45 -233q-3 -16 -16.5 -27.5t-29.5 -11.5h-250q-16 0 -25.5 11.5t-6.5 27.5l45 233h-715q-16 0 -25 11.5 t-6 27.5zM911 1036l-531 -514h431z" />
<glyph unicode="5" horiz-adv-x="1392" d="M484 228q188 0 285.5 57t120.5 173q20 102 -59 149t-259 47q-166 0 -299 -34q-20 -5 -32 7t-8 32l136 703q3 16 17 27t30 11h900q16 0 25 -11t6 -27l-33 -171q-3 -16 -17 -27.5t-30 -11.5h-625l-54 -278q101 22 183 22q249 0 369.5 -117t78.5 -335q-42 -214 -231.5 -341 t-504.5 -127q-236 0 -391 52q-11 4 -17 15.5t-2 24.5l51 179q6 20 23.5 30t34.5 3q122 -52 302 -52z" />
<glyph unicode="6" horiz-adv-x="1392" d="M673 228q116 0 193.5 58.5t98.5 167.5q22 114 -30.5 173t-178.5 59q-185 0 -317 -98q-53 -360 234 -360zM1246 1124q-113 48 -276 48q-193 0 -307 -77t-170 -257q166 94 373 94q234 0 354.5 -126.5t77.5 -347.5q-42 -217 -225 -349.5t-443 -132.5q-143 0 -251 41 t-179.5 127t-92 217t11.5 311q74 379 300 565.5t586 186.5q189 0 327 -48q12 -4 19.5 -16t3.5 -26l-51 -177q-5 -20 -23 -30t-35 -3z" />
<glyph unicode="7" horiz-adv-x="1392" d="M1384 1362l-33 -170q-7 -42 -36 -81l-766 -1084q-19 -27 -48 -27h-264q-24 0 -31 18t7 38l780 1096h-710q-16 0 -24.5 11.5t-5.5 27.5l33 171q3 16 16.5 27t29.5 11h1022q16 0 24.5 -11t5.5 -27z" />
<glyph unicode="8" horiz-adv-x="1392" d="M590 -24q-294 0 -436.5 112t-105.5 300q23 119 119.5 212.5t249.5 141.5q-109 56 -150.5 132.5t-21.5 179.5q34 174 200 272t426 98q252 0 383.5 -99t98.5 -271q-19 -99 -96 -177.5t-201 -128.5q143 -67 201.5 -153t34.5 -207q-37 -188 -221.5 -300t-480.5 -112zM688 636 q-277 -85 -309 -252q-14 -72 49.5 -116t209.5 -44q136 0 222 45.5t99 114.5q14 75 -46 135.5t-225 116.5zM793 838q104 38 169.5 93.5t77.5 116.5q12 60 -46 100t-169 40q-113 0 -185 -38.5t-84 -101.5q-12 -62 39.5 -109t197.5 -101z" />
<glyph unicode="9" horiz-adv-x="1392" d="M786 1172q-116 0 -193.5 -58.5t-98.5 -167.5q-22 -114 30.5 -173t178.5 -59q185 0 317 98q53 360 -234 360zM213 276q113 -48 276 -48q193 0 307 77t170 257q-166 -94 -373 -94q-234 0 -354 126.5t-77 347.5q42 217 224.5 349.5t442.5 132.5q143 0 251 -41t179.5 -127 t92 -217t-11.5 -311q-74 -379 -300 -565.5t-586 -186.5q-189 0 -327 48q-12 4 -19.5 16t-3.5 26l51 177q5 20 23 30t35 3z" />
<glyph unicode=":" horiz-adv-x="696" d="M99 138q31 162 206 162q173 0 142 -162t-205 -162t-143 162zM247 898q31 162 206 162q173 0 142 -162t-205 -162t-143 162z" />
<glyph unicode=";" horiz-adv-x="696" d="M238 898q32 162 206 162t142 -162t-205 -162q-175 0 -143 162zM102 -292q-14 -7 -26.5 -3t-18.5 16l-22 47q-6 13 -0.5 29t18.5 24q101 63 139 159q-129 18 -102 158q32 162 206 162q87 0 122 -41.5t19 -128.5q-28 -142 -115.5 -251t-219.5 -171z" />
<glyph unicode="&#x3c;" horiz-adv-x="1320" d="M140 563v198q0 11 8 22t18 14l1021 366q20 7 36.5 -4t16.5 -32v-159q0 -30 -28 -40l-778 -266l778 -266q28 -10 28 -40v-159q0 -21 -16.5 -32t-36.5 -4l-1021 366q-10 3 -18 14t-8 22z" />
<glyph unicode="=" horiz-adv-x="1320" d="M1201 778h-1022q-17 0 -28 11t-11 28v144q0 16 11.5 27.5t27.5 11.5h1022q16 0 27.5 -11.5t11.5 -27.5v-144q0 -16 -11.5 -27.5t-27.5 -11.5zM1201 326h-1022q-16 0 -27.5 11t-11.5 27v145q0 16 11.5 27.5t27.5 11.5h1022q16 0 27.5 -11.5t11.5 -27.5v-145 q0 -16 -11.5 -27t-27.5 -11z" />
<glyph unicode="&#x3e;" horiz-adv-x="1320" d="M1240 761v-198q0 -11 -8 -22t-18 -14l-1021 -366q-20 -7 -36.5 4t-16.5 32v159q0 30 28 40l778 266l-778 266q-28 10 -28 40v159q0 21 16.5 32t36.5 4l1021 -366q10 -3 18 -14t8 -22z" />
<glyph unicode="?" horiz-adv-x="1248" d="M274 132q31 156 214 156q185 0 154 -156t-214 -156q-185 0 -154 156zM357 424l5 28q27 136 97.5 230t202.5 160q119 60 166 105t59 105q11 60 -52.5 90t-212.5 30q-183 0 -350 -62q-21 -8 -35 2t-11 31l18 169q1 10 10 21t20 16q87 36 203.5 55.5t229.5 19.5 q292 0 420 -93t94 -269q-44 -224 -351 -384q-87 -46 -132.5 -101.5t-60.5 -132.5l-4 -20q-3 -16 -16.5 -27t-29.5 -11h-238q-16 0 -25.5 11t-6.5 27z" />
<glyph unicode="@" horiz-adv-x="1932" d="M832 314q147 0 252 106l128 326q-32 54 -132 54q-114 0 -221.5 -99.5t-133.5 -234.5q-14 -74 16 -113t91 -39zM1368 -182q-275 -142 -552 -142q-186 0 -338.5 65.5t-250 179.5t-135 277.5t-1.5 351.5q49 248 204.5 449t376 313t459.5 112q150 0 279 -39.5t223.5 -112.5 t156.5 -176.5t78.5 -231t-9.5 -276.5q-44 -223 -175 -358.5t-319 -135.5q-89 0 -149 36.5t-82 105.5q-155 -132 -371 -132q-163 0 -245.5 98t-52.5 254q30 154 135 283t245.5 200t281.5 71q234 0 327 -162q27 -46 6 -102l-133 -342q-13 -70 11.5 -109t79.5 -39q77 0 145 94 t96 238q36 187 -20.5 336t-198 234.5t-344.5 85.5q-187 0 -358 -91.5t-289 -251t-156 -351.5q-38 -197 22 -356t201.5 -248.5t338.5 -89.5q240 0 458 123q18 10 34 5t20 -21l26 -94q4 -13 -3.5 -28t-21.5 -23z" />
<glyph unicode="A" horiz-adv-x="1612" d="M1070 310h-642l-167 -285q-5 -10 -17.5 -17.5t-22.5 -7.5h-273q-22 0 -29 16.5t6 38.5l816 1320q16 25 44 25h352q28 0 34 -25l302 -1320q5 -22 -8 -38.5t-35 -16.5h-273q-10 0 -20 7.5t-12 17.5zM571 558h452l-113 580z" />
<glyph unicode="B" horiz-adv-x="1490" d="M715 0h-628q-17 0 -26.5 12t-6.5 28l257 1320q3 16 17 28t31 12h598q268 0 394 -101.5t93 -274.5q-19 -97 -80.5 -168.5t-154.5 -111.5q115 -38 165.5 -126.5t28.5 -201.5q-39 -203 -214.5 -309.5t-473.5 -106.5zM868 1160h-268l-62 -318h268q270 0 302 162 q16 82 -43 119t-197 37zM492 602l-71 -362h300q167 0 249 42.5t100 137.5q19 95 -46 138.5t-232 43.5h-300z" />
<glyph unicode="C" horiz-adv-x="1448" d="M1238 27q-169 -51 -399 -51q-409 0 -599 193t-124 531q64 334 329.5 529t668.5 195q224 0 374 -51q18 -6 27.5 -20t4.5 -32l-46 -163q-6 -22 -25.5 -30.5t-38.5 -2.5q-136 47 -307 47q-273 0 -442.5 -125t-212.5 -347q-45 -228 80.5 -350t399.5 -122q170 0 328 52 q21 7 37 -2t14 -31l-17 -168q-2 -18 -17.5 -32t-34.5 -20z" />
<glyph unicode="D" horiz-adv-x="1608" d="M553 0h-467q-16 0 -25.5 12t-6.5 28l257 1320q3 16 17 28t30 12h467q196 0 347 -44.5t249.5 -131t135.5 -220t4 -304.5q-34 -172 -122.5 -305.5t-221 -219.5t-300.5 -130.5t-364 -44.5zM1229 700q46 237 -73.5 344.5t-405.5 107.5h-152l-175 -904h152q287 0 447.5 107 t206.5 345z" />
<glyph unicode="E" horiz-adv-x="1340" d="M54 40l257 1320q3 16 17 28t30 12h1015q16 0 25.5 -11.5t6.5 -28.5l-33 -169q-3 -16 -17.5 -27.5t-30.5 -11.5h-726l-60 -310h676q17 0 26.5 -12t5.5 -28l-32 -168q-4 -17 -18 -28.5t-30 -11.5h-676l-67 -346h742q16 0 25.5 -11.5t6.5 -27.5l-33 -169q-3 -17 -17 -28.5 t-30 -11.5h-1031q-16 0 -25.5 12t-6.5 28z" />
<glyph unicode="F" horiz-adv-x="1288" d="M335 0h-249q-16 0 -25.5 12t-6.5 28l257 1320q3 16 17 28t30 12h1015q16 0 25.5 -11.5t6.5 -28.5l-33 -169q-3 -16 -17.5 -27.5t-30.5 -11.5h-726l-60 -310h676q17 0 26.5 -12t5.5 -28l-32 -168q-4 -17 -18 -28.5t-30 -11.5h-676l-108 -554q-3 -17 -17 -28.5t-30 -11.5z " />
<glyph unicode="G" horiz-adv-x="1670" d="M1549 1101q-172 69 -401 69q-294 0 -476 -123t-225 -347q-45 -231 89.5 -350.5t424.5 -119.5q141 0 236 28l58 300h-355q-16 0 -25.5 12t-5.5 28l32 168q4 17 17.5 28.5t29.5 11.5h607q17 0 26.5 -12t5.5 -28l-128 -660q-9 -47 -55 -60q-241 -70 -504 -70 q-215 0 -379.5 52t-263.5 147t-136.5 229t-5.5 296q30 156 114.5 288t215 229t313 152t397.5 55q271 0 473 -66q42 -14 30 -52l-50 -172q-6 -20 -24 -30t-35 -3z" />
<glyph unicode="H" horiz-adv-x="1664" d="M54 40l257 1320q3 16 17 28t30 12h249q16 0 25.5 -11.5t6.5 -28.5l-96 -492h708l96 492q3 16 17 28t31 12h248q16 0 25.5 -11.5t6.5 -28.5l-257 -1320q-3 -17 -17 -28.5t-30 -11.5h-248q-17 0 -26.5 12t-6.5 28l113 580h-708l-113 -580q-3 -17 -17 -28.5t-30 -11.5h-249 q-16 0 -25.5 12t-6.5 28z" />
<glyph unicode="I" horiz-adv-x="648" d="M369 1400h248q16 0 25.5 -11.5t6.5 -28.5l-257 -1320q-3 -17 -17 -28.5t-30 -11.5h-248q-17 0 -26.5 12t-6.5 28l257 1320q3 16 17 28t31 12z" />
<glyph unicode="J" horiz-adv-x="1108" d="M620 496l168 864q3 16 17 28t31 12h248q16 0 25.5 -11.5t6.5 -28.5l-170 -872q-99 -512 -661 -512q-186 0 -327 48q-18 6 -26 21.5t-3 35.5l48 169q6 21 24.5 30.5t37.5 1.5q106 -50 262 -50q135 0 213 61t106 203z" />
<glyph unicode="K" horiz-adv-x="1530" d="M1012 32l-504 657l-126 -649q-3 -17 -17 -28.5t-30 -11.5h-248q-17 0 -26.5 12t-6.5 28l257 1320q3 16 17 28t31 12h248q16 0 25.5 -11.5t6.5 -28.5l-110 -563l662 567q40 36 88 36h254q27 0 32.5 -24t-17.5 -43l-688 -589l536 -675q16 -20 1.5 -44.5t-42.5 -24.5h-270 q-48 0 -73 32z" />
<glyph unicode="L" horiz-adv-x="1338" d="M54 40l257 1320q3 16 17 28t31 12h248q16 0 25.5 -11.5t6.5 -28.5l-216 -1112h790q16 0 25.5 -11.5t6.5 -27.5l-33 -169q-3 -17 -17 -28.5t-30 -11.5h-1078q-17 0 -26.5 12t-6.5 28z" />
<glyph unicode="M" horiz-adv-x="2024" d="M1065 436h-144q-42 0 -59 33l-300 545l-190 -974q-3 -16 -16.5 -28t-29.5 -12h-239q-17 0 -26.5 12t-6.5 28l257 1320q3 16 17 28t31 12h283q65 0 92 -51l322 -591l552 591q46 51 112 51h283q16 0 25.5 -11.5t6.5 -28.5l-257 -1320q-3 -17 -17 -28.5t-30 -11.5h-239 q-16 0 -25.5 12t-6.5 28l190 974l-512 -545q-32 -33 -73 -33z" />
<glyph unicode="N" horiz-adv-x="1680" d="M1005 47l-445 961l-188 -968q-3 -17 -17 -28.5t-30 -11.5h-238q-17 0 -26.5 12t-6.5 28l257 1320q3 16 17 28t31 12h300q61 0 81 -47l445 -961l188 968q3 16 17 28t31 12h238q16 0 25.5 -11.5t6.5 -28.5l-257 -1320q-3 -17 -17 -28.5t-30 -11.5h-300q-29 0 -51 13t-31 34 z" />
<glyph unicode="O" horiz-adv-x="1704" d="M1660 700q-30 -154 -107 -286t-192 -229.5t-273 -153t-341 -55.5q-122 0 -225 25t-177.5 71.5t-129.5 112t-81.5 146t-33 174t15.5 195.5q30 154 106.5 286t191.5 229.5t273 153t341 55.5q122 0 225 -25t178 -71.5t129.5 -112t81.5 -146t33.5 -174t-15.5 -195.5zM448 700 q-44 -226 47 -349t301 -123t349 123t183 349q43 226 -48 349t-301 123t-349 -123t-182 -349z" />
<glyph unicode="P" horiz-adv-x="1420" d="M359 1400h532q300 0 445.5 -120t101.5 -344q-43 -223 -235.5 -343.5t-492.5 -120.5h-244l-84 -432q-3 -17 -17 -28.5t-30 -11.5h-248q-17 0 -26.5 12t-6.5 28l257 1320q3 16 17 28t31 12zM598 1148l-83 -424h212q174 0 265 48t114 164t-49.5 164t-246.5 48h-212z" />
<glyph unicode="Q" horiz-adv-x="1704" d="M1660 700q-54 -274 -245.5 -466t-481.5 -242q0 -31 17.5 -52.5t52 -32t73.5 -15t91 -4.5q99 0 183 16q18 3 30 -7t10 -27l-8 -138q-1 -16 -12.5 -28.5t-28.5 -15.5q-115 -20 -244 -20q-445 0 -463 314q-204 22 -335 121.5t-175.5 252.5t-7.5 344q30 154 106.5 286 t191.5 229.5t273 153t341 55.5q122 0 225 -25t178 -71.5t129.5 -112t81.5 -146t33.5 -174t-15.5 -195.5zM448 700q-44 -226 47 -349t301 -123t349 123t183 349q43 226 -48 349t-301 123t-349 -123t-182 -349z" />
<glyph unicode="R" horiz-adv-x="1516" d="M1455 960q-27 -139 -123 -240.5t-258 -154.5l290 -501q11 -21 -3.5 -42.5t-39.5 -21.5h-211q-45 0 -71.5 14t-45.5 47l-247 459h-270l-94 -480q-3 -16 -16.5 -28t-29.5 -12h-250q-16 0 -25.5 12t-6.5 28l257 1320q3 16 17 28t30 12h560q136 0 243.5 -27.5t181 -80.5 t103.5 -138t9 -194zM1123 960q18 96 -52 142t-227 46h-246l-73 -376h246q316 0 352 188z" />
<glyph unicode="S" horiz-adv-x="1304" d="M28 45q-11 5 -16.5 17.5t-1.5 25.5l52 177q6 21 24.5 31t35.5 2q154 -72 407 -72q164 0 240.5 37.5t91.5 112.5q13 70 -49.5 117t-248.5 99q-232 65 -320.5 169t-56.5 269q37 191 206.5 292.5t465.5 101.5q240 0 418 -55q14 -4 20.5 -17t1.5 -26l-48 -171 q-5 -20 -22 -29.5t-35 -4.5q-155 49 -356 49q-163 0 -233.5 -32t-83.5 -96q-13 -66 46.5 -111t229.5 -97q249 -76 340 -178.5t59 -265.5q-40 -208 -210 -311t-502 -103q-261 0 -455 69z" />
<glyph unicode="T" horiz-adv-x="1336" d="M406 40l216 1110h-444q-16 0 -25.5 11.5t-6.5 28.5l33 170q3 16 17 28t31 12h1216q16 0 25.5 -11.5t6.5 -28.5l-33 -170q-3 -16 -17 -28t-31 -12h-444l-216 -1110q-3 -17 -17 -28.5t-30 -11.5h-248q-17 0 -26.5 12t-6.5 28z" />
<glyph unicode="U" horiz-adv-x="1692" d="M741 -24q-156 0 -275.5 36.5t-198.5 107.5t-107.5 183.5t-0.5 258.5l155 798q3 16 17 28t31 12h249q16 0 25 -12t6 -28l-153 -785q-34 -173 38 -260t263 -87t296 87t139 260l153 785q3 16 17 28t30 12h249q16 0 25.5 -11.5t6.5 -28.5l-155 -798q-28 -146 -100.5 -258.5 t-179 -183.5t-240.5 -107.5t-290 -36.5z" />
<glyph unicode="V" horiz-adv-x="1664" d="M871 0h-292q-58 0 -71 51l-296 1294q-4 22 10.5 38.5t37.5 16.5h238q57 0 65 -47l212 -1091l636 1091q29 47 85 47h238q23 0 31 -16.5t-5 -38.5l-800 -1294q-32 -51 -89 -51z" />
<glyph unicode="W" horiz-adv-x="2388" d="M1202 1400h322q40 0 43 -40l63 -1044l534 1043q21 41 71 41h232q21 0 29.5 -17.5t-2.5 -37.5l-693 -1299q-24 -46 -74 -46h-326q-23 0 -36.5 14.5t-15.5 40.5l-53 1001l-443 -1001q-23 -55 -72 -55h-326q-51 0 -58 46l-187 1299q-3 20 12 37.5t37 17.5h232q50 0 55 -41 l128 -1043l469 1044q18 40 59 40z" />
<glyph unicode="X" horiz-adv-x="1636" d="M775 494l-477 -458q-36 -36 -88 -36h-240q-26 0 -32.5 23t14.5 43l676 646l-408 622q-13 20 2 43t41 23h240q51 0 75 -36l281 -434l451 434q36 36 89 36h240q26 0 32 -23t-15 -43l-650 -622l424 -646q13 -20 -1.5 -43t-40.5 -23h-240q-52 0 -76 36z" />
<glyph unicode="Y" horiz-adv-x="1664" d="M838 0h-250q-16 0 -25.5 11.5t-6.5 28.5l99 510l-434 787q-11 21 4 42t41 21h237q56 0 77 -42l291 -544l501 544q40 42 95 42h237q26 0 32.5 -21t-13.5 -42l-740 -787l-99 -510q-3 -17 -16.5 -28.5t-29.5 -11.5z" />
<glyph unicode="Z" horiz-adv-x="1344" d="M39 285l939 867h-726q-16 0 -25.5 11.5t-6.5 27.5l33 169q3 16 17 28t31 12h1092q16 0 25.5 -11.5t6.5 -28.5l-34 -175q-7 -37 -54 -79l-930 -858h786q16 0 25.5 -11.5t6.5 -27.5l-33 -169q-3 -17 -17 -28.5t-30 -11.5h-1152q-17 0 -26.5 12t-6.5 28l30 151q10 58 49 94z " />
<glyph unicode="[" horiz-adv-x="918" d="M83 -221l326 1682q4 17 17 28t29 11h571q17 0 26 -11.5t5 -27.5l-28 -144q-3 -16 -16.5 -27.5t-29.5 -11.5h-321l-256 -1318h321q16 0 25 -11t6 -27l-27 -143q-4 -16 -17.5 -27.5t-29.5 -11.5h-571q-16 0 -25 11.5t-5 27.5z" />
<glyph unicode="\" horiz-adv-x="1270" d="M829 -191l-653 1628q-9 21 5 40t39 19h199q33 0 44 -30l654 -1627q9 -21 -5 -40t-39 -19h-199q-32 0 -45 29z" />
<glyph unicode="]" horiz-adv-x="918" d="M868 1461l-326 -1682q-4 -16 -17 -27.5t-29 -11.5h-571q-16 0 -25 11.5t-5 27.5l26 143q3 16 17 27t30 11h321l256 1318h-321q-16 0 -25.5 11.5t-6.5 27.5l28 144q4 17 17.5 28t29.5 11h571q16 0 25 -11.5t5 -27.5z" />
<glyph unicode="^" horiz-adv-x="1320" d="M544 1400h250q21 0 32 -17l378 -585q14 -21 3.5 -40.5t-35.5 -19.5h-205q-27 0 -42 22l-256 406l-256 -406q-15 -22 -42 -22h-205q-25 0 -35.5 19.5t3.5 40.5l378 585q11 17 32 17z" />
<glyph unicode="_" horiz-adv-x="1000" d="M-162 -302l11 59q3 16 17 27.5t30 11.5h921q16 0 25 -11.5t6 -27.5l-11 -59q-3 -16 -17 -27t-30 -11h-921q-16 0 -25 11t-6 27z" />
<glyph unicode="`" horiz-adv-x="1008" d="M815 1120h-143q-31 0 -49 18l-249 250q-18 18 -7 45t39 27h237q29 0 44 -21l171 -254q13 -20 -2 -42.5t-41 -22.5z" />
<glyph unicode="a" d="M1022 950l10 49q3 15 15.5 26t28.5 11h240q15 0 24 -11t6 -26l-187 -962q-3 -15 -16 -26t-28 -11h-240q-16 0 -24.5 11t-5.5 26l9 49q-158 -110 -363 -110q-113 0 -202.5 37t-146 107t-77 170.5t4.5 227.5q49 249 225 395.5t407 146.5q205 0 320 -110zM892 280l92 476 q-78 86 -227 86q-144 0 -240.5 -80.5t-128.5 -243.5q-31 -163 34 -243.5t209 -80.5q149 0 261 86z" />
<glyph unicode="b" d="M357 86l-9 -47q-3 -16 -16 -27.5t-29 -11.5h-237q-16 0 -25.5 11.5t-6.5 27.5l269 1382q3 16 16.5 27.5t29.5 11.5h237q16 0 25 -11.5t6 -27.5l-92 -471q158 110 364 110q113 0 202.5 -37t145.5 -107t76.5 -170.5t-4.5 -227.5q-49 -249 -224.5 -395.5t-406.5 -146.5 q-206 0 -321 110zM487 756l-92 -476q79 -86 227 -86q144 0 241 80.5t128 243.5q32 163 -33.5 243.5t-209.5 80.5q-147 0 -261 -86z" />
<glyph unicode="c" horiz-adv-x="1168" d="M982 228q20 6 34 -4t13 -29l-12 -125q-3 -40 -52 -54q-142 -40 -306 -40q-324 0 -481 144.5t-108 397.5q49 251 257.5 396.5t518.5 145.5q161 0 302 -41q44 -14 31 -53l-36 -125q-6 -19 -23.5 -29t-34.5 -4q-94 34 -246 34q-182 0 -301.5 -84.5t-149.5 -239.5 q-31 -157 60 -240.5t287 -83.5q142 0 247 34z" />
<glyph unicode="d" d="M845 39l9 47q-158 -110 -363 -110q-113 0 -202.5 37t-146 107t-77 170.5t4.5 227.5q49 249 225 395.5t407 146.5q205 0 320 -110l92 471q3 16 16 27.5t29 11.5h237q16 0 25.5 -11.5t6.5 -27.5l-269 -1382q-3 -16 -16.5 -27.5t-29.5 -11.5h-237q-16 0 -25 11.5t-6 27.5z M892 280l92 476q-78 86 -227 86q-144 0 -240.5 -80.5t-128.5 -243.5q-31 -163 34 -243.5t209 -80.5q149 0 261 86z" />
<glyph unicode="e" horiz-adv-x="1292" d="M993 27q-162 -51 -367 -51q-318 0 -462.5 143.5t-95.5 394.5q49 249 245.5 397.5t499.5 148.5q231 0 360 -89t101 -231q-63 -330 -738 -330h-166q-1 -117 82 -166.5t242 -49.5q169 0 312 48q18 6 31.5 -3t11.5 -27l-11 -133q-3 -39 -45 -52zM412 624h124q222 0 314.5 25 t105.5 91q9 47 -36 74.5t-138 27.5q-274 0 -370 -218z" />
<glyph unicode="f" horiz-adv-x="890" d="M83 861l26 136q3 16 17 27.5t30 11.5h187l9 49q36 184 167 279.5t352 95.5q102 0 181 -15q16 -3 23 -15t2 -28l-44 -135q-5 -16 -20 -25.5t-32 -7.5q-50 8 -92 8q-101 0 -153.5 -37t-70.5 -129l-8 -40h281q16 0 25 -11.5t6 -27.5l-26 -136q-3 -16 -17 -27.5t-30 -11.5 h-281l-227 -1169q-3 -16 -17 -27.5t-30 -11.5h-236q-16 0 -25 11.5t-6 27.5l227 1169h-187q-16 0 -25 11.5t-6 27.5z" />
<glyph unicode="g" d="M82 -347q-40 14 -28 56l36 134q5 21 23.5 30.5t36.5 1.5q129 -57 312 -57q168 0 264 52t120 176l13 64q-150 -110 -363 -110q-113 0 -202.5 36t-146.5 104t-77.5 166.5t3.5 223.5q47 245 222 387.5t407 142.5q212 0 320 -110l9 47q3 16 16.5 27.5t29.5 11.5h237 q16 0 25 -11.5t6 -27.5l-174 -899q-51 -264 -221 -381t-508 -117q-209 0 -360 53zM897 304l87 452q-78 86 -227 86q-144 0 -240 -78t-126 -234q-31 -156 35 -234t210 -78q147 0 261 86z" />
<glyph unicode="h" horiz-adv-x="1394" d="M1282 574l-104 -535q-3 -16 -16.5 -27.5t-29.5 -11.5h-237q-16 0 -25 11.5t-6 27.5l102 525q29 146 -22 212t-184 66q-75 0 -148 -23.5t-125 -64.5l-139 -715q-3 -16 -16.5 -27.5t-29.5 -11.5h-236q-16 0 -25.5 11.5t-6.5 27.5l269 1382q3 16 16.5 27.5t29.5 11.5h236 q16 0 25.5 -11.5t6.5 -27.5l-92 -471q154 110 360 110q237 0 340.5 -123.5t56.5 -362.5z" />
<glyph unicode="i" horiz-adv-x="596" d="M44 39l186 958q3 16 17 27.5t30 11.5h238q16 0 25 -11.5t6 -27.5l-186 -958q-3 -16 -16.5 -27.5t-29.5 -11.5h-238q-16 0 -25.5 11.5t-6.5 27.5zM270 1314q29 146 208 146q92 0 129 -36.5t23 -109.5q-29 -146 -208 -146q-92 0 -129 36.5t-23 109.5z" />
<glyph unicode="j" horiz-adv-x="670" d="M121 -1l194 998q3 16 17 27.5t30 11.5h238q16 0 25 -11.5t6 -27.5l-193 -992q-19 -97 -58 -170t-103.5 -126.5t-160 -81t-221.5 -27.5q-73 0 -148 12q-43 6 -31 47l41 133q6 18 22 28t33 6q40 -8 86 -8q97 0 151 43.5t72 137.5zM355 1314q29 146 208 146q92 0 129 -36.5 t23 -109.5q-29 -146 -208 -146q-92 0 -129 36.5t-23 109.5z" />
<glyph unicode="k" horiz-adv-x="1294" d="M1039 1036h218q28 0 33 -24t-19 -43l-491 -395l364 -509q14 -20 0 -42.5t-41 -22.5h-230q-71 0 -111 59l-318 471l-96 -491q-3 -16 -16.5 -27.5t-29.5 -11.5h-236q-16 0 -25.5 11.5t-6.5 27.5l269 1382q3 16 16.5 27.5t29.5 11.5h236q16 0 25.5 -11.5t6.5 -27.5 l-157 -804l451 372q56 47 128 47z" />
<glyph unicode="l" horiz-adv-x="596" d="M44 39l269 1382q3 16 16.5 27.5t29.5 11.5h238q16 0 25.5 -11.5t6.5 -27.5l-269 -1382q-3 -16 -16.5 -27.5t-29.5 -11.5h-238q-16 0 -25.5 11.5t-6.5 27.5z" />
<glyph unicode="m" horiz-adv-x="2116" d="M2008 592l-108 -553q-3 -16 -16.5 -27.5t-29.5 -11.5h-236q-16 0 -25.5 11.5t-6.5 27.5l110 565q24 124 -20 181t-152 57q-153 0 -279 -100q2 -71 -13 -150l-108 -553q-3 -16 -16.5 -27.5t-29.5 -11.5h-236q-16 0 -25.5 11.5t-6.5 27.5l110 565q24 125 -19.5 181.5 t-152.5 56.5q-72 0 -142.5 -25.5t-118.5 -62.5l-139 -715q-3 -16 -16.5 -27.5t-29.5 -11.5h-236q-16 0 -25.5 11.5t-6.5 27.5l186 958q3 16 17 27.5t30 11.5h236q16 0 25 -11.5t6 -27.5l-9 -47q156 110 348 110q236 0 327 -148q90 68 206 108t231 40q219 0 317 -119t54 -349 z" />
<glyph unicode="n" horiz-adv-x="1394" d="M1282 574l-104 -535q-3 -16 -16.5 -27.5t-29.5 -11.5h-237q-16 0 -25 11.5t-6 27.5l102 525q29 146 -22 212t-184 66q-75 0 -148 -23.5t-125 -64.5l-139 -715q-3 -16 -16.5 -27.5t-29.5 -11.5h-236q-16 0 -25.5 11.5t-6.5 27.5l186 958q3 16 17 27.5t30 11.5h236 q16 0 25 -11.5t6 -27.5l-9 -47q154 110 360 110q237 0 340.5 -123.5t56.5 -362.5z" />
<glyph unicode="o" horiz-adv-x="1380" d="M1309 518q-46 -238 -245.5 -390t-479.5 -152t-420.5 152t-94.5 390t246 390t480 152t420 -151.5t94 -390.5zM387 518q-30 -156 33.5 -240t205.5 -84t238.5 84t126.5 240t-33.5 240t-205.5 84t-238.5 -84t-126.5 -240z" />
<glyph unicode="p" d="M533 997l-9 -47q158 110 364 110q113 0 202.5 -37t145.5 -107t76.5 -170.5t-4.5 -227.5q-49 -249 -224.5 -395.5t-406.5 -146.5q-206 0 -321 110l-84 -433q-3 -16 -16.5 -27.5t-29.5 -11.5h-237q-16 0 -25 11.5t-6 27.5l261 1344q3 16 17 27.5t30 11.5h237 q16 0 24.5 -11.5t5.5 -27.5zM486 756l-92 -476q79 -86 227 -86q144 0 241 80.5t128 243.5q32 163 -33.5 243.5t-209.5 80.5q-147 0 -261 -86z" />
<glyph unicode="q" d="M1022 950l9 47q3 16 16.5 27.5t29.5 11.5h237q16 0 25 -11.5t6 -27.5l-261 -1344q-3 -16 -17 -27.5t-30 -11.5h-237q-16 0 -24.5 11.5t-5.5 27.5l84 433q-158 -110 -363 -110q-113 0 -202.5 37t-146 107t-77 170.5t4.5 227.5q49 249 225 395.5t407 146.5q205 0 320 -110z M892 280l92 476q-78 86 -227 86q-144 0 -240.5 -80.5t-128.5 -243.5q-31 -163 34 -243.5t209 -80.5q149 0 261 86z" />
<glyph unicode="r" horiz-adv-x="932" d="M898 818q-51 12 -112 12q-104 0 -186.5 -45t-129.5 -119l-122 -627q-3 -16 -16.5 -27.5t-29.5 -11.5h-237q-16 0 -25 11.5t-6 27.5l186 958q3 16 16.5 27.5t29.5 11.5h237q16 0 25 -11.5t6 -27.5l-15 -81q64 65 153.5 104.5t188.5 39.5q72 0 128 -14q14 -3 20.5 -16.5 t1.5 -27.5l-51 -154q-5 -17 -25 -26t-37 -4z" />
<glyph unicode="s" horiz-adv-x="1100" d="M12 42q-10 4 -15.5 15.5t-2.5 22.5l39 148q5 21 23 31t36 2q140 -67 330 -67q115 0 169 22t64 76q9 45 -38 74.5t-196 67.5q-174 45 -244.5 123t-47.5 195q59 308 552 308q197 0 356 -51q12 -4 19.5 -16t3.5 -24l-42 -139q-6 -20 -21 -30t-32 -4q-136 46 -291 46 q-116 0 -167 -20t-58 -58q-8 -43 38 -74.5t183 -65.5q192 -49 260.5 -125t45.5 -193q-65 -330 -570 -330q-236 0 -394 66z" />
<glyph unicode="t" horiz-adv-x="956" d="M207 422l77 400h-161q-16 0 -25 11.5t-6 27.5l26 136q3 16 17 27.5t30 11.5h161l53 271q3 16 16.5 27.5t29.5 11.5h236q16 0 25.5 -11.5t6.5 -27.5l-53 -271h317q16 0 25 -11.5t6 -27.5l-26 -136q-3 -16 -17 -27.5t-30 -11.5h-317l-78 -404q-11 -68 -11 -111.5 t21.5 -68.5t55 -34.5t90.5 -9.5q52 0 97 8q17 3 28.5 -6.5t9.5 -26.5l-9 -136q-1 -16 -12.5 -28.5t-27.5 -15.5q-74 -13 -170 -13q-176 0 -271 49.5t-119 148.5t5 248z" />
<glyph unicode="u" horiz-adv-x="1394" d="M108 462l104 535q3 16 17 27.5t30 11.5h237q16 0 24.5 -11.5t5.5 -27.5l-102 -525q-28 -146 22.5 -212t183.5 -66q75 0 148.5 23.5t124.5 64.5l139 715q3 16 17 27.5t30 11.5h236q16 0 25 -11.5t6 -27.5l-186 -958q-3 -16 -16.5 -27.5t-29.5 -11.5h-236q-16 0 -25.5 11.5 t-6.5 27.5l9 47q-152 -110 -359 -110q-237 0 -340.5 123.5t-57.5 362.5z" />
<glyph unicode="v" horiz-adv-x="1296" d="M685 0h-286q-25 0 -41.5 16.5t-22.5 41.5l-205 924q-4 21 10 37.5t37 16.5h228q22 0 36 -11.5t17 -28.5l134 -737l420 737q23 40 69 40h228q23 0 30.5 -16.5t-5.5 -37.5l-563 -924q-36 -58 -86 -58z" />
<glyph unicode="w" horiz-adv-x="1952" d="M956 1036h232q51 0 58 -62l68 -688l362 703q22 47 70 47h221q22 0 29.5 -17.5t-3.5 -37.5l-511 -930q-27 -51 -81 -51h-273q-26 0 -38 11.5t-14 38.5l-64 679l-328 -679q-13 -27 -29 -38.5t-41 -11.5h-273q-54 0 -63 51l-149 930q-4 20 11 37.5t37 17.5h221 q24 0 36.5 -11t15.5 -36l88 -703l336 688q29 62 82 62z" />
<glyph unicode="x" horiz-adv-x="1272" d="M560 324l-301 -290q-36 -34 -87 -34h-212q-26 0 -32.5 22t14.5 42l485 466l-289 442q-13 20 2 42t41 22h212q51 0 74 -34l174 -266l276 266q36 34 88 34h212q26 0 32.5 -22t-15.5 -42l-459 -442l303 -466q13 -20 -1.5 -42t-40.5 -22h-212q-52 0 -75 34z" />
<glyph unicode="y" horiz-adv-x="1344" d="M1122 1036h231q23 0 30.5 -17t-6.5 -38l-847 -1324q-26 -43 -70 -43h-230q-23 0 -31 17t5 38l209 331l-281 980q-6 21 8.5 38.5t37.5 17.5h225q41 0 49 -33l179 -681l428 681q21 33 63 33z" />
<glyph unicode="z" horiz-adv-x="1126" d="M-50 39l25 129q11 54 48 83l691 571h-541q-16 0 -25 11.5t-6 27.5l26 136q3 16 17 27.5t30 11.5h900q16 0 25 -11.5t6 -27.5l-27 -143q-8 -36 -54 -74l-684 -566h598q16 0 25.5 -11.5t6.5 -27.5l-27 -136q-3 -16 -16.5 -27.5t-29.5 -11.5h-956q-16 0 -25.5 11.5 t-6.5 27.5z" />
<glyph unicode="{" horiz-adv-x="922" d="M576 370l-64 -329q-8 -42 6 -60.5t54 -18.5h158q16 0 25.5 -11.5t6.5 -27.5l-28 -144q-4 -17 -17.5 -28t-29.5 -11h-235q-131 0 -196 64t-41 187l62 322q16 78 -15 131t-87 67q-12 3 -19 14.5t-5 23.5l28 142q2 13 13.5 24t24.5 14q61 14 112.5 66.5t66.5 130.5l63 323 q24 123 114 187t221 64h235q17 0 26 -11.5t5 -27.5l-28 -144q-3 -16 -16.5 -27.5t-29.5 -11.5h-158q-40 0 -61 -18.5t-29 -60.5l-64 -329q-20 -104 -78.5 -164.5t-164.5 -85.5q95 -25 130 -85.5t15 -164.5z" />
<glyph unicode="|" horiz-adv-x="634" d="M226 -361v1860q0 16 11.5 27.5t27.5 11.5h164q16 0 27.5 -11.5t11.5 -27.5v-1860q0 -16 -11.5 -27.5t-27.5 -11.5h-164q-16 0 -27.5 11.5t-11.5 27.5z" />
<glyph unicode="}" horiz-adv-x="920" d="M214 41l64 329q20 104 78.5 164.5t164.5 85.5q-95 25 -130 85.5t-15 164.5l64 329q8 42 -6 60.5t-54 18.5h-158q-16 0 -25.5 11.5t-6.5 27.5l28 144q4 17 17.5 28t29.5 11h235q131 0 196 -64t41 -187l-63 -323q-15 -78 16.5 -130.5t86.5 -66.5q12 -3 19 -14.5t5 -23.5 l-28 -142q-2 -13 -13.5 -24t-24.5 -14q-61 -14 -112.5 -67t-67.5 -131l-62 -322q-24 -123 -114 -187t-221 -64h-235q-16 0 -25 11t-5 28l27 144q3 16 16.5 27.5t29.5 11.5h158q40 0 61 18.5t29 60.5z" />
<glyph unicode="~" horiz-adv-x="1320" d="M692 536q-116 68 -194 68q-33 0 -58 -22t-33 -70q-2 -14 -14 -25t-26 -11h-186q-18 0 -29.5 14t-9.5 32q11 165 95.5 249.5t214.5 84.5q126 0 236 -64q116 -68 194 -68q33 0 58 22t33 70q2 14 14 25t26 11h186q18 0 29.5 -14t9.5 -32q-11 -165 -95.5 -249.5t-214.5 -84.5 q-126 0 -236 64z" />
<glyph unicode="&#xa1;" horiz-adv-x="712" d="M308 -364h-255q-16 0 -25 11t-6 27l63 325l172 612q5 14 18.5 24.5t27.5 10.5h148q15 0 24.5 -11t7.5 -25l-66 -612l-63 -324q-3 -16 -16.5 -27t-29.5 -11zM243 904q31 156 215 156t153 -156t-214 -156q-185 0 -154 156z" />
<glyph unicode="&#xa2;" horiz-adv-x="1168" d="M983 21q-121 -39 -284 -44l-28 -143q-3 -16 -16.5 -27t-29.5 -11h-64q-16 0 -25.5 11t-6.5 27l29 146q-275 23 -404 164t-84 374q46 234 231.5 377.5t465.5 161.5l28 145q3 16 17 27t30 11h64q16 0 25 -11t6 -27l-28 -144q138 -6 254 -44q11 -4 17 -16t2 -25l-39 -132 q-6 -19 -23.5 -29t-34.5 -4q-87 31 -218 34l-126 -648q142 0 241 34q20 7 34.5 -4t12.5 -31l-12 -131q-4 -30 -34 -41zM388 518q-25 -127 30.5 -206.5t183.5 -105.5l121 626q-135 -24 -222.5 -105t-112.5 -209z" />
<glyph unicode="&#xa3;" horiz-adv-x="1368" d="M395 248h829q16 0 25 -11.5t6 -27.5l-33 -170q-3 -16 -16.5 -27.5t-29.5 -11.5h-1180q-16 0 -25.5 11.5t-6.5 27.5l33 170q4 22 26 33q175 96 203 240l32 164h-137q-16 0 -25 11.5t-6 27.5l11 58q3 16 17 27.5t30 11.5h137l41 216q84 426 637 426q228 0 380 -63 q32 -15 24 -42l-46 -167q-5 -21 -23.5 -30.5t-36.5 -1.5q-104 52 -291 52q-153 0 -225.5 -43t-91.5 -141l-40 -206h409q16 0 25 -11.5t6 -27.5l-11 -58q-3 -16 -17 -27.5t-30 -11.5h-409l-26 -134q-34 -172 -165 -264z" />
<glyph unicode="&#xa4;" horiz-adv-x="1460" d="M504 664q0 -111 67 -184.5t175 -73.5t175 73.5t67 184.5t-67 184.5t-175 73.5t-175 -73.5t-67 -184.5zM1258 664q0 -139 -68 -252l113 -113q11 -10 11 -26.5t-11 -27.5l-121 -127q-11 -12 -27.5 -12.5t-27.5 11.5l-116 118q-131 -67 -265 -67t-265 67l-116 -118 q-11 -12 -27.5 -11.5t-27.5 12.5l-121 127q-11 11 -11 27t11 27l113 113q-68 113 -68 252t68 252l-113 113q-11 11 -11 27t11 27l121 127q11 12 27.5 12.5t27.5 -11.5l116 -118q131 67 265 67t265 -67l116 118q11 12 27.5 11.5t27.5 -12.5l121 -127q11 -11 11 -27t-11 -27 l-113 -113q68 -113 68 -252z" />
<glyph unicode="&#xa5;" horiz-adv-x="1524" d="M784 0h-250q-16 0 -25.5 11.5t-6.5 27.5l49 251h-407q-16 0 -25.5 11.5t-6.5 27.5l12 58q3 16 16.5 27.5t29.5 11.5h407l24 122h-407q-16 0 -25 11.5t-6 27.5l11 58q3 16 16.5 27.5t29.5 11.5h314l-307 656q-10 21 4.5 40.5t39.5 19.5h253q39 0 53 -31l240 -554l456 554 q23 31 65 31h253q25 0 31.5 -19.5t-11.5 -40.5l-563 -656h314q16 0 25.5 -11.5t6.5 -27.5l-11 -58q-3 -16 -17 -27.5t-30 -11.5h-407l-24 -122h407q16 0 25.5 -11.5t6.5 -27.5l-12 -58q-3 -16 -16.5 -27.5t-29.5 -11.5h-407l-49 -251q-3 -16 -16.5 -27.5t-29.5 -11.5z" />
<glyph unicode="&#xa6;" horiz-adv-x="634" d="M265 1382h164q16 0 27.5 -11.5t11.5 -27.5v-587q0 -16 -11.5 -27t-27.5 -11h-164q-16 0 -27.5 11t-11.5 27v587q0 16 11.5 27.5t27.5 11.5zM265 456h164q16 0 27.5 -11.5t11.5 -27.5v-587q0 -16 -11.5 -27t-27.5 -11h-164q-16 0 -27.5 11t-11.5 27v587q0 16 11.5 27.5 t27.5 11.5z" />
<glyph unicode="&#xa7;" horiz-adv-x="1238" d="M611 484q91 15 149.5 55t69.5 95q9 47 -33 84.5t-126 53.5q-92 -15 -150.5 -55t-69.5 -97q-9 -47 33 -83.5t127 -52.5zM123 87q144 -75 332 -75q230 0 252 112q9 49 -39.5 84.5t-185.5 67.5q-181 43 -267 125.5t-63 202.5q18 93 88 163t169 101q-95 34 -136 100.5 t-24 153.5q27 139 167 220.5t389 81.5q211 0 366 -61q34 -13 24 -43l-41 -130q-7 -21 -23.5 -30t-34.5 -2q-121 52 -300 52q-211 0 -229 -98q-9 -42 48.5 -75t192.5 -71q177 -51 257 -132t57 -200q-18 -90 -81.5 -157t-164.5 -101q88 -29 126.5 -97.5t22.5 -154.5 q-30 -152 -173 -238t-404 -86q-223 0 -392 68q-16 6 -25 21t-4 32l38 134q7 21 24 31t34 1z" />
<glyph unicode="&#xa8;" horiz-adv-x="1008" d="M257 1290q27 136 173 136t119 -136q-26 -136 -172 -136t-120 136zM757 1290q27 136 173 136t119 -136q-26 -136 -172 -136t-120 136z" />
<glyph unicode="&#xa9;" horiz-adv-x="1660" d="M136 700q0 197 97 363.5t263.5 263.5t363.5 97t363.5 -97t263.5 -263.5t97 -363.5t-97 -363.5t-263.5 -263.5t-363.5 -97t-363.5 97t-263.5 263.5t-97 363.5zM248 700q0 -169 82 -312t223 -225.5t307 -82.5t307 82.5t223 225.5t82 312t-82 312t-223 225.5t-307 82.5 t-307 -82.5t-223 -225.5t-82 -312zM932 436q-114 0 -179 68.5t-65 191.5q0 121 64.5 189.5t175.5 68.5q87 0 163 -35q19 -9 36 0t19 30l9 100q1 11 -6.5 22.5t-18.5 16.5q-110 42 -236 42q-199 0 -324.5 -118.5t-125.5 -315.5q0 -199 126.5 -316.5t329.5 -117.5 q130 0 230 38q11 5 18.5 16.5t6.5 22.5l-9 100q-2 21 -19 30t-36 0q-72 -33 -159 -33z" />
<glyph unicode="&#xaa;" horiz-adv-x="1052" d="M764 866l60 308q-21 31 -64.5 49.5t-96.5 18.5q-101 0 -168.5 -56.5t-88.5 -165.5t24.5 -165.5t146.5 -56.5q53 0 103.5 18.5t83.5 49.5zM855 1336l5 27q3 15 16.5 26t28.5 11h172q16 0 24 -11t5 -26l-133 -687q-3 -16 -15.5 -27t-28.5 -11h-172q-15 0 -24 11t-6 27l5 28 q-104 -80 -251 -80q-175 0 -267 105.5t-56 290.5t169 290.5t308 105.5q146 0 220 -80z" />
<glyph unicode="&#xab;" horiz-adv-x="1090" d="M139 577l17 90q6 27 29 44l422 332q13 10 29 13.5t26.5 -6.5t5.5 -34l-30 -152q-3 -23 -29 -43l-260 -199l183 -199q17 -20 12 -43l-29 -152q-5 -24 -19 -34t-28.5 -6.5t-23.5 13.5l-294 332q-17 18 -11 44zM545 577l17 90q6 27 29 44l422 332q13 10 29 13.5t26.5 -6.5 t5.5 -34l-30 -152q-3 -23 -29 -43l-260 -199l183 -199q17 -20 12 -43l-29 -152q-5 -24 -19 -34t-28.5 -6.5t-23.5 13.5l-294 332q-17 18 -11 44z" />
<glyph unicode="&#xac;" horiz-adv-x="1320" d="M130 719v148q0 16 11.5 27.5t27.5 11.5h1022q16 0 27.5 -11.5t11.5 -27.5v-517q0 -16 -11.5 -27t-27.5 -11h-198q-16 0 -27.5 11t-11.5 27v330h-785q-16 0 -27.5 11.5t-11.5 27.5z" />
<glyph unicode="&#xad;" horiz-adv-x="858" d="M710 540h-561q-16 0 -25 11.5t-6 27.5l33 168q3 16 16.5 27.5t29.5 11.5h561q16 0 25 -11.5t6 -27.5l-33 -168q-3 -16 -16.5 -27.5t-29.5 -11.5z" />
<glyph unicode="&#xae;" horiz-adv-x="1660" d="M588 1118h270q157 0 248.5 -67t91.5 -193q0 -80 -42 -140.5t-122 -93.5l183 -284q14 -20 3 -40t-36 -20h-132q-8 0 -18.5 6t-14.5 13l-181 293h-84v-273q0 -16 -11.5 -27.5t-27.5 -11.5h-127q-16 0 -27 11.5t-11 27.5v760q0 16 11 27.5t27 11.5zM990 858q0 106 -138 106 h-98v-208h98q138 0 138 102zM136 700q0 197 97 363.5t263.5 263.5t363.5 97t363.5 -97t263.5 -263.5t97 -363.5t-97 -363.5t-263.5 -263.5t-363.5 -97t-363.5 97t-263.5 263.5t-97 363.5zM248 700q0 -169 82 -312t223 -225.5t307 -82.5t307 82.5t223 225.5t82 312t-82 312 t-223 225.5t-307 82.5t-307 -82.5t-223 -225.5t-82 -312z" />
<glyph unicode="&#xaf;" horiz-adv-x="1008" d="M288 1229l24 121q3 16 16.5 27t29.5 11h622q16 0 25.5 -11t6.5 -27l-24 -121q-3 -16 -16.5 -27.5t-29.5 -11.5h-622q-16 0 -25.5 11.5t-6.5 27.5z" />
<glyph unicode="&#xb0;" horiz-adv-x="1008" d="M886 1118q-26 -129 -134.5 -217.5t-243.5 -88.5t-209.5 88.5t-48.5 217.5q25 129 133.5 217.5t243.5 88.5t209.5 -88.5t49.5 -217.5zM446 1118q-11 -56 16.5 -91t80.5 -35t94.5 35t52.5 91t-17 91t-81 35t-94 -35t-52 -91z" />
<glyph unicode="&#xb1;" horiz-adv-x="1320" d="M552 350v332h-373q-16 0 -27.5 11t-11.5 27v150q0 16 11.5 27t27.5 11h373v323q0 16 11.5 27.5t27.5 11.5h198q16 0 27.5 -11.5t11.5 -27.5v-323h373q16 0 27.5 -11t11.5 -27v-150q0 -16 -11.5 -27t-27.5 -11h-373v-332q0 -16 -11.5 -27t-27.5 -11h-198q-16 0 -27.5 11 t-11.5 27zM1201 38h-1022q-17 0 -28 11t-11 28v148q0 16 11.5 27.5t27.5 11.5h1022q16 0 27.5 -11.5t11.5 -27.5v-148q0 -16 -11.5 -27.5t-27.5 -11.5z" />
<glyph unicode="&#xb2;" horiz-adv-x="940" d="M457 654h347q16 0 25 -11.5t6 -27.5l-21 -106q-3 -16 -16.5 -27.5t-29.5 -11.5h-658q-16 0 -25.5 11.5t-6.5 27.5l22 109q1 7 9 17.5t17 15.5q222 135 362 245q93 72 137 122t54 102q11 56 -29 80t-131 24q-112 0 -215 -35q-21 -7 -33 3.5t-10 31.5l12 102q6 34 35 43 q138 47 293 47q188 0 271.5 -73t57.5 -209q-17 -89 -71 -163t-164 -159q-107 -82 -238 -158z" />
<glyph unicode="&#xb3;" horiz-adv-x="940" d="M183 680q91 -38 218 -38q200 0 219 96q12 63 -63.5 92.5t-246.5 31.5q-25 1 -18 39l20 104q7 38 38 39q166 5 246 31t90 77q8 38 -31 56t-132 18q-124 0 -227 -32q-20 -6 -31 4t-9 30l9 106q2 31 28 39q139 43 305 43q184 0 273.5 -64.5t65.5 -187.5q-14 -70 -66 -125 t-137 -83q78 -25 113.5 -83t20.5 -135q-27 -137 -152 -210.5t-327 -73.5q-160 0 -278 37q-12 4 -18 15.5t-2 24.5l32 117q6 20 24 29.5t36 2.5z" />
<glyph unicode="&#xb4;" horiz-adv-x="1008" d="M538 1120h-143q-26 0 -32 22.5t15 42.5l269 254q24 21 52 21h237q28 0 29 -27t-25 -45l-345 -250q-25 -18 -57 -18z" />
<glyph unicode="&#xb5;" horiz-adv-x="1404" d="M863 39l8 41q-52 -49 -125 -76.5t-153 -27.5t-143 27.5t-95 76.5l-83 -427q-3 -16 -17 -27.5t-30 -11.5h-236q-16 0 -25 11.5t-6 27.5l261 1344q3 16 17 27.5t30 11.5h236q16 0 25 -11.5t6 -27.5l-139 -715q77 -88 241 -88q167 0 275 88l139 715q3 16 16.5 27.5 t29.5 11.5h237q16 0 25 -11.5t6 -27.5l-186 -958q-3 -16 -16.5 -27.5t-29.5 -11.5h-237q-16 0 -25 11.5t-6 27.5z" />
<glyph unicode="&#xb6;" horiz-adv-x="1210" d="M544 1400h487q25 0 42 -14t17 -40v-1569q0 -16 -11.5 -27.5t-27.5 -11.5h-150q-16 0 -27.5 11.5t-11.5 27.5v1417h-76v-1417q0 -16 -11.5 -27.5t-27.5 -11.5h-154q-16 0 -27.5 11.5t-11.5 27.5v755h-10q-201 0 -327.5 115.5t-126.5 318.5t126.5 318.5t327.5 115.5z" />
<glyph unicode="&#xb7;" horiz-adv-x="696" d="M201 664q31 162 205 162t143 -162t-206 -162q-173 0 -142 162z" />
<glyph unicode="&#xb8;" horiz-adv-x="1008" d="M209 -476q-51 0 -105 7q-14 2 -21.5 12t-5.5 23l15 76q8 38 45 35q42 -5 85 -5q130 0 141 58q7 34 -31 53.5t-127 24.5q-24 1 -29.5 20.5t11.5 39.5l96 114q14 18 38 18h156q25 0 29.5 -14t-12.5 -35l-57 -67q75 -11 115.5 -55.5t28.5 -108.5q-38 -196 -372 -196z" />
<glyph unicode="&#xb9;" horiz-adv-x="940" d="M523 1142l-174 -95q-15 -8 -30 -4.5t-21 16.5l-48 103q-6 13 1 29t23 24l300 169q31 18 68 18h137q16 0 25.5 -11.5t5.5 -27.5l-166 -854q-3 -16 -16.5 -27.5t-29.5 -11.5h-166q-16 0 -25.5 11.5t-6.5 27.5z" />
<glyph unicode="&#xba;" horiz-adv-x="1052" d="M1077 1020q-35 -179 -182.5 -287.5t-348.5 -108.5t-306.5 108.5t-70.5 287.5q34 178 182 287t349 109t306 -108.5t71 -287.5zM421 1020q-21 -106 23 -163t136 -57q91 0 157.5 57t87.5 163q20 106 -24 163t-135 57q-92 0 -158.5 -57t-86.5 -163z" />
<glyph unicode="&#xbb;" horiz-adv-x="1090" d="M981 667l-17 -90q-5 -25 -29 -44l-422 -332q-13 -10 -29 -13.5t-26.5 6.5t-5.5 34l29 152q5 24 30 43l259 199l-182 199q-16 19 -13 43l30 152q5 24 19 34t28.5 6.5t23.5 -13.5l294 -332q16 -19 11 -44zM575 667l-17 -90q-5 -25 -29 -44l-422 -332q-13 -10 -29 -13.5 t-26.5 6.5t-5.5 34l29 152q5 24 30 43l259 199l-182 199q-16 19 -13 43l30 152q5 24 19 34t28.5 6.5t23.5 -13.5l294 -332q16 -19 11 -44z" />
<glyph unicode="&#xbc;" horiz-adv-x="2300" d="M1258 217l20 103q7 41 41 73l548 517q24 20 50 20h172q17 0 26 -11.5t6 -27.5l-102 -523h85q16 0 25.5 -11.5t5.5 -27.5l-21 -112q-3 -16 -17 -27.5t-30 -11.5h-85l-27 -139q-3 -17 -16.5 -28t-29.5 -11h-163q-16 0 -25 11.5t-6 27.5l27 139h-454q-16 0 -24.5 11.5 t-5.5 27.5zM1836 662l-308 -294h251zM1833 1370l-1151 -1366q-28 -34 -70 -34h-93q-25 0 -31.5 19.5t10.5 40.5l1151 1366q28 34 70 34h93q25 0 31.5 -19.5t-10.5 -40.5zM523 1142l-174 -95q-15 -8 -30 -4.5t-21 16.5l-48 103q-6 13 1 29t23 24l300 169q31 18 68 18h137 q16 0 25.5 -11.5t5.5 -27.5l-166 -854q-3 -16 -16.5 -27.5t-29.5 -11.5h-166q-16 0 -25.5 11.5t-6.5 27.5z" />
<glyph unicode="&#xbd;" horiz-adv-x="2300" d="M1677 184h347q16 0 25.5 -11.5t6.5 -27.5l-21 -106q-3 -16 -16.5 -27.5t-29.5 -11.5h-658q-16 0 -25.5 11.5t-6.5 27.5l21 109q5 21 27 33q224 136 361 245q92 72 136.5 121.5t55.5 102.5q11 56 -29 80t-131 24q-111 0 -216 -35q-20 -7 -32 3.5t-10 31.5l12 102 q2 14 11.5 26.5t22.5 16.5q139 47 293 47q188 0 272 -73t58 -209q-17 -89 -71 -163t-164 -159q-104 -79 -239 -158zM1739 1370l-1151 -1366q-28 -34 -70 -34h-93q-25 0 -31.5 19.5t10.5 40.5l1151 1366q28 34 70 34h93q25 0 31.5 -19.5t-10.5 -40.5zM523 1142l-174 -95 q-15 -8 -30 -4.5t-21 16.5l-48 103q-6 13 1 29t23 24l300 169q31 18 68 18h137q16 0 25.5 -11.5t5.5 -27.5l-166 -854q-3 -16 -16.5 -27.5t-29.5 -11.5h-166q-16 0 -25.5 11.5t-6.5 27.5z" />
<glyph unicode="&#xbe;" horiz-adv-x="2300" d="M1860 1370l-1151 -1366q-28 -34 -70 -34h-93q-25 0 -31.5 19.5t10.5 40.5l1151 1366q28 34 70 34h93q25 0 31.5 -19.5t-10.5 -40.5zM183 680q91 -38 218 -38q200 0 219 96q12 63 -63.5 92.5t-246.5 31.5q-25 1 -18 39l20 104q7 38 38 39q166 5 246 31t90 77q8 38 -31 56 t-132 18q-124 0 -227 -32q-20 -6 -31 4t-9 30l9 106q2 31 28 39q139 43 305 43q184 0 273.5 -64.5t65.5 -187.5q-14 -70 -66 -125t-137 -83q78 -25 113.5 -83t20.5 -135q-27 -137 -152 -210.5t-327 -73.5q-160 0 -278 37q-12 4 -18 15.5t-2 24.5l32 117q6 20 24 29.5t36 2.5 zM1259 217l20 103q7 41 41 73l548 517q24 20 50 20h172q17 0 26 -11.5t6 -27.5l-102 -523h85q16 0 25.5 -11.5t5.5 -27.5l-21 -112q-3 -16 -17 -27.5t-30 -11.5h-85l-27 -139q-3 -17 -16.5 -28t-29.5 -11h-163q-16 0 -25 11.5t-6 27.5l27 139h-454q-16 0 -24.5 11.5 t-5.5 27.5zM1837 662l-308 -294h251z" />
<glyph unicode="&#xbf;" horiz-adv-x="1248" d="M970 904q-31 -156 -214 -156q-185 0 -154 156t215 156t153 -156zM887 612l-5 -28q-27 -137 -97.5 -230.5t-202.5 -159.5q-119 -60 -166 -105t-59 -105q-11 -60 52.5 -90t212.5 -30q185 0 350 62q21 8 35 -2t12 -31l-18 -169q-1 -10 -10 -21t-20 -16q-88 -36 -204.5 -55.5 t-229.5 -19.5q-292 0 -420 93t-94 269q44 223 351 384q87 46 133 101.5t61 132.5l3 20q4 16 17.5 27t29.5 11h238q17 0 26 -11t5 -27z" />
<glyph unicode="&#xc0;" horiz-adv-x="1612" d="M428 310h642l55 -285q2 -10 12 -17.5t20 -7.5h273q22 0 35 16.5t8 38.5l-302 1320q-6 25 -34 25h-352q-28 0 -44 -25l-816 -1320q-13 -22 -6 -38.5t29 -16.5h273q10 0 22.5 7.5t17.5 17.5zM1023 558h-452l339 580zM1084 1508h-143q-32 0 -50 18l-248 250q-19 18 -7.5 45 t39.5 27h237q28 0 44 -21l170 -254q13 -20 -1.5 -42.5t-40.5 -22.5z" />
<glyph unicode="&#xc1;" horiz-adv-x="1612" d="M1070 310h-642l-167 -285q-5 -10 -17.5 -17.5t-22.5 -7.5h-273q-22 0 -29 16.5t6 38.5l816 1320q16 25 44 25h352q28 0 34 -25l302 -1320q5 -22 -8 -38.5t-35 -16.5h-273q-10 0 -20 7.5t-12 17.5zM571 558h452l-113 580zM1023 1508h-143q-26 0 -32.5 22.5t14.5 42.5 l270 254q22 21 52 21h237q18 0 25 -13t1 -30t-22 -29l-346 -250q-25 -18 -56 -18z" />
<glyph unicode="&#xc2;" horiz-adv-x="1612" d="M1070 310h-642l-167 -285q-5 -10 -17.5 -17.5t-22.5 -7.5h-273q-22 0 -29 16.5t6 38.5l816 1320q16 25 44 25h352q28 0 34 -25l302 -1320q5 -22 -8 -38.5t-35 -16.5h-273q-10 0 -20 7.5t-12 17.5zM571 558h452l-113 580zM937 1848h222q30 0 41 -19l171 -262 q14 -20 1.5 -39.5t-38.5 -19.5h-162q-24 0 -37 18l-120 152l-180 -152q-20 -18 -43 -18h-162q-26 0 -31 19.5t16 39.5l273 262q19 19 49 19z" />
<glyph unicode="&#xc3;" horiz-adv-x="1612" d="M428 310h642l55 -285q2 -10 12 -17.5t20 -7.5h273q22 0 35 16.5t8 38.5l-302 1320q-6 25 -34 25h-352q-28 0 -44 -25l-816 -1320q-13 -22 -6 -38.5t29 -16.5h273q10 0 22.5 7.5t17.5 17.5zM1023 558h-452l339 580zM1001 1574q-65 42 -111 42q-31 0 -49 -10.5t-29 -40.5 q-12 -31 -44 -31h-124q-18 0 -27 9.5t-5 26.5q33 130 102.5 193t163.5 63q84 0 154 -44q65 -42 112 -42q31 0 49 10.5t29 40.5q4 13 17 22t27 9h124q18 0 27 -9.5t5 -26.5q-32 -130 -102.5 -193t-164.5 -63q-82 0 -154 44z" />
<glyph unicode="&#xc4;" horiz-adv-x="1612" d="M428 310h642l55 -285q2 -10 12 -17.5t20 -7.5h273q22 0 35 16.5t8 38.5l-302 1320q-6 25 -34 25h-352q-28 0 -44 -25l-816 -1320q-13 -22 -6 -38.5t29 -16.5h273q10 0 22.5 7.5t17.5 17.5zM1023 558h-452l339 580zM619 1678q26 136 172 136t120 -136q-27 -136 -173 -136 t-119 136zM1119 1678q26 136 172 136t120 -136q-27 -136 -173 -136t-119 136z" />
<glyph unicode="&#xc5;" horiz-adv-x="1612" d="M428 310h642l55 -285q2 -10 12 -17.5t20 -7.5h273q22 0 35 16.5t8 38.5l-302 1320q-6 25 -34 25h-352q-28 0 -44 -25l-816 -1320q-13 -22 -6 -38.5t29 -16.5h273q10 0 22.5 7.5t17.5 17.5zM1023 558h-452l339 580zM1267 1678q-20 -103 -106 -172.5t-193 -69.5 q-108 0 -166.5 70t-38.5 172t105.5 172t193.5 70t166.5 -70t38.5 -172zM931 1678q-7 -38 12.5 -62t54.5 -24t64.5 24t36.5 62t-13 62t-55 24t-64 -24t-36 -62z" />
<glyph unicode="&#xc6;" horiz-adv-x="2112" d="M1868 0h-917q-16 0 -25.5 12t-6.5 28l53 270h-480l-201 -266q-31 -44 -81 -44h-256q-25 0 -33 19t8 40l1019 1321q5 8 17 14t21 6h1136q16 0 25.5 -11.5t6.5 -28.5l-33 -169q-3 -16 -17.5 -27.5t-30.5 -11.5h-610l-60 -310h553q17 0 26 -12t5 -28l-32 -168 q-4 -17 -17.5 -28.5t-29.5 -11.5h-553l-67 -346h628q16 0 25.5 -11.5t6.5 -27.5l-33 -169q-3 -17 -17 -28.5t-30 -11.5zM1138 1166l-460 -608h342z" />
<glyph unicode="&#xc7;" horiz-adv-x="1448" d="M1236 27q-145 -43 -338 -50l-77 -93q75 -11 115.5 -55.5t28.5 -108.5q-38 -196 -372 -196q-51 0 -105 7q-14 2 -21.5 12t-5.5 23l15 76q8 38 45 35q42 -5 85 -5q130 0 141 58q7 34 -31 53.5t-127 24.5q-24 1 -29.5 20.5t11.5 39.5l97 118q-323 39 -468 226t-86 488 q64 334 329.5 529t668.5 195q224 0 374 -51q18 -6 27.5 -20t4.5 -32l-46 -163q-6 -22 -25.5 -30.5t-38.5 -2.5q-136 47 -307 47q-273 0 -442.5 -125t-212.5 -347q-45 -228 80.5 -350t399.5 -122q170 0 328 52q21 7 37 -2t14 -31l-17 -168q-2 -18 -17.5 -32t-34.5 -20z" />
<glyph unicode="&#xc8;" horiz-adv-x="1340" d="M54 40l257 1320q3 16 17 28t30 12h1015q16 0 25.5 -11.5t6.5 -28.5l-33 -169q-3 -16 -17.5 -27.5t-30.5 -11.5h-726l-60 -310h676q17 0 26.5 -12t5.5 -28l-32 -168q-4 -17 -18 -28.5t-30 -11.5h-676l-67 -346h742q16 0 25.5 -11.5t6.5 -27.5l-33 -169q-3 -17 -17 -28.5 t-30 -11.5h-1031q-16 0 -25.5 12t-6.5 28zM1024 1508h-143q-32 0 -50 18l-248 250q-19 18 -7.5 45t39.5 27h237q27 0 44 -21l170 -254q13 -20 -1.5 -42.5t-40.5 -22.5z" />
<glyph unicode="&#xc9;" horiz-adv-x="1340" d="M54 40l257 1320q3 16 17 28t30 12h1015q16 0 25.5 -11.5t6.5 -28.5l-33 -169q-3 -16 -17.5 -27.5t-30.5 -11.5h-726l-60 -310h676q17 0 26.5 -12t5.5 -28l-32 -168q-4 -17 -18 -28.5t-30 -11.5h-676l-67 -346h742q16 0 25.5 -11.5t6.5 -27.5l-33 -169q-3 -17 -17 -28.5 t-30 -11.5h-1031q-16 0 -25.5 12t-6.5 28zM875 1508h-143q-26 0 -32.5 22.5t14.5 42.5l270 254q22 21 52 21h237q18 0 25 -13t1 -30t-22 -29l-346 -250q-25 -18 -56 -18z" />
<glyph unicode="&#xca;" horiz-adv-x="1340" d="M54 40l257 1320q3 16 17 28t30 12h1015q16 0 25.5 -11.5t6.5 -28.5l-33 -169q-3 -16 -17.5 -27.5t-30.5 -11.5h-726l-60 -310h676q17 0 26.5 -12t5.5 -28l-32 -168q-4 -17 -18 -28.5t-30 -11.5h-676l-67 -346h742q16 0 25.5 -11.5t6.5 -27.5l-33 -169q-3 -17 -17 -28.5 t-30 -11.5h-1031q-16 0 -25.5 12t-6.5 28zM843 1848h222q30 0 41 -19l171 -262q14 -20 1.5 -39.5t-38.5 -19.5h-162q-24 0 -37 18l-120 152l-180 -152q-20 -18 -43 -18h-162q-26 0 -31 19.5t16 39.5l273 262q19 19 49 19z" />
<glyph unicode="&#xcb;" horiz-adv-x="1340" d="M54 40l257 1320q3 16 17 28t30 12h1015q16 0 25.5 -11.5t6.5 -28.5l-33 -169q-3 -16 -17.5 -27.5t-30.5 -11.5h-726l-60 -310h676q17 0 26.5 -12t5.5 -28l-32 -168q-4 -17 -18 -28.5t-30 -11.5h-676l-67 -346h742q16 0 25.5 -11.5t6.5 -27.5l-33 -169q-3 -17 -17 -28.5 t-30 -11.5h-1031q-16 0 -25.5 12t-6.5 28zM525 1678q26 136 172 136t120 -136q-27 -136 -173 -136t-119 136zM1025 1678q26 136 172 136t120 -136q-27 -136 -173 -136t-119 136z" />
<glyph unicode="&#xcc;" horiz-adv-x="648" d="M369 1400h248q16 0 25.5 -11.5t6.5 -28.5l-257 -1320q-3 -17 -17 -28.5t-30 -11.5h-248q-17 0 -26.5 12t-6.5 28l257 1320q3 16 17 28t31 12zM596 1508h-143q-32 0 -50 18l-248 250q-19 18 -7.5 45t39.5 27h237q28 0 44 -21l170 -254q13 -20 -1.5 -42.5t-40.5 -22.5z" />
<glyph unicode="&#xcd;" horiz-adv-x="648" d="M369 1400h248q16 0 25.5 -11.5t6.5 -28.5l-257 -1320q-3 -17 -17 -28.5t-30 -11.5h-248q-17 0 -26.5 12t-6.5 28l257 1320q3 16 17 28t31 12zM575 1508h-143q-26 0 -32.5 22.5t14.5 42.5l270 254q23 21 52 21h237q18 0 25 -13t1 -30t-22 -29l-346 -250q-25 -18 -56 -18z " />
<glyph unicode="&#xce;" horiz-adv-x="648" d="M369 1400h248q16 0 25.5 -11.5t6.5 -28.5l-257 -1320q-3 -17 -17 -28.5t-30 -11.5h-248q-17 0 -26.5 12t-6.5 28l257 1320q3 16 17 28t31 12zM469 1848h222q30 0 41 -19l171 -262q14 -20 1.5 -39.5t-38.5 -19.5h-162q-24 0 -37 18l-120 152l-180 -152q-20 -18 -43 -18 h-162q-26 0 -31 19.5t16 39.5l273 262q19 19 49 19z" />
<glyph unicode="&#xcf;" horiz-adv-x="648" d="M369 1400h248q16 0 25.5 -11.5t6.5 -28.5l-257 -1320q-3 -17 -17 -28.5t-30 -11.5h-248q-17 0 -26.5 12t-6.5 28l257 1320q3 16 17 28t31 12zM151 1678q26 136 172 136t120 -136q-27 -136 -173 -136t-119 136zM651 1678q26 136 172 136t120 -136q-27 -136 -173 -136 t-119 136z" />
<glyph unicode="&#xd0;" horiz-adv-x="1618" d="M562 0h-467q-16 0 -25.5 12t-6.5 28l113 580h-99q-16 0 -25 11.5t-6 27.5l16 83q3 16 17 28t30 12h99l112 578q3 16 17 28t30 12h467q196 0 347 -44.5t249.5 -131t135.5 -220t4 -304.5q-34 -172 -122.5 -305.5t-221 -219.5t-300.5 -130.5t-364 -44.5zM1238 700 q46 237 -73.5 344.5t-405.5 107.5h-152l-71 -370h310q16 0 25.5 -11.5t6.5 -28.5l-16 -83q-3 -16 -17.5 -27.5t-30.5 -11.5h-310l-72 -372h152q287 0 447.5 107t206.5 345z" />
<glyph unicode="&#xd1;" horiz-adv-x="1680" d="M1005 47l-445 961l-188 -968q-3 -17 -17 -28.5t-30 -11.5h-238q-17 0 -26.5 12t-6.5 28l257 1320q3 16 17 28t31 12h300q61 0 81 -47l445 -961l188 968q3 16 17 28t31 12h238q16 0 25.5 -11.5t6.5 -28.5l-257 -1320q-3 -17 -17 -28.5t-30 -11.5h-300q-29 0 -51 13t-31 34 zM1049 1574q-65 42 -111 42q-31 0 -49 -10.5t-29 -40.5q-12 -31 -44 -31h-124q-18 0 -27 9.5t-5 26.5q33 130 102.5 193t163.5 63q84 0 154 -44q65 -42 112 -42q31 0 49 10.5t29 40.5q4 13 17 22t27 9h124q18 0 27 -9.5t5 -26.5q-32 -130 -102.5 -193t-164.5 -63 q-82 0 -154 44z" />
<glyph unicode="&#xd2;" horiz-adv-x="1704" d="M1660 700q-30 -154 -107 -286t-192 -229.5t-273 -153t-341 -55.5q-122 0 -225 25t-177.5 71.5t-129.5 112t-81.5 146t-33 174t15.5 195.5q30 154 106.5 286t191.5 229.5t273 153t341 55.5q122 0 225 -25t178 -71.5t129.5 -112t81.5 -146t33.5 -174t-15.5 -195.5zM448 700 q-44 -226 47 -349t301 -123t349 123t183 349q43 226 -48 349t-301 123t-349 -123t-182 -349zM1197 1508h-143q-32 0 -50 18l-248 250q-19 18 -7.5 45t39.5 27h237q27 0 44 -21l170 -254q13 -20 -1.5 -42.5t-40.5 -22.5z" />
<glyph unicode="&#xd3;" horiz-adv-x="1704" d="M1660 700q-30 -154 -107 -286t-192 -229.5t-273 -153t-341 -55.5q-122 0 -225 25t-177.5 71.5t-129.5 112t-81.5 146t-33 174t15.5 195.5q30 154 106.5 286t191.5 229.5t273 153t341 55.5q122 0 225 -25t178 -71.5t129.5 -112t81.5 -146t33.5 -174t-15.5 -195.5zM448 700 q-44 -226 47 -349t301 -123t349 123t183 349q43 226 -48 349t-301 123t-349 -123t-182 -349zM1036 1508h-143q-26 0 -32.5 22.5t14.5 42.5l270 254q23 21 52 21h237q18 0 25 -13t1 -30t-22 -29l-346 -250q-25 -18 -56 -18z" />
<glyph unicode="&#xd4;" horiz-adv-x="1704" d="M1660 700q-30 -154 -107 -286t-192 -229.5t-273 -153t-341 -55.5q-122 0 -225 25t-177.5 71.5t-129.5 112t-81.5 146t-33 174t15.5 195.5q30 154 106.5 286t191.5 229.5t273 153t341 55.5q122 0 225 -25t178 -71.5t129.5 -112t81.5 -146t33.5 -174t-15.5 -195.5zM448 700 q-44 -226 47 -349t301 -123t349 123t183 349q43 226 -48 349t-301 123t-349 -123t-182 -349zM1000 1848h222q30 0 41 -19l171 -262q14 -20 1.5 -39.5t-38.5 -19.5h-162q-24 0 -37 18l-120 152l-180 -152q-20 -18 -43 -18h-162q-26 0 -31 19.5t16 39.5l273 262q19 19 49 19z " />
<glyph unicode="&#xd5;" horiz-adv-x="1704" d="M1660 700q-30 -154 -107 -286t-192 -229.5t-273 -153t-341 -55.5q-122 0 -225 25t-177.5 71.5t-129.5 112t-81.5 146t-33 174t15.5 195.5q30 154 106.5 286t191.5 229.5t273 153t341 55.5q122 0 225 -25t178 -71.5t129.5 -112t81.5 -146t33.5 -174t-15.5 -195.5zM448 700 q-44 -226 47 -349t301 -123t349 123t183 349q43 226 -48 349t-301 123t-349 -123t-182 -349zM1064 1574q-65 42 -111 42q-31 0 -49 -10.5t-29 -40.5q-12 -31 -44 -31h-124q-18 0 -27 9.5t-5 26.5q33 130 102.5 193t163.5 63q84 0 154 -44q65 -42 112 -42q31 0 49 10.5 t29 40.5q4 13 17 22t27 9h124q18 0 27 -9.5t5 -26.5q-32 -130 -102.5 -193t-164.5 -63q-82 0 -154 44z" />
<glyph unicode="&#xd6;" horiz-adv-x="1704" d="M1660 700q-30 -154 -107 -286t-192 -229.5t-273 -153t-341 -55.5q-122 0 -225 25t-177.5 71.5t-129.5 112t-81.5 146t-33 174t15.5 195.5q30 154 106.5 286t191.5 229.5t273 153t341 55.5q122 0 225 -25t178 -71.5t129.5 -112t81.5 -146t33.5 -174t-15.5 -195.5zM448 700 q-44 -226 47 -349t301 -123t349 123t183 349q43 226 -48 349t-301 123t-349 -123t-182 -349zM682 1678q26 136 172 136t120 -136q-27 -136 -173 -136t-119 136zM1182 1678q26 136 172 136t120 -136q-27 -136 -173 -136t-119 136z" />
<glyph unicode="&#xd7;" horiz-adv-x="1320" d="M677 830l316 283q11 10 27.5 9.5t26.5 -10.5l121 -121q12 -12 11.5 -29t-13.5 -28l-303 -270l302 -269q13 -11 13.5 -28t-11.5 -29l-121 -121q-10 -10 -26.5 -10.5t-27.5 9.5l-315 281l-315 -281q-11 -10 -27.5 -9.5t-26.5 10.5l-121 121q-12 12 -11.5 29t13.5 28 l301 269l-302 270q-13 11 -13.5 28t11.5 29l121 121q10 10 26.5 10.5t27.5 -9.5z" />
<glyph unicode="&#xd8;" horiz-adv-x="1704" d="M1640 700q-30 -154 -107 -286t-192 -229.5t-273 -153t-341 -55.5q-193 0 -338 63l-190 -216q-20 -23 -51 -23h-121q-20 0 -24 13.5t11 30.5l243 277q-115 97 -156 247t-5 332q30 154 106.5 286t191.5 229.5t273 153t341 55.5q194 0 339 -64l190 217q20 23 52 23h121 q20 0 23.5 -13.5t-11.5 -30.5l-244 -277q115 -97 156 -247t6 -332zM428 700q-43 -216 39 -340l682 776q-78 36 -190 36q-210 0 -349 -123t-182 -349zM1308 700q42 216 -41 339l-681 -776q79 -35 190 -35q210 0 349 123t183 349z" />
<glyph unicode="&#xd9;" horiz-adv-x="1692" d="M741 -24q156 0 290 36.5t240.5 107.5t179 183.5t100.5 258.5l155 798q3 17 -6.5 28.5t-25.5 11.5h-249q-16 0 -30 -12t-17 -28l-153 -785q-34 -173 -139 -260t-296 -87t-263 87t-38 260l153 785q3 16 -6 28t-25 12h-249q-17 0 -31 -12t-17 -28l-155 -798 q-28 -146 0.5 -258.5t107.5 -183.5t198.5 -107.5t275.5 -36.5zM1123 1508h-143q-32 0 -50 18l-248 250q-19 18 -7.5 45t39.5 27h237q27 0 44 -21l170 -254q13 -20 -1.5 -42.5t-40.5 -22.5z" />
<glyph unicode="&#xda;" horiz-adv-x="1692" d="M741 -24q-156 0 -275.5 36.5t-198.5 107.5t-107.5 183.5t-0.5 258.5l155 798q3 16 17 28t31 12h249q16 0 25 -12t6 -28l-153 -785q-34 -173 38 -260t263 -87t296 87t139 260l153 785q3 16 17 28t30 12h249q16 0 25.5 -11.5t6.5 -28.5l-155 -798q-28 -146 -100.5 -258.5 t-179 -183.5t-240.5 -107.5t-290 -36.5zM1098 1508h-143q-26 0 -32.5 22.5t14.5 42.5l270 254q23 21 52 21h237q18 0 25 -13t1 -30t-22 -29l-346 -250q-25 -18 -56 -18z" />
<glyph unicode="&#xdb;" horiz-adv-x="1692" d="M741 -24q-156 0 -275.5 36.5t-198.5 107.5t-107.5 183.5t-0.5 258.5l155 798q3 16 17 28t31 12h249q16 0 25 -12t6 -28l-153 -785q-34 -173 38 -260t263 -87t296 87t139 260l153 785q3 16 17 28t30 12h249q16 0 25.5 -11.5t6.5 -28.5l-155 -798q-28 -146 -100.5 -258.5 t-179 -183.5t-240.5 -107.5t-290 -36.5zM994 1848h222q30 0 41 -19l171 -262q14 -20 1.5 -39.5t-38.5 -19.5h-162q-24 0 -37 18l-120 152l-180 -152q-20 -18 -43 -18h-162q-26 0 -31 19.5t16 39.5l273 262q19 19 49 19z" />
<glyph unicode="&#xdc;" horiz-adv-x="1692" d="M741 -24q156 0 290 36.5t240.5 107.5t179 183.5t100.5 258.5l155 798q3 17 -6.5 28.5t-25.5 11.5h-249q-16 0 -30 -12t-17 -28l-153 -785q-34 -173 -139 -260t-296 -87t-263 87t-38 260l153 785q3 16 -6 28t-25 12h-249q-17 0 -31 -12t-17 -28l-155 -798 q-28 -146 0.5 -258.5t107.5 -183.5t198.5 -107.5t275.5 -36.5zM676 1678q26 136 172 136t120 -136q-27 -136 -173 -136t-119 136zM1176 1678q26 136 172 136t120 -136q-27 -136 -173 -136t-119 136z" />
<glyph unicode="&#xdd;" horiz-adv-x="1664" d="M838 0h-250q-16 0 -25.5 11.5t-6.5 28.5l99 510l-434 787q-11 21 4 42t41 21h237q56 0 77 -42l291 -544l501 544q40 42 95 42h237q26 0 32.5 -21t-13.5 -42l-740 -787l-99 -510q-3 -17 -16.5 -28.5t-29.5 -11.5zM1051 1508h-143q-26 0 -32.5 22.5t14.5 42.5l270 254 q22 21 52 21h237q18 0 25 -13t1 -30t-22 -29l-346 -250q-25 -18 -56 -18z" />
<glyph unicode="&#xde;" horiz-adv-x="1420" d="M471 496h212q174 0 265 48t114 164t-50 164t-247 48h-212zM666 244h-244l-40 -204q-3 -17 -17 -28.5t-30 -11.5h-248q-17 0 -26.5 12t-6.5 28l257 1320q3 16 17 28t31 12h248q16 0 25.5 -11.5t6.5 -28.5l-37 -188h244q301 0 446.5 -120t101.5 -344t-236 -344t-492 -120z " />
<glyph unicode="&#xdf;" horiz-adv-x="1430" d="M854 1172q-133 0 -204 -60t-96 -189l-172 -884q-3 -16 -16.5 -27.5t-29.5 -11.5h-251q-16 0 -25 11.5t-6 27.5l166 854q52 266 223.5 398.5t469.5 132.5q252 0 383 -107t100 -271q-47 -235 -304 -318q138 -34 201 -126.5t37 -221.5q-38 -197 -190.5 -300.5t-411.5 -103.5 q-133 0 -245 34q-11 4 -16.5 16t-1.5 25l51 176q5 20 23.5 29t36.5 3q83 -31 171 -31q222 0 254 164q17 89 -53.5 143.5t-225.5 61.5q-15 1 -24 12.5t-6 26.5l34 173q3 15 16 26t28 12q258 12 291 183q13 66 -43 104t-164 38z" />
<glyph unicode="&#xe0;" d="M1022 950l10 49q3 15 15.5 26t28.5 11h240q15 0 24 -11t6 -26l-187 -962q-3 -15 -16 -26t-28 -11h-240q-16 0 -24.5 11t-5.5 26l9 49q-158 -110 -363 -110q-113 0 -202.5 37t-146 107t-77 170.5t4.5 227.5q49 249 225 395.5t407 146.5q205 0 320 -110zM892 280l92 476 q-78 86 -227 86q-144 0 -240.5 -80.5t-128.5 -243.5q-31 -163 34 -243.5t209 -80.5q149 0 261 86zM957 1160h-143q-30 0 -50 18l-248 250q-18 18 -7 45t39 27h237q29 0 44 -21l171 -254q13 -20 -2 -42.5t-41 -22.5z" />
<glyph unicode="&#xe1;" d="M1022 950l10 49q3 15 15.5 26t28.5 11h240q15 0 24 -11t6 -26l-187 -962q-3 -15 -16 -26t-28 -11h-240q-16 0 -24.5 11t-5.5 26l9 49q-158 -110 -363 -110q-113 0 -202.5 37t-146 107t-77 170.5t4.5 227.5q49 249 225 395.5t407 146.5q205 0 320 -110zM892 280l92 476 q-78 86 -227 86q-144 0 -240.5 -80.5t-128.5 -243.5q-31 -163 34 -243.5t209 -80.5q149 0 261 86zM836 1160h-143q-26 0 -32.5 22.5t15.5 42.5l269 254q24 21 52 21h237q28 0 29 -27t-25 -45l-346 -250q-23 -18 -56 -18z" />
<glyph unicode="&#xe2;" d="M1022 950l10 49q3 15 15.5 26t28.5 11h240q15 0 24 -11t6 -26l-187 -962q-3 -15 -16 -26t-28 -11h-240q-16 0 -24.5 11t-5.5 26l9 49q-158 -110 -363 -110q-113 0 -202.5 37t-146 107t-77 170.5t4.5 227.5q49 249 225 395.5t407 146.5q205 0 320 -110zM892 280l92 476 q-78 86 -227 86q-144 0 -240.5 -80.5t-128.5 -243.5q-31 -163 34 -243.5t209 -80.5q149 0 261 86zM782 1500h222q30 0 41 -19l171 -262q14 -20 1.5 -39.5t-38.5 -19.5h-162q-24 0 -37 18l-120 152l-180 -152q-20 -18 -43 -18h-162q-26 0 -31 19.5t16 39.5l273 262 q19 19 49 19z" />
<glyph unicode="&#xe3;" d="M1022 950l10 49q3 15 15.5 26t28.5 11h240q15 0 24 -11t6 -26l-187 -962q-3 -15 -16 -26t-28 -11h-240q-16 0 -24.5 11t-5.5 26l9 49q-158 -110 -363 -110q-113 0 -202.5 37t-146 107t-77 170.5t4.5 227.5q49 249 225 395.5t407 146.5q205 0 320 -110zM892 280l92 476 q-78 86 -227 86q-144 0 -240.5 -80.5t-128.5 -243.5q-31 -163 34 -243.5t209 -80.5q149 0 261 86zM846 1224q-65 42 -111 42q-31 0 -49 -10.5t-29 -40.5q-12 -31 -44 -31h-124q-18 0 -27 9.5t-5 26.5q33 130 102.5 193t163.5 63q84 0 154 -44q65 -42 112 -42q31 0 49 10.5 t29 40.5q4 13 17 22t27 9h124q18 0 27 -9.5t5 -26.5q-32 -130 -102.5 -193t-164.5 -63q-82 0 -154 44z" />
<glyph unicode="&#xe4;" d="M1022 950l10 49q3 15 15.5 26t28.5 11h240q15 0 24 -11t6 -26l-187 -962q-3 -15 -16 -26t-28 -11h-240q-16 0 -24.5 11t-5.5 26l9 49q-158 -110 -363 -110q-113 0 -202.5 37t-146 107t-77 170.5t4.5 227.5q49 249 225 395.5t407 146.5q205 0 320 -110zM892 280l92 476 q-78 86 -227 86q-144 0 -240.5 -80.5t-128.5 -243.5q-31 -163 34 -243.5t209 -80.5q149 0 261 86zM464 1330q27 136 172 136q147 0 120 -136q-26 -136 -172 -136t-120 136zM964 1330q27 136 172 136q147 0 120 -136q-26 -136 -172 -136t-120 136z" />
<glyph unicode="&#xe5;" d="M1022 950l10 49q3 15 15.5 26t28.5 11h240q15 0 24 -11t6 -26l-187 -962q-3 -15 -16 -26t-28 -11h-240q-16 0 -24.5 11t-5.5 26l9 49q-158 -110 -363 -110q-113 0 -202.5 37t-146 107t-77 170.5t4.5 227.5q49 249 225 395.5t407 146.5q205 0 320 -110zM892 280l92 476 q-78 86 -227 86q-144 0 -240.5 -80.5t-128.5 -243.5q-31 -163 34 -243.5t209 -80.5q149 0 261 86zM1113 1334q-20 -103 -106 -172.5t-193 -69.5q-108 0 -166.5 70t-38.5 172t105.5 172t193.5 70t166.5 -70t38.5 -172zM777 1334q-7 -38 12.5 -62t54.5 -24t64.5 24t36.5 62 t-12.5 62t-54.5 24t-64.5 -24t-36.5 -62z" />
<glyph unicode="&#xe6;" horiz-adv-x="2036" d="M1742 35q-155 -59 -374 -59q-320 0 -449 182q-88 -88 -216 -135t-283 -47q-212 0 -322.5 84t-78.5 250q33 168 185 261t406 93h260q14 95 -37 136.5t-195 41.5q-187 0 -355 -59q-19 -6 -32 3.5t-11 27.5l7 136q3 29 30 39q192 71 416 71q148 0 255.5 -46.5t143.5 -133.5 q214 180 531 180q196 0 309 -89.5t86 -230.5q-31 -163 -218.5 -246.5t-517.5 -83.5h-146q4 -116 79.5 -166t220.5 -50q181 0 313 57q20 9 35 3t14 -25l-13 -145q-5 -36 -43 -49zM488 194q223 0 315 130l25 126h-238q-116 0 -178.5 -33t-75.5 -103q-12 -60 31 -90t121 -30z M1180 624h102q209 0 307 24t111 90q10 51 -33 77.5t-133 26.5q-248 0 -354 -218z" />
<glyph unicode="&#xe7;" horiz-adv-x="1168" d="M981 228q20 6 34 -4t13 -29l-12 -125q-3 -40 -52 -54q-121 -34 -247 -39h4l-79 -93q75 -11 115.5 -55.5t28.5 -108.5q-38 -196 -372 -196q-51 0 -105 7q-14 2 -21.5 12t-5.5 23l15 76q8 38 45 35q42 -5 85 -5q130 0 141 58q7 34 -31 53.5t-127 24.5q-24 1 -29.5 20.5 t11.5 39.5l99 120q-243 35 -354 173.5t-68 356.5q49 251 257.5 396.5t518.5 145.5q161 0 302 -41q44 -14 31 -53l-36 -125q-6 -19 -23.5 -29t-34.5 -4q-94 34 -246 34q-182 0 -301.5 -84.5t-149.5 -239.5q-31 -157 60 -240.5t287 -83.5q142 0 247 34z" />
<glyph unicode="&#xe8;" horiz-adv-x="1292" d="M993 27q42 13 45 52l11 133q2 18 -11.5 27t-31.5 3q-143 -48 -312 -48q-159 0 -242 49.5t-82 166.5h166q675 0 738 330q28 142 -101 231t-360 89q-303 0 -499.5 -148.5t-245.5 -397.5q-49 -251 95.5 -394.5t462.5 -143.5q205 0 367 51zM536 624h-124q96 218 370 218 q93 0 138 -27.5t36 -74.5q-13 -66 -105.5 -91t-314.5 -25zM922 1160h-143q-30 0 -50 18l-248 250q-19 18 -7.5 45t39.5 27h237q29 0 44 -21l171 -254q13 -20 -2 -42.5t-41 -22.5z" />
<glyph unicode="&#xe9;" horiz-adv-x="1292" d="M993 27q-162 -51 -367 -51q-318 0 -462.5 143.5t-95.5 394.5q49 249 245.5 397.5t499.5 148.5q231 0 360 -89t101 -231q-63 -330 -738 -330h-166q-1 -117 82 -166.5t242 -49.5q169 0 312 48q18 6 31.5 -3t11.5 -27l-11 -133q-3 -39 -45 -52zM412 624h124q222 0 314.5 25 t105.5 91q9 47 -36 74.5t-138 27.5q-274 0 -370 -218zM771 1160h-143q-26 0 -32.5 22.5t15.5 42.5l269 254q24 21 52 21h237q28 0 29 -27t-25 -45l-346 -250q-23 -18 -56 -18z" />
<glyph unicode="&#xea;" horiz-adv-x="1292" d="M993 27q-162 -51 -367 -51q-318 0 -462.5 143.5t-95.5 394.5q49 249 245.5 397.5t499.5 148.5q231 0 360 -89t101 -231q-63 -330 -738 -330h-166q-1 -117 82 -166.5t242 -49.5q169 0 312 48q18 6 31.5 -3t11.5 -27l-11 -133q-3 -39 -45 -52zM412 624h124q222 0 314.5 25 t105.5 91q9 47 -36 74.5t-138 27.5q-274 0 -370 -218zM729 1500h222q30 0 41 -19l171 -262q14 -20 1.5 -39.5t-38.5 -19.5h-162q-24 0 -37 18l-120 152l-180 -152q-20 -18 -43 -18h-162q-26 0 -31 19.5t16 39.5l273 262q19 19 49 19z" />
<glyph unicode="&#xeb;" horiz-adv-x="1292" d="M993 27q42 13 45 52l11 133q2 18 -11.5 27t-31.5 3q-143 -48 -312 -48q-159 0 -242 49.5t-82 166.5h166q675 0 738 330q28 142 -101 231t-360 89q-303 0 -499.5 -148.5t-245.5 -397.5q-49 -251 95.5 -394.5t462.5 -143.5q205 0 367 51zM536 624h-124q96 218 370 218 q93 0 138 -27.5t36 -74.5q-13 -66 -105.5 -91t-314.5 -25zM411 1330q27 136 172 136q147 0 120 -136q-26 -136 -172 -136t-120 136zM911 1330q27 136 172 136q147 0 120 -136q-26 -136 -172 -136t-120 136z" />
<glyph unicode="&#xec;" horiz-adv-x="594" d="M57 39l186 958q3 16 17 27.5t30 11.5h236q16 0 25 -11.5t6 -27.5l-186 -958q-3 -16 -16.5 -27.5t-29.5 -11.5h-236q-16 0 -25.5 11.5t-6.5 27.5zM505 1160h-143q-30 0 -50 18l-248 250q-18 18 -7 45t39 27h237q29 0 44 -21l171 -254q13 -20 -2 -42.5t-41 -22.5z" />
<glyph unicode="&#xed;" horiz-adv-x="594" d="M44 39l186 958q3 16 17 27.5t30 11.5h236q16 0 25 -11.5t6 -27.5l-186 -958q-3 -16 -16.5 -27.5t-29.5 -11.5h-236q-16 0 -25.5 11.5t-6.5 27.5zM489 1160h-143q-26 0 -32.5 22.5t15.5 42.5l269 254q24 21 52 21h237q28 0 29 -27t-25 -45l-346 -250q-23 -18 -56 -18z" />
<glyph unicode="&#xee;" horiz-adv-x="594" d="M13 39l186 958q3 16 17 27.5t30 11.5h236q16 0 25 -11.5t6 -27.5l-186 -958q-3 -16 -16.5 -27.5t-29.5 -11.5h-236q-16 0 -25.5 11.5t-6.5 27.5zM342 1500h222q30 0 41 -19l171 -262q14 -20 1.5 -39.5t-38.5 -19.5h-162q-24 0 -37 18l-120 152l-180 -152q-20 -18 -43 -18 h-162q-26 0 -31 19.5t16 39.5l273 262q19 19 49 19z" />
<glyph unicode="&#xef;" horiz-adv-x="594" d="M46 39l186 958q3 16 17 27.5t30 11.5h236q16 0 25 -11.5t6 -27.5l-186 -958q-3 -16 -16.5 -27.5t-29.5 -11.5h-236q-16 0 -25.5 11.5t-6.5 27.5zM57 1330q27 136 172 136q147 0 120 -136q-26 -136 -172 -136t-120 136zM557 1330q27 136 172 136q147 0 120 -136 q-26 -136 -172 -136t-120 136z" />
<glyph unicode="&#xf0;" horiz-adv-x="1326" d="M846 1116l-402 -102q-16 -4 -29 3.5t-15 21.5l-8 70q-2 15 9 29.5t27 18.5l221 53q-47 15 -123 30q-14 3 -21 15.5t-2 27.5l40 131q6 16 21.5 26t30.5 7q247 -50 408 -143l268 69q15 4 27.5 -2t13.5 -18l12 -72q2 -16 -9.5 -31t-28.5 -19l-147 -39q208 -206 141 -550 q-59 -307 -254 -486.5t-499 -179.5q-120 0 -215.5 34t-159 97.5t-87.5 161.5t-1 219q46 236 216.5 367t404.5 131q191 0 297 -98q-14 148 -136 228zM569 194q140 0 245.5 110t152.5 350q-95 114 -274 114q-118 0 -201 -72t-110 -208q-26 -137 24.5 -215.5t162.5 -78.5z" />
<glyph unicode="&#xf1;" horiz-adv-x="1394" d="M1282 574l-104 -535q-3 -16 -16.5 -27.5t-29.5 -11.5h-237q-16 0 -25 11.5t-6 27.5l102 525q29 146 -22 212t-184 66q-75 0 -148 -23.5t-125 -64.5l-139 -715q-3 -16 -16.5 -27.5t-29.5 -11.5h-236q-16 0 -25.5 11.5t-6.5 27.5l186 958q3 16 17 27.5t30 11.5h236 q16 0 25 -11.5t6 -27.5l-9 -47q154 110 360 110q237 0 340.5 -123.5t56.5 -362.5zM843 1224q-65 42 -111 42q-31 0 -49 -10.5t-29 -40.5q-12 -31 -44 -31h-124q-18 0 -27 9.5t-5 26.5q33 130 102.5 193t163.5 63q84 0 154 -44q65 -42 112 -42q31 0 49 10.5t29 40.5 q4 13 17 22t27 9h124q18 0 27 -9.5t5 -26.5q-32 -130 -102.5 -193t-164.5 -63q-82 0 -154 44z" />
<glyph unicode="&#xf2;" horiz-adv-x="1380" d="M1309 518q-46 -238 -245.5 -390t-479.5 -152t-420.5 152t-94.5 390t246 390t480 152t420 -151.5t94 -390.5zM387 518q-30 -156 33.5 -240t205.5 -84t238.5 84t126.5 240t-33.5 240t-205.5 84t-238.5 -84t-126.5 -240zM964 1160h-143q-30 0 -50 18l-248 250 q-19 18 -7.5 45t39.5 27h237q29 0 44 -21l171 -254q13 -20 -2 -42.5t-41 -22.5z" />
<glyph unicode="&#xf3;" horiz-adv-x="1380" d="M1309 518q-46 -238 -245.5 -390t-479.5 -152t-420.5 152t-94.5 390t246 390t480 152t420 -151.5t94 -390.5zM387 518q-30 -156 33.5 -240t205.5 -84t238.5 84t126.5 240t-33.5 240t-205.5 84t-238.5 -84t-126.5 -240zM807 1160h-143q-26 0 -32.5 22.5t15.5 42.5l269 254 q24 21 52 21h237q28 0 29 -27t-25 -45l-346 -250q-23 -18 -56 -18z" />
<glyph unicode="&#xf4;" horiz-adv-x="1380" d="M1309 518q-46 -238 -245.5 -390t-479.5 -152t-420.5 152t-94.5 390t246 390t480 152t420 -151.5t94 -390.5zM387 518q-30 -156 33.5 -240t205.5 -84t238.5 84t126.5 240t-33.5 240t-205.5 84t-238.5 -84t-126.5 -240zM769 1500h222q30 0 41 -19l171 -262 q14 -20 1.5 -39.5t-38.5 -19.5h-162q-24 0 -37 18l-120 152l-180 -152q-20 -18 -43 -18h-162q-26 0 -31 19.5t16 39.5l273 262q19 19 49 19z" />
<glyph unicode="&#xf5;" horiz-adv-x="1380" d="M1309 518q-46 -238 -245.5 -390t-479.5 -152t-420.5 152t-94.5 390t246 390t480 152t420 -151.5t94 -390.5zM387 518q-30 -156 33.5 -240t205.5 -84t238.5 84t126.5 240t-33.5 240t-205.5 84t-238.5 -84t-126.5 -240zM833 1224q-65 42 -111 42q-31 0 -49 -10.5t-29 -40.5 q-12 -31 -44 -31h-124q-18 0 -27 9.5t-5 26.5q33 130 102.5 193t163.5 63q84 0 154 -44q65 -42 112 -42q31 0 49 10.5t29 40.5q4 13 17 22t27 9h124q18 0 27 -9.5t5 -26.5q-32 -130 -102.5 -193t-164.5 -63q-82 0 -154 44z" />
<glyph unicode="&#xf6;" horiz-adv-x="1380" d="M1309 518q-46 -238 -245.5 -390t-479.5 -152t-420.5 152t-94.5 390t246 390t480 152t420 -151.5t94 -390.5zM387 518q-30 -156 33.5 -240t205.5 -84t238.5 84t126.5 240t-33.5 240t-205.5 84t-238.5 -84t-126.5 -240zM451 1330q27 136 172 136q147 0 120 -136 q-26 -136 -172 -136t-120 136zM951 1330q27 136 172 136q147 0 120 -136q-26 -136 -172 -136t-120 136z" />
<glyph unicode="&#xf7;" horiz-adv-x="1320" d="M690 88q-160 0 -160 160q0 162 160 162t160 -162q0 -160 -160 -160zM690 916q-160 0 -160 160q0 162 160 162t160 -162q0 -160 -160 -160zM1201 550h-1022q-16 0 -27.5 11.5t-11.5 27.5v148q0 17 11 28t28 11h1022q16 0 27.5 -11.5t11.5 -27.5v-148q0 -16 -11.5 -27.5 t-27.5 -11.5z" />
<glyph unicode="&#xf8;" horiz-adv-x="1380" d="M1291 518q-46 -238 -245.5 -390t-479.5 -152q-136 0 -248 40l-190 -213q-20 -23 -51 -23h-100q-20 0 -24 13.5t11 30.5l230 259q-95 73 -132.5 185.5t-10.5 249.5q46 238 246 390t480 152q136 0 248 -41l189 214q20 23 52 23h100q20 0 24 -13.5t-12 -30.5l-230 -260 q95 -73 132.5 -185t10.5 -249zM973 518q27 134 -19 217l-462 -522q47 -19 116 -19q142 0 238.5 84t126.5 240zM369 518q-26 -137 18 -217l463 522q-52 19 -116 19q-142 0 -238.5 -84t-126.5 -240z" />
<glyph unicode="&#xf9;" horiz-adv-x="1394" d="M108 462l104 535q3 16 17 27.5t30 11.5h237q16 0 24.5 -11.5t5.5 -27.5l-102 -525q-28 -146 22.5 -212t183.5 -66q75 0 148.5 23.5t124.5 64.5l139 715q3 16 17 27.5t30 11.5h236q16 0 25 -11.5t6 -27.5l-186 -958q-3 -16 -16.5 -27.5t-29.5 -11.5h-236q-16 0 -25.5 11.5 t-6.5 27.5l9 47q-152 -110 -359 -110q-237 0 -340.5 123.5t-57.5 362.5zM920 1160h-143q-30 0 -50 18l-248 250q-19 18 -7.5 45t39.5 27h237q29 0 44 -21l171 -254q13 -20 -2 -42.5t-41 -22.5z" />
<glyph unicode="&#xfa;" horiz-adv-x="1394" d="M108 462l104 535q3 16 17 27.5t30 11.5h237q16 0 24.5 -11.5t5.5 -27.5l-102 -525q-28 -146 22.5 -212t183.5 -66q75 0 148.5 23.5t124.5 64.5l139 715q3 16 17 27.5t30 11.5h236q16 0 25 -11.5t6 -27.5l-186 -958q-3 -16 -16.5 -27.5t-29.5 -11.5h-236q-16 0 -25.5 11.5 t-6.5 27.5l9 47q-152 -110 -359 -110q-237 0 -340.5 123.5t-57.5 362.5zM855 1160h-143q-26 0 -32.5 22.5t15.5 42.5l269 254q24 21 52 21h237q28 0 29 -27t-25 -45l-346 -250q-23 -18 -56 -18z" />
<glyph unicode="&#xfb;" horiz-adv-x="1394" d="M108 462l104 535q3 16 17 27.5t30 11.5h237q16 0 24.5 -11.5t5.5 -27.5l-102 -525q-28 -146 22.5 -212t183.5 -66q75 0 148.5 23.5t124.5 64.5l139 715q3 16 17 27.5t30 11.5h236q16 0 25 -11.5t6 -27.5l-186 -958q-3 -16 -16.5 -27.5t-29.5 -11.5h-236q-16 0 -25.5 11.5 t-6.5 27.5l9 47q-152 -110 -359 -110q-237 0 -340.5 123.5t-57.5 362.5zM771 1500h222q30 0 41 -19l171 -262q14 -20 1.5 -39.5t-38.5 -19.5h-162q-24 0 -37 18l-120 152l-180 -152q-20 -18 -43 -18h-162q-26 0 -31 19.5t16 39.5l273 262q19 19 49 19z" />
<glyph unicode="&#xfc;" horiz-adv-x="1394" d="M108 462l104 535q3 16 17 27.5t30 11.5h237q16 0 24.5 -11.5t5.5 -27.5l-102 -525q-28 -146 22.5 -212t183.5 -66q75 0 148.5 23.5t124.5 64.5l139 715q3 16 17 27.5t30 11.5h236q16 0 25 -11.5t6 -27.5l-186 -958q-3 -16 -16.5 -27.5t-29.5 -11.5h-236q-16 0 -25.5 11.5 t-6.5 27.5l9 47q-152 -110 -359 -110q-237 0 -340.5 123.5t-57.5 362.5zM453 1330q27 136 172 136q147 0 120 -136q-26 -136 -172 -136t-120 136zM953 1330q27 136 172 136q147 0 120 -136q-26 -136 -172 -136t-120 136z" />
<glyph unicode="&#xfd;" horiz-adv-x="1344" d="M1122 1036h231q23 0 30.5 -17t-6.5 -38l-847 -1324q-26 -43 -70 -43h-230q-23 0 -31 17t5 38l209 331l-281 980q-6 21 8.5 38.5t37.5 17.5h225q41 0 49 -33l179 -681l428 681q21 33 63 33zM809 1160h-143q-26 0 -32.5 22.5t15.5 42.5l269 254q24 21 52 21h237 q28 0 29 -27t-25 -45l-346 -250q-23 -18 -56 -18z" />
<glyph unicode="&#xfe;" d="M616 1421l-92 -471q158 110 364 110q113 0 202.5 -37t145.5 -107t76.5 -170.5t-4.5 -227.5q-49 -249 -224.5 -395.5t-406.5 -146.5q-206 0 -321 110l-84 -433q-3 -16 -16.5 -27.5t-29.5 -11.5h-237q-16 0 -25 11.5t-6 27.5l344 1768q3 16 16.5 27.5t29.5 11.5h237 q16 0 25 -11.5t6 -27.5zM486 756l-92 -476q79 -86 227 -86q144 0 241 80.5t128 243.5q32 163 -33.5 243.5t-209.5 80.5q-147 0 -261 -86z" />
<glyph unicode="&#xff;" horiz-adv-x="1344" d="M1122 1036h231q23 0 30.5 -17t-6.5 -38l-847 -1324q-26 -43 -70 -43h-230q-23 0 -31 17t5 38l209 331l-281 980q-6 21 8.5 38.5t37.5 17.5h225q41 0 49 -33l179 -681l428 681q21 33 63 33zM431 1330q27 136 172 136q147 0 120 -136q-26 -136 -172 -136t-120 136z M931 1330q27 136 172 136q147 0 120 -136q-26 -136 -172 -136t-120 136z" />
<glyph unicode="&#x152;" horiz-adv-x="2060" d="M1840 0h-955q-446 0 -639.5 185t-129.5 515q64 329 330 514.5t711 185.5h937q16 0 25.5 -11.5t6.5 -28.5l-33 -169q-3 -16 -17.5 -27.5t-30.5 -11.5h-612l-60 -310h555q17 0 26 -12t5 -28l-32 -168q-4 -17 -17.5 -28.5t-29.5 -11.5h-555l-67 -346h630q16 0 25.5 -11.5 t6.5 -27.5l-33 -169q-3 -17 -17 -28.5t-30 -11.5zM448 700q-43 -219 67 -335.5t388 -116.5h29l175 904h-29q-542 0 -630 -452z" />
<glyph unicode="&#x153;" horiz-adv-x="2142" d="M591 194q132 0 214.5 84.5t112.5 239.5t-19.5 239.5t-181.5 84.5t-215.5 -84.5t-113.5 -239.5t20.5 -239.5t182.5 -84.5zM1275 624h102q209 0 307 24t111 90q10 51 -33 77.5t-133 26.5q-248 0 -354 -218zM1845 252q20 9 34 -0.5t12 -29.5l-11 -135q-2 -36 -36 -49 q-159 -62 -381 -62q-325 0 -453 192q-189 -192 -473 -192q-274 0 -394.5 147t-72.5 395q48 246 226 394t452 148q148 0 254 -52.5t153 -145.5q236 198 573 198q189 0 300.5 -90.5t84.5 -229.5q-31 -163 -220 -246.5t-516 -83.5h-146q4 -116 79.5 -166t220.5 -50 q192 0 314 58z" />
<glyph unicode="&#x178;" horiz-adv-x="1664" d="M838 0h-250q-16 0 -25.5 11.5t-6.5 28.5l99 510l-434 787q-11 21 4 42t41 21h237q56 0 77 -42l291 -544l501 544q40 42 95 42h237q26 0 32.5 -21t-13.5 -42l-740 -787l-99 -510q-3 -17 -16.5 -28.5t-29.5 -11.5zM643 1678q26 136 172 136t120 -136q-27 -136 -173 -136 t-119 136zM1143 1678q26 136 172 136t120 -136q-27 -136 -173 -136t-119 136z" />
<glyph unicode="&#x2c6;" horiz-adv-x="1008" d="M542 1460h222q31 0 42 -19l171 -262q13 -20 0.5 -39.5t-38.5 -19.5h-162q-23 0 -36 18l-121 152l-179 -152q-20 -18 -44 -18h-162q-26 0 -31 19.5t17 39.5l273 262q19 19 48 19z" />
<glyph unicode="&#x2dc;" horiz-adv-x="1008" d="M635 1186q-65 42 -112 42q-31 0 -49 -10.5t-29 -40.5q-4 -13 -17 -22t-27 -9h-124q-18 0 -27 9.5t-5 26.5q32 130 102.5 193t164.5 63q83 0 153 -44q65 -42 112 -42q31 0 49 10.5t29 40.5q12 31 44 31h124q18 0 27 -9.5t5 -26.5q-32 -130 -102.5 -193t-164.5 -63 q-83 0 -153 44z" />
<glyph unicode="&#x2000;" horiz-adv-x="960" />
<glyph unicode="&#x2001;" horiz-adv-x="1920" />
<glyph unicode="&#x2002;" horiz-adv-x="960" />
<glyph unicode="&#x2003;" horiz-adv-x="1920" />
<glyph unicode="&#x2004;" horiz-adv-x="640" />
<glyph unicode="&#x2005;" horiz-adv-x="480" />
<glyph unicode="&#x2006;" horiz-adv-x="320" />
<glyph unicode="&#x2007;" horiz-adv-x="320" />
<glyph unicode="&#x2008;" horiz-adv-x="240" />
<glyph unicode="&#x2009;" horiz-adv-x="384" />
<glyph unicode="&#x200a;" horiz-adv-x="106" />
<glyph unicode="&#x2010;" horiz-adv-x="858" d="M710 540h-561q-16 0 -25 11.5t-6 27.5l33 168q3 16 16.5 27.5t29.5 11.5h561q16 0 25 -11.5t6 -27.5l-33 -168q-3 -16 -16.5 -27.5t-29.5 -11.5z" />
<glyph unicode="&#x2011;" horiz-adv-x="858" d="M710 540h-561q-16 0 -25 11.5t-6 27.5l33 168q3 16 16.5 27.5t29.5 11.5h561q16 0 25 -11.5t6 -27.5l-33 -168q-3 -16 -16.5 -27.5t-29.5 -11.5z" />
<glyph unicode="&#x2012;" horiz-adv-x="858" d="M710 540h-561q-16 0 -25 11.5t-6 27.5l33 168q3 16 16.5 27.5t29.5 11.5h561q16 0 25 -11.5t6 -27.5l-33 -168q-3 -16 -16.5 -27.5t-29.5 -11.5z" />
<glyph unicode="&#x2013;" horiz-adv-x="1000" d="M963 550h-922q-16 0 -25 11.5t-6 27.5l29 148q3 17 16.5 28t29.5 11h922q16 0 25.5 -11.5t6.5 -27.5l-29 -148q-3 -16 -17 -27.5t-30 -11.5z" />
<glyph unicode="&#x2014;" horiz-adv-x="2000" d="M1963 550h-1922q-16 0 -25 11.5t-6 27.5l29 148q3 17 16.5 28t29.5 11h1922q16 0 25.5 -11.5t6.5 -27.5l-29 -148q-3 -16 -17 -27.5t-30 -11.5z" />
<glyph unicode="&#x2018;" horiz-adv-x="696" d="M626 1530q30 15 44 -13l22 -47q6 -13 1 -29t-18 -24q-100 -62 -139 -159q128 -18 101 -158q-31 -162 -205 -162q-175 0 -141 170q27 142 115 251t220 171z" />
<glyph unicode="&#x2019;" horiz-adv-x="696" d="M342 952q-14 -7 -26.5 -3t-18.5 16l-22 47q-6 12 -1 28.5t19 24.5q101 63 138 159q-128 18 -101 158q32 162 206 162q87 0 122 -41.5t19 -128.5q-28 -142 -115.5 -251t-219.5 -171z" />
<glyph unicode="&#x201a;" horiz-adv-x="696" d="M102 -292q-14 -7 -26.5 -3t-18.5 16l-22 47q-6 13 -0.5 29t18.5 24q101 63 139 159q-129 18 -102 158q32 162 206 162q87 0 122 -41.5t19 -128.5q-28 -142 -115.5 -251t-219.5 -171z" />
<glyph unicode="&#x201c;" horiz-adv-x="1164" d="M1094 1530q30 15 44 -13l22 -47q6 -13 1 -29t-18 -24q-100 -62 -139 -159q128 -18 101 -158q-31 -162 -205 -162q-175 0 -141 170q27 142 115 251t220 171zM626 1530q30 15 44 -13l22 -47q6 -13 1 -29t-18 -24q-100 -62 -139 -159q128 -18 101 -158q-31 -162 -205 -162 q-175 0 -141 170q27 142 115 251t220 171z" />
<glyph unicode="&#x201d;" horiz-adv-x="1164" d="M342 952q-14 -7 -26.5 -3t-18.5 16l-22 47q-6 12 -1 28.5t19 24.5q101 63 138 159q-128 18 -101 158q32 162 206 162q87 0 122 -41.5t19 -128.5q-28 -142 -115.5 -251t-219.5 -171zM810 952q-14 -7 -26.5 -3t-18.5 16l-22 47q-6 12 -1 28.5t19 24.5q101 63 138 159 q-128 18 -101 158q31 162 206 162q87 0 122 -41.5t19 -128.5q-28 -142 -115.5 -251t-219.5 -171z" />
<glyph unicode="&#x201e;" horiz-adv-x="1164" d="M102 -292q-14 -7 -26.5 -3t-18.5 16l-22 47q-6 13 -0.5 29t18.5 24q101 63 139 159q-129 18 -102 158q32 162 206 162q87 0 122 -41.5t19 -128.5q-28 -142 -115.5 -251t-219.5 -171zM570 -292q-14 -7 -26.5 -3t-18.5 16l-22 47q-6 13 -0.5 29t18.5 24q101 63 139 159 q-129 18 -102 158q32 162 206 162q87 0 122 -41.5t19 -128.5q-28 -142 -115.5 -251t-219.5 -171z" />
<glyph unicode="&#x2022;" horiz-adv-x="1000" d="M230 664q0 132 77 204t223 72t223 -72t77 -204t-77 -204t-223 -72t-223 72t-77 204z" />
<glyph unicode="&#x2026;" horiz-adv-x="2088" d="M99 138q31 162 206 162q173 0 142 -162t-205 -162t-143 162zM795 138q32 162 206 162q173 0 142 -162t-205 -162t-143 162zM1491 138q31 162 206 162q173 0 142 -162t-205 -162t-143 162z" />
<glyph unicode="&#x202f;" horiz-adv-x="384" />
<glyph unicode="&#x2039;" horiz-adv-x="684" d="M139 577l17 90q6 27 29 44l422 332q13 10 29 13.5t26.5 -6.5t5.5 -34l-30 -152q-3 -23 -29 -43l-260 -199l183 -199q17 -20 12 -43l-29 -152q-5 -24 -19 -34t-28.5 -6.5t-23.5 13.5l-294 332q-17 18 -11 44z" />
<glyph unicode="&#x203a;" horiz-adv-x="684" d="M575 667l-17 -90q-5 -25 -29 -44l-422 -332q-13 -10 -29 -13.5t-26.5 6.5t-5.5 34l29 152q5 24 30 43l259 199l-182 199q-16 19 -13 43l30 152q5 24 19 34t28.5 6.5t23.5 -13.5l294 -332q16 -19 11 -44z" />
<glyph unicode="&#x205f;" horiz-adv-x="480" />
<glyph unicode="&#x20ac;" horiz-adv-x="1478" d="M1095 504h-579q29 -134 144 -205t297 -71q181 0 329 53q21 7 34.5 -3.5t11.5 -30.5l-17 -174q-1 -13 -11.5 -24.5t-23.5 -16.5q-179 -56 -412 -56q-316 0 -499 139.5t-197 388.5h-101q-16 0 -25 11.5t-6 27.5l12 64q4 16 17.5 27.5t29.5 11.5h81q9 65 21 106h-81 q-16 0 -25.5 11.5t-6.5 27.5l13 64q3 16 16.5 27.5t29.5 11.5h101q110 247 346.5 388.5t548.5 141.5q231 0 385 -56q12 -5 17.5 -17t1.5 -24l-49 -170q-5 -20 -22.5 -30.5t-35.5 -3.5q-112 49 -308 49q-180 0 -320 -72.5t-220 -205.5h673q21 0 29.5 -15.5t-0.5 -34.5 l-32 -65q-5 -11 -18 -19t-24 -8h-685q-21 -52 -21 -106h627q21 0 29 -15.5t-1 -34.5l-31 -65q-5 -10 -18.5 -18.5t-24.5 -8.5z" />
<glyph unicode="&#x2122;" horiz-adv-x="1546" d="M254 777v473h-169q-16 0 -27.5 11.5t-11.5 27.5v73q0 16 11.5 27t27.5 11h524q16 0 27.5 -11t11.5 -27v-73q0 -16 -11.5 -27.5t-27.5 -11.5h-169v-473q0 -16 -11.5 -27.5t-27.5 -11.5h-108q-16 0 -27.5 11.5t-11.5 27.5zM1136 930h-96q-18 0 -32 16l-132 178v-347 q0 -16 -11.5 -27.5t-27.5 -11.5h-108q-16 0 -27.5 11.5t-11.5 27.5v585q0 16 11.5 27t27.5 11h126q19 0 32 -15l201 -273l201 273q13 15 32 15h126q16 0 27.5 -11t11.5 -27v-585q0 -16 -11.5 -27.5t-27.5 -11.5h-108q-16 0 -27.5 11.5t-11.5 27.5v347l-132 -178 q-14 -16 -32 -16z" />
<glyph unicode="&#x25fc;" horiz-adv-x="1035" d="M0 1035h1035v-1035h-1035v1035z" />
</font>
</defs>
</svg>
