<?xml version="1.0" standalone="no"?>
<!DOCTYPE svg PUBLIC "-//W3C//DTD SVG 1.1//EN" "http://www.w3.org/Graphics/SVG/1.1/DTD/svg11.dtd" >
<svg xmlns="http://www.w3.org/2000/svg">
<metadata></metadata>
<defs>
<font id="core_sans_nr_37_cn_lightIt" horiz-adv-x="1060" >
<font-face units-per-em="2000" ascent="1600" descent="-400" />
<missing-glyph horiz-adv-x="446" />
<glyph unicode="&#xfb01;" horiz-adv-x="900" d="M798 1346q12 62 35.5 88t64.5 26t54.5 -26t1.5 -88t-35.5 -88t-64.5 -26t-54.5 26t-1.5 88zM558 28l190 980q3 12 13 20t22 8h67q12 0 18.5 -8t3.5 -20l-190 -980q-2 -12 -11.5 -20t-21.5 -8h-67q-12 0 -19 8t-5 20zM702 1451q23 -5 17 -28l-15 -51q-6 -27 -37 -20 q-26 6 -57 6q-75 0 -118.5 -47.5t-68.5 -176.5l-19 -98h192q12 0 18.5 -8t3.5 -20l-8 -44q-2 -12 -12 -20t-22 -8h-192l-251 -1294q-2 -12 -12 -20t-23 -8h-67q-12 0 -18 8t-4 20l251 1294h-134q-12 0 -18 8t-4 20l8 44q7 28 34 28h134l20 102q32 165 109 243.5t209 78.5 q48 0 84 -9z" />
<glyph unicode="&#xfb02;" horiz-adv-x="900" d="M558 28l273 1404q2 12 12 20t22 8h67q12 0 18.5 -8t4.5 -20l-273 -1404q-2 -12 -11.5 -20t-21.5 -8h-67q-12 0 -19 8t-5 20zM702 1451q23 -5 17 -28l-15 -51q-6 -27 -37 -20q-26 6 -57 6q-75 0 -118.5 -47.5t-68.5 -176.5l-19 -98h192q12 0 18.5 -8t3.5 -20l-8 -44 q-2 -12 -12 -20t-22 -8h-192l-251 -1294q-2 -12 -12 -20t-23 -8h-67q-12 0 -18 8t-4 20l251 1294h-134q-12 0 -18 8t-4 20l8 44q7 28 34 28h134l20 102q32 165 109 243.5t209 78.5q48 0 84 -9z" />
<glyph unicode="&#xfb03;" horiz-adv-x="1372" d="M1270 1346q12 62 35.5 88t64.5 26t54.5 -26t1.5 -88t-35.5 -88t-64.5 -26t-54.5 26t-1.5 88zM1030 28l190 980q3 12 13 20t22 8h67q12 0 18.5 -8t3.5 -20l-190 -980q-2 -12 -11.5 -20t-21.5 -8h-67q-12 0 -19 8t-5 20zM705 1348q-38 10 -77 10q-93 0 -137 -46t-70 -178 l-19 -98h350l20 102q32 165 109 243.5t209 78.5q48 0 84 -9q23 -5 17 -28l-15 -51q-6 -27 -37 -20q-25 6 -57 6q-75 0 -118.5 -47.5t-68.5 -176.5l-19 -98h192q12 0 18.5 -8t3.5 -20l-8 -44q-2 -12 -12 -20t-22 -8h-192l-251 -1294q-2 -12 -12 -20t-23 -8h-67q-12 0 -18 8 t-4 20l251 1294h-350l-251 -1294q-2 -12 -12 -20t-23 -8h-67q-12 0 -18 8t-4 20l251 1294h-134q-12 0 -18 8t-4 20l8 44q7 28 34 28h134l20 102q32 168 110 245t228 77q60 0 103 -12q22 -7 18 -28l-15 -51q-8 -29 -37 -21z" />
<glyph unicode="&#xfb04;" horiz-adv-x="1372" d="M1030 28l273 1404q2 12 12 20t22 8h67q12 0 18.5 -8t4.5 -20l-273 -1404q-2 -12 -11.5 -20t-21.5 -8h-67q-12 0 -19 8t-5 20zM705 1348q-38 10 -77 10q-93 0 -137 -46t-70 -178l-19 -98h350l20 102q32 165 109 243.5t209 78.5q48 0 84 -9q23 -5 17 -28l-15 -51 q-6 -27 -37 -20q-25 6 -57 6q-75 0 -118.5 -47.5t-68.5 -176.5l-19 -98h192q12 0 18.5 -8t3.5 -20l-8 -44q-2 -12 -12 -20t-22 -8h-192l-251 -1294q-2 -12 -12 -20t-23 -8h-67q-12 0 -18 8t-4 20l251 1294h-350l-251 -1294q-2 -12 -12 -20t-23 -8h-67q-12 0 -18 8t-4 20 l251 1294h-134q-12 0 -18 8t-4 20l8 44q7 28 34 28h134l20 102q32 168 110 245t228 77q60 0 103 -12q22 -7 18 -28l-15 -51q-8 -29 -37 -21z" />
<glyph horiz-adv-x="666" />
<glyph horiz-adv-x="0" />
<glyph horiz-adv-x="0" />
<glyph unicode="&#xd;" horiz-adv-x="262" />
<glyph unicode=" "  horiz-adv-x="446" />
<glyph unicode="&#x09;" horiz-adv-x="446" />
<glyph unicode="&#xa0;" horiz-adv-x="446" />
<glyph unicode="!" horiz-adv-x="456" d="M66 86q13 62 36 88t64 26t55 -26t1 -88q-12 -62 -35.5 -88t-64.5 -26t-54.5 26t-1.5 88zM460 1372l-73 -378l-139 -617q-2 -11 -12 -19t-21 -8h-38q-11 0 -18 8t-5 19l101 617l73 378q2 12 12.5 20t22.5 8h74q12 0 18.5 -8t4.5 -20z" />
<glyph unicode="&#x22;" horiz-adv-x="718" d="M450 1290l-98 -417q-3 -11 -12.5 -19t-20.5 -8h-48q-12 0 -19 8t-5 19l87 498q2 12 12 20.5t22 8.5h76q12 0 18 -8t4 -20zM696 1290l-98 -417q-3 -11 -12.5 -19t-20.5 -8h-48q-12 0 -19 8t-5 19l87 498q2 12 12 20.5t22 8.5h76q12 0 18 -8t4 -20z" />
<glyph unicode="#" horiz-adv-x="1032" d="M1033 942h-147l-150 -462h147q12 0 18 -8t4 -20l-10 -53q-2 -12 -12 -20.5t-22 -8.5h-162l-111 -345q-3 -10 -12.5 -17.5t-20.5 -7.5h-63q-14 0 -20.5 9.5t-2.5 22.5l109 338h-276l-111 -345q-3 -10 -12.5 -17.5t-20.5 -7.5h-63q-14 0 -20.5 9.5t-2.5 22.5l109 338h-135 q-12 0 -18.5 8.5t-4.5 20.5l10 53q2 12 12.5 20t22.5 8h149l150 462h-149q-12 0 -19 8.5t-5 20.5l11 53q2 12 12 20t22 8h163l105 323q3 10 13 17.5t21 7.5h63q14 0 20 -9.5t2 -22.5l-102 -316h275l105 323q3 10 13 17.5t21 7.5h63q14 0 20 -9.5t2 -22.5l-102 -316h133 q12 0 18.5 -8t4.5 -20l-11 -53q-2 -12 -11.5 -20.5t-21.5 -8.5zM489 942l-150 -462h275l150 462h-275z" />
<glyph unicode="$" horiz-adv-x="824" d="M265 -150q-12 0 -18 8t-4 20l19 98q-144 -2 -251 49q-21 10 -15 33l16 63q4 17 17 23t29 -3q93 -53 218 -53h8l114 588q-139 66 -189 162.5t-23 237.5q27 139 121 229t235 112l21 109q2 12 12 20t22 8h40q12 0 18 -8t4 -20l-20 -102q107 -3 195 -39q21 -10 15 -33 l-14 -58q-4 -17 -17 -22.5t-29 2.5q-70 36 -171 38l-106 -545q137 -70 186.5 -167.5t21.5 -241.5q-30 -153 -123 -249.5t-237 -122.5l-21 -108q-2 -12 -12 -20t-22 -8h-40zM589 354q19 93 -6.5 159t-97.5 116l-102 -526q82 26 135 91t71 160zM316 1078q-17 -89 9.5 -151.5 t99.5 -111.5l94 485q-81 -22 -133.5 -79.5t-69.5 -142.5z" />
<glyph unicode="%" horiz-adv-x="1380" d="M1196 346q-33 -172 -117.5 -267t-199.5 -95t-161.5 94.5t-13.5 267.5t117 267.5t199 94.5t162 -95t14 -267zM1076 346q51 260 -76 260q-125 0 -176 -260t75 -260t177 260zM725 1052q-33 -173 -117 -267.5t-199 -94.5t-162 95t-14 267q33 173 117 267.5t199 94.5t162 -95 t14 -267zM605 1052q51 260 -75 260t-177 -260t75 -260t177 260zM202 32l930 1352q10 16 32 16h52q16 0 19 -9t-7 -23l-929 -1352q-11 -16 -32 -16h-52q-16 0 -19.5 9t6.5 23z" />
<glyph unicode="&#x26;" horiz-adv-x="994" d="M324 86q171 0 296 182l-229 398q-201 -124 -239 -326q-23 -113 24 -183.5t148 -70.5zM386 1116q-14 -56 -1.5 -124.5t56.5 -151.5l12 -22q109 66 160.5 137.5t68.5 156.5q19 99 -9 150.5t-100 51.5q-70 0 -119 -51t-68 -147zM765 15l-84 145q-154 -184 -380 -184 q-154 0 -231.5 96.5t-43.5 271.5q48 248 314 410l-12 22q-105 174 -71 342q28 144 120 225t219 81q126 0 185 -83.5t29 -234.5q-42 -221 -305 -378l189 -326q64 142 101 323q2 11 12.5 19t21.5 8h65q13 0 19 -8.5t4 -20.5q-58 -273 -155 -443l135 -235q10 -19 1.5 -32 t-28.5 -13h-71q-25 0 -34 15z" />
<glyph unicode="'" horiz-adv-x="472" d="M450 1290l-98 -417q-3 -11 -12.5 -19t-20.5 -8h-48q-12 0 -19 8t-5 19l87 498q2 12 12 20.5t22 8.5h76q12 0 18 -8t4 -20z" />
<glyph unicode="(" horiz-adv-x="578" d="M197 620q45 230 152 451t261 412q13 17 38 17h43q14 0 17 -10t-7 -23q-297 -390 -386 -847q-88 -455 56 -847q5 -13 -1.5 -23t-20.5 -10h-43q-25 0 -32 17q-80 190 -100.5 406.5t23.5 456.5z" />
<glyph unicode=")" horiz-adv-x="578" d="M407 620q-45 -230 -152 -451t-261 -412q-13 -17 -38 -17h-43q-14 0 -17 10t7 23q297 390 386 847q88 455 -56 847q-5 13 1.5 23t20.5 10h43q25 0 32 -17q80 -190 100.5 -406.5t-23.5 -456.5z" />
<glyph unicode="*" horiz-adv-x="1004" d="M629 664l272 -145q11 -6 14 -18t-3 -22l-34 -59q-6 -10 -18 -13t-22 3l-261 163l11 -306q1 -12 -8 -20.5t-21 -8.5h-68q-12 0 -21 8.5t-8 20.5l11 306l-261 -162q-11 -7 -22.5 -4t-17.5 14l-34 59q-6 10 -3 22.5t14 17.5l272 144l-272 145q-11 6 -14 18t3 22l34 59 q6 10 18 13t22 -3l261 -164l-11 307q-1 12 8 20.5t21 8.5h68q12 0 21 -8.5t8 -20.5l-11 -307l261 163q11 7 22.5 4t17.5 -14l34 -59q6 -10 3 -22.5t-14 -17.5z" />
<glyph unicode="+" d="M496 211v397h-358q-12 0 -20 8t-8 20v56q0 12 8 20t20 8h358v397q0 12 8 20.5t20 8.5h72q12 0 20 -8.5t8 -20.5v-397h358q12 0 20 -8t8 -20v-56q0 -12 -8 -20t-20 -8h-358v-397q0 -12 -8 -20.5t-20 -8.5h-72q-12 0 -20 8.5t-8 20.5z" />
<glyph unicode="," horiz-adv-x="360" d="M-47 -171q80 78 92 145q-26 10 -33 35.5t3 76.5q13 62 36 88t64 26q42 0 55 -27t0 -93q-19 -99 -60.5 -173t-116.5 -136q-10 -9 -19.5 -9t-13.5 8l-14 31q-6 15 7 28z" />
<glyph unicode="-" horiz-adv-x="712" d="M598 604h-456q-12 0 -18.5 8t-4.5 20l13 64q2 12 11.5 20t21.5 8h456q12 0 18.5 -8t4.5 -20l-13 -64q-2 -12 -11.5 -20t-21.5 -8z" />
<glyph unicode="." horiz-adv-x="360" d="M19 88q12 62 35 87t64 25t55 -25t2 -87q-13 -62 -36 -87t-64 -25t-54.5 25t-1.5 87z" />
<glyph unicode="/" horiz-adv-x="708" d="M-151 -187l928 1664q9 19 29 19h73q32 0 14 -33l-929 -1664q-10 -19 -29 -19h-72q-32 0 -14 33z" />
<glyph unicode="0" horiz-adv-x="900" d="M344 -24q-191 0 -252 175t9 549q71 369 202 546.5t322 177.5t252.5 -175t-8.5 -549q-72 -369 -203 -546.5t-322 -177.5zM366 88q129 0 219 142t154 470q45 223 40.5 359t-47.5 194.5t-128 58.5q-129 0 -219.5 -142t-153.5 -470q-46 -223 -41 -359t48 -194.5t128 -58.5z " />
<glyph unicode="1" horiz-adv-x="900" d="M563 1236l-210 -176q-27 -22 -42 2l-24 37q-13 20 9 39l290 243q23 19 48 19h60q12 0 18.5 -8t4.5 -20l-261 -1344q-2 -12 -12 -20t-22 -8h-71q-12 0 -18.5 8t-4.5 20z" />
<glyph unicode="2" horiz-adv-x="900" d="M324 1371q120 53 244 53q168 0 245 -96.5t42 -279.5q-23 -122 -90.5 -244.5t-186.5 -267.5q-202 -245 -391 -426h462q12 0 18.5 -8t3.5 -21l-10 -53q-2 -12 -11.5 -20t-21.5 -8h-598q-12 0 -18.5 8t-4.5 20l9 45q5 26 26 47q230 219 437 476q208 255 245 446 q25 129 -26.5 199.5t-162.5 70.5q-107 0 -204 -45q-16 -8 -27.5 -2t-9.5 22l7 53q3 23 23 31z" />
<glyph unicode="3" horiz-adv-x="900" d="M69 139q88 -51 207 -51q126 0 209.5 75t106.5 195q28 143 -48.5 224t-249.5 94q-10 1 -16.5 9t-4.5 19l11 57q2 11 11.5 19t20.5 9q160 9 267.5 84.5t132.5 206.5q21 104 -25.5 168t-166.5 64q-109 0 -214 -46q-17 -7 -28 -2t-10 21l8 58q1 21 27 32q109 49 250 49 q172 0 246.5 -90t45.5 -240q-28 -146 -121.5 -236.5t-232.5 -125.5q136 -36 194.5 -132.5t30.5 -241.5q-33 -172 -156.5 -277t-309.5 -105q-135 0 -231 52q-21 10 -15 32l16 60q4 16 17.5 21.5t27.5 -2.5z" />
<glyph unicode="4" horiz-adv-x="900" d="M700 1178l-541 -750h396zM477 28l56 290h-492q-12 0 -18 8.5t-4 20.5l11 58q6 28 27 57l661 913q18 25 49 25h76q12 0 18.5 -8t4.5 -20l-183 -944h105q12 0 18.5 -8t4.5 -20l-10 -53q-2 -12 -12.5 -20.5t-22.5 -8.5h-105l-56 -290q-2 -12 -12 -20t-22 -8h-71 q-12 0 -18.5 8t-4.5 20z" />
<glyph unicode="5" horiz-adv-x="900" d="M57 20q-20 12 -15 36l15 57q5 16 19 21.5t27 -2.5q74 -44 186 -44q130 0 224.5 87t126.5 247q29 153 -23.5 237.5t-186.5 84.5q-93 0 -185 -34q-17 -6 -27.5 1.5t-7.5 23.5l124 637q2 12 12 20t22 8h531q13 0 19 -8t4 -20l-10 -54q-2 -12 -12 -20t-23 -8h-431l-90 -462 q68 26 142 26q158 0 234.5 -113t37.5 -319q-41 -207 -169.5 -326.5t-327.5 -119.5q-131 0 -216 44z" />
<glyph unicode="6" horiz-adv-x="900" d="M528 786q-154 0 -286 -156q-20 -111 -24 -203t9.5 -171t56.5 -123.5t113 -44.5q103 0 182 95.5t109 252.5q33 167 -8 258.5t-152 91.5zM856 1285q-64 27 -153 27q-69 0 -128.5 -27.5t-115.5 -88t-103.5 -167t-83.5 -255.5q130 124 292 124q160 0 228.5 -120.5 t26.5 -339.5q-43 -218 -162.5 -340t-279.5 -122q-124 0 -196 72t-91 225t29 391q76 392 232 576t373 184q98 0 176 -28q23 -8 17 -32l-14 -57q-5 -17 -17.5 -23t-29.5 1z" />
<glyph unicode="7" horiz-adv-x="900" d="M154 37l630 1253h-513q-12 0 -18.5 8t-4.5 20l10 54q2 12 12.5 20t22.5 8h619q12 0 18 -8t4 -20l-12 -62q-6 -31 -21 -60l-613 -1220q-15 -30 -46 -30h-72q-35 0 -16 37z" />
<glyph unicode="8" horiz-adv-x="900" d="M42 358q47 246 330 378q-186 133 -146 344q31 156 139 250t258 94q151 0 225 -92.5t43 -247.5q-24 -121 -100.5 -209t-187.5 -141q38 -24 66 -45.5t54.5 -49t41.5 -55.5t27 -64.5t10 -75.5t-9 -90q-34 -175 -158 -276.5t-291 -101.5q-168 0 -252.5 101t-49.5 281z M665 352q6 30 6.5 57.5t-5.5 51.5t-14.5 44.5t-24 40t-31.5 36t-39 34t-44 31.5t-49 31q-118 -47 -195.5 -130.5t-98.5 -191.5q-24 -125 31 -196.5t165 -71.5q109 0 192 72t107 192zM357 1084q-20 -103 22 -169.5t133 -124.5q211 91 252 296q20 105 -23.5 165.5t-138.5 60.5 q-89 0 -157 -62t-88 -166z" />
<glyph unicode="9" horiz-adv-x="900" d="M441 614q156 0 286 156q20 111 24 203t-9.5 171t-56 123.5t-112.5 44.5q-103 0 -182.5 -95.5t-109.5 -252.5q-33 -167 8 -258.5t152 -91.5zM113 115q65 -27 154 -27q69 0 128 27.5t115 88t103.5 167t83.5 255.5q-130 -124 -292 -124q-160 0 -228.5 120.5t-26.5 339.5 q43 218 162.5 340t279.5 122q188 0 257 -169t2 -519q-77 -392 -233 -576t-373 -184q-98 0 -176 28q-23 8 -17 32l15 57q4 17 16.5 23t29.5 -1z" />
<glyph unicode=":" horiz-adv-x="360" d="M19 88q12 62 35 87t64 25t55 -25t2 -87q-13 -62 -36 -87t-64 -25t-54.5 25t-1.5 87zM186 948q12 62 35 87t65 25q41 0 54.5 -25t1.5 -87q-13 -62 -36 -87t-64 -25q-42 0 -55 25t-1 87z" />
<glyph unicode=";" horiz-adv-x="360" d="M183 948q12 62 35.5 87t64.5 25t54.5 -25t1.5 -87q-13 -62 -36 -87t-64 -25t-54.5 25t-1.5 87zM-47 -171q80 78 92 145q-26 10 -33 35.5t3 76.5q13 62 36 88t64 26q42 0 55 -27t0 -93q-19 -99 -60.5 -173t-116.5 -136q-10 -9 -19.5 -9t-13.5 8l-14 31q-6 15 7 28z" />
<glyph unicode="&#x3c;" d="M110 637v54q0 29 26 42l833 413q17 9 29 3t12 -25v-47q0 -29 -26 -42l-754 -371l754 -371q26 -13 26 -42v-47q0 -19 -12 -25t-29 3l-833 413q-26 13 -26 42z" />
<glyph unicode="=" d="M982 828h-844q-12 0 -20 8t-8 20v55q0 12 8 20.5t20 8.5h844q12 0 20 -8.5t8 -20.5v-55q0 -12 -8 -20t-20 -8zM982 388h-844q-12 0 -20 8.5t-8 20.5v55q0 12 8 20t20 8h844q12 0 20 -8t8 -20v-55q0 -12 -8 -20.5t-20 -8.5z" />
<glyph unicode="&#x3e;" d="M1010 691v-54q0 -29 -26 -42l-833 -413q-17 -9 -29 -3t-12 25v47q0 29 26 42l754 371l-754 371q-26 13 -26 42v47q0 19 12 25t29 -3l833 -413q26 -13 26 -42z" />
<glyph unicode="?" horiz-adv-x="816" d="M178 86q13 62 36 88t64 26t55 -26t1 -88q-12 -62 -35.5 -88t-64.5 -26t-54.5 26t-1.5 88zM267 1370q118 54 247 54q170 0 246.5 -89.5t46.5 -246.5q-20 -101 -82.5 -193t-179.5 -189q-69 -57 -104.5 -126.5t-57.5 -181.5l-4 -20q-2 -12 -11.5 -20t-21.5 -8h-71 q-12 0 -19 8t-5 20l5 26q27 135 77 224.5t143 165.5q94 75 140 145t62 153q20 102 -30 161t-165 59q-110 0 -211 -52q-18 -9 -29 -4t-9 21l7 59q3 23 26 34z" />
<glyph unicode="@" horiz-adv-x="1464" d="M1107 756l-124 -374q-16 -87 1 -138.5t60 -51.5q80 0 150 114.5t103 283.5q40 223 7 384.5t-143 252.5t-280 91q-246 0 -436.5 -207.5t-259.5 -562.5q-68 -349 49.5 -557.5t371.5 -208.5q201 0 357 94q34 20 39 -11l8 -47q3 -26 -22 -40q-180 -102 -402 -102 q-201 0 -335.5 108.5t-179 302.5t3.5 461q78 401 306 638.5t520 237.5q196 0 328 -100.5t179 -286t-1 -447.5q-41 -215 -147 -353.5t-238 -138.5q-67 0 -104 47t-36 129q-141 -164 -324 -164q-125 0 -179.5 93t-24.5 247q31 160 115 286t190 191t212 65q166 0 237 -138 q19 -41 -1 -98zM588 212q153 0 285 182l128 400q-41 98 -151 98q-118 0 -229.5 -125t-146.5 -309q-23 -118 7 -182t107 -64z" />
<glyph unicode="A" horiz-adv-x="956" d="M616 1260l-350 -766h404zM597 1400h94q32 0 35 -32l110 -1332q3 -36 -33 -36h-65q-33 0 -35 29l-27 355h-460l-165 -355q-14 -29 -45 -29h-65q-37 0 -21 36l628 1332q16 32 49 32z" />
<glyph unicode="B" horiz-adv-x="972" d="M404 0h-337q-12 0 -19 8t-5 21l261 1342q2 12 12.5 20.5t22.5 8.5h325q169 0 243.5 -97.5t41.5 -266.5q-21 -106 -79 -184t-141 -116q95 -39 133 -129.5t14 -214.5q-37 -192 -158.5 -292t-313.5 -100zM317 780h250q97 0 163 68.5t88 183.5q23 121 -25.5 189.5 t-160.5 68.5h-216zM745 390q30 152 -33.5 216t-217.5 64h-198l-109 -560h228q136 0 220 72.5t110 207.5z" />
<glyph unicode="C" horiz-adv-x="918" d="M741 118q17 6 27.5 0t9.5 -22l-5 -54q-3 -22 -25 -31q-93 -35 -214 -35q-132 0 -229.5 52t-150.5 146.5t-68 228t19 297.5q64 330 252.5 527t451.5 197q115 0 196 -36q19 -9 13 -32l-13 -54q-5 -16 -18 -22t-28 0q-75 32 -165 32q-204 0 -354 -164t-205 -448 q-56 -285 31 -448.5t292 -163.5q102 0 183 30z" />
<glyph unicode="D" horiz-adv-x="1026" d="M860 700q59 308 -13.5 449t-298.5 141h-132l-229 -1180h132q226 0 353 140.5t188 449.5zM339 1400h231q280 0 384.5 -170.5t35.5 -529.5q-71 -360 -241.5 -530t-450.5 -170h-231q-13 0 -19.5 8t-4.5 21l261 1342q2 13 12 21t23 8z" />
<glyph unicode="E" horiz-adv-x="872" d="M187 110h515q12 0 19 -8t4 -20l-10 -53q-2 -13 -12 -21t-22 -8h-614q-12 0 -19 8t-5 21l261 1342q2 12 12.5 20.5t22.5 8.5h600q13 0 19 -8t4 -21l-10 -53q-2 -12 -12 -20t-23 -8h-501l-100 -514h465q12 0 19 -8.5t5 -20.5l-10 -52q-3 -12 -13 -20.5t-22 -8.5h-465z" />
<glyph unicode="F" horiz-adv-x="828" d="M43 29l261 1342q2 12 12.5 20.5t22.5 8.5h600q13 0 19 -8t4 -21l-10 -53q-2 -12 -12 -20t-23 -8h-501l-98 -508h465q12 0 18.5 -8.5t4.5 -20.5l-10 -52q-2 -12 -12.5 -20.5t-22.5 -8.5h-465l-125 -643q-2 -13 -12 -21t-22 -8h-70q-12 0 -19 8t-5 21z" />
<glyph unicode="G" horiz-adv-x="1082" d="M1082 1364q17 -11 11 -34l-14 -55q-4 -16 -18 -22t-27 2q-92 57 -238 57q-204 0 -355 -163.5t-206 -448.5q-56 -285 32.5 -448.5t298.5 -163.5q124 0 195 36l99 512h-282q-12 0 -18.5 8t-3.5 20l10 53q2 13 12 21t22 8h377q13 0 19 -8t4 -21l-121 -622q-9 -48 -53 -67 q-124 -52 -286 -52q-265 0 -383 192.5t-52 531.5q65 335 257 529.5t453 194.5q166 0 267 -60z" />
<glyph unicode="H" horiz-adv-x="1080" d="M43 29l261 1342q2 13 12 21t23 8h71q12 0 18 -8t4 -21l-111 -569h544l111 569q2 13 12 21t23 8h70q12 0 18.5 -8t4.5 -21l-261 -1342q-2 -13 -12 -21t-22 -8h-70q-13 0 -19.5 8t-4.5 21l129 663h-544l-129 -663q-2 -13 -11.5 -21t-21.5 -8h-71q-13 0 -19.5 8t-4.5 21z " />
<glyph unicode="I" horiz-adv-x="428" d="M349 1400h70q12 0 18.5 -8t4.5 -21l-261 -1342q-2 -13 -12 -21t-22 -8h-70q-12 0 -19 8t-5 21l261 1342q2 12 12.5 20.5t22.5 8.5z" />
<glyph unicode="J" horiz-adv-x="680" d="M-65 6q-25 11 -16 42l13 47q5 16 16.5 22t26.5 -1q62 -28 141 -28q117 0 178.5 78.5t102.5 287.5l178 917q2 12 12.5 20.5t22.5 8.5h70q12 0 18.5 -8t4.5 -21l-179 -921q-51 -260 -146 -367t-278 -107q-100 0 -165 30z" />
<glyph unicode="K" horiz-adv-x="908" d="M662 22l-356 700l-135 -693q-2 -13 -12 -21t-22 -8h-70q-12 0 -19 8t-5 21l261 1342q2 12 12.5 20.5t22.5 8.5h70q12 0 18.5 -8t4.5 -21l-118 -607l554 614q20 22 49 22h66q21 0 24.5 -12t-11.5 -28l-557 -614l365 -706q9 -16 1 -28t-29 -12h-74q-29 0 -40 22z" />
<glyph unicode="L" horiz-adv-x="860" d="M43 29l261 1342q2 13 12 21t22 8h72q12 0 18 -8t4 -21l-245 -1261h543q12 0 19 -8t4 -20l-10 -53q-2 -13 -12 -21t-22 -8h-643q-12 0 -18.5 8t-4.5 21z" />
<glyph unicode="M" horiz-adv-x="1292" d="M674 476h-76q-36 0 -43 33l-148 753l-240 -1233q-2 -13 -12 -21t-22 -8h-66q-12 0 -19 8t-5 21l261 1342q2 12 12.5 20.5t22.5 8.5h136q29 0 35 -29l154 -751l446 751q16 29 47 29h136q12 0 18.5 -8t4.5 -21l-261 -1342q-2 -13 -12 -21t-22 -8h-66q-12 0 -19 8t-5 21 l240 1233l-442 -753q-20 -33 -55 -33z" />
<glyph unicode="N" horiz-adv-x="1086" d="M655 29l-255 1197l-233 -1197q-2 -13 -12 -21t-22 -8h-66q-13 0 -19.5 8t-4.5 21l261 1342q2 13 12 21t23 8h124q29 0 35 -29l255 -1197l233 1197q2 12 12.5 20.5t22.5 8.5h66q13 0 19 -8t4 -21l-261 -1342q-2 -13 -11.5 -21t-22.5 -8h-124q-30 0 -36 29z" />
<glyph unicode="O" d="M425 -24q-226 0 -306.5 188t-12.5 536q67 347 221.5 535.5t378.5 188.5q225 0 306 -188.5t14 -535.5q-68 -349 -221.5 -536.5t-379.5 -187.5zM447 88q330 0 449 612q118 612 -211 612q-331 0 -449 -612q-119 -612 211 -612z" />
<glyph unicode="P" horiz-adv-x="906" d="M271 544l-100 -515q-2 -13 -11.5 -21t-21.5 -8h-72q-12 0 -18.5 8t-4.5 21l261 1342q2 13 12 21t22 8h270q189 0 274 -110t44 -318q-40 -208 -168 -318t-317 -110h-170zM796 972q62 318 -214 318h-166l-123 -636h166q276 0 337 318z" />
<glyph unicode="Q" d="M446 88q330 0 449 612q118 612 -211 612q-331 0 -449 -612q-119 -612 211 -612zM759 -289q-60 -17 -130 -17q-127 0 -195 71t-56 213q-200 19 -268.5 205.5t-4.5 516.5q67 347 221.5 535.5t378.5 188.5q225 0 306 -188.5t14 -535.5q-62 -319 -197 -504.5t-331 -213.5 q-13 -90 29 -139t126 -49q54 0 109 15q35 10 32 -22l-3 -43q-3 -25 -31 -33z" />
<glyph unicode="R" horiz-adv-x="938" d="M830 1000q27 140 -27 215t-185 75h-202l-112 -580h202q131 0 214 75t110 215zM682 28l-158 572h-242l-111 -571q-2 -13 -11.5 -21t-22.5 -8h-70q-12 0 -19 8t-5 21l261 1342q2 12 12.5 20.5t22.5 8.5h305q184 0 268.5 -106t47.5 -294q-27 -142 -108 -239.5t-201 -136.5 l163 -583q6 -18 -3 -29.5t-30 -11.5h-60q-33 0 -39 28z" />
<glyph unicode="S" horiz-adv-x="824" d="M11 25q-21 10 -15 33l16 63q4 17 17 23t29 -3q93 -53 218 -53q126 0 207.5 70.5t105.5 195.5q22 115 -21 189.5t-161 128.5q-145 66 -197 163.5t-24 240.5q31 160 149 254t290 94q117 0 209 -39q21 -10 15 -33l-14 -58q-4 -17 -17 -22.5t-29 2.5q-72 38 -175 38 q-119 0 -198 -62.5t-100 -171.5q-21 -108 22.5 -178t160.5 -126q145 -71 197.5 -169.5t23.5 -246.5q-35 -181 -157.5 -281.5t-310.5 -100.5q-137 0 -241 49z" />
<glyph unicode="T" horiz-adv-x="808" d="M242 29l245 1261h-301q-12 0 -18.5 8t-4.5 20l10 53q2 12 12.5 20.5t22.5 8.5h730q12 0 18.5 -8t4.5 -21l-10 -53q-2 -12 -12.5 -20t-22.5 -8h-301l-245 -1261q-2 -13 -12 -21t-22 -8h-70q-12 0 -19 8t-5 21z" />
<glyph unicode="U" horiz-adv-x="1100" d="M444 -24q-410 0 -312 506l173 889q2 13 12 21t23 8h70q12 0 18.5 -8t4.5 -21l-173 -889q-40 -208 12 -301t194 -93t230 93t128 301l173 889q2 12 12.5 20.5t22.5 8.5h70q13 0 19 -8t4 -21l-173 -889q-98 -506 -508 -506z" />
<glyph unicode="V" horiz-adv-x="998" d="M337 1371l87 -1231l565 1231q14 29 46 29h65q36 0 20 -36l-628 -1332q-16 -32 -48 -32h-94q-33 0 -36 32l-110 1332q-3 36 34 36h65q32 0 34 -29z" />
<glyph unicode="W" horiz-adv-x="1460" d="M848 1400h108q27 0 27 -28l-21 -1238l496 1238q10 28 39 28h69q16 0 22 -10t0 -25l-549 -1336q-12 -29 -39 -29h-131q-29 0 -29 29l21 1163l-431 -1163q-11 -29 -39 -29h-131q-28 0 -29 29l-29 1336q0 15 10 25t26 10h69q27 0 27 -28l16 -1238l459 1238q11 28 39 28z" />
<glyph unicode="X" horiz-adv-x="968" d="M687 22l-203 560l-421 -560q-17 -22 -44 -22h-63q-22 0 -26.5 12t9.5 31l499 665l-234 649q-7 19 2.5 31t31.5 12h63q27 0 35 -22l197 -544l407 544q17 22 45 22h63q22 0 26 -12t-10 -31l-486 -649l241 -665q7 -19 -2 -31t-31 -12h-63q-28 0 -36 22z" />
<glyph unicode="Y" horiz-adv-x="972" d="M417 0h-70q-12 0 -19 8t-5 21l103 527l-217 801q-5 20 4 31.5t30 11.5h59q29 0 36 -25l178 -685l444 685q16 25 46 25h59q44 0 16 -43l-527 -801l-103 -527q-2 -13 -12 -21t-22 -8z" />
<glyph unicode="Z" horiz-adv-x="840" d="M906 1264l-793 -1154h568q12 0 18.5 -8t3.5 -20l-10 -53q-2 -13 -11.5 -21t-21.5 -8h-683q-13 0 -19.5 8t-4.5 21l11 58q5 26 21 49l793 1154h-529q-12 0 -18.5 8t-4.5 20l10 53q2 12 12.5 20.5t22.5 8.5h644q13 0 19 -8t4 -21l-11 -58q-5 -26 -21 -49z" />
<glyph unicode="[" horiz-adv-x="668" d="M199 -150h257q12 0 19 -8.5t5 -20.5l-11 -53q-2 -12 -12 -20t-22 -8h-351q-12 0 -18.5 8t-4.5 20l332 1704q2 12 11.5 20t21.5 8h351q12 0 19 -8t5 -20l-11 -53q-2 -12 -12 -20.5t-22 -8.5h-257z" />
<glyph unicode="\" horiz-adv-x="708" d="M295 1477l281 -1664q5 -33 -26 -33h-73q-20 0 -23 19l-281 1664q-5 33 26 33h73q20 0 23 -19z" />
<glyph unicode="]" horiz-adv-x="668" d="M-52 -150h257l300 1540h-257q-12 0 -19 8.5t-5 20.5l11 53q2 12 12 20t22 8h351q12 0 18.5 -8t4.5 -20l-332 -1704q-2 -12 -11.5 -20t-21.5 -8h-351q-12 0 -19 8t-5 20l11 53q2 12 12 20.5t22 8.5z" />
<glyph unicode="^" d="M498 1400h102q26 0 38 -19l348 -600q11 -18 4.5 -30.5t-26.5 -12.5h-65q-26 0 -40 24l-310 530l-310 -530q-14 -24 -40 -24h-65q-20 0 -26.5 12.5t4.5 30.5l348 600q12 19 38 19z" />
<glyph unicode="_" horiz-adv-x="770" d="M-159 -294l9 44q2 12 12 20t22 8h711q13 0 19.5 -8t4.5 -20l-9 -44q-2 -12 -11.5 -20t-22.5 -8h-711q-12 0 -19 8t-5 20z" />
<glyph unicode="`" horiz-adv-x="640" d="M458 1436l112 -262q7 -17 -1 -27.5t-26 -10.5h-46q-27 0 -37 19l-139 257q-11 20 -9 32q3 16 25 16h80q30 0 41 -24z" />
<glyph unicode="a" horiz-adv-x="854" d="M185 518q-85 -440 159 -440q54 0 111 32t102 86l125 644q-24 54 -68.5 86t-98.5 32q-122 0 -204 -108t-126 -332zM524 28l10 52q-109 -104 -238 -104q-165 0 -226.5 138t-10.5 404q52 266 167.5 404t280.5 138q129 0 197 -104l10 52q7 28 34 28h67q12 0 19 -8t4 -20 l-190 -980q-2 -12 -12 -20t-22 -8h-67q-12 0 -18.5 8t-4.5 20z" />
<glyph unicode="b" horiz-adv-x="854" d="M147 80l-10 -52q-2 -12 -11.5 -20t-21.5 -8h-68q-12 0 -18.5 8t-4.5 20l273 1404q2 12 11.5 20t21.5 8h68q12 0 18.5 -8t4.5 -20l-93 -476q109 104 239 104q165 0 226.5 -138t9.5 -404q-51 -266 -166.5 -404t-280.5 -138q-130 0 -198 104zM666 518q87 440 -158 440 q-54 0 -111 -32t-102 -86l-125 -644q24 -54 68.5 -86t98.5 -32q244 0 329 440z" />
<glyph unicode="c" horiz-adv-x="736" d="M560 103q17 7 27 1.5t9 -21.5l-4 -41q-3 -24 -26 -34q-78 -32 -177 -32q-207 0 -293.5 140.5t-35.5 401.5q50 259 191.5 400.5t340.5 141.5q88 0 163 -32q22 -9 14 -35l-12 -41q-11 -35 -44 -20q-58 26 -131 26q-148 0 -251 -112t-145 -328q-43 -221 18.5 -330.5 t216.5 -109.5q71 0 139 25z" />
<glyph unicode="d" horiz-adv-x="854" d="M524 28l10 52q-109 -104 -238 -104q-165 0 -226.5 138t-10.5 404q52 266 167.5 404t280.5 138q129 0 197 -104l93 476q2 12 11.5 20t21.5 8h68q12 0 18.5 -8t4.5 -20l-273 -1404q-2 -12 -11.5 -20t-21.5 -8h-68q-12 0 -18.5 8t-4.5 20zM185 518q-85 -440 159 -440 q54 0 111 32t102 86l125 644q-24 54 -68.5 86t-98.5 32q-122 0 -204 -108t-126 -332z" />
<glyph unicode="e" horiz-adv-x="808" d="M400 78q93 0 169 35q17 7 28 2.5t10 -20.5l-5 -44q-1 -22 -25 -34q-90 -41 -205 -41q-203 0 -283 140.5t-29 405.5q51 266 183.5 402t311.5 136q136 0 207 -76.5t47 -199.5q-28 -145 -166 -228.5t-363 -83.5h-104q-31 -205 25.5 -299.5t198.5 -94.5zM529 958 q-111 0 -198.5 -95t-134.5 -291h80q179 0 283 54.5t124 157.5q15 79 -29 126.5t-125 47.5z" />
<glyph unicode="f" horiz-adv-x="536" d="M702 1451q23 -5 17 -28l-15 -51q-6 -27 -37 -20q-26 6 -57 6q-75 0 -118.5 -47.5t-68.5 -176.5l-19 -98h192q12 0 18.5 -8t3.5 -20l-8 -44q-2 -12 -12 -20t-22 -8h-192l-251 -1294q-2 -12 -12 -20t-23 -8h-67q-12 0 -18 8t-4 20l251 1294h-134q-12 0 -18 8t-4 20l8 44 q7 28 34 28h134l20 102q32 165 109 243.5t209 78.5q48 0 84 -9z" />
<glyph unicode="g" horiz-adv-x="854" d="M46 -253q77 -37 173 -37q130 0 204.5 74t104.5 228l13 68q-109 -104 -238 -104q-165 0 -226.5 138t-10.5 404q52 266 167.5 404t280.5 138q129 0 197 -104l10 52q7 28 34 28h64q13 0 21 -8t5 -20l-189 -972q-44 -230 -152.5 -333t-301.5 -103q-116 0 -197 36 q-23 10 -16 38l13 53q4 16 17 21.5t27 -1.5zM192 518q-85 -440 159 -440q54 0 111 32t102 86l125 644q-24 54 -68.5 86t-98.5 32q-122 0 -204 -108t-126 -332z" />
<glyph unicode="h" horiz-adv-x="864" d="M410 1432l-93 -476q51 49 118 76.5t137 27.5q144 0 200.5 -100t17.5 -300l-123 -632q-2 -12 -12 -20t-22 -8h-67q-12 0 -18.5 8t-4.5 20l112 574q38 189 8 272.5t-139 83.5q-137 0 -229 -118l-158 -812q-2 -12 -12 -20t-22 -8h-67q-12 0 -18.5 8t-4.5 20l273 1404 q2 12 11.5 20t21.5 8h68q12 0 18.5 -8t4.5 -20z" />
<glyph unicode="i" horiz-adv-x="364" d="M263 1346q12 62 35.5 88t64.5 26t54.5 -26t1.5 -88t-35.5 -88t-64.5 -26t-54.5 26t-1.5 88zM23 28l190 980q3 12 13 20t22 8h67q12 0 18.5 -8t3.5 -20l-190 -980q-2 -12 -11.5 -20t-21.5 -8h-67q-12 0 -19 8t-5 20z" />
<glyph unicode="j" horiz-adv-x="340" d="M247 1346q12 62 35.5 88t64.5 26t54.5 -26t1.5 -88t-35.5 -88t-64.5 -26t-54.5 26t-1.5 88zM-231 -291q18 -7 50 -7q62 0 100.5 37.5t55.5 124.5l222 1144q7 28 34 28h67q12 0 19 -8t4 -20l-219 -1128q-28 -147 -98 -213.5t-189 -66.5q-50 0 -80 11q-21 7 -15 31l12 46 q8 32 37 21z" />
<glyph unicode="k" horiz-adv-x="756" d="M495 22l-264 532l-102 -526q-2 -12 -11.5 -20t-21.5 -8h-67q-12 0 -19 8t-5 20l273 1404q2 12 12 20t22 8h67q12 0 18.5 -8t4.5 -20l-161 -828l410 410q22 22 50 22h67q20 0 24 -13t-11 -27l-419 -416l271 -540q8 -15 0 -27.5t-28 -12.5h-67q-32 0 -43 22z" />
<glyph unicode="l" horiz-adv-x="364" d="M23 28l273 1404q2 12 12 20t22 8h67q12 0 18.5 -8t4.5 -20l-273 -1404q-2 -12 -11.5 -20t-21.5 -8h-67q-12 0 -19 8t-5 20z" />
<glyph unicode="m" horiz-adv-x="1308" d="M987 28l131 672q13 78 13 128t-19 79t-46 40t-68 11q-57 0 -121 -36.5t-107 -95.5q0 -54 -14 -122l-131 -676q-2 -12 -11.5 -20t-22.5 -8h-67q-12 0 -18.5 8t-4.5 20l131 672q13 78 13 128t-19 79t-46 40t-68 11q-57 0 -116 -32.5t-101 -85.5l-158 -812q-2 -12 -11.5 -20 t-21.5 -8h-67q-12 0 -19 8t-5 20l190 980q3 12 13 20t22 8h67q12 0 18.5 -8t3.5 -20l-10 -52q113 104 243 104q165 0 200 -142q133 142 286 142q50 0 88.5 -13.5t61.5 -35t37 -53.5t19 -62.5t4 -68t-4.5 -65t-9.5 -58.5l-131 -676q-2 -12 -12 -20t-22 -8h-67q-12 0 -18.5 8 t-4.5 20z" />
<glyph unicode="n" horiz-adv-x="864" d="M327 1008l-10 -52q51 49 118 76.5t137 27.5q144 0 200.5 -100t17.5 -300l-123 -632q-2 -12 -12 -20t-22 -8h-67q-12 0 -18.5 8t-4.5 20l112 574q38 189 8 272.5t-139 83.5q-137 0 -229 -118l-158 -812q-2 -12 -12 -20t-22 -8h-67q-12 0 -18.5 8t-4.5 20l190 980 q7 28 34 28h68q12 0 18.5 -8t3.5 -20z" />
<glyph unicode="o" horiz-adv-x="860" d="M799 518q-52 -268 -177.5 -405t-297.5 -137t-244.5 137t-20.5 405q53 268 178.5 405t297.5 137t244.5 -137t19.5 -405zM673 518q31 154 18 252t-57 143t-119 45q-115 0 -201 -108t-129 -332t0.5 -332t158.5 -108q114 0 200 108t129 332z" />
<glyph unicode="p" horiz-adv-x="854" d="M326 1008l-10 -52q109 104 239 104q165 0 226.5 -138t9.5 -404q-51 -266 -166.5 -404t-280.5 -138q-130 0 -198 104l-85 -438q-2 -12 -12 -20t-22 -8h-68q-12 0 -18 8t-4 20l265 1366q7 28 34 28h68q12 0 18.5 -8t3.5 -20zM665 518q87 440 -158 440q-54 0 -111 -32 t-102 -86l-125 -644q24 -54 68.5 -86t98.5 -32q244 0 329 440z" />
<glyph unicode="q" horiz-adv-x="854" d="M704 956l10 52q7 28 34 28h68q12 0 18.5 -8t3.5 -20l-265 -1366q-2 -12 -12 -20t-22 -8h-68q-12 0 -18 8t-4 20l85 438q-109 -104 -238 -104q-165 0 -226.5 138t-10.5 404q52 266 167.5 404t280.5 138q129 0 197 -104zM185 518q-85 -440 159 -440q54 0 111 32t102 86 l125 644q-24 54 -68.5 86t-98.5 32q-122 0 -204 -108t-126 -332z" />
<glyph unicode="r" horiz-adv-x="552" d="M631 1052q22 -6 16 -28l-17 -52q-8 -30 -40 -22q-17 4 -41 4q-84 0 -151 -53t-123 -165l-138 -708q-2 -12 -11.5 -20t-21.5 -8h-67q-12 0 -19 8t-5 20l190 980q3 12 13 20t22 8h67q12 0 18.5 -8t3.5 -20l-18 -96q47 68 113 108t142 40q35 0 67 -8z" />
<glyph unicode="s" horiz-adv-x="690" d="M0 21q-26 12 -19 38l12 47q12 38 44 19q78 -47 176 -47q97 0 154.5 48t74.5 134q16 83 -18 135.5t-134 98.5q-204 93 -166 292q26 133 119 203.5t233 70.5q95 0 176 -30q22 -8 15 -32l-12 -46q-11 -36 -45 -21q-57 27 -142 27q-91 0 -146.5 -44.5t-70.5 -121.5 q-13 -71 19 -122t133 -98q109 -51 148 -126.5t18 -179.5q-28 -142 -122.5 -216t-243.5 -74q-113 0 -203 45z" />
<glyph unicode="t" horiz-adv-x="580" d="M398 85q15 3 23.5 -2.5t7.5 -19.5l-3 -42q-3 -29 -36 -37q-37 -8 -86 -8q-129 0 -174.5 77.5t-12.5 248.5l123 634h-111q-12 0 -18.5 8.5t-4.5 20.5l8 43q3 12 13 20t22 8h111l55 282q2 12 11.5 20t21.5 8h67q13 0 19.5 -8t4.5 -20l-55 -282h217q12 0 19 -8t4 -20l-8 -43 q-2 -12 -12.5 -20.5t-22.5 -8.5h-217l-124 -640q-23 -120 -0.5 -169t96.5 -49q32 0 62 7z" />
<glyph unicode="u" horiz-adv-x="864" d="M535 28l10 52q-50 -48 -117 -76t-137 -28q-144 0 -200.5 100t-17.5 300l122 632q3 12 13 20t22 8h67q12 0 18.5 -8t3.5 -20l-111 -574q-38 -189 -8 -272.5t139 -83.5q135 0 229 118l157 812q3 12 13 20t22 8h67q12 0 18.5 -8t3.5 -20l-190 -980q-2 -12 -11.5 -20 t-21.5 -8h-68q-12 0 -18.5 8t-4.5 20z" />
<glyph unicode="v" horiz-adv-x="780" d="M339 0h-102q-33 0 -36 32l-79 968q-3 36 34 36h61q32 0 33 -28l64 -874l402 874q13 28 45 28h61q38 0 20 -36l-455 -968q-16 -32 -48 -32z" />
<glyph unicode="w" horiz-adv-x="1184" d="M644 1036h96q29 0 27 -28l1 -866l354 866q12 28 39 28h62q18 0 23.5 -10t-1.5 -25l-411 -972q-12 -29 -39 -29h-106q-29 0 -29 29l-2 833l-326 -833q-11 -29 -39 -29h-106q-28 0 -29 29l-33 972q-1 15 8.5 25t27.5 10h62q29 0 27 -28l18 -866l337 866q12 28 39 28z" />
<glyph unicode="x" horiz-adv-x="744" d="M469 22l-132 384l-280 -384q-17 -22 -44 -22h-63q-22 0 -26.5 12t9.5 31l358 485l-160 465q-8 19 1.5 31t31.5 12h60q27 0 36 -22l125 -364l267 364q16 22 44 22h60q22 0 26.5 -12t-9.5 -31l-342 -465l170 -485q7 -19 -2 -31t-31 -12h-63q-28 0 -36 22z" />
<glyph unicode="y" horiz-adv-x="792" d="M51 -345l172 345l-101 995q-5 41 34 41h62q30 0 32 -29l72 -813l396 813q15 29 44 29h62q38 0 18 -41l-666 -1352q-15 -29 -44 -29h-63q-38 0 -18 41z" />
<glyph unicode="z" horiz-adv-x="706" d="M191 1036h526q12 0 18.5 -8t3.5 -20l-9 -47q-6 -30 -20 -49l-613 -812h454q12 0 18.5 -8t3.5 -20l-8 -44q-2 -12 -11.5 -20t-21.5 -8h-562q-12 0 -18.5 8t-4.5 20l9 47q6 30 21 49l612 812h-418q-12 0 -18 8t-4 20l8 44q7 28 34 28z" />
<glyph unicode="{" horiz-adv-x="686" d="M155 592l10 56q6 23 29 31q55 16 89.5 55.5t49.5 117.5l85 436q20 106 81.5 159t151.5 53h147q12 0 19 -8t5 -20l-11 -53q-2 -12 -12 -20.5t-22 -8.5h-141q-74 0 -91 -88l-93 -474q-32 -169 -176 -208q128 -39 96 -208l-93 -474q-17 -88 57 -88h141q12 0 19 -8.5t5 -20.5 l-11 -53q-2 -12 -12 -20t-22 -8h-147q-90 0 -130.5 53t-20.5 159l85 436q15 78 -4 117.5t-67 55.5q-23 8 -17 31z" />
<glyph unicode="|" horiz-adv-x="484" d="M220 -371v1880q0 13 8 21t20 8h48q12 0 20 -8t8 -21v-1880q0 -12 -8 -20.5t-20 -8.5h-48q-12 0 -20 8.5t-8 20.5z" />
<glyph unicode="}" horiz-adv-x="686" d="M570 648l-10 -56q-6 -24 -29 -31q-55 -16 -89.5 -55.5t-49.5 -117.5l-85 -436q-20 -106 -81.5 -159t-151.5 -53h-147q-12 0 -19 8t-5 20l11 53q2 12 12 20.5t22 8.5h141q74 0 91 88l93 474q32 169 176 208q-128 39 -96 208l93 474q17 88 -57 88h-141q-12 0 -19 8.5 t-5 20.5l11 53q2 12 12 20t22 8h147q90 0 130.5 -53t20.5 -159l-85 -436q-15 -78 4 -117.5t67 -55.5q23 -8 17 -31z" />
<glyph unicode="~" d="M356 824q124 0 232 -102q56 -53 95.5 -75.5t78.5 -22.5q108 0 113 165q2 31 29 31h71q12 0 20.5 -9t7.5 -21q-11 -284 -239 -284q-124 0 -232 102q-56 53 -95.5 75.5t-78.5 22.5q-108 0 -113 -165q-2 -31 -29 -31h-71q-12 0 -20.5 9t-7.5 21q11 284 239 284z" />
<glyph unicode="&#xa1;" horiz-adv-x="456" d="M231 946q13 62 36.5 88t64.5 26t54.5 -26t0.5 -88q-12 -62 -35.5 -88t-64.5 -26t-54.5 26t-1.5 88zM199 38l-74 -378q-2 -12 -12 -20t-22 -8h-74q-12 0 -19 8t-5 20l74 378l139 617q2 11 12 19t21 8h38q11 0 18 -8t5 -19z" />
<glyph unicode="&#xa2;" horiz-adv-x="792" d="M286 -172l31 157q-158 29 -220 166t-17 367q44 230 161 367.5t283 166.5l30 156q2 12 12 20t22 8h42q12 0 18 -8t4 -20l-28 -148q80 -3 151 -32q22 -9 14 -35l-12 -41q-11 -35 -44 -20q-58 26 -129 26l-171 -880h8q75 0 139 25q17 7 27 1.5t9 -21.5l-4 -41 q-3 -24 -26 -34q-73 -30 -173 -32l-29 -148q-2 -12 -11.5 -20t-21.5 -8h-42q-12 0 -18.5 8t-4.5 20zM206 518q-69 -356 132 -425l165 851q-109 -33 -185.5 -140.5t-111.5 -285.5z" />
<glyph unicode="&#xa3;" horiz-adv-x="876" d="M913 1378q21 -10 15 -33l-14 -52q-5 -17 -19 -23t-27 2q-77 40 -185 40q-112 0 -182.5 -68t-99.5 -218l-51 -260h312q12 0 18.5 -8.5t4.5 -20.5l-6 -28q-2 -12 -11.5 -20.5t-21.5 -8.5h-312l-37 -188q-47 -247 -182 -382h612q12 0 18.5 -8t3.5 -21l-10 -53 q-2 -12 -11.5 -20t-21.5 -8h-720q-12 0 -18.5 8t-4.5 20l12 62q4 23 28 47q122 123 164 345l39 198h-88q-12 0 -18.5 8.5t-4.5 20.5l6 28q2 12 11.5 20.5t21.5 8.5h88l51 260q39 198 145 298t272 100q134 0 223 -46z" />
<glyph unicode="&#xa4;" horiz-adv-x="1344" d="M428 331l-153 -156q-9 -9 -20.5 -9t-19.5 9l-53 55q-19 20 0 39l155 155q-84 114 -84 256t84 256l-155 155q-19 19 0 39l53 55q8 9 19.5 9t20.5 -9l153 -156q119 89 267 89t266 -89l154 156q9 9 20.5 9t19.5 -9l53 -55q19 -20 0 -39l-155 -155q84 -116 84 -256t-84 -256 l155 -155q19 -19 0 -39l-53 -55q-8 -9 -19.5 -9t-20.5 9l-154 156q-118 -89 -266 -89t-267 89zM379 680q0 -137 90.5 -228.5t225.5 -91.5t225.5 91.5t90.5 228.5t-90.5 228.5t-225.5 91.5t-225.5 -91.5t-90.5 -228.5z" />
<glyph unicode="&#xa5;" horiz-adv-x="880" d="M371 0h-70q-12 0 -19 8t-5 20l60 310h-276q-12 0 -18 8t-4 20l5 30q7 28 34 28h276l28 146h-276q-12 0 -18 8t-4 20l6 30q2 12 11.5 20t21.5 8h240l-162 704q-4 16 5.5 28t28.5 12h63q14 0 20.5 -6.5t8.5 -20.5l145 -669l405 669q17 27 41 27h63q19 0 23.5 -12.5 t-5.5 -27.5l-436 -704h240q12 0 18.5 -8t4.5 -20l-6 -30q-2 -12 -12 -20t-22 -8h-276l-28 -146h276q12 0 18.5 -8t3.5 -20l-5 -30q-2 -12 -12 -20t-22 -8h-276l-60 -310q-2 -12 -12 -20t-22 -8z" />
<glyph unicode="&#xa6;" horiz-adv-x="484" d="M248 444h48q12 0 20 -8t8 -20v-588q0 -12 -8 -20t-20 -8h-48q-12 0 -20 8t-8 20v588q0 12 8 20t20 8zM248 1376h48q12 0 20 -8t8 -20v-588q0 -12 -8 -20t-20 -8h-48q-12 0 -20 8t-8 20v588q0 12 8 20t20 8z" />
<glyph unicode="&#xa7;" horiz-adv-x="806" d="M11 -147q-21 11 -14 34l13 50q5 16 19 21t26 -3q79 -51 182 -51q97 0 158.5 48t78.5 132q15 77 -21 130t-125 96q-225 110 -185 316q19 98 87.5 161.5t167.5 80.5q-96 68 -133.5 128t-19.5 154q26 132 122 203t237 71q104 0 184 -32q21 -8 16 -30l-12 -44 q-4 -15 -18.5 -22.5t-27.5 -1.5q-62 28 -150 28q-91 0 -150 -45t-74 -121q-13 -70 23.5 -122t130.5 -96q116 -56 157.5 -133t20.5 -185q-18 -94 -77.5 -158.5t-147.5 -93.5q158 -97 122 -278q-27 -139 -125.5 -213.5t-248.5 -74.5q-125 0 -216 51zM581 614q22 117 -66 186 q-106 0 -170 -46t-79 -126q-26 -129 112 -202q82 10 135 60t68 128z" />
<glyph unicode="&#xa8;" horiz-adv-x="640" d="M242 1298q11 59 31.5 82.5t58.5 23.5t49.5 -23.5t0.5 -82.5q-12 -59 -32.5 -82.5t-58.5 -23.5t-49 23t0 83zM562 1298q11 59 31.5 82.5t58.5 23.5t49.5 -23.5t0.5 -82.5q-12 -59 -32.5 -82.5t-58.5 -23.5t-49 23t0 83z" />
<glyph unicode="&#xa9;" horiz-adv-x="1216" d="M672 262q-153 0 -248.5 111.5t-95.5 322.5q0 210 96 322t248 112q93 0 167 -34q22 -10 21 -32l-3 -46q-1 -15 -10 -20t-24 3q-60 33 -145 33q-116 0 -178 -90t-62 -248q0 -159 62 -248.5t178 -89.5q85 0 145 33q15 8 24 3t10 -20l3 -46q1 -22 -21 -32q-74 -34 -167 -34z M638 1424q164 0 286.5 -91t187 -255t64.5 -378t-64.5 -378t-187 -255t-286.5 -91t-286.5 91t-187 255t-64.5 378t64.5 378t187 255t286.5 91zM638 48q212 0 337 179t125 473t-125 473t-337 179t-337 -179t-125 -473t125 -473t337 -179z" />
<glyph unicode="&#xaa;" horiz-adv-x="656" d="M501 790l91 470q-27 74 -111 74q-162 0 -222 -308q-61 -310 102 -310q84 0 140 74zM612 1360l2 10q2 12 12 20t22 8h54q13 0 19.5 -8t4.5 -20l-134 -690q-2 -12 -12 -20t-23 -8h-54q-12 0 -18.5 8t-4.5 20l2 10q-65 -56 -157 -56q-124 0 -171 99.5t-9 292.5 q37 192 122.5 291t209.5 99q92 0 135 -56z" />
<glyph unicode="&#xab;" horiz-adv-x="906" d="M134 600l9 48q5 17 17 27l388 325q18 15 31.5 10t9.5 -26l-11 -57q-6 -25 -25 -40l-320 -263l218 -263q13 -16 9 -40l-11 -57q-4 -21 -19.5 -26t-27.5 10l-262 325q-9 11 -6 27zM440 600l9 48q5 17 17 27l388 325q18 15 31.5 10t9.5 -26l-11 -57q-6 -25 -25 -40 l-320 -263l218 -263q13 -16 9 -40l-11 -57q-4 -21 -19.5 -26t-27.5 10l-262 325q-9 11 -6 27z" />
<glyph unicode="&#xac;" d="M100 799v55q0 12 8.5 20t20.5 8h843q12 0 20 -8t8 -20v-503q0 -12 -8 -20.5t-20 -8.5h-71q-12 0 -20.5 8.5t-8.5 20.5v419h-743q-12 0 -20.5 8.5t-8.5 20.5z" />
<glyph unicode="&#xad;" horiz-adv-x="712" d="M598 604h-456q-12 0 -18.5 8t-4.5 20l13 64q2 12 11.5 20t21.5 8h456q12 0 18.5 -8t4.5 -20l-13 -64q-2 -12 -11.5 -20t-21.5 -8z" />
<glyph unicode="&#xae;" horiz-adv-x="1216" d="M807 303l-141 319q-16 -2 -46 -2h-102v-310q0 -12 -8 -20t-20 -8h-52q-12 0 -20 8t-8 20v778q0 12 8 20t20 8h196q121 0 191.5 -65.5t70.5 -182.5q0 -80 -35 -137.5t-97 -84.5l153 -331q7 -16 0 -24.5t-25 -8.5h-50q-25 0 -35 21zM788 868q0 154 -154 154h-116v-308h116 q154 0 154 154zM638 1424q164 0 286.5 -91t187 -255t64.5 -378t-64.5 -378t-187 -255t-286.5 -91t-286.5 91t-187 255t-64.5 378t64.5 378t187 255t286.5 91zM638 48q212 0 337 179t125 473t-125 473t-337 179t-337 -179t-125 -473t125 -473t337 -179z" />
<glyph unicode="&#xaf;" horiz-adv-x="640" d="M232 1266l9 48q2 12 12 20t22 8h406q12 0 19 -8t5 -20l-9 -48q-3 -12 -13 -20t-22 -8h-406q-12 0 -19 8t-4 20z" />
<glyph unicode="&#xb0;" horiz-adv-x="640" d="M620 1174q-19 -100 -104.5 -170t-186.5 -70t-158.5 70t-38.5 170t104 170t186 70t159 -70t39 -170zM518 1174q12 61 -21 103.5t-93 42.5t-109 -42t-61 -104t20.5 -104t92.5 -42t109.5 42.5t61.5 103.5z" />
<glyph unicode="&#xb1;" d="M982 94h-844q-12 0 -20 8t-8 20v56q0 12 8 20t20 8h844q12 0 20 -8t8 -20v-56q0 -12 -8 -20t-20 -8zM496 340v394h-358q-12 0 -20 8.5t-8 20.5v53q0 12 8 20t20 8h358v393q0 12 8 20.5t20 8.5h72q12 0 20 -8.5t8 -20.5v-393h358q12 0 20 -8t8 -20v-53q0 -12 -8 -20.5 t-20 -8.5h-358v-394q0 -12 -8 -20t-20 -8h-72q-12 0 -20 8t-8 20z" />
<glyph unicode="&#xb2;" horiz-adv-x="630" d="M287 1381q78 35 166 35q245 0 196 -258q-29 -147 -166 -318q-141 -173 -255 -274h284q12 0 18 -8t4 -20l-7 -38q-2 -12 -12 -20t-22 -8h-393q-12 0 -18.5 8t-4.5 20l7 38q5 26 34 54q154 144 284 308q109 136 132 254q32 166 -106 166q-69 0 -140 -34q-16 -8 -25.5 -3 t-7.5 20l5 43q4 25 27 35z" />
<glyph unicode="&#xb3;" horiz-adv-x="630" d="M140 578q51 -26 120 -26q83 0 134 44t65 118q17 85 -25.5 136.5t-155.5 56.5q-11 1 -17.5 9.5t-4.5 19.5l8 39q2 11 11 19t20 9q107 6 169 54.5t74 114.5q14 68 -18 108t-99 40q-65 0 -133 -26q-16 -6 -24 -0.5t-6 19.5l6 42q2 20 25 29q77 32 161 32q118 0 172 -62.5 t31 -175.5q-14 -76 -67 -133.5t-133 -86.5q154 -67 121 -240q-24 -121 -109 -191.5t-214 -70.5q-87 0 -148 27q-19 9 -12 33l11 43q4 14 14 19.5t24 -0.5z" />
<glyph unicode="&#xb4;" horiz-adv-x="640" d="M292 1174l214 262q19 24 49 24h80q10 0 15.5 -4t3.5 -12q-2 -13 -21 -32l-239 -257q-18 -19 -45 -19h-46q-18 0 -22 10.5t11 27.5z" />
<glyph unicode="&#xb5;" horiz-adv-x="888" d="M566 28l12 62q-47 -53 -111.5 -83.5t-130.5 -30.5t-120 31t-78 83l-87 -447q-2 -12 -12 -20.5t-22 -8.5h-67q-12 0 -18.5 8.5t-4.5 20.5l265 1365q3 12 13 20t22 8h67q12 0 18.5 -8t3.5 -20l-157 -808q26 -59 77 -90.5t120 -31.5q141 0 243 122l157 808q7 28 34 28h67 q12 0 19 -8t4 -20l-190 -980q-2 -12 -12 -20t-22 -8h-67q-12 0 -18.5 8t-4.5 20z" />
<glyph unicode="&#xb6;" horiz-adv-x="904" d="M456 1400h309q12 0 20.5 -8t8.5 -20v-1605q0 -12 -8.5 -20.5t-20.5 -8.5h-55q-12 0 -20 8.5t-8 20.5v1519h-72v-1519q0 -12 -8 -20.5t-20 -8.5h-56q-12 0 -20 8.5t-8 20.5v845h-42q-172 0 -279 101t-107 293t107 293t279 101z" />
<glyph unicode="&#xb7;" horiz-adv-x="360" d="M129 660q12 62 35.5 87t64.5 25t54.5 -25t1.5 -87q-13 -62 -36 -87t-64 -25t-54.5 25t-1.5 87z" />
<glyph unicode="&#xb8;" horiz-adv-x="640" d="M103 -179q-33 7 -15 39l69 117q13 23 37 23h59q13 0 16.5 -8.5t-5.5 -24.5l-56 -93q56 -20 82.5 -66.5t13.5 -109.5q-15 -78 -77.5 -126t-152.5 -48q-34 0 -69 9q-23 7 -17 30l5 29q7 35 40 27q25 -5 44 -5q43 0 76.5 23.5t41.5 64.5q18 96 -92 119z" />
<glyph unicode="&#xb9;" horiz-adv-x="630" d="M418 1246l-122 -87q-12 -8 -24.5 -7t-17.5 12l-20 40q-10 19 13 37l197 145q20 16 44 16h43q29 0 23 -29l-169 -873q-2 -12 -12.5 -20t-22.5 -8h-55q-12 0 -18 8t-4 20z" />
<glyph unicode="&#xba;" horiz-adv-x="660" d="M504 1416q123 0 180 -104.5t22 -285.5t-133 -285.5t-221 -104.5t-180 104.5t-22 285.5t133 285.5t221 104.5zM371 734q72 0 132 75t87 217t-3 217t-102 75t-132 -75t-87 -217t3 -217t102 -75z" />
<glyph unicode="&#xbb;" horiz-adv-x="906" d="M804 648l-9 -48q-3 -15 -16 -27l-388 -325q-18 -15 -31.5 -10t-9.5 26l11 57q4 24 25 40l320 263l-218 263q-15 16 -9 40l11 57q4 21 19.5 26t27.5 -10l262 -325q9 -13 5 -27zM498 648l-9 -48q-3 -15 -16 -27l-388 -325q-18 -15 -31.5 -10t-9.5 26l11 57q4 24 25 40 l320 263l-218 263q-15 16 -9 40l11 57q4 21 19.5 26t27.5 -10l262 -325q9 -13 5 -27z" />
<glyph unicode="&#xbc;" horiz-adv-x="1470" d="M418 1246l-122 -87q-12 -8 -24.5 -7t-17.5 12l-20 40q-10 19 13 37l197 145q20 16 44 16h43q29 0 23 -29l-169 -873q-2 -12 -12.5 -20t-22.5 -8h-55q-12 0 -18 8t-4 20zM1157 204h-303q-12 0 -19 8t-4 20l8 42q4 23 25 52l419 576q18 26 45 26h53q12 0 19 -8t4 -20 l-117 -602h54q12 0 18.5 -8t4.5 -20l-7 -38q-7 -28 -34 -28h-54l-34 -176q-2 -12 -12 -20t-22 -8h-55q-12 0 -18.5 8t-4.5 20zM1259 726l-312 -428h228zM309 2l835 1405q14 23 40 23h38q32 0 14 -32l-835 -1405q-14 -23 -40 -23h-38q-32 0 -14 32z" />
<glyph unicode="&#xbd;" horiz-adv-x="1470" d="M247 2l835 1405q14 23 40 23h38q32 0 14 -32l-835 -1405q-14 -23 -40 -23h-38q-32 0 -14 32zM418 1246l-122 -87q-12 -8 -24.5 -7t-17.5 12l-20 40q-10 19 13 37l197 145q20 16 44 16h43q29 0 23 -29l-169 -873q-2 -12 -12.5 -20t-22.5 -8h-55q-12 0 -18 8t-4 20z M1049 909q78 35 166 35q122 0 171.5 -65.5t24.5 -192.5q-29 -147 -166 -318q-135 -168 -255 -274h284q12 0 18 -8t4 -20l-7 -38q-2 -12 -11.5 -20t-21.5 -8h-393q-12 0 -19 8t-5 20l7 38q5 26 34 54q152 142 285 308q109 137 131 254q32 166 -106 166q-69 0 -139 -34 q-16 -8 -26 -3t-8 20l5 43q4 24 27 35z" />
<glyph unicode="&#xbe;" horiz-adv-x="1470" d="M140 578q51 -26 120 -26q83 0 134 44t65 118q17 85 -25.5 136.5t-155.5 56.5q-11 1 -17.5 9.5t-4.5 19.5l8 39q2 11 11 19t20 9q107 6 169 54.5t74 114.5q14 68 -18 108t-99 40q-65 0 -133 -26q-16 -6 -24 -0.5t-6 19.5l6 42q2 20 25 29q77 32 161 32q118 0 172 -62.5 t31 -175.5q-14 -76 -67 -133.5t-133 -86.5q154 -67 121 -240q-24 -121 -109 -191.5t-214 -70.5q-87 0 -148 27q-19 9 -12 33l11 43q4 14 14 19.5t24 -0.5zM1160 204h-303q-12 0 -19 8t-4 20l8 42q4 23 25 52l419 576q18 26 45 26h53q12 0 19 -8t4 -20l-117 -602h54 q12 0 18.5 -8t4.5 -20l-7 -38q-7 -28 -34 -28h-54l-34 -176q-2 -12 -12 -20t-22 -8h-55q-12 0 -18.5 8t-4.5 20zM1262 726l-312 -428h228zM356 2l835 1405q14 23 40 23h38q32 0 14 -32l-835 -1405q-14 -23 -40 -23h-38q-32 0 -14 32z" />
<glyph unicode="&#xbf;" horiz-adv-x="816" d="M637 946q-12 -62 -35.5 -88t-64.5 -26t-54.5 26t-1.5 88q13 62 36.5 88t64.5 26t54.5 -26t0.5 -88zM549 -338q-119 -54 -248 -54q-170 0 -246.5 89.5t-45.5 246.5q20 101 82.5 193t179.5 189q69 57 104.5 126.5t57.5 181.5l4 20q2 12 11.5 20t21.5 8h71q12 0 19 -8t5 -20 l-5 -26q-27 -135 -77 -224.5t-143 -165.5q-94 -76 -140 -145.5t-62 -152.5q-20 -102 30 -161t165 -59q111 0 210 52q19 9 30 4t9 -21l-8 -59q-3 -23 -25 -34z" />
<glyph unicode="&#xc0;" horiz-adv-x="956" d="M616 1260l-350 -766h404zM597 1400h94q32 0 35 -32l110 -1332q3 -36 -33 -36h-65q-33 0 -35 29l-27 355h-460l-165 -355q-14 -29 -45 -29h-65q-37 0 -21 36l628 1332q16 32 49 32zM639 1824l112 -262q8 -17 0 -27.5t-26 -10.5h-46q-27 0 -38 19l-139 257q-11 20 -8 32 q3 16 25 16h80q30 0 40 -24z" />
<glyph unicode="&#xc1;" horiz-adv-x="956" d="M616 1260l-350 -766h404zM597 1400h94q32 0 35 -32l110 -1332q3 -36 -33 -36h-65q-33 0 -35 29l-27 355h-460l-165 -355q-14 -29 -45 -29h-65q-37 0 -21 36l628 1332q16 32 49 32zM599 1562l214 262q20 24 50 24h80q10 0 15.5 -4t3.5 -12q-4 -14 -22 -32l-239 -257 q-16 -19 -44 -19h-46q-18 0 -22 10.5t10 27.5z" />
<glyph unicode="&#xc2;" horiz-adv-x="956" d="M616 1260l-350 -766h404zM597 1400h94q32 0 35 -32l110 -1332q3 -36 -33 -36h-65q-33 0 -35 29l-27 355h-460l-165 -355q-14 -29 -45 -29h-65q-37 0 -21 36l628 1332q16 32 49 32zM683 1848h96q24 0 32 -20l113 -277q6 -15 -1.5 -25t-24.5 -10h-53q-27 0 -34 18l-98 224 l-184 -224q-15 -18 -42 -18h-53q-17 0 -20.5 10t8.5 25l221 277q16 20 40 20z" />
<glyph unicode="&#xc3;" horiz-adv-x="956" d="M616 1260l-350 -766h404zM597 1400h94q32 0 35 -32l110 -1332q3 -36 -33 -36h-65q-33 0 -35 29l-27 355h-460l-165 -355q-14 -29 -45 -29h-65q-37 0 -21 36l628 1332q16 32 49 32zM615 1820q85 0 127 -86q19 -41 31.5 -55.5t27.5 -14.5q25 0 41 24t32 97q8 31 33 31h51 q26 0 21 -30q-29 -131 -78 -182.5t-118 -51.5q-84 0 -126 86q-19 41 -31.5 55.5t-27.5 14.5q-25 0 -41 -24t-33 -97q-8 -31 -33 -31h-51q-12 0 -17.5 8t-2.5 22q29 131 77.5 182.5t117.5 51.5z" />
<glyph unicode="&#xc4;" horiz-adv-x="956" d="M616 1260l-350 -766h404zM597 1400h94q32 0 35 -32l110 -1332q3 -36 -33 -36h-65q-33 0 -35 29l-27 355h-460l-165 -355q-14 -29 -45 -29h-65q-37 0 -21 36l628 1332q16 32 49 32zM469 1686q12 59 32.5 82.5t58.5 23.5t49 -23t0 -83q-11 -59 -31.5 -82.5t-58.5 -23.5 t-49.5 23.5t-0.5 82.5zM789 1686q12 59 32.5 82.5t58.5 23.5t49 -23t0 -83q-11 -59 -31.5 -82.5t-58.5 -23.5t-49.5 23.5t-0.5 82.5z" />
<glyph unicode="&#xc5;" horiz-adv-x="956" d="M616 1260l-350 -766h404zM597 1400h94q32 0 35 -32l110 -1332q3 -36 -33 -36h-65q-33 0 -35 29l-27 355h-460l-165 -355q-14 -29 -45 -29h-65q-37 0 -21 36l628 1332q16 32 49 32zM739 1892q94 0 142 -58t30 -148q-17 -90 -87.5 -148t-164.5 -58t-141.5 58t-30.5 148 q18 91 88 148.5t164 57.5zM676 1564q53 0 93.5 32t51.5 90q12 58 -16.5 90t-81.5 32t-93.5 -32t-52.5 -90q-11 -58 17.5 -90t81.5 -32z" />
<glyph unicode="&#xc6;" horiz-adv-x="1266" d="M762 1282l-456 -810h298zM-76 38l755 1326q20 36 56 36h596q12 0 18 -8t4 -21l-10 -53q-2 -12 -12 -20t-22 -8h-418l-100 -514h380q12 0 18.5 -8t4.5 -21l-11 -53q-2 -12 -11.5 -20t-21.5 -8h-380l-108 -556h429q12 0 19 -8t4 -20l-10 -53q-2 -13 -12 -21t-22 -8h-528 q-13 0 -19.5 8t-4.5 21l65 333h-338l-190 -339q-14 -23 -37 -23h-74q-19 0 -24.5 10.5t4.5 27.5z" />
<glyph unicode="&#xc7;" horiz-adv-x="918" d="M741 118q17 6 27.5 0t9.5 -22l-5 -54q-3 -22 -25 -31q-93 -33 -202 -35l-62 -102q56 -20 82.5 -66.5t13.5 -109.5q-15 -78 -77.5 -126t-152.5 -48q-34 0 -69 9q-23 7 -17 30l5 29q7 35 40 27q25 -5 44 -5q43 0 76.5 23.5t41.5 64.5q18 96 -92 119q-33 7 -15 39l72 124 q-214 37 -301.5 228t-29.5 488q64 330 252.5 527t451.5 197q115 0 196 -36q19 -9 13 -32l-13 -54q-5 -16 -18 -22t-28 0q-75 32 -165 32q-204 0 -354 -164t-205 -448q-56 -285 31 -448.5t292 -163.5q102 0 183 30z" />
<glyph unicode="&#xc8;" horiz-adv-x="872" d="M187 110h515q12 0 19 -8t4 -20l-10 -53q-2 -13 -12 -21t-22 -8h-614q-12 0 -19 8t-5 21l261 1342q2 12 12.5 20.5t22.5 8.5h600q13 0 19 -8t4 -21l-10 -53q-2 -12 -12 -20t-23 -8h-501l-100 -514h465q12 0 19 -8.5t5 -20.5l-10 -52q-3 -12 -13 -20.5t-22 -8.5h-465z M643 1824l112 -262q8 -17 0 -27.5t-26 -10.5h-46q-27 0 -38 19l-139 257q-11 20 -8 32q3 16 25 16h80q30 0 40 -24z" />
<glyph unicode="&#xc9;" horiz-adv-x="872" d="M187 110h515q12 0 19 -8t4 -20l-10 -53q-2 -13 -12 -21t-22 -8h-614q-12 0 -19 8t-5 21l261 1342q2 12 12.5 20.5t22.5 8.5h600q13 0 19 -8t4 -21l-10 -53q-2 -12 -12 -20t-23 -8h-501l-100 -514h465q12 0 19 -8.5t5 -20.5l-10 -52q-3 -12 -13 -20.5t-22 -8.5h-465z M565 1562l214 262q20 24 50 24h80q10 0 15.5 -4t3.5 -12q-4 -14 -22 -32l-239 -257q-16 -19 -44 -19h-46q-18 0 -22 10.5t10 27.5z" />
<glyph unicode="&#xca;" horiz-adv-x="872" d="M187 110h515q12 0 19 -8t4 -20l-10 -53q-2 -13 -12 -21t-22 -8h-614q-12 0 -19 8t-5 21l261 1342q2 12 12.5 20.5t22.5 8.5h600q13 0 19 -8t4 -21l-10 -53q-2 -12 -12 -20t-23 -8h-501l-100 -514h465q12 0 19 -8.5t5 -20.5l-10 -52q-3 -12 -13 -20.5t-22 -8.5h-465z M677 1848h96q24 0 32 -20l113 -277q6 -15 -1.5 -25t-24.5 -10h-53q-27 0 -34 18l-98 224l-184 -224q-15 -18 -42 -18h-53q-17 0 -20.5 10t8.5 25l221 277q16 20 40 20z" />
<glyph unicode="&#xcb;" horiz-adv-x="872" d="M187 110h515q12 0 19 -8t4 -20l-10 -53q-2 -13 -12 -21t-22 -8h-614q-12 0 -19 8t-5 21l261 1342q2 12 12.5 20.5t22.5 8.5h600q13 0 19 -8t4 -21l-10 -53q-2 -12 -12 -20t-23 -8h-501l-100 -514h465q12 0 19 -8.5t5 -20.5l-10 -52q-3 -12 -13 -20.5t-22 -8.5h-465z M453 1686q12 59 32.5 82.5t58.5 23.5t49 -23t0 -83q-11 -59 -31.5 -82.5t-58.5 -23.5t-49.5 23.5t-0.5 82.5zM773 1686q12 59 32.5 82.5t58.5 23.5t49 -23t0 -83q-11 -59 -31.5 -82.5t-58.5 -23.5t-49.5 23.5t-0.5 82.5z" />
<glyph unicode="&#xcc;" horiz-adv-x="428" d="M349 1400h70q12 0 18.5 -8t4.5 -21l-261 -1342q-2 -13 -12 -21t-22 -8h-70q-12 0 -19 8t-5 21l261 1342q2 12 12.5 20.5t22.5 8.5zM363 1824l112 -262q8 -17 0 -27.5t-26 -10.5h-46q-27 0 -38 19l-139 257q-11 20 -8 32q3 16 25 16h80q30 0 40 -24z" />
<glyph unicode="&#xcd;" horiz-adv-x="428" d="M349 1400h70q12 0 18.5 -8t4.5 -21l-261 -1342q-2 -13 -12 -21t-22 -8h-70q-12 0 -19 8t-5 21l261 1342q2 12 12.5 20.5t22.5 8.5zM355 1562l214 262q20 24 50 24h80q10 0 15.5 -4t3.5 -12q-4 -14 -22 -32l-239 -257q-16 -19 -44 -19h-46q-18 0 -22 10.5t10 27.5z" />
<glyph unicode="&#xce;" horiz-adv-x="428" d="M349 1400h70q12 0 18.5 -8t4.5 -21l-261 -1342q-2 -13 -12 -21t-22 -8h-70q-12 0 -19 8t-5 21l261 1342q2 12 12.5 20.5t22.5 8.5zM423 1848h96q24 0 32 -20l113 -277q6 -15 -1.5 -25t-24.5 -10h-53q-27 0 -34 18l-98 224l-184 -224q-15 -18 -42 -18h-53q-17 0 -20.5 10 t8.5 25l221 277q16 20 40 20z" />
<glyph unicode="&#xcf;" horiz-adv-x="428" d="M349 1400h70q12 0 18.5 -8t4.5 -21l-261 -1342q-2 -13 -12 -21t-22 -8h-70q-12 0 -19 8t-5 21l261 1342q2 12 12.5 20.5t22.5 8.5zM209 1686q12 59 32.5 82.5t58.5 23.5t49 -23t0 -83q-11 -59 -31.5 -82.5t-58.5 -23.5t-49.5 23.5t-0.5 82.5zM529 1686q12 59 32.5 82.5 t58.5 23.5t49 -23t0 -83q-11 -59 -31.5 -82.5t-58.5 -23.5t-49.5 23.5t-0.5 82.5z" />
<glyph unicode="&#xd0;" horiz-adv-x="1036" d="M76 752h106l120 619q2 13 12 21t23 8h231q280 0 384.5 -170.5t35.5 -529.5q-71 -360 -241.5 -530t-450.5 -170h-231q-13 0 -19.5 8t-4.5 21l121 623h-106q-12 0 -18.5 8t-4.5 21l8 42q2 12 12.5 20.5t22.5 8.5zM858 700q59 308 -13.5 449t-298.5 141h-132l-104 -538h211 q12 0 18.5 -8.5t4.5 -20.5l-8 -42q-2 -12 -12.5 -20.5t-22.5 -8.5h-211l-105 -542h132q226 0 353 140.5t188 449.5z" />
<glyph unicode="&#xd1;" horiz-adv-x="1086" d="M655 29l-255 1197l-233 -1197q-2 -13 -12 -21t-22 -8h-66q-13 0 -19.5 8t-4.5 21l261 1342q2 13 12 21t23 8h124q29 0 35 -29l255 -1197l233 1197q2 12 12.5 20.5t22.5 8.5h66q13 0 19 -8t4 -21l-261 -1342q-2 -13 -11.5 -21t-22.5 -8h-124q-30 0 -36 29zM683 1820 q85 0 127 -86q19 -41 31.5 -55.5t27.5 -14.5q25 0 41 24t32 97q8 31 33 31h51q26 0 21 -30q-29 -131 -78 -182.5t-118 -51.5q-84 0 -126 86q-19 41 -31.5 55.5t-27.5 14.5q-25 0 -41 -24t-33 -97q-8 -31 -33 -31h-51q-12 0 -17.5 8t-2.5 22q29 131 77.5 182.5t117.5 51.5z " />
<glyph unicode="&#xd2;" d="M425 -24q-226 0 -306.5 188t-12.5 536q67 347 221.5 535.5t378.5 188.5q225 0 306 -188.5t14 -535.5q-68 -349 -221.5 -536.5t-379.5 -187.5zM447 88q330 0 449 612q118 612 -211 612q-331 0 -449 -612q-119 -612 211 -612zM723 1824l112 -262q8 -17 0 -27.5t-26 -10.5 h-46q-27 0 -38 19l-139 257q-11 20 -8 32q3 16 25 16h80q30 0 40 -24z" />
<glyph unicode="&#xd3;" d="M425 -24q-226 0 -306.5 188t-12.5 536q67 347 221.5 535.5t378.5 188.5q225 0 306 -188.5t14 -535.5q-68 -349 -221.5 -536.5t-379.5 -187.5zM447 88q330 0 449 612q118 612 -211 612q-331 0 -449 -612q-119 -612 211 -612zM631 1562l214 262q20 24 50 24h80 q10 0 15.5 -4t3.5 -12q-4 -14 -22 -32l-239 -257q-16 -19 -44 -19h-46q-18 0 -22 10.5t10 27.5z" />
<glyph unicode="&#xd4;" d="M425 -24q-226 0 -306.5 188t-12.5 536q67 347 221.5 535.5t378.5 188.5q225 0 306 -188.5t14 -535.5q-68 -349 -221.5 -536.5t-379.5 -187.5zM447 88q330 0 449 612q118 612 -211 612q-331 0 -449 -612q-119 -612 211 -612zM741 1848h96q24 0 32 -20l113 -277 q6 -15 -1.5 -25t-24.5 -10h-53q-27 0 -34 18l-98 224l-184 -224q-15 -18 -42 -18h-53q-17 0 -20.5 10t8.5 25l221 277q16 20 40 20z" />
<glyph unicode="&#xd5;" d="M425 -24q-226 0 -306.5 188t-12.5 536q67 347 221.5 535.5t378.5 188.5q225 0 306 -188.5t14 -535.5q-68 -349 -221.5 -536.5t-379.5 -187.5zM447 88q330 0 449 612q118 612 -211 612q-331 0 -449 -612q-119 -612 211 -612zM673 1820q85 0 127 -86q19 -41 31.5 -55.5 t27.5 -14.5q25 0 41 24t32 97q8 31 33 31h51q26 0 21 -30q-29 -131 -78 -182.5t-118 -51.5q-84 0 -126 86q-19 41 -31.5 55.5t-27.5 14.5q-25 0 -41 -24t-33 -97q-8 -31 -33 -31h-51q-12 0 -17.5 8t-2.5 22q29 131 77.5 182.5t117.5 51.5z" />
<glyph unicode="&#xd6;" d="M425 -24q-226 0 -306.5 188t-12.5 536q67 347 221.5 535.5t378.5 188.5q225 0 306 -188.5t14 -535.5q-68 -349 -221.5 -536.5t-379.5 -187.5zM447 88q330 0 449 612q118 612 -211 612q-331 0 -449 -612q-119 -612 211 -612zM527 1686q12 59 32.5 82.5t58.5 23.5t49 -23 t0 -83q-11 -59 -31.5 -82.5t-58.5 -23.5t-49.5 23.5t-0.5 82.5zM847 1686q12 59 32.5 82.5t58.5 23.5t49 -23t0 -83q-11 -59 -31.5 -82.5t-58.5 -23.5t-49.5 23.5t-0.5 82.5z" />
<glyph unicode="&#xd7;" d="M552 582l-292 -306q-8 -9 -20.5 -8.5t-21.5 9.5l-41 41q-19 20 0 39l295 309l-295 310q-19 20 0 39l41 41q9 9 21.5 9.5t20.5 -8.5l292 -307l292 307q8 9 20.5 8.5t21.5 -9.5l41 -41q19 -19 0 -39l-295 -310l295 -309q19 -19 0 -39l-41 -41q-9 -9 -21.5 -9.5t-20.5 8.5z " />
<glyph unicode="&#xd8;" d="M-38 -165l173 279q-118 183 -39 586q67 347 221.5 535.5t378.5 188.5q126 0 209 -63l134 217q15 22 40 22h54q17 0 21.5 -10t-5.5 -25l-174 -280q118 -187 41 -585q-68 -349 -221.5 -536.5t-379.5 -187.5q-128 0 -210 61l-133 -215q-15 -22 -39 -22h-54q-16 0 -21 10 t4 25zM226 700q-59 -299 -9 -453l620 1004q-58 61 -162 61q-331 0 -449 -612zM437 88q330 0 449 612q58 300 7 452l-620 -1004q60 -60 164 -60z" />
<glyph unicode="&#xd9;" horiz-adv-x="1100" d="M444 -24q-410 0 -312 506l173 889q2 13 12 21t23 8h70q12 0 18.5 -8t4.5 -21l-173 -889q-40 -208 12 -301t194 -93t230 93t128 301l173 889q2 12 12.5 20.5t22.5 8.5h70q13 0 19 -8t4 -21l-173 -889q-98 -506 -508 -506zM710 1824l112 -262q8 -17 0 -27.5t-26 -10.5h-46 q-27 0 -38 19l-139 257q-11 20 -8 32q3 16 25 16h80q30 0 40 -24z" />
<glyph unicode="&#xda;" horiz-adv-x="1100" d="M444 -24q-410 0 -312 506l173 889q2 13 12 21t23 8h70q12 0 18.5 -8t4.5 -21l-173 -889q-40 -208 12 -301t194 -93t230 93t128 301l173 889q2 12 12.5 20.5t22.5 8.5h70q13 0 19 -8t4 -21l-173 -889q-98 -506 -508 -506zM678 1562l214 262q20 24 50 24h80q10 0 15.5 -4 t3.5 -12q-4 -14 -22 -32l-239 -257q-16 -19 -44 -19h-46q-18 0 -22 10.5t10 27.5z" />
<glyph unicode="&#xdb;" horiz-adv-x="1100" d="M444 -24q-410 0 -312 506l173 889q2 13 12 21t23 8h70q12 0 18.5 -8t4.5 -21l-173 -889q-40 -208 12 -301t194 -93t230 93t128 301l173 889q2 12 12.5 20.5t22.5 8.5h70q13 0 19 -8t4 -21l-173 -889q-98 -506 -508 -506zM760 1848h96q24 0 32 -20l113 -277 q6 -15 -1.5 -25t-24.5 -10h-53q-27 0 -34 18l-98 224l-184 -224q-15 -18 -42 -18h-53q-17 0 -20.5 10t8.5 25l221 277q16 20 40 20z" />
<glyph unicode="&#xdc;" horiz-adv-x="1100" d="M444 -24q-410 0 -312 506l173 889q2 13 12 21t23 8h70q12 0 18.5 -8t4.5 -21l-173 -889q-40 -208 12 -301t194 -93t230 93t128 301l173 889q2 12 12.5 20.5t22.5 8.5h70q13 0 19 -8t4 -21l-173 -889q-98 -506 -508 -506zM546 1686q12 59 32.5 82.5t58.5 23.5t49 -23 t0 -83q-11 -59 -31.5 -82.5t-58.5 -23.5t-49.5 23.5t-0.5 82.5zM866 1686q12 59 32.5 82.5t58.5 23.5t49 -23t0 -83q-11 -59 -31.5 -82.5t-58.5 -23.5t-49.5 23.5t-0.5 82.5z" />
<glyph unicode="&#xdd;" horiz-adv-x="972" d="M417 0h-70q-12 0 -19 8t-5 21l103 527l-217 801q-5 20 4 31.5t30 11.5h59q29 0 36 -25l178 -685l444 685q16 25 46 25h59q44 0 16 -43l-527 -801l-103 -527q-2 -13 -12 -21t-22 -8zM601 1562l214 262q20 24 50 24h80q10 0 15.5 -4t3.5 -12q-4 -14 -22 -32l-239 -257 q-16 -19 -44 -19h-46q-18 0 -22 10.5t10 27.5z" />
<glyph unicode="&#xde;" horiz-adv-x="906" d="M746 710q61 318 -215 318h-166l-123 -636h166q276 0 338 318zM432 1371l-45 -233h170q189 0 274 -110t45 -318q-41 -208 -169 -318t-317 -110h-170l-49 -253q-2 -13 -11.5 -21t-21.5 -8h-72q-12 0 -18.5 8t-4.5 21l261 1342q2 13 12 21t22 8h72q12 0 18 -8t4 -21z" />
<glyph unicode="&#xdf;" horiz-adv-x="944" d="M460 675q-11 1 -17.5 9.5t-4.5 18.5l11 56q2 11 12 19t21 9q256 12 308 273q9 64 1 120t-49.5 94t-108.5 38q-105 0 -173 -73t-101 -241l-188 -970q-2 -12 -12 -20t-22 -8h-71q-12 0 -18.5 8t-4.5 20l185 954q44 226 151.5 334t276.5 108q155 0 225 -100t39 -262 q-25 -128 -96 -211t-178 -117q113 -32 163.5 -129t21.5 -245q-35 -183 -145.5 -283.5t-278.5 -100.5q-85 0 -155 27q-21 8 -14 33l15 50q5 15 17.5 22t25.5 2q54 -22 121 -22q114 0 187 73.5t97 198.5q29 145 -34.5 224.5t-206.5 90.5z" />
<glyph unicode="&#xe0;" horiz-adv-x="854" d="M185 518q-85 -440 159 -440q54 0 111 32t102 86l125 644q-24 54 -68.5 86t-98.5 32q-122 0 -204 -108t-126 -332zM524 28l10 52q-109 -104 -238 -104q-165 0 -226.5 138t-10.5 404q52 266 167.5 404t280.5 138q129 0 197 -104l10 52q7 28 34 28h67q12 0 19 -8t4 -20 l-190 -980q-2 -12 -12 -20t-22 -8h-67q-12 0 -18.5 8t-4.5 20zM584 1476l112 -262q8 -17 0 -27.5t-26 -10.5h-46q-27 0 -37 19l-139 257q-12 18 -9 32q3 16 25 16h80q30 0 40 -24z" />
<glyph unicode="&#xe1;" horiz-adv-x="854" d="M185 518q-85 -440 159 -440q54 0 111 32t102 86l125 644q-24 54 -68.5 86t-98.5 32q-122 0 -204 -108t-126 -332zM524 28l10 52q-109 -104 -238 -104q-165 0 -226.5 138t-10.5 404q52 266 167.5 404t280.5 138q129 0 197 -104l10 52q7 28 34 28h67q12 0 19 -8t4 -20 l-190 -980q-2 -12 -12 -20t-22 -8h-67q-12 0 -18.5 8t-4.5 20zM502 1214l214 262q20 24 50 24h80q10 0 15.5 -4t3.5 -12q-2 -12 -21 -32l-239 -257q-18 -19 -45 -19h-46q-18 0 -22 10.5t10 27.5z" />
<glyph unicode="&#xe2;" horiz-adv-x="854" d="M185 518q-85 -440 159 -440q54 0 111 32t102 86l125 644q-24 54 -68.5 86t-98.5 32q-122 0 -204 -108t-126 -332zM524 28l10 52q-109 -104 -238 -104q-165 0 -226.5 138t-10.5 404q52 266 167.5 404t280.5 138q129 0 197 -104l10 52q7 28 34 28h67q12 0 19 -8t4 -20 l-190 -980q-2 -12 -12 -20t-22 -8h-67q-12 0 -18.5 8t-4.5 20zM578 1500h96q24 0 32 -20l113 -277q6 -15 -1 -25t-24 -10h-53q-27 0 -35 18l-97 224l-185 -224q-14 -18 -41 -18h-53q-17 0 -21 10t8 25l221 277q16 20 40 20z" />
<glyph unicode="&#xe3;" horiz-adv-x="854" d="M185 518q-85 -440 159 -440q54 0 111 32t102 86l125 644q-24 54 -68.5 86t-98.5 32q-122 0 -204 -108t-126 -332zM524 28l10 52q-109 -104 -238 -104q-165 0 -226.5 138t-10.5 404q52 266 167.5 404t280.5 138q129 0 197 -104l10 52q7 28 34 28h67q12 0 19 -8t4 -20 l-190 -980q-2 -12 -12 -20t-22 -8h-67q-12 0 -18.5 8t-4.5 20zM507 1472q84 0 126 -86q19 -41 31.5 -55.5t27.5 -14.5q25 0 41 24t33 97q8 31 33 31h51q12 0 17.5 -8.5t2.5 -21.5q-29 -131 -77.5 -182.5t-117.5 -51.5q-85 0 -127 86q-19 41 -31.5 55.5t-27.5 14.5 q-25 0 -41 -24t-33 -97q-8 -31 -33 -31h-51q-25 0 -20 30q29 131 78 182.5t118 51.5z" />
<glyph unicode="&#xe4;" horiz-adv-x="854" d="M185 518q-85 -440 159 -440q54 0 111 32t102 86l125 644q-24 54 -68.5 86t-98.5 32q-122 0 -204 -108t-126 -332zM524 28l10 52q-109 -104 -238 -104q-165 0 -226.5 138t-10.5 404q52 266 167.5 404t280.5 138q129 0 197 -104l10 52q7 28 34 28h67q12 0 19 -8t4 -20 l-190 -980q-2 -12 -12 -20t-22 -8h-67q-12 0 -18.5 8t-4.5 20zM365 1338q11 59 31.5 82.5t58.5 23.5t49.5 -23.5t0.5 -82.5q-12 -59 -32.5 -82.5t-58.5 -23.5t-49 23t0 83zM685 1338q11 59 31.5 82.5t58.5 23.5t49.5 -23.5t0.5 -82.5q-12 -59 -32.5 -82.5t-58.5 -23.5 t-49 23t0 83z" />
<glyph unicode="&#xe5;" horiz-adv-x="854" d="M185 518q-85 -440 159 -440q54 0 111 32t102 86l125 644q-24 54 -68.5 86t-98.5 32q-122 0 -204 -108t-126 -332zM524 28l10 52q-109 -104 -238 -104q-165 0 -226.5 138t-10.5 404q52 266 167.5 404t280.5 138q129 0 197 -104l10 52q7 28 34 28h67q12 0 19 -8t4 -20 l-190 -980q-2 -12 -12 -20t-22 -8h-67q-12 0 -18.5 8t-4.5 20zM637 1544q94 0 141.5 -58t30.5 -148q-18 -91 -88 -148.5t-164 -57.5t-142 58t-30 148q17 90 87.5 148t164.5 58zM573 1216q53 0 93.5 32t52.5 90q11 58 -17.5 90t-81.5 32t-93.5 -32t-51.5 -90 q-12 -58 16.5 -90t81.5 -32z" />
<glyph unicode="&#xe6;" horiz-adv-x="1290" d="M246 78q95 0 167 74t123 248l26 130h-172q-109 0 -174 -64t-86 -170q-21 -105 14 -161.5t102 -56.5zM697 570h92q336 0 378 214q16 82 -21 129t-119 47q-112 0 -198 -96.5t-132 -293.5zM467 1060q110 0 171 -63.5t55 -170.5q60 111 152 172.5t208 61.5q134 0 198 -76 t40 -200q-28 -143 -157 -228.5t-340 -85.5h-116q-29 -194 26 -293t178 -99q88 0 171 43q17 8 28 3t10 -21l-4 -47q-1 -22 -25 -34q-89 -46 -202 -46q-124 0 -199 65t-90 187q-49 -126 -144 -189t-205 -63q-121 0 -183.5 82t-33.5 234q31 157 134 247.5t264 90.5h178 q32 168 -2.5 248t-141.5 80q-91 0 -198 -43q-17 -7 -27.5 -1t-9.5 22l5 43q3 22 26 32q116 49 234 49z" />
<glyph unicode="&#xe7;" horiz-adv-x="736" d="M560 103q17 7 27 1.5t9 -21.5l-4 -41q-3 -24 -26 -34q-62 -25 -137 -30l-62 -104q56 -20 82.5 -66.5t13.5 -109.5q-15 -78 -77.5 -126t-152.5 -48q-35 0 -69 9q-23 7 -17 30l5 29q7 35 40 27q25 -5 44 -5q43 0 76.5 23.5t41.5 64.5q18 96 -92 119q-33 7 -15 39l71 121 q-169 23 -236.5 161.5t-21.5 375.5q50 259 191.5 400.5t340.5 141.5q88 0 163 -32q22 -9 14 -35l-12 -41q-11 -35 -44 -20q-58 26 -131 26q-148 0 -251 -112t-145 -328q-43 -221 18.5 -330.5t216.5 -109.5q71 0 139 25z" />
<glyph unicode="&#xe8;" horiz-adv-x="808" d="M400 78q93 0 169 35q17 7 28 2.5t10 -20.5l-5 -44q-1 -22 -25 -34q-90 -41 -205 -41q-203 0 -283 140.5t-29 405.5q51 266 183.5 402t311.5 136q136 0 207 -76.5t47 -199.5q-28 -145 -166 -228.5t-363 -83.5h-104q-31 -205 25.5 -299.5t198.5 -94.5zM529 958 q-111 0 -198.5 -95t-134.5 -291h80q179 0 283 54.5t124 157.5q15 79 -29 126.5t-125 47.5zM546 1476l112 -262q8 -17 0 -27.5t-26 -10.5h-46q-27 0 -37 19l-139 257q-12 18 -9 32q3 16 25 16h80q30 0 40 -24z" />
<glyph unicode="&#xe9;" horiz-adv-x="808" d="M400 78q93 0 169 35q17 7 28 2.5t10 -20.5l-5 -44q-1 -22 -25 -34q-90 -41 -205 -41q-203 0 -283 140.5t-29 405.5q51 266 183.5 402t311.5 136q136 0 207 -76.5t47 -199.5q-28 -145 -166 -228.5t-363 -83.5h-104q-31 -205 25.5 -299.5t198.5 -94.5zM529 958 q-111 0 -198.5 -95t-134.5 -291h80q179 0 283 54.5t124 157.5q15 79 -29 126.5t-125 47.5zM446 1214l214 262q20 24 50 24h80q10 0 15.5 -4t3.5 -12q-2 -12 -21 -32l-239 -257q-18 -19 -45 -19h-46q-18 0 -22 10.5t10 27.5z" />
<glyph unicode="&#xea;" horiz-adv-x="808" d="M400 78q93 0 169 35q17 7 28 2.5t10 -20.5l-5 -44q-1 -22 -25 -34q-90 -41 -205 -41q-203 0 -283 140.5t-29 405.5q51 266 183.5 402t311.5 136q136 0 207 -76.5t47 -199.5q-28 -145 -166 -228.5t-363 -83.5h-104q-31 -205 25.5 -299.5t198.5 -94.5zM529 958 q-111 0 -198.5 -95t-134.5 -291h80q179 0 283 54.5t124 157.5q15 79 -29 126.5t-125 47.5zM564 1500h96q24 0 32 -20l113 -277q6 -15 -1 -25t-24 -10h-53q-27 0 -35 18l-97 224l-185 -224q-14 -18 -41 -18h-53q-17 0 -21 10t8 25l221 277q16 20 40 20z" />
<glyph unicode="&#xeb;" horiz-adv-x="808" d="M400 78q93 0 169 35q17 7 28 2.5t10 -20.5l-5 -44q-1 -22 -25 -34q-90 -41 -205 -41q-203 0 -283 140.5t-29 405.5q51 266 183.5 402t311.5 136q136 0 207 -76.5t47 -199.5q-28 -145 -166 -228.5t-363 -83.5h-104q-31 -205 25.5 -299.5t198.5 -94.5zM529 958 q-111 0 -198.5 -95t-134.5 -291h80q179 0 283 54.5t124 157.5q15 79 -29 126.5t-125 47.5zM351 1338q11 59 31.5 82.5t58.5 23.5t49.5 -23.5t0.5 -82.5q-12 -59 -32.5 -82.5t-58.5 -23.5t-49 23t0 83zM671 1338q11 59 31.5 82.5t58.5 23.5t49.5 -23.5t0.5 -82.5 q-12 -59 -32.5 -82.5t-58.5 -23.5t-49 23t0 83z" />
<glyph unicode="&#xec;" horiz-adv-x="364" d="M23 28l190 980q3 12 13 20t22 8h67q12 0 18.5 -8t3.5 -20l-190 -980q-2 -12 -11.5 -20t-21.5 -8h-67q-12 0 -19 8t-5 20zM261 1476l112 -262q8 -17 0 -27.5t-26 -10.5h-46q-27 0 -37 19l-139 257q-12 18 -9 32q3 16 25 16h80q30 0 40 -24z" />
<glyph unicode="&#xed;" horiz-adv-x="364" d="M23 28l190 980q3 12 13 20t22 8h67q12 0 18.5 -8t3.5 -20l-190 -980q-2 -12 -11.5 -20t-21.5 -8h-67q-12 0 -19 8t-5 20zM257 1214l214 262q20 24 50 24h80q10 0 15.5 -4t3.5 -12q-2 -12 -21 -32l-239 -257q-18 -19 -45 -19h-46q-18 0 -22 10.5t10 27.5z" />
<glyph unicode="&#xee;" horiz-adv-x="364" d="M23 28l190 980q3 12 13 20t22 8h67q12 0 18.5 -8t3.5 -20l-190 -980q-2 -12 -11.5 -20t-21.5 -8h-67q-12 0 -19 8t-5 20zM323 1500h96q24 0 32 -20l113 -277q6 -15 -1 -25t-24 -10h-53q-27 0 -35 18l-97 224l-185 -224q-14 -18 -41 -18h-53q-17 0 -21 10t8 25l221 277 q16 20 40 20z" />
<glyph unicode="&#xef;" horiz-adv-x="364" d="M23 28l190 980q3 12 13 20t22 8h67q12 0 18.5 -8t3.5 -20l-190 -980q-2 -12 -11.5 -20t-21.5 -8h-67q-12 0 -19 8t-5 20zM110 1338q11 59 31.5 82.5t58.5 23.5t49.5 -23.5t0.5 -82.5q-12 -59 -32.5 -82.5t-58.5 -23.5t-49 23t0 83zM430 1338q11 59 31.5 82.5t58.5 23.5 t49.5 -23.5t0.5 -82.5q-12 -59 -32.5 -82.5t-58.5 -23.5t-49 23t0 83z" />
<glyph unicode="&#xf0;" horiz-adv-x="844" d="M731 1276l161 52q13 5 22.5 -0.5t10.5 -18.5l3 -33q0 -23 -24 -32l-130 -42q94 -207 26 -558q-129 -666 -506 -666q-157 0 -224 126t-17 380q47 245 166.5 372.5t268.5 127.5q147 0 211 -106q4 171 -53 282l-321 -104q-13 -5 -23 0.5t-11 18.5l-2 33q-1 23 23 32l282 92 q-69 75 -181 109q-26 8 -17 35l16 57q4 13 16.5 19.5t24.5 2.5q184 -52 278 -179zM486 882q-230 0 -307 -398q-38 -195 -3 -300.5t138 -105.5q249 0 360 566l12 72q-20 74 -75 120t-125 46z" />
<glyph unicode="&#xf1;" horiz-adv-x="864" d="M327 1008l-10 -52q51 49 118 76.5t137 27.5q144 0 200.5 -100t17.5 -300l-123 -632q-2 -12 -12 -20t-22 -8h-67q-12 0 -18.5 8t-4.5 20l112 574q38 189 8 272.5t-139 83.5q-137 0 -229 -118l-158 -812q-2 -12 -12 -20t-22 -8h-67q-12 0 -18.5 8t-4.5 20l190 980 q7 28 34 28h68q12 0 18.5 -8t3.5 -20zM510 1472q84 0 126 -86q19 -41 31.5 -55.5t27.5 -14.5q25 0 41 24t33 97q8 31 33 31h51q12 0 17.5 -8.5t2.5 -21.5q-29 -131 -77.5 -182.5t-117.5 -51.5q-85 0 -127 86q-19 41 -31.5 55.5t-27.5 14.5q-25 0 -41 -24t-33 -97 q-8 -31 -33 -31h-51q-25 0 -20 30q29 131 78 182.5t118 51.5z" />
<glyph unicode="&#xf2;" horiz-adv-x="860" d="M799 518q-52 -268 -177.5 -405t-297.5 -137t-244.5 137t-20.5 405q53 268 178.5 405t297.5 137t244.5 -137t19.5 -405zM673 518q31 154 18 252t-57 143t-119 45q-115 0 -201 -108t-129 -332t0.5 -332t158.5 -108q114 0 200 108t129 332zM546 1476l112 -262q8 -17 0 -27.5 t-26 -10.5h-46q-27 0 -37 19l-139 257q-12 18 -9 32q3 16 25 16h80q30 0 40 -24z" />
<glyph unicode="&#xf3;" horiz-adv-x="860" d="M799 518q-52 -268 -177.5 -405t-297.5 -137t-244.5 137t-20.5 405q53 268 178.5 405t297.5 137t244.5 -137t19.5 -405zM673 518q31 154 18 252t-57 143t-119 45q-115 0 -201 -108t-129 -332t0.5 -332t158.5 -108q114 0 200 108t129 332zM470 1214l214 262q20 24 50 24h80 q10 0 15.5 -4t3.5 -12q-2 -12 -21 -32l-239 -257q-18 -19 -45 -19h-46q-18 0 -22 10.5t10 27.5z" />
<glyph unicode="&#xf4;" horiz-adv-x="860" d="M799 518q-52 -268 -177.5 -405t-297.5 -137t-244.5 137t-20.5 405q53 268 178.5 405t297.5 137t244.5 -137t19.5 -405zM673 518q31 154 18 252t-57 143t-119 45q-115 0 -201 -108t-129 -332t0.5 -332t158.5 -108q114 0 200 108t129 332zM572 1500h96q24 0 32 -20 l113 -277q6 -15 -1 -25t-24 -10h-53q-27 0 -35 18l-97 224l-185 -224q-14 -18 -41 -18h-53q-17 0 -21 10t8 25l221 277q16 20 40 20z" />
<glyph unicode="&#xf5;" horiz-adv-x="860" d="M799 518q-52 -268 -177.5 -405t-297.5 -137t-244.5 137t-20.5 405q53 268 178.5 405t297.5 137t244.5 -137t19.5 -405zM673 518q31 154 18 252t-57 143t-119 45q-115 0 -201 -108t-129 -332t0.5 -332t158.5 -108q114 0 200 108t129 332zM505 1472q84 0 126 -86 q19 -41 31.5 -55.5t27.5 -14.5q25 0 41 24t33 97q8 31 33 31h51q12 0 17.5 -8.5t2.5 -21.5q-29 -131 -77.5 -182.5t-117.5 -51.5q-85 0 -127 86q-19 41 -31.5 55.5t-27.5 14.5q-25 0 -41 -24t-33 -97q-8 -31 -33 -31h-51q-25 0 -20 30q29 131 78 182.5t118 51.5z" />
<glyph unicode="&#xf6;" horiz-adv-x="860" d="M799 518q-52 -268 -177.5 -405t-297.5 -137t-244.5 137t-20.5 405q53 268 178.5 405t297.5 137t244.5 -137t19.5 -405zM673 518q31 154 18 252t-57 143t-119 45q-115 0 -201 -108t-129 -332t0.5 -332t158.5 -108q114 0 200 108t129 332zM359 1338q11 59 31.5 82.5 t58.5 23.5t49.5 -23.5t0.5 -82.5q-12 -59 -32.5 -82.5t-58.5 -23.5t-49 23t0 83zM679 1338q11 59 31.5 82.5t58.5 23.5t49.5 -23.5t0.5 -82.5q-12 -59 -32.5 -82.5t-58.5 -23.5t-49 23t0 83z" />
<glyph unicode="&#xf7;" d="M482 1066q0 62 18.5 87t59.5 25t59.5 -25t18.5 -87t-18.5 -87t-59.5 -25t-59.5 25t-18.5 87zM482 262q0 62 18.5 87t59.5 25t59.5 -25t18.5 -87t-18.5 -87t-59.5 -25t-59.5 25t-18.5 87zM982 608h-844q-12 0 -20 8t-8 20v56q0 12 8 20t20 8h844q12 0 20 -8t8 -20v-56 q0 -12 -8 -20t-20 -8z" />
<glyph unicode="&#xf8;" horiz-adv-x="860" d="M790 518q-52 -268 -177.5 -405t-297.5 -137q-88 0 -154 37l-131 -211q-15 -22 -39 -22h-46q-17 0 -21.5 10t5.5 25l163 263q-100 138 -42 440q53 268 178.5 405t297.5 137q88 0 152 -38l132 212q15 22 40 22h46q17 0 21.5 -10t-5.5 -25l-163 -263q99 -139 41 -440z M176 518q-39 -202 -6 -314l446 717q-44 37 -110 37q-115 0 -201 -108t-129 -332zM664 518q39 201 6 313l-446 -717q42 -36 111 -36q114 0 200 108t129 332z" />
<glyph unicode="&#xf9;" horiz-adv-x="864" d="M535 28l10 52q-50 -48 -117 -76t-137 -28q-144 0 -200.5 100t-17.5 300l122 632q3 12 13 20t22 8h67q12 0 18.5 -8t3.5 -20l-111 -574q-38 -189 -8 -272.5t139 -83.5q135 0 229 118l157 812q3 12 13 20t22 8h67q12 0 18.5 -8t3.5 -20l-190 -980q-2 -12 -11.5 -20 t-21.5 -8h-68q-12 0 -18.5 8t-4.5 20zM531 1476l112 -262q8 -17 0 -27.5t-26 -10.5h-46q-27 0 -37 19l-139 257q-12 18 -9 32q3 16 25 16h80q30 0 40 -24z" />
<glyph unicode="&#xfa;" horiz-adv-x="864" d="M535 28l10 52q-50 -48 -117 -76t-137 -28q-144 0 -200.5 100t-17.5 300l122 632q3 12 13 20t22 8h67q12 0 18.5 -8t3.5 -20l-111 -574q-38 -189 -8 -272.5t139 -83.5q135 0 229 118l157 812q3 12 13 20t22 8h67q12 0 18.5 -8t3.5 -20l-190 -980q-2 -12 -11.5 -20 t-21.5 -8h-68q-12 0 -18.5 8t-4.5 20zM477 1214l214 262q20 24 50 24h80q10 0 15.5 -4t3.5 -12q-2 -12 -21 -32l-239 -257q-18 -19 -45 -19h-46q-18 0 -22 10.5t10 27.5z" />
<glyph unicode="&#xfb;" horiz-adv-x="864" d="M535 28l10 52q-50 -48 -117 -76t-137 -28q-144 0 -200.5 100t-17.5 300l122 632q3 12 13 20t22 8h67q12 0 18.5 -8t3.5 -20l-111 -574q-38 -189 -8 -272.5t139 -83.5q135 0 229 118l157 812q3 12 13 20t22 8h67q12 0 18.5 -8t3.5 -20l-190 -980q-2 -12 -11.5 -20 t-21.5 -8h-68q-12 0 -18.5 8t-4.5 20zM569 1500h96q24 0 32 -20l113 -277q6 -15 -1 -25t-24 -10h-53q-27 0 -35 18l-97 224l-185 -224q-14 -18 -41 -18h-53q-17 0 -21 10t8 25l221 277q16 20 40 20z" />
<glyph unicode="&#xfc;" horiz-adv-x="864" d="M535 28l10 52q-50 -48 -117 -76t-137 -28q-144 0 -200.5 100t-17.5 300l122 632q3 12 13 20t22 8h67q12 0 18.5 -8t3.5 -20l-111 -574q-38 -189 -8 -272.5t139 -83.5q135 0 229 118l157 812q3 12 13 20t22 8h67q12 0 18.5 -8t3.5 -20l-190 -980q-2 -12 -11.5 -20 t-21.5 -8h-68q-12 0 -18.5 8t-4.5 20zM356 1338q11 59 31.5 82.5t58.5 23.5t49.5 -23.5t0.5 -82.5q-12 -59 -32.5 -82.5t-58.5 -23.5t-49 23t0 83zM676 1338q11 59 31.5 82.5t58.5 23.5t49.5 -23.5t0.5 -82.5q-12 -59 -32.5 -82.5t-58.5 -23.5t-49 23t0 83z" />
<glyph unicode="&#xfd;" horiz-adv-x="792" d="M51 -345l172 345l-101 995q-5 41 34 41h62q30 0 32 -29l72 -813l396 813q15 29 44 29h62q38 0 18 -41l-666 -1352q-15 -29 -44 -29h-63q-38 0 -18 41zM440 1214l214 262q20 24 50 24h80q10 0 15.5 -4t3.5 -12q-2 -12 -21 -32l-239 -257q-18 -19 -45 -19h-46 q-18 0 -22 10.5t10 27.5z" />
<glyph unicode="&#xfe;" horiz-adv-x="870" d="M146 80l-85 -437q-2 -12 -12 -20.5t-22 -8.5h-67q-12 0 -18.5 8.5t-4.5 20.5l348 1789q2 12 12 20t22 8h67q12 0 18.5 -8t4.5 -20l-93 -476q116 104 247 104q163 0 229 -139.5t15 -402.5t-171.5 -402.5t-283.5 -139.5q-131 0 -206 104zM681 518q43 220 -1.5 330 t-164.5 110q-58 0 -117 -31.5t-104 -86.5l-125 -644q24 -55 70.5 -86.5t104.5 -31.5q120 0 207 110t130 330z" />
<glyph unicode="&#xff;" horiz-adv-x="792" d="M51 -345l172 345l-101 995q-5 41 34 41h62q30 0 32 -29l72 -813l396 813q15 29 44 29h62q38 0 18 -41l-666 -1352q-15 -29 -44 -29h-63q-38 0 -18 41zM319 1338q11 59 31.5 82.5t58.5 23.5t49.5 -23.5t0.5 -82.5q-12 -59 -32.5 -82.5t-58.5 -23.5t-49 23t0 83zM639 1338 q11 59 31.5 82.5t58.5 23.5t49.5 -23.5t0.5 -82.5q-12 -59 -32.5 -82.5t-58.5 -23.5t-49 23t0 83z" />
<glyph unicode="&#x152;" horiz-adv-x="1264" d="M666 110h430q12 0 18.5 -8t3.5 -20l-10 -53q-2 -13 -11.5 -21t-21.5 -8h-544q-260 0 -376 182.5t-50 517.5q64 334 251.5 517t446.5 183h529q12 0 18.5 -8t4.5 -21l-10 -53q-2 -12 -12.5 -20t-22.5 -8h-415l-100 -514h380q12 0 18.5 -8.5t4.5 -20.5l-10 -52 q-3 -12 -12.5 -20.5t-21.5 -8.5h-380zM538 110l227 1178q-204 -17 -340 -162t-190 -426q-107 -545 303 -590z" />
<glyph unicode="&#x153;" horiz-adv-x="1366" d="M958 78q85 0 171 43q17 8 28 3t10 -21l-4 -47q-1 -22 -25 -34q-92 -46 -202 -46q-127 0 -200 67t-90 193q-56 -124 -143.5 -192t-198.5 -68q-167 0 -231.5 138.5t-13.5 403.5q51 264 170 403t286 139q104 0 169 -68.5t72 -189.5q60 122 156 190t217 68q134 0 198 -76 t40 -200q-28 -143 -157 -228.5t-340 -85.5h-116q-29 -194 26 -293t178 -99zM183 518q-41 -226 -4 -333t145 -107t188.5 111.5t122.5 328.5q41 220 4.5 330t-144.5 110t-188.5 -109.5t-123.5 -330.5zM773 570h92q336 0 378 214q16 82 -21 129t-119 47q-112 0 -198 -96.5 t-132 -293.5z" />
<glyph unicode="&#x178;" horiz-adv-x="972" d="M417 0h-70q-12 0 -19 8t-5 21l103 527l-217 801q-5 20 4 31.5t30 11.5h59q29 0 36 -25l178 -685l444 685q16 25 46 25h59q44 0 16 -43l-527 -801l-103 -527q-2 -13 -12 -21t-22 -8zM479 1686q12 59 32.5 82.5t58.5 23.5t49 -23t0 -83q-11 -59 -31.5 -82.5t-58.5 -23.5 t-49.5 23.5t-0.5 82.5zM799 1686q12 59 32.5 82.5t58.5 23.5t49 -23t0 -83q-11 -59 -31.5 -82.5t-58.5 -23.5t-49.5 23.5t-0.5 82.5z" />
<glyph unicode="&#x2c6;" horiz-adv-x="640" d="M442 1460h96q24 0 32 -20l114 -277q6 -15 -1.5 -25t-24.5 -10h-53q-27 0 -35 18l-97 224l-185 -224q-14 -18 -41 -18h-53q-17 0 -20.5 10t8.5 25l220 277q16 20 40 20z" />
<glyph unicode="&#x2dc;" horiz-adv-x="640" d="M385 1434q85 0 127 -86q19 -41 31.5 -55.5t27.5 -14.5q25 0 41 24t32 97q8 31 33 31h51q26 0 21 -30q-29 -131 -78 -182.5t-118 -51.5q-84 0 -126 86q-19 41 -32 55.5t-28 14.5q-25 0 -40.5 -24t-32.5 -97q-8 -31 -33 -31h-51q-12 0 -17.5 8t-2.5 22q29 131 77.5 182.5 t117.5 51.5z" />
<glyph unicode="&#x2000;" horiz-adv-x="946" />
<glyph unicode="&#x2001;" horiz-adv-x="1892" />
<glyph unicode="&#x2002;" horiz-adv-x="946" />
<glyph unicode="&#x2003;" horiz-adv-x="1892" />
<glyph unicode="&#x2004;" horiz-adv-x="630" />
<glyph unicode="&#x2005;" horiz-adv-x="473" />
<glyph unicode="&#x2006;" horiz-adv-x="315" />
<glyph unicode="&#x2007;" horiz-adv-x="315" />
<glyph unicode="&#x2008;" horiz-adv-x="236" />
<glyph unicode="&#x2009;" horiz-adv-x="378" />
<glyph unicode="&#x200a;" horiz-adv-x="105" />
<glyph unicode="&#x2010;" horiz-adv-x="712" d="M598 604h-456q-12 0 -18.5 8t-4.5 20l13 64q2 12 11.5 20t21.5 8h456q12 0 18.5 -8t4.5 -20l-13 -64q-2 -12 -11.5 -20t-21.5 -8z" />
<glyph unicode="&#x2011;" horiz-adv-x="712" d="M598 604h-456q-12 0 -18.5 8t-4.5 20l13 64q2 12 11.5 20t21.5 8h456q12 0 18.5 -8t4.5 -20l-13 -64q-2 -12 -11.5 -20t-21.5 -8z" />
<glyph unicode="&#x2012;" horiz-adv-x="712" d="M598 604h-456q-12 0 -18.5 8t-4.5 20l13 64q2 12 11.5 20t21.5 8h456q12 0 18.5 -8t4.5 -20l-13 -64q-2 -12 -11.5 -20t-21.5 -8z" />
<glyph unicode="&#x2013;" horiz-adv-x="1000" d="M988 608h-944q-12 0 -18.5 8t-4.5 20l11 56q2 12 11.5 20t21.5 8h944q12 0 18.5 -8t4.5 -20l-11 -56q-2 -12 -11.5 -20t-21.5 -8z" />
<glyph unicode="&#x2014;" horiz-adv-x="2000" d="M1988 608h-1944q-12 0 -18.5 8t-4.5 20l11 56q2 12 11.5 20t21.5 8h1944q12 0 18.5 -8t4.5 -20l-11 -56q-2 -12 -11.5 -20t-21.5 -8z" />
<glyph unicode="&#x2018;" horiz-adv-x="360" d="M453 1457q-80 -78 -92 -145q26 -10 33 -35.5t-3 -76.5q-13 -62 -36 -88t-64 -26q-42 0 -55 27t0 93q19 99 60.5 173t116.5 136q10 9 19.5 9t13.5 -8l14 -31q6 -15 -7 -28z" />
<glyph unicode="&#x2019;" horiz-adv-x="360" d="M212 1163q78 78 92 145q-27 10 -34 35.5t4 76.5q12 62 35.5 88t64.5 26t54 -27t0 -93q-19 -100 -60.5 -173.5t-116.5 -135.5q-10 -9 -19.5 -9t-13.5 8l-14 31q-7 15 8 28z" />
<glyph unicode="&#x201a;" horiz-adv-x="360" d="M-47 -171q80 78 92 145q-26 10 -33 35.5t3 76.5q13 62 36 88t64 26q42 0 55 -27t0 -93q-19 -99 -60.5 -173t-116.5 -136q-10 -9 -19.5 -9t-13.5 8l-14 31q-6 15 7 28z" />
<glyph unicode="&#x201c;" horiz-adv-x="590" d="M453 1457q-80 -78 -92 -145q26 -10 33 -35.5t-3 -76.5q-13 -62 -36 -88t-64 -26q-42 0 -55 27t0 93q19 99 60.5 173t116.5 136q10 9 19.5 9t13.5 -8l14 -31q6 -15 -7 -28zM683 1457q-80 -78 -92 -145q26 -10 33 -35.5t-3 -76.5q-13 -62 -36 -88t-64 -26q-42 0 -55 27 t0 93q19 99 60.5 173t116.5 136q10 9 19.5 9t13.5 -8l14 -31q6 -15 -7 -28z" />
<glyph unicode="&#x201d;" horiz-adv-x="590" d="M442 1163q78 78 92 145q-27 10 -34 35.5t4 76.5q12 62 35.5 88t64.5 26t54 -27t0 -93q-19 -100 -60.5 -173.5t-116.5 -135.5q-10 -9 -19.5 -9t-13.5 8l-14 31q-7 15 8 28zM212 1163q78 78 92 145q-27 10 -34 35.5t4 76.5q12 62 35.5 88t64.5 26t54 -27t0 -93 q-19 -100 -60.5 -173.5t-116.5 -135.5q-10 -9 -19.5 -9t-13.5 8l-14 31q-7 15 8 28z" />
<glyph unicode="&#x201e;" horiz-adv-x="590" d="M-46 -173q80 78 92 145q-26 10 -33 35.5t3 76.5q12 62 35.5 88t64.5 26t54.5 -27t0.5 -93q-20 -100 -61.5 -173.5t-115.5 -135.5q-25 -20 -34 -1l-14 31q-7 15 8 28zM184 -173q80 78 92 145q-26 10 -33 35.5t3 76.5q12 62 35.5 88t64.5 26t54.5 -27t0.5 -93 q-20 -100 -61.5 -173.5t-115.5 -135.5q-25 -20 -34 -1l-14 31q-7 15 8 28z" />
<glyph unicode="&#x2022;" horiz-adv-x="540" d="M128 664q0 196 172 196t172 -196q0 -198 -172 -198t-172 198z" />
<glyph unicode="&#x2026;" horiz-adv-x="1080" d="M19 88q12 62 35 87t64 25t55 -25t2 -87q-13 -62 -36 -87t-64 -25t-54.5 25t-1.5 87zM739 88q12 62 35 87t64 25t55 -25t2 -87q-13 -62 -36 -87t-64 -25t-54.5 25t-1.5 87zM379 88q12 62 35 87t64 25t55 -25t2 -87q-13 -62 -36 -87t-64 -25t-54.5 25t-1.5 87z" />
<glyph unicode="&#x202f;" horiz-adv-x="378" />
<glyph unicode="&#x2039;" horiz-adv-x="600" d="M134 600l9 48q5 17 17 27l388 325q18 15 31.5 10t9.5 -26l-11 -57q-6 -25 -25 -40l-320 -263l218 -263q13 -16 9 -40l-11 -57q-4 -21 -19.5 -26t-27.5 10l-262 325q-9 11 -6 27z" />
<glyph unicode="&#x203a;" horiz-adv-x="600" d="M498 648l-9 -48q-3 -15 -16 -27l-388 -325q-18 -15 -31.5 -10t-9.5 26l11 57q4 24 25 40l320 263l-218 263q-15 16 -9 40l11 57q4 21 19.5 26t27.5 -10l262 -325q9 -13 5 -27z" />
<glyph unicode="&#x205f;" horiz-adv-x="473" />
<glyph unicode="&#x20ac;" horiz-adv-x="924" d="M753 16q-95 -40 -207 -40q-97 0 -172.5 30.5t-122.5 81.5t-76 123t-38.5 151.5t-4.5 169.5h-63q-12 0 -19 8t-5 20l6 29q2 12 12.5 20.5t22.5 8.5h55q8 80 31 162h-55q-12 0 -19 8t-4 20l5 29q3 13 13 21t22 8h63q37 114 91.5 210.5t130.5 176.5t179.5 125.5t224.5 45.5 q104 0 188 -39q19 -9 13 -35l-15 -57q-4 -16 -18 -21.5t-27 2.5q-68 36 -161 36q-76 0 -143.5 -26.5t-117 -69t-92.5 -102t-71.5 -119t-51.5 -127.5h479q33 0 22 -30l-13 -34q-6 -22 -32 -22h-481q-26 -82 -31 -162h431q33 0 22 -30l-13 -34q-8 -22 -32 -22h-415 q-4 -68 2 -128t26 -119t53.5 -101t91 -68t133.5 -26q96 0 179 36q17 8 28 2.5t9 -21.5l-7 -56q-3 -26 -26 -35z" />
<glyph unicode="&#x2122;" horiz-adv-x="1024" d="M188 773v541h-114q-26 0 -26 25v36q0 25 26 25h329q25 0 25 -25v-36q0 -25 -25 -25h-115v-541q0 -25 -26 -25h-49q-25 0 -25 25zM711 980h26q17 0 25 18l114 256v-484q0 -24 25 -24h50q25 0 25 24v605q0 25 -25 25h-77q-21 0 -29 -17l-121 -273l-121 273q-8 17 -29 17 h-77q-25 0 -25 -25v-605q0 -24 25 -24h50q25 0 25 24v484l114 -256q7 -18 25 -18z" />
<glyph unicode="&#x25fc;" horiz-adv-x="1035" d="M0 1035h1035v-1035h-1035v1035z" />
</font>
</defs>
</svg>
