<?xml version="1.0" standalone="no"?>
<!DOCTYPE svg PUBLIC "-//W3C//DTD SVG 1.1//EN" "http://www.w3.org/Graphics/SVG/1.1/DTD/svg11.dtd" >
<svg xmlns="http://www.w3.org/2000/svg">
<metadata></metadata>
<defs>
<font id="core_sans_nr_77_cn_extrabolRg" horiz-adv-x="1008" >
<font-face units-per-em="2000" ascent="1600" descent="-400" />
<missing-glyph horiz-adv-x="444" />
<glyph unicode="&#xfb01;" horiz-adv-x="1176" d="M4 856v143q0 15 11 26t27 11h106v75q0 349 347 349q79 0 158 -18q35 -8 32 -44l-13 -139q-2 -17 -14 -24t-31 -3q-28 6 -50 6q-55 0 -80 -31t-25 -102v-69h157q16 0 26.5 -11t10.5 -26v-143q0 -16 -10.5 -27t-26.5 -11h-157v-781q0 -15 -10.5 -26t-26.5 -11h-250 q-15 0 -26 11t-11 26v781h-106q-16 0 -27 11t-11 27zM740 1306q0 79 43 116.5t135 37.5t136 -37.5t44 -116.5q0 -80 -44 -117t-136 -37t-135 36.5t-43 117.5zM756 37v962q0 15 11 26t26 11h250q15 0 26 -11t11 -26v-962q0 -15 -11 -26t-26 -11h-250q-15 0 -26 11t-11 26z " />
<glyph unicode="&#xfb02;" horiz-adv-x="1174" d="M4 856v143q0 15 11 26t27 11h106v75q0 349 347 349q79 0 158 -18q35 -8 32 -44l-13 -139q-2 -17 -14 -24t-31 -3q-28 6 -50 6q-55 0 -80 -31t-25 -102v-69h157q16 0 26.5 -11t10.5 -26v-143q0 -16 -10.5 -27t-26.5 -11h-157v-781q0 -15 -10.5 -26t-26.5 -11h-250 q-15 0 -26 11t-11 26v781h-106q-16 0 -27 11t-11 27zM756 37v1386q0 15 10.5 26t26.5 11h250q15 0 26 -11t11 -26v-1386q0 -15 -11 -26t-26 -11h-250q-16 0 -26.5 11t-10.5 26z" />
<glyph unicode="&#xfb03;" horiz-adv-x="1784" d="M42 1036h107v75q0 349 349 349q94 0 161 -18q37 -10 33 -49l-12 -126q-1 -19 -14.5 -28.5t-32.5 -5.5q-27 5 -53 5q-57 0 -82.5 -32t-25.5 -103v-67h284v75q0 349 347 349q79 0 158 -18q35 -8 32 -44l-13 -139q-2 -17 -14 -24t-31 -3q-28 6 -50 6q-55 0 -80 -31t-25 -102 v-69h157q16 0 26.5 -11t10.5 -26v-143q0 -16 -10.5 -27t-26.5 -11h-157v-781q0 -15 -10.5 -26t-26.5 -11h-250q-15 0 -26 11t-11 26v781h-284v-781q0 -15 -10.5 -26t-26.5 -11h-250q-15 0 -26 11t-11 26v781h-106q-16 0 -27 11t-11 27v143q0 15 11 26t27 11zM1348 1306 q0 79 43 116.5t135 37.5t136 -37.5t44 -116.5q0 -80 -44 -117t-136 -37t-135 36.5t-43 117.5zM1364 37v962q0 15 11 26t26 11h250q15 0 26 -11t11 -26v-962q0 -15 -11 -26t-26 -11h-250q-15 0 -26 11t-11 26z" />
<glyph unicode="&#xfb04;" horiz-adv-x="1782" d="M42 1036h107v75q0 349 349 349q94 0 161 -18q37 -10 33 -49l-12 -126q-1 -19 -14.5 -28.5t-32.5 -5.5q-27 5 -53 5q-57 0 -82.5 -32t-25.5 -103v-67h284v75q0 349 347 349q79 0 158 -18q35 -8 32 -44l-13 -139q-2 -17 -14 -24t-31 -3q-28 6 -50 6q-55 0 -80 -31t-25 -102 v-69h157q16 0 26.5 -11t10.5 -26v-143q0 -16 -10.5 -27t-26.5 -11h-157v-781q0 -15 -10.5 -26t-26.5 -11h-250q-15 0 -26 11t-11 26v781h-284v-781q0 -15 -10.5 -26t-26.5 -11h-250q-15 0 -26 11t-11 26v781h-106q-16 0 -27 11t-11 27v143q0 15 11 26t27 11zM1364 37v1386 q0 15 10.5 26t26.5 11h250q15 0 26 -11t11 -26v-1386q0 -15 -11 -26t-26 -11h-250q-16 0 -26.5 11t-10.5 26z" />
<glyph horiz-adv-x="666" />
<glyph horiz-adv-x="0" />
<glyph horiz-adv-x="0" />
<glyph unicode="&#xd;" horiz-adv-x="258" />
<glyph unicode=" "  horiz-adv-x="444" />
<glyph unicode="&#x09;" horiz-adv-x="444" />
<glyph unicode="&#xa0;" horiz-adv-x="444" />
<glyph unicode="!" horiz-adv-x="596" d="M395 418h-192q-15 0 -25.5 10t-11.5 25l-36 614v296q0 15 10.5 26t26.5 11h264q16 0 26.5 -11t10.5 -26v-296l-36 -614q-1 -15 -11.5 -25t-25.5 -10zM120 144q0 86 43.5 127t134.5 41t134.5 -41t43.5 -127t-43.5 -127t-134.5 -41t-134.5 41t-43.5 127z" />
<glyph unicode="&#x22;" horiz-adv-x="1000" d="M461 1362v-42l-41 -496q-1 -14 -12 -24t-25 -10h-174q-15 0 -25.5 10t-11.5 25l-21 537q-1 16 9.5 27t26.5 11h238q16 0 26 -11t10 -27zM849 1362v-42l-41 -496q-1 -14 -12 -24t-25 -10h-174q-15 0 -25.5 10t-11.5 25l-21 537q-1 16 9.5 27t26.5 11h238q16 0 26 -11 t10 -27z" />
<glyph unicode="#" horiz-adv-x="1130" d="M234 850h-109q-15 0 -26 11t-11 26v178q0 16 11 26.5t26 10.5h140l34 265q1 13 12.5 23t24.5 10h213q18 0 28.5 -12.5t8.5 -29.5l-33 -256h122l33 266q2 13 13 22.5t24 9.5h213q17 0 28 -12.5t9 -29.5l-32 -256h105q16 0 26.5 -10.5t10.5 -26.5v-178q0 -15 -10.5 -26 t-26.5 -11h-137l-37 -298h110q15 0 26 -11t11 -26v-178q0 -16 -11 -26.5t-26 -10.5h-141l-34 -267q-1 -13 -12.5 -23t-24.5 -10h-214q-18 0 -28.5 12.5t-8.5 29.5l34 258h-122l-34 -268q-2 -13 -13 -22.5t-24 -9.5h-213q-17 0 -28 12.5t-9 29.5l32 258h-103 q-16 0 -26.5 10.5t-10.5 26.5v178q0 15 10.5 26t26.5 11h135zM522 850l-38 -298h123l35 298h-120z" />
<glyph unicode="$" horiz-adv-x="952" d="M144 314q119 -68 244 -68q168 0 168 136q0 71 -40 116t-146 88q-306 123 -306 432q0 158 78.5 258.5t229.5 132.5v172q0 15 11 26t26 11h118q16 0 26.5 -11t10.5 -26v-158q131 -7 245 -50q31 -11 29 -43l-14 -191q-1 -22 -18.5 -30t-39.5 2q-95 43 -200 43 q-162 0 -162 -126q0 -71 43 -113t157 -91q150 -65 221 -169t71 -257q0 -168 -79 -272t-235 -136v-171q0 -15 -10.5 -26t-26.5 -11h-118q-15 0 -26 11t-11 26v158q-170 7 -290 58q-31 11 -29 43l15 206q1 24 19 33t39 -3z" />
<glyph unicode="%" horiz-adv-x="1500" d="M1104 774q149 0 227.5 -100.5t78.5 -293.5t-78.5 -293.5t-227.5 -100.5t-227.5 100.5t-78.5 293.5t78.5 293.5t227.5 100.5zM1104 192q28 0 42 40t14 148t-14 148t-42 40t-42 -40t-14 -148t14 -148t42 -40zM396 1416q149 0 227.5 -100.5t78.5 -293.5t-78.5 -293.5 t-227.5 -100.5t-227.5 100.5t-78.5 293.5t78.5 293.5t227.5 100.5zM396 834q28 0 42 40t14 148t-14 148t-42 40t-42 -40t-14 -148t14 -148t42 -40zM1139 1358l-617 -1336q-11 -22 -33 -22h-103q-47 0 -27 42l617 1336q11 22 33 22h103q47 0 27 -42z" />
<glyph unicode="&#x26;" horiz-adv-x="1210" d="M804 743q1 16 11.5 26.5t25.5 10.5h223q17 0 28 -10.5t10 -27.5q-12 -255 -112 -444l189 -238q17 -22 8 -41t-37 -19h-266q-28 0 -44 20l-42 54q-139 -98 -326 -98q-188 0 -305 104t-117 304q0 116 54 212.5t156 159.5q-128 153 -128 318q0 160 95.5 255t274.5 95 q172 0 272 -93.5t100 -254.5q0 -108 -56 -200.5t-158 -159.5l116 -148q22 87 28 175zM500 212q71 0 136 68l-214 276q-68 -65 -68 -176q0 -73 39.5 -120.5t106.5 -47.5zM580 1074q0 124 -76 124q-70 0 -70 -120q0 -103 68 -182q78 64 78 178z" />
<glyph unicode="'" horiz-adv-x="592" d="M451 1362v-42l-41 -496q-1 -14 -12 -24t-25 -10h-174q-15 0 -25.5 10t-11.5 25l-21 537q-1 16 9.5 27t26.5 11h238q16 0 26 -11t10 -27z" />
<glyph unicode="(" horiz-adv-x="676" d="M150 620q0 445 228 846q20 34 61 34h160q25 0 33 -15t-4 -40q-194 -397 -194 -825t194 -825q12 -25 4 -40t-33 -15h-160q-41 0 -61 34q-228 401 -228 846z" />
<glyph unicode=")" horiz-adv-x="676" d="M514 620q0 -445 -228 -846q-20 -34 -61 -34h-160q-25 0 -33 15t4 40q194 397 194 825t-194 825q-12 25 -4 40t33 15h160q41 0 61 -34q228 -401 228 -846z" />
<glyph unicode="*" horiz-adv-x="1052" d="M804 347l-184 140l30 -229q2 -18 -8 -30t-29 -12h-189q-20 0 -30 12t-8 30l30 229l-184 -140q-14 -12 -29.5 -9t-25.5 21l-94 163q-9 17 -4.5 31.5t21.5 21.5l214 89l-214 89q-17 7 -21.5 21.5t4.5 31.5l94 163q10 18 25.5 21t29.5 -9l184 -140l-30 229q-2 18 8 30t30 12 h189q19 0 29 -12t8 -30l-30 -229l184 140q14 12 29 9t25 -20l95 -163q10 -18 5 -32.5t-22 -21.5l-215 -89l215 -89q17 -7 22 -21.5t-5 -32.5l-95 -163q-10 -17 -25 -20t-29 9z" />
<glyph unicode="+" horiz-adv-x="1036" d="M378 197v349h-291q-16 0 -26.5 10.5t-10.5 26.5v162q0 15 10.5 26t26.5 11h291v349q0 15 11 26t26 11h206q15 0 26 -11t11 -26v-349h290q16 0 27 -11t11 -26v-162q0 -16 -11 -26.5t-27 -10.5h-290v-349q0 -16 -11 -26.5t-26 -10.5h-206q-15 0 -26 10.5t-11 26.5z" />
<glyph unicode="," horiz-adv-x="504" d="M131 -183q64 71 67 165q-104 26 -104 174q0 92 38.5 136t119.5 44t119.5 -44t38.5 -136q0 -301 -196 -454q-16 -12 -31.5 -9.5t-25.5 19.5l-34 61q-12 22 8 44z" />
<glyph unicode="-" horiz-adv-x="692" d="M585 536h-478q-15 0 -26 11t-11 26v182q0 15 11 26t26 11h478q15 0 26 -11t11 -26v-182q0 -15 -11 -26t-26 -11z" />
<glyph unicode="." horiz-adv-x="504" d="M252 -24q-81 0 -119.5 44t-38.5 136t38.5 136t119.5 44t119.5 -44t38.5 -136t-38.5 -136t-119.5 -44z" />
<glyph unicode="/" horiz-adv-x="858" d="M-20 -175l605 1645q10 26 39 26h211q21 0 29 -12.5t0 -32.5l-605 -1645q-10 -26 -39 -26h-211q-21 0 -29 12.5t0 32.5z" />
<glyph unicode="0" d="M504 1424q225 0 336.5 -175.5t111.5 -548.5t-111.5 -548.5t-336.5 -175.5t-336.5 175.5t-111.5 548.5t111.5 548.5t336.5 175.5zM504 236q45 0 70.5 33t41.5 137t16 294t-16 294t-41.5 137t-70.5 33t-70.5 -33t-41.5 -137t-16 -294t16 -294t41.5 -137t70.5 -33z" />
<glyph unicode="1" d="M394 1020l-135 -121q-13 -11 -29 -9.5t-26 15.5l-108 148q-8 10 -6 25.5t12 24.5l301 270q30 27 70 27h220q15 0 26 -11t11 -26v-1326q0 -15 -11 -26t-26 -11h-262q-15 0 -26 11t-11 26v983z" />
<glyph unicode="2" d="M98 37v140q0 46 32 81q71 77 139 165t131 187t101.5 197.5t38.5 174.5q0 89 -43 135.5t-125 46.5q-101 0 -187 -40q-19 -9 -34.5 1t-17.5 31l-9 166q-1 34 28 46q135 56 290 56q211 0 324.5 -110t113.5 -312q0 -106 -31.5 -210t-89.5 -199t-120.5 -173t-144.5 -164h347 q15 0 26 -11t11 -27v-181q0 -15 -11 -26t-26 -11h-706q-15 0 -26 11t-11 26z" />
<glyph unicode="3" d="M163 284q97 -58 218 -58q170 0 170 168q0 55 -27 97t-73 66t-96 36.5t-106 15.5q-14 1 -24 11.5t-10 25.5v164q0 14 10.5 25t24.5 12q289 13 289 181q0 69 -38.5 107.5t-113.5 38.5q-109 0 -210 -48q-19 -10 -36 -2.5t-18 28.5l-10 175q-2 28 24 39q136 58 314 58 q206 0 317 -95.5t111 -264.5q0 -247 -216 -336q108 -38 168 -127.5t60 -216.5q0 -192 -123 -300t-337 -108q-177 0 -311 55q-31 13 -28 51l13 177q2 21 20 29t38 -4z" />
<glyph unicode="4" d="M526 260h-445q-16 0 -26.5 10.5t-10.5 26.5v175q0 57 25 110l383 789q14 29 49 29h314q16 0 26.5 -11t10.5 -26v-837h76q16 0 27 -11t11 -26v-192q0 -16 -11 -26.5t-27 -10.5h-76v-223q0 -15 -10.5 -26t-26.5 -11h-252q-15 0 -26 11t-11 26v223zM526 990l-226 -464h226 v464z" />
<glyph unicode="5" d="M149 676v687q0 15 11 26t26 11h652q15 0 26 -11t11 -26v-172q0 -15 -11 -26t-26 -11h-363v-266q42 6 80 6q156 0 254 -114t98 -324q0 -231 -122.5 -355.5t-359.5 -124.5q-169 0 -281 44q-33 13 -30 47l14 172q2 24 17 32.5t36 -2.5q86 -43 186 -43q97 0 148.5 56.5 t51.5 171.5q0 105 -51.5 159.5t-154.5 54.5q-85 0 -156 -26q-24 -10 -40 -1t-16 35z" />
<glyph unicode="6" d="M520 682q-71 0 -116 -48q0 -53 1 -90t3.5 -83t8 -77.5t14.5 -63.5t22 -51t32.5 -31t44.5 -12q104 0 104 232q0 119 -29 171.5t-85 52.5zM808 1138q-76 36 -166 36q-48 0 -80.5 -10t-65 -40t-53.5 -94t-31 -162q84 64 202 64q163 0 252.5 -120.5t89.5 -351.5 q0 -233 -108.5 -358.5t-311.5 -125.5q-464 0 -464 686q0 398 134 580t390 182q128 0 247 -38q13 -4 21.5 -15t7.5 -25l-11 -178q-1 -21 -17.5 -30t-35.5 0z" />
<glyph unicode="7" d="M201 48l347 1086h-431q-15 0 -26 11t-11 26v192q0 15 11 26t26 11h746q15 0 26 -11t11 -26v-186q0 -46 -11 -80l-336 -1061q-11 -36 -48 -36h-269q-24 0 -33 13.5t-2 34.5z" />
<glyph unicode="8" d="M504 1424q191 0 299.5 -98t108.5 -266q0 -99 -49 -182t-131 -130q103 -54 163.5 -147.5t60.5 -212.5q0 -189 -122.5 -300.5t-329.5 -111.5q-208 0 -331 111.5t-123 300.5q0 120 58.5 213t161.5 145q-81 50 -128.5 133t-47.5 179q0 169 107.5 267.5t302.5 98.5zM504 214 q52 0 84 42t32 124q0 147 -124 218q-54 -32 -83 -90.5t-29 -127.5q0 -82 33 -124t87 -42zM504 1186q-96 0 -96 -142q0 -124 98 -190q92 64 92 192q0 140 -94 140z" />
<glyph unicode="9" d="M486 718q71 0 116 48q0 53 -1 90t-3.5 83t-8 77.5t-14.5 63.5t-22 51t-32.5 31t-44.5 12q-104 0 -104 -232q0 -119 29 -171.5t85 -52.5zM198 262q76 -36 166 -36q48 0 80.5 10t65 40t53.5 94t31 162q-84 -64 -202 -64q-163 0 -252.5 120.5t-89.5 351.5q0 233 108.5 358.5 t311.5 125.5q464 0 464 -686q0 -398 -134 -580t-390 -182q-128 0 -247 38q-13 4 -21.5 15t-7.5 25l11 178q1 21 17.5 30t35.5 0z" />
<glyph unicode=":" horiz-adv-x="504" d="M252 -24q-81 0 -119.5 44t-38.5 136t38.5 136t119.5 44t119.5 -44t38.5 -136t-38.5 -136t-119.5 -44zM252 700q-81 0 -119.5 44t-38.5 136t38.5 136t119.5 44t119.5 -44t38.5 -136t-38.5 -136t-119.5 -44z" />
<glyph unicode=";" horiz-adv-x="504" d="M252 700q-81 0 -119.5 44t-38.5 136t38.5 136t119.5 44t119.5 -44t38.5 -136t-38.5 -136t-119.5 -44zM131 -183q64 71 67 165q-104 26 -104 174q0 92 38.5 136t119.5 44t119.5 -44t38.5 -136q0 -301 -196 -454q-16 -12 -31.5 -9.5t-25.5 19.5l-34 61q-12 22 8 44z" />
<glyph unicode="&#x3c;" horiz-adv-x="1036" d="M50 537v254q0 36 30 47l855 330q21 8 36 -2t15 -33v-192q0 -37 -36 -50l-644 -227l644 -227q36 -13 36 -50v-192q0 -23 -15 -33t-36 -2l-855 330q-30 11 -30 47z" />
<glyph unicode="=" horiz-adv-x="1036" d="M949 778h-862q-15 0 -26 11t-11 26v162q0 15 11 26t26 11h862q15 0 26 -11t11 -26v-162q0 -15 -11 -26t-26 -11zM949 312h-862q-15 0 -26 11t-11 26v162q0 15 11 26t26 11h862q15 0 26 -11t11 -26v-162q0 -15 -11 -26t-26 -11z" />
<glyph unicode="&#x3e;" horiz-adv-x="1036" d="M986 791v-254q0 -36 -30 -47l-855 -330q-21 -8 -36 2t-15 33v192q0 37 36 50l644 227l-644 227q-36 13 -36 50v192q0 23 15 33t36 2l855 -330q30 -11 30 -47z" />
<glyph unicode="?" horiz-adv-x="894" d="M119 1114q-19 -11 -36 -2.5t-18 33.5l-13 177q-3 29 24 41q135 61 292 61q212 0 324 -98t112 -274q0 -104 -48.5 -194t-143.5 -180q-64 -61 -64 -198v-29q0 -15 -11 -26t-26 -11h-252q-16 0 -26.5 11t-10.5 26v43q0 114 36.5 200.5t119.5 163.5q82 76 82 184 q0 58 -36.5 90t-107.5 32q-104 0 -197 -50zM208 144q0 86 43.5 127t134.5 41t134.5 -41t43.5 -127t-43.5 -127t-134.5 -41t-134.5 41t-43.5 127z" />
<glyph unicode="@" horiz-adv-x="1468" d="M684 320q75 0 116 80l50 376q-22 28 -72 28q-71 0 -123.5 -94.5t-52.5 -237.5q0 -152 82 -152zM1149 -208q-156 -116 -407 -116q-144 0 -269 58.5t-218.5 167t-147 275.5t-53.5 373q0 210 55 378.5t149.5 275.5t217 163.5t260.5 56.5q150 0 275.5 -57.5t214.5 -163.5 t138.5 -263.5t49.5 -351.5q0 -224 -83.5 -359t-238.5 -135q-66 0 -120.5 33t-79.5 91q-88 -118 -252 -118q-140 0 -216 101t-76 263q0 121 35.5 226.5t94.5 177.5t137.5 113t162.5 41q182 0 292 -148q29 -40 21 -98l-55 -372q-4 -62 16.5 -103t55.5 -41q48 0 79 85.5 t31 242.5q0 310 -131 484t-351 174q-100 0 -187 -44.5t-154 -129.5t-106 -219.5t-39 -302.5q0 -326 139.5 -511t358.5 -185q199 0 323 102q17 14 32.5 11t23.5 -23l38 -102q5 -12 0.5 -26.5t-16.5 -23.5z" />
<glyph unicode="A" horiz-adv-x="1124" d="M557 1118l-110 -562h218zM359 1400h396q36 0 44 -35l309 -1317q4 -20 -6.5 -34t-30.5 -14h-264q-33 0 -40 32l-52 268h-316l-52 -268q-7 -32 -40 -32h-264q-20 0 -30.5 14t-6.5 34l309 1317q8 35 44 35z" />
<glyph unicode="B" horiz-adv-x="1074" d="M436 236h120q148 0 148 184t-148 184h-120v-368zM672 1002q0 88 -36 125t-106 37h-94v-326h94q70 0 106 37.5t36 126.5zM148 1400h406q211 0 322.5 -97.5t111.5 -280.5q0 -93 -38 -165.5t-112 -112.5q91 -38 143.5 -127.5t52.5 -196.5q0 -420 -462 -420h-424 q-16 0 -27 11t-11 27v1324q0 16 11 27t27 11z" />
<glyph unicode="C" horiz-adv-x="1010" d="M912 280q19 8 36 0t18 -30l12 -178q3 -41 -36 -55q-112 -41 -258 -41q-302 0 -466 192.5t-164 531.5t161.5 531.5t460.5 192.5q142 0 259 -43q34 -13 33 -45l-12 -188q-1 -22 -18 -30.5t-36 0.5q-85 36 -186 36q-153 0 -237.5 -116.5t-84.5 -337.5q0 -222 85.5 -338 t242.5 -116q105 0 190 34z" />
<glyph unicode="D" horiz-adv-x="1140" d="M756 700q0 246 -56 345t-184 99h-80v-888h80q128 0 184 99t56 345zM148 1400h376q284 0 423 -172.5t139 -527.5q0 -356 -139 -528t-423 -172h-376q-16 0 -27 11t-11 27v1324q0 16 11 27t27 11z" />
<glyph unicode="E" horiz-adv-x="982" d="M110 38v1324q0 16 11 27t27 11h724q16 0 27 -11t11 -27v-180q0 -16 -11 -27t-27 -11h-426v-304h392q16 0 27 -11t11 -27v-181q0 -15 -11 -26t-27 -11h-392v-328h439q15 0 26 -11t11 -27v-180q0 -16 -11 -27t-26 -11h-737q-16 0 -27 11t-11 27z" />
<glyph unicode="F" horiz-adv-x="926" d="M110 38v1324q0 16 11 27t26 11h725q16 0 27 -11t11 -27v-180q0 -16 -11 -27t-27 -11h-426v-304h392q16 0 27 -11t11 -27v-181q0 -15 -11 -26t-27 -11h-392v-546q0 -16 -11 -27t-27 -11h-261q-15 0 -26 11t-11 27z" />
<glyph unicode="G" horiz-adv-x="1178" d="M784 572h-172q-16 0 -27 11t-11 27v151q0 15 11 26t27 11h432q16 0 27 -11t11 -26v-658q0 -35 -31 -51q-149 -76 -359 -76q-299 0 -468.5 190.5t-169.5 533.5q0 339 169 531.5t477 192.5q192 0 334 -66q27 -13 26 -45l-12 -184q-1 -23 -17.5 -30.5t-35.5 4.5 q-108 61 -251 61q-167 0 -258.5 -116.5t-91.5 -347.5q0 -225 81 -344.5t221 -119.5q63 0 88 14v322z" />
<glyph unicode="H" horiz-adv-x="1198" d="M110 38v1324q0 16 11 27t27 11h260q16 0 27 -11t11 -27v-486h306v486q0 16 11 27t27 11h261q15 0 26 -11t11 -27v-1324q0 -16 -11 -27t-26 -11h-261q-16 0 -27 11t-11 27v572h-306v-572q0 -16 -11 -27t-27 -11h-260q-16 0 -27 11t-11 27z" />
<glyph unicode="I" horiz-adv-x="576" d="M158 1400h261q15 0 26 -11t11 -27v-1324q0 -16 -11 -27t-26 -11h-261q-16 0 -27 11t-11 27v1324q0 16 11 27t27 11z" />
<glyph unicode="J" horiz-adv-x="832" d="M386 478v884q0 16 11 27t27 11h261q15 0 26 -11t11 -27v-882q0 -266 -101.5 -385t-333.5 -119q-140 0 -250 41q-32 11 -29 48l16 183q2 21 18.5 30.5t37.5 -0.5q71 -32 148 -32q84 0 121 52.5t37 179.5z" />
<glyph unicode="K" horiz-adv-x="1112" d="M739 31l-293 663v-656q0 -16 -11.5 -27t-26.5 -11h-260q-15 0 -26.5 11t-11.5 27v1324q0 16 11.5 27t26.5 11h260q15 0 26.5 -11t11.5 -27v-560l252 567q13 31 44 31h271q23 0 33.5 -17t0.5 -38l-299 -599l355 -691q10 -21 -0.5 -38t-33.5 -17h-286q-31 0 -44 31z" />
<glyph unicode="L" horiz-adv-x="960" d="M110 38v1324q0 16 11 27t27 11h260q16 0 27 -11t11 -27v-1096h460q16 0 27 -11t11 -27v-190q0 -16 -11 -27t-27 -11h-758q-16 0 -27 11t-11 27z" />
<glyph unicode="M" horiz-adv-x="1434" d="M807 434h-180q-33 0 -43 32l-172 536v-964q0 -16 -11 -27t-27 -11h-226q-16 0 -27 11t-11 27v1324q0 16 11 27t27 11h335q37 0 48 -34l186 -584l186 584q11 34 48 34h335q16 0 27 -11t11 -27v-1324q0 -16 -11 -27t-27 -11h-226q-16 0 -27 11t-11 27v964l-172 -536 q-10 -32 -43 -32z" />
<glyph unicode="N" horiz-adv-x="1216" d="M513 1366l281 -854v850q0 16 11 27t27 11h236q16 0 27 -11t11 -27v-1324q0 -16 -11 -27t-27 -11h-314q-39 0 -51 34l-281 854v-850q0 -16 -11 -27t-27 -11h-236q-16 0 -27 11t-11 27v1324q0 16 11 27t27 11h314q39 0 51 -34z" />
<glyph unicode="O" horiz-adv-x="1184" d="M592 1424q267 0 402.5 -184.5t135.5 -539.5t-135.5 -539.5t-402.5 -184.5t-402.5 184.5t-135.5 539.5t135.5 539.5t402.5 184.5zM592 236q66 0 108 41t66 145t24 278t-24 278t-66 145t-108 41t-108 -41t-66 -145t-24 -278t24 -278t66 -145t108 -41z" />
<glyph unicode="P" horiz-adv-x="1042" d="M674 930q0 113 -37.5 163.5t-110.5 50.5h-90v-428h90q74 0 111 50t37 164zM148 1400h380q217 0 340.5 -118.5t123.5 -351.5t-123.5 -351.5t-340.5 -118.5h-92v-422q0 -16 -11 -27t-26 -11h-251q-16 0 -27 11t-11 27v1324q0 16 11 27t27 11z" />
<glyph unicode="Q" horiz-adv-x="1184" d="M1017 -104q18 5 32.5 -4t15.5 -28l15 -152q1 -16 -8.5 -27.5t-25.5 -15.5q-73 -19 -176 -19q-169 0 -283 92t-121 246q-205 40 -308.5 221t-103.5 491q0 355 135.5 539.5t402.5 184.5t402.5 -184.5t135.5 -539.5q0 -294 -93 -472t-277 -230q7 -57 48 -86.5t102 -29.5 q56 0 107 14zM592 236q66 0 108 41t66 145t24 278t-24 278t-66 145t-108 41t-108 -41t-66 -145t-24 -278t24 -278t66 -145t108 -41z" />
<glyph unicode="R" horiz-adv-x="1072" d="M806 576l245 -522q11 -26 1.5 -40t-35.5 -14h-263q-14 0 -26 8t-16 21l-204 491h-72v-482q0 -16 -11 -27t-27 -11h-250q-16 0 -27 11t-11 27v1324q0 16 11 27t27 11h396q215 0 336.5 -110.5t121.5 -329.5q0 -277 -196 -384zM672 960q0 194 -134 194h-102v-388h102 q134 0 134 194z" />
<glyph unicode="S" horiz-adv-x="952" d="M144 314q119 -68 244 -68q168 0 168 136q0 71 -40 116t-146 88q-306 123 -306 432q0 195 117.5 300.5t338.5 105.5q155 0 289 -51q31 -11 29 -43l-14 -191q-1 -22 -18.5 -30t-39.5 2q-95 43 -200 43q-162 0 -162 -126q0 -71 43 -113t157 -91q150 -65 221 -169t71 -257 q0 -205 -117 -313.5t-347 -108.5q-193 0 -332 59q-31 11 -29 43l15 206q1 24 19 33t39 -3z" />
<glyph unicode="T" horiz-adv-x="932" d="M298 38v1096h-250q-16 0 -27 11t-11 27v190q0 16 11 27t27 11h836q16 0 27 -11t11 -27v-190q0 -16 -11 -27t-27 -11h-250v-1096q0 -16 -11.5 -27t-26.5 -11h-261q-15 0 -26 11t-11 27z" />
<glyph unicode="U" horiz-adv-x="1212" d="M606 -24q-238 0 -367 133t-129 415v838q0 16 11 27t27 11h261q15 0 26 -11t11 -27v-858q0 -139 38 -198.5t122 -59.5t122 59.5t38 198.5v858q0 16 11 27t26 11h261q16 0 27 -11t11 -27v-838q0 -282 -129 -415t-367 -133z" />
<glyph unicode="V" horiz-adv-x="1140" d="M357 1368l208 -1092l208 1092q7 32 40 32h264q20 0 30.5 -14t6.5 -34l-309 -1317q-8 -35 -44 -35h-392q-36 0 -44 35l-309 1317q-4 20 6.5 34t30.5 14h264q33 0 40 -32z" />
<glyph unicode="W" horiz-adv-x="1576" d="M656 1400h258q16 0 28 -9.5t14 -24.5l141 -1022l141 1019q2 16 14.5 26.5t29.5 10.5h234q47 0 39 -44l-245 -1319q-7 -37 -47 -37h-306q-42 0 -47 42l-125 964l-125 -964q-5 -42 -47 -42h-306q-40 0 -47 37l-245 1319q-8 44 39 44h234q17 0 29.5 -10.5t14.5 -26.5 l141 -1019l141 1022q2 15 14 24.5t28 9.5z" />
<glyph unicode="X" horiz-adv-x="1090" d="M704 26l-171 372l-171 -372q-12 -26 -44 -26h-270q-26 0 -35.5 16t1.5 38l308 650l-304 642q-11 24 -1.5 39t35.5 15h269q33 0 46 -28l166 -362l166 362q13 28 46 28h269q26 0 35.5 -15t-1.5 -39l-304 -642l308 -650q11 -22 1.5 -38t-35.5 -16h-270q-32 0 -44 26z" />
<glyph unicode="Y" horiz-adv-x="1116" d="M678 0h-260q-16 0 -27 11t-11 27v500l-356 807q-11 23 -1.5 39t34.5 16h256q35 0 47 -30l188 -478l188 478q12 30 47 30h256q25 0 34.5 -16t-1.5 -39l-356 -807v-500q0 -16 -11 -27t-27 -11z" />
<glyph unicode="Z" horiz-adv-x="944" d="M58 299l448 835h-413q-15 0 -26 11t-11 27v190q0 16 11 27t26 11h761q16 0 27 -11t11 -27v-173q0 -50 -22 -91l-446 -832h446q16 0 27 -11t11 -27v-190q0 -16 -11 -27t-27 -11h-796q-16 0 -27 11t-11 27v170q0 50 22 91z" />
<glyph unicode="[" horiz-adv-x="758" d="M184 -223v1686q0 15 11 26t26 11h476q15 0 26 -11t11 -26v-162q0 -15 -11 -26t-26 -11h-225v-1288h225q15 0 26 -10.5t11 -26.5v-162q0 -15 -11 -26t-26 -11h-476q-15 0 -26 11t-11 26z" />
<glyph unicode="\" horiz-adv-x="858" d="M260 1467l603 -1637q18 -50 -35 -50h-201q-32 0 -43 29l-603 1637q-18 50 35 50h201q32 0 43 -29z" />
<glyph unicode="]" horiz-adv-x="758" d="M574 1463v-1686q0 -15 -11 -26t-26 -11h-476q-15 0 -26 11t-11 26v162q0 16 11 26.5t26 10.5h225v1288h-225q-15 0 -26 11t-11 26v162q0 15 11 26t26 11h476q15 0 26 -11t11 -26z" />
<glyph unicode="^" horiz-adv-x="1036" d="M373 1400h266q35 0 49 -29l280 -580q11 -22 1 -37.5t-35 -15.5h-202q-34 0 -48 30l-178 380l-178 -380q-14 -30 -48 -30h-202q-25 0 -35 15.5t1 37.5l280 580q14 29 49 29z" />
<glyph unicode="_" horiz-adv-x="1000" d="M0 -315v90q0 15 11 26t26 11h926q15 0 26 -11t11 -26v-90q0 -15 -11 -26t-26 -11h-926q-15 0 -26 11t-11 26z" />
<glyph unicode="`" horiz-adv-x="750" d="M423 1422l146 -258q10 -16 3 -30t-29 -14h-146q-45 0 -73 36l-187 230q-23 29 -23 47q0 27 38 27h203q47 0 68 -38z" />
<glyph unicode="a" horiz-adv-x="910" d="M424 198q60 0 92 44v216h-78q-112 0 -112 -142q0 -65 24.5 -91.5t73.5 -26.5zM167 795q-19 -8 -34.5 -0.5t-17.5 26.5l-14 134q-3 31 27 44q136 61 306 61q117 0 195 -26t122 -81t61.5 -128.5t17.5 -180.5v-607q0 -15 -11 -26t-26 -11h-240q-15 0 -26 11t-11 26v31 q-71 -90 -196 -90q-130 0 -210 84.5t-80 239.5q0 354 390 354h96v64q0 67 -30.5 93.5t-101.5 26.5q-110 0 -217 -45z" />
<glyph unicode="b" horiz-adv-x="980" d="M622 518q0 174 -31.5 247t-100.5 73q-46 0 -82 -46v-550q35 -44 82 -44q69 0 100.5 72.5t31.5 247.5zM408 68v-31q0 -15 -10.5 -26t-26.5 -11h-250q-15 0 -26 11t-11 26v1386q0 15 11 26t26 11h250q16 0 26.5 -11t10.5 -26v-455q72 92 194 92q161 0 249.5 -136.5 t88.5 -405.5t-88.5 -405.5t-249.5 -136.5q-122 0 -194 92z" />
<glyph unicode="c" horiz-adv-x="808" d="M715 215q19 6 33.5 -2t15.5 -28l11 -142q3 -34 -33 -44q-78 -23 -182 -23q-253 0 -386.5 140t-133.5 402q0 261 133 401.5t379 140.5q95 0 184 -25q34 -9 31 -43l-11 -143q-1 -19 -16 -27t-33 -2q-56 18 -111 18q-108 0 -168 -78.5t-60 -241.5q0 -320 238 -320 q58 0 109 17z" />
<glyph unicode="d" horiz-adv-x="980" d="M358 518q0 -175 31.5 -247.5t100.5 -72.5q47 0 82 44v550q-36 46 -82 46q-69 0 -100.5 -73t-31.5 -247zM572 37v31q-72 -92 -194 -92q-161 0 -249.5 136.5t-88.5 405.5t88.5 405.5t249.5 136.5q122 0 194 -92v455q0 15 10.5 26t26.5 11h250q15 0 26 -11t11 -26v-1386 q0 -15 -11 -26t-26 -11h-250q-16 0 -26.5 11t-10.5 26z" />
<glyph unicode="e" horiz-adv-x="910" d="M743 233q19 9 34.5 1t16.5 -28l10 -141q3 -32 -25 -44q-102 -45 -249 -45q-238 0 -364 141t-126 405q0 258 111 398t305 140q207 0 313.5 -142.5t106.5 -407.5q0 -45 -3 -65q-5 -35 -47 -35h-476q9 -120 58 -166t156 -46q102 0 179 35zM350 622h216q0 120 -27 168t-81 48 q-56 0 -82 -47t-26 -169z" />
<glyph unicode="f" horiz-adv-x="662" d="M4 856v143q0 15 11 26t27 11h106v75q0 349 347 349q79 0 158 -18q35 -8 32 -44l-13 -139q-2 -17 -14 -24t-31 -3q-28 6 -50 6q-55 0 -80 -31t-25 -102v-69h157q16 0 26.5 -11t10.5 -26v-143q0 -16 -10.5 -27t-26.5 -11h-157v-781q0 -15 -10.5 -26t-26.5 -11h-250 q-15 0 -26 11t-11 26v781h-106q-16 0 -27 11t-11 27z" />
<glyph unicode="g" horiz-adv-x="980" d="M572 262v530q-36 46 -82 46q-70 0 -101 -69t-31 -241q0 -173 31 -241.5t101 -68.5q47 0 82 44zM204 -139q85 -41 184 -41q95 0 139.5 47.5t44.5 160.5v60q-72 -92 -194 -92q-162 0 -250 139t-88 393t88 393t250 139q122 0 194 -92v31q0 15 11 26t26 11h250q16 0 26.5 -11 t10.5 -26v-861q0 -147 -21 -244t-74.5 -166t-145.5 -99.5t-233 -30.5q-148 0 -254 40q-10 4 -18 15.5t-7 21.5l8 155q1 21 17 30.5t36 0.5z" />
<glyph unicode="h" horiz-adv-x="1014" d="M612 37v583q0 87 -12 135.5t-33 65.5t-57 17q-66 0 -102 -46v-755q0 -15 -11 -26t-26 -11h-250q-15 0 -26 11t-11 26v1386q0 15 11 26t26 11h250q15 0 26 -11t11 -26v-455q37 42 95.5 67t126.5 25q306 0 306 -420v-603q0 -15 -11 -26t-26 -11h-250q-15 0 -26 11t-11 26z " />
<glyph unicode="i" horiz-adv-x="514" d="M78 1306q0 79 43 116.5t135 37.5t136 -37.5t44 -116.5q0 -80 -44 -117t-136 -37t-135 36.5t-43 117.5zM94 37v962q0 15 11 26t26 11h250q15 0 26 -11t11 -26v-962q0 -15 -11 -26t-26 -11h-250q-15 0 -26 11t-11 26z" />
<glyph unicode="j" horiz-adv-x="518" d="M104 -25v1024q0 15 11 26t26 11h249q16 0 27 -11t11 -26v-996q0 -103 -14.5 -173t-52 -124.5t-105.5 -80t-172 -25.5q-83 0 -163 18q-38 9 -35 48l9 132q1 20 15 29t31 4q29 -9 65 -9q51 0 74.5 32t23.5 121zM88 1306q0 79 43 116.5t135 37.5t136 -37.5t44 -116.5 q0 -80 -44 -117t-136 -37t-135 36.5t-43 117.5z" />
<glyph unicode="k" horiz-adv-x="954" d="M408 636l163 370q13 30 47 30h254q26 0 35 -15.5t-3 -38.5l-210 -410l236 -520q10 -22 0 -37t-35 -15h-261q-31 0 -41 28l-185 478v-469q0 -15 -11 -26t-26 -11h-250q-16 0 -26.5 11t-10.5 26v1386q0 15 10.5 26t26.5 11h250q15 0 26 -11t11 -26v-787z" />
<glyph unicode="l" horiz-adv-x="512" d="M94 37v1386q0 15 10.5 26t26.5 11h250q15 0 26 -11t11 -26v-1386q0 -15 -11 -26t-26 -11h-250q-16 0 -26.5 11t-10.5 26z" />
<glyph unicode="m" horiz-adv-x="1444" d="M388 792v-755q0 -15 -10.5 -26t-26.5 -11h-229q-16 0 -27 11t-11 26v962q0 15 11 26t27 11h229q16 0 26.5 -11t10.5 -26v-31q36 44 93.5 68t124.5 24q146 0 214 -116q99 116 260 116q148 0 217 -97.5t69 -312.5v-613q0 -15 -10.5 -26t-26.5 -11h-229q-16 0 -27 11t-11 26 v593q0 84 -11.5 131t-29.5 62t-49 15q-62 0 -104 -48q10 -70 10 -140v-613q0 -15 -10.5 -26t-26.5 -11h-228q-16 0 -27.5 11t-11.5 26v593q0 84 -11.5 131t-29.5 62t-49 15q-60 0 -96 -46z" />
<glyph unicode="n" horiz-adv-x="1014" d="M936 640v-603q0 -15 -11 -26t-26 -11h-250q-15 0 -26 11t-11 26v583q0 87 -12 135.5t-33 65.5t-57 17q-66 0 -102 -46v-755q0 -15 -11 -26t-26 -11h-250q-15 0 -26 11t-11 26v962q0 15 11 26t26 11h250q15 0 26 -11t11 -26v-31q37 42 95.5 67t126.5 25q305 0 306 -420z " />
<glyph unicode="o" horiz-adv-x="968" d="M484 1060q212 0 328 -136.5t116 -405.5t-116 -405.5t-328 -136.5t-328 136.5t-116 405.5t116 405.5t328 136.5zM484 198q63 0 94.5 71t31.5 249t-31.5 249t-94.5 71t-94.5 -71t-31.5 -249t31.5 -249t94.5 -71z" />
<glyph unicode="p" horiz-adv-x="980" d="M622 518q0 175 -31.5 247.5t-100.5 72.5q-47 0 -82 -44v-550q36 -46 82 -46q69 0 100.5 73t31.5 247zM408 999v-31q72 92 194 92q161 0 249.5 -136.5t88.5 -405.5t-88.5 -405.5t-249.5 -136.5q-122 0 -194 92v-417q0 -15 -10.5 -26t-26.5 -11h-250q-15 0 -26 11t-11 26 v1348q0 15 11 26t26 11h250q16 0 26.5 -11t10.5 -26z" />
<glyph unicode="q" horiz-adv-x="980" d="M358 518q0 -174 31.5 -247t100.5 -73q46 0 82 46v550q-35 44 -82 44q-69 0 -100.5 -72.5t-31.5 -247.5zM572 968v31q0 15 10.5 26t26.5 11h250q15 0 26 -11t11 -26v-1348q0 -15 -11 -26t-26 -11h-250q-16 0 -26.5 11t-10.5 26v417q-72 -92 -194 -92q-161 0 -249.5 136.5 t-88.5 405.5t88.5 405.5t249.5 136.5q122 0 194 -92z" />
<glyph unicode="r" horiz-adv-x="708" d="M641 810q-35 8 -73 8q-124 0 -160 -168v-613q0 -15 -10.5 -26t-26.5 -11h-250q-15 0 -26 11t-11 26v962q0 15 11 26t26 11h250q16 0 26.5 -11t10.5 -26v-47q26 48 77.5 78t112.5 30q41 0 80 -11q30 -9 27 -42l-18 -169q-2 -17 -14.5 -24.5t-31.5 -3.5z" />
<glyph unicode="s" horiz-adv-x="800" d="M112 250q98 -52 198 -52q57 0 84.5 20t27.5 64q0 51 -31.5 84.5t-124.5 81.5q-214 109 -214 306q0 150 100 228t278 78q133 0 244 -33q32 -9 30 -39l-10 -149q-1 -20 -16 -28.5t-35 -0.5q-74 28 -149 28q-53 0 -83.5 -21.5t-30.5 -60.5q0 -42 30.5 -73t129.5 -83 q210 -110 210 -304q0 -151 -96.5 -235.5t-279.5 -84.5q-174 0 -292 48q-32 14 -31 48l8 152q1 23 17 30t36 -4z" />
<glyph unicode="t" horiz-adv-x="722" d="M16 856v143q0 15 10.5 26t26.5 11h85v275q0 15 11 26t26 11h249q16 0 27 -11t11 -26v-275h179q15 0 26 -11t11 -26v-143q0 -16 -11 -27t-26 -11h-179v-442q0 -101 24.5 -139.5t84.5 -38.5q31 0 61 8q19 5 31.5 -3.5t14.5 -27.5l11 -138q3 -38 -33 -46q-64 -15 -145 -15 q-113 0 -186.5 30t-114.5 96.5t-56.5 156.5t-15.5 227v332h-85q-16 0 -26.5 11t-10.5 27z" />
<glyph unicode="u" horiz-adv-x="1020" d="M84 396v603q0 15 11 26t26 11h250q15 0 26 -11t11 -26v-583q0 -87 12 -135.5t33 -65.5t57 -17q66 0 102 46v755q0 15 11 26t26 11h250q15 0 26 -11t11 -26v-962q0 -15 -11 -26t-26 -11h-250q-15 0 -26 11t-11 26v31q-37 -42 -95.5 -67t-126.5 -25q-305 0 -306 420z" />
<glyph unicode="v" horiz-adv-x="930" d="M619 0h-328q-36 0 -46 38l-237 952q-2 8 -2 13q0 14 10 23.5t26 9.5h244q18 0 31 -10.5t16 -27.5l122 -672l122 672q3 17 16 27.5t31 10.5h244q16 0 26 -9.5t10 -23.5q0 -5 -2 -13l-237 -952q-10 -38 -46 -38z" />
<glyph unicode="w" horiz-adv-x="1376" d="M562 1036h246q17 0 28.5 -10t13.5 -25l95 -673l100 666q6 42 51 42h223q48 0 38 -46l-200 -950q-8 -40 -48 -40h-296q-40 0 -45 38l-83 598l-83 -598q-5 -38 -45 -38h-296q-40 0 -48 40l-200 950q-10 46 38 46h223q45 0 51 -42l100 -666l95 673q2 15 13.5 25t28.5 10z " />
<glyph unicode="x" horiz-adv-x="856" d="M519 33l-101 261l-101 -261q-13 -33 -49 -33h-229q-27 0 -36 16t1 37l202 473l-192 458q-10 22 -1 37t33 15h230q38 0 49 -31l93 -261l93 261q11 31 49 31h230q24 0 33 -15t-1 -37l-192 -458l202 -473q10 -21 1 -37t-36 -16h-229q-36 0 -49 33z" />
<glyph unicode="y" horiz-adv-x="932" d="M460 384l124 622q7 30 36 30h253q21 0 30 -13.5t4 -34.5l-354 -1339q-9 -35 -49 -35h-242q-22 0 -31.5 12.5t-4.5 33.5l76 304l-288 1023q-6 21 3 35t30 14h248q35 0 41 -32z" />
<glyph unicode="z" horiz-adv-x="800" d="M396 218h343q15 0 26 -11t11 -27v-143q0 -15 -11 -26t-26 -11h-678q-16 0 -26.5 11t-10.5 26v126q0 52 24 92l342 563h-309q-16 0 -26.5 11t-10.5 27v143q0 15 10.5 26t26.5 11h642q16 0 26.5 -11t10.5 -26v-124q0 -52 -24 -92z" />
<glyph unicode="{" horiz-adv-x="762" d="M110 536v168q0 15 9 26.5t22 14.5q97 21 97 165v338q0 124 69.5 188t188.5 64h201q15 0 27 -11t12 -26v-162q0 -15 -12 -26t-27 -11h-117q-54 0 -54 -62v-344q0 -96 -46 -154.5t-144 -83.5q98 -25 144 -83.5t46 -154.5v-344q0 -62 54 -62h117q15 0 27 -11t12 -26v-162 q0 -15 -12 -26t-27 -11h-201q-119 0 -188.5 64t-69.5 188v338q0 144 -97 165q-13 3 -22 14.5t-9 26.5z" />
<glyph unicode="|" horiz-adv-x="540" d="M156 -363v1864q0 15 10.5 26t26.5 11h154q16 0 26.5 -11t10.5 -26v-1864q0 -15 -10.5 -26t-26.5 -11h-154q-16 0 -26.5 11t-10.5 26z" />
<glyph unicode="}" horiz-adv-x="762" d="M650 704v-168q0 -15 -9 -26.5t-22 -14.5q-97 -21 -97 -165v-338q0 -124 -69.5 -188t-188.5 -64h-201q-15 0 -27 11t-12 26v162q0 15 12 26t27 11h117q54 0 54 62v344q0 96 46 154.5t144 83.5q-98 25 -144 83.5t-46 154.5v344q0 62 -54 62h-117q-15 0 -27 11t-12 26v162 q0 15 12 26t27 11h201q119 0 188.5 -64t69.5 -188v-338q0 -144 97 -165q13 -3 22 -14.5t9 -26.5z" />
<glyph unicode="~" horiz-adv-x="1036" d="M710 458q-105 0 -200 76q-47 37 -72 51.5t-46 14.5q-29 0 -45.5 -22.5t-19.5 -81.5q-1 -15 -11.5 -24.5t-25.5 -9.5h-197q-16 0 -27.5 11.5t-10.5 27.5q9 190 81 279.5t190 89.5q105 0 200 -76q47 -37 72 -51.5t46 -14.5q29 0 45.5 22.5t19.5 81.5q1 15 11.5 24.5 t25.5 9.5h197q16 0 27.5 -11.5t10.5 -27.5q-9 -190 -81 -279.5t-190 -89.5z" />
<glyph unicode="&#xa1;" horiz-adv-x="596" d="M203 618h192q15 0 25.5 -10t11.5 -25l36 -614v-296q0 -15 -10.5 -26t-26.5 -11h-264q-16 0 -26.5 11t-10.5 26v296l36 614q1 15 11.5 25t25.5 10zM120 892q0 86 43.5 127t134.5 41t134.5 -41t43.5 -127t-43.5 -127t-134.5 -41t-134.5 41t-43.5 127z" />
<glyph unicode="&#xa2;" horiz-adv-x="808" d="M715 215q19 6 33.5 -2t15.5 -28l11 -142q3 -34 -33 -44q-77 -22 -166 -23v-173q0 -15 -11 -26t-26 -11h-117q-16 0 -27 11t-11 26v194q-169 43 -256.5 176t-87.5 345q0 211 88.5 344.5t255.5 177.5v193q0 15 11 26t27 11h117q15 0 26 -11t11 -26v-174q85 -3 160 -24 q34 -9 31 -43l-11 -143q-1 -19 -16 -27t-33 -2q-56 18 -111 18q-108 0 -168 -78.5t-60 -241.5q0 -320 238 -320q58 0 109 17z" />
<glyph unicode="&#xa3;" horiz-adv-x="924" d="M790 1130q-74 34 -162 34q-158 0 -158 -166v-224h224q16 0 27 -10.5t11 -26.5v-54q0 -15 -11 -26t-27 -11h-224v-124q0 -165 -88 -256h495q16 0 26.5 -11t10.5 -26v-192q0 -15 -10.5 -26t-26.5 -11h-809q-16 0 -27 11t-11 26v204q0 21 12 32q92 87 92 231v142h-66 q-16 0 -27 11t-11 26v54q0 16 11 26.5t27 10.5h66v234q0 204 107 310t315 106q148 0 268 -45q33 -13 30 -45l-12 -177q-1 -20 -17 -28t-35 1z" />
<glyph unicode="&#xa4;" horiz-adv-x="1408" d="M1163 664q0 -110 -48 -206l155 -159q10 -11 10 -25.5t-10 -25.5l-143 -149q-11 -11 -26.5 -11t-26.5 11l-163 166q-103 -47 -218 -47q-116 0 -218 47l-163 -166q-11 -11 -26.5 -11t-26.5 11l-143 149q-10 11 -10 25.5t10 25.5l155 159q-48 93 -48 206q0 114 48 205 l-155 160q-10 11 -10 25.5t10 25.5l143 149q11 11 26.5 11t26.5 -11l163 -167q101 48 218 48q116 0 218 -48l163 167q11 11 26.5 11t26.5 -11l143 -149q10 -11 10 -25.5t-10 -25.5l-155 -160q48 -94 48 -205zM523 664q0 -92 47 -146t123 -54t123 54t47 146t-47 146t-123 54 t-123 -54t-47 -146z" />
<glyph unicode="&#xa5;" d="M626 0h-262q-15 0 -26 11t-11 26v261h-223q-15 0 -26 11t-11 26v56q0 16 11 26.5t26 10.5h223v124h-223q-15 0 -26 11t-11 26v55q0 16 11 27t26 11h173l-261 663q-9 23 0.5 39t33.5 16h245q35 0 44 -30l156 -500l156 500q9 30 44 30h245q24 0 33.5 -16t0.5 -39l-261 -663 h173q15 0 26 -11t11 -27v-55q0 -15 -11 -26t-26 -11h-223v-124h223q15 0 26 -10.5t11 -26.5v-56q0 -15 -11 -26t-26 -11h-223v-261q0 -15 -11 -26t-26 -11z" />
<glyph unicode="&#xa6;" horiz-adv-x="538" d="M156 747v604q0 15 10.5 26t26.5 11h154q16 0 26.5 -11t10.5 -26v-604q0 -15 -10.5 -26t-26.5 -11h-154q-16 0 -26.5 11t-10.5 26zM156 -175v604q0 15 10.5 26t26.5 11h154q16 0 26.5 -11t10.5 -26v-604q0 -15 -10.5 -26t-26.5 -11h-154q-16 0 -26.5 11t-10.5 26z" />
<glyph unicode="&#xa7;" horiz-adv-x="906" d="M378 622q0 -74 80 -122q36 12 56 42.5t20 73.5q0 74 -68 116q-41 -9 -64.5 -39.5t-23.5 -70.5zM174 93q95 -63 206 -63q59 0 87.5 22t28.5 72q0 44 -34.5 77.5t-115.5 70.5q-124 56 -186 136t-62 198q0 85 38.5 151t105.5 105q-146 88 -146 262q0 144 93.5 223t276.5 79 q156 0 281 -57q30 -13 27 -45l-11 -143q-1 -21 -17.5 -29t-35.5 1q-88 43 -184 43q-54 0 -83 -23t-29 -65q0 -41 36.5 -76.5t123.5 -73.5q120 -53 178 -130t58 -198q0 -84 -37.5 -151t-104.5 -107q144 -88 144 -264q0 -146 -94.5 -227t-285.5 -81q-164 0 -291 61 q-29 15 -28 48l8 157q1 24 18 31.5t35 -4.5z" />
<glyph unicode="&#xa8;" horiz-adv-x="750" d="M54 1290q0 70 35 108t103 38t103 -38t35 -108t-35 -108t-103 -38t-103 38t-35 108zM418 1290q0 70 35 108t103 38t103 -38t35 -108t-35 -108t-103 -38t-103 38t-35 108z" />
<glyph unicode="&#xa9;" horiz-adv-x="1268" d="M68 700q0 329 155 526.5t411 197.5t411 -197.5t155 -526.5t-155 -526.5t-411 -197.5t-411 197.5t-155 526.5zM634 88q201 0 323.5 165t122.5 447t-122.5 447t-323.5 165t-323.5 -165t-122.5 -447t122.5 -447t323.5 -165zM698 444q55 0 107 21q22 9 35.5 0.5t15.5 -30.5 l8 -107q3 -31 -27 -42q-81 -30 -167 -30q-166 0 -262 113.5t-96 326.5q0 214 96 328t260 114q89 0 167 -29q30 -11 27 -42l-8 -106q-2 -22 -15.5 -30.5t-35.5 0.5q-52 21 -107 21q-81 0 -122.5 -65.5t-41.5 -190.5q0 -252 166 -252z" />
<glyph unicode="&#xaa;" horiz-adv-x="736" d="M344 780q43 0 62 50v140h-50q-64 0 -64 -96q0 -45 14 -69.5t38 -24.5zM159 1217q-41 -18 -46 25l-10 91q-3 27 25 39q104 44 230 44q161 0 228.5 -71.5t67.5 -234.5v-437q0 -16 -9.5 -25.5t-24.5 -9.5h-180q-16 0 -25 9.5t-9 25.5v17q-46 -68 -144 -68q-89 0 -147.5 62.5 t-58.5 177.5q0 133 72 196.5t216 63.5h62q0 74 -22 100t-80 26q-75 0 -145 -31z" />
<glyph unicode="&#xab;" horiz-adv-x="926" d="M90 560v128q0 25 5.5 39.5t22.5 31.5l293 307q19 21 40 15t21 -37v-189q0 -22 -14 -37l-192 -194l192 -194q14 -15 14 -37v-189q0 -31 -21 -37t-40 15l-293 307q-17 17 -22.5 31.5t-5.5 39.5zM474 560v128q0 25 5.5 39.5t22.5 31.5l293 307q19 21 40 15t21 -37v-189 q0 -22 -14 -37l-192 -194l192 -194q14 -15 14 -37v-189q0 -31 -21 -37t-40 15l-293 307q-17 17 -22.5 31.5t-5.5 39.5z" />
<glyph unicode="&#xac;" horiz-adv-x="1036" d="M40 711v162q0 15 11 26t26 11h862q15 0 26 -11t11 -26v-528q0 -15 -11 -26t-26 -11h-206q-15 0 -26 11t-11 26v329h-619q-15 0 -26 10.5t-11 26.5z" />
<glyph unicode="&#xad;" horiz-adv-x="692" d="M585 536h-478q-15 0 -26 11t-11 26v182q0 15 11 26t26 11h478q15 0 26 -11t11 -26v-182q0 -15 -11 -26t-26 -11z" />
<glyph unicode="&#xae;" horiz-adv-x="1268" d="M403 1116h225q139 0 214.5 -65.5t75.5 -196.5q0 -156 -108 -224l129 -294q10 -22 0.5 -37t-32.5 -15h-146q-35 0 -45 29l-92 273h-40v-265q0 -15 -10.5 -26t-26.5 -11h-144q-15 0 -26 11t-11 26v758q0 15 11 26t26 11zM698 854q0 96 -68 96h-46v-192h46q68 0 68 96z M68 700q0 329 155 526.5t411 197.5t411 -197.5t155 -526.5t-155 -526.5t-411 -197.5t-411 197.5t-155 526.5zM634 88q201 0 323.5 165t122.5 447t-122.5 447t-323.5 165t-323.5 -165t-122.5 -447t122.5 -447t323.5 -165z" />
<glyph unicode="&#xaf;" horiz-adv-x="750" d="M108 1230v121q0 15 11 26t27 11h459q16 0 26.5 -11t10.5 -26v-121q0 -16 -10.5 -27t-26.5 -11h-459q-16 0 -27 11t-11 27z" />
<glyph unicode="&#xb0;" horiz-adv-x="750" d="M374 904q-114 0 -192 74.5t-78 185.5t78 185.5t192 74.5t192 -74.5t78 -185.5t-78 -185.5t-192 -74.5zM374 1254q-39 0 -62.5 -24.5t-23.5 -65.5t23.5 -65.5t62.5 -24.5t62.5 24.5t23.5 65.5t-23.5 65.5t-62.5 24.5z" />
<glyph unicode="&#xb1;" horiz-adv-x="1036" d="M948 32h-861q-16 0 -26.5 11t-10.5 27v161q0 15 10.5 26t26.5 11h861q16 0 27 -11t11 -26v-161q0 -16 -11 -27t-27 -11zM378 355v325h-291q-16 0 -26.5 11t-10.5 26v162q0 16 10.5 26.5t26.5 10.5h291v313q0 15 11 26t26 11h206q15 0 26 -11t11 -26v-313h290 q16 0 27 -10.5t11 -26.5v-162q0 -15 -11 -26t-27 -11h-290v-325q0 -15 -11 -26t-26 -11h-206q-15 0 -26 11t-11 26z" />
<glyph unicode="&#xb2;" horiz-adv-x="690" d="M368 656h199q15 0 26 -11t11 -27v-111q0 -16 -11 -26.5t-26 -10.5h-462q-15 0 -26 10.5t-11 26.5v101q0 33 26 59q53 54 93.5 101.5t82 107.5t64 122t22.5 120q0 108 -94 108q-59 0 -119 -26q-19 -9 -34 -1t-16 29l-5 108q-2 32 26 43q92 37 192 37q146 0 222 -73.5 t76 -210.5q0 -131 -64.5 -253.5t-171.5 -222.5z" />
<glyph unicode="&#xb3;" horiz-adv-x="690" d="M182 867q-14 1 -24.5 11.5t-10.5 25.5v98q0 14 10.5 25t24.5 12q175 10 175 109q0 86 -96 86q-62 0 -124 -24q-19 -8 -35.5 -1.5t-17.5 26.5l-6 103q-1 30 26 41q93 37 203 37q142 0 219 -65.5t77 -180.5q0 -151 -134 -216q66 -24 104 -82t38 -138q0 -136 -84 -208 t-232 -72q-113 0 -194 29q-36 12 -33 54l7 103q2 20 17 28.5t34 -1.5q62 -31 127 -31q112 0 112 100q0 121 -183 131z" />
<glyph unicode="&#xb4;" horiz-adv-x="750" d="M146 1164l146 258q21 38 68 38h203q38 0 38 -27q0 -18 -23 -47l-187 -230q-28 -36 -73 -36h-146q-22 0 -29 14t3 30z" />
<glyph unicode="&#xb5;" d="M404 16v-365q0 -15 -10.5 -26t-26.5 -11h-250q-15 0 -26 11t-11 26v1348q0 15 11 26t26 11h250q16 0 26.5 -11t10.5 -26v-753q35 -48 100 -48q61 0 110 70v731q0 15 10.5 26t26.5 11h250q15 0 26 -11t11 -26v-962q0 -15 -11 -26t-26 -11h-251q-14 0 -24 8.5t-12 21.5 q-47 -54 -112 -54q-68 0 -98 40z" />
<glyph unicode="&#xb6;" horiz-adv-x="1106" d="M442 1400h516q16 0 27 -11t11 -26v-1588q0 -15 -11 -26t-27 -11h-169q-15 0 -26 11t-11 26v1411h-54v-1411q0 -15 -11 -26t-26 -11h-170q-15 0 -26 11t-11 26v757h-12q-186 0 -299 115t-113 319t113 319t299 115z" />
<glyph unicode="&#xb7;" horiz-adv-x="504" d="M252 484q-81 0 -119.5 44t-38.5 136t38.5 136t119.5 44t119.5 -44t38.5 -136t-38.5 -136t-119.5 -44z" />
<glyph unicode="&#xb8;" horiz-adv-x="750" d="M246 -195q-22 3 -29.5 16.5t1.5 35.5l47 116q11 27 45 27h155q14 0 21.5 -11t1.5 -25l-34 -78q49 -18 77.5 -61t28.5 -101q0 -92 -67.5 -146t-182.5 -54q-59 0 -99 8q-33 7 -33 37v76q0 46 46 35q17 -4 38 -4q68 0 68 56q0 31 -18.5 49t-65.5 24z" />
<glyph unicode="&#xb9;" horiz-adv-x="690" d="M267 507v609l-82 -66q-13 -11 -28.5 -8.5t-25.5 16.5l-72 106q-17 27 9 48l210 170q23 18 57 18h139q15 0 26 -11t11 -26v-856q0 -16 -11 -26.5t-26 -10.5h-170q-15 0 -26 10.5t-11 26.5z" />
<glyph unicode="&#xba;" horiz-adv-x="736" d="M368 620q-155 0 -242.5 101.5t-87.5 296.5t87.5 296.5t242.5 101.5t242.5 -101.5t87.5 -296.5t-87.5 -296.5t-242.5 -101.5zM446 1018q0 122 -19.5 170t-58.5 48t-58.5 -48t-19.5 -170t19.5 -170t58.5 -48t58.5 48t19.5 170z" />
<glyph unicode="&#xbb;" horiz-adv-x="926" d="M836 688v-128q0 -25 -5.5 -39.5t-22.5 -31.5l-293 -307q-19 -21 -40 -15t-21 37v189q0 22 14 37l192 194l-192 194q-14 15 -14 37v189q0 31 21 37t40 -15l293 -307q17 -17 22.5 -31.5t5.5 -39.5zM452 688v-128q0 -25 -5.5 -39.5t-22.5 -31.5l-293 -307q-19 -21 -40 -15 t-21 37v189q0 22 14 37l192 194l-192 194q-14 15 -14 37v189q0 31 21 37t40 -15l293 -307q17 -17 22.5 -31.5t5.5 -39.5z" />
<glyph unicode="&#xbc;" horiz-adv-x="1600" d="M1147 1387l-556 -1394q-10 -23 -37 -23h-116q-20 0 -26.5 12t1.5 31l556 1394q10 23 37 23h116q20 0 26.5 -12t-1.5 -31zM260 507v609l-82 -66q-13 -11 -28.5 -8.5t-25.5 16.5l-72 106q-17 27 9 48l210 170q23 18 57 18h139q15 0 26 -11t11 -26v-856q0 -16 -11 -26.5 t-26 -10.5h-170q-15 0 -26 10.5t-11 26.5zM1211 170h-277q-15 0 -26 11t-11 26v119q0 37 16 69l248 506q14 29 51 29h198q15 0 26 -11t11 -27v-530h39q15 0 26 -11t11 -26v-118q0 -15 -11 -26t-26 -11h-39v-132q0 -16 -11 -27t-26 -11h-162q-15 0 -26 11t-11 27v132z M1211 626l-128 -264h128v264z" />
<glyph unicode="&#xbd;" horiz-adv-x="1600" d="M260 507v609l-82 -66q-13 -11 -28.5 -8.5t-25.5 16.5l-72 106q-17 27 9 48l210 170q23 18 57 18h139q15 0 26 -11t11 -26v-856q0 -16 -11 -26.5t-26 -10.5h-170q-15 0 -26 10.5t-11 26.5zM1299 186h199q15 0 26 -11t11 -27v-111q0 -16 -11 -26.5t-26 -10.5h-462 q-15 0 -26 10.5t-11 26.5v101q0 33 26 59q53 54 93.5 101.5t82 107.5t64 122t22.5 120q0 108 -94 108q-59 0 -119 -26q-19 -9 -34 -1t-16 29l-5 108q-2 32 26 43q92 37 192 37q146 0 222 -73.5t76 -210.5q0 -131 -64.5 -253.5t-171.5 -222.5zM1147 1387l-556 -1394 q-10 -23 -37 -23h-116q-20 0 -26.5 12t1.5 31l556 1394q10 23 37 23h116q20 0 26.5 -12t-1.5 -31z" />
<glyph unicode="&#xbe;" horiz-adv-x="1600" d="M1161 1387l-556 -1394q-10 -23 -37 -23h-116q-20 0 -26.5 12t1.5 31l556 1394q10 23 37 23h116q20 0 26.5 -12t-1.5 -31zM181 867q-14 1 -24.5 11.5t-10.5 25.5v98q0 14 10.5 25t24.5 12q175 10 175 109q0 86 -96 86q-62 0 -124 -24q-19 -8 -35.5 -1.5t-17.5 26.5l-6 103 q-1 30 26 41q93 37 203 37q142 0 219 -65.5t77 -180.5q0 -151 -134 -216q66 -24 104 -82t38 -138q0 -136 -84 -208t-232 -72q-113 0 -194 29q-36 12 -33 54l7 103q2 20 17 28.5t34 -1.5q62 -31 127 -31q112 0 112 100q0 121 -183 131zM1177 170h-277q-15 0 -26 11t-11 26 v119q0 37 16 69l248 506q14 29 51 29h198q15 0 26 -11t11 -27v-530h39q15 0 26 -11t11 -26v-118q0 -15 -11 -26t-26 -11h-39v-132q0 -16 -11 -27t-26 -11h-162q-15 0 -26 11t-11 27v132zM1177 626l-128 -264h128v264z" />
<glyph unicode="&#xbf;" horiz-adv-x="894" d="M775 -80q19 11 36 2.5t18 -33.5l13 -177q3 -29 -24 -41q-135 -61 -292 -61q-212 0 -324 98t-112 274q0 104 48.5 194t143.5 180q64 61 64 198v29q0 15 11 26t26 11h252q16 0 26.5 -11t10.5 -26v-43q0 -114 -36.5 -200.5t-119.5 -163.5q-82 -76 -82 -184q0 -58 36.5 -90 t107.5 -32q104 0 197 50zM686 890q0 -86 -43.5 -127t-134.5 -41t-134.5 41t-43.5 127t43.5 127t134.5 41t134.5 -41t43.5 -127z" />
<glyph unicode="&#xc0;" horiz-adv-x="1124" d="M557 1118l-110 -562h218zM359 1400h396q36 0 44 -35l309 -1317q4 -20 -6.5 -34t-30.5 -14h-264q-33 0 -40 32l-52 268h-316l-52 -268q-7 -32 -40 -32h-264q-20 0 -30.5 14t-6.5 34l309 1317q8 35 44 35zM543 1810l146 -258q10 -16 3 -30t-29 -14h-146q-45 0 -73 36 l-187 230q-23 29 -23 47q0 27 38 27h203q47 0 68 -38z" />
<glyph unicode="&#xc1;" horiz-adv-x="1124" d="M557 1118l-110 -562h218zM359 1400h396q36 0 44 -35l309 -1317q4 -20 -6.5 -34t-30.5 -14h-264q-33 0 -40 32l-52 268h-316l-52 -268q-7 -32 -40 -32h-264q-20 0 -30.5 14t-6.5 34l309 1317q8 35 44 35zM416 1552l146 258q21 38 68 38h203q38 0 38 -27q0 -18 -23 -47 l-187 -230q-28 -36 -73 -36h-146q-22 0 -29 14t3 30z" />
<glyph unicode="&#xc2;" horiz-adv-x="1124" d="M557 1118l-110 -562h218zM359 1400h396q36 0 44 -35l309 -1317q4 -20 -6.5 -34t-30.5 -14h-264q-33 0 -40 32l-52 268h-316l-52 -268q-7 -32 -40 -32h-264q-20 0 -30.5 14t-6.5 34l309 1317q8 35 44 35zM420 1848h264q28 0 41 -25l131 -261q13 -26 4.5 -40t-36.5 -14 h-143q-38 0 -54 31l-75 137l-75 -137q-16 -31 -54 -31h-143q-28 0 -36.5 14t4.5 40l131 261q13 25 41 25z" />
<glyph unicode="&#xc3;" horiz-adv-x="1124" d="M557 1118l-110 -562h218zM359 1400h396q36 0 44 -35l309 -1317q4 -20 -6.5 -34t-30.5 -14h-264q-33 0 -40 32l-52 268h-316l-52 -268q-7 -32 -40 -32h-264q-20 0 -30.5 14t-6.5 34l309 1317q8 35 44 35zM432 1828q37 0 81 -19.5t79 -39t50 -19.5q32 0 37 42q4 34 37 34 h117q18 0 28.5 -11t9.5 -28q-11 -261 -177 -261q-37 0 -81 19.5t-79 39t-50 19.5q-32 0 -37 -42q-4 -34 -37 -34h-117q-18 0 -28.5 11t-9.5 28q11 261 177 261z" />
<glyph unicode="&#xc4;" horiz-adv-x="1124" d="M557 1118l-110 -562h218zM359 1400h396q36 0 44 -35l309 -1317q4 -20 -6.5 -34t-30.5 -14h-264q-33 0 -40 32l-52 268h-316l-52 -268q-7 -32 -40 -32h-264q-20 0 -30.5 14t-6.5 34l309 1317q8 35 44 35zM242 1678q0 70 35 108t103 38t103 -38t35 -108t-35 -108t-103 -38 t-103 38t-35 108zM606 1678q0 70 35 108t103 38t103 -38t35 -108t-35 -108t-103 -38t-103 38t-35 108z" />
<glyph unicode="&#xc5;" horiz-adv-x="1124" d="M557 1118l-110 -562h218zM359 1400h396q36 0 44 -35l309 -1317q4 -20 -6.5 -34t-30.5 -14h-264q-33 0 -40 32l-52 268h-316l-52 -268q-7 -32 -40 -32h-264q-20 0 -30.5 14t-6.5 34l309 1317q8 35 44 35zM804 1678q0 -98 -69.5 -165t-172.5 -67t-172.5 67t-69.5 165 q0 97 69.5 163.5t172.5 66.5t172.5 -66.5t69.5 -163.5zM480 1678q0 -37 23 -60.5t59 -23.5t59 23.5t23 60.5q0 36 -23 59t-59 23t-59 -23t-23 -59z" />
<glyph unicode="&#xc6;" horiz-adv-x="1436" d="M646 528v610l-164 -610h164zM646 38v234h-226l-64 -243q-8 -29 -40 -29h-274q-21 0 -30.5 14t-3.5 34l390 1311q5 19 20 30t35 11h869q16 0 27 -11t11 -27v-180q0 -16 -11 -27t-27 -11h-346v-304h311q15 0 26 -11t11 -27v-181q0 -15 -11 -26t-26 -11h-311v-328h356 q16 0 27 -11t11 -27v-180q0 -16 -11 -27t-27 -11h-648q-16 0 -27 11t-11 27z" />
<glyph unicode="&#xc7;" horiz-adv-x="1010" d="M912 280q19 8 36 0t18 -30l12 -178q3 -41 -36 -55q-86 -31 -186 -38l-40 -93q49 -18 77.5 -61t28.5 -101q0 -92 -67.5 -146t-182.5 -54q-59 0 -99 8q-33 7 -33 37v76q0 46 46 35q17 -4 38 -4q68 0 68 56q0 31 -18.5 49t-65.5 24q-22 3 -29.5 16.5t1.5 35.5l54 133 q-232 45 -356 231t-124 479q0 339 161.5 531.5t460.5 192.5q142 0 259 -43q34 -13 33 -45l-12 -188q-1 -22 -18 -30.5t-36 0.5q-85 36 -186 36q-153 0 -237.5 -116.5t-84.5 -337.5q0 -222 85.5 -338t242.5 -116q105 0 190 34z" />
<glyph unicode="&#xc8;" horiz-adv-x="982" d="M110 38v1324q0 16 11 27t27 11h724q16 0 27 -11t11 -27v-180q0 -16 -11 -27t-27 -11h-426v-304h392q16 0 27 -11t11 -27v-181q0 -15 -11 -26t-27 -11h-392v-328h439q15 0 26 -11t11 -27v-180q0 -16 -11 -27t-26 -11h-737q-16 0 -27 11t-11 27zM529 1810l146 -258 q10 -16 3 -30t-29 -14h-146q-45 0 -73 36l-187 230q-23 29 -23 47q0 27 38 27h203q47 0 68 -38z" />
<glyph unicode="&#xc9;" horiz-adv-x="982" d="M110 38v1324q0 16 11 27t27 11h724q16 0 27 -11t11 -27v-180q0 -16 -11 -27t-27 -11h-426v-304h392q16 0 27 -11t11 -27v-181q0 -15 -11 -26t-27 -11h-392v-328h439q15 0 26 -11t11 -27v-180q0 -16 -11 -27t-26 -11h-737q-16 0 -27 11t-11 27zM338 1552l146 258 q21 38 68 38h203q38 0 38 -27q0 -18 -23 -47l-187 -230q-28 -36 -73 -36h-146q-22 0 -29 14t3 30z" />
<glyph unicode="&#xca;" horiz-adv-x="982" d="M110 38v1324q0 16 11 27t27 11h724q16 0 27 -11t11 -27v-180q0 -16 -11 -27t-27 -11h-426v-304h392q16 0 27 -11t11 -27v-181q0 -15 -11 -26t-27 -11h-392v-328h439q15 0 26 -11t11 -27v-180q0 -16 -11 -27t-26 -11h-737q-16 0 -27 11t-11 27zM366 1848h264q28 0 41 -25 l131 -261q13 -26 4.5 -40t-36.5 -14h-143q-38 0 -54 31l-75 137l-75 -137q-16 -31 -54 -31h-143q-28 0 -36.5 14t4.5 40l131 261q13 25 41 25z" />
<glyph unicode="&#xcb;" horiz-adv-x="982" d="M110 38v1324q0 16 11 27t27 11h724q16 0 27 -11t11 -27v-180q0 -16 -11 -27t-27 -11h-426v-304h392q16 0 27 -11t11 -27v-181q0 -15 -11 -26t-27 -11h-392v-328h439q15 0 26 -11t11 -27v-180q0 -16 -11 -27t-26 -11h-737q-16 0 -27 11t-11 27zM182 1678q0 70 35 108 t103 38t103 -38t35 -108t-35 -108t-103 -38t-103 38t-35 108zM546 1678q0 70 35 108t103 38t103 -38t35 -108t-35 -108t-103 -38t-103 38t-35 108z" />
<glyph unicode="&#xcc;" horiz-adv-x="576" d="M158 1400h261q15 0 26 -11t11 -27v-1324q0 -16 -11 -27t-26 -11h-261q-16 0 -27 11t-11 27v1324q0 16 11 27t27 11zM269 1810l146 -258q10 -16 3 -30t-29 -14h-146q-45 0 -73 36l-187 230q-23 29 -23 47q0 27 38 27h203q47 0 68 -38z" />
<glyph unicode="&#xcd;" horiz-adv-x="576" d="M158 1400h261q15 0 26 -11t11 -27v-1324q0 -16 -11 -27t-26 -11h-261q-16 0 -27 11t-11 27v1324q0 16 11 27t27 11zM148 1552l146 258q21 38 68 38h203q38 0 38 -27q0 -18 -23 -47l-187 -230q-28 -36 -73 -36h-146q-22 0 -29 14t3 30z" />
<glyph unicode="&#xce;" horiz-adv-x="576" d="M148 1400h261q15 0 26 -11t11 -27v-1324q0 -16 -11 -27t-26 -11h-261q-16 0 -27 11t-11 27v1324q0 16 11 27t27 11zM136 1848h264q28 0 41 -25l131 -261q13 -26 4.5 -40t-36.5 -14h-143q-38 0 -54 31l-75 137l-75 -137q-16 -31 -54 -31h-143q-28 0 -36.5 14t4.5 40 l131 261q13 25 41 25z" />
<glyph unicode="&#xcf;" horiz-adv-x="576" d="M158 1400h261q15 0 26 -11t11 -27v-1324q0 -16 -11 -27t-26 -11h-261q-16 0 -27 11t-11 27v1324q0 16 11 27t27 11zM-32 1678q0 70 35 108t103 38t103 -38t35 -108t-35 -108t-103 -38t-103 38t-35 108zM332 1678q0 70 35 108t103 38t103 -38t35 -108t-35 -108t-103 -38 t-103 38t-35 108z" />
<glyph unicode="&#xd0;" horiz-adv-x="1150" d="M158 1400h376q284 0 423 -172.5t139 -527.5q0 -356 -139 -528t-423 -172h-376q-16 0 -27 11t-11 27v584h-76q-16 0 -27 11t-11 27v82q0 16 11 27t27 11h76v582q0 16 11 27t27 11zM766 700q0 246 -56 345t-184 99h-80v-364h134q16 0 27 -11t11 -27v-82q0 -16 -11 -27 t-27 -11h-134v-366h80q128 0 184 99t56 345z" />
<glyph unicode="&#xd1;" horiz-adv-x="1216" d="M513 1366l281 -854v850q0 16 11 27t27 11h236q16 0 27 -11t11 -27v-1324q0 -16 -11 -27t-27 -11h-314q-39 0 -51 34l-281 854v-850q0 -16 -11 -27t-27 -11h-236q-16 0 -27 11t-11 27v1324q0 16 11 27t27 11h314q39 0 51 -34zM476 1828q37 0 81 -19.5t79 -39t50 -19.5 q32 0 37 42q4 34 37 34h117q18 0 28.5 -11t9.5 -28q-11 -261 -177 -261q-37 0 -81 19.5t-79 39t-50 19.5q-32 0 -37 -42q-4 -34 -37 -34h-117q-18 0 -28.5 11t-9.5 28q11 261 177 261z" />
<glyph unicode="&#xd2;" horiz-adv-x="1184" d="M592 1424q267 0 402.5 -184.5t135.5 -539.5t-135.5 -539.5t-402.5 -184.5t-402.5 184.5t-135.5 539.5t135.5 539.5t402.5 184.5zM592 236q66 0 108 41t66 145t24 278t-24 278t-66 145t-108 41t-108 -41t-66 -145t-24 -278t24 -278t66 -145t108 -41zM609 1810l146 -258 q10 -16 3 -30t-29 -14h-146q-45 0 -73 36l-187 230q-23 29 -23 47q0 27 38 27h203q47 0 68 -38z" />
<glyph unicode="&#xd3;" horiz-adv-x="1184" d="M592 1424q267 0 402.5 -184.5t135.5 -539.5t-135.5 -539.5t-402.5 -184.5t-402.5 184.5t-135.5 539.5t135.5 539.5t402.5 184.5zM592 236q66 0 108 41t66 145t24 278t-24 278t-66 145t-108 41t-108 -41t-66 -145t-24 -278t24 -278t66 -145t108 -41zM416 1552l146 258 q21 38 68 38h203q38 0 38 -27q0 -18 -23 -47l-187 -230q-28 -36 -73 -36h-146q-22 0 -29 14t3 30z" />
<glyph unicode="&#xd4;" horiz-adv-x="1184" d="M592 1424q267 0 402.5 -184.5t135.5 -539.5t-135.5 -539.5t-402.5 -184.5t-402.5 184.5t-135.5 539.5t135.5 539.5t402.5 184.5zM592 236q66 0 108 41t66 145t24 278t-24 278t-66 145t-108 41t-108 -41t-66 -145t-24 -278t24 -278t66 -145t108 -41zM450 1848h264 q28 0 41 -25l131 -261q13 -26 4.5 -40t-36.5 -14h-143q-38 0 -54 31l-75 137l-75 -137q-16 -31 -54 -31h-143q-28 0 -36.5 14t4.5 40l131 261q13 25 41 25z" />
<glyph unicode="&#xd5;" horiz-adv-x="1184" d="M592 1424q267 0 402.5 -184.5t135.5 -539.5t-135.5 -539.5t-402.5 -184.5t-402.5 184.5t-135.5 539.5t135.5 539.5t402.5 184.5zM592 236q66 0 108 41t66 145t24 278t-24 278t-66 145t-108 41t-108 -41t-66 -145t-24 -278t24 -278t66 -145t108 -41zM462 1828 q37 0 81 -19.5t79 -39t50 -19.5q32 0 37 42q4 34 37 34h117q18 0 28.5 -11t9.5 -28q-11 -261 -177 -261q-37 0 -81 19.5t-79 39t-50 19.5q-32 0 -37 -42q-4 -34 -37 -34h-117q-18 0 -28.5 11t-9.5 28q11 261 177 261z" />
<glyph unicode="&#xd6;" horiz-adv-x="1184" d="M592 1424q267 0 402.5 -184.5t135.5 -539.5t-135.5 -539.5t-402.5 -184.5t-402.5 184.5t-135.5 539.5t135.5 539.5t402.5 184.5zM592 236q66 0 108 41t66 145t24 278t-24 278t-66 145t-108 41t-108 -41t-66 -145t-24 -278t24 -278t66 -145t108 -41zM272 1678q0 70 35 108 t103 38t103 -38t35 -108t-35 -108t-103 -38t-103 38t-35 108zM636 1678q0 70 35 108t103 38t103 -38t35 -108t-35 -108t-103 -38t-103 38t-35 108z" />
<glyph unicode="&#xd7;" horiz-adv-x="1036" d="M699 664l241 -260q10 -11 10 -26t-11 -26l-147 -147q-11 -11 -26.5 -11t-26.5 12l-232 250l-232 -250q-11 -12 -26.5 -12t-26.5 11l-147 147q-11 11 -11 26t10 26l241 260l-241 260q-10 11 -10 26t11 26l147 147q11 11 26.5 11t26.5 -12l232 -251l232 251q11 12 26.5 12 t26.5 -11l147 -147q11 -11 11 -26t-10 -26z" />
<glyph unicode="&#xd8;" horiz-adv-x="1184" d="M592 1424q120 0 218 -40l82 192q10 24 35 24h79q22 0 30 -12t0 -31l-106 -248q200 -176 200 -609q0 -355 -135.5 -539.5t-402.5 -184.5q-121 0 -215 38l-81 -190q-10 -24 -35 -24h-79q-22 0 -30 12t0 31l104 245q-202 175 -202 612q0 355 135.5 539.5t402.5 184.5z M394 700q0 -150 17 -249l287 672q-41 41 -106 41q-66 0 -108 -41t-66 -145t-24 -278zM592 236q66 0 108 41t66 145t24 278q0 145 -17 242l-285 -668q39 -38 104 -38z" />
<glyph unicode="&#xd9;" horiz-adv-x="1212" d="M606 -24q-238 0 -367 133t-129 415v838q0 16 11 27t27 11h261q15 0 26 -11t11 -27v-858q0 -139 38 -198.5t122 -59.5t122 59.5t38 198.5v858q0 16 11 27t26 11h261q16 0 27 -11t11 -27v-838q0 -282 -129 -415t-367 -133zM605 1810l146 -258q10 -16 3 -30t-29 -14h-146 q-45 0 -73 36l-187 230q-23 29 -23 47q0 27 38 27h203q47 0 68 -38z" />
<glyph unicode="&#xda;" horiz-adv-x="1212" d="M606 -24q-238 0 -367 133t-129 415v838q0 16 11 27t27 11h261q15 0 26 -11t11 -27v-858q0 -139 38 -198.5t122 -59.5t122 59.5t38 198.5v858q0 16 11 27t26 11h261q16 0 27 -11t11 -27v-838q0 -282 -129 -415t-367 -133zM448 1552l146 258q21 38 68 38h203q38 0 38 -27 q0 -18 -23 -47l-187 -230q-28 -36 -73 -36h-146q-22 0 -29 14t3 30z" />
<glyph unicode="&#xdb;" horiz-adv-x="1212" d="M606 -24q-238 0 -367 133t-129 415v838q0 16 11 27t27 11h261q15 0 26 -11t11 -27v-858q0 -139 38 -198.5t122 -59.5t122 59.5t38 198.5v858q0 16 11 27t26 11h261q16 0 27 -11t11 -27v-838q0 -282 -129 -415t-367 -133zM462 1848h264q28 0 41 -25l131 -261 q13 -26 4.5 -40t-36.5 -14h-143q-38 0 -54 31l-75 137l-75 -137q-16 -31 -54 -31h-143q-28 0 -36.5 14t4.5 40l131 261q13 25 41 25z" />
<glyph unicode="&#xdc;" horiz-adv-x="1212" d="M606 -24q-238 0 -367 133t-129 415v838q0 16 11 27t27 11h261q15 0 26 -11t11 -27v-858q0 -139 38 -198.5t122 -59.5t122 59.5t38 198.5v858q0 16 11 27t26 11h261q16 0 27 -11t11 -27v-838q0 -282 -129 -415t-367 -133zM286 1678q0 70 35 108t103 38t103 -38t35 -108 t-35 -108t-103 -38t-103 38t-35 108zM650 1678q0 70 35 108t103 38t103 -38t35 -108t-35 -108t-103 -38t-103 38t-35 108z" />
<glyph unicode="&#xdd;" horiz-adv-x="1116" d="M678 0h-260q-16 0 -27 11t-11 27v500l-356 807q-11 23 -1.5 39t34.5 16h256q35 0 47 -30l188 -478l188 478q12 30 47 30h256q25 0 34.5 -16t-1.5 -39l-356 -807v-500q0 -16 -11 -27t-27 -11zM388 1552l146 258q21 38 68 38h203q38 0 38 -27q0 -18 -23 -47l-187 -230 q-28 -36 -73 -36h-146q-22 0 -29 14t3 30z" />
<glyph unicode="&#xde;" horiz-adv-x="1042" d="M436 240v-202q0 -16 -11 -27t-26 -11h-251q-16 0 -27 11t-11 27v1324q0 16 11 27t27 11h251q15 0 26 -11t11 -27v-182h92q217 0 340.5 -118.5t123.5 -351.5t-123.5 -351.5t-340.5 -118.5h-92zM674 710q0 113 -37.5 163.5t-110.5 50.5h-90v-428h90q74 0 111 50t37 164z " />
<glyph unicode="&#xdf;" horiz-adv-x="1138" d="M517 847q79 8 118 48t39 121q0 70 -28 110t-82 40q-70 0 -99 -55t-29 -193v-881q0 -15 -10.5 -26t-26.5 -11h-252q-15 0 -26 11t-11 26v809q0 309 108 443.5t360 134.5q208 0 331 -108t123 -274q0 -115 -50.5 -197.5t-151.5 -122.5q114 -34 181 -125.5t67 -222.5 q0 -189 -106.5 -293.5t-307.5 -104.5q-71 0 -159 20q-38 8 -36 49l5 167q1 22 15 31.5t34 2.5q36 -12 81 -12q68 0 106 42.5t38 117.5q0 87 -58.5 137.5t-171.5 57.5q-15 1 -25.5 12t-10.5 25v183q0 14 10.5 25t24.5 13z" />
<glyph unicode="&#xe0;" horiz-adv-x="910" d="M424 198q60 0 92 44v216h-78q-112 0 -112 -142q0 -65 24.5 -91.5t73.5 -26.5zM167 795q-19 -8 -34.5 -0.5t-17.5 26.5l-14 134q-3 31 27 44q136 61 306 61q117 0 195 -26t122 -81t61.5 -128.5t17.5 -180.5v-607q0 -15 -11 -26t-26 -11h-240q-15 0 -26 11t-11 26v31 q-71 -90 -196 -90q-130 0 -210 84.5t-80 239.5q0 354 390 354h96v64q0 67 -30.5 93.5t-101.5 26.5q-110 0 -217 -45zM479 1462l146 -258q10 -16 3 -30t-29 -14h-146q-45 0 -73 36l-187 230q-23 29 -23 47q0 27 38 27h203q47 0 68 -38z" />
<glyph unicode="&#xe1;" horiz-adv-x="910" d="M424 198q60 0 92 44v216h-78q-112 0 -112 -142q0 -65 24.5 -91.5t73.5 -26.5zM167 795q-19 -8 -34.5 -0.5t-17.5 26.5l-14 134q-3 31 27 44q136 61 306 61q117 0 195 -26t122 -81t61.5 -128.5t17.5 -180.5v-607q0 -15 -11 -26t-26 -11h-240q-15 0 -26 11t-11 26v31 q-71 -90 -196 -90q-130 0 -210 84.5t-80 239.5q0 354 390 354h96v64q0 67 -30.5 93.5t-101.5 26.5q-110 0 -217 -45zM270 1204l146 258q21 38 68 38h203q38 0 38 -27q0 -18 -23 -47l-187 -230q-28 -36 -73 -36h-146q-22 0 -29 14t3 30z" />
<glyph unicode="&#xe2;" horiz-adv-x="910" d="M424 198q60 0 92 44v216h-78q-112 0 -112 -142q0 -65 24.5 -91.5t73.5 -26.5zM167 795q-19 -8 -34.5 -0.5t-17.5 26.5l-14 134q-3 31 27 44q136 61 306 61q117 0 195 -26t122 -81t61.5 -128.5t17.5 -180.5v-607q0 -15 -11 -26t-26 -11h-240q-15 0 -26 11t-11 26v31 q-71 -90 -196 -90q-130 0 -210 84.5t-80 239.5q0 354 390 354h96v64q0 67 -30.5 93.5t-101.5 26.5q-110 0 -217 -45zM298 1498h264q28 0 41 -25l131 -261q13 -26 4.5 -40t-36.5 -14h-143q-38 0 -54 31l-75 137l-75 -137q-16 -31 -54 -31h-143q-28 0 -36.5 14t4.5 40l131 261 q13 25 41 25z" />
<glyph unicode="&#xe3;" horiz-adv-x="910" d="M424 198q60 0 92 44v216h-78q-112 0 -112 -142q0 -65 24.5 -91.5t73.5 -26.5zM167 795q-19 -8 -34.5 -0.5t-17.5 26.5l-14 134q-3 31 27 44q136 61 306 61q117 0 195 -26t122 -81t61.5 -128.5t17.5 -180.5v-607q0 -15 -11 -26t-26 -11h-240q-15 0 -26 11t-11 26v31 q-71 -90 -196 -90q-130 0 -210 84.5t-80 239.5q0 354 390 354h96v64q0 67 -30.5 93.5t-101.5 26.5q-110 0 -217 -45zM314 1478q37 0 81 -19.5t79 -39t50 -19.5q32 0 37 42q4 34 37 34h117q18 0 28.5 -11t9.5 -28q-11 -261 -177 -261q-37 0 -81 19.5t-79 39t-50 19.5 q-32 0 -37 -42q-4 -34 -37 -34h-117q-18 0 -28.5 11t-9.5 28q11 261 177 261z" />
<glyph unicode="&#xe4;" horiz-adv-x="910" d="M424 198q60 0 92 44v216h-78q-112 0 -112 -142q0 -65 24.5 -91.5t73.5 -26.5zM167 795q-19 -8 -34.5 -0.5t-17.5 26.5l-14 134q-3 31 27 44q136 61 306 61q117 0 195 -26t122 -81t61.5 -128.5t17.5 -180.5v-607q0 -15 -11 -26t-26 -11h-240q-15 0 -26 11t-11 26v31 q-71 -90 -196 -90q-130 0 -210 84.5t-80 239.5q0 354 390 354h96v64q0 67 -30.5 93.5t-101.5 26.5q-110 0 -217 -45zM124 1330q0 70 35 108t103 38t103 -38t35 -108t-35 -108t-103 -38t-103 38t-35 108zM488 1330q0 70 35 108t103 38t103 -38t35 -108t-35 -108t-103 -38 t-103 38t-35 108z" />
<glyph unicode="&#xe5;" horiz-adv-x="910" d="M424 198q60 0 92 44v216h-78q-112 0 -112 -142q0 -65 24.5 -91.5t73.5 -26.5zM167 795q-19 -8 -34.5 -0.5t-17.5 26.5l-14 134q-3 31 27 44q136 61 306 61q117 0 195 -26t122 -81t61.5 -128.5t17.5 -180.5v-607q0 -15 -11 -26t-26 -11h-240q-15 0 -26 11t-11 26v31 q-71 -90 -196 -90q-130 0 -210 84.5t-80 239.5q0 354 390 354h96v64q0 67 -30.5 93.5t-101.5 26.5q-110 0 -217 -45zM688 1340q0 -98 -69.5 -165t-172.5 -67t-172.5 67t-69.5 165q0 97 69.5 163.5t172.5 66.5t172.5 -66.5t69.5 -163.5zM364 1340q0 -37 23 -60.5t59 -23.5 t59 23.5t23 60.5q0 36 -23 59t-59 23t-59 -23t-23 -59z" />
<glyph unicode="&#xe6;" horiz-adv-x="1376" d="M516 280v178h-78q-112 0 -112 -142q0 -118 86 -118q78 0 104 82zM816 622h216q0 120 -27 168t-81 48q-56 0 -82 -47t-26 -169zM1342 510q0 -45 -3 -65q-5 -35 -47 -35h-476q9 -120 58 -166t156 -46q100 0 179 35q19 8 34.5 0.5t16.5 -27.5l10 -142q3 -33 -25 -45 q-92 -43 -233 -43q-235 0 -330 160q-90 -160 -312 -160q-154 0 -247 85t-93 243q0 166 95.5 259t284.5 93h106v64q0 67 -30.5 93.5t-101.5 26.5q-114 0 -218 -46q-20 -9 -34.5 -1t-16.5 28l-14 133q-3 31 23 44q132 62 282 62q201 0 276 -138q43 64 111.5 101t152.5 37 q192 0 294 -145.5t102 -404.5z" />
<glyph unicode="&#xe7;" horiz-adv-x="808" d="M715 215q19 6 33.5 -2t15.5 -28l11 -142q3 -34 -33 -44q-55 -16 -113 -20l-41 -93q49 -18 77.5 -61t28.5 -101q0 -92 -67.5 -146t-182.5 -54q-59 0 -99 8q-33 7 -33 37v76q0 46 46 35q17 -4 38 -4q68 0 68 56q0 31 -18.5 49t-65.5 24q-22 3 -29.5 16.5t1.5 35.5l54 135 q-179 39 -272.5 173.5t-93.5 352.5q0 261 133 401.5t379 140.5q95 0 184 -25q34 -9 31 -43l-11 -143q-1 -19 -16 -27t-33 -2q-56 18 -111 18q-108 0 -168 -78.5t-60 -241.5q0 -320 238 -320q58 0 109 17z" />
<glyph unicode="&#xe8;" horiz-adv-x="910" d="M743 233q19 9 34.5 1t16.5 -28l10 -141q3 -32 -25 -44q-102 -45 -249 -45q-238 0 -364 141t-126 405q0 258 111 398t305 140q207 0 313.5 -142.5t106.5 -407.5q0 -45 -3 -65q-5 -35 -47 -35h-476q9 -120 58 -166t156 -46q102 0 179 35zM350 622h216q0 120 -27 168t-81 48 q-56 0 -82 -47t-26 -169zM477 1462l146 -258q10 -16 3 -30t-29 -14h-146q-45 0 -73 36l-187 230q-23 29 -23 47q0 27 38 27h203q47 0 68 -38z" />
<glyph unicode="&#xe9;" horiz-adv-x="910" d="M743 233q19 9 34.5 1t16.5 -28l10 -141q3 -32 -25 -44q-102 -45 -249 -45q-238 0 -364 141t-126 405q0 258 111 398t305 140q207 0 313.5 -142.5t106.5 -407.5q0 -45 -3 -65q-5 -35 -47 -35h-476q9 -120 58 -166t156 -46q102 0 179 35zM350 622h216q0 120 -27 168t-81 48 q-56 0 -82 -47t-26 -169zM248 1204l146 258q21 38 68 38h203q38 0 38 -27q0 -18 -23 -47l-187 -230q-28 -36 -73 -36h-146q-22 0 -29 14t3 30z" />
<glyph unicode="&#xea;" horiz-adv-x="910" d="M743 233q19 9 34.5 1t16.5 -28l10 -141q3 -32 -25 -44q-102 -45 -249 -45q-238 0 -364 141t-126 405q0 258 111 398t305 140q207 0 313.5 -142.5t106.5 -407.5q0 -45 -3 -65q-5 -35 -47 -35h-476q9 -120 58 -166t156 -46q102 0 179 35zM350 622h216q0 120 -27 168t-81 48 q-56 0 -82 -47t-26 -169zM306 1498h264q28 0 41 -25l131 -261q13 -26 4.5 -40t-36.5 -14h-143q-38 0 -54 31l-75 137l-75 -137q-16 -31 -54 -31h-143q-28 0 -36.5 14t4.5 40l131 261q13 25 41 25z" />
<glyph unicode="&#xeb;" horiz-adv-x="910" d="M743 233q19 9 34.5 1t16.5 -28l10 -141q3 -32 -25 -44q-102 -45 -249 -45q-238 0 -364 141t-126 405q0 258 111 398t305 140q207 0 313.5 -142.5t106.5 -407.5q0 -45 -3 -65q-5 -35 -47 -35h-476q9 -120 58 -166t156 -46q102 0 179 35zM350 622h216q0 120 -27 168t-81 48 q-56 0 -82 -47t-26 -169zM128 1330q0 70 35 108t103 38t103 -38t35 -108t-35 -108t-103 -38t-103 38t-35 108zM492 1330q0 70 35 108t103 38t103 -38t35 -108t-35 -108t-103 -38t-103 38t-35 108z" />
<glyph unicode="&#xec;" horiz-adv-x="514" d="M94 37v962q0 15 11 26t26 11h250q15 0 26 -11t11 -26v-962q0 -15 -11 -26t-26 -11h-250q-15 0 -26 11t-11 26zM269 1462l146 -258q10 -16 3 -30t-29 -14h-146q-45 0 -73 36l-187 230q-23 29 -23 47q0 27 38 27h203q47 0 68 -38z" />
<glyph unicode="&#xed;" horiz-adv-x="514" d="M94 37v962q0 15 11 26t26 11h250q15 0 26 -11t11 -26v-962q0 -15 -11 -26t-26 -11h-250q-15 0 -26 11t-11 26zM84 1204l146 258q21 38 68 38h203q38 0 38 -27q0 -18 -23 -47l-187 -230q-28 -36 -73 -36h-146q-22 0 -29 14t3 30z" />
<glyph unicode="&#xee;" horiz-adv-x="514" d="M94 37v962q0 15 11 26t26 11h250q15 0 26 -11t11 -26v-962q0 -15 -11 -26t-26 -11h-250q-15 0 -26 11t-11 26zM116 1498h264q28 0 41 -25l131 -261q13 -26 4.5 -40t-36.5 -14h-143q-38 0 -54 31l-75 137l-75 -137q-16 -31 -54 -31h-143q-28 0 -36.5 14t4.5 40l131 261 q13 25 41 25z" />
<glyph unicode="&#xef;" horiz-adv-x="514" d="M94 37v962q0 15 11 26t26 11h250q15 0 26 -11t11 -26v-962q0 -15 -11 -26t-26 -11h-250q-15 0 -26 11t-11 26zM-64 1330q0 70 35 108t103 38t103 -38t35 -108t-35 -108t-103 -38t-103 38t-35 108zM300 1330q0 70 35 108t103 38t103 -38t35 -108t-35 -108t-103 -38 t-103 38t-35 108z" />
<glyph unicode="&#xf0;" horiz-adv-x="938" d="M474 756q-57 0 -86.5 -63.5t-29.5 -212.5q0 -154 25 -218t77 -64q26 0 46 18t37.5 63t27 135t9.5 222q0 42 -2 64q-37 56 -104 56zM837 1185l-73 -23q142 -213 142 -526q0 -658 -454 -658q-196 0 -308 124.5t-112 377.5q0 234 96 360t258 126q93 0 162 -46 q-24 93 -66 156l-219 -67q-16 -4 -28.5 2.5t-17.5 21.5l-22 74q-10 35 25 46l134 41q-52 27 -110 39q-15 3 -24 15t-8 27l11 152q2 16 14.5 26t28.5 8q241 -33 392 -173l133 41q16 4 28.5 -2.5t17.5 -21.5l24 -74q5 -15 -1.5 -28t-22.5 -18z" />
<glyph unicode="&#xf1;" horiz-adv-x="1014" d="M936 640v-603q0 -15 -11 -26t-26 -11h-250q-15 0 -26 11t-11 26v583q0 87 -12 135.5t-33 65.5t-57 17q-66 0 -102 -46v-755q0 -15 -11 -26t-26 -11h-250q-15 0 -26 11t-11 26v962q0 15 11 26t26 11h250q15 0 26 -11t11 -26v-31q37 42 95.5 67t126.5 25q305 0 306 -420z M364 1478q37 0 81 -19.5t79 -39t50 -19.5q32 0 37 42q4 34 37 34h117q18 0 28.5 -11t9.5 -28q-11 -261 -177 -261q-37 0 -81 19.5t-79 39t-50 19.5q-32 0 -37 -42q-4 -34 -37 -34h-117q-18 0 -28.5 11t-9.5 28q11 261 177 261z" />
<glyph unicode="&#xf2;" horiz-adv-x="968" d="M484 1060q212 0 328 -136.5t116 -405.5t-116 -405.5t-328 -136.5t-328 136.5t-116 405.5t116 405.5t328 136.5zM484 198q63 0 94.5 71t31.5 249t-31.5 249t-94.5 71t-94.5 -71t-31.5 -249t31.5 -249t94.5 -71zM491 1462l146 -258q10 -16 3 -30t-29 -14h-146q-45 0 -73 36 l-187 230q-23 29 -23 47q0 27 38 27h203q47 0 68 -38z" />
<glyph unicode="&#xf3;" horiz-adv-x="968" d="M484 1060q212 0 328 -136.5t116 -405.5t-116 -405.5t-328 -136.5t-328 136.5t-116 405.5t116 405.5t328 136.5zM484 198q63 0 94.5 71t31.5 249t-31.5 249t-94.5 71t-94.5 -71t-31.5 -249t31.5 -249t94.5 -71zM316 1204l146 258q21 38 68 38h203q38 0 38 -27 q0 -18 -23 -47l-187 -230q-28 -36 -73 -36h-146q-22 0 -29 14t3 30z" />
<glyph unicode="&#xf4;" horiz-adv-x="968" d="M484 1060q212 0 328 -136.5t116 -405.5t-116 -405.5t-328 -136.5t-328 136.5t-116 405.5t116 405.5t328 136.5zM484 198q63 0 94.5 71t31.5 249t-31.5 249t-94.5 71t-94.5 -71t-31.5 -249t31.5 -249t94.5 -71zM342 1498h264q28 0 41 -25l131 -261q13 -26 4.5 -40 t-36.5 -14h-143q-38 0 -54 31l-75 137l-75 -137q-16 -31 -54 -31h-143q-28 0 -36.5 14t4.5 40l131 261q13 25 41 25z" />
<glyph unicode="&#xf5;" horiz-adv-x="968" d="M484 1060q212 0 328 -136.5t116 -405.5t-116 -405.5t-328 -136.5t-328 136.5t-116 405.5t116 405.5t328 136.5zM484 198q63 0 94.5 71t31.5 249t-31.5 249t-94.5 71t-94.5 -71t-31.5 -249t31.5 -249t94.5 -71zM350 1478q37 0 81 -19.5t79 -39t50 -19.5q32 0 37 42 q4 34 37 34h117q18 0 28.5 -11t9.5 -28q-11 -261 -177 -261q-37 0 -81 19.5t-79 39t-50 19.5q-32 0 -37 -42q-4 -34 -37 -34h-117q-18 0 -28.5 11t-9.5 28q11 261 177 261z" />
<glyph unicode="&#xf6;" horiz-adv-x="968" d="M484 1060q212 0 328 -136.5t116 -405.5t-116 -405.5t-328 -136.5t-328 136.5t-116 405.5t116 405.5t328 136.5zM484 198q63 0 94.5 71t31.5 249t-31.5 249t-94.5 71t-94.5 -71t-31.5 -249t31.5 -249t94.5 -71zM162 1330q0 70 35 108t103 38t103 -38t35 -108t-35 -108 t-103 -38t-103 38t-35 108zM526 1330q0 70 35 108t103 38t103 -38t35 -108t-35 -108t-103 -38t-103 38t-35 108z" />
<glyph unicode="&#xf7;" horiz-adv-x="1036" d="M518 50q-81 0 -119.5 44t-38.5 136t38.5 136t119.5 44t119.5 -44t38.5 -136t-38.5 -136t-119.5 -44zM518 918q-81 0 -119.5 44t-38.5 136t38.5 136t119.5 44t119.5 -44t38.5 -136t-38.5 -136t-119.5 -44zM948 546h-861q-16 0 -26.5 10.5t-10.5 26.5v162q0 15 10.5 26 t26.5 11h861q16 0 27 -11t11 -26v-162q0 -16 -11 -26.5t-27 -10.5z" />
<glyph unicode="&#xf8;" horiz-adv-x="968" d="M484 1060q75 0 143 -19l81 192q9 23 36 23h80q22 0 29 -11t-1 -31l-99 -235q175 -133 175 -461q0 -269 -116 -405.5t-328 -136.5q-75 0 -145 19l-80 -192q-9 -23 -36 -23h-80q-22 0 -29 11t1 31l99 235q-174 132 -174 461q0 269 116 405.5t328 136.5zM484 198 q63 0 94.5 71t31.5 249q0 47 -4 111l-175 -416q20 -15 53 -15zM358 518q0 -67 4 -110l174 415q-24 15 -52 15q-63 0 -94.5 -71t-31.5 -249z" />
<glyph unicode="&#xf9;" horiz-adv-x="1020" d="M84 396v603q0 15 11 26t26 11h250q15 0 26 -11t11 -26v-583q0 -87 12 -135.5t33 -65.5t57 -17q66 0 102 46v755q0 15 11 26t26 11h250q15 0 26 -11t11 -26v-962q0 -15 -11 -26t-26 -11h-250q-15 0 -26 11t-11 26v31q-37 -42 -95.5 -67t-126.5 -25q-305 0 -306 420z M503 1462l146 -258q10 -16 3 -30t-29 -14h-146q-45 0 -73 36l-187 230q-23 29 -23 47q0 27 38 27h203q47 0 68 -38z" />
<glyph unicode="&#xfa;" horiz-adv-x="1020" d="M84 396v603q0 15 11 26t26 11h250q15 0 26 -11t11 -26v-583q0 -87 12 -135.5t33 -65.5t57 -17q66 0 102 46v755q0 15 11 26t26 11h250q15 0 26 -11t11 -26v-962q0 -15 -11 -26t-26 -11h-250q-15 0 -26 11t-11 26v31q-37 -42 -95.5 -67t-126.5 -25q-305 0 -306 420z M358 1204l146 258q21 38 68 38h203q38 0 38 -27q0 -18 -23 -47l-187 -230q-28 -36 -73 -36h-146q-22 0 -29 14t3 30z" />
<glyph unicode="&#xfb;" horiz-adv-x="1020" d="M84 396v603q0 15 11 26t26 11h250q15 0 26 -11t11 -26v-583q0 -87 12 -135.5t33 -65.5t57 -17q66 0 102 46v755q0 15 11 26t26 11h250q15 0 26 -11t11 -26v-962q0 -15 -11 -26t-26 -11h-250q-15 0 -26 11t-11 26v31q-37 -42 -95.5 -67t-126.5 -25q-305 0 -306 420z M366 1498h264q28 0 41 -25l131 -261q13 -26 4.5 -40t-36.5 -14h-143q-38 0 -54 31l-75 137l-75 -137q-16 -31 -54 -31h-143q-28 0 -36.5 14t4.5 40l131 261q13 25 41 25z" />
<glyph unicode="&#xfc;" horiz-adv-x="1020" d="M84 396v603q0 15 11 26t26 11h250q15 0 26 -11t11 -26v-583q0 -87 12 -135.5t33 -65.5t57 -17q66 0 102 46v755q0 15 11 26t26 11h250q15 0 26 -11t11 -26v-962q0 -15 -11 -26t-26 -11h-250q-15 0 -26 11t-11 26v31q-37 -42 -95.5 -67t-126.5 -25q-305 0 -306 420z M188 1330q0 70 35 108t103 38t103 -38t35 -108t-35 -108t-103 -38t-103 38t-35 108zM552 1330q0 70 35 108t103 38t103 -38t35 -108t-35 -108t-103 -38t-103 38t-35 108z" />
<glyph unicode="&#xfd;" horiz-adv-x="932" d="M460 384l124 622q7 30 36 30h253q21 0 30 -13.5t4 -34.5l-354 -1339q-9 -35 -49 -35h-242q-22 0 -31.5 12.5t-4.5 33.5l76 304l-288 1023q-6 21 3 35t30 14h248q35 0 41 -32zM296 1204l146 258q21 38 68 38h203q38 0 38 -27q0 -18 -23 -47l-187 -230q-28 -36 -73 -36 h-146q-22 0 -29 14t3 30z" />
<glyph unicode="&#xfe;" horiz-adv-x="980" d="M622 518q0 175 -31.5 247.5t-100.5 72.5q-47 0 -82 -44v-550q36 -46 82 -46q69 0 100.5 73t31.5 247zM408 68v-417q0 -15 -10.5 -26t-26.5 -11h-250q-15 0 -26 11t-11 26v1772q0 15 11 26t26 11h250q16 0 26.5 -11t10.5 -26v-455q72 92 194 92q161 0 249.5 -136.5 t88.5 -405.5t-88.5 -405.5t-249.5 -136.5q-122 0 -194 92z" />
<glyph unicode="&#xff;" horiz-adv-x="932" d="M460 384l124 622q7 30 36 30h253q21 0 30 -13.5t4 -34.5l-354 -1339q-9 -35 -49 -35h-242q-22 0 -31.5 12.5t-4.5 33.5l76 304l-288 1023q-6 21 3 35t30 14h248q35 0 41 -32zM144 1330q0 70 35 108t103 38t103 -38t35 -108t-35 -108t-103 -38t-103 38t-35 108zM508 1330 q0 70 35 108t103 38t103 -38t35 -108t-35 -108t-103 -38t-103 38t-35 108z" />
<glyph unicode="&#x152;" horiz-adv-x="1454" d="M708 1400h636q16 0 27 -11t11 -27v-180q0 -16 -11 -27t-26 -11h-347v-304h312q16 0 27 -11t11 -27v-181q0 -15 -11 -26t-26 -11h-313v-328h359q15 0 26 -11t11 -27v-180q0 -16 -11 -27t-26 -11h-649q-316 0 -485 175.5t-169 524.5t169 524.5t485 175.5zM394 700 q0 -217 67.5 -320.5t206.5 -111.5v864q-139 -8 -206.5 -111.5t-67.5 -320.5z" />
<glyph unicode="&#x153;" horiz-adv-x="1448" d="M358 518q0 -177 25 -246.5t85 -69.5t87 70.5t27 245.5t-27 245.5t-87 70.5t-85 -69.5t-25 -246.5zM1018 1060q192 0 294 -145.5t102 -404.5q0 -45 -3 -65q-5 -35 -47 -35h-476q9 -120 58 -166t156 -46q100 0 179 35q19 8 34.5 0.5t16.5 -27.5l10 -142q3 -33 -25 -45 q-92 -43 -233 -43q-250 0 -342 148q-44 -70 -118 -109t-166 -39q-200 0 -309 136t-109 406q0 269 109 405.5t309 136.5q86 0 162.5 -39.5t119.5 -106.5q45 70 117 108t161 38zM996 838q-56 0 -82 -47t-26 -169h216q0 120 -27 168t-81 48z" />
<glyph unicode="&#x178;" horiz-adv-x="1116" d="M678 0h-260q-16 0 -27 11t-11 27v500l-356 807q-11 23 -1.5 39t34.5 16h256q35 0 47 -30l188 -478l188 478q12 30 47 30h256q25 0 34.5 -16t-1.5 -39l-356 -807v-500q0 -16 -11 -27t-27 -11zM236 1678q0 70 35 108t103 38t103 -38t35 -108t-35 -108t-103 -38t-103 38 t-35 108zM600 1678q0 70 35 108t103 38t103 -38t35 -108t-35 -108t-103 -38t-103 38t-35 108z" />
<glyph unicode="&#x2c6;" horiz-adv-x="750" d="M232 1460h264q28 0 41 -25l131 -261q13 -26 4.5 -40t-36.5 -14h-143q-38 0 -54 31l-75 137l-75 -137q-16 -31 -54 -31h-143q-28 0 -36.5 14t4.5 40l131 261q13 25 41 25z" />
<glyph unicode="&#x2dc;" horiz-adv-x="750" d="M242 1440q37 0 81 -19.5t79 -39t50 -19.5q32 0 37 42q4 34 37 34h117q18 0 28.5 -11t9.5 -28q-11 -261 -177 -261q-37 0 -81 19.5t-79 39t-50 19.5q-32 0 -37 -42q-4 -34 -37 -34h-117q-18 0 -28.5 11t-9.5 28q11 261 177 261z" />
<glyph unicode="&#x2000;" horiz-adv-x="954" />
<glyph unicode="&#x2001;" horiz-adv-x="1908" />
<glyph unicode="&#x2002;" horiz-adv-x="954" />
<glyph unicode="&#x2003;" horiz-adv-x="1908" />
<glyph unicode="&#x2004;" horiz-adv-x="636" />
<glyph unicode="&#x2005;" horiz-adv-x="477" />
<glyph unicode="&#x2006;" horiz-adv-x="318" />
<glyph unicode="&#x2007;" horiz-adv-x="318" />
<glyph unicode="&#x2008;" horiz-adv-x="238" />
<glyph unicode="&#x2009;" horiz-adv-x="381" />
<glyph unicode="&#x200a;" horiz-adv-x="106" />
<glyph unicode="&#x2010;" horiz-adv-x="692" d="M585 536h-478q-15 0 -26 11t-11 26v182q0 15 11 26t26 11h478q15 0 26 -11t11 -26v-182q0 -15 -11 -26t-26 -11z" />
<glyph unicode="&#x2011;" horiz-adv-x="692" d="M585 536h-478q-15 0 -26 11t-11 26v182q0 15 11 26t26 11h478q15 0 26 -11t11 -26v-182q0 -15 -11 -26t-26 -11z" />
<glyph unicode="&#x2012;" horiz-adv-x="692" d="M585 536h-478q-15 0 -26 11t-11 26v182q0 15 11 26t26 11h478q15 0 26 -11t11 -26v-182q0 -15 -11 -26t-26 -11z" />
<glyph unicode="&#x2013;" horiz-adv-x="1000" d="M963 546h-926q-15 0 -26 10.5t-11 26.5v162q0 15 11 26t26 11h926q16 0 26.5 -11t10.5 -26v-162q0 -16 -10.5 -26.5t-26.5 -10.5z" />
<glyph unicode="&#x2014;" horiz-adv-x="2000" d="M1963 546h-1926q-15 0 -26 10.5t-11 26.5v162q0 15 11 26t26 11h1926q16 0 26.5 -11t10.5 -26v-162q0 -16 -10.5 -26.5t-26.5 -10.5z" />
<glyph unicode="&#x2018;" horiz-adv-x="504" d="M373 1403q-64 -71 -67 -165q104 -26 104 -174q0 -92 -38.5 -136t-119.5 -44t-119.5 44t-38.5 136q0 301 196 454q16 12 31.5 9.5t25.5 -19.5l34 -61q12 -22 -8 -44z" />
<glyph unicode="&#x2019;" horiz-adv-x="504" d="M131 1025q64 71 67 165q-104 26 -104 174q0 92 38.5 136t119.5 44t119.5 -44t38.5 -136q0 -301 -196 -454q-16 -12 -31.5 -9.5t-25.5 19.5l-34 61q-12 22 8 44z" />
<glyph unicode="&#x201a;" horiz-adv-x="504" d="M131 -183q64 71 67 165q-104 26 -104 174q0 92 38.5 136t119.5 44t119.5 -44t38.5 -136q0 -301 -196 -454q-16 -12 -31.5 -9.5t-25.5 19.5l-34 61q-12 22 8 44z" />
<glyph unicode="&#x201c;" horiz-adv-x="868" d="M737 1403q-64 -71 -67 -165q104 -26 104 -174q0 -92 -38.5 -136t-119.5 -44t-119.5 44t-38.5 136q0 301 196 454q16 12 31.5 9.5t25.5 -19.5l34 -61q12 -22 -8 -44zM373 1403q-64 -71 -67 -165q104 -26 104 -174q0 -92 -38.5 -136t-119.5 -44t-119.5 44t-38.5 136 q0 301 196 454q16 12 31.5 9.5t25.5 -19.5l34 -61q12 -22 -8 -44z" />
<glyph unicode="&#x201d;" horiz-adv-x="868" d="M495 1025q64 71 67 165q-104 26 -104 174q0 92 38.5 136t119.5 44t119.5 -44t38.5 -136q0 -301 -196 -454q-16 -12 -31.5 -9.5t-25.5 19.5l-34 61q-12 22 8 44zM131 1025q64 71 67 165q-104 26 -104 174q0 92 38.5 136t119.5 44t119.5 -44t38.5 -136q0 -301 -196 -454 q-16 -12 -31.5 -9.5t-25.5 19.5l-34 61q-12 22 8 44z" />
<glyph unicode="&#x201e;" horiz-adv-x="868" d="M131 -183q64 71 67 165q-104 26 -104 174q0 92 38.5 136t119.5 44t119.5 -44t38.5 -136q0 -301 -196 -454q-16 -12 -31.5 -9.5t-25.5 19.5l-34 61q-12 22 8 44zM495 -183q64 71 67 165q-104 26 -104 174q0 92 38.5 136t119.5 44t119.5 -44t38.5 -136q0 -301 -196 -454 q-16 -12 -31.5 -9.5t-25.5 19.5l-34 61q-12 22 8 44z" />
<glyph unicode="&#x2022;" horiz-adv-x="844" d="M170 662q0 290 252 290t252 -290t-252 -290t-252 290z" />
<glyph unicode="&#x2026;" horiz-adv-x="1508" d="M252 -24q-81 0 -119.5 44t-38.5 136t38.5 136t119.5 44t119.5 -44t38.5 -136t-38.5 -136t-119.5 -44zM1256 -24q-81 0 -119.5 44t-38.5 136t38.5 136t119.5 44t119.5 -44t38.5 -136t-38.5 -136t-119.5 -44zM754 -24q-81 0 -119.5 44t-38.5 136t38.5 136t119.5 44 t119.5 -44t38.5 -136t-38.5 -136t-119.5 -44z" />
<glyph unicode="&#x202f;" horiz-adv-x="381" />
<glyph unicode="&#x2039;" horiz-adv-x="542" d="M90 560v128q0 25 5.5 39.5t22.5 31.5l293 307q19 21 40 15t21 -37v-189q0 -22 -14 -37l-192 -194l192 -194q14 -15 14 -37v-189q0 -31 -21 -37t-40 15l-293 307q-17 17 -22.5 31.5t-5.5 39.5z" />
<glyph unicode="&#x203a;" horiz-adv-x="542" d="M452 688v-128q0 -25 -5.5 -39.5t-22.5 -31.5l-293 -307q-19 -21 -40 -15t-21 37v189q0 22 14 37l192 194l-192 194q-14 15 -14 37v189q0 31 21 37t40 -15l293 -307q17 -17 22.5 -31.5t5.5 -39.5z" />
<glyph unicode="&#x205f;" horiz-adv-x="477" />
<glyph unicode="&#x20ac;" horiz-adv-x="1002" d="M104 510h-47q-15 0 -26 11t-11 26v56q0 16 11 26.5t26 10.5h35q-3 59 0 118h-35q-15 0 -26 11t-11 26v56q0 16 11 26.5t26 10.5h47q39 253 186 394.5t378 141.5q148 0 263 -45q32 -12 29 -48l-12 -185q-1 -22 -17 -30t-35 1q-83 37 -188 37q-94 0 -162 -68.5t-98 -197.5 h373q20 0 31 -10.5t5 -31.5l-17 -63q-6 -25 -38 -25h-370q-6 -59 0 -118h326q20 0 31 -10.5t5 -31.5l-17 -63q-6 -25 -38 -25h-291q29 -129 99 -196.5t167 -67.5q107 0 189 35q21 9 37.5 1t17.5 -30l12 -185q3 -36 -29 -48q-113 -43 -265 -43q-233 0 -382 141t-190 393z" />
<glyph unicode="&#x2122;" horiz-adv-x="1074" d="M430 1366v-84q0 -15 -9 -24.5t-25 -9.5h-92v-476q0 -16 -9.5 -25t-24.5 -9h-116q-15 0 -24.5 9t-9.5 25v476h-90q-16 0 -25 9.5t-9 24.5v84q0 15 9 24.5t25 9.5h366q16 0 25 -9.5t9 -24.5zM728 944h30q27 0 36 27l56 191v-387q0 -37 37 -37h100q37 0 37 37v588 q0 37 -37 37h-140q-27 0 -35 -27l-69 -227l-69 227q-8 27 -35 27h-140q-37 0 -37 -37v-588q0 -37 37 -37h100q37 0 37 37v387l56 -191q9 -27 36 -27z" />
<glyph unicode="&#x25fc;" horiz-adv-x="1035" d="M0 1035h1035v-1035h-1035v1035z" />
</font>
</defs>
</svg>
