<?xml version="1.0" standalone="no"?>
<!DOCTYPE svg PUBLIC "-//W3C//DTD SVG 1.1//EN" "http://www.w3.org/Graphics/SVG/1.1/DTD/svg11.dtd" >
<svg xmlns="http://www.w3.org/2000/svg">
<metadata></metadata>
<defs>
<font id="core_sans_nr_47_cn_regularRg" horiz-adv-x="880" >
<font-face units-per-em="2000" ascent="1600" descent="-400" />
<missing-glyph horiz-adv-x="442" />
<glyph unicode="&#xfb01;" horiz-adv-x="942" d="M508 1320q-20 4 -46 4q-66 0 -98 -42.5t-32 -147.5v-98h171q15 0 26 -11t11 -26v-58q0 -16 -11 -26.5t-26 -10.5h-171v-867q0 -15 -11 -26t-26 -11h-91q-16 0 -27 11t-11 26v867h-115q-15 0 -26 10.5t-11 26.5v58q0 15 11 26t26 11h115v98q0 326 280 326q45 0 85 -8 q34 -7 30 -39l-7 -64q-4 -37 -46 -29zM745 1204q-50 0 -75 30t-25 98t25 98t75 30t75 -30t25 -98t-25 -98t-75 -30zM662 37v962q0 15 10.5 26t26.5 11h92q16 0 26.5 -11t10.5 -26v-962q0 -15 -10.5 -26t-26.5 -11h-92q-16 0 -26.5 11t-10.5 26z" />
<glyph unicode="&#xfb02;" horiz-adv-x="944" d="M508 1320q-20 4 -46 4q-66 0 -98 -42.5t-32 -147.5v-98h171q15 0 26 -11t11 -26v-58q0 -16 -11 -26.5t-26 -10.5h-171v-867q0 -15 -11 -26t-26 -11h-91q-16 0 -27 11t-11 26v867h-115q-15 0 -26 10.5t-11 26.5v58q0 15 11 26t26 11h115v98q0 326 280 326q45 0 85 -8 q34 -7 30 -39l-7 -64q-4 -37 -46 -29zM662 37v1386q0 15 10.5 26t26.5 11h92q16 0 26.5 -11t10.5 -26v-1386q0 -15 -10.5 -26t-26.5 -11h-92q-16 0 -26.5 11t-10.5 26z" />
<glyph unicode="&#xfb03;" horiz-adv-x="1438" d="M567 1450q34 -7 30 -40l-7 -64q-5 -39 -46 -29q-29 7 -64 7q-78 0 -113 -42t-35 -148v-98h330v98q0 326 280 326q45 0 85 -8q34 -7 30 -39l-7 -64q-4 -37 -46 -29q-20 4 -46 4q-66 0 -98 -42.5t-32 -147.5v-98h171q15 0 26 -11t11 -26v-58q0 -16 -11 -26.5t-26 -10.5 h-171v-867q0 -15 -11 -26t-26 -11h-91q-16 0 -27 11t-11 26v867h-330v-867q0 -15 -11 -26t-26 -11h-91q-16 0 -27 11t-11 26v867h-115q-15 0 -26 10.5t-11 26.5v58q0 15 11 26t26 11h115v98q0 162 71.5 244t226.5 82q50 0 103 -10zM1241 1204q-50 0 -75 30t-25 98t25 98 t75 30t75 -30t25 -98t-25 -98t-75 -30zM1158 37v962q0 15 10.5 26t26.5 11h92q16 0 26.5 -11t10.5 -26v-962q0 -15 -10.5 -26t-26.5 -11h-92q-16 0 -26.5 11t-10.5 26z" />
<glyph unicode="&#xfb04;" horiz-adv-x="1440" d="M567 1450q34 -7 30 -40l-7 -64q-5 -39 -46 -29q-29 7 -64 7q-78 0 -113 -42t-35 -148v-98h330v98q0 326 280 326q45 0 85 -8q34 -7 30 -39l-7 -64q-4 -37 -46 -29q-20 4 -46 4q-66 0 -98 -42.5t-32 -147.5v-98h171q15 0 26 -11t11 -26v-58q0 -16 -11 -26.5t-26 -10.5 h-171v-867q0 -15 -11 -26t-26 -11h-91q-16 0 -27 11t-11 26v867h-330v-867q0 -15 -11 -26t-26 -11h-91q-16 0 -27 11t-11 26v867h-115q-15 0 -26 10.5t-11 26.5v58q0 15 11 26t26 11h115v98q0 162 71.5 244t226.5 82q50 0 103 -10zM1158 37v1386q0 15 10.5 26t26.5 11h92 q16 0 26.5 -11t10.5 -26v-1386q0 -15 -10.5 -26t-26.5 -11h-92q-16 0 -26.5 11t-10.5 26z" />
<glyph horiz-adv-x="666" />
<glyph horiz-adv-x="0" />
<glyph horiz-adv-x="0" />
<glyph unicode="&#xd;" horiz-adv-x="256" />
<glyph unicode=" "  horiz-adv-x="442" />
<glyph unicode="&#x09;" horiz-adv-x="442" />
<glyph unicode="&#xa0;" horiz-adv-x="442" />
<glyph unicode="!" horiz-adv-x="492" d="M268 338h-44q-14 0 -25 10.5t-12 24.5l-29 668v322q0 15 11 26t27 11h100q16 0 27 -11t11 -26v-322l-29 -668q-1 -14 -12 -24.5t-25 -10.5zM144 94q0 118 102 118t102 -118t-102 -118t-102 118z" />
<glyph unicode="&#x22;" horiz-adv-x="792" d="M185 893l-14 469q-1 16 9.5 27t28.5 11h102q16 0 26.5 -11t10.5 -26v-41l-26 -431q-1 -15 -11.5 -25t-25.5 -10h-63q-14 0 -25 11t-12 26zM459 893l-14 469q-1 16 9.5 27t28.5 11h102q16 0 26.5 -11t10.5 -26v-41l-26 -431q-1 -15 -11.5 -25t-25.5 -10h-63q-14 0 -25 11 t-12 26z" />
<glyph unicode="#" horiz-adv-x="1020" d="M939 904h-136l-52 -402h130q16 0 26.5 -11t10.5 -27v-72q0 -16 -10.5 -27t-26.5 -11h-149l-41 -321q-1 -13 -12.5 -23t-24.5 -10h-85q-18 0 -28.5 12.5t-8.5 29.5l40 312h-215l-41 -321q-1 -13 -12.5 -23t-24.5 -10h-85q-18 0 -28.5 12.5t-8.5 29.5l40 312h-116 q-15 0 -26 11t-11 27v72q0 16 11 27t26 11h135l52 402h-129q-15 0 -26 11t-11 27v72q0 16 11 27t26 11h148l41 315q1 13 12.5 23t24.5 10h85q18 0 28.5 -12.5t8.5 -29.5l-40 -306h215l41 315q1 13 12.5 23t24.5 10h85q18 0 28.5 -12.5t8.5 -29.5l-40 -306h117q16 0 26.5 -11 t10.5 -27v-72q0 -16 -10.5 -27t-26.5 -11zM428 904l-52 -402h215l52 402h-215z" />
<glyph unicode="$" horiz-adv-x="832" d="M360 -159v135h-6q-131 0 -246 46q-28 11 -26 39l7 81q2 22 17 31.5t37 -0.5q97 -47 217 -47v529q-150 65 -218 166t-68 243q0 140 75 233t211 118v148q0 15 10.5 26t26.5 11h46q15 0 26 -11t11 -26v-139q111 -5 200 -40q28 -11 26 -39l-5 -75q-2 -22 -17 -31t-37 0 q-73 33 -167 35v-489q149 -67 217.5 -167.5t68.5 -249.5q0 -156 -73.5 -253.5t-212.5 -126.5v-147q0 -15 -11 -26t-26 -11h-46q-16 0 -26.5 11t-10.5 26zM592 362q0 152 -112 232v-444q112 56 112 212zM250 1068q0 -74 26.5 -125.5t83.5 -92.5v402q-110 -49 -110 -184z" />
<glyph unicode="%" horiz-adv-x="1378" d="M1244 348q0 -174 -67.5 -269t-186.5 -95t-186.5 95t-67.5 269t67.5 269t186.5 95t186.5 -95t67.5 -269zM1084 348q0 124 -24 177t-70 53t-70 -53t-24 -177t24 -177t70 -53t70 53t24 177zM642 1050q0 -174 -67.5 -269t-186.5 -95t-186.5 95t-67.5 269t67.5 269t186.5 95 t186.5 -95t67.5 -269zM482 1050q0 124 -24 177t-70 53t-70 -53t-24 -177t24 -177t70 -53t70 53t24 177zM1084 1354l-659 -1331q-12 -23 -35 -23h-70q-22 0 -30 13t2 33l659 1331q12 23 35 23h70q22 0 30 -13t-2 -33z" />
<glyph unicode="&#x26;" horiz-adv-x="1010" d="M418 120q138 0 218 154l-272 356q-140 -111 -140 -280q0 -101 52 -165.5t142 -64.5zM398 852l8 -12q81 59 109.5 123t28.5 139q0 178 -124 178q-56 0 -87 -45.5t-31 -130.5q0 -60 21 -115.5t75 -136.5zM830 21l-88 115q-118 -158 -328 -158q-162 0 -261 98t-99 280 q0 238 216 396l-14 20q-67 96 -95.5 172t-28.5 162q0 149 78 233.5t212 84.5q135 0 213.5 -87t78.5 -239q0 -108 -47.5 -200t-168.5 -178l200 -262q23 110 28 275q1 15 11.5 26t25.5 11h88q15 0 26 -11.5t11 -26.5q-4 -269 -64 -440l182 -240q15 -20 6 -36t-35 -16h-101 q-30 0 -46 21z" />
<glyph unicode="'" horiz-adv-x="508" d="M179 875l-14 487q-1 16 9.5 27t28.5 11h102q16 0 26.5 -11t10.5 -26v-41l-26 -449q-1 -15 -11.5 -25t-25.5 -10h-63q-14 0 -25 11t-12 26z" />
<glyph unicode="(" horiz-adv-x="600" d="M174 620q0 230 66 455.5t176 399.5q16 25 46 25h54q24 0 31 -11.5t-4 -31.5q-211 -384 -211 -837t211 -837q11 -20 4 -31.5t-31 -11.5h-54q-30 0 -46 25q-110 174 -176 399.5t-66 455.5z" />
<glyph unicode=")" horiz-adv-x="600" d="M418 620q0 -230 -66 -455.5t-176 -399.5q-16 -25 -46 -25h-54q-24 0 -31 11.5t4 31.5q211 384 211 837t-211 837q-11 20 -4 31.5t31 11.5h54q30 0 46 -25q110 -174 176 -399.5t66 -455.5z" />
<glyph unicode="*" horiz-adv-x="1028" d="M552 228h-94q-16 0 -27 11.5t-10 27.5l13 274l-230 -148q-14 -9 -29 -5.5t-23 17.5l-47 82q-8 14 -3.5 28.5t18.5 22.5l242 124l-242 125q-14 7 -18.5 22.5t3.5 28.5l47 82q8 14 23 17.5t29 -5.5l230 -149l-13 276q-1 16 10 27.5t27 11.5h94q16 0 27 -11.5t10 -27.5 l-14 -274l231 148q14 9 29 5.5t23 -17.5l47 -82q8 -14 3.5 -28.5t-18.5 -22.5l-242 -125l242 -124q14 -7 18.5 -22.5t-3.5 -28.5l-47 -82q-8 -14 -23 -17.5t-29 5.5l-231 149l14 -276q1 -16 -10 -27.5t-27 -11.5z" />
<glyph unicode="+" horiz-adv-x="1060" d="M444 207v385h-332q-16 0 -27 11t-11 26v70q0 16 11 26.5t27 10.5h332v384q0 16 10.5 27t26.5 11h98q15 0 26 -11t11 -27v-384h333q15 0 26 -10.5t11 -26.5v-70q0 -15 -11 -26t-26 -11h-333v-385q0 -15 -11 -26t-26 -11h-98q-16 0 -26.5 11t-10.5 26z" />
<glyph unicode="," horiz-adv-x="456" d="M130 -195q64 78 64 175q-70 17 -70 114q0 118 102 118t102 -118q0 -116 -30.5 -201t-99.5 -153q-13 -12 -27 -12.5t-23 12.5l-20 30q-12 18 2 35z" />
<glyph unicode="-" horiz-adv-x="712" d="M580 584h-449q-15 0 -26 10.5t-11 26.5v86q0 15 11 26t26 11h449q16 0 27 -11t11 -26v-86q0 -16 -11 -26.5t-27 -10.5z" />
<glyph unicode="." horiz-adv-x="456" d="M126 94q0 118 102 118t102 -118t-102 -118t-102 118z" />
<glyph unicode="/" horiz-adv-x="750" d="M-10 -170l598 1642q4 10 14.5 17t20.5 7h90q21 0 30 -14t2 -36l-598 -1642q-4 -10 -14.5 -17t-20.5 -7h-90q-21 0 -30 14t-2 36z" />
<glyph unicode="0" horiz-adv-x="912" d="M456 1424q198 0 295 -176t97 -548t-97 -548t-295 -176t-295 176t-97 548t97 548t295 176zM456 126q74 0 120 51.5t71 179.5t25 343t-25 343t-71 179.5t-120 51.5t-120 -51.5t-71 -179.5t-25 -343t25 -343t71 -179.5t120 -51.5z" />
<glyph unicode="1" horiz-adv-x="912" d="M403 1182l-150 -147q-11 -11 -26.5 -10.5t-25.5 12.5l-43 53q-21 26 5 52l241 239q19 19 52 19h82q15 0 26 -11t11 -26v-1326q0 -15 -11 -26t-26 -11h-98q-16 0 -26.5 11t-10.5 26v1145z" />
<glyph unicode="2" horiz-adv-x="912" d="M165 1374q112 50 233 50q179 0 276.5 -98t97.5 -284q0 -81 -18.5 -164t-55 -164.5t-75 -152t-96.5 -151.5t-100 -135t-103 -129h413q15 0 26 -11t11 -26v-72q0 -15 -11 -26t-26 -11h-594q-15 0 -26 11t-11 26v67q0 31 21 55q469 536 469 875q0 113 -57 176.5t-157 63.5 q-101 0 -187 -42q-19 -10 -34.5 -2t-16.5 27l-5 76q-2 28 26 41z" />
<glyph unicode="3" horiz-adv-x="912" d="M158 175q92 -49 209 -49q110 0 168 66.5t58 175.5q0 130 -84.5 203.5t-241.5 84.5q-13 1 -23.5 12t-10.5 25v75q0 14 10 25t24 12q146 9 229 76.5t83 180.5q0 96 -50 154t-156 58q-107 0 -195 -44q-19 -10 -35.5 -3.5t-17.5 27.5l-6 79q-1 29 24 41q111 50 248 50 q178 0 271 -92.5t93 -249.5q0 -138 -66.5 -226.5t-187.5 -125.5q128 -37 198 -132.5t70 -231.5q0 -178 -104 -284t-298 -106q-138 0 -244 52q-25 12 -24 41l6 82q1 21 17.5 28t35.5 -4z" />
<glyph unicode="4" horiz-adv-x="912" d="M54 339v84q0 35 21 74l461 883q11 20 33 20h118q16 0 26.5 -11t10.5 -26v-913h89q16 0 26.5 -11t10.5 -27v-73q0 -16 -10.5 -26.5t-26.5 -10.5h-89v-265q0 -15 -10.5 -26t-26.5 -11h-98q-15 0 -26 11t-11 26v265h-461q-15 0 -26 10.5t-11 26.5zM552 1104l-336 -654h336 v654z" />
<glyph unicode="5" horiz-adv-x="912" d="M212 698q-19 -7 -33 3t-14 33v629q0 15 10.5 26t26.5 11h532q15 0 26 -11t11 -26v-74q0 -16 -11 -26.5t-26 -10.5h-397v-392q42 14 104 14q157 0 259.5 -117t102.5 -323q0 -214 -107 -336t-317 -122q-130 0 -226 41q-26 10 -24 37l6 81q1 22 17.5 30.5t35.5 -1.5 q79 -38 181 -38q118 0 188 78.5t70 229.5q0 138 -64 215t-192 77q-84 0 -159 -28z" />
<glyph unicode="6" horiz-adv-x="912" d="M470 762q-57 0 -113.5 -31t-96.5 -81q3 -524 226 -524q85 0 135.5 85.5t50.5 232.5q0 155 -53.5 236.5t-148.5 81.5zM713 1247q-76 27 -159 27q-58 0 -104 -22.5t-85.5 -72.5t-65.5 -139.5t-35 -215.5q95 88 228 88q162 0 259 -120.5t97 -345.5q0 -228 -97 -349 t-263 -121q-404 0 -404 696q0 199 33 345t96 234.5t147.5 130.5t193.5 42q98 0 187 -27q31 -9 29 -38l-6 -85q-2 -20 -15.5 -27t-35.5 0z" />
<glyph unicode="7" horiz-adv-x="912" d="M237 48l373 1204h-483q-16 0 -26.5 10.5t-10.5 26.5v74q0 15 10.5 26t26.5 11h625q16 0 27 -11t11 -26v-99q0 -28 -7 -50l-367 -1188q-3 -10 -14 -18t-22 -8h-107q-20 0 -31 14.5t-5 33.5z" />
<glyph unicode="8" horiz-adv-x="912" d="M800 1072q0 -100 -49.5 -188.5t-148.5 -149.5q117 -70 178.5 -155.5t61.5 -214.5q0 -181 -106.5 -284.5t-279.5 -103.5q-175 0 -281.5 103t-106.5 287q0 121 56.5 211t177.5 157q-89 61 -140.5 146t-51.5 188q0 162 92 259t252 97q156 0 251 -96t95 -256zM666 360 q0 101 -56 169t-168 127q-107 -56 -152.5 -128t-45.5 -166q0 -112 58.5 -174t153.5 -62q93 0 151.5 62.5t58.5 171.5zM286 1074q0 -91 47.5 -152.5t128.5 -109.5q88 51 125 114.5t37 149.5q0 91 -46 144.5t-124 53.5q-75 0 -121.5 -54.5t-46.5 -145.5z" />
<glyph unicode="9" horiz-adv-x="912" d="M442 638q57 0 113.5 31t96.5 81q-3 524 -226 524q-85 0 -135.5 -85.5t-50.5 -232.5q0 -155 53.5 -236.5t148.5 -81.5zM199 153q76 -27 159 -27q58 0 104 22.5t85.5 72.5t65.5 139.5t35 215.5q-95 -88 -228 -88q-162 0 -259 120.5t-97 345.5q0 228 97 349t263 121 q404 0 404 -696q0 -199 -33 -345t-96 -234.5t-147.5 -130.5t-193.5 -42q-98 0 -187 27q-31 9 -29 38l6 85q2 20 15.5 27t35.5 0z" />
<glyph unicode=":" horiz-adv-x="456" d="M126 94q0 118 102 118t102 -118t-102 -118t-102 118zM126 942q0 118 102 118t102 -118t-102 -118t-102 118z" />
<glyph unicode=";" horiz-adv-x="412" d="M102 942q0 118 102 118t102 -118t-102 -118t-102 118zM108 -195q64 78 64 175q-70 17 -70 114q0 118 102 118t102 -118q0 -116 -30.5 -201t-99.5 -153q-13 -12 -27 -12.5t-23 12.5l-20 30q-12 18 2 35z" />
<glyph unicode="&#x3c;" horiz-adv-x="1060" d="M74 618v92q0 26 21 36l837 406q20 10 37 0.5t17 -33.5v-80q0 -24 -24 -35l-708 -340l708 -340q24 -11 24 -35v-80q0 -24 -17 -33.5t-37 0.5l-837 406q-21 10 -21 36z" />
<glyph unicode="=" horiz-adv-x="1060" d="M949 826h-837q-16 0 -27 11t-11 26v70q0 15 11 26t27 11h837q15 0 26 -11t11 -26v-70q0 -15 -11 -26t-26 -11zM949 360h-837q-16 0 -27 11t-11 26v70q0 16 11 26.5t27 10.5h837q15 0 26 -10.5t11 -26.5v-70q0 -15 -11 -26t-26 -11z" />
<glyph unicode="&#x3e;" horiz-adv-x="1060" d="M986 710v-92q0 -26 -21 -36l-837 -406q-20 -10 -37 -0.5t-17 33.5v80q0 24 24 35l708 340l-708 340q-24 11 -24 35v80q0 24 17 33.5t37 -0.5l837 -406q21 -10 21 -36z" />
<glyph unicode="?" horiz-adv-x="830" d="M435 406v-13q0 -16 -11 -26.5t-26 -10.5h-98q-16 0 -26.5 10.5t-10.5 26.5v19q0 133 34 227t114 171q72 69 100 131.5t28 138.5q0 92 -54.5 143t-157.5 51q-101 0 -191 -46q-19 -10 -36.5 -3.5t-18.5 28.5l-6 78q-2 30 25 41q118 52 241 52q178 0 275 -93.5t97 -252.5 q0 -102 -45 -194t-141 -190q-51 -53 -71.5 -118.5t-20.5 -169.5zM247 94q0 118 102 118t102 -118t-102 -118t-102 118z" />
<glyph unicode="@" horiz-adv-x="1454" d="M1051 844q18 -29 12 -64l-57 -398q1 -72 26.5 -118t63.5 -46q65 0 106.5 107t41.5 263q0 325 -142 510.5t-382 185.5q-227 0 -368.5 -196t-141.5 -540q0 -171 40.5 -310.5t112 -231t169 -141t210.5 -49.5q185 0 323 90q16 12 32.5 8t22.5 -22l23 -65q11 -32 -18 -50 q-154 -101 -383 -101q-148 0 -273 60.5t-214.5 171.5t-140 275.5t-50.5 364.5q0 203 49.5 369t137.5 276.5t208 170.5t261 60q146 0 268.5 -56.5t211 -161.5t138.5 -263.5t50 -354.5q0 -142 -34 -252.5t-102.5 -175t-163.5 -64.5q-70 0 -118 40.5t-66 111.5 q-103 -142 -270 -142q-126 0 -199 94t-73 250q0 121 34.5 225t92 173t131.5 107.5t154 38.5q181 0 277 -150zM648 242q130 0 210 152l48 400q-46 68 -136 68q-101 0 -175.5 -116.5t-74.5 -287.5q0 -216 128 -216z" />
<glyph unicode="A" horiz-adv-x="992" d="M492 1224l-178 -712h356zM613 1368l355 -1331q5 -17 -4 -27t-28 -10h-109q-30 0 -36 27l-85 339h-428l-85 -339q-6 -27 -36 -27h-109q-19 0 -28 10t-4 27l355 1331q8 32 38 32h166q30 0 38 -32z" />
<glyph unicode="B" horiz-adv-x="978" d="M516 0h-343q-15 0 -26 11t-11 27v1324q0 16 11 27t26 11h329q174 0 268 -98.5t94 -271.5q0 -100 -40.5 -175.5t-115.5 -114.5q99 -40 152.5 -130t53.5 -208q0 -198 -102 -300t-296 -102zM308 148h190q120 0 181 64.5t61 187.5q0 131 -64 190.5t-194 59.5h-174v-502z M690 1024q0 109 -54.5 168.5t-153.5 59.5h-174v-454h150q117 0 174.5 51.5t57.5 174.5z" />
<glyph unicode="C" horiz-adv-x="926" d="M823 154q19 8 33.5 0.5t15.5 -26.5l6 -80q2 -27 -25 -38q-85 -34 -209 -34q-273 0 -426.5 196.5t-153.5 527.5q0 218 66.5 381t196.5 253t309 90q119 0 207 -35q27 -11 25 -38l-6 -80q-1 -18 -16 -26t-34 -1q-81 30 -168 30q-189 0 -296.5 -151.5t-107.5 -422.5 q0 -272 109.5 -423t298.5 -151q102 0 175 28z" />
<glyph unicode="D" horiz-adv-x="1052" d="M812 700q0 292 -90.5 422t-295.5 130h-118v-1104h118q205 0 295.5 130t90.5 422zM173 1400h255q280 0 420 -170.5t140 -529.5t-140 -529.5t-420 -170.5h-255q-15 0 -26 11t-11 27v1324q0 16 11 27t26 11z" />
<glyph unicode="E" horiz-adv-x="892" d="M136 38v1324q0 16 11 27t27 11h600q16 0 27 -11t11 -27v-72q0 -16 -11 -27t-27 -11h-466v-458h430q16 0 27 -11t11 -27v-72q0 -16 -11 -27t-27 -11h-430v-498h480q16 0 27 -11t11 -27v-72q0 -16 -11 -27t-27 -11h-614q-16 0 -27 11t-11 27z" />
<glyph unicode="F" horiz-adv-x="838" d="M136 38v1324q0 16 11 27t27 11h600q16 0 27 -11t11 -27v-72q0 -16 -11 -27t-27 -11h-466v-454h430q16 0 27 -11t11 -26v-73q0 -16 -11 -27t-27 -11h-430v-612q0 -16 -11 -27t-26 -11h-97q-16 0 -27 11t-11 27z" />
<glyph unicode="G" horiz-adv-x="1088" d="M944 37q-116 -61 -300 -61q-266 0 -423 191t-157 533q0 337 155.5 530.5t424.5 193.5q166 0 276 -58q30 -15 28 -41l-6 -76q-1 -22 -18 -30t-37 3q-100 52 -239 52q-191 0 -299.5 -151.5t-108.5 -422.5q0 -270 108.5 -422t301.5 -152q106 0 156 28v464h-254q-16 0 -27 11 t-11 26v72q0 15 11 26t27 11h382q16 0 27 -11t11 -26v-640q0 -35 -28 -50z" />
<glyph unicode="H" horiz-adv-x="1108" d="M136 38v1324q0 16 11 27t27 11h96q16 0 27 -11t11 -27v-542h492v542q0 16 11 27t27 11h96q16 0 27 -11t11 -27v-1324q0 -16 -11 -27t-27 -11h-96q-16 0 -27 11t-11 27v634h-492v-634q0 -16 -11 -27t-27 -11h-96q-16 0 -27 11t-11 27z" />
<glyph unicode="I" horiz-adv-x="460" d="M182 1400h96q16 0 27 -11t11 -27v-1324q0 -16 -11 -27t-27 -11h-96q-16 0 -27 11t-11 27v1324q0 16 11 27t27 11z" />
<glyph unicode="J" horiz-adv-x="710" d="M38 7q-28 11 -26 42l7 74q1 19 15.5 27.5t34.5 0.5q63 -25 142 -25q107 0 148.5 71t41.5 263v902q0 16 11 27t27 11h96q16 0 27 -11t11 -27v-904q0 -264 -78.5 -373t-273.5 -109q-99 0 -183 31z" />
<glyph unicode="K" horiz-adv-x="938" d="M308 764l379 612q15 24 43 24h100q27 0 35.5 -16t-4.5 -35l-379 -605l443 -693q13 -19 4.5 -35t-35.5 -16h-110q-28 0 -43 24l-433 694v-680q0 -16 -11 -27t-27 -11h-96q-16 0 -27 11t-11 27v1324q0 16 11 27t27 11h96q16 0 27 -11t11 -27v-598z" />
<glyph unicode="L" horiz-adv-x="874" d="M136 38v1324q0 16 11 27t26 11h97q16 0 27 -11t11 -27v-1216h508q16 0 27 -11t11 -27v-70q0 -16 -11 -27t-27 -11h-643q-15 0 -26 11t-11 27z" />
<glyph unicode="M" horiz-adv-x="1316" d="M729 470h-142q-30 0 -39 29l-246 719v-1180q0 -16 -11 -27t-27 -11h-90q-16 0 -27 11t-11 27v1324q0 16 11 27t27 11h199q28 0 37 -28l248 -712l248 712q9 28 37 28h199q16 0 27 -11t11 -27v-1324q0 -16 -11 -27t-27 -11h-90q-16 0 -27 11t-11 27v1180l-246 -719 q-9 -29 -39 -29z" />
<glyph unicode="N" horiz-adv-x="1114" d="M721 29l-419 1135v-1126q0 -16 -12 -27t-28 -11h-88q-15 0 -26.5 11t-11.5 27v1324q0 16 11.5 27t26.5 11h177q32 0 42 -29l419 -1135v1126q0 16 12 27t28 11h88q15 0 26.5 -11t11.5 -27v-1324q0 -16 -11.5 -27t-26.5 -11h-177q-32 0 -42 29z" />
<glyph unicode="O" horiz-adv-x="1084" d="M844 700q0 574 -302 574t-302 -574t302 -574t302 574zM1020 700q0 -348 -122.5 -536t-355.5 -188t-355.5 188t-122.5 536t122.5 536t355.5 188t355.5 -188t122.5 -536z" />
<glyph unicode="P" horiz-adv-x="938" d="M308 528v-490q0 -16 -11 -27t-26 -11h-97q-16 0 -27 11t-11 27v1324q0 16 11 27t27 11h290q189 0 299.5 -112.5t110.5 -323.5t-110.5 -323.5t-299.5 -112.5h-156zM700 964q0 288 -246 288h-146v-578h146q120 0 183 72.5t63 217.5z" />
<glyph unicode="Q" horiz-adv-x="1084" d="M907 -167q41 10 46 -29l7 -58q4 -34 -29 -42q-62 -16 -131 -16q-286 0 -326 292q-200 27 -305 212.5t-105 507.5q0 348 122.5 536t355.5 188t355.5 -188t122.5 -536q0 -313 -99 -497.5t-289 -218.5q12 -164 176 -164q49 0 99 13zM844 700q0 574 -302 574t-302 -574 t302 -574t302 574z" />
<glyph unicode="R" horiz-adv-x="966" d="M308 1252v-524h176q230 0 230 262t-230 262h-176zM666 610l264 -556q11 -23 1 -38.5t-35 -15.5h-96q-27 0 -38 25l-258 555h-196v-542q0 -16 -11 -27t-27 -11h-96q-16 0 -27 11t-11 27v1324q0 16 11 27t27 11h320q183 0 289.5 -107.5t106.5 -302.5q0 -143 -58.5 -240 t-165.5 -140z" />
<glyph unicode="S" horiz-adv-x="832" d="M143 173q97 -47 215 -47q113 0 173.5 61t60.5 175q0 105 -50 172.5t-164 113.5q-160 64 -232 167t-72 249q0 166 103 263t283 97q119 0 220 -40q28 -11 26 -39l-5 -75q-2 -22 -17 -31t-37 0q-74 35 -171 35q-108 0 -167 -54.5t-59 -151.5q0 -103 53 -165t175 -117 q151 -67 219.5 -168t68.5 -250q0 -189 -106.5 -290.5t-305.5 -101.5q-131 0 -246 46q-28 11 -26 39l7 81q2 22 17 31.5t37 -0.5z" />
<glyph unicode="T" horiz-adv-x="822" d="M324 38v1214h-276q-16 0 -27 11t-11 27v72q0 16 11 27t27 11h726q16 0 27 -11t11 -27v-72q0 -16 -11 -27t-27 -11h-278v-1214q0 -16 -11 -27t-27 -11h-96q-16 0 -27 11t-11 27z" />
<glyph unicode="U" horiz-adv-x="1128" d="M564 -24q-428 0 -428 510v876q0 16 11 27t27 11h96q16 0 27 -11t11 -27v-878q0 -186 63.5 -272t192.5 -86t192.5 86t63.5 272v878q0 16 11 27t27 11h96q16 0 27 -11t11 -27v-876q0 -510 -428 -510z" />
<glyph unicode="V" horiz-adv-x="1020" d="M207 1373l299 -1197l299 1197q6 27 36 27h106q21 0 30.5 -10t4.5 -27l-355 -1331q-8 -32 -38 -32h-166q-30 0 -38 32l-355 1331q-5 17 4.5 27t30.5 10h106q30 0 36 -27z" />
<glyph unicode="W" horiz-adv-x="1484" d="M669 1400h138q15 0 26.5 -10t13.5 -24l203 -1190l222 1190q6 34 39 34h99q21 0 31 -12.5t6 -31.5l-266 -1321q-7 -35 -37 -35h-182q-37 0 -43 35l-181 1099l-181 -1099q-6 -35 -43 -35h-182q-30 0 -37 35l-266 1321q-4 19 6 31.5t31 12.5h99q33 0 39 -34l222 -1190 l203 1190q2 14 13.5 24t26.5 10z" />
<glyph unicode="X" horiz-adv-x="992" d="M774 21l-290 535l-290 -535q-11 -21 -37 -21h-91q-29 0 -38 15t4 40l358 653l-348 637q-13 25 -4 40t38 15h90q26 0 37 -21l281 -517l281 517q11 21 37 21h90q29 0 38 -15t-4 -40l-348 -637l358 -653q13 -25 4 -40t-38 -15h-91q-26 0 -37 21z" />
<glyph unicode="Y" horiz-adv-x="1008" d="M540 0h-96q-16 0 -27 11t-11 27v516l-370 795q-9 20 -0.5 35.5t30.5 15.5h101q25 0 35 -23l290 -643l290 643q10 23 35 23h101q22 0 30.5 -15.5t-0.5 -35.5l-370 -795v-516q0 -16 -11 -27t-27 -11z" />
<glyph unicode="Z" horiz-adv-x="862" d="M780 0h-698q-16 0 -27 11t-11 27v83q0 32 13 57l551 1074h-504q-16 0 -27 11t-11 27v72q0 16 11 27t27 11h660q16 0 27 -11t11 -27v-83q0 -32 -13 -57l-551 -1076h542q16 0 27 -11t11 -27v-70q0 -16 -11 -27t-27 -11z" />
<glyph unicode="[" horiz-adv-x="684" d="M204 -223v1686q0 15 11 26t26 11h361q16 0 27 -11t11 -26v-74q0 -15 -11 -26t-27 -11h-232v-1464h232q16 0 27 -11t11 -26v-74q0 -15 -11 -26t-27 -11h-361q-15 0 -26 11t-11 26z" />
<glyph unicode="\" horiz-adv-x="750" d="M147 1472l598 -1642q7 -22 -2 -36t-30 -14h-90q-10 0 -20.5 7t-14.5 17l-598 1642q-7 22 2 36t30 14h90q10 0 20.5 -7t14.5 -17z" />
<glyph unicode="]" horiz-adv-x="684" d="M480 1463v-1686q0 -15 -11 -26t-26 -11h-361q-16 0 -27 11t-11 26v74q0 15 11 26t27 11h232v1464h-232q-16 0 -27 11t-11 26v74q0 15 11 26t27 11h361q15 0 26 -11t11 -26z" />
<glyph unicode="^" horiz-adv-x="1060" d="M436 1400h160q25 0 35 -20l329 -591q11 -19 2 -35t-32 -16h-104q-31 0 -45 27l-265 487l-265 -487q-14 -27 -45 -27h-104q-23 0 -32 16t2 35l329 591q10 20 35 20z" />
<glyph unicode="_" horiz-adv-x="770" d="M0 -301v58q0 16 11 26.5t26 10.5h696q15 0 26 -10.5t11 -26.5v-58q0 -15 -11 -26t-26 -11h-696q-15 0 -26 11t-11 26z" />
<glyph unicode="`" horiz-adv-x="660" d="M317 1434l160 -259q11 -17 4.5 -28t-27.5 -11h-64q-39 0 -60 27l-197 254q-12 15 -8 29t25 14h118q33 0 49 -26z" />
<glyph unicode="a" horiz-adv-x="828" d="M384 110q119 0 180 96v302h-148q-204 0 -204 -204q0 -95 46 -144.5t126 -49.5zM180 881q-19 -9 -35 -3t-17 26l-5 63q-3 28 23 40q116 53 248 53q170 0 253 -82t83 -250v-691q0 -15 -11 -26t-26 -11h-92q-16 0 -26.5 11t-10.5 26v37q-76 -98 -222 -98q-129 0 -213.5 85.5 t-84.5 242.5q0 161 96.5 248.5t269.5 87.5h154v82q0 113 -42.5 157.5t-139.5 44.5q-105 0 -202 -43z" />
<glyph unicode="b" d="M270 74v-37q0 -15 -11 -26t-26 -11h-91q-16 0 -27 11t-11 26v1386q0 15 11 26t27 11h91q15 0 26 -11t11 -26v-461q82 98 210 98q162 0 254 -139t92 -403t-92 -403t-254 -139q-128 0 -210 98zM658 518q0 406 -220 406q-51 0 -95 -25t-73 -69v-624q29 -44 73 -69t95 -25 q220 0 220 406z" />
<glyph unicode="c" horiz-adv-x="750" d="M648 134q19 8 33.5 2t15.5 -26l6 -65q3 -27 -26 -40q-69 -29 -167 -29q-216 0 -336 140.5t-120 401.5q0 259 120 400.5t326 141.5q88 0 169 -30q29 -10 26 -40l-6 -63q-2 -19 -16 -25.5t-33 1.5q-60 21 -126 21q-137 0 -214.5 -104t-77.5 -302q0 -206 79.5 -306 t224.5 -100q70 0 122 22z" />
<glyph unicode="d" d="M610 37v37q-82 -98 -210 -98q-162 0 -254 139t-92 403t92 403t254 139q128 0 210 -98v461q0 15 11 26t26 11h91q16 0 27 -11t11 -26v-1386q0 -15 -11 -26t-27 -11h-91q-15 0 -26 11t-11 26zM222 518q0 -406 220 -406q51 0 95 25t73 69v624q-29 44 -73 69t-95 25 q-220 0 -220 -406z" />
<glyph unicode="e" horiz-adv-x="828" d="M658 143q21 11 37 4.5t18 -28.5l7 -67q3 -26 -22 -37q-87 -39 -210 -39q-207 0 -320.5 141t-113.5 405q0 265 95 401.5t269 136.5q176 0 270 -135.5t94 -398.5q0 -22 -2 -34q-6 -36 -43 -36h-511q12 -344 274 -344q90 0 158 31zM224 588h386q-3 336 -192 336 q-188 0 -194 -336z" />
<glyph unicode="f" horiz-adv-x="546" d="M508 1320q-20 4 -46 4q-66 0 -98 -42.5t-32 -147.5v-98h171q15 0 26 -11t11 -26v-58q0 -16 -11 -26.5t-26 -10.5h-171v-867q0 -15 -11 -26t-26 -11h-91q-16 0 -27 11t-11 26v867h-115q-15 0 -26 10.5t-11 26.5v58q0 15 11 26t26 11h115v98q0 326 280 326q45 0 85 -8 q34 -7 30 -39l-7 -64q-4 -37 -46 -29z" />
<glyph unicode="g" d="M222 518q0 -406 220 -406q51 0 95 25t73 69v624q-29 44 -73 69t-95 25q-220 0 -220 -406zM212 -219q78 -35 174 -35q117 0 170.5 63.5t53.5 204.5v60q-82 -98 -210 -98q-162 0 -254 139t-92 403t92 403t254 139q128 0 210 -98v37q0 15 11 26t26 11h92q15 0 26 -11t11 -26 v-969q0 -226 -92 -328t-294 -102q-116 0 -203 33q-31 12 -30 44l5 79q1 21 16 27.5t34 -2.5z" />
<glyph unicode="h" horiz-adv-x="890" d="M630 37v625q0 142 -42.5 202t-131.5 60q-58 0 -107 -24.5t-79 -69.5v-793q0 -15 -10.5 -26t-26.5 -11h-92q-15 0 -26 11t-11 26v1386q0 15 11 26t26 11h92q16 0 26.5 -11t10.5 -26v-461q85 98 226 98q143 0 221.5 -99.5t78.5 -298.5v-625q0 -15 -11 -26t-27 -11h-91 q-15 0 -26 11t-11 26z" />
<glyph unicode="i" horiz-adv-x="396" d="M198 1204q-50 0 -75 30t-25 98t25 98t75 30t75 -30t25 -98t-25 -98t-75 -30zM115 37v962q0 15 10.5 26t26.5 11h92q16 0 26.5 -11t10.5 -26v-962q0 -15 -10.5 -26t-26.5 -11h-92q-16 0 -26.5 11t-10.5 26z" />
<glyph unicode="j" horiz-adv-x="366" d="M175 1204q-50 0 -75 30t-25 98t25 98t75 30t75 -30t25 -98t-25 -98t-75 -30zM-63 -260q23 -6 48 -6q55 0 81.5 35t26.5 117v1113q0 15 10.5 26t26.5 11h92q16 0 26.5 -11t10.5 -26v-1091q0 -162 -59 -235t-191 -73q-48 0 -95 11q-31 8 -28 41l5 59q1 19 13.5 26.5 t32.5 2.5z" />
<glyph unicode="k" horiz-adv-x="786" d="M582 26l-312 518v-507q0 -15 -11 -26t-27 -11h-91q-15 0 -26 11t-11 26v1386q0 15 11 26t26 11h91q16 0 27 -11t11 -26v-817l280 404q17 26 48 26h94q27 0 35 -15t-8 -37l-291 -408l326 -524q14 -22 7 -37t-34 -15h-97q-32 0 -48 26z" />
<glyph unicode="l" horiz-adv-x="398" d="M116 37v1386q0 15 10.5 26t26.5 11h92q16 0 26.5 -11t10.5 -26v-1386q0 -15 -10.5 -26t-26.5 -11h-92q-16 0 -26.5 11t-10.5 26z" />
<glyph unicode="m" horiz-adv-x="1328" d="M1066 37v645q0 135 -37.5 188.5t-110.5 53.5q-51 0 -99.5 -29t-78.5 -77q12 -53 12 -134v-647q0 -15 -11 -26t-26 -11h-92q-15 0 -26 11t-11 26v645q0 135 -37.5 188.5t-110.5 53.5q-49 0 -95 -26t-73 -70v-791q0 -15 -10.5 -26t-26.5 -11h-92q-16 0 -26.5 11t-10.5 26 v962q0 15 10.5 26t26.5 11h92q16 0 26.5 -11t10.5 -26v-43q82 104 214 104q153 0 222 -134q99 134 250 134q62 0 110 -20.5t79 -54.5t51 -83t28 -102.5t8 -115.5v-647q0 -15 -10.5 -26t-26.5 -11h-92q-15 0 -26 11t-11 26z" />
<glyph unicode="n" horiz-adv-x="890" d="M630 37v625q0 142 -42.5 202t-131.5 60q-58 0 -107 -24.5t-79 -69.5v-793q0 -15 -10.5 -26t-26.5 -11h-92q-15 0 -26 11t-11 26v962q0 15 11 26t26 11h92q16 0 26.5 -11t10.5 -26v-37q85 98 226 98q143 0 221.5 -99.5t78.5 -298.5v-625q0 -15 -11 -26t-27 -11h-91 q-15 0 -26 11t-11 26z" />
<glyph unicode="o" d="M440 1060q179 0 282.5 -136.5t103.5 -405.5t-103.5 -405.5t-282.5 -136.5t-282.5 136.5t-103.5 405.5t103.5 405.5t282.5 136.5zM440 112q101 0 159.5 99t58.5 307t-58.5 307t-159.5 99t-159.5 -99t-58.5 -307t58.5 -307t159.5 -99z" />
<glyph unicode="p" d="M270 999v-37q82 98 210 98q162 0 254 -139t92 -403t-92 -403t-254 -139q-128 0 -210 98v-423q0 -15 -11 -26t-26 -11h-91q-16 0 -27 11t-11 26v1348q0 15 11 26t27 11h91q15 0 26 -11t11 -26zM658 518q0 406 -220 406q-51 0 -95 -25t-73 -69v-624q29 -44 73 -69t95 -25 q220 0 220 406z" />
<glyph unicode="q" d="M610 962v37q0 15 11 26t26 11h91q16 0 27 -11t11 -26v-1348q0 -15 -11 -26t-27 -11h-91q-15 0 -26 11t-11 26v423q-82 -98 -210 -98q-162 0 -254 139t-92 403t92 403t254 139q128 0 210 -98zM222 518q0 -406 220 -406q51 0 95 25t73 69v624q-29 44 -73 69t-95 25 q-220 0 -220 -406z" />
<glyph unicode="r" horiz-adv-x="576" d="M525 915q-21 3 -43 3q-77 0 -132.5 -51.5t-79.5 -148.5v-681q0 -15 -11 -26t-26 -11h-92q-15 0 -26 11t-11 26v962q0 15 11 26t26 11h92q15 0 26 -11t11 -26v-73q31 60 88 97t126 37q32 0 60 -6q34 -6 29 -43l-7 -66q-3 -36 -41 -30z" />
<glyph unicode="s" horiz-adv-x="712" d="M93 20q-29 13 -27 42l4 69q1 19 16.5 26.5t32.5 -1.5q88 -44 185 -44q85 0 130.5 39t45.5 113q0 75 -42 122t-148 96q-222 102 -222 292q0 139 86 212.5t232 73.5q106 0 192 -30q30 -10 27 -42l-5 -62q-1 -19 -16 -26t-33 0q-66 24 -145 24t-124.5 -37.5t-45.5 -102.5 q0 -62 40 -106t152 -96q220 -101 220 -308q0 -146 -86 -222t-246 -76q-131 0 -223 44z" />
<glyph unicode="t" horiz-adv-x="598" d="M496 118q41 9 44 -24l7 -68q3 -33 -32 -41q-45 -9 -93 -9q-138 0 -204 78.5t-66 255.5v594h-95q-16 0 -26.5 10.5t-10.5 26.5v58q0 15 12 26t28 11h92v273q0 15 10.5 26t26.5 11h92q15 0 26 -11t11 -26v-273h199q15 0 26 -11t11 -26v-58q0 -16 -11 -26.5t-26 -10.5h-199 v-606q0 -103 28.5 -144.5t93.5 -41.5q30 0 56 6z" />
<glyph unicode="u" horiz-adv-x="890" d="M260 999v-625q0 -142 42.5 -202t131.5 -60q58 0 107 24.5t79 69.5v793q0 15 10.5 26t26.5 11h92q15 0 26 -11t11 -26v-962q0 -15 -11 -26t-26 -11h-92q-16 0 -26.5 11t-10.5 26v37q-85 -98 -226 -98q-143 0 -221.5 99.5t-78.5 298.5v625q0 15 11 26t27 11h91q15 0 26 -11 t11 -26z" />
<glyph unicode="v" horiz-adv-x="794" d="M476 0h-168q-28 0 -36 29l-251 962q-5 20 5.5 32.5t30.5 12.5h93q33 0 41 -34l201 -820l201 820q8 34 41 34h93q20 0 30.5 -12.5t5.5 -32.5l-251 -962q-8 -29 -36 -29z" />
<glyph unicode="w" horiz-adv-x="1204" d="M531 1036h132q14 0 24.5 -9t12.5 -23l149 -820l160 821q7 31 36 31h93q19 0 30 -13t7 -32l-211 -959q-2 -13 -13 -22.5t-26 -9.5h-146q-37 0 -43 38l-139 774l-139 -774q-6 -38 -43 -38h-146q-15 0 -26 9.5t-13 22.5l-211 959q-4 19 7 32t30 13h93q29 0 36 -31l160 -821 l149 820q2 14 12.5 23t24.5 9z" />
<glyph unicode="x" horiz-adv-x="764" d="M560 24l-190 368l-190 -368q-13 -24 -40 -24h-94q-24 0 -31.5 15t4.5 38l249 481l-231 449q-12 23 -4.5 38t31.5 15h94q27 0 40 -24l172 -336l172 336q13 24 40 24h94q24 0 31.5 -15t-4.5 -38l-231 -449l249 -481q12 -23 4.5 -38t-31.5 -15h-94q-27 0 -40 24z" />
<glyph unicode="y" horiz-adv-x="814" d="M220 -342l99 342l-298 989q-5 19 4.5 33t30.5 14h91q33 0 41 -31l213 -759l212 762q3 12 13.5 20t23.5 8h95q19 0 29 -14t5 -33l-392 -1348q-8 -27 -36 -27h-93q-25 0 -34.5 12t-3.5 32z" />
<glyph unicode="z" horiz-adv-x="718" d="M646 0h-575q-15 0 -26 11t-11 26v71q0 31 19 62l433 734h-395q-15 0 -26 10.5t-11 26.5v58q0 15 11 26t26 11h542q15 0 26 -11t11 -26v-71q0 -31 -19 -62l-433 -734h428q16 0 27 -10.5t11 -26.5v-58q0 -15 -11 -26t-27 -11z" />
<glyph unicode="{" horiz-adv-x="700" d="M134 578v84q0 28 33 36q47 13 71 50.5t24 113.5v406q0 116 55.5 174t154.5 58h147q15 0 26 -11t11 -26v-74q0 -15 -11 -26t-26 -11h-137q-54 0 -54 -66v-460q0 -173 -144 -206q144 -33 144 -206v-460q0 -66 54 -66h137q15 0 26 -11t11 -26v-74q0 -15 -11 -26t-26 -11 h-147q-99 0 -154.5 58t-55.5 174v406q0 76 -24 113.5t-71 50.5q-33 8 -33 36z" />
<glyph unicode="|" horiz-adv-x="508" d="M186 -363v1864q0 15 10.5 26t26.5 11h62q16 0 26.5 -11t10.5 -26v-1864q0 -15 -10.5 -26t-26.5 -11h-62q-16 0 -26.5 11t-10.5 26z" />
<glyph unicode="}" horiz-adv-x="700" d="M566 662v-84q0 -28 -33 -36q-47 -13 -71 -50.5t-24 -113.5v-406q0 -116 -55.5 -174t-154.5 -58h-147q-15 0 -26 11t-11 26v74q0 15 11 26t26 11h137q54 0 54 66v460q0 173 144 206q-144 33 -144 206v460q0 66 -54 66h-137q-15 0 -26 11t-11 26v74q0 15 11 26t26 11h147 q99 0 154.5 -58t55.5 -174v-406q0 -76 24 -113.5t71 -50.5q33 -8 33 -36z" />
<glyph unicode="~" horiz-adv-x="1060" d="M724 502q-124 0 -228 96q-87 82 -154 82q-52 0 -74.5 -29.5t-26.5 -109.5q-1 -15 -12 -25t-25 -10h-92q-16 0 -27 11.5t-10 27.5q14 283 261 283q124 0 228 -96q87 -82 154 -82q52 0 74.5 29.5t26.5 109.5q1 15 12 25t25 10h92q16 0 27 -11.5t10 -27.5 q-14 -283 -261 -283z" />
<glyph unicode="&#xa1;" horiz-adv-x="492" d="M224 696h44q14 0 25 -10.5t12 -24.5l29 -668v-322q0 -15 -11 -26t-27 -11h-100q-16 0 -27 11t-11 26v322l29 668q1 14 12 24.5t25 10.5zM144 940q0 118 102 118t102 -118t-102 -118t-102 118z" />
<glyph unicode="&#xa2;" horiz-adv-x="750" d="M426 1055v140q0 15 11 26t26 11h46q15 0 26 -11t11 -26v-138q67 -6 123 -27q29 -10 26 -40l-6 -63q-2 -19 -16 -25.5t-33 1.5q-49 16 -94 20v-811q60 4 102 22q19 8 33.5 2t15.5 -26l6 -65q3 -27 -26 -40q-56 -23 -131 -28v-136q0 -15 -11 -26t-26 -11h-46q-15 0 -26 11 t-11 26v141q-178 26 -275 164t-97 372t99 373t273 164zM222 518q0 -330 204 -392v785q-97 -30 -150.5 -129.5t-53.5 -263.5z" />
<glyph unicode="&#xa3;" horiz-adv-x="882" d="M752 1384q29 -12 28 -43l-5 -80q-1 -20 -15.5 -26.5t-33.5 2.5q-80 37 -184 37q-202 0 -202 -246v-254h276q16 0 27 -10.5t11 -26.5v-35q0 -16 -11 -27t-27 -11h-276v-172q0 -224 -104 -346h573q15 0 26 -11t11 -26v-72q0 -15 -11 -26t-26 -11h-718q-16 0 -26.5 11 t-10.5 26v89q0 29 18 48q96 108 96 302v188h-77q-16 0 -26.5 11t-10.5 27v35q0 16 10.5 26.5t26.5 10.5h77v254q0 195 91 295.5t263 100.5q128 0 230 -40z" />
<glyph unicode="&#xa4;" horiz-adv-x="1372" d="M229 664q0 130 70 238l-149 151q-10 12 -9.5 26.5t10.5 25.5l71 74q11 12 27 11.5t27 -11.5l149 -151q114 76 250 76q134 0 250 -76l149 151q11 11 27 11.5t27 -11.5l71 -74q10 -11 10.5 -25.5t-9.5 -26.5l-149 -151q70 -108 70 -238q0 -131 -70 -238l149 -151 q10 -12 9.5 -26.5t-10.5 -25.5l-71 -74q-11 -12 -27 -11.5t-27 11.5l-149 150q-114 -75 -250 -75q-137 0 -250 75l-149 -150q-11 -11 -27 -11.5t-27 11.5l-71 74q-10 11 -10.5 25.5t9.5 26.5l149 151q-70 107 -70 238zM399 664q0 -123 78 -203.5t198 -80.5t198 80.5 t78 203.5t-78 203.5t-198 80.5t-198 -80.5t-78 -203.5z" />
<glyph unicode="&#xa5;" horiz-adv-x="908" d="M494 0h-96q-16 0 -27 11t-11 26v283h-257q-15 0 -26 11t-11 26v36q0 15 11 26t26 11h257v130h-257q-15 0 -26 11t-11 27v35q0 16 11 26.5t26 10.5h211l-279 683q-8 19 1 33t30 14h92q29 0 41 -28l247 -636l247 636q12 28 41 28h92q21 0 30 -14t1 -33l-279 -683h211 q15 0 26 -10.5t11 -26.5v-35q0 -16 -11 -27t-26 -11h-257v-130h257q15 0 26 -11t11 -26v-36q0 -15 -11 -26t-26 -11h-257v-283q0 -15 -11 -26t-27 -11z" />
<glyph unicode="&#xa6;" horiz-adv-x="508" d="M186 766v572q0 16 10.5 27t26.5 11h62q16 0 26.5 -11t10.5 -27v-572q0 -16 -10.5 -27t-26.5 -11h-57q-16 0 -29 11.5t-13 26.5zM223 446h62q16 0 26.5 -11t10.5 -26v-572q0 -16 -10.5 -26.5t-26.5 -10.5h-62q-16 0 -26.5 10.5t-10.5 26.5v572q0 15 10.5 26t26.5 11z" />
<glyph unicode="&#xa7;" horiz-adv-x="814" d="M535 614q0 99 -80 164q-83 -3 -128.5 -45t-45.5 -109q0 -109 116 -176q67 12 102.5 55.5t35.5 110.5zM173 -17q81 -47 180 -47q85 0 130.5 39t45.5 113q0 69 -39.5 115t-126.5 89q-125 62 -185.5 142.5t-60.5 187.5q0 89 48.5 152.5t133.5 89.5q-92 57 -137 120.5 t-45 153.5q0 139 86 212.5t232 73.5q105 0 192 -30q30 -10 27 -41l-5 -61q-1 -21 -17 -28t-35 1q-62 23 -142 23q-79 0 -123.5 -37.5t-44.5 -102.5q0 -62 42 -109.5t136 -90.5q123 -56 177.5 -134t54.5 -192q0 -86 -42.5 -150.5t-119.5 -97.5q86 -52 124 -120t38 -156 q0 -145 -86 -221.5t-246 -76.5q-123 0 -223 50q-28 10 -27 41l4 68q1 24 18 30t36 -6z" />
<glyph unicode="&#xa8;" horiz-adv-x="660" d="M76 1298q0 57 22.5 81.5t67.5 24.5t67.5 -24.5t22.5 -81.5t-22.5 -81.5t-67.5 -24.5t-67.5 24.5t-22.5 81.5zM404 1298q0 57 22.5 81.5t67.5 24.5t67.5 -24.5t22.5 -81.5t-22.5 -81.5t-67.5 -24.5t-67.5 24.5t-22.5 81.5z" />
<glyph unicode="&#xa9;" horiz-adv-x="1216" d="M1152 700q0 -331 -149 -527.5t-395 -196.5t-395 196.5t-149 527.5t149 527.5t395 196.5t395 -196.5t149 -527.5zM1056 700q0 293 -123.5 464.5t-324.5 171.5t-324.5 -171.5t-123.5 -464.5t123.5 -464.5t324.5 -171.5t324.5 171.5t123.5 464.5zM294 696q0 211 97.5 322.5 t250.5 111.5q88 0 167 -33q28 -11 25 -40l-4 -56q-1 -20 -17.5 -26t-35.5 3q-58 26 -125 26q-105 0 -159.5 -81t-54.5 -227t54.5 -227t159.5 -81q71 0 125 24q19 9 35.5 3t17.5 -26l4 -56q3 -29 -25 -40q-74 -31 -167 -31q-153 0 -250.5 111.5t-97.5 322.5z" />
<glyph unicode="&#xaa;" horiz-adv-x="664" d="M304 740q39 0 70.5 25t49.5 71v178h-88q-126 0 -126 -136q0 -64 26 -101t68 -37zM129 1377q88 39 191 39q137 0 195.5 -71t58.5 -235v-432q0 -15 -12.5 -24.5t-28.5 -9.5h-75q-16 0 -25 9.5t-9 24.5v30q-23 -38 -65.5 -58t-92.5 -20q-85 0 -146.5 62.5t-61.5 179.5 q0 250 276 250h90q0 107 -30 144.5t-110 37.5q-64 0 -127 -28q-42 -19 -45 20l-3 39q-3 31 20 42z" />
<glyph unicode="&#xab;" horiz-adv-x="918" d="M114 610v28q0 36 26 61l308 294q18 18 33 13t15 -31v-89q0 -33 -21 -51l-235 -211l235 -211q21 -18 21 -51v-89q0 -26 -15 -31t-33 13l-308 294q-26 25 -26 61zM440 610v28q0 36 26 61l308 294q18 18 33 13t15 -31v-89q0 -33 -21 -51l-235 -211l235 -211q21 -18 21 -51 v-89q0 -26 -15 -31t-33 13l-308 294q-26 25 -26 61z" />
<glyph unicode="&#xac;" horiz-adv-x="1060" d="M64 781v70q0 16 10.5 26.5t26.5 10.5h838q16 0 26.5 -10.5t10.5 -26.5v-488q0 -16 -10.5 -26.5t-26.5 -10.5h-98q-15 0 -26 10.5t-11 26.5v381h-703q-16 0 -26.5 11t-10.5 26z" />
<glyph unicode="&#xad;" horiz-adv-x="712" d="M580 584h-449q-15 0 -26 10.5t-11 26.5v86q0 15 11 26t26 11h449q16 0 27 -11t11 -26v-86q0 -16 -11 -26.5t-27 -10.5z" />
<glyph unicode="&#xae;" horiz-adv-x="1216" d="M724 866q0 126 -120 126h-90v-254h90q120 0 120 128zM1152 700q0 -331 -149 -527.5t-395 -196.5t-395 196.5t-149 527.5t149 527.5t395 196.5t395 -196.5t149 -527.5zM1056 700q0 293 -123.5 464.5t-324.5 171.5t-324.5 -171.5t-123.5 -464.5t123.5 -464.5t324.5 -171.5 t324.5 171.5t123.5 464.5zM743 309l-127 307q-12 -2 -36 -2h-66v-295q0 -15 -11 -26t-26 -11h-67q-16 0 -27 11t-11 26v760q0 15 11 26t27 11h192q125 0 194.5 -65.5t69.5 -184.5q0 -160 -120 -220l143 -321q18 -43 -29 -43h-75q-30 0 -42 27z" />
<glyph unicode="&#xaf;" horiz-adv-x="660" d="M88 1265v61q0 16 11 27t26 11h410q15 0 26 -11t11 -27v-61q0 -16 -11 -26.5t-26 -10.5h-410q-15 0 -26 10.5t-11 26.5z" />
<glyph unicode="&#xb0;" horiz-adv-x="660" d="M582 1178q0 -103 -73.5 -174.5t-178.5 -71.5t-178.5 71.5t-73.5 174.5t73.5 174.5t178.5 71.5t178.5 -71.5t73.5 -174.5zM448 1178q0 53 -33.5 87.5t-84.5 34.5t-84.5 -34.5t-33.5 -87.5t33.5 -87.5t84.5 -34.5t84.5 34.5t33.5 87.5z" />
<glyph unicode="&#xb1;" horiz-adv-x="1060" d="M444 351v367h-332q-16 0 -27 11t-11 26v69q0 16 11 27t27 11h332v367q0 15 10.5 26t26.5 11h98q15 0 26 -11t11 -26v-367h333q15 0 26 -11t11 -27v-69q0 -15 -11 -26t-26 -11h-333v-367q0 -16 -11 -26.5t-26 -10.5h-98q-16 0 -26.5 10.5t-10.5 26.5zM949 78h-837 q-16 0 -27 11t-11 26v70q0 16 11 26.5t27 10.5h837q15 0 26 -10.5t11 -26.5v-70q0 -15 -11 -26t-26 -11z" />
<glyph unicode="&#xb2;" horiz-adv-x="644" d="M107 628q118 134 205 274q82 129 82 246q0 71 -30.5 106.5t-85.5 35.5q-63 0 -125 -32q-21 -11 -34.5 -4.5t-14.5 27.5l-3 64q-1 25 23 36q76 35 164 35q258 0 258 -262q0 -149 -112 -328q-84 -135 -174 -228h253q16 0 26.5 -11t10.5 -26v-50q0 -15 -10.5 -26t-26.5 -11 h-396q-15 0 -26 11t-11 26v45q0 41 27 72z" />
<glyph unicode="&#xb3;" horiz-adv-x="644" d="M109 486q-26 11 -24 39l4 57q3 43 50 25q57 -23 112 -23q72 0 110 37.5t38 104.5q0 73 -49 116.5t-148 50.5q-15 1 -25 11.5t-10 25.5v52q0 15 10 25t25 12q94 7 140.5 46.5t46.5 98.5t-33 92.5t-95 33.5q-57 0 -114 -21q-47 -17 -50 25l-3 50q-2 26 23 38q73 34 162 34 q126 0 194 -65t68 -179q0 -71 -38 -126.5t-108 -85.5q73 -30 113.5 -90t40.5 -140q0 -129 -73.5 -200.5t-208.5 -71.5q-88 0 -158 28z" />
<glyph unicode="&#xb4;" horiz-adv-x="660" d="M178 1175l160 259q16 26 49 26h118q21 0 25 -14t-8 -29l-197 -254q-21 -27 -60 -27h-64q-21 0 -27.5 11t4.5 28z" />
<glyph unicode="&#xb5;" horiz-adv-x="888" d="M632 37v41q-28 -46 -79.5 -74t-108.5 -28t-109 28t-79 74v-427q0 -15 -10.5 -26t-26.5 -11h-92q-16 0 -26.5 11t-10.5 26v1348q0 15 10.5 26t26.5 11h92q16 0 26.5 -11t10.5 -26v-787q64 -102 188 -102q121 0 188 102v787q0 15 10.5 26t26.5 11h92q15 0 26 -11t11 -26 v-962q0 -15 -11 -26t-26 -11h-92q-16 0 -26.5 11t-10.5 26z" />
<glyph unicode="&#xb6;" horiz-adv-x="954" d="M460 -225v797h-26q-180 0 -290 108t-110 306q0 197 110.5 305.5t289.5 108.5h349q15 0 26 -11t11 -26v-1588q0 -15 -11 -26t-26 -11h-74q-16 0 -26.5 11t-10.5 26v1473h-64v-1473q0 -15 -11 -26t-26 -11h-74q-15 0 -26 11t-11 26z" />
<glyph unicode="&#xb7;" horiz-adv-x="456" d="M126 654q0 118 102 118t102 -118t-102 -118t-102 118z" />
<glyph unicode="&#xb8;" horiz-adv-x="660" d="M215 -137l41 107q12 30 46 30h81q16 0 22.5 -10.5t-0.5 -26.5l-35 -85q53 -18 84.5 -62.5t31.5 -105.5q0 -85 -56.5 -135.5t-155.5 -50.5q-35 0 -73 8q-29 6 -29 36v42q0 43 44 34q20 -4 40 -4q37 0 60.5 20t23.5 56q0 80 -95 98q-46 9 -30 49z" />
<glyph unicode="&#xb9;" horiz-adv-x="644" d="M267 1202l-89 -71q-13 -11 -28.5 -8.5t-24.5 15.5l-39 58q-16 24 6 43l174 141q28 22 53 22h59q15 0 26 -11t11 -27v-853q0 -15 -11 -26t-26 -11h-74q-16 0 -26.5 11t-10.5 26v691z" />
<glyph unicode="&#xba;" horiz-adv-x="664" d="M332 1416q130 0 209 -97t79 -285t-79 -285t-209 -97t-209 97t-79 285t79 285t209 97zM332 780q134 0 134 254t-134 254t-134 -254t134 -254z" />
<glyph unicode="&#xbb;" horiz-adv-x="918" d="M804 638v-28q0 -36 -26 -61l-308 -294q-18 -18 -33 -13t-15 31v89q0 33 21 51l235 211l-235 211q-21 18 -21 51v89q0 26 15 31t33 -13l308 -294q26 -25 26 -61zM478 638v-28q0 -36 -26 -61l-308 -294q-18 -18 -33 -13t-15 31v89q0 33 21 51l235 211l-235 211 q-21 18 -21 51v89q0 26 15 31t33 -13l308 -294q26 -25 26 -61z" />
<glyph unicode="&#xbc;" horiz-adv-x="1474" d="M260 1202l-89 -71q-13 -11 -28.5 -8.5t-24.5 15.5l-39 58q-16 24 6 43l174 141q27 22 53 22h59q15 0 26 -11t11 -27v-853q0 -15 -11 -26t-26 -11h-74q-16 0 -26.5 11t-10.5 26v691zM1195 664l-182 -346h182v346zM877 233v65q0 23 12 44l302 566q10 20 37 20h78 q16 0 26.5 -11t10.5 -26v-573h46q15 0 24.5 -9.5t9.5 -24.5v-54q0 -15 -9.5 -24.5t-24.5 -9.5h-46v-161q0 -16 -9 -25.5t-25 -9.5h-80q-15 0 -24.5 9.5t-9.5 25.5v161h-281q-15 0 -26 11t-11 26zM1073 1383l-550 -1390q-9 -23 -35 -23h-55q-46 0 -28 47l550 1390q9 23 35 23 h55q46 0 28 -47z" />
<glyph unicode="&#xbd;" horiz-adv-x="1474" d="M260 1202l-89 -71q-13 -11 -28.5 -8.5t-24.5 15.5l-39 58q-16 24 6 43l174 141q27 22 53 22h59q15 0 26 -11t11 -27v-853q0 -15 -11 -26t-26 -11h-74q-16 0 -26.5 11t-10.5 26v691zM1009 1383l-550 -1390q-9 -23 -35 -23h-55q-46 0 -28 47l550 1390q9 23 35 23h55 q46 0 28 -47zM950 154q118 134 205 274q82 129 82 246q0 71 -30.5 106.5t-85.5 35.5q-63 0 -125 -32q-21 -11 -34.5 -4.5t-14.5 27.5l-3 64q-1 25 23 36q76 35 164 35q258 0 258 -262q0 -149 -112 -328q-84 -135 -174 -228h253q16 0 26.5 -11t10.5 -26v-50q0 -15 -10.5 -26 t-26.5 -11h-396q-15 0 -26 11t-11 26v45q0 41 27 72z" />
<glyph unicode="&#xbe;" horiz-adv-x="1474" d="M108 486q-26 11 -24 39l4 57q3 43 50 25q58 -23 112 -23q72 0 110 37.5t38 104.5q0 73 -49 116.5t-148 50.5q-15 1 -25 11.5t-10 25.5v52q0 15 10 25t25 12q94 7 140.5 46.5t46.5 98.5t-33 92.5t-95 33.5q-57 0 -114 -21q-47 -17 -50 25l-3 50q-2 26 23 38q73 34 162 34 q126 0 194 -65t68 -179q0 -71 -38 -126.5t-108 -85.5q73 -30 113.5 -90t40.5 -140q0 -129 -73.5 -200.5t-208.5 -71.5q-88 0 -158 28zM1201 664l-182 -346h182v346zM883 233v65q0 23 12 44l302 566q10 20 37 20h78q16 0 26.5 -11t10.5 -26v-573h46q15 0 24.5 -9.5t9.5 -24.5 v-54q0 -15 -9.5 -24.5t-24.5 -9.5h-46v-161q0 -16 -9 -25.5t-25 -9.5h-80q-15 0 -24.5 9.5t-9.5 25.5v161h-281q-15 0 -26 11t-11 26zM1109 1383l-550 -1390q-9 -23 -35 -23h-55q-46 0 -28 47l550 1390q9 23 35 23h55q46 0 28 -47z" />
<glyph unicode="&#xbf;" horiz-adv-x="830" d="M392 630v13q0 16 11 26.5t26 10.5h98q16 0 26.5 -10.5t10.5 -26.5v-19q0 -133 -34 -227t-114 -171q-72 -69 -100 -131.5t-28 -138.5q0 -92 54.5 -143t157.5 -51q101 0 191 46q19 10 36.5 3.5t18.5 -28.5l6 -78q2 -30 -25 -41q-118 -52 -241 -52q-178 0 -275 93.5 t-97 252.5q0 102 45 194t141 190q51 53 71.5 118.5t20.5 169.5zM580 942q0 -118 -102 -118t-102 118t102 118t102 -118z" />
<glyph unicode="&#xc0;" horiz-adv-x="992" d="M492 1224l-178 -712h356zM613 1368l355 -1331q5 -17 -4 -27t-28 -10h-109q-30 0 -36 27l-85 339h-428l-85 -339q-6 -27 -36 -27h-109q-19 0 -28 10t-4 27l355 1331q8 32 38 32h166q30 0 38 -32zM433 1822l160 -259q11 -17 4.5 -28t-27.5 -11h-64q-39 0 -60 27l-197 254 q-12 15 -8 29t25 14h118q33 0 49 -26z" />
<glyph unicode="&#xc1;" horiz-adv-x="992" d="M492 1224l-178 -712h356zM613 1368l355 -1331q5 -17 -4 -27t-28 -10h-109q-30 0 -36 27l-85 339h-428l-85 -339q-6 -27 -36 -27h-109q-19 0 -28 10t-4 27l355 1331q8 32 38 32h166q30 0 38 -32zM422 1563l160 259q16 26 49 26h118q21 0 25 -14t-8 -29l-197 -254 q-21 -27 -60 -27h-64q-21 0 -27.5 11t4.5 28z" />
<glyph unicode="&#xc2;" horiz-adv-x="992" d="M492 1224l-178 -712h356zM613 1368l355 -1331q5 -17 -4 -27t-28 -10h-109q-30 0 -36 27l-85 339h-428l-85 -339q-6 -27 -36 -27h-109q-19 0 -28 10t-4 27l355 1331q8 32 38 32h166q30 0 38 -32zM411 1848h146q25 0 39 -24l147 -251q12 -23 4 -36t-33 -13h-72 q-31 0 -45 25l-113 191l-113 -191q-14 -25 -45 -25h-72q-25 0 -33 13t4 36l147 251q14 24 39 24z" />
<glyph unicode="&#xc3;" horiz-adv-x="992" d="M492 1224l-178 -712h356zM613 1368l355 -1331q5 -17 -4 -27t-28 -10h-109q-30 0 -36 27l-85 339h-428l-85 -339q-6 -27 -36 -27h-109q-19 0 -28 10t-4 27l355 1331q8 32 38 32h166q30 0 38 -32zM588 1680q23 0 32.5 22.5t10.5 77.5q0 14 11 25t26 11h60q16 0 27 -11 t11 -26v-9q0 -110 -39 -164t-107 -54q-42 0 -80 22t-60.5 48t-43.5 48t-32 22q-23 0 -32.5 -22.5t-10.5 -77.5q0 -14 -11 -25t-26 -11h-60q-16 0 -27 11t-11 26v9q0 110 39 164t107 54q42 0 80.5 -22t60 -48t42.5 -48t33 -22z" />
<glyph unicode="&#xc4;" horiz-adv-x="992" d="M492 1224l-178 -712h356zM613 1368l355 -1331q5 -17 -4 -27t-28 -10h-109q-30 0 -36 27l-85 339h-428l-85 -339q-6 -27 -36 -27h-109q-19 0 -28 10t-4 27l355 1331q8 32 38 32h166q30 0 38 -32zM242 1686q0 57 22.5 81.5t67.5 24.5t67.5 -24.5t22.5 -81.5t-22.5 -81.5 t-67.5 -24.5t-67.5 24.5t-22.5 81.5zM570 1686q0 57 22.5 81.5t67.5 24.5t67.5 -24.5t22.5 -81.5t-22.5 -81.5t-67.5 -24.5t-67.5 24.5t-22.5 81.5z" />
<glyph unicode="&#xc5;" horiz-adv-x="992" d="M492 1224l-178 -712h356zM613 1368l355 -1331q5 -17 -4 -27t-28 -10h-109q-30 0 -36 27l-85 339h-428l-85 -339q-6 -27 -36 -27h-109q-19 0 -28 10t-4 27l355 1331q8 32 38 32h166q30 0 38 -32zM496 1894q94 0 156 -59t62 -149t-62 -149t-156 -59q-96 0 -157 59t-61 149 t61 149t157 59zM496 1584q44 0 73 27t29 75q0 46 -29 73t-73 27q-45 0 -73.5 -26.5t-28.5 -73.5q0 -48 28.5 -75t73.5 -27z" />
<glyph unicode="&#xc6;" horiz-adv-x="1278" d="M606 1260l-256 -780h256v780zM300 332l-99 -305q-8 -27 -36 -27h-118q-20 0 -27.5 11t-2.5 27l460 1330q11 32 41 32h638q16 0 27 -11t11 -27v-72q0 -16 -11 -27t-27 -11h-378v-458h340q15 0 26.5 -13t11.5 -29v-68q0 -16 -11 -27t-27 -11h-340v-500h390q16 0 27 -11 t11 -27v-70q0 -16 -11 -27t-27 -11h-524q-16 0 -27 11t-11 27v294h-306z" />
<glyph unicode="&#xc7;" horiz-adv-x="926" d="M823 154q19 8 33.5 0.5t15.5 -26.5l6 -80q2 -27 -25 -38q-75 -30 -183 -33l-40 -99q53 -18 84.5 -62.5t31.5 -105.5q0 -85 -56.5 -135.5t-155.5 -50.5q-35 0 -73 8q-29 6 -29 36v42q0 43 44 34q20 -4 40 -4q37 0 60.5 20t23.5 56q0 79 -95 98q-22 3 -29.5 17t-0.5 32 l48 125q-218 42 -338.5 231t-120.5 481q0 218 66.5 381t196.5 253t309 90q119 0 207 -35q27 -11 25 -38l-6 -80q-1 -18 -16 -26t-34 -1q-81 30 -168 30q-189 0 -296.5 -151.5t-107.5 -422.5q0 -272 109.5 -423t298.5 -151q102 0 175 28z" />
<glyph unicode="&#xc8;" horiz-adv-x="892" d="M136 38v1324q0 16 11 27t27 11h600q16 0 27 -11t11 -27v-72q0 -16 -11 -27t-27 -11h-466v-458h430q16 0 27 -11t11 -27v-72q0 -16 -11 -27t-27 -11h-430v-498h480q16 0 27 -11t11 -27v-72q0 -16 -11 -27t-27 -11h-614q-16 0 -27 11t-11 27zM425 1822l160 -259 q11 -17 4.5 -28t-27.5 -11h-64q-39 0 -60 27l-197 254q-12 15 -8 29t25 14h118q33 0 49 -26z" />
<glyph unicode="&#xc9;" horiz-adv-x="892" d="M136 38v1324q0 16 11 27t27 11h600q16 0 27 -11t11 -27v-72q0 -16 -11 -27t-27 -11h-466v-458h430q16 0 27 -11t11 -27v-72q0 -16 -11 -27t-27 -11h-430v-498h480q16 0 27 -11t11 -27v-72q0 -16 -11 -27t-27 -11h-614q-16 0 -27 11t-11 27zM374 1563l160 259q16 26 49 26 h118q21 0 25 -14t-8 -29l-197 -254q-21 -27 -60 -27h-64q-21 0 -27.5 11t4.5 28z" />
<glyph unicode="&#xca;" horiz-adv-x="892" d="M136 38v1324q0 16 11 27t27 11h600q16 0 27 -11t11 -27v-72q0 -16 -11 -27t-27 -11h-466v-458h430q16 0 27 -11t11 -27v-72q0 -16 -11 -27t-27 -11h-430v-498h480q16 0 27 -11t11 -27v-72q0 -16 -11 -27t-27 -11h-614q-16 0 -27 11t-11 27zM389 1848h146q25 0 39 -24 l147 -251q12 -23 4 -36t-33 -13h-72q-31 0 -45 25l-113 191l-113 -191q-14 -25 -45 -25h-72q-25 0 -33 13t4 36l147 251q14 24 39 24z" />
<glyph unicode="&#xcb;" horiz-adv-x="892" d="M136 38v1324q0 16 11 27t27 11h600q16 0 27 -11t11 -27v-72q0 -16 -11 -27t-27 -11h-466v-458h430q16 0 27 -11t11 -27v-72q0 -16 -11 -27t-27 -11h-430v-498h480q16 0 27 -11t11 -27v-72q0 -16 -11 -27t-27 -11h-614q-16 0 -27 11t-11 27zM212 1698q0 57 22.5 81.5 t67.5 24.5t67.5 -24.5t22.5 -81.5t-22.5 -81.5t-67.5 -24.5t-67.5 24.5t-22.5 81.5zM540 1698q0 57 22.5 81.5t67.5 24.5t67.5 -24.5t22.5 -81.5t-22.5 -81.5t-67.5 -24.5t-67.5 24.5t-22.5 81.5z" />
<glyph unicode="&#xcc;" horiz-adv-x="460" d="M182 1400h96q16 0 27 -11t11 -27v-1324q0 -16 -11 -27t-27 -11h-96q-16 0 -27 11t-11 27v1324q0 16 11 27t27 11zM157 1822l160 -259q11 -17 4.5 -28t-27.5 -11h-64q-39 0 -60 27l-197 254q-12 15 -8 29t25 14h118q33 0 49 -26z" />
<glyph unicode="&#xcd;" horiz-adv-x="460" d="M182 1400h96q16 0 27 -11t11 -27v-1324q0 -16 -11 -27t-27 -11h-96q-16 0 -27 11t-11 27v1324q0 16 11 27t27 11zM174 1563l160 259q16 26 49 26h118q21 0 25 -14t-8 -29l-197 -254q-21 -27 -60 -27h-64q-21 0 -27.5 11t4.5 28z" />
<glyph unicode="&#xce;" horiz-adv-x="460" d="M170 1400h96q16 0 27 -11t11 -27v-1324q0 -16 -11 -27t-27 -11h-96q-16 0 -27 11t-11 27v1324q0 16 11 27t27 11zM133 1848h146q25 0 39 -24l147 -251q12 -23 4 -36t-33 -13h-72q-31 0 -45 25l-113 191l-113 -191q-14 -25 -45 -25h-72q-25 0 -33 13t4 36l147 251 q14 24 39 24z" />
<glyph unicode="&#xcf;" horiz-adv-x="460" d="M182 1400h96q16 0 27 -11t11 -27v-1324q0 -16 -11 -27t-27 -11h-96q-16 0 -27 11t-11 27v1324q0 16 11 27t27 11zM-24 1698q0 57 22.5 81.5t67.5 24.5t67.5 -24.5t22.5 -81.5t-22.5 -81.5t-67.5 -24.5t-67.5 24.5t-22.5 81.5zM304 1698q0 57 22.5 81.5t67.5 24.5 t67.5 -24.5t22.5 -81.5t-22.5 -81.5t-67.5 -24.5t-67.5 24.5t-22.5 81.5z" />
<glyph unicode="&#xd0;" horiz-adv-x="1062" d="M183 1400h255q280 0 420 -170.5t140 -529.5t-140 -529.5t-420 -170.5h-255q-15 0 -26 11t-11 27v594h-88q-16 0 -27 11t-11 27v57q0 15 11 26t27 11h88v598q0 16 11 27t26 11zM520 632h-202v-484h118q205 0 295.5 130t90.5 422t-90.5 422t-295.5 130h-118v-488h202 q16 0 27 -11t11 -26v-57q0 -16 -11 -27t-27 -11z" />
<glyph unicode="&#xd1;" horiz-adv-x="1114" d="M721 29l-419 1135v-1126q0 -16 -12 -27t-28 -11h-88q-15 0 -26.5 11t-11.5 27v1324q0 16 11.5 27t26.5 11h177q32 0 42 -29l419 -1135v1126q0 16 12 27t28 11h88q15 0 26.5 -11t11.5 -27v-1324q0 -16 -11.5 -27t-26.5 -11h-177q-32 0 -42 29zM648 1682q23 0 32.5 22.5 t10.5 77.5q0 14 11 25t26 11h60q16 0 27 -11t11 -26v-9q0 -110 -39 -164t-107 -54q-42 0 -80 22t-60.5 48t-43.5 48t-32 22q-23 0 -32.5 -22.5t-10.5 -77.5q0 -14 -11 -25t-26 -11h-60q-16 0 -27 11t-11 26v9q0 110 39 164t107 54q42 0 80.5 -22t60 -48t42.5 -48t33 -22z " />
<glyph unicode="&#xd2;" horiz-adv-x="1084" d="M844 700q0 574 -302 574t-302 -574t302 -574t302 574zM1020 700q0 -348 -122.5 -536t-355.5 -188t-355.5 188t-122.5 536t122.5 536t355.5 188t355.5 -188t122.5 -536zM507 1822l160 -259q11 -17 4.5 -28t-27.5 -11h-64q-39 0 -60 27l-197 254q-12 15 -8 29t25 14h118 q33 0 49 -26z" />
<glyph unicode="&#xd3;" horiz-adv-x="1084" d="M844 700q0 574 -302 574t-302 -574t302 -574t302 574zM1020 700q0 -348 -122.5 -536t-355.5 -188t-355.5 188t-122.5 536t122.5 536t355.5 188t355.5 -188t122.5 -536zM444 1563l160 259q16 26 49 26h118q21 0 25 -14t-8 -29l-197 -254q-21 -27 -60 -27h-64 q-21 0 -27.5 11t4.5 28z" />
<glyph unicode="&#xd4;" horiz-adv-x="1084" d="M844 700q0 574 -302 574t-302 -574t302 -574t302 574zM1020 700q0 -348 -122.5 -536t-355.5 -188t-355.5 188t-122.5 536t122.5 536t355.5 188t355.5 -188t122.5 -536zM457 1848h146q25 0 39 -24l147 -251q12 -23 4 -36t-33 -13h-72q-31 0 -45 25l-113 191l-113 -191 q-14 -25 -45 -25h-72q-25 0 -33 13t4 36l147 251q14 24 39 24z" />
<glyph unicode="&#xd5;" horiz-adv-x="1084" d="M844 700q0 574 -302 574t-302 -574t302 -574t302 574zM1020 700q0 -348 -122.5 -536t-355.5 -188t-355.5 188t-122.5 536t122.5 536t355.5 188t355.5 -188t122.5 -536zM634 1682q23 0 32.5 22.5t10.5 77.5q0 14 11 25t26 11h60q16 0 27 -11t11 -26v-9q0 -110 -39 -164 t-107 -54q-42 0 -80 22t-60.5 48t-43.5 48t-32 22q-23 0 -32.5 -22.5t-10.5 -77.5q0 -14 -11 -25t-26 -11h-60q-16 0 -27 11t-11 26v9q0 110 39 164t107 54q42 0 80.5 -22t60 -48t42.5 -48t33 -22z" />
<glyph unicode="&#xd6;" horiz-adv-x="1084" d="M844 700q0 574 -302 574t-302 -574t302 -574t302 574zM1020 700q0 -348 -122.5 -536t-355.5 -188t-355.5 188t-122.5 536t122.5 536t355.5 188t355.5 -188t122.5 -536zM288 1698q0 57 22.5 81.5t67.5 24.5t67.5 -24.5t22.5 -81.5t-22.5 -81.5t-67.5 -24.5t-67.5 24.5 t-22.5 81.5zM616 1698q0 57 22.5 81.5t67.5 24.5t67.5 -24.5t22.5 -81.5t-22.5 -81.5t-67.5 -24.5t-67.5 24.5t-22.5 81.5z" />
<glyph unicode="&#xd7;" horiz-adv-x="1060" d="M900 949l-270 -282l270 -282q10 -11 10 -26t-10 -26l-65 -65q-12 -11 -26.5 -9.5t-25.5 13.5l-265 277l-265 -277q-11 -12 -25.5 -13.5t-26.5 9.5l-65 65q-10 11 -10 26t10 26l269 282l-269 282q-10 11 -10 26t10 26l65 65q12 11 26.5 9.5t25.5 -13.5l265 -278l265 278 q11 12 25.5 13.5t26.5 -9.5l65 -65q10 -11 10 -26t-10 -26z" />
<glyph unicode="&#xd8;" horiz-adv-x="1084" d="M1020 700q0 -348 -122.5 -536t-355.5 -188q-116 0 -205 47l-83 -199q-10 -24 -37 -24h-70q-26 0 -35.5 14.5t0.5 37.5l111 263q-159 185 -159 585q0 348 122.5 536t355.5 188q118 0 209 -50l85 202q10 24 37 24h70q26 0 35.5 -14.5t-0.5 -37.5l-113 -269 q155 -185 155 -579zM240 700q0 -258 60 -401l390 929q-62 46 -148 46q-302 0 -302 -574zM844 700q0 251 -57 393l-389 -925q59 -42 144 -42q302 0 302 574z" />
<glyph unicode="&#xd9;" horiz-adv-x="1128" d="M564 -24q-428 0 -428 510v876q0 16 11 27t27 11h96q16 0 27 -11t11 -27v-878q0 -186 63.5 -272t192.5 -86t192.5 86t63.5 272v878q0 16 11 27t27 11h96q16 0 27 -11t11 -27v-876q0 -510 -428 -510zM499 1822l160 -259q11 -17 4.5 -28t-27.5 -11h-64q-39 0 -60 27 l-197 254q-12 15 -8 29t25 14h118q33 0 49 -26z" />
<glyph unicode="&#xda;" horiz-adv-x="1128" d="M564 -24q-428 0 -428 510v876q0 16 11 27t27 11h96q16 0 27 -11t11 -27v-878q0 -186 63.5 -272t192.5 -86t192.5 86t63.5 272v878q0 16 11 27t27 11h96q16 0 27 -11t11 -27v-876q0 -510 -428 -510zM496 1563l160 259q16 26 49 26h118q21 0 25 -14t-8 -29l-197 -254 q-21 -27 -60 -27h-64q-21 0 -27.5 11t4.5 28z" />
<glyph unicode="&#xdb;" horiz-adv-x="1128" d="M564 -24q-428 0 -428 510v876q0 16 11 27t27 11h96q16 0 27 -11t11 -27v-878q0 -186 63.5 -272t192.5 -86t192.5 86t63.5 272v878q0 16 11 27t27 11h96q16 0 27 -11t11 -27v-876q0 -510 -428 -510zM479 1848h146q25 0 39 -24l147 -251q12 -23 4 -36t-33 -13h-72 q-31 0 -45 25l-113 191l-113 -191q-14 -25 -45 -25h-72q-25 0 -33 13t4 36l147 251q14 24 39 24z" />
<glyph unicode="&#xdc;" horiz-adv-x="1128" d="M564 -24q-428 0 -428 510v876q0 16 11 27t27 11h96q16 0 27 -11t11 -27v-878q0 -186 63.5 -272t192.5 -86t192.5 86t63.5 272v878q0 16 11 27t27 11h96q16 0 27 -11t11 -27v-876q0 -510 -428 -510zM310 1698q0 57 22.5 81.5t67.5 24.5t67.5 -24.5t22.5 -81.5t-22.5 -81.5 t-67.5 -24.5t-67.5 24.5t-22.5 81.5zM638 1698q0 57 22.5 81.5t67.5 24.5t67.5 -24.5t22.5 -81.5t-22.5 -81.5t-67.5 -24.5t-67.5 24.5t-22.5 81.5z" />
<glyph unicode="&#xdd;" horiz-adv-x="1008" d="M540 0h-96q-16 0 -27 11t-11 27v516l-370 795q-9 20 -0.5 35.5t30.5 15.5h101q25 0 35 -23l290 -643l290 643q10 23 35 23h101q22 0 30.5 -15.5t-0.5 -35.5l-370 -795v-516q0 -16 -11 -27t-27 -11zM424 1563l160 259q16 26 49 26h118q21 0 25 -14t-8 -29l-197 -254 q-21 -27 -60 -27h-64q-21 0 -27.5 11t4.5 28z" />
<glyph unicode="&#xde;" horiz-adv-x="938" d="M308 998v-578h146q120 0 183 72.5t63 217.5q0 288 -246 288h-146zM308 1362v-216h156q189 0 299.5 -112.5t110.5 -323.5t-110.5 -323.5t-299.5 -112.5h-156v-236q0 -16 -11 -27t-26 -11h-97q-16 0 -27 11t-11 27v1324q0 16 11 27t27 11h97q15 0 26 -11t11 -27z" />
<glyph unicode="&#xdf;" horiz-adv-x="974" d="M383 -2q-28 9 -26 39l5 71q2 18 16 28t31 5q51 -15 103 -15q102 0 157 66.5t55 179.5q0 134 -72.5 199.5t-216.5 81.5q-13 1 -23 12t-10 25v76q0 14 10.5 25t25.5 12q118 7 176 67.5t58 185.5q0 96 -46.5 157t-131.5 61q-186 0 -186 -272v-965q0 -15 -11 -26t-26 -11h-98 q-15 0 -26 11t-11 26v943q0 223 92.5 333.5t269.5 110.5q160 0 255 -102t95 -264q0 -249 -200 -324q117 -32 184.5 -126.5t67.5 -235.5q0 -192 -96.5 -294t-273.5 -102q-76 0 -147 22z" />
<glyph unicode="&#xe0;" horiz-adv-x="828" d="M384 110q119 0 180 96v302h-148q-204 0 -204 -204q0 -95 46 -144.5t126 -49.5zM180 881q-19 -9 -35 -3t-17 26l-5 63q-3 28 23 40q116 53 248 53q170 0 253 -82t83 -250v-691q0 -15 -11 -26t-26 -11h-92q-16 0 -26.5 11t-10.5 26v37q-76 -98 -222 -98q-129 0 -213.5 85.5 t-84.5 242.5q0 161 96.5 248.5t269.5 87.5h154v82q0 113 -42.5 157.5t-139.5 44.5q-105 0 -202 -43zM397 1474l160 -259q11 -17 4.5 -28t-27.5 -11h-64q-39 0 -60 27l-197 254q-12 15 -8 29t25 14h118q33 0 49 -26z" />
<glyph unicode="&#xe1;" horiz-adv-x="828" d="M384 110q119 0 180 96v302h-148q-204 0 -204 -204q0 -95 46 -144.5t126 -49.5zM180 881q-19 -9 -35 -3t-17 26l-5 63q-3 28 23 40q116 53 248 53q170 0 253 -82t83 -250v-691q0 -15 -11 -26t-26 -11h-92q-16 0 -26.5 11t-10.5 26v37q-76 -98 -222 -98q-129 0 -213.5 85.5 t-84.5 242.5q0 161 96.5 248.5t269.5 87.5h154v82q0 113 -42.5 157.5t-139.5 44.5q-105 0 -202 -43zM342 1215l160 259q16 26 49 26h118q21 0 25 -14t-8 -29l-197 -254q-21 -27 -60 -27h-64q-21 0 -27.5 11t4.5 28z" />
<glyph unicode="&#xe2;" horiz-adv-x="828" d="M384 110q119 0 180 96v302h-148q-204 0 -204 -204q0 -95 46 -144.5t126 -49.5zM180 881q-19 -9 -35 -3t-17 26l-5 63q-3 28 23 40q116 53 248 53q170 0 253 -82t83 -250v-691q0 -15 -11 -26t-26 -11h-92q-16 0 -26.5 11t-10.5 26v37q-76 -98 -222 -98q-129 0 -213.5 85.5 t-84.5 242.5q0 161 96.5 248.5t269.5 87.5h154v82q0 113 -42.5 157.5t-139.5 44.5q-105 0 -202 -43zM319 1500h146q25 0 39 -24l147 -251q12 -23 4 -36t-33 -13h-72q-31 0 -45 25l-113 191l-113 -191q-14 -25 -45 -25h-72q-25 0 -33 13t4 36l147 251q14 24 39 24z" />
<glyph unicode="&#xe3;" horiz-adv-x="828" d="M384 110q119 0 180 96v302h-148q-204 0 -204 -204q0 -95 46 -144.5t126 -49.5zM180 881q-19 -9 -35 -3t-17 26l-5 63q-3 28 23 40q116 53 248 53q170 0 253 -82t83 -250v-691q0 -15 -11 -26t-26 -11h-92q-16 0 -26.5 11t-10.5 26v37q-76 -98 -222 -98q-129 0 -213.5 85.5 t-84.5 242.5q0 161 96.5 248.5t269.5 87.5h154v82q0 113 -42.5 157.5t-139.5 44.5q-105 0 -202 -43zM494 1332q23 0 32.5 22.5t10.5 77.5q0 14 11 25t26 11h60q16 0 27 -11t11 -26v-9q0 -110 -39 -164t-107 -54q-42 0 -80 22t-60.5 48t-43.5 48t-32 22q-23 0 -32.5 -22.5 t-10.5 -77.5q0 -14 -11 -25t-26 -11h-60q-16 0 -27 11t-11 26v9q0 110 39 164t107 54q42 0 80.5 -22t60 -48t42.5 -48t33 -22z" />
<glyph unicode="&#xe4;" horiz-adv-x="828" d="M384 110q119 0 180 96v302h-148q-204 0 -204 -204q0 -95 46 -144.5t126 -49.5zM180 881q-19 -9 -35 -3t-17 26l-5 63q-3 28 23 40q116 53 248 53q170 0 253 -82t83 -250v-691q0 -15 -11 -26t-26 -11h-92q-16 0 -26.5 11t-10.5 26v37q-76 -98 -222 -98q-129 0 -213.5 85.5 t-84.5 242.5q0 161 96.5 248.5t269.5 87.5h154v82q0 113 -42.5 157.5t-139.5 44.5q-105 0 -202 -43zM152 1350q0 57 22.5 81.5t67.5 24.5t67.5 -24.5t22.5 -81.5t-22.5 -81.5t-67.5 -24.5t-67.5 24.5t-22.5 81.5zM480 1350q0 57 22.5 81.5t67.5 24.5t67.5 -24.5t22.5 -81.5 t-22.5 -81.5t-67.5 -24.5t-67.5 24.5t-22.5 81.5z" />
<glyph unicode="&#xe5;" horiz-adv-x="828" d="M384 110q119 0 180 96v302h-148q-204 0 -204 -204q0 -95 46 -144.5t126 -49.5zM180 881q-19 -9 -35 -3t-17 26l-5 63q-3 28 23 40q116 53 248 53q170 0 253 -82t83 -250v-691q0 -15 -11 -26t-26 -11h-92q-16 0 -26.5 11t-10.5 26v37q-76 -98 -222 -98q-129 0 -213.5 85.5 t-84.5 242.5q0 161 96.5 248.5t269.5 87.5h154v82q0 113 -42.5 157.5t-139.5 44.5q-105 0 -202 -43zM408 1546q94 0 156 -59t62 -149t-62 -149t-156 -59q-96 0 -157 59t-61 149t61 149t157 59zM408 1236q44 0 73 27t29 75q0 46 -29 73t-73 27q-45 0 -73.5 -26.5t-28.5 -73.5 q0 -48 28.5 -75t73.5 -27z" />
<glyph unicode="&#xe6;" horiz-adv-x="1266" d="M342 110q161 0 196 238v164h-148q-93 0 -136.5 -58t-43.5 -152q0 -95 36.5 -143.5t95.5 -48.5zM710 586h364q-1 166 -49 254t-135 88q-83 0 -130 -87.5t-50 -254.5zM166 881q-19 -10 -35 -3.5t-17 26.5l-6 67q-3 26 24 38q109 51 228 51q101 0 177 -48t103 -140 q36 89 104 138.5t154 49.5q165 0 253.5 -139.5t88.5 -402.5q0 -18 -2 -29q-6 -35 -43 -35h-485q24 -344 254 -344q84 0 153 41q20 12 36.5 5.5t18.5 -29.5l7 -67q2 -22 -22 -37q-75 -47 -197 -47q-126 0 -208.5 56t-121.5 158q-34 -103 -111 -158.5t-183 -55.5 q-129 0 -210.5 83t-81.5 239q0 161 87.5 253.5t252.5 92.5h154q0 154 -44 217t-146 63q-89 0 -182 -43z" />
<glyph unicode="&#xe7;" horiz-adv-x="750" d="M363 -137l47 122q-170 30 -263 167.5t-93 365.5q0 259 120 400.5t326 141.5q88 0 169 -30q29 -10 26 -40l-6 -63q-2 -19 -16 -25.5t-33 1.5q-60 21 -126 21q-137 0 -214.5 -104t-77.5 -302q0 -206 79.5 -306t224.5 -100q70 0 122 22q19 8 33.5 2t15.5 -26l6 -65 q3 -27 -26 -40q-49 -21 -118 -27l-41 -100q53 -18 84.5 -62.5t31.5 -105.5q0 -85 -56.5 -135.5t-155.5 -50.5q-35 0 -73 8q-29 6 -29 36v42q0 43 44 34q20 -4 40 -4q37 0 60.5 20t23.5 56q0 80 -95 98q-46 9 -30 49z" />
<glyph unicode="&#xe8;" horiz-adv-x="828" d="M658 143q21 11 37 4.5t18 -28.5l7 -67q3 -26 -22 -37q-87 -39 -210 -39q-207 0 -320.5 141t-113.5 405q0 265 95 401.5t269 136.5q176 0 270 -135.5t94 -398.5q0 -22 -2 -34q-6 -36 -43 -36h-511q12 -344 274 -344q90 0 158 31zM224 588h386q-3 336 -192 336 q-188 0 -194 -336zM377 1474l160 -259q11 -17 4.5 -28t-27.5 -11h-64q-39 0 -60 27l-197 254q-12 15 -8 29t25 14h118q33 0 49 -26z" />
<glyph unicode="&#xe9;" horiz-adv-x="828" d="M658 143q21 11 37 4.5t18 -28.5l7 -67q3 -26 -22 -37q-87 -39 -210 -39q-207 0 -320.5 141t-113.5 405q0 265 95 401.5t269 136.5q176 0 270 -135.5t94 -398.5q0 -22 -2 -34q-6 -36 -43 -36h-511q12 -344 274 -344q90 0 158 31zM224 588h386q-3 336 -192 336 q-188 0 -194 -336zM306 1215l160 259q16 26 49 26h118q21 0 25 -14t-8 -29l-197 -254q-21 -27 -60 -27h-64q-21 0 -27.5 11t4.5 28z" />
<glyph unicode="&#xea;" horiz-adv-x="828" d="M658 143q21 11 37 4.5t18 -28.5l7 -67q3 -26 -22 -37q-87 -39 -210 -39q-207 0 -320.5 141t-113.5 405q0 265 95 401.5t269 136.5q176 0 270 -135.5t94 -398.5q0 -22 -2 -34q-6 -36 -43 -36h-511q12 -344 274 -344q90 0 158 31zM224 588h386q-3 336 -192 336 q-188 0 -194 -336zM327 1500h146q25 0 39 -24l147 -251q12 -23 4 -36t-33 -13h-72q-31 0 -45 25l-113 191l-113 -191q-14 -25 -45 -25h-72q-25 0 -33 13t4 36l147 251q14 24 39 24z" />
<glyph unicode="&#xeb;" horiz-adv-x="828" d="M658 143q21 11 37 4.5t18 -28.5l7 -67q3 -26 -22 -37q-87 -39 -210 -39q-207 0 -320.5 141t-113.5 405q0 265 95 401.5t269 136.5q176 0 270 -135.5t94 -398.5q0 -22 -2 -34q-6 -36 -43 -36h-511q12 -344 274 -344q90 0 158 31zM224 588h386q-3 336 -192 336 q-188 0 -194 -336zM158 1350q0 57 22.5 81.5t67.5 24.5t67.5 -24.5t22.5 -81.5t-22.5 -81.5t-67.5 -24.5t-67.5 24.5t-22.5 81.5zM486 1350q0 57 22.5 81.5t67.5 24.5t67.5 -24.5t22.5 -81.5t-22.5 -81.5t-67.5 -24.5t-67.5 24.5t-22.5 81.5z" />
<glyph unicode="&#xec;" horiz-adv-x="396" d="M113 37v962q0 15 11 26t26 11h92q16 0 26.5 -11t10.5 -26v-962q0 -15 -10.5 -26t-26.5 -11h-92q-15 0 -26 11t-11 26zM121 1474l160 -259q11 -17 4.5 -28t-27.5 -11h-64q-39 0 -60 27l-197 254q-12 15 -8 29t25 14h118q33 0 49 -26z" />
<glyph unicode="&#xed;" horiz-adv-x="396" d="M115 37v962q0 15 11 26t26 11h92q16 0 26.5 -11t10.5 -26v-962q0 -15 -10.5 -26t-26.5 -11h-92q-15 0 -26 11t-11 26zM110 1215l160 259q16 26 49 26h118q21 0 25 -14t-8 -29l-197 -254q-21 -27 -60 -27h-64q-21 0 -27.5 11t4.5 28z" />
<glyph unicode="&#xee;" horiz-adv-x="396" d="M114 37v962q0 15 11 26t26 11h92q16 0 26.5 -11t10.5 -26v-962q0 -15 -10.5 -26t-26.5 -11h-92q-15 0 -26 11t-11 26zM113 1500h146q25 0 39 -24l147 -251q12 -23 4 -36t-33 -13h-72q-31 0 -45 25l-113 191l-113 -191q-14 -25 -45 -25h-72q-25 0 -33 13t4 36l147 251 q14 24 39 24z" />
<glyph unicode="&#xef;" horiz-adv-x="396" d="M114 37v962q0 15 11 26t26 11h92q16 0 26.5 -11t10.5 -26v-962q0 -15 -10.5 -26t-26.5 -11h-92q-15 0 -26 11t-11 26zM-56 1350q0 57 22.5 81.5t67.5 24.5t67.5 -24.5t22.5 -81.5t-22.5 -81.5t-67.5 -24.5t-67.5 24.5t-22.5 81.5zM272 1350q0 57 22.5 81.5t67.5 24.5 t67.5 -24.5t22.5 -81.5t-22.5 -81.5t-67.5 -24.5t-67.5 24.5t-22.5 81.5z" />
<glyph unicode="&#xf0;" horiz-adv-x="854" d="M422 844q-200 0 -200 -366q0 -364 182 -364q51 0 88.5 24.5t68 82.5t46 163.5t15.5 257.5q0 44 -2 64q-23 59 -78.5 98.5t-119.5 39.5zM768 1212l-112 -36q134 -194 134 -534q0 -664 -386 -664q-162 0 -256 121.5t-94 378.5q0 235 90.5 368.5t247.5 133.5q135 0 202 -72 q-31 130 -98 216l-266 -87q-16 -5 -29 2.5t-17 22.5l-12 44q-4 14 3.5 26t22.5 17l200 65q-60 39 -145 62q-31 8 -28 38l8 82q1 17 15 25.5t32 3.5q180 -50 296 -155l162 53q16 5 29 -2.5t17 -22.5l12 -45q8 -29 -28 -41z" />
<glyph unicode="&#xf1;" horiz-adv-x="890" d="M630 37v625q0 142 -42.5 202t-131.5 60q-58 0 -107 -24.5t-79 -69.5v-793q0 -15 -10.5 -26t-26.5 -11h-92q-15 0 -26 11t-11 26v962q0 15 11 26t26 11h92q16 0 26.5 -11t10.5 -26v-37q85 98 226 98q143 0 221.5 -99.5t78.5 -298.5v-625q0 -15 -11 -26t-27 -11h-91 q-15 0 -26 11t-11 26zM542 1332q23 0 32.5 22.5t10.5 77.5q0 14 11 25t26 11h60q16 0 27 -11t11 -26v-9q0 -110 -39 -164t-107 -54q-42 0 -80 22t-60.5 48t-43.5 48t-32 22q-23 0 -32.5 -22.5t-10.5 -77.5q0 -14 -11 -25t-26 -11h-60q-16 0 -27 11t-11 26v9q0 110 39 164 t107 54q42 0 80.5 -22t60 -48t42.5 -48t33 -22z" />
<glyph unicode="&#xf2;" d="M440 1060q179 0 282.5 -136.5t103.5 -405.5t-103.5 -405.5t-282.5 -136.5t-282.5 136.5t-103.5 405.5t103.5 405.5t282.5 136.5zM440 112q101 0 159.5 99t58.5 307t-58.5 307t-159.5 99t-159.5 -99t-58.5 -307t58.5 -307t159.5 -99zM399 1474l160 -259q11 -17 4.5 -28 t-27.5 -11h-64q-39 0 -60 27l-197 254q-12 15 -8 29t25 14h118q33 0 49 -26z" />
<glyph unicode="&#xf3;" d="M440 1060q179 0 282.5 -136.5t103.5 -405.5t-103.5 -405.5t-282.5 -136.5t-282.5 136.5t-103.5 405.5t103.5 405.5t282.5 136.5zM440 112q101 0 159.5 99t58.5 307t-58.5 307t-159.5 99t-159.5 -99t-58.5 -307t58.5 -307t159.5 -99zM316 1215l160 259q16 26 49 26h118 q21 0 25 -14t-8 -29l-197 -254q-21 -27 -60 -27h-64q-21 0 -27.5 11t4.5 28z" />
<glyph unicode="&#xf4;" d="M440 1060q179 0 282.5 -136.5t103.5 -405.5t-103.5 -405.5t-282.5 -136.5t-282.5 136.5t-103.5 405.5t103.5 405.5t282.5 136.5zM440 112q101 0 159.5 99t58.5 307t-58.5 307t-159.5 99t-159.5 -99t-58.5 -307t58.5 -307t159.5 -99zM355 1500h146q25 0 39 -24l147 -251 q12 -23 4 -36t-33 -13h-72q-31 0 -45 25l-113 191l-113 -191q-14 -25 -45 -25h-72q-25 0 -33 13t4 36l147 251q14 24 39 24z" />
<glyph unicode="&#xf5;" d="M440 1060q179 0 282.5 -136.5t103.5 -405.5t-103.5 -405.5t-282.5 -136.5t-282.5 136.5t-103.5 405.5t103.5 405.5t282.5 136.5zM440 112q101 0 159.5 99t58.5 307t-58.5 307t-159.5 99t-159.5 -99t-58.5 -307t58.5 -307t159.5 -99zM532 1332q23 0 32.5 22.5t10.5 77.5 q0 14 11 25t26 11h60q16 0 27 -11t11 -26v-9q0 -110 -39 -164t-107 -54q-42 0 -80 22t-60.5 48t-43.5 48t-32 22q-23 0 -32.5 -22.5t-10.5 -77.5q0 -14 -11 -25t-26 -11h-60q-16 0 -27 11t-11 26v9q0 110 39 164t107 54q42 0 80.5 -22t60 -48t42.5 -48t33 -22z" />
<glyph unicode="&#xf6;" d="M440 1060q179 0 282.5 -136.5t103.5 -405.5t-103.5 -405.5t-282.5 -136.5t-282.5 136.5t-103.5 405.5t103.5 405.5t282.5 136.5zM440 112q101 0 159.5 99t58.5 307t-58.5 307t-159.5 99t-159.5 -99t-58.5 -307t58.5 -307t159.5 -99zM186 1350q0 57 22.5 81.5t67.5 24.5 t67.5 -24.5t22.5 -81.5t-22.5 -81.5t-67.5 -24.5t-67.5 24.5t-22.5 81.5zM514 1350q0 57 22.5 81.5t67.5 24.5t67.5 -24.5t22.5 -81.5t-22.5 -81.5t-67.5 -24.5t-67.5 24.5t-22.5 81.5z" />
<glyph unicode="&#xf7;" horiz-adv-x="1060" d="M428 268q0 118 102 118t102 -118t-102 -118t-102 118zM428 1060q0 118 102 118t102 -118t-102 -118t-102 118zM112 736h837q15 0 26 -10.5t11 -26.5v-68q0 -15 -11 -27t-26 -12h-837q-15 0 -26.5 12t-11.5 27v68q0 16 11 26.5t27 10.5z" />
<glyph unicode="&#xf8;" d="M803 1204l-107 -251q128 -141 128 -435q0 -269 -103.5 -405.5t-282.5 -136.5q-79 0 -147 28l-85 -201q-10 -23 -35 -23h-63q-27 0 -36 14.5t1 37.5l107 251q-128 139 -128 435q0 269 103.5 405.5t282.5 136.5q78 0 146 -28l86 201q10 23 35 23h63q27 0 36 -14.5t-1 -37.5 zM438 112q101 0 159.5 99t58.5 307q0 158 -36 257l-273 -639q38 -24 91 -24zM220 518q0 -162 35 -258l273 640q-40 24 -90 24q-101 0 -159.5 -99t-58.5 -307z" />
<glyph unicode="&#xf9;" horiz-adv-x="890" d="M260 999v-625q0 -142 42.5 -202t131.5 -60q58 0 107 24.5t79 69.5v793q0 15 10.5 26t26.5 11h92q15 0 26 -11t11 -26v-962q0 -15 -11 -26t-26 -11h-92q-16 0 -26.5 11t-10.5 26v37q-85 -98 -226 -98q-143 0 -221.5 99.5t-78.5 298.5v625q0 15 11 26t27 11h91q15 0 26 -11 t11 -26zM385 1474l160 -259q11 -17 4.5 -28t-27.5 -11h-64q-39 0 -60 27l-197 254q-12 15 -8 29t25 14h118q33 0 49 -26z" />
<glyph unicode="&#xfa;" horiz-adv-x="890" d="M260 999v-625q0 -142 42.5 -202t131.5 -60q58 0 107 24.5t79 69.5v793q0 15 10.5 26t26.5 11h92q15 0 26 -11t11 -26v-962q0 -15 -11 -26t-26 -11h-92q-16 0 -26.5 11t-10.5 26v37q-85 -98 -226 -98q-143 0 -221.5 99.5t-78.5 298.5v625q0 15 11 26t27 11h91q15 0 26 -11 t11 -26zM360 1215l160 259q16 26 49 26h118q21 0 25 -14t-8 -29l-197 -254q-21 -27 -60 -27h-64q-21 0 -27.5 11t4.5 28z" />
<glyph unicode="&#xfb;" horiz-adv-x="890" d="M260 999v-625q0 -142 42.5 -202t131.5 -60q58 0 107 24.5t79 69.5v793q0 15 10.5 26t26.5 11h92q15 0 26 -11t11 -26v-962q0 -15 -11 -26t-26 -11h-92q-16 0 -26.5 11t-10.5 26v37q-85 -98 -226 -98q-143 0 -221.5 99.5t-78.5 298.5v625q0 15 11 26t27 11h91q15 0 26 -11 t11 -26zM355 1500h146q25 0 39 -24l147 -251q12 -23 4 -36t-33 -13h-72q-31 0 -45 25l-113 191l-113 -191q-14 -25 -45 -25h-72q-25 0 -33 13t4 36l147 251q14 24 39 24z" />
<glyph unicode="&#xfc;" horiz-adv-x="890" d="M260 999v-625q0 -142 42.5 -202t131.5 -60q58 0 107 24.5t79 69.5v793q0 15 10.5 26t26.5 11h92q15 0 26 -11t11 -26v-962q0 -15 -11 -26t-26 -11h-92q-16 0 -26.5 11t-10.5 26v37q-85 -98 -226 -98q-143 0 -221.5 99.5t-78.5 298.5v625q0 15 11 26t27 11h91q15 0 26 -11 t11 -26zM186 1350q0 57 22.5 81.5t67.5 24.5t67.5 -24.5t22.5 -81.5t-22.5 -81.5t-67.5 -24.5t-67.5 24.5t-22.5 81.5zM514 1350q0 57 22.5 81.5t67.5 24.5t67.5 -24.5t22.5 -81.5t-22.5 -81.5t-67.5 -24.5t-67.5 24.5t-22.5 81.5z" />
<glyph unicode="&#xfd;" horiz-adv-x="814" d="M220 -342l99 342l-298 989q-5 19 4.5 33t30.5 14h91q33 0 41 -31l213 -759l212 762q3 12 13.5 20t23.5 8h95q19 0 29 -14t5 -33l-392 -1348q-8 -27 -36 -27h-93q-25 0 -34.5 12t-3.5 32zM324 1215l160 259q16 26 49 26h118q21 0 25 -14t-8 -29l-197 -254q-21 -27 -60 -27 h-64q-21 0 -27.5 11t4.5 28z" />
<glyph unicode="&#xfe;" d="M270 74v-423q0 -15 -11 -26t-26 -11h-91q-16 0 -27 11t-11 26v1772q0 15 11 26t27 11h91q15 0 26 -11t11 -26v-461q82 98 210 98q162 0 254 -139t92 -403t-92 -403t-254 -139q-128 0 -210 98zM658 518q0 406 -220 406q-51 0 -95 -25t-73 -69v-624q29 -44 73 -69t95 -25 q220 0 220 406z" />
<glyph unicode="&#xff;" horiz-adv-x="814" d="M220 -342l99 342l-298 989q-5 19 4.5 33t30.5 14h91q33 0 41 -31l213 -759l212 762q3 12 13.5 20t23.5 8h95q19 0 29 -14t5 -33l-392 -1348q-8 -27 -36 -27h-93q-25 0 -34.5 12t-3.5 32zM152 1350q0 57 22.5 81.5t67.5 24.5t67.5 -24.5t22.5 -81.5t-22.5 -81.5 t-67.5 -24.5t-67.5 24.5t-22.5 81.5zM480 1350q0 57 22.5 81.5t67.5 24.5t67.5 -24.5t22.5 -81.5t-22.5 -81.5t-67.5 -24.5t-67.5 24.5t-22.5 81.5z" />
<glyph unicode="&#x152;" horiz-adv-x="1274" d="M240 700q0 -514 366 -552v1102q-366 -32 -366 -550zM1170 0h-536q-263 0 -416.5 180.5t-153.5 519.5q0 338 153.5 519t416.5 181h523q15 0 26 -11t11 -27v-72q0 -16 -11 -27t-26 -11h-377v-458h340q15 0 26.5 -11t11.5 -27v-72q0 -16 -11.5 -27t-26.5 -11h-340v-500h390 q16 0 27 -11t11 -27v-70q0 -16 -11 -27t-27 -11z" />
<glyph unicode="&#x153;" horiz-adv-x="1356" d="M222 518q0 -408 194 -408q192 0 192 408q0 406 -192 406q-194 0 -194 -406zM780 586h364q-1 166 -49 254t-135 88q-83 0 -130 -87.5t-50 -254.5zM1265 454h-485q24 -344 254 -344q84 0 153 41q20 12 36.5 5.5t18.5 -29.5l7 -67q2 -22 -22 -37q-75 -47 -197 -47 q-126 0 -208.5 57t-121.5 161q-37 -104 -109 -161t-175 -57q-176 0 -269 138t-93 404q0 265 93 403.5t269 138.5q92 0 168.5 -57t115.5 -157q33 102 104 158t164 56q165 0 253.5 -139.5t88.5 -402.5q0 -18 -2 -29q-6 -35 -43 -35z" />
<glyph unicode="&#x178;" horiz-adv-x="1008" d="M540 0h-96q-16 0 -27 11t-11 27v516l-370 795q-9 20 -0.5 35.5t30.5 15.5h101q25 0 35 -23l290 -643l290 643q10 23 35 23h101q22 0 30.5 -15.5t-0.5 -35.5l-370 -795v-516q0 -16 -11 -27t-27 -11zM250 1698q0 57 22.5 81.5t67.5 24.5t67.5 -24.5t22.5 -81.5t-22.5 -81.5 t-67.5 -24.5t-67.5 24.5t-22.5 81.5zM578 1698q0 57 22.5 81.5t67.5 24.5t67.5 -24.5t22.5 -81.5t-22.5 -81.5t-67.5 -24.5t-67.5 24.5t-22.5 81.5z" />
<glyph unicode="&#x2c6;" horiz-adv-x="660" d="M245 1460h146q25 0 39 -24l147 -251q12 -23 4 -36t-33 -13h-72q-31 0 -45 25l-113 191l-113 -191q-14 -25 -45 -25h-72q-25 0 -33 13t4 36l147 251q14 24 39 24z" />
<glyph unicode="&#x2dc;" horiz-adv-x="660" d="M422 1294q23 0 32.5 22.5t10.5 77.5q0 14 11 25t26 11h60q16 0 27 -11t11 -26v-9q0 -110 -39 -164t-107 -54q-42 0 -80 22t-60.5 48t-43.5 48t-32 22q-23 0 -32.5 -22.5t-10.5 -77.5q0 -14 -11 -25t-26 -11h-60q-16 0 -27 11t-11 26v9q0 110 39 164t107 54q42 0 80.5 -22 t60 -48t42.5 -48t33 -22z" />
<glyph unicode="&#x2000;" horiz-adv-x="947" />
<glyph unicode="&#x2001;" horiz-adv-x="1894" />
<glyph unicode="&#x2002;" horiz-adv-x="947" />
<glyph unicode="&#x2003;" horiz-adv-x="1894" />
<glyph unicode="&#x2004;" horiz-adv-x="631" />
<glyph unicode="&#x2005;" horiz-adv-x="473" />
<glyph unicode="&#x2006;" horiz-adv-x="315" />
<glyph unicode="&#x2007;" horiz-adv-x="315" />
<glyph unicode="&#x2008;" horiz-adv-x="236" />
<glyph unicode="&#x2009;" horiz-adv-x="378" />
<glyph unicode="&#x200a;" horiz-adv-x="105" />
<glyph unicode="&#x2010;" horiz-adv-x="712" d="M580 584h-449q-15 0 -26 10.5t-11 26.5v86q0 15 11 26t26 11h449q16 0 27 -11t11 -26v-86q0 -16 -11 -26.5t-27 -10.5z" />
<glyph unicode="&#x2011;" horiz-adv-x="712" d="M580 584h-449q-15 0 -26 10.5t-11 26.5v86q0 15 11 26t26 11h449q16 0 27 -11t11 -26v-86q0 -16 -11 -26.5t-27 -10.5z" />
<glyph unicode="&#x2012;" horiz-adv-x="712" d="M580 584h-449q-15 0 -26 10.5t-11 26.5v86q0 15 11 26t26 11h449q16 0 27 -11t11 -26v-86q0 -16 -11 -26.5t-27 -10.5z" />
<glyph unicode="&#x2013;" horiz-adv-x="1000" d="M963 592h-926q-15 0 -26 11t-11 26v70q0 16 11 26.5t26 10.5h926q15 0 26 -10.5t11 -26.5v-70q0 -15 -11 -26t-26 -11z" />
<glyph unicode="&#x2014;" horiz-adv-x="2000" d="M1963 592h-1926q-15 0 -26 11t-11 26v70q0 16 11 26.5t26 10.5h1926q15 0 26 -10.5t11 -26.5v-70q0 -15 -11 -26t-26 -11z" />
<glyph unicode="&#x2018;" horiz-adv-x="456" d="M326 1451q-64 -78 -64 -175q70 -17 70 -114q0 -118 -102 -118t-102 118q0 116 30.5 201t99.5 153q13 12 27 12.5t23 -12.5l20 -30q12 -18 -2 -35z" />
<glyph unicode="&#x2019;" horiz-adv-x="456" d="M128 1137q64 78 64 175q-70 17 -70 114q0 118 102 118t102 -118q0 -116 -30.5 -201t-99.5 -153q-13 -12 -27 -12.5t-23 12.5l-20 30q-12 18 2 35z" />
<glyph unicode="&#x201a;" horiz-adv-x="456" d="M128 -195q64 78 64 175q-70 17 -70 114q0 118 102 118t102 -118q0 -116 -30.5 -201t-99.5 -153q-13 -12 -27 -12.5t-23 12.5l-20 30q-12 18 2 35z" />
<glyph unicode="&#x201c;" horiz-adv-x="720" d="M326 1451q-64 -78 -64 -175q70 -17 70 -114q0 -118 -102 -118t-102 118q0 116 30.5 201t99.5 153q13 12 27 12.5t23 -12.5l20 -30q12 -18 -2 -35zM590 1451q-64 -78 -64 -175q70 -17 70 -114q0 -118 -102 -118t-102 118q0 116 30.5 201t99.5 153q13 12 27 12.5t23 -12.5 l20 -30q12 -18 -2 -35z" />
<glyph unicode="&#x201d;" horiz-adv-x="720" d="M128 1137q64 78 64 175q-70 17 -70 114q0 118 102 118t102 -118q0 -116 -30.5 -201t-99.5 -153q-13 -12 -27 -12.5t-23 12.5l-20 30q-12 18 2 35zM392 1137q64 78 64 175q-70 17 -70 114q0 118 102 118t102 -118q0 -116 -30.5 -201t-99.5 -153q-13 -12 -27 -12.5 t-23 12.5l-20 30q-12 18 2 35z" />
<glyph unicode="&#x201e;" horiz-adv-x="720" d="M128 -195q64 78 64 175q-70 17 -70 114q0 118 102 118t102 -118q0 -116 -30.5 -201t-99.5 -153q-13 -12 -27 -12.5t-23 12.5l-20 30q-12 18 2 35zM392 -195q64 78 64 175q-70 17 -70 114q0 118 102 118t102 -118q0 -116 -30.5 -201t-99.5 -153q-13 -12 -27 -12.5 t-23 12.5l-20 30q-12 18 2 35z" />
<glyph unicode="&#x2022;" horiz-adv-x="680" d="M100 664q0 266 240 266t240 -266t-240 -266t-240 266z" />
<glyph unicode="&#x2026;" horiz-adv-x="1276" d="M126 94q0 118 102 118t102 -118t-102 -118t-102 118zM536 94q0 118 102 118t102 -118t-102 -118t-102 118zM946 94q0 118 102 118t102 -118t-102 -118t-102 118z" />
<glyph unicode="&#x202f;" horiz-adv-x="378" />
<glyph unicode="&#x2039;" horiz-adv-x="592" d="M114 610v28q0 36 26 61l308 294q18 18 33 13t15 -31v-89q0 -33 -21 -51l-235 -211l235 -211q21 -18 21 -51v-89q0 -26 -15 -31t-33 13l-308 294q-26 25 -26 61z" />
<glyph unicode="&#x203a;" horiz-adv-x="592" d="M478 638v-28q0 -36 -26 -61l-308 -294q-18 -18 -33 -13t-15 31v89q0 33 21 51l235 211l-235 211q-21 18 -21 51v89q0 26 15 31t33 -13l308 -294q26 -25 26 -61z" />
<glyph unicode="&#x205f;" horiz-adv-x="473" />
<glyph unicode="&#x20ac;" horiz-adv-x="932" d="M71 630h45q-6 67 0 138h-45q-16 0 -26.5 10.5t-10.5 26.5v36q0 16 10.5 26.5t26.5 10.5h53q35 268 175.5 407t354.5 139q102 0 195 -35q11 -4 19 -14.5t7 -22.5l-6 -80q-1 -19 -16 -26.5t-34 -0.5q-76 29 -159 29q-81 0 -145.5 -32.5t-106 -90.5t-66.5 -125t-38 -148h443 q22 0 31.5 -12t4.5 -34l-7 -34q-6 -30 -36 -30h-448q-6 -70 0 -138h400q22 0 31.5 -12t4.5 -34l-7 -34q-6 -30 -36 -30h-381q13 -80 37.5 -146t66 -124t107 -91t149.5 -33q97 0 165 26q18 7 33.5 0.5t16.5 -25.5l6 -80q2 -27 -26 -37q-87 -34 -197 -34q-216 0 -358.5 138 t-179.5 406h-53q-16 0 -26.5 10.5t-10.5 26.5v36q0 16 10.5 26.5t26.5 10.5z" />
<glyph unicode="&#x2122;" horiz-adv-x="1032" d="M398 1366v-44q0 -15 -9.5 -24.5t-24.5 -9.5h-94v-512q0 -15 -9.5 -24.5t-24.5 -9.5h-62q-15 0 -24.5 9.5t-9.5 24.5v512h-94q-15 0 -24.5 9.5t-9.5 24.5v44q0 15 9.5 24.5t24.5 9.5h318q15 0 24.5 -9.5t9.5 -24.5zM706 968h-28q-24 0 -34 27l-84 229v-445 q0 -16 -11 -26.5t-26 -10.5h-56q-15 0 -26 10.5t-11 25.5v585q0 15 11 26t26 11h99q11 0 21.5 -8.5t14.5 -19.5l90 -252l90 252q4 11 14.5 19.5t21.5 8.5h99q15 0 26 -11t11 -26v-585q0 -15 -11 -25.5t-26 -10.5h-56q-15 0 -26 10.5t-11 26.5v445l-84 -229q-10 -27 -34 -27z " />
<glyph unicode="&#x25fc;" horiz-adv-x="1035" d="M0 1035h1035v-1035h-1035v1035z" />
</font>
</defs>
</svg>
