<?xml version="1.0" standalone="no"?>
<!DOCTYPE svg PUBLIC "-//W3C//DTD SVG 1.1//EN" "http://www.w3.org/Graphics/SVG/1.1/DTD/svg11.dtd" >
<svg xmlns="http://www.w3.org/2000/svg">
<metadata></metadata>
<defs>
<font id="core_sans_nr_sc_73_ex_extraIt" horiz-adv-x="1440" >
<font-face units-per-em="2000" ascent="1600" descent="-400" />
<missing-glyph horiz-adv-x="720" />
<glyph horiz-adv-x="666" />
<glyph horiz-adv-x="0" />
<glyph horiz-adv-x="0" />
<glyph unicode="&#xd;" horiz-adv-x="682" />
<glyph unicode=" "  horiz-adv-x="720" />
<glyph unicode="&#x09;" horiz-adv-x="720" />
<glyph unicode="&#xa0;" horiz-adv-x="720" />
<glyph unicode="!" horiz-adv-x="744" d="M381 1400h326q16 0 25 -11t6 -27l-58 -300l-171 -608q-5 -14 -18 -25t-27 -11h-223q-14 0 -24 11t-8 25l67 607l58 301q3 16 17 27t30 11zM267 -24q-112 0 -154 41t-26 127q17 85 75.5 126.5t169.5 41.5q112 0 154 -42t25 -126q-16 -86 -74 -127t-170 -41z" />
<glyph unicode="&#x22;" horiz-adv-x="1242" d="M269 821l77 539q2 17 16 28.5t31 11.5h284q16 0 25 -11t6 -27l-8 -43l-153 -501q-5 -14 -18 -24t-28 -10h-201q-15 0 -24 11t-7 26zM787 821l77 539q2 17 16 28.5t31 11.5h284q16 0 25 -11t6 -27l-8 -43l-153 -501q-5 -14 -18 -24t-28 -10h-201q-15 0 -24 11t-7 26z" />
<glyph unicode="#" horiz-adv-x="1708" d="M1470 296h-249l-106 -266q-4 -12 -17.5 -21t-25.5 -9h-247q-19 0 -27.5 13.5t-1.5 32.5l100 250h-334l-106 -266q-4 -12 -17.5 -21t-25.5 -9h-247q-19 0 -27.5 13.5t-1.5 32.5l100 250h-187q-16 0 -25.5 11.5t-5.5 27.5l36 186q3 16 16.5 27.5t29.5 11.5h241l110 278 h-195q-16 0 -25 11.5t-6 27.5l36 186q3 16 17 27.5t30 11.5h249l107 268q5 12 18.5 21t25.5 9h247q19 0 27 -13.5t1 -32.5l-101 -252h334l107 268q5 12 18.5 21t25.5 9h247q19 0 27 -13.5t1 -32.5l-101 -252h187q16 0 25 -11.5t6 -27.5l-36 -186q-3 -16 -17 -27.5t-30 -11.5 h-241l-110 -278h195q16 0 25.5 -11.5t6.5 -27.5l-36 -186q-4 -16 -17.5 -27.5t-29.5 -11.5zM777 838l-110 -278h334l110 278h-334z" />
<glyph unicode="$" horiz-adv-x="1380" d="M128 336q179 -74 424 -74q155 0 221.5 30t78.5 92q8 38 -15.5 66.5t-91.5 57.5t-200 66q-223 63 -310 167t-55 269q72 369 579 409l31 160q4 16 17.5 27.5t29.5 11.5h132q16 0 25.5 -11.5t5.5 -27.5l-30 -157q208 -8 367 -55q12 -4 18.5 -17t2.5 -26l-59 -206 q-6 -20 -22.5 -30t-35.5 -4q-146 50 -363 50q-103 0 -165.5 -13t-88.5 -35t-33 -58q-11 -55 48 -93t244 -94q236 -71 324 -173t56 -268q-35 -184 -173.5 -288.5t-399.5 -127.5l-31 -163q-3 -16 -17 -27.5t-30 -11.5h-132q-16 0 -25 11.5t-6 27.5l30 155q-264 5 -450 71 q-12 4 -18.5 17t-2.5 26l62 212q6 21 23 31t35 3z" />
<glyph unicode="%" horiz-adv-x="2164" d="M217 1018q34 175 167 285.5t332 110.5t289 -110.5t56 -285.5t-167 -285.5t-332 -110.5t-289 110.5t-56 285.5zM497 1018q-16 -82 13 -124t97 -42t113 42t61 124t-12.5 124t-96.5 42t-113.5 -42t-61.5 -124zM1174 382q34 175 167 285.5t332 110.5t289 -110.5t56 -285.5 t-167 -285.5t-332 -110.5t-289 110.5t-56 285.5zM1454 382q-16 -82 12.5 -124t96.5 -42t113.5 42t61.5 124t-13 124t-97 42t-113 -42t-61 -124zM1637 1364l-1257 -1301q-25 -27 -18.5 -45t35.5 -18h115q52 0 85 36l1257 1301q20 20 15 41.5t-31 21.5h-115q-53 0 -86 -36z " />
<glyph unicode="&#x26;" horiz-adv-x="1858" d="M1414 312l267 -245q18 -18 2 -42.5t-46 -24.5h-277q-103 0 -167 59l-65 59q-101 -70 -241 -106t-296 -36q-135 0 -241 25t-180 74.5t-104.5 128.5t-10.5 182q24 125 120.5 221t255.5 153q-74 71 -101 144t-10 160q32 160 188 260t398 100q240 0 360.5 -97t88.5 -261 q-23 -116 -119.5 -206.5t-250.5 -151.5l217 -202q84 93 124 235q4 15 18 28t29 13h256q18 0 27.5 -11t5.5 -28q-35 -130 -101 -241.5t-147 -189.5zM1016 1064q11 57 -28.5 88.5t-123.5 31.5q-79 0 -132 -34t-63 -80q-8 -44 18.5 -88t100.5 -104q110 43 164 88t64 98z M414 382q-14 -73 48.5 -114.5t192.5 -41.5q168 0 272 70l-302 280q-186 -67 -211 -194z" />
<glyph unicode="'" horiz-adv-x="704" d="M259 821l77 539q2 17 16 28.5t31 11.5h284q16 0 25 -11t6 -27l-8 -43l-153 -501q-5 -14 -18 -24t-28 -10h-201q-15 0 -24 11t-7 26z" />
<glyph unicode="(" horiz-adv-x="910" d="M200 621q93 476 500 850q34 29 74 29h195q26 0 32.5 -21t-13.5 -42q-383 -393 -466 -816q-83 -424 148 -818q12 -21 -2.5 -42t-40.5 -21h-195q-42 0 -62 29q-262 371 -170 852z" />
<glyph unicode=")" horiz-adv-x="910" d="M750 621q-92 -477 -500 -852q-34 -29 -74 -29h-195q-26 0 -32.5 21t13.5 42q383 392 466 818q82 423 -148 816q-12 21 2.5 42t40.5 21h195q42 0 62 -29q263 -373 170 -850z" />
<glyph unicode="*" horiz-adv-x="1108" d="M242 359l-93 162q-9 15 -3.5 31.5t21.5 23.5l208 88l-209 88q-17 7 -22 24t4 31l93 162q9 15 26 18.5t31 -7.5l182 -138l-28 226q-2 18 9.5 31t29.5 13h186q17 0 29 -12.5t10 -31.5l-28 -223l179 135q14 11 31 7.5t26 -18.5l93 -162q9 -14 4 -31t-22 -24l-210 -88 l209 -88q16 -7 21.5 -23.5t-3.5 -31.5l-93 -162q-9 -15 -25 -18.5t-32 7.5l-178 135l28 -223q2 -19 -10 -31.5t-29 -12.5h-186q-18 0 -29.5 13t-9.5 31l28 225l-181 -137q-16 -11 -32 -7.5t-25 18.5z" />
<glyph unicode="+" horiz-adv-x="1304" d="M526 199v339h-357q-16 0 -27.5 11.5t-11.5 27.5v174q0 16 11.5 27.5t27.5 11.5h357v339q0 16 11.5 27.5t27.5 11.5h234q16 0 27.5 -11.5t11.5 -27.5v-339h357q16 0 27.5 -11.5t11.5 -27.5v-174q0 -16 -11.5 -27.5t-27.5 -11.5h-357v-339q0 -16 -11.5 -27.5t-27.5 -11.5 h-234q-16 0 -27.5 11.5t-11.5 27.5z" />
<glyph unicode="," horiz-adv-x="720" d="M122 -309q-31 -16 -45 14l-30 62q-13 29 16 48q50 31 88 75t55 90q-140 21 -110 176q34 180 229 180q193 0 159 -180q-62 -317 -362 -465z" />
<glyph unicode="-" horiz-adv-x="848" d="M711 528h-570q-16 0 -25 11.5t-6 27.5l37 194q4 17 17.5 28t29.5 11h570q17 0 26 -11.5t5 -27.5l-37 -194q-3 -16 -17 -27.5t-30 -11.5z" />
<glyph unicode="." horiz-adv-x="720" d="M96 156q34 180 229 180q193 0 159 -180q-36 -180 -229 -180q-195 0 -159 180z" />
<glyph unicode="/" horiz-adv-x="1302" d="M-126 -161l1276 1617q30 40 84 40h220q25 0 32 -19t-10 -40l-1276 -1617q-32 -40 -85 -40h-219q-25 0 -32 19t10 40z" />
<glyph unicode="0" d="M80 700q64 331 279 527.5t537 196.5q215 0 351 -91.5t181.5 -253.5t3.5 -379q-64 -331 -279.5 -527.5t-537.5 -196.5q-215 0 -351 91.5t-181 253.5t-3 379zM488 700q-46 -234 0.5 -339t180.5 -105t221.5 105t133.5 339q45 234 -1.5 339t-180.5 105t-221.5 -105 t-132.5 -339z" />
<glyph unicode="1" d="M753 1048l-294 -170q-14 -8 -29.5 -4.5t-21.5 15.5l-82 162q-7 14 -1 31t22 26l466 269q41 23 99 23h263q16 0 25 -11t6 -27l-257 -1323q-3 -16 -16.5 -27.5t-29.5 -11.5h-314q-16 0 -25.5 11.5t-6.5 27.5z" />
<glyph unicode="2" d="M627 276h555q16 0 25.5 -11.5t6.5 -27.5l-39 -198q-3 -16 -16.5 -27.5t-29.5 -11.5h-1050q-16 0 -25.5 11.5t-6.5 27.5l36 185q6 34 39 52q268 151 526 344q149 111 220 190.5t88 169.5q17 86 -47.5 125t-216.5 39q-173 0 -325 -56q-21 -8 -35 2t-11 32l23 193 q1 11 11 22.5t21 15.5q196 71 456 71q294 0 430 -112t96 -322q-26 -135 -105.5 -243t-224.5 -219q-184 -142 -401 -252z" />
<glyph unicode="3" d="M68 35q-12 4 -18 16t-2 25l58 198q6 20 24 29.5t35 1.5q134 -59 346 -59q323 0 351 150q20 102 -99.5 153t-374.5 53q-16 0 -24.5 11.5t-5.5 27.5l35 179q3 16 15.5 27t28.5 11q240 0 375 42.5t151 125.5q13 67 -51 97.5t-214 30.5q-182 0 -357 -56q-19 -6 -28 2t-7 24 l16 192q4 30 34 41q210 67 470 67q291 0 430.5 -98.5t105.5 -273.5q-24 -124 -104.5 -204.5t-206.5 -117.5q119 -38 174 -124.5t31 -209.5q-38 -196 -230.5 -308t-508.5 -112q-258 0 -449 59z" />
<glyph unicode="4" d="M11 297l42 213q8 44 52 86l820 775q29 29 64 29h332q16 0 25 -11t6 -27l-159 -818h145q16 0 25.5 -11.5t6.5 -27.5l-41 -208q-3 -16 -16.5 -27.5t-29.5 -11.5h-145l-43 -219q-3 -16 -16.5 -27.5t-29.5 -11.5h-298q-16 0 -25.5 11.5t-6.5 27.5l43 219h-720q-16 0 -25 11.5 t-6 27.5zM908 1010l-495 -466h404z" />
<glyph unicode="5" d="M483 244q185 0 280 54t116 162q19 100 -58 145t-253 45q-143 0 -283 -33q-20 -5 -32 6.5t-8 31.5l137 707q3 16 17 27t30 11h950q16 0 25 -11t6 -27l-36 -189q-4 -16 -17.5 -27.5t-29.5 -11.5h-611l-49 -254q82 18 183 18q240 0 357.5 -116.5t75.5 -330.5 q-43 -220 -241 -347.5t-525 -127.5q-245 0 -414 54q-11 4 -16.5 15.5t-2.5 23.5l55 190q6 20 24 30t35 3q119 -48 285 -48z" />
<glyph unicode="6" d="M697 246q104 0 174 55t90 157q21 106 -28 159t-159 53q-159 0 -267 -78q-32 -170 19 -258t171 -88zM1292 1111q-112 45 -274 45q-188 0 -298.5 -74.5t-160.5 -239.5q153 90 358 90q233 0 355 -125.5t79 -346.5t-229 -352.5t-467 -131.5q-152 0 -265.5 42t-186.5 127 t-95 214t10 303q74 380 302.5 571t597.5 191q219 0 369 -50q27 -9 19 -41l-55 -189q-6 -20 -23.5 -30t-35.5 -3z" />
<glyph unicode="7" d="M1446 1362l-37 -194q-12 -55 -50 -109l-727 -1023q-25 -36 -65 -36h-334q-23 0 -30.5 18t6.5 38l756 1058h-682q-16 0 -25 11.5t-6 27.5l40 209q3 16 17 27t30 11h1076q16 0 25 -11t6 -27z" />
<glyph unicode="8" d="M615 -24q-308 0 -458 114t-113 302q23 119 116 211t245 143q-203 100 -164 300q33 173 206.5 275.5t448.5 102.5q270 0 406 -103t103 -275q-19 -96 -93 -172.5t-191 -123.5q137 -62 193.5 -150t33.5 -208q-37 -189 -230.5 -302.5t-502.5 -113.5zM722 628 q-130 -44 -200.5 -105.5t-84.5 -134.5q-13 -68 43 -111t185 -43q124 0 199.5 44t88.5 110q29 145 -231 240zM808 844q95 34 157.5 85t73.5 107q11 58 -39.5 94t-153.5 36q-105 0 -168 -35.5t-75 -94.5q-12 -57 36.5 -105t168.5 -87z" />
<glyph unicode="9" d="M814 1154q-104 0 -174 -55t-89 -157q-21 -106 27.5 -159t158.5 -53q159 0 268 78q32 170 -19.5 258t-171.5 88zM219 289q112 -45 274 -45q188 0 298.5 74.5t160.5 239.5q-153 -90 -358 -90q-233 0 -354.5 125.5t-79.5 346.5q43 221 229 352.5t467 131.5q152 0 265.5 -42 t186.5 -127t95 -214t-10 -303q-74 -380 -302.5 -571t-597.5 -191q-219 0 -368 50q-12 4 -17.5 15.5t-1.5 25.5l54 189q6 20 23.5 30t35.5 3z" />
<glyph unicode=":" horiz-adv-x="720" d="M96 156q34 180 229 180q193 0 159 -180q-36 -180 -229 -180q-195 0 -159 180zM237 880q35 180 229 180t159 -180q-36 -180 -229 -180q-195 0 -159 180z" />
<glyph unicode=";" horiz-adv-x="720" d="M237 880q35 180 229 180t159 -180q-36 -180 -229 -180q-195 0 -159 180zM122 -309q-31 -16 -45 14l-30 62q-13 29 16 48q50 31 88 75t55 90q-140 21 -110 176q34 180 229 180q193 0 159 -180q-62 -317 -362 -465z" />
<glyph unicode="&#x3c;" horiz-adv-x="1304" d="M130 526v276q0 11 8 22t19 15l1026 333q20 7 35.5 -4.5t15.5 -32.5v-218q0 -11 -9 -22.5t-20 -14.5l-762 -216l762 -216q11 -3 20 -14.5t9 -22.5v-218q0 -21 -15.5 -32.5t-35.5 -4.5l-1026 333q-11 4 -19 15t-8 22z" />
<glyph unicode="=" horiz-adv-x="1304" d="M1195 768h-1026q-16 0 -27.5 11t-11.5 27v175q0 16 11.5 27.5t27.5 11.5h1026q16 0 27.5 -11.5t11.5 -27.5v-175q0 -16 -11.5 -27t-27.5 -11zM1195 304h-1026q-16 0 -27.5 11t-11.5 27v175q0 16 11.5 27.5t27.5 11.5h1026q16 0 27.5 -11.5t11.5 -27.5v-175 q0 -16 -11.5 -27t-27.5 -11z" />
<glyph unicode="&#x3e;" horiz-adv-x="1304" d="M1234 802v-276q0 -11 -8 -22t-19 -15l-1026 -333q-20 -7 -35.5 4.5t-15.5 32.5v218q0 11 9 22.5t20 14.5l762 216l-762 216q-11 3 -20 14.5t-9 22.5v218q0 21 15.5 32.5t35.5 4.5l1026 -333q11 -4 19 -15t8 -22z" />
<glyph unicode="?" horiz-adv-x="1270" d="M262 1080q-20 -7 -33.5 3t-11.5 30l20 199q0 27 27 37q207 75 456 75q304 0 437 -95t97 -277q-44 -226 -347 -378q-84 -40 -125.5 -87t-53.5 -113l-5 -25q-3 -16 -16.5 -27.5t-30.5 -11.5h-299q-16 0 -24.5 11t-5.5 28l7 35q26 136 93.5 226t195.5 150q108 50 151 88 t53 88q10 52 -44.5 77t-195.5 25q-174 0 -345 -58zM443 -24q-112 0 -154 41t-26 127q17 85 75.5 126.5t169.5 41.5q112 0 154 -42t25 -126q-16 -86 -74 -127t-170 -41z" />
<glyph unicode="@" horiz-adv-x="1930" d="M851 336q123 0 215 88l126 320q-30 42 -106 42q-108 0 -207.5 -91t-125.5 -223q-13 -67 13 -101.5t85 -34.5zM1474 842q15 -26 -5 -78l-129 -342q-15 -75 6.5 -115.5t74.5 -40.5q77 0 138 88.5t89 233.5q36 188 -18 335t-193 230t-343 83q-184 0 -353 -91t-285.5 -248 t-153.5 -347q-38 -196 20.5 -353t198 -245t334.5 -88q247 0 459 123q17 10 32 5.5t19 -20.5l27 -106q9 -32 -19 -47q-268 -143 -562 -143q-183 0 -334 64t-249 177t-136.5 277.5t-1.5 355.5q37 189 138.5 353.5t241.5 278t312 178t348 64.5q186 0 337.5 -60t250.5 -167.5 t137.5 -265t2.5 -343.5q-44 -225 -175.5 -359.5t-320.5 -134.5q-87 0 -148 37.5t-81 102.5q-161 -130 -369 -130q-170 0 -249.5 100.5t-48.5 259.5q30 155 133.5 285t244.5 201.5t284 71.5q242 0 346 -180z" />
<glyph unicode="A" horiz-adv-x="1668" d="M1085 286h-592l-142 -257q-16 -29 -51 -29h-336q-23 0 -31 16.5t4 38.5l788 1320q5 10 18 17.5t24 7.5h478q11 0 20.5 -7.5t11.5 -17.5l274 -1320q4 -22 -10 -38.5t-37 -16.5h-336q-37 0 -41 29zM651 572h388l-89 542z" />
<glyph unicode="B" horiz-adv-x="1554" d="M736 0h-657q-16 0 -25.5 12t-6.5 28l257 1320q3 16 17 28t30 12h629q290 0 428.5 -100t103.5 -278q-18 -96 -78.5 -167t-153.5 -111q112 -35 161.5 -122.5t28.5 -199.5q-41 -209 -228 -315.5t-506 -106.5zM1054 426q16 83 -41.5 125.5t-201.5 42.5h-244l-66 -338h244 q276 0 309 170zM1091 996q15 73 -35.5 110.5t-171.5 37.5h-210l-58 -296h210q236 0 265 148z" />
<glyph unicode="C" horiz-adv-x="1482" d="M1293 34q-193 -58 -442 -58q-418 0 -612.5 192.5t-128.5 531.5q66 338 334.5 531t683.5 193q245 0 414 -59q11 -4 17 -15.5t3 -24.5l-59 -203q-7 -21 -24.5 -31t-35.5 -3q-124 48 -305 48q-263 0 -417 -112t-195 -324q-42 -215 73 -325.5t378 -110.5q176 0 326 50 q21 7 34.5 -2.5t11.5 -30.5l-20 -205q-1 -13 -11.5 -25.5t-24.5 -16.5z" />
<glyph unicode="D" horiz-adv-x="1642" d="M604 0h-524q-17 0 -26.5 12t-6.5 28l257 1320q3 16 17 28t31 12h524q266 0 444 -77.5t255 -236t33 -386.5q-45 -229 -184 -387.5t-346.5 -235.5t-473.5 -77zM1200 700q44 227 -54 325.5t-340 98.5h-144l-165 -848h144q243 0 378.5 98t180.5 326z" />
<glyph unicode="E" horiz-adv-x="1386" d="M1368 1124h-706l-53 -274h656q16 0 25.5 -11.5t6.5 -28.5l-38 -197q-4 -16 -17.5 -27.5t-30.5 -11.5h-656l-58 -298h722q17 0 26.5 -11.5t6.5 -27.5l-39 -197q-3 -17 -17 -28.5t-30 -11.5h-1086q-17 0 -26.5 12t-6.5 28l257 1320q3 16 17 28t31 12h1070q16 0 25.5 -11.5 t6.5 -28.5l-38 -197q-4 -16 -17.5 -27.5t-30.5 -11.5z" />
<glyph unicode="F" horiz-adv-x="1336" d="M555 574l-104 -534q-3 -16 -16.5 -28t-29.5 -12h-326q-16 0 -25.5 12t-6.5 28l257 1320q3 16 17 28t31 12h1070q16 0 25.5 -11.5t6.5 -28.5l-38 -197q-4 -16 -17.5 -27.5t-30.5 -11.5h-706l-53 -274h656q16 0 25.5 -11.5t6.5 -28.5l-38 -197q-4 -16 -17.5 -27.5 t-30.5 -11.5h-656z" />
<glyph unicode="G" horiz-adv-x="1710" d="M1468 51q-244 -75 -545 -75q-449 0 -663.5 195.5t-149.5 528.5q24 126 83 236t152.5 199.5t215.5 154t279 99.5t336 35q292 0 509 -73q11 -4 17.5 -16.5t2.5 -25.5l-59 -202q-6 -20 -20.5 -30.5t-30.5 -4.5q-181 68 -402 68q-284 0 -459 -113.5t-216 -326.5 q-42 -214 85 -327t387 -113q124 0 208 20l54 278h-300q-17 0 -26.5 12t-5.5 28l32 166q3 16 17 28t31 12h603q16 0 25 -12t6 -28l-131 -675q-2 -11 -13 -22.5t-22 -15.5z" />
<glyph unicode="H" horiz-adv-x="1716" d="M47 40l257 1320q3 16 17 28t31 12h324q16 0 25.5 -11.5t6.5 -28.5l-92 -474h628l92 474q3 16 17 28t31 12h324q16 0 25.5 -11.5t6.5 -28.5l-257 -1320q-3 -17 -17 -28.5t-30 -11.5h-324q-17 0 -26.5 12t-6.5 28l109 560h-628l-109 -560q-3 -17 -17 -28.5t-30 -11.5h-324 q-17 0 -26.5 12t-6.5 28z" />
<glyph unicode="I" horiz-adv-x="704" d="M361 1400h325q16 0 25.5 -11.5t6.5 -28.5l-257 -1320q-3 -17 -17 -28.5t-30 -11.5h-325q-16 0 -25.5 12t-6.5 28l257 1320q3 16 17 28t30 12z" />
<glyph unicode="J" horiz-adv-x="1164" d="M615 492l169 868q3 16 17 28t30 12h325q16 0 25.5 -11.5t6.5 -28.5l-169 -870q-101 -514 -713 -514q-218 0 -358 51q-10 4 -15.5 16.5t-2.5 24.5l60 210q6 22 24 31t37 1q106 -46 249 -46q137 0 214.5 53t100.5 175z" />
<glyph unicode="K" horiz-adv-x="1614" d="M576 681l-125 -641q-3 -17 -17 -28.5t-30 -11.5h-324q-17 0 -26.5 12t-6.5 28l257 1320q3 16 17 28t31 12h324q16 0 25.5 -11.5t6.5 -28.5l-106 -544l598 542q47 42 103 42h329q28 0 33.5 -23t-17.5 -43l-652 -588l491 -681q14 -20 0.5 -42.5t-41.5 -22.5h-336 q-66 0 -100 52z" />
<glyph unicode="L" horiz-adv-x="1378" d="M47 40l257 1320q3 17 17 28.5t30 11.5h326q16 0 25 -12t6 -28l-209 -1074h764q17 0 26.5 -12t5.5 -28l-40 -206q-3 -17 -17 -28.5t-30 -11.5h-1129q-16 0 -25.5 11.5t-6.5 28.5z" />
<glyph unicode="M" horiz-adv-x="2120" d="M1151 424h-218q-37 0 -56 34l-274 498l-178 -916q-3 -17 -17 -28.5t-30 -11.5h-298q-17 0 -26.5 12t-6.5 28l257 1320q3 16 17 28t31 12h367q61 0 88 -50l306 -562l524 562q47 50 108 50h367q16 0 25.5 -11.5t6.5 -28.5l-257 -1320q-3 -17 -17 -28.5t-30 -11.5h-298 q-17 0 -26.5 12t-6.5 28l178 916l-466 -498q-32 -34 -70 -34z" />
<glyph unicode="N" horiz-adv-x="1754" d="M1019 41l-420 891l-174 -892q-3 -17 -17 -28.5t-30 -11.5h-299q-16 0 -25.5 12t-6.5 28l257 1320q3 16 17 28t30 12h373q62 0 82 -41l420 -891l174 892q3 16 17 28t31 12h299q16 0 25 -12t6 -28l-257 -1320q-3 -16 -16.5 -28t-29.5 -12h-373q-63 0 -83 41z" />
<glyph unicode="O" horiz-adv-x="1732" d="M1698 700q-31 -156 -108.5 -288t-194.5 -229.5t-280 -152t-354 -54.5q-128 0 -234.5 25t-184 71t-134 111t-84 145.5t-34 174.5t15.5 197q24 125 77.5 234.5t137 199.5t190 154.5t242.5 100t289 35.5q128 0 234.5 -25t184 -71t134.5 -111t84.5 -145.5t34 -174 t-15.5 -197.5zM514 700q-42 -215 35 -329.5t266 -114.5t311 114.5t164 329.5q41 215 -36 329.5t-266 114.5t-311 -114.5t-163 -329.5z" />
<glyph unicode="P" horiz-adv-x="1474" d="M532 456l-81 -416q-3 -16 -16.5 -28t-29.5 -12h-326q-16 0 -25.5 12t-6.5 28l257 1320q3 16 17 28t30 12h571q156 0 273.5 -29.5t193.5 -87t105 -147.5t6 -208q-46 -233 -245.5 -352.5t-516.5 -119.5h-206zM1092 928q21 109 -45 154.5t-218 45.5h-166l-78 -400h166 q151 0 235.5 46.5t105.5 153.5z" />
<glyph unicode="Q" horiz-adv-x="1732" d="M1698 700q-53 -270 -238.5 -458.5t-472.5 -244.5q-1 -49 54.5 -73t170.5 -24q104 0 184 16q18 4 30 -6t11 -28l-12 -166q-1 -16 -13 -28.5t-28 -14.5q-131 -21 -272 -21q-222 0 -344.5 83t-135.5 248q-209 23 -341.5 122.5t-177 251.5t-7.5 343q24 125 77.5 234.5 t137 199.5t190 154.5t242.5 100t289 35.5q128 0 234.5 -25t184 -71t134.5 -111t84.5 -145.5t34 -174t-15.5 -197.5zM514 700q-42 -215 35 -329.5t266 -114.5t311 114.5t164 329.5q41 215 -36 329.5t-266 114.5t-311 -114.5t-163 -329.5z" />
<glyph unicode="R" horiz-adv-x="1570" d="M595 778h196q279 0 315 180q18 92 -45.5 136t-199.5 44h-196zM1144 570l284 -507q11 -20 -3.5 -41.5t-40.5 -21.5h-317q-57 0 -76 37l-242 479h-205l-93 -476q-3 -17 -17 -28.5t-30 -11.5h-324q-17 0 -26.5 12t-6.5 28l257 1320q3 16 17 28t31 12h588q148 0 262.5 -27 t192 -80.5t109 -138.5t10.5 -196q-28 -142 -124 -239.5t-246 -148.5z" />
<glyph unicode="S" horiz-adv-x="1362" d="M128 336q179 -74 424 -74q155 0 221.5 30t78.5 92q8 38 -15.5 66.5t-91.5 57.5t-200 66q-223 63 -310 167t-55 269q80 414 704 414q237 0 440 -53q20 -5 29 -20t2 -36l-56 -197q-6 -20 -22.5 -30t-35.5 -4q-146 50 -363 50q-103 0 -165.5 -13t-88.5 -35t-33 -58 q-11 -55 48 -93t244 -94q236 -71 324 -173t56 -268q-41 -212 -218.5 -318t-525.5 -106q-263 0 -476 66q-45 14 -32 59l59 201q6 21 23 31t35 3z" />
<glyph unicode="T" horiz-adv-x="1380" d="M395 40l209 1074h-428q-16 0 -25.5 11.5t-6.5 28.5l40 206q3 16 17 28t31 12h1261q16 0 25.5 -11.5t6.5 -28.5l-40 -206q-3 -16 -17 -28t-31 -12h-429l-209 -1074q-3 -17 -17 -28.5t-30 -11.5h-324q-17 0 -26.5 12t-6.5 28z" />
<glyph unicode="U" horiz-adv-x="1736" d="M763 -24q-165 0 -290.5 37.5t-208 110.5t-112.5 187.5t-1 262.5l153 786q3 16 17 28t31 12h325q16 0 25 -12t6 -28l-152 -782q-31 -159 32 -235.5t231 -76.5t261 76.5t124 235.5l152 782q3 16 17 28t30 12h325q16 0 25.5 -11.5t6.5 -28.5l-153 -786q-38 -196 -156.5 -332 t-292.5 -201t-395 -65z" />
<glyph unicode="V" horiz-adv-x="1720" d="M977 0h-434q-23 0 -39 12.5t-20 32.5l-271 1300q-4 22 10.5 38.5t37.5 16.5h330q41 0 48 -42l176 -1071l592 1071q25 42 66 42h330q23 0 31 -16.5t-5 -38.5l-777 -1300q-26 -45 -75 -45z" />
<glyph unicode="W" horiz-adv-x="2452" d="M1194 1400h408q19 0 31 -12.5t12 -29.5l42 -1000l479 1000q22 42 66 42h307q22 0 30.5 -16t-2.5 -36l-673 -1304q-23 -44 -63 -44h-429q-44 0 -46 50l-31 974l-411 -974q-22 -50 -64 -50h-429q-41 0 -47 44l-165 1304q-3 20 11.5 36t36.5 16h307q44 0 48 -42l91 -1000 l430 1000q8 17 25 29.5t36 12.5z" />
<glyph unicode="X" horiz-adv-x="1684" d="M932 982l403 390q28 28 91 28h305q27 0 32.5 -22.5t-14.5 -42.5l-643 -623l417 -647q13 -20 -1.5 -42.5t-41.5 -22.5h-305q-61 0 -80 28l-267 415l-429 -415q-29 -28 -90 -28h-305q-27 0 -33 22.5t14 42.5l669 647l-401 623q-13 20 2 42.5t42 22.5h305q62 0 79 -28z" />
<glyph unicode="Y" horiz-adv-x="1720" d="M922 0h-324q-17 0 -26.5 12t-6.5 28l99 508l-427 787q-12 21 3.5 43t41.5 22h308q54 0 74 -39l260 -515l460 515q34 39 90 39h308q26 0 32.5 -22t-13.5 -43l-733 -787l-99 -508q-3 -17 -17 -28.5t-30 -11.5z" />
<glyph unicode="Z" horiz-adv-x="1376" d="M-39 40l34 174q14 71 59 112l860 788h-670q-16 0 -25.5 11.5t-6.5 28.5l40 206q3 16 17 28t31 12h1131q16 0 25 -12t6 -28l-35 -179q-13 -68 -74 -123l-843 -772h727q17 0 26.5 -12t5.5 -28l-40 -206q-3 -17 -17 -28.5t-30 -11.5h-1188q-17 0 -26.5 12t-6.5 28z" />
<glyph unicode="[" horiz-adv-x="948" d="M77 -221l326 1682q4 17 17.5 28t29.5 11h610q17 0 26 -11.5t5 -27.5l-33 -170q-3 -16 -16.5 -27.5t-29.5 -11.5h-315l-246 -1264h315q16 0 25.5 -11.5t6.5 -27.5l-33 -170q-4 -17 -17.5 -28t-29.5 -11h-610q-17 0 -26 11.5t-5 27.5z" />
<glyph unicode="\" horiz-adv-x="1302" d="M518 1456l647 -1617q9 -21 -5 -40t-39 -19h-220q-54 0 -69 40l-648 1617q-9 21 5 40t39 19h220q53 0 70 -40z" />
<glyph unicode="]" horiz-adv-x="948" d="M911 1461l-326 -1682q-4 -17 -17.5 -28t-29.5 -11h-610q-16 0 -25 11t-5 28l32 170q3 16 16.5 27.5t29.5 11.5h315l246 1264h-315q-16 0 -25.5 11.5t-6.5 27.5l33 170q4 17 17.5 28t29.5 11h610q17 0 26 -11.5t5 -27.5z" />
<glyph unicode="^" horiz-adv-x="1304" d="M542 1400h280q41 0 64 -39l340 -564q13 -21 2.5 -40t-35.5 -19h-227q-50 0 -79 51l-205 367l-205 -367q-29 -51 -79 -51h-227q-25 0 -35.5 19t2.5 40l340 564q23 39 64 39z" />
<glyph unicode="_" horiz-adv-x="1000" d="M-158 -302l11 59q3 16 17 27.5t30 11.5h921q16 0 25 -11.5t6 -27.5l-11 -59q-3 -16 -17 -27t-30 -11h-921q-16 0 -25 11t-6 27z" />
<glyph unicode="`" horiz-adv-x="980" d="M687 1431l165 -246q14 -20 -1 -42.5t-42 -22.5h-128q-67 0 -109 40l-238 231q-16 14 -2.5 41.5t40.5 27.5h245q50 0 70 -29z" />
<glyph unicode="a" horiz-adv-x="1444" d="M904 228h-476l-106 -201q-15 -27 -43 -27h-317q-23 0 -31.5 15.5t3.5 36.5l643 1112q5 10 18.5 18t24.5 8h466q10 0 20.5 -8t12.5 -18l211 -1112q4 -21 -10.5 -36.5t-37.5 -15.5h-317q-14 0 -22.5 8t-10.5 19zM572 498h292l-63 428z" />
<glyph unicode="b" horiz-adv-x="1340" d="M622 0h-563q-17 0 -26 11.5t-6 28.5l216 1110q3 17 17 28.5t31 11.5h538q257 0 378.5 -85.5t91.5 -240.5q-15 -79 -62 -139t-121 -93q88 -33 127 -105.5t21 -164.5q-35 -180 -198 -271t-444 -91zM879 366q12 64 -32.5 97t-156.5 33h-194l-51 -262h194q214 0 240 132z M921 840q10 54 -29 83t-135 29h-172l-44 -226h172q186 0 208 114z" />
<glyph unicode="c" horiz-adv-x="1262" d="M1087 25q-161 -49 -382 -49q-358 0 -524.5 164t-109.5 454t286.5 455t585.5 165q198 0 344 -48q20 -7 28 -19.5t3 -25.5l-51 -180q-5 -21 -23 -31.5t-36 -3.5q-101 38 -249 38q-432 0 -500 -350q-34 -172 60 -261t310 -89q144 0 275 41q20 7 30.5 -4t8.5 -32l-19 -182 q-3 -31 -37 -42z" />
<glyph unicode="d" horiz-adv-x="1412" d="M989 596q36 184 -36.5 261t-257.5 77h-116l-132 -678h116q184 0 287 78t139 262zM524 0h-464q-17 0 -26.5 12t-6.5 28l216 1110q3 16 17 28t31 12h464q343 0 508 -151.5t108 -442.5t-280.5 -443.5t-566.5 -152.5z" />
<glyph unicode="e" horiz-adv-x="1198" d="M27 40l216 1110q3 17 17 28.5t31 11.5h920q17 0 26 -11.5t6 -28.5l-34 -176q-4 -17 -17.5 -28.5t-30.5 -11.5h-584l-39 -202h540q16 0 25.5 -11.5t6.5 -28.5l-34 -176q-4 -17 -17.5 -28.5t-30.5 -11.5h-540l-43 -220h595q17 0 27 -11.5t6 -28.5l-34 -176 q-3 -17 -17 -28.5t-31 -11.5h-931q-17 0 -26.5 11.5t-6.5 28.5z" />
<glyph unicode="f" horiz-adv-x="1174" d="M27 40l216 1110q3 17 17.5 28.5t31.5 11.5h919q17 0 26 -11.5t6 -28.5l-34 -176q-4 -17 -17.5 -28.5t-30.5 -11.5h-584l-43 -222h540q17 0 26 -12t6 -29l-34 -175q-3 -17 -17 -28.5t-31 -11.5h-540l-81 -416q-3 -17 -16.5 -28.5t-30.5 -11.5h-295q-17 0 -27 11.5t-7 28.5 z" />
<glyph unicode="g" horiz-adv-x="1464" d="M995 256l41 210h-220q-17 0 -26 11.5t-6 28.5l28 144q3 17 17 28.5t31 11.5h492q17 0 26 -11.5t6 -28.5l-112 -573q-1 -11 -12 -22.5t-23 -15.5q-208 -63 -466 -63q-387 0 -571 166.5t-129 451.5q26 135 99 248t187 196t275.5 129.5t354.5 46.5q253 0 434 -63 q11 -4 17.5 -17t3.5 -26l-51 -177q-6 -20 -23 -30t-36 -4q-147 51 -322 51q-236 0 -379.5 -89t-177.5 -265q-34 -175 69 -264.5t308 -89.5q91 0 165 16z" />
<glyph unicode="h" horiz-adv-x="1488" d="M27 40l216 1110q3 16 17 28t31 12h298q16 0 25.5 -11.5t6.5 -28.5l-75 -386h492l75 386q3 16 17 28t31 12h298q16 0 25.5 -11.5t6.5 -28.5l-216 -1110q-3 -17 -17 -28.5t-30 -11.5h-298q-17 0 -26.5 12t-6.5 28l89 458h-492l-89 -458q-3 -17 -17 -28.5t-30 -11.5h-298 q-17 0 -26.5 12t-6.5 28z" />
<glyph unicode="i" horiz-adv-x="640" d="M301 1190h300q16 0 25.5 -11.5t6.5 -28.5l-216 -1110q-3 -17 -17 -28.5t-30 -11.5h-300q-17 0 -26.5 11.5t-6.5 28.5l216 1110q3 17 17 28.5t31 11.5z" />
<glyph unicode="j" horiz-adv-x="1016" d="M496 416l143 734q3 17 17 28.5t31 11.5h300q16 0 25.5 -11.5t6.5 -28.5l-143 -734q-85 -440 -625 -440q-182 0 -308 39q-12 4 -18 16.5t-2 25.5l53 189q7 22 24.5 31t37.5 1q85 -34 200 -34q114 0 177 40t81 132z" />
<glyph unicode="k" horiz-adv-x="1430" d="M623 1150l-87 -450l495 466q25 24 66 24h317q28 0 33.5 -23t-17.5 -44l-531 -489l396 -567q14 -21 0 -44t-42 -23h-343q-30 0 -45 23l-353 554l-105 -537q-3 -17 -17 -28.5t-30 -11.5h-300q-17 0 -26.5 11.5t-6.5 28.5l216 1110q3 17 17 28.5t31 11.5h300 q16 0 25.5 -11.5t6.5 -28.5z" />
<glyph unicode="l" horiz-adv-x="1188" d="M27 40l216 1110q3 16 17 28t31 12h300q16 0 25.5 -11.5t6.5 -28.5l-171 -882h626q16 0 25.5 -12t6.5 -29l-37 -187q-3 -17 -17 -28.5t-30 -11.5h-966q-17 0 -26.5 12t-6.5 28z" />
<glyph unicode="m" horiz-adv-x="1836" d="M1004 352h-236q-7 0 -16.5 5.5t-12.5 10.5l-217 408l-143 -736q-3 -17 -17 -28.5t-30 -11.5h-272q-17 0 -26.5 11.5t-6.5 28.5l216 1112q4 17 17.5 28.5t30.5 11.5h366q19 0 30 -17l262 -499l456 499q15 17 36 17h366q17 0 26.5 -11.5t5.5 -28.5l-216 -1112 q-3 -17 -16.5 -28.5t-30.5 -11.5h-272q-17 0 -26.5 12t-6.5 28l143 736l-375 -408q-4 -5 -16 -10.5t-19 -5.5z" />
<glyph unicode="n" horiz-adv-x="1524" d="M864 20l-346 732l-139 -712q-3 -17 -16.5 -28.5t-30.5 -11.5h-272q-17 0 -26.5 12t-6.5 28l216 1110q3 16 17 28t31 12h363q26 0 36 -20l347 -732l138 712q3 17 17 28.5t31 11.5h272q16 0 25.5 -11.5t6.5 -28.5l-216 -1110q-3 -17 -17 -28.5t-30 -11.5h-363q-26 0 -37 20 z" />
<glyph unicode="o" horiz-adv-x="1484" d="M1443 596q-26 -134 -92 -246.5t-166.5 -196t-241 -130.5t-306.5 -47q-111 0 -203.5 21.5t-159 60.5t-115.5 95t-72 125t-29 149.5t13 168.5q26 134 92 246t166.5 195.5t241 130t306.5 46.5q133 0 239 -30.5t175.5 -85.5t112.5 -131.5t50 -170t-11 -200.5zM455 596 q-34 -176 25.5 -267t207.5 -91t242.5 91t128.5 267q34 175 -24.5 265.5t-207.5 90.5t-243.5 -90.5t-128.5 -265.5z" />
<glyph unicode="p" horiz-adv-x="1282" d="M1288 782q-40 -204 -212.5 -307t-447.5 -103h-164l-65 -332q-3 -17 -17 -28.5t-30 -11.5h-292q-17 0 -26.5 11.5t-6.5 28.5l216 1110q3 17 17 28.5t31 11.5h496q182 0 301.5 -43.5t173 -135.5t26.5 -229zM924 782q16 84 -36 120t-171 36h-143l-61 -314h143 q119 0 185 36.5t83 121.5z" />
<glyph unicode="q" horiz-adv-x="1484" d="M1177 -282q-107 -20 -230 -20q-193 0 -302 71.5t-123 212.5q-268 30 -384 197t-67 417q26 134 92 246t166.5 195.5t241 130t306.5 46.5q133 0 239 -30.5t175.5 -85.5t112.5 -131.5t50 -170t-11 -200.5q-44 -228 -198.5 -387.5t-397.5 -210.5q9 -36 53.5 -52t135.5 -16 q78 0 149 14q17 3 29 -7t11 -26l-11 -148q-1 -16 -11.5 -29t-25.5 -16zM455 596q-34 -176 25.5 -267t207.5 -91t242.5 91t128.5 267q34 175 -24.5 265.5t-207.5 90.5t-243.5 -90.5t-128.5 -265.5z" />
<glyph unicode="r" horiz-adv-x="1364" d="M521 668h154q221 0 248 140q14 71 -37 104.5t-157 33.5h-154zM968 468l254 -403q14 -21 -0.5 -43t-42.5 -22h-323q-7 0 -16.5 5t-12.5 11l-225 408h-128l-75 -384q-3 -17 -16.5 -28.5t-30.5 -11.5h-292q-17 0 -26.5 12t-6.5 28l216 1110q3 16 17 28t31 12h506 q176 0 295 -39.5t175.5 -126.5t31.5 -216q-50 -251 -331 -340z" />
<glyph unicode="s" horiz-adv-x="1166" d="M747 942q-121 0 -169.5 -18.5t-55.5 -57.5q-5 -25 12.5 -44.5t74 -43t167.5 -56.5q190 -57 265 -147t47 -231q-24 -121 -96.5 -201t-210 -123.5t-340.5 -43.5q-260 0 -430 59q-12 4 -18 16.5t-2 25.5l57 192q6 21 24 30.5t36 2.5q153 -60 355 -60q128 0 180 21.5t61 66.5 q7 39 -46.5 69.5t-219.5 76.5q-182 50 -255.5 140.5t-46.5 231.5q72 366 611 366q227 0 396 -49q12 -4 19 -16t3 -25l-54 -188q-5 -19 -22.5 -29.5t-34.5 -5.5q-145 41 -307 41z" />
<glyph unicode="t" horiz-adv-x="1216" d="M325 40l171 880h-348q-17 0 -26 11.5t-6 28.5l37 190q3 17 17 28.5t31 11.5h1076q16 0 25.5 -11.5t6.5 -28.5l-37 -190q-3 -17 -17 -28.5t-31 -11.5h-348l-171 -880q-3 -17 -17 -28.5t-30 -11.5h-300q-17 0 -26.5 11.5t-6.5 28.5z" />
<glyph unicode="u" horiz-adv-x="1504" d="M647 -24q-295 0 -438 131t-94 385l128 658q3 17 17.5 28.5t31.5 11.5h299q16 0 25.5 -11.5t6.5 -28.5l-128 -660q-24 -125 24.5 -184.5t179.5 -59.5q132 0 204 59.5t96 184.5l128 660q3 16 17 28t31 12h299q17 0 26.5 -11.5t6.5 -28.5l-128 -658q-33 -170 -134.5 -287 t-252.5 -173t-345 -56z" />
<glyph unicode="v" horiz-adv-x="1480" d="M872 0h-464q-29 0 -34 32l-211 1104q-4 21 11 37.5t37 16.5h318q11 0 21 -8t12 -19l128 -901l480 901q5 10 18.5 18.5t24.5 8.5h318q23 0 31 -16.5t-5 -37.5l-639 -1104q-20 -32 -46 -32z" />
<glyph unicode="w" horiz-adv-x="2092" d="M989 1190h376q13 0 23 -9.5t11 -22.5l22 -832l383 834q5 12 18.5 21t26.5 9h296q21 0 30 -16t-1 -36l-562 -1110q-6 -11 -19 -19.5t-24 -8.5h-408q-13 0 -23 9.5t-10 22.5l-16 822l-336 -822q-6 -13 -19 -22.5t-26 -9.5h-408q-11 0 -21.5 8.5t-11.5 19.5l-130 1110 q-2 20 13 36t36 16h296q13 0 22.5 -9t10.5 -21l59 -834l346 832q5 13 19 22.5t27 9.5z" />
<glyph unicode="x" horiz-adv-x="1460" d="M795 851l313 312q26 27 61 27h304q28 0 34 -22t-16 -43l-528 -519l341 -541q14 -21 -0.5 -43t-42.5 -22h-304q-35 0 -51 27l-206 335l-336 -335q-27 -27 -61 -27h-304q-28 0 -34 22t15 43l550 541l-325 519q-13 21 1.5 43t42.5 22h304q34 0 51 -27z" />
<glyph unicode="y" horiz-adv-x="1488" d="M794 0h-300q-17 0 -26.5 11.5t-6.5 28.5l82 422l-355 665q-12 21 3 42t41 21h312q7 0 17 -6t13 -12l213 -436l381 436q6 6 18.5 12t19.5 6h312q26 0 33 -21t-13 -42l-615 -665l-82 -422q-3 -17 -16.5 -28.5t-30.5 -11.5z" />
<glyph unicode="z" horiz-adv-x="1178" d="M-49 40l33 166q10 58 73 116l659 598h-526q-17 0 -26 11.5t-6 28.5l37 190q3 16 17 28t31 12h962q17 0 26 -11.5t6 -28.5l-30 -156q-15 -73 -74 -126l-660 -600h573q16 0 25.5 -12t6.5 -29l-37 -187q-3 -17 -17 -28.5t-30 -11.5h-1010q-17 0 -26.5 12t-6.5 28z" />
<glyph unicode="{" horiz-adv-x="960" d="M145 542l32 164q2 12 13 23.5t24 14.5q61 12 112.5 64t67.5 131l60 310q24 123 114.5 187t221.5 64h282q16 0 25.5 -11.5t5.5 -27.5l-33 -170q-3 -16 -16.5 -27.5t-29.5 -11.5h-160q-76 0 -90 -79l-58 -296q-40 -209 -254 -258q194 -47 154 -257l-57 -295q-8 -41 5.5 -60 t53.5 -19h160q16 0 25.5 -11.5t6.5 -27.5l-33 -170q-4 -16 -17.5 -27.5t-29.5 -11.5h-282q-131 0 -196.5 64t-41.5 187l60 309q15 80 -16 136t-87 68q-11 3 -17.5 14.5t-4.5 23.5z" />
<glyph unicode="|" horiz-adv-x="634" d="M212 -361v1860q0 16 11.5 27.5t27.5 11.5h192q16 0 27.5 -11.5t11.5 -27.5v-1860q0 -16 -11.5 -27.5t-27.5 -11.5h-192q-16 0 -27.5 11.5t-11.5 27.5z" />
<glyph unicode="}" horiz-adv-x="960" d="M857 706l-32 -164q-2 -12 -13.5 -23.5t-24.5 -14.5q-59 -12 -112.5 -68.5t-68.5 -135.5l-60 -309q-24 -123 -114.5 -187t-221.5 -64h-282q-16 0 -25 11.5t-5 27.5l32 170q3 16 16.5 27.5t29.5 11.5h160q40 0 61.5 19t29.5 60l57 295q40 210 254 257q-194 49 -154 258 l58 296q8 42 -6 60.5t-54 18.5h-160q-16 0 -25.5 11.5t-6.5 27.5l33 170q4 16 17.5 27.5t29.5 11.5h282q131 0 196.5 -64t41.5 -187l-60 -310q-16 -79 16 -131t88 -64q11 -3 18 -14.5t5 -23.5z" />
<glyph unicode="~" horiz-adv-x="1304" d="M932 836q5 30 39 30h227q15 0 25.5 -14t9.5 -30q-17 -364 -309 -364q-118 0 -226 64q-94 54 -170 54q-83 0 -96 -83q-2 -14 -13.5 -22.5t-26.5 -8.5h-222q-16 0 -28 14.5t-11 31.5q16 362 309 362q118 0 226 -64q94 -54 170 -54q84 0 96 84z" />
<glyph unicode="&#xa1;" horiz-adv-x="744" d="M389 -234h-326q-16 0 -25.5 11t-6.5 27l59 301l169 607q5 14 18.5 25t27.5 11h223q14 0 23.5 -11t7.5 -25l-65 -608l-59 -300q-3 -16 -16.5 -27t-29.5 -11zM503 1190q112 0 154 -41t25 -127q-16 -85 -74 -126.5t-170 -41.5t-154 41.5t-26 126.5q17 86 75 127t170 41z" />
<glyph unicode="&#xa2;" horiz-adv-x="1262" d="M1087 25q-141 -42 -320 -48l-33 -171q-3 -16 -17 -28t-31 -12h-130q-16 0 -25.5 11.5t-6.5 28.5l34 178q-284 33 -410.5 192.5t-76.5 417.5t239.5 418.5t485.5 193.5l35 178q3 17 17 28.5t30 11.5h130q17 0 26.5 -12t6.5 -28l-34 -172q164 -8 280 -46q20 -7 28 -19.5 t3 -25.5l-51 -180q-5 -21 -23 -31.5t-36 -3.5q-101 38 -249 38q-432 0 -500 -350q-34 -172 60 -261t310 -89q144 0 275 41q20 7 30.5 -4t8.5 -32l-19 -182q-3 -31 -37 -42z" />
<glyph unicode="&#xa3;" horiz-adv-x="1370" d="M74 663l19 95q3 16 16.5 27t29.5 11h129l37 191q44 224 209.5 330.5t455.5 106.5q233 0 398 -62q12 -4 17.5 -16.5t1.5 -26.5l-53 -188q-5 -21 -23 -31t-36 -2q-107 46 -267 46q-148 0 -216.5 -40t-86.5 -129l-35 -179h383q16 0 25.5 -11t6.5 -27l-19 -95 q-3 -16 -16.5 -27.5t-29.5 -11.5h-383l-20 -104q-33 -161 -155 -244h782q16 0 25.5 -11.5t6.5 -27.5l-39 -198q-3 -16 -16.5 -27.5t-29.5 -11.5h-1206q-16 0 -25.5 11.5t-6.5 27.5l40 203q4 22 26 34q165 84 191 218l25 130h-129q-16 0 -25.5 11.5t-6.5 27.5z" />
<glyph unicode="&#xa4;" horiz-adv-x="1464" d="M544 664q0 -110 60.5 -177t157.5 -67t157.5 67t60.5 177t-60.5 177t-157.5 67t-157.5 -67t-60.5 -177zM1288 664q0 -127 -64 -248l114 -116q11 -11 11 -26.5t-11 -26.5l-140 -146q-11 -12 -27.5 -12.5t-27.5 11.5l-123 124q-123 -61 -258 -61t-258 61l-123 -124 q-11 -12 -27.5 -11.5t-27.5 12.5l-140 146q-11 11 -11 26.5t11 26.5l114 116q-64 121 -64 248t64 248l-114 116q-11 11 -11 26.5t11 26.5l140 146q11 12 27.5 12.5t27.5 -11.5l123 -124q123 61 258 61t258 -61l123 124q11 12 27.5 11.5t27.5 -12.5l140 -146q11 -11 11 -27 t-11 -26l-114 -116q64 -121 64 -248z" />
<glyph unicode="&#xa5;" horiz-adv-x="1576" d="M852 0h-328q-16 0 -25 11.5t-6 27.5l48 245h-381q-17 0 -26 11.5t-6 27.5l12 62q3 16 17 27.5t30 11.5h381l24 126h-381q-16 0 -25 11.5t-6 27.5l12 62q3 16 16.5 27.5t30.5 11.5h291l-300 650q-10 21 5.5 40.5t41.5 19.5h328q8 0 17.5 -6t11.5 -13l216 -543l428 543 q5 7 17 13t20 6h328q25 0 32.5 -19.5t-9.5 -40.5l-552 -650h291q16 0 25 -11t6 -28l-12 -62q-3 -16 -17 -27.5t-30 -11.5h-381l-24 -126h381q16 0 25 -11.5t6 -27.5l-12 -62q-3 -17 -16.5 -28t-29.5 -11h-381l-48 -245q-3 -16 -16 -27.5t-29 -11.5z" />
<glyph unicode="&#xa6;" horiz-adv-x="634" d="M251 464h192q16 0 27.5 -11t11.5 -27v-599q0 -16 -11.5 -27.5t-27.5 -11.5h-192q-16 0 -27.5 11.5t-11.5 27.5v599q0 16 11.5 27t27.5 11zM251 1388h192q16 0 27.5 -11t11.5 -27v-601q0 -16 -11.5 -27.5t-27.5 -11.5h-192q-16 0 -27.5 11.5t-11.5 27.5v601q0 16 11.5 27 t27.5 11z" />
<glyph unicode="&#xa7;" horiz-adv-x="1278" d="M648 496q78 15 127 49.5t59 82.5q8 41 -34 75t-120 49q-79 -15 -129 -50t-59 -82q-8 -41 34.5 -75t121.5 -49zM49 -131q-11 4 -16.5 16.5t-1.5 25.5l45 165q6 20 23.5 29.5t34.5 1.5q137 -69 327 -69q113 0 165.5 22.5t61.5 67.5q9 44 -40.5 78t-190.5 68 q-171 42 -253.5 123.5t-59.5 202.5q18 93 85.5 163t162.5 103q-90 35 -129 100.5t-22 153.5q27 138 172.5 221t408.5 83q247 0 413 -65q11 -5 16 -17.5t1 -24.5l-47 -152q-7 -20 -24 -29.5t-34 -1.5q-116 50 -305 50q-197 0 -212 -82q-8 -41 48 -72t194 -68 q170 -47 248 -126.5t55 -201.5q-18 -92 -81 -159.5t-160 -102.5q83 -30 121.5 -97.5t21.5 -152.5q-29 -150 -176 -236t-418 -86q-241 0 -434 69z" />
<glyph unicode="&#xa8;" horiz-adv-x="980" d="M224 1290q28 146 185 146q79 0 110 -36t17 -110q-28 -146 -184 -146t-128 146zM744 1290q28 146 185 146q79 0 110 -36t17 -110q-28 -146 -184 -146t-128 146z" />
<glyph unicode="&#xa9;" horiz-adv-x="1660" d="M136 700q0 197 97 363.5t263.5 263.5t363.5 97t363.5 -97t263.5 -263.5t97 -363.5t-97 -363.5t-263.5 -263.5t-363.5 -97t-363.5 97t-263.5 263.5t-97 363.5zM248 700q0 -169 82 -312t223 -225.5t307 -82.5t307 82.5t223 225.5t82 312t-82 312t-223 225.5t-307 82.5 t-307 -82.5t-223 -225.5t-82 -312zM1141 299q-98 -37 -227 -37q-218 0 -348 116.5t-130 317.5q0 200 129 317t337 117q133 0 237 -41q12 -5 20 -16.5t7 -23.5l-12 -107q-2 -22 -19 -33t-36 -2q-64 29 -147 29q-98 0 -157 -64t-59 -176q0 -113 60 -176.5t166 -63.5 q81 0 138 26q19 8 35.5 -1.5t18.5 -30.5l12 -111q1 -12 -6.5 -24t-18.5 -16z" />
<glyph unicode="&#xaa;" horiz-adv-x="1072" d="M734 772h-296l-42 -83q-24 -51 -68 -51h-209q-42 0 -12 53l370 678q17 31 46 31h370q28 0 34 -31l106 -678q8 -53 -32 -53h-209q-44 0 -50 51zM526 948h188l-34 312z" />
<glyph unicode="&#xab;" horiz-adv-x="1100" d="M125 545l31 158q3 18 19 29l430 337q24 19 45 9.5t16 -36.5l-36 -184q-5 -27 -27 -43l-248 -191l174 -191q15 -15 10 -43l-35 -184q-5 -27 -30.5 -36.5t-41.5 9.5l-299 337q-11 11 -8 29zM561 545l31 158q3 18 19 29l430 337q24 19 45 9.5t16 -36.5l-36 -184 q-5 -27 -27 -43l-248 -191l174 -191q15 -15 10 -43l-35 -184q-5 -27 -30.5 -36.5t-41.5 9.5l-299 337q-11 11 -8 29z" />
<glyph unicode="&#xac;" horiz-adv-x="1304" d="M120 699v174q0 16 11.5 27.5t27.5 11.5h1026q16 0 27.5 -11.5t11.5 -27.5v-526q0 -16 -11.5 -27.5t-27.5 -11.5h-234q-16 0 -27.5 11.5t-11.5 27.5v313h-753q-16 0 -27.5 11.5t-11.5 27.5z" />
<glyph unicode="&#xad;" horiz-adv-x="848" d="M711 528h-570q-16 0 -25 11.5t-6 27.5l37 194q4 17 17.5 28t29.5 11h570q17 0 26 -11.5t5 -27.5l-37 -194q-3 -16 -17 -27.5t-30 -11.5z" />
<glyph unicode="&#xae;" horiz-adv-x="1660" d="M576 1120h288q162 0 256 -67t94 -199q0 -81 -43 -144t-129 -98l193 -271q14 -20 4 -40.5t-35 -20.5h-157q-7 0 -17 6t-15 12l-181 278h-76v-257q0 -16 -11.5 -27.5t-27.5 -11.5h-143q-16 0 -27 11.5t-11 27.5v762q0 16 11 27.5t27 11.5zM986 854q0 110 -130 110h-98v-216 h98q130 0 130 106zM136 700q0 197 97 363.5t263.5 263.5t363.5 97t363.5 -97t263.5 -263.5t97 -363.5t-97 -363.5t-263.5 -263.5t-363.5 -97t-363.5 97t-263.5 263.5t-97 363.5zM248 700q0 -169 82 -312t223 -225.5t307 -82.5t307 82.5t223 225.5t82 312t-82 312t-223 225.5 t-307 82.5t-307 -82.5t-223 -225.5t-82 -312z" />
<glyph unicode="&#xaf;" horiz-adv-x="980" d="M271 1223l26 132q3 16 16 27.5t29 11.5h633q16 0 25.5 -11.5t6.5 -27.5l-26 -132q-3 -17 -16.5 -28t-29.5 -11h-633q-16 0 -25 11.5t-6 27.5z" />
<glyph unicode="&#xb0;" horiz-adv-x="980" d="M284 1116q26 131 135 219.5t247 88.5t213 -88.5t49 -219.5q-25 -131 -134 -219.5t-247 -88.5t-213 88.5t-50 219.5zM490 1116q-10 -52 16 -85t77 -33t90 33t49 85t-16 85t-77 33t-90 -33t-49 -85z" />
<glyph unicode="&#xb1;" horiz-adv-x="1304" d="M526 357v315h-357q-16 0 -27.5 11.5t-11.5 27.5v174q0 16 11.5 27.5t27.5 11.5h357v303q0 16 11.5 27.5t27.5 11.5h234q16 0 27.5 -11.5t11.5 -27.5v-303h357q16 0 27.5 -11.5t11.5 -27.5v-174q0 -16 -11.5 -27.5t-27.5 -11.5h-357v-315q0 -16 -11.5 -27.5t-27.5 -11.5 h-234q-16 0 -27.5 11.5t-11.5 27.5zM1195 24h-1026q-16 0 -27.5 11.5t-11.5 27.5v174q0 16 11.5 27.5t27.5 11.5h1026q16 0 27.5 -11.5t11.5 -27.5v-174q0 -16 -11.5 -27.5t-27.5 -11.5z" />
<glyph unicode="&#xb2;" horiz-adv-x="964" d="M676 1112q10 54 -30.5 77t-131.5 23q-97 0 -203 -30q-20 -6 -32.5 4t-10.5 29l12 116q2 12 12 24.5t22 16.5q142 44 304 44q199 0 286.5 -75t60.5 -213q-17 -87 -69.5 -160t-149.5 -148q-105 -81 -241 -152h333q16 0 25.5 -11.5t6.5 -27.5l-24 -120q-3 -16 -16.5 -27.5 t-29.5 -11.5h-680q-16 0 -25.5 11.5t-6.5 27.5l24 123q4 21 25 32q200 116 350 230q91 69 134.5 117.5t54.5 100.5z" />
<glyph unicode="&#xb3;" horiz-adv-x="964" d="M299 1375q138 41 314 41q191 0 284.5 -65t69.5 -189q-14 -72 -64.5 -126t-133.5 -80q76 -25 110.5 -82t19.5 -134q-26 -136 -157 -211t-340 -75q-162 0 -295 39q-11 4 -17 15.5t-2 24.5l36 124q6 20 24 29t35 2q84 -38 217 -38q200 0 217 90q12 59 -57.5 87t-241.5 33 q-15 1 -24 12.5t-6 26.5l22 110q3 16 16.5 27.5t29.5 11.5q164 2 240.5 26.5t86.5 73.5q7 36 -32.5 53t-132.5 17q-107 0 -222 -31q-19 -5 -31.5 5t-10.5 29l10 113q1 13 11.5 25t23.5 16z" />
<glyph unicode="&#xb4;" horiz-adv-x="980" d="M388 1185l261 246q32 29 80 29h245q18 0 26 -13t4 -30t-18 -26l-328 -231q-58 -40 -125 -40h-128q-27 0 -32.5 22.5t15.5 42.5z" />
<glyph unicode="&#xb5;" horiz-adv-x="1836" d="M1004 352h-236q-7 0 -16.5 5.5t-12.5 10.5l-217 408l-143 -736q-3 -17 -17 -28.5t-30 -11.5h-272q-17 0 -26.5 11.5t-6.5 28.5l216 1112q4 17 17.5 28.5t30.5 11.5h366q19 0 30 -17l262 -499l456 499q15 17 36 17h366q17 0 26.5 -11.5t5.5 -28.5l-216 -1112 q-3 -17 -16.5 -28.5t-30.5 -11.5h-272q-17 0 -26.5 12t-6.5 28l143 736l-375 -408q-4 -5 -16 -10.5t-19 -5.5z" />
<glyph unicode="&#xb6;" horiz-adv-x="1260" d="M1150 1400v-1623q0 -16 -11.5 -27.5t-27.5 -11.5h-182q-16 0 -27.5 11.5t-11.5 27.5v1403h-76v-1403q0 -16 -11.5 -27.5t-27.5 -11.5h-182q-16 0 -27.5 11.5t-11.5 27.5v755h-10q-201 0 -327.5 115.5t-126.5 318.5t126.5 318.5t327.5 115.5h606z" />
<glyph unicode="&#xb7;" horiz-adv-x="720" d="M195 664q34 180 229 180q194 0 159 -180q-36 -180 -229 -180q-195 0 -159 180z" />
<glyph unicode="&#xb8;" horiz-adv-x="980" d="M62 -430l14 74q4 18 19.5 30t32.5 9q31 -5 74 -5q131 0 142 55q5 30 -31 48.5t-123 25.5q-24 1 -29.5 20.5t11.5 39.5l97 116q17 17 37 17h162q25 0 31.5 -19.5t-11.5 -40.5l-47 -54q74 -11 112 -56.5t27 -104.5q-39 -201 -380 -201q-57 0 -113 7q-13 2 -20.5 13.5 t-4.5 25.5z" />
<glyph unicode="&#xb9;" horiz-adv-x="964" d="M267 1204l307 177q36 21 67 21h180q17 0 26 -11.5t5 -27.5l-166 -854q-3 -17 -16.5 -28t-29.5 -11h-203q-16 0 -25 11.5t-6 27.5l121 619l-179 -100q-15 -8 -30 -4.5t-20 16.5l-52 109q-8 13 -1.5 29.5t22.5 25.5z" />
<glyph unicode="&#xba;" horiz-adv-x="1072" d="M164 1020q34 179 185.5 287.5t361.5 108.5t318.5 -108.5t74.5 -287.5q-35 -179 -186 -287.5t-361 -108.5t-319 108.5t-74 287.5zM460 1020q-20 -104 16.5 -156t116.5 -52t137.5 52t77.5 156t-17 156t-117 52t-137 -52t-77 -156z" />
<glyph unicode="&#xbb;" horiz-adv-x="1100" d="M1016 703l-31 -158q-3 -18 -18 -29l-431 -337q-24 -19 -44.5 -9.5t-15.5 36.5l35 184q5 26 28 43l248 191l-174 191q-16 16 -11 43l36 184q5 27 29.5 36.5t41.5 -9.5l300 -337q10 -10 7 -29zM580 703l-31 -158q-3 -18 -18 -29l-431 -337q-24 -19 -44.5 -9.5t-15.5 36.5 l35 184q5 26 28 43l248 191l-174 191q-16 16 -11 43l36 184q5 27 29.5 36.5t41.5 -9.5l300 -337q10 -10 7 -29z" />
<glyph unicode="&#xbc;" horiz-adv-x="2340" d="M1312 209l23 117q9 50 56 94l530 497q13 13 31 13h223q16 0 25.5 -11.5t6.5 -27.5l-100 -515h81q16 0 25 -11t6 -28l-25 -128q-3 -17 -16.5 -28t-29.5 -11h-81l-26 -131q-3 -16 -16.5 -27.5t-29.5 -11.5h-194q-16 0 -25.5 11.5t-6.5 27.5l26 131h-451q-17 0 -26 11.5 t-6 27.5zM1889 654l-292 -278h238zM1869 1370l-1151 -1366q-28 -34 -70 -34h-99q-25 0 -31.5 19.5t10.5 40.5l1151 1366q28 34 70 34h99q25 0 31.5 -19.5t-10.5 -40.5zM267 1204l307 177q36 21 67 21h180q17 0 26 -11.5t5 -27.5l-166 -854q-3 -17 -16.5 -28t-29.5 -11h-203 q-16 0 -25 11.5t-6 27.5l121 619l-179 -100q-15 -8 -30 -4.5t-20 16.5l-52 109q-8 13 -1.5 29.5t22.5 25.5z" />
<glyph unicode="&#xbd;" horiz-adv-x="2340" d="M1938 642q11 54 -29 77t-132 23q-99 0 -203 -30q-20 -6 -33 4t-11 29l13 116q2 12 12 24.5t22 16.5q142 44 303 44q200 0 287 -75t60 -213q-16 -87 -68.5 -160t-149.5 -148q-105 -81 -241 -152h333q16 0 25 -11.5t6 -27.5l-23 -120q-3 -16 -16.5 -27.5t-29.5 -11.5h-680 q-16 0 -25.5 11.5t-6.5 27.5l24 123q5 21 24 32q199 114 351 230q91 69 134.5 117.5t53.5 100.5zM1773 1370l-1151 -1366q-28 -34 -70 -34h-99q-25 0 -31.5 19.5t10.5 40.5l1151 1366q28 34 70 34h99q25 0 31.5 -19.5t-10.5 -40.5zM267 1204l307 177q36 21 67 21h180 q17 0 26 -11.5t5 -27.5l-166 -854q-3 -17 -16.5 -28t-29.5 -11h-203q-16 0 -25 11.5t-6 27.5l121 619l-179 -100q-15 -8 -30 -4.5t-20 16.5l-52 109q-8 13 -1.5 29.5t22.5 25.5z" />
<glyph unicode="&#xbe;" horiz-adv-x="2340" d="M1312 209l23 117q9 50 56 94l530 497q13 13 31 13h223q16 0 25.5 -11.5t6.5 -27.5l-100 -515h81q16 0 25 -11t6 -28l-25 -128q-3 -17 -16.5 -28t-29.5 -11h-81l-26 -131q-3 -16 -16.5 -27.5t-29.5 -11.5h-194q-16 0 -25.5 11.5t-6.5 27.5l26 131h-451q-17 0 -26 11.5 t-6 27.5zM1889 654l-292 -278h238zM1907 1370l-1151 -1366q-28 -34 -70 -34h-99q-25 0 -31.5 19.5t10.5 40.5l1151 1366q28 34 70 34h99q25 0 31.5 -19.5t-10.5 -40.5zM299 1375q138 41 314 41q191 0 284.5 -65t69.5 -189q-14 -72 -64.5 -126t-133.5 -80q76 -25 110.5 -82 t19.5 -134q-26 -136 -157 -211t-340 -75q-162 0 -295 39q-11 4 -17 15.5t-2 24.5l36 124q6 20 24 29t35 2q84 -38 217 -38q200 0 217 90q12 59 -57.5 87t-241.5 33q-15 1 -24 12.5t-6 26.5l22 110q3 16 16.5 27.5t29.5 11.5q164 2 240.5 26.5t86.5 73.5q7 36 -32.5 53 t-132.5 17q-107 0 -222 -31q-19 -5 -31.5 5t-10.5 29l10 113q1 13 11.5 25t23.5 16z" />
<glyph unicode="&#xbf;" horiz-adv-x="1270" d="M1033 86q21 7 34.5 -3t11.5 -30l-20 -199q-2 -28 -27 -37q-97 -35 -219.5 -55t-237.5 -20q-304 0 -436.5 95t-96.5 277q22 115 111 210.5t236 167.5q83 41 124.5 87.5t54.5 112.5l5 25q3 17 16.5 28t29.5 11h299q16 0 25 -11.5t6 -27.5l-7 -35q-27 -137 -94 -226.5 t-195 -149.5q-108 -50 -151 -88t-53 -88q-10 -52 44.5 -77t195.5 -25q173 0 344 58zM853 1190q112 0 154 -41t25 -127q-16 -85 -74 -126.5t-170 -41.5t-154 41.5t-26 126.5q17 86 75 127t170 41t154 -41t25 -127q-16 -85 -74 -126.5t-170 -41.5t-154 41.5t-26 126.5 q17 86 75 127t170 41z" />
<glyph unicode="&#xc0;" horiz-adv-x="1668" d="M493 286h592l42 -257q4 -29 41 -29h336q23 0 37 16.5t10 38.5l-274 1320q-2 10 -11.5 17.5t-20.5 7.5h-478q-11 0 -24 -7.5t-18 -17.5l-788 -1320q-12 -22 -4 -38.5t31 -16.5h336q35 0 51 29zM1039 572h-388l299 542zM1012 1819l165 -246q14 -20 -0.5 -42.5t-41.5 -22.5 h-128q-67 0 -110 40l-238 231q-16 14 -2 41.5t41 27.5h245q49 0 69 -29z" />
<glyph unicode="&#xc1;" horiz-adv-x="1668" d="M1085 286h-592l-142 -257q-16 -29 -51 -29h-336q-23 0 -31 16.5t4 38.5l788 1320q5 10 18 17.5t24 7.5h478q11 0 20.5 -7.5t11.5 -17.5l274 -1320q4 -22 -10 -38.5t-37 -16.5h-336q-37 0 -41 29zM651 572h388l-89 542zM901 1573l261 246q32 29 81 29h245q18 0 26 -13 t3.5 -30t-18.5 -26l-328 -231q-56 -40 -124 -40h-128q-27 0 -33 22.5t15 42.5z" />
<glyph unicode="&#xc2;" horiz-adv-x="1668" d="M1085 286h-592l-142 -257q-16 -29 -51 -29h-336q-23 0 -31 16.5t4 38.5l788 1320q5 10 18 17.5t24 7.5h478q11 0 20.5 -7.5t11.5 -17.5l274 -1320q4 -22 -10 -38.5t-37 -16.5h-336q-37 0 -41 29zM651 572h388l-89 542zM951 1848h288q20 0 28 -14l165 -263 q13 -20 -1.5 -41.5t-40.5 -21.5h-181q-17 0 -26 11l-122 153l-182 -153q-13 -11 -30 -11h-181q-26 0 -32 21.5t14 41.5l267 263q14 14 34 14z" />
<glyph unicode="&#xc3;" horiz-adv-x="1668" d="M493 286h592l42 -257q4 -29 41 -29h336q23 0 37 16.5t10 38.5l-274 1320q-2 10 -11.5 17.5t-20.5 7.5h-478q-11 0 -24 -7.5t-18 -17.5l-788 -1320q-12 -22 -4 -38.5t31 -16.5h336q35 0 51 29zM1039 572h-388l299 542zM1047 1563q-70 41 -113 41q-34 0 -53.5 -10.5 t-32.5 -36.5q-11 -29 -37 -29h-130q-18 0 -27.5 8t-5.5 24q28 125 99.5 198t174.5 73q80 0 151 -40q70 -41 113 -41q34 0 53.5 10.5t32.5 36.5q11 29 37 29h130q18 0 27.5 -8t5.5 -24q-28 -125 -99.5 -198t-174.5 -73q-80 0 -151 40z" />
<glyph unicode="&#xc4;" horiz-adv-x="1668" d="M493 286h592l42 -257q4 -29 41 -29h336q23 0 37 16.5t10 38.5l-274 1320q-2 10 -11.5 17.5t-20.5 7.5h-478q-11 0 -24 -7.5t-18 -17.5l-788 -1320q-12 -22 -4 -38.5t31 -16.5h336q35 0 51 29zM1039 572h-388l299 542zM644 1678q28 146 184 146t128 -146t-185 -146 q-79 0 -110 36t-17 110zM1164 1678q28 146 184 146t128 -146t-185 -146q-79 0 -110 36t-17 110z" />
<glyph unicode="&#xc5;" horiz-adv-x="1668" d="M493 286h592l42 -257q4 -29 41 -29h336q23 0 37 16.5t10 38.5l-274 1320q-2 10 -11.5 17.5t-20.5 7.5h-478q-11 0 -24 -7.5t-18 -17.5l-788 -1320q-12 -22 -4 -38.5t31 -16.5h336q35 0 51 29zM1039 572h-388l299 542zM800 1678q20 105 108.5 177.5t199.5 72.5 t171.5 -72.5t40.5 -177.5q-21 -106 -110 -178t-199 -72q-111 0 -171.5 72.5t-39.5 177.5zM978 1678q-7 -37 11.5 -60.5t53.5 -23.5t63.5 23.5t35.5 60.5t-12 60.5t-54 23.5t-63 -23.5t-35 -60.5z" />
<glyph unicode="&#xc6;" horiz-adv-x="2202" d="M981 40l48 246h-466l-196 -265q-16 -21 -39 -21h-353q-25 0 -33 20t8 41l999 1314q18 25 51 25h1238q16 0 25.5 -11.5t6.5 -28.5l-38 -197q-4 -16 -17.5 -27.5t-30.5 -11.5h-600l-53 -274h545q16 0 25 -12t6 -28l-38 -197q-4 -16 -17.5 -27.5t-29.5 -11.5h-545l-58 -298 h616q17 0 26.5 -11.5t6.5 -27.5l-39 -197q-3 -17 -17 -28.5t-30 -11.5h-969q-16 0 -25.5 12t-6.5 28zM1195 1142l-420 -570h310z" />
<glyph unicode="&#xc7;" horiz-adv-x="1482" d="M477 -430l14 74q4 18 19.5 30t32.5 9q31 -5 74 -5q131 0 142 55q5 30 -31 48.5t-123 25.5q-24 1 -29.5 20.5t11.5 39.5l100 119q-335 37 -485.5 224t-91.5 490q66 338 334.5 531t683.5 193q245 0 414 -59q11 -4 17 -15.5t3 -24.5l-59 -203q-7 -21 -24.5 -31t-35.5 -3 q-124 48 -305 48q-263 0 -417 -112t-195 -324q-42 -215 73 -325.5t378 -110.5q176 0 326 50q21 7 34.5 -2.5t11.5 -30.5l-20 -205q-1 -13 -11.5 -25.5t-24.5 -16.5q-157 -48 -358 -56l-78 -92q74 -11 111.5 -56.5t26.5 -104.5q-39 -201 -380 -201q-57 0 -113 7 q-13 2 -20.5 13.5t-4.5 25.5z" />
<glyph unicode="&#xc8;" horiz-adv-x="1386" d="M1368 1124h-706l-53 -274h656q16 0 25.5 -11.5t6.5 -28.5l-38 -197q-4 -16 -17.5 -27.5t-30.5 -11.5h-656l-58 -298h722q17 0 26.5 -11.5t6.5 -27.5l-39 -197q-3 -17 -17 -28.5t-30 -11.5h-1086q-17 0 -26.5 12t-6.5 28l257 1320q3 16 17 28t31 12h1070q16 0 25.5 -11.5 t6.5 -28.5l-38 -197q-4 -16 -17.5 -27.5t-30.5 -11.5zM942 1819l165 -246q14 -20 -0.5 -42.5t-41.5 -22.5h-128q-67 0 -110 40l-238 231q-16 14 -2 41.5t41 27.5h245q49 0 69 -29z" />
<glyph unicode="&#xc9;" horiz-adv-x="1386" d="M1368 1124h-706l-53 -274h656q16 0 25.5 -11.5t6.5 -28.5l-38 -197q-4 -16 -17.5 -27.5t-30.5 -11.5h-656l-58 -298h722q17 0 26.5 -11.5t6.5 -27.5l-39 -197q-3 -17 -17 -28.5t-30 -11.5h-1086q-17 0 -26.5 12t-6.5 28l257 1320q3 16 17 28t31 12h1070q16 0 25.5 -11.5 t6.5 -28.5l-38 -197q-4 -16 -17.5 -27.5t-30.5 -11.5zM735 1573l261 246q32 29 81 29h245q18 0 26 -13t3.5 -30t-18.5 -26l-328 -231q-56 -40 -124 -40h-128q-27 0 -33 22.5t15 42.5z" />
<glyph unicode="&#xca;" horiz-adv-x="1386" d="M1368 1124h-706l-53 -274h656q16 0 25.5 -11.5t6.5 -28.5l-38 -197q-4 -16 -17.5 -27.5t-30.5 -11.5h-656l-58 -298h722q17 0 26.5 -11.5t6.5 -27.5l-39 -197q-3 -17 -17 -28.5t-30 -11.5h-1086q-17 0 -26.5 12t-6.5 28l257 1320q3 16 17 28t31 12h1070q16 0 25.5 -11.5 t6.5 -28.5l-38 -197q-4 -16 -17.5 -27.5t-30.5 -11.5zM823 1848h288q20 0 28 -14l165 -263q13 -20 -1.5 -41.5t-40.5 -21.5h-181q-17 0 -26 11l-122 153l-182 -153q-13 -11 -30 -11h-181q-26 0 -32 21.5t14 41.5l267 263q14 14 34 14z" />
<glyph unicode="&#xcb;" horiz-adv-x="1386" d="M1368 1124h-706l-53 -274h656q16 0 25.5 -11.5t6.5 -28.5l-38 -197q-4 -16 -17.5 -27.5t-30.5 -11.5h-656l-58 -298h722q17 0 26.5 -11.5t6.5 -27.5l-39 -197q-3 -17 -17 -28.5t-30 -11.5h-1086q-17 0 -26.5 12t-6.5 28l257 1320q3 16 17 28t31 12h1070q16 0 25.5 -11.5 t6.5 -28.5l-38 -197q-4 -16 -17.5 -27.5t-30.5 -11.5zM512 1678q28 146 184 146t128 -146t-185 -146q-79 0 -110 36t-17 110zM1032 1678q28 146 184 146t128 -146t-185 -146q-79 0 -110 36t-17 110z" />
<glyph unicode="&#xcc;" horiz-adv-x="704" d="M361 1400h325q16 0 25.5 -11.5t6.5 -28.5l-257 -1320q-3 -17 -17 -28.5t-30 -11.5h-325q-16 0 -25.5 12t-6.5 28l257 1320q3 16 17 28t30 12zM506 1819l165 -246q14 -20 -0.5 -42.5t-41.5 -22.5h-128q-67 0 -110 40l-238 231q-16 14 -2 41.5t41 27.5h245q49 0 69 -29z " />
<glyph unicode="&#xcd;" horiz-adv-x="704" d="M361 1400h325q16 0 25.5 -11.5t6.5 -28.5l-257 -1320q-3 -17 -17 -28.5t-30 -11.5h-325q-16 0 -25.5 12t-6.5 28l257 1320q3 16 17 28t30 12zM443 1573l261 246q32 29 81 29h245q18 0 26 -13t3.5 -30t-18.5 -26l-328 -231q-56 -40 -124 -40h-128q-27 0 -33 22.5t15 42.5z " />
<glyph unicode="&#xce;" horiz-adv-x="704" d="M361 1400h325q16 0 25.5 -11.5t6.5 -28.5l-257 -1320q-3 -17 -17 -28.5t-30 -11.5h-325q-16 0 -25.5 12t-6.5 28l257 1320q3 16 17 28t30 12zM467 1848h288q20 0 28 -14l165 -263q13 -20 -1.5 -41.5t-40.5 -21.5h-181q-17 0 -26 11l-122 153l-182 -153q-13 -11 -30 -11 h-181q-26 0 -32 21.5t14 41.5l267 263q14 14 34 14z" />
<glyph unicode="&#xcf;" horiz-adv-x="704" d="M361 1400h325q16 0 25.5 -11.5t6.5 -28.5l-257 -1320q-3 -17 -17 -28.5t-30 -11.5h-325q-16 0 -25.5 12t-6.5 28l257 1320q3 16 17 28t30 12zM162 1678q28 146 184 146t128 -146t-185 -146q-79 0 -110 36t-17 110zM682 1678q28 146 184 146t128 -146t-185 -146 q-79 0 -110 36t-17 110z" />
<glyph unicode="&#xd0;" horiz-adv-x="1662" d="M624 0h-524q-17 0 -26.5 12t-6.5 28l111 570h-99q-16 0 -25 11.5t-6 28.5l19 98q3 17 17 28.5t30 11.5h99l111 572q3 16 17 28t31 12h524q266 0 444 -77.5t255 -236t33 -386.5q-45 -229 -184 -387.5t-346.5 -235.5t-473.5 -77zM1220 700q44 227 -54 325.5t-340 98.5h-144 l-65 -336h225q16 0 25 -12t6 -28l-19 -98q-3 -16 -17 -28t-30 -12h-225l-65 -334h144q243 0 378.5 98t180.5 326z" />
<glyph unicode="&#xd1;" horiz-adv-x="1754" d="M1019 41l-420 891l-174 -892q-3 -17 -17 -28.5t-30 -11.5h-299q-16 0 -25.5 12t-6.5 28l257 1320q3 16 17 28t30 12h373q62 0 82 -41l420 -891l174 892q3 16 17 28t31 12h299q16 0 25 -12t6 -28l-257 -1320q-3 -16 -16.5 -28t-29.5 -12h-373q-63 0 -83 41zM1089 1563 q-70 41 -113 41q-34 0 -53.5 -10.5t-32.5 -36.5q-11 -29 -37 -29h-130q-18 0 -27.5 8t-5.5 24q28 125 99.5 198t174.5 73q80 0 151 -40q70 -41 113 -41q34 0 53.5 10.5t32.5 36.5q11 29 37 29h130q18 0 27.5 -8t5.5 -24q-28 -125 -99.5 -198t-174.5 -73q-80 0 -151 40z" />
<glyph unicode="&#xd2;" horiz-adv-x="1732" d="M1698 700q-31 -156 -108.5 -288t-194.5 -229.5t-280 -152t-354 -54.5q-128 0 -234.5 25t-184 71t-134 111t-84 145.5t-34 174.5t15.5 197q24 125 77.5 234.5t137 199.5t190 154.5t242.5 100t289 35.5q128 0 234.5 -25t184 -71t134.5 -111t84.5 -145.5t34 -174 t-15.5 -197.5zM514 700q-42 -215 35 -329.5t266 -114.5t311 114.5t164 329.5q41 215 -36 329.5t-266 114.5t-311 -114.5t-163 -329.5zM1088 1819l165 -246q14 -20 -0.5 -42.5t-41.5 -22.5h-128q-67 0 -110 40l-238 231q-16 14 -2 41.5t41 27.5h245q49 0 69 -29z" />
<glyph unicode="&#xd3;" horiz-adv-x="1732" d="M1698 700q-31 -156 -108.5 -288t-194.5 -229.5t-280 -152t-354 -54.5q-128 0 -234.5 25t-184 71t-134 111t-84 145.5t-34 174.5t15.5 197q24 125 77.5 234.5t137 199.5t190 154.5t242.5 100t289 35.5q128 0 234.5 -25t184 -71t134.5 -111t84.5 -145.5t34 -174 t-15.5 -197.5zM514 700q-42 -215 35 -329.5t266 -114.5t311 114.5t164 329.5q41 215 -36 329.5t-266 114.5t-311 -114.5t-163 -329.5zM889 1573l261 246q32 29 81 29h245q18 0 26 -13t3.5 -30t-18.5 -26l-328 -231q-56 -40 -124 -40h-128q-27 0 -33 22.5t15 42.5z" />
<glyph unicode="&#xd4;" horiz-adv-x="1732" d="M1698 700q-31 -156 -108.5 -288t-194.5 -229.5t-280 -152t-354 -54.5q-128 0 -234.5 25t-184 71t-134 111t-84 145.5t-34 174.5t15.5 197q24 125 77.5 234.5t137 199.5t190 154.5t242.5 100t289 35.5q128 0 234.5 -25t184 -71t134.5 -111t84.5 -145.5t34 -174 t-15.5 -197.5zM514 700q-42 -215 35 -329.5t266 -114.5t311 114.5t164 329.5q41 215 -36 329.5t-266 114.5t-311 -114.5t-163 -329.5zM981 1848h288q20 0 28 -14l165 -263q13 -20 -1.5 -41.5t-40.5 -21.5h-181q-17 0 -26 11l-122 153l-182 -153q-13 -11 -30 -11h-181 q-26 0 -32 21.5t14 41.5l267 263q14 14 34 14z" />
<glyph unicode="&#xd5;" horiz-adv-x="1732" d="M1698 700q-31 -156 -108.5 -288t-194.5 -229.5t-280 -152t-354 -54.5q-128 0 -234.5 25t-184 71t-134 111t-84 145.5t-34 174.5t15.5 197q24 125 77.5 234.5t137 199.5t190 154.5t242.5 100t289 35.5q128 0 234.5 -25t184 -71t134.5 -111t84.5 -145.5t34 -174 t-15.5 -197.5zM514 700q-42 -215 35 -329.5t266 -114.5t311 114.5t164 329.5q41 215 -36 329.5t-266 114.5t-311 -114.5t-163 -329.5zM1079 1563q-70 41 -113 41q-34 0 -53.5 -10.5t-32.5 -36.5q-11 -29 -37 -29h-130q-18 0 -27.5 8t-5.5 24q28 125 99.5 198t174.5 73 q80 0 151 -40q70 -41 113 -41q34 0 53.5 10.5t32.5 36.5q11 29 37 29h130q18 0 27.5 -8t5.5 -24q-28 -125 -99.5 -198t-174.5 -73q-80 0 -151 40z" />
<glyph unicode="&#xd6;" horiz-adv-x="1732" d="M1698 700q-31 -156 -108.5 -288t-194.5 -229.5t-280 -152t-354 -54.5q-128 0 -234.5 25t-184 71t-134 111t-84 145.5t-34 174.5t15.5 197q24 125 77.5 234.5t137 199.5t190 154.5t242.5 100t289 35.5q128 0 234.5 -25t184 -71t134.5 -111t84.5 -145.5t34 -174 t-15.5 -197.5zM514 700q-42 -215 35 -329.5t266 -114.5t311 114.5t164 329.5q41 215 -36 329.5t-266 114.5t-311 -114.5t-163 -329.5zM676 1678q28 146 184 146t128 -146t-185 -146q-79 0 -110 36t-17 110zM1196 1678q28 146 184 146t128 -146t-185 -146q-79 0 -110 36 t-17 110z" />
<glyph unicode="&#xd7;" horiz-adv-x="1304" d="M682 853l304 272q11 11 27 10.5t26 -11.5l147 -145q11 -11 11 -28t-13 -28l-290 -260l289 -258q13 -11 13 -28t-11 -28l-145 -146q-10 -11 -26 -11.5t-27 10.5l-305 272l-305 -272q-11 -11 -27 -10.5t-26 11.5l-145 146q-11 11 -11 28t13 28l289 258l-290 260 q-13 11 -13 28t11 28l147 145q10 11 26 11.5t27 -10.5z" />
<glyph unicode="&#xd8;" horiz-adv-x="1732" d="M1698 700q-31 -156 -108.5 -288t-194.5 -229.5t-280 -152t-354 -54.5q-196 0 -346 60l-192 -219q-15 -17 -45 -17h-86q-26 0 -33.5 20.5t11.5 41.5l215 246q-125 96 -170.5 249t-8.5 343q24 125 77.5 234.5t137 199.5t190 154.5t242.5 100t289 35.5q199 0 346 -61 l193 220q15 17 46 17h86q26 0 33 -20.5t-12 -41.5l-217 -247q126 -96 171.5 -249t9.5 -342zM514 700q-39 -194 22 -307l628 715q-70 36 -176 36q-189 0 -311 -114.5t-163 -329.5zM1290 700q38 194 -23 306l-627 -715q72 -35 175 -35q189 0 311 114.5t164 329.5z" />
<glyph unicode="&#xd9;" horiz-adv-x="1736" d="M763 -24q221 0 395 65t292.5 201t156.5 332l153 786q3 17 -6.5 28.5t-25.5 11.5h-325q-16 0 -30 -12t-17 -28l-152 -782q-31 -159 -124 -235.5t-261 -76.5t-231 76.5t-32 235.5l152 782q3 16 -6 28t-25 12h-325q-17 0 -31 -12t-17 -28l-153 -786q-29 -148 1 -262.5 t112.5 -187.5t208 -110.5t290.5 -37.5zM1024 1819l165 -246q14 -20 -0.5 -42.5t-41.5 -22.5h-128q-67 0 -110 40l-238 231q-16 14 -2 41.5t41 27.5h245q49 0 69 -29z" />
<glyph unicode="&#xda;" horiz-adv-x="1736" d="M763 -24q-165 0 -290.5 37.5t-208 110.5t-112.5 187.5t-1 262.5l153 786q3 16 17 28t31 12h325q16 0 25 -12t6 -28l-152 -782q-31 -159 32 -235.5t231 -76.5t261 76.5t124 235.5l152 782q3 16 17 28t30 12h325q16 0 25.5 -11.5t6.5 -28.5l-153 -786q-38 -196 -156.5 -332 t-292.5 -201t-395 -65zM957 1573l261 246q32 29 81 29h245q18 0 26 -13t3.5 -30t-18.5 -26l-328 -231q-56 -40 -124 -40h-128q-27 0 -33 22.5t15 42.5z" />
<glyph unicode="&#xdb;" horiz-adv-x="1736" d="M763 -24q-165 0 -290.5 37.5t-208 110.5t-112.5 187.5t-1 262.5l153 786q3 16 17 28t31 12h325q16 0 25 -12t6 -28l-152 -782q-31 -159 32 -235.5t231 -76.5t261 76.5t124 235.5l152 782q3 16 17 28t30 12h325q16 0 25.5 -11.5t6.5 -28.5l-153 -786q-38 -196 -156.5 -332 t-292.5 -201t-395 -65zM983 1848h288q20 0 28 -14l165 -263q13 -20 -1.5 -41.5t-40.5 -21.5h-181q-17 0 -26 11l-122 153l-182 -153q-13 -11 -30 -11h-181q-26 0 -32 21.5t14 41.5l267 263q14 14 34 14z" />
<glyph unicode="&#xdc;" horiz-adv-x="1736" d="M763 -24q221 0 395 65t292.5 201t156.5 332l153 786q3 17 -6.5 28.5t-25.5 11.5h-325q-16 0 -30 -12t-17 -28l-152 -782q-31 -159 -124 -235.5t-261 -76.5t-231 76.5t-32 235.5l152 782q3 16 -6 28t-25 12h-325q-17 0 -31 -12t-17 -28l-153 -786q-29 -148 1 -262.5 t112.5 -187.5t208 -110.5t290.5 -37.5zM678 1678q28 146 184 146t128 -146t-185 -146q-79 0 -110 36t-17 110zM1198 1678q28 146 184 146t128 -146t-185 -146q-79 0 -110 36t-17 110z" />
<glyph unicode="&#xdd;" horiz-adv-x="1720" d="M922 0h-324q-17 0 -26.5 12t-6.5 28l99 508l-427 787q-12 21 3.5 43t41.5 22h308q54 0 74 -39l260 -515l460 515q34 39 90 39h308q26 0 32.5 -22t-13.5 -43l-733 -787l-99 -508q-3 -17 -17 -28.5t-30 -11.5zM903 1573l261 246q32 29 81 29h245q18 0 26 -13t3.5 -30 t-18.5 -26l-328 -231q-56 -40 -124 -40h-128q-27 0 -33 22.5t15 42.5z" />
<glyph unicode="&#xde;" horiz-adv-x="1474" d="M1457 708q-45 -232 -245 -352t-516 -120h-207l-38 -196q-3 -16 -16.5 -28t-29.5 -12h-326q-16 0 -25.5 12t-6.5 28l257 1320q3 16 17 28t30 12h326q16 0 25 -12t6 -28l-35 -180h207q317 0 470 -119.5t107 -352.5zM1049 708q21 109 -44.5 154.5t-218.5 45.5h-166l-78 -400 h166q153 0 236.5 46t104.5 154z" />
<glyph unicode="&#xdf;" horiz-adv-x="1552" d="M47 39l157 807q57 293 247.5 435.5t532.5 142.5q283 0 428.5 -109.5t112.5 -278.5q-22 -112 -99 -193.5t-207 -122.5q140 -31 203.5 -122t38.5 -222q-37 -191 -196.5 -295.5t-431.5 -104.5q-165 0 -269 32q-11 4 -17 16t-3 26l55 197q5 20 22 29.5t35 3.5q73 -26 165 -26 q212 0 240 144q15 78 -51 125.5t-219 53.5q-15 1 -23.5 13t-6.5 27l39 199q3 15 16.5 26.5t28.5 12.5q243 11 272 161q12 59 -43.5 94.5t-157.5 35.5q-134 0 -203.5 -60.5t-95.5 -193.5l-166 -853q-3 -16 -16.5 -27.5t-29.5 -11.5h-326q-16 0 -25.5 11.5t-6.5 27.5z" />
<glyph unicode="&#xe0;" horiz-adv-x="1444" d="M428 228h476l28 -201q2 -11 10.5 -19t22.5 -8h317q23 0 37.5 15.5t10.5 36.5l-211 1112q-2 10 -12.5 18t-20.5 8h-466q-11 0 -24.5 -8t-18.5 -18l-643 -1112q-12 -21 -3.5 -36.5t31.5 -15.5h317q28 0 43 27zM864 498h-292l229 428zM850 1623l174 -260q14 -20 -0.5 -42.5 t-41.5 -22.5h-148q-49 0 -81 32l-247 239q-16 14 -2 41.5t41 27.5h260q35 0 45 -15z" />
<glyph unicode="&#xe1;" horiz-adv-x="1444" d="M428 228h476l28 -201q2 -11 10.5 -19t22.5 -8h317q23 0 37.5 15.5t10.5 36.5l-211 1112q-2 10 -12.5 18t-20.5 8h-466q-11 0 -24.5 -8t-18.5 -18l-643 -1112q-12 -21 -3.5 -36.5t31.5 -15.5h317q28 0 43 27zM864 498h-292l229 428zM1345 1568l-363 -256q-21 -14 -46 -14 h-172q-26 0 -32.5 22t15.5 42l271 254q22 22 51 22h265q28 0 32.5 -26t-21.5 -44z" />
<glyph unicode="&#xe2;" horiz-adv-x="1444" d="M904 228h-476l-106 -201q-15 -27 -43 -27h-317q-23 0 -31.5 15.5t3.5 36.5l643 1112q5 10 18.5 18t24.5 8h466q10 0 20.5 -8t12.5 -18l211 -1112q4 -21 -10.5 -36.5t-37.5 -15.5h-317q-14 0 -22.5 8t-10.5 19zM572 498h292l-63 428zM796 1638h288q20 0 28 -14l165 -263 q13 -20 -1.5 -41.5t-40.5 -21.5h-181q-17 0 -26 11l-122 153l-182 -153q-13 -11 -30 -11h-181q-26 0 -32 21.5t14 41.5l267 263q14 14 34 14z" />
<glyph unicode="&#xe3;" horiz-adv-x="1444" d="M428 228h476l28 -201q2 -11 10.5 -19t22.5 -8h317q23 0 37.5 15.5t10.5 36.5l-211 1112q-2 10 -12.5 18t-20.5 8h-466q-11 0 -24.5 -8t-18.5 -18l-643 -1112q-12 -21 -3.5 -36.5t31.5 -15.5h317q28 0 43 27zM864 498h-292l229 428zM894 1351q-70 41 -113 41 q-34 0 -53.5 -10.5t-32.5 -36.5q-11 -29 -38 -29h-130q-18 0 -27 8t-5 24q28 125 99.5 198t174.5 73q80 0 150 -40q72 -41 113 -41q34 0 54 10.5t33 36.5q11 29 37 29h130q18 0 27.5 -8t5.5 -24q-29 -126 -100.5 -198.5t-174.5 -72.5q-79 0 -150 40z" />
<glyph unicode="&#xe4;" horiz-adv-x="1444" d="M428 228h476l28 -201q2 -11 10.5 -19t22.5 -8h317q23 0 37.5 15.5t10.5 36.5l-211 1112q-2 10 -12.5 18t-20.5 8h-466q-11 0 -24.5 -8t-18.5 -18l-643 -1112q-12 -21 -3.5 -36.5t31.5 -15.5h317q28 0 43 27zM864 498h-292l229 428zM492 1468q28 146 184 146q79 0 110 -36 t17 -110q-28 -147 -184 -147q-80 0 -110.5 36.5t-16.5 110.5zM1011 1468q28 146 184 146q157 0 129 -146q-28 -147 -186 -147q-156 0 -127 147z" />
<glyph unicode="&#xe5;" horiz-adv-x="1444" d="M428 228h476l28 -201q2 -11 10.5 -19t22.5 -8h317q23 0 37.5 15.5t10.5 36.5l-211 1112q-2 10 -12.5 18t-20.5 8h-466q-11 0 -24.5 -8t-18.5 -18l-643 -1112q-12 -21 -3.5 -36.5t31.5 -15.5h317q28 0 43 27zM864 498h-292l229 428zM647 1468q20 105 108.5 177.5 t199.5 72.5t171.5 -72.5t40.5 -177.5t-109 -177.5t-200 -72.5t-171 72.5t-40 177.5zM825 1468q-7 -37 12 -60.5t54 -23.5t63 23.5t35 60.5t-12 60.5t-54 23.5t-63 -23.5t-35 -60.5z" />
<glyph unicode="&#xe6;" horiz-adv-x="1904" d="M835 40l37 188h-388l-149 -207q-6 -8 -18.5 -14.5t-21.5 -6.5h-322q-25 0 -33 19t8 41l835 1109q6 8 18.5 14.5t21.5 6.5h1092q16 0 25.5 -11.5t6.5 -28.5l-34 -176q-4 -17 -17.5 -28.5t-30.5 -11.5h-490l-39 -202h444q17 0 26 -11.5t6 -28.5l-34 -176 q-4 -17 -17.5 -28.5t-30.5 -11.5h-444l-43 -220h504q17 0 26.5 -11.5t5.5 -28.5l-34 -176q-3 -17 -17 -28.5t-30 -11.5h-830q-17 0 -26.5 12t-6.5 28zM678 494h246l89 462z" />
<glyph unicode="&#xe7;" horiz-adv-x="1262" d="M1087 25q-100 -31 -247 -43l-83 -96q74 -11 112 -56.5t27 -104.5q-39 -201 -380 -201q-57 0 -113 7q-13 2 -20.5 13.5t-4.5 25.5l14 74q4 18 19.5 30t32.5 9q31 -5 74 -5q131 0 142 55q5 30 -31 48.5t-123 25.5q-24 1 -29.5 20.5t11.5 39.5l96 115q-297 27 -430.5 188 t-82.5 424q57 290 286.5 455t585.5 165q198 0 344 -48q20 -7 28 -19.5t3 -25.5l-51 -180q-5 -21 -23 -31.5t-36 -3.5q-101 38 -249 38q-432 0 -500 -350q-34 -172 60 -261t310 -89q144 0 275 41q20 7 30.5 -4t8.5 -32l-19 -182q-3 -31 -37 -42z" />
<glyph unicode="&#xe8;" horiz-adv-x="1198" d="M27 40l216 1110q3 17 17 28.5t31 11.5h920q17 0 26 -11.5t6 -28.5l-34 -176q-4 -17 -17.5 -28.5t-30.5 -11.5h-584l-39 -202h540q16 0 25.5 -11.5t6.5 -28.5l-34 -176q-4 -17 -17.5 -28.5t-30.5 -11.5h-540l-43 -220h595q17 0 27 -11.5t6 -28.5l-34 -176 q-3 -17 -17 -28.5t-31 -11.5h-931q-17 0 -26.5 11.5t-6.5 28.5zM802 1623l174 -260q14 -20 -0.5 -42.5t-41.5 -22.5h-148q-49 0 -81 32l-247 239q-16 14 -2 41.5t41 27.5h260q35 0 45 -15z" />
<glyph unicode="&#xe9;" horiz-adv-x="1198" d="M27 40l216 1110q3 17 17 28.5t31 11.5h920q17 0 26 -11.5t6 -28.5l-34 -176q-4 -17 -17.5 -28.5t-30.5 -11.5h-584l-39 -202h540q16 0 25.5 -11.5t6.5 -28.5l-34 -176q-4 -17 -17.5 -28.5t-30.5 -11.5h-540l-43 -220h595q17 0 27 -11.5t6 -28.5l-34 -176 q-3 -17 -17 -28.5t-31 -11.5h-931q-17 0 -26.5 11.5t-6.5 28.5zM1169 1568l-363 -256q-21 -14 -46 -14h-172q-26 0 -32.5 22t15.5 42l271 254q22 22 51 22h265q28 0 32.5 -26t-21.5 -44z" />
<glyph unicode="&#xea;" horiz-adv-x="1198" d="M27 40l216 1110q3 17 17 28.5t31 11.5h920q17 0 26 -11.5t6 -28.5l-34 -176q-4 -17 -17.5 -28.5t-30.5 -11.5h-584l-39 -202h540q16 0 25.5 -11.5t6.5 -28.5l-34 -176q-4 -17 -17.5 -28.5t-30.5 -11.5h-540l-43 -220h595q17 0 27 -11.5t6 -28.5l-34 -176 q-3 -17 -17 -28.5t-31 -11.5h-931q-17 0 -26.5 11.5t-6.5 28.5zM690 1638h288q20 0 28 -14l165 -263q13 -20 -1.5 -41.5t-40.5 -21.5h-181q-17 0 -26 11l-122 153l-182 -153q-13 -11 -30 -11h-181q-26 0 -32 21.5t14 41.5l267 263q14 14 34 14z" />
<glyph unicode="&#xeb;" horiz-adv-x="1198" d="M27 40l216 1110q3 17 17 28.5t31 11.5h920q17 0 26 -11.5t6 -28.5l-34 -176q-4 -17 -17.5 -28.5t-30.5 -11.5h-584l-39 -202h540q16 0 25.5 -11.5t6.5 -28.5l-34 -176q-4 -17 -17.5 -28.5t-30.5 -11.5h-540l-43 -220h595q17 0 27 -11.5t6 -28.5l-34 -176 q-3 -17 -17 -28.5t-31 -11.5h-931q-17 0 -26.5 11.5t-6.5 28.5zM386 1468q28 146 184 146q79 0 110 -36t17 -110q-29 -147 -184 -147q-80 0 -110.5 36.5t-16.5 110.5zM905 1468q28 146 184 146q157 0 129 -146q-28 -147 -186 -147q-156 0 -127 147z" />
<glyph unicode="&#xec;" horiz-adv-x="640" d="M301 1190h300q16 0 25.5 -11.5t6.5 -28.5l-216 -1110q-3 -17 -17 -28.5t-30 -11.5h-300q-17 0 -26.5 11.5t-6.5 28.5l216 1110q3 17 17 28.5t31 11.5zM424 1623l174 -260q14 -20 -0.5 -42.5t-41.5 -22.5h-148q-49 0 -81 32l-247 239q-16 14 -2 41.5t41 27.5h260 q35 0 45 -15z" />
<glyph unicode="&#xed;" horiz-adv-x="640" d="M301 1190h300q16 0 25.5 -11.5t6.5 -28.5l-216 -1110q-3 -17 -17 -28.5t-30 -11.5h-300q-17 0 -26.5 11.5t-6.5 28.5l216 1110q3 17 17 28.5t31 11.5zM967 1568l-363 -256q-21 -14 -46 -14h-172q-26 0 -32.5 22t15.5 42l271 254q22 22 51 22h265q28 0 32.5 -26t-21.5 -44 z" />
<glyph unicode="&#xee;" horiz-adv-x="640" d="M301 1190h300q16 0 25.5 -11.5t6.5 -28.5l-216 -1110q-3 -17 -17 -28.5t-30 -11.5h-300q-17 0 -26.5 11.5t-6.5 28.5l216 1110q3 17 17 28.5t31 11.5zM394 1638h288q20 0 28 -14l165 -263q13 -20 -1.5 -41.5t-40.5 -21.5h-181q-17 0 -26 11l-122 153l-182 -153 q-13 -11 -30 -11h-181q-26 0 -32 21.5t14 41.5l267 263q14 14 34 14z" />
<glyph unicode="&#xef;" horiz-adv-x="640" d="M90 1468q28 146 184 146q79 0 110 -36t17 -110q-29 -147 -184 -147q-80 0 -110.5 36.5t-16.5 110.5zM609 1468q28 146 184 146q157 0 129 -146q-28 -147 -186 -147q-156 0 -127 147zM301 1190h300q16 0 25.5 -11.5t6.5 -28.5l-216 -1110q-3 -17 -17 -28.5t-30 -11.5h-300 q-17 0 -26.5 11.5t-6.5 28.5l216 1110q3 17 17 28.5t31 11.5z" />
<glyph unicode="&#xf0;" horiz-adv-x="1430" d="M534 0h-464q-17 0 -26.5 12t-6.5 28l92 472h-82q-16 0 -25.5 11.5t-6.5 28.5l17 90q4 17 18 28.5t30 11.5h82l91 468q3 16 17 28t31 12h464q343 0 508 -151.5t108 -442.5t-280.5 -443.5t-566.5 -152.5zM999 596q36 184 -36.5 261t-257.5 77h-116l-49 -252h166 q17 0 26.5 -12t5.5 -28l-17 -90q-3 -16 -17 -28t-31 -12h-166l-50 -256h116q184 0 287 78t139 262z" />
<glyph unicode="&#xf1;" horiz-adv-x="1524" d="M864 20l-346 732l-139 -712q-3 -17 -16.5 -28.5t-30.5 -11.5h-272q-17 0 -26.5 12t-6.5 28l216 1110q3 16 17 28t31 12h363q26 0 36 -20l347 -732l138 712q3 17 17 28.5t31 11.5h272q16 0 25.5 -11.5t6.5 -28.5l-216 -1110q-3 -17 -17 -28.5t-30 -11.5h-363q-26 0 -37 20 zM934 1351q-70 41 -113 41q-34 0 -53.5 -10.5t-32.5 -36.5q-11 -29 -38 -29h-130q-18 0 -27 8t-5 24q28 125 99.5 198t174.5 73q80 0 150 -40q72 -41 113 -41q34 0 54 10.5t33 36.5q11 29 37 29h130q18 0 27.5 -8t5.5 -24q-29 -126 -100.5 -198.5t-174.5 -72.5 q-79 0 -150 40z" />
<glyph unicode="&#xf2;" horiz-adv-x="1484" d="M1443 596q-26 -134 -92 -246.5t-166.5 -196t-241 -130.5t-306.5 -47q-111 0 -203.5 21.5t-159 60.5t-115.5 95t-72 125t-29 149.5t13 168.5q26 134 92 246t166.5 195.5t241 130t306.5 46.5q133 0 239 -30.5t175.5 -85.5t112.5 -131.5t50 -170t-11 -200.5zM455 596 q-34 -176 25.5 -267t207.5 -91t242.5 91t128.5 267q34 175 -24.5 265.5t-207.5 90.5t-243.5 -90.5t-128.5 -265.5zM908 1623l174 -260q14 -20 -0.5 -42.5t-41.5 -22.5h-148q-49 0 -81 32l-247 239q-16 14 -2 41.5t41 27.5h260q35 0 45 -15z" />
<glyph unicode="&#xf3;" horiz-adv-x="1484" d="M1443 596q-26 -134 -92 -246.5t-166.5 -196t-241 -130.5t-306.5 -47q-111 0 -203.5 21.5t-159 60.5t-115.5 95t-72 125t-29 149.5t13 168.5q26 134 92 246t166.5 195.5t241 130t306.5 46.5q133 0 239 -30.5t175.5 -85.5t112.5 -131.5t50 -170t-11 -200.5zM455 596 q-34 -176 25.5 -267t207.5 -91t242.5 91t128.5 267q34 175 -24.5 265.5t-207.5 90.5t-243.5 -90.5t-128.5 -265.5zM1327 1568l-363 -256q-21 -14 -46 -14h-172q-26 0 -32.5 22t15.5 42l271 254q22 22 51 22h265q28 0 32.5 -26t-21.5 -44z" />
<glyph unicode="&#xf4;" horiz-adv-x="1484" d="M1443 596q-26 -134 -92 -246.5t-166.5 -196t-241 -130.5t-306.5 -47q-111 0 -203.5 21.5t-159 60.5t-115.5 95t-72 125t-29 149.5t13 168.5q26 134 92 246t166.5 195.5t241 130t306.5 46.5q133 0 239 -30.5t175.5 -85.5t112.5 -131.5t50 -170t-11 -200.5zM455 596 q-34 -176 25.5 -267t207.5 -91t242.5 91t128.5 267q34 175 -24.5 265.5t-207.5 90.5t-243.5 -90.5t-128.5 -265.5zM816 1638h288q20 0 28 -14l165 -263q13 -20 -1.5 -41.5t-40.5 -21.5h-181q-17 0 -26 11l-122 153l-182 -153q-13 -11 -30 -11h-181q-26 0 -32 21.5t14 41.5 l267 263q14 14 34 14z" />
<glyph unicode="&#xf5;" horiz-adv-x="1484" d="M1443 596q-26 -134 -92 -246.5t-166.5 -196t-241 -130.5t-306.5 -47q-111 0 -203.5 21.5t-159 60.5t-115.5 95t-72 125t-29 149.5t13 168.5q26 134 92 246t166.5 195.5t241 130t306.5 46.5q133 0 239 -30.5t175.5 -85.5t112.5 -131.5t50 -170t-11 -200.5zM455 596 q-34 -176 25.5 -267t207.5 -91t242.5 91t128.5 267q34 175 -24.5 265.5t-207.5 90.5t-243.5 -90.5t-128.5 -265.5zM914 1351q-70 41 -113 41q-34 0 -53.5 -10.5t-32.5 -36.5q-11 -29 -38 -29h-130q-18 0 -27 8t-5 24q28 125 99.5 198t174.5 73q80 0 150 -40q72 -41 113 -41 q34 0 54 10.5t33 36.5q11 29 37 29h130q18 0 27.5 -8t5.5 -24q-29 -126 -100.5 -198.5t-174.5 -72.5q-79 0 -150 40z" />
<glyph unicode="&#xf6;" horiz-adv-x="1484" d="M1443 596q-26 -134 -92 -246.5t-166.5 -196t-241 -130.5t-306.5 -47q-111 0 -203.5 21.5t-159 60.5t-115.5 95t-72 125t-29 149.5t13 168.5q26 134 92 246t166.5 195.5t241 130t306.5 46.5q133 0 239 -30.5t175.5 -85.5t112.5 -131.5t50 -170t-11 -200.5zM455 596 q-34 -176 25.5 -267t207.5 -91t242.5 91t128.5 267q34 175 -24.5 265.5t-207.5 90.5t-243.5 -90.5t-128.5 -265.5zM512 1468q28 146 184 146q79 0 110 -36t17 -110q-29 -147 -184 -147q-80 0 -110.5 36.5t-16.5 110.5zM1031 1468q28 146 184 146q157 0 129 -146 q-28 -147 -186 -147q-156 0 -127 147z" />
<glyph unicode="&#xf7;" horiz-adv-x="1304" d="M862 1098q0 -180 -180 -180t-180 180t180 180t180 -180zM862 230q0 -180 -180 -180t-180 180t180 180t180 -180zM169 790h1026q16 0 27.5 -11.5t11.5 -27.5v-174q0 -16 -11.5 -27.5t-27.5 -11.5h-1026q-16 0 -27.5 11.5t-11.5 27.5v174q0 16 11.5 27.5t27.5 11.5z" />
<glyph unicode="&#xf8;" horiz-adv-x="1484" d="M1443 596q-26 -134 -92 -246.5t-166.5 -196t-241 -130.5t-306.5 -47q-171 0 -295 49l-190 -219q-24 -26 -61 -26h-68q-17 0 -23.5 9.5t-2 23.5t17.5 29l215 246q-111 82 -151 213t-8 295q26 134 92 246t166.5 195.5t241 130t306.5 46.5q171 0 293 -49l192 219 q23 26 61 26h68q25 0 26.5 -20t-18.5 -42l-214 -245q110 -81 150 -212.5t8 -294.5zM1059 596q29 147 -9 238l-498 -569q56 -27 136 -27q148 0 242.5 91t128.5 267zM455 596q-29 -151 10 -239l495 568q-52 27 -133 27q-149 0 -243.5 -90.5t-128.5 -265.5z" />
<glyph unicode="&#xf9;" horiz-adv-x="1504" d="M647 -24q-295 0 -438 131t-94 385l128 658q3 17 17.5 28.5t31.5 11.5h299q16 0 25.5 -11.5t6.5 -28.5l-128 -660q-24 -125 24.5 -184.5t179.5 -59.5q132 0 204 59.5t96 184.5l128 660q3 16 17 28t31 12h299q17 0 26.5 -11.5t6.5 -28.5l-128 -658q-33 -170 -134.5 -287 t-252.5 -173t-345 -56zM870 1623l174 -260q14 -20 -0.5 -42.5t-41.5 -22.5h-148q-49 0 -81 32l-247 239q-16 14 -2 41.5t41 27.5h260q35 0 45 -15z" />
<glyph unicode="&#xfa;" horiz-adv-x="1504" d="M647 -24q-295 0 -438 131t-94 385l128 658q3 17 17.5 28.5t31.5 11.5h299q16 0 25.5 -11.5t6.5 -28.5l-128 -660q-24 -125 24.5 -184.5t179.5 -59.5q132 0 204 59.5t96 184.5l128 660q3 16 17 28t31 12h299q17 0 26.5 -11.5t6.5 -28.5l-128 -658q-33 -170 -134.5 -287 t-252.5 -173t-345 -56zM1385 1568l-363 -256q-21 -14 -46 -14h-172q-26 0 -32.5 22t15.5 42l271 254q22 22 51 22h265q28 0 32.5 -26t-21.5 -44z" />
<glyph unicode="&#xfb;" horiz-adv-x="1504" d="M647 -24q-295 0 -438 131t-94 385l128 658q3 17 17.5 28.5t31.5 11.5h299q16 0 25.5 -11.5t6.5 -28.5l-128 -660q-24 -125 24.5 -184.5t179.5 -59.5q132 0 204 59.5t96 184.5l128 660q3 16 17 28t31 12h299q17 0 26.5 -11.5t6.5 -28.5l-128 -658q-33 -170 -134.5 -287 t-252.5 -173t-345 -56zM826 1638h288q20 0 28 -14l165 -263q13 -20 -1.5 -41.5t-40.5 -21.5h-181q-17 0 -26 11l-122 153l-182 -153q-13 -11 -30 -11h-181q-26 0 -32 21.5t14 41.5l267 263q14 14 34 14z" />
<glyph unicode="&#xfc;" horiz-adv-x="1504" d="M647 -24q-295 0 -438 131t-94 385l128 658q3 17 17.5 28.5t31.5 11.5h299q16 0 25.5 -11.5t6.5 -28.5l-128 -660q-24 -125 24.5 -184.5t179.5 -59.5q132 0 204 59.5t96 184.5l128 660q3 16 17 28t31 12h299q17 0 26.5 -11.5t6.5 -28.5l-128 -658q-33 -170 -134.5 -287 t-252.5 -173t-345 -56zM522 1468q28 146 184 146q79 0 110 -36t17 -110q-29 -147 -184 -147q-80 0 -110.5 36.5t-16.5 110.5zM1041 1468q28 146 184 146q157 0 129 -146q-28 -147 -186 -147q-156 0 -127 147z" />
<glyph unicode="&#xfd;" horiz-adv-x="1488" d="M794 0h-300q-17 0 -26.5 11.5t-6.5 28.5l82 422l-355 665q-12 21 3 42t41 21h312q7 0 17 -6t13 -12l213 -436l381 436q6 6 18.5 12t19.5 6h312q26 0 33 -21t-13 -42l-615 -665l-82 -422q-3 -17 -16.5 -28.5t-30.5 -11.5zM1315 1568l-363 -256q-21 -14 -46 -14h-172 q-26 0 -32.5 22t15.5 42l271 254q22 22 51 22h265q28 0 32.5 -26t-21.5 -44z" />
<glyph unicode="&#xfe;" horiz-adv-x="1282" d="M588 1010h164q275 0 407.5 -103t92.5 -307t-211.5 -306t-447.5 -102h-164l-30 -152q-3 -17 -17 -28.5t-30 -11.5h-292q-17 0 -26.5 11.5t-6.5 28.5l216 1110q3 17 17 28.5t31 11.5h292q16 0 25.5 -11.5t6.5 -28.5zM477 442h142q119 0 186 37t83 121q17 86 -35.5 123 t-171.5 37h-142z" />
<glyph unicode="&#xff;" horiz-adv-x="1488" d="M794 0h-300q-17 0 -26.5 11.5t-6.5 28.5l82 422l-355 665q-12 21 3 42t41 21h312q7 0 17 -6t13 -12l213 -436l381 436q6 6 18.5 12t19.5 6h312q26 0 33 -21t-13 -42l-615 -665l-82 -422q-3 -17 -16.5 -28.5t-30.5 -11.5zM514 1468q28 146 184 146q79 0 110 -36t17 -110 q-29 -147 -184 -147q-80 0 -110.5 36.5t-16.5 110.5zM1033 1468q28 146 184 146q157 0 129 -146q-28 -147 -186 -147q-156 0 -127 147z" />
<glyph unicode="&#x152;" horiz-adv-x="2164" d="M1945 0h-1022q-474 0 -678.5 182.5t-138.5 517.5q64 334 339.5 517t749.5 183h1005q16 0 25.5 -11.5t6.5 -28.5l-38 -197q-4 -16 -17.5 -27.5t-30.5 -11.5h-600l-53 -274h545q16 0 25 -11.5t6 -28.5l-38 -197q-4 -17 -17.5 -28t-29.5 -11h-545l-58 -298h617 q16 0 25.5 -11.5t6.5 -27.5l-39 -197q-3 -16 -16.5 -28t-29.5 -12zM510 700q-40 -203 70 -307.5t372 -104.5h40l161 824h-40q-523 0 -603 -412z" />
<glyph unicode="&#x153;" horiz-adv-x="1880" d="M1674 0h-890q-415 0 -592 153.5t-121 440.5t293 441.5t651 154.5h876q16 0 25.5 -11.5t6.5 -28.5l-34 -176q-4 -17 -17.5 -28.5t-30.5 -11.5h-490l-39 -202h444q16 0 25.5 -11.5t6.5 -28.5l-34 -176q-4 -17 -17.5 -28.5t-30.5 -11.5h-444l-43 -220h504q17 0 26.5 -11.5 t5.5 -28.5l-34 -176q-3 -17 -17 -28.5t-30 -11.5zM447 594q-31 -162 62.5 -244t306.5 -82h40l126 652h-40q-431 0 -495 -326z" />
<glyph unicode="&#x178;" horiz-adv-x="1720" d="M922 0h-324q-17 0 -26.5 12t-6.5 28l99 508l-427 787q-12 21 3.5 43t41.5 22h308q54 0 74 -39l260 -515l460 515q34 39 90 39h308q26 0 32.5 -22t-13.5 -43l-733 -787l-99 -508q-3 -17 -17 -28.5t-30 -11.5zM670 1678q28 146 184 146t128 -146t-185 -146q-79 0 -110 36 t-17 110zM1190 1678q28 146 184 146t128 -146t-185 -146q-79 0 -110 36t-17 110z" />
<glyph unicode="&#x2c6;" horiz-adv-x="980" d="M529 1460h288q20 0 29 -14l164 -263q13 -20 -1.5 -41.5t-40.5 -21.5h-181q-17 0 -26 11l-122 153l-182 -153q-13 -11 -30 -11h-181q-26 0 -32 21.5t14 41.5l268 263q12 14 33 14z" />
<glyph unicode="&#x2dc;" horiz-adv-x="980" d="M626 1175q-72 41 -113 41q-34 0 -53.5 -10.5t-32.5 -36.5q-11 -29 -38 -29h-130q-18 0 -27.5 8t-5.5 24q29 126 100.5 198.5t174.5 72.5q80 0 150 -40q72 -41 113 -41q65 0 86 47q11 29 38 29h130q18 0 27.5 -8t5.5 -24q-29 -126 -100.5 -198.5t-174.5 -72.5 q-80 0 -150 40z" />
<glyph unicode="&#x2000;" horiz-adv-x="964" />
<glyph unicode="&#x2001;" horiz-adv-x="1928" />
<glyph unicode="&#x2002;" horiz-adv-x="964" />
<glyph unicode="&#x2003;" horiz-adv-x="1928" />
<glyph unicode="&#x2004;" horiz-adv-x="642" />
<glyph unicode="&#x2005;" horiz-adv-x="482" />
<glyph unicode="&#x2006;" horiz-adv-x="321" />
<glyph unicode="&#x2007;" horiz-adv-x="321" />
<glyph unicode="&#x2008;" horiz-adv-x="241" />
<glyph unicode="&#x2009;" horiz-adv-x="385" />
<glyph unicode="&#x200a;" horiz-adv-x="107" />
<glyph unicode="&#x2010;" horiz-adv-x="848" d="M711 528h-570q-16 0 -25 11.5t-6 27.5l37 194q4 17 17.5 28t29.5 11h570q17 0 26 -11.5t5 -27.5l-37 -194q-3 -16 -17 -27.5t-30 -11.5z" />
<glyph unicode="&#x2011;" horiz-adv-x="848" d="M711 528h-570q-16 0 -25 11.5t-6 27.5l37 194q4 17 17.5 28t29.5 11h570q17 0 26 -11.5t5 -27.5l-37 -194q-3 -16 -17 -27.5t-30 -11.5z" />
<glyph unicode="&#x2012;" horiz-adv-x="848" d="M711 528h-570q-16 0 -25 11.5t-6 27.5l37 194q4 17 17.5 28t29.5 11h570q17 0 26 -11.5t5 -27.5l-37 -194q-3 -16 -17 -27.5t-30 -11.5z" />
<glyph unicode="&#x2013;" horiz-adv-x="1000" d="M965 538h-922q-16 0 -25 11.5t-6 27.5l33 174q4 16 17.5 27.5t29.5 11.5h922q16 0 25.5 -11.5t5.5 -27.5l-33 -174q-3 -16 -17 -27.5t-30 -11.5z" />
<glyph unicode="&#x2014;" horiz-adv-x="2000" d="M1965 538h-1922q-16 0 -25 11.5t-6 27.5l33 174q4 16 17.5 27.5t29.5 11.5h1922q16 0 25.5 -11.5t5.5 -27.5l-33 -174q-3 -16 -17 -27.5t-30 -11.5z" />
<glyph unicode="&#x2018;" horiz-adv-x="720" d="M634 1529q31 16 45 -14l30 -62q13 -29 -15 -48q-50 -32 -88.5 -75.5t-54.5 -89.5q140 -21 109 -176q-34 -180 -229 -180q-193 0 -159 180q62 316 362 465z" />
<glyph unicode="&#x2019;" horiz-adv-x="720" d="M357 899q-31 -16 -45 14l-30 62q-13 29 15 48q50 32 88.5 75.5t54.5 89.5q-140 21 -109 176q35 180 229 180t159 -180q-62 -316 -362 -465z" />
<glyph unicode="&#x201a;" horiz-adv-x="720" d="M122 -309q-31 -16 -45 14l-30 62q-13 29 16 48q50 31 88 75t55 90q-140 21 -110 176q34 180 229 180q193 0 159 -180q-62 -317 -362 -465z" />
<glyph unicode="&#x201c;" horiz-adv-x="1226" d="M634 1529q31 16 45 -14l30 -62q13 -29 -15 -48q-50 -32 -88.5 -75.5t-54.5 -89.5q140 -21 109 -176q-34 -180 -229 -180q-193 0 -159 180q62 316 362 465zM1140 1529q31 16 45 -14l30 -62q13 -29 -15 -48q-50 -32 -88.5 -75.5t-54.5 -89.5q140 -21 109 -176 q-34 -180 -229 -180q-193 0 -159 180q62 316 362 465z" />
<glyph unicode="&#x201d;" horiz-adv-x="1226" d="M357 899q-31 -16 -45 14l-30 62q-13 29 15 48q50 32 88.5 75.5t54.5 89.5q-140 21 -109 176q35 180 229 180t159 -180q-62 -316 -362 -465zM863 899q-31 -16 -45 14l-30 62q-13 29 15 48q50 32 88.5 75.5t54.5 89.5q-140 21 -109 176q35 180 229 180t159 -180 q-62 -316 -362 -465z" />
<glyph unicode="&#x201e;" horiz-adv-x="1226" d="M122 -309q-31 -16 -45 14l-30 62q-13 29 16 48q50 31 88 75t55 90q-140 21 -110 176q34 180 229 180q193 0 159 -180q-62 -317 -362 -465zM628 -309q-31 -16 -45 14l-30 62q-13 29 16 48q50 31 88 75t55 90q-140 21 -110 176q34 180 229 180q193 0 159 -180 q-62 -317 -362 -465z" />
<glyph unicode="&#x2022;" horiz-adv-x="1012" d="M230 664q0 138 78.5 213t227.5 75t227.5 -75t78.5 -213t-78.5 -213t-227.5 -75t-227.5 75t-78.5 213z" />
<glyph unicode="&#x2026;" horiz-adv-x="2160" d="M96 156q34 180 229 180q193 0 159 -180q-36 -180 -229 -180q-195 0 -159 180zM816 156q34 180 229 180q193 0 159 -180q-36 -180 -229 -180q-195 0 -159 180zM1536 156q34 180 229 180q193 0 159 -180q-36 -180 -229 -180q-195 0 -159 180z" />
<glyph unicode="&#x202f;" horiz-adv-x="385" />
<glyph unicode="&#x2039;" horiz-adv-x="664" d="M125 545l31 158q3 18 19 29l430 337q24 19 45 9.5t16 -36.5l-36 -184q-5 -27 -27 -43l-248 -191l174 -191q15 -15 10 -43l-35 -184q-5 -27 -30.5 -36.5t-41.5 9.5l-299 337q-11 11 -8 29z" />
<glyph unicode="&#x203a;" horiz-adv-x="664" d="M580 703l-31 -158q-3 -18 -18 -29l-431 -337q-24 -19 -44.5 -9.5t-15.5 36.5l35 184q5 26 28 43l248 191l-174 191q-16 16 -11 43l36 184q5 27 29.5 36.5t41.5 -9.5l300 -337q10 -10 7 -29z" />
<glyph unicode="&#x205f;" horiz-adv-x="482" />
<glyph unicode="&#x20ac;" horiz-adv-x="1536" d="M1596 1365q11 -4 17 -16t3 -25l-58 -201q-5 -20 -23.5 -31t-35.5 -4q-117 48 -293 48q-186 0 -319 -62t-206 -180h639q20 0 28.5 -15t-0.5 -35l-31 -63q-4 -10 -17.5 -18.5t-24.5 -8.5h-653q-17 -53 -21 -110h597q20 0 28 -15t-1 -35l-30 -63q-5 -10 -18.5 -18.5 t-24.5 -8.5h-545q59 -240 438 -240q171 0 313 50q19 7 33 -4t12 -31l-20 -205q-1 -12 -11.5 -24t-22.5 -16q-198 -58 -430 -58q-343 0 -536 138.5t-208 389.5h-99q-16 0 -25 11.5t-6 27.5l12 62q3 16 17 27.5t30 11.5h79q7 58 21 110h-79q-16 0 -25.5 11.5t-5.5 27.5l12 62 q3 16 16.5 27.5t29.5 11.5h99q111 251 357.5 390.5t587.5 139.5q231 0 400 -59z" />
<glyph unicode="&#x2122;" horiz-adv-x="1528" d="M246 777v463h-163q-16 0 -27.5 11.5t-11.5 27.5v83q0 16 11.5 27t27.5 11h525q16 0 27 -11t11 -27v-83q0 -16 -11 -27.5t-27 -11.5h-164v-463q0 -16 -11.5 -27.5t-27.5 -11.5h-120q-16 0 -27.5 11.5t-11.5 27.5zM1040 930h112q16 0 31 17l125 173v-343q0 -16 11.5 -27.5 t27.5 -11.5h118q16 0 27.5 11.5t11.5 27.5v585q0 16 -11.5 27t-27.5 11h-149q-19 0 -31 -16l-189 -264l-189 264q-12 16 -31 16h-149q-16 0 -27.5 -11t-11.5 -27v-585q0 -16 11.5 -27.5t27.5 -11.5h118q16 0 27.5 11.5t11.5 27.5v343l125 -173q15 -17 31 -17z" />
<glyph unicode="&#x25fc;" horiz-adv-x="1190" d="M0 1190h1190v-1190h-1190v1190z" />
<glyph unicode="&#xfb02;" horiz-adv-x="2362" d="M27 40l216 1110q3 17 17.5 28.5t31.5 11.5h919q17 0 26 -11.5t6 -28.5l-34 -176q-4 -17 -17.5 -28.5t-30.5 -11.5h-584l-43 -222h540q17 0 26 -12t6 -29l-34 -175q-3 -17 -17 -28.5t-31 -11.5h-540l-81 -416q-3 -17 -16.5 -28.5t-30.5 -11.5h-295q-17 0 -27 11.5t-7 28.5 zM1201 40l216 1110q3 16 17 28t31 12h300q16 0 25.5 -11.5t6.5 -28.5l-171 -882h626q16 0 25.5 -12t6.5 -29l-37 -187q-3 -17 -17 -28.5t-30 -11.5h-966q-17 0 -26.5 12t-6.5 28z" />
<glyph unicode="&#xfb04;" horiz-adv-x="3536" d="M1201 40l216 1110q3 17 17.5 28.5t31.5 11.5h919q17 0 26 -11.5t6 -28.5l-34 -176q-4 -17 -17.5 -28.5t-30.5 -11.5h-584l-43 -222h540q17 0 26 -12t6 -29l-34 -175q-3 -17 -17 -28.5t-31 -11.5h-540l-81 -416q-3 -17 -16.5 -28.5t-30.5 -11.5h-295q-17 0 -27 11.5 t-7 28.5zM2375 40l216 1110q3 16 17 28t31 12h300q16 0 25.5 -11.5t6.5 -28.5l-171 -882h626q16 0 25.5 -12t6.5 -29l-37 -187q-3 -17 -17 -28.5t-30 -11.5h-966q-17 0 -26.5 12t-6.5 28zM27 40l216 1110q3 17 17.5 28.5t31.5 11.5h919q17 0 26 -11.5t6 -28.5l-34 -176 q-4 -17 -17.5 -28.5t-30.5 -11.5h-584l-43 -222h540q17 0 26 -12t6 -29l-34 -175q-3 -17 -17 -28.5t-31 -11.5h-540l-81 -416q-3 -17 -16.5 -28.5t-30.5 -11.5h-295q-17 0 -27 11.5t-7 28.5z" />
</font>
</defs>
</svg>
