<?xml version="1.0" standalone="no"?>
<!DOCTYPE svg PUBLIC "-//W3C//DTD SVG 1.1//EN" "http://www.w3.org/Graphics/SVG/1.1/DTD/svg11.dtd" >
<svg xmlns="http://www.w3.org/2000/svg">
<metadata></metadata>
<defs>
<font id="core_sans_nr_43_ex_regularIt" horiz-adv-x="1316" >
<font-face units-per-em="2000" ascent="1600" descent="-400" />
<missing-glyph horiz-adv-x="720" />
<glyph unicode="&#xfb01;" horiz-adv-x="1286" d="M-5 925l15 74q3 15 16 26t28 11h207l11 58q36 183 154 274.5t310 91.5q63 0 137 -13q31 -5 21 -41l-23 -71q-12 -37 -48 -33q-60 6 -92 6q-119 0 -188.5 -53t-94.5 -180l-7 -39h315q16 0 24.5 -11t5.5 -26l-15 -74q-3 -15 -15.5 -26t-28.5 -11h-315l-240 -1237 q-3 -15 -16.5 -26t-28.5 -11h-106q-15 0 -23.5 11t-5.5 26l240 1237h-207q-15 0 -24 11t-6 26zM759 37l187 962q3 15 15.5 26t28.5 11h106q16 0 24.5 -11t5.5 -26l-187 -962q-3 -15 -15.5 -26t-28.5 -11h-106q-16 0 -24.5 11t-5.5 26zM1079 1220q-113 0 -89 120t135 120 q113 0 89 -120t-135 -120z" />
<glyph unicode="&#xfb02;" horiz-adv-x="1286" d="M-5 925l15 74q3 15 16 26t28 11h207l11 58q36 183 154 274.5t310 91.5q63 0 137 -13q31 -5 21 -41l-23 -71q-12 -37 -48 -33q-60 6 -92 6q-119 0 -188.5 -53t-94.5 -180l-7 -39h315q16 0 24.5 -11t5.5 -26l-15 -74q-3 -15 -15.5 -26t-28.5 -11h-315l-240 -1237 q-3 -15 -16.5 -26t-28.5 -11h-106q-15 0 -23.5 11t-5.5 26l240 1237h-207q-15 0 -24 11t-6 26zM759 37l269 1386q3 15 15.5 26t28.5 11h106q16 0 24.5 -11t5.5 -26l-269 -1386q-3 -15 -15.5 -26t-28.5 -11h-106q-16 0 -24.5 11t-5.5 26z" />
<glyph unicode="&#xfb03;" horiz-adv-x="2038" d="M1033 1445q32 -7 21 -41l-24 -74q-13 -39 -48 -33q-55 11 -124 11q-133 0 -209 -53t-101 -180l-7 -39h542l11 58q36 183 154 274.5t310 91.5q63 0 137 -13q31 -5 21 -41l-23 -71q-12 -37 -48 -33q-60 6 -92 6q-119 0 -188.5 -53t-94.5 -180l-7 -39h315q16 0 24.5 -11 t5.5 -26l-15 -74q-3 -15 -15.5 -26t-28.5 -11h-315l-240 -1237q-3 -15 -16.5 -26t-28.5 -11h-106q-15 0 -23.5 11t-5.5 26l240 1237h-542l-240 -1237q-3 -15 -16.5 -26t-28.5 -11h-106q-15 0 -23.5 11t-5.5 26l240 1237h-207q-15 0 -24 11t-6 26l15 74q3 15 16 26t28 11h207 l11 58q71 366 495 366q95 0 166 -15zM1611 37l187 962q3 15 15.5 26t28.5 11h106q16 0 24.5 -11t5.5 -26l-187 -962q-3 -15 -15.5 -26t-28.5 -11h-106q-16 0 -24.5 11t-5.5 26zM1931 1220q-113 0 -89 120t135 120q113 0 89 -120t-135 -120z" />
<glyph unicode="&#xfb04;" horiz-adv-x="2038" d="M1033 1445q32 -7 21 -41l-24 -74q-13 -39 -48 -33q-55 11 -124 11q-133 0 -209 -53t-101 -180l-7 -39h542l11 58q36 183 154 274.5t310 91.5q63 0 137 -13q31 -5 21 -41l-23 -71q-12 -37 -48 -33q-60 6 -92 6q-119 0 -188.5 -53t-94.5 -180l-7 -39h315q16 0 24.5 -11 t5.5 -26l-15 -74q-3 -15 -15.5 -26t-28.5 -11h-315l-240 -1237q-3 -15 -16.5 -26t-28.5 -11h-106q-15 0 -23.5 11t-5.5 26l240 1237h-542l-240 -1237q-3 -15 -16.5 -26t-28.5 -11h-106q-15 0 -23.5 11t-5.5 26l240 1237h-207q-15 0 -24 11t-6 26l15 74q3 15 16 26t28 11h207 l11 58q71 366 495 366q95 0 166 -15zM1611 37l269 1386q3 15 15.5 26t28.5 11h106q16 0 24.5 -11t5.5 -26l-269 -1386q-3 -15 -15.5 -26t-28.5 -11h-106q-16 0 -24.5 11t-5.5 26z" />
<glyph horiz-adv-x="0" />
<glyph horiz-adv-x="0" />
<glyph unicode="&#xd;" horiz-adv-x="682" />
<glyph horiz-adv-x="0" />
<glyph unicode="&#x9;" horiz-adv-x="682" />
<glyph horiz-adv-x="0" />
<glyph unicode=" "  horiz-adv-x="720" />
<glyph unicode="&#x09;" horiz-adv-x="720" />
<glyph unicode="&#xa0;" horiz-adv-x="720" />
<glyph unicode="!" horiz-adv-x="584" d="M201 372l82 629l70 362q3 15 16 26t29 11h132q16 0 24 -11t5 -26l-70 -363l-162 -627q-4 -14 -16.5 -24.5t-27.5 -10.5h-52q-15 0 -23.5 10t-6.5 24zM186 -24q-128 0 -105 118t151 118t105 -118t-151 -118z" />
<glyph unicode="&#x22;" horiz-adv-x="1010" d="M291 892l72 469q2 16 16 27.5t31 11.5h132q15 0 24 -11t6 -26l-6 -33l-124 -440q-4 -14 -16.5 -24t-26.5 -10h-78q-14 0 -23 10.5t-7 25.5zM691 892l72 469q2 16 16 27.5t31 11.5h132q15 0 24 -11t6 -26l-6 -33l-124 -440q-4 -14 -16.5 -24t-26.5 -10h-78q-14 0 -23 10.5 t-7 25.5z" />
<glyph unicode="#" horiz-adv-x="1570" d="M1332 356h-262l-131 -326q-4 -12 -17 -21t-25 -9h-108q-19 0 -27 13.5t-1 31.5l125 311h-414l-131 -326q-4 -12 -17 -21t-25 -9h-108q-19 0 -27 13.5t-1 31.5l125 311h-216q-16 0 -24.5 11t-5.5 26l15 80q4 16 16.5 26.5t28.5 10.5h247l157 392h-232q-16 0 -24.5 11 t-5.5 26l16 80q3 16 15.5 26.5t28.5 10.5h264l126 314q4 12 17.5 21t25.5 9h108q19 0 27 -13.5t0 -31.5l-120 -299h414l126 314q4 12 17.5 21t25.5 9h108q19 0 27 -13.5t0 -31.5l-120 -299h214q16 0 24.5 -10.5t5.5 -26.5l-16 -80q-3 -15 -15.5 -26t-28.5 -11h-246 l-157 -392h231q16 0 24.5 -10.5t4.5 -26.5l-15 -80q-3 -15 -15.5 -26t-28.5 -11zM690 902l-157 -392h414l157 392h-414z" />
<glyph unicode="$" horiz-adv-x="1238" d="M45 46q-26 12 -17 38l28 99q5 20 23.5 28t36.5 0q150 -65 375 -67l97 498q-234 68 -321.5 166.5t-57.5 253.5q30 154 166.5 247.5t364.5 110.5l28 145q3 15 16 26t28 11h58q16 0 24.5 -11t5.5 -26l-28 -142q188 -3 333 -49q27 -9 18 -39l-26 -94q-5 -19 -21.5 -28.5 t-33.5 -4.5q-136 45 -302 48l-91 -467q231 -78 314.5 -175t54.5 -246q-67 -344 -526 -386l-29 -147q-3 -16 -15.5 -26.5t-28.5 -10.5h-58q-15 0 -24 10.5t-6 26.5l28 141h-5q-232 0 -409 70zM919 362q15 80 -32 136t-174 104l-88 -450q259 34 294 210zM407 1068 q-15 -79 36 -134.5t182 -103.5l82 421q-270 -27 -300 -183z" />
<glyph unicode="%" horiz-adv-x="2028" d="M1381 -16q-167 0 -248.5 102.5t-50.5 261.5t152.5 261.5t288.5 102.5t248.5 -103t50.5 -261q-30 -158 -152 -261t-289 -103zM1642 348q19 98 -20.5 153t-128.5 55t-150.5 -55t-80.5 -153t21 -153t129 -55t150 54.5t80 153.5zM550 686q-167 0 -248.5 103t-50.5 261 q30 159 151.5 261.5t288.5 102.5t248.5 -102.5t51.5 -261.5q-31 -159 -152.5 -261.5t-288.5 -102.5zM811 1050q19 99 -21 153.5t-129 54.5t-150 -55t-80 -153t20.5 -153t128.5 -55t150.5 55t80.5 153zM456 43l1359 1296q20 19 16.5 40t-28.5 21h-86q-53 0 -98 -43 l-1359 -1296q-20 -19 -16 -40t29 -21h86q52 0 97 43z" />
<glyph unicode="&#x26;" horiz-adv-x="1600" d="M1186 312l254 -246q18 -16 4.5 -41t-40.5 -25h-94q-71 0 -123 50l-130 124q-232 -198 -570 -198q-144 0 -250 41.5t-159 129t-29 209.5q24 121 117.5 217.5t288.5 184.5q-90 87 -121.5 166.5t-12.5 173.5q28 145 161 235.5t318 90.5q196 0 292.5 -91t66.5 -245 q-21 -105 -107.5 -189t-289.5 -177l305 -294q84 127 125 306q4 15 17 25.5t27 10.5h109q16 0 24.5 -11t5.5 -27q-23 -111 -73.5 -223t-115.5 -197zM527 130q244 0 418 154l-372 360q-65 -26 -111.5 -49.5t-99.5 -59.5t-86 -82.5t-44 -102.5q-20 -100 61 -160t234 -60z M644 836q169 72 243 130.5t87 125.5q16 81 -40 129.5t-168 48.5q-106 0 -178.5 -50.5t-86.5 -119.5q-10 -55 20.5 -114t122.5 -150z" />
<glyph unicode="'" horiz-adv-x="590" d="M281 892l72 469q2 16 16 27.5t31 11.5h132q15 0 24 -11t6 -26l-6 -33l-124 -440q-4 -14 -16.5 -24t-26.5 -10h-78q-14 0 -23 10.5t-7 25.5z" />
<glyph unicode="(" horiz-adv-x="798" d="M219 621q48 244 179 459.5t327 393.5q29 26 66 26h58q25 0 30.5 -20t-13.5 -40q-381 -389 -465 -819q-84 -434 147 -821q11 -20 -2.5 -40t-38.5 -20h-58q-37 0 -56 26q-127 177 -174 394t0 461z" />
<glyph unicode=")" horiz-adv-x="798" d="M580 621q-47 -244 -178.5 -460.5t-327.5 -394.5q-29 -26 -66 -26h-58q-25 0 -30.5 20t13.5 40q381 389 465 821t-147 819q-11 20 2.5 40t38.5 20h58q37 0 56 -26q127 -178 174.5 -393.5t-0.5 -459.5z" />
<glyph unicode="*" horiz-adv-x="1092" d="M616 222h-96q-16 0 -27 11.5t-10 27.5l12 278l-234 -150q-14 -9 -29.5 -5.5t-23.5 17.5l-47 83q-8 13 -4 29t19 23l247 128l-247 128q-14 7 -19 22.5t3 29.5l48 82q8 14 23.5 18t29.5 -5l235 -151l-13 279q-1 16 10 27.5t27 11.5h96q16 0 27 -11.5t10 -27.5l-13 -279 l235 151q14 9 29.5 5t23.5 -18l48 -82q8 -14 3 -29.5t-19 -22.5l-247 -128l247 -128q15 -7 19 -23t-4 -29l-47 -83q-8 -14 -23.5 -17.5t-29.5 5.5l-234 150l12 -278q1 -16 -10 -27.5t-27 -11.5z" />
<glyph unicode="+" horiz-adv-x="1324" d="M598 208v377h-411q-15 0 -26 10.5t-11 26.5v85q0 15 11 26t26 11h411v376q0 16 11 27t26 11h114q16 0 26.5 -11t10.5 -27v-376h412q16 0 26.5 -11t10.5 -26v-85q0 -16 -10.5 -26.5t-26.5 -10.5h-412v-377q0 -15 -10.5 -26t-26.5 -11h-114q-15 0 -26 11t-11 26z" />
<glyph unicode="," horiz-adv-x="668" d="M80 -212q107 80 134 186q-63 3 -84.5 36t-11.5 84q22 118 151 118q66 0 90.5 -31.5t9.5 -108.5q-20 -107 -85 -196t-169 -150q-25 -15 -36 7l-12 20q-9 19 13 35z" />
<glyph unicode="-" horiz-adv-x="852" d="M700 576h-537q-16 0 -24 11t-5 26l19 102q3 15 16 26t29 11h537q16 0 24.5 -11t5.5 -26l-19 -102q-3 -15 -16.5 -26t-29.5 -11z" />
<glyph unicode="." horiz-adv-x="668" d="M228 -24q-128 0 -105 118t151 118t105 -118t-151 -118z" />
<glyph unicode="/" horiz-adv-x="1190" d="M1332 1440l-1292 -1621q-31 -39 -74 -39h-86q-23 0 -29.5 18t9.5 38l1291 1621q31 39 74 39h86q23 0 30 -18t-9 -38z" />
<glyph unicode="0" horiz-adv-x="1336" d="M562 -24q-146 0 -250.5 53.5t-158.5 149.5t-69 229t19 292q31 160 95 292t156.5 228.5t217.5 150t271 53.5q117 0 208 -34.5t149 -98t91 -153.5t34 -200t-22 -238q-31 -160 -95.5 -292t-157 -228.5t-217.5 -150t-271 -53.5zM1111 700q52 268 -28 414t-272 146t-328 -146 t-188 -414t27.5 -414t271.5 -146t328.5 146t188.5 414z" />
<glyph unicode="1" horiz-adv-x="1336" d="M821 1194l-348 -180q-15 -7 -28.5 -3.5t-19.5 15.5l-33 73q-6 14 0 30.5t22 24.5l432 230q28 16 57 16h109q15 0 24 -10.5t5 -26.5l-257 -1326q-3 -15 -16 -26t-28 -11h-114q-15 0 -24 11t-6 26z" />
<glyph unicode="2" horiz-adv-x="1336" d="M1028 0h-944q-16 0 -24.5 11t-5.5 26l16 85q6 35 49 62q319 200 577 400q159 123 251.5 231.5t114.5 221.5q15 75 -23.5 126t-112 74t-177.5 23q-186 0 -344 -66q-20 -8 -34.5 1.5t-12.5 26.5l9 87q3 31 29 42q79 33 189 53t210 20q115 0 206 -24t155 -71t90 -123.5 t7 -175.5q-13 -66 -42.5 -129.5t-67.5 -117t-94 -110t-111.5 -103.5t-129.5 -103q-211 -162 -435 -303h686q15 0 24 -11t6 -26l-17 -90q-3 -15 -16 -26t-28 -11z" />
<glyph unicode="3" horiz-adv-x="1336" d="M82 26q-26 7 -15 41l28 97q6 18 22.5 26t33.5 2q135 -52 337 -52q197 0 313 59t137 169q26 133 -107 204.5t-397 76.5q-16 0 -24.5 10.5t-5.5 26.5l17 90q3 15 16 25.5t30 11.5q255 7 407 69.5t175 179.5q18 92 -63.5 145t-258.5 53q-178 0 -344 -56q-19 -6 -32.5 2 t-12.5 26l7 87q3 32 31 41q192 64 393 64q266 0 386 -93.5t90 -248.5q-28 -143 -132 -231t-267 -121q165 -33 238.5 -126t45.5 -238q-35 -180 -205.5 -285t-460.5 -105q-92 0 -201.5 13.5t-180.5 36.5z" />
<glyph unicode="4" horiz-adv-x="1336" d="M30 343l20 101q4 24 24 44l940 893q19 19 45 19h142q16 0 24 -11t5 -26l-174 -898h168q16 0 24.5 -10.5t5.5 -26.5l-17 -85q-3 -15 -15.5 -26t-28.5 -11h-168l-52 -269q-3 -15 -15.5 -26t-28.5 -11h-114q-15 0 -24 11t-6 26l52 269h-777q-16 0 -24.5 11t-5.5 26z M1002 1155l-726 -690h592z" />
<glyph unicode="5" horiz-adv-x="1336" d="M263 711l127 653q3 15 16 25.5t29 10.5h829q15 0 23.5 -11t5.5 -26l-16 -86q-3 -16 -16 -26.5t-28 -10.5h-679l-78 -398q140 30 229 30q256 0 377.5 -113.5t79.5 -328.5q-39 -203 -220 -328.5t-476 -125.5q-208 0 -365 51q-28 9 -19 39l30 99q5 19 20.5 27.5t32.5 1.5 q136 -54 326 -54q204 0 329.5 83t152.5 221q14 71 -5.5 123t-69 82.5t-118.5 44.5t-159 14q-169 0 -321 -38q-19 -5 -30 8t-7 33z" />
<glyph unicode="6" horiz-adv-x="1336" d="M737 748q-107 0 -222.5 -44t-209.5 -118q-25 -226 62.5 -336t261.5 -110q151 0 264.5 84.5t140.5 219.5q27 140 -51 222t-246 82zM1204 1212q-107 48 -272 48q-212 0 -365 -119.5t-224 -370.5q211 142 450 142q109 0 198 -32t148.5 -91t83.5 -147.5t3 -195.5 q-40 -208 -218 -339t-411 -131q-129 0 -228.5 40.5t-167.5 125.5t-86.5 216.5t13.5 313.5q75 382 293 567t539 185q175 0 306 -49q26 -10 18 -40l-28 -92q-6 -20 -21 -29t-31 -2z" />
<glyph unicode="7" horiz-adv-x="1336" d="M386 0h-101q-22 0 -29.5 17t6.5 37l830 1186h-776q-16 0 -25 10.5t-6 26.5l16 86q3 15 16.5 26t29.5 11h943q15 0 23.5 -11t5.5 -26l-17 -91q-8 -39 -36 -79l-803 -1150q-31 -43 -77 -43z" />
<glyph unicode="8" horiz-adv-x="1336" d="M60 372q24 125 134.5 218t273.5 152q-137 66 -180 147.5t-25 180.5q33 165 191 259.5t390 94.5q228 0 351 -94.5t91 -257.5q-39 -204 -347 -332q184 -83 242.5 -169.5t35.5 -200.5q-35 -181 -209.5 -287.5t-444.5 -106.5t-404.5 106.5t-98.5 289.5zM1025 366 q11 59 -16 102.5t-107.5 89.5t-240.5 108q-171 -49 -281 -125.5t-129 -172.5q-19 -99 69.5 -163.5t274.5 -64.5q175 0 293 65.5t137 160.5zM455 1070q-14 -74 49 -127.5t261 -132.5q90 35 153 68.5t113.5 84t61.5 107.5q16 79 -58.5 134.5t-222.5 55.5q-146 0 -243.5 -54.5 t-113.5 -135.5z" />
<glyph unicode="9" horiz-adv-x="1336" d="M667 652q107 0 222.5 44t209.5 118q25 226 -62.5 336t-261.5 110q-151 0 -264.5 -84.5t-140.5 -219.5q-27 -140 51.5 -222t245.5 -82zM200 188q107 -48 272 -48q212 0 365 119.5t224 370.5q-211 -142 -450 -142q-109 0 -198 32t-148.5 91t-83.5 147.5t-3 195.5 q40 208 218 339t411 131q129 0 228.5 -40.5t167.5 -125.5t86.5 -216.5t-13.5 -313.5q-75 -382 -293 -567t-539 -185q-175 0 -306 49q-26 11 -18 40l28 92q6 20 21 29t31 2z" />
<glyph unicode=":" horiz-adv-x="668" d="M228 -24q-128 0 -105 118t151 118t105 -118t-151 -118zM393 824q-129 0 -105 118q23 118 151 118t105 -118q-24 -118 -151 -118z" />
<glyph unicode=";" horiz-adv-x="668" d="M388 824q-129 0 -105 118q23 118 151 118t105 -118q-24 -118 -151 -118zM116 -273q-10 -7 -21.5 -5.5t-16.5 10.5l-11 21q-9 19 13 35q107 82 134 186q-63 3 -84.5 36t-11.5 84q22 118 151 118q66 0 90.5 -31.5t9.5 -108.5q-20 -107 -85 -195.5t-168 -149.5z" />
<glyph unicode="&#x3c;" horiz-adv-x="1324" d="M150 604v120q0 26 23 35l1013 400q19 7 33.5 -2t14.5 -25v-108q0 -25 -24 -35l-848 -325l848 -325q24 -10 24 -35v-108q0 -16 -14.5 -25t-33.5 -2l-1013 400q-23 9 -23 35z" />
<glyph unicode="=" horiz-adv-x="1324" d="M1198 816h-1012q-15 0 -25.5 11.5t-10.5 26.5v86q0 15 10.5 25.5t25.5 10.5h1012q15 0 25.5 -10.5t10.5 -25.5v-86q0 -15 -10.5 -26.5t-25.5 -11.5zM1198 352h-1012q-15 0 -25.5 11.5t-10.5 26.5v86q0 15 10.5 25.5t25.5 10.5h1012q15 0 25.5 -10.5t10.5 -25.5v-86 q0 -15 -10.5 -26.5t-25.5 -11.5z" />
<glyph unicode="&#x3e;" horiz-adv-x="1324" d="M1234 724v-120q0 -26 -23 -35l-1013 -400q-19 -7 -33.5 2t-14.5 25v108q0 25 24 35l848 325l-848 325q-24 10 -24 35v108q0 16 14.5 25t33.5 2l1013 -400q23 -9 23 -35z" />
<glyph unicode="?" horiz-adv-x="1198" d="M379 375l7 36q27 138 97.5 233t208.5 168q140 74 198 133t73 138q17 87 -60 128t-260 41q-193 0 -353 -63q-21 -8 -34 1.5t-11 29.5l10 99q2 11 11 21.5t19 14.5q180 69 400 69q272 0 392.5 -87.5t87.5 -253.5q-21 -110 -112.5 -209.5t-242.5 -178.5 q-102 -53 -157 -122.5t-74 -166.5l-6 -31q-3 -16 -16 -26.5t-28 -10.5h-120q-15 0 -24 10.5t-6 26.5zM398 -24q-128 0 -105 118t151 118t105 -118t-151 -118z" />
<glyph unicode="@" horiz-adv-x="1928" d="M803 260q200 0 334 144l135 354q-41 86 -185 86q-138 0 -266.5 -114.5t-159.5 -273.5q-19 -96 21 -146t121 -50zM1345 -191q-257 -133 -527 -133q-154 0 -285 43t-223 120.5t-152.5 186.5t-74.5 240.5t12 281.5q29 149 97 283.5t166.5 242t219.5 186.5t263 121.5 t290 42.5q193 0 345.5 -63t246 -173t128.5 -264t1 -332q-42 -217 -169.5 -352.5t-303.5 -135.5q-177 0 -220 156q-160 -144 -400 -144q-148 0 -226.5 90.5t-49.5 237.5q23 119 88.5 222.5t152.5 173t189 109t200 39.5q233 0 325 -168q13 -26 -1 -62l-142 -376 q-17 -81 13 -125.5t110 -44.5q101 0 183.5 108t114.5 272q21 99 13 189.5t-36 169t-82.5 142t-126.5 109t-169 70t-209 24.5q-210 0 -396.5 -98t-312 -269t-166.5 -381q-41 -211 21 -380.5t216.5 -266.5t373.5 -97q261 0 469 116q33 20 42 -10l16 -54q9 -30 -24 -47z" />
<glyph unicode="A" horiz-adv-x="1516" d="M433 522h616l-173 696zM1091 358h-764l-199 -313q-28 -45 -79 -45h-98q-22 0 -29.5 17t5.5 37l857 1319q17 27 49 27h158q30 0 37 -27l345 -1319q5 -20 -8.5 -37t-35.5 -17h-98q-51 0 -63 45z" />
<glyph unicode="B" horiz-adv-x="1420" d="M665 0h-570q-16 0 -25 11t-6 27l257 1324q3 16 16.5 27t29.5 11h544q242 0 359 -102t85 -266q-21 -104 -88 -179t-169 -113q129 -40 184.5 -128.5t32.5 -209.5q-38 -193 -204.5 -297.5t-445.5 -104.5zM1123 406q23 116 -60.5 177t-274.5 61h-418l-94 -484h390 q410 0 457 246zM1160 1018q21 108 -59.5 165t-250.5 57h-364l-85 -436h394q158 0 251.5 55.5t113.5 158.5z" />
<glyph unicode="C" horiz-adv-x="1400" d="M123 700q64 330 325 527t649 197q198 0 342 -46q33 -10 23 -46l-25 -85q-6 -20 -22.5 -30t-34.5 -3q-115 46 -305 46q-305 0 -508 -152t-252 -408q-50 -256 94 -408t449 -152q184 0 334 51q19 7 32 -3t11 -30l-8 -85q-2 -17 -13.5 -31.5t-27.5 -18.5q-166 -47 -370 -47 q-388 0 -572.5 197t-120.5 527z" />
<glyph unicode="D" horiz-adv-x="1530" d="M1301 700q53 274 -108 407t-513 133h-194l-210 -1080h194q725 0 831 540zM469 0h-375q-15 0 -24 11t-6 27l257 1324q3 16 16.5 27t28.5 11h375q199 0 352.5 -44.5t254.5 -131t139.5 -220t5.5 -304.5q-34 -172 -124.5 -305.5t-225 -219.5t-305 -130.5t-369.5 -44.5z" />
<glyph unicode="E" horiz-adv-x="1278" d="M64 38l257 1324q3 16 16.5 27t29.5 11h942q16 0 24.5 -11t5.5 -27l-16 -84q-3 -16 -16 -27t-29 -11h-792l-86 -440h746q16 0 25 -11t6 -26l-17 -85q-3 -16 -16 -27t-29 -11h-746l-93 -480h813q15 0 23.5 -11t5.5 -27l-16 -84q-3 -16 -16 -27t-28 -11h-963q-16 0 -25 11 t-6 27z" />
<glyph unicode="F" horiz-adv-x="1218" d="M64 38l257 1324q3 16 16.5 27t29.5 11h942q16 0 24.5 -11t5.5 -27l-16 -84q-3 -16 -16 -27t-29 -11h-792l-85 -436h740q16 0 24.5 -11t5.5 -27l-16 -84q-3 -16 -16 -27t-29 -11h-740l-118 -606q-3 -16 -16 -27t-29 -11h-112q-16 0 -25 11t-6 27z" />
<glyph unicode="G" horiz-adv-x="1616" d="M125 700q30 154 115 286.5t213.5 230t304.5 152.5t377 55q237 0 440 -65q29 -10 19 -38l-29 -97q-5 -20 -22 -29.5t-34 -2.5q-171 68 -397 68q-316 0 -531 -154.5t-264 -405.5q-51 -259 110 -409.5t496 -150.5q169 0 297 34l85 436h-440q-15 0 -24.5 11t-6.5 27l17 84 q3 16 16.5 27t28.5 11h590q16 0 25 -11t6 -27l-126 -649q-8 -36 -36 -44q-210 -63 -474 -63q-205 0 -363.5 53.5t-254.5 148.5t-132.5 229t-5.5 293z" />
<glyph unicode="H" horiz-adv-x="1584" d="M64 38l257 1324q3 16 17.5 27t30.5 11h110q15 0 24 -11t6 -27l-104 -538h888l104 538q3 16 16.5 27t29.5 11h112q16 0 24.5 -11t5.5 -27l-257 -1324q-3 -16 -16 -27t-29 -11h-112q-16 0 -25 11t-6 27l122 626h-888l-122 -626q-3 -16 -16.5 -27t-28.5 -11h-112 q-16 0 -25 11t-6 27z" />
<glyph unicode="I" horiz-adv-x="528" d="M377 1400h113q15 0 23.5 -11t5.5 -27l-257 -1324q-3 -16 -16 -27t-28 -11h-113q-16 0 -25 11t-6 27l257 1324q3 16 16.5 27t29.5 11z" />
<glyph unicode="J" horiz-adv-x="1020" d="M657 469l173 893q3 16 16.5 27t29.5 11h112q16 0 24.5 -11t5.5 -27l-173 -891q-96 -495 -593 -495q-175 0 -300 51q-31 12 -21 50l25 84q5 19 23 27.5t36 0.5q115 -49 266 -49q312 0 376 329z" />
<glyph unicode="K" horiz-adv-x="1396" d="M367 1400h113q15 0 23.5 -11t5.5 -27l-115 -591l799 597q42 32 85 32h144q14 0 18.5 -9t0 -19.5t-12.5 -16.5l-819 -611l672 -701q11 -11 4 -27t-25 -16h-152q-57 0 -81 27l-645 682l-130 -671q-3 -16 -16 -27t-28 -11h-113q-16 0 -25 11t-6 27l257 1324q3 16 16.5 27 t29.5 11z" />
<glyph unicode="L" horiz-adv-x="1288" d="M64 38l257 1324q3 16 16.5 27t29.5 11h112q16 0 24.5 -11t5.5 -27l-233 -1202h862q16 0 24.5 -11t5.5 -27l-16 -84q-3 -16 -16 -27t-29 -11h-1012q-16 0 -25 11t-6 27z" />
<glyph unicode="M" horiz-adv-x="1904" d="M967 458h-58q-40 0 -59 33l-385 665l-217 -1118q-3 -16 -16 -27t-28 -11h-109q-16 0 -25 11t-6 27l257 1324q3 16 16.5 27t29.5 11h132q45 0 61 -30l416 -714l694 714q28 30 73 30h132q16 0 24.5 -11t5.5 -27l-257 -1324q-3 -16 -16 -27t-29 -11h-109q-15 0 -24 11t-6 27 l217 1118l-643 -665q-31 -33 -71 -33z" />
<glyph unicode="N" horiz-adv-x="1582" d="M579 1366l601 -1133l219 1129q3 16 16.5 27t29.5 11h108q16 0 24.5 -11t5.5 -27l-257 -1324q-3 -16 -16 -27t-29 -11h-140q-56 0 -73 34l-601 1133l-219 -1129q-3 -16 -16 -27t-29 -11h-108q-16 0 -25 11t-6 27l257 1324q3 16 16.5 27t29.5 11h140q55 0 72 -34z" />
<glyph unicode="O" horiz-adv-x="1648" d="M1401 700q49 255 -68 407.5t-366 152.5t-425 -152.5t-225 -407.5q-50 -255 67 -407.5t366 -152.5t425 152.5t226 407.5zM1593 700q-30 -152 -105.5 -284t-187 -230t-262 -154t-320.5 -56q-114 0 -210.5 25.5t-167 72t-122.5 112t-77.5 146t-31.5 173.5t16 195 q29 152 104.5 284t187 230t262 154t320.5 56q114 0 210.5 -25.5t167 -72t122.5 -112t77.5 -146t31.5 -174t-15 -194.5z" />
<glyph unicode="P" horiz-adv-x="1340" d="M347 528l-95 -490q-3 -16 -16 -27t-29 -11h-112q-16 0 -25 11t-6 27l257 1324q3 16 16.5 27t29.5 11h462q288 0 427 -112.5t98 -323.5t-224 -323.5t-471 -112.5h-312zM1162 964q27 140 -70.5 208t-311.5 68h-294l-108 -552h294q436 0 490 276z" />
<glyph unicode="Q" horiz-adv-x="1648" d="M1401 700q49 255 -68 407.5t-366 152.5t-425 -152.5t-225 -407.5q-50 -255 67 -407.5t366 -152.5t425 152.5t226 407.5zM1281 -292q-100 -18 -211 -18q-94 0 -169 15.5t-134 48t-90 89.5t-29 135q-203 15 -335.5 114.5t-179 256.5t-8.5 351q29 152 104.5 284t187 230 t262 154t320.5 56q114 0 210.5 -25.5t167 -72t122.5 -112t77.5 -146t31.5 -174t-15 -194.5q-55 -284 -257 -481.5t-495 -234.5q1 -73 67 -107.5t202 -34.5q92 0 169 15q17 4 29 -4t11 -24l-3 -80q-2 -35 -35 -41z" />
<glyph unicode="R" horiz-adv-x="1424" d="M357 580l-106 -547q-3 -15 -16 -24t-29 -9h-111q-16 0 -25 11t-6 27l257 1324q3 16 16.5 27t29.5 11h496q263 0 405 -108.5t105 -301.5q-29 -145 -142 -243.5t-285 -140.5l319 -545q12 -20 -2.5 -40.5t-39.5 -20.5h-131q-23 0 -32 18l-319 562h-384zM816 1240h-330 l-98 -500h330q201 0 320 63.5t143 186.5q24 124 -70 187t-295 63z" />
<glyph unicode="S" horiz-adv-x="1234" d="M41 45q-26 11 -17 38l26 95q5 20 23.5 28t36.5 0q151 -66 384 -66q191 0 298 59t127 163q18 95 -57.5 159.5t-272.5 120.5q-238 68 -327 166t-59 254q33 171 196.5 266.5t433.5 95.5q207 0 366 -50q27 -9 18 -39l-25 -87q-5 -19 -21 -28.5t-33 -4.5q-135 45 -333 45 q-188 0 -290 -52.5t-119 -139.5t52 -148t241 -114q264 -82 358.5 -181.5t64.5 -256.5q-77 -392 -664 -392q-234 0 -407 69z" />
<glyph unicode="T" horiz-adv-x="1270" d="M443 38l234 1202h-482q-16 0 -25 11t-6 27l16 84q3 16 16.5 27t29.5 11h1154q16 0 24.5 -11t5.5 -27l-16 -84q-3 -16 -16 -27t-29 -11h-484l-234 -1202q-3 -16 -16 -27t-29 -11h-113q-15 0 -24 11t-6 27z" />
<glyph unicode="U" horiz-adv-x="1622" d="M706 -24q-142 0 -252.5 34.5t-186 105t-101.5 177.5t0 253l158 816q3 16 16.5 27t28.5 11h113q16 0 24.5 -11t5.5 -27l-155 -798q-40 -205 56.5 -314.5t324.5 -109.5t366.5 109.5t178.5 314.5l155 798q3 16 16.5 27t29.5 11h113q15 0 23.5 -11t5.5 -27l-158 -816 q-28 -142 -98 -252t-171.5 -179t-226 -104t-266.5 -35z" />
<glyph unicode="V" horiz-adv-x="1574" d="M754 0h-150q-34 0 -42 33l-343 1313q-5 20 9 37t36 17h112q21 0 31 -10t15 -29l292 -1179l750 1179q25 39 62 39h112q22 0 29 -17t-6 -37l-853 -1313q-20 -33 -54 -33z" />
<glyph unicode="W" horiz-adv-x="2310" d="M1241 1400h162q15 0 26 -10t13 -29l118 -1153l650 1156q19 36 58 36h112q21 0 29.5 -16t-2.5 -35l-749 -1320q-17 -29 -48 -29h-185q-15 0 -26.5 9.5t-12.5 24.5l-109 1136l-551 -1136q-16 -34 -51 -34h-185q-31 0 -38 29l-235 1320q-4 19 11 35t36 16h112q38 0 44 -36 l200 -1156l566 1153q19 39 55 39z" />
<glyph unicode="X" horiz-adv-x="1560" d="M752 581l-594 -547q-37 -34 -83 -34h-102q-26 0 -31 22t16 41l704 648l-437 626q-14 19 0 41t40 22h102q46 0 70 -34l366 -525l570 525q37 34 84 34h102q26 0 30.5 -22t-16.5 -41l-679 -626l452 -648q14 -19 0.5 -41t-39.5 -22h-102q-47 0 -71 34z" />
<glyph unicode="Y" horiz-adv-x="1568" d="M720 0h-112q-16 0 -25 11t-6 27l100 516l-450 785q-11 20 3 40.5t39 20.5h105q46 0 67 -38l363 -640l611 640q35 38 83 38h105q25 0 31 -20.5t-13 -40.5l-756 -785l-100 -516q-3 -16 -16 -27t-29 -11z" />
<glyph unicode="Z" horiz-adv-x="1302" d="M1320 1202l-1100 -1042h913q15 0 23.5 -11t5.5 -27l-16 -84q-3 -16 -16 -27t-28 -11h-1108q-15 0 -24 11t-6 27l17 86q8 42 43 75l1100 1041h-852q-15 0 -24 11t-6 27l16 84q3 16 16.5 27t28.5 11h1047q15 0 23.5 -11t5.5 -27l-17 -87q-7 -41 -42 -73z" />
<glyph unicode="[" horiz-adv-x="858" d="M92 -223l328 1686q3 15 16 26t29 11h502q15 0 24 -11t6 -26l-15 -79q-4 -16 -17 -27t-28 -11h-350l-282 -1452h351q15 0 24 -11t6 -26l-16 -80q-3 -15 -16 -26t-28 -11h-503q-16 0 -25 11t-6 26z" />
<glyph unicode="\" horiz-adv-x="1190" d="M842 -181l-662 1621q-8 20 6 38t37 18h86q43 0 60 -39l662 -1621q8 -20 -6 -38t-37 -18h-86q-43 0 -60 39z" />
<glyph unicode="]" horiz-adv-x="858" d="M799 1463l-328 -1686q-3 -15 -16 -26t-29 -11h-503q-15 0 -23.5 11t-5.5 26l15 80q3 15 16 26t28 11h351l282 1452h-350q-15 0 -24 11t-5 27l15 79q3 15 16 26t28 11h502q16 0 25 -11t6 -26z" />
<glyph unicode="^" horiz-adv-x="1324" d="M609 1400h138q23 0 38 -21l419 -595q13 -20 3 -33t-33 -13h-122q-30 0 -52 31l-322 463l-322 -463q-22 -31 -52 -31h-122q-23 0 -33 13t3 33l419 595q15 21 38 21z" />
<glyph unicode="_" horiz-adv-x="1000" d="M-162 -302l9 49q3 15 16.5 26t28.5 11h925q15 0 23.5 -10.5t5.5 -26.5l-9 -49q-3 -16 -16.5 -27t-28.5 -11h-925q-15 0 -23.5 11t-5.5 27z" />
<glyph unicode="`" horiz-adv-x="964" d="M636 1438l173 -242q18 -24 6.5 -42t-48.5 -18h-68q-25 0 -49 24l-232 244q-19 19 -7.5 37.5t43.5 18.5h146q20 0 36 -22z" />
<glyph unicode="a" d="M1078 942l11 57q3 15 15.5 26t28.5 11h106q15 0 24 -11t6 -26l-187 -962q-3 -15 -16 -26t-28 -11h-106q-16 0 -24.5 11t-5.5 26l11 57q-180 -118 -393 -118q-244 0 -366.5 147t-74.5 395t228 395t424 147q213 0 347 -118zM263 518q-36 -186 56.5 -288t271.5 -102 q95 0 188.5 33.5t163.5 90.5l104 532q-48 58 -128.5 91t-175.5 33q-179 0 -311.5 -102t-168.5 -288z" />
<glyph unicode="b" d="M235 94l-11 -57q-3 -15 -16 -26t-28 -11h-106q-16 0 -24.5 11t-5.5 26l269 1386q3 15 15.5 26t28.5 11h106q15 0 24 -11t6 -26l-93 -481q179 118 392 118q244 0 366 -147t74 -395t-227.5 -395t-423.5 -147q-214 0 -346 118zM1048 518q36 186 -56.5 288t-271.5 102 q-95 0 -187.5 -33t-163.5 -91l-104 -532q49 -58 128.5 -91t174.5 -33q179 0 311.5 102t168.5 288z" />
<glyph unicode="c" horiz-adv-x="1146" d="M675 128q151 0 275 41q19 7 30.5 -3t9.5 -30l-4 -62q-2 -38 -37 -49q-143 -49 -315 -49q-303 0 -452.5 147t-101.5 395q48 246 251.5 394t489.5 148q175 0 303 -48q35 -13 23 -47l-21 -66q-6 -20 -21 -30t-31 -3q-113 42 -271 42q-206 0 -354.5 -103t-184.5 -287 q-36 -186 75 -288t336 -102z" />
<glyph unicode="d" d="M901 37l11 57q-180 -118 -392 -118q-244 0 -366.5 147t-74.5 395t228 395t424 147q212 0 346 -118l93 481q3 15 16 26t28 11h106q16 0 24.5 -11t5.5 -26l-269 -1386q-3 -15 -15.5 -26t-28.5 -11h-106q-15 0 -24 11t-6 26zM263 518q-36 -186 56.5 -288t271.5 -102 q95 0 188 33t163 91l104 532q-48 58 -128 91t-175 33q-179 0 -311.5 -102t-168.5 -288z" />
<glyph unicode="e" horiz-adv-x="1248" d="M291 594h162q300 0 431.5 37.5t148.5 126.5q12 65 -56.5 107.5t-200.5 42.5q-181 0 -308 -82.5t-177 -231.5zM944 31q-149 -55 -349 -55q-293 0 -429 143.5t-86 396.5q47 242 240 393t480 151q209 0 329.5 -84.5t95.5 -217.5q-30 -156 -211.5 -235t-551.5 -79h-200 q-13 -162 80 -239t292 -77q182 0 315 51q19 7 33 -1.5t13 -27.5l-5 -62q-6 -42 -46 -57z" />
<glyph unicode="f" horiz-adv-x="806" d="M95 925l15 74q3 15 16 26t28 11h207l11 58q36 183 154 274.5t310 91.5q63 0 137 -13q31 -5 21 -41l-23 -71q-12 -37 -48 -33q-60 6 -92 6q-119 0 -188.5 -53t-94.5 -180l-7 -39h315q16 0 24.5 -11t5.5 -26l-15 -74q-3 -15 -15.5 -26t-28.5 -11h-315l-240 -1237 q-3 -15 -16.5 -26t-28.5 -11h-106q-15 0 -23.5 11t-5.5 26l240 1237h-207q-15 0 -24 11t-6 26z" />
<glyph unicode="g" horiz-adv-x="1236" d="M55 -336q-22 11 -16 36l26 98q5 16 21.5 21.5t33.5 -2.5q133 -65 307 -65q172 0 269 66.5t127 221.5l13 66q-68 -55 -159 -85.5t-189 -30.5q-225 0 -339.5 145.5t-67.5 388.5q31 161 121 283.5t218 187.5t276 65q97 0 176 -31t127 -83l11 53q3 15 16 26t28 11h106 q15 0 24 -11t6 -26l-179 -919q-49 -254 -195.5 -367t-419.5 -113q-193 0 -341 64zM702 908q-162 0 -281.5 -100.5t-155.5 -283.5q-35 -182 46 -282t242 -100q84 0 168 32.5t145 87.5l103 526q-40 55 -111.5 87.5t-155.5 32.5z" />
<glyph unicode="h" horiz-adv-x="1314" d="M908 38l106 548q32 160 -42.5 241t-236.5 81q-216 0 -366 -124l-145 -746q-3 -16 -16 -27t-28 -11h-105q-16 0 -25 11t-6 27l269 1384q3 16 16 27t29 11h105q15 0 24 -11t6 -27l-93 -480q177 118 395 118q227 0 335.5 -121.5t64.5 -348.5l-107 -552q-3 -16 -16 -27 t-28 -11h-105q-16 0 -25 11t-6 27z" />
<glyph unicode="i" horiz-adv-x="480" d="M54 37l187 962q3 15 15.5 26t28.5 11h106q16 0 24.5 -11t5.5 -26l-187 -962q-3 -15 -15.5 -26t-28.5 -11h-106q-16 0 -24.5 11t-5.5 26zM374 1220q-113 0 -89 120t135 120q113 0 89 -120t-135 -120z" />
<glyph unicode="j" horiz-adv-x="550" d="M115 -49l204 1048q3 15 16 26t28 11h106q15 0 24 -11t6 -26l-203 -1043q-35 -181 -146 -268.5t-304 -87.5q-60 0 -110 11q-14 3 -21 15t-3 26l23 79q4 16 17.5 23.5t29.5 4.5q36 -7 81 -7q105 0 168.5 47.5t83.5 151.5zM452 1220q-113 0 -89 120t135 120q113 0 89 -120 t-135 -120z" />
<glyph unicode="k" horiz-adv-x="1188" d="M1011 1036h145q13 0 19 -8t2.5 -18.5t-15.5 -18.5l-635 -413l507 -535q12 -11 4.5 -27t-28.5 -16h-146q-43 0 -71 32l-470 516l-99 -511q-3 -15 -16 -26t-28 -11h-106q-15 0 -24 11t-6 26l269 1386q3 15 16 26t28 11h106q15 0 24 -11t6 -26l-158 -815l595 396 q48 32 81 32z" />
<glyph unicode="l" horiz-adv-x="480" d="M54 37l269 1386q3 15 15.5 26t28.5 11h106q16 0 24.5 -11t5.5 -26l-269 -1386q-3 -15 -15.5 -26t-28.5 -11h-106q-16 0 -24.5 11t-5.5 26z" />
<glyph unicode="m" horiz-adv-x="2026" d="M411 999l-11 -57q67 53 169 85.5t202 32.5q236 0 325 -158q95 72 214 115t233 43q211 0 311 -115.5t57 -332.5l-111 -575q-3 -15 -16 -26t-28 -11h-106q-16 0 -24.5 11t-5.5 26l112 579q28 141 -37.5 216.5t-203.5 75.5q-84 0 -179 -35.5t-177 -96.5q12 -77 -6 -164 l-111 -575q-3 -15 -16 -26t-28 -11h-106q-15 0 -24 11t-6 26l112 579q28 141 -36.5 216.5t-200.5 75.5q-90 0 -187 -36.5t-157 -87.5l-145 -747q-3 -15 -15.5 -26t-28.5 -11h-106q-15 0 -24 11t-6 26l187 962q3 15 16 26t28 11h106q16 0 24.5 -11t5.5 -26z" />
<glyph unicode="n" horiz-adv-x="1314" d="M411 999l-11 -57q177 118 395 118q227 0 335.5 -121.5t64.5 -348.5l-107 -553q-3 -15 -16 -26t-28 -11h-105q-16 0 -25 11t-6 26l106 547q31 160 -43.5 242t-235.5 82q-216 0 -366 -124l-145 -747q-3 -15 -16 -26t-28 -11h-105q-16 0 -25 11t-6 26l187 962q3 15 16 26 t29 11h105q15 0 24 -11t6 -26z" />
<glyph unicode="o" horiz-adv-x="1332" d="M561 -24q-174 0 -294.5 71t-168.5 194t-18 277q46 236 238 389t454 153q174 0 294 -71t168 -194t18 -277q-46 -236 -237.5 -389t-453.5 -153zM1068 518q34 177 -56 283.5t-270 106.5t-312 -106.5t-166 -283.5t56 -283.5t270 -106.5t312 106.5t166 283.5z" />
<glyph unicode="p" d="M418 999l-11 -57q179 118 392 118q244 0 366 -147t74 -395t-227.5 -395t-423.5 -147q-214 0 -346 118l-94 -481q-3 -15 -16 -26t-28 -11h-106q-16 0 -24.5 11t-5.5 26l270 1386q3 15 15.5 26t28.5 11h106q15 0 24 -11t6 -26zM1055 518q36 186 -56.5 288t-271.5 102 q-95 0 -187.5 -33t-163.5 -91l-104 -532q49 -58 128.5 -91t174.5 -33q179 0 311.5 102t168.5 288z" />
<glyph unicode="q" d="M1077 942l11 57q3 15 16 26t28 11h106q16 0 24.5 -11t5.5 -26l-270 -1386q-3 -15 -15.5 -26t-28.5 -11h-106q-15 0 -24 11t-6 26l94 481q-180 -118 -392 -118q-244 0 -366.5 147t-74.5 395t228 395t424 147q212 0 346 -118zM263 518q-36 -186 56.5 -288t271.5 -102 q95 0 188 33t163 91l104 532q-48 58 -128 91t-175 33q-179 0 -311.5 -102t-168.5 -288z" />
<glyph unicode="r" horiz-adv-x="844" d="M356 722l-133 -685q-3 -15 -16 -26t-28 -11h-104q-16 0 -25 11t-6 26l187 962q3 15 16 26t29 11h104q15 0 24 -10.5t6 -25.5l-19 -96q74 73 173 114.5t210 41.5q66 0 127 -13q31 -7 20 -42l-30 -87q-5 -16 -19 -22t-30 -2q-48 14 -108 14q-115 0 -216 -52t-162 -134z" />
<glyph unicode="s" horiz-adv-x="1048" d="M28 40q-31 14 -22 51l22 77q6 21 22 27.5t34 -2.5q130 -65 320 -65q291 0 320 150q13 66 -46.5 107t-218.5 75q-185 40 -261.5 118t-53.5 196q55 286 508 286q179 0 318 -48q34 -12 22 -47l-23 -70q-6 -20 -22 -27.5t-32 -1.5q-123 42 -281 42q-137 0 -215 -34.5 t-89 -91.5q-12 -62 44.5 -103.5t202.5 -74.5q141 -32 220.5 -80t103 -104.5t8.5 -133.5q-29 -152 -164 -231t-368 -79q-202 0 -349 64z" />
<glyph unicode="t" horiz-adv-x="870" d="M105 926l15 73q3 15 15.5 26t28.5 11h183l53 275q3 15 16.5 26t29.5 11h105q15 0 23.5 -11t5.5 -26l-53 -275h354q15 0 24 -11t6 -26l-15 -73q-2 -15 -15.5 -26t-28.5 -11h-354l-99 -510q-28 -147 14.5 -199t165.5 -52q62 0 95 8q16 4 26.5 -5t10.5 -26l-2 -75 q0 -16 -10 -28t-26 -15q-67 -11 -137 -11q-199 0 -280.5 85.5t-46.5 267.5l109 560h-183q-15 0 -23.5 11t-6.5 26z" />
<glyph unicode="u" horiz-adv-x="1314" d="M901 37l11 57q-179 -118 -395 -118q-227 0 -336 122t-65 348l108 553q3 15 16 26t28 11h105q16 0 25 -11t6 -26l-107 -547q-31 -160 43.5 -242t235.5 -82q216 0 366 124l146 747q3 15 16 26t28 11h105q16 0 25 -11t6 -26l-187 -962q-3 -15 -16 -26t-29 -11h-105 q-15 0 -24 11t-6 26z" />
<glyph unicode="v" horiz-adv-x="1200" d="M577 0h-168q-40 0 -49 37l-224 947q-5 20 8.5 36t35.5 16h99q44 0 54 -40l194 -820l512 820q26 40 70 40h99q22 0 29 -16t-5 -36l-592 -947q-23 -37 -63 -37z" />
<glyph unicode="w" horiz-adv-x="1804" d="M928 1036h140q40 0 44 -36l94 -806l439 800q23 42 72 42h100q21 0 28.5 -15t-3.5 -35l-535 -945q-9 -17 -27.5 -29t-38.5 -12h-136q-47 0 -52 47l-93 795l-401 -795q-23 -47 -70 -47h-136q-20 0 -34.5 12t-17.5 29l-167 945q-3 20 10.5 35t34.5 15h100q47 0 56 -42 l127 -800l408 806q19 36 58 36z" />
<glyph unicode="x" horiz-adv-x="1194" d="M541 405l-401 -372q-35 -33 -76 -33h-105q-27 0 -30 19t17 37l510 472l-311 452q-14 18 -3.5 37t37.5 19h105q42 0 63 -33l242 -351l378 351q35 33 77 33h105q27 0 30 -19t-18 -37l-487 -452l326 -472q14 -18 4 -37t-37 -19h-105q-43 0 -64 33z" />
<glyph unicode="y" horiz-adv-x="1258" d="M561 196l528 797q28 43 75 43h95q23 0 31 -16.5t-5 -36.5l-891 -1348q-15 -21 -39 -21h-122q-22 0 -28.5 17t6.5 36l214 325l-287 991q-6 20 8.5 36.5t37.5 16.5h95q47 0 59 -43z" />
<glyph unicode="z" horiz-adv-x="1080" d="M-46 37l15 81q8 35 33 57l835 713h-650q-15 0 -24 11t-6 26l16 74q3 15 16 26t28 11h850q15 0 24 -11t6 -26l-16 -80q-7 -37 -45 -70l-823 -701h705q15 0 24 -11t6 -26l-14 -74q-3 -15 -16 -26t-28 -11h-906q-16 0 -24.5 11t-5.5 26z" />
<glyph unicode="{" horiz-adv-x="846" d="M170 579l16 82q6 31 40 36q64 12 113.5 63.5t65.5 131.5l67 344q28 145 122.5 204.5t252.5 59.5h112q18 0 25.5 -10.5t4.5 -26.5l-15 -78q-3 -16 -14.5 -26.5t-29.5 -10.5h-94q-84 0 -123.5 -21.5t-51.5 -82.5l-72 -370q-20 -107 -73 -166.5t-154 -87.5 q90 -28 119.5 -87.5t9.5 -166.5l-72 -370q-12 -61 18.5 -82.5t115.5 -21.5h94q36 0 29 -37l-15 -78q-3 -16 -14.5 -26.5t-29.5 -10.5h-112q-158 0 -229.5 59.5t-43.5 204.5l67 344q16 80 -14 131.5t-89 63.5q-32 6 -26 36z" />
<glyph unicode="|" horiz-adv-x="584" d="M244 -363v1864q0 15 11 26t26 11h82q16 0 26.5 -11t10.5 -26v-1864q0 -15 -10.5 -26t-26.5 -11h-82q-15 0 -26 11t-11 26z" />
<glyph unicode="}" horiz-adv-x="846" d="M712 661l-16 -82q-6 -31 -40 -36q-64 -12 -113.5 -63.5t-65.5 -131.5l-67 -344q-28 -145 -122.5 -204.5t-252.5 -59.5h-112q-36 0 -29 37l14 78q3 16 15 26.5t30 10.5h94q84 0 123 21.5t51 82.5l72 370q20 107 73 166.5t154 87.5q-90 28 -119.5 87.5t-9.5 166.5l72 370 q12 61 -18.5 82.5t-114.5 21.5h-94q-18 0 -25.5 10.5t-4.5 26.5l15 78q3 16 14.5 26.5t29.5 10.5h112q158 0 229.5 -59.5t43.5 -204.5l-67 -344q-16 -80 14 -131.5t89 -63.5q32 -6 26 -36z" />
<glyph unicode="~" horiz-adv-x="1324" d="M1055 792q2 14 13 23t24 9h102q17 0 28.5 -11.5t9.5 -28.5q-9 -138 -95.5 -210t-214.5 -72q-133 0 -256 86q-120 84 -208 84q-114 0 -129 -134q-1 -13 -13 -22.5t-25 -9.5h-102q-17 0 -27.5 12t-9.5 29q10 138 94.5 209.5t211.5 71.5q140 0 260 -86q119 -84 204 -84 q112 0 133 134z" />
<glyph unicode="&#xa1;" horiz-adv-x="584" d="M92 35l163 629q3 14 15.5 24t27.5 10h52q15 0 23.5 -10.5t6.5 -24.5l-82 -627l-70 -363q-3 -15 -15.5 -26t-28.5 -11h-132q-16 0 -24.5 11t-5.5 26zM394 1060q128 0 105 -118q-24 -118 -151 -118q-129 0 -105 118q23 118 151 118z" />
<glyph unicode="&#xa2;" horiz-adv-x="1146" d="M672 -23l-28 -142q-3 -16 -15.5 -26.5t-28.5 -10.5h-58q-15 0 -24 10.5t-6 26.5l29 145q-258 23 -381 166.5t-79 371.5q45 230 226.5 375t442.5 164l28 144q3 15 16 26t28 11h58q16 0 24.5 -11t5.5 -26l-28 -143q135 -6 243 -46q35 -13 23 -47l-21 -66q-6 -20 -21 -30 t-31 -3q-96 35 -222 41l-152 -779q136 3 250 41q19 7 30.5 -3t9.5 -30l-4 -62q-2 -38 -37 -49q-129 -43 -278 -48zM265 518q-32 -163 50 -262t256 -122l149 769q-177 -20 -300 -120t-155 -265z" />
<glyph unicode="&#xa3;" horiz-adv-x="1344" d="M113 703l10 50q3 15 16 26t28 11h149l44 225q40 205 192.5 307t404.5 102q99 0 195 -17t159 -48q24 -12 18 -41l-24 -85q-5 -20 -22.5 -29.5t-34.5 -1.5q-133 58 -309 58q-180 0 -273.5 -59.5t-119.5 -192.5l-42 -218h471q15 0 24 -11t6 -26l-10 -50q-3 -15 -16 -26 t-28 -11h-471l-32 -164q-21 -109 -63.5 -194.5t-124.5 -147.5h915q15 0 23.5 -11t5.5 -26l-16 -86q-3 -15 -16 -26t-28 -11h-1130q-15 0 -24 11t-6 26l13 70q7 32 39 55q183 128 219 313l37 191h-149q-15 0 -24 11t-6 26z" />
<glyph unicode="&#xa4;" horiz-adv-x="1420" d="M420 664q0 -133 88 -222.5t222 -89.5t222 89.5t88 222.5t-88 222.5t-222 89.5t-222 -89.5t-88 -222.5zM238 664q0 152 84 270l-117 116q-11 11 -11 26t11 26l73 75q11 12 26.5 12t26.5 -12l115 -117q129 90 284 90t284 -90l115 117q11 12 26.5 12t26.5 -12l73 -75 q11 -11 11 -26t-11 -26l-117 -116q84 -118 84 -270t-84 -270l117 -116q11 -11 11 -26t-11 -26l-73 -75q-11 -12 -26.5 -12t-26.5 12l-115 117q-129 -90 -284 -90t-284 90l-115 -117q-11 -12 -26.5 -12t-26.5 12l-73 75q-11 11 -11 26t11 26l117 116q-84 118 -84 270z" />
<glyph unicode="&#xa5;" horiz-adv-x="1428" d="M201 674h378l-341 667q-11 20 3.5 39.5t39.5 19.5h109q44 0 65 -43l298 -623l540 623q39 43 83 43h109q25 0 31 -20t-12 -39l-599 -667h378q15 0 23.5 -11t5.5 -26l-9 -50q-3 -15 -16.5 -26t-28.5 -11h-447l-24 -124h447q15 0 24 -10.5t6 -26.5l-10 -50q-3 -16 -16 -26.5 t-28 -10.5h-447l-51 -265q-3 -15 -16 -26t-29 -11h-112q-16 0 -25 11t-6 26l51 265h-447q-15 0 -24 10.5t-6 26.5l10 50q3 16 16 26.5t28 10.5h447l24 124h-447q-15 0 -23.5 11t-5.5 26l9 50q3 15 16.5 26t28.5 11z" />
<glyph unicode="&#xa6;" horiz-adv-x="584" d="M281 1376h82q16 0 26.5 -11t10.5 -27v-565q0 -15 -10.5 -26t-26.5 -11h-82q-15 0 -26 11t-11 26v565q0 16 11 27t26 11zM281 440h82q16 0 26.5 -11t10.5 -27v-565q0 -15 -10.5 -26t-26.5 -11h-82q-15 0 -26 11t-11 26v565q0 16 11 27t26 11z" />
<glyph unicode="&#xa7;" horiz-adv-x="1166" d="M651 816q-126 -19 -201.5 -70t-89.5 -122q-12 -61 40.5 -107.5t161.5 -68.5q124 18 200.5 68.5t90.5 121.5q11 62 -40 108t-162 70zM100 29q154 -77 331 -77q288 0 318 152q13 65 -40.5 111.5t-196.5 78.5q-189 41 -279 122t-67 200q18 95 98.5 166t195.5 98 q-113 36 -162.5 103t-31.5 155q26 135 158 210.5t349 75.5q180 0 323 -57q26 -10 16 -38l-26 -80q-6 -19 -21 -28.5t-31 -2.5q-127 54 -292 54q-126 0 -199 -35t-86 -101q-10 -56 53.5 -98t204.5 -80q184 -50 267.5 -130t61.5 -194q-18 -92 -90 -158.5t-190 -99.5 q110 -33 152.5 -104.5t24.5 -163.5q-28 -146 -166.5 -227t-372.5 -81q-211 0 -365 73q-23 11 -16 38l28 91q6 19 21 27t30 0z" />
<glyph unicode="&#xa8;" horiz-adv-x="964" d="M284 1298q21 106 134 106q115 0 94 -106t-135 -106t-93 106zM756 1298q21 106 134 106q115 0 94 -106t-135 -106t-93 106z" />
<glyph unicode="&#xa9;" horiz-adv-x="1660" d="M136 700q0 197 97 363.5t263.5 263.5t363.5 97t363.5 -97t263.5 -263.5t97 -363.5t-97 -363.5t-263.5 -263.5t-363.5 -97t-363.5 97t-263.5 263.5t-97 363.5zM248 700q0 -169 82 -312t223 -225.5t307 -82.5t307 82.5t223 225.5t82 312t-82 312t-223 225.5t-307 82.5 t-307 -82.5t-223 -225.5t-82 -312zM894 378q-133 0 -213.5 85.5t-80.5 232.5t80.5 232.5t213.5 85.5q103 0 180 -33q20 -8 33.5 -1.5t15.5 22.5l6 59q3 25 -22 34q-95 35 -217 35q-186 0 -307 -120t-121 -314t121 -314t307 -120q119 0 217 36q26 9 22 39l-7 62q-3 32 -48 13 q-79 -34 -180 -34z" />
<glyph unicode="&#xaa;" horiz-adv-x="1004" d="M880 1327l9 42q3 16 16 26.5t28 10.5h78q15 0 24 -10.5t6 -26.5l-129 -662q-3 -15 -16 -26t-28 -11h-78q-15 0 -24 11t-6 26l8 42q-154 -93 -273 -93q-182 0 -272 105.5t-57 275.5t164 275.5t313 105.5q124 0 237 -91zM790 864l68 347q-31 40 -89 65t-124 25 q-117 0 -208 -71.5t-114 -192.5q-23 -120 40 -192.5t180 -72.5q66 0 133.5 25.5t113.5 66.5z" />
<glyph unicode="&#xab;" horiz-adv-x="1074" d="M158 618l2 12q4 25 33 46l442 332q17 13 26 8.5t5 -24.5l-17 -90q-6 -28 -31 -48l-305 -230l215 -230q19 -20 13 -48l-18 -90q-4 -19 -14 -23.5t-23 7.5l-313 332q-21 21 -15 46zM536 618l2 12q4 25 33 46l442 332q17 13 26 8.5t5 -24.5l-17 -90q-6 -28 -31 -48 l-305 -230l215 -230q19 -20 13 -48l-18 -90q-4 -19 -14 -23.5t-23 7.5l-313 332q-21 21 -15 46z" />
<glyph unicode="&#xac;" horiz-adv-x="1324" d="M140 767v86q0 16 10 26.5t26 10.5h1011q15 0 26 -10.5t11 -26.5v-490q0 -16 -11 -26.5t-26 -10.5h-114q-15 0 -26 10.5t-11 26.5v367h-860q-15 0 -25.5 11t-10.5 26z" />
<glyph unicode="&#xad;" horiz-adv-x="852" d="M700 576h-537q-16 0 -24 11t-5 26l19 102q3 15 16 26t29 11h537q16 0 24.5 -11t5.5 -26l-19 -102q-3 -15 -16.5 -26t-29.5 -11z" />
<glyph unicode="&#xae;" horiz-adv-x="1660" d="M136 700q0 197 97 363.5t263.5 263.5t363.5 97t363.5 -97t263.5 -263.5t97 -363.5t-97 -363.5t-263.5 -263.5t-363.5 -97t-363.5 97t-263.5 263.5t-97 363.5zM248 700q0 -169 82 -312t223 -225.5t307 -82.5t307 82.5t223 225.5t82 312t-82 312t-223 225.5t-307 82.5 t-307 -82.5t-223 -225.5t-82 -312zM1038 874q0 64 -43 97t-141 33h-146v-260h146q184 0 184 130zM610 1116h252q144 0 228 -64t84 -178q0 -84 -46 -142t-130 -84l192 -326q8 -12 2 -26t-24 -14h-63q-37 0 -56 33l-181 315h-160v-311q0 -15 -11 -26t-26 -11h-62q-15 0 -26 11 t-11 26v761q0 15 11.5 25.5t26.5 10.5z" />
<glyph unicode="&#xaf;" horiz-adv-x="964" d="M280 1257l15 78q3 15 16 26t28 11h610q15 0 24 -11t6 -26l-15 -78q-3 -15 -16 -26t-28 -11h-610q-15 0 -24 11t-6 26z" />
<glyph unicode="&#xb0;" horiz-adv-x="964" d="M487 836q-129 0 -200 85.5t-47 208.5t128 208.5t233 85.5t200 -85.5t47 -208.5t-128 -208.5t-233 -85.5zM574 1286q-67 0 -119 -43t-65 -113t22 -113t102 -43t119 43t65 113t-22 113t-102 43z" />
<glyph unicode="&#xb1;" horiz-adv-x="1324" d="M598 351v359h-411q-15 0 -26 11t-11 26v86q0 15 11 26t26 11h411v359q0 15 11 26t26 11h114q16 0 26.5 -11t10.5 -26v-359h411q16 0 26.5 -11t10.5 -26v-86q0 -15 -10.5 -26t-26.5 -11h-411v-359q0 -16 -10.5 -26.5t-26.5 -10.5h-114q-15 0 -26 10.5t-11 26.5zM1197 70 h-1010q-15 0 -26 10.5t-11 26.5v85q0 16 11 27t26 11h1010q16 0 26.5 -11t10.5 -27v-85q0 -16 -10.5 -26.5t-26.5 -10.5z" />
<glyph unicode="&#xb2;" horiz-adv-x="900" d="M123 607q245 149 413 293q91 76 135.5 129.5t55.5 108.5q13 70 -34 102t-146 32q-121 0 -227 -37q-20 -6 -32.5 3.5t-10.5 28.5l8 63q4 28 32 39q124 47 276 47q170 0 248.5 -69t53.5 -199q-17 -84 -69 -157.5t-164 -166.5q-152 -125 -300 -216h399q15 0 24 -10.5 t5 -26.5l-12 -64q-3 -16 -16 -26.5t-28 -10.5h-616q-15 0 -24 10.5t-6 26.5l12 64q5 24 23 36z" />
<glyph unicode="&#xb3;" horiz-adv-x="900" d="M106 490q-24 9 -15 37l22 72q6 18 22.5 27t32.5 3q86 -31 216 -31q115 0 182 34.5t79 93.5q14 74 -61.5 113.5t-254.5 42.5q-16 1 -24 11t-5 26l14 70q2 14 15 25t28 12q161 2 254 40t105 98q10 54 -37.5 81t-151.5 27q-124 0 -221 -30q-18 -5 -31 3.5t-12 26.5l5 66 q2 28 29 37q130 41 272 41q172 0 255 -62t59 -182q-14 -72 -76.5 -130t-162.5 -84q97 -27 140 -88t27 -144q-26 -129 -143 -200.5t-306 -71.5q-140 0 -256 36z" />
<glyph unicode="&#xb4;" horiz-adv-x="964" d="M395 1196l267 242q24 22 44 22h145q32 0 36.5 -18.5t-21.5 -37.5l-327 -244q-32 -24 -59 -24h-67q-37 0 -41 18t23 42z" />
<glyph unicode="&#xb5;" horiz-adv-x="1328" d="M235 96l-87 -447q-3 -15 -16 -26t-28 -11h-106q-16 0 -24.5 11t-5.5 26l263 1350q3 15 15.5 26t28.5 11h106q15 0 24 -11t6 -26l-146 -751q45 -54 131.5 -87t186.5 -33q98 0 199 32.5t167 85.5l147 753q3 15 16 26t29 11h105q15 0 24 -11t6 -26l-187 -962q-3 -15 -16 -26 t-28 -11h-105q-16 0 -25 11t-6 26l11 63q-69 -58 -168 -91t-198 -33q-102 0 -188 32.5t-131 87.5z" />
<glyph unicode="&#xb6;" horiz-adv-x="1144" d="M1014 1400v-1627q0 -15 -11 -26t-26 -11h-72q-16 0 -26.5 11t-10.5 26v1477h-140v-1479q0 -15 -11 -25t-26 -10h-77q-16 0 -27 11t-11 26v761h-18q-127 0 -232 50.5t-170.5 151.5t-65.5 234q0 200 123.5 315t320.5 115h480z" />
<glyph unicode="&#xb7;" horiz-adv-x="668" d="M337 536q-129 0 -105 118q23 118 151 118t105 -118q-24 -118 -151 -118z" />
<glyph unicode="&#xb8;" horiz-adv-x="964" d="M198 -476q-53 0 -104 8q-24 3 -19 28l13 65q5 26 27 22q43 -7 100 -7q150 0 165 80q8 43 -38.5 68.5t-148.5 30.5q-14 1 -17.5 11.5t6.5 20.5l113 133q13 16 33 16h121q14 0 16.5 -9.5t-6.5 -19.5l-77 -89q87 -13 128 -60t27 -116q-35 -182 -339 -182z" />
<glyph unicode="&#xb9;" horiz-adv-x="900" d="M553 1211l-190 -103q-11 -6 -25.5 -5t-18.5 10l-32 68q-6 13 -0.5 28.5t20.5 24.5l287 156q21 12 43 12h80q16 0 24.5 -11t5.5 -27l-167 -857q-3 -16 -15.5 -26.5t-28.5 -10.5h-90q-16 0 -24.5 10.5t-5.5 26.5z" />
<glyph unicode="&#xba;" horiz-adv-x="1004" d="M527 652q-189 0 -287 103.5t-65 278.5q34 175 173 278.5t328 103.5t287 -103.5t64 -278.5q-33 -174 -172 -278t-328 -104zM650 1284q-117 0 -201 -64t-108 -186q-23 -122 36 -186t176 -64t201 64t107 186q24 122 -35 186t-176 64z" />
<glyph unicode="&#xbb;" horiz-adv-x="1074" d="M952 630l-2 -12q-5 -25 -33 -46l-443 -332q-17 -12 -26 -7.5t-5 23.5l18 90q6 30 31 48l305 230l-215 230q-19 19 -13 48l17 90q4 19 14.5 23.5t22.5 -7.5l314 -332q19 -21 15 -46zM574 630l-2 -12q-5 -25 -33 -46l-443 -332q-17 -12 -26 -7.5t-5 23.5l18 90q6 30 31 48 l305 230l-215 230q-19 19 -13 48l17 90q4 19 14.5 23.5t22.5 -7.5l314 -332q19 -21 15 -46z" />
<glyph unicode="&#xbc;" horiz-adv-x="2230" d="M549 1211l-190 -103q-11 -6 -25.5 -5t-18.5 10l-32 68q-6 13 -0.5 28.5t20.5 24.5l287 156q21 12 43 12h80q16 0 24.5 -11t5.5 -27l-167 -857q-3 -16 -15.5 -26.5t-28.5 -10.5h-90q-16 0 -24.5 10.5t-5.5 26.5zM1175 233l14 74q4 18 21 33l608 575q13 13 39 13h96 q15 0 24 -11t6 -26l-109 -559h93q15 0 24 -11t6 -26l-12 -62q-3 -15 -16 -26t-28 -11h-93l-31 -158q-3 -16 -16 -27t-28 -11h-90q-15 0 -24 11t-6 27l31 158h-479q-15 0 -24 11t-6 26zM1786 722l-413 -390h337zM1738 1402l-1193 -1412q-18 -20 -38 -20h-102q-15 0 -19 8.5 t6 19.5l1193 1412q16 20 37 20h103q15 0 18.5 -9t-5.5 -19z" />
<glyph unicode="&#xbd;" horiz-adv-x="2230" d="M549 1211l-190 -103q-11 -6 -25.5 -5t-18.5 10l-32 68q-6 13 -0.5 28.5t20.5 24.5l287 156q21 12 43 12h80q16 0 24.5 -11t5.5 -27l-167 -857q-3 -16 -15.5 -26.5t-28.5 -10.5h-90q-16 0 -24.5 10.5t-5.5 26.5zM1690 1402l-1193 -1412q-18 -20 -38 -20h-102 q-15 0 -19 8.5t6 19.5l1193 1412q16 20 37 20h103q15 0 18.5 -9t-5.5 -19zM1282 137q249 153 413 293q91 76 135.5 130t54.5 108q14 69 -33.5 101.5t-146.5 32.5q-119 0 -227 -37q-19 -6 -32 3.5t-11 28.5l9 63q2 11 11 23t20 16q125 47 276 47q170 0 248.5 -69t53.5 -199 q-16 -84 -68 -157.5t-165 -166.5q-152 -125 -300 -216h399q15 0 24 -10.5t6 -26.5l-12 -64q-3 -16 -16 -26.5t-28 -10.5h-616q-15 0 -24 10.5t-6 26.5l12 64q5 24 23 36z" />
<glyph unicode="&#xbe;" horiz-adv-x="2230" d="M106 490q-24 9 -15 37l22 72q6 18 22.5 27t32.5 3q86 -31 216 -31q115 0 182 34.5t79 93.5q14 74 -61.5 113.5t-254.5 42.5q-16 1 -24 11t-5 26l14 70q2 14 15 25t28 12q161 2 254 40t105 98q10 54 -37.5 81t-151.5 27q-124 0 -221 -30q-18 -5 -31 3.5t-12 26.5l5 66 q2 28 29 37q130 41 272 41q172 0 255 -62t59 -182q-14 -72 -76.5 -130t-162.5 -84q97 -27 140 -88t27 -144q-26 -129 -143 -200.5t-306 -71.5q-140 0 -256 36zM1828 1402l-1193 -1412q-18 -20 -38 -20h-102q-15 0 -19 8.5t6 19.5l1193 1412q16 20 37 20h103q15 0 18.5 -9 t-5.5 -19zM1225 233l14 74q4 18 21 33l608 575q13 13 39 13h96q15 0 24 -11t6 -26l-109 -559h93q15 0 24 -11t6 -26l-12 -62q-3 -15 -16 -26t-28 -11h-93l-31 -158q-3 -16 -16 -27t-28 -11h-90q-15 0 -24 11t-6 27l31 158h-479q-15 0 -24 11t-6 26zM1836 722l-413 -390h337z " />
<glyph unicode="&#xbf;" horiz-adv-x="1198" d="M817 659l-7 -36q-27 -138 -97.5 -233t-208.5 -168q-140 -74 -198 -133t-73 -138q-17 -87 60 -128t260 -41q193 0 353 63q21 8 34 -1.5t11 -29.5l-10 -99q-2 -11 -11 -21.5t-19 -14.5q-180 -69 -400 -69q-272 0 -392.5 87.5t-87.5 253.5q21 110 112.5 209.5t242.5 178.5 q102 53 156.5 122t74.5 167l6 31q3 16 16 26.5t28 10.5h120q15 0 24 -10.5t6 -26.5zM798 1058q128 0 105 -118t-151 -118t-105 118t151 118z" />
<glyph unicode="&#xc0;" horiz-adv-x="1516" d="M1049 522h-616l443 696zM327 358h764l77 -313q12 -45 63 -45h98q22 0 35.5 17t8.5 37l-345 1319q-7 27 -37 27h-158q-32 0 -49 -27l-857 -1319q-13 -20 -5.5 -37t29.5 -17h98q51 0 79 45zM884 1826l173 -242q18 -24 7 -42t-48 -18h-68q-26 0 -50 24l-231 244 q-19 19 -7.5 37.5t43.5 18.5h146q21 0 35 -22z" />
<glyph unicode="&#xc1;" horiz-adv-x="1516" d="M433 522h616l-173 696zM1091 358h-764l-199 -313q-28 -45 -79 -45h-98q-22 0 -29.5 17t5.5 37l857 1319q17 27 49 27h158q30 0 37 -27l345 -1319q5 -20 -8.5 -37t-35.5 -17h-98q-51 0 -63 45zM837 1584l267 242q26 22 45 22h145q32 0 36.5 -18.5t-21.5 -37.5l-328 -244 q-32 -24 -58 -24h-67q-37 0 -41.5 18t22.5 42z" />
<glyph unicode="&#xc2;" horiz-adv-x="1516" d="M433 522h616l-173 696zM1091 358h-764l-199 -313q-28 -45 -79 -45h-98q-22 0 -29.5 17t5.5 37l857 1319q17 27 49 27h158q30 0 37 -27l345 -1319q5 -20 -8.5 -37t-35.5 -17h-98q-51 0 -63 45zM930 1848h138q24 0 41 -24l186 -266q10 -14 4 -24t-26 -10h-114q-29 0 -44 22 l-138 188l-212 -188q-23 -22 -52 -22h-114q-19 0 -22 10t12 24l290 266q28 24 51 24z" />
<glyph unicode="&#xc3;" horiz-adv-x="1516" d="M1049 522h-616l443 696zM327 358h764l77 -313q12 -45 63 -45h98q22 0 35.5 17t8.5 37l-345 1319q-7 27 -37 27h-158q-32 0 -49 -27l-857 -1319q-13 -20 -5.5 -37t29.5 -17h98q51 0 79 45zM1198 1778q10 38 43 38h84q16 0 25 -9t5 -23q-57 -232 -244 -232 q-42 0 -88.5 21.5t-80 47.5t-69 47.5t-57.5 21.5q-26 0 -45.5 -22t-35.5 -80q-10 -32 -42 -32h-84q-18 0 -26 10.5t-3 27.5q59 226 243 226q42 0 88.5 -21.5t80 -47.5t69 -47.5t57.5 -21.5q29 0 47.5 22.5t32.5 73.5z" />
<glyph unicode="&#xc4;" horiz-adv-x="1516" d="M1049 522h-616l443 696zM327 358h764l77 -313q12 -45 63 -45h98q22 0 35.5 17t8.5 37l-345 1319q-7 27 -37 27h-158q-32 0 -49 -27l-857 -1319q-13 -20 -5.5 -37t29.5 -17h98q51 0 79 45zM617 1686q21 106 135 106t93 -106t-134 -106q-115 0 -94 106zM1089 1686 q21 106 135 106t93 -106t-134 -106q-115 0 -94 106z" />
<glyph unicode="&#xc5;" horiz-adv-x="1516" d="M1049 522h-616l443 696zM327 358h764l77 -313q12 -45 63 -45h98q22 0 35.5 17t8.5 37l-345 1319q-7 27 -37 27h-158q-32 0 -49 -27l-857 -1319q-13 -20 -5.5 -37t29.5 -17h98q51 0 79 45zM921 1450q-102 0 -158 67t-37 163t101 163t184 67t158 -67t37 -163t-101 -163 t-184 -67zM1076 1680q10 48 -16.5 79t-72.5 31t-83.5 -30.5t-47.5 -79.5q-10 -48 16.5 -79t72.5 -31t83.5 30.5t47.5 79.5z" />
<glyph unicode="&#xc6;" horiz-adv-x="1998" d="M942 364h-536l-264 -328q-28 -36 -66 -36h-123q-24 0 -30.5 19t10.5 40l1070 1324q15 17 35 17h970q16 0 24.5 -11t5.5 -27l-16 -84q-3 -16 -16 -27t-29 -11h-676l-86 -440h616q16 0 25 -11t6 -26l-17 -85q-3 -16 -16 -27t-29 -11h-616l-93 -480h696q16 0 24.5 -11 t5.5 -27l-16 -84q-3 -16 -16 -27t-29 -11h-847q-15 0 -24 11t-6 27zM1113 1242l-578 -718h438z" />
<glyph unicode="&#xc7;" horiz-adv-x="1400" d="M123 700q64 330 325 527t649 197q198 0 342 -46q33 -10 23 -46l-25 -85q-6 -20 -22.5 -30t-34.5 -3q-115 46 -305 46q-305 0 -508 -152t-252 -408q-50 -256 94 -408t449 -152q184 0 334 51q19 7 32 -3t11 -30l-8 -85q-2 -17 -13.5 -31.5t-27.5 -18.5q-156 -44 -346 -47 l-82 -94q87 -13 128 -60t27 -116q-35 -182 -339 -182q-53 0 -104 8q-24 3 -19 28l13 65q5 26 27 22q43 -7 100 -7q150 0 165 80q8 43 -38.5 68.5t-148.5 30.5q-14 1 -17.5 11.5t6.5 20.5l113 133q-316 37 -461 228t-87 488z" />
<glyph unicode="&#xc8;" horiz-adv-x="1278" d="M64 38l257 1324q3 16 16.5 27t29.5 11h942q16 0 24.5 -11t5.5 -27l-16 -84q-3 -16 -16 -27t-29 -11h-792l-86 -440h746q16 0 25 -11t6 -26l-17 -85q-3 -16 -16 -27t-29 -11h-746l-93 -480h813q15 0 23.5 -11t5.5 -27l-16 -84q-3 -16 -16 -27t-28 -11h-963q-16 0 -25 11 t-6 27zM837 1826l173 -242q18 -24 7 -42t-48 -18h-68q-26 0 -50 24l-231 244q-19 19 -7.5 37.5t43.5 18.5h146q21 0 35 -22z" />
<glyph unicode="&#xc9;" horiz-adv-x="1278" d="M64 38l257 1324q3 16 16.5 27t29.5 11h942q16 0 24.5 -11t5.5 -27l-16 -84q-3 -16 -16 -27t-29 -11h-792l-86 -440h746q16 0 25 -11t6 -26l-17 -85q-3 -16 -16 -27t-29 -11h-746l-93 -480h813q15 0 23.5 -11t5.5 -27l-16 -84q-3 -16 -16 -27t-28 -11h-963q-16 0 -25 11 t-6 27zM726 1584l267 242q26 22 45 22h145q32 0 36.5 -18.5t-21.5 -37.5l-328 -244q-32 -24 -58 -24h-67q-37 0 -41.5 18t22.5 42z" />
<glyph unicode="&#xca;" horiz-adv-x="1278" d="M64 38l257 1324q3 16 16.5 27t29.5 11h942q16 0 24.5 -11t5.5 -27l-16 -84q-3 -16 -16 -27t-29 -11h-792l-86 -440h746q16 0 25 -11t6 -26l-17 -85q-3 -16 -16 -27t-29 -11h-746l-93 -480h813q15 0 23.5 -11t5.5 -27l-16 -84q-3 -16 -16 -27t-28 -11h-963q-16 0 -25 11 t-6 27zM855 1848h138q24 0 41 -24l186 -266q10 -14 4 -24t-26 -10h-114q-29 0 -44 22l-138 188l-212 -188q-23 -22 -52 -22h-114q-19 0 -22 10t12 24l290 266q28 24 51 24z" />
<glyph unicode="&#xcb;" horiz-adv-x="1278" d="M64 38l257 1324q3 16 16.5 27t29.5 11h942q16 0 24.5 -11t5.5 -27l-16 -84q-3 -16 -16 -27t-29 -11h-792l-86 -440h746q16 0 25 -11t6 -26l-17 -85q-3 -16 -16 -27t-29 -11h-746l-93 -480h813q15 0 23.5 -11t5.5 -27l-16 -84q-3 -16 -16 -27t-28 -11h-963q-16 0 -25 11 t-6 27zM542 1686q21 106 135 106t93 -106t-134 -106q-115 0 -94 106zM1014 1686q21 106 135 106t93 -106t-134 -106q-115 0 -94 106z" />
<glyph unicode="&#xcc;" horiz-adv-x="528" d="M377 1400h113q15 0 23.5 -11t5.5 -27l-257 -1324q-3 -16 -16 -27t-28 -11h-113q-16 0 -25 11t-6 27l257 1324q3 16 16.5 27t29.5 11zM361 1826l173 -242q18 -24 7 -42t-48 -18h-68q-26 0 -50 24l-231 244q-19 19 -7.5 37.5t43.5 18.5h146q21 0 35 -22z" />
<glyph unicode="&#xcd;" horiz-adv-x="528" d="M377 1400h113q15 0 23.5 -11t5.5 -27l-257 -1324q-3 -16 -16 -27t-28 -11h-113q-16 0 -25 11t-6 27l257 1324q3 16 16.5 27t29.5 11zM402 1584l267 242q26 22 45 22h145q32 0 36.5 -18.5t-21.5 -37.5l-328 -244q-32 -24 -58 -24h-67q-37 0 -41.5 18t22.5 42z" />
<glyph unicode="&#xce;" horiz-adv-x="528" d="M377 1400h113q15 0 23.5 -11t5.5 -27l-257 -1324q-3 -16 -16 -27t-28 -11h-113q-16 0 -25 11t-6 27l257 1324q3 16 16.5 27t29.5 11zM451 1848h138q24 0 41 -24l186 -266q10 -14 4 -24t-26 -10h-114q-29 0 -44 22l-138 188l-212 -188q-23 -22 -52 -22h-114q-19 0 -22 10 t12 24l290 266q28 24 51 24z" />
<glyph unicode="&#xcf;" horiz-adv-x="528" d="M377 1400h113q15 0 23.5 -11t5.5 -27l-257 -1324q-3 -16 -16 -27t-28 -11h-113q-16 0 -25 11t-6 27l257 1324q3 16 16.5 27t29.5 11zM138 1686q21 106 135 106t93 -106t-134 -106q-115 0 -94 106zM610 1686q21 106 135 106t93 -106t-134 -106q-115 0 -94 106z" />
<glyph unicode="&#xd0;" horiz-adv-x="1542" d="M482 0h-375q-15 0 -24 11t-6 27l115 592h-141q-16 0 -25 11t-6 27l13 64q3 16 16 27t29 11h141l115 592q3 16 16.5 27t28.5 11h375q199 0 352.5 -44.5t254.5 -131t139.5 -220t5.5 -304.5q-34 -172 -124.5 -305.5t-225 -219.5t-305 -130.5t-369.5 -44.5zM738 630h-358 l-91 -470h194q725 0 831 540q53 274 -108 407t-513 133h-194l-92 -470h358q16 0 25 -11t6 -27l-13 -64q-3 -16 -16 -27t-29 -11z" />
<glyph unicode="&#xd1;" horiz-adv-x="1582" d="M579 1366l601 -1133l219 1129q3 16 16.5 27t29.5 11h108q16 0 24.5 -11t5.5 -27l-257 -1324q-3 -16 -16 -27t-29 -11h-140q-56 0 -73 34l-601 1133l-219 -1129q-3 -16 -16 -27t-29 -11h-108q-16 0 -25 11t-6 27l257 1324q3 16 16.5 27t29.5 11h140q55 0 72 -34z M1247 1778q10 38 43 38h84q16 0 25 -9t5 -23q-57 -232 -244 -232q-42 0 -88.5 21.5t-80 47.5t-69 47.5t-57.5 21.5q-26 0 -45.5 -22t-35.5 -80q-10 -32 -42 -32h-84q-18 0 -26 10.5t-3 27.5q59 226 243 226q42 0 88.5 -21.5t80 -47.5t69 -47.5t57.5 -21.5q29 0 47.5 22.5 t32.5 73.5z" />
<glyph unicode="&#xd2;" horiz-adv-x="1648" d="M1401 700q49 255 -68 407.5t-366 152.5t-425 -152.5t-225 -407.5q-50 -255 67 -407.5t366 -152.5t425 152.5t226 407.5zM1593 700q-30 -152 -105.5 -284t-187 -230t-262 -154t-320.5 -56q-114 0 -210.5 25.5t-167 72t-122.5 112t-77.5 146t-31.5 173.5t16 195 q29 152 104.5 284t187 230t262 154t320.5 56q114 0 210.5 -25.5t167 -72t122.5 -112t77.5 -146t31.5 -174t-15 -194.5zM1021 1826l173 -242q18 -24 7 -42t-48 -18h-68q-26 0 -50 24l-231 244q-19 19 -7.5 37.5t43.5 18.5h146q21 0 35 -22z" />
<glyph unicode="&#xd3;" horiz-adv-x="1648" d="M1401 700q49 255 -68 407.5t-366 152.5t-425 -152.5t-225 -407.5q-50 -255 67 -407.5t366 -152.5t425 152.5t226 407.5zM1593 700q-30 -152 -105.5 -284t-187 -230t-262 -154t-320.5 -56q-114 0 -210.5 25.5t-167 72t-122.5 112t-77.5 146t-31.5 173.5t16 195 q29 152 104.5 284t187 230t262 154t320.5 56q114 0 210.5 -25.5t167 -72t122.5 -112t77.5 -146t31.5 -174t-15 -194.5zM866 1584l267 242q26 22 45 22h145q32 0 36.5 -18.5t-21.5 -37.5l-328 -244q-32 -24 -58 -24h-67q-37 0 -41.5 18t22.5 42z" />
<glyph unicode="&#xd4;" horiz-adv-x="1648" d="M1401 700q49 255 -68 407.5t-366 152.5t-425 -152.5t-225 -407.5q-50 -255 67 -407.5t366 -152.5t425 152.5t226 407.5zM1593 700q-30 -152 -105.5 -284t-187 -230t-262 -154t-320.5 -56q-114 0 -210.5 25.5t-167 72t-122.5 112t-77.5 146t-31.5 173.5t16 195 q29 152 104.5 284t187 230t262 154t320.5 56q114 0 210.5 -25.5t167 -72t122.5 -112t77.5 -146t31.5 -174t-15 -194.5zM1013 1848h138q24 0 41 -24l186 -266q10 -14 4 -24t-26 -10h-114q-29 0 -44 22l-138 188l-212 -188q-23 -22 -52 -22h-114q-19 0 -22 10t12 24l290 266 q28 24 51 24z" />
<glyph unicode="&#xd5;" horiz-adv-x="1648" d="M1401 700q49 255 -68 407.5t-366 152.5t-425 -152.5t-225 -407.5q-50 -255 67 -407.5t366 -152.5t425 152.5t226 407.5zM1593 700q-30 -152 -105.5 -284t-187 -230t-262 -154t-320.5 -56q-114 0 -210.5 25.5t-167 72t-122.5 112t-77.5 146t-31.5 173.5t16 195 q29 152 104.5 284t187 230t262 154t320.5 56q114 0 210.5 -25.5t167 -72t122.5 -112t77.5 -146t31.5 -174t-15 -194.5zM1281 1778q10 38 43 38h84q16 0 25 -9t5 -23q-57 -232 -244 -232q-42 0 -88.5 21.5t-80 47.5t-69 47.5t-57.5 21.5q-26 0 -45.5 -22t-35.5 -80 q-10 -32 -42 -32h-84q-18 0 -26 10.5t-3 27.5q59 226 243 226q42 0 88.5 -21.5t80 -47.5t69 -47.5t57.5 -21.5q29 0 47.5 22.5t32.5 73.5z" />
<glyph unicode="&#xd6;" horiz-adv-x="1648" d="M1401 700q49 255 -68 407.5t-366 152.5t-425 -152.5t-225 -407.5q-50 -255 67 -407.5t366 -152.5t425 152.5t226 407.5zM1593 700q-30 -152 -105.5 -284t-187 -230t-262 -154t-320.5 -56q-114 0 -210.5 25.5t-167 72t-122.5 112t-77.5 146t-31.5 173.5t16 195 q29 152 104.5 284t187 230t262 154t320.5 56q114 0 210.5 -25.5t167 -72t122.5 -112t77.5 -146t31.5 -174t-15 -194.5zM700 1686q21 106 135 106t93 -106t-134 -106q-115 0 -94 106zM1172 1686q21 106 135 106t93 -106t-134 -106q-115 0 -94 106z" />
<glyph unicode="&#xd7;" horiz-adv-x="1324" d="M1016 246l-337 302l-337 -302q-11 -10 -25.5 -9.5t-25.5 11.5l-69 70q-11 10 -10.5 26.5t11.5 26.5l326 293l-323 290q-12 11 -11.5 29.5t11.5 29.5l65 65q11 11 26 11.5t26 -9.5l336 -300l336 300q11 10 26 9.5t26 -11.5l65 -65q11 -11 11.5 -29.5t-11.5 -29.5 l-323 -290l326 -293q11 -10 11.5 -26.5t-10.5 -26.5l-69 -70q-11 -11 -25.5 -11.5t-25.5 9.5z" />
<glyph unicode="&#xd8;" horiz-adv-x="1648" d="M1572 700q-30 -152 -105.5 -284t-187 -230t-262 -154t-320.5 -56q-195 0 -338 74l-198 -225q-20 -25 -47 -25h-107q-16 0 -18 14.5t8 24.5l253 288q-105 98 -143 246.5t-3 326.5q29 152 104.5 284t187 230t262 154t320.5 56q199 0 342 -77l201 228q20 25 48 25h107 q11 0 15 -7t2 -16t-8 -16l-256 -292q104 -98 140.5 -245.5t2.5 -323.5zM296 700q-54 -274 83 -427l817 932q-102 55 -250 55q-249 0 -425 -152.5t-225 -407.5zM1380 700q52 270 -80 422l-816 -930q101 -52 245 -52q249 0 425 152.5t226 407.5z" />
<glyph unicode="&#xd9;" horiz-adv-x="1622" d="M706 -24q142 0 266.5 35t226 104t171.5 179t98 252l158 816q3 16 -5.5 27t-23.5 11h-113q-16 0 -29.5 -11t-16.5 -27l-155 -798q-40 -205 -178.5 -314.5t-366.5 -109.5t-324.5 109.5t-56.5 314.5l155 798q3 16 -5.5 27t-24.5 11h-113q-15 0 -28.5 -11t-16.5 -27 l-158 -816q-26 -146 0 -253t101.5 -177.5t186 -105t252.5 -34.5zM942 1826l173 -242q18 -24 7 -42t-48 -18h-68q-26 0 -50 24l-231 244q-19 19 -7.5 37.5t43.5 18.5h146q21 0 35 -22z" />
<glyph unicode="&#xda;" horiz-adv-x="1622" d="M706 -24q-142 0 -252.5 34.5t-186 105t-101.5 177.5t0 253l158 816q3 16 16.5 27t28.5 11h113q16 0 24.5 -11t5.5 -27l-155 -798q-40 -205 56.5 -314.5t324.5 -109.5t366.5 109.5t178.5 314.5l155 798q3 16 16.5 27t29.5 11h113q15 0 23.5 -11t5.5 -27l-158 -816 q-28 -142 -98 -252t-171.5 -179t-226 -104t-266.5 -35zM921 1584l267 242q26 22 45 22h145q32 0 36.5 -18.5t-21.5 -37.5l-328 -244q-32 -24 -58 -24h-67q-37 0 -41.5 18t22.5 42z" />
<glyph unicode="&#xdb;" horiz-adv-x="1622" d="M706 -24q-142 0 -252.5 34.5t-186 105t-101.5 177.5t0 253l158 816q3 16 16.5 27t28.5 11h113q16 0 24.5 -11t5.5 -27l-155 -798q-40 -205 56.5 -314.5t324.5 -109.5t366.5 109.5t178.5 314.5l155 798q3 16 16.5 27t29.5 11h113q15 0 23.5 -11t5.5 -27l-158 -816 q-28 -142 -98 -252t-171.5 -179t-226 -104t-266.5 -35zM1000 1848h138q24 0 41 -24l186 -266q10 -14 4 -24t-26 -10h-114q-29 0 -44 22l-138 188l-212 -188q-23 -22 -52 -22h-114q-19 0 -22 10t12 24l290 266q28 24 51 24z" />
<glyph unicode="&#xdc;" horiz-adv-x="1622" d="M706 -24q142 0 266.5 35t226 104t171.5 179t98 252l158 816q3 16 -5.5 27t-23.5 11h-113q-16 0 -29.5 -11t-16.5 -27l-155 -798q-40 -205 -178.5 -314.5t-366.5 -109.5t-324.5 109.5t-56.5 314.5l155 798q3 16 -5.5 27t-24.5 11h-113q-15 0 -28.5 -11t-16.5 -27 l-158 -816q-26 -146 0 -253t101.5 -177.5t186 -105t252.5 -34.5zM687 1686q21 106 135 106t93 -106t-134 -106q-115 0 -94 106zM1159 1686q21 106 135 106t93 -106t-134 -106q-115 0 -94 106z" />
<glyph unicode="&#xdd;" horiz-adv-x="1568" d="M720 0h-112q-16 0 -25 11t-6 27l100 516l-450 785q-11 20 3 40.5t39 20.5h105q46 0 67 -38l363 -640l611 640q35 38 83 38h105q25 0 31 -20.5t-13 -40.5l-756 -785l-100 -516q-3 -16 -16 -27t-29 -11zM847 1584l267 242q26 22 45 22h145q32 0 36.5 -18.5t-21.5 -37.5 l-328 -244q-32 -24 -58 -24h-67q-37 0 -41.5 18t22.5 42z" />
<glyph unicode="&#xde;" horiz-adv-x="1322" d="M334 432h260q430 0 485 278q27 142 -71 209t-306 67h-260zM303 268l-45 -230q-3 -16 -16 -27t-28 -11h-119q-16 0 -25 11t-6 27l257 1324q3 16 16.5 27t29.5 11h119q15 0 23.5 -11t5.5 -27l-41 -212h276q280 0 424 -112.5t103 -327.5q-28 -145 -126.5 -246t-243.5 -148.5 t-328 -47.5h-276z" />
<glyph unicode="&#xdf;" horiz-adv-x="1282" d="M639 645q-14 1 -22.5 12t-5.5 25l18 94q3 15 15.5 25.5t27.5 11.5q159 6 254.5 68.5t116.5 170.5q17 89 -51 146.5t-197 57.5q-147 0 -238.5 -75.5t-120.5 -224.5l-178 -919q-3 -15 -16 -26t-28 -11h-120q-15 0 -24 11t-6 26l175 903q46 240 196 362t396 122 q212 0 327 -103t84 -263q-22 -117 -108.5 -200t-226.5 -124q148 -35 219.5 -130.5t44.5 -231.5q-38 -192 -182.5 -294t-384.5 -102q-131 0 -233 39q-10 4 -15.5 16t-1.5 24l30 99q6 19 22.5 27.5t33.5 1.5q92 -39 200 -39q140 0 226.5 62t106.5 166q23 117 -66 191.5 t-268 81.5z" />
<glyph unicode="&#xe0;" d="M1078 942l11 57q3 15 15.5 26t28.5 11h106q15 0 24 -11t6 -26l-187 -962q-3 -15 -16 -26t-28 -11h-106q-16 0 -24.5 11t-5.5 26l11 57q-180 -118 -393 -118q-244 0 -366.5 147t-74.5 395t228 395t424 147q213 0 347 -118zM263 518q-36 -186 56.5 -288t271.5 -102 q95 0 188.5 33.5t163.5 90.5l104 532q-48 58 -128.5 91t-175.5 33q-179 0 -311.5 -102t-168.5 -288zM770 1478l173 -242q18 -24 6.5 -42t-48.5 -18h-68q-27 0 -49 24l-232 244q-19 19 -7.5 37.5t43.5 18.5h146q20 0 36 -22z" />
<glyph unicode="&#xe1;" d="M1078 942l11 57q3 15 15.5 26t28.5 11h106q15 0 24 -11t6 -26l-187 -962q-3 -15 -16 -26t-28 -11h-106q-16 0 -24.5 11t-5.5 26l11 57q-180 -118 -393 -118q-244 0 -366.5 147t-74.5 395t228 395t424 147q213 0 347 -118zM263 518q-36 -186 56.5 -288t271.5 -102 q95 0 188.5 33.5t163.5 90.5l104 532q-48 58 -128.5 91t-175.5 33q-179 0 -311.5 -102t-168.5 -288zM683 1236l267 242q24 22 44 22h145q32 0 36.5 -18.5t-21.5 -37.5l-327 -244q-34 -24 -59 -24h-67q-37 0 -41 18t23 42z" />
<glyph unicode="&#xe2;" d="M1078 942l11 57q3 15 15.5 26t28.5 11h106q15 0 24 -11t6 -26l-187 -962q-3 -15 -16 -26t-28 -11h-106q-16 0 -24.5 11t-5.5 26l11 57q-180 -118 -393 -118q-244 0 -366.5 147t-74.5 395t228 395t424 147q213 0 347 -118zM263 518q-36 -186 56.5 -288t271.5 -102 q95 0 188.5 33.5t163.5 90.5l104 532q-48 58 -128.5 91t-175.5 33q-179 0 -311.5 -102t-168.5 -288zM785 1500h138q24 0 41 -24l187 -266q10 -14 3 -24t-26 -10h-114q-29 0 -44 22l-138 188l-212 -188q-23 -22 -52 -22h-114q-20 0 -22.5 10t13.5 24l289 266q28 24 51 24z " />
<glyph unicode="&#xe3;" d="M1078 942l11 57q3 15 15.5 26t28.5 11h106q15 0 24 -11t6 -26l-187 -962q-3 -15 -16 -26t-28 -11h-106q-16 0 -24.5 11t-5.5 26l11 57q-180 -118 -393 -118q-244 0 -366.5 147t-74.5 395t228 395t424 147q213 0 347 -118zM263 518q-36 -186 56.5 -288t271.5 -102 q95 0 188.5 33.5t163.5 90.5l104 532q-48 58 -128.5 91t-175.5 33q-179 0 -311.5 -102t-168.5 -288zM1053 1428q10 38 43 38h84q16 0 25 -9t5 -23q-57 -232 -244 -232q-42 0 -88.5 21.5t-80 47.5t-69 47.5t-57.5 21.5q-26 0 -45.5 -22t-35.5 -80q-10 -32 -42 -32h-84 q-18 0 -26 10.5t-3 27.5q59 226 243 226q42 0 88.5 -21.5t80 -47.5t69 -47.5t57.5 -21.5q29 0 47.5 22.5t32.5 73.5z" />
<glyph unicode="&#xe4;" d="M1078 942l11 57q3 15 15.5 26t28.5 11h106q15 0 24 -11t6 -26l-187 -962q-3 -15 -16 -26t-28 -11h-106q-16 0 -24.5 11t-5.5 26l11 57q-180 -118 -393 -118q-244 0 -366.5 147t-74.5 395t228 395t424 147q213 0 347 -118zM263 518q-36 -186 56.5 -288t271.5 -102 q95 0 188.5 33.5t163.5 90.5l104 532q-48 58 -128.5 91t-175.5 33q-179 0 -311.5 -102t-168.5 -288zM473 1338q21 106 134 106q115 0 94 -106t-135 -106t-93 106zM945 1338q21 106 134 106q115 0 94 -106t-135 -106t-93 106z" />
<glyph unicode="&#xe5;" d="M1078 942l11 57q3 15 15.5 26t28.5 11h106q15 0 24 -11t6 -26l-187 -962q-3 -15 -16 -26t-28 -11h-106q-16 0 -24.5 11t-5.5 26l11 57q-180 -118 -393 -118q-244 0 -366.5 147t-74.5 395t228 395t424 147q213 0 347 -118zM263 518q-36 -186 56.5 -288t271.5 -102 q95 0 188.5 33.5t163.5 90.5l104 532q-48 58 -128.5 91t-175.5 33q-179 0 -311.5 -102t-168.5 -288zM777 1102q-101 0 -157.5 67t-38.5 163q19 96 101 163t184 67t158 -67t37 -163q-18 -96 -100 -163t-184 -67zM931 1332q10 48 -16 79t-72 31t-84 -31t-48 -79 q-9 -49 17 -79.5t72 -30.5t84 31t47 79z" />
<glyph unicode="&#xe6;" horiz-adv-x="1988" d="M1063 594h162q296 0 418.5 35t141.5 129q13 69 -43.5 109.5t-173.5 40.5q-180 0 -314.5 -79t-190.5 -235zM1345 -24q-166 0 -278 62t-156 176q-85 -114 -216 -176t-290 -62q-91 0 -165.5 19.5t-128.5 58.5t-76 103t-6 147q32 164 181 254t397 90h288q24 130 -36 193 t-218 63q-176 0 -336 -55q-19 -7 -33 -1.5t-13 22.5l6 84q1 29 32 40q187 66 379 66q301 0 372 -212q116 115 247 163.5t309 48.5q179 0 281.5 -85.5t77.5 -216.5q-22 -112 -101 -179.5t-232 -100t-398 -32.5h-198q-11 -155 81 -236.5t263 -81.5q169 0 310 63q20 10 35 4 t14 -26l-4 -77q-1 -36 -38 -52q-144 -64 -350 -64zM445 130q268 0 393 222l28 144h-280q-332 0 -369 -188q-17 -90 46 -134t182 -44z" />
<glyph unicode="&#xe7;" horiz-adv-x="1146" d="M675 128q151 0 275 41q19 7 30.5 -3t9.5 -30l-4 -62q-2 -38 -37 -49q-137 -46 -288 -49l-82 -94q87 -13 128 -60t27 -116q-35 -182 -339 -182q-53 0 -104 8q-24 3 -19 28l13 65q5 26 27 22q43 -7 100 -7q150 0 165 80q8 43 -38.5 68.5t-148.5 30.5q-14 1 -17.5 11.5 t6.5 20.5l113 134q-234 33 -344 174.5t-68 358.5q48 246 251.5 394t489.5 148q175 0 303 -48q35 -13 23 -47l-21 -66q-6 -20 -21 -30t-31 -3q-113 42 -271 42q-206 0 -354.5 -103t-184.5 -287q-36 -186 75 -288t336 -102z" />
<glyph unicode="&#xe8;" horiz-adv-x="1248" d="M291 594h162q300 0 431.5 37.5t148.5 126.5q12 65 -56.5 107.5t-200.5 42.5q-181 0 -308 -82.5t-177 -231.5zM944 31q-149 -55 -349 -55q-293 0 -429 143.5t-86 396.5q47 242 240 393t480 151q209 0 329.5 -84.5t95.5 -217.5q-30 -156 -211.5 -235t-551.5 -79h-200 q-13 -162 80 -239t292 -77q182 0 315 51q19 7 33 -1.5t13 -27.5l-5 -62q-6 -42 -46 -57zM741 1478l173 -242q18 -24 6.5 -42t-48.5 -18h-68q-27 0 -49 24l-232 244q-19 19 -7.5 37.5t43.5 18.5h146q20 0 36 -22z" />
<glyph unicode="&#xe9;" horiz-adv-x="1248" d="M291 594h162q300 0 431.5 37.5t148.5 126.5q12 65 -56.5 107.5t-200.5 42.5q-181 0 -308 -82.5t-177 -231.5zM944 31q-149 -55 -349 -55q-293 0 -429 143.5t-86 396.5q47 242 240 393t480 151q209 0 329.5 -84.5t95.5 -217.5q-30 -156 -211.5 -235t-551.5 -79h-200 q-13 -162 80 -239t292 -77q182 0 315 51q19 7 33 -1.5t13 -27.5l-5 -62q-6 -42 -46 -57zM620 1236l267 242q24 22 44 22h145q32 0 36.5 -18.5t-21.5 -37.5l-327 -244q-34 -24 -59 -24h-67q-37 0 -41 18t23 42z" />
<glyph unicode="&#xea;" horiz-adv-x="1248" d="M291 594h162q300 0 431.5 37.5t148.5 126.5q12 65 -56.5 107.5t-200.5 42.5q-181 0 -308 -82.5t-177 -231.5zM944 31q-149 -55 -349 -55q-293 0 -429 143.5t-86 396.5q47 242 240 393t480 151q209 0 329.5 -84.5t95.5 -217.5q-30 -156 -211.5 -235t-551.5 -79h-200 q-13 -162 80 -239t292 -77q182 0 315 51q19 7 33 -1.5t13 -27.5l-5 -62q-6 -42 -46 -57zM750 1500h138q24 0 41 -24l187 -266q10 -14 3 -24t-26 -10h-114q-29 0 -44 22l-138 188l-212 -188q-23 -22 -52 -22h-114q-20 0 -22.5 10t13.5 24l289 266q28 24 51 24z" />
<glyph unicode="&#xeb;" horiz-adv-x="1248" d="M291 594h162q300 0 431.5 37.5t148.5 126.5q12 65 -56.5 107.5t-200.5 42.5q-181 0 -308 -82.5t-177 -231.5zM944 31q-149 -55 -349 -55q-293 0 -429 143.5t-86 396.5q47 242 240 393t480 151q209 0 329.5 -84.5t95.5 -217.5q-30 -156 -211.5 -235t-551.5 -79h-200 q-13 -162 80 -239t292 -77q182 0 315 51q19 7 33 -1.5t13 -27.5l-5 -62q-6 -42 -46 -57zM436 1338q21 106 134 106q115 0 94 -106t-135 -106t-93 106zM908 1338q21 106 134 106q115 0 94 -106t-135 -106t-93 106z" />
<glyph unicode="&#xec;" horiz-adv-x="480" d="M64 37l187 962q3 15 15.5 26t28.5 11h106q16 0 24.5 -11t5.5 -26l-187 -962q-3 -15 -15.5 -26t-28.5 -11h-106q-16 0 -24.5 11t-5.5 26zM288 1478l173 -242q18 -24 6.5 -42t-48.5 -18h-68q-27 0 -49 24l-232 244q-19 19 -7.5 37.5t43.5 18.5h146q20 0 36 -22z" />
<glyph unicode="&#xed;" horiz-adv-x="480" d="M54 37l187 962q3 15 15.5 26t28.5 11h106q16 0 24.5 -11t5.5 -26l-187 -962q-3 -15 -15.5 -26t-28.5 -11h-106q-16 0 -24.5 11t-5.5 26zM303 1236l267 242q24 22 44 22h145q32 0 36.5 -18.5t-21.5 -37.5l-327 -244q-34 -24 -59 -24h-67q-37 0 -41 18t23 42z" />
<glyph unicode="&#xee;" horiz-adv-x="480" d="M40 37l187 962q3 15 15.5 26t28.5 11h106q16 0 24.5 -11t5.5 -26l-187 -962q-3 -15 -15.5 -26t-28.5 -11h-106q-16 0 -24.5 11t-5.5 26zM345 1500h138q24 0 41 -24l187 -266q10 -14 3 -24t-26 -10h-114q-29 0 -44 22l-138 188l-212 -188q-23 -22 -52 -22h-114 q-20 0 -22.5 10t13.5 24l289 266q28 24 51 24z" />
<glyph unicode="&#xef;" horiz-adv-x="480" d="M57 37l187 962q3 15 15.5 26t28.5 11h106q16 0 24.5 -11t5.5 -26l-187 -962q-3 -15 -15.5 -26t-28.5 -11h-106q-16 0 -24.5 11t-5.5 26zM50 1338q21 106 134 106q115 0 94 -106t-135 -106t-93 106zM522 1338q21 106 134 106q115 0 94 -106t-135 -106t-93 106z" />
<glyph unicode="&#xf0;" horiz-adv-x="1264" d="M902 1150l-478 -114q-18 -4 -28.5 3.5t-12.5 20.5l-5 49q-2 16 6.5 30t24.5 18l336 81q-102 40 -196 62q-30 8 -20 42l24 74q5 17 20 26.5t31 5.5q238 -54 384 -152l266 65q16 4 27 -2.5t12 -21.5l4 -52q2 -15 -8 -29.5t-25 -18.5l-161 -39q174 -197 104 -556 q-60 -310 -244.5 -488t-464.5 -178q-111 0 -199.5 34t-147 98.5t-80 159t1.5 216.5q47 240 215 374t411 134q214 0 342 -126q-13 181 -139 284zM690 840q-174 0 -287 -91t-146 -265q-32 -163 42 -259.5t228 -96.5q396 0 497 516l4 24q-57 76 -145 124t-193 48z" />
<glyph unicode="&#xf1;" horiz-adv-x="1314" d="M400 942l11 57q3 15 -6 26t-24 11h-105q-16 0 -29 -11t-16 -26l-187 -962q-3 -15 6 -26t25 -11h105q15 0 28 11t16 26l145 747q150 124 366 124q161 0 235.5 -82t43.5 -242l-106 -547q-3 -15 6 -26t25 -11h105q15 0 28 11t16 26l107 553q44 227 -64.5 348.5t-335.5 121.5 q-218 0 -395 -118zM1047 1428q10 38 43 38h84q16 0 25 -9t5 -23q-57 -232 -244 -232q-42 0 -88.5 21.5t-80 47.5t-69 47.5t-57.5 21.5q-26 0 -45.5 -22t-35.5 -80q-10 -32 -42 -32h-84q-18 0 -26 10.5t-3 27.5q59 226 243 226q42 0 88.5 -21.5t80 -47.5t69 -47.5t57.5 -21.5 q29 0 47.5 22.5t32.5 73.5z" />
<glyph unicode="&#xf2;" horiz-adv-x="1332" d="M561 -24q-174 0 -294.5 71t-168.5 194t-18 277q46 236 238 389t454 153q174 0 294 -71t168 -194t18 -277q-46 -236 -237.5 -389t-453.5 -153zM1068 518q34 177 -56 283.5t-270 106.5t-312 -106.5t-166 -283.5t56 -283.5t270 -106.5t312 106.5t166 283.5zM783 1478 l173 -242q18 -24 6.5 -42t-48.5 -18h-68q-27 0 -49 24l-232 244q-19 19 -7.5 37.5t43.5 18.5h146q20 0 36 -22z" />
<glyph unicode="&#xf3;" horiz-adv-x="1332" d="M561 -24q-174 0 -294.5 71t-168.5 194t-18 277q46 236 238 389t454 153q174 0 294 -71t168 -194t18 -277q-46 -236 -237.5 -389t-453.5 -153zM1068 518q34 177 -56 283.5t-270 106.5t-312 -106.5t-166 -283.5t56 -283.5t270 -106.5t312 106.5t166 283.5zM656 1236 l267 242q24 22 44 22h145q32 0 36.5 -18.5t-21.5 -37.5l-327 -244q-34 -24 -59 -24h-67q-37 0 -41 18t23 42z" />
<glyph unicode="&#xf4;" horiz-adv-x="1332" d="M561 -24q-174 0 -294.5 71t-168.5 194t-18 277q46 236 238 389t454 153q174 0 294 -71t168 -194t18 -277q-46 -236 -237.5 -389t-453.5 -153zM1068 518q34 177 -56 283.5t-270 106.5t-312 -106.5t-166 -283.5t56 -283.5t270 -106.5t312 106.5t166 283.5zM788 1500h138 q24 0 41 -24l187 -266q10 -14 3 -24t-26 -10h-114q-29 0 -44 22l-138 188l-212 -188q-23 -22 -52 -22h-114q-20 0 -22.5 10t13.5 24l289 266q28 24 51 24z" />
<glyph unicode="&#xf5;" horiz-adv-x="1332" d="M561 -24q-174 0 -294.5 71t-168.5 194t-18 277q46 236 238 389t454 153q174 0 294 -71t168 -194t18 -277q-46 -236 -237.5 -389t-453.5 -153zM1068 518q34 177 -56 283.5t-270 106.5t-312 -106.5t-166 -283.5t56 -283.5t270 -106.5t312 106.5t166 283.5zM1056 1428 q10 38 43 38h84q16 0 25 -9t5 -23q-57 -232 -244 -232q-42 0 -88.5 21.5t-80 47.5t-69 47.5t-57.5 21.5q-26 0 -45.5 -22t-35.5 -80q-10 -32 -42 -32h-84q-18 0 -26 10.5t-3 27.5q59 226 243 226q42 0 88.5 -21.5t80 -47.5t69 -47.5t57.5 -21.5q29 0 47.5 22.5t32.5 73.5z " />
<glyph unicode="&#xf6;" horiz-adv-x="1332" d="M561 -24q-174 0 -294.5 71t-168.5 194t-18 277q46 236 238 389t454 153q174 0 294 -71t168 -194t18 -277q-46 -236 -237.5 -389t-453.5 -153zM1068 518q34 177 -56 283.5t-270 106.5t-312 -106.5t-166 -283.5t56 -283.5t270 -106.5t312 106.5t166 283.5zM476 1338 q21 106 134 106q115 0 94 -106t-135 -106t-93 106zM948 1338q21 106 134 106q115 0 94 -106t-135 -106t-93 106z" />
<glyph unicode="&#xf7;" horiz-adv-x="1324" d="M1197 584h-1010q-15 0 -26 10.5t-11 26.5v86q0 15 11 26t26 11h1010q16 0 26.5 -11t10.5 -26v-86q0 -16 -10.5 -26.5t-26.5 -10.5zM692 150q-128 0 -128 118t128 118t128 -118t-128 -118zM692 942q-128 0 -128 118t128 118t128 -118t-128 -118z" />
<glyph unicode="&#xf8;" horiz-adv-x="1332" d="M545 -24q-140 0 -248 47l-187 -210q-30 -33 -72 -33h-77q-20 0 -25 11.5t7 23.5l244 277q-84 73 -116 183.5t-7 242.5q46 236 238 389t454 153q140 0 248 -48l187 211q30 33 73 33h77q19 0 24 -11.5t-6 -23.5l-246 -278q84 -73 116.5 -183t6.5 -242q-46 -236 -237.5 -389 t-453.5 -153zM248 518q-36 -181 61 -289l577 650q-70 29 -160 29q-180 0 -312 -106.5t-166 -283.5zM1052 518q36 181 -61 289l-576 -651q70 -28 159 -28q180 0 312 106.5t166 283.5z" />
<glyph unicode="&#xf9;" horiz-adv-x="1314" d="M912 94l-11 -57q-3 -15 6 -26t24 -11h105q16 0 29 11t16 26l187 962q3 15 -6 26t-25 11h-105q-15 0 -28 -11t-16 -26l-146 -747q-150 -124 -366 -124q-161 0 -235.5 82t-43.5 242l107 547q3 15 -6 26t-25 11h-105q-15 0 -28 -11t-16 -26l-108 -553q-44 -226 65 -348 t336 -122q216 0 395 118zM733 1478l173 -242q18 -24 6.5 -42t-48.5 -18h-68q-27 0 -49 24l-232 244q-19 19 -7.5 37.5t43.5 18.5h146q20 0 36 -22z" />
<glyph unicode="&#xfa;" horiz-adv-x="1314" d="M901 37l11 57q-179 -118 -395 -118q-227 0 -336 122t-65 348l108 553q3 15 16 26t28 11h105q16 0 25 -11t6 -26l-107 -547q-31 -160 43.5 -242t235.5 -82q216 0 366 124l146 747q3 15 16 26t28 11h105q16 0 25 -11t6 -26l-187 -962q-3 -15 -16 -26t-29 -11h-105 q-15 0 -24 11t-6 26zM676 1236l267 242q24 22 44 22h145q32 0 36.5 -18.5t-21.5 -37.5l-327 -244q-34 -24 -59 -24h-67q-37 0 -41 18t23 42z" />
<glyph unicode="&#xfb;" horiz-adv-x="1314" d="M901 37l11 57q-179 -118 -395 -118q-227 0 -336 122t-65 348l108 553q3 15 16 26t28 11h105q16 0 25 -11t6 -26l-107 -547q-31 -160 43.5 -242t235.5 -82q216 0 366 124l146 747q3 15 16 26t28 11h105q16 0 25 -11t6 -26l-187 -962q-3 -15 -16 -26t-29 -11h-105 q-15 0 -24 11t-6 26zM774 1500h138q24 0 41 -24l187 -266q10 -14 3 -24t-26 -10h-114q-29 0 -44 22l-138 188l-212 -188q-23 -22 -52 -22h-114q-20 0 -22.5 10t13.5 24l289 266q28 24 51 24z" />
<glyph unicode="&#xfc;" horiz-adv-x="1314" d="M912 94l-11 -57q-3 -15 6 -26t24 -11h105q16 0 29 11t16 26l187 962q3 15 -6 26t-25 11h-105q-15 0 -28 -11t-16 -26l-146 -747q-150 -124 -366 -124q-161 0 -235.5 82t-43.5 242l107 547q3 15 -6 26t-25 11h-105q-15 0 -28 -11t-16 -26l-108 -553q-44 -226 65 -348 t336 -122q216 0 395 118zM462 1338q21 106 134 106q115 0 94 -106t-135 -106t-93 106zM934 1338q21 106 134 106q115 0 94 -106t-135 -106t-93 106z" />
<glyph unicode="&#xfd;" horiz-adv-x="1258" d="M561 196l528 797q28 43 75 43h95q23 0 31 -16.5t-5 -36.5l-891 -1348q-15 -21 -39 -21h-122q-22 0 -28.5 17t6.5 36l214 325l-287 991q-6 20 8.5 36.5t37.5 16.5h95q47 0 59 -43zM655 1236l267 242q24 22 44 22h145q32 0 36.5 -18.5t-21.5 -37.5l-327 -244 q-34 -24 -59 -24h-67q-37 0 -41 18t23 42z" />
<glyph unicode="&#xfe;" d="M234 94l-86 -443q-3 -15 -16.5 -26t-28.5 -11h-106q-16 0 -24 11t-5 26l344 1772q3 15 15.5 26t28.5 11h106q15 0 24 -11t6 -26l-93 -481q179 118 393 118q244 0 366 -147t74 -395t-227.5 -395t-423.5 -147q-215 0 -347 118zM1048 518q36 186 -56.5 288t-271.5 102 q-95 0 -188.5 -33t-163.5 -91l-104 -532q49 -58 129 -91t175 -33q179 0 311.5 102t168.5 288z" />
<glyph unicode="&#xff;" horiz-adv-x="1258" d="M1089 993l-528 -797l-223 797q-12 43 -59 43h-95q-23 0 -37.5 -16.5t-8.5 -36.5l287 -991l-214 -325q-13 -19 -6.5 -36t28.5 -17h122q24 0 39 21l891 1348q13 20 5 36.5t-31 16.5h-95q-47 0 -75 -43zM431 1338q21 106 134 106q115 0 94 -106t-135 -106t-93 106zM903 1338 q21 106 134 106q115 0 94 -106t-135 -106t-93 106z" />
<glyph unicode="&#x152;" horiz-adv-x="1932" d="M860 160l211 1086h-18q-308 0 -497.5 -146.5t-238.5 -397.5t84 -396.5t441 -145.5h18zM1716 0h-883q-269 0 -443.5 87t-240.5 244t-24 371q63 324 320.5 514t660.5 190h865q16 0 24.5 -11t5.5 -27l-16 -85q-3 -15 -16 -26t-29 -11h-681l-87 -444h621q16 0 25 -11t6 -27 l-16 -84q-3 -16 -16.5 -27t-29.5 -11h-621l-93 -482h699q16 0 24.5 -11t5.5 -27l-16 -84q-3 -16 -16 -27t-29 -11z" />
<glyph unicode="&#x153;" horiz-adv-x="2094" d="M264 518q-35 -183 38.5 -286.5t243.5 -103.5q168 0 281.5 103.5t148.5 286.5q36 182 -37 286t-241 104q-170 0 -284 -104t-150 -286zM1171 594h162q296 0 418.5 35t141.5 129q13 69 -43.5 109.5t-173.5 40.5q-180 0 -314.5 -79t-190.5 -235zM1451 -24q-171 0 -286 65 t-156 185q-84 -122 -212 -186t-280 -64q-258 0 -371.5 148t-65.5 394q48 245 219 393.5t429 148.5q144 0 250 -63t143 -179q217 242 591 242q179 0 281.5 -85.5t77.5 -216.5q-22 -112 -101 -179.5t-232 -100t-398 -32.5h-198q-11 -155 80 -236.5t262 -81.5q94 0 164 15 t146 48q20 9 35 4t14 -24l-4 -77q-1 -38 -39 -54q-153 -64 -349 -64z" />
<glyph unicode="&#x178;" horiz-adv-x="1568" d="M720 0h-112q-16 0 -25 11t-6 27l100 516l-450 785q-11 20 3 40.5t39 20.5h105q46 0 67 -38l363 -640l611 640q35 38 83 38h105q25 0 31 -20.5t-13 -40.5l-756 -785l-100 -516q-3 -16 -16 -27t-29 -11zM639 1686q21 106 135 106t93 -106t-134 -106q-115 0 -94 106z M1111 1686q21 106 135 106t93 -106t-134 -106q-115 0 -94 106z" />
<glyph unicode="&#x2c6;" horiz-adv-x="964" d="M579 1460h138q24 0 42 -24l186 -266q10 -14 3 -24t-26 -10h-114q-29 0 -43 22l-139 188l-211 -188q-25 -22 -53 -22h-114q-20 0 -22.5 10t13.5 24l290 266q26 24 50 24z" />
<glyph unicode="&#x2dc;" horiz-adv-x="964" d="M862 1392q10 38 43 38h84q16 0 25 -9t5 -23q-57 -232 -244 -232q-42 0 -88.5 21.5t-80 47.5t-69 47.5t-57.5 21.5q-26 0 -45.5 -22t-35.5 -80q-10 -32 -42 -32h-84q-18 0 -26 10.5t-3 27.5q59 226 243 226q42 0 88.5 -21.5t80 -47.5t69 -47.5t57.5 -21.5q29 0 47.5 22.5 t32.5 73.5z" />
<glyph unicode="&#x2000;" horiz-adv-x="955" />
<glyph unicode="&#x2001;" horiz-adv-x="1910" />
<glyph unicode="&#x2002;" horiz-adv-x="955" />
<glyph unicode="&#x2003;" horiz-adv-x="1910" />
<glyph unicode="&#x2004;" horiz-adv-x="636" />
<glyph unicode="&#x2005;" horiz-adv-x="477" />
<glyph unicode="&#x2006;" horiz-adv-x="318" />
<glyph unicode="&#x2007;" horiz-adv-x="318" />
<glyph unicode="&#x2008;" horiz-adv-x="238" />
<glyph unicode="&#x2009;" horiz-adv-x="382" />
<glyph unicode="&#x200a;" horiz-adv-x="106" />
<glyph unicode="&#x2010;" horiz-adv-x="852" d="M700 576h-537q-16 0 -24 11t-5 26l19 102q3 15 16 26t29 11h537q16 0 24.5 -11t5.5 -26l-19 -102q-3 -15 -16.5 -26t-29.5 -11z" />
<glyph unicode="&#x2011;" horiz-adv-x="852" d="M700 576h-537q-16 0 -24 11t-5 26l19 102q3 15 16 26t29 11h537q16 0 24.5 -11t5.5 -26l-19 -102q-3 -15 -16.5 -26t-29.5 -11z" />
<glyph unicode="&#x2012;" horiz-adv-x="852" d="M700 576h-537q-16 0 -24 11t-5 26l19 102q3 15 16 26t29 11h537q16 0 24.5 -11t5.5 -26l-19 -102q-3 -15 -16.5 -26t-29.5 -11z" />
<glyph unicode="&#x2013;" horiz-adv-x="1000" d="M971 584h-925q-16 0 -24.5 10.5t-5.5 26.5l17 86q3 15 15.5 26t28.5 11h925q16 0 25 -11t6 -26l-17 -86q-3 -16 -16 -26.5t-29 -10.5z" />
<glyph unicode="&#x2014;" horiz-adv-x="2000" d="M1971 584h-1925q-16 0 -24.5 10.5t-5.5 26.5l17 86q3 15 15.5 26t28.5 11h1925q16 0 25 -11t6 -26l-17 -86q-3 -16 -16 -26.5t-29 -10.5z" />
<glyph unicode="&#x2018;" horiz-adv-x="668" d="M626 1468q-105 -79 -134 -186q63 -3 84.5 -36t11.5 -84q-22 -118 -151 -118q-66 0 -90.5 31.5t-9.5 108.5q20 107 85 196t169 150q24 15 37 -7l11 -20q10 -18 -13 -35z" />
<glyph unicode="&#x2019;" horiz-adv-x="668" d="M338 1120q107 80 134 186q-63 3 -84.5 36t-11.5 84q22 118 151 118q66 0 90.5 -31.5t9.5 -108.5q-20 -107 -85 -196t-169 -150q-25 -15 -36 7l-12 20q-9 19 13 35z" />
<glyph unicode="&#x201a;" horiz-adv-x="668" d="M80 -212q107 80 134 186q-63 3 -84.5 36t-11.5 84q22 118 151 118q66 0 90.5 -31.5t9.5 -108.5q-20 -107 -85 -196t-169 -150q-25 -15 -36 7l-12 20q-9 19 13 35z" />
<glyph unicode="&#x201c;" horiz-adv-x="1050" d="M1008 1468q-105 -79 -134 -186q63 -3 84.5 -36t11.5 -84q-22 -118 -151 -118q-66 0 -90.5 31.5t-9.5 108.5q20 107 85 196t169 150q24 15 37 -7l11 -20q10 -18 -13 -35zM626 1468q-105 -79 -134 -186q63 -3 84.5 -36t11.5 -84q-22 -118 -151 -118q-66 0 -90.5 31.5 t-9.5 108.5q20 107 85 196t169 150q24 15 37 -7l11 -20q10 -18 -13 -35z" />
<glyph unicode="&#x201d;" horiz-adv-x="1050" d="M338 1120q107 80 134 186q-63 3 -84.5 36t-11.5 84q22 118 151 118q66 0 90.5 -31.5t9.5 -108.5q-20 -107 -85 -196t-169 -150q-25 -15 -36 7l-12 20q-9 19 13 35zM720 1120q107 80 134 186q-63 3 -84.5 36t-11.5 84q22 118 151 118q66 0 90.5 -31.5t9.5 -108.5 q-20 -107 -85 -196t-169 -150q-25 -15 -36 7l-12 20q-9 19 13 35z" />
<glyph unicode="&#x201e;" horiz-adv-x="1050" d="M80 -212q107 80 134 186q-63 3 -84.5 36t-11.5 84q22 118 151 118q66 0 90.5 -31.5t9.5 -108.5q-20 -107 -85 -196t-169 -150q-25 -15 -36 7l-12 20q-9 19 13 35zM462 -212q107 80 134 186q-63 3 -84.5 36t-11.5 84q22 118 151 118q66 0 90.5 -31.5t9.5 -108.5 q-20 -107 -85 -196t-169 -150q-25 -15 -36 7l-12 20q-9 19 13 35z" />
<glyph unicode="&#x2022;" horiz-adv-x="936" d="M230 664q0 120 70 184t198 64t198 -64t70 -184t-70 -184t-198 -64t-198 64t-70 184z" />
<glyph unicode="&#x2026;" horiz-adv-x="2000" d="M228 -24q-128 0 -105 118t151 118t105 -118t-151 -118zM894 -24q-128 0 -105 118t151 118t105 -118t-151 -118zM1560 -24q-128 0 -105 118t151 118t105 -118t-151 -118z" />
<glyph unicode="&#x202f;" horiz-adv-x="382" />
<glyph unicode="&#x2039;" horiz-adv-x="696" d="M158 618l2 12q4 25 33 46l442 332q17 13 26 8.5t5 -24.5l-17 -91q-6 -29 -32 -48l-304 -229l215 -229q19 -19 13 -48l-18 -91q-4 -20 -14.5 -24.5t-22.5 8.5l-313 332q-21 21 -15 46z" />
<glyph unicode="&#x203a;" horiz-adv-x="696" d="M574 630l-2 -12q-6 -25 -33 -46l-443 -332q-17 -13 -26 -8t-5 24l18 91q6 28 31 48l305 229l-216 229q-18 19 -12 48l17 91q4 19 15 24t22 -8l314 -332q19 -21 15 -46z" />
<glyph unicode="&#x205f;" horiz-adv-x="477" />
<glyph unicode="&#x20ac;" horiz-adv-x="1396" d="M97 638h84q10 71 24 124h-84q-15 0 -24.5 11.5t-6.5 26.5l9 48q4 16 17.5 27t28.5 11h98q104 253 332 395.5t556 142.5q169 0 303 -45q33 -12 24 -41l-27 -90q-6 -20 -22.5 -29.5t-33.5 -2.5q-98 44 -266 44q-248 0 -416 -97.5t-252 -276.5h768q37 0 21 -34l-32 -64 q-5 -9 -17 -17.5t-22 -8.5h-762q-24 -63 -24 -124h708q38 0 21 -34l-33 -64q-5 -9 -17 -17.5t-22 -8.5h-664q15 -182 148.5 -278t383.5 -96q146 0 287 50q20 7 33 -3t11 -30l-9 -94q-2 -31 -40 -41q-168 -46 -322 -46q-335 0 -509.5 141t-178.5 397h-98q-15 0 -24 11.5 t-6 26.5l9 48q3 16 17 27t29 11z" />
<glyph unicode="&#x2122;" horiz-adv-x="1528" d="M276 779v509h-188q-16 0 -27 11t-11 26v38q0 15 11 26t27 11h517q15 0 26 -11t11 -26v-38q0 -15 -11 -26t-26 -11h-189v-509q0 -15 -12.5 -26t-28.5 -11h-62q-15 0 -26 11t-11 26zM1097 948h-48q-27 0 -44 22l-177 212v-404q0 -15 -11 -25.5t-27 -10.5h-64 q-15 0 -26.5 10.5t-11.5 25.5v584q0 16 11.5 27t26.5 11h77q16 0 30 -16l240 -298l240 298q14 16 30 16h77q15 0 26.5 -11t11.5 -27v-584q0 -15 -11.5 -25.5t-26.5 -10.5h-64q-16 0 -27 10.5t-11 25.5v404l-177 -212q-17 -22 -44 -22z" />
<glyph unicode="&#x25fc;" horiz-adv-x="1035" d="M0 1035h1035v-1035h-1035v1035z" />
</font>
</defs>
</svg>
