<?xml version="1.0" standalone="no"?>
<!DOCTYPE svg PUBLIC "-//W3C//DTD SVG 1.1//EN" "http://www.w3.org/Graphics/SVG/1.1/DTD/svg11.dtd" >
<svg xmlns="http://www.w3.org/2000/svg">
<metadata></metadata>
<defs>
<font id="core_sans_nr_sc_63_ex_boldRg" horiz-adv-x="1392" >
<font-face units-per-em="2000" ascent="1600" descent="-400" />
<missing-glyph horiz-adv-x="720" />
<glyph horiz-adv-x="666" />
<glyph horiz-adv-x="0" />
<glyph horiz-adv-x="0" />
<glyph unicode="&#xd;" horiz-adv-x="682" />
<glyph unicode=" "  horiz-adv-x="720" />
<glyph unicode="&#x09;" horiz-adv-x="720" />
<glyph unicode="&#xa0;" horiz-adv-x="720" />
<glyph unicode="!" horiz-adv-x="712" d="M228 1400h255q16 0 27.5 -11t11.5 -27v-324l-53 -612q-2 -15 -13 -25.5t-26 -10.5h-148q-14 0 -26 10.5t-13 24.5l-53 612v325q0 16 11 27t27 11zM172 132q0 156 184 156t184 -156t-184 -156t-184 156z" />
<glyph unicode="&#x22;" horiz-adv-x="1164" d="M218 845l-26 515q-1 17 10.5 28.5t28.5 11.5h239q16 0 27 -11t11 -27v-43l-54 -476q-1 -14 -13 -24.5t-26 -10.5h-158q-16 0 -27 11t-12 26zM684 845l-26 515q-1 17 10.5 28.5t28.5 11.5h239q16 0 27 -11t11 -27v-43l-54 -476q-1 -14 -13 -24.5t-26 -10.5h-158 q-16 0 -27 11t-12 26z" />
<glyph unicode="#" horiz-adv-x="1640" d="M1445 316h-254l-58 -285q-2 -13 -13.5 -22t-24.5 -9h-202q-19 0 -30.5 13.5t-7.5 32.5l55 270h-337l-58 -285q-2 -13 -13.5 -22t-24.5 -9h-202q-19 0 -30.5 13.5t-7.5 32.5l55 270h-191q-16 0 -27.5 11.5t-11.5 27.5v152q0 16 11.5 27.5t27.5 11.5h238l61 302h-205 q-16 0 -27.5 11.5t-11.5 27.5v152q0 16 11.5 27.5t27.5 11.5h252l60 291q3 13 14 22t24 9h202q19 0 30.5 -13.5t7.5 -32.5l-57 -276h337l60 291q3 13 14 22t24 9h202q19 0 30.5 -13.5t7.5 -32.5l-57 -276h193q16 0 27.5 -11.5t11.5 -27.5v-152q0 -16 -11.5 -27.5 t-27.5 -11.5h-240l-61 -302h207q16 0 27.5 -11.5t11.5 -27.5v-152q0 -16 -11.5 -27.5t-27.5 -11.5zM681 848l-61 -302h337l61 302h-337z" />
<glyph unicode="$" horiz-adv-x="1330" d="M146 45q-12 5 -20 17.5t-7 25.5l18 177q2 21 18.5 31t35.5 2q166 -72 417 -72v356q-4 1 -15.5 4.5t-18.5 5.5q-244 65 -353 169t-109 269q0 174 124.5 274t371.5 117v150q0 16 11.5 27.5t27.5 11.5h64q16 0 27.5 -11.5t11.5 -27.5v-148q215 -5 386 -54q15 -4 24 -17 t7 -26l-15 -171q-1 -20 -16 -29.5t-34 -4.5q-159 47 -352 49v-333q6 -2 10 -3q264 -76 375 -178.5t111 -265.5q0 -185 -119 -287t-377 -122v-152q0 -16 -11.5 -27.5t-27.5 -11.5h-64q-16 0 -27.5 11.5t-11.5 27.5v147q-258 2 -462 69zM914 376q0 52 -36.5 89.5t-127.5 71.5 v-302q87 14 125.5 49t38.5 92zM444 1042q0 -50 37 -86.5t127 -71.5v279q-90 -11 -127 -41.5t-37 -79.5z" />
<glyph unicode="%" horiz-adv-x="2108" d="M940 1032q0 -168 -107.5 -275t-292.5 -107t-292.5 107t-107.5 275t107.5 275t292.5 107t292.5 -107t107.5 -275zM396 1032q0 -166 144 -166t144 166t-144 166t-144 -166zM1968 368q0 -168 -107.5 -275t-292.5 -107t-292.5 107t-107.5 275t107.5 275t292.5 107t292.5 -107 t107.5 -275zM1424 368q0 -166 144 -166t144 166t-144 166t-144 -166zM1703 1337l-1059 -1301q-30 -36 -79 -36h-130q-26 0 -36 22t7 41l1059 1301q30 36 79 36h130q26 0 36 -22t-7 -41z" />
<glyph unicode="&#x26;" horiz-adv-x="1752" d="M874 1072q0 60 -51 97t-141 37q-85 0 -134.5 -39t-49.5 -89q0 -47 38 -97.5t130 -118.5q108 49 158 100t50 110zM378 372q0 -79 74.5 -125.5t211.5 -46.5q196 0 296 92l-380 304q-202 -86 -202 -224zM1313 19l-151 119q-177 -162 -514 -162q-122 0 -224.5 25t-180 74 t-120.5 126.5t-43 176.5q0 248 300 380q-90 76 -132 151t-42 165q0 155 129 252.5t347 97.5q223 0 351.5 -97t128.5 -255q0 -221 -292 -364l266 -212q56 98 64 253q1 15 12 25t26 10h212q16 0 26.5 -11t9.5 -27q-17 -255 -132 -426l324 -258q21 -16 14.5 -39t-33.5 -23h-287 q-35 0 -59 19z" />
<glyph unicode="'" horiz-adv-x="678" d="M208 845l-26 515q-1 16 10.5 28t28.5 12h238q16 0 27.5 -11t11.5 -27v-43l-54 -476q-2 -14 -13 -24.5t-26 -10.5h-158q-15 0 -26.5 11t-12.5 26z" />
<glyph unicode="(" horiz-adv-x="878" d="M190 621q0 477 335 850q27 29 68 29h147q26 0 36.5 -21t-5.5 -42q-307 -393 -307 -816q0 -425 307 -818q16 -21 5.5 -42t-36.5 -21h-147q-41 0 -68 29q-335 373 -335 852z" />
<glyph unicode=")" horiz-adv-x="878" d="M688 621q0 -479 -335 -852q-27 -29 -68 -29h-147q-26 0 -36.5 21t5.5 42q307 393 307 818q0 423 -307 816q-16 21 -5.5 42t36.5 21h147q41 0 68 -29q335 -373 335 -850z" />
<glyph unicode="*" horiz-adv-x="1112" d="M845 356l-189 134l22 -230q2 -17 -9.5 -29.5t-28.5 -12.5h-167q-17 0 -28.5 12.5t-10.5 29.5l22 230l-188 -134q-14 -10 -30.5 -6.5t-24.5 18.5l-84 144q-8 15 -3.5 31.5t20.5 23.5l210 96l-209 96q-16 8 -21 23.5t4 30.5l83 144q9 15 25.5 19t30.5 -6l187 -133l-22 229 q-1 17 10.5 29.5t28.5 12.5h167q17 0 28.5 -12.5t9.5 -29.5l-22 -230l188 134q14 10 30.5 6t25.5 -19l83 -144q9 -15 4 -30.5t-21 -23.5l-210 -96l211 -96q16 -7 20.5 -23.5t-3.5 -31.5l-84 -144q-8 -15 -24.5 -18.5t-30.5 6.5z" />
<glyph unicode="+" horiz-adv-x="1320" d="M522 201v349h-373q-16 0 -27.5 11.5t-11.5 27.5v148q0 16 12 27.5t29 11.5h371v347q0 16 11.5 27.5t27.5 11.5h198q16 0 27.5 -11.5t11.5 -27.5v-347h373q16 0 27.5 -11.5t11.5 -27.5v-148q0 -16 -11.5 -27.5t-27.5 -11.5h-373v-349q0 -16 -11.5 -27.5t-27.5 -11.5h-198 q-16 0 -27.5 11.5t-11.5 27.5z" />
<glyph unicode="," horiz-adv-x="696" d="M269 -292q-27 -15 -47 13l-31 47q-8 13 -6.5 29t13.5 24q89 62 108 159q-132 18 -132 158q0 162 174 162t174 -170q0 -142 -66.5 -251t-186.5 -171z" />
<glyph unicode="-" horiz-adv-x="858" d="M710 540h-561q-16 0 -27.5 11.5t-11.5 27.5v168q0 16 11.5 27.5t27.5 11.5h561q16 0 27 -11.5t11 -27.5v-168q0 -16 -11 -27.5t-27 -11.5z" />
<glyph unicode="." horiz-adv-x="696" d="M174 138q0 162 174 162t174 -162t-174 -162t-174 162z" />
<glyph unicode="/" horiz-adv-x="1270" d="M291 -191q-18 -29 -50 -29h-199q-25 0 -35.5 19t2.5 40l970 1627q17 30 50 30h199q25 0 35.5 -19t-2.5 -40z" />
<glyph unicode="0" d="M1342 700q0 -215 -72 -376.5t-219.5 -254.5t-354.5 -93t-354.5 93t-219.5 254.5t-72 376.5t72 376.5t219.5 254.5t354.5 93t354.5 -93t219.5 -254.5t72 -376.5zM382 700q0 -472 314 -472t314 472t-314 472t-314 -472z" />
<glyph unicode="1" d="M640 1092l-264 -160q-14 -7 -29.5 -4t-23.5 15l-91 133q-10 14 -7 31t17 26l389 244q35 23 94 23h204q16 0 27.5 -11t11.5 -27v-1323q0 -16 -11.5 -27.5t-27.5 -11.5h-250q-16 0 -27.5 11.5t-11.5 27.5v1053z" />
<glyph unicode="2" d="M241 1112q-20 -8 -36 1.5t-17 31.5l-11 156q-3 39 31 52q188 71 412 71q271 0 425.5 -108t154.5 -314q0 -140 -61.5 -248.5t-196.5 -231.5q-143 -132 -366 -274h591q16 0 27.5 -11.5t11.5 -27.5v-170q0 -16 -11.5 -27.5t-27.5 -11.5h-1008q-16 0 -27.5 11.5t-11.5 27.5 v158q0 38 32 58q280 185 478 363q128 116 183 200.5t55 183.5q0 90 -75 132t-225 42q-182 0 -327 -64z" />
<glyph unicode="3" d="M169 30q-13 3 -22 15t-8 25l18 185q2 20 22 28t40 0q148 -55 347 -55q171 0 250.5 35.5t79.5 122.5q0 112 -127 163.5t-386 54.5q-16 0 -26.5 11t-10.5 28v170q0 16 10.5 27.5t26.5 11.5q251 2 370 46.5t119 137.5q0 74 -68.5 105t-225.5 31q-186 0 -335 -54 q-19 -7 -35 3t-18 29l-17 167q-1 13 6.5 24.5t19.5 16.5q180 66 427 66q282 0 430 -98t148 -264q0 -131 -68.5 -213.5t-189.5 -118.5q130 -37 206 -125.5t76 -218.5q0 -191 -161.5 -300.5t-466.5 -109.5q-240 0 -431 54z" />
<glyph unicode="4" d="M60 311v170q0 49 36 91l675 800q24 28 61 28h271q16 0 27.5 -11t11.5 -27v-840h153q16 0 27.5 -11.5t11.5 -27.5v-172q0 -17 -11 -28t-28 -11h-153v-233q0 -16 -11.5 -27.5t-27.5 -11.5h-250q-16 0 -27.5 11.5t-11.5 27.5v233h-715q-16 0 -27.5 11.5t-11.5 27.5z M814 1036l-431 -514h431v514z" />
<glyph unicode="5" d="M545 228q188 0 274.5 57t86.5 173q0 102 -88 149t-268 47q-166 0 -292 -34q-19 -5 -33.5 7t-14.5 32v703q0 16 11.5 27t27.5 11h900q16 0 27.5 -11t11.5 -27v-171q0 -16 -11.5 -27.5t-27.5 -11.5h-625v-278q96 22 178 22q249 0 392.5 -117t143.5 -335q0 -213 -165 -340.5 t-480 -127.5q-237 0 -401 52q-12 4 -20 15.5t-7 24.5l16 179q2 20 18 30t34 3q132 -52 312 -52z" />
<glyph unicode="6" d="M730 228q116 0 182 58.5t66 167.5q0 114 -64 173t-190 59q-185 0 -298 -98q17 -360 304 -360zM1129 1124q-122 48 -285 48q-193 0 -292 -77t-120 -257q147 94 354 94q234 0 379 -126.5t145 -347.5q0 -217 -157 -349.5t-417 -132.5q-143 0 -259.5 42t-203.5 125.5 t-135 218t-48 310.5q0 379 190 565.5t550 186.5q189 0 336 -48q13 -4 22.5 -16t8.5 -26l-16 -177q-2 -20 -17.5 -30t-34.5 -3z" />
<glyph unicode="7" d="M1240 1362v-170q0 -43 -20 -81l-556 -1084q-14 -27 -43 -27h-264q-24 0 -34.5 18t0.5 38l567 1096h-710q-16 0 -27 11.5t-11 27.5v171q0 16 11 27t27 11h1022q16 0 27 -11t11 -27z" />
<glyph unicode="8" d="M696 -24q-294 0 -458 112t-164 300q0 119 78.5 212.5t221.5 141.5q-120 56 -176 132.5t-56 179.5q0 174 147 272t407 98q252 0 403 -99t151 -271q0 -99 -62 -177.5t-176 -128.5q156 -67 231 -153t75 -207q0 -188 -163 -300t-459 -112zM666 636q-260 -85 -260 -252 q0 -72 72 -116t218 -44q136 0 213 45.5t77 114.5q0 75 -72 135.5t-248 116.5zM732 838q96 38 151 93.5t55 116.5q0 60 -65.5 100t-176.5 40q-113 0 -177.5 -38.5t-64.5 -101.5q0 -62 60.5 -109t217.5 -101z" />
<glyph unicode="9" d="M662 1172q-116 0 -182 -58.5t-66 -167.5q0 -114 64 -173t190 -59q185 0 298 98q-17 360 -304 360zM263 276q122 -48 285 -48q193 0 292 77t120 257q-147 -94 -354 -94q-234 0 -379 126.5t-145 347.5q0 217 157 349.5t417 132.5q143 0 259.5 -42t203.5 -125.5t135 -218 t48 -310.5q0 -379 -190 -565.5t-550 -186.5q-189 0 -336 48q-13 4 -22.5 16t-8.5 26l16 177q2 20 17.5 30t34.5 3z" />
<glyph unicode=":" horiz-adv-x="696" d="M174 138q0 162 174 162t174 -162t-174 -162t-174 162zM174 898q0 162 174 162t174 -162t-174 -162t-174 162z" />
<glyph unicode=";" horiz-adv-x="696" d="M174 898q0 162 174 162t174 -162t-174 -162t-174 162zM269 -292q-27 -15 -47 13l-31 47q-8 13 -6.5 29t13.5 24q89 62 108 159q-132 18 -132 158q0 162 174 162t174 -170q0 -142 -66.5 -251t-186.5 -171z" />
<glyph unicode="&#x3c;" horiz-adv-x="1320" d="M110 563v198q0 11 8 22t18 14l1021 366q20 7 36.5 -4t16.5 -32v-159q0 -30 -28 -40l-778 -266l778 -266q28 -10 28 -40v-159q0 -21 -16.5 -32t-36.5 -4l-1021 366q-10 3 -18 14t-8 22z" />
<glyph unicode="=" horiz-adv-x="1320" d="M1171 778h-1022q-17 0 -28 11t-11 28v144q0 16 11.5 27.5t27.5 11.5h1022q16 0 27.5 -11.5t11.5 -27.5v-144q0 -16 -11.5 -27.5t-27.5 -11.5zM1171 326h-1022q-16 0 -27.5 11t-11.5 27v145q0 16 11.5 27.5t27.5 11.5h1022q16 0 27.5 -11.5t11.5 -27.5v-145 q0 -16 -11.5 -27t-27.5 -11z" />
<glyph unicode="&#x3e;" horiz-adv-x="1320" d="M1210 761v-198q0 -11 -8 -22t-18 -14l-1021 -366q-20 -7 -36.5 4t-16.5 32v159q0 30 28 40l778 266l-778 266q-28 10 -28 40v159q0 21 16.5 32t36.5 4l1021 -366q10 -3 18 -14t8 -22z" />
<glyph unicode="?" horiz-adv-x="1248" d="M352 132q0 156 184 156t184 -156t-184 -156t-184 156zM378 424v28q0 136 52.5 230t171.5 160q107 60 145.5 105t38.5 105q0 120 -288 120q-184 0 -338 -62q-20 -8 -36 2t-17 31l-15 169q-1 10 6 21t17 16q81 36 193.5 55.5t225.5 19.5q292 0 438 -93t146 -269 q0 -223 -276 -384q-78 -46 -113 -101.5t-35 -132.5v-20q0 -16 -11.5 -27t-27.5 -11h-238q-16 0 -27.5 11t-11.5 27z" />
<glyph unicode="@" horiz-adv-x="1932" d="M872 314q148 0 232 106l64 326q-42 54 -142 54q-114 0 -202 -99.5t-88 -234.5q0 -74 37.5 -113t98.5 -39zM1505 -182q-248 -142 -525 -142q-186 0 -351 65.5t-284.5 179.5t-189 277.5t-69.5 351.5q0 186 68.5 349.5t185.5 278t277 180.5t339 66q150 0 286.5 -39 t246 -113.5t190 -175.5t124 -231.5t43.5 -276.5q0 -223 -105 -358.5t-293 -135.5q-89 0 -155.5 36.5t-102.5 105.5q-129 -132 -346 -132q-163 0 -264.5 98t-101.5 254q0 116 47 220t124 176.5t177.5 115t205.5 42.5q234 0 359 -162q36 -47 25 -102l-66 -342q0 -70 32.5 -109 t87.5 -39q77 0 126.5 94t49.5 238q0 187 -85.5 336t-243.5 234.5t-361 85.5q-140 0 -264 -54t-212.5 -146.5t-140 -221t-51.5 -272.5q0 -197 90.5 -356t249.5 -248.5t356 -89.5q240 0 435 123q16 10 33 5t24 -21l44 -94q7 -14 2.5 -28.5t-17.5 -22.5z" />
<glyph unicode="A" horiz-adv-x="1612" d="M1127 310h-642l-111 -285q-4 -10 -15 -17.5t-21 -7.5h-273q-22 0 -32 16.5t-1 38.5l559 1320q11 25 39 25h352q28 0 39 -25l559 -1320q9 -22 -1 -38.5t-32 -16.5h-273q-10 0 -21 7.5t-15 17.5zM580 558h452l-226 580z" />
<glyph unicode="B" horiz-adv-x="1490" d="M818 0h-628q-16 0 -28 12t-12 28v1320q0 16 12 28t28 12h598q268 0 414 -101.5t146 -274.5q0 -97 -47 -168.5t-133 -111.5q122 -38 190 -126.5t68 -201.5q0 -203 -155 -309.5t-453 -106.5zM746 1160h-268v-318h268q270 0 270 162q0 82 -66 119t-204 37zM478 602v-362h300 q167 0 240.5 42.5t73.5 137.5t-73.5 138.5t-240.5 43.5h-300z" />
<glyph unicode="C" horiz-adv-x="1448" d="M1333 27q-158 -51 -389 -51q-409 0 -636.5 193t-227.5 531q0 334 227.5 529t630.5 195q224 0 384 -51q18 -6 30.5 -20t11.5 -32l-15 -163q-2 -22 -19.5 -30.5t-37.5 -2.5q-146 47 -316 47q-273 0 -418.5 -125t-145.5 -347q0 -228 149 -350t423 -122q171 0 318 52 q20 7 37.5 -2t19.5 -31l16 -168q1 -18 -11.5 -32t-30.5 -20z" />
<glyph unicode="D" horiz-adv-x="1608" d="M656 0h-467q-16 0 -27.5 12t-11.5 28v1320q0 16 11.5 28t27.5 12h467q196 0 355.5 -44.5t275 -131t178.5 -220t63 -304.5q0 -172 -63 -305.5t-178.5 -219.5t-275 -130.5t-355.5 -44.5zM1196 700q0 237 -140 344.5t-426 107.5h-152v-904h152q287 0 426.5 107t139.5 345z " />
<glyph unicode="E" horiz-adv-x="1340" d="M150 40v1320q0 16 11.5 28t27.5 12h1015q16 0 28 -12t12 -28v-169q0 -16 -12 -27.5t-28 -11.5h-726v-310h676q16 0 28 -12t12 -28v-168q0 -16 -12 -28t-28 -12h-676v-346h742q16 0 28 -11.5t12 -27.5v-169q0 -16 -12 -28t-28 -12h-1031q-16 0 -27.5 12t-11.5 28z" />
<glyph unicode="F" horiz-adv-x="1288" d="M438 0h-249q-16 0 -27.5 12t-11.5 28v1320q0 16 11.5 28t27.5 12h1015q16 0 28 -12t12 -28v-169q0 -16 -12 -27.5t-28 -11.5h-726v-310h676q16 0 28 -12t12 -28v-168q0 -16 -12 -28t-28 -12h-676v-554q0 -16 -12 -28t-28 -12z" />
<glyph unicode="G" horiz-adv-x="1670" d="M1436 1101q-184 69 -414 69q-294 0 -452 -122.5t-158 -347.5q0 -231 158 -350.5t448 -119.5q140 0 230 28v300h-355q-16 0 -27.5 12t-11.5 28v168q0 16 11.5 28t27.5 12h607q16 0 28 -12t12 -28v-660q0 -47 -43 -60q-228 -70 -491 -70q-432 0 -679 197.5t-247 526.5 q0 156 59 288t170.5 229t283.5 152t387 55q270 0 486 -66q45 -14 40 -52l-17 -172q-2 -20 -18 -30t-35 -3z" />
<glyph unicode="H" horiz-adv-x="1664" d="M150 40v1320q0 16 11.5 28t27.5 12h249q16 0 28 -12t12 -28v-492h708v492q0 16 12 28t28 12h248q16 0 28 -12t12 -28v-1320q0 -16 -12 -28t-28 -12h-248q-16 0 -28 12t-12 28v580h-708v-580q0 -16 -12 -28t-28 -12h-249q-16 0 -27.5 12t-11.5 28z" />
<glyph unicode="I" horiz-adv-x="648" d="M200 1400h248q16 0 28 -12t12 -28v-1320q0 -16 -12 -28t-28 -12h-248q-16 0 -28 12t-12 28v1320q0 16 12 28t28 12z" />
<glyph unicode="J" horiz-adv-x="1108" d="M630 496v864q0 16 12 28t28 12h248q16 0 28 -12t12 -28v-872q0 -512 -562 -512q-185 0 -336 48q-20 6 -30.5 21.5t-9.5 35.5l15 169q1 21 18.5 30.5t37.5 1.5q115 -50 271 -50q136 0 202 61.5t66 202.5z" />
<glyph unicode="K" horiz-adv-x="1530" d="M1109 32l-631 657v-649q0 -16 -12 -28t-28 -12h-248q-16 0 -28 12t-12 28v1320q0 16 12 28t28 12h248q16 0 28 -12t12 -28v-563l551 567q34 36 81 36h254q27 0 37 -24t-9 -43l-573 -589l667 -675q20 -20 10 -44.5t-38 -24.5h-270q-47 0 -79 32z" />
<glyph unicode="L" horiz-adv-x="1338" d="M150 40v1320q0 16 12 28t28 12h248q16 0 28 -12t12 -28v-1112h790q16 0 28 -11.5t12 -27.5v-169q0 -16 -12 -28t-28 -12h-1078q-16 0 -28 12t-12 28z" />
<glyph unicode="M" horiz-adv-x="2024" d="M1084 436h-144q-42 0 -66 33l-406 545v-974q0 -16 -11.5 -28t-27.5 -12h-239q-16 0 -28 12t-12 28v1320q0 16 12 28t28 12h283q65 0 102 -51l437 -591l437 591q37 51 102 51h283q16 0 28 -12t12 -28v-1320q0 -16 -12 -28t-28 -12h-239q-16 0 -27.5 12t-11.5 28v974 l-406 -545q-24 -33 -66 -33z" />
<glyph unicode="N" horiz-adv-x="1680" d="M1099 47l-631 961v-968q0 -16 -12 -28t-28 -12h-238q-16 0 -28 12t-12 28v1320q0 16 12 28t28 12h300q61 0 91 -47l631 -961v968q0 16 12 28t28 12h238q16 0 28 -12t12 -28v-1320q0 -16 -12 -28t-28 -12h-300q-61 0 -91 47z" />
<glyph unicode="O" horiz-adv-x="1704" d="M1624 700q0 -154 -51.5 -286t-147.5 -229.5t-243 -153t-330 -55.5t-330 55.5t-243 153t-147.5 229.5t-51.5 286t51.5 286t147.5 229.5t243 153t330 55.5t330 -55.5t243 -153t147.5 -229.5t51.5 -286zM412 700q0 -226 115 -349t325 -123t325 123t115 349t-115 349 t-325 123t-325 -123t-115 -349z" />
<glyph unicode="P" horiz-adv-x="1420" d="M190 1400h532q300 0 469 -120t169 -344q0 -223 -169 -343.5t-469 -120.5h-244v-432q0 -16 -12 -28t-28 -12h-248q-16 0 -28 12t-12 28v1320q0 16 12 28t28 12zM478 1148v-424h212q174 0 256 48t82 164t-82 164t-256 48h-212z" />
<glyph unicode="Q" horiz-adv-x="1704" d="M1624 700q0 -180 -66.5 -326.5t-201 -247.5t-321.5 -134q11 -59 77.5 -81.5t176.5 -22.5q99 0 180 16q17 3 31 -7t16 -27l19 -138q2 -16 -7 -28.5t-26 -15.5q-111 -20 -240 -20q-445 0 -524 314q-208 22 -358.5 121.5t-225 252.5t-74.5 344q0 154 51.5 286t147.5 229.5 t243 153t330 55.5t330 -55.5t243 -153t147.5 -229.5t51.5 -286zM412 700q0 -226 115 -349t325 -123t325 123t115 349t-115 349t-325 123t-325 -123t-115 -349z" />
<glyph unicode="R" horiz-adv-x="1516" d="M1372 960q0 -139 -76 -240.5t-228 -154.5l387 -501q16 -21 5.5 -42.5t-36.5 -21.5h-211q-45 0 -74.5 14t-53.5 47l-337 459h-270v-480q0 -16 -11.5 -28t-27.5 -12h-250q-16 0 -27.5 12t-11.5 28v1320q0 16 11.5 28t27.5 12h560q183 0 321 -47t220 -147.5t82 -245.5z M1040 960q0 188 -316 188h-246v-376h246q316 0 316 188z" />
<glyph unicode="S" horiz-adv-x="1304" d="M124 45q-12 5 -20 17.5t-7 25.5l18 177q2 21 18.5 31t35.5 2q168 -72 421 -72q163 0 232.5 37.5t69.5 112.5q0 70 -72 117t-268 99q-244 65 -353 169t-109 269q0 191 149.5 292.5t446.5 101.5q240 0 428 -55q15 -4 24 -17t7 -26l-15 -171q-1 -20 -16 -29.5t-34 -4.5 q-165 49 -366 49q-163 0 -227.5 -32t-64.5 -96q0 -66 68 -110.5t248 -97.5q264 -76 375 -178.5t111 -265.5q0 -208 -150 -311t-482 -103q-261 0 -468 69z" />
<glyph unicode="T" horiz-adv-x="1336" d="M504 40v1110h-444q-16 0 -28 12t-12 28v170q0 16 12 28t28 12h1216q16 0 28 -12t12 -28v-170q0 -16 -12 -28t-28 -12h-444v-1110q0 -16 -12 -28t-28 -12h-248q-16 0 -28 12t-12 28z" />
<glyph unicode="U" horiz-adv-x="1692" d="M846 -24q-156 0 -283 36.5t-219.5 107.5t-143 183.5t-50.5 258.5v798q0 16 12 28t28 12h249q16 0 27.5 -12t11.5 -28v-785q0 -173 88.5 -260t279.5 -87t279.5 87t88.5 260v785q0 16 11.5 28t27.5 12h249q16 0 28 -12t12 -28v-798q0 -146 -50.5 -258.5t-143 -183.5 t-219.5 -107.5t-283 -36.5z" />
<glyph unicode="V" horiz-adv-x="1664" d="M978 0h-292q-58 0 -80 51l-548 1294q-9 22 2.5 38.5t34.5 16.5h238q57 0 75 -47l424 -1091l424 1091q18 47 75 47h238q23 0 34.5 -16.5t2.5 -38.5l-548 -1294q-22 -51 -80 -51z" />
<glyph unicode="W" horiz-adv-x="2388" d="M1033 1400h322q40 0 51 -40l266 -1044l331 1043q13 41 63 41h232q22 0 33.5 -17.5t4.5 -37.5l-440 -1299q-16 -46 -66 -46h-326q-49 0 -62 55l-248 1001l-248 -1001q-13 -55 -62 -55h-326q-50 0 -66 46l-440 1299q-7 20 4.5 37.5t33.5 17.5h232q50 0 63 -41l331 -1043 l266 1044q11 40 51 40z" />
<glyph unicode="X" horiz-adv-x="1636" d="M818 494l-387 -458q-30 -36 -82 -36h-240q-26 0 -36.5 23t6.5 43l550 646l-529 622q-17 20 -6.5 43t36.5 23h240q52 0 82 -36l366 -434l366 434q30 36 82 36h240q26 0 36.5 -23t-6.5 -43l-529 -622l550 -646q17 -20 6.5 -43t-36.5 -23h-240q-52 0 -82 36z" />
<glyph unicode="Y" horiz-adv-x="1664" d="M957 0h-250q-16 0 -27.5 11.5t-11.5 28.5v510l-587 787q-16 21 -5 42t37 21h237q55 0 86 -42l396 -544l396 544q31 42 86 42h237q26 0 37 -21t-5 -42l-587 -787v-510q0 -17 -11.5 -28.5t-27.5 -11.5z" />
<glyph unicode="Z" horiz-adv-x="1344" d="M87 285l771 867h-726q-16 0 -28 11.5t-12 27.5v169q0 16 12 28t28 12h1092q16 0 28 -12t12 -28v-175q0 -36 -38 -79l-764 -858h786q16 0 28 -11.5t12 -27.5v-169q0 -16 -12 -28t-28 -12h-1152q-16 0 -28 12t-12 28v151q0 59 31 94z" />
<glyph unicode="[" horiz-adv-x="918" d="M230 -221v1682q0 16 11 27.5t27 11.5h571q17 0 28 -11t11 -28v-144q0 -16 -11.5 -27.5t-27.5 -11.5h-321v-1318h321q16 0 27.5 -11t11.5 -27v-143q0 -16 -11.5 -27.5t-27.5 -11.5h-571q-16 0 -27 11.5t-11 27.5z" />
<glyph unicode="\" horiz-adv-x="1270" d="M979 -191l-970 1628q-13 21 -2.5 40t35.5 19h199q33 0 50 -30l970 -1627q13 -21 2.5 -40t-35.5 -19h-199q-32 0 -50 29z" />
<glyph unicode="]" horiz-adv-x="918" d="M688 1461v-1682q0 -16 -11 -27.5t-27 -11.5h-571q-16 0 -27.5 11.5t-11.5 27.5v143q0 16 11.5 27t27.5 11h321v1318h-321q-16 0 -27.5 11.5t-11.5 27.5v144q0 17 11 28t28 11h571q16 0 27 -11.5t11 -27.5z" />
<glyph unicode="^" horiz-adv-x="1320" d="M535 1400h250q21 0 32 -17l378 -585q14 -21 3.5 -40.5t-35.5 -19.5h-205q-27 0 -42 22l-256 406l-256 -406q-15 -22 -42 -22h-205q-25 0 -35.5 19.5t3.5 40.5l378 585q11 17 32 17z" />
<glyph unicode="_" horiz-adv-x="1000" d="M0 -302v59q0 16 11.5 27.5t27.5 11.5h922q16 0 27.5 -11.5t11.5 -27.5v-59q0 -16 -11.5 -27t-27.5 -11h-922q-16 0 -27.5 11t-11.5 27z" />
<glyph unicode="`" horiz-adv-x="1008" d="M688 1120h-143q-31 0 -53 18l-297 250q-22 18 -16 45t34 27h237q28 0 48 -21l220 -254q17 -20 6.5 -42.5t-36.5 -22.5z" />
<glyph unicode="a" horiz-adv-x="1404" d="M968 252h-532l-84 -226q-4 -10 -15 -18t-22 -8h-249q-23 0 -34.5 17t-2.5 38l458 1110q5 10 16 17.5t21 7.5h356q10 0 21 -7.5t16 -17.5l458 -1110q9 -21 -2.5 -38t-34.5 -17h-249q-11 0 -22 8t-15 18zM520 480h364l-182 483z" />
<glyph unicode="b" horiz-adv-x="1310" d="M450 228h233q134 0 190.5 30.5t56.5 103.5q0 75 -56.5 105.5t-190.5 30.5h-233v-270zM450 726h206q112 0 162 26.5t50 91.5q0 64 -50.5 91t-161.5 27h-206v-236zM714 0h-543q-17 0 -29 11.5t-12 28.5v1110q0 17 12 28.5t29 11.5h519q239 0 369.5 -86t130.5 -236 q0 -78 -42 -140t-114 -96q101 -33 160.5 -109t59.5 -167q0 -175 -137.5 -265.5t-402.5 -90.5z" />
<glyph unicode="c" horiz-adv-x="1256" d="M1176 25q-147 -49 -364 -49q-352 0 -549 165t-197 453q0 286 197 453t547 167q202 0 348 -48q30 -11 27 -42l-14 -148q-1 -21 -17.5 -30.5t-36.5 -2.5q-113 39 -263 39q-227 0 -345.5 -101.5t-118.5 -286.5q0 -188 121.5 -287t348.5 -99q146 0 267 44q19 7 35.5 -3 t18.5 -31l14 -154q4 -31 -19 -39z" />
<glyph unicode="d" horiz-adv-x="1398" d="M590 0h-420q-16 0 -28 12t-12 28v1110q0 16 12 28t28 12h420q343 0 542.5 -153t199.5 -443q0 -193 -93 -328t-258.5 -200.5t-390.5 -65.5zM1008 594q0 196 -107.5 282t-330.5 86h-120v-734h120q224 0 331 85t107 281z" />
<glyph unicode="e" horiz-adv-x="1174" d="M130 40v1110q0 17 11.5 28.5t28.5 11.5h882q16 0 28 -12t12 -28v-148q0 -17 -11.5 -28.5t-28.5 -11.5h-602v-242h560q16 0 28 -12t12 -28v-147q0 -17 -11.5 -29t-28.5 -12h-560v-264h616q17 0 28.5 -11.5t11.5 -28.5v-148q0 -16 -12 -28t-28 -12h-896q-17 0 -28.5 11.5 t-11.5 28.5z" />
<glyph unicode="f" horiz-adv-x="1150" d="M130 40v1110q0 17 12 28.5t29 11.5h881q16 0 28 -12t12 -28v-148q0 -17 -11.5 -28.5t-28.5 -11.5h-602v-242h560q16 0 28 -12t12 -28v-147q0 -17 -11.5 -29t-28.5 -12h-560v-452q0 -17 -11.5 -28.5t-28.5 -11.5h-239q-17 0 -29 11.5t-12 28.5z" />
<glyph unicode="g" horiz-adv-x="1452" d="M66 594q0 133 51.5 246t148 196.5t246 130.5t335.5 47q239 0 434 -60q12 -4 20.5 -16.5t7.5 -24.5l-14 -151q-2 -21 -18 -31t-36 -3q-156 54 -345 54q-243 0 -374.5 -101t-131.5 -287q0 -188 129.5 -287t361.5 -99q91 0 159 16v242h-252q-16 0 -28 12t-12 28v148 q0 16 12 28t28 12h509q17 0 29 -11.5t12 -28.5v-576q0 -11 -8.5 -22.5t-19.5 -15.5q-199 -64 -440 -64q-375 0 -589.5 168t-214.5 450z" />
<glyph unicode="h" horiz-adv-x="1458" d="M130 40v1110q0 16 12 28t28 12h240q16 0 28 -12t12 -28v-404h558v404q0 17 12 28.5t29 11.5h239q17 0 28.5 -11.5t11.5 -28.5v-1110q0 -17 -11.5 -28.5t-28.5 -11.5h-239q-17 0 -29 11.5t-12 28.5v478h-558v-478q0 -16 -12 -28t-28 -12h-240q-16 0 -28 12t-12 28z" />
<glyph unicode="i" horiz-adv-x="600" d="M180 1190h240q16 0 28 -12t12 -28v-1110q0 -16 -12 -28t-28 -12h-240q-16 0 -28 12t-12 28v1110q0 16 12 28t28 12z" />
<glyph unicode="j" horiz-adv-x="980" d="M530 418v732q0 16 12 28t28 12h240q16 0 28 -12t12 -28v-740q0 -221 -123.5 -327.5t-381.5 -106.5q-171 0 -302 42q-12 4 -20.5 16.5t-7.5 25.5l14 152q2 22 19 32t37 2q89 -38 220 -38q114 0 169.5 48.5t55.5 161.5z" />
<glyph unicode="k" horiz-adv-x="1356" d="M450 1150v-458l442 470q28 28 57 28h248q28 0 38.5 -24t-9.5 -44l-468 -490l544 -564q19 -20 9 -44t-38 -24h-263q-31 0 -55 27l-505 547v-534q0 -17 -11.5 -28.5t-28.5 -11.5h-240q-17 0 -28.5 11.5t-11.5 28.5v1110q0 17 11.5 28.5t28.5 11.5h240q17 0 28.5 -11.5 t11.5 -28.5z" />
<glyph unicode="l" horiz-adv-x="1170" d="M130 40v1110q0 17 12 28.5t29 11.5h239q17 0 28.5 -11.5t11.5 -28.5v-922h654q17 0 28.5 -11.5t11.5 -28.5v-148q0 -16 -12 -28t-28 -12h-933q-17 0 -29 11.5t-12 28.5z" />
<glyph unicode="m" horiz-adv-x="1784" d="M985 364h-186q-20 0 -33 17l-326 447v-788q0 -17 -11.5 -28.5t-28.5 -11.5h-230q-16 0 -28 12t-12 28v1110q0 16 12 28t28 12h318q7 0 18 -5.5t15 -11.5l371 -523l371 523q4 6 15 11.5t18 5.5h318q16 0 28 -12t12 -28v-1110q0 -16 -12 -28t-28 -12h-230q-17 0 -28.5 11.5 t-11.5 28.5v788l-326 -447q-13 -17 -33 -17z" />
<glyph unicode="n" horiz-adv-x="1482" d="M956 25l-516 786v-771q0 -16 -12 -28t-28 -12h-230q-16 0 -28 12t-12 28v1110q0 16 12 28t28 12h313q26 0 43 -25l516 -786v771q0 16 12 28t28 12h230q16 0 28 -12t12 -28v-1110q0 -16 -12 -28t-28 -12h-313q-26 0 -43 25z" />
<glyph unicode="o" horiz-adv-x="1472" d="M1406 596q0 -132 -44 -244.5t-127 -196.5t-211 -131.5t-288 -47.5t-288 47.5t-211 131.5t-127 196.5t-44 244.5t44 244.5t127 196t211 130.5t288 47t288 -47t211 -130.5t127 -196t44 -244.5zM390 596q0 -188 89 -288t257 -100t257 100t89 288q0 187 -89 286.5t-257 99.5 t-257 -99.5t-89 -286.5z" />
<glyph unicode="p" horiz-adv-x="1252" d="M170 1190h468q264 0 411 -101.5t147 -296.5t-147 -296.5t-411 -101.5h-188v-354q0 -16 -12 -28t-28 -12h-240q-16 0 -28 12t-12 28v1110q0 16 12 28t28 12zM450 622h154q139 0 203.5 37.5t64.5 132.5t-64.5 132.5t-203.5 37.5h-154v-340z" />
<glyph unicode="q" horiz-adv-x="1472" d="M1302 -273q-99 -17 -218 -17q-381 0 -456 272q-268 30 -415 198.5t-147 415.5q0 132 44 244.5t127 196t211 130.5t288 47t288 -47t211 -130.5t127 -196t44 -244.5q0 -231 -128.5 -394t-365.5 -209q19 -85 206 -85q81 0 152 16q18 4 32 -6.5t16 -28.5l15 -117 q2 -17 -6.5 -29.5t-24.5 -15.5zM390 596q0 -188 89 -288t257 -100t257 100t89 288q0 187 -89 286.5t-257 99.5t-257 -99.5t-89 -286.5z" />
<glyph unicode="r" horiz-adv-x="1328" d="M1238 0h-224q-54 0 -81 37l-292 403h-191v-400q0 -16 -12 -28t-28 -12h-240q-16 0 -28 12t-12 28v1110q0 16 12 28t28 12h486q250 0 400 -95.5t150 -280.5q0 -119 -66.5 -206t-190.5 -125l321 -419q16 -21 5 -42.5t-37 -21.5zM882 814q0 78 -62.5 113t-185.5 35h-184 v-294h184q248 0 248 146z" />
<glyph unicode="s" horiz-adv-x="1132" d="M513 208q133 0 186 27t53 85q0 56 -59.5 94t-226.5 82q-192 50 -291 144t-99 228q0 168 131 257t391 89q224 0 380 -46q13 -4 21.5 -16t7.5 -25l-13 -152q-1 -20 -17 -30t-36 -4q-123 41 -311 41q-129 0 -179.5 -25t-50.5 -75q0 -54 57.5 -90.5t212.5 -81.5 q217 -63 311.5 -147.5t94.5 -228.5q0 -179 -131.5 -268.5t-421.5 -89.5q-228 0 -413 58q-13 4 -21.5 16.5t-7.5 25.5l16 158q2 22 19 32.5t37 2.5q158 -61 360 -61z" />
<glyph unicode="t" horiz-adv-x="1188" d="M434 40v922h-364q-17 0 -28.5 11.5t-11.5 28.5v148q0 16 12 28t28 12h1048q17 0 28.5 -11.5t11.5 -28.5v-148q0 -17 -11.5 -28.5t-28.5 -11.5h-364v-922q0 -16 -12 -28t-28 -12h-240q-16 0 -28 12t-12 28z" />
<glyph unicode="u" horiz-adv-x="1480" d="M740 -24q-184 0 -319.5 54t-213 168.5t-77.5 279.5v672q0 16 12 28t28 12h240q16 0 28 -12t12 -28v-662q0 -140 70 -210t220 -70t220 70t70 210v662q0 16 12 28t28 12h240q16 0 28 -12t12 -28v-672q0 -165 -77.5 -279.5t-213 -168.5t-319.5 -54z" />
<glyph unicode="v" horiz-adv-x="1444" d="M898 0h-352q-10 0 -21.5 7.5t-16.5 17.5l-459 1110q-8 21 3.5 38t34.5 17h239q36 0 48 -32l348 -932l348 932q12 32 48 32h239q23 0 34.5 -17t3.5 -38l-459 -1110q-5 -10 -16.5 -17.5t-21.5 -7.5z" />
<glyph unicode="w" horiz-adv-x="2068" d="M869 1190h330q13 0 24.5 -9t14.5 -22l210 -879l258 881q4 11 15.5 20t23.5 9h240q22 0 34.5 -15.5t5.5 -36.5l-358 -1110q-4 -11 -15.5 -19.5t-23.5 -8.5h-354q-13 0 -24.5 9t-14.5 22l-201 861l-201 -861q-3 -13 -14.5 -22t-24.5 -9h-354q-12 0 -23.5 8.5t-15.5 19.5 l-358 1110q-7 21 5.5 36.5t34.5 15.5h240q12 0 23.5 -9t15.5 -20l258 -881l210 879q3 13 14.5 22t24.5 9z" />
<glyph unicode="x" horiz-adv-x="1418" d="M709 811l290 354q22 25 49 25h247q28 0 38 -22.5t-7 -43.5l-426 -517l447 -541q18 -20 7.5 -43t-38.5 -23h-247q-27 0 -49 25l-311 378l-311 -378q-22 -25 -49 -25h-247q-28 0 -38.5 23t7.5 43l447 541l-426 517q-17 21 -7 43.5t38 22.5h247q27 0 49 -25z" />
<glyph unicode="y" horiz-adv-x="1448" d="M844 0h-240q-16 0 -28 12t-12 28v425l-490 661q-16 22 -5.5 43t36.5 21h257q21 0 32 -17l330 -459l330 459q11 17 32 17h257q26 0 36.5 -21t-5.5 -43l-490 -661v-425q0 -16 -12 -28t-28 -12z" />
<glyph unicode="z" horiz-adv-x="1174" d="M52 40v163q0 25 19 46l640 713h-589q-17 0 -28.5 11.5t-11.5 28.5v148q0 16 12 28t28 12h940q17 0 28.5 -11.5t11.5 -28.5v-137q0 -52 -35 -90l-622 -695h637q17 0 28.5 -11.5t11.5 -28.5v-148q0 -16 -12 -28t-28 -12h-990q-16 0 -28 12t-12 28z" />
<glyph unicode="{" horiz-adv-x="922" d="M610 370v-329q0 -42 17.5 -60.5t57.5 -18.5h158q16 0 27.5 -11.5t11.5 -27.5v-144q0 -17 -11 -28t-28 -11h-235q-131 0 -208.5 64t-77.5 187v322q0 78 -41.5 131t-99.5 67q-12 3 -21.5 14t-9.5 24v142q0 13 9.5 24t21.5 14q58 14 99.5 66.5t41.5 130.5v323 q0 123 77.5 187t208.5 64h235q17 0 28 -11t11 -28v-144q0 -16 -11.5 -27.5t-27.5 -11.5h-158q-40 0 -57.5 -18.5t-17.5 -60.5v-329q0 -104 -47 -164.5t-147 -85.5q100 -25 147 -85.5t47 -164.5z" />
<glyph unicode="|" horiz-adv-x="634" d="M196 -361v1860q0 16 11.5 27.5t27.5 11.5h164q16 0 27.5 -11.5t11.5 -27.5v-1860q0 -16 -11.5 -27.5t-27.5 -11.5h-164q-16 0 -27.5 11.5t-11.5 27.5z" />
<glyph unicode="}" horiz-adv-x="920" d="M310 41v329q0 104 47 164.5t147 85.5q-100 25 -147 85.5t-47 164.5v329q0 42 -17.5 60.5t-57.5 18.5h-158q-16 0 -27.5 11.5t-11.5 27.5v144q0 17 11 28t28 11h235q131 0 208.5 -64t77.5 -187v-323q0 -78 41.5 -130.5t99.5 -66.5q12 -3 21.5 -14t9.5 -24v-142 q0 -13 -9.5 -24t-21.5 -14q-58 -14 -99.5 -67t-41.5 -131v-322q0 -123 -77.5 -187t-208.5 -64h-235q-17 0 -28 11t-11 28v144q0 16 11.5 27.5t27.5 11.5h158q40 0 57.5 18.5t17.5 60.5z" />
<glyph unicode="~" horiz-adv-x="1320" d="M662 536q-116 68 -194 68q-33 0 -58 -22t-33 -70q-2 -14 -14 -25t-26 -11h-186q-18 0 -29.5 14t-9.5 32q11 165 95.5 249.5t214.5 84.5q126 0 236 -64q116 -68 194 -68q33 0 58 22t33 70q2 14 14 25t26 11h186q18 0 29.5 -14t9.5 -32q-11 -165 -95.5 -249.5t-214.5 -84.5 q-126 0 -236 64z" />
<glyph unicode="&#xa1;" horiz-adv-x="712" d="M483 -234h-255q-16 0 -27 11t-11 27v325l53 612q1 14 13 24.5t26 10.5h148q15 0 26 -10.5t13 -25.5l53 -612v-324q0 -16 -11.5 -27t-27.5 -11zM172 1034q0 156 184 156t184 -156t-184 -156t-184 156z" />
<glyph unicode="&#xa2;" horiz-adv-x="1256" d="M1176 25q-132 -44 -330 -49v-140q0 -17 -11.5 -28.5t-28.5 -11.5h-62q-17 0 -28.5 11.5t-11.5 28.5v144q-303 25 -470.5 187t-167.5 427q0 263 168 427t470 189v144q0 17 11.5 28.5t28.5 11.5h62q17 0 28.5 -11.5t11.5 -28.5v-140q179 -5 312 -48q30 -11 27 -42l-14 -148 q-1 -21 -17.5 -30.5t-36.5 -2.5q-113 39 -263 39h-8v-774h14q146 0 267 44q19 7 35.5 -3t18.5 -31l14 -154q4 -31 -19 -39zM390 594q0 -153 80 -247.5t234 -124.5v746q-155 -31 -234.5 -127t-79.5 -247z" />
<glyph unicode="&#xa3;" horiz-adv-x="1368" d="M450 248h829q16 0 27.5 -11.5t11.5 -27.5v-170q0 -16 -11.5 -27.5t-27.5 -11.5h-1180q-16 0 -27.5 11.5t-11.5 27.5v170q0 22 19 33q157 96 157 240v164h-137q-16 0 -27.5 11.5t-11.5 27.5v58q0 16 11.5 27.5t27.5 11.5h137v216q0 426 554 426q228 0 392 -63 q13 -5 23 -16.5t9 -25.5l-13 -167q-1 -21 -17.5 -30.5t-36.5 -1.5q-114 52 -301 52q-153 0 -217.5 -43t-64.5 -141v-206h409q16 0 27.5 -11.5t11.5 -27.5v-58q0 -16 -11.5 -27.5t-27.5 -11.5h-409v-134q0 -171 -114 -264z" />
<glyph unicode="&#xa4;" horiz-adv-x="1460" d="M488 664q0 -111 67 -184.5t175 -73.5t175 73.5t67 184.5t-67 184.5t-175 73.5t-175 -73.5t-67 -184.5zM1242 664q0 -139 -68 -252l113 -113q11 -10 11 -26.5t-11 -27.5l-121 -127q-11 -12 -27.5 -12.5t-27.5 11.5l-116 118q-131 -67 -265 -67t-265 67l-116 -118 q-11 -12 -27.5 -11.5t-27.5 12.5l-121 127q-11 11 -11 27t11 27l113 113q-68 113 -68 252t68 252l-113 113q-11 11 -11 27t11 27l121 127q11 12 27.5 12.5t27.5 -11.5l116 -118q131 67 265 67t265 -67l116 118q11 12 27.5 11.5t27.5 -12.5l121 -127q11 -11 11 -27t-11 -27 l-113 -113q68 -113 68 -252z" />
<glyph unicode="&#xa5;" horiz-adv-x="1524" d="M887 0h-250q-16 0 -27.5 11.5t-11.5 27.5v251h-407q-16 0 -27.5 11.5t-11.5 27.5v58q0 16 11.5 27.5t27.5 11.5h407v122h-407q-16 0 -27.5 11.5t-11.5 27.5v58q0 16 11.5 27.5t27.5 11.5h314l-435 656q-14 21 -3.5 40.5t35.5 19.5h253q40 0 59 -31l348 -554l348 554 q19 31 59 31h253q25 0 35.5 -19.5t-3.5 -40.5l-435 -656h314q16 0 27.5 -11.5t11.5 -27.5v-58q0 -16 -11.5 -27.5t-27.5 -11.5h-407v-122h407q16 0 27.5 -11.5t11.5 -27.5v-58q0 -16 -11.5 -27.5t-27.5 -11.5h-407v-251q0 -16 -11.5 -27.5t-27.5 -11.5z" />
<glyph unicode="&#xa6;" horiz-adv-x="634" d="M235 1382h164q16 0 27.5 -11.5t11.5 -27.5v-587q0 -16 -11.5 -27t-27.5 -11h-164q-16 0 -27.5 11t-11.5 27v587q0 16 11.5 27.5t27.5 11.5zM235 456h164q16 0 27.5 -11.5t11.5 -27.5v-587q0 -16 -11.5 -27t-27.5 -11h-164q-16 0 -27.5 11t-11.5 27v587q0 16 11.5 27.5 t27.5 11.5z" />
<glyph unicode="&#xa7;" horiz-adv-x="1238" d="M620 484q89 15 139.5 55t50.5 95q0 47 -49.5 84.5t-136.5 53.5q-89 -15 -139.5 -55t-50.5 -97q0 -47 49 -83.5t137 -52.5zM210 87q158 -75 346 -75q121 0 175.5 28t54.5 84q0 49 -56 84.5t-198 67.5q-189 43 -291.5 125.5t-102.5 202.5q0 93 56.5 163t149.5 101 q-101 34 -155.5 100.5t-54.5 153.5q0 139 124.5 220.5t373.5 81.5q211 0 378 -61q36 -13 32 -43l-16 -130q-2 -21 -17 -30.5t-35 -1.5q-130 52 -310 52q-210 0 -210 -98q0 -42 64 -75.5t206 -70.5q187 -51 282.5 -132t95.5 -200q0 -90 -50.5 -156.5t-145.5 -101.5 q94 -29 146 -97.5t52 -154.5q0 -152 -126.5 -238t-387.5 -86q-222 0 -405 68q-17 6 -28.5 21t-10.5 32l12 134q2 21 17.5 31t34.5 1z" />
<glyph unicode="&#xa8;" horiz-adv-x="1008" d="M108 1290q0 136 146 136t146 -136t-146 -136t-146 136zM608 1290q0 136 146 136t146 -136t-146 -136t-146 136z" />
<glyph unicode="&#xa9;" horiz-adv-x="1660" d="M106 700q0 197 97 363.5t263.5 263.5t363.5 97t363.5 -97t263.5 -263.5t97 -363.5t-97 -363.5t-263.5 -263.5t-363.5 -97t-363.5 97t-263.5 263.5t-97 363.5zM218 700q0 -169 82 -312t223 -225.5t307 -82.5t307 82.5t223 225.5t82 312t-82 312t-223 225.5t-307 82.5 t-307 -82.5t-223 -225.5t-82 -312zM902 436q-114 0 -179 68.5t-65 191.5q0 121 64.5 189.5t175.5 68.5q87 0 163 -35q19 -9 36 0t19 30l9 100q1 11 -6.5 22.5t-18.5 16.5q-110 42 -236 42q-199 0 -324.5 -118.5t-125.5 -315.5q0 -199 126.5 -316.5t329.5 -117.5 q130 0 230 38q11 5 18.5 16.5t6.5 22.5l-9 100q-2 21 -19 30t-36 0q-72 -33 -159 -33z" />
<glyph unicode="&#xaa;" horiz-adv-x="1052" d="M694 772h-336l-26 -78q-10 -31 -25.5 -43.5t-41.5 -12.5h-162q-24 0 -31.5 18t1.5 38l247 668q14 38 58 38h296q44 0 58 -38l247 -668q9 -20 1.5 -38t-31.5 -18h-162q-26 0 -41.5 12.5t-25.5 43.5zM416 944h220l-110 326z" />
<glyph unicode="&#xab;" horiz-adv-x="1090" d="M130 577v90q0 26 20 44l358 332q11 10 26 13.5t27.5 -6.5t12.5 -34v-152q0 -24 -21 -43l-221 -199l221 -199q21 -20 21 -43v-152q0 -24 -12.5 -34t-27.5 -6.5t-26 13.5l-358 332q-20 18 -20 44zM536 577v90q0 26 20 44l358 332q11 10 26 13.5t27.5 -6.5t12.5 -34v-152 q0 -24 -21 -43l-221 -199l221 -199q21 -20 21 -43v-152q0 -24 -12.5 -34t-27.5 -6.5t-26 13.5l-358 332q-20 18 -20 44z" />
<glyph unicode="&#xac;" horiz-adv-x="1320" d="M100 719v148q0 16 11.5 27.5t27.5 11.5h1022q16 0 27.5 -11.5t11.5 -27.5v-517q0 -16 -11.5 -27t-27.5 -11h-198q-16 0 -27.5 11t-11.5 27v330h-785q-16 0 -27.5 11.5t-11.5 27.5z" />
<glyph unicode="&#xad;" horiz-adv-x="858" d="M710 540h-561q-16 0 -27.5 11.5t-11.5 27.5v168q0 16 11.5 27.5t27.5 11.5h561q16 0 27 -11.5t11 -27.5v-168q0 -16 -11 -27.5t-27 -11.5z" />
<glyph unicode="&#xae;" horiz-adv-x="1660" d="M558 1118h270q157 0 248.5 -67t91.5 -193q0 -80 -42 -140.5t-122 -93.5l183 -284q14 -20 3 -40t-36 -20h-132q-8 0 -18.5 6t-14.5 13l-181 293h-84v-273q0 -16 -11.5 -27.5t-27.5 -11.5h-127q-16 0 -27 11.5t-11 27.5v760q0 16 11 27.5t27 11.5zM960 858q0 106 -138 106 h-98v-208h98q138 0 138 102zM106 700q0 197 97 363.5t263.5 263.5t363.5 97t363.5 -97t263.5 -263.5t97 -363.5t-97 -363.5t-263.5 -263.5t-363.5 -97t-363.5 97t-263.5 263.5t-97 363.5zM218 700q0 -169 82 -312t223 -225.5t307 -82.5t307 82.5t223 225.5t82 312t-82 312 t-223 225.5t-307 82.5t-307 -82.5t-223 -225.5t-82 -312z" />
<glyph unicode="&#xaf;" horiz-adv-x="1008" d="M154 1229v121q0 16 11.5 27t27.5 11h622q16 0 27.5 -11t11.5 -27v-121q0 -16 -11.5 -27.5t-27.5 -11.5h-622q-16 0 -27.5 11.5t-11.5 27.5z" />
<glyph unicode="&#xb0;" horiz-adv-x="1008" d="M822 1118q0 -129 -91.5 -217.5t-226.5 -88.5t-226.5 88.5t-91.5 217.5t91.5 217.5t226.5 88.5t226.5 -88.5t91.5 -217.5zM382 1118q0 -56 34.5 -91t87.5 -35t87.5 35t34.5 91t-34.5 91t-87.5 35t-87.5 -35t-34.5 -91z" />
<glyph unicode="&#xb1;" horiz-adv-x="1320" d="M522 350v332h-373q-16 0 -27.5 11t-11.5 27v150q0 16 11.5 27t27.5 11h373v323q0 16 11.5 27.5t27.5 11.5h198q16 0 27.5 -11.5t11.5 -27.5v-323h373q16 0 27.5 -11t11.5 -27v-150q0 -16 -11.5 -27t-27.5 -11h-373v-332q0 -16 -11.5 -27t-27.5 -11h-198q-16 0 -27.5 11 t-11.5 27zM1171 38h-1022q-17 0 -28 11t-11 28v148q0 16 11.5 27.5t27.5 11.5h1022q16 0 27.5 -11.5t11.5 -27.5v-148q0 -16 -11.5 -27.5t-27.5 -11.5z" />
<glyph unicode="&#xb2;" horiz-adv-x="940" d="M434 654h347q16 0 27.5 -11.5t11.5 -27.5v-106q0 -16 -11.5 -27.5t-27.5 -11.5h-658q-16 0 -27.5 11.5t-11.5 27.5v109q0 20 20 33q194 133 314 245q79 72 113.5 122t34.5 102q0 56 -44.5 80t-135.5 24q-112 0 -209 -35q-19 -7 -33 3.5t-16 31.5l-8 102q-1 14 6.5 26.5 t19.5 16.5q130 47 284 47q188 0 286 -73t98 -209q0 -89 -39 -163t-133 -159q-92 -82 -208 -158z" />
<glyph unicode="&#xb3;" horiz-adv-x="940" d="M156 680q99 -38 226 -38q200 0 200 96q0 63 -81 92.5t-253 31.5q-26 1 -26 39v104q0 38 31 39q165 5 240 31t75 77q0 38 -42.5 56t-135.5 18q-124 0 -221 -32q-18 -6 -31 4t-15 30l-12 106q-4 31 21 39q129 43 296 43q184 0 286 -64.5t102 -187.5q0 -70 -41.5 -125 t-120.5 -83q82 -25 129 -83t47 -135q0 -137 -111 -210.5t-313 -73.5q-159 0 -285 37q-12 4 -20.5 15.5t-7.5 24.5l10 117q1 19 17.5 29t35.5 3z" />
<glyph unicode="&#xb4;" horiz-adv-x="1008" d="M463 1120h-143q-26 0 -36.5 22.5t6.5 42.5l220 254q20 21 48 21h237q28 0 34 -27t-16 -45l-297 -250q-22 -18 -53 -18z" />
<glyph unicode="&#xb5;" horiz-adv-x="1784" d="M985 364h-186q-20 0 -33 17l-326 447v-788q0 -17 -11.5 -28.5t-28.5 -11.5h-230q-16 0 -28 12t-12 28v1110q0 16 12 28t28 12h318q7 0 18 -5.5t15 -11.5l371 -523l371 523q4 6 15 11.5t18 5.5h318q16 0 28 -12t12 -28v-1110q0 -16 -12 -28t-28 -12h-230q-17 0 -28.5 11.5 t-11.5 28.5v788l-326 -447q-13 -17 -33 -17z" />
<glyph unicode="&#xb6;" horiz-adv-x="1210" d="M514 1400h487q25 0 42 -14t17 -40v-1569q0 -16 -11.5 -27.5t-27.5 -11.5h-150q-16 0 -27.5 11.5t-11.5 27.5v1417h-76v-1417q0 -16 -11.5 -27.5t-27.5 -11.5h-154q-16 0 -27.5 11.5t-11.5 27.5v755h-10q-201 0 -327.5 115.5t-126.5 318.5t126.5 318.5t327.5 115.5z" />
<glyph unicode="&#xb7;" horiz-adv-x="696" d="M174 664q0 162 174 162t174 -162t-174 -162t-174 162z" />
<glyph unicode="&#xb8;" horiz-adv-x="1008" d="M406 -476q-52 0 -106 7q-15 2 -24.5 12t-9.5 23v76q0 38 38 35q43 -5 86 -5q130 0 130 58q0 68 -173 78q-24 1 -33.5 20.5t3.5 39.5l74 114q10 18 34 18h156q25 0 33 -14t-6 -35l-44 -67q77 -11 126.5 -55.5t49.5 -108.5q0 -98 -80.5 -147t-253.5 -49z" />
<glyph unicode="&#xb9;" horiz-adv-x="940" d="M408 1142l-156 -95q-13 -8 -29 -4.5t-24 16.5l-68 103q-9 14 -5 29.5t18 23.5l267 169q29 18 65 18h137q16 0 27.5 -11.5t11.5 -27.5v-854q0 -16 -11.5 -27.5t-27.5 -11.5h-166q-16 0 -27.5 11.5t-11.5 27.5v633z" />
<glyph unicode="&#xba;" horiz-adv-x="1052" d="M980 1020q0 -179 -126.5 -287.5t-327.5 -108.5t-327.5 108.5t-126.5 287.5t126.5 287.5t327.5 108.5t327.5 -108.5t126.5 -287.5zM324 1020q0 -106 55 -163t147 -57t147 57t55 163t-55 163t-147 57t-147 -57t-55 -163z" />
<glyph unicode="&#xbb;" horiz-adv-x="1090" d="M960 667v-90q0 -26 -20 -44l-358 -332q-11 -10 -26 -13.5t-27.5 6.5t-12.5 34v152q0 24 21 43l221 199l-221 199q-21 20 -21 43v152q0 24 12.5 34t27.5 6.5t26 -13.5l358 -332q20 -18 20 -44zM554 667v-90q0 -26 -20 -44l-358 -332q-11 -10 -26 -13.5t-27.5 6.5t-12.5 34 v152q0 24 21 43l221 199l-221 199q-21 19 -21 43v152q0 24 12.5 34t27.5 6.5t26 -13.5l358 -332q20 -18 20 -44z" />
<glyph unicode="&#xbc;" horiz-adv-x="2300" d="M1322 217v103q0 42 27 73l448 517q18 20 46 20h172q17 0 28 -11t11 -28v-523h85q16 0 27.5 -11.5t11.5 -27.5v-112q0 -16 -11.5 -27.5t-27.5 -11.5h-85v-139q0 -17 -11 -28t-28 -11h-163q-16 0 -27 11.5t-11 27.5v139h-454q-16 0 -27 11.5t-11 27.5zM1814 662l-251 -294 h251v294zM1673 1370l-885 -1366q-23 -34 -64 -34h-93q-25 0 -35.5 19.5t3.5 40.5l885 1366q23 34 64 34h93q25 0 35.5 -19.5t-3.5 -40.5zM408 1142l-156 -95q-13 -8 -29 -4.5t-24 16.5l-68 103q-9 14 -5 29.5t18 23.5l267 169q29 18 65 18h137q16 0 27.5 -11.5t11.5 -27.5 v-854q0 -16 -11.5 -27.5t-27.5 -11.5h-166q-16 0 -27.5 11.5t-11.5 27.5v633z" />
<glyph unicode="&#xbd;" horiz-adv-x="2300" d="M1748 184h347q16 0 27.5 -11.5t11.5 -27.5v-106q0 -16 -11.5 -27.5t-27.5 -11.5h-658q-16 0 -27.5 11.5t-11.5 27.5v109q0 20 20 33q194 133 314 245q79 72 113.5 122t34.5 102q0 56 -44.5 80t-135.5 24q-112 0 -209 -35q-19 -7 -33 3.5t-16 31.5l-8 102q-1 14 6.5 26.5 t19.5 16.5q130 47 284 47q188 0 286 -73t98 -209q0 -89 -39 -163t-133 -159q-92 -82 -208 -158zM1579 1370l-885 -1366q-23 -34 -64 -34h-93q-25 0 -35.5 19.5t3.5 40.5l885 1366q23 34 64 34h93q25 0 35.5 -19.5t-3.5 -40.5zM408 1142l-156 -95q-13 -8 -29 -4.5t-24 16.5 l-68 103q-9 14 -5 29.5t18 23.5l267 169q29 18 65 18h137q16 0 27.5 -11.5t11.5 -27.5v-854q0 -16 -11.5 -27.5t-27.5 -11.5h-166q-16 0 -27.5 11.5t-11.5 27.5v633z" />
<glyph unicode="&#xbe;" horiz-adv-x="2300" d="M1699 1370l-885 -1366q-23 -34 -64 -34h-93q-25 0 -35.5 19.5t3.5 40.5l885 1366q23 34 64 34h93q25 0 35.5 -19.5t-3.5 -40.5zM156 680q99 -38 226 -38q200 0 200 96q0 63 -81 92.5t-253 31.5q-26 1 -26 39v104q0 38 31 39q165 5 240 31t75 77q0 38 -42.5 56t-135.5 18 q-124 0 -221 -32q-18 -6 -31 4t-15 30l-12 106q-4 31 21 39q129 43 296 43q184 0 286 -64.5t102 -187.5q0 -70 -41.5 -125t-120.5 -83q82 -25 129 -83t47 -135q0 -137 -111 -210.5t-313 -73.5q-159 0 -285 37q-12 4 -20.5 15.5t-7.5 24.5l10 117q1 19 17.5 29t35.5 3z M1322 217v103q0 42 27 73l448 517q18 20 46 20h172q17 0 28 -11t11 -28v-523h85q16 0 27.5 -11.5t11.5 -27.5v-112q0 -16 -11.5 -27.5t-27.5 -11.5h-85v-139q0 -17 -11 -28t-28 -11h-163q-16 0 -27 11.5t-11 27.5v139h-454q-16 0 -27 11.5t-11 27.5zM1814 662l-251 -294h251 v294z" />
<glyph unicode="&#xbf;" horiz-adv-x="1248" d="M896 1034q0 -156 -184 -156t-184 156t184 156t184 -156zM870 742v-28q0 -136 -52.5 -230t-171.5 -160q-107 -60 -145.5 -105t-38.5 -105q0 -120 288 -120q184 0 338 62q20 8 36 -2t17 -31l15 -169q1 -10 -6 -21t-17 -16q-167 -75 -419 -75q-292 0 -438 93t-146 269 q0 223 276 384q78 46 113 101.5t35 132.5v20q0 16 11.5 27t27.5 11h238q16 0 27.5 -11t11.5 -27z" />
<glyph unicode="&#xc0;" horiz-adv-x="1612" d="M485 310h642l111 -285q4 -10 15 -17.5t21 -7.5h273q22 0 32 16.5t1 38.5l-559 1320q-11 25 -39 25h-352q-28 0 -39 -25l-559 -1320q-9 -22 1 -38.5t32 -16.5h273q10 0 21 7.5t15 17.5zM1032 558h-452l226 580zM908 1508h-143q-31 0 -53 18l-297 250q-22 18 -16 45t34 27 h237q28 0 48 -21l220 -254q17 -20 6.5 -42.5t-36.5 -22.5z" />
<glyph unicode="&#xc1;" horiz-adv-x="1612" d="M1127 310h-642l-111 -285q-4 -10 -15 -17.5t-21 -7.5h-273q-22 0 -32 16.5t-1 38.5l559 1320q11 25 39 25h352q28 0 39 -25l559 -1320q9 -22 -1 -38.5t-32 -16.5h-273q-10 0 -21 7.5t-15 17.5zM580 558h452l-226 580zM847 1508h-143q-26 0 -36.5 22.5t6.5 42.5l220 254 q20 21 48 21h237q28 0 34 -27t-16 -45l-297 -250q-22 -18 -53 -18z" />
<glyph unicode="&#xc2;" horiz-adv-x="1612" d="M1127 310h-642l-111 -285q-4 -10 -15 -17.5t-21 -7.5h-273q-22 0 -32 16.5t-1 38.5l559 1320q11 25 39 25h352q28 0 39 -25l559 -1320q9 -22 -1 -38.5t-32 -16.5h-273q-10 0 -21 7.5t-15 17.5zM580 558h452l-226 580zM695 1848h222q30 0 45 -19l222 -262 q17 -20 8.5 -39.5t-34.5 -19.5h-162q-24 0 -40 18l-150 152l-150 -152q-16 -18 -40 -18h-162q-26 0 -34.5 19.5t8.5 39.5l222 262q15 19 45 19z" />
<glyph unicode="&#xc3;" horiz-adv-x="1612" d="M485 310h642l111 -285q4 -10 15 -17.5t21 -7.5h273q22 0 32 16.5t1 38.5l-559 1320q-11 25 -39 25h-352q-28 0 -39 -25l-559 -1320q-9 -22 1 -38.5t32 -16.5h273q10 0 21 7.5t15 17.5zM1032 558h-452l226 580zM813 1574q-73 42 -120 42q-31 0 -47 -10.5t-21 -40.5 q-2 -13 -13 -22t-25 -9h-124q-18 0 -29 9.5t-10 26.5q7 130 65 193t152 63q83 0 162 -44q73 -42 120 -42q31 0 47 10.5t21 40.5q2 13 13 22t25 9h124q18 0 29 -9.5t10 -26.5q-7 -130 -65 -193t-152 -63q-83 0 -162 44z" />
<glyph unicode="&#xc4;" horiz-adv-x="1612" d="M485 310h642l111 -285q4 -10 15 -17.5t21 -7.5h273q22 0 32 16.5t1 38.5l-559 1320q-11 25 -39 25h-352q-28 0 -39 -25l-559 -1320q-9 -22 1 -38.5t32 -16.5h273q10 0 21 7.5t15 17.5zM1032 558h-452l226 580zM410 1678q0 136 146 136t146 -136t-146 -136t-146 136z M910 1678q0 136 146 136t146 -136t-146 -136t-146 136z" />
<glyph unicode="&#xc5;" horiz-adv-x="1612" d="M485 310h642l111 -285q4 -10 15 -17.5t21 -7.5h273q22 0 32 16.5t1 38.5l-559 1320q-11 25 -39 25h-352q-28 0 -39 -25l-559 -1320q-9 -22 1 -38.5t32 -16.5h273q10 0 21 7.5t15 17.5zM1032 558h-452l226 580zM1058 1678q0 -102 -72 -172t-180 -70t-180 70t-72 172 t72 172t180 70t180 -70t72 -172zM722 1678q0 -38 24.5 -62t59.5 -24t59.5 24t24.5 62t-24.5 62t-59.5 24t-59.5 -24t-24.5 -62z" />
<glyph unicode="&#xc6;" horiz-adv-x="2112" d="M1992 0h-917q-16 0 -27.5 12t-11.5 28v270h-480l-149 -266q-24 -44 -73 -44h-256q-25 0 -36.5 19t0.5 40l762 1321q4 8 14.5 14t19.5 6h1136q16 0 28 -12t12 -28v-169q0 -16 -12 -27.5t-28 -11.5h-610v-310h553q16 0 27.5 -11.5t11.5 -28.5v-168q0 -17 -11.5 -28.5 t-27.5 -11.5h-553v-346h628q16 0 28 -11.5t12 -27.5v-169q0 -16 -12 -28t-28 -12zM1036 1166l-342 -608h342v608z" />
<glyph unicode="&#xc7;" horiz-adv-x="1448" d="M1333 27q-137 -43 -328 -50l-59 -93q77 -11 126.5 -55.5t49.5 -108.5q0 -98 -80.5 -147t-253.5 -49q-52 0 -106 7q-15 2 -24.5 12t-9.5 23v76q0 38 38 35q43 -5 86 -5q130 0 130 58q0 68 -173 78q-24 1 -33.5 20.5t3.5 39.5l74 118q-331 39 -512 226t-181 488 q0 334 227.5 529t630.5 195q224 0 384 -51q18 -6 30.5 -20t11.5 -32l-15 -163q-2 -22 -19.5 -30.5t-37.5 -2.5q-146 47 -316 47q-273 0 -418.5 -125t-145.5 -347q0 -228 149 -350t423 -122q171 0 318 52q20 7 37.5 -2t19.5 -31l16 -168q1 -18 -11.5 -32t-30.5 -20z" />
<glyph unicode="&#xc8;" horiz-adv-x="1340" d="M150 40v1320q0 16 11.5 28t27.5 12h1015q16 0 28 -12t12 -28v-169q0 -16 -12 -27.5t-28 -11.5h-726v-310h676q16 0 28 -12t12 -28v-168q0 -16 -12 -28t-28 -12h-676v-346h742q16 0 28 -11.5t12 -27.5v-169q0 -16 -12 -28t-28 -12h-1031q-16 0 -27.5 12t-11.5 28z M834 1508h-143q-31 0 -53 18l-297 250q-22 18 -16 45t34 27h237q28 0 48 -21l220 -254q17 -20 6.5 -42.5t-36.5 -22.5z" />
<glyph unicode="&#xc9;" horiz-adv-x="1340" d="M150 40v1320q0 16 11.5 28t27.5 12h1015q16 0 28 -12t12 -28v-169q0 -16 -12 -27.5t-28 -11.5h-726v-310h676q16 0 28 -12t12 -28v-168q0 -16 -12 -28t-28 -12h-676v-346h742q16 0 28 -11.5t12 -27.5v-169q0 -16 -12 -28t-28 -12h-1031q-16 0 -27.5 12t-11.5 28z M685 1508h-143q-26 0 -36.5 22.5t6.5 42.5l220 254q20 21 48 21h237q28 0 34 -27t-16 -45l-297 -250q-22 -18 -53 -18z" />
<glyph unicode="&#xca;" horiz-adv-x="1340" d="M150 40v1320q0 16 11.5 28t27.5 12h1015q16 0 28 -12t12 -28v-169q0 -16 -12 -27.5t-28 -11.5h-726v-310h676q16 0 28 -12t12 -28v-168q0 -16 -12 -28t-28 -12h-676v-346h742q16 0 28 -11.5t12 -27.5v-169q0 -16 -12 -28t-28 -12h-1031q-16 0 -27.5 12t-11.5 28z M587 1848h222q30 0 45 -19l222 -262q17 -20 8.5 -39.5t-34.5 -19.5h-162q-24 0 -40 18l-150 152l-150 -152q-16 -18 -40 -18h-162q-26 0 -34.5 19.5t8.5 39.5l222 262q15 19 45 19z" />
<glyph unicode="&#xcb;" horiz-adv-x="1340" d="M150 40v1320q0 16 11.5 28t27.5 12h1015q16 0 28 -12t12 -28v-169q0 -16 -12 -27.5t-28 -11.5h-726v-310h676q16 0 28 -12t12 -28v-168q0 -16 -12 -28t-28 -12h-676v-346h742q16 0 28 -11.5t12 -27.5v-169q0 -16 -12 -28t-28 -12h-1031q-16 0 -27.5 12t-11.5 28z M302 1678q0 136 146 136t146 -136t-146 -136t-146 136zM802 1678q0 136 146 136t146 -136t-146 -136t-146 136z" />
<glyph unicode="&#xcc;" horiz-adv-x="648" d="M200 1400h248q16 0 28 -12t12 -28v-1320q0 -16 -12 -28t-28 -12h-248q-16 0 -28 12t-12 28v1320q0 16 12 28t28 12zM406 1508h-143q-31 0 -53 18l-297 250q-22 18 -16 45t34 27h237q28 0 48 -21l220 -254q17 -20 6.5 -42.5t-36.5 -22.5z" />
<glyph unicode="&#xcd;" horiz-adv-x="648" d="M200 1400h248q16 0 28 -12t12 -28v-1320q0 -16 -12 -28t-28 -12h-248q-16 0 -28 12t-12 28v1320q0 16 12 28t28 12zM385 1508h-143q-26 0 -36.5 22.5t6.5 42.5l220 254q20 21 48 21h237q28 0 34 -27t-16 -45l-297 -250q-22 -18 -53 -18z" />
<glyph unicode="&#xce;" horiz-adv-x="648" d="M200 1400h248q16 0 28 -12t12 -28v-1320q0 -16 -12 -28t-28 -12h-248q-16 0 -28 12t-12 28v1320q0 16 12 28t28 12zM213 1848h222q30 0 45 -19l222 -262q17 -20 8.5 -39.5t-34.5 -19.5h-162q-24 0 -40 18l-150 152l-150 -152q-16 -18 -40 -18h-162q-26 0 -34.5 19.5 t8.5 39.5l222 262q15 19 45 19z" />
<glyph unicode="&#xcf;" horiz-adv-x="648" d="M200 1400h248q16 0 28 -12t12 -28v-1320q0 -16 -12 -28t-28 -12h-248q-16 0 -28 12t-12 28v1320q0 16 12 28t28 12zM-72 1678q0 136 146 136t146 -136t-146 -136t-146 136zM428 1678q0 136 146 136t146 -136t-146 -136t-146 136z" />
<glyph unicode="&#xd0;" horiz-adv-x="1618" d="M666 0h-467q-16 0 -27.5 12t-11.5 28v580h-99q-16 0 -27.5 11.5t-11.5 27.5v83q0 16 11.5 28t27.5 12h99v578q0 16 11.5 28t27.5 12h467q196 0 355.5 -44.5t275 -131t178.5 -220t63 -304.5q0 -172 -63 -305.5t-178.5 -219.5t-275 -130.5t-355.5 -44.5zM1206 700 q0 237 -140 344.5t-426 107.5h-152v-370h310q16 0 28 -12t12 -28v-83q0 -16 -12 -27.5t-28 -11.5h-310v-372h152q287 0 426.5 107t139.5 345z" />
<glyph unicode="&#xd1;" horiz-adv-x="1680" d="M1099 47l-631 961v-968q0 -16 -12 -28t-28 -12h-238q-16 0 -28 12t-12 28v1320q0 16 12 28t28 12h300q61 0 91 -47l631 -961v968q0 16 12 28t28 12h238q16 0 28 -12t12 -28v-1320q0 -16 -12 -28t-28 -12h-300q-61 0 -91 47zM847 1574q-73 42 -120 42q-31 0 -47 -10.5 t-21 -40.5q-2 -13 -13 -22t-25 -9h-124q-18 0 -29 9.5t-10 26.5q7 130 65 193t152 63q83 0 162 -44q73 -42 120 -42q31 0 47 10.5t21 40.5q2 13 13 22t25 9h124q18 0 29 -9.5t10 -26.5q-7 -130 -65 -193t-152 -63q-83 0 -162 44z" />
<glyph unicode="&#xd2;" horiz-adv-x="1704" d="M1624 700q0 -154 -51.5 -286t-147.5 -229.5t-243 -153t-330 -55.5t-330 55.5t-243 153t-147.5 229.5t-51.5 286t51.5 286t147.5 229.5t243 153t330 55.5t330 -55.5t243 -153t147.5 -229.5t51.5 -286zM412 700q0 -226 115 -349t325 -123t325 123t115 349t-115 349 t-325 123t-325 -123t-115 -349zM1004 1508h-143q-31 0 -53 18l-297 250q-22 18 -16 45t34 27h237q28 0 48 -21l220 -254q17 -20 6.5 -42.5t-36.5 -22.5z" />
<glyph unicode="&#xd3;" horiz-adv-x="1704" d="M1624 700q0 -154 -51.5 -286t-147.5 -229.5t-243 -153t-330 -55.5t-330 55.5t-243 153t-147.5 229.5t-51.5 286t51.5 286t147.5 229.5t243 153t330 55.5t330 -55.5t243 -153t147.5 -229.5t51.5 -286zM412 700q0 -226 115 -349t325 -123t325 123t115 349t-115 349 t-325 123t-325 -123t-115 -349zM843 1508h-143q-26 0 -36.5 22.5t6.5 42.5l220 254q20 21 48 21h237q28 0 34 -27t-16 -45l-297 -250q-22 -18 -53 -18z" />
<glyph unicode="&#xd4;" horiz-adv-x="1704" d="M1624 700q0 -154 -51.5 -286t-147.5 -229.5t-243 -153t-330 -55.5t-330 55.5t-243 153t-147.5 229.5t-51.5 286t51.5 286t147.5 229.5t243 153t330 55.5t330 -55.5t243 -153t147.5 -229.5t51.5 -286zM412 700q0 -226 115 -349t325 -123t325 123t115 349t-115 349 t-325 123t-325 -123t-115 -349zM741 1848h222q30 0 45 -19l222 -262q17 -20 8.5 -39.5t-34.5 -19.5h-162q-24 0 -40 18l-150 152l-150 -152q-16 -18 -40 -18h-162q-26 0 -34.5 19.5t8.5 39.5l222 262q15 19 45 19z" />
<glyph unicode="&#xd5;" horiz-adv-x="1704" d="M1624 700q0 -154 -51.5 -286t-147.5 -229.5t-243 -153t-330 -55.5t-330 55.5t-243 153t-147.5 229.5t-51.5 286t51.5 286t147.5 229.5t243 153t330 55.5t330 -55.5t243 -153t147.5 -229.5t51.5 -286zM412 700q0 -226 115 -349t325 -123t325 123t115 349t-115 349 t-325 123t-325 -123t-115 -349zM859 1574q-73 42 -120 42q-31 0 -47 -10.5t-21 -40.5q-2 -13 -13 -22t-25 -9h-124q-18 0 -29 9.5t-10 26.5q7 130 65 193t152 63q83 0 162 -44q73 -42 120 -42q31 0 47 10.5t21 40.5q2 13 13 22t25 9h124q18 0 29 -9.5t10 -26.5 q-7 -130 -65 -193t-152 -63q-83 0 -162 44z" />
<glyph unicode="&#xd6;" horiz-adv-x="1704" d="M1624 700q0 -154 -51.5 -286t-147.5 -229.5t-243 -153t-330 -55.5t-330 55.5t-243 153t-147.5 229.5t-51.5 286t51.5 286t147.5 229.5t243 153t330 55.5t330 -55.5t243 -153t147.5 -229.5t51.5 -286zM412 700q0 -226 115 -349t325 -123t325 123t115 349t-115 349 t-325 123t-325 -123t-115 -349zM456 1678q0 136 146 136t146 -136t-146 -136t-146 136zM956 1678q0 136 146 136t146 -136t-146 -136t-146 136z" />
<glyph unicode="&#xd7;" horiz-adv-x="1320" d="M660 830l316 283q11 10 27.5 9.5t26.5 -10.5l121 -121q12 -12 11.5 -29t-13.5 -28l-303 -270l302 -269q13 -11 13.5 -28t-11.5 -29l-121 -121q-10 -10 -26.5 -10.5t-27.5 9.5l-315 281l-315 -281q-11 -10 -27.5 -9.5t-26.5 10.5l-121 121q-12 12 -11.5 29t13.5 28 l301 269l-302 270q-13 11 -13.5 28t11.5 29l121 121q10 10 26.5 10.5t27.5 -9.5z" />
<glyph unicode="&#xd8;" horiz-adv-x="1704" d="M1624 700q0 -154 -51.5 -286t-147.5 -229.5t-243 -153t-330 -55.5q-192 0 -350 63l-148 -216q-15 -23 -47 -23h-121q-20 0 -26.5 13.5t5.5 30.5l189 277q-133 97 -203.5 247t-70.5 332q0 154 51.5 286t147.5 229.5t243 153t330 55.5q193 0 351 -64l148 217q15 23 47 23 h121q20 0 26.5 -13.5t-5.5 -30.5l-190 -277q133 -98 203.5 -247.5t70.5 -331.5zM412 700q0 -217 106 -340l531 776q-85 36 -197 36q-210 0 -325 -123t-115 -349zM1292 700q0 216 -106 339l-531 -776q87 -35 197 -35q210 0 325 123t115 349z" />
<glyph unicode="&#xd9;" horiz-adv-x="1692" d="M846 -24q156 0 283 36.5t219.5 107.5t143 183.5t50.5 258.5v798q0 16 -12 28t-28 12h-249q-16 0 -27.5 -12t-11.5 -28v-785q0 -173 -88.5 -260t-279.5 -87t-279.5 87t-88.5 260v785q0 16 -11.5 28t-27.5 12h-249q-16 0 -28 -12t-12 -28v-798q0 -146 50.5 -258.5 t143 -183.5t219.5 -107.5t283 -36.5zM930 1508h-143q-31 0 -53 18l-297 250q-22 18 -16 45t34 27h237q28 0 48 -21l220 -254q17 -20 6.5 -42.5t-36.5 -22.5z" />
<glyph unicode="&#xda;" horiz-adv-x="1692" d="M846 -24q-156 0 -283 36.5t-219.5 107.5t-143 183.5t-50.5 258.5v798q0 16 12 28t28 12h249q16 0 27.5 -12t11.5 -28v-785q0 -173 88.5 -260t279.5 -87t279.5 87t88.5 260v785q0 16 11.5 28t27.5 12h249q16 0 28 -12t12 -28v-798q0 -146 -50.5 -258.5t-143 -183.5 t-219.5 -107.5t-283 -36.5zM905 1508h-143q-26 0 -36.5 22.5t6.5 42.5l220 254q20 21 48 21h237q28 0 34 -27t-16 -45l-297 -250q-22 -18 -53 -18z" />
<glyph unicode="&#xdb;" horiz-adv-x="1692" d="M846 -24q-156 0 -283 36.5t-219.5 107.5t-143 183.5t-50.5 258.5v798q0 16 12 28t28 12h249q16 0 27.5 -12t11.5 -28v-785q0 -173 88.5 -260t279.5 -87t279.5 87t88.5 260v785q0 16 11.5 28t27.5 12h249q16 0 28 -12t12 -28v-798q0 -146 -50.5 -258.5t-143 -183.5 t-219.5 -107.5t-283 -36.5zM735 1848h222q30 0 45 -19l222 -262q17 -20 8.5 -39.5t-34.5 -19.5h-162q-24 0 -40 18l-150 152l-150 -152q-16 -18 -40 -18h-162q-26 0 -34.5 19.5t8.5 39.5l222 262q15 19 45 19z" />
<glyph unicode="&#xdc;" horiz-adv-x="1692" d="M846 -24q156 0 283 36.5t219.5 107.5t143 183.5t50.5 258.5v798q0 16 -12 28t-28 12h-249q-16 0 -27.5 -12t-11.5 -28v-785q0 -173 -88.5 -260t-279.5 -87t-279.5 87t-88.5 260v785q0 16 -11.5 28t-27.5 12h-249q-16 0 -28 -12t-12 -28v-798q0 -146 50.5 -258.5 t143 -183.5t219.5 -107.5t283 -36.5zM450 1678q0 136 146 136t146 -136t-146 -136t-146 136zM950 1678q0 136 146 136t146 -136t-146 -136t-146 136z" />
<glyph unicode="&#xdd;" horiz-adv-x="1664" d="M957 0h-250q-16 0 -27.5 11.5t-11.5 28.5v510l-587 787q-16 21 -5 42t37 21h237q55 0 86 -42l396 -544l396 544q31 42 86 42h237q26 0 37 -21t-5 -42l-587 -787v-510q0 -17 -11.5 -28.5t-27.5 -11.5zM877 1508h-143q-26 0 -36.5 22.5t6.5 42.5l220 254q20 21 48 21h237 q28 0 34 -27t-16 -45l-297 -250q-22 -18 -53 -18z" />
<glyph unicode="&#xde;" horiz-adv-x="1420" d="M478 496h212q174 0 256 48t82 164t-82 164t-256 48h-212v-424zM722 244h-244v-204q0 -16 -12 -28t-28 -12h-248q-16 0 -28 12t-12 28v1320q0 16 12 28t28 12h248q16 0 28 -12t12 -28v-188h244q301 0 469.5 -120t168.5 -344t-168.5 -344t-469.5 -120z" />
<glyph unicode="&#xdf;" horiz-adv-x="1430" d="M730 1172q-133 0 -192.5 -60t-59.5 -189v-884q0 -16 -11.5 -27.5t-27.5 -11.5h-251q-16 0 -27 11.5t-11 27.5v854q0 266 146 398.5t444 132.5q252 0 404 -107t152 -271q0 -234 -242 -318q145 -34 225.5 -126.5t80.5 -221.5q0 -197 -132.5 -300.5t-391.5 -103.5 q-133 0 -251 34q-12 4 -20 16t-6 25l16 176q1 20 18 29t36 3q90 -31 177 -31q222 0 222 164q0 89 -81.5 143.5t-237.5 61.5q-15 1 -26 12.5t-11 26.5v173q0 15 11 26t26 12q255 12 255 183q0 66 -63 104t-171 38z" />
<glyph unicode="&#xe0;" horiz-adv-x="1404" d="M436 252h532l84 -226q4 -10 15 -18t22 -8h249q23 0 34.5 17t2.5 38l-458 1110q-5 10 -16 17.5t-21 7.5h-356q-10 0 -21 -7.5t-16 -17.5l-458 -1110q-9 -21 2.5 -38t34.5 -17h249q11 0 22 8t15 18zM884 480h-364l182 483zM804 1298h-143q-31 0 -53 18l-297 250 q-22 18 -16 45t34 27h237q28 0 48 -21l220 -254q17 -20 6.5 -42.5t-36.5 -22.5z" />
<glyph unicode="&#xe1;" horiz-adv-x="1404" d="M968 252h-532l-84 -226q-4 -10 -15 -18t-22 -8h-249q-23 0 -34.5 17t-2.5 38l458 1110q5 10 16 17.5t21 7.5h356q10 0 21 -7.5t16 -17.5l458 -1110q9 -21 -2.5 -38t-34.5 -17h-249q-11 0 -22 8t-15 18zM520 480h364l-182 483zM743 1298h-143q-26 0 -36.5 22.5t6.5 42.5 l220 254q20 21 48 21h237q28 0 34 -27t-16 -45l-297 -250q-22 -18 -53 -18z" />
<glyph unicode="&#xe2;" horiz-adv-x="1404" d="M968 252h-532l-84 -226q-4 -10 -15 -18t-22 -8h-249q-23 0 -34.5 17t-2.5 38l458 1110q5 10 16 17.5t21 7.5h356q10 0 21 -7.5t16 -17.5l458 -1110q9 -21 -2.5 -38t-34.5 -17h-249q-11 0 -22 8t-15 18zM520 480h364l-182 483zM591 1638h222q30 0 45 -19l222 -262 q17 -20 8.5 -39.5t-34.5 -19.5h-162q-24 0 -40 18l-150 152l-150 -152q-16 -18 -40 -18h-162q-26 0 -34.5 19.5t8.5 39.5l222 262q15 19 45 19z" />
<glyph unicode="&#xe3;" horiz-adv-x="1404" d="M436 252h532l84 -226q4 -10 15 -18t22 -8h249q23 0 34.5 17t2.5 38l-458 1110q-5 10 -16 17.5t-21 7.5h-356q-10 0 -21 -7.5t-16 -17.5l-458 -1110q-9 -21 2.5 -38t34.5 -17h249q11 0 22 8t15 18zM884 480h-364l182 483zM709 1362q-73 42 -120 42q-31 0 -47 -10.5 t-21 -40.5q-2 -13 -13 -22t-25 -9h-124q-18 0 -29 9.5t-10 26.5q7 130 65 193t152 63q83 0 162 -44q73 -42 120 -42q31 0 47 10.5t21 40.5q2 13 13 22t25 9h124q18 0 29 -9.5t10 -26.5q-7 -130 -65 -193t-152 -63q-83 0 -162 44z" />
<glyph unicode="&#xe4;" horiz-adv-x="1404" d="M436 252h532l84 -226q4 -10 15 -18t22 -8h249q23 0 34.5 17t2.5 38l-458 1110q-5 10 -16 17.5t-21 7.5h-356q-10 0 -21 -7.5t-16 -17.5l-458 -1110q-9 -21 2.5 -38t34.5 -17h249q11 0 22 8t15 18zM884 480h-364l182 483zM307 1468q0 69 35.5 102.5t109.5 33.5 q147 0 147 -136t-147 -136q-75 0 -110 33.5t-35 102.5zM807 1468q0 69 35.5 102.5t109.5 33.5q147 0 147 -136t-147 -136q-75 0 -110 33.5t-35 102.5z" />
<glyph unicode="&#xe5;" horiz-adv-x="1404" d="M436 252h532l84 -226q4 -10 15 -18t22 -8h249q23 0 34.5 17t2.5 38l-458 1110q-5 10 -16 17.5t-21 7.5h-356q-10 0 -21 -7.5t-16 -17.5l-458 -1110q-9 -21 2.5 -38t34.5 -17h249q11 0 22 8t15 18zM884 480h-364l182 483zM954 1468q0 -102 -72 -172t-180 -70t-180 70 t-72 172t72 172t180 70t180 -70t72 -172zM618 1468q0 -38 24.5 -62t59.5 -24t59.5 24t24.5 62t-24.5 62t-59.5 24t-59.5 -24t-24.5 -62z" />
<glyph unicode="&#xe6;" horiz-adv-x="1844" d="M1737 0h-799q-16 0 -28 12t-12 28v212h-396l-126 -231q-4 -8 -15.5 -14.5t-19.5 -6.5h-267q-24 0 -35.5 19t1.5 41l634 1109q5 8 15.5 14.5t18.5 6.5h1012q16 0 28 -12t12 -28v-148q0 -17 -11.5 -28.5t-28.5 -11.5h-502v-242h454q16 0 28 -12t12 -28v-147 q0 -17 -11.5 -29t-28.5 -12h-454v-264h519q17 0 28.5 -11.5t11.5 -28.5v-148q0 -17 -11.5 -28.5t-28.5 -11.5zM626 480h272v495z" />
<glyph unicode="&#xe7;" horiz-adv-x="1256" d="M1176 25q-108 -36 -266 -46l-62 -95q77 -11 125.5 -55t48.5 -109q0 -98 -80.5 -147t-253.5 -49q-52 0 -106 7q-15 2 -24.5 12t-9.5 23v76q0 38 38 35q43 -5 86 -5q130 0 130 58q0 71 -173 78q-24 1 -32.5 20.5t4.5 39.5l73 116q-290 31 -449 191.5t-159 418.5 q0 286 197 453t547 167q202 0 348 -48q30 -11 27 -42l-14 -148q-2 -21 -18 -30.5t-36 -2.5q-113 39 -263 39q-227 0 -345.5 -101.5t-118.5 -286.5q0 -188 121.5 -287t348.5 -99q146 0 267 44q19 7 35.5 -3t18.5 -31l14 -154q4 -31 -19 -39z" />
<glyph unicode="&#xe8;" horiz-adv-x="1174" d="M130 40v1110q0 17 11.5 28.5t28.5 11.5h882q16 0 28 -12t12 -28v-148q0 -17 -11.5 -28.5t-28.5 -11.5h-602v-242h560q16 0 28 -12t12 -28v-147q0 -17 -11.5 -29t-28.5 -12h-560v-264h616q17 0 28.5 -11.5t11.5 -28.5v-148q0 -16 -12 -28t-28 -12h-896q-17 0 -28.5 11.5 t-11.5 28.5zM778 1298h-143q-31 0 -53 18l-297 250q-22 18 -16 45t34 27h237q28 0 48 -21l220 -254q17 -20 6.5 -42.5t-36.5 -22.5z" />
<glyph unicode="&#xe9;" horiz-adv-x="1174" d="M130 40v1110q0 17 11.5 28.5t28.5 11.5h882q16 0 28 -12t12 -28v-148q0 -17 -11.5 -28.5t-28.5 -11.5h-602v-242h560q16 0 28 -12t12 -28v-147q0 -17 -11.5 -29t-28.5 -12h-560v-264h616q17 0 28.5 -11.5t11.5 -28.5v-148q0 -16 -12 -28t-28 -12h-896q-17 0 -28.5 11.5 t-11.5 28.5zM601 1298h-143q-26 0 -36.5 22.5t6.5 42.5l220 254q20 21 48 21h237q28 0 34 -27t-16 -45l-297 -250q-22 -18 -53 -18z" />
<glyph unicode="&#xea;" horiz-adv-x="1174" d="M130 40v1110q0 17 11.5 28.5t28.5 11.5h882q16 0 28 -12t12 -28v-148q0 -17 -11.5 -28.5t-28.5 -11.5h-602v-242h560q16 0 28 -12t12 -28v-147q0 -17 -11.5 -29t-28.5 -12h-560v-264h616q17 0 28.5 -11.5t11.5 -28.5v-148q0 -16 -12 -28t-28 -12h-896q-17 0 -28.5 11.5 t-11.5 28.5zM497 1638h222q30 0 45 -19l222 -262q17 -20 8.5 -39.5t-34.5 -19.5h-162q-24 0 -40 18l-150 152l-150 -152q-16 -18 -40 -18h-162q-26 0 -34.5 19.5t8.5 39.5l222 262q15 19 45 19z" />
<glyph unicode="&#xeb;" horiz-adv-x="1174" d="M130 40v1110q0 17 11.5 28.5t28.5 11.5h882q16 0 28 -12t12 -28v-148q0 -17 -11.5 -28.5t-28.5 -11.5h-602v-242h560q16 0 28 -12t12 -28v-147q0 -17 -11.5 -29t-28.5 -12h-560v-264h616q17 0 28.5 -11.5t11.5 -28.5v-148q0 -16 -12 -28t-28 -12h-896q-17 0 -28.5 11.5 t-11.5 28.5zM213 1468q0 69 35.5 102.5t109.5 33.5q147 0 147 -136t-147 -136q-75 0 -110 33.5t-35 102.5zM713 1468q0 69 35.5 102.5t109.5 33.5q147 0 147 -136t-147 -136q-75 0 -110 33.5t-35 102.5z" />
<glyph unicode="&#xec;" horiz-adv-x="600" d="M180 1190h240q16 0 28 -12t12 -28v-1110q0 -16 -12 -28t-28 -12h-240q-16 0 -28 12t-12 28v1110q0 16 12 28t28 12zM382 1298h-143q-31 0 -53 18l-297 250q-22 18 -16 45t34 27h237q28 0 48 -21l220 -254q17 -20 6.5 -42.5t-36.5 -22.5z" />
<glyph unicode="&#xed;" horiz-adv-x="600" d="M180 1190h240q16 0 28 -12t12 -28v-1110q0 -16 -12 -28t-28 -12h-240q-16 0 -28 12t-12 28v1110q0 16 12 28t28 12zM361 1298h-143q-26 0 -36.5 22.5t6.5 42.5l220 254q20 21 48 21h237q28 0 34 -27t-16 -45l-297 -250q-22 -18 -53 -18z" />
<glyph unicode="&#xee;" horiz-adv-x="600" d="M180 1190h240q16 0 28 -12t12 -28v-1110q0 -16 -12 -28t-28 -12h-240q-16 0 -28 12t-12 28v1110q0 16 12 28t28 12zM189 1638h222q30 0 45 -19l222 -262q17 -20 8.5 -39.5t-34.5 -19.5h-162q-24 0 -40 18l-150 152l-150 -152q-16 -18 -40 -18h-162q-26 0 -34.5 19.5 t8.5 39.5l222 262q15 19 45 19z" />
<glyph unicode="&#xef;" horiz-adv-x="600" d="M-95 1468q0 69 35.5 102.5t109.5 33.5q147 0 147 -136t-147 -136q-75 0 -110 33.5t-35 102.5zM405 1468q0 69 35.5 102.5t109.5 33.5q147 0 147 -136t-147 -136q-75 0 -110 33.5t-35 102.5zM180 1190h240q16 0 28 -12t12 -28v-1110q0 -16 -12 -28t-28 -12h-240 q-16 0 -28 12t-12 28v1110q0 16 12 28t28 12z" />
<glyph unicode="&#xf0;" horiz-adv-x="1398" d="M590 0h-420q-16 0 -28 12t-12 28v478h-78q-17 0 -28.5 11.5t-11.5 28.5v74q0 17 11.5 28.5t28.5 11.5h78v478q0 16 12 28t28 12h420q343 0 542.5 -153t199.5 -443q0 -193 -93 -328t-258.5 -200.5t-390.5 -65.5zM1008 594q0 196 -107.5 282t-330.5 86h-120v-290h235 q17 0 28.5 -11.5t11.5 -28.5v-74q0 -17 -11.5 -28.5t-28.5 -11.5h-235v-290h120q224 0 331 85t107 281z" />
<glyph unicode="&#xf1;" horiz-adv-x="1482" d="M956 25l-516 786v-771q0 -16 -12 -28t-28 -12h-230q-16 0 -28 12t-12 28v1110q0 16 12 28t28 12h313q26 0 43 -25l516 -786v771q0 16 12 28t28 12h230q16 0 28 -12t12 -28v-1110q0 -16 -12 -28t-28 -12h-313q-26 0 -43 25zM747 1362q-73 42 -120 42q-31 0 -47 -10.5 t-21 -40.5q-2 -13 -13 -22t-25 -9h-124q-18 0 -29 9.5t-10 26.5q7 130 65 193t152 63q83 0 162 -44q73 -42 120 -42q31 0 47 10.5t21 40.5q2 13 13 22t25 9h124q18 0 29 -9.5t10 -26.5q-7 -130 -65 -193t-152 -63q-83 0 -162 44z" />
<glyph unicode="&#xf2;" horiz-adv-x="1472" d="M1406 596q0 -132 -44 -244.5t-127 -196.5t-211 -131.5t-288 -47.5t-288 47.5t-211 131.5t-127 196.5t-44 244.5t44 244.5t127 196t211 130.5t288 47t288 -47t211 -130.5t127 -196t44 -244.5zM390 596q0 -188 89 -288t257 -100t257 100t89 288q0 187 -89 286.5t-257 99.5 t-257 -99.5t-89 -286.5zM888 1298h-143q-31 0 -53 18l-297 250q-22 18 -16 45t34 27h237q28 0 48 -21l220 -254q17 -20 6.5 -42.5t-36.5 -22.5z" />
<glyph unicode="&#xf3;" horiz-adv-x="1472" d="M1406 596q0 -132 -44 -244.5t-127 -196.5t-211 -131.5t-288 -47.5t-288 47.5t-211 131.5t-127 196.5t-44 244.5t44 244.5t127 196t211 130.5t288 47t288 -47t211 -130.5t127 -196t44 -244.5zM390 596q0 -188 89 -288t257 -100t257 100t89 288q0 187 -89 286.5t-257 99.5 t-257 -99.5t-89 -286.5zM727 1298h-143q-26 0 -36.5 22.5t6.5 42.5l220 254q20 21 48 21h237q28 0 34 -27t-16 -45l-297 -250q-22 -18 -53 -18z" />
<glyph unicode="&#xf4;" horiz-adv-x="1472" d="M1406 596q0 -132 -44 -244.5t-127 -196.5t-211 -131.5t-288 -47.5t-288 47.5t-211 131.5t-127 196.5t-44 244.5t44 244.5t127 196t211 130.5t288 47t288 -47t211 -130.5t127 -196t44 -244.5zM390 596q0 -188 89 -288t257 -100t257 100t89 288q0 187 -89 286.5t-257 99.5 t-257 -99.5t-89 -286.5zM625 1638h222q30 0 45 -19l222 -262q17 -20 8.5 -39.5t-34.5 -19.5h-162q-24 0 -40 18l-150 152l-150 -152q-16 -18 -40 -18h-162q-26 0 -34.5 19.5t8.5 39.5l222 262q15 19 45 19z" />
<glyph unicode="&#xf5;" horiz-adv-x="1472" d="M1406 596q0 -132 -44 -244.5t-127 -196.5t-211 -131.5t-288 -47.5t-288 47.5t-211 131.5t-127 196.5t-44 244.5t44 244.5t127 196t211 130.5t288 47t288 -47t211 -130.5t127 -196t44 -244.5zM390 596q0 -188 89 -288t257 -100t257 100t89 288q0 187 -89 286.5t-257 99.5 t-257 -99.5t-89 -286.5zM743 1362q-73 42 -120 42q-31 0 -47 -10.5t-21 -40.5q-2 -13 -13 -22t-25 -9h-124q-18 0 -29 9.5t-10 26.5q7 130 65 193t152 63q83 0 162 -44q73 -42 120 -42q31 0 47 10.5t21 40.5q2 13 13 22t25 9h124q18 0 29 -9.5t10 -26.5q-7 -130 -65 -193 t-152 -63q-83 0 -162 44z" />
<glyph unicode="&#xf6;" horiz-adv-x="1472" d="M1406 596q0 -132 -44 -244.5t-127 -196.5t-211 -131.5t-288 -47.5t-288 47.5t-211 131.5t-127 196.5t-44 244.5t44 244.5t127 196t211 130.5t288 47t288 -47t211 -130.5t127 -196t44 -244.5zM390 596q0 -188 89 -288t257 -100t257 100t89 288q0 187 -89 286.5t-257 99.5 t-257 -99.5t-89 -286.5zM341 1468q0 69 35.5 102.5t109.5 33.5q147 0 147 -136t-147 -136q-75 0 -110 33.5t-35 102.5zM841 1468q0 69 35.5 102.5t109.5 33.5q147 0 147 -136t-147 -136q-75 0 -110 33.5t-35 102.5z" />
<glyph unicode="&#xf7;" horiz-adv-x="1320" d="M660 88q-160 0 -160 160q0 162 160 162t160 -162q0 -160 -160 -160zM660 916q-160 0 -160 160q0 162 160 162t160 -162q0 -160 -160 -160zM1171 550h-1022q-16 0 -27.5 11.5t-11.5 27.5v148q0 17 11 28t28 11h1022q16 0 27.5 -11.5t11.5 -27.5v-148q0 -16 -11.5 -27.5 t-27.5 -11.5z" />
<glyph unicode="&#xf8;" horiz-adv-x="1472" d="M1406 596q0 -132 -44 -244.5t-127 -196.5t-211 -131.5t-288 -47.5q-165 0 -301 52l-153 -221q-19 -27 -49 -27h-77q-26 0 -36.5 20t4.5 42l178 258q-115 83 -175.5 211.5t-60.5 284.5q0 132 44 244.5t127 196t211 130.5t288 47q164 0 300 -52l153 221q19 27 49 27h77 q26 0 36.5 -20t-4.5 -42l-178 -257q116 -83 176.5 -211t60.5 -284zM736 208q168 0 257 100t89 288q0 167 -72 265l-431 -624q69 -29 157 -29zM390 596q0 -169 71 -266l431 623q-69 29 -156 29q-168 0 -257 -99.5t-89 -286.5z" />
<glyph unicode="&#xf9;" horiz-adv-x="1480" d="M740 -24q-184 0 -319.5 54t-213 168.5t-77.5 279.5v672q0 16 12 28t28 12h240q16 0 28 -12t12 -28v-662q0 -140 70 -210t220 -70t220 70t70 210v662q0 16 12 28t28 12h240q16 0 28 -12t12 -28v-672q0 -165 -77.5 -279.5t-213 -168.5t-319.5 -54zM834 1298h-143 q-31 0 -53 18l-297 250q-22 18 -16 45t34 27h237q28 0 48 -21l220 -254q17 -20 6.5 -42.5t-36.5 -22.5z" />
<glyph unicode="&#xfa;" horiz-adv-x="1480" d="M740 -24q-184 0 -319.5 54t-213 168.5t-77.5 279.5v672q0 16 12 28t28 12h240q16 0 28 -12t12 -28v-662q0 -140 70 -210t220 -70t220 70t70 210v662q0 16 12 28t28 12h240q16 0 28 -12t12 -28v-672q0 -165 -77.5 -279.5t-213 -168.5t-319.5 -54zM789 1298h-143 q-26 0 -36.5 22.5t6.5 42.5l220 254q20 21 48 21h237q28 0 34 -27t-16 -45l-297 -250q-22 -18 -53 -18z" />
<glyph unicode="&#xfb;" horiz-adv-x="1480" d="M740 -24q-184 0 -319.5 54t-213 168.5t-77.5 279.5v672q0 16 12 28t28 12h240q16 0 28 -12t12 -28v-662q0 -140 70 -210t220 -70t220 70t70 210v662q0 16 12 28t28 12h240q16 0 28 -12t12 -28v-672q0 -165 -77.5 -279.5t-213 -168.5t-319.5 -54zM629 1638h222 q30 0 45 -19l222 -262q17 -20 8.5 -39.5t-34.5 -19.5h-162q-24 0 -40 18l-150 152l-150 -152q-16 -18 -40 -18h-162q-26 0 -34.5 19.5t8.5 39.5l222 262q15 19 45 19z" />
<glyph unicode="&#xfc;" horiz-adv-x="1480" d="M740 -24q-184 0 -319.5 54t-213 168.5t-77.5 279.5v672q0 16 12 28t28 12h240q16 0 28 -12t12 -28v-662q0 -140 70 -210t220 -70t220 70t70 210v662q0 16 12 28t28 12h240q16 0 28 -12t12 -28v-672q0 -165 -77.5 -279.5t-213 -168.5t-319.5 -54zM345 1468 q0 69 35.5 102.5t109.5 33.5q147 0 147 -136t-147 -136q-75 0 -110 33.5t-35 102.5zM845 1468q0 69 35.5 102.5t109.5 33.5q147 0 147 -136t-147 -136q-75 0 -110 33.5t-35 102.5z" />
<glyph unicode="&#xfd;" horiz-adv-x="1448" d="M844 0h-240q-16 0 -28 12t-12 28v425l-490 661q-16 22 -5.5 43t36.5 21h257q21 0 32 -17l330 -459l330 459q11 17 32 17h257q26 0 36.5 -21t-5.5 -43l-490 -661v-425q0 -16 -12 -28t-28 -12zM743 1298h-143q-26 0 -36.5 22.5t6.5 42.5l220 254q20 21 48 21h237 q28 0 34 -27t-16 -45l-297 -250q-22 -18 -53 -18z" />
<glyph unicode="&#xfe;" horiz-adv-x="1246" d="M450 432h154q137 0 202.5 38.5t65.5 131.5t-65 130.5t-203 37.5h-154v-338zM638 204h-188v-164q0 -16 -12 -28t-28 -12h-240q-16 0 -28 12t-12 28v1110q0 16 12 28t28 12h240q16 0 28 -12t12 -28v-152h188q264 0 411 -101t147 -295t-147.5 -296t-410.5 -102z" />
<glyph unicode="&#xff;" horiz-adv-x="1448" d="M844 0h-240q-16 0 -28 12t-12 28v425l-490 661q-16 22 -5.5 43t36.5 21h257q21 0 32 -17l330 -459l330 459q11 17 32 17h257q26 0 36.5 -21t-5.5 -43l-490 -661v-425q0 -16 -12 -28t-28 -12zM329 1468q0 69 35.5 102.5t109.5 33.5q147 0 147 -136t-147 -136 q-75 0 -110 33.5t-35 102.5zM829 1468q0 69 35.5 102.5t109.5 33.5q147 0 147 -136t-147 -136q-75 0 -110 33.5t-35 102.5z" />
<glyph unicode="&#x152;" horiz-adv-x="2060" d="M1940 0h-955q-445 0 -675 185t-230 515q0 329 230 514.5t675 185.5h937q16 0 28 -12t12 -28v-169q0 -16 -12 -27.5t-28 -11.5h-612v-310h555q16 0 27.5 -11.5t11.5 -28.5v-168q0 -17 -11.5 -28.5t-27.5 -11.5h-555v-346h630q16 0 28 -11.5t12 -27.5v-169q0 -16 -12 -28 t-28 -12zM412 700q0 -452 543 -452h29v904h-29q-543 0 -543 -452z" />
<glyph unicode="&#x153;" horiz-adv-x="1806" d="M1698 0h-840q-392 0 -592 156t-200 438t200.5 439t591.5 157h824q16 0 28 -12t12 -28v-148q0 -17 -11.5 -28.5t-28.5 -11.5h-502v-242h454q16 0 28 -12t12 -28v-147q0 -17 -11.5 -29t-28.5 -12h-454v-264h518q17 0 28.5 -11.5t11.5 -28.5v-148q0 -16 -12 -28t-28 -12z M390 594q0 -177 110.5 -271.5t333.5 -94.5h26v734h-26q-223 0 -333.5 -94.5t-110.5 -273.5z" />
<glyph unicode="&#x178;" horiz-adv-x="1664" d="M957 0h-250q-16 0 -27.5 11.5t-11.5 28.5v510l-587 787q-16 21 -5 42t37 21h237q55 0 86 -42l396 -544l396 544q31 42 86 42h237q26 0 37 -21t-5 -42l-587 -787v-510q0 -17 -11.5 -28.5t-27.5 -11.5zM436 1678q0 136 146 136t146 -136t-146 -136t-146 136zM936 1678 q0 136 146 136t146 -136t-146 -136t-146 136z" />
<glyph unicode="&#x2c6;" horiz-adv-x="1008" d="M393 1460h222q30 0 45 -19l222 -262q17 -20 8.5 -39.5t-34.5 -19.5h-162q-24 0 -40 18l-150 152l-150 -152q-16 -18 -40 -18h-162q-26 0 -34.5 19.5t8.5 39.5l222 262q15 19 45 19z" />
<glyph unicode="&#x2dc;" horiz-adv-x="1008" d="M509 1186q-73 42 -120 42q-31 0 -47 -10.5t-21 -40.5q-2 -13 -13 -22t-25 -9h-124q-18 0 -29 9.5t-10 26.5q7 130 65 193t152 63q83 0 162 -44q73 -42 120 -42q31 0 47 10.5t21 40.5q2 13 13 22t25 9h124q18 0 29 -9.5t10 -26.5q-7 -130 -65 -193t-152 -63q-83 0 -162 44 z" />
<glyph unicode="&#x2000;" horiz-adv-x="960" />
<glyph unicode="&#x2001;" horiz-adv-x="1920" />
<glyph unicode="&#x2002;" horiz-adv-x="960" />
<glyph unicode="&#x2003;" horiz-adv-x="1920" />
<glyph unicode="&#x2004;" horiz-adv-x="640" />
<glyph unicode="&#x2005;" horiz-adv-x="480" />
<glyph unicode="&#x2006;" horiz-adv-x="320" />
<glyph unicode="&#x2007;" horiz-adv-x="320" />
<glyph unicode="&#x2008;" horiz-adv-x="240" />
<glyph unicode="&#x2009;" horiz-adv-x="384" />
<glyph unicode="&#x200a;" horiz-adv-x="106" />
<glyph unicode="&#x2010;" horiz-adv-x="858" d="M710 540h-561q-16 0 -27.5 11.5t-11.5 27.5v168q0 16 11.5 27.5t27.5 11.5h561q16 0 27 -11.5t11 -27.5v-168q0 -16 -11 -27.5t-27 -11.5z" />
<glyph unicode="&#x2011;" horiz-adv-x="858" d="M710 540h-561q-16 0 -27.5 11.5t-11.5 27.5v168q0 16 11.5 27.5t27.5 11.5h561q16 0 27 -11.5t11 -27.5v-168q0 -16 -11 -27.5t-27 -11.5z" />
<glyph unicode="&#x2012;" horiz-adv-x="858" d="M710 540h-561q-16 0 -27.5 11.5t-11.5 27.5v168q0 16 11.5 27.5t27.5 11.5h561q16 0 27 -11.5t11 -27.5v-168q0 -16 -11 -27.5t-27 -11.5z" />
<glyph unicode="&#x2013;" horiz-adv-x="1000" d="M961 550h-922q-16 0 -27.5 11.5t-11.5 27.5v148q0 17 11 28t28 11h922q16 0 27.5 -11.5t11.5 -27.5v-148q0 -16 -11.5 -27.5t-27.5 -11.5z" />
<glyph unicode="&#x2014;" horiz-adv-x="2000" d="M1961 550h-1922q-16 0 -27.5 11.5t-11.5 27.5v148q0 17 11 28t28 11h1922q16 0 27.5 -11.5t11.5 -27.5v-148q0 -16 -11.5 -27.5t-27.5 -11.5z" />
<glyph unicode="&#x2018;" horiz-adv-x="696" d="M427 1530q27 15 47 -13l31 -47q8 -13 6.5 -29t-13.5 -24q-89 -62 -108 -159q132 -18 132 -158q0 -162 -174 -162t-174 170q0 142 66.5 251t186.5 171z" />
<glyph unicode="&#x2019;" horiz-adv-x="696" d="M269 952q-27 -15 -47 13l-31 47q-8 13 -6.5 29t13.5 24q89 62 108 159q-132 18 -132 158q0 162 174 162t174 -170q0 -142 -66.5 -251t-186.5 -171z" />
<glyph unicode="&#x201a;" horiz-adv-x="696" d="M269 -292q-27 -15 -47 13l-31 47q-8 13 -6.5 29t13.5 24q89 62 108 159q-132 18 -132 158q0 162 174 162t174 -170q0 -142 -66.5 -251t-186.5 -171z" />
<glyph unicode="&#x201c;" horiz-adv-x="1164" d="M895 1530q27 15 47 -13l31 -47q8 -13 6.5 -29t-13.5 -24q-89 -62 -108 -159q132 -18 132 -158q0 -162 -174 -162t-174 170q0 142 66.5 251t186.5 171zM427 1530q27 15 47 -13l31 -47q8 -13 6.5 -29t-13.5 -24q-89 -62 -108 -159q132 -18 132 -158q0 -162 -174 -162 t-174 170q0 142 66.5 251t186.5 171z" />
<glyph unicode="&#x201d;" horiz-adv-x="1164" d="M269 952q-27 -15 -47 13l-31 47q-8 13 -6.5 29t13.5 24q89 62 108 159q-132 18 -132 158q0 162 174 162t174 -170q0 -142 -66.5 -251t-186.5 -171zM737 952q-27 -15 -47 13l-31 47q-8 13 -6.5 29t13.5 24q89 62 108 159q-132 18 -132 158q0 162 174 162t174 -170 q0 -142 -66.5 -251t-186.5 -171z" />
<glyph unicode="&#x201e;" horiz-adv-x="1164" d="M269 -292q-27 -15 -47 13l-31 47q-8 13 -6.5 29t13.5 24q89 62 108 159q-132 18 -132 158q0 162 174 162t174 -170q0 -142 -66.5 -251t-186.5 -171zM737 -292q-27 -15 -47 13l-31 47q-8 13 -6.5 29t13.5 24q89 62 108 159q-132 18 -132 158q0 162 174 162t174 -170 q0 -142 -66.5 -251t-186.5 -171z" />
<glyph unicode="&#x2022;" horiz-adv-x="1000" d="M200 664q0 132 77 204t223 72t223 -72t77 -204t-77 -204t-223 -72t-223 72t-77 204z" />
<glyph unicode="&#x2026;" horiz-adv-x="2088" d="M174 138q0 162 174 162t174 -162t-174 -162t-174 162zM870 138q0 162 174 162t174 -162t-174 -162t-174 162zM1566 138q0 162 174 162t174 -162t-174 -162t-174 162z" />
<glyph unicode="&#x202f;" horiz-adv-x="384" />
<glyph unicode="&#x2039;" horiz-adv-x="684" d="M130 577v90q0 26 20 44l358 332q11 10 26 13.5t27.5 -6.5t12.5 -34v-152q0 -24 -21 -43l-221 -199l221 -199q21 -20 21 -43v-152q0 -24 -12.5 -34t-27.5 -6.5t-26 13.5l-358 332q-20 18 -20 44z" />
<glyph unicode="&#x203a;" horiz-adv-x="684" d="M554 667v-90q0 -26 -20 -44l-358 -332q-11 -10 -26 -13.5t-27.5 6.5t-12.5 34v152q0 24 21 43l221 199l-221 199q-21 19 -21 43v152q0 24 12.5 34t27.5 6.5t26 -13.5l358 -332q20 -18 20 -44z" />
<glyph unicode="&#x205f;" horiz-adv-x="480" />
<glyph unicode="&#x20ac;" horiz-adv-x="1478" d="M1103 504h-579q55 -134 183.5 -205t310.5 -71q181 0 319 53q19 7 34.5 -3.5t17.5 -30.5l17 -174q1 -12 -7 -24t-20 -17q-168 -56 -401 -56q-316 0 -526 139.5t-272 388.5h-101q-16 0 -27.5 11.5t-11.5 27.5v64q0 16 11.5 27.5t27.5 11.5h81q-4 53 0 106h-81 q-16 0 -27.5 11.5t-11.5 27.5v64q0 16 11.5 27.5t27.5 11.5h101q62 247 271 388.5t521 141.5q230 0 396 -56q12 -5 20 -17t7 -24l-16 -170q-2 -20 -17.5 -30.5t-34.5 -3.5q-122 49 -317 49q-180 0 -306 -72.5t-180 -205.5h673q21 0 32 -15.5t6 -34.5l-19 -65 q-3 -10 -14.5 -18.5t-22.5 -8.5h-685q-10 -55 0 -106h627q21 0 32 -15.5t6 -34.5l-19 -65q-3 -10 -14.5 -18.5t-22.5 -8.5z" />
<glyph unicode="&#x2122;" horiz-adv-x="1546" d="M224 777v473h-169q-16 0 -27.5 11.5t-11.5 27.5v73q0 16 11.5 27t27.5 11h524q16 0 27.5 -11t11.5 -27v-73q0 -16 -11.5 -27.5t-27.5 -11.5h-169v-473q0 -16 -11.5 -27.5t-27.5 -11.5h-108q-16 0 -27.5 11.5t-11.5 27.5zM1106 930h-96q-18 0 -32 16l-132 178v-347 q0 -16 -11.5 -27.5t-27.5 -11.5h-108q-16 0 -27.5 11.5t-11.5 27.5v585q0 16 11.5 27t27.5 11h126q19 0 32 -15l201 -273l201 273q13 15 32 15h126q16 0 27.5 -11t11.5 -27v-585q0 -16 -11.5 -27.5t-27.5 -11.5h-108q-16 0 -27.5 11.5t-11.5 27.5v347l-132 -178 q-14 -16 -32 -16z" />
<glyph unicode="&#x25fc;" horiz-adv-x="1190" d="M0 1190h1190v-1190h-1190v1190z" />
<glyph unicode="&#xfb02;" horiz-adv-x="2320" d="M130 40v1110q0 17 12 28.5t29 11.5h881q16 0 28 -12t12 -28v-148q0 -17 -11.5 -28.5t-28.5 -11.5h-602v-242h560q16 0 28 -12t12 -28v-147q0 -17 -11.5 -29t-28.5 -12h-560v-452q0 -17 -11.5 -28.5t-28.5 -11.5h-239q-17 0 -29 11.5t-12 28.5zM1280 40v1110q0 17 12 28.5 t29 11.5h239q17 0 28.5 -11.5t11.5 -28.5v-922h654q17 0 28.5 -11.5t11.5 -28.5v-148q0 -16 -12 -28t-28 -12h-933q-17 0 -29 11.5t-12 28.5z" />
<glyph unicode="&#xfb04;" horiz-adv-x="3470" d="M1280 40v1110q0 17 12 28.5t29 11.5h881q16 0 28 -12t12 -28v-148q0 -17 -11.5 -28.5t-28.5 -11.5h-602v-242h560q16 0 28 -12t12 -28v-147q0 -17 -11.5 -29t-28.5 -12h-560v-452q0 -17 -11.5 -28.5t-28.5 -11.5h-239q-17 0 -29 11.5t-12 28.5zM2430 40v1110 q0 17 12 28.5t29 11.5h239q17 0 28.5 -11.5t11.5 -28.5v-922h654q17 0 28.5 -11.5t11.5 -28.5v-148q0 -16 -12 -28t-28 -12h-933q-17 0 -29 11.5t-12 28.5zM130 40v1110q0 17 12 28.5t29 11.5h881q16 0 28 -12t12 -28v-148q0 -17 -11.5 -28.5t-28.5 -11.5h-602v-242h560 q16 0 28 -12t12 -28v-147q0 -17 -11.5 -29t-28.5 -12h-560v-452q0 -17 -11.5 -28.5t-28.5 -11.5h-239q-17 0 -29 11.5t-12 28.5z" />
</font>
</defs>
</svg>
