<?xml version="1.0" standalone="no"?>
<!DOCTYPE svg PUBLIC "-//W3C//DTD SVG 1.1//EN" "http://www.w3.org/Graphics/SVG/1.1/DTD/svg11.dtd" >
<svg xmlns="http://www.w3.org/2000/svg">
<metadata></metadata>
<defs>
<font id="core_sans_nr_27_cn_extraltRg" horiz-adv-x="1060" >
<font-face units-per-em="2000" ascent="1600" descent="-400" />
<missing-glyph horiz-adv-x="450" />
<glyph unicode="&#xfb01;" horiz-adv-x="856" d="M501 1382q-32 8 -63 8q-56 0 -88.5 -18.5t-52 -76t-19.5 -161.5v-98h214q8 0 14 -5.5t6 -13.5v-32q0 -8 -6 -13.5t-14 -5.5h-214v-947q0 -8 -6 -13.5t-14 -5.5h-43q-7 0 -13 6t-6 13v947h-152q-8 0 -14 5.5t-6 13.5v32q0 8 6 13.5t14 5.5h152v106q0 168 57 243t177 75 q50 0 86 -11q17 -5 15 -23l-3 -30q-1 -20 -27 -14zM636 1360q0 58 12 79t42 21t42 -21t12 -79t-12 -79t-42 -21t-42 21t-12 79zM650 19v998q0 8 6 13.5t14 5.5h43q8 0 13.5 -5.5t5.5 -13.5v-998q0 -8 -5.5 -13.5t-13.5 -5.5h-43q-8 0 -14 5.5t-6 13.5z" />
<glyph unicode="&#xfb02;" horiz-adv-x="856" d="M501 1382q-32 8 -63 8q-56 0 -88.5 -18.5t-52 -76t-19.5 -161.5v-98h214q8 0 14 -5.5t6 -13.5v-32q0 -8 -6 -13.5t-14 -5.5h-214v-947q0 -8 -6 -13.5t-14 -5.5h-43q-7 0 -13 6t-6 13v947h-152q-8 0 -14 5.5t-6 13.5v32q0 8 6 13.5t14 5.5h152v106q0 168 57 243t177 75 q50 0 86 -11q17 -5 15 -23l-3 -30q-1 -20 -27 -14zM650 19v1422q0 8 6 13.5t14 5.5h43q8 0 13.5 -5.5t5.5 -13.5v-1422q0 -8 -5.5 -13.5t-13.5 -5.5h-43q-8 0 -14 5.5t-6 13.5z" />
<glyph unicode="&#xfb03;" horiz-adv-x="1310" d="M1090 1360q0 58 12 79t42 21t42 -21t12 -79t-12 -79t-42 -21t-42 21t-12 79zM1104 19v998q0 8 6 13.5t14 5.5h43q8 0 13.5 -5.5t5.5 -13.5v-998q0 -8 -5.5 -13.5t-13.5 -5.5h-43q-8 0 -14 5.5t-6 13.5zM545 1379q-36 11 -85 11q-98 0 -140 -54t-42 -202v-98h372v106 q0 168 57 243t177 75q50 0 86 -11q17 -5 15 -23l-3 -30q-1 -20 -27 -14q-32 8 -63 8q-56 0 -88.5 -18.5t-52 -76t-19.5 -161.5v-98h214q8 0 14 -5.5t6 -13.5v-32q0 -8 -6 -13.5t-14 -5.5h-214v-947q0 -8 -6 -13.5t-14 -5.5h-43q-7 0 -13 6t-6 13v947h-372v-947 q0 -8 -6 -13.5t-14 -5.5h-43q-7 0 -13 6t-6 13v947h-152q-8 0 -14 5.5t-6 13.5v32q0 8 6 13.5t14 5.5h152v106q0 165 61 241.5t195 76.5q61 0 108 -15q16 -4 15 -22l-3 -30q-2 -22 -27 -14z" />
<glyph unicode="&#xfb04;" horiz-adv-x="1310" d="M1104 19v1422q0 8 6 13.5t14 5.5h43q8 0 13.5 -5.5t5.5 -13.5v-1422q0 -8 -5.5 -13.5t-13.5 -5.5h-43q-8 0 -14 5.5t-6 13.5zM545 1379q-36 11 -85 11q-98 0 -140 -54t-42 -202v-98h372v106q0 168 57 243t177 75q50 0 86 -11q17 -5 15 -23l-3 -30q-1 -20 -27 -14 q-32 8 -63 8q-56 0 -88.5 -18.5t-52 -76t-19.5 -161.5v-98h214q8 0 14 -5.5t6 -13.5v-32q0 -8 -6 -13.5t-14 -5.5h-214v-947q0 -8 -6 -13.5t-14 -5.5h-43q-7 0 -13 6t-6 13v947h-372v-947q0 -8 -6 -13.5t-14 -5.5h-43q-7 0 -13 6t-6 13v947h-152q-8 0 -14 5.5t-6 13.5v32 q0 8 6 13.5t14 5.5h152v106q0 165 61 241.5t195 76.5q61 0 108 -15q16 -4 15 -22l-3 -30q-2 -22 -27 -14z" />
<glyph horiz-adv-x="666" />
<glyph horiz-adv-x="0" />
<glyph horiz-adv-x="0" />
<glyph unicode="&#xd;" horiz-adv-x="268" />
<glyph unicode=" "  horiz-adv-x="450" />
<glyph unicode="&#x09;" horiz-adv-x="450" />
<glyph unicode="&#xa0;" horiz-adv-x="450" />
<glyph unicode="!" horiz-adv-x="416" d="M222 338h-28q-8 0 -14 5.5t-6 13.5l-12 628v396q0 8 5.5 13.5t13.5 5.5h54q8 0 13.5 -5.5t5.5 -13.5v-396l-12 -628q0 -8 -6 -13.5t-14 -5.5zM154 72q0 56 12.5 77t41.5 21t41.5 -21t12.5 -77t-12.5 -77t-41.5 -21t-41.5 21t-12.5 77z" />
<glyph unicode="&#x22;" horiz-adv-x="642" d="M174 869l-4 512q0 8 5.5 13.5t13.5 5.5h48q8 0 13.5 -5.5t5.5 -13.5v-105l-10 -408q0 -7 -5.5 -12.5t-13.5 -5.5h-34q-8 0 -13.5 5.5t-5.5 13.5zM390 869l-4 512q0 8 5.5 13.5t13.5 5.5h48q8 0 13.5 -5.5t5.5 -13.5v-105l-10 -408q0 -7 -5.5 -12.5t-13.5 -5.5h-34 q-8 0 -13.5 5.5t-5.5 13.5z" />
<glyph unicode="#" horiz-adv-x="972" d="M297 952h-159q-8 0 -14 6t-6 14v35q0 8 6 13.5t14 5.5h168l47 353q3 21 23 21h38q22 0 19 -22l-47 -352h284l47 353q3 21 23 21h38q22 0 19 -22l-47 -352h148q8 0 14 -5.5t6 -13.5v-35q0 -8 -6 -14t-14 -6h-157l-66 -498h159q8 0 14 -5.5t6 -13.5v-35q0 -8 -6 -14t-14 -6 h-168l-47 -359q-3 -21 -23 -21h-38q-22 0 -19 22l47 358h-284l-47 -359q-3 -21 -23 -21h-38q-22 0 -19 22l47 358h-148q-8 0 -14 6t-6 14v35q0 8 6 13.5t14 5.5h157zM377 952l-66 -498h284l66 498h-284z" />
<glyph unicode="$" horiz-adv-x="808" d="M442 1581v-157q120 -2 211 -41q15 -7 14 -23l-3 -41q-1 -10 -8.5 -13t-18.5 2q-83 42 -195 42v-597q153 -72 221.5 -167.5t68.5 -239.5q0 -153 -76 -248t-214 -116v-159q0 -8 -5.5 -13.5t-13.5 -5.5h-30q-19 0 -19 19v153h-12q-140 0 -255 53q-15 7 -14 23l3 44 q1 10 8.5 13t18.5 -2q106 -57 239 -57h12v647q-153 66 -221.5 158.5t-68.5 232.5q0 137 77 225t213 106v162q0 19 19 19h30q8 0 13.5 -5.5t5.5 -13.5zM648 346q0 110 -49 186t-157 133v-607q100 22 153 97t53 191zM168 1088q0 -103 48.5 -175t157.5 -128v558 q-99 -18 -152.5 -85.5t-53.5 -169.5z" />
<glyph unicode="%" horiz-adv-x="1310" d="M1166 344q0 -172 -60 -266t-168 -94t-168 94t-60 266t60 266t168 94t168 -94t60 -266zM1086 344q0 290 -148 290t-148 -290t148 -290t148 290zM600 1054q0 -172 -60 -266t-168 -94t-168 94t-60 266t60 266t168 94t168 -94t60 -266zM520 1054q0 290 -148 290t-148 -290 t148 -290t148 290zM282 24l674 1360q9 16 25 16h31q28 0 16 -24l-674 -1360q-9 -16 -25 -16h-31q-28 0 -16 24z" />
<glyph unicode="&#x26;" horiz-adv-x="956" d="M388 46q197 0 294 214l-328 432q-118 -85 -162 -172.5t-44 -189.5q0 -127 66.5 -205.5t173.5 -78.5zM372 796q114 80 158 157t44 169q0 109 -45 168.5t-125 59.5q-77 0 -124.5 -58.5t-47.5 -163.5q0 -79 27.5 -148.5t112.5 -183.5zM870 15l-132 173q-117 -214 -352 -214 q-140 0 -231 95.5t-91 262.5q0 124 57 226t187 194q-91 119 -125.5 204.5t-34.5 171.5q0 141 72 218.5t186 77.5q113 0 182.5 -79t69.5 -225q0 -213 -240 -384l298 -390q46 155 50 369q0 8 6 13.5t14 5.5h44q8 0 14 -6.5t6 -14.5q-9 -278 -74 -445l183 -240q8 -11 3 -19.5 t-18 -8.5h-42q-21 0 -32 15z" />
<glyph unicode="'" horiz-adv-x="436" d="M178 869l-4 512q0 8 5.5 13.5t13.5 5.5h48q8 0 13.5 -5.5t5.5 -13.5v-105l-10 -408q0 -7 -5.5 -12.5t-13.5 -5.5h-34q-8 0 -13.5 5.5t-5.5 13.5z" />
<glyph unicode="(" horiz-adv-x="556" d="M184 620q0 229 65.5 453.5t181.5 412.5q9 14 24 14h28q26 0 12 -24q-112 -190 -171.5 -409.5t-59.5 -446.5t59.5 -446.5t171.5 -409.5q14 -24 -12 -24h-28q-15 0 -24 14q-116 188 -181.5 412.5t-65.5 453.5z" />
<glyph unicode=")" horiz-adv-x="556" d="M365 620q0 -229 -65.5 -453.5t-181.5 -412.5q-9 -14 -24 -14h-28q-26 0 -12 24q112 190 171.5 409.5t59.5 446.5t-59.5 446.5t-171.5 409.5q-14 24 12 24h28q15 0 24 -14q116 -188 181.5 -412.5t65.5 -453.5z" />
<glyph unicode="*" horiz-adv-x="980" d="M813 427l-292 175l6 -339q0 -8 -6 -13.5t-14 -5.5h-44q-7 0 -13 6t-6 13l5 340l-291 -175q-17 -9 -27 8l-22 38q-4 6 -2 14t9 12l296 165l-296 163q-17 10 -6 28l21 38q4 6 12 8.5t14 -1.5l292 -175l-6 339q0 8 6 13.5t14 5.5h44q7 0 13 -6t6 -13l-5 -341l291 176 q17 9 27 -8l22 -38q4 -6 2 -14t-9 -12l-297 -165l297 -163q7 -4 8.5 -12t-2.5 -16l-21 -38q-4 -6 -12 -8.5t-14 1.5z" />
<glyph unicode="+" d="M488 205v421h-385q-8 0 -13.5 5.5t-5.5 13.5v38q0 7 6 13t13 6h385v421q0 8 5.5 13.5t13.5 5.5h46q8 0 13.5 -5.5t5.5 -13.5v-421h384q8 0 14 -5.5t6 -13.5v-38q0 -8 -6 -13.5t-14 -5.5h-384v-421q0 -19 -19 -19h-46q-19 0 -19 19z" />
<glyph unicode="," horiz-adv-x="436" d="M135 -182q59 72 65 158q-38 13 -38 96q0 56 12.5 77t41.5 21t41.5 -20.5t12.5 -69.5q0 -95 -19.5 -162t-75.5 -135q-12 -15 -24 -1l-15 18q-8 9 -1 18z" />
<glyph unicode="-" horiz-adv-x="712" d="M588 624h-465q-7 0 -13 6t-6 13v42q0 7 6 13t13 6h465q8 0 14 -5.5t6 -13.5v-42q0 -8 -6 -13.5t-14 -5.5z" />
<glyph unicode="." horiz-adv-x="436" d="M164 72q0 56 12.5 77t41.5 21t41.5 -21t12.5 -77t-12.5 -77t-41.5 -21t-41.5 21t-12.5 77z" />
<glyph unicode="/" horiz-adv-x="666" d="M672 1468l-607 -1669q-6 -19 -26 -19h-36q-27 0 -17 28l607 1669q6 19 26 19h36q27 0 17 -28z" />
<glyph unicode="0" horiz-adv-x="872" d="M436 -24q-183 0 -273.5 177.5t-90.5 546.5t90.5 546.5t273.5 177.5t273.5 -177.5t90.5 -546.5t-90.5 -546.5t-273.5 -177.5zM436 50q143 0 211.5 154t68.5 496t-68.5 496t-211.5 154t-211.5 -154t-68.5 -496t68.5 -496t211.5 -154z" />
<glyph unicode="1" horiz-adv-x="872" d="M434 1286l-198 -205q-17 -17 -30 -1l-23 27q-12 15 2 30l243 249q14 14 32 14h38q8 0 14 -5.5t6 -13.5v-1362q0 -8 -6 -13.5t-14 -5.5h-45q-7 0 -13 6t-6 13v1267z" />
<glyph unicode="2" horiz-adv-x="872" d="M154 1371q104 53 226 53q158 0 248 -93.5t90 -272.5q0 -121 -44.5 -242.5t-135.5 -269.5q-159 -261 -328 -474h491q19 0 19 -19v-34q0 -8 -5.5 -13.5t-13.5 -5.5h-580q-7 0 -13 6t-6 13v29q0 20 12 33q148 179 350 505q170 276 170 470q0 143 -69.5 218.5t-190.5 75.5 q-110 0 -204 -50q-10 -5 -18.5 -1.5t-9.5 13.5l-2 32q-2 19 14 27z" />
<glyph unicode="3" horiz-adv-x="872" d="M257 697q-17 2 -17 19v36q0 17 18 19q165 10 265.5 96t100.5 231q0 110 -69 181t-201 71q-110 0 -206 -49q-9 -5 -17 -2t-9 13l-4 40q-2 15 13 22q106 50 229 50q165 0 256.5 -88t91.5 -232q0 -150 -76.5 -243t-217.5 -127q308 -79 308 -386q0 -167 -100 -269.5 t-280 -102.5q-130 0 -234 52q-15 7 -13 23l3 41q1 10 8.5 13.5t16.5 -1.5q97 -54 219 -54q142 0 219 83.5t77 214.5q0 155 -98 244.5t-283 104.5z" />
<glyph unicode="4" horiz-adv-x="872" d="M586 334h-505q-7 0 -13 6t-6 13v39q0 17 8 32l496 960q8 16 26 16h58q8 0 14 -5.5t6 -13.5v-975h121q19 0 19 -19v-34q0 -8 -5.5 -13.5t-13.5 -5.5h-121v-315q0 -8 -6 -13.5t-14 -5.5h-45q-7 0 -13 6t-6 13v315zM586 1264l-440 -858h440v858z" />
<glyph unicode="5" horiz-adv-x="872" d="M149 23q-17 9 -16 28l3 35q1 12 9.5 16t18.5 -3q81 -49 198 -49q142 0 229 96t87 264t-75 261t-215 93q-90 0 -181 -38q-13 -5 -25 1t-12 20v634q0 7 6 13t13 6h519q8 0 14 -5.5t6 -13.5v-36q0 -8 -6 -13.5t-14 -5.5h-454v-520q65 30 158 30q157 0 253.5 -111t96.5 -315 q0 -199 -105.5 -316.5t-290.5 -117.5q-129 0 -217 47z" />
<glyph unicode="6" horiz-adv-x="872" d="M698 1395q15 -5 13 -22l-4 -42q-2 -20 -24 -11q-71 30 -161 30q-61 0 -111.5 -22t-85 -57.5t-61 -87.5t-42.5 -105t-26 -117.5t-14.5 -116.5t-5.5 -110q52 69 125 109.5t161 40.5q158 0 246 -120.5t88 -333.5q0 -211 -90 -332.5t-244 -121.5q-179 0 -274.5 167t-95.5 513 q0 395 113 581.5t319 186.5q90 0 174 -29zM454 810q-163 0 -278 -186q3 -284 77.5 -429t206.5 -145q120 0 186 105t66 275q0 177 -66 278.5t-192 101.5z" />
<glyph unicode="7" horiz-adv-x="872" d="M252 25l400 1301h-532q-8 0 -14 5.5t-6 13.5v36q0 8 6 13.5t14 5.5h602q8 0 14 -5.5t6 -13.5v-35q0 -27 -7 -48l-393 -1279q-6 -19 -26 -19h-46q-26 0 -18 25z" />
<glyph unicode="8" horiz-adv-x="872" d="M74 350q0 130 74.5 229.5t197.5 160.5q-53 32 -89.5 61.5t-70.5 71.5t-51 96.5t-17 122.5q0 149 88 240.5t224 91.5q142 0 230 -90t88 -240q0 -120 -65 -213t-171 -149q153 -87 217.5 -174t64.5 -214q0 -169 -101.5 -268.5t-258.5 -99.5q-158 0 -259 99t-101 275z M710 344q0 46 -9 84.5t-30 70.5t-41 55t-57.5 49t-63 41.5t-72.5 42.5q-15 9 -23 13q-119 -53 -187.5 -145.5t-68.5 -204.5q0 -139 77 -219.5t199 -80.5q121 0 198.5 81.5t77.5 212.5zM202 1094q0 -61 18.5 -110.5t55 -88.5t75 -66.5t93.5 -58.5q105 50 162.5 134t57.5 192 q0 118 -63.5 186t-170.5 68q-99 0 -163.5 -70t-64.5 -186z" />
<glyph unicode="9" horiz-adv-x="872" d="M172 5q-15 5 -13 22l4 42q2 20 24 11q71 -30 161 -30q61 0 111.5 22t85 57.5t61 87.5t42.5 105t26 117.5t14.5 116.5t5.5 110q-52 -69 -125 -109.5t-161 -40.5q-158 0 -246 120.5t-88 333.5q0 211 90 332.5t244 121.5q179 0 274.5 -167t95.5 -513q0 -395 -113 -581.5 t-319 -186.5q-90 0 -174 29zM416 590q163 0 278 186q-3 284 -77.5 429t-206.5 145q-120 0 -186 -105t-66 -275q0 -177 66 -278.5t192 -101.5z" />
<glyph unicode=":" horiz-adv-x="436" d="M164 72q0 56 12.5 77t41.5 21t41.5 -21t12.5 -77t-12.5 -77t-41.5 -21t-41.5 21t-12.5 77zM164 962q0 56 12.5 77t41.5 21t41.5 -21t12.5 -77t-12.5 -77t-41.5 -21t-41.5 21t-12.5 77z" />
<glyph unicode=";" horiz-adv-x="436" d="M162 962q0 56 12.5 77t41.5 21t41.5 -21t12.5 -77t-12.5 -77t-41.5 -21t-41.5 21t-12.5 77zM135 -182q59 72 65 158q-38 13 -38 96q0 56 12.5 77t41.5 21t41.5 -20.5t12.5 -69.5q0 -95 -19.5 -162t-75.5 -135q-12 -15 -24 -1l-15 18q-8 9 -1 18z" />
<glyph unicode="&#x3c;" d="M84 645v38q0 18 16 27l851 439q11 5 18 0.5t7 -15.5v-36q0 -17 -18 -27l-794 -407l794 -407q18 -10 18 -27v-36q0 -11 -7 -15.5t-18 0.5l-851 439q-16 9 -16 27z" />
<glyph unicode="=" d="M956 846h-853q-8 0 -13.5 6t-5.5 14v37q0 8 5.5 13.5t13.5 5.5h853q8 0 14 -5.5t6 -13.5v-37q0 -8 -6 -14t-14 -6zM956 406h-853q-8 0 -13.5 6t-5.5 14v37q0 8 5.5 13.5t13.5 5.5h853q8 0 14 -5.5t6 -13.5v-37q0 -8 -6 -14t-14 -6z" />
<glyph unicode="&#x3e;" d="M976 683v-38q0 -18 -16 -27l-851 -439q-11 -5 -18 -0.5t-7 15.5v36q0 17 18 27l794 407l-794 407q-18 10 -18 27v36q0 11 7 15.5t18 -0.5l851 -439q16 -9 16 -27z" />
<glyph unicode="?" horiz-adv-x="802" d="M277 72q0 56 12.5 77t41.5 21t41.5 -21t12.5 -77t-12.5 -77t-41.5 -21t-41.5 21t-12.5 77zM117 1293q-10 -6 -19 -2.5t-10 14.5l-3 35q-1 19 16 28q106 56 230 56q163 0 254.5 -85.5t91.5 -240.5q0 -102 -45 -193.5t-145 -186.5q-65 -62 -88.5 -136t-23.5 -194v-27 q0 -8 -5.5 -13.5t-13.5 -5.5h-46q-8 0 -13.5 5.5t-5.5 13.5v35q0 138 30.5 223t109.5 159q87 82 123.5 158t36.5 166q0 115 -68.5 181.5t-195.5 66.5q-115 0 -210 -57z" />
<glyph unicode="@" horiz-adv-x="1494" d="M1090 -156q21 15 28 -6l14 -36q7 -16 -10 -28q-137 -98 -354 -98q-194 0 -342.5 108.5t-230 307t-81.5 456.5q0 200 47 365t130 277t198.5 173t252.5 61q138 0 255 -58t201.5 -163.5t132 -263t47.5 -349.5q0 -217 -70 -353.5t-194 -136.5q-65 0 -113 39.5t-63 128.5 q-95 -156 -280 -156q-114 0 -182 88t-68 236q0 125 34 231t90 175.5t128 108.5t150 39q154 0 238 -125q23 -33 17 -74l-53 -385q-15 -109 11 -174.5t91 -65.5q62 0 103.5 59t59 151.5t17.5 213.5q0 344 -148.5 552t-403.5 208q-246 0 -395 -217t-149 -585q0 -362 155.5 -580 t414.5 -218q197 0 322 94zM934 390l56 424q-58 106 -182 106q-126 0 -222 -134.5t-96 -341.5q0 -125 46 -193.5t126 -68.5q166 0 272 208z" />
<glyph unicode="A" horiz-adv-x="924" d="M459 1298l-230 -822h460zM429 1400h60q20 0 26 -20l389 -1355q7 -25 -17 -25h-44q-19 0 -25 18l-107 384h-504l-107 -384q-6 -18 -25 -18h-44q-24 0 -17 25l389 1355q6 20 26 20z" />
<glyph unicode="B" horiz-adv-x="946" d="M476 0h-312q-8 0 -14 5.5t-6 13.5v1362q0 8 6 13.5t14 5.5h304q167 0 260.5 -97t93.5 -261q0 -116 -38.5 -189.5t-123.5 -120.5q212 -82 212 -350q0 -185 -102 -283.5t-294 -98.5zM228 762h290q102 0 161 78.5t59 199.5q0 132 -72 209t-200 77h-238v-564zM788 382 q0 150 -77.5 229t-218.5 79h-264v-618h248q152 0 232 81t80 229z" />
<glyph unicode="C" horiz-adv-x="890" d="M818 11q-85 -35 -204 -35q-249 0 -394.5 197.5t-145.5 526.5q0 217 65 380.5t187 253.5t286 90q112 0 198 -37q16 -7 15 -23l-3 -39q-1 -10 -9 -13t-18 2q-80 36 -179 36q-212 0 -335 -176t-123 -474q0 -299 123 -474.5t335 -175.5q103 0 187 34q10 5 18 2t9 -13l3 -39 q1 -16 -15 -23z" />
<glyph unicode="D" horiz-adv-x="1010" d="M852 700q0 322 -114 474t-368 152h-142v-1252h142q254 0 368 152t114 474zM163 1400h205q286 0 427 -172t141 -528t-141 -528t-427 -172h-205q-8 0 -13.5 5.5t-5.5 13.5v1362q0 8 5.5 13.5t13.5 5.5z" />
<glyph unicode="E" horiz-adv-x="856" d="M144 19v1362q0 8 5.5 13.5t13.5 5.5h593q8 0 14 -5.5t6 -13.5v-35q0 -8 -6 -14t-14 -6h-528v-566h490q8 0 14 -5.5t6 -13.5v-35q0 -8 -6 -14t-14 -6h-490v-612h543q8 0 13.5 -6t5.5 -14v-35q0 -7 -6 -13t-13 -6h-608q-8 0 -13.5 5.5t-5.5 13.5z" />
<glyph unicode="F" horiz-adv-x="810" d="M144 19v1362q0 8 5.5 13.5t13.5 5.5h594q8 0 13.5 -5.5t5.5 -13.5v-35q0 -8 -5.5 -14t-13.5 -6h-529v-560h490q8 0 14 -5.5t6 -13.5v-35q0 -8 -6 -14t-14 -6h-490v-673q0 -7 -6 -13t-13 -6h-44q-8 0 -14.5 6t-6.5 13z" />
<glyph unicode="G" horiz-adv-x="1056" d="M891 1363q15 -8 14 -24l-3 -39q-1 -10 -9 -13t-19 3q-110 60 -258 60q-208 0 -333 -175t-125 -475q0 -302 126 -476t346 -174q144 0 218 44v560h-306q-8 0 -14 6t-6 14v35q0 8 6 13.5t14 5.5h368q8 0 14 -5.5t6 -13.5v-627q0 -37 -29 -52q-101 -54 -273 -54 q-256 0 -405 194t-149 530q0 333 148 528.5t394 195.5q164 0 275 -61z" />
<glyph unicode="H" horiz-adv-x="1064" d="M144 19v1362q0 8 5.5 13.5t13.5 5.5h46q7 0 13 -6t6 -13v-597h608v597q0 7 6 13t13 6h46q8 0 13.5 -5.5t5.5 -13.5v-1362q0 -8 -5.5 -13.5t-13.5 -5.5h-46q-7 0 -13 6t-6 13v691h-608v-691q0 -7 -6 -13t-13 -6h-46q-8 0 -13.5 5.5t-5.5 13.5z" />
<glyph unicode="I" horiz-adv-x="396" d="M176 1400h45q7 0 13 -6t6 -13v-1362q0 -7 -6 -13t-13 -6h-45q-8 0 -14 5.5t-6 13.5v1362q0 8 6 13.5t14 5.5z" />
<glyph unicode="J" horiz-adv-x="650" d="M26 8q-16 7 -15 23l3 41q1 10 9 13t18 -2q70 -33 151 -33q128 0 179 86.5t51 311.5v933q0 8 5.5 13.5t13.5 5.5h46q8 0 13.5 -5.5t5.5 -13.5v-939q0 -255 -70 -360.5t-242 -105.5q-99 0 -168 32z" />
<glyph unicode="K" horiz-adv-x="876" d="M228 1381v-619l493 624q11 14 30 14h37q16 0 20 -10t-5 -21l-491 -623l560 -715q9 -11 5 -21t-20 -10h-44q-19 0 -30 14l-555 712v-707q0 -8 -6 -13.5t-14 -5.5h-44q-8 0 -14 5.5t-6 13.5v1362q0 8 6 13.5t14 5.5h44q8 0 14 -5.5t6 -13.5z" />
<glyph unicode="L" horiz-adv-x="848" d="M144 19v1362q0 7 6 13t13 6h44q8 0 14.5 -6t6.5 -13v-1307h581q8 0 13.5 -6t5.5 -14v-35q0 -8 -5.5 -13.5t-13.5 -5.5h-646q-7 0 -13 6t-6 13z" />
<glyph unicode="M" horiz-adv-x="1268" d="M659 482h-50q-24 0 -32 20l-351 800v-1283q0 -8 -6 -13.5t-14 -5.5h-43q-7 0 -13 6t-6 13v1362q0 7 6 13t14 6h84q23 0 31 -20l355 -803l355 803q8 20 31 20h84q8 0 14 -6t6 -13v-1362q0 -7 -6 -13t-13 -6h-43q-8 0 -14 5.5t-6 13.5v1283l-351 -800q-8 -20 -32 -20z" />
<glyph unicode="N" d="M785 21l-557 1265v-1267q0 -7 -6 -13t-13 -6h-46q-8 0 -13.5 5.5t-5.5 13.5v1362q0 8 5.5 13.5t13.5 5.5h81q22 0 31 -21l557 -1265v1267q0 7 6 13t13 6h46q8 0 13.5 -5.5t5.5 -13.5v-1362q0 -8 -5.5 -13.5t-13.5 -5.5h-81q-22 0 -31 21z" />
<glyph unicode="O" horiz-adv-x="1044" d="M522 -24q-218 0 -333 186.5t-115 537.5q0 349 115 536.5t333 187.5t333 -187.5t115 -536.5q0 -351 -115 -537.5t-333 -186.5zM522 50q179 0 271.5 163.5t92.5 486.5t-92.5 486.5t-271.5 163.5t-271.5 -163.5t-92.5 -486.5t92.5 -486.5t271.5 -163.5z" />
<glyph unicode="P" horiz-adv-x="886" d="M228 560v-541q0 -8 -5.5 -13.5t-13.5 -5.5h-46q-7 0 -13 6t-6 13v1362q0 7 6 13t13 6h243q191 0 300.5 -108.5t109.5 -311.5q0 -205 -109.5 -312.5t-300.5 -107.5h-178zM732 980q0 171 -85.5 258.5t-238.5 87.5h-180v-694h180q153 0 238.5 88t85.5 260z" />
<glyph unicode="Q" horiz-adv-x="1044" d="M522 50q179 0 271.5 163.5t92.5 486.5t-92.5 486.5t-271.5 163.5t-271.5 -163.5t-92.5 -486.5t92.5 -486.5t271.5 -163.5zM909 -282q-55 -18 -125 -18q-121 0 -199 70t-87 206q-208 10 -316 196t-108 528q0 349 115 536.5t333 187.5t333 -187.5t115 -536.5 q0 -327 -101 -512.5t-293 -207.5q3 -103 59.5 -157.5t148.5 -54.5q69 0 110 17q26 10 29 -13l3 -28q1 -20 -17 -26z" />
<glyph unicode="R" horiz-adv-x="892" d="M734 1008q0 151 -79.5 234.5t-226.5 83.5h-200v-636h200q147 0 226.5 83.5t79.5 234.5zM783 18l-289 602q-22 -4 -68 -4h-198v-597q0 -8 -6 -13.5t-14 -5.5h-44q-8 0 -14 5.5t-6 13.5v1362q0 8 6 13.5t14 5.5h262q185 0 288.5 -104.5t103.5 -287.5q0 -142 -63.5 -238 t-182.5 -134l296 -607q6 -13 1.5 -21t-18.5 -8h-38q-21 0 -30 18z" />
<glyph unicode="S" horiz-adv-x="808" d="M107 29q-15 7 -14 23l3 44q1 10 8.5 13t18.5 -2q106 -57 239 -57q138 0 212 79t74 217q0 125 -64.5 207.5t-207.5 142.5q-154 66 -223 159t-69 233q0 154 96 245t260 91q118 0 213 -41q15 -7 14 -23l-3 -41q-1 -10 -8.5 -13t-18.5 2q-83 42 -193 42q-130 0 -203 -71 t-73 -191q0 -113 59.5 -189.5t194.5 -136.5q164 -72 237 -169.5t73 -246.5q0 -174 -97.5 -272t-272.5 -98q-140 0 -255 53z" />
<glyph unicode="T" horiz-adv-x="792" d="M354 19v1307h-324q-8 0 -14 6t-6 14v35q0 8 6 13.5t14 5.5h733q8 0 13.5 -5.5t5.5 -13.5v-35q0 -8 -5.5 -14t-13.5 -6h-325v-1307q0 -7 -6 -13t-13 -6h-46q-8 0 -13.5 5.5t-5.5 13.5z" />
<glyph unicode="U" horiz-adv-x="1084" d="M856 480v901q0 8 5.5 13.5t13.5 5.5h46q8 0 13.5 -5.5t5.5 -13.5v-905q0 -260 -102 -380t-296 -120t-296 120t-102 380v905q0 8 5.5 13.5t13.5 5.5h46q8 0 13.5 -5.5t5.5 -13.5v-901q0 -229 78.5 -329.5t235.5 -100.5q156 0 235 101t79 329z" />
<glyph unicode="V" horiz-adv-x="976" d="M124 1382l359 -1280l359 1280q6 18 25 18h44q24 0 17 -25l-389 -1355q-6 -20 -26 -20h-60q-20 0 -26 20l-389 1355q-7 25 17 25h44q19 0 25 -18z" />
<glyph unicode="W" horiz-adv-x="1464" d="M695 1400h68q21 0 25 -18l259 -1294l288 1294q4 18 25 18h44q22 0 17 -25l-309 -1355q-5 -20 -26 -20h-79q-21 0 -26 20l-252 1254l-252 -1254q-5 -20 -26 -20h-79q-21 0 -26 20l-309 1355q-5 25 17 25h44q21 0 25 -18l288 -1294l259 1294q4 18 25 18z" />
<glyph unicode="X" horiz-adv-x="944" d="M805 18l-340 610l-340 -610q-10 -18 -31 -18h-48q-11 0 -15.5 8t1.5 19l379 679l-369 667q-6 11 -1.5 19t15.5 8h42q21 0 31 -18l336 -600l336 600q10 18 31 18h42q11 0 15.5 -8t-1.5 -19l-369 -667l379 -679q6 -11 1.5 -19t-15.5 -8h-48q-21 0 -31 18z" />
<glyph unicode="Y" horiz-adv-x="956" d="M126 1382l346 -734l346 734q8 18 31 18h39q11 0 15.5 -8t-0.5 -19l-389 -817v-537q0 -7 -6 -13t-13 -6h-46q-8 0 -13.5 5.5t-5.5 13.5v537l-389 817q-5 11 -0.5 19t15.5 8h39q23 0 31 -18z" />
<glyph unicode="Z" horiz-adv-x="846" d="M66 99l616 1227h-587q-8 0 -13.5 6t-5.5 14v35q0 7 6 13t13 6h662q7 0 13 -6t6 -13v-36q0 -21 -12 -44l-616 -1227h624q8 0 14 -6t6 -14v-35q0 -8 -6 -13.5t-14 -5.5h-699q-7 0 -13 6t-6 13v36q0 21 12 44z" />
<glyph unicode="[" horiz-adv-x="652" d="M216 -241v1722q0 8 5.5 13.5t13.5 5.5h344q7 0 13 -6t6 -13v-36q0 -7 -6 -13t-13 -6h-283v-1612h283q8 0 13.5 -5.5t5.5 -13.5v-36q0 -7 -6 -13t-13 -6h-344q-8 0 -13.5 5.5t-5.5 13.5z" />
<glyph unicode="\" horiz-adv-x="666" d="M593 -201l-607 1669q-10 28 17 28h36q20 0 26 -19l607 -1669q10 -28 -17 -28h-36q-20 0 -26 19z" />
<glyph unicode="]" horiz-adv-x="652" d="M436 1481v-1722q0 -8 -5.5 -13.5t-13.5 -5.5h-344q-7 0 -13 6t-6 13v36q0 8 5.5 13.5t13.5 5.5h283v1612h-283q-7 0 -13 6t-6 13v36q0 7 6 13t13 6h344q8 0 13.5 -5.5t5.5 -13.5z" />
<glyph unicode="^" d="M521 1336l-349 -577q-13 -21 -39 -21h-35q-13 0 -17.5 9.5t1.5 19.5l375 613q12 20 32 20h64q20 0 32 -20l375 -613q6 -10 1.5 -19.5t-17.5 -9.5h-35q-26 0 -39 21z" />
<glyph unicode="_" horiz-adv-x="770" d="M0 -298v37q0 19 19 19h732q8 0 13.5 -5.5t5.5 -13.5v-37q0 -8 -5.5 -14t-13.5 -6h-732q-8 0 -13.5 6t-5.5 14z" />
<glyph unicode="`" horiz-adv-x="620" d="M232 1444l181 -284q7 -10 3 -17t-17 -7h-29q-22 0 -32 16l-186 281q-8 11 -4.5 19t16.5 8h38q20 0 30 -16z" />
<glyph unicode="a" horiz-adv-x="784" d="M356 44q155 0 238 130v370h-204q-122 0 -188 -68t-66 -186q0 -119 60 -182.5t160 -63.5zM148 1009q104 51 232 51q149 0 222.5 -72.5t73.5 -231.5v-737q0 -7 -6 -13t-13 -6h-44q-7 0 -13 6t-6 13v65q-80 -108 -252 -108q-126 0 -207 81t-81 231q0 153 87.5 238.5 t246.5 85.5h206v136q0 132 -51 187t-167 55q-108 0 -208 -46q-11 -5 -20 -1t-10 16l-3 27q-2 16 13 23z" />
<glyph unicode="b" horiz-adv-x="824" d="M678 518q0 237 -73 354.5t-201 117.5q-61 0 -116 -33.5t-92 -94.5v-688q37 -61 92 -94.5t116 -33.5q128 0 201 117.5t73 354.5zM196 1440v-488q85 108 222 108q159 0 250.5 -136.5t91.5 -405.5t-91.5 -405.5t-250.5 -136.5q-137 0 -222 108v-65q0 -7 -6 -13t-13 -6h-44 q-7 0 -13 6t-6 13v1421q0 8 5.5 14t13.5 6h44q8 0 13.5 -6t5.5 -14z" />
<glyph unicode="c" horiz-adv-x="724" d="M637 77q10 5 18 1.5t9 -13.5l3 -31q1 -17 -15 -24q-68 -34 -174 -34q-191 0 -302.5 139.5t-111.5 402.5q0 260 111.5 401t296.5 141q88 0 171 -34q16 -7 15 -24l-3 -31q-1 -10 -9 -13.5t-18 1.5q-66 31 -152 31q-150 0 -240 -119.5t-90 -352.5q0 -236 91.5 -354 t246.5 -118q84 0 153 31z" />
<glyph unicode="d" horiz-adv-x="824" d="M146 518q0 -237 73 -354.5t201 -117.5q61 0 116 33.5t92 94.5v688q-37 61 -92 94.5t-116 33.5q-128 0 -201 -117.5t-73 -354.5zM628 952v488q0 8 5.5 14t13.5 6h44q8 0 13.5 -6t5.5 -14v-1421q0 -7 -6 -13t-13 -6h-44q-7 0 -13 6t-6 13v65q-85 -108 -222 -108 q-159 0 -250.5 136.5t-91.5 405.5t91.5 405.5t250.5 136.5q137 0 222 -108z" />
<glyph unicode="e" horiz-adv-x="794" d="M402 990q-121 0 -186 -109t-68 -325h506q0 210 -66.5 322t-185.5 112zM710 488h-562q5 -218 85 -330t233 -112q100 0 178 42q11 5 18.5 1.5t8.5 -13.5l3 -33q1 -19 -15 -26q-87 -41 -199 -41q-191 0 -293.5 141t-102.5 405t89.5 401t248.5 137q158 0 247 -136.5 t89 -387.5q0 -16 -1 -25t-8 -16t-19 -7z" />
<glyph unicode="f" horiz-adv-x="526" d="M501 1382q-32 8 -63 8q-56 0 -88.5 -18.5t-52 -76t-19.5 -161.5v-98h214q8 0 14 -5.5t6 -13.5v-32q0 -8 -6 -13.5t-14 -5.5h-214v-947q0 -8 -6 -13.5t-14 -5.5h-43q-7 0 -13 6t-6 13v947h-152q-8 0 -14 5.5t-6 13.5v32q0 8 6 13.5t14 5.5h152v106q0 168 57 243t177 75 q50 0 86 -11q17 -5 15 -23l-3 -30q-1 -20 -27 -14z" />
<glyph unicode="g" horiz-adv-x="824" d="M146 518q0 -237 73 -354.5t201 -117.5q61 0 116 33.5t92 94.5v688q-37 61 -92 94.5t-116 33.5q-128 0 -201 -117.5t-73 -354.5zM197 -287q86 -41 183 -41q135 0 191.5 80t56.5 256v76q-85 -108 -222 -108q-159 0 -250.5 136.5t-91.5 405.5t91.5 405.5t250.5 136.5 q137 0 222 -108v65q0 8 6 13.5t14 5.5h43q8 0 13.5 -5.5t5.5 -13.5v-1017q0 -210 -78 -305t-250 -95q-109 0 -198 37q-16 7 -15 24l2 39q1 10 8 14t18 -1z" />
<glyph unicode="h" horiz-adv-x="844" d="M196 1440v-498q97 118 252 118q140 0 216 -102t76 -300v-639q0 -7 -6 -13t-13 -6h-44q-7 0 -13 6t-6 13v607q0 185 -54.5 274.5t-169.5 89.5q-73 0 -135.5 -35.5t-102.5 -102.5v-833q0 -7 -6 -13t-13 -6h-44q-7 0 -13 6t-6 13v1421q0 8 5.5 14t13.5 6h44q8 0 13.5 -6 t5.5 -14z" />
<glyph unicode="i" horiz-adv-x="332" d="M112 1360q0 58 12 79t42 21t42 -21t12 -79t-12 -79t-42 -21t-42 21t-12 79zM126 19v998q0 8 6 13.5t14 5.5h43q8 0 13.5 -5.5t5.5 -13.5v-998q0 -8 -5.5 -13.5t-13.5 -5.5h-43q-8 0 -14 5.5t-6 13.5z" />
<glyph unicode="j" horiz-adv-x="314" d="M103 1360q0 58 12 79t42 21t42 -21t12 -79t-12 -79t-42 -21t-42 21t-12 79zM-76 -322q24 -8 51 -8q70 0 106 40t36 132v1175q0 8 5.5 13.5t13.5 5.5h44q8 0 13.5 -5.5t5.5 -13.5v-1165q0 -132 -54.5 -192t-161.5 -60q-44 0 -71 9q-16 6 -15 24l2 31q2 22 25 14z" />
<glyph unicode="k" horiz-adv-x="710" d="M280 582l407 -551q9 -12 5 -21.5t-20 -9.5h-37q-22 0 -35 16l-404 548v-545q0 -8 -5.5 -13.5t-13.5 -5.5h-44q-8 0 -13.5 5.5t-5.5 13.5v1421q0 8 5.5 14t13.5 6h44q8 0 13.5 -6t5.5 -14v-840l364 420q13 16 34 16h38q16 0 20.5 -10t-5.5 -21z" />
<glyph unicode="l" horiz-adv-x="330" d="M124 19v1421q0 8 6 14t14 6h43q8 0 13.5 -6t5.5 -14v-1421q0 -8 -5.5 -13.5t-13.5 -5.5h-43q-8 0 -14 5.5t-6 13.5z" />
<glyph unicode="m" horiz-adv-x="1290" d="M1186 702v-683q0 -7 -6 -13t-13 -6h-44q-7 0 -13 6t-6 13v677q0 163 -52 228.5t-146 65.5q-70 0 -131.5 -39t-98.5 -107q16 -74 16 -142v-683q0 -7 -6 -13t-13 -6h-44q-7 0 -13 6t-6 13v677q0 163 -51.5 228.5t-142.5 65.5q-62 0 -122 -38t-98 -100v-833q0 -8 -5.5 -13.5 t-13.5 -5.5h-43q-8 0 -14 5.5t-6 13.5v998q0 8 6 13.5t14 5.5h43q8 0 13.5 -5.5t5.5 -13.5v-79q95 122 234 122q163 0 226 -150q104 150 264 150q74 0 127.5 -29t82.5 -80.5t42.5 -112.5t13.5 -136z" />
<glyph unicode="n" horiz-adv-x="844" d="M740 658v-639q0 -7 -6 -13t-13 -6h-44q-7 0 -13 6t-6 13v607q0 185 -54.5 274.5t-169.5 89.5q-73 0 -135.5 -35.5t-102.5 -102.5v-833q0 -7 -6 -13t-13 -6h-44q-7 0 -13 6t-6 13v998q0 7 6 13t13 6h44q7 0 13 -6t6 -13v-75q97 118 252 118q140 0 216 -102t76 -300z" />
<glyph unicode="o" horiz-adv-x="840" d="M420 1060q165 0 260.5 -139t95.5 -403t-95.5 -403t-260.5 -139t-260.5 139t-95.5 403t95.5 403t260.5 139zM420 46q126 0 200 118.5t74 353.5t-74 353.5t-200 118.5t-200 -118.5t-74 -353.5t74 -353.5t200 -118.5z" />
<glyph unicode="p" horiz-adv-x="824" d="M196 84v-451q0 -7 -6 -13t-13 -6h-44q-7 0 -13 6t-6 13v1384q0 7 6 13t13 6h44q7 0 13 -6t6 -13v-65q85 108 222 108q159 0 250.5 -136.5t91.5 -405.5t-91.5 -405.5t-250.5 -136.5q-137 0 -222 108zM678 518q0 237 -73 354.5t-201 117.5q-61 0 -116 -33.5t-92 -94.5v-688 q37 -61 92 -94.5t116 -33.5q128 0 201 117.5t73 354.5z" />
<glyph unicode="q" horiz-adv-x="824" d="M628 -367v451q-85 -108 -222 -108q-159 0 -250.5 136.5t-91.5 405.5t91.5 405.5t250.5 136.5q137 0 222 -108v65q0 7 6 13t13 6h44q7 0 13 -6t6 -13v-1384q0 -7 -6 -13t-13 -6h-44q-7 0 -13 6t-6 13zM146 518q0 -237 73 -354.5t201 -117.5q61 0 116 33.5t92 94.5v688 q-37 61 -92 94.5t-116 33.5q-128 0 -201 -117.5t-73 -354.5z" />
<glyph unicode="r" horiz-adv-x="528" d="M495 983q-25 7 -51 7q-86 0 -151.5 -60.5t-96.5 -175.5v-735q0 -8 -6 -13.5t-14 -5.5h-43q-7 0 -13 6t-6 13v998q0 7 6 13t13 6h43q8 0 14 -5.5t6 -13.5v-115q37 72 101 115t141 43q43 0 76 -11q15 -5 12 -21l-5 -33q-3 -18 -26 -12z" />
<glyph unicode="s" horiz-adv-x="688" d="M105 97q92 -51 203 -51q108 0 165 56t57 152q0 88 -51 147.5t-167 104.5q-234 91 -234 292q0 125 78.5 193.5t211.5 68.5q101 0 184 -33q16 -6 15 -24l-3 -31q-1 -10 -9 -13.5t-18 1.5q-71 30 -163 30q-103 0 -157.5 -51t-54.5 -139q0 -80 48.5 -136.5t161.5 -101.5 q127 -50 184.5 -125t57.5 -179q0 -137 -79.5 -209.5t-220.5 -72.5q-131 0 -224 48q-16 9 -15 24l3 36q1 11 8.5 15t18.5 -2z" />
<glyph unicode="t" horiz-adv-x="570" d="M489 -16q-37 -8 -81 -8q-121 0 -175.5 76t-54.5 242v672h-129q-8 0 -13.5 5.5t-5.5 13.5v32q0 7 6 13t13 6h129v291q0 8 6 13.5t14 5.5h43q8 0 13.5 -5.5t5.5 -13.5v-291h237q8 0 13.5 -5.5t5.5 -13.5v-32q0 -19 -19 -19h-237v-670q0 -135 35 -192.5t119 -57.5q34 0 64 8 q23 5 26 -13l4 -30q3 -23 -19 -27z" />
<glyph unicode="u" horiz-adv-x="844" d="M104 378v639q0 7 6 13t13 6h44q7 0 13 -6t6 -13v-607q0 -185 54.5 -274.5t169.5 -89.5q73 0 135.5 35.5t102.5 102.5v833q0 7 6 13t13 6h44q7 0 13 -6t6 -13v-998q0 -7 -6 -13t-13 -6h-44q-7 0 -13 6t-6 13v75q-97 -118 -252 -118q-140 0 -216 102t-76 300z" />
<glyph unicode="v" horiz-adv-x="748" d="M405 0h-68q-20 0 -26 20l-283 991q-7 25 17 25h42q19 0 25 -18l259 -932l259 932q6 18 25 18h42q24 0 17 -25l-283 -991q-6 -20 -26 -20z" />
<glyph unicode="w" horiz-adv-x="1160" d="M545 1036h64q20 0 24 -18l196 -928l216 928q4 18 24 18h41q22 0 17 -25l-239 -991q-5 -20 -26 -20h-63q-21 0 -26 20l-196 908l-196 -908q-5 -20 -26 -20h-63q-21 0 -26 20l-239 991q-5 25 17 25h41q20 0 24 -18l216 -928l196 928q4 18 24 18z" />
<glyph unicode="x" horiz-adv-x="720" d="M595 18l-242 434l-242 -434q-10 -18 -31 -18h-44q-11 0 -15.5 7.5t1.5 18.5l283 500l-271 483q-6 11 -1.5 19t15.5 8h40q21 0 31 -18l234 -418l234 418q10 18 31 18h40q11 0 15.5 -8t-1.5 -19l-271 -483l283 -500q6 -11 1.5 -18.5t-15.5 -7.5h-44q-21 0 -31 18z" />
<glyph unicode="y" horiz-adv-x="764" d="M235 -359l108 363l-314 1005q-8 27 16 27h42q20 0 27 -22l269 -884l261 884q6 22 26 22h43q24 0 16 -27l-409 -1373q-7 -22 -27 -22h-42q-24 0 -16 27z" />
<glyph unicode="z" horiz-adv-x="706" d="M134 70h508q8 0 14 -5.5t6 -13.5v-32q0 -8 -6 -13.5t-14 -5.5h-579q-7 0 -13 6t-6 13v30q0 21 11 40l501 877h-470q-8 0 -14 5.5t-6 13.5v32q0 8 6 13.5t14 5.5h541q7 0 13 -6t6 -13v-30q0 -21 -11 -40z" />
<glyph unicode="{" horiz-adv-x="670" d="M144 606v28q0 22 19 28q54 19 82.5 60.5t28.5 119.5v466q0 97 46.5 144.5t127.5 47.5h148q8 0 14 -5.5t6 -13.5v-36q0 -8 -6 -13.5t-14 -5.5h-146q-94 0 -94 -108v-488q0 -163 -128 -210q128 -47 128 -210v-488q0 -108 94 -108h146q8 0 14 -5.5t6 -13.5v-36 q0 -8 -6 -13.5t-14 -5.5h-148q-81 0 -127.5 47.5t-46.5 144.5v466q0 78 -28.5 119.5t-82.5 60.5q-19 6 -19 28z" />
<glyph unicode="|" horiz-adv-x="460" d="M194 -380v1898q0 8 5.5 14t13.5 6h34q8 0 13.5 -6t5.5 -14v-1898q0 -8 -5.5 -14t-13.5 -6h-34q-8 0 -13.5 6t-5.5 14z" />
<glyph unicode="}" horiz-adv-x="670" d="M526 634v-28q0 -22 -19 -28q-54 -19 -82.5 -60.5t-28.5 -119.5v-466q0 -97 -46.5 -144.5t-127.5 -47.5h-148q-8 0 -14 5.5t-6 13.5v36q0 8 6 13.5t14 5.5h146q94 0 94 108v488q0 163 128 210q-128 47 -128 210v488q0 108 -94 108h-146q-8 0 -14 5.5t-6 13.5v36 q0 8 6 13.5t14 5.5h148q81 0 127.5 -47.5t46.5 -144.5v-466q0 -78 28.5 -119.5t82.5 -60.5q19 -6 19 -28z" />
<glyph unicode="~" d="M742 512q-135 0 -234 116q-55 63 -98.5 88.5t-95.5 25.5q-71 0 -111.5 -52t-44.5 -156q0 -8 -5.5 -13t-13.5 -5h-46q-8 0 -13.5 6t-5.5 14q6 140 72.5 209t171.5 69q135 0 234 -116q55 -63 98.5 -88.5t95.5 -25.5q71 0 111.5 52t44.5 156q0 8 5.5 13t13.5 5h46 q8 0 13.5 -6t5.5 -14q-6 -140 -72.5 -209t-171.5 -69z" />
<glyph unicode="&#xa1;" horiz-adv-x="416" d="M194 698h28q8 0 14 -5.5t6 -13.5l12 -628v-396q0 -8 -5.5 -13.5t-13.5 -5.5h-54q-8 0 -13.5 5.5t-5.5 13.5v396l12 628q0 8 6 13.5t14 5.5zM154 964q0 56 12.5 77t41.5 21t41.5 -21t12.5 -77t-12.5 -77t-41.5 -21t-41.5 21t-12.5 77z" />
<glyph unicode="&#xa2;" horiz-adv-x="724" d="M452 1059v154q0 19 19 19h26q19 0 19 -19v-156q66 -6 127 -31q16 -7 15 -24l-3 -31q-1 -10 -9 -13.5t-18 1.5q-54 25 -112 29v-941q67 5 121 30q10 5 18 1.5t9 -13.5l3 -31q1 -17 -15 -24q-56 -28 -136 -33v-154q0 -19 -19 -19h-26q-19 0 -19 19v154q-180 10 -284 148.5 t-104 392.5q0 253 105.5 393t282.5 148zM146 518q0 -223 82 -341t224 -130v942q-141 -9 -223.5 -128.5t-82.5 -342.5z" />
<glyph unicode="&#xa3;" horiz-adv-x="860" d="M732 1375q16 -7 15 -23l-3 -39q-1 -10 -9 -12.5t-18 2.5q-91 47 -205 47q-244 0 -244 -326v-268h336q8 0 14 -5.5t6 -13.5v-22q0 -8 -6 -13.5t-14 -5.5h-336v-204q0 -272 -112 -418h641q8 0 13.5 -5.5t5.5 -13.5v-36q0 -7 -6 -13t-13 -6h-714q-7 0 -13 6t-6 13v35 q0 21 18 44q102 132 102 388v210h-101q-7 0 -13 6t-6 13v22q0 7 6 13t13 6h101v268q0 200 82 300t238 100q127 0 228 -49z" />
<glyph unicode="&#xa4;" horiz-adv-x="1318" d="M373 349l-160 -163q-5 -6 -13.5 -6t-13.5 6l-34 36q-14 14 0 27l161 161q-98 119 -98 272q0 152 98 272l-161 161q-14 13 0 27l34 36q5 6 13.5 6t13.5 -6l160 -164q123 104 280 104t280 -104l160 164q5 6 13.5 6t13.5 -6l34 -36q14 -14 0 -27l-161 -161q98 -120 98 -272 q0 -153 -98 -272l161 -161q14 -13 0 -27l-34 -36q-5 -6 -13.5 -6t-13.5 6l-160 163q-124 -103 -280 -103t-280 103zM299 682q0 -150 102.5 -253t251.5 -103t251.5 103t102.5 253t-102.5 253t-251.5 103t-251.5 -103t-102.5 -253z" />
<glyph unicode="&#xa5;" horiz-adv-x="832" d="M435 0h-46q-8 0 -13.5 5.5t-5.5 13.5v335h-284q-8 0 -14 6t-6 14v21q0 8 6 13.5t14 5.5h284v168h-284q-8 0 -14 5.5t-6 13.5v22q0 8 6 13.5t14 5.5h260l-313 731q-5 12 -0.5 19.5t15.5 7.5h36q24 0 32 -19l296 -709l296 709q8 19 32 19h36q11 0 15.5 -7.5t-0.5 -19.5 l-313 -731h260q8 0 14 -5.5t6 -13.5v-22q0 -8 -6 -13.5t-14 -5.5h-284v-168h284q8 0 14 -5.5t6 -13.5v-21q0 -8 -6 -14t-14 -6h-284v-335q0 -8 -5.5 -13.5t-13.5 -5.5z" />
<glyph unicode="&#xa6;" horiz-adv-x="460" d="M213 442h34q8 0 13.5 -5.5t5.5 -13.5v-604q0 -19 -19 -19h-34q-8 0 -13.5 5.5t-5.5 13.5v604q0 7 6 13t13 6zM213 1376h34q8 0 13.5 -5.5t5.5 -13.5v-604q0 -19 -19 -19h-34q-8 0 -13.5 5.5t-5.5 13.5v604q0 7 6 13t13 6z" />
<glyph unicode="&#xa7;" horiz-adv-x="790" d="M584 614q0 135 -148 216q-108 -3 -167 -58t-59 -144q0 -143 172 -226q96 9 149 65.5t53 146.5zM141 -149q-17 9 -16 27l3 33q1 10 9.5 14t18.5 -2q88 -53 198 -53q106 0 167 56t61 150q0 84 -48.5 141t-149.5 99q-256 106 -256 310q0 103 58.5 168t155.5 82 q-106 53 -160 120t-54 166q0 124 79.5 193t208.5 69q100 0 187 -34q17 -7 16 -25l-3 -30q-1 -10 -9.5 -13.5t-18.5 1.5q-72 31 -166 31q-97 0 -153.5 -52t-56.5 -138q0 -154 200 -236q132 -55 193 -131t61 -181q0 -100 -54 -166t-144 -88q198 -93 198 -282 q0 -131 -83.5 -204.5t-222.5 -73.5q-128 0 -219 49z" />
<glyph unicode="&#xa8;" horiz-adv-x="620" d="M102 1296q0 55 11.5 75.5t40.5 20.5t40.5 -20.5t11.5 -75.5t-11.5 -75.5t-40.5 -20.5t-40.5 20.5t-11.5 75.5zM414 1296q0 55 11.5 75.5t40.5 20.5t40.5 -20.5t11.5 -75.5t-11.5 -75.5t-40.5 -20.5t-40.5 20.5t-11.5 75.5z" />
<glyph unicode="&#xa9;" horiz-adv-x="1196" d="M598 1424q160 0 280 -95t181 -258t61 -371q0 -209 -61.5 -372t-181 -257.5t-279.5 -94.5q-161 0 -281 94.5t-181.5 257.5t-61.5 372q0 208 61.5 371t181.5 258t281 95zM598 30q144 0 250 88t160 238.5t54 343.5t-54 343.5t-160 238.5t-250 88t-250.5 -87.5t-161 -238.5 t-54.5 -344t54.5 -344t161 -238.5t250.5 -87.5zM634 262q-144 0 -238 113.5t-94 320.5q0 205 94 319.5t238 114.5q91 0 159 -34q16 -8 14 -25l-2 -27q-1 -11 -10 -14.5t-18 2.5q-57 32 -139 32q-118 0 -190 -96.5t-72 -271.5q0 -176 71.5 -272t190.5 -96q81 0 139 31 q9 6 18 2.5t10 -14.5l2 -27q2 -18 -15 -26q-64 -32 -158 -32z" />
<glyph unicode="&#xaa;" horiz-adv-x="648" d="M288 704q58 0 104.5 34.5t73.5 99.5v220h-126q-91 0 -140.5 -44.5t-49.5 -131.5q0 -83 40 -130.5t98 -47.5zM136 1379q80 37 178 37q131 0 179.5 -67.5t48.5 -226.5v-445q0 -8 -5.5 -13.5t-13.5 -5.5h-38q-8 0 -13.5 5.5t-5.5 13.5v63q-30 -47 -79.5 -72.5t-110.5 -25.5 q-85 0 -144.5 62.5t-59.5 175.5q0 118 71.5 178t196.5 60h126q0 133 -33.5 184.5t-130.5 51.5q-79 0 -151 -33q-9 -4 -16.5 -0.5t-8.5 12.5l-3 25q-1 15 13 21z" />
<glyph unicode="&#xab;" horiz-adv-x="894" d="M124 606v32q0 14 10 24l343 341q8 9 17.5 5.5t9.5 -15.5v-40q0 -19 -16 -35l-300 -296l300 -296q16 -16 16 -35v-40q0 -12 -9.5 -15.5t-17.5 5.5l-343 341q-10 10 -10 24zM410 606v32q0 14 10 24l343 341q8 9 17.5 5.5t9.5 -15.5v-40q0 -19 -16 -35l-300 -296l300 -296 q16 -16 16 -35v-40q0 -12 -9.5 -15.5t-17.5 5.5l-343 341q-10 10 -10 24z" />
<glyph unicode="&#xac;" d="M74 817v38q0 8 6 13.5t14 5.5h853q8 0 13.5 -5.5t5.5 -13.5v-511q0 -8 -5.5 -14t-13.5 -6h-46q-8 0 -13.5 6t-5.5 14v454h-788q-8 0 -14 5.5t-6 13.5z" />
<glyph unicode="&#xad;" horiz-adv-x="712" d="M588 624h-465q-7 0 -13 6t-6 13v42q0 7 6 13t13 6h465q8 0 14 -5.5t6 -13.5v-42q0 -8 -6 -13.5t-14 -5.5z" />
<glyph unicode="&#xae;" horiz-adv-x="1196" d="M770 870q0 89 -47.5 134.5t-138.5 45.5h-124v-360h124q91 0 138.5 46.5t47.5 133.5zM598 1424q160 0 280 -95t181 -258t61 -371q0 -209 -61.5 -372t-181 -257.5t-279.5 -94.5q-161 0 -281 94.5t-181.5 257.5t-61.5 372q0 208 61.5 371t181.5 258t281 95zM598 30 q144 0 250 88t160 238.5t54 343.5t-54 343.5t-160 238.5t-250 88t-250.5 -87.5t-161 -238.5t-54.5 -344t54.5 -344t161 -238.5t250.5 -87.5zM702 646l160 -336q14 -28 -17 -28h-28q-21 0 -28 16l-155 330q-36 -4 -56 -4h-118v-323q0 -7 -6 -13t-13 -6h-36q-8 0 -13.5 5.5 t-5.5 13.5v796q0 8 5.5 13.5t13.5 5.5h181q117 0 187.5 -65.5t70.5 -180.5q0 -82 -38 -140t-104 -84z" />
<glyph unicode="&#xaf;" horiz-adv-x="620" d="M90 1280v32q0 8 5.5 14t13.5 6h401q8 0 14 -6t6 -14v-32q0 -8 -6 -14t-14 -6h-401q-8 0 -13.5 6t-5.5 14z" />
<glyph unicode="&#xb0;" horiz-adv-x="620" d="M310 1424q98 0 167 -68t69 -164t-69 -164t-167 -68t-167 68t-69 164t69 164t167 68zM310 1024q69 0 117.5 49.5t48.5 118.5t-48.5 118.5t-117.5 49.5t-117.5 -49.5t-48.5 -118.5t48.5 -118.5t117.5 -49.5z" />
<glyph unicode="&#xb1;" d="M956 112h-853q-8 0 -13.5 5.5t-5.5 13.5v38q0 7 6 13t13 6h853q8 0 14 -5.5t6 -13.5v-38q0 -8 -6 -13.5t-14 -5.5zM488 353v401h-385q-7 0 -13 6t-6 13v38q0 7 6 13t13 6h385v400q0 8 5.5 14t13.5 6h46q8 0 13.5 -6t5.5 -14v-400h384q8 0 14 -5.5t6 -13.5v-38 q0 -8 -6 -13.5t-14 -5.5h-384v-401q0 -8 -5.5 -13.5t-13.5 -5.5h-46q-8 0 -13.5 5.5t-5.5 13.5z" />
<glyph unicode="&#xb2;" horiz-adv-x="614" d="M135 1315q-11 -6 -18.5 -2.5t-8.5 14.5l-3 31q-1 14 14 22q79 36 157 36q115 0 174.5 -66t59.5 -188q0 -138 -100 -306q-123 -202 -232 -318h319q8 0 13.5 -5.5t5.5 -13.5v-28q0 -8 -5.5 -13.5t-13.5 -5.5h-390q-19 0 -19 19v24q0 21 18 42q128 144 246 341 q82 135 82 262q0 190 -162 190q-72 0 -137 -35z" />
<glyph unicode="&#xb3;" horiz-adv-x="614" d="M115 483q-15 6 -14 22l2 31q1 24 27 13q58 -27 129 -27q93 0 141.5 52t48.5 132q0 209 -244 218q-7 0 -12.5 6t-5.5 14v25q0 8 5.5 13.5t12.5 5.5q118 5 175 61.5t57 130.5q0 78 -45.5 124t-120.5 46q-71 0 -131 -27q-10 -5 -18 -1t-9 14l-1 27q-2 16 14 22q71 31 149 31 q111 0 174.5 -60.5t63.5 -171.5q0 -82 -44.5 -141t-121.5 -85q94 -38 136 -96.5t42 -153.5q0 -114 -69.5 -183t-192.5 -69q-88 0 -148 27z" />
<glyph unicode="&#xb4;" horiz-adv-x="620" d="M181 1160l181 284q10 16 30 16h38q13 0 16.5 -8t-4.5 -19l-186 -281q-10 -16 -32 -16h-29q-13 0 -17 7t3 17z" />
<glyph unicode="&#xb5;" horiz-adv-x="864" d="M672 186v831q0 8 5.5 13.5t13.5 5.5h44q8 0 13.5 -5.5t5.5 -13.5v-998q0 -8 -5.5 -13.5t-13.5 -5.5h-44q-8 0 -13.5 5.5t-5.5 13.5v77q-40 -59 -103 -89.5t-137 -30.5q-156 0 -240 120v-463q0 -7 -6 -13t-13 -6h-44q-7 0 -13 6t-6 13v1384q0 7 6 13t13 6h44q7 0 13 -6 t6 -13v-831q41 -69 104 -104.5t136 -35.5q71 0 134.5 35.5t105.5 104.5z" />
<glyph unicode="&#xb6;" horiz-adv-x="854" d="M474 -243v895h-56q-79 0 -145.5 22.5t-118.5 66.5t-81 117t-29 168t29 168.5t81 117.5t118.5 66t145.5 22h271q7 0 13 -6t6 -13v-1624q0 -7 -6 -13t-13 -6h-38q-7 0 -13 6t-6 13v1567h-82v-1567q0 -7 -6 -13t-13 -6h-38q-7 0 -13 6t-6 13z" />
<glyph unicode="&#xb7;" horiz-adv-x="436" d="M188 662q0 56 12.5 77t41.5 21t41.5 -21t12.5 -77t-12.5 -77t-41.5 -21t-41.5 21t-12.5 77z" />
<glyph unicode="&#xb8;" horiz-adv-x="620" d="M231 -172q-22 5 -13 29l50 128q6 15 22 15h42q19 0 12 -18l-46 -114q66 -22 105 -69t39 -113q0 -73 -50.5 -117.5t-131.5 -44.5q-41 0 -69 9q-15 5 -15 20v29q0 19 20 13q27 -9 56 -9q51 0 83.5 27.5t32.5 74.5q0 110 -137 140z" />
<glyph unicode="&#xb9;" horiz-adv-x="614" d="M286 1298l-124 -113q-6 -6 -15 -5t-14 8l-19 26q-10 13 2 25l167 151q14 12 32 12h27q8 0 14 -5.5t6 -13.5v-892q0 -8 -6 -13.5t-14 -5.5h-36q-8 0 -14 5.5t-6 13.5v807z" />
<glyph unicode="&#xba;" horiz-adv-x="656" d="M328 1416q118 0 193 -106.5t75 -279.5t-75 -279.5t-193 -106.5t-193 106.5t-75 279.5t75 279.5t193 106.5zM328 714q83 0 136.5 83.5t53.5 232.5t-53.5 232.5t-136.5 83.5t-136.5 -83.5t-53.5 -232.5t53.5 -232.5t136.5 -83.5z" />
<glyph unicode="&#xbb;" horiz-adv-x="894" d="M770 638v-32q0 -14 -10 -24l-343 -341q-8 -9 -17.5 -5.5t-9.5 15.5v40q0 19 16 35l300 296l-300 296q-16 16 -16 35v40q0 12 9.5 15.5t17.5 -5.5l343 -341q10 -10 10 -24zM484 638v-32q0 -14 -10 -24l-343 -341q-8 -9 -17.5 -5.5t-9.5 15.5v40q0 19 16 35l300 296 l-300 296q-16 16 -16 35v40q0 12 9.5 15.5t17.5 -5.5l343 -341q10 -10 10 -24z" />
<glyph unicode="&#xbc;" horiz-adv-x="1414" d="M282 1298l-124 -113q-6 -6 -15 -5t-14 8l-19 26q-10 13 2 25l167 151q13 12 32 12h27q8 0 14 -5.5t6 -13.5v-892q0 -8 -6 -13.5t-14 -5.5h-36q-8 0 -14 5.5t-6 13.5v807zM1266 212v-193q0 -8 -6 -13.5t-14 -5.5h-36q-8 0 -14 5.5t-6 13.5v193h-329q-8 0 -13.5 5.5 t-5.5 13.5v24q0 21 11 42l327 610q10 21 32 21h34q8 0 14 -5.5t6 -13.5v-633h65q8 0 13.5 -5.5t5.5 -13.5v-26q0 -19 -19 -19h-65zM1190 792l-274 -516h274v516zM1021 1410l-576 -1425q-6 -15 -22 -15h-30q-22 0 -14 20l576 1425q6 15 22 15h30q22 0 14 -20z" />
<glyph unicode="&#xbd;" horiz-adv-x="1414" d="M282 1298l-124 -113q-6 -6 -15 -5t-14 8l-19 26q-10 13 2 25l167 151q13 12 32 12h27q8 0 14 -5.5t6 -13.5v-892q0 -8 -6 -13.5t-14 -5.5h-36q-8 0 -14 5.5t-6 13.5v807zM943 843q-11 -6 -18.5 -2.5t-8.5 14.5l-3 31q-1 14 14 22q79 36 157 36q115 0 174.5 -66t59.5 -188 q0 -138 -100 -306q-123 -202 -232 -318h319q8 0 13.5 -5.5t5.5 -13.5v-28q0 -8 -5.5 -13.5t-13.5 -5.5h-390q-19 0 -19 19v24q0 21 18 42q128 144 246 341q82 135 82 262q0 190 -162 190q-72 0 -137 -35zM961 1410l-576 -1425q-6 -15 -22 -15h-30q-22 0 -14 20l576 1425 q6 15 22 15h30q22 0 14 -20z" />
<glyph unicode="&#xbe;" horiz-adv-x="1414" d="M114 483q-15 6 -14 22l2 31q1 24 27 13q59 -27 129 -27q93 0 141.5 52t48.5 132q0 209 -244 218q-7 0 -12.5 6t-5.5 14v25q0 8 5.5 13.5t12.5 5.5q118 5 175 61.5t57 130.5q0 78 -46 124t-120 46q-71 0 -131 -27q-10 -5 -18 -1t-9 14l-1 27q-2 16 14 22q71 31 149 31 q111 0 174.5 -60.5t63.5 -171.5q0 -82 -44.5 -141t-121.5 -85q94 -38 136 -96.5t42 -153.5q0 -114 -69.5 -183t-192.5 -69q-88 0 -148 27zM1269 212v-193q0 -8 -6 -13.5t-14 -5.5h-36q-8 0 -14 5.5t-6 13.5v193h-329q-8 0 -13.5 5.5t-5.5 13.5v24q0 21 11 42l327 610 q11 21 32 21h34q8 0 14 -5.5t6 -13.5v-633h65q8 0 13.5 -5.5t5.5 -13.5v-26q0 -19 -19 -19h-65zM1193 792l-274 -516h274v516zM1082 1410l-576 -1425q-6 -15 -22 -15h-30q-22 0 -14 20l576 1425q6 15 22 15h30q22 0 14 -20z" />
<glyph unicode="&#xbf;" horiz-adv-x="802" d="M524 960q0 -56 -12.5 -77t-41.5 -21t-41.5 21t-12.5 77t12.5 77t41.5 21t41.5 -21t12.5 -77zM684 -261q10 6 19 2.5t10 -14.5l3 -35q1 -19 -16 -28q-106 -56 -230 -56q-163 0 -254.5 85.5t-91.5 240.5q0 102 45 193.5t145 186.5q65 62 88.5 136t23.5 194v27q0 8 5.5 13.5 t13.5 5.5h46q8 0 13.5 -5.5t5.5 -13.5v-35q0 -138 -30.5 -223t-109.5 -159q-87 -82 -123.5 -158t-36.5 -166q0 -115 68.5 -181.5t195.5 -66.5q115 0 210 57z" />
<glyph unicode="&#xc0;" horiz-adv-x="924" d="M459 1298l-230 -822h460zM429 1400h60q20 0 26 -20l389 -1355q7 -25 -17 -25h-44q-19 0 -25 18l-107 384h-504l-107 -384q-6 -18 -25 -18h-44q-24 0 -17 25l389 1355q6 20 26 20zM338 1832l181 -284q7 -10 3 -17t-17 -7h-29q-22 0 -32 16l-186 281q-8 11 -4.5 19t16.5 8 h38q20 0 30 -16z" />
<glyph unicode="&#xc1;" horiz-adv-x="924" d="M459 1298l-230 -822h460zM429 1400h60q20 0 26 -20l389 -1355q7 -25 -17 -25h-44q-19 0 -25 18l-107 384h-504l-107 -384q-6 -18 -25 -18h-44q-24 0 -17 25l389 1355q6 20 26 20zM389 1548l181 284q10 16 30 16h38q13 0 16.5 -8t-4.5 -19l-186 -281q-10 -16 -32 -16h-29 q-13 0 -17 7t3 17z" />
<glyph unicode="&#xc2;" horiz-adv-x="924" d="M459 1298l-230 -822h460zM429 1400h60q20 0 26 -20l389 -1355q7 -25 -17 -25h-44q-19 0 -25 18l-107 384h-504l-107 -384q-6 -18 -25 -18h-44q-24 0 -17 25l389 1355q6 20 26 20zM424 1848h62q17 0 26 -14l183 -285q7 -11 2.5 -18t-17.5 -7h-34q-19 0 -29 15l-162 247 l-162 -247q-10 -15 -29 -15h-34q-13 0 -17.5 7t2.5 18l183 285q9 14 26 14z" />
<glyph unicode="&#xc3;" horiz-adv-x="924" d="M459 1298l-230 -822h460zM429 1400h60q20 0 26 -20l389 -1355q7 -25 -17 -25h-44q-19 0 -25 18l-107 384h-504l-107 -384q-6 -18 -25 -18h-44q-24 0 -17 25l389 1355q6 20 26 20zM346 1820q45 0 77 -22.5t59 -75.5q29 -56 48 -78t42 -22q33 0 50 40t18 135q0 8 5.5 13.5 t13.5 5.5h32q19 0 19 -19q-2 -133 -35.5 -189t-96.5 -56q-45 0 -77 22.5t-59 75.5q-29 56 -48 78t-42 22q-33 0 -50 -40t-18 -135q0 -8 -5.5 -13.5t-13.5 -5.5h-32q-19 0 -19 19q2 133 35.5 189t96.5 56z" />
<glyph unicode="&#xc4;" horiz-adv-x="924" d="M459 1298l-230 -822h460zM429 1400h60q20 0 26 -20l389 -1355q7 -25 -17 -25h-44q-19 0 -25 18l-107 384h-504l-107 -384q-6 -18 -25 -18h-44q-24 0 -17 25l389 1355q6 20 26 20zM254 1686q0 55 11.5 75.5t40.5 20.5t40.5 -20.5t11.5 -75.5t-11.5 -75.5t-40.5 -20.5 t-40.5 20.5t-11.5 75.5zM566 1686q0 55 11.5 75.5t40.5 20.5t40.5 -20.5t11.5 -75.5t-11.5 -75.5t-40.5 -20.5t-40.5 20.5t-11.5 75.5z" />
<glyph unicode="&#xc5;" horiz-adv-x="924" d="M459 1298l-230 -822h460zM429 1400h60q20 0 26 -20l389 -1355q7 -25 -17 -25h-44q-19 0 -25 18l-107 384h-504l-107 -384q-6 -18 -25 -18h-44q-24 0 -17 25l389 1355q6 20 26 20zM462 1884q85 0 143.5 -59t58.5 -143t-58.5 -143t-143.5 -59t-143.5 59t-58.5 143t58.5 143 t143.5 59zM462 1540q58 0 98 41t40 101t-40 101t-98 41t-98 -41t-40 -101t40 -101t98 -41z" />
<glyph unicode="&#xc6;" horiz-adv-x="1226" d="M247 390l-143 -372q-8 -18 -25 -18h-47q-11 0 -16 7t-1 18l524 1355q8 20 26 20h558q8 0 14 -5.5t6 -13.5v-35q0 -8 -5.5 -14t-11.5 -6h-439v-568h398q8 0 14 -5.5t6 -13.5v-33q0 -8 -5.5 -14t-11.5 -6h-401v-614h449q8 0 13.5 -6t5.5 -14v-33q0 -7 -5.5 -13t-13.5 -6 h-514q-8 0 -13.5 6t-5.5 13v371h-356zM603 464v860l-330 -860h330z" />
<glyph unicode="&#xc7;" horiz-adv-x="890" d="M818 11q-82 -33 -194 -35l-44 -108q66 -22 105 -69t39 -113q0 -73 -50.5 -117.5t-131.5 -44.5q-41 0 -69 9q-15 5 -15 20v29q0 19 20 13q27 -9 56 -9q51 0 83.5 27.5t32.5 74.5q0 110 -137 140q-22 5 -13 29l48 123q-221 27 -347.5 220.5t-126.5 499.5q0 217 65 380.5 t187 253.5t286 90q112 0 198 -37q16 -7 15 -23l-3 -39q-1 -10 -9 -13t-18 2q-80 36 -179 36q-212 0 -335 -176t-123 -474q0 -299 123 -474.5t335 -175.5q103 0 187 34q10 5 18 2t9 -13l3 -39q1 -16 -15 -23z" />
<glyph unicode="&#xc8;" horiz-adv-x="856" d="M144 19v1362q0 8 5.5 13.5t13.5 5.5h593q8 0 14 -5.5t6 -13.5v-35q0 -8 -6 -14t-14 -6h-528v-566h490q8 0 14 -5.5t6 -13.5v-35q0 -8 -6 -14t-14 -6h-490v-612h543q8 0 13.5 -6t5.5 -14v-35q0 -7 -6 -13t-13 -6h-608q-8 0 -13.5 5.5t-5.5 13.5zM344 1832l181 -284 q7 -10 3 -17t-17 -7h-29q-22 0 -32 16l-186 281q-8 11 -4.5 19t16.5 8h38q20 0 30 -16z" />
<glyph unicode="&#xc9;" horiz-adv-x="856" d="M144 19v1362q0 8 5.5 13.5t13.5 5.5h593q8 0 14 -5.5t6 -13.5v-35q0 -8 -6 -14t-14 -6h-528v-566h490q8 0 14 -5.5t6 -13.5v-35q0 -8 -6 -14t-14 -6h-490v-612h543q8 0 13.5 -6t5.5 -14v-35q0 -7 -6 -13t-13 -6h-608q-8 0 -13.5 5.5t-5.5 13.5zM359 1548l181 284 q10 16 30 16h38q13 0 16.5 -8t-4.5 -19l-186 -281q-10 -16 -32 -16h-29q-13 0 -17 7t3 17z" />
<glyph unicode="&#xca;" horiz-adv-x="856" d="M144 19v1362q0 8 5.5 13.5t13.5 5.5h593q8 0 14 -5.5t6 -13.5v-35q0 -8 -6 -14t-14 -6h-528v-566h490q8 0 14 -5.5t6 -13.5v-35q0 -8 -6 -14t-14 -6h-490v-612h543q8 0 13.5 -6t5.5 -14v-35q0 -7 -6 -13t-13 -6h-608q-8 0 -13.5 5.5t-5.5 13.5zM422 1848h62q17 0 26 -14 l183 -285q7 -11 2.5 -18t-17.5 -7h-34q-19 0 -29 15l-162 247l-162 -247q-10 -15 -29 -15h-34q-13 0 -17.5 7t2.5 18l183 285q9 14 26 14z" />
<glyph unicode="&#xcb;" horiz-adv-x="856" d="M144 19v1362q0 8 5.5 13.5t13.5 5.5h593q8 0 14 -5.5t6 -13.5v-35q0 -8 -6 -14t-14 -6h-528v-566h490q8 0 14 -5.5t6 -13.5v-35q0 -8 -6 -14t-14 -6h-490v-612h543q8 0 13.5 -6t5.5 -14v-35q0 -7 -6 -13t-13 -6h-608q-8 0 -13.5 5.5t-5.5 13.5zM248 1686q0 55 11.5 75.5 t40.5 20.5t40.5 -20.5t11.5 -75.5t-11.5 -75.5t-40.5 -20.5t-40.5 20.5t-11.5 75.5zM560 1686q0 55 11.5 75.5t40.5 20.5t40.5 -20.5t11.5 -75.5t-11.5 -75.5t-40.5 -20.5t-40.5 20.5t-11.5 75.5z" />
<glyph unicode="&#xcc;" horiz-adv-x="396" d="M176 1400h45q7 0 13 -6t6 -13v-1362q0 -7 -6 -13t-13 -6h-45q-8 0 -14 5.5t-6 13.5v1362q0 8 6 13.5t14 5.5zM58 1832l181 -284q7 -10 3 -17t-17 -7h-29q-22 0 -32 16l-186 281q-8 11 -4.5 19t16.5 8h38q20 0 30 -16z" />
<glyph unicode="&#xcd;" horiz-adv-x="396" d="M174 1400h45q7 0 13 -6t6 -13v-1362q0 -7 -6 -13t-13 -6h-45q-8 0 -14 5.5t-6 13.5v1362q0 8 6 13.5t14 5.5zM143 1548l181 284q10 16 30 16h38q13 0 16.5 -8t-4.5 -19l-186 -281q-10 -16 -32 -16h-29q-13 0 -17 7t3 17z" />
<glyph unicode="&#xce;" horiz-adv-x="396" d="M169 1400h45q8 0 13.5 -6t5.5 -13v-1362q0 -7 -5.5 -13t-13.5 -6h-45q-8 0 -14 5.5t-6 13.5v1362q0 8 6 13.5t14 5.5zM153 1848h62q17 0 26 -14l183 -285q7 -11 2.5 -18t-17.5 -7h-34q-19 0 -29 15l-162 247l-162 -247q-10 -15 -29 -15h-34q-13 0 -17.5 7t2.5 18l183 285 q9 14 26 14z" />
<glyph unicode="&#xcf;" horiz-adv-x="396" d="M176 1400h45q7 0 13 -6t6 -13v-1362q0 -7 -6 -13t-13 -6h-45q-8 0 -14 5.5t-6 13.5v1362q0 8 6 13.5t14 5.5zM-10 1686q0 55 11.5 75.5t40.5 20.5t40.5 -20.5t11.5 -75.5t-11.5 -75.5t-40.5 -20.5t-40.5 20.5t-11.5 75.5zM302 1686q0 55 11.5 75.5t40.5 20.5t40.5 -20.5 t11.5 -75.5t-11.5 -75.5t-40.5 -20.5t-40.5 20.5t-11.5 75.5z" />
<glyph unicode="&#xd0;" horiz-adv-x="1006" d="M42 734h98v647q0 8 5.5 13.5t13.5 5.5h205q286 0 427 -172t141 -528t-141 -528t-427 -172h-205q-8 0 -13.5 5.5t-5.5 13.5v647h-98q-8 0 -14 5.5t-6 13.5v30q0 8 6 13.5t14 5.5zM848 700q0 322 -114 474t-368 152h-142v-592h265q8 0 13.5 -5.5t5.5 -13.5v-30 q0 -8 -5.5 -13.5t-13.5 -5.5h-265v-592h142q254 0 368 152t114 474z" />
<glyph unicode="&#xd1;" d="M785 21l-557 1265v-1267q0 -7 -6 -13t-13 -6h-46q-8 0 -13.5 5.5t-5.5 13.5v1362q0 8 5.5 13.5t13.5 5.5h81q22 0 31 -21l557 -1265v1267q0 7 6 13t13 6h46q8 0 13.5 -5.5t5.5 -13.5v-1362q0 -8 -5.5 -13.5t-13.5 -5.5h-81q-22 0 -31 21zM414 1820q45 0 77 -22.5 t59 -75.5q29 -56 48 -78t42 -22q33 0 50 40t18 135q0 8 5.5 13.5t13.5 5.5h32q19 0 19 -19q-2 -133 -35.5 -189t-96.5 -56q-45 0 -77 22.5t-59 75.5q-29 56 -48 78t-42 22q-33 0 -50 -40t-18 -135q0 -8 -5.5 -13.5t-13.5 -5.5h-32q-19 0 -19 19q2 133 35.5 189t96.5 56z" />
<glyph unicode="&#xd2;" horiz-adv-x="1044" d="M522 -24q-218 0 -333 186.5t-115 537.5q0 349 115 536.5t333 187.5t333 -187.5t115 -536.5q0 -351 -115 -537.5t-333 -186.5zM522 50q179 0 271.5 163.5t92.5 486.5t-92.5 486.5t-271.5 163.5t-271.5 -163.5t-92.5 -486.5t92.5 -486.5t271.5 -163.5zM424 1832l181 -284 q7 -10 3 -17t-17 -7h-29q-22 0 -32 16l-186 281q-8 11 -4.5 19t16.5 8h38q20 0 30 -16z" />
<glyph unicode="&#xd3;" horiz-adv-x="1044" d="M522 -24q-218 0 -333 186.5t-115 537.5q0 349 115 536.5t333 187.5t333 -187.5t115 -536.5q0 -351 -115 -537.5t-333 -186.5zM522 50q179 0 271.5 163.5t92.5 486.5t-92.5 486.5t-271.5 163.5t-271.5 -163.5t-92.5 -486.5t92.5 -486.5t271.5 -163.5zM425 1548l181 284 q10 16 30 16h38q13 0 16.5 -8t-4.5 -19l-186 -281q-10 -16 -32 -16h-29q-13 0 -17 7t3 17z" />
<glyph unicode="&#xd4;" horiz-adv-x="1044" d="M522 -24q-218 0 -333 186.5t-115 537.5q0 349 115 536.5t333 187.5t333 -187.5t115 -536.5q0 -351 -115 -537.5t-333 -186.5zM522 50q179 0 271.5 163.5t92.5 486.5t-92.5 486.5t-271.5 163.5t-271.5 -163.5t-92.5 -486.5t92.5 -486.5t271.5 -163.5zM484 1848h62 q17 0 26 -14l183 -285q7 -11 2.5 -18t-17.5 -7h-34q-19 0 -29 15l-162 247l-162 -247q-10 -15 -29 -15h-34q-13 0 -17.5 7t2.5 18l183 285q9 14 26 14z" />
<glyph unicode="&#xd5;" horiz-adv-x="1044" d="M522 -24q-218 0 -333 186.5t-115 537.5q0 349 115 536.5t333 187.5t333 -187.5t115 -536.5q0 -351 -115 -537.5t-333 -186.5zM522 50q179 0 271.5 163.5t92.5 486.5t-92.5 486.5t-271.5 163.5t-271.5 -163.5t-92.5 -486.5t92.5 -486.5t271.5 -163.5zM406 1820 q45 0 77 -22.5t59 -75.5q29 -56 48 -78t42 -22q33 0 50 40t18 135q0 8 5.5 13.5t13.5 5.5h32q19 0 19 -19q-2 -133 -35.5 -189t-96.5 -56q-45 0 -77 22.5t-59 75.5q-29 56 -48 78t-42 22q-33 0 -50 -40t-18 -135q0 -8 -5.5 -13.5t-13.5 -5.5h-32q-19 0 -19 19 q2 133 35.5 189t96.5 56z" />
<glyph unicode="&#xd6;" horiz-adv-x="1044" d="M522 -24q-218 0 -333 186.5t-115 537.5q0 349 115 536.5t333 187.5t333 -187.5t115 -536.5q0 -351 -115 -537.5t-333 -186.5zM522 50q179 0 271.5 163.5t92.5 486.5t-92.5 486.5t-271.5 163.5t-271.5 -163.5t-92.5 -486.5t92.5 -486.5t271.5 -163.5zM312 1686 q0 55 11.5 75.5t40.5 20.5t40.5 -20.5t11.5 -75.5t-11.5 -75.5t-40.5 -20.5t-40.5 20.5t-11.5 75.5zM624 1686q0 55 11.5 75.5t40.5 20.5t40.5 -20.5t11.5 -75.5t-11.5 -75.5t-40.5 -20.5t-40.5 20.5t-11.5 75.5z" />
<glyph unicode="&#xd7;" d="M525 724l311 322q13 14 27 0l29 -29q14 -13 0 -27l-312 -323l312 -323q14 -14 0 -27l-29 -29q-14 -14 -27 0l-311 322l-311 -322q-13 -14 -27 0l-29 29q-14 13 0 27l312 323l-312 323q-14 14 0 27l29 29q14 14 27 0z" />
<glyph unicode="&#xd8;" horiz-adv-x="1044" d="M522 -24q-140 0 -238 77l-102 -238q-7 -15 -24 -15h-36q-11 0 -15.5 6.5t-0.5 17.5l122 284q-154 183 -154 592q0 349 115 536.5t333 187.5q138 0 237 -78l103 239q7 15 24 15h36q11 0 15.5 -6.5t0.5 -17.5l-122 -285q154 -184 154 -591q0 -351 -115 -537.5t-333 -186.5z M522 50q179 0 271.5 163.5t92.5 486.5q0 344 -106 508l-464 -1080q82 -78 206 -78zM158 700q0 -345 105 -509l464 1081q-82 78 -205 78q-179 0 -271.5 -163.5t-92.5 -486.5z" />
<glyph unicode="&#xd9;" horiz-adv-x="1084" d="M856 480v901q0 8 5.5 13.5t13.5 5.5h46q8 0 13.5 -5.5t5.5 -13.5v-905q0 -260 -102 -380t-296 -120t-296 120t-102 380v905q0 8 5.5 13.5t13.5 5.5h46q8 0 13.5 -5.5t5.5 -13.5v-901q0 -229 78.5 -329.5t235.5 -100.5q156 0 235 101t79 329zM412 1832l181 -284 q7 -10 3 -17t-17 -7h-29q-22 0 -32 16l-186 281q-8 11 -4.5 19t16.5 8h38q20 0 30 -16z" />
<glyph unicode="&#xda;" horiz-adv-x="1084" d="M856 480v901q0 8 5.5 13.5t13.5 5.5h46q8 0 13.5 -5.5t5.5 -13.5v-905q0 -260 -102 -380t-296 -120t-296 120t-102 380v905q0 8 5.5 13.5t13.5 5.5h46q8 0 13.5 -5.5t5.5 -13.5v-901q0 -229 78.5 -329.5t235.5 -100.5q156 0 235 101t79 329zM471 1548l181 284 q10 16 30 16h38q13 0 16.5 -8t-4.5 -19l-186 -281q-10 -16 -32 -16h-29q-13 0 -17 7t3 17z" />
<glyph unicode="&#xdb;" horiz-adv-x="1084" d="M856 480v901q0 8 5.5 13.5t13.5 5.5h46q8 0 13.5 -5.5t5.5 -13.5v-905q0 -260 -102 -380t-296 -120t-296 120t-102 380v905q0 8 5.5 13.5t13.5 5.5h46q8 0 13.5 -5.5t5.5 -13.5v-901q0 -229 78.5 -329.5t235.5 -100.5q156 0 235 101t79 329zM504 1848h62q17 0 26 -14 l183 -285q7 -11 2.5 -18t-17.5 -7h-34q-19 0 -29 15l-162 247l-162 -247q-10 -15 -29 -15h-34q-13 0 -17.5 7t2.5 18l183 285q9 14 26 14z" />
<glyph unicode="&#xdc;" horiz-adv-x="1084" d="M856 480v901q0 8 5.5 13.5t13.5 5.5h46q8 0 13.5 -5.5t5.5 -13.5v-905q0 -260 -102 -380t-296 -120t-296 120t-102 380v905q0 8 5.5 13.5t13.5 5.5h46q8 0 13.5 -5.5t5.5 -13.5v-901q0 -229 78.5 -329.5t235.5 -100.5q156 0 235 101t79 329zM334 1686q0 55 11.5 75.5 t40.5 20.5t40.5 -20.5t11.5 -75.5t-11.5 -75.5t-40.5 -20.5t-40.5 20.5t-11.5 75.5zM646 1686q0 55 11.5 75.5t40.5 20.5t40.5 -20.5t11.5 -75.5t-11.5 -75.5t-40.5 -20.5t-40.5 20.5t-11.5 75.5z" />
<glyph unicode="&#xdd;" horiz-adv-x="956" d="M126 1382l346 -734l346 734q8 18 31 18h39q11 0 15.5 -8t-0.5 -19l-389 -817v-537q0 -7 -6 -13t-13 -6h-46q-8 0 -13.5 5.5t-5.5 13.5v537l-389 817q-5 11 -0.5 19t15.5 8h39q23 0 31 -18zM399 1548l181 284q10 16 30 16h38q13 0 16.5 -8t-4.5 -19l-186 -281 q-10 -16 -32 -16h-29q-13 0 -17 7t3 17z" />
<glyph unicode="&#xde;" horiz-adv-x="886" d="M228 290v-271q0 -8 -5.5 -13.5t-13.5 -5.5h-46q-7 0 -13 6t-6 13v1362q0 7 6 13t13 6h46q8 0 13.5 -5.5t5.5 -13.5v-251h178q191 0 300.5 -108.5t109.5 -311.5q0 -205 -109.5 -312.5t-300.5 -107.5h-178zM732 710q0 171 -85.5 258.5t-238.5 87.5h-180v-694h180 q153 0 238.5 88t85.5 260z" />
<glyph unicode="&#xdf;" horiz-adv-x="914" d="M406 695q-18 0 -18 19v35q0 19 18 19q146 4 221 80.5t75 215.5q0 124 -62.5 205t-171.5 81q-240 0 -240 -338v-993q0 -7 -6 -13t-13 -6h-46q-7 0 -13 6t-6 13v985q0 211 84 315.5t240 104.5q144 0 231 -98t87 -260q0 -136 -63 -220t-175 -112q129 -30 205.5 -127.5 t76.5 -260.5q0 -174 -85.5 -272t-244.5 -98q-94 0 -172 33q-15 6 -14 24l4 36q3 23 27 12q66 -31 147 -31q126 0 190 80t64 216q0 163 -88.5 253t-251.5 96z" />
<glyph unicode="&#xe0;" horiz-adv-x="784" d="M356 44q155 0 238 130v370h-204q-122 0 -188 -68t-66 -186q0 -119 60 -182.5t160 -63.5zM148 1009q104 51 232 51q149 0 222.5 -72.5t73.5 -231.5v-737q0 -7 -6 -13t-13 -6h-44q-7 0 -13 6t-6 13v65q-80 -108 -252 -108q-126 0 -207 81t-81 231q0 153 87.5 238.5 t246.5 85.5h206v136q0 132 -51 187t-167 55q-108 0 -208 -46q-11 -5 -20 -1t-10 16l-3 27q-2 16 13 23zM312 1484l181 -284q7 -10 3 -17t-17 -7h-29q-22 0 -32 16l-186 281q-8 11 -4.5 19t16.5 8h38q20 0 30 -16z" />
<glyph unicode="&#xe1;" horiz-adv-x="784" d="M356 44q155 0 238 130v370h-204q-122 0 -188 -68t-66 -186q0 -119 60 -182.5t160 -63.5zM148 1009q104 51 232 51q149 0 222.5 -72.5t73.5 -231.5v-737q0 -7 -6 -13t-13 -6h-44q-7 0 -13 6t-6 13v65q-80 -108 -252 -108q-126 0 -207 81t-81 231q0 153 87.5 238.5 t246.5 85.5h206v136q0 132 -51 187t-167 55q-108 0 -208 -46q-11 -5 -20 -1t-10 16l-3 27q-2 16 13 23zM323 1200l181 284q10 16 30 16h38q13 0 16.5 -8t-4.5 -19l-186 -281q-10 -16 -32 -16h-29q-13 0 -17 7t3 17z" />
<glyph unicode="&#xe2;" horiz-adv-x="784" d="M356 44q155 0 238 130v370h-204q-122 0 -188 -68t-66 -186q0 -119 60 -182.5t160 -63.5zM148 1009q104 51 232 51q149 0 222.5 -72.5t73.5 -231.5v-737q0 -7 -6 -13t-13 -6h-44q-7 0 -13 6t-6 13v65q-80 -108 -252 -108q-126 0 -207 81t-81 231q0 153 87.5 238.5 t246.5 85.5h206v136q0 132 -51 187t-167 55q-108 0 -208 -46q-11 -5 -20 -1t-10 16l-3 27q-2 16 13 23zM352 1500h62q17 0 26 -14l183 -285q7 -11 2.5 -18t-17.5 -7h-34q-19 0 -29 15l-162 247l-162 -247q-10 -15 -29 -15h-34q-13 0 -17.5 7t2.5 18l183 285q9 14 26 14z" />
<glyph unicode="&#xe3;" horiz-adv-x="784" d="M356 44q155 0 238 130v370h-204q-122 0 -188 -68t-66 -186q0 -119 60 -182.5t160 -63.5zM148 1009q104 51 232 51q149 0 222.5 -72.5t73.5 -231.5v-737q0 -7 -6 -13t-13 -6h-44q-7 0 -13 6t-6 13v65q-80 -108 -252 -108q-126 0 -207 81t-81 231q0 153 87.5 238.5 t246.5 85.5h206v136q0 132 -51 187t-167 55q-108 0 -208 -46q-11 -5 -20 -1t-10 16l-3 27q-2 16 13 23zM270 1472q45 0 77 -22.5t59 -75.5q29 -56 48 -78t42 -22q33 0 50 40t18 135q0 8 5.5 13.5t13.5 5.5h32q19 0 19 -19q-2 -133 -35.5 -189t-96.5 -56q-45 0 -77 22.5 t-59 75.5q-29 56 -48 78t-42 22q-33 0 -50 -40t-18 -135q0 -8 -5.5 -13.5t-13.5 -5.5h-32q-19 0 -19 19q2 133 35.5 189t96.5 56z" />
<glyph unicode="&#xe4;" horiz-adv-x="784" d="M356 44q155 0 238 130v370h-204q-122 0 -188 -68t-66 -186q0 -119 60 -182.5t160 -63.5zM148 1009q104 51 232 51q149 0 222.5 -72.5t73.5 -231.5v-737q0 -7 -6 -13t-13 -6h-44q-7 0 -13 6t-6 13v65q-80 -108 -252 -108q-126 0 -207 81t-81 231q0 153 87.5 238.5 t246.5 85.5h206v136q0 132 -51 187t-167 55q-108 0 -208 -46q-11 -5 -20 -1t-10 16l-3 27q-2 16 13 23zM182 1336q0 55 11.5 75.5t40.5 20.5t40.5 -20.5t11.5 -75.5t-11.5 -75.5t-40.5 -20.5t-40.5 20.5t-11.5 75.5zM494 1336q0 55 11.5 75.5t40.5 20.5t40.5 -20.5 t11.5 -75.5t-11.5 -75.5t-40.5 -20.5t-40.5 20.5t-11.5 75.5z" />
<glyph unicode="&#xe5;" horiz-adv-x="784" d="M356 44q155 0 238 130v370h-204q-122 0 -188 -68t-66 -186q0 -119 60 -182.5t160 -63.5zM148 1009q104 51 232 51q149 0 222.5 -72.5t73.5 -231.5v-737q0 -7 -6 -13t-13 -6h-44q-7 0 -13 6t-6 13v65q-80 -108 -252 -108q-126 0 -207 81t-81 231q0 153 87.5 238.5 t246.5 85.5h206v136q0 132 -51 187t-167 55q-108 0 -208 -46q-11 -5 -20 -1t-10 16l-3 27q-2 16 13 23zM390 1540q85 0 143.5 -59t58.5 -143t-58.5 -143t-143.5 -59t-143.5 59t-58.5 143t58.5 143t143.5 59zM390 1196q58 0 98 41t40 101t-40 101t-98 41t-98 -41t-40 -101 t40 -101t98 -41z" />
<glyph unicode="&#xe6;" horiz-adv-x="1236" d="M1086 87q11 6 18.5 2.5t8.5 -13.5l3 -33q1 -17 -15 -26q-79 -41 -179 -41q-227 0 -314 216q-39 -111 -113 -163.5t-169 -52.5q-124 0 -198 80t-74 232q0 155 80.5 239.5t237.5 84.5h180v136q0 136 -40 189t-152 53q-100 0 -192 -46q-11 -6 -20 -1.5t-10 16.5l-3 27 q-2 16 13 23q104 51 222 51q207 0 242 -182q70 182 252 182q155 0 235.5 -134.5t80.5 -389.5q0 -16 -1 -25t-8 -16t-19 -7h-518q5 -223 74.5 -332.5t219.5 -109.5q86 0 158 41zM340 44q89 0 150.5 71.5t61.5 182.5v246h-178q-121 0 -179.5 -67t-58.5 -187q0 -121 53 -183.5 t151 -62.5zM864 990q-118 0 -172.5 -106.5t-57.5 -327.5h462q0 434 -232 434z" />
<glyph unicode="&#xe7;" horiz-adv-x="724" d="M391 -172q-22 5 -13 29l47 122q-168 18 -264.5 156.5t-96.5 382.5q0 260 111.5 401t296.5 141q88 0 171 -34q16 -7 15 -24l-3 -31q-1 -10 -9 -13.5t-18 1.5q-66 31 -152 31q-150 0 -240 -119.5t-90 -352.5q0 -236 91.5 -354t246.5 -118q84 0 153 31q10 5 18 1.5t9 -13.5 l3 -31q1 -17 -15 -24q-62 -30 -150 -33l-44 -109q66 -22 105 -69t39 -113q0 -73 -50.5 -117.5t-131.5 -44.5q-41 0 -69 9q-15 5 -15 20v29q0 19 20 13q27 -9 56 -9q51 0 83.5 27.5t32.5 74.5q0 110 -137 140z" />
<glyph unicode="&#xe8;" horiz-adv-x="794" d="M402 990q-121 0 -186 -109t-68 -325h506q0 210 -66.5 322t-185.5 112zM710 488h-562q5 -218 85 -330t233 -112q100 0 178 42q11 5 18.5 1.5t8.5 -13.5l3 -33q1 -19 -15 -26q-87 -41 -199 -41q-191 0 -293.5 141t-102.5 405t89.5 401t248.5 137q158 0 247 -136.5 t89 -387.5q0 -16 -1 -25t-8 -16t-19 -7zM296 1484l181 -284q7 -10 3 -17t-17 -7h-29q-22 0 -32 16l-186 281q-8 11 -4.5 19t16.5 8h38q20 0 30 -16z" />
<glyph unicode="&#xe9;" horiz-adv-x="794" d="M402 990q-121 0 -186 -109t-68 -325h506q0 210 -66.5 322t-185.5 112zM710 488h-562q5 -218 85 -330t233 -112q100 0 178 42q11 5 18.5 1.5t8.5 -13.5l3 -33q1 -19 -15 -26q-87 -41 -199 -41q-191 0 -293.5 141t-102.5 405t89.5 401t248.5 137q158 0 247 -136.5 t89 -387.5q0 -16 -1 -25t-8 -16t-19 -7zM289 1200l181 284q10 16 30 16h38q13 0 16.5 -8t-4.5 -19l-186 -281q-10 -16 -32 -16h-29q-13 0 -17 7t3 17z" />
<glyph unicode="&#xea;" horiz-adv-x="794" d="M402 990q-121 0 -186 -109t-68 -325h506q0 210 -66.5 322t-185.5 112zM710 488h-562q5 -218 85 -330t233 -112q100 0 178 42q11 5 18.5 1.5t8.5 -13.5l3 -33q1 -19 -15 -26q-87 -41 -199 -41q-191 0 -293.5 141t-102.5 405t89.5 401t248.5 137q158 0 247 -136.5 t89 -387.5q0 -16 -1 -25t-8 -16t-19 -7zM356 1500h62q17 0 26 -14l183 -285q7 -11 2.5 -18t-17.5 -7h-34q-19 0 -29 15l-162 247l-162 -247q-10 -15 -29 -15h-34q-13 0 -17.5 7t2.5 18l183 285q9 14 26 14z" />
<glyph unicode="&#xeb;" horiz-adv-x="794" d="M402 990q-121 0 -186 -109t-68 -325h506q0 210 -66.5 322t-185.5 112zM710 488h-562q5 -218 85 -330t233 -112q100 0 178 42q11 5 18.5 1.5t8.5 -13.5l3 -33q1 -19 -15 -26q-87 -41 -199 -41q-191 0 -293.5 141t-102.5 405t89.5 401t248.5 137q158 0 247 -136.5 t89 -387.5q0 -16 -1 -25t-8 -16t-19 -7zM186 1336q0 55 11.5 75.5t40.5 20.5t40.5 -20.5t11.5 -75.5t-11.5 -75.5t-40.5 -20.5t-40.5 20.5t-11.5 75.5zM498 1336q0 55 11.5 75.5t40.5 20.5t40.5 -20.5t11.5 -75.5t-11.5 -75.5t-40.5 -20.5t-40.5 20.5t-11.5 75.5z" />
<glyph unicode="&#xec;" horiz-adv-x="332" d="M124 19v998q0 8 6 13.5t14 5.5h43q8 0 13.5 -5.5t5.5 -13.5v-998q0 -8 -5.5 -13.5t-13.5 -5.5h-43q-8 0 -14 5.5t-6 13.5zM22 1484l181 -284q7 -10 3 -17t-17 -7h-29q-22 0 -32 16l-186 281q-8 11 -4.5 19t16.5 8h38q20 0 30 -16z" />
<glyph unicode="&#xed;" horiz-adv-x="332" d="M124 19v998q0 8 6 13.5t14 5.5h43q8 0 13.5 -5.5t5.5 -13.5v-998q0 -8 -5.5 -13.5t-13.5 -5.5h-43q-8 0 -14 5.5t-6 13.5zM113 1200l181 284q10 16 30 16h38q13 0 16.5 -8t-4.5 -19l-186 -281q-10 -16 -32 -16h-29q-13 0 -17 7t3 17z" />
<glyph unicode="&#xee;" horiz-adv-x="332" d="M124 19v998q0 8 6 13.5t14 5.5h43q8 0 13.5 -5.5t5.5 -13.5v-998q0 -8 -5.5 -13.5t-13.5 -5.5h-43q-8 0 -14 5.5t-6 13.5zM128 1500h62q17 0 26 -14l183 -285q7 -11 2.5 -18t-17.5 -7h-34q-19 0 -29 15l-162 247l-162 -247q-10 -15 -29 -15h-34q-13 0 -17.5 7t2.5 18 l183 285q9 14 26 14z" />
<glyph unicode="&#xef;" horiz-adv-x="332" d="M124 19v998q0 8 6 13.5t14 5.5h43q8 0 13.5 -5.5t5.5 -13.5v-998q0 -8 -5.5 -13.5t-13.5 -5.5h-43q-8 0 -14 5.5t-6 13.5zM-42 1336q0 55 11.5 75.5t40.5 20.5t40.5 -20.5t11.5 -75.5t-11.5 -75.5t-40.5 -20.5t-40.5 20.5t-11.5 75.5zM270 1336q0 55 11.5 75.5t40.5 20.5 t40.5 -20.5t11.5 -75.5t-11.5 -75.5t-40.5 -20.5t-40.5 20.5t-11.5 75.5z" />
<glyph unicode="&#xf0;" horiz-adv-x="798" d="M253 1380q-20 6 -18 25l3 35q1 10 8 14t16 1q170 -52 278 -175l154 61q19 7 25 -12l11 -33q5 -16 -12 -23l-132 -53q154 -216 154 -574q0 -314 -90 -492t-266 -178q-149 0 -234.5 130.5t-85.5 371.5q0 239 86 370.5t240 131.5q71 0 141 -38.5t111 -93.5q-32 211 -128 344 l-306 -121q-19 -7 -25 12l-11 33q-5 16 12 23l282 111q-90 93 -213 130zM400 910q-252 0 -252 -432q0 -208 59 -320t177 -112q272 0 272 600q0 56 -2 84q-39 76 -109.5 128t-144.5 52z" />
<glyph unicode="&#xf1;" horiz-adv-x="844" d="M740 658v-639q0 -7 -6 -13t-13 -6h-44q-7 0 -13 6t-6 13v607q0 185 -54.5 274.5t-169.5 89.5q-73 0 -135.5 -35.5t-102.5 -102.5v-833q0 -7 -6 -13t-13 -6h-44q-7 0 -13 6t-6 13v998q0 7 6 13t13 6h44q7 0 13 -6t6 -13v-75q97 118 252 118q140 0 216 -102t76 -300z M310 1472q45 0 77 -22.5t59 -75.5q29 -56 48 -78t42 -22q33 0 50 40t18 135q0 8 5.5 13.5t13.5 5.5h32q19 0 19 -19q-2 -133 -35.5 -189t-96.5 -56q-45 0 -77 22.5t-59 75.5q-29 56 -48 78t-42 22q-33 0 -50 -40t-18 -135q0 -8 -5.5 -13.5t-13.5 -5.5h-32q-19 0 -19 19 q2 133 35.5 189t96.5 56z" />
<glyph unicode="&#xf2;" horiz-adv-x="840" d="M420 1060q165 0 260.5 -139t95.5 -403t-95.5 -403t-260.5 -139t-260.5 139t-95.5 403t95.5 403t260.5 139zM420 46q126 0 200 118.5t74 353.5t-74 353.5t-200 118.5t-200 -118.5t-74 -353.5t74 -353.5t200 -118.5zM314 1484l181 -284q7 -10 3 -17t-17 -7h-29 q-22 0 -32 16l-186 281q-8 11 -4.5 19t16.5 8h38q20 0 30 -16z" />
<glyph unicode="&#xf3;" horiz-adv-x="840" d="M420 1060q165 0 260.5 -139t95.5 -403t-95.5 -403t-260.5 -139t-260.5 139t-95.5 403t95.5 403t260.5 139zM420 46q126 0 200 118.5t74 353.5t-74 353.5t-200 118.5t-200 -118.5t-74 -353.5t74 -353.5t200 -118.5zM331 1200l181 284q10 16 30 16h38q13 0 16.5 -8 t-4.5 -19l-186 -281q-10 -16 -32 -16h-29q-13 0 -17 7t3 17z" />
<glyph unicode="&#xf4;" horiz-adv-x="840" d="M420 1060q165 0 260.5 -139t95.5 -403t-95.5 -403t-260.5 -139t-260.5 139t-95.5 403t95.5 403t260.5 139zM420 46q126 0 200 118.5t74 353.5t-74 353.5t-200 118.5t-200 -118.5t-74 -353.5t74 -353.5t200 -118.5zM382 1500h62q17 0 26 -14l183 -285q7 -11 2.5 -18 t-17.5 -7h-34q-19 0 -29 15l-162 247l-162 -247q-10 -15 -29 -15h-34q-13 0 -17.5 7t2.5 18l183 285q9 14 26 14z" />
<glyph unicode="&#xf5;" horiz-adv-x="840" d="M420 1060q165 0 260.5 -139t95.5 -403t-95.5 -403t-260.5 -139t-260.5 139t-95.5 403t95.5 403t260.5 139zM420 46q126 0 200 118.5t74 353.5t-74 353.5t-200 118.5t-200 -118.5t-74 -353.5t74 -353.5t200 -118.5zM302 1472q45 0 77 -22.5t59 -75.5q29 -56 48 -78t42 -22 q33 0 50 40t18 135q0 8 5.5 13.5t13.5 5.5h32q19 0 19 -19q-2 -133 -35.5 -189t-96.5 -56q-45 0 -77 22.5t-59 75.5q-29 56 -48 78t-42 22q-33 0 -50 -40t-18 -135q0 -8 -5.5 -13.5t-13.5 -5.5h-32q-19 0 -19 19q2 133 35.5 189t96.5 56z" />
<glyph unicode="&#xf6;" horiz-adv-x="840" d="M420 1060q165 0 260.5 -139t95.5 -403t-95.5 -403t-260.5 -139t-260.5 139t-95.5 403t95.5 403t260.5 139zM420 46q126 0 200 118.5t74 353.5t-74 353.5t-200 118.5t-200 -118.5t-74 -353.5t74 -353.5t200 -118.5zM212 1336q0 55 11.5 75.5t40.5 20.5t40.5 -20.5 t11.5 -75.5t-11.5 -75.5t-40.5 -20.5t-40.5 20.5t-11.5 75.5zM524 1336q0 55 11.5 75.5t40.5 20.5t40.5 -20.5t11.5 -75.5t-11.5 -75.5t-40.5 -20.5t-40.5 20.5t-11.5 75.5z" />
<glyph unicode="&#xf7;" d="M476 262q0 56 12.5 77t41.5 21t41.5 -21t12.5 -77t-12.5 -77t-41.5 -21t-41.5 21t-12.5 77zM476 1066q0 56 12.5 77t41.5 21t41.5 -21t12.5 -77t-12.5 -77t-41.5 -21t-41.5 21t-12.5 77zM103 702h853q8 0 14 -5.5t6 -13.5v-38q0 -8 -6 -13.5t-14 -5.5h-853 q-8 0 -13.5 5.5t-5.5 13.5v38q0 7 6 13t13 6z" />
<glyph unicode="&#xf8;" horiz-adv-x="840" d="M765 1232l-117 -272q126 -142 126 -442q0 -264 -95.5 -403t-260.5 -139q-97 0 -172 49l-99 -230q-7 -15 -24 -15h-36q-11 0 -15.5 6.5t-0.5 17.5l117 272q-126 139 -126 442q0 264 95.5 403t260.5 139q96 0 172 -50l99 231q7 15 24 15h36q11 0 15.5 -6.5t0.5 -17.5z M418 46q126 0 200 118.5t74 353.5q0 239 -79 361l-337 -784q59 -49 142 -49zM144 518q0 -240 78 -362l338 784q-60 50 -142 50q-126 0 -200 -118.5t-74 -353.5z" />
<glyph unicode="&#xf9;" horiz-adv-x="844" d="M104 378v639q0 7 6 13t13 6h44q7 0 13 -6t6 -13v-607q0 -185 54.5 -274.5t169.5 -89.5q73 0 135.5 35.5t102.5 102.5v833q0 7 6 13t13 6h44q7 0 13 -6t6 -13v-998q0 -7 -6 -13t-13 -6h-44q-7 0 -13 6t-6 13v75q-97 -118 -252 -118q-140 0 -216 102t-76 300zM298 1484 l181 -284q7 -10 3 -17t-17 -7h-29q-22 0 -32 16l-186 281q-8 11 -4.5 19t16.5 8h38q20 0 30 -16z" />
<glyph unicode="&#xfa;" horiz-adv-x="844" d="M104 378v639q0 7 6 13t13 6h44q7 0 13 -6t6 -13v-607q0 -185 54.5 -274.5t169.5 -89.5q73 0 135.5 35.5t102.5 102.5v833q0 7 6 13t13 6h44q7 0 13 -6t6 -13v-998q0 -7 -6 -13t-13 -6h-44q-7 0 -13 6t-6 13v75q-97 -118 -252 -118q-140 0 -216 102t-76 300zM337 1200 l181 284q10 16 30 16h38q13 0 16.5 -8t-4.5 -19l-186 -281q-10 -16 -32 -16h-29q-13 0 -17 7t3 17z" />
<glyph unicode="&#xfb;" horiz-adv-x="844" d="M104 378v639q0 7 6 13t13 6h44q7 0 13 -6t6 -13v-607q0 -185 54.5 -274.5t169.5 -89.5q73 0 135.5 35.5t102.5 102.5v833q0 7 6 13t13 6h44q7 0 13 -6t6 -13v-998q0 -7 -6 -13t-13 -6h-44q-7 0 -13 6t-6 13v75q-97 -118 -252 -118q-140 0 -216 102t-76 300zM378 1500h62 q17 0 26 -14l183 -285q7 -11 2.5 -18t-17.5 -7h-34q-19 0 -29 15l-162 247l-162 -247q-10 -15 -29 -15h-34q-13 0 -17.5 7t2.5 18l183 285q9 14 26 14z" />
<glyph unicode="&#xfc;" horiz-adv-x="844" d="M104 378v639q0 7 6 13t13 6h44q7 0 13 -6t6 -13v-607q0 -185 54.5 -274.5t169.5 -89.5q73 0 135.5 35.5t102.5 102.5v833q0 7 6 13t13 6h44q7 0 13 -6t6 -13v-998q0 -7 -6 -13t-13 -6h-44q-7 0 -13 6t-6 13v75q-97 -118 -252 -118q-140 0 -216 102t-76 300zM208 1336 q0 55 11.5 75.5t40.5 20.5t40.5 -20.5t11.5 -75.5t-11.5 -75.5t-40.5 -20.5t-40.5 20.5t-11.5 75.5zM520 1336q0 55 11.5 75.5t40.5 20.5t40.5 -20.5t11.5 -75.5t-11.5 -75.5t-40.5 -20.5t-40.5 20.5t-11.5 75.5z" />
<glyph unicode="&#xfd;" horiz-adv-x="764" d="M235 -359l108 363l-314 1005q-8 27 16 27h42q20 0 27 -22l269 -884l261 884q6 22 26 22h43q24 0 16 -27l-409 -1373q-7 -22 -27 -22h-42q-24 0 -16 27zM303 1200l181 284q10 16 30 16h38q13 0 16.5 -8t-4.5 -19l-186 -281q-10 -16 -32 -16h-29q-13 0 -17 7t3 17z" />
<glyph unicode="&#xfe;" horiz-adv-x="824" d="M196 86v-453q0 -7 -6 -13t-13 -6h-44q-7 0 -13 6t-6 13v1807q0 8 5.5 14t13.5 6h44q8 0 13.5 -6t5.5 -14v-492q42 53 100.5 82.5t121.5 29.5q159 0 250.5 -136.5t91.5 -405.5t-91.5 -405.5t-250.5 -136.5q-62 0 -121 29.5t-101 80.5zM676 518q0 237 -72 354.5t-200 117.5 q-59 0 -114.5 -33t-93.5 -95v-690q38 -62 93.5 -95t114.5 -33q127 0 199.5 118.5t72.5 355.5z" />
<glyph unicode="&#xff;" horiz-adv-x="764" d="M235 -359l108 363l-314 1005q-8 27 16 27h42q20 0 27 -22l269 -884l261 884q6 22 26 22h43q24 0 16 -27l-409 -1373q-7 -22 -27 -22h-42q-24 0 -16 27zM174 1336q0 55 11.5 75.5t40.5 20.5t40.5 -20.5t11.5 -75.5t-11.5 -75.5t-40.5 -20.5t-40.5 20.5t-11.5 75.5z M486 1336q0 55 11.5 75.5t40.5 20.5t40.5 -20.5t11.5 -75.5t-11.5 -75.5t-40.5 -20.5t-40.5 20.5t-11.5 75.5z" />
<glyph unicode="&#x152;" horiz-adv-x="1216" d="M682 74h449q8 0 13.5 -6t5.5 -14v-35q0 -7 -6 -13t-13 -6h-531q-243 0 -384.5 184.5t-141.5 515.5q0 330 142 515t384 185h516q8 0 14 -5.5t6 -13.5v-35q0 -8 -5.5 -14t-11.5 -6h-437v-566h396q8 0 14 -5.5t6 -13.5v-35q0 -8 -5.5 -14t-11.5 -6h-399v-612zM598 74v1252 q-210 -17 -325 -172.5t-115 -453.5q0 -299 114.5 -454t325.5 -172z" />
<glyph unicode="&#x153;" horiz-adv-x="1298" d="M380 46q121 0 177.5 114t56.5 358t-56.5 358t-177.5 114t-177.5 -114t-56.5 -358t56.5 -358t177.5 -114zM926 990q-118 0 -172.5 -106.5t-57.5 -327.5h462q0 434 -232 434zM1163 17q-73 -41 -179 -41q-130 0 -208.5 62t-121.5 178q-35 -121 -101.5 -180.5t-172.5 -59.5 q-316 0 -316 542t316 542q203 0 272 -232q34 114 106.5 173t167.5 59q155 0 235.5 -134.5t80.5 -389.5q0 -16 -1 -25t-8 -16t-19 -7h-518q5 -223 74.5 -332.5t219.5 -109.5q93 0 158 41q11 6 18.5 2.5t8.5 -13.5l3 -33q1 -17 -15 -26z" />
<glyph unicode="&#x178;" horiz-adv-x="956" d="M126 1382l346 -734l346 734q8 18 31 18h39q11 0 15.5 -8t-0.5 -19l-389 -817v-537q0 -7 -6 -13t-13 -6h-46q-8 0 -13.5 5.5t-5.5 13.5v537l-389 817q-5 11 -0.5 19t15.5 8h39q23 0 31 -18zM270 1686q0 55 11.5 75.5t40.5 20.5t40.5 -20.5t11.5 -75.5t-11.5 -75.5 t-40.5 -20.5t-40.5 20.5t-11.5 75.5zM582 1686q0 55 11.5 75.5t40.5 20.5t40.5 -20.5t11.5 -75.5t-11.5 -75.5t-40.5 -20.5t-40.5 20.5t-11.5 75.5z" />
<glyph unicode="&#x2c6;" horiz-adv-x="620" d="M272 1460h62q17 0 26 -14l183 -285q7 -11 2.5 -18t-17.5 -7h-34q-19 0 -29 15l-162 247l-162 -247q-10 -15 -29 -15h-34q-13 0 -17.5 7t2.5 18l183 285q9 14 26 14z" />
<glyph unicode="&#x2dc;" horiz-adv-x="620" d="M194 1434q45 0 77 -22.5t59 -75.5q29 -56 48 -78t42 -22q33 0 50 40t18 135q0 8 5.5 13.5t13.5 5.5h32q19 0 19 -19q-2 -133 -35.5 -189t-96.5 -56q-45 0 -77 22.5t-59 75.5q-29 56 -48 78t-42 22q-33 0 -50 -40t-18 -135q0 -8 -5.5 -13.5t-13.5 -5.5h-32q-19 0 -19 19 q2 133 35.5 189t96.5 56z" />
<glyph unicode="&#x2000;" horiz-adv-x="942" />
<glyph unicode="&#x2001;" horiz-adv-x="1884" />
<glyph unicode="&#x2002;" horiz-adv-x="942" />
<glyph unicode="&#x2003;" horiz-adv-x="1884" />
<glyph unicode="&#x2004;" horiz-adv-x="628" />
<glyph unicode="&#x2005;" horiz-adv-x="471" />
<glyph unicode="&#x2006;" horiz-adv-x="314" />
<glyph unicode="&#x2007;" horiz-adv-x="314" />
<glyph unicode="&#x2008;" horiz-adv-x="235" />
<glyph unicode="&#x2009;" horiz-adv-x="376" />
<glyph unicode="&#x200a;" horiz-adv-x="104" />
<glyph unicode="&#x2010;" horiz-adv-x="712" d="M588 624h-465q-7 0 -13 6t-6 13v42q0 7 6 13t13 6h465q8 0 14 -5.5t6 -13.5v-42q0 -8 -6 -13.5t-14 -5.5z" />
<glyph unicode="&#x2011;" horiz-adv-x="712" d="M588 624h-465q-7 0 -13 6t-6 13v42q0 7 6 13t13 6h465q8 0 14 -5.5t6 -13.5v-42q0 -8 -6 -13.5t-14 -5.5z" />
<glyph unicode="&#x2012;" horiz-adv-x="712" d="M588 624h-465q-7 0 -13 6t-6 13v42q0 7 6 13t13 6h465q8 0 14 -5.5t6 -13.5v-42q0 -8 -6 -13.5t-14 -5.5z" />
<glyph unicode="&#x2013;" horiz-adv-x="1000" d="M981 626h-961q-8 0 -14 5.5t-6 13.5v38q0 8 6 13.5t14 5.5h961q7 0 13 -6t6 -13v-38q0 -8 -5.5 -13.5t-13.5 -5.5z" />
<glyph unicode="&#x2014;" horiz-adv-x="2000" d="M1981 626h-1961q-8 0 -14 5.5t-6 13.5v38q0 8 6 13.5t14 5.5h1961q7 0 13 -6t6 -13v-38q0 -8 -5.5 -13.5t-13.5 -5.5z" />
<glyph unicode="&#x2018;" horiz-adv-x="436" d="M299 1464q-59 -72 -65 -158q38 -13 38 -96q0 -56 -12.5 -77t-41.5 -21t-41.5 20.5t-12.5 69.5q0 95 19.5 162t75.5 135q12 15 24 1l15 -18q8 -9 1 -18z" />
<glyph unicode="&#x2019;" horiz-adv-x="436" d="M135 1162q59 72 65 158q-38 13 -38 96q0 56 12.5 77t41.5 21t41.5 -20.5t12.5 -69.5q0 -95 -19.5 -162t-75.5 -135q-12 -15 -24 -1l-15 18q-8 9 -1 18z" />
<glyph unicode="&#x201a;" horiz-adv-x="436" d="M135 -182q59 72 65 158q-38 13 -38 96q0 56 12.5 77t41.5 21t41.5 -20.5t12.5 -69.5q0 -95 -19.5 -162t-75.5 -135q-12 -15 -24 -1l-15 18q-8 9 -1 18z" />
<glyph unicode="&#x201c;" horiz-adv-x="630" d="M493 1464q-59 -72 -65 -158q38 -13 38 -96q0 -56 -12.5 -77t-41.5 -21t-41.5 20.5t-12.5 69.5q0 95 19.5 162t75.5 135q12 15 24 1l15 -18q8 -9 1 -18zM299 1464q-59 -72 -65 -158q38 -13 38 -96q0 -56 -12.5 -77t-41.5 -21t-41.5 20.5t-12.5 69.5q0 95 19.5 162 t75.5 135q12 15 24 1l15 -18q8 -9 1 -18z" />
<glyph unicode="&#x201d;" horiz-adv-x="630" d="M329 1162q59 72 65 158q-38 13 -38 96q0 56 12.5 77t41.5 21t41.5 -20.5t12.5 -69.5q0 -95 -19.5 -162t-75.5 -135q-12 -15 -24 -1l-15 18q-8 9 -1 18zM135 1162q59 72 65 158q-38 13 -38 96q0 56 12.5 77t41.5 21t41.5 -20.5t12.5 -69.5q0 -95 -19.5 -162t-75.5 -135 q-12 -15 -24 -1l-15 18q-8 9 -1 18z" />
<glyph unicode="&#x201e;" horiz-adv-x="630" d="M329 -180q59 72 65 158q-38 13 -38 96q0 56 12.5 77t41.5 21t41.5 -20.5t12.5 -69.5q0 -95 -19.5 -162t-75.5 -135q-12 -15 -24 -1l-15 18q-8 9 -1 18zM135 -180q59 72 65 158q-38 13 -38 96q0 56 12.5 77t41.5 21t41.5 -20.5t12.5 -69.5q0 -95 -19.5 -162t-75.5 -135 q-12 -15 -24 -1l-15 18q-8 9 -1 18z" />
<glyph unicode="&#x2022;" horiz-adv-x="552" d="M138 664q0 84 34 122t104 38t104 -38t34 -122t-34 -122t-104 -38t-104 38t-34 122z" />
<glyph unicode="&#x2026;" horiz-adv-x="1216" d="M554 72q0 56 12.5 77t41.5 21t41.5 -21t12.5 -77t-12.5 -77t-41.5 -21t-41.5 21t-12.5 77zM944 72q0 56 12.5 77t41.5 21t41.5 -21t12.5 -77t-12.5 -77t-41.5 -21t-41.5 21t-12.5 77zM164 72q0 56 12.5 77t41.5 21t41.5 -21t12.5 -77t-12.5 -77t-41.5 -21t-41.5 21 t-12.5 77z" />
<glyph unicode="&#x202f;" horiz-adv-x="376" />
<glyph unicode="&#x2039;" horiz-adv-x="608" d="M124 606v32q0 14 10 24l343 341q8 9 17.5 5.5t9.5 -15.5v-40q0 -19 -16 -35l-300 -296l300 -296q16 -16 16 -35v-40q0 -12 -9.5 -15.5t-17.5 5.5l-343 341q-10 10 -10 24z" />
<glyph unicode="&#x203a;" horiz-adv-x="608" d="M484 638v-32q0 -14 -10 -24l-343 -341q-8 -9 -17.5 -5.5t-9.5 15.5v40q0 19 16 35l300 296l-300 296q-16 16 -16 35v40q0 12 9.5 15.5t17.5 -5.5l343 -341q10 -10 10 -24z" />
<glyph unicode="&#x205f;" horiz-adv-x="471" />
<glyph unicode="&#x20ac;" horiz-adv-x="904" d="M832 10q-79 -34 -184 -34q-216 0 -348 150.5t-164 415.5h-73q-8 0 -13.5 6t-5.5 14v21q0 7 6 13t13 6h67q-7 91 0 192h-67q-8 0 -13.5 6t-5.5 14v21q0 7 6 13t13 6h73q29 265 161.5 417.5t348.5 152.5q102 0 180 -36q16 -7 15 -27l-3 -36q-1 -10 -8.5 -13t-18.5 2 q-78 36 -161 36q-182 0 -291.5 -130.5t-138.5 -365.5h512q20 0 15 -19l-6 -25q-4 -16 -21 -16h-504q-11 -101 0 -192h461q20 0 15 -19l-6 -25q-4 -16 -21 -16h-445q29 -234 139 -363t291 -129q92 0 168 33q25 11 27 -12l3 -34q1 -19 -16 -27z" />
<glyph unicode="&#x2122;" horiz-adv-x="1016" d="M176 768v570h-135q-17 0 -17 17v29q0 16 17 16h341q16 0 16 -16v-29q0 -17 -16 -17h-136v-570q0 -16 -16 -16h-38q-16 0 -16 16zM696 992h-12q-16 0 -23 14l-143 286v-526q0 -16 -16 -16h-38q-16 0 -16 16v618q0 16 17 16h53q16 0 23 -14l149 -302l149 302q7 14 23 14h53 q17 0 17 -16v-618q0 -16 -16 -16h-38q-16 0 -16 16v526l-143 -286q-7 -14 -23 -14z" />
<glyph unicode="&#x25fc;" horiz-adv-x="1035" d="M0 1035h1035v-1035h-1035v1035z" />
</font>
</defs>
</svg>
