<?xml version="1.0" standalone="no"?>
<!DOCTYPE svg PUBLIC "-//W3C//DTD SVG 1.1//EN" "http://www.w3.org/Graphics/SVG/1.1/DTD/svg11.dtd" >
<svg xmlns="http://www.w3.org/2000/svg">
<metadata></metadata>
<defs>
<font id="core_sans_nr_sc_43_ex_regulRg" horiz-adv-x="1324" >
<font-face units-per-em="2000" ascent="1600" descent="-400" />
<missing-glyph horiz-adv-x="720" />
<glyph horiz-adv-x="0" />
<glyph horiz-adv-x="0" />
<glyph unicode="&#xd;" horiz-adv-x="682" />
<glyph horiz-adv-x="0" />
<glyph unicode="&#x9;" horiz-adv-x="682" />
<glyph horiz-adv-x="0" />
<glyph unicode=" "  horiz-adv-x="720" />
<glyph unicode="&#x09;" horiz-adv-x="720" />
<glyph unicode="&#xa0;" horiz-adv-x="720" />
<glyph unicode="!" horiz-adv-x="584" d="M230 372l-40 629v362q0 15 10.5 26t26.5 11h132q16 0 26.5 -11t10.5 -26v-363l-40 -627q-1 -14 -11.5 -24.5t-25.5 -10.5h-52q-15 0 -25.5 10t-11.5 24zM292 -24q-128 0 -128 118t128 118t128 -118t-128 -118z" />
<glyph unicode="&#x22;" horiz-adv-x="1010" d="M220 892l-19 469q-1 16 11 27.5t28 11.5h132q15 0 26.5 -11t11.5 -26v-33l-38 -440q-1 -14 -12 -24t-25 -10h-78q-14 0 -25 10.5t-12 25.5zM620 892l-19 469q-1 16 11 27.5t28 11.5h132q15 0 26.5 -11t11.5 -26v-33l-38 -440q-1 -14 -12 -24t-25 -10h-78q-14 0 -25 10.5 t-12 25.5z" />
<glyph unicode="#" horiz-adv-x="1570" d="M1367 356h-262l-67 -326q-2 -12 -13.5 -21t-23.5 -9h-108q-19 0 -29.5 13.5t-6.5 31.5l64 311h-414l-67 -326q-2 -12 -13.5 -21t-23.5 -9h-108q-19 0 -29.5 13.5t-6.5 31.5l64 311h-216q-16 0 -26.5 11t-10.5 26v80q0 16 10.5 26.5t26.5 10.5h247l81 392h-232 q-16 0 -26.5 11t-10.5 26v80q0 16 10.5 26.5t26.5 10.5h264l65 314q2 12 13.5 21t23.5 9h108q19 0 29.5 -13.5t6.5 -31.5l-62 -299h414l65 314q2 12 13.5 21t23.5 9h108q19 0 29.5 -13.5t6.5 -31.5l-62 -299h214q16 0 26.5 -10.5t10.5 -26.5v-80q0 -15 -10.5 -26t-26.5 -11 h-246l-81 -392h231q16 0 26.5 -10.5t10.5 -26.5v-80q0 -15 -10.5 -26t-26.5 -11zM619 902l-81 -392h414l81 392h-414z" />
<glyph unicode="$" horiz-adv-x="1238" d="M139 46q-28 11 -25 38l9 99q1 20 18 28t36 0q164 -65 389 -67v498q-248 68 -354.5 166.5t-106.5 253.5q0 154 118.5 247.5t342.5 110.5v145q0 15 11 26t26 11h58q16 0 26.5 -11t10.5 -26v-142q189 -3 342 -49q29 -9 26 -39l-8 -94q-1 -19 -15.5 -28.5t-32.5 -4.5 q-146 45 -312 48v-467q247 -78 349 -175t102 -246q0 -344 -451 -386v-147q0 -16 -10.5 -26.5t-26.5 -10.5h-58q-15 0 -26 10.5t-11 26.5v141h-5q-233 0 -422 70zM951 362q0 80 -58 136t-195 104v-450q253 34 253 210zM302 1068q0 -79 62 -134.5t202 -103.5v421 q-264 -27 -264 -183z" />
<glyph unicode="%" horiz-adv-x="2028" d="M1498 -16q-167 0 -268.5 102.5t-101.5 261.5t101.5 261.5t268.5 102.5t268.5 -102.5t101.5 -261.5t-101.5 -261.5t-268.5 -102.5zM1688 348q0 98 -50.5 153t-139.5 55t-139.5 -55t-50.5 -153t50.5 -153t139.5 -55t139.5 55t50.5 153zM530 686q-167 0 -268.5 102.5 t-101.5 261.5t101.5 261.5t268.5 102.5t268.5 -102.5t101.5 -261.5t-101.5 -261.5t-268.5 -102.5zM720 1050q0 98 -50.5 153t-139.5 55t-139.5 -55t-50.5 -153t50.5 -153t139.5 -55t139.5 55t50.5 153zM561 43l1107 1296q17 19 9 40t-33 21h-86q-53 0 -89 -43l-1107 -1296 q-17 -19 -9 -40t33 -21h86q53 0 89 43z" />
<glyph unicode="&#x26;" horiz-adv-x="1600" d="M1226 312l302 -246q21 -16 12 -41t-36 -25h-94q-70 0 -132 50l-154 124q-195 -198 -532 -198q-144 0 -258 41.5t-184 129t-70 209.5q0 121 75 217.5t253 184.5q-107 87 -153.5 166.5t-46.5 173.5q0 145 115.5 235.5t300.5 90.5q196 0 310 -91t114 -245q0 -105 -70.5 -189 t-255.5 -177l362 -294q59 128 66 306q1 15 12 25.5t25 10.5h109q16 0 26.5 -11t10.5 -27q-1 -111 -30 -223t-77 -197zM602 130q243 0 388 154l-442 360q-47 -21 -81 -38.5t-75 -45t-67 -56.5t-43.5 -69t-17.5 -85q0 -100 92.5 -160t245.5 -60zM582 836q155 72 217.5 130.5 t62.5 125.5q0 81 -65 129.5t-177 48.5q-106 0 -169 -50.5t-63 -119.5q0 -55 42 -114t152 -150z" />
<glyph unicode="'" horiz-adv-x="590" d="M210 892l-19 469q-1 16 11 27.5t28 11.5h132q15 0 26.5 -11t11.5 -26v-33l-38 -440q-1 -14 -12 -24t-25 -10h-78q-14 0 -25 10.5t-12 25.5z" />
<glyph unicode="(" horiz-adv-x="798" d="M200 621q0 244 89.5 459.5t250.5 393.5q24 26 61 26h58q25 0 34.5 -20t-5.5 -40q-306 -388 -306 -819q0 -433 306 -821q15 -20 5.5 -40t-34.5 -20h-58q-37 0 -61 26q-161 178 -250.5 394.5t-89.5 460.5z" />
<glyph unicode=")" horiz-adv-x="798" d="M598 621q0 -244 -89.5 -460.5t-250.5 -394.5q-24 -26 -61 -26h-58q-25 0 -34.5 20t5.5 40q306 388 306 821q0 431 -306 819q-15 20 -5.5 40t34.5 20h58q37 0 61 -26q161 -178 250.5 -393.5t89.5 -459.5z" />
<glyph unicode="*" horiz-adv-x="1092" d="M594 222h-96q-16 0 -27 11.5t-10 27.5l12 278l-234 -150q-14 -9 -29.5 -5.5t-23.5 17.5l-47 83q-8 13 -4 29t19 23l247 128l-247 128q-14 7 -19 22.5t3 29.5l48 82q8 14 23.5 18t29.5 -5l235 -151l-13 279q-1 16 10 27.5t27 11.5h96q16 0 27 -11.5t10 -27.5l-13 -279 l235 151q14 9 29.5 5t23.5 -18l48 -82q8 -14 3 -29.5t-19 -22.5l-247 -128l247 -128q15 -7 19 -23t-4 -29l-47 -83q-8 -14 -23.5 -17.5t-29.5 5.5l-234 150l12 -278q1 -16 -10 -27.5t-27 -11.5z" />
<glyph unicode="+" d="M568 208v377h-411q-15 0 -26 10.5t-11 26.5v85q0 15 11 26t26 11h411v376q0 16 11 27t26 11h114q16 0 26.5 -11t10.5 -27v-376h412q16 0 26.5 -11t10.5 -26v-85q0 -16 -10.5 -26.5t-26.5 -10.5h-412v-377q0 -15 -10.5 -26t-26.5 -11h-114q-15 0 -26 11t-11 26z" />
<glyph unicode="," horiz-adv-x="668" d="M228 -212q90 79 98 186q-64 3 -92 36t-28 84q0 59 33.5 88.5t94.5 29.5q66 0 97 -31.5t31 -108.5q0 -107 -47.5 -196t-139.5 -150q-22 -15 -38 7l-15 20q-13 19 6 35z" />
<glyph unicode="-" horiz-adv-x="852" d="M694 576h-537q-16 0 -26.5 11t-10.5 26v102q0 15 10.5 26t26.5 11h537q16 0 27 -11t11 -26v-102q0 -15 -11 -26t-27 -11z" />
<glyph unicode="." horiz-adv-x="668" d="M334 -24q-128 0 -128 118t128 118t128 -118t-128 -118z" />
<glyph unicode="/" horiz-adv-x="1190" d="M1176 1440l-977 -1621q-24 -39 -67 -39h-86q-23 0 -33.5 18t1.5 38l977 1621q24 39 67 39h86q23 0 33.5 -18t-1.5 -38z" />
<glyph unicode="0" horiz-adv-x="1336" d="M668 -24q-146 0 -260.5 53.5t-188.5 150t-112.5 228.5t-38.5 292t38.5 292t112.5 228.5t188.5 150t260.5 53.5t260.5 -53.5t188.5 -150t112.5 -228.5t38.5 -292t-38.5 -292t-112.5 -228.5t-188.5 -150t-260.5 -53.5zM1076 700q0 268 -108 414t-300 146t-300 -146 t-108 -414t108 -414t300 -146t300 146t108 414z" />
<glyph unicode="1" horiz-adv-x="1336" d="M696 1194l-313 -180q-14 -7 -28 -3.5t-22 15.5l-47 73q-9 14 -6 30.5t17 24.5l387 230q27 16 54 16h109q15 0 26 -10.5t11 -26.5v-1326q0 -15 -11 -26t-26 -11h-114q-15 0 -26 11t-11 26v1157z" />
<glyph unicode="2" horiz-adv-x="1336" d="M1131 0h-944q-16 0 -26.5 11t-10.5 26v85q0 35 37 62q285 205 499 400q135 123 206.5 231.5t71.5 221.5q0 111 -98 167t-258 56q-186 0 -332 -66q-18 -8 -34 1.5t-18 26.5l-8 87q-3 31 21 42q72 33 178.5 53t206.5 20q154 0 272 -41t190 -131.5t72 -221.5 q0 -82 -24 -157.5t-73 -146t-103.5 -129t-134.5 -130.5q-183 -165 -376 -303h686q15 0 26 -11t11 -26v-90q0 -15 -11 -26t-26 -11z" />
<glyph unicode="3" horiz-adv-x="1336" d="M180 26q-26 7 -23 41l10 97q2 18 17 26t33 2q145 -52 347 -52q197 0 301.5 59t104.5 169q0 133 -146.5 204.5t-412.5 76.5q-16 0 -26.5 10.5t-10.5 26.5v90q0 15 11 25.5t27 11.5q254 7 394 69.5t140 179.5q0 92 -91.5 145t-268.5 53q-178 0 -334 -56q-18 -6 -33 2 t-17 26l-10 87q-3 32 23 41q180 64 381 64q266 0 404 -93.5t138 -248.5q0 -143 -86.5 -231t-243.5 -121q171 -33 262.5 -126.5t91.5 -237.5q0 -180 -150 -285t-440 -105q-92 0 -204 13.5t-188 36.5z" />
<glyph unicode="4" horiz-adv-x="1336" d="M68 343v101q0 25 16 44l766 893q16 19 41 19h142q16 0 26.5 -11t10.5 -26v-898h168q16 0 26.5 -10.5t10.5 -26.5v-85q0 -15 -10.5 -26t-26.5 -11h-168v-269q0 -15 -10.5 -26t-26.5 -11h-114q-15 0 -26 11t-11 26v269h-777q-16 0 -26.5 11t-10.5 26zM882 1155l-592 -690 h592v690z" />
<glyph unicode="5" horiz-adv-x="1336" d="M228 711v653q0 15 11 25.5t27 10.5h829q15 0 26 -11t11 -26v-86q0 -16 -11 -26.5t-26 -10.5h-679v-398q133 30 223 30q255 0 399 -113.5t144 -328.5q0 -203 -156.5 -328.5t-451.5 -125.5q-207 0 -375 51q-29 9 -26 39l10 99q1 19 15.5 27.5t32.5 1.5q146 -54 336 -54 q204 0 313.5 83t109.5 221q0 264 -403 264q-168 0 -314 -38q-18 -5 -31.5 8t-13.5 33z" />
<glyph unicode="6" horiz-adv-x="1336" d="M692 748q-107 0 -213.5 -44t-186.5 -118q19 -226 127.5 -336t282.5 -110q151 0 248.5 84.5t97.5 219.5q0 140 -94 222t-262 82zM1069 1212q-116 48 -281 48q-212 0 -342 -119.5t-152 -370.5q184 142 422 142q146 0 264 -54.5t189 -162t71 -249.5q0 -208 -152.5 -339 t-385.5 -131q-103 0 -192 25.5t-165.5 80t-131 135t-85 197t-30.5 258.5q0 194 49 339.5t140.5 235t215.5 133.5t281 44q174 0 315 -49q29 -11 26 -40l-10 -92q-2 -20 -15 -29t-31 -2z" />
<glyph unicode="7" horiz-adv-x="1336" d="M505 0h-101q-22 0 -32.5 17t-0.5 37l599 1186h-776q-16 0 -27 10.5t-11 26.5v86q0 15 11 26t27 11h943q15 0 26 -11t11 -26v-91q0 -39 -20 -79l-580 -1150q-22 -43 -69 -43z" />
<glyph unicode="8" horiz-adv-x="1336" d="M88 372q0 125 92.5 218t243.5 152q-149 66 -208.5 147.5t-59.5 180.5q0 165 140 259.5t372 94.5q228 0 369 -94.5t141 -257.5q0 -204 -282 -332q136 -56 215 -116.5t107 -119t28 -134.5q0 -181 -154 -287.5t-424 -106.5t-425 106.5t-155 289.5zM1054 366q0 59 -36 102.5 t-125 89.5t-261 108q-161 -49 -256.5 -125.5t-95.5 -172.5q0 -99 101 -163.5t287 -64.5q175 0 280.5 65.5t105.5 160.5zM348 1070q0 -74 73.5 -127.5t286.5 -132.5q61 26 107 51t87 57t62.5 70.5t21.5 81.5q0 79 -85 134.5t-233 55.5q-146 0 -233 -54.5t-87 -135.5z" />
<glyph unicode="9" horiz-adv-x="1336" d="M644 652q107 0 213.5 44t186.5 118q-19 226 -127.5 336t-282.5 110q-151 0 -248.5 -84.5t-97.5 -219.5q0 -140 94 -222t262 -82zM267 188q116 -48 281 -48q212 0 342 119.5t152 370.5q-184 -142 -422 -142q-146 0 -264 54.5t-189 162t-71 249.5q0 208 152.5 339 t385.5 131q103 0 192 -25.5t165.5 -80t131 -135t85 -197t30.5 -258.5q0 -194 -49 -339.5t-140.5 -235t-215.5 -133.5t-281 -44q-174 0 -315 49q-29 11 -26 40l10 92q2 20 15 29t31 2z" />
<glyph unicode=":" horiz-adv-x="668" d="M334 -24q-128 0 -128 118t128 118t128 -118t-128 -118zM334 824q-128 0 -128 118t128 118t128 -118t-128 -118z" />
<glyph unicode=";" horiz-adv-x="668" d="M334 824q-128 0 -128 118t128 118t128 -118t-128 -118zM276 -273q-23 -16 -39 5l-15 21q-13 19 6 35q90 81 98 186q-64 3 -92 36t-28 84q0 59 33.5 88.5t94.5 29.5q66 0 97 -31.5t31 -108.5q0 -107 -47.5 -195.5t-138.5 -149.5z" />
<glyph unicode="&#x3c;" d="M120 604v120q0 26 23 35l1013 400q19 7 33.5 -2t14.5 -25v-108q0 -25 -24 -35l-848 -325l848 -325q24 -10 24 -35v-108q0 -16 -14.5 -25t-33.5 -2l-1013 400q-23 9 -23 35z" />
<glyph unicode="=" d="M1168 816h-1012q-15 0 -25.5 11.5t-10.5 26.5v86q0 15 10.5 25.5t25.5 10.5h1012q15 0 25.5 -10.5t10.5 -25.5v-86q0 -15 -10.5 -26.5t-25.5 -11.5zM1168 352h-1012q-15 0 -25.5 11.5t-10.5 26.5v86q0 15 10.5 25.5t25.5 10.5h1012q15 0 25.5 -10.5t10.5 -25.5v-86 q0 -15 -10.5 -26.5t-25.5 -11.5z" />
<glyph unicode="&#x3e;" d="M1204 724v-120q0 -26 -23 -35l-1013 -400q-19 -7 -33.5 2t-14.5 25v108q0 25 24 35l848 325l-848 325q-24 10 -24 35v108q0 16 14.5 25t33.5 2l1013 -400q23 -9 23 -35z" />
<glyph unicode="?" horiz-adv-x="1198" d="M410 375v36q0 138 52 233t176 168q126 74 172 133t46 138q0 87 -85 128t-268 41q-193 0 -341 -63q-19 -8 -34 1.5t-17 29.5l-9 99q-1 10 6 21t17 15q77 32 181.5 50.5t205.5 18.5q272 0 409 -87.5t137 -253.5q0 -110 -72 -209.5t-208 -178.5q-91 -53 -132.5 -122 t-41.5 -167v-31q0 -16 -11 -26.5t-26 -10.5h-120q-15 0 -26 10.5t-11 26.5zM506 -24q-128 0 -128 118t128 118t128 -118t-128 -118z" />
<glyph unicode="@" horiz-adv-x="1928" d="M854 260q200 0 306 144l66 354q-58 86 -202 86q-138 0 -244 -114.5t-106 -273.5q0 -96 49.5 -146t130.5 -50zM1484 -191q-231 -133 -502 -133q-193 0 -359.5 66.5t-283 182.5t-183 277t-66.5 346q0 186 65.5 348.5t179.5 278.5t275 182.5t346 66.5q193 0 357.5 -63 t279.5 -173t180 -264t65 -332q0 -217 -101 -352.5t-277 -135.5q-177 0 -250 156q-132 -144 -372 -144q-148 0 -244 90.5t-96 237.5q0 119 45 222.5t118.5 173t168 109t192.5 39.5q234 0 358 -168q18 -25 11 -62l-69 -376q-2 -81 37 -125.5t119 -44.5q101 0 162.5 108 t61.5 272q0 148 -53 277t-148.5 223.5t-236.5 149t-308 54.5q-210 0 -377.5 -98t-260 -269t-92.5 -381q0 -158 56 -295.5t154.5 -236.5t240 -155.5t305.5 -56.5q260 0 446 116q29 19 44 -10l26 -54q15 -31 -14 -47z" />
<glyph unicode="A" horiz-adv-x="1516" d="M450 522h616l-308 696zM1140 358h-764l-138 -313q-20 -45 -71 -45h-98q-22 0 -32.5 17t-1.5 37l601 1319q12 27 43 27h158q31 0 43 -27l601 -1319q9 -20 -1.5 -37t-32.5 -17h-98q-51 0 -71 45z" />
<glyph unicode="B" horiz-adv-x="1420" d="M768 0h-570q-16 0 -27 11t-11 27v1324q0 16 11 27t27 11h544q242 0 379 -102t137 -266q0 -104 -53 -178.5t-147 -113.5q137 -40 209.5 -128.5t72.5 -209.5q0 -192 -146.5 -297t-425.5 -105zM1148 406q0 116 -95.5 177t-286.5 61h-418v-484h390q410 0 410 246zM1066 1018 q0 108 -92 165t-262 57h-364v-436h394q158 0 241 55.5t83 158.5z" />
<glyph unicode="C" horiz-adv-x="1400" d="M90 700q0 330 223 527t611 197q197 0 351 -46q35 -10 32 -46l-9 -85q-2 -20 -16.5 -30t-33.5 -3q-125 46 -314 46q-305 0 -478.5 -152t-173.5 -408t173.5 -408t478.5 -152q185 0 324 51q19 7 33.5 -3t16.5 -30l8 -85q2 -17 -7 -31.5t-24 -18.5q-157 -47 -361 -47 q-388 0 -611 197t-223 527z" />
<glyph unicode="D" horiz-adv-x="1530" d="M1268 700q0 274 -187 407t-539 133h-194v-1080h194q726 0 726 540zM572 0h-375q-15 0 -26 11t-11 27v1324q0 16 11 27t26 11h375q199 0 361 -44.5t280 -131t182.5 -220t64.5 -304.5q0 -172 -64.5 -305.5t-182.5 -219.5t-280 -130.5t-361 -44.5z" />
<glyph unicode="E" horiz-adv-x="1278" d="M160 38v1324q0 16 11 27t27 11h942q16 0 27 -11t11 -27v-84q0 -16 -11 -27t-27 -11h-792v-440h746q16 0 27 -11t11 -26v-85q0 -16 -11 -27t-27 -11h-746v-480h813q15 0 26 -11t11 -27v-84q0 -16 -11 -27t-26 -11h-963q-16 0 -27 11t-11 27z" />
<glyph unicode="F" horiz-adv-x="1218" d="M160 38v1324q0 16 11 27t27 11h942q16 0 27 -11t11 -27v-84q0 -16 -11 -27t-27 -11h-792v-436h740q16 0 27 -11t11 -27v-84q0 -16 -11 -27t-27 -11h-740v-606q0 -16 -11 -27t-27 -11h-112q-16 0 -27 11t-11 27z" />
<glyph unicode="G" horiz-adv-x="1616" d="M90 700q0 154 59.5 286.5t169 230t275 152.5t366.5 55q238 0 452 -65q30 -9 27 -38l-10 -97q-2 -20 -16.5 -29.5t-33.5 -2.5q-184 68 -410 68q-316 0 -501.5 -154.5t-185.5 -405.5q0 -259 190 -409.5t525 -150.5q169 0 291 34v436h-440q-15 0 -26.5 11t-11.5 27v84 q0 16 11.5 27t26.5 11h590q16 0 27 -11t11 -27v-649q0 -36 -27 -44q-198 -63 -462 -63q-411 0 -654 200.5t-243 523.5z" />
<glyph unicode="H" horiz-adv-x="1584" d="M160 38v1324q0 16 12 27t28 11h110q15 0 26.5 -11t11.5 -27v-538h888v538q0 16 11 27t27 11h112q16 0 27 -11t11 -27v-1324q0 -16 -11 -27t-27 -11h-112q-16 0 -27 11t-11 27v626h-888v-626q0 -16 -11.5 -27t-26.5 -11h-112q-16 0 -27 11t-11 27z" />
<glyph unicode="I" horiz-adv-x="528" d="M208 1400h113q15 0 26 -11t11 -27v-1324q0 -16 -11 -27t-26 -11h-113q-16 0 -27 11t-11 27v1324q0 16 11 27t27 11z" />
<glyph unicode="J" horiz-adv-x="1020" d="M672 469v893q0 16 11 27t27 11h112q16 0 27 -11t11 -27v-891q0 -495 -497 -495q-174 0 -310 51q-16 6 -24 20t-6 30l8 84q1 19 18 27.5t36 0.5q124 -49 275 -49q312 0 312 329z" />
<glyph unicode="K" horiz-adv-x="1396" d="M198 1400h113q15 0 26 -11t11 -27v-591l683 597q35 32 78 32h144q21 0 24 -18t-9 -27l-700 -611l808 -701q13 -11 9 -27t-22 -16h-152q-56 0 -86 27l-777 682v-671q0 -16 -11 -27t-26 -11h-113q-16 0 -27 11t-11 27v1324q0 16 11 27t27 11z" />
<glyph unicode="L" horiz-adv-x="1288" d="M160 38v1324q0 16 11 27t27 11h112q16 0 27 -11t11 -27v-1202h862q16 0 27 -11t11 -27v-84q0 -16 -11 -27t-27 -11h-1012q-16 0 -27 11t-11 27z" />
<glyph unicode="M" horiz-adv-x="1904" d="M981 458h-58q-39 0 -65 33l-514 665v-1118q0 -16 -11 -27t-26 -11h-109q-16 0 -27 11t-11 27v1324q0 16 11 27t27 11h132q45 0 67 -30l555 -714l555 714q23 30 67 30h132q16 0 27 -11t11 -27v-1324q0 -16 -11 -27t-27 -11h-109q-15 0 -26 11t-11 27v1118l-514 -665 q-26 -33 -65 -33z" />
<glyph unicode="N" horiz-adv-x="1582" d="M417 1366l821 -1133v1129q0 16 11 27t27 11h108q16 0 27 -11t11 -27v-1324q0 -16 -11 -27t-27 -11h-140q-55 0 -79 34l-821 1133v-1129q0 -16 -11 -27t-27 -11h-108q-16 0 -27 11t-11 27v1324q0 16 11 27t27 11h140q55 0 79 -34z" />
<glyph unicode="O" horiz-adv-x="1648" d="M1366 700q0 255 -146.5 407.5t-395.5 152.5t-395.5 -152.5t-146.5 -407.5t146.5 -407.5t395.5 -152.5t395.5 152.5t146.5 407.5zM1558 700q0 -205 -85.5 -367.5t-254 -259.5t-394.5 -97t-394.5 97t-254 259.5t-85.5 367.5t85.5 367.5t254 259.5t394.5 97t394.5 -97 t254 -259.5t85.5 -367.5z" />
<glyph unicode="P" horiz-adv-x="1340" d="M348 528v-490q0 -16 -11 -27t-27 -11h-112q-16 0 -27 11t-11 27v1324q0 16 11 27t27 11h462q288 0 449 -112.5t161 -323.5t-161 -323.5t-449 -112.5h-312zM1078 964q0 276 -436 276h-294v-552h294q436 0 436 276z" />
<glyph unicode="Q" horiz-adv-x="1648" d="M1366 700q0 255 -146.5 407.5t-395.5 152.5t-395.5 -152.5t-146.5 -407.5t146.5 -407.5t395.5 -152.5t395.5 152.5t146.5 407.5zM1439 -292q-96 -18 -207 -18q-94 0 -172 15.5t-143.5 48t-107.5 89.5t-55 135q-206 15 -358 114.5t-229 256.5t-77 351q0 205 85.5 367.5 t254 259.5t394.5 97t394.5 -97t254 -259.5t85.5 -367.5q0 -284 -163.5 -481.5t-448.5 -234.5q15 -73 87.5 -107.5t208.5 -34.5q92 0 166 15q16 4 30 -4t16 -24l12 -80q5 -35 -27 -41z" />
<glyph unicode="R" horiz-adv-x="1424" d="M348 580v-547q0 -15 -11.5 -24t-27.5 -9h-111q-16 0 -27 11t-11 27v1324q0 16 11 27t27 11h496q263 0 426.5 -108.5t163.5 -301.5q0 -145 -94 -243.5t-258 -140.5l425 -545q16 -19 5.5 -40t-36.5 -21h-131q-22 0 -35 18l-428 562h-384zM678 1240h-330v-500h330 q201 0 307.5 63t106.5 187t-106.5 187t-307.5 63z" />
<glyph unicode="S" horiz-adv-x="1234" d="M136 45q-28 11 -25 38l8 95q1 20 18 28t36 0q164 -66 397 -66q191 0 286.5 59t95.5 163q0 95 -88 159.5t-296 120.5q-252 68 -360 166t-108 254q0 171 145 266.5t415 95.5q207 0 375 -50q29 -9 26 -39l-8 -87q-1 -19 -15.5 -28.5t-32.5 -4.5q-143 45 -341 45 q-188 0 -280 -52.5t-92 -139.5q0 -88 81 -148.5t263 -113.5q280 -82 394 -181.5t114 -256.5q0 -392 -588 -392q-234 0 -420 69z" />
<glyph unicode="T" horiz-adv-x="1270" d="M540 38v1202h-482q-16 0 -27 11t-11 27v84q0 16 11 27t27 11h1154q16 0 27 -11t11 -27v-84q0 -16 -11 -27t-27 -11h-484v-1202q0 -16 -11 -27t-27 -11h-113q-15 0 -26 11t-11 27z" />
<glyph unicode="U" horiz-adv-x="1622" d="M811 -24q-142 0 -259.5 35t-205.5 104t-137 179t-49 252v816q0 16 11 27t26 11h113q16 0 27 -11t11 -27v-798q0 -205 117.5 -314.5t345.5 -109.5t345.5 109.5t117.5 314.5v798q0 16 11 27t27 11h113q15 0 26 -11t11 -27v-816q0 -142 -49 -252t-137 -179t-205.5 -104 t-259.5 -35z" />
<glyph unicode="V" horiz-adv-x="1574" d="M861 0h-150q-34 0 -48 33l-598 1313q-9 20 1.5 37t32.5 17h112q36 0 54 -39l521 -1179l521 1179q18 39 54 39h112q22 0 32.5 -17t1.5 -37l-598 -1313q-14 -33 -48 -33z" />
<glyph unicode="W" horiz-adv-x="2310" d="M1073 1400h162q35 0 47 -39l342 -1153l425 1156q12 36 51 36h112q21 0 32.5 -16t4.5 -35l-492 -1320q-12 -29 -43 -29h-185q-35 0 -45 34l-330 1136l-330 -1136q-10 -34 -45 -34h-185q-31 0 -43 29l-492 1320q-7 19 4.5 35t32.5 16h112q39 0 51 -36l425 -1156l342 1153 q12 39 47 39z" />
<glyph unicode="X" horiz-adv-x="1560" d="M780 581l-488 -547q-31 -34 -77 -34h-102q-26 0 -35 22t8 41l578 648l-558 626q-17 19 -8 41t35 22h102q46 0 77 -34l468 -525l468 525q31 34 77 34h102q26 0 35 -22t-8 -41l-558 -626l578 -648q17 -19 8 -41t-35 -22h-102q-46 0 -77 34z" />
<glyph unicode="Y" horiz-adv-x="1568" d="M840 0h-112q-16 0 -27 11t-11 27v516l-603 785q-15 20 -5 40.5t35 20.5h105q47 0 75 -38l487 -640l487 640q28 38 75 38h105q25 0 35 -20.5t-5 -40.5l-603 -785v-516q0 -16 -11 -27t-27 -11z" />
<glyph unicode="Z" horiz-adv-x="1302" d="M1190 1202l-898 -1042h913q15 0 26 -11t11 -27v-84q0 -16 -11 -27t-26 -11h-1108q-15 0 -26 11t-11 27v86q0 41 29 75l897 1041h-852q-15 0 -26 11t-11 27v84q0 16 11 27t26 11h1047q15 0 26 -11t11 -27v-87q0 -41 -28 -73z" />
<glyph unicode="[" horiz-adv-x="858" d="M240 -223v1686q0 15 11 26t27 11h502q15 0 26 -11t11 -26v-79q0 -16 -11 -27t-26 -11h-350v-1452h351q15 0 26 -11t11 -26v-80q0 -15 -11 -26t-26 -11h-503q-16 0 -27 11t-11 26z" />
<glyph unicode="\" horiz-adv-x="1190" d="M991 -181l-977 1621q-12 20 -1.5 38t33.5 18h86q43 0 67 -39l977 -1621q12 -20 1.5 -38t-33.5 -18h-86q-43 0 -67 39z" />
<glyph unicode="]" horiz-adv-x="858" d="M618 1463v-1686q0 -15 -11 -26t-27 -11h-503q-15 0 -26 11t-11 26v80q0 15 11 26t26 11h351v1452h-350q-15 0 -26 11t-11 27v79q0 15 11 26t26 11h502q16 0 27 -11t11 -26z" />
<glyph unicode="^" d="M593 1400h138q23 0 38 -21l419 -595q13 -20 3 -33t-33 -13h-122q-30 0 -52 31l-322 463l-322 -463q-22 -31 -52 -31h-122q-23 0 -33 13t3 33l419 595q15 21 38 21z" />
<glyph unicode="_" horiz-adv-x="1000" d="M0 -302v49q0 16 11 26.5t26 10.5h926q15 0 26 -10.5t11 -26.5v-49q0 -16 -11 -27t-26 -11h-926q-15 0 -26 11t-11 27z" />
<glyph unicode="`" horiz-adv-x="964" d="M450 1438l220 -242q23 -24 15 -42t-45 -18h-68q-26 0 -54 24l-279 244q-22 19 -14.5 37.5t39.5 18.5h146q20 0 40 -22z" />
<glyph unicode="a" horiz-adv-x="1300" d="M968 294h-636l-118 -270q-11 -24 -37 -24h-106q-23 0 -34.5 17.5t-1.5 39.5l496 1110q11 23 36 23h166q25 0 36 -23l496 -1110q10 -22 -1.5 -39.5t-34.5 -17.5h-106q-26 0 -37 24zM402 450h496l-248 564z" />
<glyph unicode="b" horiz-adv-x="1202" d="M964 350q0 94 -76 141t-236 47h-328v-382h316q167 0 245.5 48t78.5 146zM896 862q0 172 -280 172h-292v-340h304q268 0 268 168zM180 1190h464q208 0 324 -87t116 -227q0 -86 -43.5 -149t-120.5 -97q111 -34 171.5 -109t60.5 -175q0 -166 -123.5 -256t-360.5 -90h-488 q-16 0 -28 12t-12 28v1110q0 16 12 28t28 12z" />
<glyph unicode="c" horiz-adv-x="1184" d="M1094 17q-144 -41 -318 -41q-331 0 -518.5 165.5t-187.5 452.5q0 284 186.5 452t511.5 168q184 0 318 -39q13 -4 21 -16t6 -25l-8 -83q-2 -19 -18 -29.5t-35 -4.5q-114 37 -274 37q-245 0 -382.5 -123.5t-137.5 -336.5q0 -219 139 -338.5t387 -119.5q157 0 277 45 q20 7 35 -2t17 -30l8 -89q2 -14 -6 -26.5t-21 -16.5z" />
<glyph unicode="d" d="M1066 594q0 226 -149.5 333t-440.5 107h-152v-878h152q292 0 441 106t149 332zM504 0h-324q-16 0 -28 12t-12 28v1110q0 16 12 28t28 12h324q225 0 392 -65.5t262.5 -201t95.5 -329.5t-96 -329t-262.5 -200t-391.5 -65z" />
<glyph unicode="e" horiz-adv-x="1100" d="M140 40v1110q0 17 11.5 28.5t28.5 11.5h793q17 0 29 -11.5t12 -28.5v-76q0 -17 -12 -28.5t-29 -11.5h-649v-344h610q17 0 28.5 -11.5t11.5 -28.5v-75q0 -17 -11.5 -29t-28.5 -12h-610v-378h666q17 0 28.5 -11.5t11.5 -28.5v-76q0 -17 -11.5 -28.5t-28.5 -11.5h-810 q-17 0 -28.5 11.5t-11.5 28.5z" />
<glyph unicode="f" horiz-adv-x="1074" d="M140 40v1110q0 17 12 28.5t29 11.5h793q17 0 28.5 -11.5t11.5 -28.5v-76q0 -17 -11.5 -28.5t-28.5 -11.5h-650v-344h606q17 0 28.5 -11.5t11.5 -28.5v-75q0 -17 -11.5 -29t-28.5 -12h-606v-494q0 -16 -12 -28t-28 -12h-103q-17 0 -29 11.5t-12 28.5z" />
<glyph unicode="g" horiz-adv-x="1376" d="M70 594q0 134 50 247.5t143 196t233.5 129.5t313.5 47q204 0 388 -52q32 -9 29 -40l-10 -93q-2 -21 -17 -29.5t-35 -0.5q-152 55 -344 55q-263 0 -413 -126t-150 -334q0 -214 154 -336t431 -122q134 0 229 26v346h-350q-17 0 -28.5 11.5t-11.5 28.5v76q0 17 11.5 28.5 t28.5 11.5h494q16 0 28 -12t12 -28v-553q0 -11 -8.5 -22.5t-19.5 -15.5q-172 -55 -395 -55q-350 0 -556.5 170t-206.5 446z" />
<glyph unicode="h" horiz-adv-x="1364" d="M140 40v1110q0 16 12 28t28 12h104q16 0 28 -12t12 -28v-440h716v440q0 16 12 28t28 12h104q16 0 28 -12t12 -28v-1110q0 -16 -12 -28t-28 -12h-104q-16 0 -28 12t-12 28v514h-716v-514q0 -16 -12 -28t-28 -12h-104q-16 0 -28 12t-12 28z" />
<glyph unicode="i" horiz-adv-x="484" d="M190 1190h104q16 0 28 -12t12 -28v-1110q0 -16 -12 -28t-28 -12h-104q-16 0 -28 12t-12 28v1110q0 16 12 28t28 12z" />
<glyph unicode="j" horiz-adv-x="884" d="M560 406v744q0 17 11.5 28.5t28.5 11.5h104q17 0 28.5 -11.5t11.5 -28.5v-746q0 -428 -429 -428q-160 0 -271 42q-12 5 -19.5 17t-6.5 25l9 91q2 20 19.5 27t36.5 -1q98 -41 230 -41q120 0 183.5 64t63.5 206z" />
<glyph unicode="k" horiz-adv-x="1224" d="M324 1150v-492l555 504q31 28 68 28h96q29 0 38.5 -24t-11.5 -44l-535 -490l622 -562q22 -20 12 -45t-39 -25h-103q-45 0 -73 25l-630 575v-560q0 -16 -12 -28t-28 -12h-104q-16 0 -28 12t-12 28v1110q0 16 12 28t28 12h104q16 0 28 -12t12 -28z" />
<glyph unicode="l" horiz-adv-x="1102" d="M140 40v1110q0 17 11.5 28.5t28.5 11.5h104q16 0 28 -12t12 -28v-994h709q17 0 28.5 -12t11.5 -28v-76q0 -16 -11.5 -28t-28.5 -12h-853q-17 0 -28.5 11.5t-11.5 28.5z" />
<glyph unicode="m" horiz-adv-x="1636" d="M862 386h-88q-18 0 -32 16l-422 548v-910q0 -17 -11.5 -28.5t-28.5 -11.5h-99q-17 0 -29 11.5t-12 28.5v1110q0 17 12 28.5t29 11.5h152q6 0 16.5 -5.5t14.5 -10.5l454 -595l454 595q4 5 14.5 10.5t16.5 5.5h152q17 0 29 -11.5t12 -28.5v-1110q0 -17 -12 -28.5t-29 -11.5 h-99q-17 0 -28.5 11.5t-11.5 28.5v910l-422 -548q-14 -16 -32 -16z" />
<glyph unicode="n" horiz-adv-x="1360" d="M380 1173l660 -943v920q0 17 11.5 28.5t28.5 11.5h100q16 0 28 -12t12 -28v-1110q0 -16 -12 -28t-28 -12h-167q-20 0 -33 17l-660 943v-920q0 -17 -11.5 -28.5t-28.5 -11.5h-100q-16 0 -28 12t-12 28v1110q0 16 12 28t28 12h167q20 0 33 -17z" />
<glyph unicode="o" horiz-adv-x="1400" d="M1330 594q0 -129 -43 -241.5t-121.5 -196.5t-199 -132t-266.5 -48t-266.5 48t-199 132t-121.5 196.5t-43 241.5q0 175 73 314t217.5 222.5t339.5 83.5t339.5 -83.5t217.5 -222.5t73 -314zM258 594q0 -210 119 -334t323 -124t323 124t119 334q0 211 -118.5 335.5 t-323.5 124.5t-323.5 -124.5t-118.5 -335.5z" />
<glyph unicode="p" horiz-adv-x="1154" d="M324 442v-402q0 -16 -12 -28t-28 -12h-104q-16 0 -28 12t-12 28v1110q0 16 12 28t28 12h398q244 0 380 -97t136 -277t-136 -277t-380 -97h-254zM906 816q0 113 -87 165.5t-261 52.5h-234v-436h234q174 0 261 52.5t87 165.5z" />
<glyph unicode="q" horiz-adv-x="1400" d="M258 594q0 -210 119 -334t323 -124t323 124t119 334q0 211 -118.5 335.5t-323.5 124.5t-323.5 -124.5t-118.5 -335.5zM1192 -109q39 6 44 -24l13 -78q2 -15 -8 -26t-26 -14q-73 -13 -171 -13q-360 0 -416 244q-174 15 -301.5 100t-192 218t-64.5 296q0 175 73 314 t217.5 222.5t339.5 83.5t339.5 -83.5t217.5 -222.5t73 -314q0 -239 -137 -407.5t-379 -202.5q14 -53 71.5 -78.5t170.5 -25.5q65 0 136 11z" />
<glyph unicode="r" horiz-adv-x="1228" d="M180 1190h427q222 0 361.5 -93t139.5 -259q0 -124 -79.5 -210t-214.5 -122l349 -444q16 -21 5 -41.5t-37 -20.5h-112q-27 0 -43 22l-354 460h-298v-442q0 -16 -12 -28t-28 -12h-104q-16 0 -28 12t-12 28v1110q0 16 12 28t28 12zM920 838q0 196 -329 196h-267v-396h267 q329 0 329 200z" />
<glyph unicode="s" horiz-adv-x="1056" d="M897 1171q26 -8 23 -35l-8 -85q-2 -19 -17 -29t-34 -5q-128 37 -287 37q-296 0 -296 -148q0 -71 65 -120t211 -92q239 -71 335.5 -157.5t96.5 -222.5q0 -338 -504 -338q-189 0 -354 57q-11 4 -19.5 15.5t-7.5 23.5l8 97q2 21 18.5 26t35.5 -4q134 -55 333 -55 q302 0 302 172q0 77 -68.5 128.5t-237.5 97.5q-215 58 -308.5 144.5t-93.5 221.5q0 149 123.5 231.5t356.5 82.5q191 0 327 -43z" />
<glyph unicode="t" horiz-adv-x="1112" d="M464 40v994h-393q-17 0 -28.5 11.5t-11.5 28.5v76q0 17 11.5 28.5t28.5 11.5h970q17 0 29 -11.5t12 -28.5v-76q0 -17 -12 -28.5t-29 -11.5h-393v-994q0 -16 -12 -28t-28 -12h-104q-16 0 -28 12t-12 28z" />
<glyph unicode="u" horiz-adv-x="1396" d="M698 136q189 0 281.5 89t92.5 257v668q0 16 12 28t28 12h104q16 0 28 -12t12 -28v-688q0 -121 -41 -214.5t-116 -152.5t-176.5 -89t-224.5 -30t-224.5 30t-176.5 89t-116 152.5t-41 214.5v688q0 16 12 28t28 12h104q16 0 28 -12t12 -28v-668q0 -168 92.5 -257t281.5 -89z " />
<glyph unicode="v" horiz-adv-x="1344" d="M753 0h-162q-25 0 -37 23l-498 1110q-11 22 -4.5 39.5t28.5 17.5h110q38 0 52 -34l430 -980l430 980q14 34 52 34h110q22 0 28.5 -17.5t-4.5 -39.5l-498 -1110q-12 -23 -37 -23z" />
<glyph unicode="w" horiz-adv-x="1960" d="M896 1190h168q12 0 23.5 -8.5t14.5 -20.5l274 -960l344 963q4 11 15 18.5t22 7.5h115q22 0 34 -16.5t4 -37.5l-405 -1110q-4 -11 -15 -18.5t-22 -7.5h-188q-12 0 -23.5 8.5t-15.5 20.5l-261 935l-261 -935q-4 -12 -15.5 -20.5t-23.5 -8.5h-188q-11 0 -22 7.5t-15 18.5 l-405 1110q-8 21 4 37.5t34 16.5h115q11 0 22 -7.5t15 -18.5l344 -963l274 960q3 12 14.5 20.5t23.5 8.5z" />
<glyph unicode="x" horiz-adv-x="1322" d="M661 478l-401 -455q-21 -23 -47 -23h-116q-26 0 -32 22.5t13 43.5l473 537l-459 521q-19 21 -13 43.5t32 22.5h116q26 0 47 -23l387 -439l387 439q21 23 47 23h116q26 0 32 -22.5t-13 -43.5l-459 -521l473 -537q19 -21 13 -43.5t-32 -22.5h-116q-26 0 -47 23z" />
<glyph unicode="y" horiz-adv-x="1340" d="M722 0h-104q-16 0 -28 12t-12 28v431l-499 655q-16 21 -5 42.5t37 21.5h97q34 0 51 -23l411 -533l411 533q17 23 51 23h97q26 0 37 -21.5t-5 -42.5l-499 -655v-431q0 -16 -12 -28t-28 -12z" />
<glyph unicode="z" horiz-adv-x="1132" d="M60 40v95q0 28 18 47l744 852h-689q-17 0 -29 11.5t-12 28.5v76q0 17 12 28.5t29 11.5h879q16 0 28 -12t12 -28v-89q0 -31 -32 -68l-730 -837h742q16 0 28 -12t12 -28v-76q0 -16 -12 -28t-28 -12h-932q-16 0 -28 12t-12 28z" />
<glyph unicode="{" horiz-adv-x="846" d="M160 579v82q0 14 9.5 24t23.5 12q61 12 101 63.5t40 131.5v344q0 145 83 204.5t241 59.5h112q18 0 27.5 -10.5t9.5 -26.5v-78q0 -16 -9.5 -26.5t-27.5 -10.5h-94q-84 0 -119 -21.5t-35 -82.5v-370q0 -107 -41 -166.5t-137 -87.5q96 -28 137 -87.5t41 -166.5v-370 q0 -61 35 -82.5t119 -21.5h94q18 0 27.5 -10.5t9.5 -26.5v-78q0 -16 -9.5 -26.5t-27.5 -10.5h-112q-158 0 -241 59.5t-83 204.5v344q0 80 -40 131.5t-101 63.5q-14 2 -23.5 12t-9.5 24z" />
<glyph unicode="|" horiz-adv-x="584" d="M214 -363v1864q0 15 11 26t26 11h82q16 0 26.5 -11t10.5 -26v-1864q0 -15 -10.5 -26t-26.5 -11h-82q-15 0 -26 11t-11 26z" />
<glyph unicode="}" horiz-adv-x="846" d="M686 661v-82q0 -14 -9.5 -24t-23.5 -12q-61 -12 -101 -63.5t-40 -131.5v-344q0 -145 -83 -204.5t-241 -59.5h-112q-18 0 -27.5 10.5t-9.5 26.5v78q0 16 9.5 26.5t27.5 10.5h94q84 0 119 21.5t35 82.5v370q0 107 41 166.5t137 87.5q-96 28 -137 87.5t-41 166.5v370 q0 61 -35 82.5t-119 21.5h-94q-18 0 -27.5 10.5t-9.5 26.5v78q0 16 9.5 26.5t27.5 10.5h112q158 0 241 -59.5t83 -204.5v-344q0 -80 40 -131.5t101 -63.5q14 -2 23.5 -12t9.5 -24z" />
<glyph unicode="~" d="M1025 792q2 14 13 23t24 9h102q17 0 28.5 -11.5t9.5 -28.5q-9 -138 -95.5 -210t-214.5 -72q-133 0 -256 86q-120 84 -208 84q-114 0 -129 -134q-1 -13 -13 -22.5t-25 -9.5h-102q-17 0 -27.5 12t-9.5 29q10 138 94.5 209.5t211.5 71.5q140 0 260 -86q119 -84 204 -84 q112 0 133 134z" />
<glyph unicode="&#xa1;" horiz-adv-x="584" d="M354 794l40 -629v-362q0 -15 -10.5 -26t-26.5 -11h-132q-16 0 -26.5 11t-10.5 26v363l40 627q1 14 11.5 24.5t25.5 10.5h52q15 0 25.5 -10t11.5 -24zM292 1190q128 0 128 -118t-128 -118t-128 118t128 118z" />
<glyph unicode="&#xa2;" horiz-adv-x="1184" d="M1094 17q-135 -38 -300 -41v-138q0 -17 -11.5 -28.5t-28.5 -11.5h-51q-17 0 -29 11.5t-12 28.5v144q-280 28 -436 190t-156 422q0 259 157 423t435 192v143q0 17 12 28.5t29 11.5h51q17 0 28.5 -11.5t11.5 -28.5v-138q167 -3 292 -39q13 -4 21 -16t6 -25l-8 -83 q-2 -19 -18 -29.5t-35 -4.5q-113 36 -258 37v-918q151 2 267 45q20 7 35 -2t17 -30l8 -89q2 -14 -6 -26.5t-21 -16.5zM258 594q0 -190 105.5 -306t298.5 -144v902q-193 -28 -298.5 -147t-105.5 -305z" />
<glyph unicode="&#xa3;" horiz-adv-x="1344" d="M80 703v50q0 15 11 26t26 11h149v225q0 205 133 307t385 102q99 0 198 -17t168 -48q28 -13 26 -41l-7 -85q-1 -20 -16.5 -29.5t-34.5 -1.5q-144 58 -320 58q-180 0 -262 -59.5t-82 -192.5v-218h471q15 0 26 -11t11 -26v-50q0 -15 -11 -26t-26 -11h-471v-164 q0 -109 -25.5 -194.5t-96.5 -147.5h915q15 0 26 -11t11 -26v-86q0 -15 -11 -26t-26 -11h-1130q-15 0 -26 11t-11 26v70q0 32 28 55q158 128 158 313v191h-149q-15 0 -26 11t-11 26z" />
<glyph unicode="&#xa4;" horiz-adv-x="1420" d="M400 664q0 -133 88 -222.5t222 -89.5t222 89.5t88 222.5t-88 222.5t-222 89.5t-222 -89.5t-88 -222.5zM218 664q0 152 84 270l-117 116q-11 11 -11 26t11 26l73 75q11 12 26.5 12t26.5 -12l115 -117q129 90 284 90t284 -90l115 117q11 12 26.5 12t26.5 -12l73 -75 q11 -11 11 -26t-11 -26l-117 -116q84 -118 84 -270t-84 -270l117 -116q11 -11 11 -26t-11 -26l-73 -75q-11 -12 -26.5 -12t-26.5 12l-115 117q-129 -90 -284 -90t-284 90l-115 -117q-11 -12 -26.5 -12t-26.5 12l-73 75q-11 11 -11 26t11 26l117 116q-84 118 -84 270z" />
<glyph unicode="&#xa5;" horiz-adv-x="1428" d="M173 674h378l-470 667q-14 19 -4 39t35 20h109q44 0 74 -43l419 -623l419 623q30 43 74 43h109q25 0 35 -20t-4 -39l-470 -667h378q15 0 26 -11t11 -26v-50q0 -15 -11 -26t-26 -11h-447v-124h447q15 0 26 -10.5t11 -26.5v-50q0 -16 -11 -26.5t-26 -10.5h-447v-265 q0 -15 -11 -26t-27 -11h-112q-16 0 -27 11t-11 26v265h-447q-15 0 -26 10.5t-11 26.5v50q0 16 11 26.5t26 10.5h447v124h-447q-15 0 -26 11t-11 26v50q0 15 11 26t26 11z" />
<glyph unicode="&#xa6;" horiz-adv-x="584" d="M251 1376h82q16 0 26.5 -11t10.5 -27v-565q0 -15 -10.5 -26t-26.5 -11h-82q-15 0 -26 11t-11 26v565q0 16 11 27t26 11zM251 440h82q16 0 26.5 -11t10.5 -27v-565q0 -15 -10.5 -26t-26.5 -11h-82q-15 0 -26 11t-11 26v565q0 16 11 27t26 11z" />
<glyph unicode="&#xa7;" horiz-adv-x="1166" d="M596 816q-122 -19 -188 -70t-66 -122q0 -61 61.5 -107.5t174.5 -68.5q121 18 187.5 68.5t66.5 121.5q0 62 -60 108t-176 70zM198 29q169 -77 346 -77q288 0 288 152q0 65 -62.5 111.5t-211.5 78.5q-197 41 -302.5 122t-105.5 200q0 95 66.5 166t175.5 98 q-120 35 -182 102.5t-62 155.5q0 135 117.5 210.5t334.5 75.5q180 0 334 -57q27 -10 23 -38l-10 -80q-2 -19 -16 -28.5t-30 -2.5q-138 54 -303 54q-126 0 -192 -35t-66 -101q0 -56 72 -98t220 -80q392 -100 392 -324q0 -92 -59 -158.5t-171 -99.5q116 -33 173 -104.5 t57 -163.5q0 -146 -123 -227t-357 -81q-210 0 -379 73q-26 11 -23 38l10 91q2 19 15.5 27t30.5 0z" />
<glyph unicode="&#xa8;" horiz-adv-x="964" d="M132 1298q0 106 114 106t114 -106t-114 -106t-114 106zM604 1298q0 106 114 106t114 -106t-114 -106t-114 106z" />
<glyph unicode="&#xa9;" horiz-adv-x="1660" d="M106 700q0 197 97 363.5t263.5 263.5t363.5 97t363.5 -97t263.5 -263.5t97 -363.5t-97 -363.5t-263.5 -263.5t-363.5 -97t-363.5 97t-263.5 263.5t-97 363.5zM218 700q0 -169 82 -312t223 -225.5t307 -82.5t307 82.5t223 225.5t82 312t-82 312t-223 225.5t-307 82.5 t-307 -82.5t-223 -225.5t-82 -312zM864 378q-133 0 -213.5 85.5t-80.5 232.5t80.5 232.5t213.5 85.5q103 0 180 -33q20 -8 33.5 -1.5t15.5 22.5l6 59q3 25 -22 34q-95 35 -217 35q-186 0 -307 -120t-121 -314t121 -314t307 -120q120 0 217 36q26 9 22 39l-7 62q-3 32 -48 13 q-79 -34 -180 -34z" />
<glyph unicode="&#xaa;" horiz-adv-x="1004" d="M698 820h-392l-54 -130q-11 -24 -37 -24h-82q-23 0 -34 17.5t-2 38.5l281 654q4 9 15.5 16.5t21.5 7.5h174q10 0 21.5 -7.5t15.5 -16.5l281 -654q9 -21 -2 -38.5t-34 -17.5h-82q-27 0 -37 24zM358 948h288l-144 344z" />
<glyph unicode="&#xab;" horiz-adv-x="1074" d="M140 618v12q0 25 24 46l378 332q14 13 24 8t10 -24v-90q0 -29 -22 -48l-260 -230l260 -230q22 -19 22 -48v-90q0 -19 -9.5 -23.5t-24.5 7.5l-378 332q-24 21 -24 46zM518 618v12q0 25 24 46l378 332q14 13 24 8t10 -24v-90q0 -29 -22 -48l-260 -230l260 -230 q22 -19 22 -48v-90q0 -19 -9.5 -23.5t-24.5 7.5l-378 332q-24 21 -24 46z" />
<glyph unicode="&#xac;" d="M110 767v86q0 16 10 26.5t26 10.5h1011q15 0 26 -10.5t11 -26.5v-490q0 -16 -11 -26.5t-26 -10.5h-114q-15 0 -26 10.5t-11 26.5v367h-860q-15 0 -25.5 11t-10.5 26z" />
<glyph unicode="&#xad;" horiz-adv-x="852" d="M694 576h-537q-16 0 -26.5 11t-10.5 26v102q0 15 10.5 26t26.5 11h537q16 0 27 -11t11 -26v-102q0 -15 -11 -26t-27 -11z" />
<glyph unicode="&#xae;" horiz-adv-x="1660" d="M106 700q0 197 97 363.5t263.5 263.5t363.5 97t363.5 -97t263.5 -263.5t97 -363.5t-97 -363.5t-263.5 -263.5t-363.5 -97t-363.5 97t-263.5 263.5t-97 363.5zM218 700q0 -169 82 -312t223 -225.5t307 -82.5t307 82.5t223 225.5t82 312t-82 312t-223 225.5t-307 82.5 t-307 -82.5t-223 -225.5t-82 -312zM1008 874q0 64 -43 97t-141 33h-146v-260h146q184 0 184 130zM580 1116h252q144 0 228 -64t84 -178q0 -84 -46 -142t-130 -84l192 -326q8 -12 2 -26t-24 -14h-63q-37 0 -56 33l-181 315h-160v-311q0 -15 -11 -26t-26 -11h-62q-15 0 -26 11 t-11 26v761q0 15 11.5 25.5t26.5 10.5z" />
<glyph unicode="&#xaf;" horiz-adv-x="964" d="M140 1257v78q0 15 11 26t26 11h610q15 0 26 -11t11 -26v-78q0 -15 -11 -26t-26 -11h-610q-15 0 -26 11t-11 26z" />
<glyph unicode="&#xb0;" horiz-adv-x="964" d="M482 836q-129 0 -216.5 85.5t-87.5 208.5t87.5 208.5t216.5 85.5t216.5 -85.5t87.5 -208.5t-87.5 -208.5t-216.5 -85.5zM482 1286q-67 0 -110.5 -43t-43.5 -113t43.5 -113t110.5 -43t110.5 43t43.5 113t-43.5 113t-110.5 43z" />
<glyph unicode="&#xb1;" d="M568 351v359h-411q-15 0 -26 11t-11 26v86q0 15 11 26t26 11h411v359q0 15 11 26t26 11h114q16 0 26.5 -11t10.5 -26v-359h411q16 0 26.5 -11t10.5 -26v-86q0 -15 -10.5 -26t-26.5 -11h-411v-359q0 -16 -10.5 -26.5t-26.5 -10.5h-114q-15 0 -26 10.5t-11 26.5zM1167 70 h-1010q-15 0 -26 10.5t-11 26.5v85q0 16 11 27t26 11h1010q16 0 26.5 -11t10.5 -27v-85q0 -16 -10.5 -26.5t-26.5 -10.5z" />
<glyph unicode="&#xb2;" horiz-adv-x="900" d="M110 607q218 153 356 293q76 76 110 130t34 108q0 134 -206 134q-120 0 -220 -37q-18 -6 -33 3.5t-16 28.5l-4 63q-1 11 6.5 23t17.5 16q116 47 267 47q170 0 262 -69t92 -199q0 -84 -38 -157.5t-132 -166.5q-127 -125 -258 -216h399q15 0 26 -10.5t11 -26.5v-64 q0 -16 -11 -26.5t-26 -10.5h-616q-15 0 -26 10.5t-11 26.5v64q0 24 16 36z" />
<glyph unicode="&#xb3;" horiz-adv-x="900" d="M115 490q-11 4 -17.5 14.5t-4.5 22.5l8 72q2 18 17 27t32 3q93 -31 222 -31q115 0 175.5 34.5t60.5 93.5q0 150 -346 156q-16 1 -26 11t-10 26v70q0 14 10.5 25t25.5 12q160 2 246 40t86 98q0 108 -210 108q-124 0 -215 -30q-17 -5 -32 3.5t-17 26.5l-8 66 q-2 12 4.5 22.5t17.5 14.5q121 41 264 41q172 0 267 -62t95 -182q0 -72 -51.5 -130t-146.5 -84q102 -27 157 -88t55 -144q0 -129 -103.5 -200.5t-292.5 -71.5q-140 0 -263 36z" />
<glyph unicode="&#xb4;" horiz-adv-x="964" d="M294 1196l220 242q20 22 40 22h145q32 0 40 -18.5t-14 -37.5l-280 -244q-28 -24 -54 -24h-67q-37 0 -45 18t15 42z" />
<glyph unicode="&#xb5;" horiz-adv-x="1636" d="M862 386h-88q-18 0 -32 16l-422 548v-910q0 -17 -11.5 -28.5t-28.5 -11.5h-99q-17 0 -29 11.5t-12 28.5v1110q0 17 12 28.5t29 11.5h152q6 0 16.5 -5.5t14.5 -10.5l454 -595l454 595q4 5 14.5 10.5t16.5 5.5h152q17 0 29 -11.5t12 -28.5v-1110q0 -17 -12 -28.5t-29 -11.5 h-99q-17 0 -28.5 11.5t-11.5 28.5v910l-422 -548q-14 -16 -32 -16z" />
<glyph unicode="&#xb6;" horiz-adv-x="1144" d="M984 1400v-1627q0 -15 -11 -26t-26 -11h-72q-16 0 -26.5 11t-10.5 26v1477h-140v-1479q0 -15 -11 -25t-26 -10h-77q-16 0 -27 11t-11 26v761h-18q-127 0 -232 50.5t-170.5 151.5t-65.5 234q0 200 123.5 315t320.5 115h480z" />
<glyph unicode="&#xb7;" horiz-adv-x="668" d="M334 536q-128 0 -128 118t128 118t128 -118t-128 -118z" />
<glyph unicode="&#xb8;" horiz-adv-x="964" d="M394 -476q-53 0 -106 8q-24 3 -24 28v65q0 12 7 18t16 4q45 -7 101 -7q150 0 150 80q0 89 -206 99q-15 1 -20 11.5t2 20.5l88 133q10 16 29 16h121q14 0 18.5 -9.5t-2.5 -19.5l-60 -89q90 -13 140 -60t50 -116q0 -182 -304 -182z" />
<glyph unicode="&#xb9;" horiz-adv-x="900" d="M428 1211l-170 -103q-9 -6 -24 -5t-21 10l-45 68q-9 13 -6.5 28.5t16.5 24.5l256 156q19 12 41 12h80q16 0 26.5 -11t10.5 -27v-857q0 -16 -10.5 -26.5t-26.5 -10.5h-90q-16 0 -26.5 10.5t-10.5 26.5v704z" />
<glyph unicode="&#xba;" horiz-adv-x="1004" d="M502 652q-189 0 -307.5 103.5t-118.5 278.5t118.5 278.5t307.5 103.5t307.5 -103.5t118.5 -278.5t-118.5 -278.5t-307.5 -103.5zM502 1284q-117 0 -188.5 -64t-71.5 -186t71.5 -186t188.5 -64t188.5 64t71.5 186t-71.5 186t-188.5 64z" />
<glyph unicode="&#xbb;" horiz-adv-x="1074" d="M934 630v-12q0 -25 -24 -46l-378 -332q-15 -12 -24.5 -7.5t-9.5 23.5v90q0 29 22 48l260 230l-260 230q-22 19 -22 48v90q0 19 9.5 23.5t24.5 -7.5l378 -332q24 -21 24 -46zM556 630v-12q0 -25 -24 -46l-378 -332q-15 -12 -24.5 -7.5t-9.5 23.5v90q0 29 22 48l260 230 l-260 230q-22 19 -22 48v90q0 19 9.5 23.5t24.5 -7.5l378 -332q24 -21 24 -46z" />
<glyph unicode="&#xbc;" horiz-adv-x="2230" d="M424 1211l-170 -103q-9 -6 -24 -5t-21 10l-45 68q-9 13 -6.5 28.5t16.5 24.5l256 156q19 12 41 12h80q16 0 26.5 -11t10.5 -27v-857q0 -16 -10.5 -26.5t-26.5 -10.5h-90q-16 0 -26.5 10.5t-10.5 26.5v704zM1240 233v74q0 16 14 33l497 575q10 13 36 13h96q15 0 26 -11 t11 -26v-559h93q15 0 26 -11t11 -26v-62q0 -15 -11 -26t-26 -11h-93v-158q0 -16 -11 -27t-26 -11h-90q-15 0 -26 11t-11 27v158h-479q-15 0 -26 11t-11 26zM1756 722l-337 -390h337v390zM1576 1402l-919 -1412q-13 -20 -34 -20h-102q-15 0 -20.5 8.5t2.5 19.5l918 1412 q13 20 34 20h103q15 0 20 -9t-2 -19z" />
<glyph unicode="&#xbd;" horiz-adv-x="2230" d="M424 1211l-170 -103q-9 -6 -24 -5t-21 10l-45 68q-9 13 -6.5 28.5t16.5 24.5l256 156q19 12 41 12h80q16 0 26.5 -11t10.5 -27v-857q0 -16 -10.5 -26.5t-26.5 -10.5h-90q-16 0 -26.5 10.5t-10.5 26.5v704zM1528 1402l-919 -1412q-13 -20 -34 -20h-102q-15 0 -20.5 8.5 t2.5 19.5l918 1412q13 20 34 20h103q15 0 20 -9t-2 -19zM1366 137q218 153 356 293q76 76 110 130t34 108q0 134 -206 134q-120 0 -220 -37q-18 -6 -33 3.5t-16 28.5l-4 63q-1 11 6.5 23t17.5 16q116 47 267 47q170 0 262 -69t92 -199q0 -84 -38 -157.5t-132 -166.5 q-127 -125 -258 -216h399q15 0 26 -10.5t11 -26.5v-64q0 -16 -11 -26.5t-26 -10.5h-616q-15 0 -26 10.5t-11 26.5v64q0 24 16 36z" />
<glyph unicode="&#xbe;" horiz-adv-x="2230" d="M115 490q-11 4 -17.5 14.5t-4.5 22.5l8 72q2 18 17 27t32 3q93 -31 222 -31q115 0 175.5 34.5t60.5 93.5q0 150 -346 156q-16 1 -26 11t-10 26v70q0 14 10.5 25t25.5 12q160 2 246 40t86 98q0 108 -210 108q-124 0 -215 -30q-17 -5 -32 3.5t-17 26.5l-8 66 q-2 12 4.5 22.5t17.5 14.5q121 41 264 41q172 0 267 -62t95 -182q0 -72 -51.5 -130t-146.5 -84q102 -27 157 -88t55 -144q0 -129 -103.5 -200.5t-292.5 -71.5q-140 0 -263 36zM1660 1402l-919 -1412q-13 -20 -34 -20h-102q-15 0 -20.5 8.5t2.5 19.5l918 1412q13 20 34 20 h103q15 0 20 -9t-2 -19zM1284 233v74q0 16 14 33l497 575q10 13 36 13h96q15 0 26 -11t11 -26v-559h93q15 0 26 -11t11 -26v-62q0 -15 -11 -26t-26 -11h-93v-158q0 -16 -11 -27t-26 -11h-90q-15 0 -26 11t-11 27v158h-479q-15 0 -26 11t-11 26zM1800 722l-337 -390h337v390z " />
<glyph unicode="&#xbf;" horiz-adv-x="1198" d="M788 791v-36q0 -138 -52 -233t-176 -168q-126 -74 -172 -133t-46 -138q0 -87 85 -128t268 -41q193 0 341 63q19 8 34 -1.5t17 -29.5l9 -99q1 -10 -6 -21t-17 -15q-77 -32 -181.5 -50.5t-205.5 -18.5q-272 0 -409 87.5t-137 253.5q0 110 72 209.5t208 178.5 q91 53 132.5 122t41.5 167v31q0 16 11 26.5t26 10.5h120q15 0 26 -10.5t11 -26.5zM692 1190q128 0 128 -118t-128 -118t-128 118t128 118z" />
<glyph unicode="&#xc0;" horiz-adv-x="1516" d="M1066 522h-616l308 696zM376 358h764l138 -313q20 -45 71 -45h98q22 0 32.5 17t1.5 37l-601 1319q-12 27 -43 27h-158q-31 0 -43 -27l-601 -1319q-9 -20 1.5 -37t32.5 -17h98q51 0 71 45zM648 1826l220 -242q23 -24 15 -42t-45 -18h-68q-26 0 -54 24l-279 244 q-22 19 -14.5 37.5t39.5 18.5h146q20 0 40 -22z" />
<glyph unicode="&#xc1;" horiz-adv-x="1516" d="M450 522h616l-308 696zM1140 358h-764l-138 -313q-20 -45 -71 -45h-98q-22 0 -32.5 17t-1.5 37l601 1319q12 27 43 27h158q31 0 43 -27l601 -1319q9 -20 -1.5 -37t-32.5 -17h-98q-51 0 -71 45zM648 1584l220 242q20 22 40 22h145q32 0 40 -18.5t-14 -37.5l-280 -244 q-28 -24 -54 -24h-67q-37 0 -45 18t15 42z" />
<glyph unicode="&#xc2;" horiz-adv-x="1516" d="M450 522h616l-308 696zM1140 358h-764l-138 -313q-20 -45 -71 -45h-98q-22 0 -32.5 17t-1.5 37l601 1319q12 27 43 27h158q31 0 43 -27l601 -1319q9 -20 -1.5 -37t-32.5 -17h-98q-51 0 -71 45zM689 1848h138q24 0 46 -24l238 -266q13 -14 8 -24t-24 -10h-114 q-29 0 -48 22l-175 188l-175 -188q-19 -22 -48 -22h-114q-19 0 -24 10t8 24l238 266q22 24 46 24z" />
<glyph unicode="&#xc3;" horiz-adv-x="1516" d="M1066 522h-616l308 696zM376 358h764l138 -313q20 -45 71 -45h98q22 0 32.5 17t1.5 37l-601 1319q-12 27 -43 27h-158q-31 0 -43 -27l-601 -1319q-9 -20 1.5 -37t32.5 -17h98q51 0 71 45zM971 1778q3 38 36 38h84q16 0 26.5 -9t9.5 -23q-6 -120 -59 -176t-140 -56 q-53 0 -119 34.5t-121 69t-82 34.5q-26 0 -41 -21.5t-20 -80.5q-3 -32 -36 -32h-84q-18 0 -28 10.5t-8 27.5q8 118 61 172t138 54q53 0 119 -34.5t121 -69t82 -34.5q29 0 43 22.5t18 73.5z" />
<glyph unicode="&#xc4;" horiz-adv-x="1516" d="M1066 522h-616l308 696zM376 358h764l138 -313q20 -45 71 -45h98q22 0 32.5 17t1.5 37l-601 1319q-12 27 -43 27h-158q-31 0 -43 -27l-601 -1319q-9 -20 1.5 -37t32.5 -17h98q51 0 71 45zM408 1686q0 106 114 106t114 -106t-114 -106t-114 106zM880 1686q0 106 114 106 t114 -106t-114 -106t-114 106z" />
<glyph unicode="&#xc5;" horiz-adv-x="1516" d="M1066 522h-616l308 696zM376 358h764l138 -313q20 -45 71 -45h98q22 0 32.5 17t1.5 37l-601 1319q-12 27 -43 27h-158q-31 0 -43 -27l-601 -1319q-9 -20 1.5 -37t32.5 -17h98q51 0 71 45zM758 1450q-102 0 -171 67t-69 163t69 163t171 67t171 -67t69 -163t-69 -163 t-171 -67zM868 1680q0 48 -32 79t-78 31t-78 -31t-32 -79t32 -79t78 -31t78 31t32 79z" />
<glyph unicode="&#xc6;" horiz-adv-x="1998" d="M996 364h-536l-200 -328q-21 -36 -60 -36h-123q-24 0 -34 19t3 40l813 1324q4 6 14 11.5t17 5.5h970q16 0 27 -11t11 -27v-84q0 -16 -11 -27t-27 -11h-676v-440h616q16 0 27 -11t11 -26v-85q0 -16 -11 -27t-27 -11h-616v-480h696q16 0 27 -11t11 -27v-84q0 -16 -11 -27 t-27 -11h-847q-15 0 -26 11t-11 27v326zM996 1242l-438 -718h438v718z" />
<glyph unicode="&#xc7;" horiz-adv-x="1400" d="M90 700q0 330 223 527t611 197q197 0 351 -46q35 -10 32 -46l-9 -85q-2 -20 -16.5 -30t-33.5 -3q-125 46 -314 46q-305 0 -478.5 -152t-173.5 -408t173.5 -408t478.5 -152q185 0 324 51q19 7 33.5 -3t16.5 -30l8 -85q2 -17 -7 -31.5t-24 -18.5q-147 -44 -337 -47l-64 -94 q90 -13 140 -60t50 -116q0 -182 -304 -182q-53 0 -106 8q-24 3 -24 28v65q0 12 7 18t16 4q45 -7 101 -7q150 0 150 80q0 89 -206 99q-15 1 -20 11.5t2 20.5l88 133q-324 37 -506 228t-182 488z" />
<glyph unicode="&#xc8;" horiz-adv-x="1278" d="M160 38v1324q0 16 11 27t27 11h942q16 0 27 -11t11 -27v-84q0 -16 -11 -27t-27 -11h-792v-440h746q16 0 27 -11t11 -26v-85q0 -16 -11 -27t-27 -11h-746v-480h813q15 0 26 -11t11 -27v-84q0 -16 -11 -27t-26 -11h-963q-16 0 -27 11t-11 27zM586 1826l220 -242 q23 -24 15 -42t-45 -18h-68q-26 0 -54 24l-279 244q-22 19 -14.5 37.5t39.5 18.5h146q20 0 40 -22z" />
<glyph unicode="&#xc9;" horiz-adv-x="1278" d="M160 38v1324q0 16 11 27t27 11h942q16 0 27 -11t11 -27v-84q0 -16 -11 -27t-27 -11h-792v-440h746q16 0 27 -11t11 -26v-85q0 -16 -11 -27t-27 -11h-746v-480h813q15 0 26 -11t11 -27v-84q0 -16 -11 -27t-26 -11h-963q-16 0 -27 11t-11 27zM522 1584l220 242q20 22 40 22 h145q32 0 40 -18.5t-14 -37.5l-280 -244q-28 -24 -54 -24h-67q-37 0 -45 18t15 42z" />
<glyph unicode="&#xca;" horiz-adv-x="1278" d="M160 38v1324q0 16 11 27t27 11h942q16 0 27 -11t11 -27v-84q0 -16 -11 -27t-27 -11h-792v-440h746q16 0 27 -11t11 -26v-85q0 -16 -11 -27t-27 -11h-746v-480h813q15 0 26 -11t11 -27v-84q0 -16 -11 -27t-26 -11h-963q-16 0 -27 11t-11 27zM599 1848h138q24 0 46 -24 l238 -266q13 -14 8 -24t-24 -10h-114q-29 0 -48 22l-175 188l-175 -188q-19 -22 -48 -22h-114q-19 0 -24 10t8 24l238 266q22 24 46 24z" />
<glyph unicode="&#xcb;" horiz-adv-x="1278" d="M160 38v1324q0 16 11 27t27 11h942q16 0 27 -11t11 -27v-84q0 -16 -11 -27t-27 -11h-792v-440h746q16 0 27 -11t11 -26v-85q0 -16 -11 -27t-27 -11h-746v-480h813q15 0 26 -11t11 -27v-84q0 -16 -11 -27t-26 -11h-963q-16 0 -27 11t-11 27zM318 1686q0 106 114 106 t114 -106t-114 -106t-114 106zM790 1686q0 106 114 106t114 -106t-114 -106t-114 106z" />
<glyph unicode="&#xcc;" horiz-adv-x="528" d="M208 1400h113q15 0 26 -11t11 -27v-1324q0 -16 -11 -27t-26 -11h-113q-16 0 -27 11t-11 27v1324q0 16 11 27t27 11zM110 1826l220 -242q23 -24 15 -42t-45 -18h-68q-26 0 -54 24l-279 244q-22 19 -14.5 37.5t39.5 18.5h146q20 0 40 -22z" />
<glyph unicode="&#xcd;" horiz-adv-x="528" d="M208 1400h113q15 0 26 -11t11 -27v-1324q0 -16 -11 -27t-26 -11h-113q-16 0 -27 11t-11 27v1324q0 16 11 27t27 11zM198 1584l220 242q20 22 40 22h145q32 0 40 -18.5t-14 -37.5l-280 -244q-28 -24 -54 -24h-67q-37 0 -45 18t15 42z" />
<glyph unicode="&#xce;" horiz-adv-x="528" d="M208 1400h113q15 0 26 -11t11 -27v-1324q0 -16 -11 -27t-26 -11h-113q-16 0 -27 11t-11 27v1324q0 16 11 27t27 11zM195 1848h138q24 0 46 -24l238 -266q13 -14 8 -24t-24 -10h-114q-29 0 -48 22l-175 188l-175 -188q-19 -22 -48 -22h-114q-19 0 -24 10t8 24l238 266 q22 24 46 24z" />
<glyph unicode="&#xcf;" horiz-adv-x="528" d="M208 1400h113q15 0 26 -11t11 -27v-1324q0 -16 -11 -27t-26 -11h-113q-16 0 -27 11t-11 27v1324q0 16 11 27t27 11zM-86 1686q0 106 114 106t114 -106t-114 -106t-114 106zM386 1686q0 106 114 106t114 -106t-114 -106t-114 106z" />
<glyph unicode="&#xd0;" horiz-adv-x="1542" d="M585 0h-375q-15 0 -26 11t-11 27v592h-141q-16 0 -27 11t-11 27v64q0 16 11 27t27 11h141v592q0 16 11 27t26 11h375q199 0 361 -44.5t280 -131t182.5 -220t64.5 -304.5q0 -172 -64.5 -305.5t-182.5 -219.5t-280 -130.5t-361 -44.5zM719 630h-358v-470h194q726 0 726 540 q0 274 -187 407t-539 133h-194v-470h358q16 0 27 -11t11 -27v-64q0 -16 -11 -27t-27 -11z" />
<glyph unicode="&#xd1;" horiz-adv-x="1582" d="M417 1366l821 -1133v1129q0 16 11 27t27 11h108q16 0 27 -11t11 -27v-1324q0 -16 -11 -27t-27 -11h-140q-55 0 -79 34l-821 1133v-1129q0 -16 -11 -27t-27 -11h-108q-16 0 -27 11t-11 27v1324q0 16 11 27t27 11h140q55 0 79 -34zM1005 1778q3 38 36 38h84q16 0 26.5 -9 t9.5 -23q-6 -120 -59 -176t-140 -56q-53 0 -119 34.5t-121 69t-82 34.5q-26 0 -41 -21.5t-20 -80.5q-3 -32 -36 -32h-84q-18 0 -28 10.5t-8 27.5q8 118 61 172t138 54q53 0 119 -34.5t121 -69t82 -34.5q29 0 43 22.5t18 73.5z" />
<glyph unicode="&#xd2;" horiz-adv-x="1648" d="M1366 700q0 255 -146.5 407.5t-395.5 152.5t-395.5 -152.5t-146.5 -407.5t146.5 -407.5t395.5 -152.5t395.5 152.5t146.5 407.5zM1558 700q0 -205 -85.5 -367.5t-254 -259.5t-394.5 -97t-394.5 97t-254 259.5t-85.5 367.5t85.5 367.5t254 259.5t394.5 97t394.5 -97 t254 -259.5t85.5 -367.5zM768 1826l220 -242q23 -24 15 -42t-45 -18h-68q-26 0 -54 24l-279 244q-22 19 -14.5 37.5t39.5 18.5h146q20 0 40 -22z" />
<glyph unicode="&#xd3;" horiz-adv-x="1648" d="M1366 700q0 255 -146.5 407.5t-395.5 152.5t-395.5 -152.5t-146.5 -407.5t146.5 -407.5t395.5 -152.5t395.5 152.5t146.5 407.5zM1558 700q0 -205 -85.5 -367.5t-254 -259.5t-394.5 -97t-394.5 97t-254 259.5t-85.5 367.5t85.5 367.5t254 259.5t394.5 97t394.5 -97 t254 -259.5t85.5 -367.5zM660 1584l220 242q20 22 40 22h145q32 0 40 -18.5t-14 -37.5l-280 -244q-28 -24 -54 -24h-67q-37 0 -45 18t15 42z" />
<glyph unicode="&#xd4;" horiz-adv-x="1648" d="M1366 700q0 255 -146.5 407.5t-395.5 152.5t-395.5 -152.5t-146.5 -407.5t146.5 -407.5t395.5 -152.5t395.5 152.5t146.5 407.5zM1558 700q0 -205 -85.5 -367.5t-254 -259.5t-394.5 -97t-394.5 97t-254 259.5t-85.5 367.5t85.5 367.5t254 259.5t394.5 97t394.5 -97 t254 -259.5t85.5 -367.5zM755 1848h138q24 0 46 -24l238 -266q13 -14 8 -24t-24 -10h-114q-29 0 -48 22l-175 188l-175 -188q-19 -22 -48 -22h-114q-19 0 -24 10t8 24l238 266q22 24 46 24z" />
<glyph unicode="&#xd5;" horiz-adv-x="1648" d="M1366 700q0 255 -146.5 407.5t-395.5 152.5t-395.5 -152.5t-146.5 -407.5t146.5 -407.5t395.5 -152.5t395.5 152.5t146.5 407.5zM1558 700q0 -205 -85.5 -367.5t-254 -259.5t-394.5 -97t-394.5 97t-254 259.5t-85.5 367.5t85.5 367.5t254 259.5t394.5 97t394.5 -97 t254 -259.5t85.5 -367.5zM1037 1778q3 38 36 38h84q16 0 26.5 -9t9.5 -23q-6 -120 -59 -176t-140 -56q-53 0 -119 34.5t-121 69t-82 34.5q-26 0 -41 -21.5t-20 -80.5q-3 -32 -36 -32h-84q-18 0 -28 10.5t-8 27.5q8 118 61 172t138 54q53 0 119 -34.5t121 -69t82 -34.5 q29 0 43 22.5t18 73.5z" />
<glyph unicode="&#xd6;" horiz-adv-x="1648" d="M1366 700q0 255 -146.5 407.5t-395.5 152.5t-395.5 -152.5t-146.5 -407.5t146.5 -407.5t395.5 -152.5t395.5 152.5t146.5 407.5zM1558 700q0 -205 -85.5 -367.5t-254 -259.5t-394.5 -97t-394.5 97t-254 259.5t-85.5 367.5t85.5 367.5t254 259.5t394.5 97t394.5 -97 t254 -259.5t85.5 -367.5zM474 1686q0 106 114 106t114 -106t-114 -106t-114 106zM946 1686q0 106 114 106t114 -106t-114 -106t-114 106z" />
<glyph unicode="&#xd7;" d="M999 246l-337 302l-337 -302q-11 -10 -25.5 -9.5t-25.5 11.5l-69 70q-11 10 -10.5 26.5t11.5 26.5l326 293l-323 290q-12 11 -11.5 29.5t11.5 29.5l65 65q11 11 26 11.5t26 -9.5l336 -300l336 300q11 10 26 9.5t26 -11.5l65 -65q11 -11 11.5 -29.5t-11.5 -29.5l-323 -290 l326 -293q11 -10 11.5 -26.5t-10.5 -26.5l-69 -70q-11 -11 -25.5 -11.5t-25.5 9.5z" />
<glyph unicode="&#xd8;" horiz-adv-x="1648" d="M1558 700q0 -205 -85.5 -367.5t-254 -259.5t-394.5 -97q-195 0 -352 74l-154 -225q-16 -25 -43 -25h-107q-16 0 -20.5 14.5t3.5 24.5l197 288q-125 98 -191.5 246.5t-66.5 326.5q0 205 85.5 367.5t254 259.5t394.5 97q198 0 357 -77l156 228q16 25 43 25h107 q16 0 20.5 -14.5t-3.5 -24.5l-199 -292q122 -98 187.5 -245.5t65.5 -323.5zM282 700q0 -275 166 -427l636 932q-113 55 -260 55q-249 0 -395.5 -152.5t-146.5 -407.5zM1366 700q0 269 -162 422l-635 -930q112 -52 255 -52q249 0 395.5 152.5t146.5 407.5z" />
<glyph unicode="&#xd9;" horiz-adv-x="1622" d="M811 -24q142 0 259.5 35t205.5 104t137 179t49 252v816q0 16 -11 27t-26 11h-113q-16 0 -27 -11t-11 -27v-798q0 -205 -117.5 -314.5t-345.5 -109.5t-345.5 109.5t-117.5 314.5v798q0 16 -11 27t-27 11h-113q-15 0 -26 -11t-11 -27v-816q0 -142 49 -252t137 -179 t205.5 -104t259.5 -35zM688 1826l220 -242q23 -24 15 -42t-45 -18h-68q-26 0 -54 24l-279 244q-22 19 -14.5 37.5t39.5 18.5h146q20 0 40 -22z" />
<glyph unicode="&#xda;" horiz-adv-x="1622" d="M811 -24q-142 0 -259.5 35t-205.5 104t-137 179t-49 252v816q0 16 11 27t26 11h113q16 0 27 -11t11 -27v-798q0 -205 117.5 -314.5t345.5 -109.5t345.5 109.5t117.5 314.5v798q0 16 11 27t27 11h113q15 0 26 -11t11 -27v-816q0 -142 -49 -252t-137 -179t-205.5 -104 t-259.5 -35zM714 1584l220 242q20 22 40 22h145q32 0 40 -18.5t-14 -37.5l-280 -244q-28 -24 -54 -24h-67q-37 0 -45 18t15 42z" />
<glyph unicode="&#xdb;" horiz-adv-x="1622" d="M811 -24q-142 0 -259.5 35t-205.5 104t-137 179t-49 252v816q0 16 11 27t26 11h113q16 0 27 -11t11 -27v-798q0 -205 117.5 -314.5t345.5 -109.5t345.5 109.5t117.5 314.5v798q0 16 11 27t27 11h113q15 0 26 -11t11 -27v-816q0 -142 -49 -252t-137 -179t-205.5 -104 t-259.5 -35zM741 1848h138q24 0 46 -24l238 -266q13 -14 8 -24t-24 -10h-114q-29 0 -48 22l-175 188l-175 -188q-19 -22 -48 -22h-114q-19 0 -24 10t8 24l238 266q22 24 46 24z" />
<glyph unicode="&#xdc;" horiz-adv-x="1622" d="M811 -24q142 0 259.5 35t205.5 104t137 179t49 252v816q0 16 -11 27t-26 11h-113q-16 0 -27 -11t-11 -27v-798q0 -205 -117.5 -314.5t-345.5 -109.5t-345.5 109.5t-117.5 314.5v798q0 16 -11 27t-27 11h-113q-15 0 -26 -11t-11 -27v-816q0 -142 49 -252t137 -179 t205.5 -104t259.5 -35zM460 1686q0 106 114 106t114 -106t-114 -106t-114 106zM932 1686q0 106 114 106t114 -106t-114 -106t-114 106z" />
<glyph unicode="&#xdd;" horiz-adv-x="1568" d="M840 0h-112q-16 0 -27 11t-11 27v516l-603 785q-15 20 -5 40.5t35 20.5h105q47 0 75 -38l487 -640l487 640q28 38 75 38h105q25 0 35 -20.5t-5 -40.5l-603 -785v-516q0 -16 -11 -27t-27 -11zM660 1584l220 242q20 22 40 22h145q32 0 40 -18.5t-14 -37.5l-280 -244 q-28 -24 -54 -24h-67q-37 0 -45 18t15 42z" />
<glyph unicode="&#xde;" horiz-adv-x="1322" d="M354 432h260q430 0 430 278q0 276 -430 276h-260v-554zM354 268v-230q0 -16 -11 -27t-26 -11h-119q-16 0 -27 11t-11 27v1324q0 16 11 27t27 11h119q15 0 26 -11t11 -27v-212h276q280 0 446 -112.5t166 -327.5q0 -145 -79 -246t-214.5 -148.5t-318.5 -47.5h-276z" />
<glyph unicode="&#xdf;" horiz-adv-x="1282" d="M617 645q-14 1 -24.5 12t-10.5 25v94q0 15 10.5 25.5t24.5 11.5q158 6 241.5 68.5t83.5 170.5q0 89 -79.5 146.5t-208.5 57.5q-147 0 -223.5 -75.5t-76.5 -224.5v-919q0 -15 -11 -26t-26 -11h-120q-15 0 -26 11t-11 26v903q0 240 126 362t372 122q212 0 347 -103 t135 -263q0 -117 -70 -200t-202 -124q155 -35 244.5 -130.5t89.5 -231.5q0 -192 -125 -294t-365 -102q-130 0 -240 39q-11 4 -18.5 16t-6.5 24l11 99q2 19 17 27.5t33 1.5q98 -39 208 -39q140 0 214 62t74 166q0 117 -103 191.5t-284 81.5z" />
<glyph unicode="&#xe0;" horiz-adv-x="1300" d="M332 294h636l118 -270q11 -24 37 -24h106q23 0 34.5 17.5t1.5 39.5l-496 1110q-11 23 -36 23h-166q-25 0 -36 -23l-496 -1110q-10 -22 1.5 -39.5t34.5 -17.5h106q26 0 37 24zM898 450h-496l248 564zM540 1616l220 -242q23 -24 15 -42t-45 -18h-68q-26 0 -54 24l-279 244 q-22 19 -14.5 37.5t39.5 18.5h146q20 0 40 -22z" />
<glyph unicode="&#xe1;" horiz-adv-x="1300" d="M968 294h-636l-118 -270q-11 -24 -37 -24h-106q-23 0 -34.5 17.5t-1.5 39.5l496 1110q11 23 36 23h166q25 0 36 -23l496 -1110q10 -22 -1.5 -39.5t-34.5 -17.5h-106q-26 0 -37 24zM402 450h496l-248 564zM540 1374l220 242q20 22 40 22h145q32 0 40 -18.5t-14 -37.5 l-280 -244q-28 -24 -54 -24h-67q-37 0 -45 18t15 42z" />
<glyph unicode="&#xe2;" horiz-adv-x="1300" d="M968 294h-636l-118 -270q-11 -24 -37 -24h-106q-23 0 -34.5 17.5t-1.5 39.5l496 1110q11 23 36 23h166q25 0 36 -23l496 -1110q10 -22 -1.5 -39.5t-34.5 -17.5h-106q-26 0 -37 24zM402 450h496l-248 564zM581 1638h138q24 0 46 -24l238 -266q13 -14 8 -24t-24 -10h-114 q-29 0 -48 22l-175 188l-175 -188q-19 -22 -48 -22h-114q-19 0 -24 10t8 24l238 266q22 24 46 24z" />
<glyph unicode="&#xe3;" horiz-adv-x="1300" d="M332 294h636l118 -270q11 -24 37 -24h106q23 0 34.5 17.5t1.5 39.5l-496 1110q-11 23 -36 23h-166q-25 0 -36 -23l-496 -1110q-10 -22 1.5 -39.5t34.5 -17.5h106q26 0 37 24zM898 450h-496l248 564zM863 1568q3 38 36 38h84q16 0 26.5 -9t9.5 -23q-6 -120 -59 -176 t-140 -56q-53 0 -119 34.5t-121 69t-82 34.5q-26 0 -41 -21.5t-20 -80.5q-3 -32 -36 -32h-84q-18 0 -28 10.5t-8 27.5q8 118 61 172t138 54q53 0 119 -34.5t121 -69t82 -34.5q29 0 43 22.5t18 73.5z" />
<glyph unicode="&#xe4;" horiz-adv-x="1300" d="M332 294h636l118 -270q11 -24 37 -24h106q23 0 34.5 17.5t1.5 39.5l-496 1110q-11 23 -36 23h-166q-25 0 -36 -23l-496 -1110q-10 -22 1.5 -39.5t34.5 -17.5h106q26 0 37 24zM898 450h-496l248 564zM300 1476q0 106 114 106q115 0 115 -106t-115 -106q-114 0 -114 106z M772 1476q0 106 114 106q115 0 115 -106t-115 -106q-114 0 -114 106z" />
<glyph unicode="&#xe5;" horiz-adv-x="1300" d="M332 294h636l118 -270q11 -24 37 -24h106q23 0 34.5 17.5t1.5 39.5l-496 1110q-11 23 -36 23h-166q-25 0 -36 -23l-496 -1110q-10 -22 1.5 -39.5t34.5 -17.5h106q26 0 37 24zM898 450h-496l248 564zM650 1240q-102 0 -171 67t-69 163t69 163t171 67t171 -67t69 -163 t-69 -163t-171 -67zM760 1470q0 48 -32 79t-78 31t-78 -31t-32 -79t32 -79t78 -31t78 31t32 79z" />
<glyph unicode="&#xe6;" horiz-adv-x="1698" d="M1588 0h-713q-17 0 -28.5 12t-11.5 28v254h-447l-164 -274q-5 -8 -15.5 -14t-19.5 -6h-111q-25 0 -36 19.5t2 41.5l663 1107q13 22 37 22h828q16 0 28 -12t12 -28v-76q0 -16 -12 -28t-28 -12h-554v-344h502q17 0 28.5 -11.5t11.5 -28.5v-75q0 -17 -11.5 -29t-28.5 -12 h-502v-378h570q17 0 28.5 -11.5t11.5 -28.5v-76q0 -17 -11.5 -28.5t-28.5 -11.5zM834 1036l-352 -586h352v586z" />
<glyph unicode="&#xe7;" horiz-adv-x="1184" d="M1094 17q-124 -35 -276 -40l-64 -95q90 -13 140 -60t50 -116q0 -182 -304 -182q-69 0 -116 10q-14 3 -14 20v76q0 12 4.5 16t13.5 2q51 -8 106 -8q150 0 150 80q0 88 -211 99q-12 2 -17 9.5t1 18.5l89 137q-273 31 -424.5 192t-151.5 418q0 284 186.5 452t511.5 168 q184 0 318 -39q13 -4 21 -16t6 -25l-8 -83q-2 -19 -18 -29.5t-35 -4.5q-114 37 -274 37q-245 0 -382.5 -123.5t-137.5 -336.5q0 -219 139 -338.5t387 -119.5q157 0 277 45q20 7 35 -2t17 -30l8 -89q2 -14 -6 -26.5t-21 -16.5z" />
<glyph unicode="&#xe8;" horiz-adv-x="1100" d="M140 40v1110q0 17 11.5 28.5t28.5 11.5h793q17 0 29 -11.5t12 -28.5v-76q0 -17 -12 -28.5t-29 -11.5h-649v-344h610q17 0 28.5 -11.5t11.5 -28.5v-75q0 -17 -11.5 -29t-28.5 -12h-610v-378h666q17 0 28.5 -11.5t11.5 -28.5v-76q0 -17 -11.5 -28.5t-28.5 -11.5h-810 q-17 0 -28.5 11.5t-11.5 28.5zM528 1616l220 -242q23 -24 15 -42t-45 -18h-68q-26 0 -54 24l-279 244q-22 19 -14.5 37.5t39.5 18.5h146q20 0 40 -22z" />
<glyph unicode="&#xe9;" horiz-adv-x="1100" d="M140 40v1110q0 17 11.5 28.5t28.5 11.5h793q17 0 29 -11.5t12 -28.5v-76q0 -17 -12 -28.5t-29 -11.5h-649v-344h610q17 0 28.5 -11.5t11.5 -28.5v-75q0 -17 -11.5 -29t-28.5 -12h-610v-378h666q17 0 28.5 -11.5t11.5 -28.5v-76q0 -17 -11.5 -28.5t-28.5 -11.5h-810 q-17 0 -28.5 11.5t-11.5 28.5zM396 1374l220 242q20 22 40 22h145q32 0 40 -18.5t-14 -37.5l-280 -244q-28 -24 -54 -24h-67q-37 0 -45 18t15 42z" />
<glyph unicode="&#xea;" horiz-adv-x="1100" d="M140 40v1110q0 17 11.5 28.5t28.5 11.5h793q17 0 29 -11.5t12 -28.5v-76q0 -17 -12 -28.5t-29 -11.5h-649v-344h610q17 0 28.5 -11.5t11.5 -28.5v-75q0 -17 -11.5 -29t-28.5 -12h-610v-378h666q17 0 28.5 -11.5t11.5 -28.5v-76q0 -17 -11.5 -28.5t-28.5 -11.5h-810 q-17 0 -28.5 11.5t-11.5 28.5zM505 1638h138q24 0 46 -24l238 -266q13 -14 8 -24t-24 -10h-114q-29 0 -48 22l-175 188l-175 -188q-19 -22 -48 -22h-114q-19 0 -24 10t8 24l238 266q22 24 46 24z" />
<glyph unicode="&#xeb;" horiz-adv-x="1100" d="M140 40v1110q0 17 11.5 28.5t28.5 11.5h793q17 0 29 -11.5t12 -28.5v-76q0 -17 -12 -28.5t-29 -11.5h-649v-344h610q17 0 28.5 -11.5t11.5 -28.5v-75q0 -17 -11.5 -29t-28.5 -12h-610v-378h666q17 0 28.5 -11.5t11.5 -28.5v-76q0 -17 -11.5 -28.5t-28.5 -11.5h-810 q-17 0 -28.5 11.5t-11.5 28.5zM224 1476q0 106 114 106q115 0 115 -106t-115 -106q-114 0 -114 106zM696 1476q0 106 114 106q115 0 115 -106t-115 -106q-114 0 -114 106z" />
<glyph unicode="&#xec;" horiz-adv-x="484" d="M190 1190h104q16 0 28 -12t12 -28v-1110q0 -16 -12 -28t-28 -12h-104q-16 0 -28 12t-12 28v1110q0 16 12 28t28 12zM88 1616l220 -242q23 -24 15 -42t-45 -18h-68q-26 0 -54 24l-279 244q-22 19 -14.5 37.5t39.5 18.5h146q20 0 40 -22z" />
<glyph unicode="&#xed;" horiz-adv-x="484" d="M190 1190h104q16 0 28 -12t12 -28v-1110q0 -16 -12 -28t-28 -12h-104q-16 0 -28 12t-12 28v1110q0 16 12 28t28 12zM176 1374l220 242q20 22 40 22h145q32 0 40 -18.5t-14 -37.5l-280 -244q-28 -24 -54 -24h-67q-37 0 -45 18t15 42z" />
<glyph unicode="&#xee;" horiz-adv-x="484" d="M190 1190h104q16 0 28 -12t12 -28v-1110q0 -16 -12 -28t-28 -12h-104q-16 0 -28 12t-12 28v1110q0 16 12 28t28 12zM173 1638h138q24 0 46 -24l238 -266q13 -14 8 -24t-24 -10h-114q-29 0 -48 22l-175 188l-175 -188q-19 -22 -48 -22h-114q-19 0 -24 10t8 24l238 266 q22 24 46 24z" />
<glyph unicode="&#xef;" horiz-adv-x="484" d="M190 1190h104q16 0 28 -12t12 -28v-1110q0 -16 -12 -28t-28 -12h-104q-16 0 -28 12t-12 28v1110q0 16 12 28t28 12zM-108 1476q0 106 114 106q115 0 115 -106t-115 -106q-114 0 -114 106zM364 1476q0 106 114 106q115 0 115 -106t-115 -106q-114 0 -114 106z" />
<glyph unicode="&#xf0;" horiz-adv-x="1360" d="M540 0h-324q-16 0 -28 12t-12 28v486h-116q-16 0 -28 12t-12 28v60q0 16 12 28t28 12h116v484q0 16 12 28t28 12h324q225 0 392 -65.5t262.5 -201t95.5 -329.5t-96 -329t-262.5 -200t-391.5 -65zM1102 594q0 226 -149.5 333t-440.5 107h-152v-368h282q16 0 28 -12t12 -28 v-60q0 -16 -12 -28t-28 -12h-282v-370h152q292 0 441 106t149 332z" />
<glyph unicode="&#xf1;" horiz-adv-x="1360" d="M1040 230l-660 943q-13 17 -33 17h-167q-16 0 -28 -12t-12 -28v-1110q0 -16 12 -28t28 -12h100q17 0 28.5 11.5t11.5 28.5v920l660 -943q13 -17 33 -17h167q16 0 28 12t12 28v1110q0 16 -12 28t-28 12h-100q-17 0 -28.5 -11.5t-11.5 -28.5v-920zM893 1568q3 38 36 38h84 q16 0 26.5 -9t9.5 -23q-6 -120 -59 -176t-140 -56q-53 0 -119 34.5t-121 69t-82 34.5q-26 0 -41 -21.5t-20 -80.5q-3 -32 -36 -32h-84q-18 0 -28 10.5t-8 27.5q8 118 61 172t138 54q53 0 119 -34.5t121 -69t82 -34.5q29 0 43 22.5t18 73.5z" />
<glyph unicode="&#xf2;" horiz-adv-x="1400" d="M1330 594q0 -129 -43 -241.5t-121.5 -196.5t-199 -132t-266.5 -48t-266.5 48t-199 132t-121.5 196.5t-43 241.5q0 175 73 314t217.5 222.5t339.5 83.5t339.5 -83.5t217.5 -222.5t73 -314zM258 594q0 -210 119 -334t323 -124t323 124t119 334q0 211 -118.5 335.5 t-323.5 124.5t-323.5 -124.5t-118.5 -335.5zM644 1616l220 -242q23 -24 15 -42t-45 -18h-68q-26 0 -54 24l-279 244q-22 19 -14.5 37.5t39.5 18.5h146q20 0 40 -22z" />
<glyph unicode="&#xf3;" horiz-adv-x="1400" d="M1330 594q0 -129 -43 -241.5t-121.5 -196.5t-199 -132t-266.5 -48t-266.5 48t-199 132t-121.5 196.5t-43 241.5q0 175 73 314t217.5 222.5t339.5 83.5t339.5 -83.5t217.5 -222.5t73 -314zM258 594q0 -210 119 -334t323 -124t323 124t119 334q0 211 -118.5 335.5 t-323.5 124.5t-323.5 -124.5t-118.5 -335.5zM536 1374l220 242q20 22 40 22h145q32 0 40 -18.5t-14 -37.5l-280 -244q-28 -24 -54 -24h-67q-37 0 -45 18t15 42z" />
<glyph unicode="&#xf4;" horiz-adv-x="1400" d="M1330 594q0 -129 -43 -241.5t-121.5 -196.5t-199 -132t-266.5 -48t-266.5 48t-199 132t-121.5 196.5t-43 241.5q0 175 73 314t217.5 222.5t339.5 83.5t339.5 -83.5t217.5 -222.5t73 -314zM258 594q0 -210 119 -334t323 -124t323 124t119 334q0 211 -118.5 335.5 t-323.5 124.5t-323.5 -124.5t-118.5 -335.5zM631 1638h138q24 0 46 -24l238 -266q13 -14 8 -24t-24 -10h-114q-29 0 -48 22l-175 188l-175 -188q-19 -22 -48 -22h-114q-19 0 -24 10t8 24l238 266q22 24 46 24z" />
<glyph unicode="&#xf5;" horiz-adv-x="1400" d="M1330 594q0 -129 -43 -241.5t-121.5 -196.5t-199 -132t-266.5 -48t-266.5 48t-199 132t-121.5 196.5t-43 241.5q0 175 73 314t217.5 222.5t339.5 83.5t339.5 -83.5t217.5 -222.5t73 -314zM258 594q0 -210 119 -334t323 -124t323 124t119 334q0 211 -118.5 335.5 t-323.5 124.5t-323.5 -124.5t-118.5 -335.5zM913 1568q3 38 36 38h84q16 0 26.5 -9t9.5 -23q-6 -120 -59 -176t-140 -56q-53 0 -119 34.5t-121 69t-82 34.5q-26 0 -41 -21.5t-20 -80.5q-3 -32 -36 -32h-84q-18 0 -28 10.5t-8 27.5q8 118 61 172t138 54q53 0 119 -34.5 t121 -69t82 -34.5q29 0 43 22.5t18 73.5z" />
<glyph unicode="&#xf6;" horiz-adv-x="1400" d="M1330 594q0 -129 -43 -241.5t-121.5 -196.5t-199 -132t-266.5 -48t-266.5 48t-199 132t-121.5 196.5t-43 241.5q0 175 73 314t217.5 222.5t339.5 83.5t339.5 -83.5t217.5 -222.5t73 -314zM258 594q0 -210 119 -334t323 -124t323 124t119 334q0 211 -118.5 335.5 t-323.5 124.5t-323.5 -124.5t-118.5 -335.5zM350 1476q0 106 114 106q115 0 115 -106t-115 -106q-114 0 -114 106zM822 1476q0 106 114 106q115 0 115 -106t-115 -106q-114 0 -114 106z" />
<glyph unicode="&#xf7;" d="M1167 584h-1010q-15 0 -26 10.5t-11 26.5v86q0 15 11 26t26 11h1010q16 0 26.5 -11t10.5 -26v-86q0 -16 -10.5 -26.5t-26.5 -10.5zM662 150q-128 0 -128 118t128 118t128 -118t-128 -118zM662 942q-128 0 -128 118t128 118t128 -118t-128 -118z" />
<glyph unicode="&#xf8;" horiz-adv-x="1400" d="M1330 594q0 -129 -43 -241.5t-121.5 -196.5t-199 -132t-266.5 -48q-163 0 -296 60l-143 -211q-18 -25 -52 -25h-71q-25 0 -30.5 20.5t10.5 42.5l167 247q-104 84 -159.5 209.5t-55.5 274.5q0 175 73 314t217.5 222.5t339.5 83.5q161 0 294 -60l144 211q18 25 52 25h72 q25 0 30.5 -20.5t-10.5 -42.5l-168 -247q104 -84 160 -210.5t56 -275.5zM1142 594q0 218 -126 342l-517 -761q90 -39 201 -39q204 0 323 124t119 334zM258 594q0 -215 125 -340l517 761q-90 39 -200 39q-205 0 -323.5 -124.5t-118.5 -335.5z" />
<glyph unicode="&#xf9;" horiz-adv-x="1396" d="M698 136q189 0 281.5 89t92.5 257v668q0 16 12 28t28 12h104q16 0 28 -12t12 -28v-688q0 -121 -41 -214.5t-116 -152.5t-176.5 -89t-224.5 -30t-224.5 30t-176.5 89t-116 152.5t-41 214.5v688q0 16 12 28t28 12h104q16 0 28 -12t12 -28v-668q0 -168 92.5 -257t281.5 -89z M578 1616l220 -242q23 -24 15 -42t-45 -18h-68q-26 0 -54 24l-279 244q-22 19 -14.5 37.5t39.5 18.5h146q20 0 40 -22z" />
<glyph unicode="&#xfa;" horiz-adv-x="1396" d="M698 136q189 0 281.5 89t92.5 257v668q0 16 12 28t28 12h104q16 0 28 -12t12 -28v-688q0 -121 -41 -214.5t-116 -152.5t-176.5 -89t-224.5 -30t-224.5 30t-176.5 89t-116 152.5t-41 214.5v688q0 16 12 28t28 12h104q16 0 28 -12t12 -28v-668q0 -168 92.5 -257t281.5 -89z M598 1374l220 242q20 22 40 22h145q32 0 40 -18.5t-14 -37.5l-280 -244q-28 -24 -54 -24h-67q-37 0 -45 18t15 42z" />
<glyph unicode="&#xfb;" horiz-adv-x="1396" d="M698 136q189 0 281.5 89t92.5 257v668q0 16 12 28t28 12h104q16 0 28 -12t12 -28v-688q0 -121 -41 -214.5t-116 -152.5t-176.5 -89t-224.5 -30t-224.5 30t-176.5 89t-116 152.5t-41 214.5v688q0 16 12 28t28 12h104q16 0 28 -12t12 -28v-668q0 -168 92.5 -257t281.5 -89z M629 1638h138q24 0 46 -24l238 -266q13 -14 8 -24t-24 -10h-114q-29 0 -48 22l-175 188l-175 -188q-19 -22 -48 -22h-114q-19 0 -24 10t8 24l238 266q22 24 46 24z" />
<glyph unicode="&#xfc;" horiz-adv-x="1396" d="M698 136q189 0 281.5 89t92.5 257v668q0 16 12 28t28 12h104q16 0 28 -12t12 -28v-688q0 -121 -41 -214.5t-116 -152.5t-176.5 -89t-224.5 -30t-224.5 30t-176.5 89t-116 152.5t-41 214.5v688q0 16 12 28t28 12h104q16 0 28 -12t12 -28v-668q0 -168 92.5 -257t281.5 -89z M348 1476q0 106 114 106q115 0 115 -106t-115 -106q-114 0 -114 106zM820 1476q0 106 114 106q115 0 115 -106t-115 -106q-114 0 -114 106z" />
<glyph unicode="&#xfd;" horiz-adv-x="1340" d="M722 0h-104q-16 0 -28 12t-12 28v431l-499 655q-16 21 -5 42.5t37 21.5h97q34 0 51 -23l411 -533l411 533q17 23 51 23h97q26 0 37 -21.5t-5 -42.5l-499 -655v-431q0 -16 -12 -28t-28 -12zM546 1374l220 242q20 22 40 22h145q32 0 40 -18.5t-14 -37.5l-280 -244 q-28 -24 -54 -24h-67q-37 0 -45 18t15 42z" />
<glyph unicode="&#xfe;" horiz-adv-x="1140" d="M1080 604q0 -185 -138.5 -281.5t-377.5 -96.5h-238v-186q0 -16 -12 -28t-28 -12h-106q-17 0 -28.5 11.5t-11.5 28.5v1110q0 17 11.5 28.5t28.5 11.5h106q16 0 28 -12t12 -28v-172h238q239 0 377.5 -96.5t138.5 -277.5zM892 604q0 113 -87 164.5t-259 51.5h-220v-436h220 q173 0 259.5 51.5t86.5 168.5z" />
<glyph unicode="&#xff;" horiz-adv-x="1340" d="M722 0h-104q-16 0 -28 12t-12 28v431l-499 655q-16 21 -5 42.5t37 21.5h97q34 0 51 -23l411 -533l411 533q17 23 51 23h97q26 0 37 -21.5t-5 -42.5l-499 -655v-431q0 -16 -12 -28t-28 -12zM320 1476q0 106 114 106q115 0 115 -106t-115 -106q-114 0 -114 106zM792 1476 q0 106 114 106q115 0 115 -106t-115 -106q-114 0 -114 106z" />
<glyph unicode="&#x152;" horiz-adv-x="1932" d="M930 160v1086h-18q-307 0 -468.5 -146.5t-161.5 -397.5t161 -396.5t469 -145.5h18zM1817 0h-883q-403 0 -623.5 188.5t-220.5 513.5q0 324 220.5 514t623.5 190h865q16 0 27 -11t11 -27v-85q0 -15 -11 -26t-27 -11h-681v-444h621q16 0 27 -11t11 -27v-84q0 -16 -11 -27 t-27 -11h-621v-482h699q16 0 27 -11t11 -27v-84q0 -16 -11 -27t-27 -11z" />
<glyph unicode="&#x153;" horiz-adv-x="1648" d="M1538 0h-745q-348 0 -535.5 159.5t-187.5 436.5q0 275 187.5 434.5t535.5 159.5h729q16 0 28 -12t12 -28v-76q0 -16 -12 -28t-28 -12h-554v-344h502q16 0 28 -12t12 -28v-75q0 -17 -11.5 -29t-28.5 -12h-502v-378h570q16 0 28 -12t12 -28v-76q0 -16 -12 -28t-28 -12z M784 156v878h-14q-255 0 -383.5 -116t-128.5 -322t128.5 -323t383.5 -117h14z" />
<glyph unicode="&#x178;" horiz-adv-x="1568" d="M840 0h-112q-16 0 -27 11t-11 27v516l-603 785q-15 20 -5 40.5t35 20.5h105q47 0 75 -38l487 -640l487 640q28 38 75 38h105q25 0 35 -20.5t-5 -40.5l-603 -785v-516q0 -16 -11 -27t-27 -11zM432 1686q0 106 114 106t114 -106t-114 -106t-114 106zM904 1686 q0 106 114 106t114 -106t-114 -106t-114 106z" />
<glyph unicode="&#x2c6;" horiz-adv-x="964" d="M413 1460h138q24 0 46 -24l238 -266q13 -14 8 -24t-24 -10h-114q-29 0 -48 22l-175 188l-175 -188q-19 -22 -48 -22h-114q-19 0 -24 10t8 24l238 266q22 24 46 24z" />
<glyph unicode="&#x2dc;" horiz-adv-x="964" d="M695 1392q3 38 36 38h84q16 0 26.5 -9t9.5 -23q-6 -120 -59 -176t-140 -56q-53 0 -119 34.5t-121 69t-82 34.5q-26 0 -41 -21.5t-20 -80.5q-3 -32 -36 -32h-84q-18 0 -28 10.5t-8 27.5q8 118 61 172t138 54q53 0 119 -34.5t121 -69t82 -34.5q29 0 43 22.5t18 73.5z" />
<glyph unicode="&#x2000;" horiz-adv-x="955" />
<glyph unicode="&#x2001;" horiz-adv-x="1910" />
<glyph unicode="&#x2002;" horiz-adv-x="955" />
<glyph unicode="&#x2003;" horiz-adv-x="1910" />
<glyph unicode="&#x2004;" horiz-adv-x="636" />
<glyph unicode="&#x2005;" horiz-adv-x="477" />
<glyph unicode="&#x2006;" horiz-adv-x="318" />
<glyph unicode="&#x2007;" horiz-adv-x="318" />
<glyph unicode="&#x2008;" horiz-adv-x="238" />
<glyph unicode="&#x2009;" horiz-adv-x="382" />
<glyph unicode="&#x200a;" horiz-adv-x="106" />
<glyph unicode="&#x2010;" horiz-adv-x="852" d="M694 576h-537q-16 0 -26.5 11t-10.5 26v102q0 15 10.5 26t26.5 11h537q16 0 27 -11t11 -26v-102q0 -15 -11 -26t-27 -11z" />
<glyph unicode="&#x2011;" horiz-adv-x="852" d="M694 576h-537q-16 0 -26.5 11t-10.5 26v102q0 15 10.5 26t26.5 11h537q16 0 27 -11t11 -26v-102q0 -15 -11 -26t-27 -11z" />
<glyph unicode="&#x2012;" horiz-adv-x="852" d="M694 576h-537q-16 0 -26.5 11t-10.5 26v102q0 15 10.5 26t26.5 11h537q16 0 27 -11t11 -26v-102q0 -15 -11 -26t-27 -11z" />
<glyph unicode="&#x2013;" horiz-adv-x="1000" d="M962 584h-925q-16 0 -26.5 10.5t-10.5 26.5v86q0 15 10.5 26t26.5 11h925q16 0 27 -11t11 -26v-86q0 -16 -11 -26.5t-27 -10.5z" />
<glyph unicode="&#x2014;" horiz-adv-x="2000" d="M1962 584h-1925q-16 0 -26.5 10.5t-10.5 26.5v86q0 15 10.5 26t26.5 11h1925q16 0 27 -11t11 -26v-86q0 -16 -11 -26.5t-27 -10.5z" />
<glyph unicode="&#x2018;" horiz-adv-x="668" d="M440 1468q-90 -79 -98 -186q64 -3 92 -36t28 -84q0 -59 -33.5 -88.5t-94.5 -29.5q-66 0 -97 31.5t-31 108.5q0 107 47.5 196t139.5 150q22 15 38 -7l15 -20q13 -19 -6 -35z" />
<glyph unicode="&#x2019;" horiz-adv-x="668" d="M228 1120q90 79 98 186q-64 3 -92 36t-28 84q0 59 33.5 88.5t94.5 29.5q66 0 97 -31.5t31 -108.5q0 -107 -47.5 -196t-139.5 -150q-22 -15 -38 7l-15 20q-13 19 6 35z" />
<glyph unicode="&#x201a;" horiz-adv-x="668" d="M228 -212q90 79 98 186q-64 3 -92 36t-28 84q0 59 33.5 88.5t94.5 29.5q66 0 97 -31.5t31 -108.5q0 -107 -47.5 -196t-139.5 -150q-22 -15 -38 7l-15 20q-13 19 6 35z" />
<glyph unicode="&#x201c;" horiz-adv-x="1050" d="M822 1468q-90 -79 -98 -186q64 -3 92 -36t28 -84q0 -59 -33.5 -88.5t-94.5 -29.5q-66 0 -97 31.5t-31 108.5q0 107 47.5 196t139.5 150q22 15 38 -7l15 -20q13 -19 -6 -35zM440 1468q-90 -79 -98 -186q64 -3 92 -36t28 -84q0 -59 -33.5 -88.5t-94.5 -29.5q-66 0 -97 31.5 t-31 108.5q0 107 47.5 196t139.5 150q22 15 38 -7l15 -20q13 -19 -6 -35z" />
<glyph unicode="&#x201d;" horiz-adv-x="1050" d="M228 1120q90 79 98 186q-64 3 -92 36t-28 84q0 59 33.5 88.5t94.5 29.5q66 0 97 -31.5t31 -108.5q0 -107 -47.5 -196t-139.5 -150q-22 -15 -38 7l-15 20q-13 19 6 35zM610 1120q90 79 98 186q-64 3 -92 36t-28 84q0 59 33.5 88.5t94.5 29.5q66 0 97 -31.5t31 -108.5 q0 -107 -47.5 -196t-139.5 -150q-22 -15 -38 7l-15 20q-13 19 6 35z" />
<glyph unicode="&#x201e;" horiz-adv-x="1050" d="M228 -212q90 79 98 186q-64 3 -92 36t-28 84q0 59 33.5 88.5t94.5 29.5q66 0 97 -31.5t31 -108.5q0 -107 -47.5 -196t-139.5 -150q-22 -15 -38 7l-15 20q-13 19 6 35zM610 -212q90 79 98 186q-64 3 -92 36t-28 84q0 59 33.5 88.5t94.5 29.5q66 0 97 -31.5t31 -108.5 q0 -107 -47.5 -196t-139.5 -150q-22 -15 -38 7l-15 20q-13 19 6 35z" />
<glyph unicode="&#x2022;" horiz-adv-x="936" d="M200 664q0 120 70 184t198 64t198 -64t70 -184t-70 -184t-198 -64t-198 64t-70 184z" />
<glyph unicode="&#x2026;" horiz-adv-x="2000" d="M334 -24q-128 0 -128 118t128 118t128 -118t-128 -118zM1000 -24q-128 0 -128 118t128 118t128 -118t-128 -118zM1666 -24q-128 0 -128 118t128 118t128 -118t-128 -118z" />
<glyph unicode="&#x202f;" horiz-adv-x="382" />
<glyph unicode="&#x2039;" horiz-adv-x="696" d="M140 618v12q0 25 24 46l378 332q14 13 24 8t10 -24v-91q0 -29 -22 -48l-260 -229l260 -229q22 -19 22 -48v-91q0 -19 -10 -24t-24 8l-378 332q-24 21 -24 46z" />
<glyph unicode="&#x203a;" horiz-adv-x="696" d="M556 630v-12q0 -25 -24 -46l-378 -332q-14 -13 -24 -8t-10 24v91q0 29 22 48l260 229l-260 229q-22 19 -22 48v91q0 19 10 24t24 -8l378 -332q24 -21 24 -46z" />
<glyph unicode="&#x205f;" horiz-adv-x="477" />
<glyph unicode="&#x20ac;" horiz-adv-x="1396" d="M78 638h84q-3 62 0 124h-84q-15 0 -26.5 11.5t-11.5 26.5v48q0 16 11.5 27t26.5 11h98q55 253 255.5 395.5t528.5 142.5q170 0 311 -45q36 -11 32 -41l-9 -90q-2 -20 -17 -29.5t-33 -2.5q-106 44 -274 44q-248 0 -397.5 -97.5t-198.5 -276.5h768q19 0 26 -8t2 -26 l-20 -64q-2 -9 -13 -17.5t-21 -8.5h-762q-11 -64 0 -124h708q38 0 28 -34l-20 -64q-3 -9 -13.5 -17.5t-20.5 -8.5h-664q50 -182 202 -278t402 -96q145 0 278 50q19 7 33.5 -3t16.5 -30l9 -94q4 -31 -32 -41q-159 -46 -313 -46q-335 0 -537 141t-255 397h-98 q-15 0 -26.5 11.5t-11.5 26.5v48q0 16 11.5 27t26.5 11z" />
<glyph unicode="&#x2122;" horiz-adv-x="1528" d="M246 779v509h-188q-16 0 -27 11t-11 26v38q0 15 11 26t27 11h517q15 0 26 -11t11 -26v-38q0 -15 -11 -26t-26 -11h-189v-509q0 -15 -12.5 -26t-28.5 -11h-62q-15 0 -26 11t-11 26zM1067 948h-48q-27 0 -44 22l-177 212v-404q0 -15 -11 -25.5t-27 -10.5h-64 q-15 0 -26.5 10.5t-11.5 25.5v584q0 16 11.5 27t26.5 11h77q16 0 30 -16l240 -298l240 298q14 16 30 16h77q15 0 26.5 -11t11.5 -27v-584q0 -15 -11.5 -25.5t-26.5 -10.5h-64q-16 0 -27 10.5t-11 25.5v404l-177 -212q-17 -22 -44 -22z" />
<glyph unicode="&#x25fc;" horiz-adv-x="1190" d="M0 1190h1190v-1190h-1190v1190z" />
<glyph unicode="&#xfb02;" horiz-adv-x="2176" d="M1214 40v1110q0 17 11.5 28.5t28.5 11.5h104q16 0 28 -12t12 -28v-994h709q17 0 28.5 -12t11.5 -28v-76q0 -16 -11.5 -28t-28.5 -12h-853q-17 0 -28.5 11.5t-11.5 28.5zM140 40v1110q0 17 12 28.5t29 11.5h793q17 0 28.5 -11.5t11.5 -28.5v-76q0 -17 -11.5 -28.5 t-28.5 -11.5h-650v-344h606q17 0 28.5 -11.5t11.5 -28.5v-75q0 -17 -11.5 -29t-28.5 -12h-606v-494q0 -16 -12 -28t-28 -12h-103q-17 0 -29 11.5t-12 28.5z" />
<glyph unicode="&#xfb04;" horiz-adv-x="3250" d="M2288 40v1110q0 17 11.5 28.5t28.5 11.5h104q16 0 28 -12t12 -28v-994h709q17 0 28.5 -12t11.5 -28v-76q0 -16 -11.5 -28t-28.5 -12h-853q-17 0 -28.5 11.5t-11.5 28.5zM1214 40v1110q0 17 12 28.5t29 11.5h793q17 0 28.5 -11.5t11.5 -28.5v-76q0 -17 -11.5 -28.5 t-28.5 -11.5h-650v-344h606q17 0 28.5 -11.5t11.5 -28.5v-75q0 -17 -11.5 -29t-28.5 -12h-606v-494q0 -16 -12 -28t-28 -12h-103q-17 0 -29 11.5t-12 28.5zM140 40v1110q0 17 12 28.5t29 11.5h793q17 0 28.5 -11.5t11.5 -28.5v-76q0 -17 -11.5 -28.5t-28.5 -11.5h-650v-344 h606q17 0 28.5 -11.5t11.5 -28.5v-75q0 -17 -11.5 -29t-28.5 -12h-606v-494q0 -16 -12 -28t-28 -12h-103q-17 0 -29 11.5t-12 28.5z" />
</font>
</defs>
</svg>
