<?xml version="1.0" standalone="no"?>
<!DOCTYPE svg PUBLIC "-//W3C//DTD SVG 1.1//EN" "http://www.w3.org/Graphics/SVG/1.1/DTD/svg11.dtd" >
<svg xmlns="http://www.w3.org/2000/svg">
<metadata></metadata>
<defs>
<font id="core_sans_nr_93_ex_blackIt" horiz-adv-x="1496" >
<font-face units-per-em="2000" ascent="1600" descent="-400" />
<missing-glyph horiz-adv-x="720" />
<glyph unicode="&#xfb01;" horiz-adv-x="1802" d="M1240 1435q15 -3 22 -15.5t2 -27.5l-58 -178q-4 -17 -19.5 -27.5t-31.5 -6.5q-51 12 -115 12q-84 0 -119 -21.5t-45 -72.5l-12 -62h267q16 0 25 -11.5t6 -27.5l-40 -206q-3 -16 -16.5 -27.5t-29.5 -11.5h-267l-214 -1099q-3 -16 -16.5 -27.5t-29.5 -11.5h-443 q-16 0 -25 11.5t-6 27.5l214 1099h-187q-17 0 -26 11.5t-6 27.5l40 206q3 16 17 27.5t30 11.5h187l6 30q38 197 182.5 295.5t425.5 98.5q157 0 282 -25zM1555 1116q-144 0 -204 40.5t-42 131.5t93.5 131.5t219.5 40.5t204.5 -41t42.5 -131t-94 -131t-220 -41zM1086 39 l186 958q3 16 17 27.5t30 11.5h442q16 0 25 -11.5t6 -27.5l-186 -958q-3 -16 -16.5 -27.5t-29.5 -11.5h-442q-16 0 -25.5 11.5t-6.5 27.5z" />
<glyph unicode="&#xfb02;" horiz-adv-x="1802" d="M1240 1435q15 -3 22 -15.5t2 -27.5l-58 -178q-4 -17 -19.5 -27.5t-31.5 -6.5q-51 12 -115 12q-84 0 -119 -21.5t-45 -72.5l-12 -62h267q16 0 25 -11.5t6 -27.5l-40 -206q-3 -16 -16.5 -27.5t-29.5 -11.5h-267l-214 -1099q-3 -16 -16.5 -27.5t-29.5 -11.5h-443 q-16 0 -25 11.5t-6 27.5l214 1099h-187q-17 0 -26 11.5t-6 27.5l40 206q3 16 17 27.5t30 11.5h187l6 30q38 197 182.5 295.5t425.5 98.5q157 0 282 -25zM1086 39l269 1382q3 16 16.5 27.5t29.5 11.5h442q16 0 25.5 -11.5t6.5 -27.5l-269 -1382q-3 -16 -16.5 -27.5 t-29.5 -11.5h-442q-16 0 -25.5 11.5t-6.5 27.5z" />
<glyph unicode="&#xfb03;" horiz-adv-x="2798" d="M2206 1435q15 -3 22 -15.5t2 -27.5l-58 -178q-4 -17 -19.5 -27.5t-31.5 -6.5q-51 12 -115 12q-84 0 -119 -21.5t-45 -72.5l-12 -62h267q16 0 25 -11.5t6 -27.5l-40 -206q-3 -16 -16.5 -27.5t-29.5 -11.5h-267l-214 -1099q-3 -16 -16.5 -27.5t-29.5 -11.5h-443 q-16 0 -25 11.5t-6 27.5l214 1099h-446l-214 -1099q-3 -16 -16.5 -27.5t-29.5 -11.5h-443q-16 0 -25 11.5t-6 27.5l214 1099h-187q-17 0 -26 11.5t-6 27.5l40 206q3 16 17 27.5t30 11.5h187l6 30q38 197 182.5 295.5t425.5 98.5q157 0 282 -25q15 -3 22 -15.5t2 -27.5 l-58 -178q-4 -17 -19.5 -27.5t-31.5 -6.5q-51 12 -115 12q-84 0 -119 -21.5t-45 -72.5l-12 -62h446l6 30q38 197 182.5 295.5t425.5 98.5q157 0 282 -25zM2551 1116q-144 0 -204 40.5t-42 131.5t93.5 131.5t219.5 40.5t204.5 -41t42.5 -131t-94 -131t-220 -41zM2082 39 l186 958q3 16 17 27.5t30 11.5h442q16 0 25 -11.5t6 -27.5l-186 -958q-3 -16 -16.5 -27.5t-29.5 -11.5h-442q-16 0 -25.5 11.5t-6.5 27.5z" />
<glyph unicode="&#xfb04;" horiz-adv-x="2798" d="M2206 1435q15 -3 22 -15.5t2 -27.5l-58 -178q-4 -17 -19.5 -27.5t-31.5 -6.5q-51 12 -115 12q-84 0 -119 -21.5t-45 -72.5l-12 -62h267q16 0 25 -11.5t6 -27.5l-40 -206q-3 -16 -16.5 -27.5t-29.5 -11.5h-267l-214 -1099q-3 -16 -16.5 -27.5t-29.5 -11.5h-443 q-16 0 -25 11.5t-6 27.5l214 1099h-446l-214 -1099q-3 -16 -16.5 -27.5t-29.5 -11.5h-443q-16 0 -25 11.5t-6 27.5l214 1099h-187q-17 0 -26 11.5t-6 27.5l40 206q3 16 17 27.5t30 11.5h187l6 30q38 197 182.5 295.5t425.5 98.5q157 0 282 -25q15 -3 22 -15.5t2 -27.5 l-58 -178q-4 -17 -19.5 -27.5t-31.5 -6.5q-51 12 -115 12q-84 0 -119 -21.5t-45 -72.5l-12 -62h446l6 30q38 197 182.5 295.5t425.5 98.5q157 0 282 -25zM2082 39l269 1382q3 16 16.5 27.5t29.5 11.5h442q16 0 25.5 -11.5t6.5 -27.5l-269 -1382q-3 -16 -16.5 -27.5 t-29.5 -11.5h-442q-16 0 -25.5 11.5t-6.5 27.5z" />
<glyph horiz-adv-x="666" />
<glyph horiz-adv-x="0" />
<glyph horiz-adv-x="0" />
<glyph unicode="&#xd;" horiz-adv-x="682" />
<glyph unicode=" "  horiz-adv-x="720" />
<glyph unicode="&#x09;" horiz-adv-x="720" />
<glyph unicode="&#xa0;" horiz-adv-x="720" />
<glyph unicode="!" horiz-adv-x="800" d="M181 507l64 601l49 254q3 16 17 27t30 11h463q16 0 24.5 -11t5.5 -27l-50 -256l-169 -598q-4 -15 -18 -25.5t-28 -10.5h-356q-15 0 -24 10t-8 25zM295 -24q-147 0 -199 47.5t-33 146.5t89.5 146.5t217.5 47.5t199.5 -47.5t33.5 -146.5t-90 -146.5t-218 -47.5z" />
<glyph unicode="&#x22;" horiz-adv-x="1400" d="M249 770l76 589q1 17 15.5 29t31.5 12h376q16 0 25 -11t6 -27l-8 -43l-179 -550q-4 -14 -17.5 -24.5t-27.5 -10.5h-266q-15 0 -24.5 10.5t-7.5 25.5zM874 770l76 589q1 17 15.5 29t31.5 12h376q16 0 25 -11t6 -27l-8 -43l-179 -550q-4 -14 -17.5 -24.5t-27.5 -10.5h-266 q-15 0 -24.5 10.5t-7.5 25.5z" />
<glyph unicode="#" horiz-adv-x="1848" d="M1355 256l-88 -225q-14 -31 -44 -31h-339q-19 0 -27 13.5t-1 32.5l83 210h-322l-88 -225q-14 -31 -44 -31h-339q-19 0 -27 13.5t-1 32.5l83 210h-178q-16 0 -25 11.5t-6 27.5l49 254q3 16 17 27.5t30 11.5h245l92 232h-176q-16 0 -25.5 11.5t-6.5 27.5l50 254 q3 16 16.5 27.5t29.5 11.5h243l87 217q5 13 17.5 22t26.5 9h339q19 0 27 -13.5t0 -32.5l-81 -202h322l87 217q5 13 17.5 22t26.5 9h339q19 0 27 -13.5t0 -32.5l-81 -202h177q16 0 25.5 -11.5t6.5 -27.5l-50 -254q-3 -16 -16.5 -27.5t-29.5 -11.5h-244l-92 -232h175 q16 0 25 -11.5t6 -27.5l-49 -254q-3 -16 -17 -27.5t-30 -11.5h-242zM841 820l-92 -232h322l92 232h-322z" />
<glyph unicode="$" horiz-adv-x="1504" d="M30 52q-12 4 -18 16.5t-2 24.5l85 284q6 20 24 30t35 3q191 -76 447 -76q94 0 147.5 8.5t71.5 22t22 35.5q4 19 -18 35.5t-94.5 41.5t-214.5 61q-206 53 -289.5 158.5t-50.5 275.5q38 197 182.5 307t404.5 136l35 181q3 16 16.5 27t29.5 11h226q16 0 25.5 -11t6.5 -27 l-34 -175q237 -11 395 -56q13 -4 19 -16t2 -26l-80 -278q-6 -20 -22 -30.5t-33 -4.5q-156 52 -385 52q-126 0 -173 -14.5t-54 -49.5q-4 -21 16.5 -37t91.5 -41t219 -66q208 -58 290.5 -159.5t49.5 -272.5q-38 -193 -182.5 -301t-420.5 -135l-35 -178q-3 -16 -16.5 -27 t-29.5 -11h-226q-16 0 -25.5 11t-6.5 27l33 170q-269 11 -464 74z" />
<glyph unicode="%" horiz-adv-x="2272" d="M605 824q66 0 110 42.5t60 123.5t-12 123.5t-94 42.5t-110 -42.5t-60 -123.5t12 -123.5t94 -42.5zM719 1414q226 0 323.5 -117.5t60.5 -306.5t-179.5 -306.5t-368.5 -117.5t-323.5 117.5t-60.5 306.5t179.5 306.5t368.5 117.5zM1672 244q66 0 110 42.5t60 123.5 t-12 123.5t-94 42.5t-110 -42.5t-60 -123.5t12 -123.5t94 -42.5zM1787 834q226 0 323 -117.5t60 -306.5t-179.5 -306.5t-368.5 -117.5t-323.5 117.5t-60.5 306.5t180 306.5t369 117.5zM1646 1364l-1143 -1301q-24 -29 -17.5 -46t34.5 -17h91q55 0 85 36l1143 1301 q19 21 14.5 42t-30.5 21h-91q-56 0 -86 -36z" />
<glyph unicode="&#x26;" horiz-adv-x="2030" d="M1082 1048q8 44 -24.5 68t-99.5 24t-113 -24t-54 -62q-7 -34 17 -67t87 -77q95 31 136.5 62.5t50.5 75.5zM541 402q-12 -60 45.5 -91t176.5 -31q112 0 179 26l-259 232q-125 -47 -142 -136zM1227 58l-23 20q-96 -49 -234.5 -75.5t-283.5 -26.5q-160 0 -283.5 25 t-209.5 75.5t-122 133t-14 192.5q25 129 124.5 224.5t255.5 137.5q-139 121 -108 280q33 170 206.5 275t465.5 105q272 0 414 -100t108 -270q-22 -115 -126.5 -207.5t-254.5 -138.5l201 -180q104 84 143 206q6 16 19.5 29t27.5 13h357q18 0 28 -11t6 -28q-40 -138 -128 -257 t-186 -184l262 -229q19 -17 2.5 -42t-46.5 -25h-434q-101 0 -167 58z" />
<glyph unicode="'" horiz-adv-x="756" d="M239 770l76 589q1 17 15.5 29t31.5 12h376q16 0 25 -11t6 -27l-8 -43l-179 -550q-4 -14 -17.5 -24.5t-27.5 -10.5h-266q-15 0 -24.5 10.5t-7.5 25.5z" />
<glyph unicode="(" horiz-adv-x="974" d="M172 621q94 481 473 825q59 54 127 54h264q26 0 32.5 -21t-13.5 -42q-390 -399 -471 -816t154 -816q11 -21 -3.5 -42t-40.5 -21h-264q-67 0 -106 54q-246 344 -152 825z" />
<glyph unicode=")" horiz-adv-x="974" d="M799 621q-94 -480 -472 -825q-59 -54 -128 -54h-264q-26 0 -32 21t14 42q389 400 470 816t-153 816q-12 21 2.5 42t40.5 21h264q68 0 107 -54q245 -345 151 -825z" />
<glyph unicode="*" horiz-adv-x="1112" d="M1005 733l-197 -67l197 -69q18 -6 24 -22.5t-3 -32.5l-119 -207q-10 -16 -27.5 -19t-31.5 10l-158 138l41 -206q4 -19 -7.5 -32.5t-30.5 -13.5h-238q-19 0 -30.5 13.5t-7.5 32.5l39 204l-156 -136q-14 -13 -31.5 -10t-27.5 19l-119 207q-9 16 -3 32.5t24 22.5l197 69 l-197 67q-18 6 -24 22.5t3 32.5l119 207q10 16 27.5 19t31.5 -10l156 -135l-39 203q-4 19 7.5 32.5t30.5 13.5h238q19 0 30.5 -13.5t7.5 -32.5l-41 -204l158 136q14 13 32 10t27 -19l119 -207q9 -16 3 -32.5t-24 -22.5z" />
<glyph unicode="+" horiz-adv-x="1284" d="M478 189v325h-330q-16 0 -27 11.5t-11 27.5v222q0 16 11 27.5t27 11.5h330v326q0 16 11 27t27 11h311q16 0 27.5 -11t11.5 -27v-326h329q16 0 27.5 -11.5t11.5 -27.5v-222q0 -16 -11.5 -27.5t-27.5 -11.5h-329v-325q0 -17 -11 -28t-28 -11h-311q-16 0 -27 11.5t-11 27.5z " />
<glyph unicode="," horiz-adv-x="744" d="M124 -343q-14 -7 -27.5 -4t-20.5 16l-43 89q-5 12 1.5 28.5t19.5 25.5q106 76 140 170q-163 24 -127 212q22 111 90 164.5t187 53.5t166 -53.5t25 -164.5q-35 -179 -139.5 -314.5t-271.5 -222.5z" />
<glyph unicode="-" horiz-adv-x="828" d="M701 504h-590q-16 0 -25 11.5t-6 27.5l47 242q3 16 16.5 27.5t30.5 11.5h590q16 0 25 -11.5t6 -27.5l-47 -242q-3 -16 -17 -27.5t-30 -11.5z" />
<glyph unicode="." horiz-adv-x="744" d="M267 -24q-119 0 -166.5 53.5t-25.5 164.5t90 164.5t187 53.5t166 -53.5t25 -164.5t-89.5 -164.5t-186.5 -53.5z" />
<glyph unicode="/" horiz-adv-x="1362" d="M1522 1437l-1272 -1610q-37 -47 -91 -47h-297q-25 0 -32 19t10 40l1271 1610q37 47 91 47h298q25 0 32 -19t-10 -40z" />
<glyph unicode="0" horiz-adv-x="1528" d="M64 700q64 334 297.5 529t578.5 195t502.5 -195t93.5 -529q-65 -334 -298.5 -529t-578.5 -195t-502.5 195t-92.5 529zM620 700q-31 -147 -24.5 -231t37.5 -116.5t93 -32.5t106 32t82 117t66 231q31 147 24 231t-38 116.5t-93 32.5t-106 -32t-81.5 -117t-65.5 -231z" />
<glyph unicode="1" horiz-adv-x="1528" d="M742 942l-291 -174q-14 -8 -29.5 -4.5t-21.5 15.5l-117 223q-7 14 -1 31t22 26l523 316q17 10 47 17.5t52 7.5h394q16 0 25 -11t6 -27l-257 -1323q-3 -16 -16.5 -27.5t-29.5 -11.5h-450q-16 0 -25.5 11.5t-6.5 27.5z" />
<glyph unicode="2" horiz-adv-x="1528" d="M373 1361q212 63 492 63q339 0 481 -121t100 -339q-49 -250 -289 -424q-171 -126 -360 -200h483q16 0 25 -11.5t6 -27.5l-51 -262q-3 -16 -16.5 -27.5t-29.5 -11.5h-1132q-16 0 -25.5 11.5t-6.5 27.5l48 247q4 25 31 40q312 180 479 298q137 96 205.5 167.5t82.5 144.5 q15 77 -43.5 110.5t-210.5 33.5q-163 0 -299 -41q-19 -5 -29 7t-8 32l31 243q2 12 12.5 24t23.5 16z" />
<glyph unicode="3" horiz-adv-x="1528" d="M56 43q-12 3 -18 15t-2 25l72 246q7 20 24.5 30t34.5 3q153 -62 351 -62q294 0 316 114q16 80 -97 122t-381 44q-15 0 -22 12t-4 29l43 220q3 16 15 27.5t27 11.5q260 1 380 32.5t132 95.5q10 49 -49.5 70.5t-200.5 21.5q-181 0 -348 -48q-18 -4 -30 7.5t-11 30.5l20 225 q1 13 11 25t23 16q214 68 538 68q309 0 465 -100t119 -292q-43 -221 -285 -302q111 -41 160 -122t27 -192q-40 -207 -253.5 -323.5t-551.5 -116.5q-285 0 -505 67z" />
<glyph unicode="4" horiz-adv-x="1528" d="M-2 267l54 276q11 58 46 91l793 745q23 21 62 21h465q16 0 25 -11t6 -27l-150 -774h132q16 0 24.5 -11t5.5 -27l-55 -283q-3 -16 -16 -27.5t-29 -11.5h-132l-37 -189q-3 -16 -16.5 -27.5t-29.5 -11.5h-424q-16 0 -25.5 11.5t-6.5 27.5l37 189h-698q-16 0 -25 11.5 t-6 27.5zM869 961l-394 -373h322z" />
<glyph unicode="5" horiz-adv-x="1528" d="M84 29q-38 13 -28 52l63 221q5 20 23 31t35 5q123 -42 252 -42q183 0 270.5 41.5t104.5 126.5q16 81 -59.5 118.5t-244.5 37.5q-118 0 -248 -30q-20 -5 -32 6.5t-8 31.5l142 734q3 16 17 27t30 11h1048q16 0 25 -11t6 -27l-47 -243q-3 -16 -17 -27.5t-30 -11.5h-583 l-39 -204q77 22 188 22q222 0 335 -113t73 -317q-46 -236 -262 -364t-573 -128q-277 0 -441 53z" />
<glyph unicode="6" horiz-adv-x="1528" d="M633 592l-6 -30q-23 -103 -11 -161t42 -79.5t86 -21.5q151 0 182 166q18 90 -15 128t-111 38q-100 0 -167 -40zM1374 1068q-121 36 -272 36q-183 0 -281.5 -57t-133.5 -187q127 80 327 80q246 0 364 -124.5t74 -349.5q-45 -231 -238 -360.5t-513 -129.5 q-342 0 -497.5 171.5t-93.5 494.5q152 782 958 782q237 0 408 -50q13 -4 20 -15.5t3 -27.5l-64 -229q-6 -20 -24 -29.5t-37 -4.5z" />
<glyph unicode="7" horiz-adv-x="1528" d="M1525 1362l-50 -260q-12 -58 -76 -146l-663 -935q-5 -8 -17 -14.5t-21 -6.5h-517q-24 0 -31 18t7 38l706 984h-627q-16 0 -25.5 11.5t-6.5 27.5l55 283q3 16 17 27t30 11h1189q16 0 24.5 -11t5.5 -27z" />
<glyph unicode="8" horiz-adv-x="1528" d="M658 -24q-336 0 -501.5 117.5t-127.5 308.5q47 244 344 354q-185 86 -148 276q35 178 220.5 285t493.5 107t452.5 -107t109.5 -285q-37 -190 -256 -276q255 -110 208 -354q-38 -191 -248.5 -308.5t-546.5 -117.5zM781 612q-93 -41 -151.5 -97.5t-69.5 -114.5 q-10 -53 30.5 -88.5t125.5 -35.5t139.5 35.5t64.5 88.5q11 58 -25 114.5t-114 97.5zM829 856q78 26 132 68.5t63 89.5q9 49 -29 79.5t-114 30.5q-77 0 -126.5 -30.5t-58.5 -79.5q-9 -47 28 -89.5t105 -68.5z" />
<glyph unicode="9" horiz-adv-x="1528" d="M967 808l5 30q23 103 11 161t-42 79.5t-86 21.5q-149 0 -182 -166q-17 -90 15.5 -128t110.5 -38q100 0 168 40zM225 332q122 -36 272 -36q183 0 281.5 57t133.5 187q-125 -80 -327 -80q-246 0 -364 124.5t-74 349.5q45 231 238 360.5t513 129.5q342 0 497.5 -171.5 t93.5 -494.5q-152 -782 -958 -782q-237 0 -407 50q-13 4 -20.5 16t-3.5 27l64 229q6 20 24 29.5t37 4.5z" />
<glyph unicode=":" horiz-adv-x="744" d="M267 -24q-119 0 -166.5 53.5t-25.5 164.5t90 164.5t187 53.5t166 -53.5t25 -164.5t-89.5 -164.5t-186.5 -53.5zM393 624q-119 0 -166.5 53.5t-25.5 164.5t90 164.5t187 53.5t166 -53.5t25 -164.5t-89.5 -164.5t-186.5 -53.5z" />
<glyph unicode=";" horiz-adv-x="744" d="M385 624q-119 0 -166.5 53.5t-25.5 164.5t90 164.5t187 53.5t166 -53.5t25 -164.5t-89.5 -164.5t-186.5 -53.5zM124 -343q-14 -7 -27.5 -4t-20.5 16l-43 89q-5 12 1.5 28.5t19.5 25.5q106 76 140 170q-163 24 -127 212q22 111 90 164.5t187 53.5t166 -53.5t25 -164.5 q-35 -179 -139.5 -314.5t-271.5 -222.5z" />
<glyph unicode="&#x3c;" horiz-adv-x="1284" d="M110 427v470q0 13 8.5 24t20.5 14l1047 251q20 5 34 -6.5t14 -31.5v-293q0 -13 -9 -24.5t-21 -13.5l-732 -155l732 -155q12 -2 21 -13.5t9 -24.5v-293q0 -20 -14 -31.5t-34 -6.5l-1047 251q-12 3 -20.5 14t-8.5 24z" />
<glyph unicode="=" horiz-adv-x="1284" d="M1195 754h-1047q-16 0 -27 11.5t-11 27.5v223q0 16 11 27t27 11h1047q16 0 27.5 -11t11.5 -27v-223q0 -17 -11 -28t-28 -11zM1195 274h-1047q-16 0 -27 11.5t-11 27.5v222q0 16 11 27.5t27 11.5h1047q16 0 27.5 -11.5t11.5 -27.5v-222q0 -17 -11 -28t-28 -11z" />
<glyph unicode="&#x3e;" horiz-adv-x="1284" d="M1234 897v-470q0 -13 -8.5 -24t-20.5 -14l-1047 -251q-20 -5 -34 6.5t-14 31.5v293q0 13 9 24.5t21 13.5l732 155l-732 155q-12 2 -21 13.5t-9 24.5v293q0 20 14 31.5t34 6.5l1047 -251q12 -3 20.5 -14t8.5 -24z" />
<glyph unicode="?" horiz-adv-x="1316" d="M465 -24q-147 0 -199 47.5t-33 146.5t89.5 146.5t217.5 47.5t199.5 -47.5t33.5 -146.5t-90 -146.5t-218 -47.5zM316 497l10 51q27 137 88.5 217.5t180.5 126.5q83 31 119.5 56t41.5 54q5 24 -7.5 37.5t-56.5 22t-127 8.5q-168 0 -331 -51q-20 -6 -33.5 4t-11.5 29l25 253 q5 36 46 49q221 70 478 70q329 0 471.5 -98.5t104.5 -293.5q-46 -237 -345 -364q-74 -30 -105.5 -61t-40.5 -73l-7 -37q-3 -17 -16.5 -28t-29.5 -11h-423q-16 0 -25 11.5t-6 27.5z" />
<glyph unicode="@" horiz-adv-x="1920" d="M884 380q78 0 142 52l122 306q-21 26 -71 26q-85 0 -167 -81.5t-105 -198.5q-21 -104 79 -104zM1364 -190q-251 -134 -564 -134q-177 0 -325.5 61t-248.5 171t-139.5 277t-1.5 365q38 193 141.5 359t244.5 277.5t311 174.5t341 63q182 0 332.5 -56.5t252.5 -161 t142.5 -264.5t2.5 -354q-45 -230 -176.5 -362t-321.5 -132q-86 0 -149 40.5t-78 107.5q-154 -138 -363 -138q-95 0 -163 29.5t-101.5 80.5t-45 119.5t6.5 146.5q31 158 133.5 289.5t244.5 205t290 73.5q119 0 208 -44t140 -122q25 -40 4 -94l-75 -188q-32 -83 -43 -138 q-16 -84 1.5 -130t58.5 -46q67 0 118 79t79 223q56 291 -85.5 461.5t-451.5 170.5q-176 0 -339.5 -88.5t-277.5 -242.5t-150 -339q-30 -148 -1.5 -271t99 -211.5t184.5 -138t256 -49.5q247 0 448 118q19 10 34.5 5t20.5 -22l30 -123q4 -14 -3.5 -27.5t-20.5 -20.5z" />
<glyph unicode="A" horiz-adv-x="1788" d="M1069 241h-484l-104 -213q-15 -28 -43 -28h-494q-22 0 -31 16t3 37l724 1309q21 38 62 38h702q40 0 46 -38l216 -1309q3 -21 -11.5 -37t-36.5 -16h-494q-30 0 -33 28zM759 600h276l-47 466z" />
<glyph unicode="B" horiz-adv-x="1664" d="M771 0h-715q-16 0 -25.5 11.5t-6.5 28.5l257 1320q3 17 17 28.5t30 11.5h687q338 0 499.5 -95.5t123.5 -286.5q-38 -194 -226 -272q109 -31 156.5 -117t25.5 -197q-83 -432 -823 -432zM603 300h212q100 0 158 37.5t70 98.5t-31.5 98.5t-143.5 37.5h-212zM950 1100h-192 l-45 -232h192q172 0 195 116q11 53 -24 84.5t-126 31.5z" />
<glyph unicode="C" horiz-adv-x="1544" d="M1385 382q20 6 33.5 -4t12.5 -30l-25 -258q-1 -19 -14 -33.5t-30 -19.5q-213 -61 -492 -61q-437 0 -639.5 191.5t-135.5 534.5t344 532.5t714 189.5q261 0 454 -65q15 -6 22.5 -19.5t1.5 -32.5l-75 -254q-6 -20 -24 -30t-35 -4q-132 45 -296 45q-242 0 -378 -89 t-172 -273t69 -275t348 -91q173 0 317 46z" />
<glyph unicode="D" horiz-adv-x="1722" d="M1694 700q-69 -344 -329 -522t-668 -178h-640q-17 0 -26.5 12t-6.5 28l257 1320q3 16 17 28t31 12h640q407 0 598.5 -179t126.5 -521zM1138 700q38 198 -18.5 279t-208.5 81h-137l-140 -720h137q152 0 240.5 81.5t126.5 278.5z" />
<glyph unicode="E" horiz-adv-x="1476" d="M24 40l257 1320q3 16 17 28t31 12h1182q16 0 25 -11.5t6 -28.5l-51 -260q-3 -17 -16.5 -28.5t-29.5 -11.5h-671l-37 -186h618q17 0 26.5 -12t6.5 -28l-51 -260q-3 -16 -17 -28t-31 -12h-618l-37 -194h684q16 0 25.5 -11.5t6.5 -28.5l-51 -260q-3 -17 -17 -28.5t-30 -11.5 h-1195q-17 0 -26.5 12t-6.5 28z" />
<glyph unicode="F" horiz-adv-x="1422" d="M24 40l257 1320q3 16 17 28t31 12h1182q16 0 25 -12t6 -28l-51 -260q-3 -16 -16.5 -28t-29.5 -12h-670l-37 -188h620q16 0 25.5 -12t5.5 -28l-50 -260q-4 -17 -17.5 -28.5t-29.5 -11.5h-620l-96 -492q-3 -17 -17 -28.5t-30 -11.5h-472q-17 0 -26.5 12t-6.5 28z" />
<glyph unicode="G" horiz-adv-x="1782" d="M1654 1015q-160 57 -376 57q-554 0 -626 -372q-19 -95 4 -168t79 -116.5t133 -65.5t173 -22q91 0 157 12l37 192h-193q-16 0 -25.5 12t-5.5 28l39 201q3 16 16.5 27.5t29.5 11.5h595q16 0 25.5 -11.5t6.5 -27.5l-132 -679q-2 -11 -12.5 -22t-22.5 -15q-267 -81 -591 -81 q-484 0 -710 191t-159 533q31 161 118 293t225 228.5t335.5 149.5t437.5 53q333 0 550 -78q36 -13 24 -52l-73 -245q-6 -20 -24 -30t-35 -4z" />
<glyph unicode="H" horiz-adv-x="1820" d="M24 40l257 1320q3 16 17 28t30 12h473q16 0 25.5 -11.5t6.5 -28.5l-86 -440h476l86 440q3 16 17 28t31 12h472q16 0 25.5 -11.5t6.5 -28.5l-257 -1320q-3 -17 -17 -28.5t-30 -11.5h-472q-17 0 -26.5 12t-6.5 28l101 520h-476l-101 -520q-3 -17 -17 -28.5t-30 -11.5h-473 q-16 0 -25.5 12t-6.5 28z" />
<glyph unicode="I" horiz-adv-x="812" d="M338 1400h473q16 0 25.5 -11.5t6.5 -28.5l-257 -1320q-3 -17 -17 -28.5t-30 -11.5h-473q-16 0 -25.5 12t-6.5 28l257 1320q3 16 17 28t30 12z" />
<glyph unicode="J" horiz-adv-x="1270" d="M588 492l169 868q3 16 17 28t31 12h472q16 0 25.5 -11.5t6.5 -28.5l-168 -864q-51 -262 -250.5 -391t-556.5 -129q-243 0 -394 48q-11 4 -17 15.5t-3 24.5l77 277q5 20 23 30.5t36 3.5q95 -37 230 -37q140 0 213 36t89 118z" />
<glyph unicode="K" horiz-adv-x="1802" d="M833 1360l-99 -508l505 512q36 36 78 36h509q27 0 32.5 -22.5t-15.5 -42.5l-605 -587l437 -683q14 -20 -0.5 -42.5t-41.5 -22.5h-543q-40 0 -52 25l-340 640l-122 -625q-3 -17 -17 -28.5t-30 -11.5h-472q-17 0 -26.5 12t-6.5 28l257 1320q3 16 17 28t31 12h472 q16 0 25.5 -11.5t6.5 -28.5z" />
<glyph unicode="L" horiz-adv-x="1450" d="M24 40l257 1320q3 16 17 28t30 12h473q16 0 25.5 -11.5t6.5 -28.5l-195 -1000h718q17 0 26.5 -11.5t6.5 -27.5l-55 -281q-3 -17 -17 -28.5t-30 -11.5h-1231q-16 0 -25.5 12t-6.5 28z" />
<glyph unicode="M" horiz-adv-x="2240" d="M1265 400h-344q-37 0 -51 29l-220 406l-155 -795q-3 -17 -17 -28.5t-30 -11.5h-391q-17 0 -26.5 12t-6.5 28l257 1320q3 16 17 28t31 12h526q38 0 52 -32l269 -544l479 544q28 32 66 32h526q16 0 25.5 -11.5t6.5 -28.5l-257 -1320q-3 -17 -17 -28.5t-30 -11.5h-391 q-17 0 -26.5 12t-6.5 28l155 795l-378 -406q-27 -29 -63 -29z" />
<glyph unicode="N" horiz-adv-x="1866" d="M1028 35l-388 749l-145 -744q-3 -16 -16.5 -28t-29.5 -12h-393q-16 0 -25.5 12t-6.5 28l257 1320q3 16 17 28t30 12h515q41 0 59 -35l388 -749l145 744q3 16 17 28t30 12h393q16 0 25 -12t6 -28l-257 -1320q-3 -16 -16.5 -28t-29.5 -12h-515q-42 0 -60 35z" />
<glyph unicode="O" horiz-adv-x="1808" d="M1783 700q-31 -161 -110 -292.5t-200.5 -228.5t-294 -150t-380.5 -53q-139 0 -253.5 24t-197.5 69.5t-143 109.5t-89 144.5t-36 175.5t16 201q31 160 110 292t200.5 228.5t294 150t379.5 53.5q167 0 298.5 -34.5t217.5 -98t138.5 -153.5t62 -200t-12.5 -238zM651 700 q-38 -192 14 -286t200 -94q147 0 235.5 94t126.5 286q37 192 -15 286t-200 94q-147 0 -235.5 -94t-125.5 -286z" />
<glyph unicode="P" horiz-adv-x="1580" d="M1611 902q-33 -169 -145.5 -282t-284 -164.5t-400.5 -51.5h-159l-71 -364q-3 -17 -17 -28.5t-30 -11.5h-447q-17 0 -26.5 12t-6.5 28l257 1320q3 16 17 28t31 12h646q171 0 298.5 -29t212.5 -89t117.5 -156t7.5 -224zM1127 902q18 91 -35 129.5t-160 38.5h-181l-65 -336 h181q227 0 260 168z" />
<glyph unicode="Q" horiz-adv-x="1808" d="M650 700q-38 -192 14 -286t200 -94q147 0 235.5 94t126.5 286q37 192 -15 286t-200 94q-147 0 -235.5 -94t-125.5 -286zM635 -14q-325 39 -461.5 229.5t-79.5 484.5q31 160 110 292t200.5 228.5t294 150t379.5 53.5q167 0 298.5 -34.5t217.5 -98t138.5 -153.5t62 -200 t-12.5 -238q-51 -261 -226.5 -443.5t-454.5 -248.5q11 -42 60.5 -60t152.5 -18t184 16q18 4 29 -7t9 -29l-17 -223q-1 -16 -11 -28.5t-26 -14.5q-161 -24 -290 -24q-248 0 -391 88q-148 90 -166 278z" />
<glyph unicode="R" horiz-adv-x="1676" d="M1168 512l360 -444q16 -20 1.5 -44t-42.5 -24h-443q-78 0 -117 57l-293 408l-83 -425q-3 -16 -16.5 -28t-29.5 -12h-449q-16 0 -25.5 12t-6.5 28l257 1320q3 16 17 28t30 12h647q351 0 520 -113t123 -351q-62 -325 -450 -424zM1086 936q14 73 -35.5 108.5t-142.5 35.5 h-154l-56 -288h154q93 0 156.5 35.5t77.5 108.5z" />
<glyph unicode="S" horiz-adv-x="1464" d="M10 52q-12 4 -18 16.5t-2 24.5l85 284q6 20 24 30t35 3q191 -76 447 -76q94 0 147.5 8.5t71.5 22t22 35.5q4 19 -18 35.5t-94.5 41.5t-214.5 61q-206 53 -289.5 158.5t-50.5 275.5q45 229 232.5 340.5t533.5 111.5q313 0 521 -59q13 -4 19 -16t2 -26l-80 -278 q-6 -20 -22 -30.5t-33 -4.5q-156 52 -385 52q-126 0 -173 -14.5t-54 -49.5q-4 -21 16.5 -37t91.5 -41t219 -66q208 -58 290.5 -159.5t49.5 -272.5q-44 -225 -235.5 -335.5t-571.5 -110.5q-329 0 -566 76z" />
<glyph unicode="T" horiz-adv-x="1460" d="M358 40l195 1000h-394q-17 0 -26.5 11.5t-6.5 27.5l55 281q3 16 17 28t31 12h1340q16 0 25.5 -11.5t6.5 -28.5l-55 -281q-3 -16 -16.5 -27.5t-30.5 -11.5h-394l-195 -1000q-3 -16 -16.5 -28t-29.5 -12h-473q-17 0 -26.5 12t-6.5 28z" />
<glyph unicode="U" horiz-adv-x="1828" d="M807 -24q-246 0 -409 68t-233 208.5t-30 345.5l148 762q3 16 17 28t31 12h475q16 0 25.5 -11.5t6.5 -28.5l-151 -776q-25 -129 22 -186.5t169 -57.5q121 0 190.5 57.5t94.5 186.5l151 776q3 16 17 28t31 12h475q16 0 25.5 -11.5t6.5 -28.5l-148 -762 q-60 -306 -300.5 -464t-613.5 -158z" />
<glyph unicode="V" horiz-adv-x="1828" d="M1154 0h-686q-23 0 -38 11.5t-18 30.5l-216 1305q-3 21 12 37t37 16h469q57 0 61 -44l100 -1022l498 1022q21 44 79 44h469q23 0 31 -16t-4 -37l-722 -1305q-24 -42 -72 -42z" />
<glyph unicode="W" horiz-adv-x="2504" d="M1169 1400h506q22 0 34.5 -14.5t11.5 -38.5l-4 -905l376 927q5 13 18.5 22t26.5 9h464q21 0 29 -16t-2 -35l-631 -1304q-22 -45 -68 -45h-555q-51 0 -49 54l10 905l-342 -905q-21 -54 -69 -54h-555q-23 0 -36.5 13t-15.5 32l-123 1304q-2 20 12 35.5t35 15.5h464 q13 0 22.5 -9t10.5 -22l14 -927l348 905q22 53 68 53z" />
<glyph unicode="X" horiz-adv-x="1780" d="M1017 29l-192 344l-326 -344q-27 -29 -67 -29h-476q-26 0 -32.5 23t14.5 44l637 644l-370 622q-13 21 2.5 44t41.5 23h476q18 0 34 -9t22 -20l177 -316l299 316q29 29 68 29h476q26 0 32 -23t-14 -44l-612 -622l387 -644q12 -21 -3 -44t-41 -23h-476q-18 0 -34 9t-23 20z " />
<glyph unicode="Y" horiz-adv-x="1832" d="M1035 0h-474q-16 0 -25.5 12t-6.5 28l98 501l-421 796q-11 21 4 42t41 21h447q60 0 76 -38l200 -452l376 452q32 38 92 38h447q26 0 32 -21t-13 -42l-729 -796l-98 -501q-3 -16 -16.5 -28t-29.5 -12z" />
<glyph unicode="Z" horiz-adv-x="1440" d="M-46 40l47 239q15 77 72 128l702 633h-554q-17 0 -26.5 11.5t-6.5 27.5l55 281q3 16 17 28t31 12h1205q16 0 25 -12t6 -28l-51 -261q-10 -53 -70 -108l-705 -631h615q17 0 26.5 -11.5t6.5 -27.5l-55 -281q-3 -17 -17 -28.5t-30 -11.5h-1260q-17 0 -26.5 12t-6.5 28z" />
<glyph unicode="[" horiz-adv-x="1008" d="M53 -221l326 1682q4 16 17.5 27.5t29.5 11.5h690q16 0 25.5 -11.5t5.5 -27.5l-43 -222q-3 -16 -16.5 -27.5t-29.5 -11.5h-303l-226 -1160h303q16 0 25.5 -11.5t6.5 -27.5l-43 -222q-4 -16 -17.5 -27.5t-29.5 -11.5h-690q-16 0 -25.5 11.5t-5.5 27.5z" />
<glyph unicode="\" horiz-adv-x="1362" d="M808 -173l-646 1610q-9 21 5 40t39 19h298q55 0 73 -47l646 -1610q9 -21 -5 -40t-39 -19h-298q-55 0 -73 47z" />
<glyph unicode="]" horiz-adv-x="1008" d="M988 1461l-326 -1682q-4 -16 -17.5 -27.5t-29.5 -11.5h-690q-16 0 -25 11.5t-5 27.5l42 222q3 16 16.5 27.5t29.5 11.5h303l226 1160h-303q-16 0 -25.5 11.5t-6.5 27.5l43 222q4 16 17.5 27.5t29.5 11.5h690q16 0 25.5 -11.5t5.5 -27.5z" />
<glyph unicode="^" horiz-adv-x="1284" d="M448 1400h416q39 0 58 -37l305 -568q11 -20 0 -38.5t-34 -18.5h-300q-39 0 -59 38l-178 342l-178 -342q-20 -38 -59 -38h-300q-23 0 -34 18.5t0 38.5l305 568q19 37 58 37z" />
<glyph unicode="_" horiz-adv-x="1000" d="M-162 -302l11 59q3 16 17 27.5t30 11.5h921q16 0 25 -11.5t6 -27.5l-11 -59q-3 -16 -17 -27t-30 -11h-921q-16 0 -25 11t-6 27z" />
<glyph unicode="`" horiz-adv-x="1080" d="M770 1445l174 -260q14 -20 -1 -42.5t-42 -22.5h-192q-44 0 -81 32l-266 239q-16 14 -2.5 41.5t40.5 27.5h325q37 0 45 -15z" />
<glyph unicode="a" d="M969 950l10 49q3 15 16 26t28 11h446q16 0 24.5 -11t5.5 -26l-187 -962q-3 -15 -15.5 -26t-28.5 -11h-446q-15 0 -24 11t-6 26l9 49q-160 -110 -375 -110q-101 0 -181 34.5t-133 103t-70.5 169.5t7.5 235q33 172 123.5 297t209.5 185t255 60q214 0 332 -110zM844 304 l83 428q-42 40 -126 40q-93 0 -147 -56t-81 -198t5 -198t124 -56q85 0 142 40z" />
<glyph unicode="b" d="M523 86l-9 -47q-3 -16 -16.5 -27.5t-29.5 -11.5h-442q-16 0 -25.5 11.5t-6.5 27.5l269 1382q3 16 16.5 27.5t29.5 11.5h442q16 0 25.5 -11.5t6.5 -27.5l-92 -471q160 110 376 110q101 0 181 -34.5t133 -103t70 -169.5t-8 -235q-25 -130 -83 -234.5t-137 -171 t-172.5 -101.5t-194.5 -35q-215 0 -333 110zM649 732l-83 -428q42 -40 126 -40q92 0 145.5 56t81.5 198t-4 198t-124 56q-85 0 -142 -40z" />
<glyph unicode="c" horiz-adv-x="1196" d="M853 264q95 0 188 22q19 5 31 -5t10 -29l-19 -198q-4 -32 -38 -41q-143 -37 -320 -37q-362 0 -534 140t-121 402t269.5 402t580.5 140q168 0 311 -37q15 -4 21 -15.5t1 -25.5l-57 -198q-5 -19 -21.5 -29t-33.5 -5q-83 22 -179 22q-152 0 -248 -66t-120 -188 q-24 -126 49 -190t230 -64z" />
<glyph unicode="d" d="M792 39l9 47q-160 -110 -375 -110q-101 0 -181 34.5t-133 103t-70.5 169.5t7.5 235q33 172 123.5 297t209.5 185t255 60q214 0 332 -110l92 471q3 16 16.5 27.5t29.5 11.5h442q16 0 25.5 -11.5t6.5 -27.5l-269 -1382q-3 -16 -16.5 -27.5t-29.5 -11.5h-442 q-16 0 -25.5 11.5t-6.5 27.5zM844 304l83 428q-42 40 -126 40q-93 0 -147 -56t-81 -198t5 -198t124 -56q85 0 142 40z" />
<glyph unicode="e" horiz-adv-x="1390" d="M1087 15q-175 -39 -398 -39q-153 0 -272 26.5t-195 75t-122.5 116t-55.5 150t7 176.5q51 264 264.5 402t542.5 138q259 0 405 -93.5t117 -244.5q-66 -340 -758 -340h-140q21 -79 101.5 -113.5t227.5 -34.5q153 0 286 31q18 4 31 -5.5t12 -27.5l-16 -177q-1 -13 -12 -25 t-25 -15zM525 644h112q294 0 309 78q7 37 -22.5 52.5t-100.5 15.5q-110 0 -183.5 -34t-114.5 -112z" />
<glyph unicode="f" horiz-adv-x="1082" d="M1240 1435q15 -3 22 -15.5t2 -27.5l-58 -178q-4 -17 -19.5 -27.5t-31.5 -6.5q-51 12 -115 12q-84 0 -119 -21.5t-45 -72.5l-12 -62h267q16 0 25 -11.5t6 -27.5l-40 -206q-3 -16 -16.5 -27.5t-29.5 -11.5h-267l-214 -1099q-3 -16 -16.5 -27.5t-29.5 -11.5h-443 q-16 0 -25 11.5t-6 27.5l214 1099h-187q-17 0 -26 11.5t-6 27.5l40 206q3 16 17 27.5t30 11.5h187l6 30q38 197 182.5 295.5t425.5 98.5q157 0 282 -25z" />
<glyph unicode="g" horiz-adv-x="1490" d="M797 75l10 51q-162 -110 -375 -110q-207 0 -316.5 139t-62.5 383q32 163 120.5 283t207.5 179.5t254 59.5q214 0 332 -110l9 47q3 16 16.5 27.5t29.5 11.5h439q16 0 25 -11.5t6 -27.5l-171 -882q-36 -183 -130.5 -293.5t-274.5 -166t-466 -55.5q-223 0 -378 43 q-12 4 -18 15.5t-3 25.5l54 202q6 20 23.5 30.5t34.5 4.5q105 -35 243 -35q354 0 391 189zM849 344l76 388q-42 40 -126 40q-92 0 -145.5 -53t-78.5 -181t8 -181t125 -53q84 0 141 40z" />
<glyph unicode="h" horiz-adv-x="1522" d="M1443 538l-97 -499q-3 -16 -16.5 -27.5t-29.5 -11.5h-442q-16 0 -25.5 11.5t-6.5 27.5l93 479q28 142 -4 198t-124 56q-85 0 -142 -40l-135 -693q-3 -16 -16.5 -27.5t-29.5 -11.5h-442q-16 0 -25.5 11.5t-6.5 27.5l269 1382q3 16 16.5 27.5t29.5 11.5h442 q16 0 25.5 -11.5t6.5 -27.5l-92 -471q167 110 394 110q241 0 325 -129t33 -393z" />
<glyph unicode="i" horiz-adv-x="720" d="M473 1116q-144 0 -204 40.5t-42 131.5t93.5 131.5t219.5 40.5t204.5 -41t42.5 -131t-94 -131t-220 -41zM4 39l186 958q3 16 17 27.5t30 11.5h442q16 0 25 -11.5t6 -27.5l-186 -958q-3 -16 -16.5 -27.5t-29.5 -11.5h-442q-16 0 -25.5 11.5t-6.5 27.5z" />
<glyph unicode="j" horiz-adv-x="862" d="M163 69l180 928q3 16 16.5 27.5t29.5 11.5h443q16 0 25 -11.5t6 -27.5l-175 -902q-18 -92 -46.5 -162.5t-82 -135t-129 -106.5t-190 -66.5t-263.5 -24.5q-122 0 -238 16q-15 2 -22.5 14.5t-2.5 27.5l56 205q5 18 21 28.5t33 6.5q55 -10 109 -10q110 0 160 40t70 141z M626 1116q-144 0 -204 40.5t-42 131.5t93.5 131.5t219.5 40.5t204.5 -41t42.5 -131t-94 -131t-220 -41z" />
<glyph unicode="k" horiz-adv-x="1510" d="M794 54l-189 454l-91 -469q-3 -16 -16 -27.5t-29 -11.5h-444q-16 0 -25 11.5t-6 27.5l269 1382q3 16 16 27.5t29 11.5h444q16 0 25 -11.5t6 -27.5l-153 -787l311 348q47 54 108 54h452q26 0 32.5 -22t-14.5 -42l-406 -402l262 -510q11 -21 -2 -40.5t-39 -19.5h-453 q-63 0 -87 54z" />
<glyph unicode="l" horiz-adv-x="720" d="M4 39l269 1382q3 16 16.5 27.5t29.5 11.5h442q16 0 25.5 -11.5t6.5 -27.5l-269 -1382q-3 -16 -16.5 -27.5t-29.5 -11.5h-442q-16 0 -25.5 11.5t-6.5 27.5z" />
<glyph unicode="m" horiz-adv-x="2276" d="M2197 538l-97 -499q-3 -16 -16.5 -27.5t-29.5 -11.5h-440q-16 0 -25.5 11.5t-6.5 27.5l102 522q10 67 11 108.5t-15.5 64.5t-37 30.5t-53.5 7.5q-93 0 -167 -54q0 -81 -19 -180l-97 -499q-3 -16 -16 -27.5t-29 -11.5h-441q-16 0 -25.5 11.5t-6.5 27.5l102 522 q10 54 12 91.5t-3.5 60.5t-20 36.5t-33.5 18t-48 4.5q-87 0 -150 -50l-133 -683q-3 -16 -16.5 -27.5t-29.5 -11.5h-442q-16 0 -25.5 11.5t-6.5 27.5l186 958q3 16 17 27.5t30 11.5h442q16 0 25 -11.5t6 -27.5l-11 -57q72 55 171.5 87.5t206.5 32.5q255 0 326 -170 q89 79 206 124.5t240 45.5q232 0 321 -127t37 -395z" />
<glyph unicode="n" horiz-adv-x="1522" d="M1443 538l-97 -499q-3 -16 -16.5 -27.5t-29.5 -11.5h-442q-16 0 -25.5 11.5t-6.5 27.5l93 479q28 142 -4 198t-124 56q-85 0 -142 -40l-135 -693q-3 -16 -16.5 -27.5t-29.5 -11.5h-442q-16 0 -25.5 11.5t-6.5 27.5l186 958q3 16 17 27.5t30 11.5h442q16 0 25 -11.5 t6 -27.5l-9 -47q167 110 394 110q241 0 325 -129t33 -393z" />
<glyph unicode="o" horiz-adv-x="1480" d="M846 1060q314 0 473.5 -147t110.5 -395q-48 -248 -264.5 -395t-530.5 -147t-473.5 147t-111.5 395q49 248 265.5 395t530.5 147zM691 264q166 0 215 254q50 254 -116 254t-216 -254q-49 -254 117 -254z" />
<glyph unicode="p" d="M699 997l-9 -47q160 110 376 110q101 0 181 -34.5t133 -103t70 -169.5t-8 -235q-25 -130 -83 -234.5t-137 -171t-172.5 -101.5t-194.5 -35q-215 0 -333 110l-84 -433q-3 -16 -17 -27.5t-30 -11.5h-442q-16 0 -25 11.5t-6 27.5l261 1344q3 16 17 27.5t30 11.5h442 q16 0 25 -11.5t6 -27.5zM648 732l-83 -428q42 -40 126 -40q92 0 145.5 56t81.5 198t-4 198t-124 56q-85 0 -142 -40z" />
<glyph unicode="q" d="M969 950l9 47q3 16 17 27.5t30 11.5h442q16 0 25 -11.5t6 -27.5l-261 -1344q-3 -16 -17 -27.5t-30 -11.5h-442q-16 0 -25 11.5t-6 27.5l84 433q-160 -110 -375 -110q-101 0 -181 34.5t-133 103t-70.5 169.5t7.5 235q33 172 123.5 297t209.5 185t255 60q214 0 332 -110z M844 304l83 428q-42 40 -126 40q-93 0 -147 -56t-81 -198t5 -198t124 -56q85 0 142 40z" />
<glyph unicode="r" horiz-adv-x="1098" d="M1042 722q-66 18 -138 18q-98 0 -174.5 -46t-110.5 -116l-105 -539q-3 -16 -16 -27.5t-29 -11.5h-444q-16 0 -25 11.5t-6 27.5l186 958q3 16 16.5 27.5t29.5 11.5h444q16 0 24.5 -11.5t5.5 -27.5l-20 -103q67 73 166.5 119.5t198.5 46.5q76 0 125 -16q12 -4 16 -16.5 t-2 -26.5l-87 -247q-6 -17 -22 -26.5t-33 -5.5z" />
<glyph unicode="s" horiz-adv-x="1204" d="M-4 31q-32 10 -23 48l53 207q4 19 21.5 29t35.5 4q151 -53 334 -53q66 0 98.5 3.5t45.5 11.5t16 25q2 12 -14.5 24.5t-75 35t-164.5 54.5q-270 79 -226 308q33 169 180 250.5t441 81.5q235 0 428 -55q15 -4 23.5 -16t2.5 -28l-65 -208q-6 -19 -22.5 -27t-33.5 -2 q-136 46 -298 46q-78 0 -103.5 -7.5t-28.5 -24.5q-2 -10 6.5 -19t37 -22t79.5 -29.5t137 -41.5q135 -39 189.5 -112t32.5 -188q-34 -171 -194 -260.5t-448 -89.5q-283 0 -465 55z" />
<glyph unicode="t" horiz-adv-x="1142" d="M775 752l-60 -307q-19 -100 19 -140.5t163 -40.5q44 0 90 7q18 3 29 -8t9 -28l-23 -202q-2 -15 -14.5 -27t-27.5 -14q-106 -16 -229 -16q-107 0 -192 12.5t-145 35t-102.5 57t-66 74.5t-33 92t-7.5 106t15 118l55 281h-143q-16 0 -25.5 11.5t-6.5 27.5l40 206 q3 16 17 27.5t30 11.5h143l53 271q3 16 16 27.5t29 11.5h444q16 0 25 -11.5t6 -27.5l-53 -271h284q16 0 25 -11.5t6 -27.5l-40 -206q-3 -17 -16.5 -28t-29.5 -11h-284z" />
<glyph unicode="u" horiz-adv-x="1522" d="M75 498l97 499q3 16 17 27.5t30 11.5h442q16 0 25 -11.5t6 -27.5l-93 -479q-27 -142 5 -198t124 -56q85 0 142 40l134 693q3 16 17 27.5t30 11.5h442q16 0 25 -11.5t6 -27.5l-186 -958q-3 -16 -16.5 -27.5t-29.5 -11.5h-442q-16 0 -25.5 11.5t-6.5 27.5l9 47 q-165 -110 -393 -110q-241 0 -325.5 129.5t-33.5 392.5z" />
<glyph unicode="v" horiz-adv-x="1524" d="M937 0h-564q-10 0 -20 7t-12 16l-225 958q-4 21 10.5 38t36.5 17h450q11 0 20.5 -8t11.5 -19l78 -657l334 657q4 10 17.5 18.5t24.5 8.5h450q22 0 30 -17t-5 -38l-597 -958q-5 -9 -17.5 -16t-22.5 -7z" />
<glyph unicode="w" horiz-adv-x="2256" d="M1035 1036h378q11 0 20 -8.5t11 -19.5l71 -636l316 636q6 11 19 19.5t24 8.5h413q21 0 29 -16t-2 -36l-517 -958q-6 -10 -18.5 -18t-23.5 -8h-527q-11 0 -21 8.5t-11 19.5l-61 553l-275 -553q-6 -11 -18.5 -19.5t-23.5 -8.5h-527q-11 0 -21 8t-11 18l-145 958 q-3 20 11.5 36t35.5 16h413q11 0 20 -8.5t11 -19.5l70 -636l317 636q6 11 19 19.5t24 8.5z" />
<glyph unicode="x" horiz-adv-x="1428" d="M745 26l-114 240l-206 -240q-23 -26 -55 -26h-425q-26 0 -32 22.5t13 43.5l425 464l-230 440q-12 21 3 43.5t41 22.5h425q33 0 45 -26l100 -209l182 209q21 26 55 26h425q25 0 31.5 -22.5t-13.5 -43.5l-401 -440l244 -464q12 -21 -2.5 -43.5t-40.5 -22.5h-425 q-34 0 -45 26z" />
<glyph unicode="y" horiz-adv-x="1492" d="M630 1011l105 -563l300 561q5 10 18 18.5t24 8.5h439q22 0 30 -16.5t-4 -36.5l-793 -1344q-5 -10 -17.5 -17.5t-23.5 -7.5h-451q-21 0 -29 16t3 36l183 334l-296 977q-6 20 9.5 39.5t38.5 19.5h433q11 0 20.5 -7.5t10.5 -17.5z" />
<glyph unicode="z" horiz-adv-x="1220" d="M-56 39l43 222q6 28 37 53l523 438h-397q-16 0 -25.5 11.5t-6.5 27.5l40 206q3 16 17 27.5t30 11.5h1010q16 0 25 -11.5t6 -27.5l-43 -223q-5 -23 -24 -40l-533 -450h447q16 0 25 -11.5t6 -27.5l-40 -206q-3 -16 -16.5 -27.5t-29.5 -11.5h-1062q-16 0 -25.5 11.5 t-6.5 27.5z" />
<glyph unicode="{" horiz-adv-x="1034" d="M113 506l44 228q2 13 13.5 24.5t23.5 13.5q61 14 113 66.5t68 131.5l54 279q24 123 114 187t221 64h377q16 0 25.5 -11.5t5.5 -27.5l-43 -222q-3 -16 -16.5 -27.5t-29.5 -11.5h-161q-77 0 -91 -78l-45 -229q-42 -220 -277 -273q214 -52 171 -273l-45 -229 q-8 -41 6.5 -59.5t54.5 -18.5h161q16 0 25.5 -11.5t6.5 -27.5l-43 -222q-4 -16 -17.5 -27.5t-29.5 -11.5h-377q-131 0 -196 64t-41 187l54 279q16 78 -16.5 131t-88.5 67q-11 2 -17 13.5t-4 24.5z" />
<glyph unicode="|" horiz-adv-x="632" d="M190 -361v1860q0 16 11.5 27.5t27.5 11.5h234q16 0 27.5 -11.5t11.5 -27.5v-1860q0 -16 -11.5 -27.5t-27.5 -11.5h-234q-16 0 -27.5 11.5t-11.5 27.5z" />
<glyph unicode="}" horiz-adv-x="1034" d="M953 734l-44 -228q-2 -13 -13.5 -24.5t-23.5 -13.5q-61 -14 -113 -66.5t-68 -131.5l-54 -279q-24 -123 -114 -187t-221 -64h-377q-16 0 -25 11.5t-5 27.5l42 222q3 16 16.5 27.5t29.5 11.5h161q77 0 91 78l45 229q42 220 277 273q-214 52 -171 273l45 229q8 41 -6.5 59.5 t-54.5 18.5h-161q-16 0 -25.5 11.5t-6.5 27.5l43 222q4 16 17.5 27.5t29.5 11.5h377q131 0 196 -64t41 -187l-54 -279q-16 -78 16.5 -131t88.5 -67q11 -2 17 -13.5t4 -24.5z" />
<glyph unicode="~" horiz-adv-x="1284" d="M741 473q-121 45 -175 45q-65 0 -78 -53q-3 -12 -14 -20.5t-24 -8.5h-301q-17 0 -28 11t-11 28q5 215 75.5 319t218.5 104q83 0 197 -41q121 -45 175 -45q65 0 78 53q3 12 14 20.5t24 8.5h301q17 0 28 -11t11 -28q-5 -215 -75.5 -319t-218.5 -104q-83 0 -197 41z" />
<glyph unicode="&#xa1;" horiz-adv-x="800" d="M12 -72l169 601q4 15 17.5 25t28.5 10h356q14 0 23.5 -10.5t8.5 -25.5l-63 -598l-50 -256q-3 -16 -16 -27t-29 -11h-463q-16 0 -25.5 11t-6.5 27zM502 1060q147 0 199 -47.5t33 -146.5t-90 -146.5t-218 -47.5t-199 47.5t-33 146.5t90 146.5t218 47.5z" />
<glyph unicode="&#xa2;" horiz-adv-x="1196" d="M853 264q95 0 188 22q19 5 31 -5t10 -29l-19 -198q-1 -13 -12.5 -25t-25.5 -16q-121 -30 -270 -36l-33 -172q-3 -16 -17 -27.5t-30 -11.5h-218q-16 0 -25 11.5t-6 27.5l37 191q-240 42 -347.5 175.5t-65.5 346.5q42 216 199 350t417 175l37 188q3 16 16.5 27.5t29.5 11.5 h218q16 0 25.5 -11.5t6.5 -27.5l-34 -173q142 -6 246 -35q12 -4 19 -16t3 -25l-57 -198q-5 -19 -21.5 -29t-33.5 -5q-83 22 -179 22q-152 0 -248 -66t-120 -188q-24 -126 49 -190t230 -64z" />
<glyph unicode="&#xa3;" horiz-adv-x="1398" d="M124 770h116l38 195q47 241 221 350t498 109q247 0 426 -58q12 -3 18 -15.5t2 -25.5l-72 -246q-6 -21 -23.5 -30t-35.5 -2q-97 35 -216 35q-136 0 -197.5 -34t-74.5 -103l-34 -175h329q16 0 25.5 -11.5t6.5 -27.5l-12 -58q-3 -16 -16.5 -27.5t-29.5 -11.5h-329l-20 -100 q-12 -61 -47 -115t-90 -79h695q16 0 25 -11.5t6 -27.5l-51 -262q-3 -16 -16.5 -27.5t-29.5 -11.5h-1261q-16 0 -25 11.5t-6 27.5l54 275q4 24 31 37q66 30 109.5 74.5t52.5 92.5l23 116h-116q-16 0 -25 11.5t-6 27.5l12 58q3 16 16 27.5t29 11.5z" />
<glyph unicode="&#xa4;" horiz-adv-x="1478" d="M589 665q0 -104 44.5 -158.5t125.5 -54.5t125.5 54.5t44.5 158.5t-44.5 158.5t-125.5 54.5t-125.5 -54.5t-44.5 -158.5zM1311 665q0 -132 -56 -239l116 -116q11 -11 12 -28t-10 -28l-177 -188q-11 -12 -28 -12.5t-29 11.5l-136 136q-113 -45 -244 -45t-244 45l-136 -136 q-12 -12 -29 -11.5t-28 12.5l-177 188q-11 11 -10 28t12 28l116 116q-56 107 -56 239t56 239l-116 116q-11 11 -12 28t10 28l177 188q11 12 28 12.5t29 -11.5l136 -136q113 45 244 45t244 -45l136 136q12 12 29 11.5t28 -12.5l177 -188q11 -11 10 -28t-12 -28l-116 -116 q56 -107 56 -239z" />
<glyph unicode="&#xa5;" horiz-adv-x="1664" d="M965 0h-474q-16 0 -25.5 11.5t-6.5 27.5l50 255h-329q-16 0 -25.5 11.5t-6.5 27.5l12 58q3 17 16.5 28t29.5 11h329l23 120h-329q-16 0 -25 11.5t-6 27.5l11 59q4 16 17.5 27t29.5 11h249l-290 654q-9 21 5.5 40.5t39.5 19.5h456q20 0 30 -21l153 -495l347 495 q5 8 17 14.5t21 6.5h456q25 0 31.5 -19.5t-10.5 -40.5l-544 -654h249q17 0 26 -11t5 -27l-11 -59q-3 -16 -17 -27.5t-30 -11.5h-329l-23 -120h329q17 0 26 -11.5t6 -27.5l-12 -58q-3 -16 -16.5 -27.5t-29.5 -11.5h-329l-50 -255q-3 -16 -16.5 -27.5t-29.5 -11.5z" />
<glyph unicode="&#xa6;" horiz-adv-x="632" d="M190 735v627q0 16 11.5 27t27.5 11h234q16 0 27.5 -11t11.5 -27v-627q0 -16 -11.5 -27.5t-27.5 -11.5h-234q-16 0 -27.5 11.5t-11.5 27.5zM190 -185v626q0 16 11.5 27.5t27.5 11.5h234q16 0 27.5 -11.5t11.5 -27.5v-626q0 -16 -11.5 -27.5t-27.5 -11.5h-234 q-16 0 -27.5 11.5t-11.5 27.5z" />
<glyph unicode="&#xa7;" horiz-adv-x="1366" d="M716 522q107 29 120 92q5 29 -38 58.5t-109 39.5q-51 -13 -82.5 -37.5t-37.5 -54.5q-5 -29 38 -58.5t109 -39.5zM57 -135q-11 4 -16.5 15.5t-2.5 24.5l52 207q6 21 23.5 31t35.5 2q137 -55 317 -55q98 0 135 11.5t42 36.5q4 21 -13 39.5t-74 42t-159 50.5 q-149 40 -224 120t-51 202q18 94 79.5 163.5t146.5 106.5q-78 33 -111 98t-16 156q26 135 182 221.5t446 86.5q304 0 488 -67q11 -5 17 -17t2 -25l-59 -192q-6 -19 -22.5 -29.5t-33.5 -5.5q-112 46 -314 46q-169 0 -179 -54q-7 -36 47 -63t201 -63q153 -39 227 -116t48 -206 q-18 -93 -79.5 -162.5t-148.5 -107.5q75 -30 110.5 -95.5t19.5 -148.5q-28 -146 -181.5 -232t-447.5 -86q-281 0 -487 65z" />
<glyph unicode="&#xa8;" horiz-adv-x="1080" d="M236 1290q16 85 67.5 125.5t143.5 40.5q93 0 128.5 -40t18.5 -126t-68 -126t-144 -40q-92 0 -127 40.5t-19 125.5zM786 1290q16 85 68 125.5t145 40.5q91 0 126.5 -40t18.5 -126q-16 -85 -67 -125.5t-143 -40.5q-93 0 -129 40t-19 126z" />
<glyph unicode="&#xa9;" horiz-adv-x="1660" d="M136 700q0 197 97 363.5t263.5 263.5t363.5 97t363.5 -97t263.5 -263.5t97 -363.5t-97 -363.5t-263.5 -263.5t-363.5 -97t-363.5 97t-263.5 263.5t-97 363.5zM248 700q0 -169 82 -312t223 -225.5t307 -82.5t307 82.5t223 225.5t82 312t-82 312t-223 225.5t-307 82.5 t-307 -82.5t-223 -225.5t-82 -312zM1158 294q-85 -30 -218 -30q-245 0 -381.5 113t-136.5 319q0 205 134.5 319.5t361.5 114.5q143 0 242 -40q10 -4 17.5 -16t6.5 -23l-12 -136q-2 -23 -16.5 -34t-34.5 -3q-56 22 -119 22q-74 0 -122 -55.5t-48 -148.5q0 -94 51.5 -148 t138.5 -54q50 0 99 15q18 6 33 -5.5t17 -31.5l12 -138q1 -12 -6.5 -24t-18.5 -16z" />
<glyph unicode="&#xaa;" horiz-adv-x="1108" d="M817 1336l5 25q3 15 15.5 26t28.5 11h302q15 0 24 -11t6 -26l-134 -692q-3 -15 -16.5 -26t-28.5 -11h-302q-16 0 -24 11t-5 26l5 27q-118 -82 -278 -82q-71 0 -127.5 25.5t-95 76.5t-51 126t5.5 174q37 188 157 294t267 106q163 0 246 -80zM724 856l62 318q-27 30 -92 30 q-69 0 -109 -42t-60 -146q-20 -106 3 -147t92 -41q64 0 104 28z" />
<glyph unicode="&#xab;" horiz-adv-x="1122" d="M96 508l45 232q7 30 38 55l414 325q23 19 44.5 9t16.5 -38l-51 -261q-5 -19 -19 -29l-231 -177l162 -177q10 -10 8 -29l-51 -261q-5 -28 -30.5 -38t-41.5 9l-287 325q-22 24 -17 55zM594 508l45 232q7 30 38 55l414 325q23 19 44.5 9t16.5 -38l-51 -261q-5 -19 -19 -29 l-231 -177l162 -177q10 -10 8 -29l-51 -261q-5 -28 -30.5 -38t-41.5 9l-287 325q-22 24 -17 55z" />
<glyph unicode="&#xac;" horiz-adv-x="1284" d="M100 658v224q0 16 11.5 27t27.5 11h1046q16 0 27.5 -11t11.5 -27v-545q0 -16 -11.5 -27.5t-27.5 -11.5h-310q-16 0 -27.5 11.5t-11.5 27.5v283h-697q-16 0 -27.5 11t-11.5 27z" />
<glyph unicode="&#xad;" horiz-adv-x="828" d="M701 504h-590q-16 0 -25 11.5t-6 27.5l47 242q3 16 16.5 27.5t30.5 11.5h590q16 0 25 -11.5t6 -27.5l-47 -242q-3 -16 -17 -27.5t-30 -11.5z" />
<glyph unicode="&#xae;" horiz-adv-x="1660" d="M1124 598l174 -260q14 -21 1.5 -38.5t-37.5 -17.5h-255q-32 0 -51 32l-128 225l1 -218q0 -16 -11.5 -27.5t-27.5 -11.5h-267q-16 0 -27.5 11.5t-11.5 27.5v757q0 16 11.5 27t27.5 11h407q162 0 254 -71.5t92 -204.5q0 -179 -152 -242zM928 840q0 86 -60 86h-58v-172h58 q60 0 60 86zM136 700q0 197 97 363.5t263.5 263.5t363.5 97t363.5 -97t263.5 -263.5t97 -363.5t-97 -363.5t-263.5 -263.5t-363.5 -97t-363.5 97t-263.5 263.5t-97 363.5zM248 700q0 -169 82 -312t223 -225.5t307 -82.5t307 82.5t223 225.5t82 312t-82 312t-223 225.5 t-307 82.5t-307 -82.5t-223 -225.5t-82 -312z" />
<glyph unicode="&#xaf;" horiz-adv-x="1080" d="M306 1211l30 156q3 16 17 27.5t30 11.5h651q16 0 24.5 -11.5t5.5 -27.5l-30 -156q-3 -16 -16.5 -27.5t-29.5 -11.5h-651q-16 0 -25 11.5t-6 27.5z" />
<glyph unicode="&#xb0;" horiz-adv-x="1080" d="M933 1110q-26 -135 -136.5 -224.5t-252.5 -89.5t-217.5 89.5t-49.5 224.5t136.5 224.5t252.5 89.5t217.5 -89.5t49.5 -224.5zM501 1110q-8 -44 15.5 -74t68.5 -30t80.5 30t43.5 74q9 44 -15 74t-69 30t-80 -30t-44 -74z" />
<glyph unicode="&#xb1;" horiz-adv-x="1284" d="M478 379v275h-330q-16 0 -27 11.5t-11 27.5v222q0 16 11 27.5t27 11.5h330v275q0 16 11 27.5t27 11.5h311q17 0 28 -11t11 -28v-275h329q16 0 27.5 -11.5t11.5 -27.5v-222q0 -17 -11 -28t-28 -11h-329v-275q0 -16 -11.5 -27.5t-27.5 -11.5h-311q-16 0 -27 11.5t-11 27.5z M1195 0h-1047q-16 0 -27 11.5t-11 27.5v222q0 16 11 27.5t27 11.5h1047q16 0 27.5 -11.5t11.5 -27.5v-222q0 -16 -11.5 -27.5t-27.5 -11.5z" />
<glyph unicode="&#xb2;" horiz-adv-x="1008" d="M150 695q174 99 303 189q91 63 137.5 111t55.5 97q10 51 -29.5 73.5t-142.5 22.5q-93 0 -181 -22q-19 -5 -29.5 5.5t-8.5 30.5l17 136q4 30 31 38q158 40 320 40q225 0 319.5 -80.5t66.5 -225.5q-33 -166 -193 -282q-119 -87 -237 -132h307q16 0 25 -11.5t6 -27.5 l-29 -148q-3 -17 -16.5 -28t-29.5 -11h-726q-16 0 -25.5 11.5t-6.5 27.5l29 147q5 21 37 39z" />
<glyph unicode="&#xb3;" horiz-adv-x="1008" d="M108 496q-12 4 -19 16t-3 24l41 138q6 20 23.5 30t34.5 3q97 -39 217 -39q196 0 212 78q10 53 -58.5 80t-242.5 29q-16 0 -25 11.5t-6 27.5l24 123q3 16 14.5 26.5t27.5 10.5q167 2 243.5 23t84.5 63q7 33 -32.5 47.5t-133.5 14.5q-111 0 -216 -28q-19 -5 -31.5 5.5 t-10.5 29.5l11 124q1 13 11 25t24 16q139 42 346 42q206 0 309 -66t78 -194q-29 -148 -189 -202q73 -26 106.5 -80t19.5 -128q-27 -137 -169.5 -214.5t-365.5 -77.5q-175 0 -325 42z" />
<glyph unicode="&#xb4;" horiz-adv-x="1080" d="M368 1185l274 260q16 15 51 15h325q18 0 26 -13t4 -30t-18 -26l-360 -239q-46 -32 -93 -32h-192q-27 0 -32.5 22.5t15.5 42.5z" />
<glyph unicode="&#xb5;" horiz-adv-x="1532" d="M506 0l-68 -347q-3 -16 -17 -27.5t-30 -11.5h-442q-16 0 -25 11.5t-6 27.5l261 1344q3 16 17 27.5t30 11.5h442q16 0 25 -11.5t6 -27.5l-134 -689q59 -44 148 -44q88 0 164 44l134 689q3 16 17 27.5t30 11.5h442q16 0 25 -11.5t6 -27.5l-186 -958q-3 -16 -16.5 -27.5 t-29.5 -11.5h-442q-16 0 -25.5 11.5t-6.5 27.5l6 33q-91 -96 -218 -96q-65 0 -107 24z" />
<glyph unicode="&#xb6;" horiz-adv-x="1360" d="M1270 1400v-1623q0 -16 -11.5 -27.5t-27.5 -11.5h-238q-16 0 -27.5 11.5t-11.5 27.5v1373h-76v-1373q0 -16 -11.5 -27.5t-27.5 -11.5h-246q-16 0 -27.5 11.5t-11.5 27.5v755h-10q-201 0 -327.5 115.5t-126.5 318.5t126.5 318.5t327.5 115.5h726z" />
<glyph unicode="&#xb7;" horiz-adv-x="744" d="M356 446q-119 0 -166 53.5t-25 164.5q41 218 276 218q119 0 166 -53.5t26 -164.5q-22 -111 -90 -164.5t-187 -53.5z" />
<glyph unicode="&#xb8;" horiz-adv-x="1080" d="M203 -199q-50 1 -21 37l122 145q17 17 36 17h196q25 0 33 -18t-10 -39l-46 -53q64 -13 101.5 -56t25.5 -102q-40 -208 -400 -208q-58 0 -124 8q-14 1 -19.5 12.5t-3.5 26.5l16 83q4 19 17 30.5t30 8.5q33 -5 68 -5q134 0 143 48q3 16 -9.5 29t-51.5 23.5t-103 12.5z" />
<glyph unicode="&#xb9;" horiz-adv-x="1008" d="M233 1191l320 192q34 19 67 19h252q17 0 26 -11.5t5 -27.5l-166 -854q-3 -17 -16.5 -28t-29.5 -11h-275q-16 0 -25 11.5t-6 27.5l115 589l-181 -107q-15 -8 -30 -4.5t-21 16.5l-58 132q-6 14 0.5 30.5t22.5 25.5z" />
<glyph unicode="&#xba;" horiz-adv-x="1108" d="M726 1416q230 0 347 -107.5t82 -288.5t-194 -288.5t-389 -107.5q-227 0 -343.5 107.5t-81.5 288.5t193.5 288.5t385.5 107.5zM613 836q123 0 158 184q36 186 -86 186q-118 0 -154 -186q-35 -184 82 -184z" />
<glyph unicode="&#xbb;" horiz-adv-x="1122" d="M1054 740l-45 -232q-5 -28 -37 -55l-415 -325q-23 -19 -44 -9t-16 38l51 261q1 6 7 15.5t11 13.5l232 177l-163 177q-11 11 -7 29l51 261q5 28 30 38t41 -9l288 -325q22 -26 16 -55zM556 740l-45 -232q-5 -28 -37 -55l-415 -325q-23 -19 -44 -9t-16 38l51 261q1 6 7 15.5 t11 13.5l232 177l-163 177q-11 11 -7 29l51 261q5 28 30 38t41 -9l288 -325q22 -26 16 -55z" />
<glyph unicode="&#xbc;" horiz-adv-x="2424" d="M1914 1370l-1149 -1366q-28 -34 -70 -34h-107q-25 0 -31.5 19.5t10.5 40.5l1149 1366q28 34 70 34h107q25 0 31.5 -19.5t-10.5 -40.5zM1360 191l30 158q10 52 63 102l489 457q24 22 52 22h292q17 0 26 -11.5t6 -27.5l-97 -499h73q16 0 25 -11.5t6 -27.5l-31 -162 q-3 -16 -17 -27.5t-30 -11.5h-73l-22 -113q-3 -17 -16.5 -28t-29.5 -11h-256q-16 0 -25.5 11.5t-6.5 27.5l22 113h-449q-16 0 -25 11.5t-6 27.5zM1935 638l-260 -246h212zM233 1191l320 192q34 19 67 19h252q17 0 26 -11.5t5 -27.5l-166 -854q-3 -17 -16.5 -28t-29.5 -11 h-275q-16 0 -25 11.5t-6 27.5l115 589l-181 -107q-15 -8 -30 -4.5t-21 16.5l-58 132q-6 14 0.5 30.5t22.5 25.5z" />
<glyph unicode="&#xbd;" horiz-adv-x="2424" d="M1850 1370l-1149 -1366q-28 -34 -70 -34h-107q-25 0 -31.5 19.5t10.5 40.5l1149 1366q28 34 70 34h107q25 0 31.5 -19.5t-10.5 -40.5zM1503 223q173 98 304 189q90 63 136.5 111t55.5 97q10 51 -29 73.5t-142 22.5q-94 0 -182 -22q-19 -5 -29.5 5.5t-8.5 30.5l17 136 q4 30 31 38q158 40 320 40q226 0 320.5 -80.5t66.5 -225.5q-32 -165 -193 -282q-121 -88 -238 -132h307q16 0 25.5 -11.5t5.5 -27.5l-28 -148q-4 -17 -17.5 -28t-29.5 -11h-726q-16 0 -25.5 11.5t-5.5 27.5l28 147q5 21 37 39zM233 1191l320 192q34 19 67 19h252 q17 0 26 -11.5t5 -27.5l-166 -854q-3 -17 -16.5 -28t-29.5 -11h-275q-16 0 -25 11.5t-6 27.5l115 589l-181 -107q-15 -8 -30 -4.5t-21 16.5l-58 132q-6 14 0.5 30.5t22.5 25.5z" />
<glyph unicode="&#xbe;" horiz-adv-x="2424" d="M1954 1370l-1149 -1366q-28 -34 -70 -34h-107q-25 0 -31.5 19.5t10.5 40.5l1149 1366q28 34 70 34h107q25 0 31.5 -19.5t-10.5 -40.5zM1364 191l30 158q10 52 63 102l489 457q24 22 52 22h292q17 0 26 -11.5t6 -27.5l-97 -499h73q16 0 25 -11.5t6 -27.5l-31 -162 q-3 -16 -17 -27.5t-30 -11.5h-73l-22 -113q-3 -17 -16.5 -28t-29.5 -11h-256q-16 0 -25.5 11.5t-6.5 27.5l22 113h-449q-16 0 -25 11.5t-6 27.5zM1939 638l-260 -246h212zM108 496q-12 4 -19 16t-3 24l41 138q6 20 23.5 30t34.5 3q97 -39 217 -39q196 0 212 78 q10 53 -58.5 80t-242.5 29q-16 0 -25 11.5t-6 27.5l24 123q3 16 14.5 26.5t27.5 10.5q167 2 243.5 23t84.5 63q7 33 -32.5 47.5t-133.5 14.5q-111 0 -216 -28q-19 -5 -31.5 5.5t-10.5 29.5l11 124q1 13 11 25t24 16q139 42 346 42q206 0 309 -66t78 -194q-29 -148 -189 -202 q73 -26 106.5 -80t19.5 -128q-27 -137 -169.5 -214.5t-365.5 -77.5q-175 0 -325 42z" />
<glyph unicode="&#xbf;" horiz-adv-x="1316" d="M850 1060q147 0 199 -47.5t33 -146.5t-90 -146.5t-218 -47.5t-199 47.5t-33 146.5t90 146.5t218 47.5zM998 539l-10 -51q-26 -137 -87.5 -217.5t-181.5 -126.5q-83 -31 -119.5 -56t-41.5 -54q-4 -24 8 -37.5t56 -22t127 -8.5q167 0 332 51q19 6 32.5 -4t11.5 -29 l-25 -253q-1 -17 -14 -30t-31 -19q-222 -70 -479 -70q-329 0 -471.5 98.5t-104.5 293.5q47 237 345 364q74 30 106 61t40 73l7 37q4 17 17.5 28t29.5 11h423q16 0 25 -11.5t5 -27.5z" />
<glyph unicode="&#xc0;" horiz-adv-x="1788" d="M1069 241h-484l-104 -213q-15 -28 -43 -28h-494q-22 0 -31 16t3 37l724 1309q21 38 62 38h702q40 0 46 -38l216 -1309q3 -21 -11.5 -37t-36.5 -16h-494q-30 0 -33 28zM759 600h276l-47 466zM1066 1833l173 -260q14 -20 -0.5 -42.5t-41.5 -22.5h-192q-46 0 -81 32 l-267 239q-16 14 -2 41.5t41 27.5h325q35 0 45 -15z" />
<glyph unicode="&#xc1;" horiz-adv-x="1788" d="M1069 241h-484l-104 -213q-15 -28 -43 -28h-494q-22 0 -31 16t3 37l724 1309q21 38 62 38h702q40 0 46 -38l216 -1309q3 -21 -11.5 -37t-36.5 -16h-494q-30 0 -33 28zM759 600h276l-47 466zM933 1573l275 260q15 15 51 15h325q18 0 26 -13t3.5 -30t-18.5 -26l-359 -239 q-48 -32 -93 -32h-192q-27 0 -33 22.5t15 42.5z" />
<glyph unicode="&#xc2;" horiz-adv-x="1788" d="M1069 241h-484l-104 -213q-15 -28 -43 -28h-494q-22 0 -31 16t3 37l724 1309q21 38 62 38h702q40 0 46 -38l216 -1309q3 -21 -11.5 -37t-36.5 -16h-494q-30 0 -33 28zM759 600h276l-47 466zM963 1848h354q33 0 45 -21l144 -256q11 -21 -3.5 -42t-40.5 -21h-213 q-25 0 -39 17l-107 133l-159 -133q-20 -17 -45 -17h-213q-26 0 -33 21t13 42l244 256q19 21 53 21z" />
<glyph unicode="&#xc3;" horiz-adv-x="1788" d="M1069 241h-484l-104 -213q-15 -28 -43 -28h-494q-22 0 -31 16t3 37l724 1309q21 38 62 38h702q40 0 46 -38l216 -1309q3 -21 -11.5 -37t-36.5 -16h-494q-30 0 -33 28zM759 600h276l-47 466zM1105 1546q-69 34 -123 34q-76 0 -103 -40q-14 -22 -30 -22h-134 q-17 0 -26.5 12.5t-5.5 29.5q36 139 110 208.5t176 69.5q78 0 139 -30q69 -34 123 -34q76 0 103 40q14 22 30 22h134q17 0 26.5 -12.5t5.5 -29.5q-37 -139 -111 -208.5t-175 -69.5q-78 0 -139 30z" />
<glyph unicode="&#xc4;" horiz-adv-x="1788" d="M1069 241h-484l-104 -213q-15 -28 -43 -28h-494q-22 0 -31 16t3 37l724 1309q21 38 62 38h702q40 0 46 -38l216 -1309q3 -21 -11.5 -37t-36.5 -16h-494q-30 0 -33 28zM759 600h276l-47 466zM653 1678q16 85 67 125.5t143 40.5q93 0 129 -40t19 -126q-16 -85 -68 -125.5 t-145 -40.5q-91 0 -126.5 40t-18.5 126zM1203 1678q17 86 68 126t144 40q92 0 127 -40.5t19 -125.5t-67.5 -125.5t-143.5 -40.5q-93 0 -128.5 40t-18.5 126z" />
<glyph unicode="&#xc5;" horiz-adv-x="1788" d="M1069 241h-484l-104 -213q-15 -28 -43 -28h-494q-22 0 -31 16t3 37l724 1309q21 38 62 38h702q40 0 46 -38l216 -1309q3 -21 -11.5 -37t-36.5 -16h-494q-30 0 -33 28zM759 600h276l-47 466zM1385 1678q-22 -112 -117 -189t-213 -77q-117 0 -181.5 77.5t-42.5 188.5 q21 111 115.5 188.5t211.5 77.5q118 0 183 -77t44 -189zM1027 1678q-7 -35 11.5 -57.5t52.5 -22.5q36 0 63.5 22.5t34.5 57.5t-12 57.5t-55 22.5q-34 0 -61 -22.5t-34 -57.5z" />
<glyph unicode="&#xc6;" horiz-adv-x="2360" d="M1019 40l39 200h-422l-146 -217q-6 -9 -18 -16t-22 -7h-505q-24 0 -32 18.5t8 39.5l953 1321q6 8 18.5 14.5t20.5 6.5h1461q16 0 25.5 -11.5t6.5 -28.5l-51 -260q-3 -17 -17 -28.5t-30 -11.5h-562l-37 -186h512q17 0 26.5 -12t6.5 -28l-51 -260q-3 -16 -17 -28t-31 -12 h-512l-37 -194h578q16 0 25.5 -11.5t6.5 -28.5l-51 -260q-3 -17 -17 -28.5t-30 -11.5h-1066q-17 0 -26.5 12t-6.5 28zM867 580h257l103 528z" />
<glyph unicode="&#xc7;" horiz-adv-x="1544" d="M1384 382q20 6 33.5 -4t12.5 -30l-25 -258q-1 -19 -14 -33.5t-30 -19.5q-162 -46 -366 -57l-77 -90q63 -13 100 -56t25 -102q-40 -208 -400 -208q-58 0 -124 8q-14 1 -19.5 12.5t-3.5 26.5l16 83q4 19 17 30.5t30 8.5q33 -5 68 -5q134 0 143 48q3 16 -9.5 29t-51.5 23.5 t-103 12.5q-50 1 -21 37l122 146q-354 34 -513.5 221.5t-99.5 496.5q67 343 344 532.5t714 189.5q261 0 454 -65q15 -6 22.5 -19.5t1.5 -32.5l-75 -254q-6 -20 -24 -30t-35 -4q-132 45 -296 45q-242 0 -378 -89t-172 -273t69 -275t348 -91q173 0 317 46z" />
<glyph unicode="&#xc8;" horiz-adv-x="1476" d="M24 40l257 1320q3 16 17 28t31 12h1182q16 0 25 -11.5t6 -28.5l-51 -260q-3 -17 -16.5 -28.5t-29.5 -11.5h-671l-37 -186h618q17 0 26.5 -12t6.5 -28l-51 -260q-3 -16 -17 -28t-31 -12h-618l-37 -194h684q16 0 25.5 -11.5t6.5 -28.5l-51 -260q-3 -17 -17 -28.5t-30 -11.5 h-1195q-17 0 -26.5 12t-6.5 28zM1007 1833l173 -260q14 -20 -0.5 -42.5t-41.5 -22.5h-192q-46 0 -81 32l-267 239q-16 14 -2 41.5t41 27.5h325q35 0 45 -15z" />
<glyph unicode="&#xc9;" horiz-adv-x="1476" d="M24 40l257 1320q3 16 17 28t31 12h1182q16 0 25 -11.5t6 -28.5l-51 -260q-3 -17 -16.5 -28.5t-29.5 -11.5h-671l-37 -186h618q17 0 26.5 -12t6.5 -28l-51 -260q-3 -16 -17 -28t-31 -12h-618l-37 -194h684q16 0 25.5 -11.5t6.5 -28.5l-51 -260q-3 -17 -17 -28.5t-30 -11.5 h-1195q-17 0 -26.5 12t-6.5 28zM758 1573l275 260q15 15 51 15h325q18 0 26 -13t3.5 -30t-18.5 -26l-359 -239q-48 -32 -93 -32h-192q-27 0 -33 22.5t15 42.5z" />
<glyph unicode="&#xca;" horiz-adv-x="1476" d="M24 40l257 1320q3 16 17 28t31 12h1182q16 0 25 -11.5t6 -28.5l-51 -260q-3 -17 -16.5 -28.5t-29.5 -11.5h-671l-37 -186h618q17 0 26.5 -12t6.5 -28l-51 -260q-3 -16 -17 -28t-31 -12h-618l-37 -194h684q16 0 25.5 -11.5t6.5 -28.5l-51 -260q-3 -17 -17 -28.5t-30 -11.5 h-1195q-17 0 -26.5 12t-6.5 28zM822 1848h354q33 0 45 -21l144 -256q11 -21 -3.5 -42t-40.5 -21h-213q-25 0 -39 17l-107 133l-159 -133q-20 -17 -45 -17h-213q-26 0 -33 21t13 42l244 256q19 21 53 21z" />
<glyph unicode="&#xcb;" horiz-adv-x="1476" d="M24 40l257 1320q3 16 17 28t31 12h1182q16 0 25 -11.5t6 -28.5l-51 -260q-3 -17 -16.5 -28.5t-29.5 -11.5h-671l-37 -186h618q17 0 26.5 -12t6.5 -28l-51 -260q-3 -16 -17 -28t-31 -12h-618l-37 -194h684q16 0 25.5 -11.5t6.5 -28.5l-51 -260q-3 -17 -17 -28.5t-30 -11.5 h-1195q-17 0 -26.5 12t-6.5 28zM506 1678q16 85 67 125.5t143 40.5q93 0 129 -40t19 -126q-16 -85 -68 -125.5t-145 -40.5q-91 0 -126.5 40t-18.5 126zM1056 1678q17 86 68 126t144 40q92 0 127 -40.5t19 -125.5t-67.5 -125.5t-143.5 -40.5q-93 0 -128.5 40t-18.5 126z" />
<glyph unicode="&#xcc;" horiz-adv-x="812" d="M338 1400h473q16 0 25.5 -11.5t6.5 -28.5l-257 -1320q-3 -17 -17 -28.5t-30 -11.5h-473q-16 0 -25.5 12t-6.5 28l257 1320q3 16 17 28t30 12zM582 1833l173 -260q14 -20 -0.5 -42.5t-41.5 -22.5h-192q-46 0 -81 32l-267 239q-16 14 -2 41.5t41 27.5h325q35 0 45 -15z" />
<glyph unicode="&#xcd;" horiz-adv-x="812" d="M338 1400h473q16 0 25.5 -11.5t6.5 -28.5l-257 -1320q-3 -17 -17 -28.5t-30 -11.5h-473q-16 0 -25.5 12t-6.5 28l257 1320q3 16 17 28t30 12zM461 1573l275 260q15 15 51 15h325q18 0 26 -13t3.5 -30t-18.5 -26l-359 -239q-48 -32 -93 -32h-192q-27 0 -33 22.5t15 42.5z " />
<glyph unicode="&#xce;" horiz-adv-x="812" d="M338 1400h473q16 0 25.5 -11.5t6.5 -28.5l-257 -1320q-3 -17 -17 -28.5t-30 -11.5h-473q-16 0 -25.5 12t-6.5 28l257 1320q3 16 17 28t30 12zM485 1848h354q33 0 45 -21l144 -256q11 -21 -3.5 -42t-40.5 -21h-213q-25 0 -39 17l-107 133l-159 -133q-20 -17 -45 -17h-213 q-26 0 -33 21t13 42l244 256q19 21 53 21z" />
<glyph unicode="&#xcf;" horiz-adv-x="812" d="M338 1400h473q16 0 25.5 -11.5t6.5 -28.5l-257 -1320q-3 -17 -17 -28.5t-30 -11.5h-473q-16 0 -25.5 12t-6.5 28l257 1320q3 16 17 28t30 12zM175 1678q16 85 67 125.5t143 40.5q93 0 129 -40t19 -126q-16 -85 -68 -125.5t-145 -40.5q-91 0 -126.5 40t-18.5 126z M725 1678q17 86 68 126t144 40q92 0 127 -40.5t19 -125.5t-67.5 -125.5t-143.5 -40.5q-93 0 -128.5 40t-18.5 126z" />
<glyph unicode="&#xd0;" horiz-adv-x="1742" d="M1717 700q-69 -344 -329 -522t-668 -178h-640q-17 0 -26.5 12t-6.5 28l111 568h-100q-16 0 -25.5 12t-6.5 28l21 104q3 16 16.5 28t29.5 12h100l111 568q3 16 17 28t31 12h640q407 0 598.5 -179t126.5 -521zM1161 700q38 198 -18.5 279t-208.5 81h-137l-53 -268h172 q17 0 26.5 -12t6.5 -28l-21 -104q-3 -17 -17 -28.5t-30 -11.5h-172l-52 -268h137q152 0 240.5 81.5t126.5 278.5z" />
<glyph unicode="&#xd1;" horiz-adv-x="1866" d="M1028 35l-388 749l-145 -744q-3 -16 -16.5 -28t-29.5 -12h-393q-16 0 -25.5 12t-6.5 28l257 1320q3 16 17 28t30 12h515q41 0 59 -35l388 -749l145 744q3 16 17 28t30 12h393q16 0 25 -12t6 -28l-257 -1320q-3 -16 -16.5 -28t-29.5 -12h-515q-42 0 -60 35zM1152 1546 q-69 34 -123 34q-76 0 -103 -40q-14 -22 -30 -22h-134q-17 0 -26.5 12.5t-5.5 29.5q36 139 110 208.5t176 69.5q78 0 139 -30q69 -34 123 -34q76 0 103 40q14 22 30 22h134q17 0 26.5 -12.5t5.5 -29.5q-37 -139 -111 -208.5t-175 -69.5q-78 0 -139 30z" />
<glyph unicode="&#xd2;" horiz-adv-x="1808" d="M1783 700q-31 -161 -110 -292.5t-200.5 -228.5t-294 -150t-380.5 -53q-139 0 -253.5 24t-197.5 69.5t-143 109.5t-89 144.5t-36 175.5t16 201q31 160 110 292t200.5 228.5t294 150t379.5 53.5q167 0 298.5 -34.5t217.5 -98t138.5 -153.5t62 -200t-12.5 -238zM651 700 q-38 -192 14 -286t200 -94q147 0 235.5 94t126.5 286q37 192 -15 286t-200 94q-147 0 -235.5 -94t-125.5 -286zM1138 1833l173 -260q14 -20 -0.5 -42.5t-41.5 -22.5h-192q-46 0 -81 32l-267 239q-16 14 -2 41.5t41 27.5h325q35 0 45 -15z" />
<glyph unicode="&#xd3;" horiz-adv-x="1808" d="M1783 700q-31 -161 -110 -292.5t-200.5 -228.5t-294 -150t-380.5 -53q-139 0 -253.5 24t-197.5 69.5t-143 109.5t-89 144.5t-36 175.5t16 201q31 160 110 292t200.5 228.5t294 150t379.5 53.5q167 0 298.5 -34.5t217.5 -98t138.5 -153.5t62 -200t-12.5 -238zM651 700 q-38 -192 14 -286t200 -94q147 0 235.5 94t126.5 286q37 192 -15 286t-200 94q-147 0 -235.5 -94t-125.5 -286zM905 1573l275 260q15 15 51 15h325q18 0 26 -13t3.5 -30t-18.5 -26l-359 -239q-48 -32 -93 -32h-192q-27 0 -33 22.5t15 42.5z" />
<glyph unicode="&#xd4;" horiz-adv-x="1808" d="M1783 700q-31 -161 -110 -292.5t-200.5 -228.5t-294 -150t-380.5 -53q-139 0 -253.5 24t-197.5 69.5t-143 109.5t-89 144.5t-36 175.5t16 201q31 160 110 292t200.5 228.5t294 150t379.5 53.5q167 0 298.5 -34.5t217.5 -98t138.5 -153.5t62 -200t-12.5 -238zM651 700 q-38 -192 14 -286t200 -94q147 0 235.5 94t126.5 286q37 192 -15 286t-200 94q-147 0 -235.5 -94t-125.5 -286zM985 1848h354q33 0 45 -21l144 -256q11 -21 -3.5 -42t-40.5 -21h-213q-25 0 -39 17l-107 133l-159 -133q-20 -17 -45 -17h-213q-26 0 -33 21t13 42l244 256 q19 21 53 21z" />
<glyph unicode="&#xd5;" horiz-adv-x="1808" d="M1783 700q-31 -161 -110 -292.5t-200.5 -228.5t-294 -150t-380.5 -53q-139 0 -253.5 24t-197.5 69.5t-143 109.5t-89 144.5t-36 175.5t16 201q31 160 110 292t200.5 228.5t294 150t379.5 53.5q167 0 298.5 -34.5t217.5 -98t138.5 -153.5t62 -200t-12.5 -238zM651 700 q-38 -192 14 -286t200 -94q147 0 235.5 94t126.5 286q37 192 -15 286t-200 94q-147 0 -235.5 -94t-125.5 -286zM1127 1546q-69 34 -123 34q-76 0 -103 -40q-14 -22 -30 -22h-134q-17 0 -26.5 12.5t-5.5 29.5q36 139 110 208.5t176 69.5q78 0 139 -30q69 -34 123 -34 q76 0 103 40q14 22 30 22h134q17 0 26.5 -12.5t5.5 -29.5q-37 -139 -111 -208.5t-175 -69.5q-78 0 -139 30z" />
<glyph unicode="&#xd6;" horiz-adv-x="1808" d="M1783 700q-31 -161 -110 -292.5t-200.5 -228.5t-294 -150t-380.5 -53q-139 0 -253.5 24t-197.5 69.5t-143 109.5t-89 144.5t-36 175.5t16 201q31 160 110 292t200.5 228.5t294 150t379.5 53.5q167 0 298.5 -34.5t217.5 -98t138.5 -153.5t62 -200t-12.5 -238zM651 700 q-38 -192 14 -286t200 -94q147 0 235.5 94t126.5 286q37 192 -15 286t-200 94q-147 0 -235.5 -94t-125.5 -286zM675 1678q16 85 67 125.5t143 40.5q93 0 129 -40t19 -126q-16 -85 -68 -125.5t-145 -40.5q-91 0 -126.5 40t-18.5 126zM1225 1678q17 86 68 126t144 40 q92 0 127 -40.5t19 -125.5t-67.5 -125.5t-143.5 -40.5q-93 0 -128.5 40t-18.5 126z" />
<glyph unicode="&#xd7;" horiz-adv-x="1284" d="M396 661l-268 240q-13 11 -13.5 27.5t11.5 28.5l194 194q10 11 26 11t27 -11l286 -257l286 257q11 11 27 11t26 -11l194 -194q12 -12 11.5 -28.5t-13.5 -27.5l-268 -240l268 -240q13 -11 13.5 -27.5t-11.5 -28.5l-194 -194q-10 -11 -26 -11t-27 11l-286 257l-286 -257 q-11 -11 -27 -11t-26 11l-194 194q-12 12 -11.5 28.5t13.5 27.5z" />
<glyph unicode="&#xd8;" horiz-adv-x="1808" d="M1783 700q-31 -161 -110 -292.5t-200.5 -228.5t-294 -150t-380.5 -53q-206 0 -363 55l-188 -214q-15 -17 -45 -17h-61q-26 0 -33.5 20.5t11.5 41.5l197 225q-150 92 -205.5 250t-15.5 363q31 160 110 292t200.5 228.5t294 150t379.5 53.5t364 -55l188 214q15 17 46 17h61 q26 0 33 -20.5t-12 -41.5l-197 -225q150 -92 205.5 -250t15.5 -363zM651 700q-30 -146 -5 -238l511 582q-54 36 -145 36q-147 0 -235.5 -94t-125.5 -286zM1227 700q28 146 4 237l-511 -582q52 -35 145 -35q147 0 235.5 94t126.5 286z" />
<glyph unicode="&#xd9;" horiz-adv-x="1828" d="M807 -24q373 0 613.5 158t300.5 464l148 762q3 17 -6.5 28.5t-25.5 11.5h-475q-17 0 -31 -12t-17 -28l-151 -776q-25 -129 -94.5 -186.5t-190.5 -57.5q-122 0 -169 57.5t-22 186.5l151 776q3 17 -6.5 28.5t-25.5 11.5h-475q-17 0 -31 -12t-17 -28l-148 -762 q-40 -205 30 -345.5t233 -208.5t409 -68zM1139 1833l173 -260q14 -20 -0.5 -42.5t-41.5 -22.5h-192q-46 0 -81 32l-267 239q-16 14 -2 41.5t41 27.5h325q35 0 45 -15z" />
<glyph unicode="&#xda;" horiz-adv-x="1828" d="M807 -24q-246 0 -409 68t-233 208.5t-30 345.5l148 762q3 16 17 28t31 12h475q16 0 25.5 -11.5t6.5 -28.5l-151 -776q-25 -129 22 -186.5t169 -57.5q121 0 190.5 57.5t94.5 186.5l151 776q3 16 17 28t31 12h475q16 0 25.5 -11.5t6.5 -28.5l-148 -762 q-60 -306 -300.5 -464t-613.5 -158zM922 1573l275 260q15 15 51 15h325q18 0 26 -13t3.5 -30t-18.5 -26l-359 -239q-48 -32 -93 -32h-192q-27 0 -33 22.5t15 42.5z" />
<glyph unicode="&#xdb;" horiz-adv-x="1828" d="M807 -24q373 0 613.5 158t300.5 464l148 762q3 17 -6.5 28.5t-25.5 11.5h-475q-17 0 -31 -12t-17 -28l-151 -776q-25 -129 -94.5 -186.5t-190.5 -57.5q-122 0 -169 57.5t-22 186.5l151 776q3 17 -6.5 28.5t-25.5 11.5h-475q-17 0 -31 -12t-17 -28l-148 -762 q-40 -205 30 -345.5t233 -208.5t409 -68zM994 1848h354q33 0 45 -21l144 -256q11 -21 -3.5 -42t-40.5 -21h-213q-25 0 -39 17l-107 133l-159 -133q-20 -17 -45 -17h-213q-26 0 -33 21t13 42l244 256q19 21 53 21z" />
<glyph unicode="&#xdc;" horiz-adv-x="1828" d="M807 -24q373 0 613.5 158t300.5 464l148 762q3 17 -6.5 28.5t-25.5 11.5h-475q-17 0 -31 -12t-17 -28l-151 -776q-25 -129 -94.5 -186.5t-190.5 -57.5q-122 0 -169 57.5t-22 186.5l151 776q3 17 -6.5 28.5t-25.5 11.5h-475q-17 0 -31 -12t-17 -28l-148 -762 q-40 -205 30 -345.5t233 -208.5t409 -68zM684 1678q16 85 67 125.5t143 40.5q93 0 129 -40t19 -126q-16 -85 -68 -125.5t-145 -40.5q-91 0 -126.5 40t-18.5 126zM1234 1678q17 86 68 126t144 40q92 0 127 -40.5t19 -125.5t-67.5 -125.5t-143.5 -40.5q-93 0 -128.5 40 t-18.5 126z" />
<glyph unicode="&#xdd;" horiz-adv-x="1832" d="M1035 0h-474q-16 0 -25.5 12t-6.5 28l98 501l-421 796q-11 21 4 42t41 21h447q60 0 76 -38l200 -452l376 452q32 38 92 38h447q26 0 32 -21t-13 -42l-729 -796l-98 -501q-3 -16 -16.5 -28t-29.5 -12zM910 1573l275 260q15 15 51 15h325q18 0 26 -13t3.5 -30t-18.5 -26 l-359 -239q-48 -32 -93 -32h-192q-27 0 -33 22.5t15 42.5z" />
<glyph unicode="&#xde;" horiz-adv-x="1580" d="M1574 708q-33 -169 -146 -282t-284.5 -164.5t-400.5 -51.5h-158l-33 -170q-3 -17 -17 -28.5t-30 -11.5h-448q-17 0 -26.5 12t-6.5 28l257 1320q3 16 17 28t31 12h448q16 0 25.5 -11.5t6.5 -28.5l-30 -154h158q349 0 517.5 -122.5t119.5 -375.5zM1090 708q18 91 -35 129.5 t-160 38.5h-180l-66 -336h180q228 0 261 168z" />
<glyph unicode="&#xdf;" horiz-adv-x="1784" d="M913 536q-16 1 -25 12t-6 27l51 262q3 15 16.5 26.5t28.5 12.5q228 5 248 110q9 49 -46 73.5t-161 24.5q-141 0 -214 -60.5t-100 -199.5l-153 -785q-3 -16 -16.5 -27.5t-29.5 -11.5h-450q-16 0 -25.5 11.5t-6.5 27.5l139 713q67 347 292 509.5t656 162.5q344 0 516 -114 t137 -294q-21 -110 -99.5 -191.5t-204.5 -118.5q143 -27 205.5 -115t36.5 -225q-35 -179 -207 -284.5t-467 -105.5q-180 0 -321 31q-13 2 -20 14t-3 26l68 252q4 19 20.5 29.5t33.5 5.5q69 -18 148 -18q206 0 224 94q8 40 -7.5 64t-77.5 41t-180 21z" />
<glyph unicode="&#xe0;" d="M969 950l10 49q3 15 16 26t28 11h446q16 0 24.5 -11t5.5 -26l-187 -962q-3 -15 -15.5 -26t-28.5 -11h-446q-15 0 -24 11t-6 26l9 49q-160 -110 -375 -110q-101 0 -181 34.5t-133 103t-70.5 169.5t7.5 235q33 172 123.5 297t209.5 185t255 60q214 0 332 -110zM844 304 l83 428q-42 40 -126 40q-93 0 -147 -56t-81 -198t5 -198t124 -56q85 0 142 40zM988 1485l174 -260q13 -20 -1.5 -42.5t-41.5 -22.5h-192q-46 0 -81 32l-266 239q-17 14 -3.5 41.5t41.5 27.5h325q35 0 45 -15z" />
<glyph unicode="&#xe1;" d="M969 950l10 49q3 15 16 26t28 11h446q16 0 24.5 -11t5.5 -26l-187 -962q-3 -15 -15.5 -26t-28.5 -11h-446q-15 0 -24 11t-6 26l9 49q-160 -110 -375 -110q-101 0 -181 34.5t-133 103t-70.5 169.5t7.5 235q33 172 123.5 297t209.5 185t255 60q214 0 332 -110zM844 304 l83 428q-42 40 -126 40q-93 0 -147 -56t-81 -198t5 -198t124 -56q85 0 142 40zM710 1225l274 260q15 15 51 15h325q18 0 26 -13.5t3.5 -30t-17.5 -25.5l-360 -239q-48 -32 -93 -32h-192q-27 0 -33 22.5t16 42.5z" />
<glyph unicode="&#xe2;" d="M969 950l10 49q3 15 16 26t28 11h446q16 0 24.5 -11t5.5 -26l-187 -962q-3 -15 -15.5 -26t-28.5 -11h-446q-15 0 -24 11t-6 26l9 49q-160 -110 -375 -110q-101 0 -181 34.5t-133 103t-70.5 169.5t7.5 235q33 172 123.5 297t209.5 185t255 60q214 0 332 -110zM844 304 l83 428q-42 40 -126 40q-93 0 -147 -56t-81 -198t5 -198t124 -56q85 0 142 40zM815 1500h354q33 0 45 -21l144 -256q12 -21 -3 -42t-41 -21h-213q-25 0 -39 17l-107 133l-159 -133q-20 -17 -45 -17h-213q-26 0 -32.5 21t12.5 42l244 256q19 21 53 21z" />
<glyph unicode="&#xe3;" d="M969 950l10 49q3 15 16 26t28 11h446q16 0 24.5 -11t5.5 -26l-187 -962q-3 -15 -15.5 -26t-28.5 -11h-446q-15 0 -24 11t-6 26l9 49q-160 -110 -375 -110q-101 0 -181 34.5t-133 103t-70.5 169.5t7.5 235q33 172 123.5 297t209.5 185t255 60q214 0 332 -110zM844 304 l83 428q-42 40 -126 40q-93 0 -147 -56t-81 -198t5 -198t124 -56q85 0 142 40zM957 1198q-69 34 -123 34q-76 0 -103 -40q-14 -22 -30 -22h-134q-17 0 -26.5 12.5t-5.5 29.5q37 139 111 208.5t175 69.5q79 0 139 -30q71 -34 124 -34q77 0 102 40q16 22 31 22h134 q17 0 26.5 -12.5t5.5 -29.5q-37 -139 -111 -208.5t-175 -69.5q-79 0 -140 30z" />
<glyph unicode="&#xe4;" d="M969 950l10 49q3 15 16 26t28 11h446q16 0 24.5 -11t5.5 -26l-187 -962q-3 -15 -15.5 -26t-28.5 -11h-446q-15 0 -24 11t-6 26l9 49q-160 -110 -375 -110q-101 0 -181 34.5t-133 103t-70.5 169.5t7.5 235q33 172 123.5 297t209.5 185t255 60q214 0 332 -110zM844 304 l83 428q-42 40 -126 40q-93 0 -147 -56t-81 -198t5 -198t124 -56q85 0 142 40zM505 1330q16 85 67 125.5t143 40.5q93 0 129 -40t19 -126t-68 -126t-144 -40q-92 0 -127 40.5t-19 125.5zM1055 1330q17 86 68 126t144 40q92 0 127 -40.5t19 -125.5t-67 -125.5t-143 -40.5 q-93 0 -129 40t-19 126z" />
<glyph unicode="&#xe5;" d="M969 950l10 49q3 15 16 26t28 11h446q16 0 24.5 -11t5.5 -26l-187 -962q-3 -15 -15.5 -26t-28.5 -11h-446q-15 0 -24 11t-6 26l9 49q-160 -110 -375 -110q-101 0 -181 34.5t-133 103t-70.5 169.5t7.5 235q33 172 123.5 297t209.5 185t255 60q214 0 332 -110zM844 304 l83 428q-42 40 -126 40q-93 0 -147 -56t-81 -198t5 -198t124 -56q85 0 142 40zM1241 1350q-22 -112 -117 -189t-213 -77q-117 0 -181.5 77.5t-42.5 188.5t116.5 188.5t211.5 77.5q118 0 183 -77t43 -189zM883 1350q-7 -35 11.5 -57.5t52.5 -22.5q36 0 63.5 22.5t34.5 57.5 t-12 57.5t-55 22.5q-34 0 -61 -22.5t-34 -57.5z" />
<glyph unicode="&#xe6;" horiz-adv-x="2084" d="M1779 17q-168 -41 -383 -41q-318 0 -451 152q-100 -79 -224.5 -115.5t-302.5 -36.5q-237 0 -344.5 85t-75.5 247q32 167 184 261.5t412 94.5h240l4 24q9 45 -44.5 67.5t-171.5 22.5q-181 0 -365 -56q-18 -5 -31.5 3.5t-12.5 26.5l2 200q0 15 11 26.5t25 15.5 q215 66 462 66q170 0 274.5 -44t131.5 -130q94 81 229.5 127.5t280.5 46.5q227 0 350 -89.5t93 -244.5q-67 -344 -739 -344h-110q11 -80 80 -114t213 -34q159 0 275 32q18 5 30.5 -4.5t10.5 -27.5l-17 -176q-2 -14 -12.5 -26t-23.5 -15zM759 282l23 118h-220 q-153 0 -172 -92q-8 -41 28.5 -62.5t111.5 -21.5q147 0 229 58zM1271 640h98q132 0 193 19.5t69 64.5q6 32 -16.5 49t-70.5 17q-196 0 -273 -150z" />
<glyph unicode="&#xe7;" horiz-adv-x="1196" d="M853 264q95 0 188 22q19 5 31 -5t10 -29l-19 -198q-4 -32 -38 -41q-111 -27 -240 -35l-76 -88q63 -13 100 -56t25 -102q-40 -208 -400 -208q-58 0 -124 8q-14 1 -19.5 12.5t-3.5 26.5l16 83q4 19 17 30.5t30 8.5q33 -5 68 -5q134 0 143 48q3 16 -9.5 29t-51.5 23.5 t-103 12.5q-50 1 -21 37l126 151q-260 36 -377.5 171.5t-74.5 357.5q51 262 269.5 402t580.5 140q168 0 311 -37q15 -4 21 -15.5t1 -25.5l-57 -198q-5 -19 -21.5 -29t-33.5 -5q-83 22 -179 22q-152 0 -248 -66t-120 -188q-24 -126 49 -190t230 -64z" />
<glyph unicode="&#xe8;" horiz-adv-x="1390" d="M1087 15q14 3 25 15t12 25l16 177q1 18 -12 27.5t-31 5.5q-133 -31 -286 -31q-147 0 -227.5 34.5t-101.5 113.5h140q692 0 758 340q29 151 -117 244.5t-405 93.5q-329 0 -542.5 -138t-264.5 -402q-16 -94 -7 -176.5t55.5 -150t122.5 -116t195 -75t272 -26.5q223 0 398 39 zM637 644h-112q41 78 114.5 112t183.5 34q71 0 100.5 -15.5t22.5 -52.5q-15 -78 -309 -78zM887 1485l174 -260q13 -20 -1.5 -42.5t-41.5 -22.5h-192q-46 0 -81 32l-266 239q-17 14 -3.5 41.5t41.5 27.5h325q35 0 45 -15z" />
<glyph unicode="&#xe9;" horiz-adv-x="1390" d="M1087 15q-175 -39 -398 -39q-153 0 -272 26.5t-195 75t-122.5 116t-55.5 150t7 176.5q51 264 264.5 402t542.5 138q259 0 405 -93.5t117 -244.5q-66 -340 -758 -340h-140q21 -79 101.5 -113.5t227.5 -34.5q153 0 286 31q18 4 31 -5.5t12 -27.5l-16 -177q-1 -13 -12 -25 t-25 -15zM525 644h112q294 0 309 78q7 37 -22.5 52.5t-100.5 15.5q-110 0 -183.5 -34t-114.5 -112zM555 1225l274 260q15 15 51 15h325q18 0 26 -13.5t3.5 -30t-17.5 -25.5l-360 -239q-48 -32 -93 -32h-192q-27 0 -33 22.5t16 42.5z" />
<glyph unicode="&#xea;" horiz-adv-x="1390" d="M1087 15q14 3 25 15t12 25l16 177q1 18 -12 27.5t-31 5.5q-133 -31 -286 -31q-147 0 -227.5 34.5t-101.5 113.5h140q692 0 758 340q29 151 -117 244.5t-405 93.5q-329 0 -542.5 -138t-264.5 -402q-16 -94 -7 -176.5t55.5 -150t122.5 -116t195 -75t272 -26.5q223 0 398 39 zM637 644h-112q41 78 114.5 112t183.5 34q71 0 100.5 -15.5t22.5 -52.5q-15 -78 -309 -78zM700 1500h354q33 0 45 -21l144 -256q12 -21 -3 -42t-41 -21h-213q-25 0 -39 17l-107 133l-159 -133q-20 -17 -45 -17h-213q-26 0 -32.5 21t12.5 42l244 256q19 21 53 21z" />
<glyph unicode="&#xeb;" horiz-adv-x="1390" d="M1087 15q14 3 25 15t12 25l16 177q1 18 -12 27.5t-31 5.5q-133 -31 -286 -31q-147 0 -227.5 34.5t-101.5 113.5h140q692 0 758 340q29 151 -117 244.5t-405 93.5q-329 0 -542.5 -138t-264.5 -402q-16 -94 -7 -176.5t55.5 -150t122.5 -116t195 -75t272 -26.5q223 0 398 39 zM637 644h-112q41 78 114.5 112t183.5 34q71 0 100.5 -15.5t22.5 -52.5q-15 -78 -309 -78zM390 1330q16 85 67 125.5t143 40.5q93 0 129 -40t19 -126t-68 -126t-144 -40q-92 0 -127 40.5t-19 125.5zM940 1330q17 86 68 126t144 40q92 0 127 -40.5t19 -125.5t-67 -125.5 t-143 -40.5q-93 0 -129 40t-19 126z" />
<glyph unicode="&#xec;" horiz-adv-x="720" d="M4 39l186 958q3 16 17 27.5t30 11.5h442q16 0 25 -11.5t6 -27.5l-186 -958q-3 -16 -16.5 -27.5t-29.5 -11.5h-442q-16 0 -25.5 11.5t-6.5 27.5zM454 1485l174 -260q13 -20 -1.5 -42.5t-41.5 -22.5h-192q-46 0 -81 32l-266 239q-17 14 -3.5 41.5t41.5 27.5h325 q35 0 45 -15z" />
<glyph unicode="&#xed;" horiz-adv-x="720" d="M4 39l186 958q3 16 17 27.5t30 11.5h442q16 0 25 -11.5t6 -27.5l-186 -958q-3 -16 -16.5 -27.5t-29.5 -11.5h-442q-16 0 -25.5 11.5t-6.5 27.5zM362 1225l274 260q15 15 51 15h325q18 0 26 -13.5t3.5 -30t-17.5 -25.5l-360 -239q-48 -32 -93 -32h-192q-27 0 -33 22.5 t16 42.5z" />
<glyph unicode="&#xee;" horiz-adv-x="720" d="M4 39l186 958q3 16 17 27.5t30 11.5h442q16 0 25 -11.5t6 -27.5l-186 -958q-3 -16 -16.5 -27.5t-29.5 -11.5h-442q-16 0 -25.5 11.5t-6.5 27.5zM371 1500h354q33 0 45 -21l144 -256q12 -21 -3 -42t-41 -21h-213q-25 0 -39 17l-107 133l-159 -133q-20 -17 -45 -17h-213 q-26 0 -32.5 21t12.5 42l244 256q19 21 53 21z" />
<glyph unicode="&#xef;" horiz-adv-x="720" d="M4 39l186 958q3 16 17 27.5t30 11.5h442q16 0 25 -11.5t6 -27.5l-186 -958q-3 -16 -16.5 -27.5t-29.5 -11.5h-442q-16 0 -25.5 11.5t-6.5 27.5zM61 1330q16 85 67 125.5t143 40.5q93 0 129 -40t19 -126t-68 -126t-144 -40q-92 0 -127 40.5t-19 125.5zM611 1330 q17 86 68 126t144 40q92 0 127 -40.5t19 -125.5t-67 -125.5t-143 -40.5q-93 0 -129 40t-19 126z" />
<glyph unicode="&#xf0;" horiz-adv-x="1426" d="M791 1082l-281 -85q-15 -5 -27 1t-16 19l-15 67q-4 16 5.5 31.5t28.5 21.5l102 31q-54 13 -106 19q-15 2 -22.5 14.5t-2.5 28.5l59 187q5 16 20 26t31 8q267 -33 479 -140l251 78q16 5 29 -1.5t16 -20.5l16 -67q4 -16 -6 -31t-28 -20l-129 -41q129 -108 182.5 -254.5 t19.5 -323.5q-61 -310 -271 -482t-542 -172q-135 0 -244.5 33.5t-184.5 96.5t-105.5 160t-6.5 218q28 144 116.5 254t204.5 165t239 55q223 0 324 -104q-6 138 -136 228zM642 264q44 0 78 14t67.5 50.5t60.5 107.5t47 176l8 40q-17 19 -53 30.5t-77 11.5q-91 0 -150 -45 t-82 -165q-22 -113 6.5 -166.5t94.5 -53.5z" />
<glyph unicode="&#xf1;" horiz-adv-x="1522" d="M1443 538l-97 -499q-3 -16 -16.5 -27.5t-29.5 -11.5h-442q-16 0 -25.5 11.5t-6.5 27.5l93 479q28 142 -4 198t-124 56q-85 0 -142 -40l-135 -693q-3 -16 -16.5 -27.5t-29.5 -11.5h-442q-16 0 -25.5 11.5t-6.5 27.5l186 958q3 16 17 27.5t30 11.5h442q16 0 25 -11.5 t6 -27.5l-9 -47q167 110 394 110q241 0 325 -129t33 -393zM919 1198q-69 34 -123 34q-76 0 -103 -40q-14 -22 -30 -22h-134q-17 0 -26.5 12.5t-5.5 29.5q37 139 111 208.5t175 69.5q79 0 139 -30q71 -34 124 -34q77 0 102 40q16 22 31 22h134q17 0 26.5 -12.5t5.5 -29.5 q-37 -139 -111 -208.5t-175 -69.5q-79 0 -140 30z" />
<glyph unicode="&#xf2;" horiz-adv-x="1480" d="M846 1060q314 0 473.5 -147t110.5 -395q-48 -248 -264.5 -395t-530.5 -147t-473.5 147t-111.5 395q49 248 265.5 395t530.5 147zM691 264q166 0 215 254q50 254 -116 254t-216 -254q-49 -254 117 -254zM935 1485l174 -260q13 -20 -1.5 -42.5t-41.5 -22.5h-192 q-46 0 -81 32l-266 239q-17 14 -3.5 41.5t41.5 27.5h325q35 0 45 -15z" />
<glyph unicode="&#xf3;" horiz-adv-x="1480" d="M846 1060q314 0 473.5 -147t110.5 -395q-48 -248 -264.5 -395t-530.5 -147t-473.5 147t-111.5 395q49 248 265.5 395t530.5 147zM691 264q166 0 215 254q50 254 -116 254t-216 -254q-49 -254 117 -254zM647 1225l274 260q15 15 51 15h325q18 0 26 -13.5t3.5 -30 t-17.5 -25.5l-360 -239q-48 -32 -93 -32h-192q-27 0 -33 22.5t16 42.5z" />
<glyph unicode="&#xf4;" horiz-adv-x="1480" d="M846 1060q314 0 473.5 -147t110.5 -395q-48 -248 -264.5 -395t-530.5 -147t-473.5 147t-111.5 395q49 248 265.5 395t530.5 147zM691 264q166 0 215 254q50 254 -116 254t-216 -254q-49 -254 117 -254zM754 1500h354q33 0 45 -21l144 -256q12 -21 -3 -42t-41 -21h-213 q-25 0 -39 17l-107 133l-159 -133q-20 -17 -45 -17h-213q-26 0 -32.5 21t12.5 42l244 256q19 21 53 21z" />
<glyph unicode="&#xf5;" horiz-adv-x="1480" d="M846 1060q314 0 473.5 -147t110.5 -395q-48 -248 -264.5 -395t-530.5 -147t-473.5 147t-111.5 395q49 248 265.5 395t530.5 147zM691 264q166 0 215 254q50 254 -116 254t-216 -254q-49 -254 117 -254zM896 1198q-69 34 -123 34q-76 0 -103 -40q-14 -22 -30 -22h-134 q-17 0 -26.5 12.5t-5.5 29.5q37 139 111 208.5t175 69.5q79 0 139 -30q71 -34 124 -34q77 0 102 40q16 22 31 22h134q17 0 26.5 -12.5t5.5 -29.5q-37 -139 -111 -208.5t-175 -69.5q-79 0 -140 30z" />
<glyph unicode="&#xf6;" horiz-adv-x="1480" d="M846 1060q314 0 473.5 -147t110.5 -395q-48 -248 -264.5 -395t-530.5 -147t-473.5 147t-111.5 395q49 248 265.5 395t530.5 147zM691 264q166 0 215 254q50 254 -116 254t-216 -254q-49 -254 117 -254zM444 1330q16 85 67 125.5t143 40.5q93 0 129 -40t19 -126t-68 -126 t-144 -40q-92 0 -127 40.5t-19 125.5zM994 1330q17 86 68 126t144 40q92 0 127 -40.5t19 -125.5t-67 -125.5t-143 -40.5q-93 0 -129 40t-19 126z" />
<glyph unicode="&#xf7;" horiz-adv-x="1284" d="M456 188q0 111 53 164.5t163 53.5t163 -53.5t53 -164.5t-53 -164.5t-163 -53.5t-163 53.5t-53 164.5zM456 1140q0 111 53 164.5t163 53.5t163 -53.5t53 -164.5t-53 -164.5t-163 -53.5t-163 53.5t-53 164.5zM1195 514h-1047q-16 0 -27 11.5t-11 27.5v222q0 16 11 27.5 t27 11.5h1047q16 0 27.5 -11.5t11.5 -27.5v-222q0 -16 -11.5 -27.5t-27.5 -11.5z" />
<glyph unicode="&#xf8;" horiz-adv-x="1480" d="M845 1060q151 0 271 -37l191 216q15 17 46 17h36q25 0 32.5 -20.5t-10.5 -41.5l-190 -214q129 -68 183.5 -187t24.5 -275q-48 -248 -264.5 -395t-530.5 -147q-149 0 -271 36l-191 -215q-15 -17 -45 -17h-36q-26 0 -33.5 20.5t11.5 41.5l188 213q-130 67 -184 186t-24 277 q49 248 265.5 395t530.5 147zM573 518q-14 -74 -11 -120l309 349q-32 25 -82 25q-166 0 -216 -254zM690 264q166 0 215 254q14 72 11 118l-309 -348q31 -24 83 -24z" />
<glyph unicode="&#xf9;" horiz-adv-x="1522" d="M75 498l97 499q3 16 17 27.5t30 11.5h442q16 0 25 -11.5t6 -27.5l-93 -479q-27 -142 5 -198t124 -56q85 0 142 40l134 693q3 16 17 27.5t30 11.5h442q16 0 25 -11.5t6 -27.5l-186 -958q-3 -16 -16.5 -27.5t-29.5 -11.5h-442q-16 0 -25.5 11.5t-6.5 27.5l9 47 q-165 -110 -393 -110q-241 0 -325.5 129.5t-33.5 392.5zM934 1485l174 -260q13 -20 -1.5 -42.5t-41.5 -22.5h-192q-46 0 -81 32l-266 239q-17 14 -3.5 41.5t41.5 27.5h325q35 0 45 -15z" />
<glyph unicode="&#xfa;" horiz-adv-x="1522" d="M75 498l97 499q3 16 17 27.5t30 11.5h442q16 0 25 -11.5t6 -27.5l-93 -479q-27 -142 5 -198t124 -56q85 0 142 40l134 693q3 16 17 27.5t30 11.5h442q16 0 25 -11.5t6 -27.5l-186 -958q-3 -16 -16.5 -27.5t-29.5 -11.5h-442q-16 0 -25.5 11.5t-6.5 27.5l9 47 q-165 -110 -393 -110q-241 0 -325.5 129.5t-33.5 392.5zM678 1225l274 260q15 15 51 15h325q18 0 26 -13.5t3.5 -30t-17.5 -25.5l-360 -239q-48 -32 -93 -32h-192q-27 0 -33 22.5t16 42.5z" />
<glyph unicode="&#xfb;" horiz-adv-x="1522" d="M75 498l97 499q3 16 17 27.5t30 11.5h442q16 0 25 -11.5t6 -27.5l-93 -479q-27 -142 5 -198t124 -56q85 0 142 40l134 693q3 16 17 27.5t30 11.5h442q16 0 25 -11.5t6 -27.5l-186 -958q-3 -16 -16.5 -27.5t-29.5 -11.5h-442q-16 0 -25.5 11.5t-6.5 27.5l9 47 q-165 -110 -393 -110q-241 0 -325.5 129.5t-33.5 392.5zM769 1500h354q33 0 45 -21l144 -256q12 -21 -3 -42t-41 -21h-213q-25 0 -39 17l-107 133l-159 -133q-20 -17 -45 -17h-213q-26 0 -32.5 21t12.5 42l244 256q19 21 53 21z" />
<glyph unicode="&#xfc;" horiz-adv-x="1522" d="M75 498l97 499q3 16 17 27.5t30 11.5h442q16 0 25 -11.5t6 -27.5l-93 -479q-27 -142 5 -198t124 -56q85 0 142 40l134 693q3 16 17 27.5t30 11.5h442q16 0 25 -11.5t6 -27.5l-186 -958q-3 -16 -16.5 -27.5t-29.5 -11.5h-442q-16 0 -25.5 11.5t-6.5 27.5l9 47 q-165 -110 -393 -110q-241 0 -325.5 129.5t-33.5 392.5zM459 1330q16 85 67 125.5t143 40.5q93 0 129 -40t19 -126t-68 -126t-144 -40q-92 0 -127 40.5t-19 125.5zM1009 1330q17 86 68 126t144 40q92 0 127 -40.5t19 -125.5t-67 -125.5t-143 -40.5q-93 0 -129 40t-19 126z " />
<glyph unicode="&#xfd;" horiz-adv-x="1492" d="M630 1011l105 -563l300 561q5 10 18 18.5t24 8.5h439q22 0 30 -16.5t-4 -36.5l-793 -1344q-5 -10 -17.5 -17.5t-23.5 -7.5h-451q-21 0 -29 16t3 36l183 334l-296 977q-6 20 9.5 39.5t38.5 19.5h433q11 0 20.5 -7.5t10.5 -17.5zM655 1225l274 260q15 15 51 15h325 q18 0 26 -13.5t3.5 -30t-17.5 -25.5l-360 -239q-48 -32 -93 -32h-192q-27 0 -33 22.5t16 42.5z" />
<glyph unicode="&#xfe;" d="M782 1421l-92 -471q160 110 376 110q101 0 181 -34.5t133 -103t70 -169.5t-8 -235q-25 -130 -83 -234.5t-137 -171t-172.5 -101.5t-194.5 -35q-215 0 -333 110l-84 -433q-3 -16 -17 -27.5t-30 -11.5h-442q-16 0 -25 11.5t-6 27.5l344 1768q3 16 16.5 27.5t29.5 11.5h442 q16 0 25.5 -11.5t6.5 -27.5zM648 732l-83 -428q42 -40 126 -40q92 0 145.5 56t81.5 198t-4 198t-124 56q-85 0 -142 -40z" />
<glyph unicode="&#xff;" horiz-adv-x="1492" d="M630 1011l105 -563l300 561q5 10 18 18.5t24 8.5h439q22 0 30 -16.5t-4 -36.5l-793 -1344q-5 -10 -17.5 -17.5t-23.5 -7.5h-451q-21 0 -29 16t3 36l183 334l-296 977q-6 20 9.5 39.5t38.5 19.5h433q11 0 20.5 -7.5t10.5 -17.5zM452 1330q16 85 67 125.5t143 40.5 q93 0 129 -40t19 -126t-68 -126t-144 -40q-92 0 -127 40.5t-19 125.5zM1002 1330q17 86 68 126t144 40q92 0 127 -40.5t19 -125.5t-67 -125.5t-143 -40.5q-93 0 -129 40t-19 126z" />
<glyph unicode="&#x152;" horiz-adv-x="2378" d="M2159 0h-1153q-532 0 -754.5 177.5t-155.5 522.5q135 700 1182 700h1134q16 0 25.5 -11.5t6.5 -28.5l-51 -260q-3 -17 -17 -28.5t-30 -11.5h-560l-37 -186h513q16 0 25.5 -12t6.5 -28l-51 -260q-3 -16 -17 -28t-30 -12h-513l-37 -194h579q16 0 25 -11.5t6 -28.5l-51 -260 q-3 -17 -16.5 -28.5t-29.5 -11.5zM644 700q-34 -175 72.5 -256.5t337.5 -81.5h66l131 676h-66q-476 0 -541 -338z" />
<glyph unicode="&#x153;" horiz-adv-x="2242" d="M667 264q168 0 217 254q50 254 -118 254t-218 -254q-49 -254 119 -254zM1432 640h98q132 0 193 19.5t69 64.5q6 32 -16.5 49t-70.5 17q-196 0 -273 -150zM1952 266q18 5 30.5 -4.5t10.5 -27.5l-18 -178q-1 -13 -11 -24t-24 -15q-160 -41 -383 -41q-349 0 -478 188 q-95 -95 -218 -141.5t-298 -46.5q-290 0 -425.5 145.5t-87.5 396.5q49 251 241.5 396.5t482.5 145.5q332 0 446 -194q241 194 570 194q227 0 350 -89.5t93 -244.5q-67 -344 -739 -344h-110q11 -80 80 -114t213 -34q145 0 275 32z" />
<glyph unicode="&#x178;" horiz-adv-x="1832" d="M1035 0h-474q-16 0 -25.5 12t-6.5 28l98 501l-421 796q-11 21 4 42t41 21h447q60 0 76 -38l200 -452l376 452q32 38 92 38h447q26 0 32 -21t-13 -42l-729 -796l-98 -501q-3 -16 -16.5 -28t-29.5 -12zM670 1678q16 85 67 125.5t143 40.5q93 0 129 -40t19 -126 q-16 -85 -68 -125.5t-145 -40.5q-91 0 -126.5 40t-18.5 126zM1220 1678q17 86 68 126t144 40q92 0 127 -40.5t19 -125.5t-67.5 -125.5t-143.5 -40.5q-93 0 -128.5 40t-18.5 126z" />
<glyph unicode="&#x2c6;" horiz-adv-x="1080" d="M511 1460h354q13 0 27 -6t18 -15l144 -256q12 -21 -3 -42t-41 -21h-213q-26 0 -38 17l-108 133l-158 -133q-22 -17 -46 -17h-213q-26 0 -32.5 21t12.5 42l244 256q21 21 53 21z" />
<glyph unicode="&#x2dc;" horiz-adv-x="1080" d="M684 1158q-71 34 -124 34q-76 0 -103 -40q-14 -22 -30 -22h-134q-17 0 -26.5 12.5t-5.5 29.5q37 139 111 208.5t175 69.5q79 0 140 -30q69 -34 123 -34q76 0 103 40q14 22 30 22h134q17 0 26.5 -12.5t5.5 -29.5q-37 -139 -111 -208.5t-175 -69.5q-79 0 -139 30z" />
<glyph unicode="&#x2000;" horiz-adv-x="972" />
<glyph unicode="&#x2001;" horiz-adv-x="1944" />
<glyph unicode="&#x2002;" horiz-adv-x="972" />
<glyph unicode="&#x2003;" horiz-adv-x="1944" />
<glyph unicode="&#x2004;" horiz-adv-x="648" />
<glyph unicode="&#x2005;" horiz-adv-x="486" />
<glyph unicode="&#x2006;" horiz-adv-x="324" />
<glyph unicode="&#x2007;" horiz-adv-x="324" />
<glyph unicode="&#x2008;" horiz-adv-x="243" />
<glyph unicode="&#x2009;" horiz-adv-x="388" />
<glyph unicode="&#x200a;" horiz-adv-x="108" />
<glyph unicode="&#x2010;" horiz-adv-x="828" d="M701 504h-590q-16 0 -25 11.5t-6 27.5l47 242q3 16 16.5 27.5t30.5 11.5h590q16 0 25 -11.5t6 -27.5l-47 -242q-3 -16 -17 -27.5t-30 -11.5z" />
<glyph unicode="&#x2011;" horiz-adv-x="828" d="M701 504h-590q-16 0 -25 11.5t-6 27.5l47 242q3 16 16.5 27.5t30.5 11.5h590q16 0 25 -11.5t6 -27.5l-47 -242q-3 -16 -17 -27.5t-30 -11.5z" />
<glyph unicode="&#x2012;" horiz-adv-x="828" d="M701 504h-590q-16 0 -25 11.5t-6 27.5l47 242q3 16 16.5 27.5t30.5 11.5h590q16 0 25 -11.5t6 -27.5l-47 -242q-3 -16 -17 -27.5t-30 -11.5z" />
<glyph unicode="&#x2013;" horiz-adv-x="1000" d="M955 514h-923q-16 0 -24.5 11.5t-5.5 27.5l43 222q3 16 16.5 27.5t29.5 11.5h923q16 0 25 -11.5t6 -27.5l-43 -222q-3 -16 -17 -27.5t-30 -11.5z" />
<glyph unicode="&#x2014;" horiz-adv-x="2000" d="M1955 514h-1923q-16 0 -24.5 11.5t-5.5 27.5l43 222q3 16 16.5 27.5t29.5 11.5h1923q16 0 25 -11.5t6 -27.5l-43 -222q-3 -16 -17 -27.5t-30 -11.5z" />
<glyph unicode="&#x2018;" horiz-adv-x="744" d="M642 1527q14 7 27.5 4t20.5 -16l43 -89q6 -12 -0.5 -28.5t-20.5 -25.5q-48 -34 -86 -79.5t-54 -90.5q163 -24 127 -212q-22 -111 -89.5 -164.5t-186.5 -53.5t-166.5 53.5t-25.5 164.5q35 179 139.5 314.5t271.5 222.5z" />
<glyph unicode="&#x2019;" horiz-adv-x="744" d="M344 789q-14 -7 -27.5 -4t-20.5 16l-43 89q-5 12 1.5 28.5t19.5 25.5q106 76 140 170q-163 24 -127 212q22 111 90 164.5t187 53.5t166 -53.5t25 -164.5q-35 -179 -139.5 -314.5t-271.5 -222.5z" />
<glyph unicode="&#x201a;" horiz-adv-x="744" d="M124 -343q-14 -7 -27.5 -4t-20.5 16l-43 89q-5 12 1.5 28.5t19.5 25.5q106 76 140 170q-163 24 -127 212q22 111 90 164.5t187 53.5t166 -53.5t25 -164.5q-35 -179 -139.5 -314.5t-271.5 -222.5z" />
<glyph unicode="&#x201c;" horiz-adv-x="1326" d="M1224 1527q14 7 27.5 4t20.5 -16l43 -89q6 -12 -0.5 -28.5t-20.5 -25.5q-48 -34 -86 -79.5t-54 -90.5q163 -24 127 -212q-22 -111 -89.5 -164.5t-186.5 -53.5t-166.5 53.5t-25.5 164.5q35 179 139.5 314.5t271.5 222.5zM642 1527q14 7 27.5 4t20.5 -16l43 -89 q6 -12 -0.5 -28.5t-20.5 -25.5q-48 -34 -86 -79.5t-54 -90.5q163 -24 127 -212q-22 -111 -89.5 -164.5t-186.5 -53.5t-166.5 53.5t-25.5 164.5q35 179 139.5 314.5t271.5 222.5z" />
<glyph unicode="&#x201d;" horiz-adv-x="1326" d="M926 789q-14 -7 -27.5 -4t-20.5 16l-43 89q-5 12 1.5 28.5t19.5 25.5q106 76 140 170q-163 24 -127 212q22 111 90 164.5t187 53.5t166 -53.5t25 -164.5q-35 -179 -139.5 -314.5t-271.5 -222.5zM344 789q-14 -7 -27.5 -4t-20.5 16l-43 89q-5 12 1.5 28.5t19.5 25.5 q106 76 140 170q-163 24 -127 212q22 111 90 164.5t187 53.5t166 -53.5t25 -164.5q-35 -179 -139.5 -314.5t-271.5 -222.5z" />
<glyph unicode="&#x201e;" horiz-adv-x="1326" d="M706 -343q-14 -7 -27.5 -4t-20.5 16l-43 89q-5 12 1.5 28.5t19.5 25.5q106 76 140 170q-163 24 -127 212q22 111 90 164.5t187 53.5t166 -53.5t25 -164.5q-35 -179 -139.5 -314.5t-271.5 -222.5zM124 -343q-14 -7 -27.5 -4t-20.5 16l-43 89q-5 12 1.5 28.5t19.5 25.5 q106 76 140 170q-163 24 -127 212q22 111 90 164.5t187 53.5t166 -53.5t25 -164.5q-35 -179 -139.5 -314.5t-271.5 -222.5z" />
<glyph unicode="&#x2022;" horiz-adv-x="1036" d="M548 352q-153 0 -235.5 82t-82.5 230t82.5 230t235.5 82t235.5 -82t82.5 -230t-82.5 -230t-235.5 -82z" />
<glyph unicode="&#x2026;" horiz-adv-x="2232" d="M267 -24q-119 0 -166.5 53.5t-25.5 164.5t90 164.5t187 53.5t166 -53.5t25 -164.5t-89.5 -164.5t-186.5 -53.5zM1755 -24q-119 0 -166.5 53.5t-25.5 164.5t90 164.5t187 53.5t166 -53.5t25 -164.5t-89.5 -164.5t-186.5 -53.5zM1011 -24q-119 0 -166.5 53.5t-25.5 164.5 t90 164.5t187 53.5t166 -53.5t25 -164.5t-89.5 -164.5t-186.5 -53.5z" />
<glyph unicode="&#x202f;" horiz-adv-x="388" />
<glyph unicode="&#x2039;" horiz-adv-x="624" d="M96 508l45 232q7 30 38 55l414 325q23 19 44.5 9t16.5 -38l-51 -261q-5 -19 -19 -29l-231 -177l162 -177q10 -10 8 -29l-51 -261q-5 -28 -30.5 -38t-41.5 9l-287 325q-22 24 -17 55z" />
<glyph unicode="&#x203a;" horiz-adv-x="624" d="M556 740l-45 -232q-5 -28 -37 -55l-415 -325q-23 -19 -44 -9t-16 38l51 261q1 6 7 15.5t11 13.5l232 177l-163 177q-11 11 -7 29l51 261q5 28 30 38t41 -9l288 -325q22 -26 16 -55z" />
<glyph unicode="&#x205f;" horiz-adv-x="486" />
<glyph unicode="&#x20ac;" horiz-adv-x="1644" d="M743 644h545q21 0 30 -14t0 -33l-29 -60q-5 -12 -18.5 -20.5t-25.5 -8.5h-487q42 -95 146.5 -133.5t264.5 -38.5q173 0 315 46q20 7 33 -3.5t11 -30.5l-26 -268q-1 -12 -13 -24t-25 -16q-214 -64 -494 -64q-361 0 -568.5 134t-225.5 398h-103q-16 0 -25 11.5t-6 27.5 l11 58q3 16 17 27.5t30 11.5h83q7 44 9 56q2 14 12 56h-83q-16 0 -25 11t-6 27l11 59q3 16 17 27.5t30 11.5h105q106 255 367.5 393.5t632.5 138.5q267 0 458 -68q12 -5 17.5 -16t1.5 -23l-77 -266q-6 -19 -23.5 -29t-35.5 -4q-124 46 -293 46q-331 0 -473 -172h582 q21 0 30 -14t0 -33l-29 -60q-5 -12 -18.5 -20.5t-25.5 -8.5h-603q-13 -41 -15 -56q-4 -18 -6 -56z" />
<glyph unicode="&#x2122;" horiz-adv-x="1568" d="M228 777v443h-149q-16 0 -27.5 11.5t-11.5 27.5v103q0 16 11.5 27t27.5 11h518q16 0 27.5 -11t11.5 -27v-103q0 -16 -11.5 -27.5t-27.5 -11.5h-149v-443q0 -16 -11.5 -27.5t-27.5 -11.5h-142q-16 0 -27.5 11.5t-11.5 27.5zM1178 930h-136q-7 0 -17.5 6t-14.5 12l-108 165 v-336q0 -16 -11.5 -27.5t-27.5 -11.5h-142q-16 0 -27.5 11.5t-11.5 27.5v585q0 16 11.5 27t27.5 11h194q20 0 33 -17l162 -247l162 247q13 17 33 17h194q16 0 27.5 -11t11.5 -27v-585q0 -16 -11.5 -27.5t-27.5 -11.5h-142q-16 0 -27.5 11.5t-11.5 27.5v336l-108 -165 q-4 -6 -14.5 -12t-17.5 -6z" />
<glyph unicode="&#x25fc;" horiz-adv-x="1035" d="M0 1035h1035v-1035h-1035v1035z" />
</font>
</defs>
</svg>
