<?xml version="1.0" standalone="no"?>
<!DOCTYPE svg PUBLIC "-//W3C//DTD SVG 1.1//EN" "http://www.w3.org/Graphics/SVG/1.1/DTD/svg11.dtd" >
<svg xmlns="http://www.w3.org/2000/svg">
<metadata></metadata>
<defs>
<font id="core_sans_nr_sc_97_cn_blackIt" horiz-adv-x="1088" >
<font-face units-per-em="2000" ascent="1600" descent="-400" />
<missing-glyph horiz-adv-x="450" />
<glyph horiz-adv-x="666" />
<glyph horiz-adv-x="0" />
<glyph horiz-adv-x="0" />
<glyph unicode="&#xd;" horiz-adv-x="266" />
<glyph unicode=" "  horiz-adv-x="450" />
<glyph unicode="&#x09;" horiz-adv-x="450" />
<glyph unicode="&#xa0;" horiz-adv-x="450" />
<glyph unicode="!" horiz-adv-x="660" d="M478 480h-310q-15 0 -23.5 10t-6.5 25l79 594l49 254q3 15 16.5 26t29.5 11h380q16 0 24.5 -11t5.5 -26l-49 -254l-151 -594q-4 -15 -16.5 -25t-27.5 -10zM33 170q19 100 83.5 147t183.5 47t165.5 -47t27.5 -147q-20 -100 -84.5 -147t-183.5 -47t-165.5 47t-26.5 147z " />
<glyph unicode="&#x22;" horiz-adv-x="1134" d="M206 782l90 578q2 16 15 28t30 12h324q16 0 24 -11t5 -26l-7 -40l-153 -543q-4 -14 -17 -24t-26 -10h-255q-15 0 -23.5 11t-6.5 25zM680 782l90 578q2 16 15 28t30 12h324q16 0 24 -11t5 -26l-7 -40l-153 -543q-4 -14 -17 -24t-26 -10h-255q-15 0 -23.5 11t-6.5 25z" />
<glyph unicode="#" horiz-adv-x="1252" d="M1293 1358l-65 -204h100q16 0 25 -10.5t6 -26.5l-48 -246q-3 -16 -16 -26.5t-29 -10.5h-141l-82 -254h101q16 0 25 -10.5t6 -26.5l-48 -246q-3 -16 -16 -26.5t-29 -10.5h-141l-73 -228q-5 -13 -18 -22.5t-26 -9.5h-295q-17 0 -26 12.5t-3 29.5l69 218h-99l-73 -228 q-5 -13 -18 -22.5t-26 -9.5h-295q-17 0 -26 12.5t-3 29.5l69 218h-101q-15 0 -24 10.5t-6 26.5l48 246q3 16 16 26.5t28 10.5h142l82 254h-102q-15 0 -24 10.5t-6 26.5l48 246q3 16 16 26.5t28 10.5h142l69 214q5 13 18.5 22.5t26.5 9.5h295q17 0 25.5 -12.5t2.5 -29.5 l-65 -204h99l69 214q5 13 18.5 22.5t26.5 9.5h295q17 0 25.5 -12.5t2.5 -29.5zM654 834l-82 -254h100l82 254h-100z" />
<glyph unicode="$" horiz-adv-x="1064" d="M119 425q124 -97 268 -97q71 0 104 17t39 51q8 42 -23 71t-138 77q-139 62 -193.5 175t-24.5 265q71 363 437 427l36 186q3 15 16 26t28 11h146q16 0 24.5 -11t5.5 -26l-34 -175q162 -8 279 -58q30 -13 20 -47l-71 -273q-5 -20 -22 -27.5t-34 1.5q-106 54 -230 54 t-139 -74q-8 -44 22.5 -73t135.5 -75q282 -127 224 -432q-35 -181 -147 -292t-301 -140l-35 -179q-3 -15 -15.5 -26t-28.5 -11h-146q-15 0 -24 11t-6 26l33 172q-191 13 -318 73q-30 14 -21 47l77 301q6 22 23 29.5t33 -4.5z" />
<glyph unicode="%" horiz-adv-x="1626" d="M547 998q14 72 15 112.5t-7 53t-25 12.5q-25 0 -45.5 -37t-41.5 -141q-14 -72 -14.5 -112.5t7.5 -53t25 -12.5q25 0 45.5 37t40.5 141zM143 998q82 422 435 422q351 0 269 -422q-81 -422 -434 -422q-351 0 -270 422zM1255 408q14 72 14.5 112.5t-7.5 53t-25 12.5 q-25 0 -45.5 -37t-40.5 -141q-8 -44 -12 -76t-3.5 -51.5t5 -31t11 -15.5t16.5 -4q26 0 46.5 37t40.5 141zM851 408q82 422 434 422t270 -422t-434 -422t-270 422zM358 47l827 1326q18 27 52 27h83q21 0 25 -14t-9 -33l-827 -1326q-18 -27 -51 -27h-83q-21 0 -25.5 14t8.5 33 z" />
<glyph unicode="&#x26;" horiz-adv-x="1362" d="M1104 278l140 -219q12 -19 -1 -39t-38 -20h-376q-33 0 -44 17l-31 47q-62 -42 -152 -65t-187 -23q-99 0 -177.5 25t-134 75t-76.5 133t0 191q23 117 101 213t191 147q-103 135 -73 292q33 169 163.5 270.5t344.5 101.5q202 0 302.5 -96.5t67.5 -265.5 q-21 -106 -102.5 -197t-198.5 -145l81 -132q38 79 55 151q4 13 17.5 23t27.5 10h314q16 0 24.5 -11.5t4.5 -27.5q-31 -129 -96 -248.5t-147 -206.5zM743 1056q9 57 0.5 76.5t-34.5 19.5q-51 0 -69 -90q-9 -49 -3 -78t29 -54q59 39 77 126zM425 400q-11 -58 18 -95t83 -37 q50 0 84 24l-134 216q-37 -38 -51 -108z" />
<glyph unicode="'" horiz-adv-x="640" d="M196 782l90 578q2 16 15 28t30 12h324q16 0 24 -11t5 -26l-7 -40l-153 -543q-4 -14 -17 -24t-26 -10h-255q-15 0 -23.5 11t-6.5 25z" />
<glyph unicode="(" horiz-adv-x="730" d="M150 620q85 438 386 849q9 13 26 22t32 9h269q22 0 25.5 -15t-10.5 -34q-271 -395 -356 -831q-84 -432 32 -831q6 -20 -2.5 -34.5t-30.5 -14.5h-269q-15 0 -28 9t-18 22q-141 413 -56 849z" />
<glyph unicode=")" horiz-adv-x="730" d="M620 620q-85 -438 -386 -849q-9 -13 -26 -22t-32 -9h-269q-21 0 -24.5 15t10.5 34q271 397 355 831q84 432 -32 831q-6 20 2.5 34.5t30.5 14.5h269q15 0 28 -9t18 -22q141 -413 56 -849z" />
<glyph unicode="*" horiz-adv-x="1052" d="M831 324l-159 139l41 -207q4 -18 -7 -31t-30 -13h-242q-18 0 -29 13.5t-7 31.5l41 206l-160 -139q-14 -12 -30.5 -9t-26.5 19l-121 210q-9 16 -2.5 31.5t23.5 21.5l199 68l-199 69q-18 6 -24 21.5t4 32.5l121 210q9 16 26.5 18t30.5 -10l158 -139l-40 207q-4 18 7 31 t30 13h242q18 0 29 -13.5t7 -31.5l-41 -207l160 140q14 12 30.5 9t26.5 -19l121 -210q9 -16 2.5 -31.5t-23.5 -21.5l-199 -69l199 -68q18 -6 24 -21.5t-4 -32.5l-121 -210q-9 -16 -26.5 -18t-30.5 10z" />
<glyph unicode="+" horiz-adv-x="1008" d="M364 187v333h-267q-16 0 -26.5 10.5t-10.5 26.5v214q0 15 10.5 26t26.5 11h267v333q0 15 11 26t26 11h266q15 0 26 -11t11 -26v-333h266q16 0 27 -11t11 -26v-214q0 -16 -11 -26.5t-27 -10.5h-266v-333q0 -15 -11 -26t-26 -11h-266q-15 0 -26 11t-11 26z" />
<glyph unicode="," horiz-adv-x="544" d="M-15 -194q39 34 70 82t41 96q-111 32 -77 210q22 113 77.5 165.5t155.5 52.5t134.5 -53t11.5 -171q-36 -184 -121.5 -310t-225.5 -214q-17 -11 -32 -8.5t-20 18.5l-27 91q-7 25 13 41z" />
<glyph unicode="-" horiz-adv-x="672" d="M584 510h-497q-16 0 -25 11t-6 26l45 234q3 15 16.5 26t29.5 11h497q16 0 24 -11t5 -26l-45 -234q-3 -15 -15.5 -26t-28.5 -11z" />
<glyph unicode="." horiz-adv-x="544" d="M19 194q22 113 77.5 165.5t155.5 52.5t134.5 -52.5t12.5 -165.5t-77 -165.5t-155 -52.5t-135 52.5t-13 165.5z" />
<glyph unicode="/" horiz-adv-x="926" d="M-156 -174l932 1641q16 29 50 29h283q21 0 26.5 -13t-5.5 -33l-933 -1641q-16 -29 -50 -29h-282q-21 0 -26.5 13t5.5 33z" />
<glyph unicode="0" d="M86 700q72 373 230 548.5t404 175.5t336 -175.5t18 -548.5q-73 -373 -231 -548.5t-404 -175.5t-336 175.5t-17 548.5zM506 700q-21 -105 -31.5 -177.5t-13 -114.5t3 -64.5t14 -29t24.5 -6.5q26 0 44.5 22t45.5 110.5t61 259.5q20 105 30.5 177.5t13.5 114.5t-3 64.5 t-14.5 29t-24.5 6.5q-26 0 -44.5 -22t-45.5 -110.5t-60 -259.5z" />
<glyph unicode="1" d="M487 912l-166 -121q-15 -11 -30.5 -9t-22.5 16l-111 222q-5 11 -1 25.5t16 23.5l430 308q32 23 72 23h326q16 0 24.5 -11t5.5 -26l-257 -1326q-3 -15 -16 -26t-29 -11h-380q-16 0 -25 11t-6 26z" />
<glyph unicode="2" d="M61 297q199 156 357 333q78 88 116.5 155.5t55.5 152.5q16 80 -13.5 117t-102.5 37q-95 0 -196 -39q-21 -8 -35 0t-10 30l35 237q5 31 34 43q156 61 352 61q234 0 339 -120.5t63 -333.5q-22 -115 -75 -209t-136 -187q-129 -145 -276 -246h320q16 0 25 -11t6 -26l-49 -254 q-3 -15 -16 -26t-29 -11h-802q-16 0 -25 11t-6 26l42 217q4 24 26 43z" />
<glyph unicode="3" d="M124 358q98 -70 219 -70q78 0 119 29.5t54 94.5q33 172 -243 172h-20q-14 0 -23 11t-6 26l42 214q3 14 16 25.5t27 11.5h22q261 0 289 138q10 53 -15 77.5t-89 24.5q-113 0 -236 -50q-20 -8 -35 1.5t-13 30.5l30 218q4 38 38 51q175 61 376 61q232 0 339.5 -95.5 t73.5 -272.5q-46 -232 -270 -328q96 -35 137 -120.5t16 -213.5q-39 -201 -199.5 -309.5t-391.5 -108.5q-229 0 -361 58q-29 13 -19 51l64 244q6 21 24.5 30.5t34.5 -1.5z" />
<glyph unicode="4" d="M-14 269l51 264q9 47 39 92l482 748q19 27 53 27h482q15 0 23.5 -11t5.5 -26l-152 -783h70q16 0 25 -10.5t6 -26.5l-53 -274q-3 -15 -16 -26t-29 -11h-70l-38 -195q-3 -15 -16 -26t-28 -11h-361q-16 0 -25 11t-6 26l38 195h-451q-15 0 -24 11t-6 26zM611 976l-255 -396 h178z" />
<glyph unicode="5" d="M141 336q79 -48 180 -48q89 0 138.5 43t66.5 133q16 86 -19 126t-121 40q-91 0 -185 -34q-20 -8 -32.5 1t-8.5 31l142 735q3 15 16.5 26t28.5 11h750q15 0 23.5 -11t5.5 -26l-45 -234q-3 -15 -16 -26t-28 -11h-351l-41 -208q39 12 89 12q155 0 224.5 -108.5t27.5 -319.5 q-47 -242 -207.5 -367t-413.5 -125q-202 0 -333 49q-25 11 -17 41l65 241q6 23 25.5 31t35.5 -2z" />
<glyph unicode="6" d="M1079 1380q34 -12 24 -49l-59 -236q-5 -22 -24.5 -30t-35.5 2q-76 45 -178 45q-100 0 -161.5 -54t-88.5 -190q39 31 101.5 50.5t124.5 19.5q165 0 228.5 -122t19.5 -350q-45 -231 -188.5 -360.5t-380.5 -129.5q-254 0 -350 170.5t-32 497.5q80 409 258.5 594.5 t458.5 185.5q154 0 283 -44zM504 618q-14 -72 -22.5 -124.5t-11.5 -89t-2.5 -59.5t6.5 -35.5t14 -17t21 -4.5q33 0 54 37t41 141q18 96 7.5 136t-49.5 40q-19 0 -37.5 -6.5t-20.5 -17.5z" />
<glyph unicode="7" d="M93 48l523 1004h-398q-16 0 -25 11t-6 26l53 274q3 15 16.5 26t29.5 11h841q15 0 23.5 -11t5.5 -26l-42 -216q-13 -76 -40 -128l-512 -983q-17 -36 -55 -36h-387q-22 0 -30 14t3 34z" />
<glyph unicode="8" d="M720 1424q219 0 321 -100t69 -270q-19 -100 -79 -177t-145 -121q191 -113 143 -356q-37 -189 -196 -306.5t-394 -117.5t-349 117.5t-77 306.5q48 244 281 356q-68 43 -97.5 120.5t-10.5 177.5q33 170 174 270t360 100zM495 264q57 0 83 128q21 111 -25 170 q-69 -57 -91 -170q-26 -128 33 -128zM664 1136q-29 0 -45.5 -26t-28.5 -90q-17 -90 23 -148q64 59 81 148q12 64 5.5 90t-35.5 26z" />
<glyph unicode="9" d="M80 20q-34 12 -24 49l59 236q6 22 25 30t35 -2q78 -45 178 -45t162 54t88 190q-39 -31 -101.5 -50.5t-124.5 -19.5q-165 0 -228.5 122t-19.5 350q45 231 188.5 360.5t380.5 129.5q254 0 350 -170.5t32 -497.5q-79 -409 -258 -594.5t-459 -185.5q-154 0 -283 44zM656 782 q14 72 22 124.5t11.5 89t2.5 59.5t-7 35.5t-14 17t-21 4.5q-33 0 -54 -37t-41 -141q-18 -96 -7.5 -136t49.5 -40q19 0 37.5 6.5t21.5 17.5z" />
<glyph unicode=":" horiz-adv-x="544" d="M19 194q22 113 77.5 165.5t155.5 52.5t134.5 -52.5t12.5 -165.5t-77 -165.5t-155 -52.5t-135 52.5t-13 165.5zM145 842q22 113 77.5 165.5t155.5 52.5t134.5 -52.5t12.5 -165.5t-77 -165.5t-155 -52.5t-135 52.5t-13 165.5z" />
<glyph unicode=";" horiz-adv-x="544" d="M145 842q22 113 77.5 165.5t155.5 52.5t134.5 -52.5t12.5 -165.5t-77 -165.5t-155 -52.5t-135 52.5t-13 165.5zM-15 -194q39 34 70 82t41 96q-111 32 -77 210q22 113 77.5 165.5t155.5 52.5t134.5 -53t11.5 -171q-36 -184 -121.5 -310t-225.5 -214q-17 -11 -32 -8.5 t-20 18.5l-27 91q-7 25 13 41z" />
<glyph unicode="&#x3c;" horiz-adv-x="1008" d="M60 473v382q0 37 37 49l861 278q20 6 35 -3t15 -29v-260q0 -39 -35 -50l-631 -176l631 -176q35 -11 35 -50v-260q0 -20 -15 -29t-35 -3l-861 278q-37 12 -37 49z" />
<glyph unicode="=" horiz-adv-x="1008" d="M970 764h-873q-16 0 -26.5 10.5t-10.5 26.5v214q0 15 10.5 26t26.5 11h873q16 0 27 -11t11 -26v-214q0 -16 -11 -26.5t-27 -10.5zM970 276h-873q-16 0 -26.5 10.5t-10.5 26.5v214q0 15 10.5 26t26.5 11h873q16 0 27 -11t11 -26v-214q0 -16 -11 -26.5t-27 -10.5z" />
<glyph unicode="&#x3e;" horiz-adv-x="1008" d="M1008 855v-382q0 -37 -37 -49l-861 -278q-20 -6 -35 3t-15 29v260q0 39 35 50l631 176l-631 176q-35 11 -35 50v260q0 20 15 29t35 3l861 -278q37 -12 37 -49z" />
<glyph unicode="?" horiz-adv-x="946" d="M115 170q19 100 83.5 147t183.5 47t165.5 -47t27.5 -147q-20 -100 -84.5 -147t-183.5 -47t-165.5 47t-26.5 147zM209 1043q-23 -10 -37.5 -2.5t-12.5 28.5l27 235q5 41 45 57q157 63 335 63q240 0 344.5 -96.5t67.5 -287.5q-20 -103 -91.5 -196t-177.5 -168 q-56 -39 -74 -132l-8 -41q-3 -15 -15.5 -26t-28.5 -11h-362q-15 0 -24 11t-6 26l13 65q20 102 70.5 177t152.5 147q37 26 56 51.5t26 60.5q8 43 -15 65.5t-80 22.5q-93 0 -205 -49z" />
<glyph unicode="@" horiz-adv-x="1494" d="M1171 893q25 -47 6 -105l-125 -362q-23 -72 -13.5 -112t46.5 -40q43 0 85.5 74t75.5 242q59 301 -35.5 475.5t-311.5 174.5q-98 0 -194.5 -43.5t-182.5 -126t-153.5 -217t-100.5 -303.5q-62 -320 38.5 -505t327.5 -185q206 0 352 114q12 9 23.5 11.5t20.5 -3.5t11 -20 l22 -109q5 -28 -21 -46q-188 -131 -455 -131q-143 0 -258 57t-190.5 168t-99 274t16.5 375q34 173 101.5 318.5t154 246.5t191 172t213 104t218.5 33q155 0 272 -59.5t183.5 -168.5t86.5 -263t-18 -343q-44 -229 -154.5 -361.5t-275.5 -132.5q-64 0 -114 31.5t-67 86.5 q-106 -116 -276 -116q-79 0 -134.5 30.5t-81 82.5t-33 121.5t10.5 147.5q47 239 212 403.5t348 164.5q98 0 169 -41t109 -114zM689 370q42 0 71 36l121 354q-10 16 -35 16q-58 0 -116.5 -81t-83.5 -211q-23 -114 43 -114z" />
<glyph unicode="A" horiz-adv-x="1240" d="M727 1066l-169 -486h148zM510 1400h564q40 0 42 -39l32 -1315q2 -46 -45 -46h-379q-43 0 -41 41l9 211h-248l-73 -211q-14 -41 -55 -41h-379q-46 0 -29 46l544 1315q17 39 58 39z" />
<glyph unicode="B" horiz-adv-x="1166" d="M481 288h92q41 0 71.5 36.5t44.5 107.5q15 73 -1.5 109.5t-57.5 36.5h-92zM728 1112h-86l-49 -250h86q75 0 101 126q23 124 -52 124zM302 1400h474q244 0 351.5 -94.5t70.5 -283.5q-39 -199 -204 -278q83 -35 119 -123.5t16 -192.5q-83 -428 -607 -428h-492q-16 0 -25 11 t-6 27l257 1324q3 16 16.5 27t29.5 11z" />
<glyph unicode="C" horiz-adv-x="1086" d="M964 370q23 10 38 1.5t12 -31.5l-35 -262q-6 -38 -40 -50q-143 -52 -326 -52q-324 0 -459 189.5t-68 534.5t274.5 534.5t529.5 189.5q180 0 305 -54q28 -11 18 -44l-67 -265q-6 -22 -24.5 -31t-37.5 1q-81 41 -190 41q-135 0 -223.5 -93.5t-124.5 -278.5 q-37 -185 16.5 -278.5t190.5 -93.5q112 0 211 42z" />
<glyph unicode="D" horiz-adv-x="1226" d="M489 328h66q50 0 85.5 29t69 112.5t62.5 230.5q31 148 28 230.5t-26.5 112t-73.5 29.5h-66zM300 1400h478q293 0 397.5 -173.5t36.5 -524.5q-69 -354 -240.5 -528t-465.5 -174h-478q-16 0 -25 11t-6 27l257 1324q3 16 16.5 27t29.5 11z" />
<glyph unicode="E" horiz-adv-x="1058" d="M-3 38l257 1324q3 16 16.5 27t29.5 11h832q16 0 24.5 -11t5.5 -27l-49 -253q-3 -15 -16 -26t-29 -11h-414l-40 -204h382q16 0 25 -11t6 -26l-49 -253q-3 -16 -16.5 -27t-29.5 -11h-382l-41 -212h424q15 0 24.5 -11t6.5 -26l-49 -253q-3 -16 -16.5 -27t-28.5 -11h-842 q-16 0 -25 11t-6 27z" />
<glyph unicode="F" horiz-adv-x="1008" d="M-3 38l257 1324q3 16 16.5 27t29.5 11h832q16 0 24.5 -11t5.5 -27l-49 -253q-3 -15 -16 -26t-29 -11h-414l-40 -206h382q16 0 25 -11t5 -27l-49 -253q-3 -16 -16 -26.5t-29 -10.5h-382l-97 -500q-3 -16 -16 -27t-29 -11h-380q-16 0 -25 11t-6 27z" />
<glyph unicode="G" horiz-adv-x="1262" d="M1290 1354q30 -15 19 -58l-58 -236q-7 -23 -26 -31.5t-36 2.5q-108 61 -241 61q-327 0 -402 -392q-38 -195 7 -293.5t150 -98.5q32 0 50 10l44 226h-108q-16 0 -24.5 11t-5.5 27l37 192q3 16 16 27t29 11h460q15 0 24.5 -11t6.5 -27l-127 -653q-5 -26 -17 -40t-36 -25 q-168 -80 -413 -80q-332 0 -476 191t-77 533q66 340 284.5 532t559.5 192q222 0 360 -70z" />
<glyph unicode="H" horiz-adv-x="1286" d="M-3 38l257 1324q3 16 16.5 27t29.5 11h380q16 0 24.5 -11t5.5 -27l-87 -448h194l87 448q3 16 16.5 27t29.5 11h381q15 0 23.5 -11t5.5 -27l-257 -1324q-3 -16 -16 -27t-28 -11h-381q-16 0 -25 11t-6 27l103 528h-194l-103 -528q-3 -16 -16 -27t-29 -11h-380q-16 0 -25 11 t-6 27z" />
<glyph unicode="I" horiz-adv-x="656" d="M310 1400h380q16 0 24.5 -11t5.5 -27l-257 -1324q-3 -16 -16 -27t-29 -11h-380q-16 0 -25 11t-6 27l257 1324q3 16 16.5 27t29.5 11z" />
<glyph unicode="J" horiz-adv-x="934" d="M55 369q68 -41 146 -41q151 0 182 164l169 870q3 16 16.5 27t29.5 11h380q16 0 24.5 -11t5.5 -27l-168 -868q-51 -262 -198 -390t-403 -128q-173 0 -285 46q-37 15 -24 64l66 252q5 21 23 31t36 0z" />
<glyph unicode="K" horiz-adv-x="1260" d="M997 748l170 -694q6 -23 -6.5 -38.5t-37.5 -15.5h-404q-46 0 -52 35l-90 641l-124 -638q-3 -16 -16 -27t-29 -11h-381q-15 0 -24 11t-6 27l257 1324q3 16 16.5 27t28.5 11h381q16 0 24.5 -11t5.5 -27l-101 -522l286 525q18 35 65 35h384q25 0 31 -15.5t-8 -38.5z" />
<glyph unicode="L" horiz-adv-x="1034" d="M-3 38l257 1324q3 16 16.5 27t29.5 11h380q16 0 24.5 -11t5.5 -27l-197 -1014h440q16 0 25 -11t6 -27l-53 -272q-3 -16 -16 -27t-29 -11h-858q-16 0 -25 11t-6 27z" />
<glyph unicode="M" horiz-adv-x="1552" d="M839 404h-170q-35 0 -43 40l-79 386l-154 -792q-3 -16 -16 -27t-29 -11h-321q-15 0 -24 11t-6 27l257 1324q3 16 16.5 27t28.5 11h413q37 0 44 -34l89 -492l281 492q19 34 58 34h413q15 0 23.5 -11t5.5 -27l-257 -1324q-3 -16 -16 -27t-28 -11h-321q-16 0 -25 11t-6 27 l154 792l-229 -386q-23 -40 -59 -40z" />
<glyph unicode="N" horiz-adv-x="1314" d="M639 36l-102 640l-124 -638q-3 -16 -16.5 -27t-28.5 -11h-340q-16 0 -25 11t-6 27l257 1324q3 16 16.5 27t29.5 11h394q46 0 52 -36l102 -640l124 638q3 16 17 27t29 11h340q16 0 24.5 -11t5.5 -27l-257 -1324q-3 -16 -16 -27t-29 -11h-394q-47 0 -53 36z" />
<glyph unicode="O" horiz-adv-x="1284" d="M1270 700q-70 -358 -254 -541t-479 -183q-296 0 -408.5 183.5t-42.5 540.5q69 358 253 541t479 183t408 -183.5t44 -540.5zM546 700q-30 -154 -32 -241t19.5 -119t67.5 -32q47 0 80.5 32t66 119t62.5 241t31.5 241t-20 119t-67.5 32t-80 -32t-66 -119t-62 -241z" />
<glyph unicode="P" horiz-adv-x="1138" d="M505 408l-72 -370q-3 -16 -16.5 -27t-28.5 -11h-360q-16 0 -25 11t-6 27l257 1324q3 16 16.5 27t29.5 11h452q246 0 358 -122t63 -374q-49 -251 -209 -373.5t-405 -122.5h-54zM757 904q15 67 9 104t-21.5 50.5t-42.5 13.5h-68l-65 -336h68q42 0 72 36.5t48 131.5z" />
<glyph unicode="Q" horiz-adv-x="1284" d="M1009 -74q19 5 30.5 -4t9.5 -27l-23 -210q-5 -43 -47 -51q-92 -18 -202 -18q-202 0 -308.5 98.5t-96.5 279.5q-407 93 -286 706q69 358 253 541t479 183t408 -183.5t44 -540.5q-113 -573 -507 -692q-4 -51 28 -74.5t107 -23.5q57 0 111 16zM546 700q-30 -154 -32 -241 t19.5 -119t67.5 -32q47 0 80.5 32t66 119t62.5 241t31.5 241t-20 119t-67.5 32t-80 -32t-66 -119t-62 -241z" />
<glyph unicode="R" horiz-adv-x="1152" d="M738 938q29 154 -46 154h-54l-60 -308h54q75 0 106 154zM590 35l-74 431l-83 -428q-3 -16 -16 -27t-29 -11h-360q-16 0 -25 11t-6 27l257 1324q3 16 16.5 27t29.5 11h450q248 0 361 -112.5t67 -349.5q-52 -266 -252 -382l132 -502q5 -22 -7.5 -38t-37.5 -16h-375 q-42 0 -48 35z" />
<glyph unicode="S" horiz-adv-x="1064" d="M119 425q124 -97 268 -97q71 0 104 17t39 51q8 42 -23 71t-138 77q-139 62 -193.5 175t-24.5 265q42 218 193 329t404 111q202 0 341 -60q30 -13 20 -47l-71 -273q-5 -20 -22 -27.5t-34 1.5q-106 54 -230 54t-139 -74q-8 -44 22.5 -73t135.5 -75q282 -127 224 -432 q-42 -212 -188 -327t-398 -115q-241 0 -402 76q-30 14 -21 47l77 301q6 22 23 29.5t33 -4.5z" />
<glyph unicode="T" horiz-adv-x="1028" d="M193 38l197 1014h-238q-16 0 -25 11t-6 27l53 272q3 16 16.5 27t29.5 11h932q16 0 24.5 -11t5.5 -27l-53 -272q-3 -16 -16 -27t-29 -11h-238l-197 -1014q-3 -16 -16 -27t-29 -11h-381q-15 0 -24 11t-6 27z" />
<glyph unicode="U" horiz-adv-x="1292" d="M541 -24q-266 0 -383.5 141.5t-59.5 438.5l156 806q3 16 16.5 27t29.5 11h380q16 0 24.5 -11t5.5 -27l-163 -840q-17 -77 -11.5 -120t22.5 -58.5t51 -15.5q52 0 84.5 41.5t53.5 152.5l163 840q3 16 16.5 27t29.5 11h380q16 0 24.5 -11t5.5 -27l-156 -806 q-58 -297 -230.5 -438.5t-438.5 -141.5z" />
<glyph unicode="V" horiz-adv-x="1260" d="M638 1359l-44 -1025l356 1025q14 41 56 41h379q47 0 28 -46l-544 -1315q-17 -39 -57 -39h-564q-42 0 -43 39l-32 1315q-2 46 46 46h379q42 0 40 -41z" />
<glyph unicode="W" horiz-adv-x="1664" d="M844 1400h320q48 0 44 -45l-73 -885l269 887q14 43 59 43h326q22 0 30 -13t0 -33l-499 -1301q-20 -53 -68 -53h-370q-23 0 -34 13t-9 36l73 881l-269 -881q-14 -49 -61 -49h-370q-48 0 -48 53l7 1301q0 20 13 33t35 13h326q21 0 32 -11t9 -32l-75 -887l271 885 q14 45 62 45z" />
<glyph unicode="X" horiz-adv-x="1188" d="M601 38l-35 334l-165 -334q-19 -38 -71 -38h-384q-25 0 -31.5 16t7.5 38l386 646l-135 645q-5 24 7 39.5t36 15.5h393q44 0 48 -34l36 -338l168 338q17 34 62 34h393q24 0 29.5 -16t-8.5 -39l-385 -645l134 -646q5 -23 -7 -38.5t-37 -15.5h-384q-53 0 -57 38z" />
<glyph unicode="Y" horiz-adv-x="1216" d="M698 0h-380q-16 0 -25 11t-6 27l102 526l-202 780q-7 24 5.5 40t38.5 16h374q42 0 45 -33l41 -423l205 423q17 33 59 33h374q26 0 32 -16t-10 -40l-506 -780l-102 -526q-3 -16 -16 -27t-29 -11z" />
<glyph unicode="Z" horiz-adv-x="1016" d="M1053 1037l-524 -689h386q16 0 25 -11t6 -27l-53 -272q-3 -16 -16 -27t-29 -11h-880q-16 0 -25 11t-6 27l47 240q8 44 35 82l529 692h-358q-16 0 -25 11t-6 27l53 272q3 16 16.5 27t29.5 11h848q16 0 24.5 -11t5.5 -27l-47 -243q-10 -47 -36 -82z" />
<glyph unicode="[" horiz-adv-x="816" d="M26 -223l328 1686q3 15 16 26t28 11h562q16 0 24.5 -11t5.5 -26l-42 -214q-3 -15 -15.5 -26t-28.5 -11h-233l-230 -1184h233q16 0 24.5 -10.5t5.5 -26.5l-42 -214q-3 -15 -15.5 -26t-28.5 -11h-562q-15 0 -24 11t-6 26z" />
<glyph unicode="\" horiz-adv-x="926" d="M520 1467l295 -1641q4 -20 -7 -33t-32 -13h-283q-36 0 -40 29l-295 1641q-4 20 7 33t32 13h283q36 0 40 -29z" />
<glyph unicode="]" horiz-adv-x="816" d="M830 1463l-328 -1686q-3 -15 -16 -26t-28 -11h-561q-16 0 -24.5 11t-5.5 26l41 214q3 16 15.5 26.5t28.5 10.5h233l230 1184h-233q-16 0 -24.5 11t-5.5 26l42 214q3 15 15.5 26t28.5 11h562q15 0 24 -11t6 -26z" />
<glyph unicode="^" horiz-adv-x="1008" d="M374 1400h320q48 0 66 -42l245 -567q10 -19 2.5 -36t-35.5 -17h-258q-38 0 -51 33l-129 321l-129 -321q-13 -33 -51 -33h-258q-28 0 -35.5 17t2.5 36l245 567q18 42 66 42z" />
<glyph unicode="_" horiz-adv-x="1000" d="M-161 -315l18 90q3 15 16 26t27 11h926q15 0 24 -11t6 -26l-18 -90q-3 -15 -16 -26t-28 -11h-925q-15 0 -24 11t-6 26z" />
<glyph unicode="`" horiz-adv-x="820" d="M673 1422l89 -258q6 -17 -3.5 -30.5t-31.5 -13.5h-199q-41 0 -66 36l-150 230q-18 27 -14 47q5 27 43 27h271q46 0 61 -38z" />
<glyph unicode="a" horiz-adv-x="1104" d="M634 918h-8l-138 -430h116zM405 1190h556q42 0 42 -39v-1105q0 -46 -45 -46h-343q-43 0 -41 41l10 159h-190l-50 -159q-12 -41 -55 -41h-343q-46 0 -29 46l430 1105q15 39 58 39z" />
<glyph unicode="b" horiz-adv-x="1066" d="M448 248h70q70 0 93 120t-47 120h-70zM651 942h-68l-40 -206h68q63 0 84 104q20 102 -44 102zM248 1190h427q219 0 316.5 -80.5t66.5 -241.5q-31 -163 -186 -236q79 -33 112.5 -104t14.5 -170q-36 -185 -170.5 -271.5t-370.5 -86.5h-441q-15 0 -24 11t-6 26l217 1116 q3 15 16 26t28 11z" />
<glyph unicode="c" horiz-adv-x="990" d="M840 304q23 10 39 2t13 -29l-27 -205q-3 -34 -36 -47q-119 -49 -302 -49q-286 0 -403.5 162t-60.5 456q57 295 237 457.5t463 162.5q163 0 282 -51q27 -12 18 -46l-53 -203q-5 -21 -24 -28.5t-39 1.5q-64 29 -143 29q-122 0 -194 -80t-103 -242q-62 -320 174 -320 q86 0 159 30z" />
<glyph unicode="d" horiz-adv-x="1104" d="M452 268h48q54 0 92.5 71t74.5 255q25 126 27 199.5t-14.5 101t-52.5 27.5h-48zM249 1190h428q263 0 357.5 -147.5t36.5 -446.5q-58 -301 -210 -448.5t-415 -147.5h-428q-16 0 -25 11t-6 26l217 1116q3 15 16 26t29 11z" />
<glyph unicode="e" horiz-adv-x="950" d="M-13 37l217 1116q3 15 15.5 26t28.5 11h739q16 0 25 -11t6 -26l-42 -213q-3 -16 -16 -27t-29 -11h-336l-31 -160h310q16 0 24.5 -11t6.5 -26l-42 -213q-3 -16 -16 -27t-29 -11h-310l-33 -166h345q16 0 24.5 -11t5.5 -27l-41 -213q-3 -15 -15.5 -26t-28.5 -11h-748 q-16 0 -24.5 11t-5.5 26z" />
<glyph unicode="f" horiz-adv-x="934" d="M-13 37l217 1116q3 15 16 26t29 11h738q16 0 25 -11t6 -26l-42 -213q-3 -16 -16 -27t-29 -11h-336l-37 -190h310q16 0 25 -11t6 -26l-42 -213q-3 -16 -16 -27t-29 -11h-310l-75 -387q-3 -15 -16 -26t-28 -11h-365q-16 0 -25 11t-6 26z" />
<glyph unicode="g" horiz-adv-x="1132" d="M931 49q-156 -73 -372 -73q-294 0 -423.5 164t-72.5 454q57 291 249.5 455.5t500.5 164.5q189 0 327 -59q28 -12 18 -46l-51 -195q-5 -22 -24.5 -30t-39.5 3q-84 45 -196 45q-135 0 -220.5 -80t-119.5 -258q-31 -172 0 -254t117 -82q30 0 47 6l36 186h-81q-16 0 -24.5 11 t-5.5 26l34 174q3 15 15.5 26t28.5 11h385q16 0 25 -11t6 -26l-106 -547q-6 -27 -17.5 -40.5t-35.5 -24.5z" />
<glyph unicode="h" horiz-adv-x="1156" d="M-13 37l217 1116q3 15 15.5 26t28.5 11h366q15 0 24 -11t6 -26l-70 -359h116l70 359q3 15 16 26t29 11h364q16 0 25 -11t6 -26l-217 -1116q-3 -15 -16 -26t-29 -11h-364q-16 0 -25 11t-6 26l83 429h-116l-83 -429q-3 -15 -16 -26t-28 -11h-366q-16 0 -24.5 11t-5.5 26z " />
<glyph unicode="i" horiz-adv-x="620" d="M258 1190h366q15 0 24 -11t6 -26l-217 -1116q-3 -15 -16 -26t-28 -11h-366q-16 0 -24.5 11t-5.5 26l217 1116q3 15 15.5 26t28.5 11z" />
<glyph unicode="j" horiz-adv-x="852" d="M46 337q56 -29 131 -29q60 0 93.5 32.5t48.5 107.5l137 705q3 15 16 26t29 11h364q16 0 25 -11t6 -26l-144 -737q-43 -222 -174.5 -331t-362.5 -109q-157 0 -262 43q-19 8 -24.5 21t1.5 43l57 223q5 21 23 31t36 0z" />
<glyph unicode="k" horiz-adv-x="1132" d="M577 35l-67 533l-103 -531q-3 -15 -15.5 -26t-28.5 -11h-345q-16 0 -25 11t-6 26l217 1116q3 15 16 26t29 11h345q16 0 24.5 -11t5.5 -26l-85 -433l229 435q18 35 65 35h346q25 0 31 -15t-8 -39l-271 -500l101 -582q5 -24 -7 -39t-37 -15h-359q-47 0 -52 35z" />
<glyph unicode="l" horiz-adv-x="946" d="M-13 37l217 1116q3 15 16 26t28 11h365q16 0 25 -11t6 -26l-161 -825h369q15 0 24 -11t6 -26l-49 -254q-3 -15 -16 -26t-28 -11h-772q-15 0 -24 11t-6 26z" />
<glyph unicode="m" horiz-adv-x="1380" d="M707 344h-102q-35 0 -43 40l-66 318l-129 -665q-3 -15 -16 -26t-28 -11h-305q-16 0 -25 11t-6 26l217 1116q3 15 16 26t29 11h353q38 0 44 -34l88 -412l248 412q21 34 58 34h353q16 0 25 -11t6 -26l-217 -1116q-3 -15 -16 -26t-29 -11h-305q-15 0 -24 11t-6 26l129 665 l-190 -318q-23 -40 -59 -40z" />
<glyph unicode="n" horiz-adv-x="1176" d="M727 574l113 579q3 15 16 26t29 11h305q15 0 24 -11t6 -26l-217 -1116q-3 -15 -16 -26t-28 -11h-346q-47 0 -53 36l-81 580l-112 -579q-3 -15 -16 -26t-29 -11h-305q-15 0 -24 11t-6 26l217 1116q3 15 16 26t28 11h346q46 0 52 -36z" />
<glyph unicode="o" horiz-adv-x="1156" d="M1123 594q-59 -304 -222.5 -461t-427.5 -157t-366.5 157t-43.5 461q59 305 222.5 462.5t427.5 157.5t366.5 -157.5t43.5 -462.5zM497 594q-25 -130 -28 -202.5t12 -98t49 -25.5q51 0 86.5 67.5t72.5 258.5q25 131 28.5 204t-11.5 98.5t-49 25.5t-59 -25.5t-50.5 -98.5 t-50.5 -204z" />
<glyph unicode="p" horiz-adv-x="1034" d="M467 346l-60 -309q-3 -15 -16 -26t-28 -11h-345q-16 0 -25 11t-6 26l217 1116q3 15 16 26t29 11h404q222 0 324.5 -104t61.5 -318q-42 -213 -185 -317.5t-365 -104.5h-22zM675 768q15 87 4.5 120.5t-46.5 33.5h-54l-60 -308h54q36 0 60.5 35t41.5 119z" />
<glyph unicode="q" horiz-adv-x="1156" d="M497 594q-25 -130 -28 -202.5t12 -98t49 -25.5q51 0 86.5 67.5t72.5 258.5q25 131 28.5 204t-11.5 98.5t-49 25.5t-59 -25.5t-50.5 -98.5t-50.5 -204zM871 -308q-85 -18 -193 -18q-174 0 -270 83.5t-92 236.5q-352 87 -253 600q59 305 222.5 462.5t427.5 157.5 t366.5 -157.5t43.5 -462.5q-95 -485 -447 -590q1 -70 111 -70q59 0 111 16q19 6 30.5 -3.5t9.5 -27.5l-19 -176q-6 -42 -48 -51z" />
<glyph unicode="r" horiz-adv-x="1054" d="M665 768q15 87 4.5 120.5t-46.5 33.5h-54l-60 -308h54q36 0 60.5 35t41.5 119zM512 35l-50 337l-65 -335q-3 -15 -15.5 -26t-28.5 -11h-336q-15 0 -24 11t-6 26l217 1116q3 15 16 26t28 11h401q227 0 329 -105t63 -307q-41 -212 -197 -322l93 -402q5 -22 -7.5 -38 t-37.5 -16h-332q-42 0 -48 35z" />
<glyph unicode="s" horiz-adv-x="960" d="M108 358q99 -70 221 -70q104 0 116 58q7 35 -17 57.5t-105 58.5q-125 56 -176 153t-27 223q36 185 171 280.5t364 95.5q182 0 312 -55q28 -12 18 -46l-58 -222q-6 -22 -24.5 -30.5t-39.5 1.5q-85 40 -186 40q-49 0 -78 -17.5t-34 -44.5q-7 -33 19.5 -59t99.5 -59 q122 -56 176 -151t30 -217q-35 -182 -165.5 -280t-359.5 -98q-216 0 -364 71q-27 13 -19 45l63 238q5 23 24.5 32t38.5 -4z" />
<glyph unicode="t" horiz-adv-x="952" d="M163 37l160 825h-198q-16 0 -25 11t-6 26l50 254q3 15 16 26t29 11h836q16 0 25 -11t6 -26l-50 -254q-3 -15 -16 -26t-29 -11h-198l-160 -825q-3 -15 -16 -26t-29 -11h-364q-16 0 -25 11t-6 26z" />
<glyph unicode="u" horiz-adv-x="1160" d="M625 440l139 713q3 15 16 26t28 11h366q15 0 24 -11t6 -26l-134 -685q-49 -252 -202.5 -372t-392.5 -120t-346.5 120t-58.5 372l134 685q3 15 16 26t28 11h366q15 0 24 -11t6 -26l-139 -713q-17 -99 -9.5 -127.5t39.5 -28.5t51.5 31t38.5 125z" />
<glyph unicode="v" horiz-adv-x="1144" d="M588 1149l-68 -877h8l274 877q12 41 56 41h351q45 0 28 -46l-430 -1105q-15 -39 -57 -39h-556q-43 0 -43 39v1105q0 46 46 46h351q43 0 40 -41z" />
<glyph unicode="w" horiz-adv-x="1504" d="M818 846h-4l-211 -797q-13 -49 -61 -49h-370q-49 0 -48 53l26 1091q0 20 13 33t35 13h314q22 0 33 -11t8 -32l-101 -803h4l215 801q12 45 62 45h300q50 0 44 -45l-97 -801h4l211 803q12 43 59 43h314q22 0 30 -13t0 -33l-398 -1091q-19 -53 -68 -53h-370q-23 0 -34.5 13 t-8.5 36z" />
<glyph unicode="x" horiz-adv-x="1104" d="M536 34l-16 318l-140 -318q-15 -34 -61 -34h-357q-24 0 -29.5 16t7.5 39l307 549l-87 531q-4 24 7.5 39.5t35.5 15.5h357q47 0 48 -34l10 -300l126 300q14 34 62 34h357q23 0 28.5 -16t-7.5 -39l-293 -531l93 -549q4 -24 -7.5 -39.5t-34.5 -15.5h-357q-46 0 -49 34z" />
<glyph unicode="y" horiz-adv-x="1124" d="M616 794l151 363q14 33 59 33h351q26 0 32 -16t-10 -40l-424 -654l-86 -443q-3 -15 -16 -26t-28 -11h-365q-16 0 -25 11t-6 26l86 443l-170 654q-7 24 5.5 40t38.5 16h351q45 0 45 -33z" />
<glyph unicode="z" horiz-adv-x="944" d="M23 329l446 553h-307q-16 0 -24.5 11t-5.5 27l46 233q3 15 15.5 26t28.5 11h764q16 0 24.5 -11t5.5 -26l-41 -210q-11 -52 -36 -82l-446 -553h333q16 0 24.5 -11t5.5 -27l-45 -233q-3 -15 -15.5 -26t-28.5 -11h-790q-16 0 -24.5 11t-5.5 26l41 210q9 49 35 82z" />
<glyph unicode="{" horiz-adv-x="808" d="M88 506l44 228q6 34 35 42q53 15 89.5 60t49.5 114l58 298q24 124 114 188t221 64h253q15 0 24 -11t6 -26l-42 -214q-3 -15 -16 -26t-28 -11h-99q-75 0 -89 -78l-47 -240q-43 -223 -277 -274q214 -52 171 -274l-47 -240q-8 -41 6 -59.5t53 -18.5h99q15 0 24 -11t6 -26 l-42 -214q-3 -15 -16 -26t-28 -11h-253q-131 0 -196 64t-41 188l58 298q13 68 -5.5 113.5t-65.5 60.5q-25 8 -19 42z" />
<glyph unicode="|" horiz-adv-x="548" d="M160 -363v1864q0 15 10.5 26t26.5 11h214q15 0 26 -11t11 -26v-1864q0 -15 -11 -26t-26 -11h-214q-16 0 -26.5 11t-10.5 26z" />
<glyph unicode="}" horiz-adv-x="808" d="M760 734l-44 -228q-6 -34 -35 -42q-53 -15 -89.5 -60t-49.5 -114l-58 -298q-24 -124 -114 -188t-221 -64h-252q-15 0 -24 11t-6 26l41 214q3 15 16 26t28 11h99q75 0 89 78l47 240q43 223 277 274q-214 52 -171 274l47 240q8 41 -6 59.5t-53 18.5h-99q-15 0 -24 11t-6 26 l42 214q3 15 16 26t28 11h253q131 0 196 -64t41 -188l-58 -298q-13 -68 5.5 -113.5t65.5 -60.5q25 -8 19 -42z" />
<glyph unicode="~" horiz-adv-x="1008" d="M554 498q-79 62 -110 62q-22 0 -31.5 -17.5t-11.5 -70.5q-2 -36 -38 -36h-264q-16 0 -28 10.5t-11 25.5q9 224 76.5 325t189.5 101q102 0 188 -66q79 -62 110 -62q22 0 31.5 17.5t11.5 70.5q2 36 38 36h264q16 0 28 -10.5t11 -25.5q-9 -224 -76.5 -325t-189.5 -101 q-104 0 -188 66z" />
<glyph unicode="&#xa1;" horiz-adv-x="660" d="M208 686h310q15 0 23.5 -10t6.5 -25l-79 -594l-50 -254q-3 -15 -16 -26t-29 -11h-380q-16 0 -25 11t-6 26l50 254l151 594q4 15 16.5 25t27.5 10zM193 996q20 100 84.5 147t183.5 47t165.5 -47t26.5 -147t-84.5 -147t-183.5 -47t-165.5 47t-26.5 147z" />
<glyph unicode="&#xa2;" horiz-adv-x="990" d="M589 -22l-34 -175q-3 -15 -16 -26t-29 -11h-144q-16 0 -25 11t-6 26l37 188q-201 42 -279 197.5t-30 405.5q48 251 187.5 407t356.5 198l36 188q3 15 16 26t29 11h144q16 0 25 -11t6 -26l-34 -176q120 -8 216 -48q27 -12 18 -46l-53 -203q-5 -21 -24 -28.5t-39 1.5 q-64 29 -143 29q-122 0 -194 -80t-103 -242q-62 -320 174 -320q86 0 159 30q23 10 39 2t13 -29l-27 -205q-3 -34 -36 -47q-102 -41 -240 -47z" />
<glyph unicode="&#xa3;" horiz-adv-x="962" d="M-83 37l45 235q7 35 39 62q85 70 107 184l25 126h-61q-16 0 -24.5 11t-5.5 26l9 46q3 15 15.5 26t28.5 11h61l43 222q42 219 179.5 328.5t379.5 109.5q176 0 290 -51q33 -15 22 -51l-59 -232q-5 -22 -23 -31t-36 0q-64 33 -140 33q-133 0 -157 -128l-39 -200h197 q15 0 24 -11t6 -26l-9 -46q-3 -15 -16 -26t-28 -11h-197l-22 -110q-23 -125 -114 -206h440q16 0 25 -11t6 -26l-49 -254q-3 -15 -16 -26t-29 -11h-887q-16 0 -24.5 11t-5.5 26z" />
<glyph unicode="&#xa4;" horiz-adv-x="1418" d="M1229 658q0 -104 -41 -194l166 -165q11 -11 11 -25.5t-10 -25.5l-182 -192q-11 -11 -26.5 -11.5t-26.5 10.5l-183 184q-90 -33 -198 -33q-109 0 -198 33l-183 -184q-11 -11 -26.5 -10.5t-26.5 11.5l-182 192q-10 11 -10 25.5t11 25.5l165 165q-40 88 -40 194 q0 105 40 193l-165 166q-11 11 -11 25.5t10 25.5l182 192q11 11 26.5 11.5t26.5 -10.5l183 -184q93 33 198 33q104 0 198 -33l183 184q11 11 26.5 10.5t26.5 -11.5l182 -192q10 -11 10 -25.5t-11 -25.5l-166 -166q41 -90 41 -193zM845 658q0 75 -29.5 115.5t-76.5 40.5 t-76.5 -40.5t-29.5 -115.5t29.5 -115.5t76.5 -40.5t76.5 40.5t29.5 115.5z" />
<glyph unicode="&#xa5;" d="M635 0h-382q-15 0 -24 11t-6 26l51 263h-197q-15 0 -24 10.5t-6 26.5l9 46q3 15 16 26t28 11h197l27 138h-197q-15 0 -24 10.5t-6 26.5l9 46q3 15 16 26t28 11h151l-129 667q-4 23 8 39t37 16h349q20 0 32.5 -10.5t14.5 -28.5l12 -429l178 429q19 39 63 39h349 q25 0 31 -16.5t-8 -38.5l-389 -667h151q15 0 24 -11t6 -26l-9 -46q-3 -16 -16 -26.5t-28 -10.5h-197l-27 -138h197q15 0 24 -11t6 -26l-9 -46q-3 -16 -16 -26.5t-28 -10.5h-197l-51 -263q-3 -15 -16 -26t-28 -11z" />
<glyph unicode="&#xa6;" horiz-adv-x="548" d="M160 733v630q0 15 10.5 26t26.5 11h214q15 0 26 -11t11 -26v-630q0 -15 -11 -26t-26 -11h-214q-16 0 -26.5 11t-10.5 26zM160 -187v630q0 15 10.5 26t26.5 11h214q15 0 26 -11t11 -26v-630q0 -15 -11 -26t-26 -11h-214q-16 0 -26.5 11t-10.5 26z" />
<glyph unicode="&#xa7;" horiz-adv-x="992" d="M461 624q-6 -33 10.5 -57t49.5 -37q47 26 59 88q6 32 -11.5 55.5t-50.5 36.5q-46 -24 -57 -86zM109 169q101 -77 218 -77q44 0 65.5 13.5t28.5 48.5q6 30 -25 59t-110 59q-234 91 -189 322q17 89 68 159t121 113q-122 82 -89 254q27 142 143 226t329 84t343 -84 q27 -16 17 -51l-52 -191q-6 -22 -23 -30t-36 1q-96 63 -213 63q-83 0 -94 -62q-6 -30 25 -59t110 -59q232 -91 187 -322q-17 -89 -67.5 -159t-119.5 -113q58 -33 81 -100.5t6 -153.5q-27 -142 -143 -226t-329 -84q-204 0 -343 73q-27 16 -17 51l51 222q5 21 22.5 28.5 t34.5 -5.5z" />
<glyph unicode="&#xa8;" horiz-adv-x="820" d="M214 1290q17 86 61 126t122 40t106 -40t11 -126t-60.5 -126t-121.5 -40t-106.5 40t-11.5 126zM606 1290q17 86 61 126t122 40t106 -40t11 -126t-60.5 -126t-121.5 -40t-106.5 40t-11.5 126z" />
<glyph unicode="&#xa9;" horiz-adv-x="1320" d="M1274 700q0 -210 -70 -373.5t-203.5 -257t-310.5 -93.5t-310.5 93.5t-203.5 257t-70 373.5t70 373.5t203.5 257t310.5 93.5t310.5 -93.5t203.5 -257t70 -373.5zM218 700q0 -182 55 -321.5t163 -219t254 -79.5t254 79.5t163 219t55 321.5t-55 321.5t-163 219t-254 79.5 t-254 -79.5t-163 -219t-55 -321.5zM364 700q0 -214 93.5 -331t268.5 -117q98 0 161 26q32 14 31 48l-7 133q-1 23 -16 30.5t-35 -2.5q-38 -17 -92 -17q-68 0 -105 57.5t-37 172.5t37 172.5t105 57.5q49 0 88 -16q20 -10 35 -2.5t16 30.5l7 133q1 35 -31 47q-70 26 -157 26 q-175 0 -268.5 -117t-93.5 -331z" />
<glyph unicode="&#xaa;" horiz-adv-x="800" d="M544 1268l-99 -324h76l27 324h-4zM500 670l8 104h-116l-32 -104q-4 -13 -17 -22.5t-27 -9.5h-209q-19 0 -27 13.5t-1 31.5l275 687q5 12 17.5 21t25.5 9h350q13 0 22 -9t9 -21l7 -687q1 -18 -12 -31.5t-32 -13.5h-209q-14 0 -23.5 9.5t-8.5 22.5z" />
<glyph unicode="&#xab;" horiz-adv-x="922" d="M285 626l132 -160q21 -24 12 -66l-46 -239q-7 -32 -29 -38.5t-39 17.5l-229 305q-23 32 -16 74l42 214q8 41 44 74l348 305q27 24 46.5 17.5t13.5 -38.5l-47 -239q-9 -43 -38 -66zM705 626l132 -160q21 -24 12 -66l-46 -239q-7 -32 -29 -38.5t-39 17.5l-229 305 q-23 32 -16 74l42 214q8 41 44 74l348 305q27 24 46.5 17.5t13.5 -38.5l-47 -239q-9 -43 -38 -66z" />
<glyph unicode="&#xac;" horiz-adv-x="1008" d="M50 669v214q0 15 11 26t26 11h874q15 0 26 -11t11 -26v-548q0 -15 -11 -26t-26 -11h-266q-15 0 -26 11t-11 26v297h-571q-15 0 -26 11t-11 26z" />
<glyph unicode="&#xad;" horiz-adv-x="672" d="M584 510h-497q-16 0 -25 11t-6 26l45 234q3 15 16.5 26t29.5 11h497q16 0 24 -11t5 -26l-45 -234q-3 -15 -15.5 -26t-28.5 -11z" />
<glyph unicode="&#xae;" horiz-adv-x="1320" d="M1274 700q0 -210 -70 -373.5t-203.5 -257t-310.5 -93.5t-310.5 93.5t-203.5 257t-70 373.5t70 373.5t203.5 257t310.5 93.5t310.5 -93.5t203.5 -257t70 -373.5zM218 700q0 -182 55 -321.5t163 -219t254 -79.5t254 79.5t163 219t55 321.5t-55 321.5t-163 219t-254 79.5 t-254 -79.5t-163 -219t-55 -321.5zM736 844q0 47 -13.5 69.5t-34.5 22.5h-30v-182h30q48 0 48 90zM892 616l129 -284q9 -20 0 -33t-33 -13h-195q-35 0 -48 35l-87 241v-239q0 -16 -11 -26.5t-26 -10.5h-186q-16 0 -26.5 10.5t-10.5 26.5v757q0 16 10.5 27t26.5 11h253 q310 0 310 -274q0 -159 -106 -228z" />
<glyph unicode="&#xaf;" horiz-adv-x="820" d="M262 1216l28 147q3 15 16.5 26t29.5 11h493q15 0 23.5 -11t5.5 -26l-28 -147q-3 -16 -16.5 -27t-28.5 -11h-493q-16 0 -24.5 11t-5.5 27z" />
<glyph unicode="&#xb0;" horiz-adv-x="820" d="M815 1152q-22 -113 -119 -190.5t-215 -77.5q-120 0 -186 77.5t-44 190.5q23 114 119 192t216 78q119 0 185 -78t44 -192zM453 1152q-7 -35 10.5 -57.5t54.5 -22.5q36 0 63 22.5t34 57.5q7 36 -11.5 59t-54.5 23q-37 0 -62.5 -22.5t-33.5 -59.5z" />
<glyph unicode="&#xb1;" horiz-adv-x="1008" d="M364 377v283h-267q-16 0 -26.5 10.5t-10.5 26.5v214q0 15 10.5 26t26.5 11h267v283q0 15 11 26t26 11h266q15 0 26 -11t11 -26v-283h266q16 0 27 -11t11 -26v-214q0 -16 -11 -26.5t-27 -10.5h-266v-283q0 -16 -11 -26.5t-26 -10.5h-266q-15 0 -26 10.5t-11 26.5zM970 6 h-873q-16 0 -26.5 11t-10.5 27v213q0 15 10.5 26t26.5 11h873q16 0 27 -11t11 -26v-213q0 -16 -11 -27t-27 -11z" />
<glyph unicode="&#xb2;" horiz-adv-x="740" d="M130 685q114 91 216 205q51 56 76 101t36 103q10 53 -8 76.5t-66 23.5q-55 0 -117 -18q-21 -7 -32.5 1.5t-8.5 27.5l18 127q6 35 34 46q106 38 223 38q156 0 225 -80t42 -220q-26 -138 -139 -264q-88 -98 -183 -162h201q16 0 24 -11t5 -26l-27 -143q-3 -16 -16 -27 t-29 -11h-508q-15 0 -23.5 11t-5.5 27l22 115q5 31 41 60z" />
<glyph unicode="&#xb3;" horiz-adv-x="740" d="M91 489q-29 12 -20 48l35 135q6 24 22.5 31.5t35.5 -4.5q61 -37 132 -37q98 0 114 82q11 55 -27.5 82t-134.5 32h-2q-14 1 -21.5 11.5t-5.5 25.5l23 116q3 15 15 26t27 11h3q174 0 192 92q7 36 -10 52t-59 16q-65 0 -142 -28q-23 -7 -35 2t-10 31l15 118q4 36 39 48 q108 37 240 37q153 0 224 -63.5t48 -180.5q-29 -152 -176 -220q62 -22 88.5 -78.5t10.5 -141.5q-26 -135 -132 -206.5t-260 -71.5q-146 0 -229 35z" />
<glyph unicode="&#xb4;" horiz-adv-x="820" d="M310 1164l189 258q28 38 75 38h271q17 0 26 -7t7 -20q-4 -20 -32 -47l-240 -230q-38 -36 -80 -36h-199q-22 0 -26 14t9 30z" />
<glyph unicode="&#xb5;" horiz-adv-x="1380" d="M707 344h-102q-35 0 -43 40l-66 318l-129 -665q-3 -15 -16 -26t-28 -11h-305q-16 0 -25 11t-6 26l217 1116q3 15 16 26t29 11h353q38 0 44 -34l88 -412l248 412q21 34 58 34h353q16 0 25 -11t6 -26l-217 -1116q-3 -15 -16 -26t-29 -11h-305q-15 0 -24 11t-6 26l129 665 l-190 -318q-23 -40 -59 -40z" />
<glyph unicode="&#xb6;" horiz-adv-x="1206" d="M484 -225v757h-12q-186 0 -299 115t-113 319t113 319t299 115h637q15 0 26 -11t11 -26v-1588q0 -15 -11 -26t-26 -11h-230q-15 0 -26 11t-11 26v1387h-54v-1387q0 -15 -10.5 -26t-26.5 -11h-230q-16 0 -26.5 11t-10.5 26z" />
<glyph unicode="&#xb7;" horiz-adv-x="544" d="M111 666q22 113 77 165.5t155 52.5t135 -52.5t13 -165.5t-77 -165.5t-155 -52.5t-135 52.5t-13 165.5z" />
<glyph unicode="&#xb8;" horiz-adv-x="820" d="M29 -468q-31 6 -26 34l17 89q9 47 50 37q15 -4 37 -4q66 0 75 48q5 25 -9.5 41.5t-62.5 22.5q-44 5 -16 51l92 149h268l-74 -110q47 -20 68 -63.5t10 -102.5q-18 -92 -103.5 -146t-207.5 -54q-77 0 -118 8z" />
<glyph unicode="&#xb9;" horiz-adv-x="740" d="M200 1188l254 182q42 30 90 30h185q16 0 24 -11t5 -26l-166 -854q-3 -16 -15.5 -26.5t-28.5 -10.5h-230q-15 0 -24 10.5t-6 26.5l111 567l-100 -73q-15 -11 -30.5 -9t-22.5 16l-63 130q-5 11 0 25.5t17 22.5z" />
<glyph unicode="&#xba;" horiz-adv-x="800" d="M133 1018q38 194 151.5 296t288.5 102q176 0 250 -102t36 -296q-37 -194 -151 -296t-290 -102q-175 0 -248.5 102t-36.5 296zM445 1018q-16 -82 -18.5 -126t5 -57t25.5 -13q28 0 47.5 38t42.5 158q16 83 18 126.5t-5.5 56.5t-26.5 13q-27 0 -46 -38.5t-42 -157.5z" />
<glyph unicode="&#xbb;" horiz-adv-x="922" d="M485 466l194 160l-132 160q-21 24 -12 66l47 239q6 32 28 38.5t40 -17.5l228 -305q24 -32 16 -74l-42 -214q-7 -41 -44 -74l-347 -305q-28 -24 -47.5 -17.5t-12.5 38.5l46 239q9 43 38 66zM65 466l194 160l-132 160q-21 24 -12 66l47 239q6 32 28 38.5t40 -17.5l228 -305 q24 -32 16 -74l-42 -214q-7 -41 -44 -74l-347 -305q-28 -24 -47.5 -17.5t-12.5 38.5l46 239q9 43 38 66z" />
<glyph unicode="&#xbc;" horiz-adv-x="1720" d="M1417 1389l-835 -1386q-20 -33 -54 -33h-138q-41 0 -16 41l835 1386q20 33 54 33h138q43 0 16 -41zM200 1188l254 182q42 30 90 30h185q16 0 24 -11t5 -26l-166 -854q-3 -16 -15.5 -26.5t-28.5 -10.5h-230q-15 0 -24 10.5t-6 26.5l111 567l-100 -73q-15 -11 -30.5 -9 t-22.5 16l-63 130q-5 11 0 25.5t17 22.5zM923 192l31 162q6 30 25 58l313 486q21 32 55 32h296q16 0 24.5 -11t5.5 -27l-99 -508h35q15 0 24 -11t6 -26l-30 -155q-3 -16 -16.5 -27t-28.5 -11h-35l-22 -116q-3 -16 -15.5 -27t-28.5 -11h-215q-16 0 -25 11t-6 27l22 116h-287 q-16 0 -24 11t-5 27zM1335 648l-169 -264h118z" />
<glyph unicode="&#xbd;" horiz-adv-x="1720" d="M1387 1389l-835 -1386q-20 -33 -54 -33h-138q-41 0 -16 41l835 1386q20 33 54 33h138q43 0 16 -41zM200 1188l254 182q42 30 90 30h185q16 0 24 -11t5 -26l-166 -854q-3 -16 -15.5 -26.5t-28.5 -10.5h-230q-15 0 -24 10.5t-6 26.5l111 567l-100 -73q-15 -11 -30.5 -9 t-22.5 16l-63 130q-5 11 0 25.5t17 22.5zM1028 213q113 90 217 205q50 56 75 101t36 103q10 53 -8 76.5t-66 23.5q-55 0 -117 -18q-21 -7 -32.5 1.5t-8.5 27.5l19 127q4 35 34 46q104 38 222 38q156 0 225.5 -80t42.5 -220q-28 -140 -140 -264q-91 -101 -183 -162h201 q16 0 24.5 -11t5.5 -26l-28 -143q-3 -16 -15.5 -27t-28.5 -11h-508q-15 0 -24 11t-6 27l22 115q7 32 41 60z" />
<glyph unicode="&#xbe;" horiz-adv-x="1720" d="M1439 1389l-835 -1386q-20 -33 -54 -33h-138q-41 0 -16 41l835 1386q20 33 54 33h138q43 0 16 -41zM923 192l31 162q6 30 25 58l313 486q21 32 55 32h296q16 0 24.5 -11t5.5 -27l-99 -508h35q15 0 24 -11t6 -26l-30 -155q-3 -16 -16.5 -27t-28.5 -11h-35l-22 -116 q-3 -16 -15.5 -27t-28.5 -11h-215q-16 0 -25 11t-6 27l22 116h-287q-16 0 -24 11t-5 27zM1335 648l-169 -264h118zM91 489q83 -35 229 -35q154 0 260 71.5t132 206.5q16 85 -10.5 141.5t-88.5 78.5q147 68 176 220q23 117 -48 180.5t-224 63.5q-132 0 -240 -37 q-35 -12 -39 -48l-15 -118q-2 -22 10 -31t35 -2q77 28 142 28q42 0 59 -16t10 -52q-18 -92 -192 -92h-3q-15 0 -27 -11t-15 -26l-23 -116q-2 -15 5.5 -25.5t21.5 -11.5h2q96 -5 134.5 -32t27.5 -82q-16 -82 -114 -82q-71 0 -132 37q-19 12 -35.5 4.5t-22.5 -31.5l-35 -135 q-9 -36 20 -48z" />
<glyph unicode="&#xbf;" horiz-adv-x="946" d="M857 996q-20 -100 -84.5 -147t-183.5 -47t-165.5 47t-26.5 147t84.5 147t183.5 47t165.5 -47t26.5 -147zM762 123q24 10 38.5 2.5t11.5 -28.5l-26 -235q-5 -41 -45 -57q-157 -63 -336 -63q-240 0 -344 96.5t-67 287.5q20 103 91.5 196.5t177.5 167.5q56 39 73 132l8 41 q3 15 16 26t29 11h362q15 0 23.5 -11t5.5 -26l-12 -65q-20 -102 -70.5 -177t-152.5 -147q-38 -26 -56.5 -51.5t-25.5 -60.5q-8 -43 15 -65.5t80 -22.5q94 0 204 49z" />
<glyph unicode="&#xc0;" horiz-adv-x="1240" d="M727 1066l-169 -486h148zM510 1400h564q40 0 42 -39l32 -1315q2 -46 -45 -46h-379q-43 0 -41 41l9 211h-248l-73 -211q-14 -41 -55 -41h-379q-46 0 -29 46l544 1315q17 39 58 39zM878 1810l89 -258q6 -17 -3 -30.5t-31 -13.5h-199q-43 0 -66 36l-151 230q-18 27 -14 47 q6 27 44 27h271q47 0 60 -38z" />
<glyph unicode="&#xc1;" horiz-adv-x="1240" d="M727 1066l-169 -486h148zM510 1400h564q40 0 42 -39l32 -1315q2 -46 -45 -46h-379q-43 0 -41 41l9 211h-248l-73 -211q-14 -41 -55 -41h-379q-46 0 -29 46l544 1315q17 39 58 39zM673 1552l189 258q30 38 76 38h271q17 0 26 -7t6 -20q-4 -20 -32 -47l-239 -230 q-39 -36 -80 -36h-199q-22 0 -26 14t8 30z" />
<glyph unicode="&#xc2;" horiz-adv-x="1240" d="M727 1066l-169 -486h148zM510 1400h564q40 0 42 -39l32 -1315q2 -46 -45 -46h-379q-43 0 -41 41l9 211h-248l-73 -211q-14 -41 -55 -41h-379q-46 0 -29 46l544 1315q17 39 58 39zM719 1848h320q36 0 44 -29l75 -258q7 -23 -5.5 -38t-37.5 -15h-196q-33 0 -43 30l-36 110 l-80 -110q-21 -30 -53 -30h-196q-25 0 -31.5 15t8.5 38l175 258q19 29 56 29z" />
<glyph unicode="&#xc3;" horiz-adv-x="1240" d="M727 1066l-169 -486h148zM510 1400h564q40 0 42 -39l32 -1315q2 -46 -45 -46h-379q-43 0 -41 41l9 211h-248l-73 -211q-14 -41 -55 -41h-379q-46 0 -29 46l544 1315q17 39 58 39zM747 1838q57 0 118 -32q53 -28 82 -28q26 0 42 28q14 30 49 30h134q39 0 30 -36 q-34 -140 -105.5 -212t-154.5 -72q-57 0 -118 32q-53 28 -82 28q-26 0 -42 -28q-14 -30 -49 -30h-134q-39 0 -30 36q34 140 105.5 212t154.5 72z" />
<glyph unicode="&#xc4;" horiz-adv-x="1240" d="M727 1066l-169 -486h148zM510 1400h564q40 0 42 -39l32 -1315q2 -46 -45 -46h-379q-43 0 -41 41l9 211h-248l-73 -211q-14 -41 -55 -41h-379q-46 0 -29 46l544 1315q17 39 58 39zM500 1678q17 86 60.5 126t121.5 40t106.5 -40t11.5 -126t-61 -126t-122 -40t-106 40 t-11 126zM892 1678q17 86 60.5 126t121.5 40t106.5 -40t11.5 -126t-61 -126t-122 -40t-106 40t-11 126z" />
<glyph unicode="&#xc5;" horiz-adv-x="1240" d="M727 1066l-169 -486h148zM510 1400h564q40 0 42 -39l32 -1315q2 -46 -45 -46h-379q-43 0 -41 41l9 211h-248l-73 -211q-14 -41 -55 -41h-379q-46 0 -29 46l544 1315q17 39 58 39zM1106 1678q-20 -104 -109.5 -176t-199.5 -72q-109 0 -169 72t-40 176t108.5 176t197.5 72 q110 0 171 -72t41 -176zM764 1678q-7 -36 11.5 -59t54.5 -23q37 0 64.5 23t35.5 59q7 36 -12 59t-56 23q-36 0 -63.5 -23t-34.5 -59z" />
<glyph unicode="&#xc6;" horiz-adv-x="1586" d="M710 570l98 502l-210 -502h112zM325 0h-387q-21 0 -28 15t4 37l614 1306q22 42 68 42h1064q16 0 24.5 -11t5.5 -27l-49 -252q-3 -15 -16 -26.5t-29 -11.5h-344l-40 -204h310q16 0 25 -11t6 -27l-49 -252q-3 -16 -16.5 -27t-29.5 -11h-310l-41 -212h354q16 0 25 -11.5 t6 -26.5l-49 -252q-3 -16 -16 -27t-29 -11h-760q-16 0 -25 11t-6 27l40 204h-184l-88 -208q-15 -34 -50 -34z" />
<glyph unicode="&#xc7;" horiz-adv-x="1086" d="M311 -468q-31 6 -26 34l17 89q9 47 50 37q15 -4 37 -4q66 0 75 48q5 25 -9.5 41.5t-62.5 22.5q-44 5 -16 51l84 138q-242 42 -337.5 226t-36.5 485q67 345 274.5 534.5t529.5 189.5q180 0 305 -54q28 -11 18 -44l-67 -265q-6 -22 -24.5 -31t-37.5 1q-81 41 -190 41 q-135 0 -223.5 -93.5t-124.5 -278.5q-37 -185 16.5 -278.5t190.5 -93.5q112 0 211 42q23 10 38 1.5t12 -31.5l-35 -262q-6 -38 -40 -50q-97 -35 -216 -47l-61 -91q47 -20 68 -63.5t10 -102.5q-18 -92 -103.5 -146t-207.5 -54q-77 0 -118 8z" />
<glyph unicode="&#xc8;" horiz-adv-x="1058" d="M-3 38l257 1324q3 16 16.5 27t29.5 11h832q16 0 24.5 -11t5.5 -27l-49 -253q-3 -15 -16 -26t-29 -11h-414l-40 -204h382q16 0 25 -11t6 -26l-49 -253q-3 -16 -16.5 -27t-29.5 -11h-382l-41 -212h424q15 0 24.5 -11t6.5 -26l-49 -253q-3 -16 -16.5 -27t-28.5 -11h-842 q-16 0 -25 11t-6 27zM858 1810l89 -258q6 -17 -3 -30.5t-31 -13.5h-199q-43 0 -66 36l-151 230q-18 27 -14 47q6 27 44 27h271q47 0 60 -38z" />
<glyph unicode="&#xc9;" horiz-adv-x="1058" d="M-3 38l257 1324q3 16 16.5 27t29.5 11h832q16 0 24.5 -11t5.5 -27l-49 -253q-3 -15 -16 -26t-29 -11h-414l-40 -204h382q16 0 25 -11t6 -26l-49 -253q-3 -16 -16.5 -27t-29.5 -11h-382l-41 -212h424q15 0 24.5 -11t6.5 -26l-49 -253q-3 -16 -16.5 -27t-28.5 -11h-842 q-16 0 -25 11t-6 27zM569 1552l189 258q30 38 76 38h271q17 0 26 -7t6 -20q-4 -20 -32 -47l-239 -230q-39 -36 -80 -36h-199q-22 0 -26 14t8 30z" />
<glyph unicode="&#xca;" horiz-adv-x="1058" d="M-3 38l257 1324q3 16 16.5 27t29.5 11h832q16 0 24.5 -11t5.5 -27l-49 -253q-3 -15 -16 -26t-29 -11h-414l-40 -204h382q16 0 25 -11t6 -26l-49 -253q-3 -16 -16.5 -27t-29.5 -11h-382l-41 -212h424q15 0 24.5 -11t6.5 -26l-49 -253q-3 -16 -16.5 -27t-28.5 -11h-842 q-16 0 -25 11t-6 27zM643 1848h320q36 0 44 -29l75 -258q7 -23 -5.5 -38t-37.5 -15h-196q-33 0 -43 30l-36 110l-80 -110q-21 -30 -53 -30h-196q-25 0 -31.5 15t8.5 38l175 258q19 29 56 29z" />
<glyph unicode="&#xcb;" horiz-adv-x="1058" d="M-3 38l257 1324q3 16 16.5 27t29.5 11h832q16 0 24.5 -11t5.5 -27l-49 -253q-3 -15 -16 -26t-29 -11h-414l-40 -204h382q16 0 25 -11t6 -26l-49 -253q-3 -16 -16.5 -27t-29.5 -11h-382l-41 -212h424q15 0 24.5 -11t6.5 -26l-49 -253q-3 -16 -16.5 -27t-28.5 -11h-842 q-16 0 -25 11t-6 27zM416 1678q17 86 60.5 126t121.5 40t106.5 -40t11.5 -126t-61 -126t-122 -40t-106 40t-11 126zM808 1678q17 86 60.5 126t121.5 40t106.5 -40t11.5 -126t-61 -126t-122 -40t-106 40t-11 126z" />
<glyph unicode="&#xcc;" horiz-adv-x="656" d="M310 1400h380q16 0 24.5 -11t5.5 -27l-257 -1324q-3 -16 -16 -27t-29 -11h-380q-16 0 -25 11t-6 27l257 1324q3 16 16.5 27t29.5 11zM594 1810l89 -258q6 -17 -3 -30.5t-31 -13.5h-199q-43 0 -66 36l-151 230q-18 27 -14 47q6 27 44 27h271q47 0 60 -38z" />
<glyph unicode="&#xcd;" horiz-adv-x="656" d="M310 1400h380q16 0 24.5 -11t5.5 -27l-257 -1324q-3 -16 -16 -27t-29 -11h-380q-16 0 -25 11t-6 27l257 1324q3 16 16.5 27t29.5 11zM375 1552l189 258q30 38 76 38h271q17 0 26 -7t6 -20q-4 -20 -32 -47l-239 -230q-39 -36 -80 -36h-199q-22 0 -26 14t8 30z" />
<glyph unicode="&#xce;" horiz-adv-x="656" d="M310 1400h380q16 0 24.5 -11t5.5 -27l-257 -1324q-3 -16 -16 -27t-29 -11h-380q-16 0 -25 11t-6 27l257 1324q3 16 16.5 27t29.5 11zM427 1848h320q36 0 44 -29l75 -258q7 -23 -5.5 -38t-37.5 -15h-196q-33 0 -43 30l-36 110l-80 -110q-21 -30 -53 -30h-196 q-25 0 -31.5 15t8.5 38l175 258q19 29 56 29z" />
<glyph unicode="&#xcf;" horiz-adv-x="656" d="M310 1400h380q16 0 24.5 -11t5.5 -27l-257 -1324q-3 -16 -16 -27t-29 -11h-380q-16 0 -25 11t-6 27l257 1324q3 16 16.5 27t29.5 11zM208 1678q17 86 60.5 126t121.5 40t106.5 -40t11.5 -126t-61 -126t-122 -40t-106 40t-11 126zM600 1678q17 86 60.5 126t121.5 40 t106.5 -40t11.5 -126t-61 -126t-122 -40t-106 40t-11 126z" />
<glyph unicode="&#xd0;" horiz-adv-x="1236" d="M310 1400h478q293 0 397.5 -173.5t36.5 -524.5q-69 -354 -240.5 -528t-465.5 -174h-478q-16 0 -25 11t-6 27l112 578h-69q-15 0 -23.5 11t-5.5 27l18 96q3 16 16.5 27t28.5 11h69l111 574q3 16 16.5 27t29.5 11zM499 328h66q50 0 85.5 29t69 112.5t62.5 230.5 q31 148 28 230.5t-26.5 112t-73.5 29.5h-66l-55 -284h96q16 0 24.5 -11t5.5 -27l-18 -96q-3 -16 -16.5 -27t-29.5 -11h-96z" />
<glyph unicode="&#xd1;" horiz-adv-x="1314" d="M639 36l-102 640l-124 -638q-3 -16 -16.5 -27t-28.5 -11h-340q-16 0 -25 11t-6 27l257 1324q3 16 16.5 27t29.5 11h394q46 0 52 -36l102 -640l124 638q3 16 17 27t29 11h340q16 0 24.5 -11t5.5 -27l-257 -1324q-3 -16 -16 -27t-29 -11h-394q-47 0 -53 36zM785 1838 q57 0 118 -32q53 -28 82 -28q26 0 42 28q14 30 49 30h134q39 0 30 -36q-34 -140 -105.5 -212t-154.5 -72q-57 0 -118 32q-53 28 -82 28q-26 0 -42 -28q-14 -30 -49 -30h-134q-39 0 -30 36q34 140 105.5 212t154.5 72z" />
<glyph unicode="&#xd2;" horiz-adv-x="1284" d="M1270 700q-70 -358 -254 -541t-479 -183q-296 0 -408.5 183.5t-42.5 540.5q69 358 253 541t479 183t408 -183.5t44 -540.5zM546 700q-30 -154 -32 -241t19.5 -119t67.5 -32q47 0 80.5 32t66 119t62.5 241t31.5 241t-20 119t-67.5 32t-80 -32t-66 -119t-62 -241zM940 1810 l89 -258q6 -17 -3 -30.5t-31 -13.5h-199q-43 0 -66 36l-151 230q-18 27 -14 47q6 27 44 27h271q47 0 60 -38z" />
<glyph unicode="&#xd3;" horiz-adv-x="1284" d="M1270 700q-70 -358 -254 -541t-479 -183q-296 0 -408.5 183.5t-42.5 540.5q69 358 253 541t479 183t408 -183.5t44 -540.5zM546 700q-30 -154 -32 -241t19.5 -119t67.5 -32q47 0 80.5 32t66 119t62.5 241t31.5 241t-20 119t-67.5 32t-80 -32t-66 -119t-62 -241zM657 1552 l189 258q30 38 76 38h271q17 0 26 -7t6 -20q-4 -20 -32 -47l-239 -230q-39 -36 -80 -36h-199q-22 0 -26 14t8 30z" />
<glyph unicode="&#xd4;" horiz-adv-x="1284" d="M1270 700q-70 -358 -254 -541t-479 -183q-296 0 -408.5 183.5t-42.5 540.5q69 358 253 541t479 183t408 -183.5t44 -540.5zM546 700q-30 -154 -32 -241t19.5 -119t67.5 -32q47 0 80.5 32t66 119t62.5 241t31.5 241t-20 119t-67.5 32t-80 -32t-66 -119t-62 -241zM741 1848 h320q36 0 44 -29l75 -258q7 -23 -5.5 -38t-37.5 -15h-196q-33 0 -43 30l-36 110l-80 -110q-21 -30 -53 -30h-196q-25 0 -31.5 15t8.5 38l175 258q19 29 56 29z" />
<glyph unicode="&#xd5;" horiz-adv-x="1284" d="M1270 700q-70 -358 -254 -541t-479 -183q-296 0 -408.5 183.5t-42.5 540.5q69 358 253 541t479 183t408 -183.5t44 -540.5zM546 700q-30 -154 -32 -241t19.5 -119t67.5 -32q47 0 80.5 32t66 119t62.5 241t31.5 241t-20 119t-67.5 32t-80 -32t-66 -119t-62 -241zM771 1838 q57 0 118 -32q53 -28 82 -28q26 0 42 28q14 30 49 30h134q39 0 30 -36q-34 -140 -105.5 -212t-154.5 -72q-57 0 -118 32q-53 28 -82 28q-26 0 -42 -28q-14 -30 -49 -30h-134q-39 0 -30 36q34 140 105.5 212t154.5 72z" />
<glyph unicode="&#xd6;" horiz-adv-x="1284" d="M1270 700q-70 -358 -254 -541t-479 -183q-296 0 -408.5 183.5t-42.5 540.5q69 358 253 541t479 183t408 -183.5t44 -540.5zM546 700q-30 -154 -32 -241t19.5 -119t67.5 -32q47 0 80.5 32t66 119t62.5 241t31.5 241t-20 119t-67.5 32t-80 -32t-66 -119t-62 -241zM522 1678 q17 86 60.5 126t121.5 40t106.5 -40t11.5 -126t-61 -126t-122 -40t-106 40t-11 126zM914 1678q17 86 60.5 126t121.5 40t106.5 -40t11.5 -126t-61 -126t-122 -40t-106 40t-11 126z" />
<glyph unicode="&#xd7;" horiz-adv-x="1008" d="M776 663l227 -239q10 -11 10 -26t-11 -26l-195 -195q-11 -11 -26.5 -11t-26.5 11l-220 231l-220 -231q-11 -11 -26.5 -11t-26.5 11l-195 195q-11 11 -11 26t10 26l227 239l-227 239q-10 11 -10 26t11 26l195 195q11 11 26.5 11t26.5 -11l220 -232l220 232q11 11 26.5 11 t26.5 -11l195 -195q11 -11 11 -26t-10 -26z" />
<glyph unicode="&#xd8;" horiz-adv-x="1284" d="M1270 700q-70 -358 -254 -541t-479 -183q-135 0 -232 38l-119 -189q-16 -25 -40 -25h-60q-21 0 -24.5 9t9.5 29l143 227q-220 167 -128 635q69 358 253 541t479 183q134 0 231 -38l120 189q16 25 41 25h60q21 0 24 -9t-10 -29l-144 -227q221 -167 130 -635zM810 700 q12 61 24 150l-310 -490q19 -52 77 -52q47 0 80.5 32t66 119t62.5 241zM546 700q-15 -73 -26 -151l311 491q-21 52 -77 52q-46 0 -80 -32t-66 -119t-62 -241z" />
<glyph unicode="&#xd9;" horiz-adv-x="1292" d="M541 -24q266 0 438.5 141.5t230.5 438.5l156 806q3 16 -5.5 27t-24.5 11h-380q-16 0 -29.5 -11t-16.5 -27l-163 -840q-21 -111 -53.5 -152.5t-84.5 -41.5q-34 0 -51 15.5t-22.5 58.5t11.5 120l163 840q3 16 -5.5 27t-24.5 11h-380q-16 0 -29.5 -11t-16.5 -27l-156 -806 q-58 -297 59.5 -438.5t383.5 -141.5zM938 1810l89 -258q6 -17 -3 -30.5t-31 -13.5h-199q-43 0 -66 36l-151 230q-18 27 -14 47q6 27 44 27h271q47 0 60 -38z" />
<glyph unicode="&#xda;" horiz-adv-x="1292" d="M541 -24q-266 0 -383.5 141.5t-59.5 438.5l156 806q3 16 16.5 27t29.5 11h380q16 0 24.5 -11t5.5 -27l-163 -840q-17 -77 -11.5 -120t22.5 -58.5t51 -15.5q52 0 84.5 41.5t53.5 152.5l163 840q3 16 16.5 27t29.5 11h380q16 0 24.5 -11t5.5 -27l-156 -806 q-58 -297 -230.5 -438.5t-438.5 -141.5zM667 1552l189 258q30 38 76 38h271q17 0 26 -7t6 -20q-4 -20 -32 -47l-239 -230q-39 -36 -80 -36h-199q-22 0 -26 14t8 30z" />
<glyph unicode="&#xdb;" horiz-adv-x="1292" d="M541 -24q-266 0 -383.5 141.5t-59.5 438.5l156 806q3 16 16.5 27t29.5 11h380q16 0 24.5 -11t5.5 -27l-163 -840q-17 -77 -11.5 -120t22.5 -58.5t51 -15.5q52 0 84.5 41.5t53.5 152.5l163 840q3 16 16.5 27t29.5 11h380q16 0 24.5 -11t5.5 -27l-156 -806 q-58 -297 -230.5 -438.5t-438.5 -141.5zM745 1848h320q36 0 44 -29l75 -258q7 -23 -5.5 -38t-37.5 -15h-196q-33 0 -43 30l-36 110l-80 -110q-21 -30 -53 -30h-196q-25 0 -31.5 15t8.5 38l175 258q19 29 56 29z" />
<glyph unicode="&#xdc;" horiz-adv-x="1292" d="M541 -24q266 0 438.5 141.5t230.5 438.5l156 806q3 16 -5.5 27t-24.5 11h-380q-16 0 -29.5 -11t-16.5 -27l-163 -840q-21 -111 -53.5 -152.5t-84.5 -41.5q-34 0 -51 15.5t-22.5 58.5t11.5 120l163 840q3 16 -5.5 27t-24.5 11h-380q-16 0 -29.5 -11t-16.5 -27l-156 -806 q-58 -297 59.5 -438.5t383.5 -141.5zM526 1678q17 86 60.5 126t121.5 40t106.5 -40t11.5 -126t-61 -126t-122 -40t-106 40t-11 126zM918 1678q17 86 60.5 126t121.5 40t106.5 -40t11.5 -126t-61 -126t-122 -40t-106 40t-11 126z" />
<glyph unicode="&#xdd;" horiz-adv-x="1216" d="M698 0h-380q-16 0 -25 11t-6 27l102 526l-202 780q-7 24 5.5 40t38.5 16h374q42 0 45 -33l41 -423l205 423q17 33 59 33h374q26 0 32 -16t-10 -40l-506 -780l-102 -526q-3 -16 -16 -27t-29 -11zM617 1552l189 258q30 38 76 38h271q17 0 26 -7t6 -20q-4 -20 -32 -47 l-239 -230q-39 -36 -80 -36h-199q-22 0 -26 14t8 30z" />
<glyph unicode="&#xde;" horiz-adv-x="1138" d="M719 708q15 67 9 104t-21.5 50.5t-42.5 13.5h-68l-66 -336h68q42 0 72.5 36.5t48.5 131.5zM690 1362l-30 -158h54q246 0 358 -122t63 -374q-49 -251 -209 -373.5t-405 -122.5h-54l-34 -174q-3 -16 -16.5 -27t-28.5 -11h-360q-16 0 -25 11t-6 27l257 1324q3 16 16.5 27 t29.5 11h360q15 0 24 -11t6 -27z" />
<glyph unicode="&#xdf;" horiz-adv-x="1276" d="M574 316q30 -12 73 -12q46 0 76.5 25.5t40.5 74.5q12 61 -23 97t-133 42q-14 1 -22.5 11.5t-5.5 25.5l50 256q3 14 15.5 25t26.5 12q76 7 115.5 34.5t50.5 80.5q11 58 -10 83t-73 25q-66 0 -102 -55.5t-67 -212.5l-153 -791q-3 -15 -16 -26t-28 -11h-362q-15 0 -24 11 t-6 26l155 799q32 164 87 276.5t139 181.5t191.5 99.5t252.5 30.5q252 0 374 -112t89 -284q-21 -112 -92 -195t-183 -123q109 -36 160.5 -126t25.5 -220q-34 -178 -166.5 -283t-348.5 -105q-89 0 -179 24q-36 10 -29 49l45 233q4 22 20 32t36 2z" />
<glyph unicode="&#xe0;" horiz-adv-x="1104" d="M634 918h-8l-138 -430h116zM405 1190h556q42 0 42 -39v-1105q0 -46 -45 -46h-343q-43 0 -41 41l10 159h-190l-50 -159q-12 -41 -55 -41h-343q-46 0 -29 46l430 1105q15 39 58 39zM796 1600l88 -258q6 -17 -3 -30.5t-31 -13.5h-199q-41 0 -66 36l-150 230q-18 26 -14 47 q5 27 43 27h271q46 0 61 -38z" />
<glyph unicode="&#xe1;" horiz-adv-x="1104" d="M634 918h-8l-138 -430h116zM405 1190h556q42 0 42 -39v-1105q0 -46 -45 -46h-343q-43 0 -41 41l10 159h-190l-50 -159q-12 -41 -55 -41h-343q-46 0 -29 46l430 1105q15 39 58 39zM540 1342l190 258q28 38 75 38h271q17 0 26 -7t7 -20q-3 -18 -32 -47l-240 -230 q-38 -36 -80 -36h-199q-22 0 -26 14t8 30z" />
<glyph unicode="&#xe2;" horiz-adv-x="1104" d="M634 918h-8l-138 -430h116zM405 1190h556q42 0 42 -39v-1105q0 -46 -45 -46h-343q-43 0 -41 41l10 159h-190l-50 -159q-12 -41 -55 -41h-343q-46 0 -29 46l430 1105q15 39 58 39zM610 1638h320q36 0 44 -29l75 -258q7 -23 -5.5 -38t-37.5 -15h-196q-32 0 -42 30l-37 110 l-79 -110q-21 -30 -54 -30h-196q-25 0 -31.5 15t8.5 38l175 258q19 29 56 29z" />
<glyph unicode="&#xe3;" horiz-adv-x="1104" d="M634 918h-8l-138 -430h116zM405 1190h556q42 0 42 -39v-1105q0 -46 -45 -46h-343q-43 0 -41 41l10 159h-190l-50 -159q-12 -41 -55 -41h-343q-46 0 -29 46l430 1105q15 39 58 39zM640 1626q57 0 117 -32q53 -28 83 -28q27 0 41 28q16 30 50 30h134q39 0 30 -36 q-34 -140 -105.5 -212t-154.5 -72q-57 0 -118 32q-53 28 -82 28q-26 0 -42 -28q-16 -30 -50 -30h-134q-38 0 -30 36q33 140 105 212t156 72z" />
<glyph unicode="&#xe4;" horiz-adv-x="1104" d="M634 918h-8l-138 -430h116zM405 1190h556q42 0 42 -39v-1105q0 -46 -45 -46h-343q-43 0 -41 41l10 159h-190l-50 -159q-12 -41 -55 -41h-343q-46 0 -29 46l430 1105q15 39 58 39zM391 1468q17 86 60.5 126t121.5 40t106.5 -40t11.5 -126t-60.5 -126t-121.5 -40t-106.5 40 t-11.5 126zM783 1468q17 86 60.5 126t121.5 40t106.5 -40t11.5 -126t-60.5 -126t-121.5 -40t-106.5 40t-11.5 126z" />
<glyph unicode="&#xe5;" horiz-adv-x="1104" d="M634 918h-8l-138 -430h116zM405 1190h556q42 0 42 -39v-1105q0 -46 -45 -46h-343q-43 0 -41 41l10 159h-190l-50 -159q-12 -41 -55 -41h-343q-46 0 -29 46l430 1105q15 39 58 39zM997 1468q-20 -104 -109 -176t-199 -72q-109 0 -169.5 72t-40.5 176t108.5 176t197.5 72 q110 0 171 -72t41 -176zM655 1468q-7 -36 11.5 -59t54.5 -23q37 0 65 23t35 59t-12 59t-56 23q-36 0 -63.5 -23t-34.5 -59z" />
<glyph unicode="&#xe6;" horiz-adv-x="1414" d="M669 904l-157 -420h104l81 420h-28zM442 1190h1009q16 0 25 -11t6 -26l-42 -213q-3 -16 -16 -27t-29 -11h-278l-31 -160h248q16 0 24.5 -11t6.5 -26l-42 -213q-3 -16 -16 -27t-29 -11h-248l-33 -166h286q16 0 25 -11t6 -27l-41 -213q-3 -15 -16 -26t-29 -11h-669 q-15 0 -24 11t-6 26l33 169h-152l-62 -165q-15 -41 -55 -41h-345q-48 0 -29 46l465 1105q16 39 58 39z" />
<glyph unicode="&#xe7;" horiz-adv-x="990" d="M225 -468q-31 6 -26 34l17 89q9 47 50 37q15 -4 37 -4q66 0 75 48q5 25 -9.5 41.5t-62.5 22.5q-45 5 -16 51l87 139q-204 41 -283.5 197t-30.5 407q57 295 237 457.5t463 162.5q163 0 282 -51q27 -12 18 -46l-53 -203q-5 -21 -24 -28.5t-39 1.5q-64 29 -143 29 q-122 0 -194 -80t-103 -242q-62 -320 174 -320q86 0 159 30q23 10 39 2t13 -29l-27 -205q-3 -34 -36 -47q-84 -35 -193 -44l-60 -91q47 -20 68 -63.5t10 -102.5q-18 -92 -103.5 -146t-207.5 -54q-77 0 -118 8z" />
<glyph unicode="&#xe8;" horiz-adv-x="950" d="M-13 37l217 1116q3 15 15.5 26t28.5 11h739q16 0 25 -11t6 -26l-42 -213q-3 -16 -16 -27t-29 -11h-336l-31 -160h310q16 0 24.5 -11t6.5 -26l-42 -213q-3 -16 -16 -27t-29 -11h-310l-33 -166h345q16 0 24.5 -11t5.5 -27l-41 -213q-3 -15 -15.5 -26t-28.5 -11h-748 q-16 0 -24.5 11t-5.5 26zM764 1600l88 -258q6 -17 -3 -30.5t-31 -13.5h-199q-41 0 -66 36l-150 230q-18 26 -14 47q5 27 43 27h271q46 0 61 -38z" />
<glyph unicode="&#xe9;" horiz-adv-x="950" d="M-13 37l217 1116q3 15 15.5 26t28.5 11h739q16 0 25 -11t6 -26l-42 -213q-3 -16 -16 -27t-29 -11h-336l-31 -160h310q16 0 24.5 -11t6.5 -26l-42 -213q-3 -16 -16 -27t-29 -11h-310l-33 -166h345q16 0 24.5 -11t5.5 -27l-41 -213q-3 -15 -15.5 -26t-28.5 -11h-748 q-16 0 -24.5 11t-5.5 26zM478 1342l190 258q28 38 75 38h271q17 0 26 -7t7 -20q-3 -18 -32 -47l-240 -230q-38 -36 -80 -36h-199q-22 0 -26 14t8 30z" />
<glyph unicode="&#xea;" horiz-adv-x="950" d="M542 1638h320q36 0 44 -29l75 -258q7 -23 -5.5 -38t-37.5 -15h-196q-32 0 -42 30l-37 110l-79 -110q-21 -30 -54 -30h-196q-25 0 -31.5 15t8.5 38l175 258q19 29 56 29zM-13 37l217 1116q3 15 15.5 26t28.5 11h739q16 0 25 -11t6 -26l-42 -213q-3 -16 -16 -27t-29 -11 h-336l-31 -160h310q16 0 24.5 -11t6.5 -26l-42 -213q-3 -16 -16 -27t-29 -11h-310l-33 -166h345q16 0 24.5 -11t5.5 -27l-41 -213q-3 -15 -15.5 -26t-28.5 -11h-748q-16 0 -24.5 11t-5.5 26z" />
<glyph unicode="&#xeb;" horiz-adv-x="950" d="M-13 37l217 1116q3 15 15.5 26t28.5 11h739q16 0 25 -11t6 -26l-42 -213q-3 -16 -16 -27t-29 -11h-336l-31 -160h310q16 0 24.5 -11t6.5 -26l-42 -213q-3 -16 -16 -27t-29 -11h-310l-33 -166h345q16 0 24.5 -11t5.5 -27l-41 -213q-3 -15 -15.5 -26t-28.5 -11h-748 q-16 0 -24.5 11t-5.5 26zM323 1468q17 86 60.5 126t121.5 40t106.5 -40t11.5 -126t-60.5 -126t-121.5 -40t-106.5 40t-11.5 126zM715 1468q17 86 60.5 126t121.5 40t106.5 -40t11.5 -126t-60.5 -126t-121.5 -40t-106.5 40t-11.5 126z" />
<glyph unicode="&#xec;" horiz-adv-x="620" d="M258 1190h366q15 0 24 -11t6 -26l-217 -1116q-3 -15 -16 -26t-28 -11h-366q-16 0 -24.5 11t-5.5 26l217 1116q3 15 15.5 26t28.5 11zM536 1600l88 -258q6 -17 -3 -30.5t-31 -13.5h-199q-41 0 -66 36l-150 230q-18 26 -14 47q5 27 43 27h271q46 0 61 -38z" />
<glyph unicode="&#xed;" horiz-adv-x="620" d="M258 1190h366q15 0 24 -11t6 -26l-217 -1116q-3 -15 -16 -26t-28 -11h-366q-16 0 -24.5 11t-5.5 26l217 1116q3 15 15.5 26t28.5 11zM316 1342l190 258q28 38 75 38h271q17 0 26 -7t7 -20q-3 -18 -32 -47l-240 -230q-38 -36 -80 -36h-199q-22 0 -26 14t8 30z" />
<glyph unicode="&#xee;" horiz-adv-x="620" d="M258 1190h366q15 0 24 -11t6 -26l-217 -1116q-3 -15 -16 -26t-28 -11h-366q-16 0 -24.5 11t-5.5 26l217 1116q3 15 15.5 26t28.5 11zM368 1638h320q36 0 44 -29l75 -258q7 -23 -5.5 -38t-37.5 -15h-196q-32 0 -42 30l-37 110l-79 -110q-21 -30 -54 -30h-196 q-25 0 -31.5 15t8.5 38l175 258q19 29 56 29z" />
<glyph unicode="&#xef;" horiz-adv-x="620" d="M258 1190h366q15 0 24 -11t6 -26l-217 -1116q-3 -15 -16 -26t-28 -11h-366q-16 0 -24.5 11t-5.5 26l217 1116q3 15 15.5 26t28.5 11zM149 1468q17 86 60.5 126t121.5 40t106.5 -40t11.5 -126t-60.5 -126t-121.5 -40t-106.5 40t-11.5 126zM541 1468q17 86 60.5 126 t121.5 40t106.5 -40t11.5 -126t-60.5 -126t-121.5 -40t-106.5 40t-11.5 126z" />
<glyph unicode="&#xf0;" horiz-adv-x="1122" d="M79 676h50l93 477q3 15 16 26t29 11h428q263 0 357.5 -147.5t36.5 -446.5q-58 -301 -210 -448.5t-415 -147.5h-428q-16 0 -25 11t-6 26l92 475h-50q-16 0 -25 11t-6 27l18 88q3 16 16 27t29 11zM470 268h48q54 0 92.5 71t74.5 255q25 126 27 199.5t-14.5 101t-52.5 27.5 h-48l-48 -246h51q15 0 24 -11t6 -27l-18 -88q-3 -16 -16 -27t-28 -11h-51z" />
<glyph unicode="&#xf1;" horiz-adv-x="1176" d="M727 574l113 579q3 15 16 26t29 11h305q15 0 24 -11t6 -26l-217 -1116q-3 -15 -16 -26t-28 -11h-346q-47 0 -53 36l-81 580l-112 -579q-3 -15 -16 -26t-29 -11h-305q-15 0 -24 11t-6 26l217 1116q3 15 16 26t28 11h346q46 0 52 -36zM676 1626q57 0 117 -32q53 -28 83 -28 q27 0 41 28q16 30 50 30h134q39 0 30 -36q-34 -140 -105.5 -212t-154.5 -72q-57 0 -118 32q-53 28 -82 28q-26 0 -42 -28q-16 -30 -50 -30h-134q-38 0 -30 36q33 140 105 212t156 72z" />
<glyph unicode="&#xf2;" horiz-adv-x="1156" d="M1123 594q-59 -304 -222.5 -461t-427.5 -157t-366.5 157t-43.5 461q59 305 222.5 462.5t427.5 157.5t366.5 -157.5t43.5 -462.5zM497 594q-25 -130 -28 -202.5t12 -98t49 -25.5q51 0 86.5 67.5t72.5 258.5q25 131 28.5 204t-11.5 98.5t-49 25.5t-59 -25.5t-50.5 -98.5 t-50.5 -204zM822 1600l88 -258q6 -17 -3 -30.5t-31 -13.5h-199q-41 0 -66 36l-150 230q-18 26 -14 47q5 27 43 27h271q46 0 61 -38z" />
<glyph unicode="&#xf3;" horiz-adv-x="1156" d="M1123 594q-59 -304 -222.5 -461t-427.5 -157t-366.5 157t-43.5 461q59 305 222.5 462.5t427.5 157.5t366.5 -157.5t43.5 -462.5zM497 594q-25 -130 -28 -202.5t12 -98t49 -25.5q51 0 86.5 67.5t72.5 258.5q25 131 28.5 204t-11.5 98.5t-49 25.5t-59 -25.5t-50.5 -98.5 t-50.5 -204zM566 1342l190 258q28 38 75 38h271q17 0 26 -7t7 -20q-3 -18 -32 -47l-240 -230q-38 -36 -80 -36h-199q-22 0 -26 14t8 30z" />
<glyph unicode="&#xf4;" horiz-adv-x="1156" d="M1123 594q-59 -304 -222.5 -461t-427.5 -157t-366.5 157t-43.5 461q59 305 222.5 462.5t427.5 157.5t366.5 -157.5t43.5 -462.5zM497 594q-25 -130 -28 -202.5t12 -98t49 -25.5q51 0 86.5 67.5t72.5 258.5q25 131 28.5 204t-11.5 98.5t-49 25.5t-59 -25.5t-50.5 -98.5 t-50.5 -204zM636 1638h320q36 0 44 -29l75 -258q7 -23 -5.5 -38t-37.5 -15h-196q-32 0 -42 30l-37 110l-79 -110q-21 -30 -54 -30h-196q-25 0 -31.5 15t8.5 38l175 258q19 29 56 29z" />
<glyph unicode="&#xf5;" horiz-adv-x="1156" d="M1123 594q-59 -304 -222.5 -461t-427.5 -157t-366.5 157t-43.5 461q59 305 222.5 462.5t427.5 157.5t366.5 -157.5t43.5 -462.5zM497 594q-25 -130 -28 -202.5t12 -98t49 -25.5q51 0 86.5 67.5t72.5 258.5q25 131 28.5 204t-11.5 98.5t-49 25.5t-59 -25.5t-50.5 -98.5 t-50.5 -204zM666 1626q57 0 117 -32q53 -28 83 -28q27 0 41 28q16 30 50 30h134q39 0 30 -36q-34 -140 -105.5 -212t-154.5 -72q-57 0 -118 32q-53 28 -82 28q-26 0 -42 -28q-16 -30 -50 -30h-134q-38 0 -30 36q33 140 105 212t156 72z" />
<glyph unicode="&#xf6;" horiz-adv-x="1156" d="M1123 594q-59 -304 -222.5 -461t-427.5 -157t-366.5 157t-43.5 461q59 305 222.5 462.5t427.5 157.5t366.5 -157.5t43.5 -462.5zM497 594q-25 -130 -28 -202.5t12 -98t49 -25.5q51 0 86.5 67.5t72.5 258.5q25 131 28.5 204t-11.5 98.5t-49 25.5t-59 -25.5t-50.5 -98.5 t-50.5 -204zM417 1468q17 86 60.5 126t121.5 40t106.5 -40t11.5 -126t-60.5 -126t-121.5 -40t-106.5 40t-11.5 126zM809 1468q17 86 60.5 126t121.5 40t106.5 -40t11.5 -126t-60.5 -126t-121.5 -40t-106.5 40t-11.5 126z" />
<glyph unicode="&#xf7;" horiz-adv-x="1008" d="M344 188q0 113 45 165.5t145 52.5t145 -52.5t45 -165.5t-45 -165.5t-145 -52.5t-145 52.5t-45 165.5zM344 1140q0 113 45 165.5t145 52.5t145 -52.5t45 -165.5t-45 -165.5t-145 -52.5t-145 52.5t-45 165.5zM970 520h-873q-16 0 -26.5 10.5t-10.5 26.5v214q0 15 10.5 26 t26.5 11h873q16 0 27 -11t11 -26v-214q0 -16 -11 -26.5t-27 -10.5z" />
<glyph unicode="&#xf8;" horiz-adv-x="1156" d="M35 -180l150 231q-200 141 -122 543q59 305 222.5 462.5t427.5 157.5q119 0 210 -34l139 213q11 17 31 17h40q45 0 19 -40l-151 -232q199 -142 122 -544q-59 -304 -222.5 -461t-427.5 -157q-120 0 -210 34l-139 -213q-11 -17 -30 -17h-40q-21 0 -26.5 10t7.5 30zM497 594 q-1 -7 -17 -91l235 359q-5 33 -19 46.5t-39 13.5q-34 0 -59 -25.5t-50.5 -98.5t-50.5 -204zM689 594q8 41 16 92l-235 -359q9 -59 60 -59t86.5 67.5t72.5 258.5z" />
<glyph unicode="&#xf9;" horiz-adv-x="1160" d="M625 440l139 713q3 15 16 26t28 11h366q15 0 24 -11t6 -26l-134 -685q-49 -252 -202.5 -372t-392.5 -120t-346.5 120t-58.5 372l134 685q3 15 16 26t28 11h366q15 0 24 -11t6 -26l-139 -713q-17 -99 -9.5 -127.5t39.5 -28.5t51.5 31t38.5 125zM832 1600l88 -258 q6 -17 -3 -30.5t-31 -13.5h-199q-41 0 -66 36l-150 230q-18 26 -14 47q5 27 43 27h271q46 0 61 -38z" />
<glyph unicode="&#xfa;" horiz-adv-x="1160" d="M625 440l139 713q3 15 16 26t28 11h366q15 0 24 -11t6 -26l-134 -685q-49 -252 -202.5 -372t-392.5 -120t-346.5 120t-58.5 372l134 685q3 15 16 26t28 11h366q15 0 24 -11t6 -26l-139 -713q-17 -99 -9.5 -127.5t39.5 -28.5t51.5 31t38.5 125zM560 1342l190 258 q28 38 75 38h271q17 0 26 -7t7 -20q-3 -18 -32 -47l-240 -230q-38 -36 -80 -36h-199q-22 0 -26 14t8 30z" />
<glyph unicode="&#xfb;" horiz-adv-x="1160" d="M625 440l139 713q3 15 16 26t28 11h366q15 0 24 -11t6 -26l-134 -685q-49 -252 -202.5 -372t-392.5 -120t-346.5 120t-58.5 372l134 685q3 15 16 26t28 11h366q15 0 24 -11t6 -26l-139 -713q-17 -99 -9.5 -127.5t39.5 -28.5t51.5 31t38.5 125zM638 1638h320q36 0 44 -29 l75 -258q7 -23 -5.5 -38t-37.5 -15h-196q-32 0 -42 30l-37 110l-79 -110q-21 -30 -54 -30h-196q-25 0 -31.5 15t8.5 38l175 258q19 29 56 29z" />
<glyph unicode="&#xfc;" horiz-adv-x="1160" d="M625 440l139 713q3 15 16 26t28 11h366q15 0 24 -11t6 -26l-134 -685q-49 -252 -202.5 -372t-392.5 -120t-346.5 120t-58.5 372l134 685q3 15 16 26t28 11h366q15 0 24 -11t6 -26l-139 -713q-17 -99 -9.5 -127.5t39.5 -28.5t51.5 31t38.5 125zM419 1468q17 86 60.5 126 t121.5 40t106.5 -40t11.5 -126t-60.5 -126t-121.5 -40t-106.5 40t-11.5 126zM811 1468q17 86 60.5 126t121.5 40t106.5 -40t11.5 -126t-60.5 -126t-121.5 -40t-106.5 40t-11.5 126z" />
<glyph unicode="&#xfd;" horiz-adv-x="1124" d="M616 794l151 363q14 33 59 33h351q26 0 32 -16t-10 -40l-424 -654l-86 -443q-3 -15 -16 -26t-28 -11h-365q-16 0 -25 11t-6 26l86 443l-170 654q-7 24 5.5 40t38.5 16h351q45 0 45 -33zM520 1342l190 258q28 38 75 38h271q17 0 26 -7t7 -20q-3 -18 -32 -47l-240 -230 q-38 -36 -80 -36h-199q-22 0 -26 14t8 30z" />
<glyph unicode="&#xfe;" horiz-adv-x="1030" d="M438 180l-27 -143q-3 -15 -16 -26t-29 -11h-348q-16 0 -25 11t-6 26l217 1116q3 15 16 26t29 11h348q16 0 25 -11t6 -26l-25 -129h18q222 0 324.5 -104t61.5 -318q-42 -213 -185.5 -317.5t-365.5 -104.5h-18zM623 602q15 87 4 120.5t-47 33.5h-30l-60 -310h30q36 0 61 36 t42 120z" />
<glyph unicode="&#xff;" horiz-adv-x="1124" d="M616 794l151 363q14 33 59 33h351q26 0 32 -16t-10 -40l-424 -654l-86 -443q-3 -15 -16 -26t-28 -11h-365q-16 0 -25 11t-6 26l86 443l-170 654q-7 24 5.5 40t38.5 16h351q45 0 45 -33zM401 1468q17 86 60.5 126t121.5 40t106.5 -40t11.5 -126t-60.5 -126t-121.5 -40 t-106.5 40t-11.5 126zM793 1468q17 86 60.5 126t121.5 40t106.5 -40t11.5 -126t-60.5 -126t-121.5 -40t-106.5 40t-11.5 126z" />
<glyph unicode="&#x152;" horiz-adv-x="1626" d="M952 1400h748q16 0 24.5 -11t5.5 -27l-49 -252q-3 -15 -16 -26.5t-29 -11.5h-344l-40 -204h310q16 0 25 -11t6 -27l-49 -252q-3 -16 -16.5 -27t-29.5 -11h-310l-41 -212h354q16 0 25 -11.5t6 -26.5l-49 -252q-3 -16 -16 -27t-29 -11h-758q-365 0 -514 173.5t-80 526.5 q69 354 285 527t581 173zM546 700q-37 -185 1.5 -267.5t160.5 -82.5l136 700q-122 0 -192 -82t-106 -268z" />
<glyph unicode="&#x153;" horiz-adv-x="1446" d="M497 594q-29 -155 -6.5 -226.5t98.5 -79.5l119 612q-155 -22 -211 -306zM1261 0h-667q-323 0 -456 147t-75 447q115 596 762 596h658q16 0 25 -11t6 -26l-42 -213q-3 -16 -16 -27t-29 -11h-278l-31 -160h248q16 0 24.5 -11t6.5 -26l-42 -213q-3 -16 -16 -27t-29 -11h-248 l-33 -166h287q15 0 24 -11t6 -27l-41 -213q-3 -15 -16 -26t-28 -11z" />
<glyph unicode="&#x178;" horiz-adv-x="1216" d="M698 0h-380q-16 0 -25 11t-6 27l102 526l-202 780q-7 24 5.5 40t38.5 16h374q42 0 45 -33l41 -423l205 423q17 33 59 33h374q26 0 32 -16t-10 -40l-506 -780l-102 -526q-3 -16 -16 -27t-29 -11zM488 1678q17 86 60.5 126t121.5 40t106.5 -40t11.5 -126t-61 -126t-122 -40 t-106 40t-11 126zM880 1678q17 86 60.5 126t121.5 40t106.5 -40t11.5 -126t-61 -126t-122 -40t-106 40t-11 126z" />
<glyph unicode="&#x2c6;" horiz-adv-x="820" d="M433 1460h320q37 0 45 -29l75 -258q6 -23 -6.5 -38t-37.5 -15h-196q-32 0 -42 30l-37 110l-79 -110q-21 -30 -54 -30h-196q-25 0 -31.5 15t9.5 38l175 258q19 29 55 29z" />
<glyph unicode="&#x2dc;" horiz-adv-x="820" d="M461 1450q57 0 118 -32q53 -28 83 -28q27 0 41 28q16 30 50 30h134q38 0 30 -36q-34 -140 -105.5 -212t-154.5 -72q-57 0 -118 32q-53 28 -83 28q-27 0 -41 -28q-16 -30 -50 -30h-134q-38 0 -30 36q34 140 105.5 212t154.5 72z" />
<glyph unicode="&#x2000;" horiz-adv-x="963" />
<glyph unicode="&#x2001;" horiz-adv-x="1926" />
<glyph unicode="&#x2002;" horiz-adv-x="963" />
<glyph unicode="&#x2003;" horiz-adv-x="1926" />
<glyph unicode="&#x2004;" horiz-adv-x="642" />
<glyph unicode="&#x2005;" horiz-adv-x="481" />
<glyph unicode="&#x2006;" horiz-adv-x="321" />
<glyph unicode="&#x2007;" horiz-adv-x="321" />
<glyph unicode="&#x2008;" horiz-adv-x="240" />
<glyph unicode="&#x2009;" horiz-adv-x="385" />
<glyph unicode="&#x200a;" horiz-adv-x="107" />
<glyph unicode="&#x2010;" horiz-adv-x="672" d="M584 510h-497q-16 0 -25 11t-6 26l45 234q3 15 16.5 26t29.5 11h497q16 0 24 -11t5 -26l-45 -234q-3 -15 -15.5 -26t-28.5 -11z" />
<glyph unicode="&#x2011;" horiz-adv-x="672" d="M584 510h-497q-16 0 -25 11t-6 26l45 234q3 15 16.5 26t29.5 11h497q16 0 24 -11t5 -26l-45 -234q-3 -15 -15.5 -26t-28.5 -11z" />
<glyph unicode="&#x2012;" horiz-adv-x="672" d="M584 510h-497q-16 0 -25 11t-6 26l45 234q3 15 16.5 26t29.5 11h497q16 0 24 -11t5 -26l-45 -234q-3 -15 -15.5 -26t-28.5 -11z" />
<glyph unicode="&#x2013;" horiz-adv-x="1000" d="M964 520h-925q-16 0 -25 10.5t-6 26.5l41 214q3 15 16.5 26t29.5 11h925q15 0 23.5 -11t5.5 -26l-41 -214q-3 -16 -16 -26.5t-28 -10.5z" />
<glyph unicode="&#x2014;" horiz-adv-x="2000" d="M1964 520h-1925q-16 0 -25 10.5t-6 26.5l41 214q3 15 16.5 26t29.5 11h1925q15 0 23.5 -11t5.5 -26l-41 -214q-3 -16 -16 -26.5t-28 -10.5z" />
<glyph unicode="&#x2018;" horiz-adv-x="544" d="M588 1378q-39 -33 -69.5 -81.5t-41.5 -96.5q111 -32 77 -210q-22 -113 -77 -165.5t-155 -52.5t-135 53.5t-12 170.5q36 184 121.5 310t225.5 214q17 11 32 8.5t20 -18.5l27 -91q7 -25 -13 -41z" />
<glyph unicode="&#x2019;" horiz-adv-x="544" d="M205 938q39 34 70 82t41 96q-111 32 -77 210q22 113 77.5 165.5t155.5 52.5t134.5 -53t11.5 -171q-36 -184 -121.5 -310t-225.5 -214q-17 -11 -32 -8.5t-20 18.5l-27 91q-7 25 13 41z" />
<glyph unicode="&#x201a;" horiz-adv-x="544" d="M-15 -194q39 34 70 82t41 96q-111 32 -77 210q22 113 77.5 165.5t155.5 52.5t134.5 -53t11.5 -171q-36 -184 -121.5 -310t-225.5 -214q-17 -11 -32 -8.5t-20 18.5l-27 91q-7 25 13 41z" />
<glyph unicode="&#x201c;" horiz-adv-x="974" d="M588 1378q-39 -33 -69.5 -81.5t-41.5 -96.5q111 -32 77 -210q-22 -113 -77 -165.5t-155 -52.5t-135 53.5t-12 170.5q36 184 121.5 310t225.5 214q17 11 32 8.5t20 -18.5l27 -91q7 -25 -13 -41zM1018 1378q-39 -33 -69.5 -81.5t-41.5 -96.5q111 -32 77 -210 q-22 -113 -77 -165.5t-155 -52.5t-135 53.5t-12 170.5q36 184 121.5 310t225.5 214q17 11 32 8.5t20 -18.5l27 -91q7 -25 -13 -41z" />
<glyph unicode="&#x201d;" horiz-adv-x="974" d="M205 938q39 34 70 82t41 96q-111 32 -77 210q22 113 77.5 165.5t155.5 52.5t134.5 -53t11.5 -171q-36 -184 -121.5 -310t-225.5 -214q-17 -11 -32 -8.5t-20 18.5l-27 91q-7 25 13 41zM635 938q39 34 70 82t41 96q-111 32 -77 210q22 113 77.5 165.5t155.5 52.5t134.5 -53 t11.5 -171q-36 -184 -121.5 -310t-225.5 -214q-17 -11 -32 -8.5t-20 18.5l-27 91q-7 25 13 41z" />
<glyph unicode="&#x201e;" horiz-adv-x="974" d="M-15 -194q39 34 70 82t41 96q-111 32 -77 210q22 113 77.5 165.5t155.5 52.5t134.5 -53t11.5 -171q-36 -184 -121.5 -310t-225.5 -214q-17 -11 -32 -8.5t-20 18.5l-27 91q-7 25 13 41zM415 -194q39 34 70 82t41 96q-111 32 -77 210q22 113 77.5 165.5t155.5 52.5 t134.5 -53t11.5 -171q-36 -184 -121.5 -310t-225.5 -214q-17 -11 -32 -8.5t-20 18.5l-27 91q-7 25 13 41z" />
<glyph unicode="&#x2022;" horiz-adv-x="868" d="M200 664q0 312 264 312t264 -312t-264 -312t-264 312z" />
<glyph unicode="&#x2026;" horiz-adv-x="1632" d="M19 194q22 113 77.5 165.5t155.5 52.5t134.5 -52.5t12.5 -165.5t-77 -165.5t-155 -52.5t-135 52.5t-13 165.5zM563 194q22 113 77.5 165.5t155.5 52.5t134.5 -52.5t12.5 -165.5t-77 -165.5t-155 -52.5t-135 52.5t-13 165.5zM1107 194q22 113 77.5 165.5t155.5 52.5 t134.5 -52.5t12.5 -165.5t-77 -165.5t-155 -52.5t-135 52.5t-13 165.5z" />
<glyph unicode="&#x202f;" horiz-adv-x="385" />
<glyph unicode="&#x2039;" horiz-adv-x="502" d="M285 626l132 -160q21 -24 12 -66l-46 -239q-7 -32 -29 -38.5t-39 17.5l-229 305q-23 32 -16 74l42 214q8 41 44 74l348 305q27 24 46.5 17.5t13.5 -38.5l-47 -239q-9 -43 -38 -66z" />
<glyph unicode="&#x203a;" horiz-adv-x="502" d="M65 466l194 160l-132 160q-21 24 -12 66l47 239q6 32 28 38.5t40 -17.5l228 -305q24 -32 16 -74l-42 -214q-7 -41 -44 -74l-347 -305q-28 -24 -47.5 -17.5t-12.5 38.5l46 239q9 43 38 66z" />
<glyph unicode="&#x205f;" horiz-adv-x="481" />
<glyph unicode="&#x20ac;" horiz-adv-x="1066" d="M83 514h-37q-15 0 -23.5 11t-5.5 26l9 50q3 15 16.5 26t28.5 11h25q6 60 24 124h-25q-15 0 -24 11t-6 26l10 50q2 15 15.5 26t28.5 11h37q93 258 283 398t451 140q158 0 276 -50q36 -16 24 -61l-63 -247q-6 -22 -25 -32t-42 1q-68 37 -166 37q-175 0 -268 -186h324 q20 0 27.5 -13t-2.5 -33l-25 -50q-5 -11 -17 -19.5t-24 -8.5h-327q-22 -58 -24 -124h271q20 0 27.5 -13t-2.5 -33l-25 -50q-5 -11 -17.5 -19.5t-24.5 -8.5h-234q24 -186 200 -186q102 0 183 37q28 11 43.5 1t12.5 -32l-33 -247q-6 -46 -49 -62q-131 -49 -297 -49 q-263 0 -399.5 140t-130.5 398z" />
<glyph unicode="&#x2122;" horiz-adv-x="1108" d="M148 775v459h-101q-16 0 -26.5 11t-10.5 26v92q0 15 10.5 26t26.5 11h408q15 0 26 -11t11 -26v-92q0 -15 -11 -26t-26 -11h-101v-459q0 -16 -10.5 -26.5t-26.5 -10.5h-132q-15 0 -26 10.5t-11 26.5zM796 932h40q22 0 28 20l56 178v-352q0 -16 10 -28t25 -12h119 q15 0 24.5 9t9.5 25v594q0 15 -9.5 24.5t-24.5 9.5h-150q-26 0 -35 -26l-73 -222l-73 222q-9 26 -35 26h-150q-15 0 -24.5 -9.5t-9.5 -24.5v-594q0 -16 9.5 -25t24.5 -9h119q15 0 25 12t10 28v352l56 -178q6 -20 28 -20z" />
<glyph unicode="&#xfb02;" horiz-adv-x="1880" d="M-13 37l217 1116q3 15 16 26t29 11h738q16 0 25 -11t6 -26l-42 -213q-3 -16 -16 -27t-29 -11h-336l-37 -190h310q16 0 25 -11t6 -26l-42 -213q-3 -16 -16 -27t-29 -11h-310l-75 -387q-3 -15 -16 -26t-28 -11h-365q-16 0 -25 11t-6 26zM921 37l217 1116q3 15 16 26t28 11 h365q16 0 25 -11t6 -26l-161 -825h369q15 0 24 -11t6 -26l-49 -254q-3 -15 -16 -26t-28 -11h-772q-15 0 -24 11t-6 26z" />
<glyph unicode="&#xfb04;" horiz-adv-x="2814" d="M-13 37l217 1116q3 15 16 26t29 11h738q16 0 25 -11t6 -26l-42 -213q-3 -16 -16 -27t-29 -11h-336l-37 -190h310q16 0 25 -11t6 -26l-42 -213q-3 -16 -16 -27t-29 -11h-310l-75 -387q-3 -15 -16 -26t-28 -11h-365q-16 0 -25 11t-6 26zM921 37l217 1116q3 15 16 26t29 11 h738q16 0 25 -11t6 -26l-42 -213q-3 -16 -16 -27t-29 -11h-336l-37 -190h310q16 0 25 -11t6 -26l-42 -213q-3 -16 -16 -27t-29 -11h-310l-75 -387q-3 -15 -16 -26t-28 -11h-365q-16 0 -25 11t-6 26zM1855 37l217 1116q3 15 16 26t28 11h365q16 0 25 -11t6 -26l-161 -825h369 q15 0 24 -11t6 -26l-49 -254q-3 -15 -16 -26t-28 -11h-772q-15 0 -24 11t-6 26z" />
</font>
</defs>
</svg>
