<?xml version="1.0" standalone="no"?>
<!DOCTYPE svg PUBLIC "-//W3C//DTD SVG 1.1//EN" "http://www.w3.org/Graphics/SVG/1.1/DTD/svg11.dtd" >
<svg xmlns="http://www.w3.org/2000/svg">
<metadata></metadata>
<defs>
<font id="core_sans_nr_75_extraboldRg" horiz-adv-x="1212" >
<font-face units-per-em="2000" ascent="1600" descent="-400" />
<missing-glyph horiz-adv-x="600" />
<glyph unicode="&#xfb01;" horiz-adv-x="1466" d="M974 37v962q0 15 10.5 26t26.5 11h294q16 0 26.5 -11t10.5 -26v-962q0 -15 -10.5 -26t-26.5 -11h-294q-16 0 -26.5 11t-10.5 26zM954 1296q0 85 48 124.5t156 39.5t156 -39.5t48 -124.5t-48 -124.5t-156 -39.5t-156 39.5t-48 124.5zM802 1223q-39 9 -87 9 q-69 0 -102 -33.5t-33 -110.5v-52h223q15 0 26 -11t11 -26v-160q0 -15 -11 -26t-26 -11h-223v-765q0 -15 -11 -26t-26 -11h-294q-15 0 -26 11t-11 26v765h-155q-15 0 -26 11t-11 26v160q0 15 11 26t26 11h155v45q0 379 421 379q105 0 203 -21q34 -7 31 -39l-17 -150 q-5 -37 -48 -27z" />
<glyph unicode="&#xfb02;" horiz-adv-x="1466" d="M974 37v1386q0 15 10.5 26t26.5 11h294q16 0 26.5 -11t10.5 -26v-1386q0 -15 -10.5 -26t-26.5 -11h-294q-16 0 -26.5 11t-10.5 26zM802 1223q-39 9 -87 9q-69 0 -102 -33.5t-33 -110.5v-52h223q15 0 26 -11t11 -26v-160q0 -15 -11 -26t-26 -11h-223v-765q0 -15 -11 -26 t-26 -11h-294q-15 0 -26 11t-11 26v765h-155q-15 0 -26 11t-11 26v160q0 15 11 26t26 11h155v45q0 379 421 379q105 0 203 -21q34 -7 31 -39l-17 -150q-5 -37 -48 -27z" />
<glyph unicode="&#xfb03;" horiz-adv-x="2228" d="M1736 37v962q0 15 10.5 26t26.5 11h294q16 0 26.5 -11t10.5 -26v-962q0 -15 -10.5 -26t-26.5 -11h-294q-16 0 -26.5 11t-10.5 26zM1716 1296q0 85 48 124.5t156 39.5t156 -39.5t48 -124.5t-48 -124.5t-156 -39.5t-156 39.5t-48 124.5zM814 1223q-49 9 -99 9 q-69 0 -102 -33.5t-33 -110.5v-52h394v45q0 379 421 379q105 0 203 -21q34 -7 31 -39l-17 -150q-5 -37 -48 -27q-39 9 -87 9q-69 0 -102 -33.5t-33 -110.5v-52h223q15 0 26 -11t11 -26v-160q0 -15 -11 -26t-26 -11h-223v-765q0 -15 -11 -26t-26 -11h-294q-15 0 -26 11 t-11 26v765h-394v-765q0 -15 -11 -26t-26 -11h-294q-15 0 -26 11t-11 26v765h-155q-15 0 -26 11t-11 26v160q0 15 11 26t26 11h155v45q0 379 421 379q117 0 215 -21q34 -7 31 -39l-17 -150q-4 -35 -48 -27z" />
<glyph unicode="&#xfb04;" horiz-adv-x="2228" d="M1736 37v1386q0 15 10.5 26t26.5 11h294q16 0 26.5 -11t10.5 -26v-1386q0 -15 -10.5 -26t-26.5 -11h-294q-16 0 -26.5 11t-10.5 26zM814 1223q-49 9 -99 9q-69 0 -102 -33.5t-33 -110.5v-52h394v45q0 379 421 379q105 0 203 -21q34 -7 31 -39l-17 -150q-5 -37 -48 -27 q-39 9 -87 9q-69 0 -102 -33.5t-33 -110.5v-52h223q15 0 26 -11t11 -26v-160q0 -15 -11 -26t-26 -11h-223v-765q0 -15 -11 -26t-26 -11h-294q-15 0 -26 11t-11 26v765h-394v-765q0 -15 -11 -26t-26 -11h-294q-15 0 -26 11t-11 26v765h-155q-15 0 -26 11t-11 26v160 q0 15 11 26t26 11h155v45q0 379 421 379q117 0 215 -21q34 -7 31 -39l-17 -150q-4 -35 -48 -27z" />
<glyph horiz-adv-x="666" />
<glyph horiz-adv-x="0" />
<glyph horiz-adv-x="0" />
<glyph unicode="&#xd;" horiz-adv-x="474" />
<glyph unicode=" "  horiz-adv-x="600" />
<glyph unicode="&#x09;" horiz-adv-x="600" />
<glyph unicode="&#xa0;" horiz-adv-x="600" />
<glyph unicode="!" horiz-adv-x="708" d="M548 1063l-44 -611q-1 -15 -11.5 -24.5t-25.5 -9.5h-227q-14 0 -25 10t-12 24l-43 611v300q0 15 10.5 26t26.5 11h314q15 0 26 -11t11 -26v-300zM548 144q0 -87 -44 -127.5t-150 -40.5t-150 40.5t-44 127.5t44 127.5t150 40.5t150 -40.5t44 -127.5z" />
<glyph unicode="&#x22;" horiz-adv-x="1170" d="M209 819l-28 542q-1 16 10 27.5t27 11.5h280q15 0 26 -11t11 -26v-45l-56 -500q-2 -14 -12.5 -24t-24.5 -10h-196q-14 0 -25 10.5t-12 24.5zM663 819l-28 542q-1 16 10 27.5t27 11.5h280q15 0 26 -11t11 -26v-45l-56 -500q-2 -14 -12.5 -24t-24.5 -10h-196 q-14 0 -25 10.5t-12 24.5z" />
<glyph unicode="#" horiz-adv-x="1494" d="M749 44l43 254h-228l-45 -267q-2 -13 -12.5 -22t-23.5 -9h-247q-19 0 -29.5 13t-7.5 31l43 254h-151q-15 0 -26 11t-11 26v186q0 15 11 26t26 11h195l48 282h-157q-15 0 -26 11t-11 26v186q0 15 11 26t26 11h201l46 268q2 13 12.5 22.5t23.5 9.5h247q18 0 29 -13.5 t8 -30.5l-44 -256h228l46 268q2 13 12.5 22.5t23.5 9.5h247q18 0 29 -13.5t8 -30.5l-44 -256h152q16 0 27 -11t11 -26v-186q0 -15 -11 -26t-27 -11h-196l-48 -282h158q16 0 27 -11t11 -26v-186q0 -15 -11 -26t-27 -11h-202l-45 -267q-2 -13 -12.5 -22t-23.5 -9h-247 q-19 0 -29.5 13t-7.5 31zM656 840l-48 -282h228l48 282h-228z" />
<glyph unicode="$" horiz-adv-x="1232" d="M710 1581v-159q182 -8 320 -55q32 -11 29 -45l-17 -203q-2 -24 -19 -33.5t-41 -1.5q-172 54 -300 54q-105 0 -155.5 -31.5t-50.5 -80.5q0 -57 53.5 -97t199.5 -88q209 -69 308 -176.5t99 -265.5q0 -175 -107.5 -281.5t-318.5 -132.5v-166q0 -15 -11 -26t-27 -11h-118 q-16 0 -27 11t-11 26v158q-219 11 -394 90q-32 14 -29 45l19 215q2 24 21.5 32.5t41.5 -4.5q166 -97 357 -97q89 0 150.5 32t61.5 93t-55.5 102t-209.5 91q-200 63 -297.5 167t-97.5 263q0 168 111.5 275.5t320.5 134.5v165q0 15 11 26t27 11h118q16 0 27 -11t11 -26z" />
<glyph unicode="%" horiz-adv-x="1938" d="M441 58l852 1325q11 17 31 17h146q23 0 31.5 -19.5t-5.5 -39.5l-851 -1323q-12 -18 -33 -18h-145q-23 0 -31 19t5 39zM1440 778q178 0 278 -110.5t100 -285.5t-100 -285.5t-278 -110.5t-278 110.5t-100 285.5t100 285.5t278 110.5zM1440 212q92 0 92 170t-92 170 t-92 -170t92 -170zM498 1414q178 0 278 -110.5t100 -285.5t-100 -285.5t-278 -110.5t-278 110.5t-100 285.5t100 285.5t278 110.5zM498 848q92 0 92 170t-92 170t-92 -170t92 -170z" />
<glyph unicode="&#x26;" horiz-adv-x="1540" d="M1110 1064q0 -128 -71.5 -212.5t-208.5 -149.5l200 -189q44 107 53 234q1 14 12 24.5t25 10.5h256q16 0 27 -11.5t10 -27.5q-14 -270 -147 -451l246 -228q20 -18 12.5 -41t-34.5 -23h-336l-101 94q-189 -116 -432 -116q-118 0 -216 25t-171 74t-113.5 127.5t-40.5 180.5 q0 131 71 221.5t202 153.5q-161 154 -161 306q0 160 121 259t336 99q214 0 337.5 -98t123.5 -262zM636 224q123 0 216 62l-296 282q-124 -80 -124 -190q0 -72 53 -113t151 -41zM534 1070q0 -55 26.5 -98t73.5 -88q142 74 142 176q0 57 -33.5 92.5t-90.5 35.5q-54 0 -86 -35 t-32 -83z" />
<glyph unicode="'" horiz-adv-x="694" d="M200 819l-29 542q-1 16 10 27.5t27 11.5h279q15 0 26 -11t11 -26v-45l-62 -500q-2 -14 -12.5 -24t-24.5 -10h-188q-14 0 -25 10.5t-12 24.5z" />
<glyph unicode="(" horiz-adv-x="844" d="M180 620q0 450 297 864q10 16 31 16h219q23 0 33.5 -18.5t-2.5 -38.5q-258 -419 -258 -823t258 -823q13 -20 2.5 -38.5t-33.5 -18.5h-219q-21 0 -31 16q-297 414 -297 864z" />
<glyph unicode=")" horiz-adv-x="844" d="M645 620q0 -450 -297 -864q-10 -16 -31 -16h-219q-23 0 -33.5 18.5t2.5 38.5q258 419 258 823t-258 823q-13 20 -2.5 38.5t33.5 18.5h219q21 0 31 -16q297 -414 297 -864z" />
<glyph unicode="*" horiz-adv-x="1108" d="M959 749l-204 -85l205 -86q16 -7 21 -22.5t-3 -30.5l-98 -170q-9 -15 -25.5 -18t-29.5 7l-176 136l28 -222q2 -17 -9 -29.5t-28 -12.5h-189q-18 0 -29 12.5t-9 29.5l29 223l-177 -137q-14 -10 -30.5 -6.5t-24.5 17.5l-98 170q-9 16 -3.5 31t21.5 22l206 86l-206 86 q-16 7 -20.5 22.5t3.5 30.5l96 168q8 15 25 19.5t31 -6.5l176 -136l-29 222q-2 18 9 30t29 12h190q17 0 28 -12t9 -30l-28 -222l177 136q13 11 29.5 7.5t24.5 -18.5l99 -173q8 -15 2 -30t-22 -21z" />
<glyph unicode="+" d="M456 197v343h-318q-16 0 -27 11t-11 26v174q0 16 11 26.5t27 10.5h318v343q0 15 11 26t26 11h226q15 0 26 -11t11 -26v-343h319q16 0 26.5 -10.5t10.5 -26.5v-174q0 -15 -10.5 -26t-26.5 -11h-319v-343q0 -16 -11 -26.5t-26 -10.5h-226q-15 0 -26 10.5t-11 26.5z" />
<glyph unicode="," horiz-adv-x="620" d="M130 157q0 179 180 179q89 0 134.5 -43t45.5 -157q0 -290 -245 -442q-13 -8 -27.5 -4.5t-23.5 16.5l-40 60q-7 10 -5.5 25t11.5 23q80 73 96 166q-126 22 -126 177z" />
<glyph unicode="-" horiz-adv-x="792" d="M655 530h-518q-15 0 -26 11t-11 26v194q0 16 11 26.5t26 10.5h518q16 0 26.5 -10.5t10.5 -26.5v-194q0 -15 -10.5 -26t-26.5 -11z" />
<glyph unicode="." horiz-adv-x="620" d="M490 156q0 -180 -180 -180t-180 180t180 180t180 -180z" />
<glyph unicode="/" horiz-adv-x="1120" d="M1110 1444l-816 -1644q-10 -20 -34 -20h-244q-22 0 -32.5 17t-0.5 37l814 1642q10 20 33 20h246q22 0 33 -16t1 -36z" />
<glyph unicode="0" horiz-adv-x="1270" d="M634 1424q281 0 435.5 -194.5t154.5 -529.5t-154.5 -529.5t-435.5 -194.5t-435.5 194.5t-154.5 529.5t154.5 529.5t435.5 194.5zM634 252q98 0 148 107.5t50 340.5t-50 340.5t-148 107.5t-148 -107.5t-50 -340.5t50 -340.5t148 -107.5z" />
<glyph unicode="1" horiz-adv-x="1270" d="M878 0h-301q-15 0 -26 11t-11 26v985l-196 -144q-13 -9 -27.5 -7t-23.5 14l-119 163q-9 13 -7 28t14 24l367 273q35 27 88 27h242q16 0 27 -11t11 -26v-1326q0 -15 -11 -26t-27 -11z" />
<glyph unicode="2" horiz-adv-x="1270" d="M728 982q0 166 -221 166q-143 0 -273 -70q-19 -11 -37 -2.5t-19 30.5l-12 191q-1 12 6 27.5t16 19.5q173 80 391 80q257 0 395 -113.5t138 -319.5q0 -181 -140.5 -376.5t-351.5 -342.5h457q15 0 26 -10.5t11 -26.5v-198q0 -15 -11 -26t-26 -11h-916q-15 0 -26 11t-11 26 v189q0 20 14 29q590 460 590 727z" />
<glyph unicode="3" horiz-adv-x="1270" d="M291 641v178q0 15 10.5 26t26.5 11q403 9 403 172q0 130 -213 130q-163 0 -297 -63q-19 -9 -35 -1t-18 28l-16 187q-1 11 6.5 25t16.5 18q175 72 405 72q250 0 390.5 -99.5t140.5 -270.5q0 -109 -53.5 -194t-170.5 -130q121 -46 182.5 -137.5t61.5 -197.5 q0 -191 -152 -305t-421 -114q-236 0 -409 63q-11 4 -19 16t-7 23l19 207q2 21 19 31t36 0q143 -74 311 -74q120 0 181.5 39.5t61.5 113.5q0 197 -423 209q-16 1 -26.5 11.5t-10.5 25.5z" />
<glyph unicode="4" horiz-adv-x="1270" d="M686 258h-601q-15 0 -26 11t-11 26v163q0 82 46 151l516 773q11 18 31 18h374q15 0 26 -11t11 -26v-823h117q15 0 26 -10.5t11 -26.5v-208q0 -15 -11 -26t-26 -11h-117v-221q0 -15 -11 -26t-26 -11h-292q-15 0 -26 11t-11 26v221zM686 1014l-314 -474h314v474z" />
<glyph unicode="5" horiz-adv-x="1270" d="M484 240q132 0 202 58t70 162q0 96 -71 145t-194 49q-130 0 -249 -38q-19 -6 -32.5 5t-13.5 31v711q0 15 10.5 26t26.5 11h833q16 0 27 -11t11 -26v-188q0 -16 -11 -26.5t-27 -10.5h-504v-254q64 12 128 12q202 0 330 -119.5t128 -324.5q0 -213 -158.5 -344.5 t-432.5 -131.5q-229 0 -388 58q-10 4 -16.5 17.5t-5.5 25.5l18 197q1 21 18 29.5t36 -1.5q118 -62 265 -62z" />
<glyph unicode="6" horiz-adv-x="1270" d="M781 1160q-146 0 -215.5 -66.5t-87.5 -233.5q110 72 270 72q194 0 322 -126t128 -346q0 -217 -145.5 -350.5t-380.5 -133.5q-279 0 -435.5 173t-156.5 514q0 377 170 569t489 192q182 0 336 -55q11 -4 19.5 -15t7.5 -22l-17 -196q-1 -21 -19 -29.5t-37 0.5 q-110 53 -248 53zM656 674q-98 0 -184 -64q1 -68 5.5 -117t16.5 -99.5t32 -81.5t54.5 -50.5t81.5 -19.5q72 0 115 56.5t43 159.5q0 107 -43 161.5t-121 54.5z" />
<glyph unicode="7" horiz-adv-x="1270" d="M1126 1363v-170q0 -66 -26 -128l-447 -1044q-4 -8 -14.5 -14.5t-19.5 -6.5h-329q-22 0 -32 15.5t-2 35.5l460 1067h-567q-15 0 -26 11t-11 26v208q0 15 11 26t26 11h940q15 0 26 -11t11 -26z" />
<glyph unicode="8" horiz-adv-x="1270" d="M636 -22q-262 0 -416 113t-154 299q0 119 63 211.5t187 148.5q-93 51 -142.5 126t-49.5 166q0 168 134.5 276t377.5 108q237 0 373.5 -106.5t136.5 -273.5q0 -93 -53.5 -169.5t-150.5 -126.5q262 -124 262 -360q0 -186 -153.5 -299t-414.5 -113zM824 384q0 131 -200 222 q-89 -40 -133.5 -98.5t-44.5 -123.5q0 -68 53.5 -110t136.5 -42q82 0 135 42t53 110zM480 1042q0 -65 37 -110t125 -82q148 74 148 194q0 56 -43 92t-111 36q-71 0 -113.5 -36.5t-42.5 -93.5z" />
<glyph unicode="9" horiz-adv-x="1270" d="M489 240q146 0 215.5 66.5t87.5 233.5q-110 -72 -270 -72q-194 0 -322 126t-128 346q0 217 145.5 350.5t380.5 133.5q279 0 435.5 -173t156.5 -514q0 -377 -170 -569t-489 -192q-182 0 -336 55q-11 4 -19.5 15t-7.5 22l17 196q1 21 19 29.5t37 -0.5q110 -53 248 -53z M614 726q98 0 184 64q-1 68 -5.5 117t-16.5 99.5t-32 81.5t-54.5 50.5t-81.5 19.5q-72 0 -115 -56.5t-43 -159.5q0 -107 43 -161.5t121 -54.5z" />
<glyph unicode=":" horiz-adv-x="620" d="M490 156q0 -180 -180 -180t-180 180t180 180t180 -180zM490 876q0 -180 -180 -180t-180 180t180 180t180 -180z" />
<glyph unicode=";" horiz-adv-x="620" d="M130 876q0 180 178 180q92 0 136 -44t44 -136t-44 -136t-136 -44q-178 0 -178 180zM130 157q0 179 180 179q89 0 134.5 -43t45.5 -157q0 -290 -245 -442q-13 -8 -27.5 -4.5t-23.5 16.5l-40 60q-7 10 -5.5 25t11.5 23q80 73 96 166q-126 22 -126 177z" />
<glyph unicode="&#x3c;" d="M126 839l938 332q19 7 33.5 -4t14.5 -32v-220q0 -11 -8 -21.5t-18 -13.5l-675 -216l675 -216q10 -4 18 -14.5t8 -21.5v-219q0 -20 -15 -31t-34 -4l-937 331q-10 4 -18 14.5t-8 20.5v280q0 10 8 21t18 14z" />
<glyph unicode="=" d="M1075 770h-937q-16 0 -27 11t-11 26v174q0 16 11 26.5t27 10.5h937q16 0 26.5 -10.5t10.5 -26.5v-174q0 -15 -10.5 -26t-26.5 -11zM1075 306h-937q-16 0 -27 11t-11 26v174q0 16 11 26.5t27 10.5h937q16 0 26.5 -10.5t10.5 -26.5v-174q0 -15 -10.5 -26t-26.5 -11z" />
<glyph unicode="&#x3e;" d="M148 1171l938 -332q10 -3 18 -14t8 -21v-280q0 -10 -8 -20.5t-18 -14.5l-937 -331q-19 -7 -34 4t-15 31v219q0 11 8 21.5t18 14.5l675 216l-675 216q-10 3 -18 13.5t-8 21.5v220q0 21 14.5 32t33.5 4z" />
<glyph unicode="?" horiz-adv-x="1142" d="M508 860q69 47 97 88t28 90q0 47 -45.5 75.5t-141.5 28.5q-156 0 -296 -75q-19 -10 -36 -0.5t-18 31.5l-15 197q-2 29 20 41q79 40 184 64t207 24q247 0 388 -99.5t141 -272.5q0 -209 -243 -376q-54 -37 -77.5 -82t-23.5 -114v-33q0 -15 -11 -26t-26 -11h-292 q-15 0 -26 11t-11 26v37q0 135 42.5 217.5t154.5 158.5zM687 144q0 -87 -44 -127.5t-150 -40.5t-150 40.5t-44 127.5t44 127.5t150 40.5t150 -40.5t44 -127.5z" />
<glyph unicode="@" horiz-adv-x="1930" d="M1401 854q33 -44 18 -110l-53 -253q-6 -28 -6 -65q0 -76 32.5 -118t80.5 -42q67 0 114 89.5t47 233.5q0 138 -47.5 257t-134 205.5t-214.5 135.5t-282 49q-185 0 -336.5 -90t-237.5 -247t-86 -349q0 -197 89.5 -354.5t247 -244.5t352.5 -87q244 0 429 121q15 10 32.5 5.5 t24.5 -20.5l49 -108q6 -13 1 -26.5t-17 -21.5q-236 -139 -528 -139q-183 0 -346.5 64t-284 177t-191 277.5t-70.5 356.5q0 152 45 288.5t125.5 242.5t189 183.5t240 118.5t272.5 41q185 0 348.5 -60.5t282.5 -168t188 -265t69 -341.5q0 -225 -105 -360t-291 -135 q-192 0 -260 152q-127 -142 -343 -142q-169 0 -269 101t-100 259q0 117 46.5 221.5t123 178t178 116t209.5 42.5q244 0 368 -168zM886 336q124 0 198 88l64 320q-38 44 -120 44q-105 0 -185.5 -93.5t-80.5 -222.5q0 -67 33.5 -101.5t90.5 -34.5z" />
<glyph unicode="A" horiz-adv-x="1440" d="M489 1400h448q32 0 42 -31l433 -1320q7 -22 -3.5 -35.5t-31.5 -13.5h-313q-34 0 -43 33l-74 255h-469l-73 -255q-9 -33 -43 -33h-313q-21 0 -31.5 13.5t-3.5 35.5l433 1320q10 31 42 31zM713 1105l-154 -535h307z" />
<glyph unicode="B" horiz-adv-x="1378" d="M140 38v1324q0 16 11 27t27 11h528q259 0 403.5 -101t144.5 -280q0 -85 -38 -158.5t-122 -116.5q114 -44 168 -131t54 -191q0 -208 -151.5 -315t-433.5 -107h-553q-16 0 -27 11t-11 27zM940 424q0 83 -56 127.5t-168 44.5h-200v-344h200q112 0 168 44.5t56 127.5z M876 998q0 73 -49.5 111.5t-144.5 38.5h-166v-302h166q95 0 144.5 39.5t49.5 112.5z" />
<glyph unicode="C" horiz-adv-x="1310" d="M1165 317q21 11 40 3t20 -30l18 -207q3 -33 -27 -45q-161 -64 -374 -64q-354 0 -561 196.5t-207 529.5q0 330 206 527t557 197q215 0 370 -65q30 -12 27 -45l-17 -204q-1 -22 -20.5 -29.5t-39.5 2.5q-115 55 -261 55q-205 0 -317.5 -116.5t-112.5 -321.5 q0 -211 115.5 -326.5t321.5 -115.5q145 0 262 59z" />
<glyph unicode="D" horiz-adv-x="1456" d="M1386 700q-1 -172 -56 -305.5t-156 -219.5t-240 -130.5t-310 -44.5h-446q-16 0 -27 11t-11 27v1324q0 16 11 27t27 11h446q171 0 310 -44.5t240 -131t156 -220t56 -304.5zM994 698q0 228 -95.5 329t-286.5 101h-84v-856h84q190 0 286 100.5t96 325.5z" />
<glyph unicode="E" horiz-adv-x="1246" d="M140 38v1324q0 16 11 27t27 11h935q15 0 26 -11t11 -27v-196q0 -16 -11 -27t-26 -11h-585v-280h538q16 0 27 -11t11 -27v-196q0 -16 -11 -27t-27 -11h-538v-304h600q16 0 27 -11t11 -27v-196q0 -16 -11 -27t-27 -11h-950q-16 0 -27 11t-11 27z" />
<glyph unicode="F" horiz-adv-x="1196" d="M140 38v1324q0 16 11 27t27 11h934q16 0 27 -11t11 -27v-196q0 -16 -11 -27t-27 -11h-584v-280h538q16 0 27 -11t11 -27v-196q0 -16 -11 -27t-27 -11h-538v-538q0 -16 -11 -27t-27 -11h-312q-16 0 -27 11t-11 27z" />
<glyph unicode="G" horiz-adv-x="1510" d="M1327 1343q30 -12 27 -45l-17 -204q-1 -22 -20.5 -29.5t-39.5 2.5q-159 77 -345 77q-215 0 -340.5 -116.5t-125.5 -327.5q0 -213 120 -328.5t322 -115.5q77 0 130 15v289h-235q-15 0 -26 11t-11 27v166q0 16 11 27t26 11h545q16 0 27 -11t11 -27v-664q0 -34 -33 -47 q-195 -77 -457 -77q-383 0 -602.5 196.5t-219.5 527.5q0 157 53.5 289t153 229t251.5 151.5t341 54.5q250 0 454 -81z" />
<glyph unicode="H" horiz-adv-x="1528" d="M140 38v1324q0 16 11 27t27 11h312q16 0 27 -11t11 -27v-478h472v478q0 16 11 27t27 11h312q16 0 27 -11t11 -27v-1324q0 -16 -11 -27t-27 -11h-312q-16 0 -27 11t-11 27v564h-472v-564q0 -16 -11 -27t-27 -11h-312q-16 0 -27 11t-11 27z" />
<glyph unicode="I" horiz-adv-x="688" d="M188 1400h313q15 0 26 -11t11 -27v-1324q0 -16 -11 -27t-26 -11h-313q-16 0 -27 11t-11 27v1324q0 16 11 27t27 11z" />
<glyph unicode="J" horiz-adv-x="1044" d="M516 478v884q0 16 11 27t27 11h312q16 0 27 -11t11 -27v-882q0 -252 -135 -378t-398 -126q-187 0 -326 58q-32 14 -29 46l17 210q2 23 19.5 31t36.5 -2q109 -59 230 -59q101 0 149 50.5t48 167.5z" />
<glyph unicode="K" horiz-adv-x="1436" d="M528 1362v-558l399 574q15 22 40 22h341q26 0 34.5 -18t-7.5 -43l-421 -593l499 -687q15 -20 6 -39.5t-34 -19.5h-363q-25 0 -40 21l-454 670v-653q0 -16 -11 -27t-27 -11h-312q-16 0 -27 11t-11 27v1324q0 16 11 27t27 11h312q16 0 27 -11t11 -27z" />
<glyph unicode="L" horiz-adv-x="1228" d="M140 38v1324q0 16 11 27t26 11h313q16 0 27 -11t11 -27v-1080h632q16 0 27 -11t11 -27v-206q0 -16 -11 -27t-27 -11h-983q-15 0 -26 11t-11 27z" />
<glyph unicode="M" horiz-adv-x="1844" d="M1053 424h-262q-31 0 -46 28l-237 438v-852q0 -16 -11 -27t-27 -11h-292q-16 0 -27 11t-11 27v1324q0 16 11 27t27 11h377q31 0 46 -28l321 -600l321 600q15 28 46 28h377q16 0 27 -11t11 -27v-1324q0 -16 -11 -27t-27 -11h-292q-16 0 -27 11t-11 27v852l-237 -438 q-15 -28 -46 -28z" />
<glyph unicode="N" horiz-adv-x="1532" d="M1024 504v858q0 16 11.5 27t26.5 11h292q16 0 27 -11t11 -27v-1324q0 -16 -11 -27t-27 -11h-369q-32 0 -47 28l-430 868v-858q0 -16 -11.5 -27t-26.5 -11h-292q-16 0 -27 11t-11 27v1324q0 16 11 27t27 11h369q32 0 47 -28z" />
<glyph unicode="O" horiz-adv-x="1528" d="M1458 700q0 -156 -46 -288t-132 -229t-218.5 -152t-297.5 -55t-297.5 55t-218.5 152t-132 229t-46 288t46 288t132 229t218.5 152t297.5 55t297.5 -55t218.5 -152t132 -229t46 -288zM1066 700q0 214 -79 331t-223 117t-223 -117t-79 -331t79 -331t223 -117t223 117 t79 331z" />
<glyph unicode="P" horiz-adv-x="1312" d="M1258 928q0 -231 -158.5 -351.5t-433.5 -120.5h-150v-418q0 -16 -11 -27t-27 -11h-300q-16 0 -27 11t-11 27v1324q0 16 11 27t27 11h488q276 0 434 -119.5t158 -352.5zM878 928q0 109 -59 156.5t-175 47.5h-128v-408h128q115 0 174.5 48t59.5 156z" />
<glyph unicode="Q" horiz-adv-x="1526" d="M1458 700q0 -176 -56 -319t-168.5 -243.5t-271.5 -138.5q41 -99 207 -99q76 0 152 17q17 5 30.5 -3t15.5 -25l20 -178q2 -14 -6.5 -25t-23.5 -14q-101 -20 -226 -20q-192 0 -325 82.5t-173 251.5q-269 40 -416 234t-147 480q0 156 46 288t132 229t218.5 152t297.5 55 t297.5 -55t218.5 -152t132 -229t46 -288zM1066 700q0 214 -79 331t-223 117t-223 -117t-79 -331t79 -331t223 -117t223 117t79 331z" />
<glyph unicode="R" horiz-adv-x="1378" d="M636 492h-120v-454q0 -16 -11 -27t-27 -11h-301q-15 0 -26 11t-11 27v1324q0 16 11 27t26 11h503q175 0 304.5 -47t205.5 -147.5t76 -247.5q0 -131 -68.5 -237t-217.5 -167l349 -494q15 -20 6.5 -40t-32.5 -20h-318q-31 0 -48 26zM886 958q0 180 -216 180h-154v-358h154 q216 0 216 178z" />
<glyph unicode="S" d="M175 355q166 -97 357 -97q89 0 150.5 32t61.5 93t-55.5 102t-209.5 91q-200 63 -297.5 167t-97.5 263q0 195 148 306.5t418 111.5q212 0 380 -57q32 -11 29 -45l-17 -203q-2 -24 -19 -33.5t-41 -1.5q-172 54 -300 54q-105 0 -155.5 -31.5t-50.5 -80.5q0 -57 53.5 -97 t199.5 -88q209 -69 308 -176.5t99 -265.5q0 -203 -143.5 -313t-424.5 -110q-243 0 -446 91q-32 14 -29 45l19 215q2 24 21.5 32.5t41.5 -4.5z" />
<glyph unicode="T" horiz-adv-x="1204" d="M409 38v1082h-351q-15 0 -26.5 11t-11.5 27v204q0 16 11.5 27t26.5 11h1088q16 0 27 -11t11 -27v-204q0 -16 -11 -27t-27 -11h-351v-1082q0 -16 -11 -27t-27 -11h-310q-16 0 -27 11t-11 27z" />
<glyph unicode="U" horiz-adv-x="1544" d="M773 -24q-294 0 -463.5 151.5t-169.5 446.5v788q0 16 11 27t26 11h313q16 0 27 -11t11 -27v-788q0 -158 59 -235t186 -77q126 0 184.5 77t58.5 235v788q0 16 11 27t26 11h314q15 0 26 -11t11 -27v-788q0 -149 -45 -263t-128.5 -187.5t-198.5 -110.5t-259 -37z" />
<glyph unicode="V" horiz-adv-x="1488" d="M963 0h-448q-32 0 -42 31l-433 1320q-7 22 3.5 35.5t31.5 13.5h313q34 0 43 -33l308 -1072l308 1072q9 33 43 33h313q21 0 31.5 -13.5t3.5 -35.5l-433 -1320q-10 -31 -42 -31z" />
<glyph unicode="W" horiz-adv-x="2088" d="M856 1400h364q33 0 40 -32l182 -972l214 976q7 28 37 28h311q20 0 30 -14t5 -34l-362 -1320q-8 -32 -40 -32h-381q-33 0 -40 32l-178 940l-178 -940q-7 -32 -40 -32h-381q-32 0 -40 32l-362 1320q-5 20 5 34t30 14h311q30 0 37 -28l214 -976l182 972q7 32 40 32z" />
<glyph unicode="X" horiz-adv-x="1472" d="M988 22l-272 434l-272 -434q-13 -22 -42 -22h-334q-26 0 -35 19t6 41l421 652l-403 628q-15 22 -6 41t35 19h334q29 0 42 -22l254 -411l254 411q13 22 42 22h334q26 0 35 -19t-6 -41l-403 -628l421 -652q15 -22 6 -41t-35 -19h-334q-29 0 -42 22z" />
<glyph unicode="Y" horiz-adv-x="1484" d="M440 1379l286 -499l286 499q13 21 42 21h319q26 0 35.5 -16.5t-3.5 -37.5l-485 -795v-513q0 -16 -11 -27t-27 -11h-312q-16 0 -27 11t-11 27v513l-485 795q-13 21 -3.5 37.5t35.5 16.5h319q29 0 42 -21z" />
<glyph unicode="Z" horiz-adv-x="1218" d="M84 314l606 804h-570q-16 0 -27 11t-11 27v206q0 16 11 27t27 11h986q15 0 26.5 -11t11.5 -27v-186q0 -50 -28 -87l-612 -807h623q15 0 26 -11t11 -27v-206q0 -16 -11 -27t-26 -11h-1035q-16 0 -27 11t-11 27v186q0 51 30 90z" />
<glyph unicode="[" horiz-adv-x="892" d="M220 -223v1686q0 15 11 26t26 11h558q15 0 26 -11t11 -26v-170q0 -16 -11 -26.5t-26 -10.5h-275v-1272h275q15 0 26 -11t11 -27v-169q0 -15 -11 -26t-26 -11h-558q-15 0 -26 11t-11 26z" />
<glyph unicode="\" horiz-adv-x="1120" d="M801 -200l-818 1644q-10 20 -2 36t30 16h248q24 0 34 -20l817 -1642q10 -20 1.5 -37t-30.5 -17h-246q-25 0 -34 20z" />
<glyph unicode="]" horiz-adv-x="892" d="M672 1463v-1686q0 -15 -11 -26t-26 -11h-558q-15 0 -26 11t-11 26v169q0 16 11 27t26 11h275v1272h-275q-15 0 -26 10.5t-11 26.5v170q0 15 11 26t26 11h558q15 0 26 -11t11 -26z" />
<glyph unicode="^" d="M589 1152l-224 -396q-4 -7 -14.5 -12.5t-18.5 -5.5h-244q-23 0 -33.5 17t0.5 37l345 589q4 7 14 13t18 6h314q8 0 18 -6t14 -13l345 -588q11 -19 1 -37t-33 -18h-246q-8 0 -18 5.5t-14 12.5z" />
<glyph unicode="_" horiz-adv-x="1000" d="M0 -297v56q0 15 11 26t26 11h926q15 0 26 -11t11 -26v-61q0 -16 -11 -27t-26 -11h-926q-15 0 -26 13.5t-11 29.5z" />
<glyph unicode="`" horiz-adv-x="920" d="M498 1444l185 -265q14 -19 4 -39t-35 -20h-174q-15 0 -26 11l-264 266q-18 19 -9 41t35 22h254q6 0 16 -5.5t14 -10.5z" />
<glyph unicode="a" horiz-adv-x="1172" d="M528 200q121 0 176 66v174h-156q-160 0 -160 -126q0 -56 37 -85t103 -29zM160 979q181 81 419 81q259 0 371 -93.5t112 -305.5v-624q0 -15 -10.5 -26t-26.5 -11h-284q-16 0 -26.5 11t-10.5 26v35q-106 -96 -288 -96q-158 0 -260 89.5t-102 238.5q0 169 121.5 264.5 t359.5 95.5h169v47q0 61 -40 87t-135 26q-164 0 -316 -66q-20 -9 -35.5 -1t-18.5 28l-21 152q-4 30 22 42z" />
<glyph unicode="b" horiz-adv-x="1260" d="M482 74v-37q0 -15 -11 -26t-26 -11h-294q-15 0 -26 11t-11 26v1386q0 15 11 26t26 11h294q15 0 26 -11t11 -26v-460q53 49 123.5 73t140.5 24q194 0 322 -148.5t128 -393.5q0 -247 -128 -394.5t-322 -147.5q-163 0 -264 98zM482 760v-484q57 -60 148 -60q194 0 194 302 t-194 302q-91 0 -148 -60z" />
<glyph unicode="c" horiz-adv-x="1052" d="M970 25q-116 -49 -285 -49q-292 0 -456.5 144t-164.5 398q0 252 165.5 397t450.5 145q161 0 282 -48q30 -11 27 -45l-14 -159q-2 -21 -19 -28t-39 3q-88 37 -197 37q-131 0 -207.5 -79.5t-76.5 -222.5q0 -144 76.5 -223t212.5 -79q115 0 200 38q22 10 39 3t19 -28 l14 -159q3 -32 -27 -45z" />
<glyph unicode="d" horiz-adv-x="1260" d="M778 37v37q-101 -98 -264 -98q-194 0 -322 147.5t-128 394.5q0 245 128 393.5t322 148.5q70 0 140.5 -24t123.5 -73v460q0 15 11 26t26 11h294q15 0 26 -11t11 -26v-1386q0 -15 -11 -26t-26 -11h-294q-15 0 -26 11t-11 26zM778 276v484q-57 60 -148 60q-194 0 -194 -302 t194 -302q91 0 148 60z" />
<glyph unicode="e" horiz-adv-x="1180" d="M592 830q-80 0 -126 -52t-50 -150h354q-6 98 -52 150t-126 52zM953 248q23 10 39 3t18 -29l15 -148q3 -32 -27 -45q-126 -53 -319 -53q-157 0 -277 41.5t-192.5 115.5t-109 171.5t-36.5 215.5q0 249 142.5 394.5t384.5 145.5q250 0 389.5 -151t139.5 -403q0 -44 -2 -68 q-2 -14 -12.5 -24t-24.5 -10h-665q20 -206 284 -206q146 0 253 50z" />
<glyph unicode="f" horiz-adv-x="850" d="M802 1223q-39 9 -87 9q-69 0 -102 -33.5t-33 -110.5v-52h223q15 0 26 -11t11 -26v-160q0 -15 -11 -26t-26 -11h-223v-765q0 -15 -11 -26t-26 -11h-294q-15 0 -26 11t-11 26v765h-155q-15 0 -26 11t-11 26v160q0 15 11 26t26 11h155v45q0 379 421 379q105 0 203 -21 q34 -7 31 -39l-17 -150q-5 -37 -48 -27z" />
<glyph unicode="g" horiz-adv-x="1256" d="M211 -338q-30 13 -27 45l12 169q2 22 19 29.5t39 -4.5q120 -67 259 -67q123 0 192 54t69 166v50q-95 -98 -258 -98q-193 0 -322.5 145.5t-129.5 380.5t129.5 381.5t322.5 146.5q159 0 258 -98v37q0 15 11 26t26 11h294q15 0 26 -11t11 -26v-897q0 -265 -135.5 -383.5 t-451.5 -118.5q-193 0 -344 62zM436 532q0 -144 51 -215t137 -71q96 0 150 60v454q-57 60 -150 60q-86 0 -137 -71.5t-51 -216.5z" />
<glyph unicode="h" horiz-adv-x="1278" d="M631 820q-95 0 -149 -60v-723q0 -15 -11 -26t-26 -11h-294q-15 0 -26 11t-11 26v1386q0 15 11 26t26 11h294q15 0 26 -11t11 -26v-461q50 48 125.5 73t149.5 25q203 0 309 -127t106 -373v-523q0 -15 -11 -26t-26 -11h-293q-16 0 -27 11t-11 26v510q0 147 -41 210t-132 63 z" />
<glyph unicode="i" horiz-adv-x="616" d="M124 37v962q0 15 10.5 26t26.5 11h294q16 0 26.5 -11t10.5 -26v-962q0 -15 -10.5 -26t-26.5 -11h-294q-16 0 -26.5 11t-10.5 26zM104 1296q0 85 48 124.5t156 39.5t156 -39.5t48 -124.5t-48 -124.5t-156 -39.5t-156 39.5t-48 124.5z" />
<glyph unicode="j" horiz-adv-x="658" d="M153 1296q0 85 48 124.5t156 39.5t156 -39.5t48 -124.5t-48 -124.5t-156 -39.5t-156 39.5t-48 124.5zM-58 -150q40 -10 78 -10q80 0 116.5 44t36.5 136v979q0 15 11 26t26 11h294q15 0 26 -11t11 -26v-965q0 -103 -22.5 -179.5t-74.5 -135.5t-142.5 -89t-219.5 -30 q-90 0 -172 18q-31 6 -28 40l13 162q1 19 14.5 27t32.5 3z" />
<glyph unicode="k" horiz-adv-x="1216" d="M482 635l266 381q14 20 41 20h322q24 0 32 -20t-7 -39l-306 -405l341 -514q14 -20 6 -39t-31 -19h-329q-30 0 -41 20l-294 485v-468q0 -15 -11 -26t-26 -11h-294q-15 0 -26 11t-11 26v1386q0 15 11 26t26 11h294q15 0 26 -11t11 -26v-788z" />
<glyph unicode="l" horiz-adv-x="616" d="M124 37v1386q0 15 10.5 26t26.5 11h294q16 0 26.5 -11t10.5 -26v-1386q0 -15 -10.5 -26t-26.5 -11h-294q-16 0 -26.5 11t-10.5 26z" />
<glyph unicode="m" horiz-adv-x="1890" d="M747 1060q197 0 295 -141q66 71 155 106t183 35q191 0 297.5 -122.5t106.5 -362.5v-538q0 -15 -11 -26t-26 -11h-294q-15 0 -26 11t-11 26v553q0 124 -35 177t-101 53q-42 0 -88.5 -20t-75.5 -55q18 -86 18 -170v-538q0 -15 -10.5 -26t-26.5 -11h-296q-16 0 -26.5 11 t-10.5 26v553q0 126 -33.5 178t-103.5 52q-84 0 -145 -61v-722q0 -15 -11 -26t-26 -11h-294q-15 0 -26 11t-11 26v962q0 15 11 26t26 11h294q15 0 26 -10.5t11 -25.5v-38q108 98 265 98z" />
<glyph unicode="n" horiz-adv-x="1278" d="M631 820q-41 0 -82 -16t-67 -44v-723q0 -15 -11 -26t-26 -11h-294q-15 0 -26 11t-11 26v962q0 15 11 26t26 11h294q15 0 26 -11t11 -26v-37q108 98 275 98q203 0 309 -127t106 -373v-523q0 -15 -11 -26t-26 -11h-293q-16 0 -27 11t-11 26v513q0 145 -42 207.5t-131 62.5z " />
<glyph unicode="o" horiz-adv-x="1256" d="M628 -24q-256 0 -410 149.5t-154 392.5q0 242 154 392t410 150t410 -150t154 -392q0 -243 -154 -392.5t-410 -149.5zM628 216q90 0 141 76.5t51 225.5t-51 225.5t-141 76.5t-141 -76.5t-51 -225.5t51 -225.5t141 -76.5z" />
<glyph unicode="p" horiz-adv-x="1260" d="M482 74v-423q0 -15 -11 -26t-26 -11h-294q-15 0 -26 11t-11 26v1348q0 15 11 26t26 11h294q15 0 26 -11t11 -26v-36q53 49 123.5 73t140.5 24q194 0 322 -148.5t128 -393.5q0 -247 -128 -394.5t-322 -147.5q-163 0 -264 98zM482 760v-484q57 -60 148 -60q194 0 194 302 t-194 302q-91 0 -148 -60z" />
<glyph unicode="q" horiz-adv-x="1260" d="M778 -349v423q-101 -98 -264 -98q-194 0 -322 147.5t-128 394.5q0 245 128 393.5t322 148.5q70 0 140.5 -24t123.5 -73v36q0 15 11 26t26 11h294q15 0 26 -11t11 -26v-1348q0 -15 -11 -26t-26 -11h-294q-15 0 -26 11t-11 26zM778 276v484q-57 60 -148 60 q-194 0 -194 -302t194 -302q91 0 148 60z" />
<glyph unicode="r" horiz-adv-x="890" d="M854 1041q30 -10 27 -40l-24 -192q-5 -39 -45 -25q-50 18 -113 18q-79 0 -136 -40t-81 -113v-612q0 -15 -11 -26t-26 -11h-294q-15 0 -26 11t-11 26v962q0 15 11 26t26 11h294q15 0 26 -11t11 -26v-57q45 61 111 89.5t137 28.5q69 0 124 -19z" />
<glyph unicode="s" horiz-adv-x="1024" d="M143 292q146 -76 294 -76q74 0 107.5 21t33.5 64q0 39 -42.5 66.5t-163.5 64.5q-294 90 -294 315q0 153 117 233t334 80q185 0 343 -58q30 -11 27 -45l-16 -157q-2 -21 -18.5 -29t-38.5 1q-122 48 -241 48q-73 0 -104 -16.5t-31 -48.5q0 -40 41.5 -67t158.5 -65 q158 -51 229 -127.5t71 -184.5q0 -162 -117 -248.5t-341 -86.5q-222 0 -389 69q-30 13 -27 45l10 174q2 22 19 30t38 -2z" />
<glyph unicode="t" horiz-adv-x="914" d="M804 224q18 3 30.5 -5.5t13.5 -26.5l15 -161q3 -33 -33 -40q-79 -15 -175 -15q-114 0 -196 23t-133.5 64t-81.5 109.5t-41 147t-11 188.5v292h-125q-16 0 -26.5 11t-10.5 26v162q0 15 10.5 26t26.5 11h125v273q0 15 11 26t26 11h294q15 0 26 -11t11 -26v-273h253 q16 0 26.5 -11t10.5 -26v-162q0 -15 -10.5 -26t-26.5 -11h-253v-374q0 -122 36.5 -166t120.5 -44q44 0 87 8z" />
<glyph unicode="u" horiz-adv-x="1278" d="M647 216q41 0 82 16t67 44v723q0 15 11 26t26 11h294q15 0 26 -11t11 -26v-962q0 -15 -11 -26t-26 -11h-294q-15 0 -26 11t-11 26v37q-108 -98 -275 -98q-203 0 -309 127t-106 373v523q0 15 11 26t26 11h293q16 0 27 -11t11 -26v-513q0 -145 42 -207.5t131 -62.5z" />
<glyph unicode="v" horiz-adv-x="1208" d="M760 0h-334q-34 0 -45 32l-351 954q-7 19 4 34.5t31 15.5h294q33 0 43 -31l193 -654l193 654q10 31 43 31h294q20 0 31 -15.5t4 -34.5l-352 -955q-12 -31 -48 -31z" />
<glyph unicode="w" horiz-adv-x="1776" d="M744 1036h273q12 0 23 -8.5t14 -19.5l163 -648l165 648q3 11 13.5 19.5t22.5 8.5h286q20 0 28 -14.5t2 -33.5l-301 -962q-3 -11 -13.5 -18.5t-21.5 -7.5h-339q-12 0 -22.5 8.5t-13.5 20.5l-142 595l-141 -595q-3 -12 -14 -20.5t-22 -8.5h-339q-11 0 -21.5 7.5t-13.5 17.5 l-302 963q-6 19 2 33.5t28 14.5h286q11 0 22 -8.5t14 -19.5l165 -649l163 650q3 11 14 19t22 8z" />
<glyph unicode="x" horiz-adv-x="1156" d="M558 298l-168 -275q-14 -23 -45 -23h-291q-24 0 -32 19t5 39l307 476l-285 444q-13 20 -5 39t32 19h291q31 0 45 -23l146 -245l146 245q14 23 45 23h291q24 0 32 -19t-5 -39l-285 -444l307 -476q13 -20 5 -39t-32 -19h-291q-31 0 -45 23z" />
<glyph unicode="y" horiz-adv-x="1214" d="M1165 985l-481 -1341q-11 -30 -46 -30h-294q-20 0 -28.5 14.5t-1.5 34.5l117 328l-401 994q-8 20 0.5 35.5t28.5 15.5h298q29 0 39 -27l213 -618l188 618q8 27 39 27h300q20 0 28 -15.5t1 -35.5z" />
<glyph unicode="z" horiz-adv-x="1030" d="M44 37v143q0 50 35 91l447 529h-419q-15 0 -26 11t-11 26v162q0 15 11 26t26 11h822q15 0 26 -11t11 -26v-143q0 -49 -37 -94l-441 -526h461q16 0 26.5 -11t10.5 -26v-162q0 -15 -10.5 -26t-26.5 -11h-868q-15 0 -26 11t-11 26z" />
<glyph unicode="{" horiz-adv-x="912" d="M312 -10v309q0 80 -42.5 133t-100.5 65q-12 2 -20.5 13t-8.5 23v174q0 11 8.5 22t20.5 14q58 13 100.5 65.5t42.5 132.5v309q0 123 78 186.5t210 63.5h235q15 0 26 -11t11 -26v-170q0 -16 -11 -26.5t-26 -10.5h-127q-41 0 -58.5 -19t-17.5 -61v-297q0 -210 -204 -259 q108 -27 156 -91.5t48 -167.5v-297q0 -42 17.5 -61t58.5 -19h127q15 0 26 -11t11 -27v-169q0 -15 -11 -26t-26 -11h-235q-132 0 -210 63.5t-78 186.5z" />
<glyph unicode="|" horiz-adv-x="634" d="M190 -363v1864q0 15 11 26t26 11h180q16 0 26.5 -11t10.5 -26v-1864q0 -15 -10.5 -26t-26.5 -11h-180q-15 0 -26 11t-11 26z" />
<glyph unicode="}" horiz-adv-x="912" d="M600 299v-309q0 -123 -78 -186.5t-210 -63.5h-235q-15 0 -26 11t-11 26v169q0 16 11 27t26 11h127q41 0 58.5 19t17.5 61v297q0 103 48 167.5t156 91.5q-204 49 -204 259v297q0 42 -17.5 61t-58.5 19h-127q-15 0 -26 10.5t-11 26.5v170q0 15 11 26t26 11h235 q132 0 210 -63.5t78 -186.5v-309q0 -80 42.5 -132.5t100.5 -65.5q12 -3 20.5 -14t8.5 -22v-174q0 -12 -8.5 -23t-20.5 -13q-58 -12 -100.5 -65t-42.5 -133z" />
<glyph unicode="~" d="M829 458q-99 0 -206 62q-95 56 -151 56q-32 0 -49.5 -16.5t-21.5 -62.5q-2 -14 -12.5 -24.5t-24.5 -10.5h-226q-16 0 -27 11t-11 27q4 188 72.5 279t211.5 91q96 0 205 -64q95 -54 152 -54q31 0 47.5 17t21.5 63q2 14 13 24t24 10h227q16 0 27 -11t10 -27 q-6 -188 -72.5 -279t-209.5 -91z" />
<glyph unicode="&#xa1;" horiz-adv-x="708" d="M504 584l44 -611v-300q0 -15 -11 -26t-26 -11h-314q-16 0 -26.5 11t-10.5 26v300l43 611q1 14 12 24t25 10h227q15 0 25.5 -9.5t11.5 -24.5zM548 892q0 -87 -44 -127.5t-150 -40.5t-150 40.5t-44 127.5t44 127.5t150 40.5t150 -40.5t44 -127.5z" />
<glyph unicode="&#xa2;" horiz-adv-x="1052" d="M970 25q-80 -34 -200 -45v-178q0 -15 -11 -26t-26 -11h-120q-16 0 -26.5 11t-10.5 26v180q-243 26 -377.5 166.5t-134.5 369.5q0 227 136.5 368.5t375.5 167.5v180q0 15 10.5 26t26.5 11h120q15 0 26 -11t11 -26v-178q106 -11 192 -44q30 -11 27 -45l-14 -159 q-2 -21 -19 -28t-39 3q-88 37 -197 37q-131 0 -207.5 -79.5t-76.5 -222.5q0 -144 76.5 -223t212.5 -79q115 0 200 38q22 10 39 3t19 -28l14 -159q3 -32 -27 -45z" />
<glyph unicode="&#xa3;" horiz-adv-x="1222" d="M46 664v93q0 15 11 26t26 11h117v204q0 211 128 318.5t368 107.5q202 0 381 -71q10 -4 17 -15.5t6 -22.5l-16 -192q-1 -21 -18 -30.5t-36 -0.5q-113 56 -244 56q-107 0 -153.5 -37.5t-46.5 -120.5v-196h325q16 0 26.5 -11t10.5 -26v-93q0 -16 -10.5 -27t-26.5 -11h-325 v-106q0 -115 -106 -248h665q16 0 26.5 -10.5t10.5 -26.5v-198q0 -15 -10.5 -26t-26.5 -11h-1048q-15 0 -26 11t-11 26v193q0 19 15 30q125 94 125 234v132h-117q-15 0 -26 11t-11 27z" />
<glyph unicode="&#xa4;" horiz-adv-x="1464" d="M255 665q0 106 44 203l-153 157q-11 10 -11 26.5t10 27.5l141 147q11 11 27 11t27 -11l161 -164q98 46 222 46q114 0 218 -46l161 164q11 11 26.5 11t26.5 -11l141 -147q11 -11 11.5 -26.5t-9.5 -26.5l-155 -158q44 -95 44 -203q0 -113 -44 -205l155 -159q10 -11 10 -26 t-11 -26l-141 -147q-11 -11 -27 -11t-27 11l-161 162q-103 -44 -218 -44q-118 0 -222 44l-161 -162q-11 -12 -27 -12t-27 12l-142 148q-10 10 -10 26t10 26l155 158q-44 89 -44 205zM889 664q0 91 -41.5 144.5t-126.5 53.5t-126.5 -53.5t-41.5 -144.5t41.5 -144.5 t126.5 -53.5t126.5 53.5t41.5 144.5z" />
<glyph unicode="&#xa5;" horiz-adv-x="1364" d="M125 589v62q0 15 11 26t27 11h236l-355 657q-11 20 -1 37.5t33 17.5h329q9 0 19.5 -7t14.5 -16l228 -517l228 517q4 9 14.5 16t19.5 7h328q23 0 33.5 -17t-0.5 -37l-357 -658h237q15 0 26 -11t11 -26v-62q0 -15 -11 -26t-26 -11h-309v-130h307q15 0 26 -11t11 -27v-61 q0 -15 -11 -26t-26 -11h-307v-249q0 -15 -11 -26t-26 -11h-313q-16 0 -27 11t-11 26v249h-310q-16 0 -27 11t-11 26v61q0 16 11 27t27 11h310v130h-310q-16 0 -27 11t-11 26z" />
<glyph unicode="&#xa6;" horiz-adv-x="634" d="M190 747v604q0 15 11 26t26 11h180q16 0 26.5 -11t10.5 -26v-604q0 -15 -10.5 -26t-26.5 -11h-180q-15 0 -26 11t-11 26zM190 -174v601q0 16 11 26.5t26 10.5h180q16 0 26.5 -10.5t10.5 -26.5v-601q0 -16 -10.5 -27t-26.5 -11h-180q-15 0 -26 11t-11 27z" />
<glyph unicode="&#xa7;" horiz-adv-x="1158" d="M302 866q-178 77 -178 256q0 140 114.5 221t348.5 81q219 0 379 -75q9 -4 14.5 -16.5t4.5 -23.5l-17 -162q-2 -20 -18.5 -28.5t-34.5 0.5q-130 65 -273 65q-140 0 -140 -88q0 -44 48.5 -72t158.5 -62q159 -48 241 -127t82 -201q0 -78 -42.5 -147.5t-127.5 -114.5 q89 -39 130.5 -108t41.5 -148q0 -145 -115 -230.5t-354 -85.5q-222 0 -397 78q-9 5 -16 15.5t-6 20.5l10 179q2 23 18.5 32.5t36.5 -2.5q137 -85 298 -85q147 0 147 98q0 46 -46.5 78.5t-154.5 61.5q-156 42 -241.5 124t-85.5 201q0 86 46 155t128 110zM466 620 q0 -43 32.5 -74.5t89.5 -45.5q49 12 79.5 46.5t30.5 81.5q0 43 -33 74.5t-91 45.5q-49 -12 -78.5 -46.5t-29.5 -81.5z" />
<glyph unicode="&#xa8;" horiz-adv-x="920" d="M96 1290q0 70 37.5 108t108.5 38t108.5 -38t37.5 -108t-37.5 -108t-108.5 -38t-108.5 38t-37.5 108zM532 1290q0 70 37.5 108t108.5 38t108.5 -38t37.5 -108t-37.5 -108t-108.5 -38t-108.5 38t-37.5 108z" />
<glyph unicode="&#xa9;" horiz-adv-x="1660" d="M406 696q0 201 129 317.5t339 116.5q131 0 238 -43q11 -5 17.5 -17t5.5 -23l-12 -117q-2 -20 -17.5 -26.5t-34.5 2.5q-65 30 -147 30q-100 0 -159 -63.5t-59 -176.5q0 -114 60.5 -177t167.5 -63q80 0 140 27q18 8 33 -2t17 -30l11 -116q1 -11 -7 -22t-19 -15 q-100 -36 -223 -36q-220 0 -350 116.5t-130 317.5zM106 700q0 197 97 363.5t263.5 263.5t363.5 97t363.5 -97t263.5 -263.5t97 -363.5t-97 -363.5t-263.5 -263.5t-363.5 -97t-363.5 97t-263.5 263.5t-97 363.5zM218 700q0 -169 82 -312t223 -225.5t307 -82.5t307 82.5 t223 225.5t82 312t-82 312t-223 225.5t-307 82.5t-307 -82.5t-223 -225.5t-82 -312z" />
<glyph unicode="&#xaa;" horiz-adv-x="960" d="M168 1225l-14 97q-1 11 5.5 23t17.5 17q133 54 298 54q196 0 279.5 -72t83.5 -232v-437q0 -16 -11 -26.5t-26 -10.5h-212q-16 0 -26.5 10.5t-10.5 26.5v19q-69 -70 -194 -70q-116 0 -191 64t-75 181q0 128 93 194.5t259 66.5h108v16q0 53 -25 72.5t-93 19.5 q-106 0 -214 -42q-18 -7 -33.5 2t-18.5 27zM552 834v122h-98q-56 0 -84 -23t-28 -63q0 -35 25 -57.5t69 -22.5q75 0 116 44z" />
<glyph unicode="&#xab;" horiz-adv-x="1100" d="M120 545v159q0 17 12 27l370 341q19 17 40.5 7.5t21.5 -35.5v-194q0 -19 -12 -29l-218 -197l218 -197q4 -3 8 -13.5t4 -15.5v-193q0 -26 -21.5 -36.5t-40.5 6.5l-370 342q-12 10 -12 28zM556 545v159q0 17 12 27l370 341q19 17 40.5 7.5t21.5 -35.5v-194q0 -19 -12 -29 l-218 -197l218 -197q4 -3 8 -13.5t4 -15.5v-193q0 -26 -21.5 -36.5t-40.5 6.5l-370 342q-12 10 -12 28z" />
<glyph unicode="&#xac;" d="M90 699v174q0 15 11 26t26 11h938q15 0 26 -11t11 -26v-528q0 -15 -11 -26t-26 -11h-226q-16 0 -26.5 11t-10.5 26v317h-675q-15 0 -26 10.5t-11 26.5z" />
<glyph unicode="&#xad;" horiz-adv-x="792" d="M655 530h-518q-15 0 -26 11t-11 26v194q0 16 11 26.5t26 10.5h518q16 0 26.5 -10.5t10.5 -26.5v-194q0 -15 -10.5 -26t-26.5 -11z" />
<glyph unicode="&#xae;" horiz-adv-x="1660" d="M728 576v-259q0 -15 -11 -26t-26 -11h-146q-15 0 -26 11t-11 26v766q0 16 11 26.5t26 10.5h289q161 0 255.5 -67.5t94.5 -197.5q0 -77 -41 -142t-131 -101l195 -274q14 -20 3.5 -39t-34.5 -19h-159q-7 0 -17.5 5.5t-14.5 11.5l-181 279h-76zM956 854q0 110 -130 110h-98 v-216h98q130 0 130 106zM106 700q0 197 97 363.5t263.5 263.5t363.5 97t363.5 -97t263.5 -263.5t97 -363.5t-97 -363.5t-263.5 -263.5t-363.5 -97t-363.5 97t-263.5 263.5t-97 363.5zM218 700q0 -169 82 -312t223 -225.5t307 -82.5t307 82.5t223 225.5t82 312t-82 312 t-223 225.5t-307 82.5t-307 -82.5t-223 -225.5t-82 -312z" />
<glyph unicode="&#xaf;" horiz-adv-x="920" d="M138 1221v136q0 16 10.5 26.5t26.5 10.5h570q15 0 26 -10.5t11 -26.5v-136q0 -15 -11 -26t-26 -11h-570q-16 0 -26.5 11t-10.5 26z" />
<glyph unicode="&#xb0;" horiz-adv-x="920" d="M750 1146q0 -117 -84 -197.5t-206 -80.5t-206 80.5t-84 197.5t84 197.5t206 80.5t206 -80.5t84 -197.5zM554 1146q0 43 -26.5 69.5t-67.5 26.5t-67.5 -26.5t-26.5 -69.5t26.5 -69.5t67.5 -26.5t67.5 26.5t26.5 69.5z" />
<glyph unicode="&#xb1;" d="M456 355v319h-318q-16 0 -27 10.5t-11 26.5v174q0 15 11 26t27 11h318v307q0 15 11 26t26 11h226q15 0 26 -11t11 -26v-307h319q16 0 26.5 -11t10.5 -26v-174q0 -16 -10.5 -26.5t-26.5 -10.5h-319v-319q0 -15 -11 -26t-26 -11h-226q-15 0 -26 11t-11 26zM1075 26h-937 q-16 0 -27 11t-11 26v174q0 15 11 26t27 11h937q16 0 26.5 -11t10.5 -26v-174q0 -15 -10.5 -26t-26.5 -11z" />
<glyph unicode="&#xb2;" horiz-adv-x="860" d="M470 1117q0 97 -130 97q-85 0 -173 -44q-19 -10 -35.5 0t-18.5 32l-7 119q-1 11 6.5 25t17.5 18q119 52 257 52q175 0 268 -76.5t93 -215.5q0 -110 -72 -221t-248 -235h285q15 0 26 -11t11 -27v-123q0 -16 -11 -26.5t-26 -10.5h-597q-16 0 -27 10.5t-11 26.5v120 q0 5 5 15t9 13q378 297 378 462z" />
<glyph unicode="&#xb3;" horiz-adv-x="860" d="M192 899v110q0 15 10.5 25.5t25.5 11.5q130 4 191 29t61 73q0 72 -128 72q-97 0 -188 -39q-19 -7 -34 2t-17 29l-10 113q-2 12 4.5 25t17.5 17q120 49 273 49q165 0 260.5 -68.5t95.5 -185.5q0 -65 -33.5 -120.5t-108.5 -85.5q78 -30 116 -90.5t38 -126.5 q0 -133 -105 -209t-282 -76q-147 0 -270 44q-10 4 -17.5 17t-6.5 25l12 132q1 20 18.5 27t36.5 -3q89 -46 194 -46q146 0 146 89q0 117 -264 123q-15 0 -25.5 11t-10.5 26z" />
<glyph unicode="&#xb4;" horiz-adv-x="920" d="M225 1179l185 265q4 5 14 10.5t16 5.5h254q26 0 35 -22t-9 -41l-264 -266q-11 -11 -26 -11h-174q-25 0 -35 20t4 39z" />
<glyph unicode="&#xb5;" horiz-adv-x="1310" d="M641 -24q-94 0 -157 52v-377q0 -15 -11 -26t-26 -11h-294q-15 0 -26 11t-11 26v1348q0 15 11 26t26 11h294q15 0 26 -11t11 -26v-716q63 -67 169 -67q54 0 100.5 21t72.5 61v701q0 15 11 26t26 11h294q15 0 26 -11t11 -26v-962q0 -15 -11 -26t-26 -11h-294q-15 0 -26 11 t-11 26v26q-69 -87 -185 -87z" />
<glyph unicode="&#xb6;" horiz-adv-x="1260" d="M524 532h-9q-203 0 -329 116t-126 318q0 203 126 318.5t329 115.5h568q15 0 26 -11t11 -26v-1588q0 -15 -11 -26t-26 -11h-186q-15 0 -26 11t-11 26v1405h-76v-1405q0 -15 -11 -26t-26 -11h-186q-15 0 -26 11t-11 26v757z" />
<glyph unicode="&#xb7;" horiz-adv-x="620" d="M490 664q0 -180 -180 -180t-180 180t180 180t180 -180z" />
<glyph unicode="&#xb8;" horiz-adv-x="920" d="M238 -432v79q0 19 12.5 29.5t30.5 6.5q28 -7 73 -7q50 0 69 12t19 46q0 72 -137 79q-21 1 -27.5 17t3.5 35l61 116q4 7 14 13t18 6h164q23 0 33.5 -18t-1.5 -37l-36 -59q148 -31 148 -165q0 -94 -75.5 -145.5t-221.5 -51.5q-68 0 -116 8q-13 2 -22 13t-9 23z" />
<glyph unicode="&#xb9;" horiz-adv-x="860" d="M560 470h-198q-15 0 -26 10.5t-11 26.5v605l-116 -84q-13 -10 -28.5 -7t-24.5 16l-75 110q-8 12 -5.5 26.5t13.5 23.5l235 177q38 28 87 28h149q15 0 26 -11t11 -27v-857q0 -16 -11 -26.5t-26 -10.5z" />
<glyph unicode="&#xba;" horiz-adv-x="960" d="M892 1020q0 -179 -114 -287.5t-298 -108.5t-298 108.5t-114 287.5t114 287.5t298 108.5t298 -108.5t114 -287.5zM604 1020q0 104 -34 158t-90 54t-90 -54t-34 -158t34 -158t90 -54t90 54t34 158z" />
<glyph unicode="&#xbb;" horiz-adv-x="1100" d="M980 704v-159q0 -18 -12 -28l-370 -342q-19 -17 -40.5 -6.5t-21.5 36.5v193q0 5 4 15.5t8 13.5l218 197l-218 197q-12 10 -12 29v194q0 26 21.5 35.5t40.5 -7.5l370 -341q12 -10 12 -27zM544 704v-159q0 -18 -12 -28l-370 -342q-19 -17 -40.5 -6.5t-21.5 36.5v193 q0 5 4 15.5t8 13.5l218 197l-218 197q-12 10 -12 29v194q0 26 21.5 35.5t40.5 -7.5l370 -341q12 -10 12 -27z" />
<glyph unicode="&#xbc;" horiz-adv-x="2030" d="M1413 1376l-748 -1386q-10 -20 -32 -20h-124q-23 0 -33 17.5t1 37.5l748 1386q9 19 32 19h123q23 0 33.5 -17t-0.5 -37zM560 470h-198q-15 0 -26 10.5t-11 26.5v605l-116 -84q-13 -10 -28.5 -7t-24.5 16l-75 110q-8 12 -5.5 26.5t13.5 23.5l235 177q38 28 87 28h149 q15 0 26 -11t11 -27v-857q0 -16 -11 -26.5t-26 -10.5zM1565 172h-381q-16 0 -26.5 11t-10.5 26v111q0 32 4.5 48t20.5 39l344 508q4 5 14 11t17 6h237q15 0 26 -11t11 -27v-516h63q15 0 26 -11t11 -27v-131q0 -15 -11 -26t-26 -11h-63v-132q0 -16 -11 -27t-26 -11h-182 q-15 0 -26 11t-11 27v132zM1565 650l-164 -272h164v272z" />
<glyph unicode="&#xbd;" horiz-adv-x="2030" d="M1394 1376l-748 -1386q-10 -20 -32 -20h-124q-23 0 -33 17.5t1 37.5l748 1386q10 19 32 19h123q23 0 33.5 -17t-0.5 -37zM560 470h-198q-15 0 -26 10.5t-11 26.5v605l-116 -84q-13 -10 -28.5 -7t-24.5 16l-75 110q-8 12 -5.5 26.5t13.5 23.5l235 177q38 28 87 28h149 q15 0 26 -11t11 -27v-857q0 -16 -11 -26.5t-26 -10.5zM1636 647q0 97 -130 97q-85 0 -173 -44q-19 -10 -35.5 0t-18.5 32l-7 119q-1 11 6.5 25t17.5 18q119 52 257 52q175 0 268 -76.5t93 -215.5q0 -110 -72 -221t-248 -235h285q15 0 26 -11t11 -27v-123q0 -16 -11 -26.5 t-26 -10.5h-597q-16 0 -27 10.5t-11 26.5v120q0 5 5 15t9 13q378 297 378 462z" />
<glyph unicode="&#xbe;" horiz-adv-x="2030" d="M1472 1376l-748 -1386q-10 -20 -32 -20h-124q-23 0 -33 17.5t1 37.5l748 1386q10 19 32 19h123q23 0 33.5 -17t-0.5 -37zM1586 172h-381q-16 0 -26.5 11t-10.5 26v111q0 32 4.5 48t20.5 39l344 508q4 5 14 11t17 6h237q15 0 26 -11t11 -27v-516h63q15 0 26 -11t11 -27 v-131q0 -15 -11 -26t-26 -11h-63v-132q0 -16 -11 -27t-26 -11h-182q-15 0 -26 11t-11 27v132zM1586 650l-164 -272h164v272zM192 899v110q0 15 10.5 25.5t25.5 11.5q130 4 191 29t61 73q0 72 -128 72q-97 0 -188 -39q-19 -7 -34 2t-17 29l-10 113q-2 12 4.5 25t17.5 17 q120 49 273 49q165 0 260.5 -68.5t95.5 -185.5q0 -65 -33.5 -120.5t-108.5 -85.5q78 -30 116 -90.5t38 -126.5q0 -133 -105 -209t-282 -76q-147 0 -270 44q-10 4 -17.5 17t-6.5 25l12 132q1 20 18.5 27t36.5 -3q89 -46 194 -46q146 0 146 89q0 117 -264 123q-15 0 -25.5 11 t-10.5 26z" />
<glyph unicode="&#xbf;" horiz-adv-x="1162" d="M653 176q-69 -47 -97 -88t-28 -90q0 -47 45.5 -75.5t141.5 -28.5q156 0 296 75q19 10 36 0.5t18 -31.5l15 -197q2 -29 -20 -41q-79 -40 -184 -64t-207 -24q-247 0 -388 99.5t-141 272.5q0 209 243 376q54 37 77.5 82t23.5 114v33q0 15 11 26t26 11h292q15 0 26 -11 t11 -26v-37q0 -135 -42.5 -217.5t-154.5 -158.5zM474 892q0 87 44 127.5t150 40.5t150 -40.5t44 -127.5t-44 -127.5t-150 -40.5t-150 40.5t-44 127.5z" />
<glyph unicode="&#xc0;" horiz-adv-x="1440" d="M937 1400h-448q-32 0 -42 -31l-433 -1320q-7 -22 3.5 -35.5t31.5 -13.5h313q34 0 43 33l73 255h469l74 -255q9 -33 43 -33h313q21 0 31.5 13.5t3.5 35.5l-433 1320q-10 31 -42 31zM559 570l154 535l153 -535h-307zM658 1832l185 -265q14 -19 4 -39t-35 -20h-174 q-15 0 -26 11l-264 266q-18 19 -9 41t35 22h254q6 0 16 -5.5t14 -10.5z" />
<glyph unicode="&#xc1;" horiz-adv-x="1440" d="M489 1400h448q32 0 42 -31l433 -1320q7 -22 -3.5 -35.5t-31.5 -13.5h-313q-34 0 -43 33l-74 255h-469l-73 -255q-9 -33 -43 -33h-313q-21 0 -31.5 13.5t-3.5 35.5l433 1320q10 31 42 31zM713 1105l-154 -535h307zM521 1567l185 265q4 5 14 10.5t16 5.5h254q26 0 35 -22 t-9 -41l-264 -266q-11 -11 -26 -11h-174q-25 0 -35 20t4 39z" />
<glyph unicode="&#xc2;" horiz-adv-x="1440" d="M937 1400h-448q-32 0 -42 -31l-433 -1320q-7 -22 3.5 -35.5t31.5 -13.5h313q34 0 43 33l73 255h469l74 -255q9 -33 43 -33h313q21 0 31.5 13.5t3.5 35.5l-433 1320q-10 31 -42 31zM559 570l154 535l153 -535h-307zM866 1832l184 -265q14 -19 6 -39t-32 -20h-175 q-18 0 -29 13l-121 145l-121 -144q-12 -14 -29 -14h-177q-23 0 -31 19t6 39l185 266q12 16 30 16h273q20 0 31 -16z" />
<glyph unicode="&#xc3;" horiz-adv-x="1440" d="M937 1400h-448q-32 0 -42 -31l-433 -1320q-7 -22 3.5 -35.5t31.5 -13.5h313q34 0 43 33l73 255h469l74 -255q9 -33 43 -33h313q21 0 31.5 13.5t3.5 35.5l-433 1320q-10 31 -42 31zM559 570l154 535l153 -535h-307zM560 1828q76 0 164 -54q52 -32 70 -32q33 0 38 50 q1 14 12 24t25 10h145q16 0 27 -11.5t10 -27.5q-8 -131 -65.5 -197t-148.5 -66q-68 0 -163 56q-5 4 -8 5q-47 27 -62 27q-33 0 -38 -51q-1 -14 -12 -23.5t-25 -9.5h-145q-16 0 -27 11.5t-10 27.5q9 132 65.5 196.5t147.5 64.5z" />
<glyph unicode="&#xc4;" horiz-adv-x="1440" d="M937 1400h-448q-32 0 -42 -31l-433 -1320q-7 -22 3.5 -35.5t31.5 -13.5h313q34 0 43 33l73 255h469l74 -255q9 -33 43 -33h313q21 0 31.5 13.5t3.5 35.5l-433 1320q-10 31 -42 31zM559 570l154 535l153 -535h-307zM356 1678q0 70 37.5 108t108.5 38t108.5 -38t37.5 -108 t-37.5 -108t-108.5 -38t-108.5 38t-37.5 108zM792 1678q0 70 37.5 108t108.5 38t108.5 -38t37.5 -108t-37.5 -108t-108.5 -38t-108.5 38t-37.5 108z" />
<glyph unicode="&#xc5;" horiz-adv-x="1440" d="M937 1400h-448q-32 0 -42 -31l-433 -1320q-7 -22 3.5 -35.5t31.5 -13.5h313q34 0 43 33l73 255h469l74 -255q9 -33 43 -33h313q21 0 31.5 13.5t3.5 35.5l-433 1320q-10 31 -42 31zM559 570l154 535l153 -535h-307zM960 1677q0 -96 -69 -163t-171 -67t-171 67t-69 163 t69 163t171 67t171 -67t69 -163zM788 1677q0 31 -19.5 49.5t-48.5 18.5t-48.5 -18.5t-19.5 -49.5t19.5 -49.5t48.5 -18.5t48.5 18.5t19.5 49.5z" />
<glyph unicode="&#xc6;" horiz-adv-x="1888" d="M873 38v254h-346l-107 -264q-12 -28 -46 -28h-323q-22 0 -33 16.5t-2 36.5l566 1316q14 31 48 31h1114q15 0 26 -11t11 -27v-196q0 -16 -11 -27t-26 -11h-495v-280h448q16 0 27 -11t11 -27v-196q0 -16 -11 -27t-27 -11h-448v-304h510q15 0 26.5 -11t11.5 -27v-196 q0 -16 -11.5 -27t-26.5 -11h-848q-16 0 -27 11t-11 27zM873 1152l-238 -588h238v588z" />
<glyph unicode="&#xc7;" horiz-adv-x="1310" d="M1165 317q21 11 40 3t20 -30l18 -207q3 -33 -27 -45q-122 -49 -281 -60l-55 -92q148 -31 148 -165q0 -94 -75.5 -145.5t-221.5 -51.5q-68 0 -116 8q-13 2 -22 13t-9 23v79q0 19 12.5 29.5t30.5 6.5q28 -7 73 -7t66.5 13.5t21.5 44.5q0 72 -137 79q-21 1 -27.5 17t3.5 35 l64 120q-288 41 -452.5 230.5t-164.5 484.5q0 330 206 527t557 197q215 0 370 -65q30 -12 27 -45l-17 -204q-1 -22 -20.5 -29.5t-39.5 2.5q-115 55 -261 55q-205 0 -317.5 -116.5t-112.5 -321.5q0 -211 115.5 -326.5t321.5 -115.5q145 0 262 59z" />
<glyph unicode="&#xc8;" horiz-adv-x="1246" d="M140 38v1324q0 16 11 27t27 11h935q15 0 26 -11t11 -27v-196q0 -16 -11 -27t-26 -11h-585v-280h538q16 0 27 -11t11 -27v-196q0 -16 -11 -27t-27 -11h-538v-304h600q16 0 27 -11t11 -27v-196q0 -16 -11 -27t-27 -11h-950q-16 0 -27 11t-11 27zM631 1832l185 -265 q14 -19 4 -39t-35 -20h-174q-15 0 -26 11l-264 266q-18 19 -9 41t35 22h254q6 0 16 -5.5t14 -10.5z" />
<glyph unicode="&#xc9;" horiz-adv-x="1246" d="M140 38v1324q0 16 11 27t27 11h935q15 0 26 -11t11 -27v-196q0 -16 -11 -27t-26 -11h-585v-280h538q16 0 27 -11t11 -27v-196q0 -16 -11 -27t-27 -11h-538v-304h600q16 0 27 -11t11 -27v-196q0 -16 -11 -27t-27 -11h-950q-16 0 -27 11t-11 27zM463 1567l185 265 q4 5 14 10.5t16 5.5h254q26 0 35 -22t-9 -41l-264 -266q-11 -11 -26 -11h-174q-25 0 -35 20t4 39z" />
<glyph unicode="&#xca;" horiz-adv-x="1246" d="M140 38v1324q0 16 11 27t27 11h935q15 0 26 -11t11 -27v-196q0 -16 -11 -27t-26 -11h-585v-280h538q16 0 27 -11t11 -27v-196q0 -16 -11 -27t-27 -11h-538v-304h600q16 0 27 -11t11 -27v-196q0 -16 -11 -27t-27 -11h-950q-16 0 -27 11t-11 27zM784 1832l184 -265 q14 -19 6 -39t-32 -20h-175q-18 0 -29 13l-121 145l-121 -144q-12 -14 -29 -14h-177q-23 0 -31 19t6 39l185 266q12 16 30 16h273q20 0 31 -16z" />
<glyph unicode="&#xcb;" horiz-adv-x="1246" d="M140 38v1324q0 16 11 27t27 11h935q15 0 26 -11t11 -27v-196q0 -16 -11 -27t-26 -11h-585v-280h538q16 0 27 -11t11 -27v-196q0 -16 -11 -27t-27 -11h-538v-304h600q16 0 27 -11t11 -27v-196q0 -16 -11 -27t-27 -11h-950q-16 0 -27 11t-11 27zM267 1678q0 70 37.5 108 t108.5 38t108.5 -38t37.5 -108t-37.5 -108t-108.5 -38t-108.5 38t-37.5 108zM703 1678q0 70 37.5 108t108.5 38t108.5 -38t37.5 -108t-37.5 -108t-108.5 -38t-108.5 38t-37.5 108z" />
<glyph unicode="&#xcc;" horiz-adv-x="688" d="M189 1400h313q15 0 26 -11t11 -27v-1324q0 -16 -11 -27t-26 -11h-313q-16 0 -27 11t-11 27v1324q0 16 11 27t27 11zM304 1832l185 -265q14 -19 4 -39t-35 -20h-174q-15 0 -26 11l-264 266q-18 19 -9 41t35 22h254q6 0 16 -5.5t14 -10.5z" />
<glyph unicode="&#xcd;" horiz-adv-x="688" d="M188 1400h313q15 0 26 -11t11 -27v-1324q0 -16 -11 -27t-26 -11h-313q-16 0 -27 11t-11 27v1324q0 16 11 27t27 11zM187 1567l185 265q4 5 14 10.5t16 5.5h254q26 0 35 -22t-9 -41l-264 -266q-11 -11 -26 -11h-174q-25 0 -35 20t4 39z" />
<glyph unicode="&#xce;" horiz-adv-x="688" d="M188 1400h313q15 0 26 -11t11 -27v-1324q0 -16 -11 -27t-26 -11h-313q-16 0 -27 11t-11 27v1324q0 16 11 27t27 11zM490 1832l184 -265q14 -19 6 -39t-32 -20h-175q-18 0 -29 13l-121 145l-121 -144q-12 -14 -29 -14h-177q-23 0 -31 19t6 39l185 266q12 16 30 16h273 q20 0 31 -16z" />
<glyph unicode="&#xcf;" horiz-adv-x="688" d="M188 1400h313q15 0 26 -11t11 -27v-1324q0 -16 -11 -27t-26 -11h-313q-16 0 -27 11t-11 27v1324q0 16 11 27t27 11zM-20 1678q0 70 37.5 108t108.5 38t108.5 -38t37.5 -108t-37.5 -108t-108.5 -38t-108.5 38t-37.5 108zM416 1678q0 70 37.5 108t108.5 38t108.5 -38 t37.5 -108t-37.5 -108t-108.5 -38t-108.5 38t-37.5 108z" />
<glyph unicode="&#xd0;" horiz-adv-x="1472" d="M1402 700q-1 -172 -56 -305.5t-156 -219.5t-240 -130.5t-310 -44.5h-446q-16 0 -27 11t-11 27v576h-86q-16 0 -27 11t-11 27v100q0 16 11 27t27 11h86v572q0 16 11 27t27 11h446q171 0 310 -44.5t240 -131t156 -220t56 -304.5zM1010 698q0 228 -95.5 329t-286.5 101h-84 v-338h201q15 0 26 -11t11 -27v-100q0 -16 -11 -27t-26 -11h-201v-342h84q190 0 286 100.5t96 325.5z" />
<glyph unicode="&#xd1;" horiz-adv-x="1552" d="M1034 504v858q0 16 11.5 27t26.5 11h292q16 0 27 -11t11 -27v-1324q0 -16 -11 -27t-27 -11h-369q-32 0 -47 28l-430 868v-858q0 -16 -11.5 -27t-26.5 -11h-292q-16 0 -27 11t-11 27v1324q0 16 11 27t27 11h369q32 0 47 -28zM640 1828q76 0 164 -54q52 -32 70 -32 q33 0 38 50q1 14 12 24t25 10h145q16 0 27 -11.5t10 -27.5q-8 -131 -65.5 -197t-148.5 -66q-68 0 -163 56q-5 4 -8 5q-47 27 -62 27q-33 0 -38 -51q-1 -14 -12 -23.5t-25 -9.5h-145q-16 0 -27 11.5t-10 27.5q9 132 65.5 196.5t147.5 64.5z" />
<glyph unicode="&#xd2;" horiz-adv-x="1528" d="M1458 700q0 -156 -46 -288t-132 -229t-218.5 -152t-297.5 -55t-297.5 55t-218.5 152t-132 229t-46 288t46 288t132 229t218.5 152t297.5 55t297.5 -55t218.5 -152t132 -229t46 -288zM1066 700q0 214 -79 331t-223 117t-223 -117t-79 -331t79 -331t223 -117t223 117 t79 331zM760 1832l185 -265q14 -19 4 -39t-35 -20h-174q-15 0 -26 11l-264 266q-18 19 -9 41t35 22h254q6 0 16 -5.5t14 -10.5z" />
<glyph unicode="&#xd3;" horiz-adv-x="1528" d="M1458 700q0 -156 -46 -288t-132 -229t-218.5 -152t-297.5 -55t-297.5 55t-218.5 152t-132 229t-46 288t46 288t132 229t218.5 152t297.5 55t297.5 -55t218.5 -152t132 -229t46 -288zM1066 700q0 214 -79 331t-223 117t-223 -117t-79 -331t79 -331t223 -117t223 117 t79 331zM567 1567l185 265q4 5 14 10.5t16 5.5h254q26 0 35 -22t-9 -41l-264 -266q-11 -11 -26 -11h-174q-25 0 -35 20t4 39z" />
<glyph unicode="&#xd4;" horiz-adv-x="1528" d="M1458 700q0 -156 -46 -288t-132 -229t-218.5 -152t-297.5 -55t-297.5 55t-218.5 152t-132 229t-46 288t46 288t132 229t218.5 152t297.5 55t297.5 -55t218.5 -152t132 -229t46 -288zM1066 700q0 214 -79 331t-223 117t-223 -117t-79 -331t79 -331t223 -117t223 117 t79 331zM910 1832l184 -265q14 -19 6 -39t-32 -20h-175q-18 0 -29 13l-121 145l-121 -144q-12 -14 -29 -14h-177q-23 0 -31 19t6 39l185 266q12 16 30 16h273q20 0 31 -16z" />
<glyph unicode="&#xd5;" horiz-adv-x="1528" d="M1458 700q0 -156 -46 -288t-132 -229t-218.5 -152t-297.5 -55t-297.5 55t-218.5 152t-132 229t-46 288t46 288t132 229t218.5 152t297.5 55t297.5 -55t218.5 -152t132 -229t46 -288zM1066 700q0 214 -79 331t-223 117t-223 -117t-79 -331t79 -331t223 -117t223 117 t79 331zM626 1828q76 0 164 -54q52 -32 70 -32q33 0 38 50q1 14 12 24t25 10h145q16 0 27 -11.5t10 -27.5q-8 -131 -65.5 -197t-148.5 -66q-68 0 -163 56q-5 4 -8 5q-47 27 -62 27q-33 0 -38 -51q-1 -14 -12 -23.5t-25 -9.5h-145q-16 0 -27 11.5t-10 27.5q9 132 65.5 196.5 t147.5 64.5z" />
<glyph unicode="&#xd6;" horiz-adv-x="1528" d="M1458 700q0 -156 -46 -288t-132 -229t-218.5 -152t-297.5 -55t-297.5 55t-218.5 152t-132 229t-46 288t46 288t132 229t218.5 152t297.5 55t297.5 -55t218.5 -152t132 -229t46 -288zM1066 700q0 214 -79 331t-223 117t-223 -117t-79 -331t79 -331t223 -117t223 117 t79 331zM398 1678q0 70 37.5 108t108.5 38t108.5 -38t37.5 -108t-37.5 -108t-108.5 -38t-108.5 38t-37.5 108zM834 1678q0 70 37.5 108t108.5 38t108.5 -38t37.5 -108t-37.5 -108t-108.5 -38t-108.5 38t-37.5 108z" />
<glyph unicode="&#xd7;" d="M334 1124l260 -260l260 260q11 11 26 11t26 -11l148 -148q11 -11 11 -26.5t-11 -25.5l-260 -260l260 -260q11 -11 11 -26t-11 -26l-148 -148q-11 -11 -26 -11t-26 11l-260 260l-260 -260q-11 -11 -26 -11t-26 11l-148 148q-10 11 -10 26.5t10 25.5l260 260l-259 260 q-11 10 -11 25.5t10 26.5l147 147q11 11 26.5 11.5t26.5 -10.5z" />
<glyph unicode="&#xd8;" horiz-adv-x="1528" d="M1359 1546l-150 -263q121 -97 185 -247.5t64 -335.5q0 -156 -46 -288t-132 -229t-218.5 -152t-297.5 -55q-148 0 -274 45l-114 -201q-11 -20 -34 -20h-133q-21 0 -29.5 17t1.5 37l146 256q-126 96 -191.5 248.5t-65.5 341.5q0 156 46 288t132 229t218.5 152t297.5 55 q157 0 283 -49l117 204q12 21 34 21h133q22 0 30.5 -17t-2.5 -37zM462 700q0 -162 46 -271l391 685q-60 34 -135 34q-144 0 -223 -117t-79 -331zM1066 700q0 151 -42 258l-386 -678q55 -28 126 -28q144 0 223 117t79 331z" />
<glyph unicode="&#xd9;" horiz-adv-x="1544" d="M773 -24q-294 0 -463.5 151.5t-169.5 446.5v788q0 16 11 27t26 11h313q16 0 27 -11t11 -27v-788q0 -158 59 -235t186 -77q126 0 184.5 77t58.5 235v788q0 16 11 27t26 11h314q15 0 26 -11t11 -27v-788q0 -149 -45 -263t-128.5 -187.5t-198.5 -110.5t-259 -37zM722 1832 l185 -265q14 -19 4 -39t-35 -20h-174q-15 0 -26 11l-264 266q-18 19 -9 41t35 22h254q6 0 16 -5.5t14 -10.5z" />
<glyph unicode="&#xda;" horiz-adv-x="1544" d="M773 -24q-294 0 -463.5 151.5t-169.5 446.5v788q0 16 11 27t26 11h313q16 0 27 -11t11 -27v-788q0 -158 59 -235t186 -77q126 0 184.5 77t58.5 235v788q0 16 11 27t26 11h314q15 0 26 -11t11 -27v-788q0 -149 -45 -263t-128.5 -187.5t-198.5 -110.5t-259 -37zM619 1567 l185 265q4 5 14 10.5t16 5.5h254q26 0 35 -22t-9 -41l-264 -266q-11 -11 -26 -11h-174q-25 0 -35 20t4 39z" />
<glyph unicode="&#xdb;" horiz-adv-x="1544" d="M773 -24q-294 0 -463.5 151.5t-169.5 446.5v788q0 16 11 27t26 11h313q16 0 27 -11t11 -27v-788q0 -158 59 -235t186 -77q126 0 184.5 77t58.5 235v788q0 16 11 27t26 11h314q15 0 26 -11t11 -27v-788q0 -149 -45 -263t-128.5 -187.5t-198.5 -110.5t-259 -37zM918 1832 l184 -265q14 -19 6 -39t-32 -20h-175q-18 0 -29 13l-121 145l-121 -144q-12 -14 -29 -14h-177q-23 0 -31 19t6 39l185 266q12 16 30 16h273q20 0 31 -16z" />
<glyph unicode="&#xdc;" horiz-adv-x="1544" d="M773 -24q-294 0 -463.5 151.5t-169.5 446.5v788q0 16 11 27t26 11h313q16 0 27 -11t11 -27v-788q0 -158 59 -235t186 -77q126 0 184.5 77t58.5 235v788q0 16 11 27t26 11h314q15 0 26 -11t11 -27v-788q0 -149 -45 -263t-128.5 -187.5t-198.5 -110.5t-259 -37zM410 1678 q0 70 37.5 108t108.5 38t108.5 -38t37.5 -108t-37.5 -108t-108.5 -38t-108.5 38t-37.5 108zM846 1678q0 70 37.5 108t108.5 38t108.5 -38t37.5 -108t-37.5 -108t-108.5 -38t-108.5 38t-37.5 108z" />
<glyph unicode="&#xdd;" horiz-adv-x="1484" d="M440 1379l286 -499l286 499q13 21 42 21h319q26 0 35.5 -16.5t-3.5 -37.5l-485 -795v-513q0 -16 -11 -27t-27 -11h-312q-16 0 -27 11t-11 27v513l-485 795q-13 21 -3.5 37.5t35.5 16.5h319q29 0 42 -21zM571 1567l185 265q4 5 14 10.5t16 5.5h254q26 0 35 -22t-9 -41 l-264 -266q-11 -11 -26 -11h-174q-25 0 -35 20t4 39z" />
<glyph unicode="&#xde;" horiz-adv-x="1312" d="M1258 708q0 -231 -158.5 -351.5t-433.5 -120.5h-150v-198q0 -16 -11 -27t-27 -11h-300q-16 0 -27 11t-11 27v1324q0 16 11 27t27 11h300q16 0 27 -11t11 -27v-182h150q181 0 312 -51t205.5 -158t74.5 -263zM878 708q0 109 -59 156.5t-175 47.5h-128v-408h128 q115 0 174.5 48t59.5 156z" />
<glyph unicode="&#xdf;" horiz-adv-x="1376" d="M548 57l15 199q2 21 19.5 30.5t36.5 -0.5q65 -36 152 -36q79 0 120 35t41 102q0 80 -65 133t-194 59q-15 1 -25 12t-10 25v200q0 15 9.5 25.5t24.5 11.5q103 7 154.5 50.5t51.5 116.5q0 62 -45 96t-126 34q-96 0 -143.5 -58.5t-47.5 -193.5v-861q0 -15 -10.5 -26 t-26.5 -11h-302q-15 0 -26 11t-11 26v811q0 291 143 433.5t438 142.5q244 0 390.5 -110t146.5 -276q0 -69 -21.5 -130t-72.5 -112.5t-126 -75.5q129 -24 201.5 -121t72.5 -224q0 -189 -123 -294t-361 -105q-148 0 -256 43q-10 4 -17.5 15.5t-6.5 22.5z" />
<glyph unicode="&#xe0;" horiz-adv-x="1172" d="M528 200q121 0 176 66v174h-156q-160 0 -160 -126q0 -56 37 -85t103 -29zM160 979q181 81 419 81q259 0 371 -93.5t112 -305.5v-624q0 -15 -10.5 -26t-26.5 -11h-284q-16 0 -26.5 11t-10.5 26v35q-106 -96 -288 -96q-158 0 -260 89.5t-102 238.5q0 169 121.5 264.5 t359.5 95.5h169v47q0 61 -40 87t-135 26q-164 0 -316 -66q-20 -9 -35.5 -1t-18.5 28l-21 152q-4 30 22 42zM562 1484l185 -265q14 -19 4 -39t-35 -20h-174q-15 0 -26 11l-264 266q-18 19 -9 41t35 22h254q6 0 16 -5.5t14 -10.5z" />
<glyph unicode="&#xe1;" horiz-adv-x="1172" d="M528 200q121 0 176 66v174h-156q-160 0 -160 -126q0 -56 37 -85t103 -29zM160 979q181 81 419 81q259 0 371 -93.5t112 -305.5v-624q0 -15 -10.5 -26t-26.5 -11h-284q-16 0 -26.5 11t-10.5 26v35q-106 -96 -288 -96q-158 0 -260 89.5t-102 238.5q0 169 121.5 264.5 t359.5 95.5h169v47q0 61 -40 87t-135 26q-164 0 -316 -66q-20 -9 -35.5 -1t-18.5 28l-21 152q-4 30 22 42zM395 1219l185 265q4 5 14 10.5t16 5.5h254q26 0 35 -22t-9 -41l-264 -266q-11 -11 -26 -11h-174q-25 0 -35 20t4 39z" />
<glyph unicode="&#xe2;" horiz-adv-x="1172" d="M528 200q121 0 176 66v174h-156q-160 0 -160 -126q0 -56 37 -85t103 -29zM160 979q181 81 419 81q259 0 371 -93.5t112 -305.5v-624q0 -15 -10.5 -26t-26.5 -11h-284q-16 0 -26.5 11t-10.5 26v35q-106 -96 -288 -96q-158 0 -260 89.5t-102 238.5q0 169 121.5 264.5 t359.5 95.5h169v47q0 61 -40 87t-135 26q-164 0 -316 -66q-20 -9 -35.5 -1t-18.5 28l-21 152q-4 30 22 42zM732 1484l184 -265q14 -19 6 -39t-32 -20h-175q-18 0 -29 13l-121 145l-121 -144q-12 -14 -29 -14h-177q-23 0 -31 19t6 39l185 266q12 16 30 16h273q20 0 31 -16z " />
<glyph unicode="&#xe3;" horiz-adv-x="1172" d="M528 200q121 0 176 66v174h-156q-160 0 -160 -126q0 -56 37 -85t103 -29zM160 979q181 81 419 81q259 0 371 -93.5t112 -305.5v-624q0 -15 -10.5 -26t-26.5 -11h-284q-16 0 -26.5 11t-10.5 26v35q-106 -96 -288 -96q-158 0 -260 89.5t-102 238.5q0 169 121.5 264.5 t359.5 95.5h169v47q0 61 -40 87t-135 26q-164 0 -316 -66q-20 -9 -35.5 -1t-18.5 28l-21 152q-4 30 22 42zM440 1480q76 0 164 -54q52 -32 70 -32q33 0 38 50q1 14 12 24t25 10h145q16 0 27 -11.5t10 -27.5q-8 -131 -65.5 -197t-148.5 -66q-68 0 -163 56q-5 4 -8 5 q-47 27 -62 27q-33 0 -38 -51q-1 -14 -12 -23.5t-25 -9.5h-145q-16 0 -27 11.5t-10 27.5q9 132 65.5 196.5t147.5 64.5z" />
<glyph unicode="&#xe4;" horiz-adv-x="1172" d="M528 200q121 0 176 66v174h-156q-160 0 -160 -126q0 -56 37 -85t103 -29zM160 979q181 81 419 81q259 0 371 -93.5t112 -305.5v-624q0 -15 -10.5 -26t-26.5 -11h-284q-16 0 -26.5 11t-10.5 26v35q-106 -96 -288 -96q-158 0 -260 89.5t-102 238.5q0 169 121.5 264.5 t359.5 95.5h169v47q0 61 -40 87t-135 26q-164 0 -316 -66q-20 -9 -35.5 -1t-18.5 28l-21 152q-4 30 22 42zM218 1330q0 70 37.5 108t108.5 38t108.5 -38t37.5 -108t-37.5 -108t-108.5 -38t-108.5 38t-37.5 108zM654 1330q0 70 37.5 108t108.5 38t108.5 -38t37.5 -108 t-37.5 -108t-108.5 -38t-108.5 38t-37.5 108z" />
<glyph unicode="&#xe5;" horiz-adv-x="1172" d="M528 200q121 0 176 66v174h-156q-160 0 -160 -126q0 -56 37 -85t103 -29zM160 979q181 81 419 81q259 0 371 -93.5t112 -305.5v-624q0 -15 -10.5 -26t-26.5 -11h-284q-16 0 -26.5 11t-10.5 26v35q-106 -96 -288 -96q-158 0 -260 89.5t-102 238.5q0 169 121.5 264.5 t359.5 95.5h169v47q0 61 -40 87t-135 26q-164 0 -316 -66q-20 -9 -35.5 -1t-18.5 28l-21 152q-4 30 22 42zM822 1340q0 -96 -69 -163t-171 -67t-171 67t-69 163t69 163t171 67t171 -67t69 -163zM650 1340q0 31 -19.5 49.5t-48.5 18.5t-48.5 -18.5t-19.5 -49.5t19.5 -49.5 t48.5 -18.5t48.5 18.5t19.5 49.5z" />
<glyph unicode="&#xe6;" horiz-adv-x="1810" d="M1710 404h-652q34 -206 304 -206q122 0 227 51q19 9 34 1t17 -29l15 -141q5 -37 -29 -52q-116 -52 -286 -52q-311 0 -446 172q-66 -88 -182 -130t-251 -42q-183 0 -295 89t-112 240q0 168 123.5 264.5t361.5 96.5h165v25q0 133 -181 133q-158 0 -312 -67q-18 -7 -33 1.5 t-18 28.5l-21 149q-4 34 26 47q177 77 372 77q254 0 361 -144q129 144 343 144q239 0 374 -152t135 -404q0 -46 -3 -68q-1 -13 -12.5 -22.5t-24.5 -9.5zM526 200q131 0 178 106v134h-148q-168 0 -168 -124q0 -56 36.5 -86t101.5 -30zM1062 628h346q-5 98 -49 150t-125 52 q-79 0 -122.5 -52t-49.5 -150z" />
<glyph unicode="&#xe7;" horiz-adv-x="1052" d="M970 25q-79 -34 -197 -45l-57 -94q148 -31 148 -165q0 -94 -75.5 -145.5t-221.5 -51.5q-68 0 -116 8q-13 2 -22 13t-9 23v79q0 19 12.5 29.5t30.5 6.5q28 -7 73 -7t66.5 13.5t21.5 44.5q0 72 -137 79q-21 1 -27.5 17t3.5 35l64 124q-221 36 -342 174t-121 355 q0 252 165.5 397t450.5 145q161 0 282 -48q30 -11 27 -45l-14 -159q-2 -21 -19 -28t-39 3q-88 37 -197 37q-131 0 -207.5 -79.5t-76.5 -222.5q0 -144 76.5 -223t212.5 -79q115 0 200 38q22 10 39 3t19 -28l14 -159q3 -32 -27 -45z" />
<glyph unicode="&#xe8;" horiz-adv-x="1180" d="M592 830q-80 0 -126 -52t-50 -150h354q-6 98 -52 150t-126 52zM953 248q23 10 39 3t18 -29l15 -148q3 -32 -27 -45q-126 -53 -319 -53q-157 0 -277 41.5t-192.5 115.5t-109 171.5t-36.5 215.5q0 249 142.5 394.5t384.5 145.5q250 0 389.5 -151t139.5 -403q0 -44 -2 -68 q-2 -14 -12.5 -24t-24.5 -10h-665q20 -206 284 -206q146 0 253 50zM582 1484l185 -265q14 -19 4 -39t-35 -20h-174q-15 0 -26 11l-264 266q-18 19 -9 41t35 22h254q6 0 16 -5.5t14 -10.5z" />
<glyph unicode="&#xe9;" horiz-adv-x="1180" d="M592 830q-80 0 -126 -52t-50 -150h354q-6 98 -52 150t-126 52zM953 248q23 10 39 3t18 -29l15 -148q3 -32 -27 -45q-126 -53 -319 -53q-157 0 -277 41.5t-192.5 115.5t-109 171.5t-36.5 215.5q0 249 142.5 394.5t384.5 145.5q250 0 389.5 -151t139.5 -403q0 -44 -2 -68 q-2 -14 -12.5 -24t-24.5 -10h-665q20 -206 284 -206q146 0 253 50zM374 1219l185 265q4 5 14 10.5t16 5.5h254q26 0 35 -22t-9 -41l-264 -266q-11 -11 -26 -11h-174q-25 0 -35 20t4 39z" />
<glyph unicode="&#xea;" horiz-adv-x="1180" d="M592 830q-80 0 -126 -52t-50 -150h354q-6 98 -52 150t-126 52zM953 248q23 10 39 3t18 -29l15 -148q3 -32 -27 -45q-126 -53 -319 -53q-157 0 -277 41.5t-192.5 115.5t-109 171.5t-36.5 215.5q0 249 142.5 394.5t384.5 145.5q250 0 389.5 -151t139.5 -403q0 -44 -2 -68 q-2 -14 -12.5 -24t-24.5 -10h-665q20 -206 284 -206q146 0 253 50zM732 1486l184 -265q14 -19 6 -39t-32 -20h-175q-18 0 -29 13l-121 145l-121 -144q-12 -14 -29 -14h-177q-23 0 -31 19t6 39l185 266q12 16 30 16h273q20 0 31 -16z" />
<glyph unicode="&#xeb;" horiz-adv-x="1180" d="M592 830q-80 0 -126 -52t-50 -150h354q-6 98 -52 150t-126 52zM953 248q23 10 39 3t18 -29l15 -148q3 -32 -27 -45q-126 -53 -319 -53q-157 0 -277 41.5t-192.5 115.5t-109 171.5t-36.5 215.5q0 249 142.5 394.5t384.5 145.5q250 0 389.5 -151t139.5 -403q0 -44 -2 -68 q-2 -14 -12.5 -24t-24.5 -10h-665q20 -206 284 -206q146 0 253 50zM218 1330q0 70 37.5 108t108.5 38t108.5 -38t37.5 -108t-37.5 -108t-108.5 -38t-108.5 38t-37.5 108zM654 1330q0 70 37.5 108t108.5 38t108.5 -38t37.5 -108t-37.5 -108t-108.5 -38t-108.5 38t-37.5 108z " />
<glyph unicode="&#xec;" horiz-adv-x="616" d="M124 37v962q0 15 10.5 26t26.5 11h294q16 0 26.5 -11t10.5 -26v-962q0 -15 -10.5 -26t-26.5 -11h-294q-16 0 -26.5 11t-10.5 26zM254 1484l185 -265q14 -19 4 -39t-35 -20h-174q-15 0 -26 11l-264 266q-18 19 -9 41t35 22h254q6 0 16 -5.5t14 -10.5z" />
<glyph unicode="&#xed;" horiz-adv-x="616" d="M124 37v962q0 15 10.5 26t26.5 11h294q16 0 26.5 -11t10.5 -26v-962q0 -15 -10.5 -26t-26.5 -11h-294q-16 0 -26.5 11t-10.5 26zM165 1219l185 265q4 5 14 10.5t16 5.5h254q26 0 35 -22t-9 -41l-264 -266q-11 -11 -26 -11h-174q-25 0 -35 20t4 39z" />
<glyph unicode="&#xee;" horiz-adv-x="616" d="M124 37v962q0 15 10.5 26t26.5 11h294q16 0 26.5 -11t10.5 -26v-962q0 -15 -10.5 -26t-26.5 -11h-294q-16 0 -26.5 11t-10.5 26zM454 1484l184 -265q14 -19 6 -39t-32 -20h-175q-18 0 -29 13l-121 145l-121 -144q-12 -14 -29 -14h-177q-23 0 -31 19t6 39l185 266 q12 16 30 16h273q20 0 31 -16z" />
<glyph unicode="&#xef;" horiz-adv-x="616" d="M124 37v962q0 15 10.5 26t26.5 11h294q16 0 26.5 -11t10.5 -26v-962q0 -15 -10.5 -26t-26.5 -11h-294q-16 0 -26.5 11t-10.5 26zM-56 1330q0 70 37.5 108t108.5 38t108.5 -38t37.5 -108t-37.5 -108t-108.5 -38t-108.5 38t-37.5 108zM380 1330q0 70 37.5 108t108.5 38 t108.5 -38t37.5 -108t-37.5 -108t-108.5 -38t-108.5 38t-37.5 108z" />
<glyph unicode="&#xf0;" horiz-adv-x="1206" d="M613 1100l-278 -94q-14 -5 -28 2t-19 21l-18 60q-5 15 1 29.5t21 18.5l149 51q-62 19 -115 26q-14 2 -23 14t-8 26l17 165q2 17 14.5 27t29.5 7q237 -38 416 -151l217 74q15 5 29 -1.5t18 -21.5l20 -63q10 -34 -23 -46l-133 -46q123 -119 182.5 -268.5t59.5 -297.5 q0 -305 -139.5 -480.5t-399.5 -175.5q-246 0 -392.5 137.5t-146.5 372.5q0 223 124.5 357.5t318.5 134.5q143 0 233 -64q-42 110 -127 186zM612 746q-188 0 -188 -266q0 -130 48.5 -198t125.5 -68q43 0 75.5 20t58.5 66t40 129t14 201v26q-29 39 -75 64.5t-99 25.5z" />
<glyph unicode="&#xf1;" horiz-adv-x="1278" d="M631 820q-41 0 -82 -16t-67 -44v-723q0 -15 -11 -26t-26 -11h-294q-15 0 -26 11t-11 26v962q0 15 11 26t26 11h294q15 0 26 -11t11 -26v-37q108 98 275 98q203 0 309 -127t106 -373v-523q0 -15 -11 -26t-26 -11h-293q-16 0 -27 11t-11 26v513q0 145 -42 207.5t-131 62.5z M506 1480q76 0 164 -54q52 -32 70 -32q33 0 38 50q1 14 12 24t25 10h145q16 0 27 -11.5t10 -27.5q-8 -131 -65.5 -197t-148.5 -66q-68 0 -163 56q-5 4 -8 5q-47 27 -62 27q-33 0 -38 -51q-1 -14 -12 -23.5t-25 -9.5h-145q-16 0 -27 11.5t-10 27.5q9 132 65.5 196.5 t147.5 64.5z" />
<glyph unicode="&#xf2;" horiz-adv-x="1256" d="M628 -24q-256 0 -410 149.5t-154 392.5q0 242 154 392t410 150t410 -150t154 -392q0 -243 -154 -392.5t-410 -149.5zM628 216q90 0 141 76.5t51 225.5t-51 225.5t-141 76.5t-141 -76.5t-51 -225.5t51 -225.5t141 -76.5zM618 1484l185 -265q14 -19 4 -39t-35 -20h-174 q-15 0 -26 11l-264 266q-18 19 -9 41t35 22h254q6 0 16 -5.5t14 -10.5z" />
<glyph unicode="&#xf3;" horiz-adv-x="1256" d="M628 -24q-256 0 -410 149.5t-154 392.5q0 242 154 392t410 150t410 -150t154 -392q0 -243 -154 -392.5t-410 -149.5zM628 216q90 0 141 76.5t51 225.5t-51 225.5t-141 76.5t-141 -76.5t-51 -225.5t51 -225.5t141 -76.5zM439 1219l185 265q4 5 14 10.5t16 5.5h254 q26 0 35 -22t-9 -41l-264 -266q-11 -11 -26 -11h-174q-25 0 -35 20t4 39z" />
<glyph unicode="&#xf4;" horiz-adv-x="1256" d="M628 -24q-256 0 -410 149.5t-154 392.5q0 242 154 392t410 150t410 -150t154 -392q0 -243 -154 -392.5t-410 -149.5zM628 216q90 0 141 76.5t51 225.5t-51 225.5t-141 76.5t-141 -76.5t-51 -225.5t51 -225.5t141 -76.5zM774 1484l184 -265q14 -19 6 -39t-32 -20h-175 q-18 0 -29 13l-121 145l-121 -144q-12 -14 -29 -14h-177q-23 0 -31 19t6 39l185 266q12 16 30 16h273q20 0 31 -16z" />
<glyph unicode="&#xf5;" horiz-adv-x="1256" d="M628 -24q-256 0 -410 149.5t-154 392.5q0 242 154 392t410 150t410 -150t154 -392q0 -243 -154 -392.5t-410 -149.5zM628 216q90 0 141 76.5t51 225.5t-51 225.5t-141 76.5t-141 -76.5t-51 -225.5t51 -225.5t141 -76.5zM490 1480q76 0 164 -54q52 -32 70 -32q33 0 38 50 q1 14 12 24t25 10h145q16 0 27 -11.5t10 -27.5q-8 -131 -65.5 -197t-148.5 -66q-68 0 -163 56q-5 4 -8 5q-47 27 -62 27q-33 0 -38 -51q-1 -14 -12 -23.5t-25 -9.5h-145q-16 0 -27 11.5t-10 27.5q9 132 65.5 196.5t147.5 64.5z" />
<glyph unicode="&#xf6;" horiz-adv-x="1256" d="M628 -24q-256 0 -410 149.5t-154 392.5q0 242 154 392t410 150t410 -150t154 -392q0 -243 -154 -392.5t-410 -149.5zM628 216q90 0 141 76.5t51 225.5t-51 225.5t-141 76.5t-141 -76.5t-51 -225.5t51 -225.5t141 -76.5zM264 1330q0 70 37.5 108t108.5 38t108.5 -38 t37.5 -108t-37.5 -108t-108.5 -38t-108.5 38t-37.5 108zM700 1330q0 70 37.5 108t108.5 38t108.5 -38t37.5 -108t-37.5 -108t-108.5 -38t-108.5 38t-37.5 108z" />
<glyph unicode="&#xf7;" d="M138 788h937q16 0 26.5 -10.5t10.5 -26.5v-174q0 -15 -10.5 -26t-26.5 -11h-937q-16 0 -27 11t-11 26v174q0 16 11 26.5t27 10.5zM786 1098q0 -180 -180 -180t-180 180t180 180t180 -180zM786 230q0 -180 -180 -180t-180 180t180 180t180 -180z" />
<glyph unicode="&#xf8;" horiz-adv-x="1256" d="M1121 1202l-141 -245q101 -72 156.5 -185t55.5 -254q0 -243 -154 -392.5t-410 -149.5q-104 0 -199 27l-117 -203q-11 -20 -34 -20h-113q-22 0 -30.5 17t2.5 37l140 242q-103 72 -158 185.5t-55 256.5q0 242 154 392t410 150q108 0 200 -29l118 204q12 21 34 21h113 q22 0 30.5 -17t-2.5 -37zM436 518q0 -80 15 -140l247 427q-31 15 -70 15q-90 0 -141 -76.5t-51 -225.5zM628 216q90 0 141 76.5t51 225.5q0 78 -15 137l-245 -426q29 -13 68 -13z" />
<glyph unicode="&#xf9;" horiz-adv-x="1278" d="M647 216q41 0 82 16t67 44v723q0 15 11 26t26 11h294q15 0 26 -11t11 -26v-962q0 -15 -11 -26t-26 -11h-294q-15 0 -26 11t-11 26v37q-108 -98 -275 -98q-203 0 -309 127t-106 373v523q0 15 11 26t26 11h293q16 0 27 -11t11 -26v-513q0 -145 42 -207.5t131 -62.5z M596 1484l185 -265q14 -19 4 -39t-35 -20h-174q-15 0 -26 11l-264 266q-18 19 -9 41t35 22h254q6 0 16 -5.5t14 -10.5z" />
<glyph unicode="&#xfa;" horiz-adv-x="1278" d="M647 216q41 0 82 16t67 44v723q0 15 11 26t26 11h294q15 0 26 -11t11 -26v-962q0 -15 -11 -26t-26 -11h-294q-15 0 -26 11t-11 26v37q-108 -98 -275 -98q-203 0 -309 127t-106 373v523q0 15 11 26t26 11h293q16 0 27 -11t11 -26v-513q0 -145 42 -207.5t131 -62.5z M455 1219l185 265q4 5 14 10.5t16 5.5h254q26 0 35 -22t-9 -41l-264 -266q-11 -11 -26 -11h-174q-25 0 -35 20t4 39z" />
<glyph unicode="&#xfb;" horiz-adv-x="1278" d="M647 216q41 0 82 16t67 44v723q0 15 11 26t26 11h294q15 0 26 -11t11 -26v-962q0 -15 -11 -26t-26 -11h-294q-15 0 -26 11t-11 26v37q-108 -98 -275 -98q-203 0 -309 127t-106 373v523q0 15 11 26t26 11h293q16 0 27 -11t11 -26v-513q0 -145 42 -207.5t131 -62.5z M780 1482l184 -265q14 -19 6 -39t-32 -20h-175q-18 0 -29 13l-121 145l-121 -144q-12 -14 -29 -14h-177q-23 0 -31 19t6 39l185 266q12 16 30 16h273q20 0 31 -16z" />
<glyph unicode="&#xfc;" horiz-adv-x="1278" d="M647 216q41 0 82 16t67 44v723q0 15 11 26t26 11h294q15 0 26 -11t11 -26v-962q0 -15 -11 -26t-26 -11h-294q-15 0 -26 11t-11 26v37q-108 -98 -275 -98q-203 0 -309 127t-106 373v523q0 15 11 26t26 11h293q16 0 27 -11t11 -26v-513q0 -145 42 -207.5t131 -62.5z M270 1330q0 70 37.5 108t108.5 38t108.5 -38t37.5 -108t-37.5 -108t-108.5 -38t-108.5 38t-37.5 108zM706 1330q0 70 37.5 108t108.5 38t108.5 -38t37.5 -108t-37.5 -108t-108.5 -38t-108.5 38t-37.5 108z" />
<glyph unicode="&#xfd;" horiz-adv-x="1214" d="M1165 985l-481 -1341q-11 -30 -46 -30h-294q-20 0 -28.5 14.5t-1.5 34.5l117 328l-401 994q-8 20 0.5 35.5t28.5 15.5h298q29 0 39 -27l213 -618l188 618q8 27 39 27h300q20 0 28 -15.5t1 -35.5zM439 1219l185 265q4 5 14 10.5t16 5.5h254q26 0 35 -22t-9 -41l-264 -266 q-11 -11 -26 -11h-174q-25 0 -35 20t4 39z" />
<glyph unicode="&#xfe;" horiz-adv-x="1262" d="M482 1423v-461q49 48 121 73t143 25q194 0 322 -148.5t128 -393.5q0 -247 -128 -394.5t-322 -147.5q-163 0 -264 98v-423q0 -15 -11 -26t-26 -11h-294q-15 0 -26 11t-11 26v1772q0 15 11 26t26 11h294q15 0 26 -11t11 -26zM482 760v-484q57 -60 148 -60q194 0 194 302 t-194 302q-91 0 -148 -60z" />
<glyph unicode="&#xff;" horiz-adv-x="1214" d="M1165 985l-481 -1341q-11 -30 -46 -30h-294q-20 0 -28.5 14.5t-1.5 34.5l117 328l-401 994q-8 20 0.5 35.5t28.5 15.5h298q29 0 39 -27l213 -618l188 618q8 27 39 27h300q20 0 28 -15.5t1 -35.5zM236 1330q0 70 37.5 108t108.5 38t108.5 -38t37.5 -108t-37.5 -108 t-108.5 -38t-108.5 38t-37.5 108zM672 1330q0 70 37.5 108t108.5 38t108.5 -38t37.5 -108t-37.5 -108t-108.5 -38t-108.5 38t-37.5 108z" />
<glyph unicode="&#x152;" horiz-adv-x="1888" d="M1770 0h-870q-402 0 -614 183.5t-212 516.5q0 328 208 514t600 186h872q16 0 27 -11t11 -27v-196q0 -16 -11 -27t-27 -11h-494v-280h448q16 0 27 -11t11 -27v-196q0 -16 -11 -27t-27 -11h-448v-304h510q16 0 27 -11t11 -27v-196q0 -16 -11 -27t-27 -11zM462 700 q0 -201 108.5 -307t313.5 -111v834q-204 -3 -313 -109t-109 -307z" />
<glyph unicode="&#x153;" horiz-adv-x="1896" d="M436 518q0 -304 174 -304t174 304t-174 304t-174 -304zM1150 628h346q-5 98 -49 150t-125 52q-79 0 -122.5 -52t-49.5 -150zM1711 28q-123 -52 -307 -52q-294 0 -432 166q-128 -166 -383 -166q-241 0 -383 148.5t-142 393.5t142 393.5t383 148.5q115 0 216.5 -42.5 t166.5 -125.5q122 168 359 168q238 0 371.5 -150.5t133.5 -403.5q0 -49 -1 -67q-1 -15 -12 -25t-25 -10h-652q16 -105 95.5 -155.5t198.5 -50.5q128 0 236 52q20 9 34.5 0.5t16.5 -29.5l15 -139q4 -39 -31 -54z" />
<glyph unicode="&#x178;" horiz-adv-x="1484" d="M726 880l-286 499q-13 21 -42 21h-319q-26 0 -35.5 -16.5t3.5 -37.5l485 -795v-513q0 -16 11 -27t27 -11h312q16 0 27 11t11 27v513l485 795q13 21 3.5 37.5t-35.5 16.5h-319q-29 0 -42 -21zM378 1678q0 70 37.5 108t108.5 38t108.5 -38t37.5 -108t-37.5 -108t-108.5 -38 t-108.5 38t-37.5 108zM814 1678q0 70 37.5 108t108.5 38t108.5 -38t37.5 -108t-37.5 -108t-108.5 -38t-108.5 38t-37.5 108z" />
<glyph unicode="&#x2c6;" horiz-adv-x="920" d="M606 1444l184 -265q14 -19 6 -39t-32 -20h-175q-18 0 -29 13l-121 145l-121 -144q-12 -14 -29 -14h-177q-23 0 -31 19t6 39l185 266q12 16 30 16h273q20 0 31 -16z" />
<glyph unicode="&#x2dc;" horiz-adv-x="920" d="M320 1440q76 0 164 -54q52 -32 70 -32q33 0 38 50q1 14 12 24t25 10h145q16 0 27 -11.5t10 -27.5q-8 -131 -65.5 -197t-148.5 -66q-68 0 -163 56q-5 4 -8 5q-47 27 -62 27q-33 0 -38 -51q-1 -14 -12 -23.5t-25 -9.5h-145q-16 0 -27 11.5t-10 27.5q9 132 65.5 196.5 t147.5 64.5z" />
<glyph unicode="&#x2000;" horiz-adv-x="953" />
<glyph unicode="&#x2001;" horiz-adv-x="1907" />
<glyph unicode="&#x2002;" horiz-adv-x="953" />
<glyph unicode="&#x2003;" horiz-adv-x="1907" />
<glyph unicode="&#x2004;" horiz-adv-x="635" />
<glyph unicode="&#x2005;" horiz-adv-x="476" />
<glyph unicode="&#x2006;" horiz-adv-x="317" />
<glyph unicode="&#x2007;" horiz-adv-x="317" />
<glyph unicode="&#x2008;" horiz-adv-x="238" />
<glyph unicode="&#x2009;" horiz-adv-x="381" />
<glyph unicode="&#x200a;" horiz-adv-x="105" />
<glyph unicode="&#x2010;" horiz-adv-x="792" d="M655 530h-518q-15 0 -26 11t-11 26v194q0 16 11 26.5t26 10.5h518q16 0 26.5 -10.5t10.5 -26.5v-194q0 -15 -10.5 -26t-26.5 -11z" />
<glyph unicode="&#x2011;" horiz-adv-x="792" d="M655 530h-518q-15 0 -26 11t-11 26v194q0 16 11 26.5t26 10.5h518q16 0 26.5 -10.5t10.5 -26.5v-194q0 -15 -10.5 -26t-26.5 -11z" />
<glyph unicode="&#x2012;" horiz-adv-x="792" d="M655 530h-518q-15 0 -26 11t-11 26v194q0 16 11 26.5t26 10.5h518q16 0 26.5 -10.5t10.5 -26.5v-194q0 -15 -10.5 -26t-26.5 -11z" />
<glyph unicode="&#x2013;" horiz-adv-x="1000" d="M963 540h-926q-15 0 -26 11t-11 26v174q0 16 11 26.5t26 10.5h926q15 0 26 -10.5t11 -26.5v-174q0 -15 -11 -26t-26 -11z" />
<glyph unicode="&#x2014;" horiz-adv-x="2000" d="M1963 540h-1926q-15 0 -26 11t-11 26v174q0 16 11 26.5t26 10.5h1926q16 0 26.5 -10.5t10.5 -26.5v-174q0 -15 -10.5 -26t-26.5 -11z" />
<glyph unicode="&#x2018;" horiz-adv-x="620" d="M490 1063q0 -179 -180 -179q-89 0 -134.5 43t-45.5 157q0 290 245 442q13 8 27.5 4.5t23.5 -16.5l40 -60q7 -10 5.5 -25t-11.5 -23q-80 -73 -96 -166q126 -22 126 -177z" />
<glyph unicode="&#x2019;" horiz-adv-x="620" d="M130 1365q0 179 180 179q89 0 134.5 -43t45.5 -157q0 -290 -245 -442q-13 -8 -27.5 -4.5t-23.5 16.5l-40 60q-7 10 -5.5 25t11.5 23q80 73 96 166q-126 22 -126 177z" />
<glyph unicode="&#x201a;" horiz-adv-x="620" d="M130 157q0 179 180 179q89 0 134.5 -43t45.5 -157q0 -290 -245 -442q-13 -8 -27.5 -4.5t-23.5 16.5l-40 60q-7 10 -5.5 25t11.5 23q80 73 96 166q-126 22 -126 177z" />
<glyph unicode="&#x201c;" horiz-adv-x="1062" d="M490 1063q0 -179 -180 -179q-89 0 -134.5 43t-45.5 157q0 290 245 442q13 8 27.5 4.5t23.5 -16.5l40 -60q7 -10 5.5 -25t-11.5 -23q-80 -73 -96 -166q126 -22 126 -177zM932 1063q0 -179 -180 -179q-89 0 -134.5 43t-45.5 157q0 290 245 442q13 8 27.5 4.5t23.5 -16.5 l40 -60q7 -10 5.5 -25t-11.5 -23q-80 -73 -96 -166q126 -22 126 -177z" />
<glyph unicode="&#x201d;" horiz-adv-x="1062" d="M130 1365q0 179 180 179q89 0 134.5 -43t45.5 -157q0 -290 -245 -442q-13 -8 -27.5 -4.5t-23.5 16.5l-40 60q-7 10 -5.5 25t11.5 23q80 73 96 166q-126 22 -126 177zM572 1365q0 179 180 179q89 0 134.5 -43t45.5 -157q0 -290 -245 -442q-13 -8 -27.5 -4.5t-23.5 16.5 l-40 60q-7 10 -5.5 25t11.5 23q80 73 96 166q-126 22 -126 177z" />
<glyph unicode="&#x201e;" horiz-adv-x="1062" d="M130 157q0 179 180 179q89 0 134.5 -43t45.5 -157q0 -290 -245 -442q-13 -8 -27.5 -4.5t-23.5 16.5l-40 60q-7 10 -5.5 25t11.5 23q80 73 96 166q-126 22 -126 177zM572 157q0 179 180 179q89 0 134.5 -43t45.5 -157q0 -290 -245 -442q-13 -8 -27.5 -4.5t-23.5 16.5 l-40 60q-7 10 -5.5 25t11.5 23q80 73 96 166q-126 22 -126 177z" />
<glyph unicode="&#x2022;" horiz-adv-x="964" d="M764 664q0 -138 -72.5 -213t-209.5 -75t-209.5 75t-72.5 213t72.5 213t209.5 75t209.5 -75t72.5 -213z" />
<glyph unicode="&#x2026;" horiz-adv-x="1860" d="M490 156q0 -180 -180 -180t-180 180t180 180t180 -180zM1110 156q0 -180 -180 -180t-180 180t180 180t180 -180zM1730 156q0 -180 -180 -180t-180 180t180 180t180 -180z" />
<glyph unicode="&#x202f;" horiz-adv-x="381" />
<glyph unicode="&#x2039;" horiz-adv-x="664" d="M120 545v159q0 17 12 27l370 341q19 17 40.5 7.5t21.5 -35.5v-194q0 -19 -12 -29l-218 -197l218 -197q4 -3 8 -13.5t4 -15.5v-193q0 -26 -21.5 -36.5t-40.5 6.5l-370 342q-12 10 -12 28z" />
<glyph unicode="&#x203a;" horiz-adv-x="664" d="M544 704v-159q0 -18 -12 -28l-370 -342q-19 -17 -40.5 -6.5t-21.5 36.5v193q0 5 4 15.5t8 13.5l218 197l-218 197q-12 10 -12 29v194q0 26 21.5 35.5t40.5 -7.5l370 -341q12 -10 12 -27z" />
<glyph unicode="&#x205f;" horiz-adv-x="476" />
<glyph unicode="&#x20ac;" horiz-adv-x="1350" d="M133 700q0 37 1 56h-56q-16 0 -27 11t-11 26v62q0 15 11 26t27 11h75q55 248 246.5 390t486.5 142q211 0 361 -66q11 -5 19 -17.5t7 -23.5l-16 -207q-1 -22 -18.5 -31t-36.5 1q-115 58 -257 58q-150 0 -249 -64t-141 -182h527q19 0 29.5 -14t5.5 -33l-17 -62 q-3 -11 -13.5 -19t-21.5 -8h-538q-2 -36 -2 -56q0 -40 2 -58h483q19 0 29.5 -14.5t5.5 -33.5l-18 -63q-3 -10 -13 -17.5t-20 -7.5h-439q44 -120 146 -184t254 -64q134 0 255 62q19 10 36 1t19 -31l18 -204q1 -12 -5.5 -26.5t-15.5 -18.5q-165 -67 -368 -67q-297 0 -491 141 t-250 391h-75q-16 0 -27 10.5t-11 26.5v61q0 16 11 27t27 11h56q-1 19 -1 58z" />
<glyph unicode="&#x2122;" horiz-adv-x="1416" d="M182 775v465h-131q-15 0 -26 11t-11 26v86q0 15 11 26t26 11h474q15 0 26 -11t11 -26v-86q0 -15 -11 -26t-26 -11h-131v-465q0 -15 -11 -26t-26 -11h-138q-15 0 -26 11t-11 26zM891 950l-81 160v-335q0 -15 -11 -26t-27 -11h-120q-16 0 -27 11t-11 26v586q0 15 11 26 t27 11h147q8 0 18.5 -6.5t14.5 -13.5l146 -276l145 276q12 20 33 20h149q16 0 26.5 -11t10.5 -26v-586q0 -15 -10.5 -26t-26.5 -11h-122q-15 0 -26 11t-11 26v335l-82 -160q-4 -8 -14.5 -14t-19.5 -6h-106q-8 0 -18.5 6.5t-14.5 13.5z" />
<glyph unicode="&#x25fc;" horiz-adv-x="1035" d="M0 1035h1035v-1035h-1035v1035z" />
</font>
</defs>
</svg>
