<?xml version="1.0" standalone="no"?>
<!DOCTYPE svg PUBLIC "-//W3C//DTD SVG 1.1//EN" "http://www.w3.org/Graphics/SVG/1.1/DTD/svg11.dtd" >
<svg xmlns="http://www.w3.org/2000/svg">
<metadata></metadata>
<defs>
<font id="core_sans_nr_27_cn_extraltIt" horiz-adv-x="824" >
<font-face units-per-em="2000" ascent="1600" descent="-400" />
<missing-glyph horiz-adv-x="450" />
<glyph unicode="&#xfb01;" horiz-adv-x="856" d="M798 1360q11 58 27 79t46 21t38 -21t-3 -79t-27 -79t-47 -21q-30 0 -37.5 21t3.5 79zM551 19l194 998q2 8 9 13.5t15 5.5h43q8 0 12.5 -5.5t2.5 -13.5l-194 -998q-4 -19 -22 -19h-43q-8 0 -13.5 5.5t-3.5 13.5zM667 1382q-30 8 -61 8q-56 0 -92 -18.5t-67 -76t-51 -161.5 l-19 -98h214q8 0 13 -5.5t3 -13.5l-6 -32q-1 -8 -8.5 -13.5t-15.5 -5.5h-214l-259 -1333q-2 -8 -9 -13.5t-15 -5.5h-43q-7 0 -12 5.5t-3 13.5l259 1333h-152q-19 0 -16 19l6 32q2 8 9 13.5t15 5.5h152l20 106q33 169 104.5 243.5t191.5 74.5q51 0 84 -11q16 -4 11 -23 l-9 -30q-6 -20 -30 -14z" />
<glyph unicode="&#xfb02;" horiz-adv-x="856" d="M551 19l277 1422q4 19 23 19h43q8 0 13 -5.5t3 -13.5l-277 -1422q-4 -19 -22 -19h-43q-8 0 -13.5 5.5t-3.5 13.5zM667 1382q-30 8 -61 8q-56 0 -92 -18.5t-67 -76t-51 -161.5l-19 -98h214q8 0 13 -5.5t3 -13.5l-6 -32q-1 -8 -8.5 -13.5t-15.5 -5.5h-214l-259 -1333 q-2 -8 -9 -13.5t-15 -5.5h-43q-7 0 -12 5.5t-3 13.5l259 1333h-152q-19 0 -16 19l6 32q2 8 9 13.5t15 5.5h152l20 106q33 169 104.5 243.5t191.5 74.5q51 0 84 -11q16 -4 11 -23l-9 -30q-6 -20 -30 -14z" />
<glyph unicode="&#xfb03;" horiz-adv-x="1310" d="M1252 1360q11 58 27 79t46 21t38 -21t-3 -79t-27 -79t-47 -21q-30 0 -37.5 21t3.5 79zM1005 19l194 998q2 8 9 13.5t15 5.5h43q8 0 12.5 -5.5t2.5 -13.5l-194 -998q-4 -19 -22 -19h-43q-8 0 -13.5 5.5t-3.5 13.5zM711 1379q-34 11 -83 11q-98 0 -150.5 -54t-81.5 -202 l-19 -98h372l20 106q33 169 104.5 243.5t191.5 74.5q51 0 84 -11q16 -4 11 -23l-9 -30q-6 -20 -30 -14q-30 8 -61 8q-56 0 -92 -18.5t-67 -76t-51 -161.5l-19 -98h214q8 0 13 -5.5t3 -13.5l-6 -32q-1 -8 -8.5 -13.5t-15.5 -5.5h-214l-259 -1333q-2 -8 -9 -13.5t-15 -5.5h-43 q-7 0 -12 5.5t-3 13.5l259 1333h-372l-259 -1333q-2 -8 -9 -13.5t-15 -5.5h-43q-7 0 -12 5.5t-3 13.5l259 1333h-152q-19 0 -16 19l6 32q2 8 9 13.5t15 5.5h152l20 106q32 165 108 241.5t210 76.5q62 0 105 -15q15 -4 11 -22l-9 -30q-5 -22 -29 -14z" />
<glyph unicode="&#xfb04;" horiz-adv-x="1310" d="M1005 19l277 1422q4 19 23 19h43q8 0 13 -5.5t3 -13.5l-277 -1422q-4 -19 -22 -19h-43q-8 0 -13.5 5.5t-3.5 13.5zM711 1379q-34 11 -83 11q-98 0 -150.5 -54t-81.5 -202l-19 -98h372l20 106q33 169 104.5 243.5t191.5 74.5q51 0 84 -11q16 -4 11 -23l-9 -30 q-6 -20 -30 -14q-30 8 -61 8q-56 0 -92 -18.5t-67 -76t-51 -161.5l-19 -98h214q8 0 13 -5.5t3 -13.5l-6 -32q-1 -8 -8.5 -13.5t-15.5 -5.5h-214l-259 -1333q-2 -8 -9 -13.5t-15 -5.5h-43q-7 0 -12 5.5t-3 13.5l259 1333h-372l-259 -1333q-2 -8 -9 -13.5t-15 -5.5h-43 q-7 0 -12 5.5t-3 13.5l259 1333h-152q-19 0 -16 19l6 32q2 8 9 13.5t15 5.5h152l20 106q32 165 108 241.5t210 76.5q62 0 105 -15q15 -4 11 -22l-9 -30q-5 -22 -29 -14z" />
<glyph horiz-adv-x="666" />
<glyph horiz-adv-x="0" />
<glyph horiz-adv-x="0" />
<glyph unicode="&#xd;" horiz-adv-x="268" />
<glyph unicode=" "  horiz-adv-x="450" />
<glyph unicode="&#x09;" horiz-adv-x="450" />
<glyph unicode="&#xa0;" horiz-adv-x="450" />
<glyph unicode="!" horiz-adv-x="416" d="M186 338h-28q-8 0 -13 5.5t-3 13.5l110 628l77 396q4 19 23 19h54q8 0 12.5 -5.5t2.5 -13.5l-77 -396l-134 -628q-2 -8 -9 -13.5t-15 -5.5zM66 72q11 55 28 76.5t46 21.5t37 -20.5t-3 -77.5q-10 -55 -27 -76.5t-46 -21.5t-37 20.5t2 77.5z" />
<glyph unicode="&#x22;" horiz-adv-x="642" d="M240 869l96 512q4 19 23 19h48q8 0 12.5 -5.5t2.5 -13.5l-20 -105l-90 -408q-4 -18 -22 -18h-34q-8 0 -13 5.5t-3 13.5zM456 869l96 512q4 19 23 19h48q8 0 12.5 -5.5t2.5 -13.5l-20 -105l-90 -408q-4 -18 -22 -18h-34q-8 0 -13 5.5t-3 13.5z" />
<glyph unicode="#" horiz-adv-x="972" d="M379 952h-159q-8 0 -13 6t-4 14l7 35q1 8 8.5 13.5t15.5 5.5h168l116 353q6 21 27 21h38q22 0 14 -22l-115 -352h284l116 353q6 21 27 21h38q22 0 14 -22l-115 -352h148q19 0 16 -19l-7 -35q-4 -20 -23 -20h-157l-163 -498h159q19 0 16 -19l-7 -35q-4 -20 -24 -20h-168 l-116 -359q-8 -21 -27 -21h-38q-23 0 -15 22l116 358h-284l-116 -359q-8 -21 -27 -21h-38q-23 0 -15 22l116 358h-148q-8 0 -13 6t-3 14l7 35q1 8 8.5 13.5t15.5 5.5h157zM459 952l-163 -498h284l163 498h-284z" />
<glyph unicode="$" horiz-adv-x="808" d="M648 1581l-31 -157q120 -2 203 -41q14 -7 10 -23l-11 -41q-3 -10 -11.5 -13t-17.5 2q-74 42 -187 42l-116 -597q139 -72 189 -167.5t22 -239.5q-30 -153 -124.5 -248t-236.5 -116l-31 -159q-1 -8 -8 -13.5t-15 -5.5h-30q-18 0 -15 19l30 153h-12q-141 0 -245 53 q-15 7 -9 23l11 44q3 10 11.5 13t17.5 -2q96 -57 228 -57h12l126 647q-140 66 -190.5 158.5t-23.5 232.5q26 136 120.5 224.5t233.5 106.5l32 162q3 19 23 19h30q18 0 15 -19zM614 346q21 110 -13.5 186t-130.5 133l-118 -607q104 22 171.5 97t90.5 191zM278 1088 q-20 -103 14.5 -175t132.5 -128l109 558q-103 -18 -169.5 -85.5t-86.5 -169.5z" />
<glyph unicode="%" horiz-adv-x="1310" d="M1127 344q-33 -172 -111.5 -266t-186.5 -94t-149.5 94t-8.5 266q34 172 112 266t186 94t150 -94t8 -266zM1047 344q56 290 -91 290q-149 0 -205 -290t92 -290t204 290zM699 1054q-33 -172 -111.5 -266t-186.5 -94t-149.5 94t-8.5 266q34 172 112 266t186 94t150 -94 t8 -266zM619 1054q56 290 -91 290q-149 0 -205 -290t92 -290t204 290zM181 24l939 1360q12 16 28 16h31q27 0 11 -24l-938 -1360q-13 -16 -28 -16h-31q-29 0 -12 24z" />
<glyph unicode="&#x26;" horiz-adv-x="956" d="M295 46q198 0 336 214l-244 432q-135 -85 -195.5 -172.5t-80.5 -189.5q-25 -127 26 -205.5t158 -78.5zM425 796q129 79 188 156.5t78 169.5q21 109 -12.5 168.5t-113.5 59.5q-77 0 -136 -58.5t-79 -163.5q-18 -67 -3 -143t78 -189zM771 15l-98 173q-159 -214 -394 -214 q-140 0 -212.5 95.5t-39.5 262.5q24 124 101 226t225 194q-67 119 -85.5 204.5t-1.5 171.5q27 141 114 218.5t201 77.5q113 0 167 -79t26 -225q-41 -213 -314 -384l222 -390q77 159 121 369q5 19 24 19h44q8 0 13 -6.5t3 -14.5q-64 -280 -160 -445l136 -240q7 -11 0 -19.5 t-20 -8.5h-42q-21 0 -30 15z" />
<glyph unicode="'" horiz-adv-x="436" d="M246 869l96 512q4 19 23 19h48q8 0 12.5 -5.5t2.5 -13.5l-20 -105l-90 -408q-4 -18 -22 -18h-34q-8 0 -13 5.5t-3 13.5z" />
<glyph unicode="(" horiz-adv-x="556" d="M203 620q45 229 154 453.5t261 412.5q12 14 27 14h28q26 0 7 -24q-149 -189 -251 -409t-146 -447q-44 -229 -27 -447.5t92 -408.5q9 -24 -17 -24h-28q-15 0 -21 14q-79 188 -101 407.5t22 458.5z" />
<glyph unicode=")" horiz-adv-x="556" d="M384 620q-45 -229 -154 -453.5t-261 -412.5q-12 -14 -27 -14h-28q-26 0 -7 24q149 189 251 409t146 447q44 229 27 447.5t-92 408.5q-9 24 17 24h28q15 0 21 -14q79 -188 101 -407.5t-22 -458.5z" />
<glyph unicode="*" horiz-adv-x="980" d="M843 427l-292 175l6 -339q0 -8 -6 -13.5t-14 -5.5h-44q-7 0 -13 6t-6 13l5 340l-291 -175q-17 -9 -27 8l-22 38q-4 6 -2 14t9 12l296 165l-296 163q-17 10 -6 28l21 38q4 6 12 8.5t14 -1.5l292 -175l-6 339q0 8 6 13.5t14 5.5h44q7 0 13 -6t6 -13l-5 -341l291 176 q17 9 27 -8l22 -38q4 -6 2 -14t-9 -12l-297 -165l297 -163q7 -4 8.5 -12t-2.5 -16l-21 -38q-4 -6 -12 -8.5t-14 1.5z" />
<glyph unicode="+" horiz-adv-x="1060" d="M518 205v421h-385q-8 0 -13.5 5.5t-5.5 13.5v38q0 7 6 13t13 6h385v421q0 8 5.5 13.5t13.5 5.5h46q8 0 13.5 -5.5t5.5 -13.5v-421h384q8 0 14 -5.5t6 -13.5v-38q0 -8 -6 -13.5t-14 -5.5h-384v-421q0 -19 -19 -19h-46q-19 0 -19 19z" />
<glyph unicode="," horiz-adv-x="436" d="M-1 -182q74 74 96 158q-18 6 -23 26t3 70q11 55 28 76.5t46 21.5t37 -20t-1 -70q-19 -95 -51.5 -162.5t-101.5 -134.5q-14 -14 -24 -1l-11 18q-7 9 2 18z" />
<glyph unicode="-" horiz-adv-x="712" d="M606 624h-465q-7 0 -12 5.5t-4 13.5l9 42q4 19 22 19h465q8 0 13.5 -5.5t3.5 -13.5l-9 -42q-1 -7 -8 -13t-15 -6z" />
<glyph unicode="." horiz-adv-x="436" d="M76 72q11 55 28 76.5t46 21.5t37 -20.5t-3 -77.5q-10 -55 -27 -76.5t-46 -21.5t-37 20.5t2 77.5z" />
<glyph unicode="/" horiz-adv-x="666" d="M855 1468l-932 -1669q-9 -19 -29 -19h-35q-27 0 -12 28l931 1669q10 19 29 19h36q27 0 12 -28z" />
<glyph unicode="0" horiz-adv-x="872" d="M330 -24q-183 0 -238.5 176t15.5 548q71 369 196 546.5t308 177.5t239 -176t-15 -548q-72 -369 -197 -546.5t-308 -177.5zM344 50q143 0 241.5 154t165.5 496q65 346 27 498t-181 152t-241.5 -154.5t-164.5 -495.5q-65 -346 -27.5 -498t180.5 -152z" />
<glyph unicode="1" horiz-adv-x="872" d="M585 1286l-237 -205q-21 -17 -31 -1l-17 27q-9 14 8 30l291 249q17 14 35 14h38q8 0 13 -5.5t3 -13.5l-265 -1362q-4 -19 -23 -19h-45q-8 0 -12.5 6t-3.5 13z" />
<glyph unicode="2" horiz-adv-x="872" d="M319 1371q114 53 236 53q158 0 230 -93.5t37 -272.5q-24 -121 -92 -242.5t-187 -269.5q-213 -264 -421 -474h491q19 0 16 -19l-7 -34q-4 -19 -22 -19h-580q-8 0 -12.5 6t-3.5 13l6 29q4 20 18 33q187 182 448 505q224 277 262 470q27 143 -27.5 218.5t-175.5 75.5 q-109 0 -214 -50q-11 -5 -18.5 -1.5t-6.5 13.5l4 32q2 19 19 27z" />
<glyph unicode="3" horiz-adv-x="872" d="M291 697q-17 2 -13 19l7 36q3 17 21 19q168 10 285 96t145 231q21 110 -34 181t-187 71q-109 0 -216 -49q-10 -5 -17 -2t-6 13l3 40q2 15 18 22q116 50 238 50q165 0 239.5 -88t46.5 -232q-29 -150 -123.5 -243t-242.5 -127q293 -79 233 -386q-32 -167 -152 -269.5 t-300 -102.5q-131 0 -224 52q-14 7 -9 23l11 41q3 10 11.5 13.5t16.5 -1.5q87 -54 208 -54q142 0 235 83t119 215q30 155 -50.5 244.5t-262.5 104.5z" />
<glyph unicode="4" horiz-adv-x="872" d="M548 334h-505q-7 0 -12 5.5t-3 13.5l8 39q2 16 14 32l683 960q11 16 29 16h58q8 0 13 -5.5t3 -13.5l-190 -975h121q19 0 16 -19l-7 -34q-4 -19 -23 -19h-121l-61 -315q-4 -19 -23 -19h-45q-8 0 -12.5 6t-3.5 13zM729 1264l-607 -858h440z" />
<glyph unicode="5" horiz-adv-x="872" d="M52 23q-15 8 -11 28l10 35q3 12 12 16t19 -3q71 -49 188 -49q142 0 248 96t138 264q33 168 -24 261t-197 93q-91 0 -188 -38q-15 -5 -25.5 1t-7.5 20l123 634q1 7 8 13t15 6h519q8 0 13 -5.5t3 -13.5l-7 -36q-1 -8 -8.5 -13.5t-15.5 -5.5h-454l-101 -520q71 30 164 30 q157 0 232 -111t35 -315q-39 -199 -167 -316.5t-313 -117.5q-129 0 -208 47z" />
<glyph unicode="6" horiz-adv-x="872" d="M868 1395q14 -6 8 -22l-12 -42q-5 -21 -26 -11q-66 30 -155 30q-330 0 -466 -616q141 150 315 150q158 0 222.5 -120.5t23.5 -333.5q-41 -211 -154.5 -332.5t-267.5 -121.5q-118 0 -185.5 71.5t-83.5 222.5t31 386q77 395 226 581.5t355 186.5q91 0 169 -29zM510 810 q-164 0 -314 -186q-50 -290 -5 -432t177 -142q120 0 206.5 105t119.5 275q35 177 -11.5 278.5t-172.5 101.5z" />
<glyph unicode="7" horiz-adv-x="872" d="M152 25l653 1301h-532q-19 0 -16 19l7 36q2 8 9 13.5t15 5.5h602q8 0 13 -5.5t3 -13.5l-7 -35q-5 -26 -16 -48l-642 -1279q-9 -19 -29 -19h-46q-27 0 -14 25z" />
<glyph unicode="8" horiz-adv-x="872" d="M42 350q25 130 118.5 229.5t228.5 160.5q-30 21 -52.5 39.5t-46 44t-36.5 50.5t-24 60t-9 72t9 86q29 149 134.5 240.5t241.5 91.5q142 0 212.5 -90t41.5 -240q-24 -120 -107 -213t-199 -149q136 -87 183.5 -174t22.5 -214q-32 -169 -153 -268.5t-278 -99.5 q-158 0 -240 99t-47 275zM676 344q8 47 7 84.5t-14.5 69t-32 56.5t-46 48t-56.5 43t-63 42q-14 8 -21 13q-129 -53 -216 -145.5t-108 -204.5q-27 -139 34 -219.5t183 -80.5q121 0 214.5 81.5t118.5 212.5zM314 1094q-9 -34 -6.5 -67t7 -58t19.5 -50t29.5 -44t37.5 -38.5 t44 -34.5t48 -32q115 50 189 134t95 192q22 118 -28 186t-157 68q-99 0 -177 -70t-101 -186z" />
<glyph unicode="9" horiz-adv-x="872" d="M69 5q-13 5 -8 22l12 42q5 21 26 11q66 -30 155 -30q330 0 466 616q-141 -150 -315 -150q-158 0 -222.5 120.5t-23.5 333.5q41 211 154.5 332.5t267.5 121.5q118 0 185.5 -71.5t83.5 -222.5t-31 -386q-77 -395 -226 -581.5t-355 -186.5q-91 0 -169 29zM427 590 q164 0 314 186q50 290 5 432t-177 142q-120 0 -206.5 -105t-119.5 -275q-35 -177 11.5 -278.5t172.5 -101.5z" />
<glyph unicode=":" horiz-adv-x="436" d="M76 72q11 55 28 76.5t46 21.5t37 -20.5t-3 -77.5q-10 -55 -27 -76.5t-46 -21.5t-37 20.5t2 77.5zM249 962q11 55 28 76.5t46 21.5t37 -20.5t-3 -77.5q-10 -55 -27 -76.5t-46 -21.5t-37 20.5t2 77.5z" />
<glyph unicode=";" horiz-adv-x="436" d="M248 962q11 55 28 76.5t46 21.5t37 -20.5t-3 -77.5q-10 -55 -27 -76.5t-46 -21.5t-37 20.5t2 77.5zM-1 -182q74 74 96 158q-18 6 -23 26t3 70q11 55 28 76.5t46 21.5t37 -20t-1 -70q-19 -95 -51.5 -162.5t-101.5 -134.5q-14 -14 -24 -1l-11 18q-7 9 2 18z" />
<glyph unicode="&#x3c;" horiz-adv-x="1060" d="M114 645v38q0 18 16 27l851 439q11 5 18 0.5t7 -15.5v-36q0 -17 -18 -27l-794 -407l794 -407q18 -10 18 -27v-36q0 -11 -7 -15.5t-18 0.5l-851 439q-16 9 -16 27z" />
<glyph unicode="=" horiz-adv-x="1060" d="M986 846h-853q-8 0 -13.5 6t-5.5 14v37q0 8 5.5 13.5t13.5 5.5h853q8 0 14 -5.5t6 -13.5v-37q0 -8 -6 -14t-14 -6zM986 406h-853q-8 0 -13.5 6t-5.5 14v37q0 8 5.5 13.5t13.5 5.5h853q8 0 14 -5.5t6 -13.5v-37q0 -8 -6 -14t-14 -6z" />
<glyph unicode="&#x3e;" horiz-adv-x="1060" d="M1006 683v-38q0 -18 -16 -27l-851 -439q-11 -5 -18 -0.5t-7 15.5v36q0 17 18 27l794 407l-794 407q-18 10 -18 27v36q0 11 7 15.5t18 -0.5l851 -439q16 -9 16 -27z" />
<glyph unicode="?" horiz-adv-x="802" d="M190 72q11 55 28 76.5t46 21.5t37 -20.5t-3 -77.5q-10 -55 -27 -76.5t-46 -21.5t-37 20.5t2 77.5zM268 1293q-12 -6 -20 -2.5t-7 14.5l4 35q1 18 21 28q117 56 241 56q163 0 238 -85.5t45 -240.5q-20 -102 -82.5 -193.5t-181.5 -186.5q-76 -62 -114.5 -136t-61.5 -194 l-5 -27q-1 -8 -8 -13.5t-15 -5.5h-46q-18 0 -15 19l6 35q27 138 74.5 223t140.5 159q103 82 154 158t69 166q22 115 -33.5 181.5t-182.5 66.5q-115 0 -221 -57z" />
<glyph unicode="@" horiz-adv-x="1494" d="M958 -156q24 15 27 -6l7 -36q4 -16 -15 -28q-157 -98 -373 -98q-194 0 -322.5 110t-169 304t6.5 458q78 401 298.5 638.5t499.5 237.5q185 0 309.5 -100.5t168.5 -286t-4 -447.5q-42 -216 -138.5 -353t-220.5 -137q-65 0 -105 39.5t-38 128.5q-125 -156 -311 -156 q-114 0 -164.5 88t-22.5 236q24 125 78.5 231t124.5 175.5t149.5 108.5t157.5 39q154 0 214 -125q16 -34 2 -74l-128 -385q-37 -106 -23 -173t79 -67q62 0 114.5 59t88.5 151.5t59 213.5q41 230 11 399t-138 265t-277 96q-246 0 -437 -217t-263 -585q-44 -244 -11 -421 t144 -277t282 -100q197 0 340 94zM908 390l139 424q-38 106 -162 106q-126 0 -248 -134.5t-162 -341.5q-25 -125 8 -193.5t113 -68.5q166 0 312 208z" />
<glyph unicode="A" horiz-adv-x="924" d="M609 1298l-390 -822h460zM599 1400h60q19 0 22 -20l125 -1355q2 -11 -4 -18t-17 -7h-44q-21 0 -22 18l-32 384h-504l-182 -384q-10 -18 -28 -18h-44q-11 0 -14.5 7t1.5 18l653 1355q9 20 30 20z" />
<glyph unicode="B" horiz-adv-x="946" d="M375 0h-312q-8 0 -13.5 5.5t-3.5 13.5l265 1362q2 8 9 13.5t15 5.5h304q167 0 241.5 -97t42.5 -261q-22 -116 -75 -189.5t-147 -120.5q196 -83 144 -350q-36 -185 -157 -283.5t-313 -98.5zM275 762h290q102 0 176 78.5t98 199.5q25 132 -32 209t-185 77h-238zM761 382 q29 150 -33 229t-203 79h-264l-121 -618h248q152 0 248 81t125 229z" />
<glyph unicode="C" horiz-adv-x="890" d="M719 11q-93 -35 -211 -35q-124 0 -215.5 52t-141.5 146.5t-62.5 228t20.5 297.5q63 329 246.5 526.5t431.5 197.5q112 0 191 -37q15 -8 11 -23l-11 -39q-2 -10 -10.5 -13t-18.5 2q-74 36 -172 36q-212 0 -369 -176t-215 -474q-59 -299 30 -474.5t301 -175.5q102 0 194 34 q11 5 18.5 2t6.5 -13l-5 -39q-1 -16 -19 -23z" />
<glyph unicode="D" horiz-adv-x="1010" d="M887 700q62 322 -22.5 474t-338.5 152h-142l-243 -1252h142q253 0 397 152t207 474zM334 1400h205q286 0 393.5 -172t38.5 -528t-243.5 -528t-460.5 -172h-205q-8 0 -13 5.5t-3 13.5l265 1362q4 19 23 19z" />
<glyph unicode="E" horiz-adv-x="856" d="M46 19l265 1362q4 19 23 19h593q8 0 13 -5.5t3 -13.5l-7 -35q-4 -20 -24 -20h-528l-110 -566h490q8 0 13 -5.5t4 -13.5l-7 -35q-4 -20 -24 -20h-490l-119 -612h543q8 0 12 -6t3 -14l-7 -35q-4 -19 -22 -19h-608q-8 0 -13 5.5t-3 13.5z" />
<glyph unicode="F" horiz-adv-x="810" d="M46 19l265 1362q4 19 23 19h594q8 0 12.5 -5.5t2.5 -13.5l-7 -35q-4 -20 -23 -20h-529l-109 -560h490q8 0 13.5 -5.5t3.5 -13.5l-7 -35q-4 -20 -24 -20h-490l-131 -673q-4 -19 -22 -19h-44q-8 0 -13.5 6t-4.5 13z" />
<glyph unicode="G" horiz-adv-x="1056" d="M1055 1363q14 -9 10 -24l-11 -39q-2 -10 -11 -13t-19 3q-99 60 -246 60q-208 0 -367 -175t-217 -475q-59 -302 33 -476t312 -174q145 0 227 44l109 560h-306q-8 0 -13 6t-3 14l6 35q2 8 9 13.5t15 5.5h368q8 0 13 -5.5t3 -13.5l-122 -627q-4 -21 -12.5 -32.5t-26.5 -19.5 q-111 -54 -283 -54q-256 0 -367.5 194t-45.5 530q64 333 250 528.5t432 195.5q165 0 263 -61z" />
<glyph unicode="H" horiz-adv-x="1064" d="M46 19l265 1362q4 19 23 19h46q7 0 12 -5.5t3 -13.5l-116 -597h608l116 597q1 7 8 13t15 6h46q8 0 12.5 -5.5t2.5 -13.5l-265 -1362q-4 -19 -22 -19h-46q-8 0 -12.5 6t-3.5 13l135 691h-608l-135 -691q-4 -19 -22 -19h-46q-8 0 -13 5.5t-3 13.5z" />
<glyph unicode="I" horiz-adv-x="396" d="M347 1400h45q7 0 12 -5.5t3 -13.5l-265 -1362q-4 -19 -22 -19h-45q-8 0 -13.5 5.5t-3.5 13.5l265 1362q2 8 9 13.5t15 5.5z" />
<glyph unicode="J" horiz-adv-x="650" d="M-74 8q-16 8 -10 23l10 41q7 22 30 11q63 -33 144 -33q127 0 195 86t113 312l181 933q4 19 23 19h46q8 0 12.5 -5.5t2.5 -13.5l-183 -939q-49 -255 -139.5 -360.5t-262.5 -105.5q-99 0 -162 32z" />
<glyph unicode="K" horiz-adv-x="876" d="M395 1381l-120 -619l614 624q14 14 33 14h37q16 0 18.5 -10t-9.5 -21l-612 -623l421 -715q7 -11 1 -21t-22 -10h-44q-20 0 -28 14l-416 712l-138 -707q-4 -19 -23 -19h-44q-8 0 -13.5 5.5t-3.5 13.5l265 1362q2 8 9 13.5t15 5.5h44q8 0 13 -5.5t3 -13.5z" />
<glyph unicode="L" horiz-adv-x="848" d="M46 19l265 1362q1 7 8 13t15 6h44q8 0 13.5 -5.5t3.5 -13.5l-254 -1307h581q8 0 12.5 -6t2.5 -14l-7 -35q-4 -19 -22 -19h-646q-8 0 -12.5 6t-3.5 13z" />
<glyph unicode="M" horiz-adv-x="1268" d="M651 482h-50q-23 0 -28 20l-195 800l-250 -1283q-4 -19 -23 -19h-43q-8 0 -12.5 6t-3.5 13l265 1362q1 7 8.5 13t15.5 6h84q22 0 27 -20l199 -803l511 803q12 20 35 20h84q8 0 12.5 -6t3.5 -13l-265 -1362q-4 -19 -22 -19h-43q-8 0 -13.5 5.5t-3.5 13.5l250 1283 l-507 -800q-12 -20 -36 -20z" />
<glyph unicode="N" horiz-adv-x="1060" d="M688 21l-312 1265l-246 -1267q-4 -19 -22 -19h-46q-8 0 -13 5.5t-3 13.5l265 1362q4 19 23 19h81q22 0 27 -21l311 -1265l246 1267q1 7 8 13t15 6h46q8 0 12.5 -5.5t2.5 -13.5l-265 -1362q-4 -19 -22 -19h-81q-23 0 -27 21z" />
<glyph unicode="O" horiz-adv-x="1044" d="M416 -24q-218 0 -296.5 186.5t-10.5 537.5q68 350 219 537t369 187t297 -187.5t11 -536.5q-68 -351 -219.5 -537.5t-369.5 -186.5zM430 50q179 0 303.5 163.5t187.5 486.5q62 324 1.5 487t-239.5 163t-303 -163.5t-187 -486.5q-62 -324 -2 -487t239 -163z" />
<glyph unicode="P" horiz-adv-x="886" d="M235 560l-105 -541q-4 -19 -22 -19h-46q-8 0 -12.5 6t-3.5 13l265 1362q1 7 8 13t15 6h243q191 0 279.5 -108.5t48.5 -311.5q-40 -205 -170 -312.5t-322 -107.5h-178zM821 980q33 171 -35.5 258.5t-221.5 87.5h-180l-135 -694h180q153 0 256 88t136 260z" />
<glyph unicode="Q" horiz-adv-x="1044" d="M430 50q179 0 303.5 163.5t187.5 486.5q62 324 1.5 487t-239.5 163t-303 -163.5t-187 -486.5q-62 -324 -2 -487t239 -163zM753 -282q-60 -18 -129 -18q-121 0 -185.5 70t-46.5 206q-206 10 -278 196.5t-5 527.5q68 350 219 537t369 187t297 -187.5t11 -536.5 q-64 -327 -201 -512.5t-333 -207.5q-18 -102 27.5 -157t138.5 -55q70 0 114 17q12 5 19.5 1.5t6.5 -14.5l-2 -28q-3 -20 -22 -26z" />
<glyph unicode="R" horiz-adv-x="892" d="M828 1008q29 151 -34 234.5t-210 83.5h-200l-123 -636h200q148 0 243 83.5t124 234.5zM685 18l-172 602q-23 -4 -69 -4h-198l-116 -597q-4 -19 -23 -19h-44q-8 0 -13.5 5.5t-3.5 13.5l265 1362q2 8 9 13.5t15 5.5h262q185 0 267.5 -104.5t47.5 -287.5 q-27 -142 -109.5 -238t-208.5 -134l178 -607q4 -13 -2 -21t-20 -8h-38q-21 0 -27 18z" />
<glyph unicode="S" horiz-adv-x="808" d="M11 29q-15 7 -9 23l11 44q3 10 11.5 13t17.5 -2q96 -57 228 -57q138 0 227.5 78.5t116.5 217.5q24 125 -24.5 207.5t-179.5 142.5q-141 66 -192 159t-24 233q30 154 143.5 245t277.5 91q118 0 205 -41q14 -7 10 -23l-11 -41q-3 -10 -11.5 -13t-17.5 2q-74 42 -185 42 q-130 0 -216.5 -71t-110.5 -191q-22 -113 23 -189.5t168 -136.5q150 -72 204 -169.5t25 -246.5q-34 -174 -150.5 -272t-291.5 -98q-141 0 -245 53z" />
<glyph unicode="T" horiz-adv-x="792" d="M254 19l254 1307h-324q-8 0 -13 6t-3 14l7 35q2 8 9 13.5t15 5.5h733q8 0 12.5 -5.5t2.5 -13.5l-7 -35q-4 -20 -23 -20h-325l-254 -1307q-4 -19 -22 -19h-46q-8 0 -13 5.5t-3 13.5z" />
<glyph unicode="U" horiz-adv-x="1084" d="M849 480l175 901q4 19 23 19h46q8 0 12.5 -5.5t2.5 -13.5l-176 -905q-51 -261 -176 -380.5t-319 -119.5t-273 120t-28 380l176 905q4 19 23 19h46q8 0 12.5 -5.5t2.5 -13.5l-175 -901q-44 -229 14.5 -329.5t215.5 -100.5q156 0 255 101t143 329z" />
<glyph unicode="V" horiz-adv-x="976" d="M295 1382l110 -1280l608 1280q10 18 29 18h44q23 0 12 -25l-653 -1355q-9 -20 -29 -20h-60q-20 0 -23 20l-125 1355q-2 11 4.5 18t17.5 7h44q20 0 21 -18z" />
<glyph unicode="W" horiz-adv-x="1464" d="M870 1400h68q21 0 21 -18l8 -1294l539 1294q8 18 29 18h44q21 0 12 -25l-573 -1355q-8 -20 -29 -20h-79q-21 0 -23 20l-8 1254l-496 -1254q-8 -20 -29 -20h-79q-21 0 -23 20l-45 1355q-1 11 5 18t17 7h44q21 0 21 -18l37 -1294l510 1294q8 18 29 18z" />
<glyph unicode="X" horiz-adv-x="944" d="M706 18l-221 610l-459 -610q-14 -18 -34 -18h-48q-11 0 -14 8t5 19l511 679l-240 667q-4 11 2.5 19t17.5 8h42q21 0 27 -18l220 -600l452 600q14 18 35 18h42q11 0 13.5 -8t-5.5 -19l-498 -667l247 -679q4 -11 -2 -19t-17 -8h-48q-22 0 -28 18z" />
<glyph unicode="Y" horiz-adv-x="956" d="M297 1382l203 -734l489 734q12 18 35 18h39q11 0 14 -8t-5 -19l-547 -817l-105 -537q-4 -19 -22 -19h-46q-8 0 -13 5.5t-3 13.5l105 537l-231 817q-3 11 3.5 19t17.5 8h39q23 0 27 -18z" />
<glyph unicode="Z" horiz-adv-x="846" d="M-16 99l854 1227h-587q-8 0 -12 6t-3 14l7 35q1 7 8 13t15 6h662q7 0 12 -5.5t3 -13.5l-7 -36q-4 -20 -21 -44l-854 -1227h624q8 0 13 -6t3 -14l-7 -35q-4 -19 -23 -19h-699q-8 0 -12.5 6t-3.5 13l7 36q4 20 21 44z" />
<glyph unicode="[" horiz-adv-x="652" d="M66 -241l334 1722q4 19 23 19h344q7 0 12 -5.5t3 -13.5l-7 -36q-4 -19 -22 -19h-283l-314 -1612h283q8 0 12.5 -5.5t3.5 -13.5l-7 -36q-1 -7 -8 -13t-15 -6h-344q-8 0 -12.5 5.5t-2.5 13.5z" />
<glyph unicode="\" horiz-adv-x="666" d="M455 -201l-282 1669q-5 28 22 28h36q20 0 23 -19l282 -1669q5 -28 -22 -28h-36q-20 0 -23 19z" />
<glyph unicode="]" horiz-adv-x="652" d="M620 1481l-334 -1722q-4 -19 -23 -19h-344q-7 0 -12 5.5t-3 13.5l7 36q1 8 7.5 13.5t14.5 5.5h283l314 1612h-283q-8 0 -12.5 6t-3.5 13l7 36q1 7 8 13t15 6h344q8 0 12.5 -5.5t2.5 -13.5z" />
<glyph unicode="^" horiz-adv-x="1060" d="M551 1336l-349 -577q-13 -21 -39 -21h-35q-13 0 -17.5 9.5t1.5 19.5l375 613q12 20 32 20h64q20 0 32 -20l375 -613q6 -10 1.5 -19.5t-17.5 -9.5h-35q-26 0 -39 21z" />
<glyph unicode="_" horiz-adv-x="770" d="M-157 -298l7 37q3 19 22 19h731q8 0 12.5 -5.5t3.5 -13.5l-7 -37q-2 -8 -9 -14t-14 -6h-731q-8 0 -12.5 6t-2.5 14z" />
<glyph unicode="`" horiz-adv-x="620" d="M413 1444l126 -284q4 -10 -1 -17t-18 -7h-29q-23 0 -29 16l-131 281q-6 11 -1 19t18 8h38q20 0 27 -16z" />
<glyph unicode="a" d="M146 518q-46 -237 4 -354.5t178 -117.5q61 0 122.5 33.5t110.5 94.5l134 688q-25 61 -73.5 94.5t-109.5 33.5q-128 0 -224 -117.5t-142 -354.5zM531 19l13 65q-107 -108 -243 -108q-159 0 -224 136.5t-13 405.5t170.5 405.5t277.5 136.5q137 0 201 -108l12 65q2 8 9 13.5 t15 5.5h43q8 0 12.5 -5.5t2.5 -13.5l-194 -998q-4 -19 -22 -19h-43q-8 0 -13.5 5.5t-3.5 13.5z" />
<glyph unicode="b" d="M677 518q46 237 -4 354.5t-178 117.5q-61 0 -122.5 -33.5t-110.5 -94.5l-134 -688q25 -61 73.5 -94.5t109.5 -33.5q128 0 224 117.5t142 354.5zM374 1440l-94 -488q105 108 243 108q159 0 223.5 -136.5t12.5 -405.5t-170 -405.5t-277 -136.5q-138 0 -201 108l-13 -65 q-4 -19 -22 -19h-44q-8 0 -12.5 6t-3.5 13l276 1421q2 8 9 14t14 6h44q8 0 12.5 -6t2.5 -14z" />
<glyph unicode="c" horiz-adv-x="724" d="M550 77q12 5 19 1.5t6 -13.5l-3 -31q-1 -16 -20 -24q-73 -34 -180 -34q-191 0 -275.5 139.5t-33.5 402.5q50 260 189.5 401t324.5 141q88 0 164 -34q15 -8 10 -24l-9 -31q-2 -10 -10.5 -13.5t-18.5 1.5q-61 31 -146 31q-150 0 -263 -119.5t-159 -352.5 q-46 -236 22.5 -354t223.5 -118q84 0 159 31z" />
<glyph unicode="d" d="M146 518q-46 -237 4 -354.5t178 -117.5q61 0 122.5 33.5t110.5 94.5l134 688q-25 61 -73.5 94.5t-109.5 33.5q-128 0 -224 -117.5t-142 -354.5zM713 952l94 488q2 8 9 14t14 6h44q8 0 12.5 -6t2.5 -14l-276 -1421q-4 -19 -22 -19h-44q-8 0 -12.5 6t-3.5 13l13 65 q-107 -108 -243 -108q-159 0 -224 136.5t-13 405.5t170.5 405.5t277.5 136.5q137 0 201 -108z" />
<glyph unicode="e" horiz-adv-x="794" d="M535 990q-128 0 -230 -108t-150 -326h90q202 0 321 63.5t142 178.5q17 87 -32 139.5t-141 52.5zM354 -24q-192 0 -266.5 141t-23.5 405q52 266 184 402t303 136q128 0 195.5 -73.5t45.5 -188.5q-28 -145 -168.5 -227.5t-372.5 -82.5h-110q-73 -442 232 -442q100 0 187 42 q11 5 18.5 1.5t5.5 -13.5l-3 -33q-3 -19 -20 -26q-95 -41 -207 -41z" />
<glyph unicode="f" horiz-adv-x="526" d="M667 1382q-30 8 -61 8q-56 0 -92 -18.5t-67 -76t-51 -161.5l-19 -98h214q8 0 13 -5.5t3 -13.5l-6 -32q-1 -8 -8.5 -13.5t-15.5 -5.5h-214l-259 -1333q-2 -8 -9 -13.5t-15 -5.5h-43q-7 0 -12 5.5t-3 13.5l259 1333h-152q-19 0 -16 19l6 32q2 8 9 13.5t15 5.5h152l20 106 q33 169 104.5 243.5t191.5 74.5q51 0 84 -11q16 -4 11 -23l-9 -30q-6 -20 -30 -14z" />
<glyph unicode="g" d="M146 518q-46 -237 4 -354.5t178 -117.5q61 0 122.5 33.5t110.5 94.5l134 688q-25 61 -73.5 94.5t-109.5 33.5q-128 0 -224 -117.5t-142 -354.5zM41 -287q78 -41 175 -41q135 0 206.5 80t106.5 256l15 76q-107 -108 -243 -108q-159 0 -224 136.5t-13 405.5t170.5 405.5 t277.5 136.5q137 0 201 -108l12 65q2 8 9 13.5t15 5.5h43q8 0 12.5 -5.5t2.5 -13.5l-197 -1017q-41 -210 -137.5 -305t-268.5 -95q-110 0 -191 37q-15 8 -10 24l9 39q3 10 11 14t18 -1z" />
<glyph unicode="h" horiz-adv-x="844" d="M374 1440l-96 -498q120 118 275 118q140 0 196 -102t17 -300l-124 -639q-4 -19 -22 -19h-44q-8 0 -12.5 6t-3.5 13l118 607q36 185 -1 274.5t-152 89.5q-73 0 -142.5 -35.5t-122.5 -102.5l-162 -833q-4 -19 -22 -19h-44q-8 0 -12.5 6t-3.5 13l276 1421q2 8 9 14t14 6h44 q8 0 12.5 -6t2.5 -14z" />
<glyph unicode="i" horiz-adv-x="332" d="M275 1360q11 58 27 79t46 21t38 -21t-3 -79t-27 -79t-47 -21q-30 0 -37.5 21t3.5 79zM28 19l194 998q2 8 9 13.5t15 5.5h43q8 0 12.5 -5.5t2.5 -13.5l-194 -998q-4 -19 -22 -19h-43q-8 0 -13.5 5.5t-3.5 13.5z" />
<glyph unicode="j" horiz-adv-x="314" d="M266 1360q11 58 27 79t46 21t38 -21t-3 -79t-27 -79t-47 -21q-30 0 -37.5 21t3.5 79zM-239 -322q22 -8 49 -8q69 0 113 40t62 132l228 1175q4 19 23 19h44q8 0 12.5 -5.5t2.5 -13.5l-226 -1165q-26 -131 -92 -191.5t-172 -60.5q-45 0 -70 9q-14 6 -10 24l8 31q6 22 28 14 z" />
<glyph unicode="k" horiz-adv-x="710" d="M292 582l300 -551q7 -12 1 -21.5t-22 -9.5h-37q-22 0 -32 16l-298 548l-106 -545q-4 -19 -22 -19h-44q-8 0 -13 5.5t-3 13.5l276 1421q5 20 23 20h44q8 0 12.5 -6t2.5 -14l-163 -840l446 420q16 16 37 16h38q16 0 18.5 -10t-9.5 -21z" />
<glyph unicode="l" horiz-adv-x="330" d="M26 19l276 1421q5 20 24 20h43q8 0 12.5 -6t2.5 -14l-276 -1421q-4 -19 -22 -19h-43q-8 0 -13.5 5.5t-3.5 13.5z" />
<glyph unicode="m" horiz-adv-x="1290" d="M1221 702l-133 -683q-4 -19 -22 -19h-44q-8 0 -12.5 6t-3.5 13l132 677q14 87 13 144t-23.5 90t-54 46.5t-76.5 13.5q-70 0 -139 -39t-119 -107q2 -70 -12 -142l-133 -683q-4 -19 -22 -19h-44q-8 0 -12.5 6t-3.5 13l132 677q14 87 13 144t-23.5 90t-52.5 46.5t-74 13.5 q-62 0 -129.5 -38t-117.5 -100l-162 -833q-4 -19 -22 -19h-43q-8 0 -13.5 5.5t-3.5 13.5l194 998q2 8 9 13.5t15 5.5h43q8 0 12.5 -5.5t2.5 -13.5l-15 -79q119 122 258 122q163 0 196 -150q134 150 294 150q74 0 122 -29.5t66 -79t21 -114.5t-13 -135z" />
<glyph unicode="n" horiz-adv-x="844" d="M766 658l-124 -639q-4 -19 -22 -19h-44q-8 0 -12.5 6t-3.5 13l118 607q36 185 -1 274.5t-152 89.5q-73 0 -142.5 -35.5t-122.5 -102.5l-162 -833q-4 -19 -22 -19h-44q-8 0 -12.5 6t-3.5 13l194 998q1 7 8 13t15 6h44q7 0 12 -5.5t3 -13.5l-14 -75q120 118 275 118 q140 0 196 -102t17 -300z" />
<glyph unicode="o" horiz-adv-x="840" d="M526 1060q165 0 233 -139t17 -403t-173.5 -403t-287.5 -139t-233.5 139t-17.5 403t174 403t288 139zM328 46q126 0 223 118.5t143 353.5t-5 353.5t-177 118.5t-223 -118.5t-143 -353.5t5 -353.5t177 -118.5z" />
<glyph unicode="p" d="M110 84l-88 -451q-1 -7 -8 -13t-15 -6h-44q-7 0 -12 5.5t-3 13.5l269 1384q1 7 8 13t15 6h44q7 0 12 -5.5t3 -13.5l-12 -65q105 108 243 108q159 0 223.5 -136.5t12.5 -405.5t-170 -405.5t-277 -136.5q-138 0 -201 108zM676 518q46 237 -4 354.5t-178 117.5 q-61 0 -122.5 -33.5t-110.5 -94.5l-134 -688q25 -61 73.5 -94.5t109.5 -33.5q128 0 224 117.5t142 354.5z" />
<glyph unicode="q" d="M456 -367l88 451q-107 -108 -243 -108q-159 0 -224 136.5t-13 405.5t170.5 405.5t277.5 136.5q137 0 201 -108l12 65q1 7 8 13t15 6h44q7 0 12 -5.5t3 -13.5l-269 -1384q-1 -7 -8 -13t-15 -6h-44q-7 0 -12 5.5t-3 13.5zM146 518q-46 -237 4 -354.5t178 -117.5 q61 0 122.5 33.5t110.5 94.5l134 688q-25 61 -73.5 94.5t-109.5 33.5q-128 0 -224 -117.5t-142 -354.5z" />
<glyph unicode="r" horiz-adv-x="528" d="M585 983q-25 7 -50 7q-86 0 -163.5 -60.5t-130.5 -175.5l-143 -735q-4 -19 -23 -19h-43q-8 0 -12.5 6t-3.5 13l194 998q1 7 8 13t15 6h43q8 0 13 -5.5t3 -13.5l-22 -115q50 72 123 115t150 43q43 0 73 -11q14 -4 8 -21l-11 -33q-7 -18 -28 -12z" />
<glyph unicode="s" horiz-adv-x="688" d="M23 97q82 -51 193 -51q108 0 176 56t87 152q17 88 -22.5 147.5t-146.5 104.5q-217 92 -177 292q24 125 116 193.5t225 68.5q100 0 177 -33q16 -6 10 -24l-9 -31q-2 -10 -10.5 -13.5t-18.5 1.5q-66 30 -157 30q-103 0 -167.5 -51t-81.5 -139q-15 -80 22.5 -136.5 t141.5 -101.5q117 -50 160 -125.5t23 -178.5q-27 -137 -121 -209.5t-234 -72.5q-131 0 -215 48q-15 9 -10 24l10 36q3 11 11.5 15t17.5 -2z" />
<glyph unicode="t" horiz-adv-x="570" d="M385 -16q-38 -8 -82 -8q-121 0 -160.5 76t-7.5 242l130 672h-129q-18 0 -15 19l6 32q1 7 8 13t15 6h129l56 291q2 8 9 13.5t15 5.5h43q8 0 12.5 -5.5t2.5 -13.5l-56 -291h237q8 0 12.5 -5.5t2.5 -13.5l-6 -32q-3 -19 -23 -19h-237l-130 -670q-27 -135 -3 -192.5 t108 -57.5q34 0 66 8q11 2 17.5 -1t5.5 -12l-1 -30q-1 -23 -25 -27z" />
<glyph unicode="u" horiz-adv-x="844" d="M76 378l124 639q1 7 8 13t15 6h44q7 0 12 -5.5t3 -13.5l-118 -607q-36 -185 1 -274.5t152 -89.5q73 0 142.5 35.5t122.5 102.5l162 833q1 7 8 13t15 6h44q7 0 12 -5.5t3 -13.5l-194 -998q-4 -19 -22 -19h-44q-8 0 -12.5 6t-3.5 13l15 75q-120 -118 -275 -118 q-140 0 -196 102t-18 300z" />
<glyph unicode="v" horiz-adv-x="748" d="M306 0h-68q-20 0 -23 20l-90 991q-1 11 5 18t17 7h42q20 0 21 -18l78 -932l440 932q10 18 29 18h42q11 0 14 -7t-2 -18l-476 -991q-9 -20 -29 -20z" />
<glyph unicode="w" horiz-adv-x="1160" d="M647 1036h64q20 0 20 -18l16 -928l396 928q8 18 28 18h41q23 0 12 -25l-432 -991q-8 -20 -29 -20h-63q-21 0 -23 20l-19 908l-373 -908q-8 -20 -29 -20h-63q-21 0 -23 20l-46 991q0 25 22 25h41q20 0 20 -18l36 -928l376 928q8 18 28 18z" />
<glyph unicode="x" horiz-adv-x="720" d="M496 18l-158 434l-326 -434q-14 -18 -34 -18h-44q-11 0 -14 7.5t5 18.5l380 500l-177 483q-4 11 2 19t17 8h40q21 0 27 -18l153 -418l315 418q14 18 35 18h40q11 0 14 -8t-5 -19l-365 -483l186 -500q4 -11 -2 -18.5t-17 -7.5h-44q-22 0 -28 18z" />
<glyph unicode="y" horiz-adv-x="764" d="M62 -359l178 363l-118 1005q-3 27 21 27h42q20 0 23 -22l97 -884l433 884q10 22 30 22h43q11 0 14 -7.5t-3 -19.5l-676 -1373q-12 -22 -32 -22h-42q-24 0 -10 27z" />
<glyph unicode="z" horiz-adv-x="706" d="M46 70h508q8 0 13 -5.5t3 -13.5l-6 -32q-4 -19 -23 -19h-579q-8 0 -12.5 6t-3.5 13l6 30q4 21 19 40l671 877h-470q-19 0 -16 19l6 32q2 8 9 13.5t15 5.5h541q7 0 12 -5.5t3 -13.5l-6 -30q-4 -21 -18 -40z" />
<glyph unicode="{" horiz-adv-x="670" d="M161 606l6 28q4 22 24 28q58 19 94.5 60.5t51.5 119.5l91 466q19 97 74.5 144.5t136.5 47.5h148q8 0 13 -5.5t3 -13.5l-7 -36q-4 -19 -23 -19h-146q-94 0 -115 -108l-95 -488q-33 -164 -169 -210q120 -47 87 -210l-95 -488q-21 -108 73 -108h146q8 0 13.5 -5.5t3.5 -13.5 l-7 -36q-2 -8 -9 -13.5t-15 -5.5h-148q-81 0 -118.5 47.5t-18.5 144.5l91 466q15 78 -5.5 119.5t-70.5 60.5q-18 7 -14 28z" />
<glyph unicode="|" horiz-adv-x="460" d="M224 -380v1898q0 8 5.5 14t13.5 6h34q8 0 13.5 -6t5.5 -14v-1898q0 -8 -5.5 -14t-13.5 -6h-34q-8 0 -13.5 6t-5.5 14z" />
<glyph unicode="}" horiz-adv-x="670" d="M546 634l-6 -28q-4 -22 -24 -28q-58 -19 -94.5 -60.5t-51.5 -119.5l-91 -466q-19 -97 -74.5 -144.5t-136.5 -47.5h-148q-8 0 -13 5.5t-3 13.5l7 36q4 19 23 19h146q94 0 115 108l95 488q33 164 169 210q-120 47 -87 210l95 488q21 108 -73 108h-146q-8 0 -13.5 5.5 t-3.5 13.5l7 36q2 8 9 13.5t15 5.5h148q81 0 118.5 -47.5t18.5 -144.5l-91 -466q-15 -78 5.5 -119.5t70.5 -60.5q18 -7 14 -28z" />
<glyph unicode="~" horiz-adv-x="1060" d="M772 512q-135 0 -234 116q-55 63 -98.5 88.5t-95.5 25.5q-71 0 -111.5 -52t-44.5 -156q0 -8 -5.5 -13t-13.5 -5h-46q-8 0 -13.5 6t-5.5 14q6 140 72.5 209t171.5 69q135 0 234 -116q55 -63 98.5 -88.5t95.5 -25.5q71 0 111.5 52t44.5 156q0 8 5.5 13t13.5 5h46 q8 0 13.5 -6t5.5 -14q-6 -140 -72.5 -209t-171.5 -69z" />
<glyph unicode="&#xa1;" horiz-adv-x="416" d="M227 698h28q8 0 13 -5.5t3 -13.5l-110 -628l-77 -396q-4 -19 -22 -19h-54q-8 0 -13 5.5t-3 13.5l77 396l134 628q2 8 9 13.5t15 5.5zM239 964q11 56 27.5 77t45.5 21t37 -20.5t-2 -77.5q-11 -56 -27.5 -77t-45.5 -21t-37 20.5t2 77.5z" />
<glyph unicode="&#xa2;" horiz-adv-x="724" d="M556 1059l30 154q3 19 23 19h26q18 0 15 -19l-30 -156q65 -6 121 -31q15 -8 10 -24l-9 -31q-2 -10 -10.5 -13.5t-18.5 1.5q-49 25 -106 29l-183 -941q68 5 126 30q12 5 19 1.5t6 -13.5l-3 -31q-1 -16 -20 -24q-60 -28 -142 -33l-30 -154q-3 -19 -23 -19h-26q-18 0 -15 19 l30 154q-178 10 -255 148.5t-28 392.5q49 253 181.5 393t311.5 148zM145 518q-43 -223 16.5 -341t198.5 -130l183 942q-143 -9 -248.5 -128t-149.5 -343z" />
<glyph unicode="&#xa3;" horiz-adv-x="860" d="M898 1375q14 -7 10 -23l-10 -39q-3 -10 -11.5 -12.5t-17.5 2.5q-82 47 -196 47q-244 0 -307 -326l-53 -268h336q8 0 13.5 -5.5t3.5 -13.5l-5 -22q-1 -7 -8 -13t-15 -6h-336l-40 -204q-52 -271 -193 -418h641q18 0 15 -19l-7 -36q-4 -19 -22 -19h-714q-8 0 -12.5 6 t-3.5 13l7 35q3 20 27 44q126 132 177 388l41 210h-101q-7 0 -12 5.5t-4 13.5l5 22q4 19 22 19h101l53 268q39 200 140 300t257 100q128 0 219 -49z" />
<glyph unicode="&#xa4;" horiz-adv-x="1318" d="M403 349l-160 -163q-5 -6 -13.5 -6t-13.5 6l-34 36q-14 14 0 27l161 161q-98 119 -98 272q0 152 98 272l-161 161q-14 13 0 27l34 36q5 6 13.5 6t13.5 -6l160 -164q123 104 280 104t280 -104l160 164q5 6 13.5 6t13.5 -6l34 -36q14 -14 0 -27l-161 -161q98 -120 98 -272 q0 -153 -98 -272l161 -161q14 -13 0 -27l-34 -36q-5 -6 -13.5 -6t-13.5 6l-160 163q-124 -103 -280 -103t-280 103zM329 682q0 -150 102.5 -253t251.5 -103t251.5 103t102.5 253t-102.5 253t-251.5 103t-251.5 -103t-102.5 -253z" />
<glyph unicode="&#xa5;" horiz-adv-x="832" d="M337 0h-46q-8 0 -13 5.5t-3 13.5l65 335h-284q-8 0 -13 6t-3 14l4 21q2 8 9 13.5t15 5.5h284l33 168h-284q-8 0 -13 5.5t-4 13.5l5 22q3 19 23 19h260l-171 731q-3 12 3 19.5t18 7.5h36q24 0 28 -19l158 -709l434 709q12 19 36 19h36q11 0 13.5 -7.5t-4.5 -19.5 l-455 -731h260q8 0 13 -5.5t4 -13.5l-5 -22q-3 -19 -23 -19h-284l-33 -168h284q8 0 13 -5.5t3 -13.5l-4 -21q-4 -20 -24 -20h-284l-65 -335q-4 -19 -22 -19z" />
<glyph unicode="&#xa6;" horiz-adv-x="460" d="M243 442h34q8 0 13.5 -5.5t5.5 -13.5v-604q0 -19 -19 -19h-34q-8 0 -13.5 5.5t-5.5 13.5v604q0 7 6 13t13 6zM243 1376h34q8 0 13.5 -5.5t5.5 -13.5v-604q0 -19 -19 -19h-34q-8 0 -13.5 5.5t-5.5 13.5v604q0 7 6 13t13 6z" />
<glyph unicode="&#xa7;" horiz-adv-x="790" d="M602 614q26 135 -106 216q-109 -3 -178.5 -58t-86.5 -144q-29 -142 128 -226q98 9 162 65.5t81 146.5zM11 -149q-16 10 -11 27l9 33q3 10 12.5 14t18.5 -2q78 -53 187 -53q106 0 178 56t90 150q16 84 -21 141t-130 99q-236 106 -196 310q20 103 91.5 168t171.5 82 q-95 53 -136.5 120t-22.5 166q24 124 116.5 193t222.5 69q101 0 181 -34q15 -7 11 -25l-9 -30q-3 -10 -12 -13.5t-18 1.5q-66 31 -160 31q-97 0 -163.5 -52t-83.5 -138q-30 -154 154 -236q121 -55 167.5 -131t25.5 -181q-20 -100 -86.5 -166t-160.5 -88q180 -93 143 -282 q-26 -131 -123.5 -204.5t-236.5 -73.5q-129 0 -209 49z" />
<glyph unicode="&#xa8;" horiz-adv-x="620" d="M252 1296q11 55 26.5 75.5t44.5 20.5t36.5 -20t-3.5 -76q-10 -55 -25.5 -75.5t-44.5 -20.5t-36.5 20t2.5 76zM564 1296q11 55 26.5 75.5t44.5 20.5t36.5 -20t-3.5 -76q-10 -55 -25.5 -75.5t-44.5 -20.5t-36.5 20t2.5 76z" />
<glyph unicode="&#xa9;" horiz-adv-x="1196" d="M628 1424q160 0 280 -95t181 -258t61 -371q0 -209 -61.5 -372t-181 -257.5t-279.5 -94.5q-161 0 -281 94.5t-181.5 257.5t-61.5 372q0 208 61.5 371t181.5 258t281 95zM628 30q144 0 250 88t160 238.5t54 343.5t-54 343.5t-160 238.5t-250 88t-250.5 -87.5t-161 -238.5 t-54.5 -344t54.5 -344t161 -238.5t250.5 -87.5zM664 262q-144 0 -238 113.5t-94 320.5q0 205 94 319.5t238 114.5q91 0 159 -34q16 -8 14 -25l-2 -27q-1 -11 -10 -14.5t-18 2.5q-57 32 -139 32q-118 0 -190 -96.5t-72 -271.5q0 -176 71.5 -272t190.5 -96q81 0 139 31 q9 6 18 2.5t10 -14.5l2 -27q2 -18 -15 -26q-64 -32 -158 -32z" />
<glyph unicode="&#xaa;" horiz-adv-x="648" d="M510 677l8 41q-70 -76 -183 -76q-60 0 -103.5 20t-73.5 65.5t-34 119.5t15 183q75 386 347 386q112 0 153 -76l8 39q1 7 8 13t15 6h37q18 0 16 -19l-137 -702q-3 -19 -23 -19h-37q-19 0 -16 19zM535 804l87 450q-14 47 -49.5 73.5t-86.5 26.5q-207 0 -269 -324 q-64 -326 142 -326q51 0 97.5 26.5t78.5 73.5z" />
<glyph unicode="&#xab;" horiz-adv-x="894" d="M140 606l7 32q1 13 14 24l409 341q11 9 19.5 5.5t6.5 -15.5l-8 -40q-4 -19 -23 -35l-358 -296l243 -296q13 -16 9 -35l-8 -40q-2 -12 -12 -15.5t-17 5.5l-276 341q-9 10 -6 24zM426 606l7 32q1 13 14 24l409 341q11 9 19.5 5.5t6.5 -15.5l-8 -40q-4 -19 -23 -35 l-358 -296l243 -296q13 -16 9 -35l-8 -40q-2 -12 -12 -15.5t-17 5.5l-276 341q-9 10 -6 24z" />
<glyph unicode="&#xac;" horiz-adv-x="1060" d="M104 817v38q0 8 6 13.5t14 5.5h853q8 0 13.5 -5.5t5.5 -13.5v-511q0 -8 -5.5 -14t-13.5 -6h-46q-8 0 -13.5 6t-5.5 14v454h-788q-8 0 -14 5.5t-6 13.5z" />
<glyph unicode="&#xad;" horiz-adv-x="712" d="M606 624h-465q-7 0 -12 5.5t-4 13.5l9 42q4 19 22 19h465q8 0 13.5 -5.5t3.5 -13.5l-9 -42q-1 -7 -8 -13t-15 -6z" />
<glyph unicode="&#xae;" horiz-adv-x="1196" d="M800 870q0 89 -47.5 134.5t-138.5 45.5h-124v-360h124q91 0 138.5 46.5t47.5 133.5zM628 1424q160 0 280 -95t181 -258t61 -371q0 -209 -61.5 -372t-181 -257.5t-279.5 -94.5q-161 0 -281 94.5t-181.5 257.5t-61.5 372q0 208 61.5 371t181.5 258t281 95zM628 30 q144 0 250 88t160 238.5t54 343.5t-54 343.5t-160 238.5t-250 88t-250.5 -87.5t-161 -238.5t-54.5 -344t54.5 -344t161 -238.5t250.5 -87.5zM732 646l160 -336q14 -28 -17 -28h-28q-21 0 -28 16l-155 330q-36 -4 -56 -4h-118v-323q0 -7 -6 -13t-13 -6h-36q-8 0 -13.5 5.5 t-5.5 13.5v796q0 8 5.5 13.5t13.5 5.5h181q117 0 187.5 -65.5t70.5 -180.5q0 -82 -38 -140t-104 -84z" />
<glyph unicode="&#xaf;" horiz-adv-x="620" d="M236 1280l7 32q4 20 22 20h401q8 0 13 -6t4 -14l-7 -32q-4 -20 -24 -20h-401q-8 0 -12.5 6t-2.5 14z" />
<glyph unicode="&#xb0;" horiz-adv-x="620" d="M410 1424q98 0 154 -68t37 -164t-101 -164t-180 -68t-154 68t-37 164t101 164t180 68zM333 1024q69 0 126.5 49.5t71.5 118.5t-25 118.5t-108 49.5t-127 -49.5t-72 -118.5t25.5 -118.5t108.5 -49.5z" />
<glyph unicode="&#xb1;" horiz-adv-x="1060" d="M986 112h-853q-8 0 -13.5 5.5t-5.5 13.5v38q0 7 6 13t13 6h853q8 0 14 -5.5t6 -13.5v-38q0 -8 -6 -13.5t-14 -5.5zM518 353v401h-385q-7 0 -13 6t-6 13v38q0 7 6 13t13 6h385v400q0 8 5.5 14t13.5 6h46q8 0 13.5 -6t5.5 -14v-400h384q8 0 14 -5.5t6 -13.5v-38 q0 -8 -6 -13.5t-14 -5.5h-384v-401q0 -8 -5.5 -13.5t-13.5 -5.5h-46q-8 0 -13.5 5.5t-5.5 13.5z" />
<glyph unicode="&#xb2;" horiz-adv-x="614" d="M287 1315q-11 -6 -18.5 -2.5t-6.5 14.5l3 31q1 14 19 22q85 36 164 36q115 0 161.5 -66t22.5 -188q-27 -139 -159 -306q-161 -200 -294 -318h319q8 0 12.5 -5.5t2.5 -13.5l-5 -28q-1 -8 -8 -13.5t-15 -5.5h-390q-18 0 -15 19l5 24q3 21 26 42q157 145 312 341 q107 133 133 262q37 190 -125 190q-71 0 -144 -35z" />
<glyph unicode="&#xb3;" horiz-adv-x="614" d="M107 483q-14 6 -9 22l8 31q6 24 29 13q54 -27 124 -27q93 0 151.5 52t74.5 132q40 209 -202 218q-7 0 -11.5 6t-2.5 14l5 25q4 19 22 19q118 5 186 61.5t83 130.5q15 79 -22 124.5t-111 45.5q-71 0 -136 -27q-12 -5 -19 -1t-6 14l4 27q2 16 19 22q76 31 155 31 q111 0 162.5 -60.5t30.5 -171.5q-16 -82 -72 -141t-138 -85q86 -38 117 -96.5t12 -153.5q-22 -114 -105 -183t-206 -69q-88 0 -143 27z" />
<glyph unicode="&#xb4;" horiz-adv-x="620" d="M304 1160l236 284q13 16 33 16h38q13 0 15 -8t-8 -19l-241 -281q-13 -16 -35 -16h-29q-13 0 -15.5 7t6.5 17z" />
<glyph unicode="&#xb5;" horiz-adv-x="864" d="M606 186l161 831q4 19 23 19h44q8 0 12.5 -5.5t2.5 -13.5l-194 -998q-4 -19 -22 -19h-44q-8 0 -13 5.5t-3 13.5l15 77q-51 -59 -120 -89.5t-143 -30.5q-155 0 -217 120l-90 -463q-1 -7 -8 -13t-15 -6h-44q-7 0 -12 5.5t-3 13.5l269 1384q1 7 8 13t15 6h44q7 0 12 -5.5 t3 -13.5l-161 -831q27 -69 83 -104.5t129 -35.5q71 0 141.5 35.5t126.5 104.5z" />
<glyph unicode="&#xb6;" horiz-adv-x="854" d="M504 -243v895h-56q-79 0 -145.5 22.5t-118.5 66.5t-81 117t-29 168t29 168.5t81 117.5t118.5 66t145.5 22h271q7 0 13 -6t6 -13v-1624q0 -7 -6 -13t-13 -6h-38q-7 0 -13 6t-6 13v1567h-82v-1567q0 -7 -6 -13t-13 -6h-38q-7 0 -13 6t-6 13z" />
<glyph unicode="&#xb7;" horiz-adv-x="436" d="M215 662q11 56 27.5 77t45.5 21t37 -20.5t-2 -77.5q-11 -56 -27.5 -77t-45.5 -21t-37 20.5t2 77.5z" />
<glyph unicode="&#xb8;" horiz-adv-x="620" d="M96 -172q-21 5 -7 29l75 128q9 15 25 15h42q19 0 8 -18l-68 -114q62 -22 91.5 -69t16.5 -113q-14 -73 -73 -117.5t-140 -44.5q-41 0 -67 9q-14 4 -11 20l5 29q4 19 23 13q25 -9 54 -9q51 0 88.5 27.5t47.5 74.5q21 110 -110 140z" />
<glyph unicode="&#xb9;" horiz-adv-x="614" d="M439 1298l-146 -113q-7 -6 -16 -5t-13 8l-14 26q-7 13 7 25l197 151q15 12 34 12h27q8 0 13 -5.5t3 -13.5l-173 -892q-1 -8 -8.5 -13.5t-15.5 -5.5h-36q-19 0 -16 19z" />
<glyph unicode="&#xba;" horiz-adv-x="656" d="M502 1416q118 0 172.5 -106.5t20.5 -279.5q-33 -173 -129 -279.5t-214 -106.5t-172.5 106.5t-20.5 279.5q33 173 129 279.5t214 106.5zM365 714q83 0 153 83.5t99 232.5t-8.5 232.5t-120.5 83.5t-152.5 -83.5t-98.5 -232.5t8 -232.5t120 -83.5z" />
<glyph unicode="&#xbb;" horiz-adv-x="894" d="M789 638l-7 -32q-3 -14 -14 -24l-410 -341q-10 -9 -18.5 -5.5t-6.5 15.5l8 40q4 19 23 35l357 296l-242 296q-13 16 -9 35l8 40q2 12 12 15.5t16 -5.5l277 -341q8 -9 6 -24zM503 638l-7 -32q-3 -14 -14 -24l-410 -341q-10 -9 -18.5 -5.5t-6.5 15.5l8 40q4 19 23 35 l357 296l-242 296q-13 16 -9 35l8 40q2 12 12 15.5t16 -5.5l277 -341q8 -9 6 -24z" />
<glyph unicode="&#xbc;" horiz-adv-x="1414" d="M439 1298l-146 -113q-7 -6 -16 -5t-13 8l-14 26q-7 13 7 25l197 151q15 12 34 12h27q8 0 13 -5.5t3 -13.5l-173 -892q-1 -8 -8.5 -13.5t-15.5 -5.5h-36q-19 0 -16 19zM1208 212l-38 -193q-3 -19 -23 -19h-36q-8 0 -13 5.5t-4 13.5l38 193h-329q-8 0 -12.5 5.5t-3.5 13.5 l5 24q5 23 19 42l446 610q15 21 36 21h34q8 0 13 -5.5t3 -13.5l-123 -633h65q8 0 12.5 -5.5t2.5 -13.5l-5 -26q-3 -19 -22 -19h-65zM1244 792l-374 -516h274zM1199 1410l-853 -1425q-9 -15 -25 -15h-30q-22 0 -10 20l853 1425q8 15 24 15h30q22 0 11 -20z" />
<glyph unicode="&#xbd;" horiz-adv-x="1414" d="M440 1298l-146 -113q-7 -6 -16 -5t-13 8l-14 26q-7 13 7 25l197 151q15 12 34 12h27q8 0 13 -5.5t3 -13.5l-173 -892q-1 -8 -8.5 -13.5t-15.5 -5.5h-36q-19 0 -16 19zM1008 843q-11 -6 -18.5 -2.5t-5.5 14.5l3 31q1 14 18 22q85 36 164 36q115 0 161.5 -65.5t23.5 -188.5 q-27 -137 -160 -306q-164 -204 -294 -318h319q8 0 12.5 -5.5t3.5 -13.5l-6 -28q-1 -8 -7.5 -13.5t-14.5 -5.5h-390q-19 0 -16 19l5 24q3 21 26 42q157 145 312 341q109 136 133 262q19 95 -14 142.5t-111 47.5q-71 0 -144 -35zM1140 1410l-853 -1425q-9 -15 -25 -15h-30 q-22 0 -10 20l853 1425q7 15 24 15h30q22 0 11 -20z" />
<glyph unicode="&#xbe;" horiz-adv-x="1414" d="M107 483q-14 6 -9 22l8 31q6 24 29 13q54 -27 124 -27q93 0 151.5 52t74.5 132q40 209 -202 218q-7 0 -11.5 6t-2.5 14l5 25q4 19 22 19q118 5 186 61.5t83 130.5q15 79 -22 124.5t-111 45.5q-71 0 -136 -27q-12 -5 -19 -1t-6 14l4 27q2 16 19 22q76 31 155 31 q111 0 162.5 -60.5t30.5 -171.5q-16 -82 -72 -141t-138 -85q86 -38 117 -96.5t12 -153.5q-22 -114 -105 -183t-206 -69q-88 0 -143 27zM1209 212l-38 -193q-3 -19 -23 -19h-36q-8 0 -13 5.5t-4 13.5l38 193h-329q-8 0 -12.5 5.5t-3.5 13.5l5 24q5 23 19 42l446 610 q15 21 36 21h34q8 0 13 -5.5t3 -13.5l-123 -633h65q8 0 12.5 -5.5t2.5 -13.5l-5 -26q-3 -19 -22 -19h-65zM1245 792l-374 -516h274zM1258 1410l-853 -1425q-9 -15 -25 -15h-30q-22 0 -10 20l853 1425q7 15 24 15h30q22 0 11 -20z" />
<glyph unicode="&#xbf;" horiz-adv-x="802" d="M610 960q-11 -56 -27.5 -77t-45.5 -21t-37 20.5t2 77.5q11 56 27.5 77t45.5 21t37 -20.5t-2 -77.5zM533 -261q11 6 19 2.5t7 -14.5l-3 -35q-3 -19 -22 -28q-117 -56 -241 -56q-163 0 -238 85.5t-44 240.5q19 102 82 193.5t182 186.5q76 62 114.5 136t61.5 194l5 27 q1 8 8 13.5t15 5.5h46q18 0 15 -19l-7 -35q-26 -138 -73.5 -223t-140.5 -159q-104 -82 -155 -158t-68 -166q-22 -115 33.5 -181.5t182.5 -66.5q115 0 221 57z" />
<glyph unicode="&#xc0;" horiz-adv-x="924" d="M609 1298l-390 -822h460zM599 1400h60q19 0 22 -20l125 -1355q2 -11 -4 -18t-17 -7h-44q-21 0 -22 18l-32 384h-504l-182 -384q-10 -18 -28 -18h-44q-11 0 -14.5 7t1.5 18l653 1355q9 20 30 20zM597 1832l125 -284q5 -10 0 -17t-18 -7h-29q-23 0 -29 16l-132 281 q-5 11 0 19t18 8h38q20 0 27 -16z" />
<glyph unicode="&#xc1;" horiz-adv-x="924" d="M609 1298l-390 -822h460zM599 1400h60q19 0 22 -20l125 -1355q2 -11 -4 -18t-17 -7h-44q-21 0 -22 18l-32 384h-504l-182 -384q-10 -18 -28 -18h-44q-11 0 -14.5 7t1.5 18l653 1355q9 20 30 20zM590 1548l237 284q13 16 33 16h38q13 0 14.5 -8t-8.5 -19l-240 -281 q-13 -16 -35 -16h-29q-13 0 -15.5 7t5.5 17z" />
<glyph unicode="&#xc2;" horiz-adv-x="924" d="M609 1298l-390 -822h460zM599 1400h60q19 0 22 -20l125 -1355q2 -11 -4 -18t-17 -7h-44q-21 0 -22 18l-32 384h-504l-182 -384q-10 -18 -28 -18h-44q-11 0 -14.5 7t1.5 18l653 1355q9 20 30 20zM685 1848h62q17 0 23 -14l128 -285q4 -10 -1.5 -17.5t-18.5 -7.5h-34 q-19 0 -26 15l-114 247l-210 -247q-12 -15 -32 -15h-34q-13 0 -16 7t6 18l238 285q12 14 29 14z" />
<glyph unicode="&#xc3;" horiz-adv-x="924" d="M609 1298l-390 -822h460zM599 1400h60q19 0 22 -20l125 -1355q2 -11 -4 -18t-17 -7h-44q-21 0 -22 18l-32 384h-504l-182 -384q-10 -18 -28 -18h-44q-11 0 -14.5 7t1.5 18l653 1355q9 20 30 20zM594 1820q45 0 72.5 -22.5t44.5 -75.5q18 -56 33 -78t38 -22q33 0 57.5 40 t44.5 135q1 8 7.5 13.5t14.5 5.5h32q19 0 16 -19q-28 -133 -72.5 -189t-107.5 -56q-45 0 -72.5 22.5t-44.5 75.5q-18 57 -32.5 78.5t-37.5 21.5q-33 0 -57.5 -40t-44.5 -135q-1 -8 -8 -13.5t-15 -5.5h-32q-18 0 -15 19q28 133 72 189t107 56z" />
<glyph unicode="&#xc4;" horiz-adv-x="924" d="M609 1298l-390 -822h460zM599 1400h60q19 0 22 -20l125 -1355q2 -11 -4 -18t-17 -7h-44q-21 0 -22 18l-32 384h-504l-182 -384q-10 -18 -28 -18h-44q-11 0 -14.5 7t1.5 18l653 1355q9 20 30 20zM476 1686q11 55 26.5 75.5t44.5 20.5t36.5 -20t-3.5 -76 q-10 -55 -25.5 -75.5t-44.5 -20.5t-36.5 20t2.5 76zM788 1686q11 55 26.5 75.5t44.5 20.5t36.5 -20t-3.5 -76q-10 -55 -25.5 -75.5t-44.5 -20.5t-36.5 20t2.5 76z" />
<glyph unicode="&#xc5;" horiz-adv-x="924" d="M609 1298l-390 -822h460zM599 1400h60q19 0 22 -20l125 -1355q2 -11 -4 -18t-17 -7h-44q-21 0 -22 18l-32 384h-504l-182 -384q-10 -18 -28 -18h-44q-11 0 -14.5 7t1.5 18l653 1355q9 20 30 20zM723 1884q85 0 132 -59t30 -143q-16 -84 -86 -143t-155 -59t-132 59 t-31 143q17 84 87 143t155 59zM656 1540q58 0 106 41t59 101q12 60 -20 101t-90 41t-106 -41t-60 -101q-11 -60 21 -101t90 -41z" />
<glyph unicode="&#xc6;" horiz-adv-x="1226" d="M220 390l-215 -372q-11 -18 -28 -18h-47q-11 0 -14.5 7t1.5 18l788 1355q11 20 30 20h558q8 0 13 -5.5t3 -13.5l-7 -35q-1 -8 -8 -14t-13 -6h-439l-110 -568h398q19 0 16 -19l-6 -33q-1 -8 -8 -14t-13 -6h-401l-120 -614h449q8 0 12.5 -6t3.5 -14l-7 -33q-4 -19 -22 -19 h-514q-8 0 -12.5 6t-3.5 13l72 371h-356zM591 464l167 860l-497 -860h330z" />
<glyph unicode="&#xc7;" horiz-adv-x="890" d="M720 11q-90 -33 -201 -35l-65 -108q62 -22 91.5 -69t16.5 -113q-14 -73 -73 -117.5t-140 -44.5q-41 0 -67 9q-14 4 -11 20l5 29q4 19 23 13q25 -9 54 -9q51 0 88.5 27.5t47.5 74.5q21 110 -110 140q-21 5 -7 29l72 123q-216 27 -305 220.5t-29 499.5q63 329 246.5 526.5 t431.5 197.5q112 0 191 -37q15 -8 11 -23l-11 -39q-2 -10 -10.5 -13t-18.5 2q-74 36 -172 36q-212 0 -369 -176t-215 -474q-59 -299 30 -474.5t301 -175.5q102 0 194 34q11 5 18.5 2t6.5 -13l-5 -39q-1 -16 -19 -23z" />
<glyph unicode="&#xc8;" horiz-adv-x="856" d="M46 19l265 1362q4 19 23 19h593q8 0 13 -5.5t3 -13.5l-7 -35q-4 -20 -24 -20h-528l-110 -566h490q8 0 13 -5.5t4 -13.5l-7 -35q-4 -20 -24 -20h-490l-119 -612h543q8 0 12 -6t3 -14l-7 -35q-4 -19 -22 -19h-608q-8 0 -13 5.5t-3 13.5zM607 1832l125 -284q5 -10 0 -17 t-18 -7h-29q-23 0 -29 16l-132 281q-5 11 0 19t18 8h38q20 0 27 -16z" />
<glyph unicode="&#xc9;" horiz-adv-x="856" d="M46 19l265 1362q4 19 23 19h593q8 0 13 -5.5t3 -13.5l-7 -35q-4 -20 -24 -20h-528l-110 -566h490q8 0 13 -5.5t4 -13.5l-7 -35q-4 -20 -24 -20h-490l-119 -612h543q8 0 12 -6t3 -14l-7 -35q-4 -19 -22 -19h-608q-8 0 -13 5.5t-3 13.5zM564 1548l237 284q13 16 33 16h38 q13 0 14.5 -8t-8.5 -19l-240 -281q-13 -16 -35 -16h-29q-13 0 -15.5 7t5.5 17z" />
<glyph unicode="&#xca;" horiz-adv-x="856" d="M46 19l265 1362q4 19 23 19h593q8 0 13 -5.5t3 -13.5l-7 -35q-4 -20 -24 -20h-528l-110 -566h490q8 0 13 -5.5t4 -13.5l-7 -35q-4 -20 -24 -20h-490l-119 -612h543q8 0 12 -6t3 -14l-7 -35q-4 -19 -22 -19h-608q-8 0 -13 5.5t-3 13.5zM687 1848h62q17 0 23 -14l128 -285 q4 -10 -1.5 -17.5t-18.5 -7.5h-34q-19 0 -26 15l-114 247l-210 -247q-12 -15 -32 -15h-34q-13 0 -16 7t6 18l238 285q12 14 29 14z" />
<glyph unicode="&#xcb;" horiz-adv-x="856" d="M46 19l265 1362q4 19 23 19h593q8 0 13 -5.5t3 -13.5l-7 -35q-4 -20 -24 -20h-528l-110 -566h490q8 0 13 -5.5t4 -13.5l-7 -35q-4 -20 -24 -20h-490l-119 -612h543q8 0 12 -6t3 -14l-7 -35q-4 -19 -22 -19h-608q-8 0 -13 5.5t-3 13.5zM474 1686q11 55 26.5 75.5 t44.5 20.5t36.5 -20t-3.5 -76q-10 -55 -25.5 -75.5t-44.5 -20.5t-36.5 20t2.5 76zM786 1686q11 55 26.5 75.5t44.5 20.5t36.5 -20t-3.5 -76q-10 -55 -25.5 -75.5t-44.5 -20.5t-36.5 20t2.5 76z" />
<glyph unicode="&#xcc;" horiz-adv-x="396" d="M347 1400h45q7 0 12 -5.5t3 -13.5l-265 -1362q-4 -19 -22 -19h-45q-8 0 -13.5 5.5t-3.5 13.5l265 1362q2 8 9 13.5t15 5.5zM321 1832l125 -284q5 -10 0 -17t-18 -7h-29q-23 0 -29 16l-132 281q-5 11 0 19t18 8h38q20 0 27 -16z" />
<glyph unicode="&#xcd;" horiz-adv-x="396" d="M345 1400h45q7 0 12 -5.5t3 -13.5l-265 -1362q-4 -19 -22 -19h-45q-8 0 -13.5 5.5t-3.5 13.5l265 1362q2 8 9 13.5t15 5.5zM348 1548l237 284q13 16 33 16h38q13 0 14.5 -8t-8.5 -19l-240 -281q-13 -16 -35 -16h-29q-13 0 -15.5 7t5.5 17z" />
<glyph unicode="&#xce;" horiz-adv-x="396" d="M345 1400h45q7 0 12 -5.5t3 -13.5l-265 -1362q-4 -19 -22 -19h-45q-8 0 -13.5 5.5t-3.5 13.5l265 1362q2 8 9 13.5t15 5.5zM423 1848h62q17 0 23 -14l128 -285q4 -10 -1.5 -17.5t-18.5 -7.5h-34q-19 0 -26 15l-114 247l-210 -247q-12 -15 -32 -15h-34q-13 0 -16 7t6 18 l238 285q12 14 29 14z" />
<glyph unicode="&#xcf;" horiz-adv-x="396" d="M345 1400h45q7 0 12 -5.5t3 -13.5l-265 -1362q-4 -19 -22 -19h-45q-8 0 -13.5 5.5t-3.5 13.5l265 1362q2 8 9 13.5t15 5.5zM214 1686q11 55 26.5 75.5t44.5 20.5t36.5 -20t-3.5 -76q-10 -55 -25.5 -75.5t-44.5 -20.5t-36.5 20t2.5 76zM526 1686q11 55 26.5 75.5 t44.5 20.5t36.5 -20t-3.5 -76q-10 -55 -25.5 -75.5t-44.5 -20.5t-36.5 20t2.5 76z" />
<glyph unicode="&#xd0;" horiz-adv-x="1006" d="M83 734h98l126 647q4 19 23 19h205q286 0 393.5 -172t38.5 -528t-243.5 -528t-460.5 -172h-205q-8 0 -13 5.5t-3 13.5l126 647h-98q-8 0 -13 5.5t-3 13.5l5 30q2 8 9 13.5t15 5.5zM883 700q62 322 -22.5 474t-338.5 152h-142l-115 -592h265q8 0 12.5 -5.5t2.5 -13.5 l-5 -30q-4 -19 -23 -19h-265l-115 -592h142q253 0 397 152t207 474z" />
<glyph unicode="&#xd1;" horiz-adv-x="1060" d="M688 21l-312 1265l-246 -1267q-4 -19 -22 -19h-46q-8 0 -13 5.5t-3 13.5l265 1362q4 19 23 19h81q22 0 27 -21l311 -1265l246 1267q1 7 8 13t15 6h46q8 0 12.5 -5.5t2.5 -13.5l-265 -1362q-4 -19 -22 -19h-81q-23 0 -27 21zM666 1820q45 0 72.5 -22.5t44.5 -75.5 q18 -56 33 -78t38 -22q33 0 57.5 40t44.5 135q1 8 7.5 13.5t14.5 5.5h32q19 0 16 -19q-28 -133 -72.5 -189t-107.5 -56q-45 0 -72.5 22.5t-44.5 75.5q-18 57 -32.5 78.5t-37.5 21.5q-33 0 -57.5 -40t-44.5 -135q-1 -8 -8 -13.5t-15 -5.5h-32q-18 0 -15 19q28 133 72 189 t107 56z" />
<glyph unicode="&#xd2;" horiz-adv-x="1044" d="M416 -24q-218 0 -296.5 186.5t-10.5 537.5q68 350 219 537t369 187t297 -187.5t11 -536.5q-68 -351 -219.5 -537.5t-369.5 -186.5zM430 50q179 0 303.5 163.5t187.5 486.5q62 324 1.5 487t-239.5 163t-303 -163.5t-187 -486.5q-62 -324 -2 -487t239 -163zM687 1832 l125 -284q5 -10 0 -17t-18 -7h-29q-23 0 -29 16l-132 281q-5 11 0 19t18 8h38q20 0 27 -16z" />
<glyph unicode="&#xd3;" horiz-adv-x="1044" d="M416 -24q-218 0 -296.5 186.5t-10.5 537.5q68 350 219 537t369 187t297 -187.5t11 -536.5q-68 -351 -219.5 -537.5t-369.5 -186.5zM430 50q179 0 303.5 163.5t187.5 486.5q62 324 1.5 487t-239.5 163t-303 -163.5t-187 -486.5q-62 -324 -2 -487t239 -163zM630 1548 l237 284q13 16 33 16h38q13 0 14.5 -8t-8.5 -19l-240 -281q-13 -16 -35 -16h-29q-13 0 -15.5 7t5.5 17z" />
<glyph unicode="&#xd4;" horiz-adv-x="1044" d="M416 -24q-218 0 -296.5 186.5t-10.5 537.5q68 350 219 537t369 187t297 -187.5t11 -536.5q-68 -351 -219.5 -537.5t-369.5 -186.5zM430 50q179 0 303.5 163.5t187.5 486.5q62 324 1.5 487t-239.5 163t-303 -163.5t-187 -486.5q-62 -324 -2 -487t239 -163zM749 1848h62 q17 0 23 -14l128 -285q4 -10 -1.5 -17.5t-18.5 -7.5h-34q-19 0 -26 15l-114 247l-210 -247q-12 -15 -32 -15h-34q-13 0 -16 7t6 18l238 285q12 14 29 14z" />
<glyph unicode="&#xd5;" horiz-adv-x="1044" d="M416 -24q-218 0 -296.5 186.5t-10.5 537.5q68 350 219 537t369 187t297 -187.5t11 -536.5q-68 -351 -219.5 -537.5t-369.5 -186.5zM430 50q179 0 303.5 163.5t187.5 486.5q62 324 1.5 487t-239.5 163t-303 -163.5t-187 -486.5q-62 -324 -2 -487t239 -163zM658 1820 q45 0 72.5 -22.5t44.5 -75.5q18 -56 33 -78t38 -22q33 0 57.5 40t44.5 135q1 8 7.5 13.5t14.5 5.5h32q19 0 16 -19q-28 -133 -72.5 -189t-107.5 -56q-45 0 -72.5 22.5t-44.5 75.5q-18 57 -32.5 78.5t-37.5 21.5q-33 0 -57.5 -40t-44.5 -135q-1 -8 -8 -13.5t-15 -5.5h-32 q-18 0 -15 19q28 133 72 189t107 56z" />
<glyph unicode="&#xd6;" horiz-adv-x="1044" d="M416 -24q-218 0 -296.5 186.5t-10.5 537.5q68 350 219 537t369 187t297 -187.5t11 -536.5q-68 -351 -219.5 -537.5t-369.5 -186.5zM430 50q179 0 303.5 163.5t187.5 486.5q62 324 1.5 487t-239.5 163t-303 -163.5t-187 -486.5q-62 -324 -2 -487t239 -163zM538 1686 q11 55 26.5 75.5t44.5 20.5t36.5 -20t-3.5 -76q-10 -55 -25.5 -75.5t-44.5 -20.5t-36.5 20t2.5 76zM850 1686q11 55 26.5 75.5t44.5 20.5t36.5 -20t-3.5 -76q-10 -55 -25.5 -75.5t-44.5 -20.5t-36.5 20t2.5 76z" />
<glyph unicode="&#xd7;" horiz-adv-x="1060" d="M555 724l311 322q13 14 27 0l29 -29q14 -13 0 -27l-312 -323l312 -323q14 -14 0 -27l-29 -29q-14 -14 -27 0l-311 322l-311 -322q-13 -14 -27 0l-29 29q-14 13 0 27l312 323l-312 323q-14 14 0 27l29 29q14 14 27 0z" />
<glyph unicode="&#xd8;" horiz-adv-x="1044" d="M413 -24q-140 0 -223 77l-148 -238q-10 -15 -27 -15h-36q-26 0 -12 24l177 284q-118 183 -38 592q68 350 219 537t369 187q138 0 222 -78l150 239q8 15 27 15h36q25 0 11 -24l-178 -285q119 -184 40 -591q-68 -351 -219.5 -537.5t-369.5 -186.5zM427 50 q179 0 303.5 163.5t187.5 486.5q66 345 -8 508l-674 -1080q68 -78 191 -78zM190 700q-67 -345 6 -509l674 1081q-68 78 -190 78q-179 0 -303 -163.5t-187 -486.5z" />
<glyph unicode="&#xd9;" horiz-adv-x="1084" d="M849 480l175 901q4 19 23 19h46q8 0 12.5 -5.5t2.5 -13.5l-176 -905q-51 -261 -176 -380.5t-319 -119.5t-273 120t-28 380l176 905q4 19 23 19h46q8 0 12.5 -5.5t2.5 -13.5l-175 -901q-44 -229 14.5 -329.5t215.5 -100.5q156 0 255 101t143 329zM676 1832l125 -284 q5 -10 0 -17t-18 -7h-29q-23 0 -29 16l-132 281q-5 11 0 19t18 8h38q20 0 27 -16z" />
<glyph unicode="&#xda;" horiz-adv-x="1084" d="M849 480l175 901q4 19 23 19h46q8 0 12.5 -5.5t2.5 -13.5l-176 -905q-51 -261 -176 -380.5t-319 -119.5t-273 120t-28 380l176 905q4 19 23 19h46q8 0 12.5 -5.5t2.5 -13.5l-175 -901q-44 -229 14.5 -329.5t215.5 -100.5q156 0 255 101t143 329zM677 1548l237 284 q13 16 33 16h38q13 0 14.5 -8t-8.5 -19l-240 -281q-13 -16 -35 -16h-29q-13 0 -15.5 7t5.5 17z" />
<glyph unicode="&#xdb;" horiz-adv-x="1084" d="M849 480l175 901q4 19 23 19h46q8 0 12.5 -5.5t2.5 -13.5l-176 -905q-51 -261 -176 -380.5t-319 -119.5t-273 120t-28 380l176 905q4 19 23 19h46q8 0 12.5 -5.5t2.5 -13.5l-175 -901q-44 -229 14.5 -329.5t215.5 -100.5q156 0 255 101t143 329zM770 1848h62q17 0 23 -14 l128 -285q4 -10 -1.5 -17.5t-18.5 -7.5h-34q-19 0 -26 15l-114 247l-210 -247q-12 -15 -32 -15h-34q-13 0 -16 7t6 18l238 285q12 14 29 14z" />
<glyph unicode="&#xdc;" horiz-adv-x="1084" d="M849 480l175 901q4 19 23 19h46q8 0 12.5 -5.5t2.5 -13.5l-176 -905q-51 -261 -176 -380.5t-319 -119.5t-273 120t-28 380l176 905q4 19 23 19h46q8 0 12.5 -5.5t2.5 -13.5l-175 -901q-44 -229 14.5 -329.5t215.5 -100.5q156 0 255 101t143 329zM561 1686 q11 55 26.5 75.5t44.5 20.5t36.5 -20t-3.5 -76q-10 -55 -25.5 -75.5t-44.5 -20.5t-36.5 20t2.5 76zM873 1686q11 55 26.5 75.5t44.5 20.5t36.5 -20t-3.5 -76q-10 -55 -25.5 -75.5t-44.5 -20.5t-36.5 20t2.5 76z" />
<glyph unicode="&#xdd;" horiz-adv-x="956" d="M297 1382l203 -734l489 734q12 18 35 18h39q11 0 14 -8t-5 -19l-547 -817l-105 -537q-4 -19 -22 -19h-46q-8 0 -13 5.5t-3 13.5l105 537l-231 817q-3 11 3.5 19t17.5 8h39q23 0 27 -18zM602 1548l237 284q13 16 33 16h38q13 0 14.5 -8t-8.5 -19l-240 -281 q-13 -16 -35 -16h-29q-13 0 -15.5 7t5.5 17z" />
<glyph unicode="&#xde;" horiz-adv-x="886" d="M183 290l-53 -271q-4 -19 -22 -19h-46q-8 0 -12.5 6t-3.5 13l265 1362q1 7 8 13t15 6h46q8 0 12.5 -5.5t2.5 -13.5l-49 -251h178q191 0 279.5 -108.5t49.5 -311.5q-40 -205 -170.5 -312.5t-321.5 -107.5h-178zM769 710q33 171 -35.5 258.5t-221.5 87.5h-180l-135 -694 h180q153 0 255.5 88t136.5 260z" />
<glyph unicode="&#xdf;" horiz-adv-x="914" d="M440 695q-8 0 -12.5 5.5t-2.5 13.5l7 35q3 19 22 19q147 4 237 80.5t116 215.5q24 124 -22.5 205t-155.5 81q-240 0 -306 -338l-193 -993q-4 -19 -22 -19h-46q-8 0 -12.5 6t-3.5 13l192 985q40 211 144.5 315.5t260.5 104.5q144 0 212 -98t37 -260q-26 -136 -106 -220 t-197 -112q124 -30 181.5 -127.5t25.5 -260.5q-34 -174 -138.5 -272t-263.5 -98q-94 0 -166 33q-14 6 -9 24l11 36q8 23 29 12q61 -31 141 -31q126 0 205.5 80t106.5 216q31 163 -40 253t-232 96z" />
<glyph unicode="&#xe0;" d="M146 518q-46 -237 4 -354.5t178 -117.5q61 0 122.5 33.5t110.5 94.5l134 688q-25 61 -73.5 94.5t-109.5 33.5q-128 0 -224 -117.5t-142 -354.5zM531 19l13 65q-107 -108 -243 -108q-159 0 -224 136.5t-13 405.5t170.5 405.5t277.5 136.5q137 0 201 -108l12 65q2 8 9 13.5 t15 5.5h43q8 0 12.5 -5.5t2.5 -13.5l-194 -998q-4 -19 -22 -19h-43q-8 0 -13.5 5.5t-3.5 13.5zM542 1484l126 -284q4 -10 -1 -17t-18 -7h-29q-23 0 -29 16l-131 281q-6 11 -1 19t18 8h38q20 0 27 -16z" />
<glyph unicode="&#xe1;" d="M146 518q-46 -237 4 -354.5t178 -117.5q61 0 122.5 33.5t110.5 94.5l134 688q-25 61 -73.5 94.5t-109.5 33.5q-128 0 -224 -117.5t-142 -354.5zM531 19l13 65q-107 -108 -243 -108q-159 0 -224 136.5t-13 405.5t170.5 405.5t277.5 136.5q137 0 201 -108l12 65q2 8 9 13.5 t15 5.5h43q8 0 12.5 -5.5t2.5 -13.5l-194 -998q-4 -19 -22 -19h-43q-8 0 -13.5 5.5t-3.5 13.5zM496 1200l236 284q13 16 33 16h38q13 0 15 -8t-8 -19l-241 -281q-13 -16 -35 -16h-29q-13 0 -15.5 7t6.5 17z" />
<glyph unicode="&#xe2;" d="M146 518q-46 -237 4 -354.5t178 -117.5q61 0 122.5 33.5t110.5 94.5l134 688q-25 61 -73.5 94.5t-109.5 33.5q-128 0 -224 -117.5t-142 -354.5zM531 19l13 65q-107 -108 -243 -108q-159 0 -224 136.5t-13 405.5t170.5 405.5t277.5 136.5q137 0 201 -108l12 65q2 8 9 13.5 t15 5.5h43q8 0 12.5 -5.5t2.5 -13.5l-194 -998q-4 -19 -22 -19h-43q-8 0 -13.5 5.5t-3.5 13.5zM584 1500h62q17 0 23 -14l128 -285q4 -10 -1.5 -17.5t-18.5 -7.5h-34q-19 0 -26 15l-114 247l-210 -247q-12 -15 -32 -15h-34q-13 0 -16 7t6 18l238 285q12 14 29 14z" />
<glyph unicode="&#xe3;" d="M146 518q-46 -237 4 -354.5t178 -117.5q61 0 122.5 33.5t110.5 94.5l134 688q-25 61 -73.5 94.5t-109.5 33.5q-128 0 -224 -117.5t-142 -354.5zM531 19l13 65q-107 -108 -243 -108q-159 0 -224 136.5t-13 405.5t170.5 405.5t277.5 136.5q137 0 201 -108l12 65q2 8 9 13.5 t15 5.5h43q8 0 12.5 -5.5t2.5 -13.5l-194 -998q-4 -19 -22 -19h-43q-8 0 -13.5 5.5t-3.5 13.5zM490 1472q45 0 72.5 -22.5t44.5 -75.5q18 -57 32.5 -78.5t37.5 -21.5q33 0 57.5 40t44.5 135q1 8 8 13.5t15 5.5h32q18 0 15 -19q-28 -133 -72 -189t-107 -56q-45 0 -72.5 22.5 t-44.5 75.5q-18 56 -33 78t-38 22q-33 0 -57.5 -40t-44.5 -135q-1 -8 -8 -13.5t-15 -5.5h-32q-18 0 -15 19q28 133 72.5 189t107.5 56z" />
<glyph unicode="&#xe4;" d="M146 518q-46 -237 4 -354.5t178 -117.5q61 0 122.5 33.5t110.5 94.5l134 688q-25 61 -73.5 94.5t-109.5 33.5q-128 0 -224 -117.5t-142 -354.5zM531 19l13 65q-107 -108 -243 -108q-159 0 -224 136.5t-13 405.5t170.5 405.5t277.5 136.5q137 0 201 -108l12 65q2 8 9 13.5 t15 5.5h43q8 0 12.5 -5.5t2.5 -13.5l-194 -998q-4 -19 -22 -19h-43q-8 0 -13.5 5.5t-3.5 13.5zM375 1336q11 55 26.5 75.5t44.5 20.5t36.5 -20t-3.5 -76q-10 -55 -25.5 -75.5t-44.5 -20.5t-36.5 20t2.5 76zM687 1336q11 55 26.5 75.5t44.5 20.5t36.5 -20t-3.5 -76 q-10 -55 -25.5 -75.5t-44.5 -20.5t-36.5 20t2.5 76z" />
<glyph unicode="&#xe5;" d="M146 518q-46 -237 4 -354.5t178 -117.5q61 0 122.5 33.5t110.5 94.5l134 688q-25 61 -73.5 94.5t-109.5 33.5q-128 0 -224 -117.5t-142 -354.5zM531 19l13 65q-107 -108 -243 -108q-159 0 -224 136.5t-13 405.5t170.5 405.5t277.5 136.5q137 0 201 -108l12 65q2 8 9 13.5 t15 5.5h43q8 0 12.5 -5.5t2.5 -13.5l-194 -998q-4 -19 -22 -19h-43q-8 0 -13.5 5.5t-3.5 13.5zM623 1540q85 0 132 -59t31 -143q-17 -84 -87 -143t-155 -59t-132 59t-30 143q16 84 86 143t155 59zM556 1196q58 0 106 41t60 101q11 60 -21 101t-90 41t-106 -41t-59 -101 q-12 -60 20 -101t90 -41z" />
<glyph unicode="&#xe6;" horiz-adv-x="1236" d="M247 44q89 0 164.5 71.5t96.5 182.5l48 246h-178q-121 0 -192.5 -67t-94.5 -187q-24 -121 17.5 -183.5t138.5 -62.5zM955 990q-118 0 -193 -106.5t-121 -327.5h462q84 434 -148 434zM816 -24q-227 0 -272 216q-61 -111 -145 -163.5t-179 -52.5q-124 0 -182.5 80 t-29.5 232q30 155 127 239.5t254 84.5h180l27 136q26 136 -3.5 189t-141.5 53q-99 0 -201 -46q-13 -6 -21 -1.5t-6 16.5l2 27q2 16 18 23q112 51 232 51q99 0 153 -42.5t53 -139.5q105 182 288 182q155 0 209 -134.5t5 -389.5q0 -2 -2.5 -13.5t-5 -21t-4.5 -13.5h-544 q-38 -223 10 -332.5t198 -109.5q87 0 166 41q12 6 19.5 2.5t5.5 -13.5l-3 -33q-3 -17 -20 -26q-87 -41 -187 -41z" />
<glyph unicode="&#xe7;" horiz-adv-x="724" d="M255 -172q-21 5 -7 29l70 122q-164 18 -233.5 156.5t-22.5 382.5q50 260 189.5 401t324.5 141q88 0 164 -34q15 -8 10 -24l-9 -31q-2 -10 -10.5 -13.5t-18.5 1.5q-61 31 -146 31q-150 0 -263 -119.5t-159 -352.5q-46 -236 22.5 -354t223.5 -118q84 0 159 31q12 5 19 1.5 t6 -13.5l-3 -31q-1 -16 -20 -24q-68 -30 -156 -33l-65 -109q62 -22 91.5 -69t16.5 -113q-14 -73 -73 -117.5t-140 -44.5q-41 0 -67 9q-14 4 -11 20l5 29q4 19 23 13q25 -9 54 -9q51 0 88.5 27.5t47.5 74.5q21 110 -110 140z" />
<glyph unicode="&#xe8;" horiz-adv-x="794" d="M535 990q-128 0 -230 -108t-150 -326h90q202 0 321 63.5t142 178.5q17 87 -32 139.5t-141 52.5zM354 -24q-192 0 -266.5 141t-23.5 405q52 266 184 402t303 136q128 0 195.5 -73.5t45.5 -188.5q-28 -145 -168.5 -227.5t-372.5 -82.5h-110q-73 -442 232 -442q100 0 187 42 q11 5 18.5 1.5t5.5 -13.5l-3 -33q-3 -19 -20 -26q-95 -41 -207 -41zM511 1484l126 -284q4 -10 -1 -17t-18 -7h-29q-23 0 -29 16l-131 281q-6 11 -1 19t18 8h38q20 0 27 -16z" />
<glyph unicode="&#xe9;" horiz-adv-x="794" d="M535 990q-128 0 -230 -108t-150 -326h90q202 0 321 63.5t142 178.5q17 87 -32 139.5t-141 52.5zM354 -24q-192 0 -266.5 141t-23.5 405q52 266 184 402t303 136q128 0 195.5 -73.5t45.5 -188.5q-28 -145 -168.5 -227.5t-372.5 -82.5h-110q-73 -442 232 -442q100 0 187 42 q11 5 18.5 1.5t5.5 -13.5l-3 -33q-3 -19 -20 -26q-95 -41 -207 -41zM447 1200l236 284q13 16 33 16h38q13 0 15 -8t-8 -19l-241 -281q-13 -16 -35 -16h-29q-13 0 -15.5 7t6.5 17z" />
<glyph unicode="&#xea;" horiz-adv-x="794" d="M535 990q-128 0 -230 -108t-150 -326h90q202 0 321 63.5t142 178.5q17 87 -32 139.5t-141 52.5zM354 -24q-192 0 -266.5 141t-23.5 405q52 266 184 402t303 136q128 0 195.5 -73.5t45.5 -188.5q-28 -145 -168.5 -227.5t-372.5 -82.5h-110q-73 -442 232 -442q100 0 187 42 q11 5 18.5 1.5t5.5 -13.5l-3 -33q-3 -19 -20 -26q-95 -41 -207 -41zM573 1500h62q17 0 23 -14l128 -285q4 -10 -1.5 -17.5t-18.5 -7.5h-34q-19 0 -26 15l-114 247l-210 -247q-12 -15 -32 -15h-34q-13 0 -16 7t6 18l238 285q12 14 29 14z" />
<glyph unicode="&#xeb;" horiz-adv-x="794" d="M535 990q-128 0 -230 -108t-150 -326h90q202 0 321 63.5t142 178.5q17 87 -32 139.5t-141 52.5zM354 -24q-192 0 -266.5 141t-23.5 405q52 266 184 402t303 136q128 0 195.5 -73.5t45.5 -188.5q-28 -145 -168.5 -227.5t-372.5 -82.5h-110q-73 -442 232 -442q100 0 187 42 q11 5 18.5 1.5t5.5 -13.5l-3 -33q-3 -19 -20 -26q-95 -41 -207 -41zM364 1336q11 55 26.5 75.5t44.5 20.5t36.5 -20t-3.5 -76q-10 -55 -25.5 -75.5t-44.5 -20.5t-36.5 20t2.5 76zM676 1336q11 55 26.5 75.5t44.5 20.5t36.5 -20t-3.5 -76q-10 -55 -25.5 -75.5t-44.5 -20.5 t-36.5 20t2.5 76z" />
<glyph unicode="&#xec;" horiz-adv-x="332" d="M26 19l194 998q2 8 9 13.5t15 5.5h43q8 0 12.5 -5.5t2.5 -13.5l-194 -998q-4 -19 -22 -19h-43q-8 0 -13.5 5.5t-3.5 13.5zM217 1484l126 -284q4 -10 -1 -17t-18 -7h-29q-23 0 -29 16l-131 281q-6 11 -1 19t18 8h38q20 0 27 -16z" />
<glyph unicode="&#xed;" horiz-adv-x="332" d="M26 19l194 998q2 8 9 13.5t15 5.5h43q8 0 12.5 -5.5t2.5 -13.5l-194 -998q-4 -19 -22 -19h-43q-8 0 -13.5 5.5t-3.5 13.5zM251 1200l236 284q13 16 33 16h38q13 0 15 -8t-8 -19l-241 -281q-13 -16 -35 -16h-29q-13 0 -15.5 7t6.5 17z" />
<glyph unicode="&#xee;" horiz-adv-x="332" d="M26 19l194 998q2 8 9 13.5t15 5.5h43q8 0 12.5 -5.5t2.5 -13.5l-194 -998q-4 -19 -22 -19h-43q-8 0 -13.5 5.5t-3.5 13.5zM325 1500h62q17 0 23 -14l128 -285q4 -10 -1.5 -17.5t-18.5 -7.5h-34q-19 0 -26 15l-114 247l-210 -247q-12 -15 -32 -15h-34q-13 0 -16 7t6 18 l238 285q12 14 29 14z" />
<glyph unicode="&#xef;" horiz-adv-x="332" d="M26 19l194 998q2 8 9 13.5t15 5.5h43q8 0 12.5 -5.5t2.5 -13.5l-194 -998q-4 -19 -22 -19h-43q-8 0 -13.5 5.5t-3.5 13.5zM116 1336q11 55 26.5 75.5t44.5 20.5t36.5 -20t-3.5 -76q-10 -55 -25.5 -75.5t-44.5 -20.5t-36.5 20t2.5 76zM428 1336q11 55 26.5 75.5t44.5 20.5 t36.5 -20t-3.5 -76q-10 -55 -25.5 -75.5t-44.5 -20.5t-36.5 20t2.5 76z" />
<glyph unicode="&#xf0;" horiz-adv-x="798" d="M420 1380q-19 6 -13 25l9 35q7 22 27 15q160 -51 244 -175l166 61q9 3 15.5 -0.5t7.5 -11.5l4 -33q2 -16 -16 -23l-142 -53q112 -218 42 -574q-61 -314 -185.5 -492t-300.5 -178q-149 0 -209.5 130.5t-13.5 371.5q47 239 158.5 370.5t265.5 131.5q71 0 133.5 -38.5 t92.5 -93.5q10 211 -61 344l-329 -121q-9 -3 -15.5 0.5t-7.5 11.5l-5 33q-2 16 17 23l303 111q-71 93 -187 130zM475 910q-252 0 -336 -432q-41 -204 -3.5 -318t155.5 -114q273 0 389 600q10 47 14 84q-24 76 -84.5 128t-134.5 52z" />
<glyph unicode="&#xf1;" horiz-adv-x="844" d="M766 658l-124 -639q-4 -19 -22 -19h-44q-8 0 -12.5 6t-3.5 13l118 607q36 185 -1 274.5t-152 89.5q-73 0 -142.5 -35.5t-122.5 -102.5l-162 -833q-4 -19 -22 -19h-44q-8 0 -12.5 6t-3.5 13l194 998q1 7 8 13t15 6h44q7 0 12 -5.5t3 -13.5l-14 -75q120 118 275 118 q140 0 196 -102t17 -300zM495 1472q45 0 72.5 -22.5t44.5 -75.5q18 -57 32.5 -78.5t37.5 -21.5q33 0 57.5 40t44.5 135q1 8 8 13.5t15 5.5h32q18 0 15 -19q-28 -133 -72 -189t-107 -56q-45 0 -72.5 22.5t-44.5 75.5q-18 56 -33 78t-38 22q-33 0 -57.5 -40t-44.5 -135 q-1 -8 -8 -13.5t-15 -5.5h-32q-18 0 -15 19q28 133 72.5 189t107.5 56z" />
<glyph unicode="&#xf2;" horiz-adv-x="840" d="M526 1060q165 0 233 -139t17 -403t-173.5 -403t-287.5 -139t-233.5 139t-17.5 403t174 403t288 139zM328 46q126 0 223 118.5t143 353.5t-5 353.5t-177 118.5t-223 -118.5t-143 -353.5t5 -353.5t177 -118.5zM510 1484l126 -284q4 -10 -1 -17t-18 -7h-29q-23 0 -29 16 l-131 281q-6 11 -1 19t18 8h38q20 0 27 -16z" />
<glyph unicode="&#xf3;" horiz-adv-x="840" d="M526 1060q165 0 233 -139t17 -403t-173.5 -403t-287.5 -139t-233.5 139t-17.5 403t174 403t288 139zM328 46q126 0 223 118.5t143 353.5t-5 353.5t-177 118.5t-223 -118.5t-143 -353.5t5 -353.5t177 -118.5zM470 1200l236 284q13 16 33 16h38q13 0 15 -8t-8 -19 l-241 -281q-13 -16 -35 -16h-29q-13 0 -15.5 7t6.5 17z" />
<glyph unicode="&#xf4;" horiz-adv-x="840" d="M526 1060q165 0 233 -139t17 -403t-173.5 -403t-287.5 -139t-233.5 139t-17.5 403t174 403t288 139zM328 46q126 0 223 118.5t143 353.5t-5 353.5t-177 118.5t-223 -118.5t-143 -353.5t5 -353.5t177 -118.5zM580 1500h62q17 0 23 -14l128 -285q4 -10 -1.5 -17.5 t-18.5 -7.5h-34q-19 0 -26 15l-114 247l-210 -247q-12 -15 -32 -15h-34q-13 0 -16 7t6 18l238 285q12 14 29 14z" />
<glyph unicode="&#xf5;" horiz-adv-x="840" d="M526 1060q165 0 233 -139t17 -403t-173.5 -403t-287.5 -139t-233.5 139t-17.5 403t174 403t288 139zM328 46q126 0 223 118.5t143 353.5t-5 353.5t-177 118.5t-223 -118.5t-143 -353.5t5 -353.5t177 -118.5zM488 1472q45 0 72.5 -22.5t44.5 -75.5q18 -57 32.5 -78.5 t37.5 -21.5q33 0 57.5 40t44.5 135q1 8 8 13.5t15 5.5h32q18 0 15 -19q-28 -133 -72 -189t-107 -56q-45 0 -72.5 22.5t-44.5 75.5q-18 56 -33 78t-38 22q-33 0 -57.5 -40t-44.5 -135q-1 -8 -8 -13.5t-15 -5.5h-32q-18 0 -15 19q28 133 72.5 189t107.5 56z" />
<glyph unicode="&#xf6;" horiz-adv-x="840" d="M526 1060q165 0 233 -139t17 -403t-173.5 -403t-287.5 -139t-233.5 139t-17.5 403t174 403t288 139zM328 46q126 0 223 118.5t143 353.5t-5 353.5t-177 118.5t-223 -118.5t-143 -353.5t5 -353.5t177 -118.5zM371 1336q11 55 26.5 75.5t44.5 20.5t36.5 -20t-3.5 -76 q-10 -55 -25.5 -75.5t-44.5 -20.5t-36.5 20t2.5 76zM683 1336q11 55 26.5 75.5t44.5 20.5t36.5 -20t-3.5 -76q-10 -55 -25.5 -75.5t-44.5 -20.5t-36.5 20t2.5 76z" />
<glyph unicode="&#xf7;" horiz-adv-x="1060" d="M506 262q0 56 12.5 77t41.5 21t41.5 -21t12.5 -77t-12.5 -77t-41.5 -21t-41.5 21t-12.5 77zM506 1066q0 56 12.5 77t41.5 21t41.5 -21t12.5 -77t-12.5 -77t-41.5 -21t-41.5 21t-12.5 77zM133 702h853q8 0 14 -5.5t6 -13.5v-38q0 -8 -6 -13.5t-14 -5.5h-853 q-8 0 -13.5 5.5t-5.5 13.5v38q0 7 6 13t13 6z" />
<glyph unicode="&#xf8;" horiz-adv-x="840" d="M899 1232l-170 -272q98 -141 40 -442q-51 -264 -173.5 -403t-287.5 -139q-97 0 -163 49l-143 -230q-10 -15 -27 -15h-36q-26 0 -12 24l170 272q-99 138 -40 442q51 264 174 403t288 139q95 0 162 -50l144 231q8 15 27 15h36q25 0 11 -24zM321 46q126 0 223 118.5 t143 353.5q46 239 -9 361l-489 -784q50 -49 132 -49zM139 518q-47 -240 8 -362l490 784q-50 50 -132 50q-126 0 -223 -118.5t-143 -353.5z" />
<glyph unicode="&#xf9;" horiz-adv-x="844" d="M76 378l124 639q1 7 8 13t15 6h44q7 0 12 -5.5t3 -13.5l-118 -607q-36 -185 1 -274.5t152 -89.5q73 0 142.5 35.5t122.5 102.5l162 833q1 7 8 13t15 6h44q7 0 12 -5.5t3 -13.5l-194 -998q-4 -19 -22 -19h-44q-8 0 -12.5 6t-3.5 13l15 75q-120 -118 -275 -118 q-140 0 -196 102t-18 300zM493 1484l126 -284q4 -10 -1 -17t-18 -7h-29q-23 0 -29 16l-131 281q-6 11 -1 19t18 8h38q20 0 27 -16z" />
<glyph unicode="&#xfa;" horiz-adv-x="844" d="M76 378l124 639q1 7 8 13t15 6h44q7 0 12 -5.5t3 -13.5l-118 -607q-36 -185 1 -274.5t152 -89.5q73 0 142.5 35.5t122.5 102.5l162 833q1 7 8 13t15 6h44q7 0 12 -5.5t3 -13.5l-194 -998q-4 -19 -22 -19h-44q-8 0 -12.5 6t-3.5 13l15 75q-120 -118 -275 -118 q-140 0 -196 102t-18 300zM475 1200l236 284q13 16 33 16h38q13 0 15 -8t-8 -19l-241 -281q-13 -16 -35 -16h-29q-13 0 -15.5 7t6.5 17z" />
<glyph unicode="&#xfb;" horiz-adv-x="844" d="M76 378l124 639q1 7 8 13t15 6h44q7 0 12 -5.5t3 -13.5l-118 -607q-36 -185 1 -274.5t152 -89.5q73 0 142.5 35.5t122.5 102.5l162 833q1 7 8 13t15 6h44q7 0 12 -5.5t3 -13.5l-194 -998q-4 -19 -22 -19h-44q-8 0 -12.5 6t-3.5 13l15 75q-120 -118 -275 -118 q-140 0 -196 102t-18 300zM575 1500h62q17 0 23 -14l128 -285q4 -10 -1.5 -17.5t-18.5 -7.5h-34q-19 0 -26 15l-114 247l-210 -247q-12 -15 -32 -15h-34q-13 0 -16 7t6 18l238 285q12 14 29 14z" />
<glyph unicode="&#xfc;" horiz-adv-x="844" d="M76 378l124 639q1 7 8 13t15 6h44q7 0 12 -5.5t3 -13.5l-118 -607q-36 -185 1 -274.5t152 -89.5q73 0 142.5 35.5t122.5 102.5l162 833q1 7 8 13t15 6h44q7 0 12 -5.5t3 -13.5l-194 -998q-4 -19 -22 -19h-44q-8 0 -12.5 6t-3.5 13l15 75q-120 -118 -275 -118 q-140 0 -196 102t-18 300zM366 1336q11 55 26.5 75.5t44.5 20.5t36.5 -20t-3.5 -76q-10 -55 -25.5 -75.5t-44.5 -20.5t-36.5 20t2.5 76zM678 1336q11 55 26.5 75.5t44.5 20.5t36.5 -20t-3.5 -76q-10 -55 -25.5 -75.5t-44.5 -20.5t-36.5 20t2.5 76z" />
<glyph unicode="&#xfd;" horiz-adv-x="764" d="M62 -359l178 363l-118 1005q-3 27 21 27h42q20 0 23 -22l97 -884l433 884q10 22 30 22h43q11 0 14 -7.5t-3 -19.5l-676 -1373q-12 -22 -32 -22h-42q-24 0 -10 27zM436 1200l236 284q13 16 33 16h38q13 0 15 -8t-8 -19l-241 -281q-13 -16 -35 -16h-29q-13 0 -15.5 7 t6.5 17z" />
<glyph unicode="&#xfe;" d="M110 86l-88 -453q-1 -7 -8 -13t-15 -6h-44q-7 0 -12 5.5t-3 13.5l351 1807q2 8 9 14t14 6h44q8 0 12.5 -6t2.5 -14l-95 -492q52 53 116.5 82.5t127.5 29.5q159 0 223.5 -136.5t12.5 -405.5t-170 -405.5t-277 -136.5q-63 0 -115.5 29.5t-85.5 80.5zM674 518 q47 237 -2.5 354.5t-177.5 117.5q-59 0 -121 -33.5t-112 -94.5l-134 -690q26 -62 75 -95t108 -33q127 0 222.5 118.5t141.5 355.5z" />
<glyph unicode="&#xff;" horiz-adv-x="764" d="M62 -359l178 363l-118 1005q-3 27 21 27h42q20 0 23 -22l97 -884l433 884q10 22 30 22h43q11 0 14 -7.5t-3 -19.5l-676 -1373q-12 -22 -32 -22h-42q-24 0 -10 27zM327 1336q11 55 26.5 75.5t44.5 20.5t36.5 -20t-3.5 -76q-10 -55 -25.5 -75.5t-44.5 -20.5t-36.5 20 t2.5 76zM639 1336q11 55 26.5 75.5t44.5 20.5t36.5 -20t-3.5 -76q-10 -55 -25.5 -75.5t-44.5 -20.5t-36.5 20t2.5 76z" />
<glyph unicode="&#x152;" horiz-adv-x="1216" d="M595 74h449q8 0 12 -6t3 -14l-7 -35q-4 -19 -22 -19h-531q-243 0 -349 184.5t-41 515.5q64 330 241.5 515t420.5 185h516q8 0 13 -5.5t3 -13.5l-7 -35q-1 -8 -8 -14t-13 -6h-437l-110 -566h396q8 0 13 -5.5t4 -13.5l-7 -35q-1 -8 -8 -14t-13 -6h-399zM511 74l243 1252 q-213 -17 -358 -172.5t-203 -453.5q-59 -299 25.5 -454t292.5 -172z" />
<glyph unicode="&#x153;" horiz-adv-x="1298" d="M898 46q87 0 166 41q12 6 19.5 2.5t5.5 -13.5l-3 -33q-3 -17 -20 -26q-87 -41 -187 -41q-251 0 -280 250q-57 -123 -134.5 -186.5t-189.5 -63.5q-316 0 -211 542t422 542q115 0 166 -63t59 -185q61 123 154 185.5t205 62.5q128 0 189 -72t38 -190q-29 -147 -155.5 -228.5 t-355.5 -81.5h-96q-39 -226 12 -334t196 -108zM288 46q121 0 200 114.5t126 357.5q48 243 13.5 357.5t-155.5 114.5t-200 -114.5t-126 -357.5q-48 -243 -13.5 -357.5t155.5 -114.5zM704 556h76q204 0 306.5 60t126.5 182q17 90 -25 141t-134 51q-120 0 -211.5 -105.5 t-138.5 -328.5z" />
<glyph unicode="&#x178;" horiz-adv-x="956" d="M297 1382l203 -734l489 734q12 18 35 18h39q11 0 14 -8t-5 -19l-547 -817l-105 -537q-4 -19 -22 -19h-46q-8 0 -13 5.5t-3 13.5l105 537l-231 817q-3 11 3.5 19t17.5 8h39q23 0 27 -18zM494 1686q11 55 26.5 75.5t44.5 20.5t36.5 -20t-3.5 -76q-10 -55 -25.5 -75.5 t-44.5 -20.5t-36.5 20t2.5 76zM806 1686q11 55 26.5 75.5t44.5 20.5t36.5 -20t-3.5 -76q-10 -55 -25.5 -75.5t-44.5 -20.5t-36.5 20t2.5 76z" />
<glyph unicode="&#x2c6;" horiz-adv-x="620" d="M453 1460h62q16 0 24 -14l127 -285q4 -10 -1.5 -17.5t-18.5 -7.5h-34q-19 0 -26 15l-114 247l-210 -247q-12 -15 -32 -15h-34q-13 0 -16 7t6 18l239 285q11 14 28 14z" />
<glyph unicode="&#x2dc;" horiz-adv-x="620" d="M370 1434q45 0 72.5 -22.5t44.5 -75.5q18 -56 33 -78t38 -22q33 0 57.5 40t44.5 135q1 8 7.5 13.5t14.5 5.5h32q19 0 16 -19q-28 -133 -72.5 -189t-107.5 -56q-45 0 -72.5 22.5t-44.5 75.5q-18 57 -32.5 78.5t-37.5 21.5q-33 0 -57.5 -40t-44.5 -135q-5 -19 -23 -19h-32 q-8 0 -12.5 5.5t-2.5 13.5q28 133 72 189t107 56z" />
<glyph unicode="&#x2000;" horiz-adv-x="942" />
<glyph unicode="&#x2001;" horiz-adv-x="1884" />
<glyph unicode="&#x2002;" horiz-adv-x="942" />
<glyph unicode="&#x2003;" horiz-adv-x="1884" />
<glyph unicode="&#x2004;" horiz-adv-x="628" />
<glyph unicode="&#x2005;" horiz-adv-x="471" />
<glyph unicode="&#x2006;" horiz-adv-x="314" />
<glyph unicode="&#x2007;" horiz-adv-x="314" />
<glyph unicode="&#x2008;" horiz-adv-x="235" />
<glyph unicode="&#x2009;" horiz-adv-x="376" />
<glyph unicode="&#x200a;" horiz-adv-x="104" />
<glyph unicode="&#x2010;" horiz-adv-x="712" d="M606 624h-465q-7 0 -12 5.5t-4 13.5l9 42q4 19 22 19h465q8 0 13.5 -5.5t3.5 -13.5l-9 -42q-1 -7 -8 -13t-15 -6z" />
<glyph unicode="&#x2011;" horiz-adv-x="712" d="M606 624h-465q-7 0 -12 5.5t-4 13.5l9 42q4 19 22 19h465q8 0 13.5 -5.5t3.5 -13.5l-9 -42q-1 -7 -8 -13t-15 -6z" />
<glyph unicode="&#x2012;" horiz-adv-x="712" d="M606 624h-465q-7 0 -12 5.5t-4 13.5l9 42q4 19 22 19h465q8 0 13.5 -5.5t3.5 -13.5l-9 -42q-1 -7 -8 -13t-15 -6z" />
<glyph unicode="&#x2013;" horiz-adv-x="1000" d="M999 626h-961q-19 0 -16 19l7 38q2 8 9 13.5t15 5.5h961q7 0 12 -5.5t3 -13.5l-7 -38q-1 -8 -8 -13.5t-15 -5.5z" />
<glyph unicode="&#x2014;" horiz-adv-x="2000" d="M1999 626h-1961q-19 0 -16 19l7 38q2 8 9 13.5t15 5.5h1961q7 0 12 -5.5t3 -13.5l-7 -38q-1 -8 -8 -13.5t-15 -5.5z" />
<glyph unicode="&#x2018;" horiz-adv-x="436" d="M483 1464q-72 -72 -96 -158q18 -6 23.5 -26t-3.5 -70q-11 -56 -27.5 -77t-45.5 -21t-37.5 20t0.5 70q19 95 51.5 162.5t101.5 134.5q14 14 24 1l12 -18q5 -10 -3 -18z" />
<glyph unicode="&#x2019;" horiz-adv-x="436" d="M259 1162q73 72 96 158q-35 13 -19 96q11 56 27.5 77t45.5 21t37 -20t-1 -70q-19 -95 -51.5 -162t-100.5 -135q-15 -15 -25 -1l-11 18q-7 9 2 18z" />
<glyph unicode="&#x201a;" horiz-adv-x="436" d="M-1 -182q74 74 96 158q-18 6 -23 26t3 70q11 55 28 76.5t46 21.5t37 -20t-1 -70q-19 -95 -51.5 -162.5t-101.5 -134.5q-14 -14 -24 -1l-11 18q-7 9 2 18z" />
<glyph unicode="&#x201c;" horiz-adv-x="630" d="M677 1464q-72 -72 -96 -158q18 -6 23.5 -26t-3.5 -70q-11 -56 -27.5 -77t-45.5 -21t-37.5 20t0.5 70q19 95 51.5 162.5t101.5 134.5q14 14 24 1l12 -18q5 -10 -3 -18zM483 1464q-72 -72 -96 -158q18 -6 23.5 -26t-3.5 -70q-11 -56 -27.5 -77t-45.5 -21t-37.5 20t0.5 70 q19 95 51.5 162.5t101.5 134.5q14 14 24 1l12 -18q5 -10 -3 -18z" />
<glyph unicode="&#x201d;" horiz-adv-x="630" d="M453 1162q73 72 96 158q-35 13 -19 96q11 56 27.5 77t45.5 21t37 -20t-1 -70q-19 -95 -51.5 -162t-100.5 -135q-15 -15 -25 -1l-11 18q-7 9 2 18zM259 1162q73 72 96 158q-35 13 -19 96q11 56 27.5 77t45.5 21t37 -20t-1 -70q-19 -95 -51.5 -162t-100.5 -135 q-15 -15 -25 -1l-11 18q-7 9 2 18z" />
<glyph unicode="&#x201e;" horiz-adv-x="630" d="M194 -180q72 72 95 158q-35 13 -19 96q11 56 27.5 77t45.5 21t37 -20t-1 -70q-18 -94 -50.5 -161.5t-101.5 -135.5q-16 -16 -24 -1l-12 18q-6 9 3 18zM0 -180q72 72 95 158q-35 13 -19 96q11 56 27.5 77t45.5 21t37 -20t-1 -70q-18 -94 -50.5 -161.5t-101.5 -135.5 q-16 -16 -24 -1l-12 18q-6 9 3 18z" />
<glyph unicode="&#x2022;" horiz-adv-x="552" d="M168 664q0 84 34 122t104 38t104 -38t34 -122t-34 -122t-104 -38t-104 38t-34 122z" />
<glyph unicode="&#x2026;" horiz-adv-x="1216" d="M466 72q11 55 28 76.5t46 21.5t37 -20.5t-3 -77.5q-10 -55 -27 -76.5t-46 -21.5t-37 20.5t2 77.5zM856 72q11 55 28 76.5t46 21.5t37 -20.5t-3 -77.5q-10 -55 -27 -76.5t-46 -21.5t-37 20.5t2 77.5zM76 72q11 55 28 76.5t46 21.5t37 -20.5t-3 -77.5q-10 -55 -27 -76.5 t-46 -21.5t-37 20.5t2 77.5z" />
<glyph unicode="&#x202f;" horiz-adv-x="376" />
<glyph unicode="&#x2039;" horiz-adv-x="608" d="M140 606l7 32q1 13 14 24l409 341q11 9 19.5 5.5t6.5 -15.5l-8 -40q-4 -19 -23 -35l-358 -296l243 -296q13 -16 9 -35l-8 -40q-2 -12 -12 -15.5t-17 5.5l-276 341q-9 10 -6 24z" />
<glyph unicode="&#x203a;" horiz-adv-x="608" d="M503 638l-7 -32q-3 -14 -14 -24l-410 -341q-10 -9 -18.5 -5.5t-6.5 15.5l8 40q4 19 23 35l357 296l-242 296q-13 16 -9 35l8 40q2 12 12 15.5t16 -5.5l277 -341q8 -9 6 -24z" />
<glyph unicode="&#x205f;" horiz-adv-x="471" />
<glyph unicode="&#x20ac;" horiz-adv-x="904" d="M730 10q-85 -34 -190 -34q-216 0 -318.5 150.5t-83.5 415.5h-73q-8 0 -12 6t-3 14l4 21q1 7 8 13t15 6h67q9 83 37 192h-67q-8 0 -12 6t-3 14l4 21q1 7 8 13t15 6h73q80 265 242 417.5t378 152.5q102 0 173 -36q16 -8 10 -27l-10 -36q-2 -10 -10.5 -13t-18.5 2 q-71 36 -154 36q-182 0 -317 -130.5t-209 -365.5h512q19 0 11 -19l-11 -25q-7 -16 -24 -16h-504q-32 -105 -37 -192h461q19 0 11 -19l-11 -25q-7 -16 -24 -16h-445q-17 -234 67.5 -363t266.5 -129q91 0 175 33q11 5 18 1.5t6 -13.5l-3 -34q-3 -19 -22 -27z" />
<glyph unicode="&#x2122;" horiz-adv-x="1016" d="M206 768v570h-135q-17 0 -17 17v29q0 16 17 16h341q16 0 16 -16v-29q0 -17 -16 -17h-136v-570q0 -16 -16 -16h-38q-16 0 -16 16zM726 992h-12q-16 0 -23 14l-143 286v-526q0 -16 -16 -16h-38q-16 0 -16 16v618q0 16 17 16h53q16 0 23 -14l149 -302l149 302q7 14 23 14h53 q17 0 17 -16v-618q0 -16 -16 -16h-38q-16 0 -16 16v526l-143 -286q-7 -14 -23 -14z" />
</font>
</defs>
</svg>
