<?xml version="1.0" standalone="no"?>
<!DOCTYPE svg PUBLIC "-//W3C//DTD SVG 1.1//EN" "http://www.w3.org/Graphics/SVG/1.1/DTD/svg11.dtd" >
<svg xmlns="http://www.w3.org/2000/svg">
<metadata></metadata>
<defs>
<font id="core_sans_nr_sc_37_cn_lightIt" horiz-adv-x="1060" >
<font-face units-per-em="2000" ascent="1600" descent="-400" />
<missing-glyph horiz-adv-x="446" />
<glyph horiz-adv-x="666" />
<glyph horiz-adv-x="0" />
<glyph horiz-adv-x="0" />
<glyph unicode="&#xd;" horiz-adv-x="262" />
<glyph unicode=" "  horiz-adv-x="446" />
<glyph unicode="&#x09;" horiz-adv-x="446" />
<glyph unicode="&#xa0;" horiz-adv-x="446" />
<glyph unicode="!" horiz-adv-x="456" d="M66 86q13 62 36 88t64 26t55 -26t1 -88q-12 -62 -35.5 -88t-64.5 -26t-54.5 26t-1.5 88zM460 1372l-73 -378l-139 -617q-2 -11 -12 -19t-21 -8h-38q-11 0 -18 8t-5 19l101 617l73 378q2 12 12.5 20t22.5 8h74q12 0 18.5 -8t4.5 -20z" />
<glyph unicode="&#x22;" horiz-adv-x="718" d="M452 1290l-98 -417q-3 -11 -12.5 -19t-20.5 -8h-48q-12 0 -19 8t-5 19l87 498q2 12 12 20.5t22 8.5h76q12 0 18 -8t4 -20zM698 1290l-98 -417q-3 -11 -12.5 -19t-20.5 -8h-48q-12 0 -19 8t-5 19l87 498q2 12 12 20.5t22 8.5h76q12 0 18 -8t4 -20z" />
<glyph unicode="#" horiz-adv-x="1032" d="M1037 942h-147l-150 -462h147q12 0 18 -8t4 -20l-10 -53q-2 -12 -12 -20.5t-22 -8.5h-162l-111 -345q-3 -10 -12.5 -17.5t-20.5 -7.5h-63q-14 0 -20.5 9.5t-2.5 22.5l109 338h-276l-111 -345q-3 -10 -12.5 -17.5t-20.5 -7.5h-63q-14 0 -20.5 9.5t-2.5 22.5l109 338h-135 q-12 0 -18.5 8.5t-4.5 20.5l10 53q2 12 12.5 20t22.5 8h149l150 462h-149q-12 0 -19 8.5t-5 20.5l11 53q2 12 12 20t22 8h163l105 323q3 10 13 17.5t21 7.5h63q14 0 20 -9.5t2 -22.5l-102 -316h275l105 323q3 10 13 17.5t21 7.5h63q14 0 20 -9.5t2 -22.5l-102 -316h133 q12 0 18.5 -8t4.5 -20l-11 -53q-2 -12 -11.5 -20.5t-21.5 -8.5zM493 942l-150 -462h275l150 462h-275z" />
<glyph unicode="$" horiz-adv-x="824" d="M268 -150q-12 0 -18 8t-4 20l19 98q-144 -2 -251 49q-21 10 -15 33l16 63q4 17 17 23t29 -3q93 -53 218 -53h8l114 588q-139 66 -189 162.5t-23 237.5q27 139 121 229t235 112l21 109q2 12 12 20t22 8h40q12 0 18 -8t4 -20l-20 -102q107 -3 195 -39q21 -10 15 -33 l-14 -58q-4 -17 -17 -22.5t-29 2.5q-70 36 -171 38l-106 -545q137 -70 186.5 -167.5t21.5 -241.5q-30 -153 -123 -249.5t-237 -122.5l-21 -108q-2 -12 -12 -20t-22 -8h-40zM592 354q19 93 -6.5 159t-97.5 116l-102 -526q82 26 135 91t71 160zM319 1078q-17 -89 9.5 -151.5 t99.5 -111.5l94 485q-81 -22 -133.5 -79.5t-69.5 -142.5z" />
<glyph unicode="%" horiz-adv-x="1380" d="M1207 346q-33 -172 -117.5 -267t-199.5 -95t-161.5 94.5t-13.5 267.5t117 267.5t199 94.5t162 -95t14 -267zM1087 346q51 260 -76 260q-125 0 -176 -260t75 -260t177 260zM736 1052q-33 -173 -117 -267.5t-199 -94.5t-162 95t-14 267q33 173 117 267.5t199 94.5t162 -95 t14 -267zM616 1052q51 260 -75 260t-177 -260t75 -260t177 260zM213 32l930 1352q10 16 32 16h52q16 0 19 -9t-7 -23l-929 -1352q-11 -16 -32 -16h-52q-16 0 -19.5 9t6.5 23z" />
<glyph unicode="&#x26;" horiz-adv-x="994" d="M324 86q171 0 296 182l-229 398q-201 -124 -239 -326q-23 -113 24 -183.5t148 -70.5zM386 1116q-14 -56 -1.5 -124.5t56.5 -151.5l12 -22q109 66 160.5 137.5t68.5 156.5q19 99 -9 150.5t-100 51.5q-70 0 -119 -51t-68 -147zM765 15l-84 145q-154 -184 -380 -184 q-154 0 -231.5 96.5t-43.5 271.5q48 248 314 410l-12 22q-105 174 -71 342q28 144 120 225t219 81q126 0 185 -83.5t29 -234.5q-42 -221 -305 -378l189 -326q64 142 101 323q2 11 12.5 19t21.5 8h65q13 0 19 -8.5t4 -20.5q-58 -273 -155 -443l135 -235q10 -19 1.5 -32 t-28.5 -13h-71q-25 0 -34 15z" />
<glyph unicode="'" horiz-adv-x="472" d="M452 1290l-98 -417q-3 -11 -12.5 -19t-20.5 -8h-48q-12 0 -19 8t-5 19l87 498q2 12 12 20.5t22 8.5h76q12 0 18 -8t4 -20z" />
<glyph unicode="(" horiz-adv-x="578" d="M200 620q45 230 152 451t261 412q13 17 38 17h43q14 0 17 -10t-7 -23q-297 -390 -386 -847q-88 -455 56 -847q5 -13 -1.5 -23t-20.5 -10h-43q-25 0 -32 17q-80 190 -100.5 406.5t23.5 456.5z" />
<glyph unicode=")" horiz-adv-x="578" d="M418 620q-45 -230 -152 -451t-261 -412q-13 -17 -38 -17h-43q-14 0 -17 10t7 23q297 390 386 847q88 455 -56 847q-5 13 1.5 23t20.5 10h43q25 0 32 -17q80 -190 100.5 -406.5t-23.5 -456.5z" />
<glyph unicode="*" horiz-adv-x="1004" d="M636 664l272 -145q11 -6 14 -18t-3 -22l-34 -59q-6 -10 -18 -13t-22 3l-261 163l11 -306q1 -12 -8 -20.5t-21 -8.5h-68q-12 0 -21 8.5t-8 20.5l11 306l-261 -162q-11 -7 -22.5 -4t-17.5 14l-34 59q-6 10 -3 22.5t14 17.5l272 144l-272 145q-11 6 -14 18t3 22l34 59 q6 10 18 13t22 -3l261 -164l-11 307q-1 12 8 20.5t21 8.5h68q12 0 21 -8.5t8 -20.5l-11 -307l261 163q11 7 22.5 4t17.5 -14l34 -59q6 -10 3 -22.5t-14 -17.5z" />
<glyph unicode="+" d="M496 211v397h-358q-12 0 -20 8t-8 20v56q0 12 8 20t20 8h358v397q0 12 8 20.5t20 8.5h72q12 0 20 -8.5t8 -20.5v-397h358q12 0 20 -8t8 -20v-56q0 -12 -8 -20t-20 -8h-358v-397q0 -12 -8 -20.5t-20 -8.5h-72q-12 0 -20 8.5t-8 20.5z" />
<glyph unicode="," horiz-adv-x="360" d="M-44 -171q80 78 92 145q-26 10 -33 35.5t3 76.5q13 62 36 88t64 26q42 0 55 -27t0 -93q-19 -99 -60.5 -173t-116.5 -136q-10 -9 -19.5 -9t-13.5 8l-14 31q-6 15 7 28z" />
<glyph unicode="-" horiz-adv-x="712" d="M601 604h-456q-12 0 -18.5 8t-4.5 20l13 64q2 12 11.5 20t21.5 8h456q12 0 18.5 -8t4.5 -20l-13 -64q-2 -12 -11.5 -20t-21.5 -8z" />
<glyph unicode="." horiz-adv-x="360" d="M19 88q12 62 35 87t64 25t55 -25t2 -87q-13 -62 -36 -87t-64 -25t-54.5 25t-1.5 87z" />
<glyph unicode="/" horiz-adv-x="708" d="M-144 -187l928 1664q10 19 29 19h73q32 0 14 -33l-929 -1664q-9 -19 -29 -19h-72q-32 0 -14 33z" />
<glyph unicode="0" horiz-adv-x="900" d="M345 -24q-191 0 -252 175t9 549q71 369 202 546.5t322 177.5t252.5 -175t-8.5 -549q-72 -369 -203 -546.5t-322 -177.5zM367 88q129 0 219 142t154 470q45 223 40.5 359t-47.5 194.5t-128 58.5q-129 0 -219.5 -142t-153.5 -470q-46 -223 -41 -359t48 -194.5t128 -58.5z " />
<glyph unicode="1" horiz-adv-x="900" d="M568 1236l-210 -176q-27 -22 -42 2l-24 37q-13 20 9 39l290 243q23 19 48 19h60q12 0 18.5 -8t4.5 -20l-261 -1344q-2 -12 -12 -20t-22 -8h-71q-12 0 -18.5 8t-4.5 20z" />
<glyph unicode="2" horiz-adv-x="900" d="M326 1371q120 53 244 53q168 0 245 -96.5t42 -279.5q-23 -122 -90.5 -244.5t-186.5 -267.5q-202 -245 -391 -426h462q12 0 18.5 -8t3.5 -21l-10 -53q-2 -12 -11.5 -20t-21.5 -8h-598q-12 0 -18.5 8t-4.5 20l9 45q5 26 26 47q230 219 437 476q208 255 245 446 q25 129 -26.5 199.5t-162.5 70.5q-107 0 -204 -45q-16 -7 -27.5 0t-9.5 23l7 50q3 23 23 31z" />
<glyph unicode="3" horiz-adv-x="900" d="M72 139q88 -51 207 -51q126 0 209.5 75t106.5 195q28 143 -48.5 224t-249.5 94q-10 1 -16.5 9t-4.5 19l11 57q2 11 11.5 19t20.5 9q160 9 267.5 84.5t132.5 206.5q21 104 -25.5 168t-166.5 64q-109 0 -214 -46q-17 -7 -27.5 -0.5t-9.5 22.5l7 55q1 21 27 32 q109 49 250 49q172 0 246.5 -90t45.5 -240q-28 -146 -121.5 -236.5t-232.5 -125.5q136 -36 194.5 -132.5t30.5 -241.5q-33 -172 -156.5 -277t-309.5 -105q-135 0 -231 52q-21 10 -15 32l15 58q5 16 18.5 22.5t27.5 -1.5z" />
<glyph unicode="4" horiz-adv-x="900" d="M704 1178l-541 -750h396zM481 28l56 290h-492q-12 0 -18 8.5t-4 20.5l11 58q6 28 27 57l661 913q18 25 49 25h76q12 0 18.5 -8t4.5 -20l-183 -944h105q12 0 18.5 -8t4.5 -20l-10 -53q-2 -12 -12.5 -20.5t-22.5 -8.5h-105l-56 -290q-2 -12 -12 -20t-22 -8h-71 q-12 0 -18.5 8t-4.5 20z" />
<glyph unicode="5" horiz-adv-x="900" d="M59 20q-20 12 -15 36l15 55q4 16 18.5 22.5t27.5 -1.5q74 -44 186 -44q130 0 224.5 87t126.5 247q29 153 -23.5 237.5t-186.5 84.5q-93 0 -185 -34q-17 -6 -27.5 1.5t-7.5 23.5l124 637q2 12 12 20t22 8h531q13 0 19 -8t4 -20l-10 -54q-2 -12 -12 -20t-23 -8h-431 l-90 -462q68 26 142 26q158 0 234.5 -113t37.5 -319q-41 -207 -169.5 -326.5t-327.5 -119.5q-131 0 -216 44z" />
<glyph unicode="6" horiz-adv-x="900" d="M528 786q-154 0 -286 -156q-20 -111 -24 -203t9.5 -171t56.5 -123.5t113 -44.5q103 0 182 95.5t109 252.5q33 167 -8 258.5t-152 91.5zM856 1285q-67 27 -153 27q-69 0 -128.5 -27.5t-115.5 -88t-103.5 -167t-83.5 -255.5q130 124 292 124q160 0 228.5 -120.5 t26.5 -339.5q-43 -218 -162.5 -340t-279.5 -122q-124 0 -196 72t-91 225t29 391q76 392 232 576t373 184q98 0 176 -28q23 -8 17 -32l-14 -57q-4 -16 -17.5 -22t-29.5 0z" />
<glyph unicode="7" horiz-adv-x="900" d="M160 37l630 1253h-513q-12 0 -18.5 8t-4.5 20l10 54q2 12 12.5 20t22.5 8h619q12 0 18 -8t4 -20l-12 -62q-6 -31 -21 -60l-613 -1220q-15 -30 -46 -30h-72q-35 0 -16 37z" />
<glyph unicode="8" horiz-adv-x="900" d="M43 358q47 246 330 378q-186 133 -146 344q31 156 139 250t258 94q151 0 225 -92.5t43 -247.5q-24 -121 -100.5 -209t-187.5 -141q38 -24 66 -45.5t54.5 -49t41.5 -55.5t27 -64.5t10 -75.5t-9 -90q-34 -175 -158 -276.5t-291 -101.5q-168 0 -252.5 101t-49.5 281z M666 352q6 30 6.5 57.5t-5.5 51.5t-14.5 44.5t-24 40t-31.5 36t-39 34t-44 31.5t-49 31q-118 -47 -195.5 -130.5t-98.5 -191.5q-24 -125 31 -196.5t165 -71.5q109 0 192 72t107 192zM358 1084q-20 -103 22 -169.5t133 -124.5q211 91 252 296q20 105 -23.5 165.5t-138.5 60.5 q-89 0 -157 -62t-88 -166z" />
<glyph unicode="9" horiz-adv-x="900" d="M443 614q156 0 286 156q20 111 24 203t-9.5 171t-56 123.5t-112.5 44.5q-103 0 -182.5 -95.5t-109.5 -252.5q-33 -167 8 -258.5t152 -91.5zM115 115q67 -27 154 -27q69 0 128 27.5t115 88t103.5 167t83.5 255.5q-130 -124 -292 -124q-160 0 -228.5 120.5t-26.5 339.5 q43 218 162.5 340t279.5 122q188 0 257 -169t2 -519q-77 -392 -233 -576t-373 -184q-98 0 -176 28q-23 8 -17 32l15 57q4 16 17 22t29 0z" />
<glyph unicode=":" horiz-adv-x="360" d="M19 88q12 62 35 87t64 25t55 -25t2 -87q-13 -62 -36 -87t-64 -25t-54.5 25t-1.5 87zM186 948q12 62 35 87t65 25q41 0 54.5 -25t1.5 -87q-13 -62 -36 -87t-64 -25q-42 0 -55 25t-1 87z" />
<glyph unicode=";" horiz-adv-x="360" d="M186 948q12 62 35 87t65 25q41 0 54.5 -25t1.5 -87q-13 -62 -36 -87t-64 -25q-42 0 -55 25t-1 87zM-44 -171q80 78 92 145q-26 10 -33 35.5t3 76.5q13 62 36 88t64 26q42 0 55 -27t0 -93q-19 -99 -60.5 -173t-116.5 -136q-10 -9 -19.5 -9t-13.5 8l-14 31q-6 15 7 28z" />
<glyph unicode="&#x3c;" d="M110 637v54q0 29 26 42l833 413q17 9 29 3t12 -25v-47q0 -29 -26 -42l-754 -371l754 -371q26 -13 26 -42v-47q0 -19 -12 -25t-29 3l-833 413q-26 13 -26 42z" />
<glyph unicode="=" d="M982 828h-844q-12 0 -20 8t-8 20v55q0 12 8 20.5t20 8.5h844q12 0 20 -8.5t8 -20.5v-55q0 -12 -8 -20t-20 -8zM982 388h-844q-12 0 -20 8.5t-8 20.5v55q0 12 8 20t20 8h844q12 0 20 -8t8 -20v-55q0 -12 -8 -20.5t-20 -8.5z" />
<glyph unicode="&#x3e;" d="M1010 691v-54q0 -29 -26 -42l-833 -413q-17 -9 -29 -3t-12 25v47q0 29 26 42l754 371l-754 371q-26 13 -26 42v47q0 19 12 25t29 -3l833 -413q26 -13 26 -42z" />
<glyph unicode="?" horiz-adv-x="816" d="M178 86q13 62 36 88t64 26t55 -26t1 -88q-12 -62 -35.5 -88t-64.5 -26t-54.5 26t-1.5 88zM267 1370q118 54 247 54q170 0 246.5 -89.5t46.5 -246.5q-20 -101 -82.5 -193t-179.5 -189q-69 -57 -104.5 -126.5t-57.5 -181.5l-4 -20q-2 -12 -11.5 -20t-21.5 -8h-71 q-12 0 -19 8t-5 20l5 26q27 135 77 224.5t143 165.5q94 75 140 145t62 153q20 102 -30 161t-165 59q-110 0 -211 -52q-18 -9 -29 -4t-9 21l7 59q3 23 26 34z" />
<glyph unicode="@" horiz-adv-x="1464" d="M1108 756l-124 -374q-16 -87 1 -138.5t60 -51.5q80 0 150 114.5t103 283.5q40 223 7 384.5t-143 252.5t-280 91q-246 0 -436.5 -207.5t-259.5 -562.5q-68 -349 49.5 -557.5t371.5 -208.5q201 0 357 94q34 20 39 -11l8 -47q3 -26 -22 -40q-180 -102 -402 -102 q-201 0 -335.5 108.5t-179 302.5t3.5 461q78 401 306 638.5t520 237.5q196 0 328 -100.5t179 -286t-1 -447.5q-41 -215 -147 -353.5t-238 -138.5q-67 0 -104 47t-36 129q-141 -164 -324 -164q-125 0 -179.5 93t-24.5 247q31 160 115 286t190 191t212 65q166 0 237 -138 q19 -41 -1 -98zM589 212q153 0 285 182l128 400q-41 98 -151 98q-118 0 -229.5 -125t-146.5 -309q-23 -118 7 -182t107 -64z" />
<glyph unicode="A" horiz-adv-x="956" d="M622 1260l-350 -766h404zM603 1400h94q32 0 35 -32l110 -1332q3 -36 -33 -36h-65q-33 0 -35 29l-27 355h-460l-165 -355q-14 -29 -45 -29h-65q-37 0 -21 36l628 1332q16 32 49 32z" />
<glyph unicode="B" horiz-adv-x="972" d="M406 0h-337q-12 0 -19 8t-5 21l261 1342q2 12 12.5 20.5t22.5 8.5h325q169 0 243.5 -97.5t41.5 -266.5q-21 -106 -79 -184t-141 -116q95 -39 133 -129.5t14 -214.5q-37 -192 -158.5 -292t-313.5 -100zM319 780h250q97 0 163 68.5t88 183.5q23 121 -25.5 189.5 t-160.5 68.5h-216zM747 390q30 152 -33.5 216t-217.5 64h-198l-109 -560h228q136 0 220 72.5t110 207.5z" />
<glyph unicode="C" horiz-adv-x="918" d="M742 118q17 6 27.5 0t9.5 -22l-5 -54q-3 -22 -25 -31q-93 -35 -214 -35q-132 0 -229.5 52t-150.5 146.5t-68 228t19 297.5q64 330 252.5 527t451.5 197q115 0 196 -36q19 -9 13 -32l-13 -54q-5 -16 -18 -22t-28 0q-75 32 -165 32q-204 0 -354 -164t-205 -448 q-56 -285 31 -448.5t292 -163.5q102 0 183 30z" />
<glyph unicode="D" horiz-adv-x="1026" d="M862 700q59 308 -13.5 449t-298.5 141h-132l-229 -1180h132q226 0 353 140.5t188 449.5zM341 1400h231q280 0 384.5 -170.5t35.5 -529.5q-71 -360 -241.5 -530t-450.5 -170h-231q-13 0 -19.5 8t-4.5 21l261 1342q2 13 12 21t23 8z" />
<glyph unicode="E" horiz-adv-x="872" d="M189 110h515q12 0 19 -8t4 -20l-10 -53q-2 -13 -12 -21t-22 -8h-614q-12 0 -19 8t-5 21l261 1342q2 12 12.5 20.5t22.5 8.5h600q13 0 19 -8t4 -21l-10 -53q-2 -12 -12 -20t-23 -8h-501l-100 -514h465q12 0 19 -8.5t5 -20.5l-10 -52q-3 -12 -13 -20.5t-22 -8.5h-465z" />
<glyph unicode="F" horiz-adv-x="828" d="M45 29l261 1342q2 12 12.5 20.5t22.5 8.5h600q13 0 19 -8t4 -21l-10 -53q-2 -12 -12 -20t-23 -8h-501l-98 -508h465q12 0 18.5 -8.5t4.5 -20.5l-10 -52q-2 -12 -12.5 -20.5t-22.5 -8.5h-465l-125 -643q-2 -13 -12 -21t-22 -8h-70q-12 0 -19 8t-5 21z" />
<glyph unicode="G" horiz-adv-x="1082" d="M1083 1364q17 -11 11 -34l-14 -55q-4 -16 -18 -22t-27 2q-92 57 -238 57q-204 0 -355 -163.5t-206 -448.5q-56 -285 32.5 -448.5t298.5 -163.5q124 0 195 36l99 512h-282q-12 0 -18.5 8t-3.5 20l10 53q2 13 12 21t22 8h377q13 0 19 -8t4 -21l-121 -622q-9 -48 -53 -67 q-124 -52 -286 -52q-265 0 -383 192.5t-52 531.5q65 335 257 529.5t453 194.5q166 0 267 -60z" />
<glyph unicode="H" horiz-adv-x="1080" d="M45 29l261 1342q2 13 12 21t23 8h71q12 0 18 -8t4 -21l-111 -569h544l111 569q2 13 12 21t23 8h70q12 0 18.5 -8t4.5 -21l-261 -1342q-2 -13 -12 -21t-22 -8h-70q-13 0 -19.5 8t-4.5 21l129 663h-544l-129 -663q-2 -13 -11.5 -21t-21.5 -8h-71q-13 0 -19.5 8t-4.5 21z " />
<glyph unicode="I" horiz-adv-x="428" d="M351 1400h70q12 0 18.5 -8t4.5 -21l-261 -1342q-2 -13 -12 -21t-22 -8h-70q-12 0 -19 8t-5 21l261 1342q2 12 12.5 20.5t22.5 8.5z" />
<glyph unicode="J" horiz-adv-x="680" d="M-62 6q-25 11 -16 42l13 47q5 16 16.5 22t26.5 -1q62 -28 141 -28q117 0 178.5 78.5t102.5 287.5l178 917q2 12 12.5 20.5t22.5 8.5h70q12 0 18.5 -8t4.5 -21l-179 -921q-51 -260 -146 -367t-278 -107q-100 0 -165 30z" />
<glyph unicode="K" horiz-adv-x="908" d="M664 22l-356 700l-135 -693q-2 -13 -12 -21t-22 -8h-70q-12 0 -19 8t-5 21l261 1342q2 12 12.5 20.5t22.5 8.5h70q12 0 18.5 -8t4.5 -21l-118 -607l554 614q20 22 49 22h66q21 0 24.5 -12t-11.5 -28l-557 -614l365 -706q9 -16 1 -28t-29 -12h-74q-29 0 -40 22z" />
<glyph unicode="L" horiz-adv-x="860" d="M45 29l261 1342q2 13 12 21t22 8h72q12 0 18 -8t4 -21l-245 -1261h543q12 0 19 -8t4 -20l-10 -53q-2 -13 -12 -21t-22 -8h-643q-12 0 -18.5 8t-4.5 21z" />
<glyph unicode="M" horiz-adv-x="1292" d="M676 476h-76q-36 0 -43 33l-148 753l-240 -1233q-2 -13 -12 -21t-22 -8h-66q-12 0 -19 8t-5 21l261 1342q2 12 12.5 20.5t22.5 8.5h136q29 0 35 -29l154 -751l446 751q16 29 47 29h136q12 0 18.5 -8t4.5 -21l-261 -1342q-2 -13 -12 -21t-22 -8h-66q-12 0 -19 8t-5 21 l240 1233l-442 -753q-19 -33 -55 -33z" />
<glyph unicode="N" horiz-adv-x="1086" d="M657 29l-255 1197l-233 -1197q-2 -13 -12 -21t-22 -8h-66q-13 0 -19.5 8t-4.5 21l261 1342q2 13 12 21t23 8h124q29 0 35 -29l255 -1197l233 1197q2 12 12.5 20.5t22.5 8.5h66q13 0 19 -8t4 -21l-261 -1342q-2 -13 -11.5 -21t-22.5 -8h-124q-30 0 -36 29z" />
<glyph unicode="O" d="M425 -24q-226 0 -306.5 188t-12.5 536q67 347 221.5 535.5t378.5 188.5q225 0 306 -188.5t14 -535.5q-68 -349 -221.5 -536.5t-379.5 -187.5zM447 88q330 0 449 612q118 612 -211 612q-331 0 -449 -612q-119 -612 211 -612z" />
<glyph unicode="P" horiz-adv-x="906" d="M273 544l-100 -515q-2 -13 -11.5 -21t-21.5 -8h-72q-12 0 -18.5 8t-4.5 21l261 1342q2 13 12 21t22 8h270q189 0 274 -110t44 -318q-40 -208 -168 -318t-317 -110h-170zM798 972q62 318 -214 318h-166l-123 -636h166q276 0 337 318z" />
<glyph unicode="Q" d="M447 88q330 0 449 612q118 612 -211 612q-331 0 -449 -612q-119 -612 211 -612zM760 -289q-60 -17 -130 -17q-127 0 -195 71t-56 213q-200 19 -268.5 205.5t-4.5 516.5q67 347 221.5 535.5t378.5 188.5q225 0 306 -188.5t14 -535.5q-62 -319 -197 -504.5t-331 -213.5 q-13 -90 29 -139t126 -49q54 0 109 15q35 10 32 -22l-3 -43q-3 -25 -31 -33z" />
<glyph unicode="R" horiz-adv-x="938" d="M832 1000q27 140 -27 215t-185 75h-202l-112 -580h202q131 0 214 75t110 215zM684 28l-158 572h-242l-111 -571q-2 -13 -11.5 -21t-22.5 -8h-70q-12 0 -19 8t-5 21l261 1342q2 12 12.5 20.5t22.5 8.5h305q184 0 268.5 -106t47.5 -294q-27 -142 -108 -239.5t-201 -136.5 l163 -583q6 -18 -3 -29.5t-30 -11.5h-60q-33 0 -39 28z" />
<glyph unicode="S" horiz-adv-x="824" d="M14 25q-21 10 -15 33l16 63q4 17 17 23t29 -3q93 -53 218 -53q126 0 207.5 70.5t105.5 195.5q22 115 -21 189.5t-161 128.5q-145 66 -197 163.5t-24 240.5q31 160 149 254t290 94q117 0 209 -39q21 -10 15 -33l-14 -58q-4 -17 -17 -22.5t-29 2.5q-72 38 -175 38 q-119 0 -198 -62.5t-100 -171.5q-21 -108 22.5 -178t160.5 -126q145 -71 197.5 -169.5t23.5 -246.5q-35 -181 -157.5 -281.5t-310.5 -100.5q-137 0 -241 49z" />
<glyph unicode="T" horiz-adv-x="808" d="M245 29l245 1261h-301q-12 0 -18.5 8t-4.5 20l10 53q2 12 12.5 20.5t22.5 8.5h730q12 0 18.5 -8t4.5 -21l-10 -53q-2 -12 -12.5 -20t-22.5 -8h-301l-245 -1261q-2 -13 -12 -21t-22 -8h-70q-12 0 -19 8t-5 21z" />
<glyph unicode="U" horiz-adv-x="1100" d="M445 -24q-410 0 -312 506l173 889q2 13 12 21t23 8h70q12 0 18.5 -8t4.5 -21l-173 -889q-40 -208 12 -301t194 -93t230 93t128 301l173 889q2 12 12.5 20.5t22.5 8.5h70q13 0 19 -8t4 -21l-173 -889q-98 -506 -508 -506z" />
<glyph unicode="V" horiz-adv-x="998" d="M339 1371l87 -1231l565 1231q14 29 46 29h65q36 0 20 -36l-628 -1332q-16 -32 -48 -32h-94q-33 0 -36 32l-110 1332q-3 36 34 36h65q32 0 34 -29z" />
<glyph unicode="W" horiz-adv-x="1460" d="M848 1400h108q27 0 27 -28l-21 -1238l496 1238q10 28 39 28h69q16 0 22 -10t0 -25l-549 -1336q-12 -29 -39 -29h-131q-29 0 -29 29l21 1163l-431 -1163q-11 -29 -39 -29h-131q-28 0 -29 29l-29 1336q0 15 10 25t26 10h69q27 0 27 -28l16 -1238l459 1238q10 28 39 28z" />
<glyph unicode="X" horiz-adv-x="968" d="M700 22l-203 560l-421 -560q-17 -22 -44 -22h-63q-22 0 -26.5 12t9.5 31l499 665l-234 649q-7 19 2.5 31t31.5 12h63q27 0 35 -22l197 -544l407 544q17 22 45 22h63q22 0 26 -12t-10 -31l-486 -649l241 -665q7 -19 -2 -31t-31 -12h-63q-28 0 -36 22z" />
<glyph unicode="Y" horiz-adv-x="972" d="M421 0h-70q-12 0 -19 8t-5 21l103 527l-217 801q-5 20 4 31.5t30 11.5h59q29 0 36 -25l178 -685l444 685q16 25 46 25h59q44 0 16 -43l-527 -801l-103 -527q-2 -13 -12 -21t-22 -8z" />
<glyph unicode="Z" horiz-adv-x="840" d="M908 1264l-793 -1154h568q12 0 18.5 -8t3.5 -20l-10 -53q-2 -13 -11.5 -21t-21.5 -8h-683q-13 0 -19.5 8t-4.5 21l11 58q5 26 21 49l793 1154h-529q-12 0 -18.5 8t-4.5 20l10 53q2 12 12.5 20.5t22.5 8.5h644q13 0 19 -8t4 -21l-11 -58q-5 -26 -21 -49z" />
<glyph unicode="[" horiz-adv-x="668" d="M202 -150h257q12 0 19 -8.5t5 -20.5l-11 -53q-2 -12 -12 -20t-22 -8h-351q-12 0 -18.5 8t-4.5 20l332 1704q2 12 11.5 20t21.5 8h351q12 0 19 -8t5 -20l-11 -53q-2 -12 -12 -20.5t-22 -8.5h-257z" />
<glyph unicode="\" horiz-adv-x="708" d="M298 1477l281 -1664q5 -33 -26 -33h-73q-20 0 -23 19l-281 1664q-5 33 26 33h73q20 0 23 -19z" />
<glyph unicode="]" horiz-adv-x="668" d="M-51 -150h257l300 1540h-257q-12 0 -19 8.5t-5 20.5l11 53q2 12 12 20t22 8h351q12 0 18.5 -8t4.5 -20l-332 -1704q-2 -12 -11.5 -20t-21.5 -8h-351q-12 0 -19 8t-5 20l11 53q2 12 12 20.5t22 8.5z" />
<glyph unicode="^" d="M509 1400h102q26 0 38 -19l348 -600q11 -18 4.5 -30.5t-26.5 -12.5h-65q-26 0 -40 24l-310 530l-310 -530q-14 -24 -40 -24h-65q-20 0 -26.5 12.5t4.5 30.5l348 600q12 19 38 19z" />
<glyph unicode="_" horiz-adv-x="770" d="M-157 -294l9 44q2 12 12 20t22 8h711q13 0 19.5 -8t4.5 -20l-9 -44q-2 -12 -11.5 -20t-22.5 -8h-711q-12 0 -19 8t-5 20z" />
<glyph unicode="`" horiz-adv-x="640" d="M458 1436l112 -262q7 -17 -1 -27.5t-26 -10.5h-46q-27 0 -37 19l-139 257q-11 20 -9 32q3 16 25 16h80q30 0 41 -24z" />
<glyph unicode="a" horiz-adv-x="852" d="M576 426l-44 636l-292 -636h336zM583 318h-392l-131 -289q-14 -29 -45 -29h-58q-37 0 -21 36l526 1122q14 32 48 32h94q31 0 36 -32l88 -1122q3 -36 -33 -36h-58q-33 0 -35 29z" />
<glyph unicode="b" horiz-adv-x="824" d="M446 670q186 0 225 204q20 98 -19 153t-130 55h-168l-80 -412h172zM609 336q23 118 -27 172t-171 54h-158l-89 -454h178q110 0 177.5 58.5t89.5 169.5zM280 1190h275q145 0 208 -83t35 -229q-18 -92 -61 -152t-116 -100q75 -36 104.5 -112t9.5 -176q-32 -166 -134 -252 t-265 -86h-287q-12 0 -19 8t-5 21l220 1132q2 12 12.5 20.5t22.5 8.5z" />
<glyph unicode="c" horiz-adv-x="798" d="M631 3q-78 -27 -178 -27q-228 0 -325.5 167.5t-42.5 450.5q55 285 215 452.5t385 167.5q104 0 168 -29q19 -9 13 -32l-13 -51q-4 -16 -17 -22.5t-28 -0.5q-59 25 -136 25q-170 0 -292.5 -135t-168.5 -375q-47 -240 24.5 -374t240.5 -134q84 0 152 23q17 6 27 -0.5 t8 -22.5l-7 -52q-3 -24 -25 -31z" />
<glyph unicode="d" horiz-adv-x="892" d="M254 0h-205q-13 0 -19.5 8t-4.5 21l220 1132q2 13 12 21t23 8h205q235 0 325 -146t31 -450t-205.5 -449t-381.5 -145zM715 594q50 255 -9 371.5t-244 116.5h-108l-190 -974h108q185 0 289 115.5t154 370.5z" />
<glyph unicode="e" horiz-adv-x="758" d="M25 29l220 1132q2 12 12.5 20.5t22.5 8.5h507q12 0 18 -8t4 -21l-10 -50q-2 -12 -11.5 -20.5t-21.5 -8.5h-412l-81 -416h381q12 0 19 -8t5 -20l-11 -52q-2 -12 -12 -20t-22 -8h-381l-88 -450h424q12 0 18.5 -8.5t4.5 -20.5l-10 -50q-2 -13 -11.5 -21t-21.5 -8h-519 q-12 0 -19 8t-5 21z" />
<glyph unicode="f" horiz-adv-x="736" d="M25 29l220 1132q2 12 12.5 20.5t22.5 8.5h506q13 0 19 -8t4 -21l-10 -50q-2 -12 -11.5 -20.5t-22.5 -8.5h-411l-80 -412h382q12 0 18 -8t4 -20l-10 -52q-2 -12 -11.5 -20t-21.5 -8h-382l-104 -533q-2 -13 -11.5 -21t-21.5 -8h-67q-12 0 -19 8t-5 21z" />
<glyph unicode="g" horiz-adv-x="928" d="M686 15q-102 -39 -235 -39q-224 0 -325 164.5t-45 453.5q55 286 219.5 453t388.5 167q141 0 224 -50q18 -11 13 -32l-14 -52q-4 -16 -17 -22t-27 2q-82 44 -198 44q-169 0 -293 -136.5t-170 -373.5q-46 -236 25.5 -372t243.5 -136q97 0 148 22l83 426h-224q-12 0 -18 8 t-4 21l10 50q2 12 11.5 20.5t21.5 8.5h319q12 0 19 -8.5t5 -20.5l-104 -533q-9 -47 -57 -65z" />
<glyph unicode="h" horiz-adv-x="932" d="M25 29l220 1132q2 13 12 21t22 8h67q12 0 18.5 -8t4.5 -21l-92 -473h444l92 473q2 12 12.5 20.5t22.5 8.5h67q12 0 18 -8t4 -21l-220 -1132q-2 -13 -11.5 -21t-21.5 -8h-67q-12 0 -19 8t-5 21l107 551h-444l-107 -551q-2 -13 -12 -21t-22 -8h-67q-12 0 -18.5 8t-4.5 21z " />
<glyph unicode="i" horiz-adv-x="384" d="M290 1190h67q12 0 18 -8t4 -21l-220 -1132q-2 -13 -11.5 -21t-21.5 -8h-67q-12 0 -19 8t-5 21l220 1132q2 12 12.5 20.5t22.5 8.5z" />
<glyph unicode="j" horiz-adv-x="592" d="M-63 0q-25 10 -16 42l12 44q5 16 16.5 22t26.5 -1q49 -21 116 -21q96 0 146.5 64t83.5 234l151 777q2 13 12 21t22 8h68q12 0 18 -8t4 -21l-151 -779q-44 -223 -126.5 -314.5t-242.5 -91.5q-82 0 -140 24z" />
<glyph unicode="k" horiz-adv-x="794" d="M547 22l-285 590l-113 -583q-2 -13 -11.5 -21t-21.5 -8h-67q-12 0 -19 8t-5 21l220 1132q2 12 12.5 20.5t22.5 8.5h67q12 0 18 -8t4 -21l-99 -511l450 518q19 22 48 22h59q20 0 23.5 -12t-10.5 -28l-448 -518l288 -592q8 -16 0 -28t-28 -12h-65q-29 0 -40 22z" />
<glyph unicode="l" horiz-adv-x="740" d="M25 29l220 1132q2 13 12 21t22 8h67q12 0 18.5 -8t4.5 -21l-205 -1053h447q12 0 19 -8.5t5 -20.5l-10 -50q-2 -13 -12 -21t-22 -8h-543q-12 0 -18.5 8t-4.5 21z" />
<glyph unicode="m" horiz-adv-x="1108" d="M567 406h-70q-36 0 -42 33l-111 611l-199 -1021q-2 -13 -11.5 -21t-21.5 -8h-63q-12 0 -19 8t-5 21l220 1132q2 12 12.5 20.5t22.5 8.5h129q30 0 35 -29l114 -621l356 621q18 29 47 29h129q12 0 18.5 -8t4.5 -21l-220 -1132q-2 -13 -12 -21t-22 -8h-63q-12 0 -18.5 8 t-4.5 21l199 1021l-349 -611q-18 -33 -56 -33z" />
<glyph unicode="n" horiz-adv-x="938" d="M533 29l-193 1001l-195 -1001q-2 -13 -11.5 -21t-21.5 -8h-63q-13 0 -19.5 8t-4.5 21l220 1132q2 13 12 21t23 8h120q30 0 35 -29l194 -1001l194 1001q2 13 12 21t22 8h63q13 0 19 -8t4 -21l-220 -1132q-2 -13 -11.5 -21t-22.5 -8h-120q-30 0 -36 29z" />
<glyph unicode="o" horiz-adv-x="924" d="M873 594q-57 -295 -190.5 -456.5t-325.5 -161.5t-262.5 161.5t-13.5 456.5q57 296 190.5 458t325.5 162t262.5 -162t13.5 -458zM207 594q-98 -508 171 -508q271 0 369 508q100 510 -171 510q-269 0 -369 -510z" />
<glyph unicode="p" horiz-adv-x="782" d="M232 454l-83 -425q-2 -13 -12 -21t-22 -8h-67q-12 0 -18.5 8t-4.5 21l220 1132q2 13 12 21t22 8h236q160 0 233.5 -95t38.5 -273t-145 -273t-270 -95h-140zM661 822q51 260 -173 260h-134l-101 -520h134q223 0 274 260z" />
<glyph unicode="q" horiz-adv-x="924" d="M207 594q-98 -508 171 -508q271 0 369 508q100 510 -171 510q-269 0 -369 -510zM640 -250q-51 -14 -108 -14q-112 0 -170 60.5t-50 183.5q-167 18 -226 177.5t-5 436.5q57 296 190.5 458t325.5 162t262.5 -162t13.5 -458q-52 -267 -167 -426t-280 -186q-10 -72 24.5 -110 t104.5 -38q41 0 87 13q34 10 31 -22l-2 -41q-3 -27 -31 -34z" />
<glyph unicode="r" horiz-adv-x="822" d="M684 846q22 115 -20 175.5t-146 60.5h-164l-92 -474h164q104 0 169.5 61t88.5 177zM562 28l-131 472h-190l-92 -471q-2 -13 -11.5 -21t-21.5 -8h-68q-12 0 -18.5 8t-4.5 21l220 1132q2 13 12 21t22 8h264q154 0 226 -91t41 -253q-24 -124 -91.5 -207.5t-167.5 -116.5 l136 -481q6 -18 -3 -29.5t-30 -11.5h-53q-33 0 -39 28z" />
<glyph unicode="s" horiz-adv-x="710" d="M5 15q-18 9 -12 33l17 61q5 16 17.5 21.5t26.5 -2.5q75 -42 178 -42q102 0 168 57t86 159q18 94 -15.5 153.5t-130.5 104.5q-122 56 -167 142t-21 208q27 139 129 221.5t250 82.5q108 0 179 -33q19 -9 13 -33l-14 -54q-4 -16 -17 -21.5t-28 2.5q-55 29 -142 29 q-98 0 -162 -51.5t-81 -138.5t20.5 -145.5t132.5 -106.5q227 -116 181 -356q-31 -158 -137 -244t-269 -86q-118 0 -202 39z" />
<glyph unicode="t" horiz-adv-x="712" d="M199 29l205 1053h-245q-12 0 -19 8.5t-5 20.5l10 50q2 12 12.5 20.5t22.5 8.5h615q12 0 18 -8t4 -21l-10 -50q-2 -12 -11.5 -20.5t-21.5 -8.5h-246l-205 -1053q-2 -13 -11.5 -21t-21.5 -8h-67q-12 0 -19 8t-5 21z" />
<glyph unicode="u" horiz-adv-x="950" d="M955 1161l-146 -753q-84 -432 -438 -432q-356 0 -272 432l146 753q2 12 12.5 20.5t22.5 8.5h66q13 0 19 -8t4 -21l-147 -755q-32 -168 10 -244t160 -76q116 0 188 76t104 244l147 755q2 12 12.5 20.5t22.5 8.5h66q13 0 19 -8t4 -21z" />
<glyph unicode="v" horiz-adv-x="860" d="M354 128l472 1033q14 29 46 29h58q36 0 20 -36l-523 -1122q-14 -32 -48 -32h-98q-34 0 -36 32l-87 1122q-3 36 34 36h58q32 0 34 -29z" />
<glyph unicode="w" horiz-adv-x="1252" d="M707 1190h100q27 0 27 -28l-20 -1034l405 1034q11 28 39 28h65q16 0 22 -10t0 -25l-454 -1126q-11 -29 -39 -29h-125q-29 0 -29 29l20 963l-354 -963q-11 -29 -39 -29h-125q-29 0 -29 29l-16 1126q0 15 10 25t26 10h65q27 0 27 -28l3 -1034l382 1034q10 28 39 28z" />
<glyph unicode="x" horiz-adv-x="830" d="M576 22l-167 462l-347 -462q-17 -22 -44 -22h-55q-22 0 -26.5 12t9.5 31l419 561l-195 543q-7 19 2.5 31t31.5 12h55q27 0 36 -22l160 -446l334 446q16 22 44 22h55q22 0 26 -12t-10 -31l-405 -543l201 -561q7 -19 -2 -31t-31 -12h-55q-28 0 -36 22z" />
<glyph unicode="y" horiz-adv-x="840" d="M437 604l364 561q16 25 46 25h55q22 0 26 -12t-10 -31l-445 -677l-86 -441q-2 -13 -12 -21t-22 -8h-67q-12 0 -18.5 8t-4.5 21l86 441l-183 677q-10 43 34 43h55q29 0 36 -25z" />
<glyph unicode="z" horiz-adv-x="736" d="M106 108h473q13 0 19.5 -8.5t4.5 -20.5l-10 -50q-2 -13 -11.5 -21t-22.5 -8h-582q-12 0 -19 8t-5 21l10 52q5 26 21 49l662 952h-441q-13 0 -19.5 8.5t-4.5 20.5l10 50q2 13 12 21t23 8h550q12 0 18.5 -8t4.5 -21l-10 -52q-5 -28 -20 -49z" />
<glyph unicode="{" horiz-adv-x="686" d="M155 592l10 56q6 23 29 31q55 16 89.5 55.5t49.5 117.5l85 436q20 106 81.5 159t151.5 53h147q12 0 19 -8t5 -20l-11 -53q-2 -12 -12 -20.5t-22 -8.5h-141q-74 0 -91 -88l-93 -474q-32 -169 -176 -208q128 -39 96 -208l-93 -474q-17 -88 57 -88h141q12 0 19 -8.5t5 -20.5 l-11 -53q-2 -12 -12 -20t-22 -8h-147q-90 0 -130.5 53t-20.5 159l85 436q15 78 -4 117.5t-67 55.5q-23 8 -17 31z" />
<glyph unicode="|" horiz-adv-x="484" d="M220 -371v1880q0 13 8 21t20 8h48q12 0 20 -8t8 -21v-1880q0 -12 -8 -20.5t-20 -8.5h-48q-12 0 -20 8.5t-8 20.5z" />
<glyph unicode="}" horiz-adv-x="686" d="M571 648l-10 -56q-6 -24 -29 -31q-55 -16 -89.5 -55.5t-49.5 -117.5l-85 -436q-20 -106 -81.5 -159t-151.5 -53h-147q-12 0 -19 8t-5 20l11 53q2 12 12 20.5t22 8.5h141q74 0 91 88l93 474q32 169 176 208q-128 39 -96 208l93 474q17 88 -57 88h-141q-12 0 -19 8.5 t-5 20.5l11 53q2 12 12 20t22 8h147q90 0 130.5 -53t20.5 -159l-85 -436q-15 -78 4 -117.5t67 -55.5q23 -8 17 -31z" />
<glyph unicode="~" d="M356 824q124 0 232 -102q56 -53 95.5 -75.5t78.5 -22.5q108 0 113 165q2 31 29 31h71q12 0 20.5 -9t7.5 -21q-11 -284 -239 -284q-124 0 -232 102q-56 53 -95.5 75.5t-78.5 22.5q-108 0 -113 -165q-2 -31 -29 -31h-71q-12 0 -20.5 9t-7.5 21q11 284 239 284z" />
<glyph unicode="&#xa1;" horiz-adv-x="456" d="M259 1076q12 62 35.5 88t64.5 26t54.5 -26t1.5 -88q-13 -62 -36.5 -88t-64.5 -26t-54.5 26t-0.5 88zM226 168l-73 -378q-2 -12 -12.5 -20t-22.5 -8h-74q-12 0 -18.5 8t-4.5 20l73 378l139 617q2 11 12 19t21 8h38q11 0 18 -8t5 -19z" />
<glyph unicode="&#xa2;" horiz-adv-x="798" d="M312 -171l31 159q-170 39 -237.5 199.5t-20.5 406.5q48 249 178.5 410.5t315.5 198.5l31 158q2 12 12 20.5t23 8.5h41q12 0 18 -8.5t4 -20.5l-29 -147h6q104 0 168 -29q19 -9 13 -32l-13 -51q-4 -16 -17 -22.5t-28 -0.5q-59 25 -136 25h-14l-198 -1018h16q84 0 152 23 q17 6 27 -0.5t8 -22.5l-7 -52q-3 -24 -25 -31q-78 -27 -178 -27q-3 0 -7.5 0.5t-6.5 0.5l-29 -148q-2 -12 -11.5 -20.5t-21.5 -8.5h-41q-13 0 -19.5 8.5t-4.5 20.5zM211 594q-38 -196 3 -322.5t152 -167.5l191 982q-127 -41 -217.5 -168.5t-128.5 -323.5z" />
<glyph unicode="&#xa3;" horiz-adv-x="876" d="M915 1378q21 -10 15 -33l-14 -52q-5 -17 -19 -23t-27 2q-77 40 -185 40q-112 0 -182.5 -68t-99.5 -218l-51 -260h312q12 0 18.5 -8.5t4.5 -20.5l-6 -28q-2 -12 -11.5 -20.5t-21.5 -8.5h-312l-37 -188q-47 -247 -182 -382h612q12 0 18.5 -8t3.5 -21l-10 -53 q-2 -12 -11.5 -20t-21.5 -8h-720q-12 0 -18.5 8t-4.5 20l12 62q4 23 28 47q122 123 164 345l39 198h-88q-12 0 -18.5 8.5t-4.5 20.5l6 28q2 12 11.5 20.5t21.5 8.5h88l51 260q39 198 145 298t272 100q134 0 223 -46z" />
<glyph unicode="&#xa4;" horiz-adv-x="1344" d="M435 331l-153 -156q-9 -9 -20.5 -9t-19.5 9l-53 55q-19 20 0 39l155 155q-84 114 -84 256t84 256l-155 155q-19 19 0 39l53 55q8 9 19.5 9t20.5 -9l153 -156q119 89 267 89t266 -89l154 156q9 9 20.5 9t19.5 -9l53 -55q19 -20 0 -39l-155 -155q84 -116 84 -256t-84 -256 l155 -155q19 -19 0 -39l-53 -55q-8 -9 -19.5 -9t-20.5 9l-154 156q-118 -89 -266 -89t-267 89zM386 680q0 -137 90.5 -228.5t225.5 -91.5t225.5 91.5t90.5 228.5t-90.5 228.5t-225.5 91.5t-225.5 -91.5t-90.5 -228.5z" />
<glyph unicode="&#xa5;" horiz-adv-x="880" d="M375 0h-70q-12 0 -19 8t-5 20l60 310h-276q-12 0 -18 8t-4 20l5 30q7 28 34 28h276l28 146h-276q-12 0 -18 8t-4 20l6 30q2 12 11.5 20t21.5 8h240l-162 704q-4 16 5.5 28t28.5 12h63q14 0 20.5 -6.5t8.5 -20.5l145 -669l405 669q17 27 41 27h63q19 0 23.5 -12.5 t-5.5 -27.5l-436 -704h240q12 0 18.5 -8t4.5 -20l-6 -30q-2 -12 -12 -20t-22 -8h-276l-28 -146h276q12 0 18.5 -8t3.5 -20l-5 -30q-2 -12 -12 -20t-22 -8h-276l-60 -310q-2 -12 -12 -20t-22 -8z" />
<glyph unicode="&#xa6;" horiz-adv-x="484" d="M248 444h48q12 0 20 -8t8 -20v-588q0 -12 -8 -20t-20 -8h-48q-12 0 -20 8t-8 20v588q0 12 8 20t20 8zM248 1376h48q12 0 20 -8t8 -20v-588q0 -12 -8 -20t-20 -8h-48q-12 0 -20 8t-8 20v588q0 12 8 20t20 8z" />
<glyph unicode="&#xa7;" horiz-adv-x="806" d="M13 -147q-21 11 -14 34l13 50q5 16 19 21t26 -3q79 -51 182 -51q97 0 158.5 48t78.5 132q15 77 -21 130t-125 96q-225 110 -185 316q19 98 87.5 161.5t167.5 80.5q-96 68 -133.5 128t-19.5 154q26 132 122 203t237 71q104 0 184 -32q21 -8 16 -30l-12 -44 q-4 -15 -18.5 -22.5t-27.5 -1.5q-62 28 -150 28q-91 0 -150 -45t-74 -121q-13 -70 23.5 -122t130.5 -96q116 -56 157.5 -133t20.5 -185q-18 -94 -77.5 -158.5t-147.5 -93.5q158 -97 122 -278q-27 -139 -125.5 -213.5t-248.5 -74.5q-125 0 -216 51zM583 614q22 117 -66 186 q-106 0 -170 -46t-79 -126q-26 -129 112 -202q82 10 135 60t68 128z" />
<glyph unicode="&#xa8;" horiz-adv-x="640" d="M242 1298q11 59 31.5 82.5t58.5 23.5t49.5 -23.5t0.5 -82.5q-12 -59 -32.5 -82.5t-58.5 -23.5t-49 23t0 83zM562 1298q11 59 31.5 82.5t58.5 23.5t49.5 -23.5t0.5 -82.5q-12 -59 -32.5 -82.5t-58.5 -23.5t-49 23t0 83z" />
<glyph unicode="&#xa9;" horiz-adv-x="1216" d="M672 262q-153 0 -248.5 111.5t-95.5 322.5q0 210 96 322t248 112q93 0 167 -34q22 -10 21 -32l-3 -46q-1 -15 -10 -20t-24 3q-60 33 -145 33q-116 0 -178 -90t-62 -248q0 -159 62 -248.5t178 -89.5q85 0 145 33q15 8 24 3t10 -20l3 -46q1 -22 -21 -32q-74 -34 -167 -34z M638 1424q164 0 286.5 -91t187 -255t64.5 -378t-64.5 -378t-187 -255t-286.5 -91t-286.5 91t-187 255t-64.5 378t64.5 378t187 255t286.5 91zM638 48q212 0 337 179t125 473t-125 473t-337 179t-337 -179t-125 -473t125 -473t337 -179z" />
<glyph unicode="&#xaa;" horiz-adv-x="656" d="M503 932l-19 388l-169 -388h188zM444 1400h112q21 0 23 -19l48 -693q2 -16 -7 -26t-25 -10h-57q-23 0 -23 23l-8 165h-232l-72 -165q-10 -23 -33 -23h-57q-16 0 -20.5 10.5t2.5 25.5l318 693q8 19 31 19z" />
<glyph unicode="&#xab;" horiz-adv-x="906" d="M136 600l9 48q5 17 17 27l388 325q18 15 31.5 10t9.5 -26l-11 -57q-6 -25 -25 -40l-320 -263l218 -263q13 -16 9 -40l-11 -57q-4 -21 -19.5 -26t-27.5 10l-262 325q-9 11 -6 27zM442 600l9 48q5 17 17 27l388 325q18 15 31.5 10t9.5 -26l-11 -57q-6 -25 -25 -40 l-320 -263l218 -263q13 -16 9 -40l-11 -57q-4 -21 -19.5 -26t-27.5 10l-262 325q-9 11 -6 27z" />
<glyph unicode="&#xac;" d="M100 799v55q0 12 8.5 20t20.5 8h843q12 0 20 -8t8 -20v-503q0 -12 -8 -20.5t-20 -8.5h-71q-12 0 -20.5 8.5t-8.5 20.5v419h-743q-12 0 -20.5 8.5t-8.5 20.5z" />
<glyph unicode="&#xad;" horiz-adv-x="712" d="M601 604h-456q-12 0 -18.5 8t-4.5 20l13 64q2 12 11.5 20t21.5 8h456q12 0 18.5 -8t4.5 -20l-13 -64q-2 -12 -11.5 -20t-21.5 -8z" />
<glyph unicode="&#xae;" horiz-adv-x="1216" d="M807 303l-141 319q-16 -2 -46 -2h-102v-310q0 -12 -8 -20t-20 -8h-52q-12 0 -20 8t-8 20v778q0 12 8 20t20 8h196q121 0 191.5 -65.5t70.5 -182.5q0 -80 -35 -137.5t-97 -84.5l153 -331q7 -16 0 -24.5t-25 -8.5h-50q-25 0 -35 21zM788 868q0 154 -154 154h-116v-308h116 q154 0 154 154zM638 1424q164 0 286.5 -91t187 -255t64.5 -378t-64.5 -378t-187 -255t-286.5 -91t-286.5 91t-187 255t-64.5 378t64.5 378t187 255t286.5 91zM638 48q212 0 337 179t125 473t-125 473t-337 179t-337 -179t-125 -473t125 -473t337 -179z" />
<glyph unicode="&#xaf;" horiz-adv-x="640" d="M234 1266l9 48q2 12 12 20t22 8h406q12 0 19 -8t5 -20l-9 -48q-3 -12 -13 -20t-22 -8h-406q-12 0 -19 8t-4 20z" />
<glyph unicode="&#xb0;" horiz-adv-x="640" d="M692 1174q-19 -100 -104.5 -170t-186.5 -70t-158.5 70t-38.5 170t104 170t186 70t159 -70t39 -170zM590 1174q12 61 -21 103.5t-93 42.5t-109 -42t-61 -104t20.5 -104t92.5 -42t109.5 42.5t61.5 103.5z" />
<glyph unicode="&#xb1;" d="M982 94h-844q-12 0 -20 8t-8 20v56q0 12 8 20t20 8h844q12 0 20 -8t8 -20v-56q0 -12 -8 -20t-20 -8zM496 340v394h-358q-12 0 -20 8.5t-8 20.5v53q0 12 8 20t20 8h358v393q0 12 8 20.5t20 8.5h72q12 0 20 -8.5t8 -20.5v-393h358q12 0 20 -8t8 -20v-53q0 -12 -8 -20.5 t-20 -8.5h-358v-394q0 -12 -8 -20t-20 -8h-72q-12 0 -20 8t-8 20z" />
<glyph unicode="&#xb2;" horiz-adv-x="630" d="M291 1381q78 35 166 35q245 0 196 -258q-29 -147 -166 -318q-141 -173 -255 -274h284q12 0 18 -8t4 -20l-7 -38q-2 -12 -12 -20t-22 -8h-393q-12 0 -18.5 8t-4.5 20l7 38q5 26 34 54q154 144 284 308q109 136 132 254q32 166 -106 166q-69 0 -140 -34q-16 -8 -25.5 -3 t-7.5 20l5 43q4 25 27 35z" />
<glyph unicode="&#xb3;" horiz-adv-x="630" d="M143 578q51 -26 120 -26q83 0 134 44t65 118q17 85 -25.5 136.5t-155.5 56.5q-11 1 -17.5 9.5t-4.5 19.5l8 39q2 11 11 19t20 9q107 6 169 54.5t74 114.5q14 68 -18 108t-99 40q-65 0 -133 -26q-16 -6 -24 -0.5t-6 19.5l6 42q2 20 25 29q77 32 161 32q118 0 172 -62.5 t31 -175.5q-14 -76 -67 -133.5t-133 -86.5q154 -67 121 -240q-24 -121 -109 -191.5t-214 -70.5q-86 0 -148 27q-19 9 -12 33l11 43q4 14 14 19.5t24 -0.5z" />
<glyph unicode="&#xb4;" horiz-adv-x="640" d="M304 1174l214 262q19 24 49 24h80q10 0 15.5 -4t3.5 -12q-2 -13 -21 -32l-239 -257q-18 -19 -45 -19h-46q-18 0 -22 10.5t11 27.5z" />
<glyph unicode="&#xb5;" horiz-adv-x="1108" d="M567 406h-70q-36 0 -42 33l-111 611l-199 -1021q-2 -13 -11.5 -21t-21.5 -8h-63q-12 0 -19 8t-5 21l220 1132q2 12 12.5 20.5t22.5 8.5h129q30 0 35 -29l114 -621l356 621q18 29 47 29h129q12 0 18.5 -8t4.5 -21l-220 -1132q-2 -13 -12 -21t-22 -8h-63q-12 0 -18.5 8 t-4.5 21l199 1021l-349 -611q-18 -33 -56 -33z" />
<glyph unicode="&#xb6;" horiz-adv-x="904" d="M456 1400h309q12 0 20.5 -8t8.5 -20v-1605q0 -12 -8.5 -20.5t-20.5 -8.5h-55q-12 0 -20 8.5t-8 20.5v1519h-72v-1519q0 -12 -8 -20.5t-20 -8.5h-56q-12 0 -20 8.5t-8 20.5v845h-42q-172 0 -279 101t-107 293t107 293t279 101z" />
<glyph unicode="&#xb7;" horiz-adv-x="360" d="M130 660q12 62 35 87t65 25q41 0 54.5 -25t1.5 -87q-13 -62 -36 -87t-64 -25q-42 0 -55 25t-1 87z" />
<glyph unicode="&#xb8;" horiz-adv-x="640" d="M104 -179q-33 7 -15 39l83 140h114l-77 -126q56 -20 82.5 -66.5t13.5 -109.5q-15 -78 -77.5 -126t-152.5 -48q-35 0 -69 9q-23 7 -17 30l5 29q7 35 40 27q25 -5 44 -5q43 0 76.5 23.5t41.5 64.5q18 96 -92 119z" />
<glyph unicode="&#xb9;" horiz-adv-x="630" d="M424 1246l-122 -87q-12 -8 -24.5 -7t-17.5 12l-20 40q-10 20 13 37l197 145q20 16 44 16h43q29 0 23 -29l-169 -873q-2 -12 -12.5 -20t-22.5 -8h-55q-12 0 -18 8t-4 20z" />
<glyph unicode="&#xba;" horiz-adv-x="660" d="M505 1416q123 0 180 -104.5t22 -285.5t-133 -285.5t-221 -104.5t-180 104.5t-22 285.5t133 285.5t221 104.5zM372 734q72 0 132 75t87 217t-3 217t-102 75t-132 -75t-87 -217t3 -217t102 -75z" />
<glyph unicode="&#xbb;" horiz-adv-x="906" d="M811 648l-9 -48q-3 -15 -16 -27l-388 -325q-18 -15 -31.5 -10t-9.5 26l11 57q4 24 25 40l320 263l-218 263q-15 16 -9 40l11 57q4 21 19.5 26t27.5 -10l262 -325q9 -13 5 -27zM505 648l-9 -48q-3 -15 -16 -27l-388 -325q-18 -15 -31.5 -10t-9.5 26l11 57q4 24 25 40 l320 263l-218 263q-15 16 -9 40l11 57q4 21 19.5 26t27.5 -10l262 -325q9 -13 5 -27z" />
<glyph unicode="&#xbc;" horiz-adv-x="1470" d="M424 1246l-122 -87q-12 -8 -24.5 -7t-17.5 12l-20 40q-10 20 13 37l197 145q20 16 44 16h43q29 0 23 -29l-169 -873q-2 -12 -12.5 -20t-22.5 -8h-55q-12 0 -18 8t-4 20zM1163 204h-303q-12 0 -19 8t-4 20l8 42q4 23 25 52l419 576q18 26 45 26h53q12 0 19 -8t4 -20 l-117 -602h54q12 0 18.5 -8t4.5 -20l-7 -38q-7 -28 -34 -28h-54l-34 -176q-2 -12 -12 -20t-22 -8h-55q-12 0 -18.5 8t-4.5 20zM1265 726l-312 -428h228zM315 2l835 1405q14 23 40 23h38q32 0 14 -32l-835 -1405q-14 -23 -40 -23h-38q-32 0 -14 32z" />
<glyph unicode="&#xbd;" horiz-adv-x="1470" d="M253 2l835 1405q14 23 40 23h38q32 0 14 -32l-835 -1405q-14 -23 -40 -23h-38q-32 0 -14 32zM424 1246l-122 -87q-12 -8 -24.5 -7t-17.5 12l-20 40q-10 20 13 37l197 145q20 16 44 16h43q29 0 23 -29l-169 -873q-2 -12 -12.5 -20t-22.5 -8h-55q-12 0 -18 8t-4 20z M1055 909q78 35 166 35q122 0 171.5 -65.5t24.5 -192.5q-29 -147 -166 -318q-135 -168 -255 -274h284q12 0 18 -8t4 -20l-7 -38q-2 -12 -11.5 -20t-21.5 -8h-393q-12 0 -19 8t-5 20l7 38q5 26 34 54q152 142 285 308q109 137 131 254q32 166 -106 166q-69 0 -139 -34 q-16 -8 -26 -3t-8 20l5 43q4 24 27 35z" />
<glyph unicode="&#xbe;" horiz-adv-x="1470" d="M143 578q51 -26 120 -26q83 0 134 44t65 118q17 85 -25.5 136.5t-155.5 56.5q-11 1 -17.5 9.5t-4.5 19.5l8 39q2 11 11 19t20 9q107 6 169 54.5t74 114.5q14 68 -18 108t-99 40q-65 0 -133 -26q-16 -6 -24 -0.5t-6 19.5l6 42q2 20 25 29q77 32 161 32q118 0 172 -62.5 t31 -175.5q-14 -76 -67 -133.5t-133 -86.5q154 -67 121 -240q-24 -121 -109 -191.5t-214 -70.5q-86 0 -148 27q-19 9 -12 33l11 43q4 14 14 19.5t24 -0.5zM1163 204h-303q-12 0 -19 8t-4 20l8 42q4 23 25 52l419 576q18 26 45 26h53q12 0 19 -8t4 -20l-117 -602h54 q12 0 18.5 -8t4.5 -20l-7 -38q-7 -28 -34 -28h-54l-34 -176q-2 -12 -12 -20t-22 -8h-55q-12 0 -18.5 8t-4.5 20zM1265 726l-312 -428h228zM359 2l835 1405q14 23 40 23h38q32 0 14 -32l-835 -1405q-14 -23 -40 -23h-38q-32 0 -14 32z" />
<glyph unicode="&#xbf;" horiz-adv-x="816" d="M663 1076q-13 -62 -36.5 -88t-64.5 -26t-54.5 26t-0.5 88q12 62 35.5 88t64.5 26t54.5 -26t1.5 -88zM574 -208q-118 -54 -247 -54q-170 0 -247 89.5t-46 246.5q20 101 82.5 193t179.5 189q69 57 104.5 126.5t57.5 181.5l4 20q2 12 11.5 20t21.5 8h71q12 0 19 -8t5 -20 l-5 -26q-27 -135 -77 -224.5t-143 -165.5q-94 -75 -140 -145t-62 -153q-20 -102 30 -161t165 -59q111 0 210 52q19 9 30 4t9 -21l-7 -59q-3 -23 -26 -34z" />
<glyph unicode="&#xc0;" horiz-adv-x="956" d="M622 1260l-350 -766h404zM603 1400h94q32 0 35 -32l110 -1332q3 -36 -33 -36h-65q-33 0 -35 29l-27 355h-460l-165 -355q-14 -29 -45 -29h-65q-37 0 -21 36l628 1332q16 32 49 32zM645 1824l112 -262q8 -17 0 -27.5t-26 -10.5h-46q-27 0 -38 19l-139 257q-11 20 -8 32 q3 16 25 16h80q30 0 40 -24z" />
<glyph unicode="&#xc1;" horiz-adv-x="956" d="M622 1260l-350 -766h404zM603 1400h94q32 0 35 -32l110 -1332q3 -36 -33 -36h-65q-33 0 -35 29l-27 355h-460l-165 -355q-14 -29 -45 -29h-65q-37 0 -21 36l628 1332q16 32 49 32zM605 1562l214 262q20 24 50 24h80q10 0 15.5 -4t3.5 -12q-4 -14 -22 -32l-239 -257 q-16 -19 -44 -19h-46q-18 0 -22 10.5t10 27.5z" />
<glyph unicode="&#xc2;" horiz-adv-x="956" d="M622 1260l-350 -766h404zM603 1400h94q32 0 35 -32l110 -1332q3 -36 -33 -36h-65q-33 0 -35 29l-27 355h-460l-165 -355q-14 -29 -45 -29h-65q-37 0 -21 36l628 1332q16 32 49 32zM689 1848h96q24 0 32 -20l113 -277q6 -15 -1.5 -25t-24.5 -10h-53q-27 0 -34 18l-98 224 l-184 -224q-15 -18 -42 -18h-53q-17 0 -20.5 10t8.5 25l221 277q16 20 40 20z" />
<glyph unicode="&#xc3;" horiz-adv-x="956" d="M622 1260l-350 -766h404zM603 1400h94q32 0 35 -32l110 -1332q3 -36 -33 -36h-65q-33 0 -35 29l-27 355h-460l-165 -355q-14 -29 -45 -29h-65q-37 0 -21 36l628 1332q16 32 49 32zM621 1820q85 0 127 -86q19 -41 31.5 -55.5t27.5 -14.5q25 0 41 24t32 97q8 31 33 31h51 q26 0 21 -30q-29 -131 -78 -182.5t-118 -51.5q-84 0 -126 86q-19 41 -31.5 55.5t-27.5 14.5q-25 0 -41 -24t-33 -97q-8 -31 -33 -31h-51q-12 0 -17.5 8t-2.5 22q29 131 77.5 182.5t117.5 51.5z" />
<glyph unicode="&#xc4;" horiz-adv-x="956" d="M622 1260l-350 -766h404zM603 1400h94q32 0 35 -32l110 -1332q3 -36 -33 -36h-65q-33 0 -35 29l-27 355h-460l-165 -355q-14 -29 -45 -29h-65q-37 0 -21 36l628 1332q16 32 49 32zM475 1686q12 59 32.5 82.5t58.5 23.5t49 -23t0 -83q-11 -59 -31.5 -82.5t-58.5 -23.5 t-49.5 23.5t-0.5 82.5zM795 1686q12 59 32.5 82.5t58.5 23.5t49 -23t0 -83q-11 -59 -31.5 -82.5t-58.5 -23.5t-49.5 23.5t-0.5 82.5z" />
<glyph unicode="&#xc5;" horiz-adv-x="956" d="M622 1260l-350 -766h404zM603 1400h94q32 0 35 -32l110 -1332q3 -36 -33 -36h-65q-33 0 -35 29l-27 355h-460l-165 -355q-14 -29 -45 -29h-65q-37 0 -21 36l628 1332q16 32 49 32zM745 1892q94 0 142 -58t30 -148q-17 -90 -87.5 -148t-164.5 -58t-141.5 58t-30.5 148 q18 91 88 148.5t164 57.5zM682 1564q53 0 93.5 32t51.5 90q12 58 -16.5 90t-81.5 32t-93.5 -32t-52.5 -90q-11 -58 17.5 -90t81.5 -32z" />
<glyph unicode="&#xc6;" horiz-adv-x="1266" d="M769 1282l-456 -810h298zM-69 38l755 1326q20 36 56 36h596q12 0 18 -8t4 -21l-10 -53q-2 -12 -12 -20t-22 -8h-418l-100 -514h380q12 0 18.5 -8t4.5 -21l-11 -53q-2 -12 -11.5 -20t-21.5 -8h-380l-108 -556h429q12 0 19 -8t4 -20l-10 -53q-2 -13 -12 -21t-22 -8h-528 q-13 0 -19.5 8t-4.5 21l65 333h-338l-190 -339q-14 -23 -37 -23h-74q-19 0 -24.5 10.5t4.5 27.5z" />
<glyph unicode="&#xc7;" horiz-adv-x="918" d="M742 118q17 6 27.5 0t9.5 -22l-5 -54q-3 -22 -25 -31q-93 -33 -202 -35l-62 -102q56 -20 82.5 -66.5t13.5 -109.5q-15 -78 -77.5 -126t-152.5 -48q-35 0 -69 9q-23 7 -17 30l5 29q7 35 40 27q25 -5 44 -5q43 0 76.5 23.5t41.5 64.5q18 96 -92 119q-33 7 -15 39l72 124 q-214 37 -301.5 228t-29.5 488q64 330 252.5 527t451.5 197q115 0 196 -36q19 -9 13 -32l-13 -54q-5 -16 -18 -22t-28 0q-75 32 -165 32q-204 0 -354 -164t-205 -448q-56 -285 31 -448.5t292 -163.5q102 0 183 30z" />
<glyph unicode="&#xc8;" horiz-adv-x="872" d="M189 110h515q12 0 19 -8t4 -20l-10 -53q-2 -13 -12 -21t-22 -8h-614q-12 0 -19 8t-5 21l261 1342q2 12 12.5 20.5t22.5 8.5h600q13 0 19 -8t4 -21l-10 -53q-2 -12 -12 -20t-23 -8h-501l-100 -514h465q12 0 19 -8.5t5 -20.5l-10 -52q-3 -12 -13 -20.5t-22 -8.5h-465z M645 1824l112 -262q8 -17 0 -27.5t-26 -10.5h-46q-27 0 -38 19l-139 257q-11 20 -8 32q3 16 25 16h80q30 0 40 -24z" />
<glyph unicode="&#xc9;" horiz-adv-x="872" d="M189 110h515q12 0 19 -8t4 -20l-10 -53q-2 -13 -12 -21t-22 -8h-614q-12 0 -19 8t-5 21l261 1342q2 12 12.5 20.5t22.5 8.5h600q13 0 19 -8t4 -21l-10 -53q-2 -12 -12 -20t-23 -8h-501l-100 -514h465q12 0 19 -8.5t5 -20.5l-10 -52q-3 -12 -13 -20.5t-22 -8.5h-465z M567 1562l214 262q20 24 50 24h80q10 0 15.5 -4t3.5 -12q-4 -14 -22 -32l-239 -257q-16 -19 -44 -19h-46q-18 0 -22 10.5t10 27.5z" />
<glyph unicode="&#xca;" horiz-adv-x="872" d="M189 110h515q12 0 19 -8t4 -20l-10 -53q-2 -13 -12 -21t-22 -8h-614q-12 0 -19 8t-5 21l261 1342q2 12 12.5 20.5t22.5 8.5h600q13 0 19 -8t4 -21l-10 -53q-2 -12 -12 -20t-23 -8h-501l-100 -514h465q12 0 19 -8.5t5 -20.5l-10 -52q-3 -12 -13 -20.5t-22 -8.5h-465z M679 1848h96q24 0 32 -20l113 -277q6 -15 -1.5 -25t-24.5 -10h-53q-27 0 -34 18l-98 224l-184 -224q-15 -18 -42 -18h-53q-17 0 -20.5 10t8.5 25l221 277q16 20 40 20z" />
<glyph unicode="&#xcb;" horiz-adv-x="872" d="M189 110h515q12 0 19 -8t4 -20l-10 -53q-2 -13 -12 -21t-22 -8h-614q-12 0 -19 8t-5 21l261 1342q2 12 12.5 20.5t22.5 8.5h600q13 0 19 -8t4 -21l-10 -53q-2 -12 -12 -20t-23 -8h-501l-100 -514h465q12 0 19 -8.5t5 -20.5l-10 -52q-3 -12 -13 -20.5t-22 -8.5h-465z M455 1686q12 59 32.5 82.5t58.5 23.5t49 -23t0 -83q-11 -59 -31.5 -82.5t-58.5 -23.5t-49.5 23.5t-0.5 82.5zM775 1686q12 59 32.5 82.5t58.5 23.5t49 -23t0 -83q-11 -59 -31.5 -82.5t-58.5 -23.5t-49.5 23.5t-0.5 82.5z" />
<glyph unicode="&#xcc;" horiz-adv-x="428" d="M351 1400h70q12 0 18.5 -8t4.5 -21l-261 -1342q-2 -13 -12 -21t-22 -8h-70q-12 0 -19 8t-5 21l261 1342q2 12 12.5 20.5t22.5 8.5zM365 1824l112 -262q8 -17 0 -27.5t-26 -10.5h-46q-27 0 -38 19l-139 257q-11 20 -8 32q3 16 25 16h80q30 0 40 -24z" />
<glyph unicode="&#xcd;" horiz-adv-x="428" d="M351 1400h70q12 0 18.5 -8t4.5 -21l-261 -1342q-2 -13 -12 -21t-22 -8h-70q-12 0 -19 8t-5 21l261 1342q2 12 12.5 20.5t22.5 8.5zM357 1562l214 262q20 24 50 24h80q10 0 15.5 -4t3.5 -12q-4 -14 -22 -32l-239 -257q-16 -19 -44 -19h-46q-18 0 -22 10.5t10 27.5z" />
<glyph unicode="&#xce;" horiz-adv-x="428" d="M351 1400h70q12 0 18.5 -8t4.5 -21l-261 -1342q-2 -13 -12 -21t-22 -8h-70q-12 0 -19 8t-5 21l261 1342q2 12 12.5 20.5t22.5 8.5zM425 1848h96q24 0 32 -20l113 -277q6 -15 -1.5 -25t-24.5 -10h-53q-27 0 -34 18l-98 224l-184 -224q-15 -18 -42 -18h-53q-17 0 -20.5 10 t8.5 25l221 277q16 20 40 20z" />
<glyph unicode="&#xcf;" horiz-adv-x="428" d="M351 1400h70q12 0 18.5 -8t4.5 -21l-261 -1342q-2 -13 -12 -21t-22 -8h-70q-12 0 -19 8t-5 21l261 1342q2 12 12.5 20.5t22.5 8.5zM211 1686q12 59 32.5 82.5t58.5 23.5t49 -23t0 -83q-11 -59 -31.5 -82.5t-58.5 -23.5t-49.5 23.5t-0.5 82.5zM531 1686q12 59 32.5 82.5 t58.5 23.5t49 -23t0 -83q-11 -59 -31.5 -82.5t-58.5 -23.5t-49.5 23.5t-0.5 82.5z" />
<glyph unicode="&#xd0;" horiz-adv-x="1036" d="M90 752h106l120 619q2 13 12 21t23 8h231q280 0 384.5 -170.5t35.5 -529.5q-71 -360 -241.5 -530t-450.5 -170h-231q-13 0 -19.5 8t-4.5 21l121 623h-106q-12 0 -18.5 8t-4.5 21l8 42q2 12 12.5 20.5t22.5 8.5zM872 700q59 308 -13.5 449t-298.5 141h-132l-104 -538h211 q12 0 18.5 -8.5t4.5 -20.5l-8 -42q-2 -12 -12.5 -20.5t-22.5 -8.5h-211l-105 -542h132q226 0 353 140.5t188 449.5z" />
<glyph unicode="&#xd1;" horiz-adv-x="1086" d="M657 29l-255 1197l-233 -1197q-2 -13 -12 -21t-22 -8h-66q-13 0 -19.5 8t-4.5 21l261 1342q2 13 12 21t23 8h124q29 0 35 -29l255 -1197l233 1197q2 12 12.5 20.5t22.5 8.5h66q13 0 19 -8t4 -21l-261 -1342q-2 -13 -11.5 -21t-22.5 -8h-124q-30 0 -36 29zM685 1820 q85 0 127 -86q19 -41 31.5 -55.5t27.5 -14.5q25 0 41 24t32 97q8 31 33 31h51q26 0 21 -30q-29 -131 -78 -182.5t-118 -51.5q-84 0 -126 86q-19 41 -31.5 55.5t-27.5 14.5q-25 0 -41 -24t-33 -97q-8 -31 -33 -31h-51q-12 0 -17.5 8t-2.5 22q29 131 77.5 182.5t117.5 51.5z " />
<glyph unicode="&#xd2;" d="M425 -24q-226 0 -306.5 188t-12.5 536q67 347 221.5 535.5t378.5 188.5q225 0 306 -188.5t14 -535.5q-68 -349 -221.5 -536.5t-379.5 -187.5zM447 88q330 0 449 612q118 612 -211 612q-331 0 -449 -612q-119 -612 211 -612zM723 1824l112 -262q8 -17 0 -27.5t-26 -10.5 h-46q-27 0 -38 19l-139 257q-11 20 -8 32q3 16 25 16h80q30 0 40 -24z" />
<glyph unicode="&#xd3;" d="M425 -24q-226 0 -306.5 188t-12.5 536q67 347 221.5 535.5t378.5 188.5q225 0 306 -188.5t14 -535.5q-68 -349 -221.5 -536.5t-379.5 -187.5zM447 88q330 0 449 612q118 612 -211 612q-331 0 -449 -612q-119 -612 211 -612zM631 1562l214 262q20 24 50 24h80 q10 0 15.5 -4t3.5 -12q-4 -14 -22 -32l-239 -257q-16 -19 -44 -19h-46q-18 0 -22 10.5t10 27.5z" />
<glyph unicode="&#xd4;" d="M425 -24q-226 0 -306.5 188t-12.5 536q67 347 221.5 535.5t378.5 188.5q225 0 306 -188.5t14 -535.5q-68 -349 -221.5 -536.5t-379.5 -187.5zM447 88q330 0 449 612q118 612 -211 612q-331 0 -449 -612q-119 -612 211 -612zM741 1848h96q24 0 32 -20l113 -277 q6 -15 -1.5 -25t-24.5 -10h-53q-27 0 -34 18l-98 224l-184 -224q-15 -18 -42 -18h-53q-17 0 -20.5 10t8.5 25l221 277q16 20 40 20z" />
<glyph unicode="&#xd5;" d="M425 -24q-226 0 -306.5 188t-12.5 536q67 347 221.5 535.5t378.5 188.5q225 0 306 -188.5t14 -535.5q-68 -349 -221.5 -536.5t-379.5 -187.5zM447 88q330 0 449 612q118 612 -211 612q-331 0 -449 -612q-119 -612 211 -612zM673 1820q85 0 127 -86q19 -41 31.5 -55.5 t27.5 -14.5q25 0 41 24t32 97q8 31 33 31h51q26 0 21 -30q-29 -131 -78 -182.5t-118 -51.5q-84 0 -126 86q-19 41 -31.5 55.5t-27.5 14.5q-25 0 -41 -24t-33 -97q-8 -31 -33 -31h-51q-12 0 -17.5 8t-2.5 22q29 131 77.5 182.5t117.5 51.5z" />
<glyph unicode="&#xd6;" d="M425 -24q-226 0 -306.5 188t-12.5 536q67 347 221.5 535.5t378.5 188.5q225 0 306 -188.5t14 -535.5q-68 -349 -221.5 -536.5t-379.5 -187.5zM447 88q330 0 449 612q118 612 -211 612q-331 0 -449 -612q-119 -612 211 -612zM527 1686q12 59 32.5 82.5t58.5 23.5t49 -23 t0 -83q-11 -59 -31.5 -82.5t-58.5 -23.5t-49.5 23.5t-0.5 82.5zM847 1686q12 59 32.5 82.5t58.5 23.5t49 -23t0 -83q-11 -59 -31.5 -82.5t-58.5 -23.5t-49.5 23.5t-0.5 82.5z" />
<glyph unicode="&#xd7;" d="M560 582l-292 -306q-8 -9 -20.5 -8.5t-21.5 9.5l-41 41q-19 20 0 39l295 309l-295 310q-19 20 0 39l41 41q9 9 21.5 9.5t20.5 -8.5l292 -307l292 307q8 9 20.5 8.5t21.5 -9.5l41 -41q19 -19 0 -39l-295 -310l295 -309q19 -19 0 -39l-41 -41q-9 -9 -21.5 -9.5t-20.5 8.5z " />
<glyph unicode="&#xd8;" d="M-28 -165l173 279q-118 183 -39 586q67 347 221.5 535.5t378.5 188.5q126 0 209 -63l134 217q15 22 40 22h54q17 0 21.5 -10t-5.5 -25l-174 -280q118 -187 41 -585q-68 -349 -221.5 -536.5t-379.5 -187.5q-128 0 -210 61l-133 -215q-15 -22 -39 -22h-54q-16 0 -21 10 t4 25zM236 700q-59 -299 -9 -453l620 1004q-58 61 -162 61q-331 0 -449 -612zM447 88q330 0 449 612q58 300 7 452l-620 -1004q60 -60 164 -60z" />
<glyph unicode="&#xd9;" horiz-adv-x="1100" d="M445 -24q-410 0 -312 506l173 889q2 13 12 21t23 8h70q12 0 18.5 -8t4.5 -21l-173 -889q-40 -208 12 -301t194 -93t230 93t128 301l173 889q2 12 12.5 20.5t22.5 8.5h70q13 0 19 -8t4 -21l-173 -889q-98 -506 -508 -506zM711 1824l112 -262q8 -17 0 -27.5t-26 -10.5h-46 q-27 0 -38 19l-139 257q-11 20 -8 32q3 16 25 16h80q30 0 40 -24z" />
<glyph unicode="&#xda;" horiz-adv-x="1100" d="M445 -24q-410 0 -312 506l173 889q2 13 12 21t23 8h70q12 0 18.5 -8t4.5 -21l-173 -889q-40 -208 12 -301t194 -93t230 93t128 301l173 889q2 12 12.5 20.5t22.5 8.5h70q13 0 19 -8t4 -21l-173 -889q-98 -506 -508 -506zM679 1562l214 262q20 24 50 24h80q10 0 15.5 -4 t3.5 -12q-4 -14 -22 -32l-239 -257q-16 -19 -44 -19h-46q-18 0 -22 10.5t10 27.5z" />
<glyph unicode="&#xdb;" horiz-adv-x="1100" d="M445 -24q-410 0 -312 506l173 889q2 13 12 21t23 8h70q12 0 18.5 -8t4.5 -21l-173 -889q-40 -208 12 -301t194 -93t230 93t128 301l173 889q2 12 12.5 20.5t22.5 8.5h70q13 0 19 -8t4 -21l-173 -889q-98 -506 -508 -506zM761 1848h96q24 0 32 -20l113 -277 q6 -15 -1.5 -25t-24.5 -10h-53q-27 0 -34 18l-98 224l-184 -224q-15 -18 -42 -18h-53q-17 0 -20.5 10t8.5 25l221 277q16 20 40 20z" />
<glyph unicode="&#xdc;" horiz-adv-x="1100" d="M445 -24q-410 0 -312 506l173 889q2 13 12 21t23 8h70q12 0 18.5 -8t4.5 -21l-173 -889q-40 -208 12 -301t194 -93t230 93t128 301l173 889q2 12 12.5 20.5t22.5 8.5h70q13 0 19 -8t4 -21l-173 -889q-98 -506 -508 -506zM547 1686q12 59 32.5 82.5t58.5 23.5t49 -23 t0 -83q-11 -59 -31.5 -82.5t-58.5 -23.5t-49.5 23.5t-0.5 82.5zM867 1686q12 59 32.5 82.5t58.5 23.5t49 -23t0 -83q-11 -59 -31.5 -82.5t-58.5 -23.5t-49.5 23.5t-0.5 82.5z" />
<glyph unicode="&#xdd;" horiz-adv-x="972" d="M421 0h-70q-12 0 -19 8t-5 21l103 527l-217 801q-5 20 4 31.5t30 11.5h59q29 0 36 -25l178 -685l444 685q16 25 46 25h59q44 0 16 -43l-527 -801l-103 -527q-2 -13 -12 -21t-22 -8zM605 1562l214 262q20 24 50 24h80q10 0 15.5 -4t3.5 -12q-4 -14 -22 -32l-239 -257 q-16 -19 -44 -19h-46q-18 0 -22 10.5t10 27.5z" />
<glyph unicode="&#xde;" horiz-adv-x="906" d="M748 710q61 318 -215 318h-166l-123 -636h166q276 0 338 318zM434 1371l-45 -233h170q189 0 274 -110t45 -318q-41 -208 -169 -318t-317 -110h-170l-49 -253q-2 -13 -11.5 -21t-21.5 -8h-72q-12 0 -18.5 8t-4.5 21l261 1342q2 13 12 21t22 8h72q12 0 18 -8t4 -21z" />
<glyph unicode="&#xdf;" horiz-adv-x="944" d="M462 675q-11 1 -17.5 9.5t-4.5 18.5l11 56q2 11 12 19t21 9q256 12 308 273q9 64 1 120t-49.5 94t-108.5 38q-105 0 -173 -73t-101 -241l-188 -970q-2 -12 -12 -20t-22 -8h-71q-12 0 -18.5 8t-4.5 20l185 954q44 226 151.5 334t276.5 108q155 0 225 -100t39 -262 q-25 -128 -96 -211t-178 -117q113 -32 163.5 -129t21.5 -245q-35 -183 -145.5 -283.5t-278.5 -100.5q-85 0 -155 27q-21 8 -14 33l15 50q5 15 17.5 22t25.5 2q54 -22 121 -22q114 0 187 73.5t97 198.5q29 145 -34.5 224.5t-206.5 90.5z" />
<glyph unicode="&#xe0;" horiz-adv-x="852" d="M576 426l-44 636l-292 -636h336zM583 318h-392l-131 -289q-14 -29 -45 -29h-58q-37 0 -21 36l526 1122q14 32 48 32h94q31 0 36 -32l88 -1122q3 -36 -33 -36h-58q-33 0 -35 29zM552 1614l112 -262q8 -17 0 -27.5t-26 -10.5h-46q-27 0 -37 19l-139 257q-12 18 -9 32 q3 16 25 16h80q30 0 40 -24z" />
<glyph unicode="&#xe1;" horiz-adv-x="852" d="M576 426l-44 636l-292 -636h336zM583 318h-392l-131 -289q-14 -29 -45 -29h-58q-37 0 -21 36l526 1122q14 32 48 32h94q31 0 36 -32l88 -1122q3 -36 -33 -36h-58q-33 0 -35 29zM512 1352l214 262q20 24 50 24h80q10 0 15.5 -4t3.5 -12q-2 -12 -21 -32l-239 -257 q-18 -19 -45 -19h-46q-18 0 -22 10.5t10 27.5z" />
<glyph unicode="&#xe2;" horiz-adv-x="852" d="M576 426l-44 636l-292 -636h336zM583 318h-392l-131 -289q-14 -29 -45 -29h-58q-37 0 -21 36l526 1122q14 32 48 32h94q31 0 36 -32l88 -1122q3 -36 -33 -36h-58q-33 0 -35 29zM596 1638h96q24 0 32 -20l113 -277q6 -15 -1.5 -25t-24.5 -10h-53q-27 0 -34 18l-98 224 l-184 -224q-15 -18 -42 -18h-53q-17 0 -20.5 10t8.5 25l221 277q16 20 40 20z" />
<glyph unicode="&#xe3;" horiz-adv-x="852" d="M576 426l-44 636l-292 -636h336zM583 318h-392l-131 -289q-14 -29 -45 -29h-58q-37 0 -21 36l526 1122q14 32 48 32h94q31 0 36 -32l88 -1122q3 -36 -33 -36h-58q-33 0 -35 29zM528 1610q85 0 127 -86q19 -41 31.5 -55.5t27.5 -14.5q25 0 41 24t33 97q8 31 33 31h51 q25 0 20 -30q-29 -131 -78 -182.5t-118 -51.5q-84 0 -126 86q-19 41 -31.5 55.5t-27.5 14.5q-25 0 -41 -24t-33 -97q-8 -31 -33 -31h-51q-12 0 -17.5 8t-2.5 22q29 131 77.5 182.5t117.5 51.5z" />
<glyph unicode="&#xe4;" horiz-adv-x="852" d="M576 426l-44 636l-292 -636h336zM583 318h-392l-131 -289q-14 -29 -45 -29h-58q-37 0 -21 36l526 1122q14 32 48 32h94q31 0 36 -32l88 -1122q3 -36 -33 -36h-58q-33 0 -35 29zM382 1476q12 59 32.5 82.5t58.5 23.5t49 -23t0 -83q-11 -59 -31.5 -82.5t-58.5 -23.5 t-49.5 23.5t-0.5 82.5zM702 1476q12 59 32.5 82.5t58.5 23.5t49 -23t0 -83q-11 -59 -31.5 -82.5t-58.5 -23.5t-49.5 23.5t-0.5 82.5z" />
<glyph unicode="&#xe5;" horiz-adv-x="852" d="M576 426l-44 636l-292 -636h336zM583 318h-392l-131 -289q-14 -29 -45 -29h-58q-37 0 -21 36l526 1122q14 32 48 32h94q31 0 36 -32l88 -1122q3 -36 -33 -36h-58q-33 0 -35 29zM652 1680q94 0 141.5 -58t30.5 -148t-87.5 -148t-164.5 -58t-141.5 58t-30.5 148t87.5 148 t164.5 58zM588 1352q53 0 93.5 32t52.5 90t-16.5 90t-81.5 32t-93.5 -32t-52.5 -90t16.5 -90t81.5 -32z" />
<glyph unicode="&#xe6;" horiz-adv-x="1098" d="M215 294l-144 -265q-15 -29 -45 -29h-66q-18 0 -24 10t3 26l623 1122q16 32 48 32h517q12 0 18 -8t4 -21l-10 -50q-2 -12 -11.5 -20.5t-21.5 -8.5h-338l-81 -416h305q12 0 19 -8t5 -20l-11 -52q-2 -12 -12 -20t-21 -8h-306l-88 -450h349q12 0 19 -8.5t5 -20.5l-10 -50 q-2 -13 -12 -21t-22 -8h-445q-12 0 -18.5 8t-4.5 21l52 265h-276zM644 1084l-370 -682h238z" />
<glyph unicode="&#xe7;" horiz-adv-x="798" d="M316 -179q-33 7 -15 39l71 122q-185 30 -261 193.5t-26 418.5q55 285 215 452.5t385 167.5q104 0 168 -29q19 -9 13 -32l-13 -51q-4 -16 -17 -22.5t-28 -0.5q-59 25 -136 25q-170 0 -292.5 -135t-168.5 -375q-47 -240 24.5 -374t240.5 -134q84 0 152 23q17 6 27 -0.5 t8 -22.5l-7 -52q-3 -24 -25 -31q-67 -23 -148 -26l-62 -103q56 -20 82.5 -66.5t13.5 -109.5q-15 -78 -77.5 -126t-152.5 -48q-35 0 -69 9q-23 7 -17 30l5 29q7 35 40 27q25 -5 44 -5q43 0 76.5 23.5t41.5 64.5q18 96 -92 119z" />
<glyph unicode="&#xe8;" horiz-adv-x="758" d="M25 29l220 1132q2 12 12.5 20.5t22.5 8.5h507q12 0 18 -8t4 -21l-10 -50q-2 -12 -11.5 -20.5t-21.5 -8.5h-412l-81 -416h381q12 0 19 -8t5 -20l-11 -52q-2 -12 -12 -20t-22 -8h-381l-88 -450h424q12 0 18.5 -8.5t4.5 -20.5l-10 -50q-2 -13 -11.5 -21t-21.5 -8h-519 q-12 0 -19 8t-5 21zM538 1614l112 -262q8 -17 0 -27.5t-26 -10.5h-46q-27 0 -37 19l-139 257q-12 18 -9 32q3 16 25 16h80q30 0 40 -24z" />
<glyph unicode="&#xe9;" horiz-adv-x="758" d="M25 29l220 1132q2 12 12.5 20.5t22.5 8.5h507q12 0 18 -8t4 -21l-10 -50q-2 -12 -11.5 -20.5t-21.5 -8.5h-412l-81 -416h381q12 0 19 -8t5 -20l-11 -52q-2 -12 -12 -20t-22 -8h-381l-88 -450h424q12 0 18.5 -8.5t4.5 -20.5l-10 -50q-2 -13 -11.5 -21t-21.5 -8h-519 q-12 0 -19 8t-5 21zM462 1352l214 262q20 24 50 24h80q10 0 15.5 -4t3.5 -12q-2 -12 -21 -32l-239 -257q-18 -19 -45 -19h-46q-18 0 -22 10.5t10 27.5z" />
<glyph unicode="&#xea;" horiz-adv-x="758" d="M564 1638h96q24 0 32 -20l113 -277q6 -15 -1.5 -25t-24.5 -10h-53q-27 0 -34 18l-98 224l-184 -224q-15 -18 -42 -18h-53q-17 0 -20.5 10t8.5 25l221 277q16 20 40 20zM25 29l220 1132q2 12 12.5 20.5t22.5 8.5h507q12 0 18 -8t4 -21l-10 -50q-2 -12 -11.5 -20.5 t-21.5 -8.5h-412l-81 -416h381q12 0 19 -8t5 -20l-11 -52q-2 -12 -12 -20t-22 -8h-381l-88 -450h424q12 0 18.5 -8.5t4.5 -20.5l-10 -50q-2 -13 -11.5 -21t-21.5 -8h-519q-12 0 -19 8t-5 21z" />
<glyph unicode="&#xeb;" horiz-adv-x="758" d="M25 29l220 1132q2 12 12.5 20.5t22.5 8.5h507q12 0 18 -8t4 -21l-10 -50q-2 -12 -11.5 -20.5t-21.5 -8.5h-412l-81 -416h381q12 0 19 -8t5 -20l-11 -52q-2 -12 -12 -20t-22 -8h-381l-88 -450h424q12 0 18.5 -8.5t4.5 -20.5l-10 -50q-2 -13 -11.5 -21t-21.5 -8h-519 q-12 0 -19 8t-5 21zM348 1476q12 59 32.5 82.5t58.5 23.5t49 -23t0 -83q-11 -59 -31.5 -82.5t-58.5 -23.5t-49.5 23.5t-0.5 82.5zM668 1476q12 59 32.5 82.5t58.5 23.5t49 -23t0 -83q-11 -59 -31.5 -82.5t-58.5 -23.5t-49.5 23.5t-0.5 82.5z" />
<glyph unicode="&#xec;" horiz-adv-x="384" d="M290 1190h67q12 0 18 -8t4 -21l-220 -1132q-2 -13 -11.5 -21t-21.5 -8h-67q-12 0 -19 8t-5 21l220 1132q2 12 12.5 20.5t22.5 8.5zM302 1614l112 -262q8 -17 0 -27.5t-26 -10.5h-46q-27 0 -37 19l-139 257q-12 18 -9 32q3 16 25 16h80q30 0 40 -24z" />
<glyph unicode="&#xed;" horiz-adv-x="384" d="M290 1190h67q12 0 18 -8t4 -21l-220 -1132q-2 -13 -11.5 -21t-21.5 -8h-67q-12 0 -19 8t-5 21l220 1132q2 12 12.5 20.5t22.5 8.5zM294 1352l214 262q20 24 50 24h80q10 0 15.5 -4t3.5 -12q-2 -12 -21 -32l-239 -257q-18 -19 -45 -19h-46q-18 0 -22 10.5t10 27.5z" />
<glyph unicode="&#xee;" horiz-adv-x="384" d="M290 1190h67q12 0 18 -8t4 -21l-220 -1132q-2 -13 -11.5 -21t-21.5 -8h-67q-12 0 -19 8t-5 21l220 1132q2 12 12.5 20.5t22.5 8.5zM362 1638h96q24 0 32 -20l113 -277q6 -15 -1.5 -25t-24.5 -10h-53q-27 0 -34 18l-98 224l-184 -224q-15 -18 -42 -18h-53q-17 0 -20.5 10 t8.5 25l221 277q16 20 40 20z" />
<glyph unicode="&#xef;" horiz-adv-x="384" d="M290 1190h67q12 0 18 -8t4 -21l-220 -1132q-2 -13 -11.5 -21t-21.5 -8h-67q-12 0 -19 8t-5 21l220 1132q2 12 12.5 20.5t22.5 8.5zM148 1476q12 59 32.5 82.5t58.5 23.5t49 -23t0 -83q-11 -59 -31.5 -82.5t-58.5 -23.5t-49.5 23.5t-0.5 82.5zM468 1476q12 59 32.5 82.5 t58.5 23.5t49 -23t0 -83q-11 -59 -31.5 -82.5t-58.5 -23.5t-49.5 23.5t-0.5 82.5z" />
<glyph unicode="&#xf0;" horiz-adv-x="896" d="M74 642h74l101 519q2 13 12 21t23 8h205q235 0 325 -146t31 -450t-205.5 -449t-381.5 -145h-205q-13 0 -19.5 8t-4.5 21l101 517h-74q-12 0 -18.5 8.5t-4.5 20.5l8 38q2 12 11.5 20.5t21.5 8.5zM719 594q50 255 -9 371.5t-244 116.5h-108l-86 -440h176q12 0 18.5 -8.5 t4.5 -20.5l-8 -38q-2 -12 -11.5 -20.5t-21.5 -8.5h-176l-86 -438h108q185 0 289 115.5t154 370.5z" />
<glyph unicode="&#xf1;" horiz-adv-x="938" d="M533 29l-193 1001l-195 -1001q-2 -13 -11.5 -21t-21.5 -8h-63q-13 0 -19.5 8t-4.5 21l220 1132q2 13 12 21t23 8h120q30 0 35 -29l194 -1001l194 1001q2 13 12 21t22 8h63q13 0 19 -8t4 -21l-220 -1132q-2 -13 -11.5 -21t-22.5 -8h-120q-30 0 -36 29zM570 1610 q85 0 127 -86q19 -41 31.5 -55.5t27.5 -14.5q25 0 41 24t33 97q8 31 33 31h51q25 0 20 -30q-29 -131 -78 -182.5t-118 -51.5q-84 0 -126 86q-19 41 -31.5 55.5t-27.5 14.5q-25 0 -41 -24t-33 -97q-8 -31 -33 -31h-51q-12 0 -17.5 8t-2.5 22q29 131 77.5 182.5t117.5 51.5z " />
<glyph unicode="&#xf2;" horiz-adv-x="924" d="M873 594q-57 -295 -190.5 -456.5t-325.5 -161.5t-262.5 161.5t-13.5 456.5q57 296 190.5 458t325.5 162t262.5 -162t13.5 -458zM207 594q-98 -508 171 -508q271 0 369 508q100 510 -171 510q-269 0 -369 -510zM612 1614l112 -262q8 -17 0 -27.5t-26 -10.5h-46 q-27 0 -37 19l-139 257q-12 18 -9 32q3 16 25 16h80q30 0 40 -24z" />
<glyph unicode="&#xf3;" horiz-adv-x="924" d="M873 594q-57 -295 -190.5 -456.5t-325.5 -161.5t-262.5 161.5t-13.5 456.5q57 296 190.5 458t325.5 162t262.5 -162t13.5 -458zM207 594q-98 -508 171 -508q271 0 369 508q100 510 -171 510q-269 0 -369 -510zM524 1352l214 262q20 24 50 24h80q10 0 15.5 -4t3.5 -12 q-2 -12 -21 -32l-239 -257q-18 -19 -45 -19h-46q-18 0 -22 10.5t10 27.5z" />
<glyph unicode="&#xf4;" horiz-adv-x="924" d="M873 594q-57 -295 -190.5 -456.5t-325.5 -161.5t-262.5 161.5t-13.5 456.5q57 296 190.5 458t325.5 162t262.5 -162t13.5 -458zM207 594q-98 -508 171 -508q271 0 369 508q100 510 -171 510q-269 0 -369 -510zM632 1638h96q24 0 32 -20l113 -277q6 -15 -1.5 -25 t-24.5 -10h-53q-27 0 -34 18l-98 224l-184 -224q-15 -18 -42 -18h-53q-17 0 -20.5 10t8.5 25l221 277q16 20 40 20z" />
<glyph unicode="&#xf5;" horiz-adv-x="924" d="M873 594q-57 -295 -190.5 -456.5t-325.5 -161.5t-262.5 161.5t-13.5 456.5q57 296 190.5 458t325.5 162t262.5 -162t13.5 -458zM207 594q-98 -508 171 -508q271 0 369 508q100 510 -171 510q-269 0 -369 -510zM564 1610q85 0 127 -86q19 -41 31.5 -55.5t27.5 -14.5 q25 0 41 24t33 97q8 31 33 31h51q25 0 20 -30q-29 -131 -78 -182.5t-118 -51.5q-84 0 -126 86q-19 41 -31.5 55.5t-27.5 14.5q-25 0 -41 -24t-33 -97q-8 -31 -33 -31h-51q-12 0 -17.5 8t-2.5 22q29 131 77.5 182.5t117.5 51.5z" />
<glyph unicode="&#xf6;" horiz-adv-x="924" d="M873 594q-57 -295 -190.5 -456.5t-325.5 -161.5t-262.5 161.5t-13.5 456.5q57 296 190.5 458t325.5 162t262.5 -162t13.5 -458zM207 594q-98 -508 171 -508q271 0 369 508q100 510 -171 510q-269 0 -369 -510zM418 1476q12 59 32.5 82.5t58.5 23.5t49 -23t0 -83 q-11 -59 -31.5 -82.5t-58.5 -23.5t-49.5 23.5t-0.5 82.5zM738 1476q12 59 32.5 82.5t58.5 23.5t49 -23t0 -83q-11 -59 -31.5 -82.5t-58.5 -23.5t-49.5 23.5t-0.5 82.5z" />
<glyph unicode="&#xf7;" d="M482 1066q0 62 18.5 87t59.5 25t59.5 -25t18.5 -87t-18.5 -87t-59.5 -25t-59.5 25t-18.5 87zM482 262q0 62 18.5 87t59.5 25t59.5 -25t18.5 -87t-18.5 -87t-59.5 -25t-59.5 25t-18.5 87zM982 608h-844q-12 0 -20 8t-8 20v56q0 12 8 20t20 8h844q12 0 20 -8t8 -20v-56 q0 -12 -8 -20t-20 -8z" />
<glyph unicode="&#xf8;" horiz-adv-x="924" d="M994 1355l-157 -259q102 -161 36 -502q-57 -295 -190.5 -456.5t-325.5 -161.5q-102 0 -173 48l-122 -202q-13 -22 -39 -22h-46q-16 0 -20.5 10t3.5 25l158 259q-104 159 -37 500q57 296 190.5 458t325.5 162q102 0 172 -48l123 202q13 22 40 22h46q16 0 20.5 -10 t-4.5 -25zM747 594q47 242 9 371l-506 -833q47 -46 128 -46q271 0 369 508zM207 594q-48 -243 -10 -369l507 833q-47 46 -128 46q-269 0 -369 -510z" />
<glyph unicode="&#xf9;" horiz-adv-x="950" d="M955 1161l-146 -753q-84 -432 -438 -432q-356 0 -272 432l146 753q2 12 12.5 20.5t22.5 8.5h66q13 0 19 -8t4 -21l-147 -755q-32 -168 10 -244t160 -76q116 0 188 76t104 244l147 755q2 12 12.5 20.5t22.5 8.5h66q13 0 19 -8t4 -21zM594 1614l112 -262q8 -17 0 -27.5 t-26 -10.5h-46q-27 0 -37 19l-139 257q-12 18 -9 32q3 16 25 16h80q30 0 40 -24z" />
<glyph unicode="&#xfa;" horiz-adv-x="950" d="M955 1161l-146 -753q-84 -432 -438 -432q-356 0 -272 432l146 753q2 12 12.5 20.5t22.5 8.5h66q13 0 19 -8t4 -21l-147 -755q-32 -168 10 -244t160 -76q116 0 188 76t104 244l147 755q2 12 12.5 20.5t22.5 8.5h66q13 0 19 -8t4 -21zM568 1352l214 262q20 24 50 24h80 q10 0 15.5 -4t3.5 -12q-2 -12 -21 -32l-239 -257q-18 -19 -45 -19h-46q-18 0 -22 10.5t10 27.5z" />
<glyph unicode="&#xfb;" horiz-adv-x="950" d="M955 1161l-146 -753q-84 -432 -438 -432q-356 0 -272 432l146 753q2 12 12.5 20.5t22.5 8.5h66q13 0 19 -8t4 -21l-147 -755q-32 -168 10 -244t160 -76q116 0 188 76t104 244l147 755q2 12 12.5 20.5t22.5 8.5h66q13 0 19 -8t4 -21zM644 1638h96q24 0 32 -20l113 -277 q6 -15 -1.5 -25t-24.5 -10h-53q-27 0 -34 18l-98 224l-184 -224q-15 -18 -42 -18h-53q-17 0 -20.5 10t8.5 25l221 277q16 20 40 20z" />
<glyph unicode="&#xfc;" horiz-adv-x="950" d="M955 1161l-146 -753q-84 -432 -438 -432q-356 0 -272 432l146 753q2 12 12.5 20.5t22.5 8.5h66q13 0 19 -8t4 -21l-147 -755q-32 -168 10 -244t160 -76q116 0 188 76t104 244l147 755q2 12 12.5 20.5t22.5 8.5h66q13 0 19 -8t4 -21zM430 1476q12 59 32.5 82.5t58.5 23.5 t49 -23t0 -83q-11 -59 -31.5 -82.5t-58.5 -23.5t-49.5 23.5t-0.5 82.5zM750 1476q12 59 32.5 82.5t58.5 23.5t49 -23t0 -83q-11 -59 -31.5 -82.5t-58.5 -23.5t-49.5 23.5t-0.5 82.5z" />
<glyph unicode="&#xfd;" horiz-adv-x="840" d="M437 604l364 561q16 25 46 25h55q22 0 26 -12t-10 -31l-445 -677l-86 -441q-2 -13 -12 -21t-22 -8h-67q-12 0 -18.5 8t-4.5 21l86 441l-183 677q-10 43 34 43h55q29 0 36 -25zM502 1352l214 262q20 24 50 24h80q10 0 15.5 -4t3.5 -12q-2 -12 -21 -32l-239 -257 q-18 -19 -45 -19h-46q-18 0 -22 10.5t10 27.5z" />
<glyph unicode="&#xfe;" horiz-adv-x="784" d="M189 236l-40 -207q-2 -13 -12 -21t-22 -8h-67q-12 0 -18.5 8t-4.5 21l220 1132q2 13 12 21t22 8h67q12 0 18.5 -8t4.5 -21l-37 -191h140q161 0 234.5 -94t38.5 -272q-35 -180 -145 -274t-271 -94h-140zM619 604q50 258 -174 258h-134l-101 -518h134q225 0 275 260z" />
<glyph unicode="&#xff;" horiz-adv-x="840" d="M437 604l364 561q16 25 46 25h55q22 0 26 -12t-10 -31l-445 -677l-86 -441q-2 -13 -12 -21t-22 -8h-67q-12 0 -18.5 8t-4.5 21l86 441l-183 677q-10 43 34 43h55q29 0 36 -25zM376 1476q12 59 32.5 82.5t58.5 23.5t49 -23t0 -83q-11 -59 -31.5 -82.5t-58.5 -23.5 t-49.5 23.5t-0.5 82.5zM696 1476q12 59 32.5 82.5t58.5 23.5t49 -23t0 -83q-11 -59 -31.5 -82.5t-58.5 -23.5t-49.5 23.5t-0.5 82.5z" />
<glyph unicode="&#x152;" horiz-adv-x="1264" d="M667 110h430q12 0 18.5 -8t3.5 -20l-10 -53q-2 -13 -11.5 -21t-21.5 -8h-544q-260 0 -376 182.5t-50 517.5q64 334 251.5 517t446.5 183h529q12 0 18.5 -8t4.5 -21l-10 -53q-2 -12 -12.5 -20t-22.5 -8h-415l-100 -514h380q12 0 18.5 -8.5t4.5 -20.5l-10 -52 q-3 -12 -12.5 -20.5t-21.5 -8.5h-380zM539 110l227 1178q-204 -17 -340 -162t-190 -426q-107 -545 303 -590z" />
<glyph unicode="&#x153;" horiz-adv-x="1094" d="M677 1190h445q12 0 18.5 -8t4.5 -21l-10 -50q-2 -12 -12 -20.5t-22 -8.5h-337l-81 -416h306q12 0 18.5 -8t4.5 -20l-11 -52q-2 -12 -11.5 -20t-21.5 -8h-306l-88 -450h350q12 0 18.5 -8.5t4.5 -20.5l-10 -50q-2 -13 -11.5 -21t-21.5 -8h-458q-221 0 -320.5 154.5 t-44.5 439.5t215 440.5t381 155.5zM207 594q-88 -451 243 -486l190 974q-343 -29 -433 -488z" />
<glyph unicode="&#x178;" horiz-adv-x="972" d="M421 0h-70q-12 0 -19 8t-5 21l103 527l-217 801q-5 20 4 31.5t30 11.5h59q29 0 36 -25l178 -685l444 685q16 25 46 25h59q44 0 16 -43l-527 -801l-103 -527q-2 -13 -12 -21t-22 -8zM483 1686q12 59 32.5 82.5t58.5 23.5t49 -23t0 -83q-11 -59 -31.5 -82.5t-58.5 -23.5 t-49.5 23.5t-0.5 82.5zM803 1686q12 59 32.5 82.5t58.5 23.5t49 -23t0 -83q-11 -59 -31.5 -82.5t-58.5 -23.5t-49.5 23.5t-0.5 82.5z" />
<glyph unicode="&#x2c6;" horiz-adv-x="640" d="M455 1460h96q24 0 32 -20l114 -277q6 -15 -1.5 -25t-24.5 -10h-53q-27 0 -35 18l-97 224l-185 -224q-14 -18 -41 -18h-53q-17 0 -20.5 10t8.5 25l220 277q16 20 40 20z" />
<glyph unicode="&#x2dc;" horiz-adv-x="640" d="M388 1434q85 0 127 -86q19 -41 31.5 -55.5t27.5 -14.5q25 0 41 24t32 97q8 31 33 31h51q26 0 21 -30q-29 -131 -78 -182.5t-118 -51.5q-84 0 -126 86q-19 41 -32 55.5t-28 14.5q-25 0 -40.5 -24t-32.5 -97q-8 -31 -33 -31h-51q-12 0 -17.5 8t-2.5 22q29 131 77.5 182.5 t117.5 51.5z" />
<glyph unicode="&#x2000;" horiz-adv-x="946" />
<glyph unicode="&#x2001;" horiz-adv-x="1892" />
<glyph unicode="&#x2002;" horiz-adv-x="946" />
<glyph unicode="&#x2003;" horiz-adv-x="1892" />
<glyph unicode="&#x2004;" horiz-adv-x="630" />
<glyph unicode="&#x2005;" horiz-adv-x="473" />
<glyph unicode="&#x2006;" horiz-adv-x="315" />
<glyph unicode="&#x2007;" horiz-adv-x="315" />
<glyph unicode="&#x2008;" horiz-adv-x="236" />
<glyph unicode="&#x2009;" horiz-adv-x="378" />
<glyph unicode="&#x200a;" horiz-adv-x="105" />
<glyph unicode="&#x2010;" horiz-adv-x="712" d="M601 604h-456q-12 0 -18.5 8t-4.5 20l13 64q2 12 11.5 20t21.5 8h456q12 0 18.5 -8t4.5 -20l-13 -64q-2 -12 -11.5 -20t-21.5 -8z" />
<glyph unicode="&#x2011;" horiz-adv-x="712" d="M601 604h-456q-12 0 -18.5 8t-4.5 20l13 64q2 12 11.5 20t21.5 8h456q12 0 18.5 -8t4.5 -20l-13 -64q-2 -12 -11.5 -20t-21.5 -8z" />
<glyph unicode="&#x2012;" horiz-adv-x="712" d="M601 604h-456q-12 0 -18.5 8t-4.5 20l13 64q2 12 11.5 20t21.5 8h456q12 0 18.5 -8t4.5 -20l-13 -64q-2 -12 -11.5 -20t-21.5 -8z" />
<glyph unicode="&#x2013;" horiz-adv-x="1000" d="M990 608h-944q-12 0 -18.5 8t-4.5 20l11 56q2 12 11.5 20t21.5 8h944q12 0 18.5 -8t4.5 -20l-11 -56q-2 -12 -11.5 -20t-21.5 -8z" />
<glyph unicode="&#x2014;" horiz-adv-x="2000" d="M1990 608h-1944q-12 0 -18.5 8t-4.5 20l11 56q2 12 11.5 20t21.5 8h1944q12 0 18.5 -8t4.5 -20l-11 -56q-2 -12 -11.5 -20t-21.5 -8z" />
<glyph unicode="&#x2018;" horiz-adv-x="360" d="M453 1457q-80 -78 -92 -145q26 -10 33 -35.5t-3 -76.5q-13 -62 -36 -88t-64 -26q-42 0 -55 27t0 93q19 99 60.5 173t116.5 136q10 9 19.5 9t13.5 -8l14 -31q6 -15 -7 -28z" />
<glyph unicode="&#x2019;" horiz-adv-x="360" d="M216 1163q78 78 92 145q-27 10 -34 35.5t4 76.5q12 62 35.5 88t64.5 26t54 -27t0 -93q-19 -100 -60.5 -173.5t-116.5 -135.5q-10 -9 -19.5 -9t-13.5 8l-14 31q-7 15 8 28z" />
<glyph unicode="&#x201a;" horiz-adv-x="360" d="M-44 -171q80 78 92 145q-26 10 -33 35.5t3 76.5q13 62 36 88t64 26q42 0 55 -27t0 -93q-19 -99 -60.5 -173t-116.5 -136q-10 -9 -19.5 -9t-13.5 8l-14 31q-6 15 7 28z" />
<glyph unicode="&#x201c;" horiz-adv-x="590" d="M453 1457q-80 -78 -92 -145q26 -10 33 -35.5t-3 -76.5q-13 -62 -36 -88t-64 -26q-42 0 -55 27t0 93q19 99 60.5 173t116.5 136q10 9 19.5 9t13.5 -8l14 -31q6 -15 -7 -28zM683 1457q-80 -78 -92 -145q26 -10 33 -35.5t-3 -76.5q-13 -62 -36 -88t-64 -26q-42 0 -55 27 t0 93q19 99 60.5 173t116.5 136q10 9 19.5 9t13.5 -8l14 -31q6 -15 -7 -28z" />
<glyph unicode="&#x201d;" horiz-adv-x="590" d="M446 1163q78 78 92 145q-27 10 -34 35.5t4 76.5q12 62 35.5 88t64.5 26t54 -27t0 -93q-19 -100 -60.5 -173.5t-116.5 -135.5q-10 -9 -19.5 -9t-13.5 8l-14 31q-7 15 8 28zM216 1163q78 78 92 145q-27 10 -34 35.5t4 76.5q12 62 35.5 88t64.5 26t54 -27t0 -93 q-19 -100 -60.5 -173.5t-116.5 -135.5q-10 -9 -19.5 -9t-13.5 8l-14 31q-7 15 8 28z" />
<glyph unicode="&#x201e;" horiz-adv-x="590" d="M-44 -173q80 78 92 145q-26 10 -33 35.5t3 76.5q12 62 35.5 88t64.5 26t54.5 -27t0.5 -93q-20 -100 -61.5 -173.5t-115.5 -135.5q-25 -20 -34 -1l-14 31q-7 15 8 28zM186 -173q80 78 92 145q-26 10 -33 35.5t3 76.5q12 62 35.5 88t64.5 26t54.5 -27t0.5 -93 q-20 -100 -61.5 -173.5t-115.5 -135.5q-25 -20 -34 -1l-14 31q-7 15 8 28z" />
<glyph unicode="&#x2022;" horiz-adv-x="540" d="M128 664q0 196 172 196t172 -196q0 -198 -172 -198t-172 198z" />
<glyph unicode="&#x2026;" horiz-adv-x="1080" d="M19 88q12 62 35 87t64 25t55 -25t2 -87q-13 -62 -36 -87t-64 -25t-54.5 25t-1.5 87zM739 88q12 62 35 87t64 25t55 -25t2 -87q-13 -62 -36 -87t-64 -25t-54.5 25t-1.5 87zM379 88q12 62 35 87t64 25t55 -25t2 -87q-13 -62 -36 -87t-64 -25t-54.5 25t-1.5 87z" />
<glyph unicode="&#x202f;" horiz-adv-x="378" />
<glyph unicode="&#x2039;" horiz-adv-x="600" d="M136 600l9 48q5 17 17 27l388 325q18 15 31.5 10t9.5 -26l-11 -57q-6 -25 -25 -40l-320 -263l218 -263q13 -16 9 -40l-11 -57q-4 -21 -19.5 -26t-27.5 10l-262 325q-9 11 -6 27z" />
<glyph unicode="&#x203a;" horiz-adv-x="600" d="M505 648l-9 -48q-3 -15 -16 -27l-388 -325q-18 -15 -31.5 -10t-9.5 26l11 57q4 24 25 40l320 263l-218 263q-15 16 -9 40l11 57q4 21 19.5 26t27.5 -10l262 -325q9 -13 5 -27z" />
<glyph unicode="&#x205f;" horiz-adv-x="473" />
<glyph unicode="&#x20ac;" horiz-adv-x="924" d="M756 16q-95 -40 -207 -40q-97 0 -172.5 30.5t-122.5 81.5t-76 123t-38.5 151.5t-4.5 169.5h-63q-12 0 -19 8t-5 20l6 29q2 12 12.5 20.5t22.5 8.5h55q8 80 31 162h-55q-12 0 -19 8t-4 20l5 29q3 13 13 21t22 8h63q37 114 91.5 210.5t130.5 176.5t179.5 125.5t224.5 45.5 q104 0 188 -39q19 -9 13 -35l-15 -57q-4 -16 -18 -21.5t-27 2.5q-68 36 -161 36q-76 0 -143.5 -26.5t-117 -69t-92.5 -102t-71.5 -119t-51.5 -127.5h479q33 0 22 -30l-13 -34q-6 -22 -32 -22h-481q-26 -82 -31 -162h431q33 0 22 -30l-13 -34q-8 -22 -32 -22h-415 q-4 -68 2 -128t26 -119t53.5 -101t91 -68t133.5 -26q96 0 179 36q17 8 28 2.5t9 -21.5l-7 -56q-3 -26 -26 -35z" />
<glyph unicode="&#x2122;" horiz-adv-x="1024" d="M188 773v541h-114q-26 0 -26 25v36q0 25 26 25h329q25 0 25 -25v-36q0 -25 -25 -25h-115v-541q0 -25 -26 -25h-49q-25 0 -25 25zM711 980h26q17 0 25 18l114 256v-484q0 -24 25 -24h50q25 0 25 24v605q0 25 -25 25h-77q-21 0 -29 -17l-121 -273l-121 273q-8 17 -29 17 h-77q-25 0 -25 -25v-605q0 -24 25 -24h50q25 0 25 24v484l114 -256q7 -18 25 -18z" />
<glyph unicode="&#xfb02;" horiz-adv-x="1476" d="M25 29l220 1132q2 12 12.5 20.5t22.5 8.5h506q13 0 19 -8t4 -21l-10 -50q-2 -12 -11.5 -20.5t-22.5 -8.5h-411l-80 -412h382q12 0 18 -8t4 -20l-10 -52q-2 -12 -11.5 -20t-21.5 -8h-382l-104 -533q-2 -13 -11.5 -21t-21.5 -8h-67q-12 0 -19 8t-5 21zM761 29l220 1132 q2 13 12 21t22 8h67q12 0 18.5 -8t4.5 -21l-205 -1053h447q12 0 19 -8.5t5 -20.5l-10 -50q-2 -13 -12 -21t-22 -8h-543q-12 0 -18.5 8t-4.5 21z" />
<glyph unicode="&#xfb04;" horiz-adv-x="2212" d="M25 29l220 1132q2 12 12.5 20.5t22.5 8.5h506q13 0 19 -8t4 -21l-10 -50q-2 -12 -11.5 -20.5t-22.5 -8.5h-411l-80 -412h382q12 0 18 -8t4 -20l-10 -52q-2 -12 -11.5 -20t-21.5 -8h-382l-104 -533q-2 -13 -11.5 -21t-21.5 -8h-67q-12 0 -19 8t-5 21zM761 29l220 1132 q2 12 12.5 20.5t22.5 8.5h506q13 0 19 -8t4 -21l-10 -50q-2 -12 -11.5 -20.5t-22.5 -8.5h-411l-80 -412h382q12 0 18 -8t4 -20l-10 -52q-2 -12 -11.5 -20t-21.5 -8h-382l-104 -533q-2 -13 -11.5 -21t-21.5 -8h-67q-12 0 -19 8t-5 21zM1497 29l220 1132q2 13 12 21t22 8h67 q12 0 18.5 -8t4.5 -21l-205 -1053h447q12 0 19 -8.5t5 -20.5l-10 -50q-2 -13 -12 -21t-22 -8h-543q-12 0 -18.5 8t-4.5 21z" />
</font>
</defs>
</svg>
