<?xml version="1.0" standalone="no"?>
<!DOCTYPE svg PUBLIC "-//W3C//DTD SVG 1.1//EN" "http://www.w3.org/Graphics/SVG/1.1/DTD/svg11.dtd" >
<svg xmlns="http://www.w3.org/2000/svg">
<metadata></metadata>
<defs>
<font id="core_sans_nr_sc_27_cn_extraIt" horiz-adv-x="1060" >
<font-face units-per-em="2000" ascent="1600" descent="-400" />
<missing-glyph horiz-adv-x="450" />
<glyph horiz-adv-x="666" />
<glyph horiz-adv-x="0" />
<glyph horiz-adv-x="0" />
<glyph unicode="&#xd;" horiz-adv-x="268" />
<glyph unicode=" "  horiz-adv-x="450" />
<glyph unicode="&#x09;" horiz-adv-x="450" />
<glyph unicode="&#xa0;" horiz-adv-x="450" />
<glyph unicode="!" horiz-adv-x="416" d="M187 338h-28q-8 0 -13 5.5t-3 13.5l110 628l77 396q4 19 23 19h54q8 0 12.5 -5.5t2.5 -13.5l-77 -396l-134 -628q-2 -8 -9 -13.5t-15 -5.5zM67 72q11 55 28 76.5t46 21.5t37 -20.5t-3 -77.5q-10 -55 -27 -76.5t-46 -21.5t-37 20.5t2 77.5z" />
<glyph unicode="&#x22;" horiz-adv-x="642" d="M242 869l96 512q4 19 23 19h48q8 0 12.5 -5.5t2.5 -13.5l-20 -105l-90 -408q-4 -18 -22 -18h-34q-8 0 -13 5.5t-3 13.5zM458 869l96 512q4 19 23 19h48q8 0 12.5 -5.5t2.5 -13.5l-20 -105l-90 -408q-4 -18 -22 -18h-34q-8 0 -13 5.5t-3 13.5z" />
<glyph unicode="#" horiz-adv-x="972" d="M382 952h-159q-8 0 -13 6t-4 14l7 35q1 8 8.5 13.5t15.5 5.5h168l116 353q6 21 27 21h38q22 0 14 -22l-115 -352h284l116 353q6 21 27 21h38q22 0 14 -22l-115 -352h148q19 0 16 -19l-7 -35q-4 -20 -23 -20h-157l-163 -498h159q19 0 16 -19l-7 -35q-4 -20 -24 -20h-168 l-116 -359q-7 -21 -27 -21h-38q-23 0 -15 22l116 358h-284l-116 -359q-7 -21 -27 -21h-38q-23 0 -15 22l116 358h-148q-8 0 -13 6t-3 14l7 35q1 8 8.5 13.5t15.5 5.5h157zM462 952l-163 -498h284l163 498h-284z" />
<glyph unicode="$" horiz-adv-x="808" d="M649 1581l-31 -157q120 -2 203 -41q14 -7 10 -23l-11 -41q-3 -10 -11.5 -13t-17.5 2q-74 42 -187 42l-116 -597q139 -72 189 -167.5t22 -239.5q-30 -153 -124.5 -248t-236.5 -116l-31 -159q-1 -8 -8 -13.5t-15 -5.5h-30q-18 0 -15 19l30 153h-12q-141 0 -245 53 q-15 7 -9 23l11 44q3 10 11.5 13t17.5 -2q96 -57 228 -57h12l126 647q-140 66 -190.5 158.5t-23.5 232.5q26 136 120.5 224.5t233.5 106.5l32 162q3 19 23 19h30q18 0 15 -19zM615 346q21 110 -13.5 186t-130.5 133l-118 -607q104 22 171.5 97t90.5 191zM279 1088 q-20 -103 14.5 -175t132.5 -128l109 558q-103 -18 -169.5 -85.5t-86.5 -169.5z" />
<glyph unicode="%" horiz-adv-x="1310" d="M1132 344q-33 -172 -111.5 -266t-186.5 -94t-149.5 94t-8.5 266q34 172 112 266t186 94t150 -94t8 -266zM1052 344q56 290 -91 290q-149 0 -205 -290t92 -290t204 290zM704 1054q-33 -172 -111.5 -266t-186.5 -94t-149.5 94t-8.5 266q34 172 112 266t186 94t150 -94 t8 -266zM624 1054q56 290 -91 290q-149 0 -205 -290t92 -290t204 290zM186 24l939 1360q12 16 28 16h31q28 0 11 -24l-938 -1360q-13 -16 -28 -16h-31q-28 0 -12 24z" />
<glyph unicode="&#x26;" horiz-adv-x="956" d="M296 46q198 0 336 214l-244 432q-135 -85 -195.5 -172.5t-80.5 -189.5q-25 -127 26 -205.5t158 -78.5zM426 796q129 79 188 156.5t78 169.5q21 109 -12.5 168.5t-113.5 59.5q-77 0 -136 -58.5t-79 -163.5q-18 -67 -3 -143t78 -189zM772 15l-98 173q-159 -214 -394 -214 q-140 0 -212.5 95.5t-39.5 262.5q24 124 101 226t225 194q-67 119 -85.5 204.5t-1.5 171.5q27 141 114 218.5t201 77.5q113 0 167 -79t26 -225q-41 -213 -314 -384l222 -390q77 159 121 369q5 19 24 19h44q8 0 13 -6.5t3 -14.5q-64 -280 -160 -445l136 -240q7 -11 0 -19.5 t-20 -8.5h-42q-21 0 -30 15z" />
<glyph unicode="'" horiz-adv-x="436" d="M246 869l96 512q4 19 23 19h48q8 0 12.5 -5.5t2.5 -13.5l-20 -105l-90 -408q-4 -18 -22 -18h-34q-8 0 -13 5.5t-3 13.5z" />
<glyph unicode="(" horiz-adv-x="556" d="M204 620q45 229 154 453.5t261 412.5q12 14 27 14h28q26 0 7 -24q-149 -189 -251 -409t-146 -447q-44 -229 -27 -447.5t92 -408.5q9 -24 -17 -24h-28q-15 0 -21 14q-79 188 -101 407.5t22 458.5z" />
<glyph unicode=")" horiz-adv-x="556" d="M392 620q-45 -229 -154 -453.5t-261 -412.5q-12 -14 -27 -14h-28q-26 0 -7 24q149 189 251 409t146 447q44 229 27 447.5t-92 408.5q-9 24 17 24h28q15 0 21 -14q79 -188 101 -407.5t-22 -458.5z" />
<glyph unicode="*" horiz-adv-x="980" d="M848 427l-292 175l6 -339q0 -8 -6 -13.5t-14 -5.5h-44q-8 0 -13.5 6t-5.5 13l5 340l-291 -175q-17 -9 -27 8l-22 38q-4 6 -2 14t9 12l296 165l-296 163q-17 10 -6 28l21 38q4 6 12 8.5t14 -1.5l292 -175l-6 339q0 8 6 13.5t14 5.5h44q8 0 13.5 -6t5.5 -13l-5 -341 l291 176q17 9 27 -8l22 -38q4 -6 2 -14t-9 -12l-297 -165l297 -163q7 -4 8.5 -12t-2.5 -16l-21 -38q-4 -6 -12 -8.5t-14 1.5z" />
<glyph unicode="+" d="M518 205v421h-385q-8 0 -13.5 5.5t-5.5 13.5v38q0 7 6 13t13 6h385v421q0 8 5.5 13.5t13.5 5.5h46q8 0 13.5 -5.5t5.5 -13.5v-421h384q8 0 14 -5.5t6 -13.5v-38q0 -8 -6 -13.5t-14 -5.5h-384v-421q0 -19 -19 -19h-46q-19 0 -19 19z" />
<glyph unicode="," horiz-adv-x="436" d="M1 -182q74 74 96 158q-18 6 -23 26t3 70q11 55 28 76.5t46 21.5t37 -20t-1 -70q-19 -95 -51.5 -162.5t-101.5 -134.5q-14 -14 -24 -1l-11 18q-7 9 2 18z" />
<glyph unicode="-" horiz-adv-x="712" d="M609 624h-465q-7 0 -12 5.5t-4 13.5l9 42q4 19 22 19h465q8 0 13.5 -5.5t3.5 -13.5l-9 -42q-1 -7 -8 -13t-15 -6z" />
<glyph unicode="." horiz-adv-x="436" d="M77 72q11 55 28 76.5t46 21.5t37 -20.5t-3 -77.5q-10 -55 -27 -76.5t-46 -21.5t-37 20.5t2 77.5z" />
<glyph unicode="/" horiz-adv-x="666" d="M861 1468l-932 -1669q-9 -19 -29 -19h-35q-27 0 -12 28l931 1669q10 19 29 19h36q27 0 12 -28z" />
<glyph unicode="0" horiz-adv-x="872" d="M331 -24q-183 0 -238.5 176t15.5 548q71 369 196 546.5t308 177.5t239 -176t-15 -548q-72 -369 -197 -546.5t-308 -177.5zM345 50q143 0 241.5 154t165.5 496q65 346 27 498t-181 152t-241.5 -154.5t-164.5 -495.5q-65 -346 -27.5 -498t180.5 -152z" />
<glyph unicode="1" horiz-adv-x="872" d="M589 1286l-237 -205q-21 -17 -31 -1l-17 27q-9 14 8 30l291 249q17 14 35 14h38q8 0 13 -5.5t3 -13.5l-265 -1362q-4 -19 -23 -19h-45q-8 0 -12.5 6t-3.5 13z" />
<glyph unicode="2" horiz-adv-x="872" d="M320 1371q114 53 236 53q158 0 230 -93.5t37 -272.5q-24 -121 -92 -242.5t-187 -269.5q-213 -264 -421 -474h491q19 0 16 -19l-7 -34q-4 -19 -22 -19h-580q-8 0 -12.5 6t-3.5 13l6 29q4 20 18 33q187 182 448 505q224 277 262 470q27 143 -27.5 218.5t-175.5 75.5 q-109 0 -214 -50q-11 -5 -18.5 -1.5t-6.5 13.5l4 32q2 19 19 27z" />
<glyph unicode="3" horiz-adv-x="872" d="M292 697q-17 2 -13 19l7 36q3 17 21 19q168 10 285 96t145 231q21 110 -34 181t-187 71q-109 0 -216 -49q-10 -5 -17 -2t-6 13l3 40q2 15 18 22q116 50 238 50q165 0 239.5 -88t46.5 -232q-29 -150 -123.5 -243t-242.5 -127q293 -79 233 -386q-32 -167 -152 -269.5 t-300 -102.5q-131 0 -224 52q-14 7 -9 23l11 41q3 10 11.5 13.5t16.5 -1.5q87 -54 208 -54q142 0 235 83t119 215q30 155 -50.5 244.5t-262.5 104.5z" />
<glyph unicode="4" horiz-adv-x="872" d="M550 334h-505q-7 0 -12 5.5t-3 13.5l8 39q2 16 14 32l683 960q11 16 29 16h58q8 0 13 -5.5t3 -13.5l-190 -975h121q19 0 16 -19l-7 -34q-4 -19 -23 -19h-121l-61 -315q-4 -19 -23 -19h-45q-8 0 -12.5 6t-3.5 13zM731 1264l-607 -858h440z" />
<glyph unicode="5" horiz-adv-x="872" d="M53 23q-15 8 -11 28l10 35q3 12 12 16t19 -3q71 -49 188 -49q142 0 248 96t138 264q33 168 -24 261t-197 93q-91 0 -188 -38q-15 -5 -25.5 1t-7.5 20l123 634q1 7 8 13t15 6h519q8 0 13 -5.5t3 -13.5l-7 -36q-1 -8 -8.5 -13.5t-15.5 -5.5h-454l-101 -520q71 30 164 30 q157 0 232 -111t35 -315q-39 -199 -167 -316.5t-313 -117.5q-129 0 -208 47z" />
<glyph unicode="6" horiz-adv-x="872" d="M869 1395q14 -6 8 -22l-12 -42q-5 -21 -26 -11q-66 30 -155 30q-330 0 -466 -616q141 150 315 150q158 0 222.5 -120.5t23.5 -333.5q-41 -211 -154.5 -332.5t-267.5 -121.5q-118 0 -185.5 71.5t-83.5 222.5t31 386q77 395 226 581.5t355 186.5q91 0 169 -29zM511 810 q-164 0 -314 -186q-50 -290 -5 -432t177 -142q120 0 206.5 105t119.5 275q35 177 -11.5 278.5t-172.5 101.5z" />
<glyph unicode="7" horiz-adv-x="872" d="M156 25l653 1301h-532q-19 0 -16 19l7 36q2 8 9 13.5t15 5.5h602q8 0 13 -5.5t3 -13.5l-7 -35q-5 -26 -16 -48l-642 -1279q-9 -19 -29 -19h-46q-27 0 -14 25z" />
<glyph unicode="8" horiz-adv-x="872" d="M42 350q25 130 118.5 229.5t228.5 160.5q-30 21 -52.5 39.5t-46 44t-36.5 50.5t-24 60t-9 72t9 86q29 149 134.5 240.5t241.5 91.5q142 0 212.5 -90t41.5 -240q-24 -120 -107 -213t-199 -149q136 -87 183.5 -174t22.5 -214q-32 -169 -153 -268.5t-278 -99.5 q-158 0 -240 99t-47 275zM676 344q8 47 7 84.5t-14.5 69t-32 56.5t-46 48t-56.5 43t-63 42q-14 8 -21 13q-129 -53 -216 -145.5t-108 -204.5q-27 -139 34 -219.5t183 -80.5q121 0 214.5 81.5t118.5 212.5zM314 1094q-9 -34 -6.5 -67t7 -58t19.5 -50t29.5 -44t37.5 -38.5 t44 -34.5t48 -32q115 50 189 134t95 192q22 118 -28 186t-157 68q-99 0 -177 -70t-101 -186z" />
<glyph unicode="9" horiz-adv-x="872" d="M72 5q-13 5 -8 22l12 42q5 21 26 11q66 -30 155 -30q330 0 466 616q-141 -150 -315 -150q-158 0 -222.5 120.5t-23.5 333.5q41 211 154.5 332.5t267.5 121.5q118 0 185.5 -71.5t83.5 -222.5t-31 -386q-77 -395 -226 -581.5t-355 -186.5q-91 0 -169 29zM430 590 q164 0 314 186q50 290 5 432t-177 142q-120 0 -206.5 -105t-119.5 -275q-35 -177 11.5 -278.5t172.5 -101.5z" />
<glyph unicode=":" horiz-adv-x="436" d="M77 72q11 55 28 76.5t46 21.5t37 -20.5t-3 -77.5q-10 -55 -27 -76.5t-46 -21.5t-37 20.5t2 77.5zM250 962q11 55 28 76.5t46 21.5t37 -20.5t-3 -77.5q-10 -55 -27 -76.5t-46 -21.5t-37 20.5t2 77.5z" />
<glyph unicode=";" horiz-adv-x="436" d="M250 962q11 55 28 76.5t46 21.5t37 -20.5t-3 -77.5q-10 -55 -27 -76.5t-46 -21.5t-37 20.5t2 77.5zM1 -182q74 74 96 158q-18 6 -23 26t3 70q11 55 28 76.5t46 21.5t37 -20t-1 -70q-19 -95 -51.5 -162.5t-101.5 -134.5q-14 -14 -24 -1l-11 18q-7 9 2 18z" />
<glyph unicode="&#x3c;" d="M114 645v38q0 18 16 27l851 439q11 5 18 0.5t7 -15.5v-36q0 -17 -18 -27l-794 -407l794 -407q18 -10 18 -27v-36q0 -11 -7 -15.5t-18 0.5l-851 439q-16 9 -16 27z" />
<glyph unicode="=" d="M986 846h-853q-8 0 -13.5 6t-5.5 14v37q0 8 5.5 13.5t13.5 5.5h853q8 0 14 -5.5t6 -13.5v-37q0 -8 -6 -14t-14 -6zM986 406h-853q-8 0 -13.5 6t-5.5 14v37q0 8 5.5 13.5t13.5 5.5h853q8 0 14 -5.5t6 -13.5v-37q0 -8 -6 -14t-14 -6z" />
<glyph unicode="&#x3e;" d="M1006 683v-38q0 -18 -16 -27l-851 -439q-11 -5 -18 -0.5t-7 15.5v36q0 17 18 27l794 407l-794 407q-18 10 -18 27v36q0 11 7 15.5t18 -0.5l851 -439q16 -9 16 -27z" />
<glyph unicode="?" horiz-adv-x="802" d="M191 72q11 55 28 76.5t46 21.5t37 -20.5t-3 -77.5q-10 -55 -27 -76.5t-46 -21.5t-37 20.5t2 77.5zM269 1293q-12 -6 -20 -2.5t-7 14.5l4 35q1 18 21 28q117 56 241 56q163 0 238 -85.5t45 -240.5q-20 -102 -82.5 -193.5t-181.5 -186.5q-76 -62 -114.5 -136t-61.5 -194 l-5 -27q-1 -8 -8 -13.5t-15 -5.5h-46q-18 0 -15 19l6 35q27 138 74.5 223t140.5 159q103 82 154 158t69 166q22 115 -33.5 181.5t-182.5 66.5q-115 0 -221 -57z" />
<glyph unicode="@" horiz-adv-x="1494" d="M959 -156q24 15 27 -6l7 -36q4 -16 -15 -28q-157 -98 -373 -98q-194 0 -322.5 110t-169 304t6.5 458q78 401 298.5 638.5t499.5 237.5q185 0 309.5 -100.5t168.5 -286t-4 -447.5q-42 -216 -138.5 -353t-220.5 -137q-65 0 -105 39.5t-38 128.5q-125 -156 -311 -156 q-114 0 -164.5 88t-22.5 236q24 125 78.5 231t124.5 175.5t149.5 108.5t157.5 39q154 0 214 -125q16 -34 2 -74l-128 -385q-37 -106 -23 -173t79 -67q62 0 114.5 59t88.5 151.5t59 213.5q41 230 11 399t-138 265t-277 96q-246 0 -437 -217t-263 -585q-44 -244 -11 -421 t144 -277t282 -100q197 0 340 94zM909 390l139 424q-38 106 -162 106q-126 0 -248 -134.5t-162 -341.5q-25 -125 8 -193.5t113 -68.5q166 0 312 208z" />
<glyph unicode="A" horiz-adv-x="924" d="M614 1298l-390 -822h460zM604 1400h60q19 0 22 -20l125 -1355q2 -11 -4 -18t-17 -7h-44q-21 0 -22 18l-32 384h-504l-182 -384q-10 -18 -28 -18h-44q-11 0 -14.5 7t1.5 18l653 1355q9 20 30 20z" />
<glyph unicode="B" horiz-adv-x="946" d="M376 0h-312q-8 0 -13.5 5.5t-3.5 13.5l265 1362q2 8 9 13.5t15 5.5h304q167 0 241.5 -97t42.5 -261q-22 -116 -75 -189.5t-147 -120.5q196 -83 144 -350q-36 -185 -157 -283.5t-313 -98.5zM276 762h290q102 0 176 78.5t98 199.5q25 132 -32 209t-185 77h-238zM762 382 q29 150 -33 229t-203 79h-264l-121 -618h248q152 0 248 81t125 229z" />
<glyph unicode="C" horiz-adv-x="890" d="M720 11q-93 -35 -211 -35q-124 0 -215.5 52t-141.5 146.5t-62.5 228t20.5 297.5q63 329 246.5 526.5t431.5 197.5q112 0 191 -37q15 -8 11 -23l-11 -39q-2 -10 -10.5 -13t-18.5 2q-74 36 -172 36q-212 0 -369 -176t-215 -474q-59 -299 30 -474.5t301 -175.5q102 0 194 34 q11 5 18.5 2t6.5 -13l-5 -39q-1 -16 -19 -23z" />
<glyph unicode="D" horiz-adv-x="1010" d="M888 700q62 322 -22.5 474t-338.5 152h-142l-243 -1252h142q253 0 397 152t207 474zM335 1400h205q286 0 393.5 -172t38.5 -528t-243.5 -528t-460.5 -172h-205q-8 0 -13 5.5t-3 13.5l265 1362q4 19 23 19z" />
<glyph unicode="E" horiz-adv-x="856" d="M47 19l265 1362q4 19 23 19h593q8 0 13 -5.5t3 -13.5l-7 -35q-4 -20 -24 -20h-528l-110 -566h490q8 0 13 -5.5t4 -13.5l-7 -35q-4 -20 -24 -20h-490l-119 -612h543q8 0 12 -6t3 -14l-7 -35q-4 -19 -22 -19h-608q-8 0 -13 5.5t-3 13.5z" />
<glyph unicode="F" horiz-adv-x="810" d="M47 19l265 1362q4 19 23 19h594q8 0 12.5 -5.5t2.5 -13.5l-7 -35q-4 -20 -23 -20h-529l-109 -560h490q8 0 13.5 -5.5t3.5 -13.5l-7 -35q-4 -20 -24 -20h-490l-131 -673q-4 -19 -22 -19h-44q-8 0 -13.5 6t-4.5 13z" />
<glyph unicode="G" horiz-adv-x="1056" d="M1055 1363q14 -9 10 -24l-11 -39q-2 -10 -11 -13t-19 3q-99 60 -246 60q-208 0 -367 -175t-217 -475q-59 -302 33 -476t312 -174q145 0 227 44l109 560h-306q-8 0 -13 6t-3 14l6 35q2 8 9 13.5t15 5.5h368q8 0 13 -5.5t3 -13.5l-122 -627q-4 -21 -12.5 -32.5t-26.5 -19.5 q-111 -54 -283 -54q-256 0 -367.5 194t-45.5 530q64 333 250 528.5t432 195.5q165 0 263 -61z" />
<glyph unicode="H" horiz-adv-x="1064" d="M47 19l265 1362q4 19 23 19h46q7 0 12 -5.5t3 -13.5l-116 -597h608l116 597q1 7 8 13t15 6h46q8 0 12.5 -5.5t2.5 -13.5l-265 -1362q-4 -19 -22 -19h-46q-8 0 -12.5 6t-3.5 13l135 691h-608l-135 -691q-4 -19 -22 -19h-46q-8 0 -13 5.5t-3 13.5z" />
<glyph unicode="I" horiz-adv-x="396" d="M348 1400h45q7 0 12 -5.5t3 -13.5l-265 -1362q-4 -19 -22 -19h-45q-8 0 -13.5 5.5t-3.5 13.5l265 1362q2 8 9 13.5t15 5.5z" />
<glyph unicode="J" horiz-adv-x="650" d="M-73 8q-16 8 -10 23l10 41q7 22 30 11q63 -33 144 -33q127 0 195 86t113 312l181 933q4 19 23 19h46q8 0 12.5 -5.5t2.5 -13.5l-183 -939q-49 -255 -139.5 -360.5t-262.5 -105.5q-99 0 -162 32z" />
<glyph unicode="K" horiz-adv-x="876" d="M396 1381l-120 -619l614 624q14 14 33 14h37q16 0 18.5 -10t-9.5 -21l-612 -623l421 -715q7 -11 1 -21t-22 -10h-44q-20 0 -28 14l-416 712l-138 -707q-4 -19 -23 -19h-44q-8 0 -13.5 5.5t-3.5 13.5l265 1362q2 8 9 13.5t15 5.5h44q8 0 13 -5.5t3 -13.5z" />
<glyph unicode="L" horiz-adv-x="848" d="M47 19l265 1362q1 7 8 13t15 6h44q8 0 13.5 -5.5t3.5 -13.5l-254 -1307h581q8 0 12.5 -6t2.5 -14l-7 -35q-4 -19 -22 -19h-646q-8 0 -12.5 6t-3.5 13z" />
<glyph unicode="M" horiz-adv-x="1268" d="M652 482h-50q-23 0 -28 20l-195 800l-250 -1283q-4 -19 -23 -19h-43q-8 0 -12.5 6t-3.5 13l265 1362q1 7 8.5 13t15.5 6h84q22 0 27 -20l199 -803l511 803q12 20 35 20h84q8 0 12.5 -6t3.5 -13l-265 -1362q-4 -19 -22 -19h-43q-8 0 -13.5 5.5t-3.5 13.5l250 1283 l-507 -800q-12 -20 -36 -20z" />
<glyph unicode="N" d="M689 21l-312 1265l-246 -1267q-4 -19 -22 -19h-46q-8 0 -13 5.5t-3 13.5l265 1362q4 19 23 19h81q22 0 27 -21l311 -1265l246 1267q1 7 8 13t15 6h46q8 0 12.5 -5.5t2.5 -13.5l-265 -1362q-4 -19 -22 -19h-81q-24 0 -27 21z" />
<glyph unicode="O" horiz-adv-x="1044" d="M417 -24q-218 0 -296.5 186.5t-10.5 537.5q68 350 219 537t369 187t297 -187.5t11 -536.5q-68 -351 -219.5 -537.5t-369.5 -186.5zM431 50q179 0 303.5 163.5t187.5 486.5q62 324 1.5 487t-239.5 163t-303 -163.5t-187 -486.5q-62 -324 -2 -487t239 -163z" />
<glyph unicode="P" horiz-adv-x="886" d="M236 560l-105 -541q-4 -19 -22 -19h-46q-8 0 -12.5 6t-3.5 13l265 1362q1 7 8 13t15 6h243q191 0 279.5 -108.5t48.5 -311.5q-40 -205 -170 -312.5t-322 -107.5h-178zM822 980q33 171 -35.5 258.5t-221.5 87.5h-180l-135 -694h180q154 0 256.5 88t135.5 260z" />
<glyph unicode="Q" horiz-adv-x="1044" d="M431 50q179 0 303.5 163.5t187.5 486.5q62 324 1.5 487t-239.5 163t-303 -163.5t-187 -486.5q-62 -324 -2 -487t239 -163zM754 -282q-60 -18 -129 -18q-121 0 -185.5 70t-46.5 206q-206 10 -278 196.5t-5 527.5q68 350 219 537t369 187t297 -187.5t11 -536.5 q-64 -327 -201 -512.5t-333 -207.5q-18 -102 27.5 -157t138.5 -55q70 0 114 17q12 5 19.5 1.5t6.5 -14.5l-2 -28q-3 -20 -22 -26z" />
<glyph unicode="R" horiz-adv-x="892" d="M829 1008q29 151 -34 234.5t-210 83.5h-200l-123 -636h200q148 0 243 83.5t124 234.5zM686 18l-172 602q-23 -4 -69 -4h-198l-116 -597q-4 -19 -23 -19h-44q-8 0 -13.5 5.5t-3.5 13.5l265 1362q2 8 9 13.5t15 5.5h262q185 0 267.5 -104.5t47.5 -287.5 q-27 -142 -109.5 -238t-208.5 -134l178 -607q4 -13 -2 -21t-20 -8h-38q-21 0 -27 18z" />
<glyph unicode="S" horiz-adv-x="808" d="M12 29q-15 7 -9 23l11 44q3 10 11.5 13t17.5 -2q96 -57 228 -57q138 0 227.5 78.5t116.5 217.5q24 125 -24.5 207.5t-179.5 142.5q-141 66 -192 159t-24 233q30 154 143.5 245t277.5 91q118 0 205 -41q14 -7 10 -23l-11 -41q-3 -10 -11.5 -13t-17.5 2q-74 42 -185 42 q-130 0 -216.5 -71t-110.5 -191q-22 -113 23 -189.5t168 -136.5q150 -72 204 -169.5t25 -246.5q-34 -174 -150.5 -272t-291.5 -98q-141 0 -245 53z" />
<glyph unicode="T" horiz-adv-x="792" d="M257 19l254 1307h-324q-8 0 -13 6t-3 14l7 35q2 8 9 13.5t15 5.5h733q8 0 12.5 -5.5t2.5 -13.5l-7 -35q-4 -20 -23 -20h-325l-254 -1307q-4 -19 -22 -19h-46q-8 0 -13 5.5t-3 13.5z" />
<glyph unicode="U" horiz-adv-x="1084" d="M849 480l175 901q4 19 23 19h46q8 0 12.5 -5.5t2.5 -13.5l-176 -905q-51 -261 -176 -380.5t-319 -119.5t-273 120t-28 380l176 905q4 19 23 19h46q8 0 12.5 -5.5t2.5 -13.5l-175 -901q-44 -229 14.5 -329.5t215.5 -100.5q156 0 255 101t143 329z" />
<glyph unicode="V" horiz-adv-x="976" d="M297 1382l110 -1280l608 1280q10 18 29 18h44q23 0 12 -25l-653 -1355q-9 -20 -29 -20h-60q-20 0 -23 20l-125 1355q-2 11 4.5 18t17.5 7h44q20 0 21 -18z" />
<glyph unicode="W" horiz-adv-x="1464" d="M870 1400h68q21 0 21 -18l8 -1294l539 1294q8 18 29 18h44q21 0 12 -25l-573 -1355q-8 -20 -29 -20h-79q-21 0 -23 20l-8 1254l-496 -1254q-8 -20 -29 -20h-79q-21 0 -23 20l-45 1355q-1 11 5 18t17 7h44q21 0 21 -18l37 -1294l510 1294q8 18 29 18z" />
<glyph unicode="X" horiz-adv-x="944" d="M715 18l-221 610l-459 -610q-14 -18 -34 -18h-48q-11 0 -14 8t5 19l511 679l-240 667q-4 11 2.5 19t17.5 8h42q21 0 27 -18l220 -600l452 600q14 18 35 18h42q11 0 13.5 -8t-5.5 -19l-498 -667l247 -679q4 -11 -2 -19t-17 -8h-48q-22 0 -28 18z" />
<glyph unicode="Y" horiz-adv-x="956" d="M300 1382l203 -734l489 734q12 18 35 18h39q11 0 13.5 -8t-4.5 -19l-547 -817l-105 -537q-4 -19 -22 -19h-46q-8 0 -13 5.5t-3 13.5l105 537l-231 817q-3 11 3.5 19t17.5 8h39q23 0 27 -18z" />
<glyph unicode="Z" horiz-adv-x="846" d="M-15 99l854 1227h-587q-8 0 -12 6t-3 14l7 35q1 7 8 13t15 6h662q7 0 12 -5.5t3 -13.5l-7 -36q-4 -20 -21 -44l-854 -1227h624q8 0 13 -6t3 -14l-7 -35q-4 -19 -23 -19h-699q-8 0 -12.5 6t-3.5 13l7 36q4 20 21 44z" />
<glyph unicode="[" horiz-adv-x="652" d="M69 -241l334 1722q4 19 23 19h344q7 0 12 -5.5t3 -13.5l-7 -36q-4 -19 -22 -19h-283l-314 -1612h283q8 0 12.5 -5.5t3.5 -13.5l-7 -36q-1 -7 -8 -13t-15 -6h-344q-8 0 -12.5 5.5t-2.5 13.5z" />
<glyph unicode="\" horiz-adv-x="666" d="M457 -201l-282 1669q-5 28 22 28h36q20 0 23 -19l282 -1669q5 -28 -22 -28h-36q-20 0 -23 19z" />
<glyph unicode="]" horiz-adv-x="652" d="M623 1481l-334 -1722q-4 -19 -23 -19h-344q-7 0 -12 5.5t-3 13.5l7 36q1 8 7.5 13.5t14.5 5.5h283l314 1612h-283q-8 0 -12.5 6t-3.5 13l7 36q1 7 8 13t15 6h344q8 0 12.5 -5.5t2.5 -13.5z" />
<glyph unicode="^" d="M560 1336l-349 -577q-13 -21 -39 -21h-35q-13 0 -17.5 9.5t1.5 19.5l375 613q12 20 32 20h64q20 0 32 -20l375 -613q6 -10 1.5 -19.5t-17.5 -9.5h-35q-26 0 -39 21z" />
<glyph unicode="_" horiz-adv-x="770" d="M-157 -298l7 37q3 19 22 19h731q8 0 12.5 -5.5t3.5 -13.5l-7 -37q-2 -8 -9 -14t-14 -6h-731q-8 0 -12.5 6t-2.5 14z" />
<glyph unicode="`" horiz-adv-x="620" d="M420 1444l126 -284q4 -10 -1 -17t-18 -7h-29q-23 0 -29 16l-131 281q-6 11 -1 19t18 8h38q20 0 27 -16z" />
<glyph unicode="a" horiz-adv-x="824" d="M513 1190h60q19 0 22 -20l102 -1145q2 -11 -4 -18t-17 -7h-44q-21 0 -22 18l-25 318h-416l-149 -318q-10 -18 -28 -18h-44q-11 0 -14.5 7t1.5 18l548 1145q9 20 30 20zM525 1096l-322 -686h376z" />
<glyph unicode="b" horiz-adv-x="810" d="M316 0h-272q-8 0 -13.5 5.5t-3.5 13.5l224 1152q2 8 9 13.5t15 5.5h264q142 0 204.5 -82.5t35.5 -223.5q-33 -176 -186 -260q79 -35 111 -111.5t11 -184.5q-31 -159 -134 -243.5t-265 -84.5zM463 654q88 0 150.5 64t81.5 164q21 108 -25 171t-150 63h-196l-89 -462h228z M631 328q49 252 -207 252h-204l-98 -506h206q125 0 202.5 65.5t100.5 188.5z" />
<glyph unicode="c" horiz-adv-x="774" d="M607 5q-74 -29 -176 -29q-214 0 -307 169t-39 449q54 281 212 450.5t372 169.5q92 0 161 -30q16 -7 11 -24l-11 -39q-2 -10 -10 -13.5t-18 1.5q-60 31 -143 31q-179 0 -310.5 -147.5t-179.5 -398.5q-49 -250 25 -397t253 -147q88 0 162 31q12 5 18.5 1.5t5.5 -13.5 l-5 -40q-2 -17 -21 -24z" />
<glyph unicode="d" horiz-adv-x="872" d="M733 594q52 270 -15.5 396t-275.5 126h-118l-202 -1042h118q207 0 324 125.5t169 394.5zM226 0h-183q-8 0 -13 5.5t-3 13.5l224 1152q4 19 23 19h183q240 0 329.5 -146t30.5 -450q-59 -303 -205 -448.5t-386 -145.5z" />
<glyph unicode="e" horiz-adv-x="736" d="M27 19l224 1152q4 19 23 19h506q8 0 12.5 -5.5t2.5 -13.5l-7 -35q-4 -20 -23 -20h-441l-90 -464h408q8 0 13 -5.5t4 -13.5l-7 -36q-5 -19 -24 -19h-408l-98 -504h453q8 0 12 -6t3 -14l-7 -35q-4 -19 -22 -19h-518q-8 0 -13 5.5t-3 13.5z" />
<glyph unicode="f" horiz-adv-x="714" d="M27 19l224 1152q4 19 23 19h506q8 0 12.5 -5.5t2.5 -13.5l-7 -35q-4 -20 -23 -20h-441l-90 -464h409q18 0 16 -19l-7 -36q-5 -19 -23 -19h-409l-109 -559q-4 -19 -23 -19h-45q-8 0 -13 5.5t-3 13.5z" />
<glyph unicode="g" horiz-adv-x="910" d="M681 22q-99 -46 -240 -46q-219 0 -315.5 164.5t-40.5 453.5q56 286 215.5 453t372.5 167q138 0 221 -50q15 -8 11 -24l-11 -40q-2 -10 -10.5 -14t-17.5 2q-85 52 -207 52q-176 0 -308.5 -146t-181.5 -400q-49 -253 27.5 -398.5t260.5 -145.5q112 0 182 32l91 468h-250 q-8 0 -13 6t-3 14l7 35q2 8 9 13.5t15 5.5h313q8 0 12.5 -5.5t2.5 -13.5l-103 -531q-8 -37 -39 -52z" />
<glyph unicode="h" horiz-adv-x="912" d="M27 19l224 1152q4 19 23 19h45q8 0 13 -5.5t3 -13.5l-97 -499h496l97 499q1 7 8 13t15 6h46q8 0 12.5 -5.5t2.5 -13.5l-224 -1152q-4 -19 -22 -19h-46q-8 0 -12.5 6t-3.5 13l113 579h-496l-113 -579q-4 -19 -23 -19h-45q-8 0 -13 5.5t-3 13.5z" />
<glyph unicode="i" horiz-adv-x="352" d="M285 1190h44q8 0 13 -5.5t3 -13.5l-224 -1152q-4 -19 -23 -19h-44q-8 0 -13.5 5.5t-3.5 13.5l224 1152q2 8 9 13.5t15 5.5z" />
<glyph unicode="j" horiz-adv-x="564" d="M-74 2q-16 6 -11 23l11 40q7 23 26 12q51 -27 125 -27q105 0 160.5 71t91.5 257l154 793q1 7 8 13t15 6h46q7 0 12 -5.5t3 -13.5l-155 -797q-42 -218 -120.5 -308t-228.5 -90q-77 0 -137 26z" />
<glyph unicode="k" horiz-adv-x="772" d="M567 14l-340 602l-116 -597q-4 -19 -23 -19h-44q-8 0 -13.5 5.5t-3.5 13.5l224 1152q2 8 9 13.5t15 5.5h44q8 0 13 -5.5t3 -13.5l-102 -523l508 528q14 14 33 14h34q16 0 18.5 -10t-9.5 -21l-502 -525l339 -603q7 -11 1 -21t-22 -10h-38q-20 0 -28 14z" />
<glyph unicode="l" horiz-adv-x="728" d="M27 19l224 1152q1 7 8 13t15 6h46q7 0 12 -5.5t3 -13.5l-213 -1097h481q8 0 12.5 -6t2.5 -14l-7 -35q-4 -19 -22 -19h-546q-8 0 -12.5 6t-3.5 13z" />
<glyph unicode="m" horiz-adv-x="1092" d="M387 1170l156 -666l416 666q12 20 35 20h86q7 0 12 -5.5t3 -13.5l-224 -1152q-4 -19 -22 -19h-44q-8 0 -13 5.5t-3 13.5l210 1077l-419 -670q-12 -20 -36 -20h-40q-23 0 -28 20l-157 670l-210 -1077q-4 -19 -22 -19h-44q-8 0 -12.5 6t-3.5 13l224 1152q1 7 8 13t15 6h86 q22 0 27 -20z" />
<glyph unicode="n" horiz-adv-x="912" d="M565 19l-250 1061l-206 -1061q-4 -19 -22 -19h-44q-8 0 -13 5.5t-3 13.5l224 1152q4 19 23 19h79q21 0 24 -19l250 -1061l206 1061q1 7 8 13t15 6h44q8 0 12.5 -5.5t2.5 -13.5l-224 -1152q-4 -19 -22 -19h-79q-21 0 -25 19z" />
<glyph unicode="o" horiz-adv-x="904" d="M849 594q-57 -296 -187 -457t-315 -161t-252 161t-10 457q58 297 187.5 458.5t314.5 161.5t252.5 -161.5t9.5 -458.5zM169 594q-52 -270 -3.5 -407t195.5 -137t249.5 137t154.5 407q52 272 3.5 409t-195.5 137t-249.5 -137.5t-154.5 -408.5z" />
<glyph unicode="p" horiz-adv-x="762" d="M199 470l-88 -451q-4 -19 -22 -19h-46q-8 0 -12.5 6t-3.5 13l224 1152q1 7 8 13t15 6h215q161 0 234.5 -92.5t39.5 -267.5t-143.5 -267.5t-270.5 -92.5h-150zM679 830q27 142 -27 214t-180 72h-148l-111 -572h148q126 0 208.5 72t109.5 214z" />
<glyph unicode="q" horiz-adv-x="904" d="M169 594q-52 -270 -3.5 -407t195.5 -137t249.5 137t154.5 407q52 272 3.5 409t-195.5 137t-249.5 -137.5t-154.5 -408.5zM631 -242q-50 -16 -108 -16q-102 0 -158 60t-42 176q-171 10 -232.5 170t-5.5 446q58 297 187.5 458.5t314.5 161.5t252.5 -161.5t9.5 -458.5 q-53 -275 -169.5 -434t-281.5 -180q-13 -81 25.5 -125.5t115.5 -44.5q45 0 92 15q25 8 25 -15l-2 -26q-1 -20 -23 -26z" />
<glyph unicode="r" horiz-adv-x="786" d="M693 852q24 126 -26.5 195t-170.5 69h-172l-101 -524h172q120 0 197 68t101 192zM572 18l-144 500h-220l-97 -499q-4 -19 -23 -19h-44q-8 0 -13.5 5.5t-3.5 13.5l224 1152q2 8 9 13.5t15 5.5h236q155 0 226 -90.5t40 -247.5q-23 -118 -95 -201t-176 -115l149 -507 q4 -13 -2 -21t-20 -8h-34q-21 0 -27 18z" />
<glyph unicode="s" horiz-adv-x="696" d="M36 98q80 -48 189 -48q114 0 188 65.5t96 178.5q19 101 -21.5 171t-146.5 121q-227 109 -182 336q26 133 123.5 212.5t238.5 79.5q103 0 173 -32q16 -8 12 -24l-11 -40q-7 -22 -29 -12q-65 34 -153 34q-108 0 -179.5 -59t-90.5 -159q-33 -172 159 -270 q123 -62 169 -146.5t22 -209.5q-29 -150 -130 -235t-252 -85q-121 0 -204 42q-16 7 -11 24l11 44q3 10 11 13.5t18 -1.5z" />
<glyph unicode="t" horiz-adv-x="700" d="M211 19l213 1097h-268q-8 0 -13 6t-3 14l7 35q2 8 9 13.5t15 5.5h621q7 0 12 -5.5t3 -13.5l-7 -35q-1 -8 -8 -14t-15 -6h-269l-213 -1097q-4 -19 -23 -19h-45q-8 0 -13 5.5t-3 13.5z" />
<glyph unicode="u" horiz-adv-x="932" d="M702 404l149 767q4 19 23 19h45q8 0 13 -5.5t3 -13.5l-149 -769q-44 -222 -151 -324t-274 -102t-235 102t-24 324l149 769q4 19 23 19h46q7 0 12 -5.5t3 -13.5l-149 -767q-37 -187 11 -270.5t178 -83.5t210 83.5t117 270.5z" />
<glyph unicode="v" horiz-adv-x="832" d="M248 1172l86 -1078l504 1078q10 18 29 18h44q11 0 14 -7t-2 -18l-548 -1145q-9 -20 -29 -20h-60q-20 0 -23 20l-102 1145q-1 11 5 18t17 7h44q20 0 21 -18z" />
<glyph unicode="w" horiz-adv-x="1240" d="M716 1190h70q10 0 16 -4.5t5 -13.5l-5 -1086l447 1086q8 18 29 18h40q24 0 14 -25l-479 -1145q-8 -20 -29 -20h-78q-21 0 -23 20l4 1048l-404 -1048q-8 -20 -29 -20h-78q-21 0 -23 20l-33 1145q0 25 24 25h40q21 0 21 -18l25 -1086l417 1086q7 18 29 18z" />
<glyph unicode="x" horiz-adv-x="806" d="M587 18l-183 502l-379 -502q-14 -18 -34 -18h-44q-11 0 -14 8t5 19l435 575l-204 561q-4 11 1.5 19t17.5 8h40q21 0 27 -18l180 -488l370 488q14 18 35 18h40q11 0 13.5 -8t-4.5 -19l-422 -561l211 -575q4 -11 -2 -19t-17 -8h-44q-22 0 -28 18z" />
<glyph unicode="y" horiz-adv-x="820" d="M905 1163l-462 -691l-88 -453q-4 -19 -23 -19h-45q-8 0 -13 5.5t-3 13.5l88 453l-192 691q-4 11 2.5 19t17.5 8h37q23 0 27 -18l168 -610l404 610q12 18 35 18h37q11 0 14 -8t-4 -19z" />
<glyph unicode="z" horiz-adv-x="738" d="M-14 98l704 1018h-479q-8 0 -12.5 6t-2.5 14l7 35q4 19 23 19h554q7 0 12 -5.5t3 -13.5l-7 -36q-4 -23 -19 -43l-705 -1018h513q8 0 12.5 -6t2.5 -14l-7 -35q-4 -19 -22 -19h-588q-8 0 -12.5 6t-3.5 13l7 36q4 21 20 43z" />
<glyph unicode="{" horiz-adv-x="670" d="M161 606l6 28q4 22 24 28q58 19 94.5 60.5t51.5 119.5l91 466q19 97 74.5 144.5t136.5 47.5h148q8 0 13 -5.5t3 -13.5l-7 -36q-4 -19 -23 -19h-146q-94 0 -115 -108l-95 -488q-33 -164 -169 -210q120 -47 87 -210l-95 -488q-21 -108 73 -108h146q8 0 13.5 -5.5t3.5 -13.5 l-7 -36q-2 -8 -9 -13.5t-15 -5.5h-148q-81 0 -118.5 47.5t-18.5 144.5l91 466q15 78 -5.5 119.5t-70.5 60.5q-18 7 -14 28z" />
<glyph unicode="|" horiz-adv-x="460" d="M224 -380v1898q0 8 5.5 14t13.5 6h34q8 0 13.5 -6t5.5 -14v-1898q0 -8 -5.5 -14t-13.5 -6h-34q-8 0 -13.5 6t-5.5 14z" />
<glyph unicode="}" horiz-adv-x="670" d="M549 634l-6 -28q-4 -22 -24 -28q-58 -19 -94.5 -60.5t-51.5 -119.5l-91 -466q-19 -97 -74.5 -144.5t-136.5 -47.5h-148q-8 0 -13 5.5t-3 13.5l7 36q4 19 23 19h146q94 0 115 108l95 488q33 164 169 210q-120 47 -87 210l95 488q21 108 -73 108h-146q-8 0 -13.5 5.5 t-3.5 13.5l7 36q2 8 9 13.5t15 5.5h148q81 0 118.5 -47.5t18.5 -144.5l-91 -466q-15 -78 5.5 -119.5t70.5 -60.5q18 -7 14 -28z" />
<glyph unicode="~" d="M772 512q-135 0 -234 116q-55 63 -98.5 88.5t-95.5 25.5q-71 0 -111.5 -52t-44.5 -156q0 -8 -5.5 -13t-13.5 -5h-46q-8 0 -13.5 6t-5.5 14q6 140 72.5 209t171.5 69q135 0 234 -116q55 -63 98.5 -88.5t95.5 -25.5q71 0 111.5 52t44.5 156q0 8 5.5 13t13.5 5h46 q8 0 13.5 -6t5.5 -14q-6 -140 -72.5 -209t-171.5 -69z" />
<glyph unicode="&#xa1;" horiz-adv-x="416" d="M254 826h28q8 0 13 -5.5t3 -13.5l-110 -628l-77 -396q-4 -19 -22 -19h-54q-8 0 -13 5.5t-3 13.5l77 396l134 628q2 8 9 13.5t15 5.5zM266 1092q11 56 27.5 77t45.5 21t37 -20.5t-2 -77.5q-11 -56 -27.5 -77t-45.5 -21t-37 20.5t2 77.5z" />
<glyph unicode="&#xa2;" horiz-adv-x="774" d="M586 1206l31 161q3 19 23 19h26q18 0 15 -19l-30 -153h18q92 0 161 -30q16 -7 11 -24l-11 -39q-2 -10 -10 -13.5t-18 1.5q-60 31 -143 31q-15 0 -22 -1l-212 -1089h22q88 0 162 31q12 5 18.5 1.5t5.5 -13.5l-5 -40q-2 -17 -21 -24q-74 -29 -176 -29q-14 0 -20 1l-30 -154 q-3 -19 -23 -19h-26q-18 0 -15 19l31 161q-171 32 -241.5 196t-21.5 414q49 252 182.5 416t318.5 196zM169 594q-43 -218 8.5 -359t185.5 -175l208 1070q-148 -34 -254 -176t-148 -360z" />
<glyph unicode="&#xa3;" horiz-adv-x="860" d="M899 1375q14 -7 10 -23l-10 -39q-3 -10 -11.5 -12.5t-17.5 2.5q-82 47 -196 47q-244 0 -307 -326l-53 -268h336q8 0 13.5 -5.5t3.5 -13.5l-5 -22q-1 -7 -8 -13t-15 -6h-336l-40 -204q-52 -271 -193 -418h641q18 0 15 -19l-7 -36q-4 -19 -22 -19h-714q-8 0 -12.5 6 t-3.5 13l7 35q3 20 27 44q126 132 177 388l41 210h-101q-7 0 -12 5.5t-4 13.5l5 22q4 19 22 19h101l53 268q39 200 140 300t257 100q128 0 219 -49z" />
<glyph unicode="&#xa4;" horiz-adv-x="1318" d="M409 349l-160 -163q-5 -6 -13.5 -6t-13.5 6l-34 36q-14 14 0 27l161 161q-98 119 -98 272q0 152 98 272l-161 161q-14 13 0 27l34 36q5 6 13.5 6t13.5 -6l160 -164q123 104 280 104t280 -104l160 164q5 6 13.5 6t13.5 -6l34 -36q14 -14 0 -27l-161 -161q98 -120 98 -272 q0 -153 -98 -272l161 -161q14 -13 0 -27l-34 -36q-5 -6 -13.5 -6t-13.5 6l-160 163q-124 -103 -280 -103t-280 103zM335 682q0 -150 102.5 -253t251.5 -103t251.5 103t102.5 253t-102.5 253t-251.5 103t-251.5 -103t-102.5 -253z" />
<glyph unicode="&#xa5;" horiz-adv-x="832" d="M339 0h-46q-8 0 -13 5.5t-3 13.5l65 335h-284q-8 0 -13 6t-3 14l4 21q2 8 9 13.5t15 5.5h284l33 168h-284q-8 0 -13 5.5t-4 13.5l5 22q3 19 23 19h260l-171 731q-3 12 3 19.5t18 7.5h36q24 0 28 -19l158 -709l434 709q12 19 36 19h36q11 0 13.5 -7.5t-4.5 -19.5 l-455 -731h260q8 0 13 -5.5t4 -13.5l-5 -22q-3 -19 -23 -19h-284l-33 -168h284q8 0 13 -5.5t3 -13.5l-4 -21q-4 -20 -24 -20h-284l-65 -335q-4 -19 -22 -19z" />
<glyph unicode="&#xa6;" horiz-adv-x="460" d="M243 442h34q8 0 13.5 -5.5t5.5 -13.5v-604q0 -19 -19 -19h-34q-8 0 -13.5 5.5t-5.5 13.5v604q0 7 6 13t13 6zM243 1376h34q8 0 13.5 -5.5t5.5 -13.5v-604q0 -19 -19 -19h-34q-8 0 -13.5 5.5t-5.5 13.5v604q0 7 6 13t13 6z" />
<glyph unicode="&#xa7;" horiz-adv-x="790" d="M603 614q26 135 -106 216q-109 -3 -178.5 -58t-86.5 -144q-29 -142 128 -226q98 9 162 65.5t81 146.5zM12 -149q-16 10 -11 27l9 33q3 10 12.5 14t18.5 -2q78 -53 187 -53q106 0 178 56t90 150q16 84 -21 141t-130 99q-236 106 -196 310q20 103 91.5 168t171.5 82 q-95 53 -136.5 120t-22.5 166q24 124 116.5 193t222.5 69q101 0 181 -34q15 -7 11 -25l-9 -30q-3 -10 -12 -13.5t-18 1.5q-66 31 -160 31q-97 0 -163.5 -52t-83.5 -138q-30 -154 154 -236q121 -55 167.5 -131t25.5 -181q-20 -100 -86.5 -166t-160.5 -88q180 -93 143 -282 q-26 -131 -123.5 -204.5t-236.5 -73.5q-129 0 -209 49z" />
<glyph unicode="&#xa8;" horiz-adv-x="620" d="M253 1296q11 55 26.5 75.5t44.5 20.5t36.5 -20t-3.5 -76q-10 -55 -25.5 -75.5t-44.5 -20.5t-36.5 20t2.5 76zM565 1296q11 55 26.5 75.5t44.5 20.5t36.5 -20t-3.5 -76q-10 -55 -25.5 -75.5t-44.5 -20.5t-36.5 20t2.5 76z" />
<glyph unicode="&#xa9;" horiz-adv-x="1196" d="M628 1424q160 0 280 -95t181 -258t61 -371q0 -209 -61.5 -372t-181 -257.5t-279.5 -94.5q-161 0 -281 94.5t-181.5 257.5t-61.5 372q0 208 61.5 371t181.5 258t281 95zM628 30q144 0 250 88t160 238.5t54 343.5t-54 343.5t-160 238.5t-250 88t-250.5 -87.5t-161 -238.5 t-54.5 -344t54.5 -344t161 -238.5t250.5 -87.5zM664 262q-144 0 -238 113.5t-94 320.5q0 205 94 319.5t238 114.5q91 0 159 -34q16 -8 14 -25l-2 -27q-1 -11 -10 -14.5t-18 2.5q-57 32 -139 32q-118 0 -190 -96.5t-72 -271.5q0 -176 71.5 -272t190.5 -96q81 0 139 31 q9 6 18 2.5t10 -14.5l2 -27q2 -18 -15 -26q-64 -32 -158 -32z" />
<glyph unicode="&#xaa;" horiz-adv-x="648" d="M480 1320l-183 -394h212zM461 1400h70q15 0 16 -15l62 -703q2 -24 -22 -24h-43q-14 0 -16 14l-14 186h-248l-86 -186q-5 -14 -22 -14h-43q-23 0 -12 24l336 703q7 15 22 15z" />
<glyph unicode="&#xab;" horiz-adv-x="894" d="M141 606l7 32q1 13 14 24l409 341q11 9 19.5 5.5t6.5 -15.5l-8 -40q-4 -19 -23 -35l-358 -296l243 -296q13 -16 9 -35l-8 -40q-2 -12 -12 -15.5t-17 5.5l-276 341q-9 10 -6 24zM427 606l7 32q1 13 14 24l409 341q11 9 19.5 5.5t6.5 -15.5l-8 -40q-4 -19 -23 -35 l-358 -296l243 -296q13 -16 9 -35l-8 -40q-2 -12 -12 -15.5t-17 5.5l-276 341q-9 10 -6 24z" />
<glyph unicode="&#xac;" d="M104 817v38q0 8 6 13.5t14 5.5h853q8 0 13.5 -5.5t5.5 -13.5v-511q0 -8 -5.5 -14t-13.5 -6h-46q-8 0 -13.5 6t-5.5 14v454h-788q-8 0 -14 5.5t-6 13.5z" />
<glyph unicode="&#xad;" horiz-adv-x="712" d="M609 624h-465q-7 0 -12 5.5t-4 13.5l9 42q4 19 22 19h465q8 0 13.5 -5.5t3.5 -13.5l-9 -42q-1 -7 -8 -13t-15 -6z" />
<glyph unicode="&#xae;" horiz-adv-x="1196" d="M800 870q0 89 -47.5 134.5t-138.5 45.5h-124v-360h124q91 0 138.5 46.5t47.5 133.5zM628 1424q160 0 280 -95t181 -258t61 -371q0 -209 -61.5 -372t-181 -257.5t-279.5 -94.5q-161 0 -281 94.5t-181.5 257.5t-61.5 372q0 208 61.5 371t181.5 258t281 95zM628 30 q144 0 250 88t160 238.5t54 343.5t-54 343.5t-160 238.5t-250 88t-250.5 -87.5t-161 -238.5t-54.5 -344t54.5 -344t161 -238.5t250.5 -87.5zM732 646l160 -336q14 -28 -17 -28h-28q-21 0 -28 16l-155 330q-36 -4 -56 -4h-118v-323q0 -7 -6 -13t-13 -6h-36q-8 0 -13.5 5.5 t-5.5 13.5v796q0 8 5.5 13.5t13.5 5.5h181q117 0 187.5 -65.5t70.5 -180.5q0 -82 -38 -140t-104 -84z" />
<glyph unicode="&#xaf;" horiz-adv-x="620" d="M238 1280l7 32q4 20 22 20h401q8 0 13 -6t4 -14l-7 -32q-4 -20 -24 -20h-401q-8 0 -12.5 6t-2.5 14z" />
<glyph unicode="&#xb0;" horiz-adv-x="620" d="M486 1424q98 0 154 -68t37 -164t-101 -164t-180 -68t-154 68t-37 164t101 164t180 68zM409 1024q69 0 126.5 49.5t71.5 118.5t-25 118.5t-108 49.5t-127 -49.5t-72 -118.5t25.5 -118.5t108.5 -49.5z" />
<glyph unicode="&#xb1;" d="M986 112h-853q-8 0 -13.5 5.5t-5.5 13.5v38q0 7 6 13t13 6h853q8 0 14 -5.5t6 -13.5v-38q0 -8 -6 -13.5t-14 -5.5zM518 353v401h-385q-7 0 -13 6t-6 13v38q0 7 6 13t13 6h385v400q0 8 5.5 14t13.5 6h46q8 0 13.5 -6t5.5 -14v-400h384q8 0 14 -5.5t6 -13.5v-38 q0 -8 -6 -13.5t-14 -5.5h-384v-401q0 -8 -5.5 -13.5t-13.5 -5.5h-46q-8 0 -13.5 5.5t-5.5 13.5z" />
<glyph unicode="&#xb2;" horiz-adv-x="614" d="M290 1315q-11 -6 -18.5 -2.5t-6.5 14.5l3 31q1 14 19 22q85 36 164 36q115 0 161.5 -66t22.5 -188q-27 -139 -159 -306q-161 -200 -294 -318h319q8 0 12.5 -5.5t2.5 -13.5l-5 -28q-1 -8 -8 -13.5t-15 -5.5h-390q-18 0 -15 19l5 24q3 21 26 42q157 145 312 341 q107 133 133 262q37 190 -125 190q-71 0 -144 -35z" />
<glyph unicode="&#xb3;" horiz-adv-x="614" d="M109 483q-14 6 -9 22l8 31q6 24 29 13q54 -27 124 -27q93 0 151.5 52t74.5 132q40 209 -202 218q-7 0 -11.5 6t-2.5 14l5 25q4 19 22 19q118 5 186 61.5t83 130.5q15 79 -22 124.5t-111 45.5q-72 0 -136 -27q-12 -5 -19 -1t-6 14l4 27q2 16 19 22q76 31 155 31 q111 0 162.5 -60.5t30.5 -171.5q-16 -82 -72 -141t-138 -85q86 -38 117 -96.5t12 -153.5q-22 -114 -105 -183t-206 -69q-88 0 -143 27z" />
<glyph unicode="&#xb4;" horiz-adv-x="620" d="M312 1160l236 284q13 16 33 16h38q13 0 15 -8t-8 -19l-241 -281q-13 -16 -35 -16h-29q-13 0 -15.5 7t6.5 17z" />
<glyph unicode="&#xb5;" horiz-adv-x="1092" d="M387 1170l156 -666l416 666q12 20 35 20h86q7 0 12 -5.5t3 -13.5l-224 -1152q-4 -19 -22 -19h-44q-8 0 -13 5.5t-3 13.5l210 1077l-419 -670q-12 -20 -36 -20h-40q-23 0 -28 20l-157 670l-210 -1077q-4 -19 -22 -19h-44q-8 0 -12.5 6t-3.5 13l224 1152q1 7 8 13t15 6h86 q22 0 27 -20z" />
<glyph unicode="&#xb6;" horiz-adv-x="854" d="M504 -243v895h-56q-79 0 -145.5 22.5t-118.5 66.5t-81 117t-29 168t29 168.5t81 117.5t118.5 66t145.5 22h271q7 0 13 -6t6 -13v-1624q0 -7 -6 -13t-13 -6h-38q-7 0 -13 6t-6 13v1567h-82v-1567q0 -7 -6 -13t-13 -6h-38q-7 0 -13 6t-6 13z" />
<glyph unicode="&#xb7;" horiz-adv-x="436" d="M216 662q11 56 27.5 77t45.5 21t37 -20.5t-2 -77.5q-11 -56 -27.5 -77t-45.5 -21t-37 20.5t2 77.5z" />
<glyph unicode="&#xb8;" horiz-adv-x="620" d="M97 -172q-21 5 -7 29l75 128q9 15 25 15h42q19 0 8 -18l-68 -114q62 -22 91.5 -69t16.5 -113q-14 -73 -73 -117.5t-140 -44.5q-41 0 -67 9q-14 4 -11 20l5 29q4 19 23 13q25 -9 54 -9q51 0 88.5 27.5t47.5 74.5q21 110 -110 140z" />
<glyph unicode="&#xb9;" horiz-adv-x="614" d="M442 1298l-146 -113q-7 -6 -16 -5t-13 8l-14 26q-7 13 7 25l197 151q15 12 34 12h27q8 0 13 -5.5t3 -13.5l-173 -892q-1 -8 -8.5 -13.5t-15.5 -5.5h-36q-19 0 -16 19z" />
<glyph unicode="&#xba;" horiz-adv-x="656" d="M503 1416q118 0 172.5 -106.5t20.5 -279.5q-33 -173 -129 -279.5t-214 -106.5t-172.5 106.5t-20.5 279.5q33 173 129 279.5t214 106.5zM366 714q83 0 153 83.5t99 232.5t-8.5 232.5t-120.5 83.5t-152.5 -83.5t-98.5 -232.5t8 -232.5t120 -83.5z" />
<glyph unicode="&#xbb;" horiz-adv-x="894" d="M794 638l-7 -32q-3 -14 -14 -24l-410 -341q-10 -9 -18.5 -5.5t-6.5 15.5l8 40q4 19 23 35l357 296l-242 296q-13 16 -9 35l8 40q2 12 12 15.5t16 -5.5l277 -341q8 -9 6 -24zM508 638l-7 -32q-3 -14 -14 -24l-410 -341q-10 -9 -18.5 -5.5t-6.5 15.5l8 40q4 19 23 35 l357 296l-242 296q-13 16 -9 35l8 40q2 12 12 15.5t16 -5.5l277 -341q8 -9 6 -24z" />
<glyph unicode="&#xbc;" horiz-adv-x="1414" d="M442 1298l-146 -113q-7 -6 -16 -5t-13 8l-14 26q-7 13 7 25l197 151q15 12 34 12h27q8 0 13 -5.5t3 -13.5l-173 -892q-1 -8 -8.5 -13.5t-15.5 -5.5h-36q-19 0 -16 19zM1211 212l-38 -193q-3 -19 -23 -19h-36q-8 0 -13 5.5t-4 13.5l38 193h-329q-8 0 -12.5 5.5t-3.5 13.5 l5 24q5 23 19 42l446 610q15 21 36 21h34q8 0 13 -5.5t3 -13.5l-123 -633h65q8 0 12.5 -5.5t2.5 -13.5l-5 -26q-3 -19 -22 -19h-65zM1247 792l-374 -516h274zM1202 1410l-853 -1425q-9 -15 -25 -15h-30q-22 0 -10 20l853 1425q7 15 24 15h30q22 0 11 -20z" />
<glyph unicode="&#xbd;" horiz-adv-x="1414" d="M442 1298l-146 -113q-7 -6 -16 -5t-13 8l-14 26q-7 13 7 25l197 151q15 12 34 12h27q8 0 13 -5.5t3 -13.5l-173 -892q-1 -8 -8.5 -13.5t-15.5 -5.5h-36q-19 0 -16 19zM1010 843q-11 -6 -18.5 -2.5t-5.5 14.5l3 31q1 14 18 22q85 36 164 36q115 0 161.5 -65.5t23.5 -188.5 q-27 -137 -160 -306q-164 -204 -294 -318h319q8 0 12.5 -5.5t3.5 -13.5l-6 -28q-1 -8 -7.5 -13.5t-14.5 -5.5h-390q-19 0 -16 19l5 24q3 21 26 42q157 145 312 341q109 136 133 262q19 95 -14 142.5t-111 47.5q-71 0 -144 -35zM1142 1410l-853 -1425q-9 -15 -25 -15h-30 q-22 0 -10 20l853 1425q7 15 24 15h30q22 0 11 -20z" />
<glyph unicode="&#xbe;" horiz-adv-x="1414" d="M109 483q-14 6 -9 22l8 31q6 24 29 13q54 -27 124 -27q93 0 151.5 52t74.5 132q40 209 -202 218q-7 0 -11.5 6t-2.5 14l5 25q4 19 22 19q118 5 186 61.5t83 130.5q15 79 -22 124.5t-111 45.5q-72 0 -136 -27q-12 -5 -19 -1t-6 14l4 27q2 16 19 22q76 31 155 31 q111 0 162.5 -60.5t30.5 -171.5q-16 -82 -72 -141t-138 -85q86 -38 117 -96.5t12 -153.5q-22 -114 -105 -183t-206 -69q-88 0 -143 27zM1211 212l-38 -193q-3 -19 -23 -19h-36q-8 0 -13 5.5t-4 13.5l38 193h-329q-8 0 -12.5 5.5t-3.5 13.5l5 24q5 23 19 42l446 610 q15 21 36 21h34q8 0 13 -5.5t3 -13.5l-123 -633h65q8 0 12.5 -5.5t2.5 -13.5l-5 -26q-3 -19 -22 -19h-65zM1247 792l-374 -516h274zM1260 1410l-853 -1425q-9 -15 -25 -15h-30q-22 0 -10 20l853 1425q7 15 24 15h30q22 0 11 -20z" />
<glyph unicode="&#xbf;" horiz-adv-x="802" d="M636 1092q-11 -56 -27.5 -77t-45.5 -21t-37 20.5t2 77.5q11 56 27.5 77t45.5 21t37 -20.5t-2 -77.5zM558 -129q12 6 20 2.5t7 -14.5l-4 -35q-1 -18 -21 -28q-117 -56 -241 -56q-163 0 -238 85.5t-45 240.5q20 102 82.5 193.5t181.5 186.5q77 61 114.5 135t61.5 195l6 27 q1 8 7.5 13.5t14.5 5.5h46q8 0 12.5 -5.5t3.5 -13.5l-7 -35q-27 -138 -74 -223t-140 -159q-104 -82 -155 -158t-68 -166q-23 -115 32.5 -181.5t182.5 -66.5q115 0 221 57z" />
<glyph unicode="&#xc0;" horiz-adv-x="924" d="M614 1298l-390 -822h460zM604 1400h60q19 0 22 -20l125 -1355q2 -11 -4 -18t-17 -7h-44q-21 0 -22 18l-32 384h-504l-182 -384q-10 -18 -28 -18h-44q-11 0 -14.5 7t1.5 18l653 1355q9 20 30 20zM602 1832l125 -284q5 -10 0 -17t-18 -7h-29q-23 0 -29 16l-132 281 q-5 11 0 19t18 8h38q20 0 27 -16z" />
<glyph unicode="&#xc1;" horiz-adv-x="924" d="M614 1298l-390 -822h460zM604 1400h60q19 0 22 -20l125 -1355q2 -11 -4 -18t-17 -7h-44q-21 0 -22 18l-32 384h-504l-182 -384q-10 -18 -28 -18h-44q-11 0 -14.5 7t1.5 18l653 1355q9 20 30 20zM595 1548l237 284q13 16 33 16h38q13 0 14.5 -8t-8.5 -19l-240 -281 q-13 -16 -35 -16h-29q-13 0 -15.5 7t5.5 17z" />
<glyph unicode="&#xc2;" horiz-adv-x="924" d="M614 1298l-390 -822h460zM604 1400h60q19 0 22 -20l125 -1355q2 -11 -4 -18t-17 -7h-44q-21 0 -22 18l-32 384h-504l-182 -384q-10 -18 -28 -18h-44q-11 0 -14.5 7t1.5 18l653 1355q9 20 30 20zM690 1848h62q17 0 23 -14l128 -285q4 -10 -1.5 -17.5t-18.5 -7.5h-34 q-19 0 -26 15l-114 247l-210 -247q-12 -15 -32 -15h-34q-13 0 -16 7t6 18l238 285q12 14 29 14z" />
<glyph unicode="&#xc3;" horiz-adv-x="924" d="M614 1298l-390 -822h460zM604 1400h60q19 0 22 -20l125 -1355q2 -11 -4 -18t-17 -7h-44q-21 0 -22 18l-32 384h-504l-182 -384q-10 -18 -28 -18h-44q-11 0 -14.5 7t1.5 18l653 1355q9 20 30 20zM599 1820q45 0 72.5 -22.5t44.5 -75.5q18 -56 33 -78t38 -22q33 0 57.5 40 t44.5 135q1 8 7.5 13.5t14.5 5.5h32q19 0 16 -19q-28 -133 -72.5 -189t-107.5 -56q-45 0 -72.5 22.5t-44.5 75.5q-18 57 -32.5 78.5t-37.5 21.5q-33 0 -57.5 -40t-44.5 -135q-1 -8 -8 -13.5t-15 -5.5h-32q-18 0 -15 19q28 133 72 189t107 56z" />
<glyph unicode="&#xc4;" horiz-adv-x="924" d="M614 1298l-390 -822h460zM604 1400h60q19 0 22 -20l125 -1355q2 -11 -4 -18t-17 -7h-44q-21 0 -22 18l-32 384h-504l-182 -384q-10 -18 -28 -18h-44q-11 0 -14.5 7t1.5 18l653 1355q9 20 30 20zM481 1686q11 55 26.5 75.5t44.5 20.5t36.5 -20t-3.5 -76 q-10 -55 -25.5 -75.5t-44.5 -20.5t-36.5 20t2.5 76zM793 1686q11 55 26.5 75.5t44.5 20.5t36.5 -20t-3.5 -76q-10 -55 -25.5 -75.5t-44.5 -20.5t-36.5 20t2.5 76z" />
<glyph unicode="&#xc5;" horiz-adv-x="924" d="M614 1298l-390 -822h460zM604 1400h60q19 0 22 -20l125 -1355q2 -11 -4 -18t-17 -7h-44q-21 0 -22 18l-32 384h-504l-182 -384q-10 -18 -28 -18h-44q-11 0 -14.5 7t1.5 18l653 1355q9 20 30 20zM728 1884q85 0 132 -59t30 -143q-16 -84 -86 -143t-155 -59t-132 59 t-31 143q17 84 87 143t155 59zM661 1540q58 0 106 41t59 101q12 60 -20 101t-90 41t-106 -41t-60 -101q-11 -60 21 -101t90 -41z" />
<glyph unicode="&#xc6;" horiz-adv-x="1226" d="M227 390l-215 -372q-11 -18 -28 -18h-47q-11 0 -14.5 7t1.5 18l788 1355q11 20 30 20h558q8 0 13 -5.5t3 -13.5l-7 -35q-1 -8 -8 -14t-13 -6h-439l-110 -568h398q19 0 16 -19l-6 -33q-1 -8 -8 -14t-13 -6h-401l-120 -614h449q8 0 12.5 -6t3.5 -14l-7 -33q-4 -19 -22 -19 h-514q-8 0 -12.5 6t-3.5 13l72 371h-356zM598 464l167 860l-497 -860h330z" />
<glyph unicode="&#xc7;" horiz-adv-x="890" d="M720 11q-90 -33 -201 -35l-65 -108q62 -22 91.5 -69t16.5 -113q-14 -73 -73 -117.5t-140 -44.5q-41 0 -67 9q-14 4 -11 20l5 29q4 19 23 13q25 -9 54 -9q51 0 88.5 27.5t47.5 74.5q21 110 -110 140q-21 5 -7 29l72 123q-216 27 -305 220.5t-29 499.5q63 329 246.5 526.5 t431.5 197.5q112 0 191 -37q15 -8 11 -23l-11 -39q-2 -10 -10.5 -13t-18.5 2q-74 36 -172 36q-212 0 -369 -176t-215 -474q-59 -299 30 -474.5t301 -175.5q102 0 194 34q11 5 18.5 2t6.5 -13l-5 -39q-1 -16 -19 -23z" />
<glyph unicode="&#xc8;" horiz-adv-x="856" d="M47 19l265 1362q4 19 23 19h593q8 0 13 -5.5t3 -13.5l-7 -35q-4 -20 -24 -20h-528l-110 -566h490q8 0 13 -5.5t4 -13.5l-7 -35q-4 -20 -24 -20h-490l-119 -612h543q8 0 12 -6t3 -14l-7 -35q-4 -19 -22 -19h-608q-8 0 -13 5.5t-3 13.5zM608 1832l125 -284q5 -10 0 -17 t-18 -7h-29q-23 0 -29 16l-132 281q-5 11 0 19t18 8h38q20 0 27 -16z" />
<glyph unicode="&#xc9;" horiz-adv-x="856" d="M47 19l265 1362q4 19 23 19h593q8 0 13 -5.5t3 -13.5l-7 -35q-4 -20 -24 -20h-528l-110 -566h490q8 0 13 -5.5t4 -13.5l-7 -35q-4 -20 -24 -20h-490l-119 -612h543q8 0 12 -6t3 -14l-7 -35q-4 -19 -22 -19h-608q-8 0 -13 5.5t-3 13.5zM565 1548l237 284q13 16 33 16h38 q13 0 14.5 -8t-8.5 -19l-240 -281q-13 -16 -35 -16h-29q-13 0 -15.5 7t5.5 17z" />
<glyph unicode="&#xca;" horiz-adv-x="856" d="M47 19l265 1362q4 19 23 19h593q8 0 13 -5.5t3 -13.5l-7 -35q-4 -20 -24 -20h-528l-110 -566h490q8 0 13 -5.5t4 -13.5l-7 -35q-4 -20 -24 -20h-490l-119 -612h543q8 0 12 -6t3 -14l-7 -35q-4 -19 -22 -19h-608q-8 0 -13 5.5t-3 13.5zM688 1848h62q17 0 23 -14l128 -285 q4 -10 -1.5 -17.5t-18.5 -7.5h-34q-19 0 -26 15l-114 247l-210 -247q-12 -15 -32 -15h-34q-13 0 -16 7t6 18l238 285q12 14 29 14z" />
<glyph unicode="&#xcb;" horiz-adv-x="856" d="M47 19l265 1362q4 19 23 19h593q8 0 13 -5.5t3 -13.5l-7 -35q-4 -20 -24 -20h-528l-110 -566h490q8 0 13 -5.5t4 -13.5l-7 -35q-4 -20 -24 -20h-490l-119 -612h543q8 0 12 -6t3 -14l-7 -35q-4 -19 -22 -19h-608q-8 0 -13 5.5t-3 13.5zM475 1686q11 55 26.5 75.5 t44.5 20.5t36.5 -20t-3.5 -76q-10 -55 -25.5 -75.5t-44.5 -20.5t-36.5 20t2.5 76zM787 1686q11 55 26.5 75.5t44.5 20.5t36.5 -20t-3.5 -76q-10 -55 -25.5 -75.5t-44.5 -20.5t-36.5 20t2.5 76z" />
<glyph unicode="&#xcc;" horiz-adv-x="396" d="M348 1400h45q7 0 12 -5.5t3 -13.5l-265 -1362q-4 -19 -22 -19h-45q-8 0 -13.5 5.5t-3.5 13.5l265 1362q2 8 9 13.5t15 5.5zM322 1832l125 -284q5 -10 0 -17t-18 -7h-29q-23 0 -29 16l-132 281q-5 11 0 19t18 8h38q20 0 27 -16z" />
<glyph unicode="&#xcd;" horiz-adv-x="396" d="M348 1400h45q7 0 12 -5.5t3 -13.5l-265 -1362q-4 -19 -22 -19h-45q-8 0 -13.5 5.5t-3.5 13.5l265 1362q2 8 9 13.5t15 5.5zM351 1548l237 284q13 16 33 16h38q13 0 14.5 -8t-8.5 -19l-240 -281q-13 -16 -35 -16h-29q-13 0 -15.5 7t5.5 17z" />
<glyph unicode="&#xce;" horiz-adv-x="396" d="M348 1400h45q7 0 12 -5.5t3 -13.5l-265 -1362q-4 -19 -22 -19h-45q-8 0 -13.5 5.5t-3.5 13.5l265 1362q2 8 9 13.5t15 5.5zM426 1848h62q17 0 23 -14l128 -285q4 -10 -1.5 -17.5t-18.5 -7.5h-34q-19 0 -26 15l-114 247l-210 -247q-12 -15 -32 -15h-34q-13 0 -16 7t6 18 l238 285q12 14 29 14z" />
<glyph unicode="&#xcf;" horiz-adv-x="396" d="M348 1400h45q7 0 12 -5.5t3 -13.5l-265 -1362q-4 -19 -22 -19h-45q-8 0 -13.5 5.5t-3.5 13.5l265 1362q2 8 9 13.5t15 5.5zM217 1686q11 55 26.5 75.5t44.5 20.5t36.5 -20t-3.5 -76q-10 -55 -25.5 -75.5t-44.5 -20.5t-36.5 20t2.5 76zM529 1686q11 55 26.5 75.5 t44.5 20.5t36.5 -20t-3.5 -76q-10 -55 -25.5 -75.5t-44.5 -20.5t-36.5 20t2.5 76z" />
<glyph unicode="&#xd0;" horiz-adv-x="1006" d="M84 734h98l126 647q4 19 23 19h205q286 0 393.5 -172t38.5 -528t-243.5 -528t-460.5 -172h-205q-8 0 -13 5.5t-3 13.5l126 647h-98q-8 0 -13 5.5t-3 13.5l5 30q2 8 9 13.5t15 5.5zM884 700q62 322 -22.5 474t-338.5 152h-142l-115 -592h265q8 0 12.5 -5.5t2.5 -13.5 l-5 -30q-4 -19 -23 -19h-265l-115 -592h142q253 0 397 152t207 474z" />
<glyph unicode="&#xd1;" d="M689 21l-312 1265l-246 -1267q-4 -19 -22 -19h-46q-8 0 -13 5.5t-3 13.5l265 1362q4 19 23 19h81q22 0 27 -21l311 -1265l246 1267q1 7 8 13t15 6h46q8 0 12.5 -5.5t2.5 -13.5l-265 -1362q-4 -19 -22 -19h-81q-24 0 -27 21zM667 1820q45 0 72.5 -22.5t44.5 -75.5 q18 -56 33 -78t38 -22q33 0 57.5 40t44.5 135q1 8 7.5 13.5t14.5 5.5h32q19 0 16 -19q-28 -133 -72.5 -189t-107.5 -56q-45 0 -72.5 22.5t-44.5 75.5q-18 57 -32.5 78.5t-37.5 21.5q-33 0 -57.5 -40t-44.5 -135q-1 -8 -8 -13.5t-15 -5.5h-32q-18 0 -15 19q28 133 72 189 t107 56z" />
<glyph unicode="&#xd2;" horiz-adv-x="1044" d="M417 -24q-218 0 -296.5 186.5t-10.5 537.5q68 350 219 537t369 187t297 -187.5t11 -536.5q-68 -351 -219.5 -537.5t-369.5 -186.5zM431 50q179 0 303.5 163.5t187.5 486.5q62 324 1.5 487t-239.5 163t-303 -163.5t-187 -486.5q-62 -324 -2 -487t239 -163zM688 1832 l125 -284q5 -10 0 -17t-18 -7h-29q-23 0 -29 16l-132 281q-5 11 0 19t18 8h38q20 0 27 -16z" />
<glyph unicode="&#xd3;" horiz-adv-x="1044" d="M417 -24q-218 0 -296.5 186.5t-10.5 537.5q68 350 219 537t369 187t297 -187.5t11 -536.5q-68 -351 -219.5 -537.5t-369.5 -186.5zM431 50q179 0 303.5 163.5t187.5 486.5q62 324 1.5 487t-239.5 163t-303 -163.5t-187 -486.5q-62 -324 -2 -487t239 -163zM631 1548 l237 284q13 16 33 16h38q13 0 14.5 -8t-8.5 -19l-240 -281q-13 -16 -35 -16h-29q-13 0 -15.5 7t5.5 17z" />
<glyph unicode="&#xd4;" horiz-adv-x="1044" d="M417 -24q-218 0 -296.5 186.5t-10.5 537.5q68 350 219 537t369 187t297 -187.5t11 -536.5q-68 -351 -219.5 -537.5t-369.5 -186.5zM431 50q179 0 303.5 163.5t187.5 486.5q62 324 1.5 487t-239.5 163t-303 -163.5t-187 -486.5q-62 -324 -2 -487t239 -163zM750 1848h62 q17 0 23 -14l128 -285q4 -10 -1.5 -17.5t-18.5 -7.5h-34q-19 0 -26 15l-114 247l-210 -247q-12 -15 -32 -15h-34q-13 0 -16 7t6 18l238 285q12 14 29 14z" />
<glyph unicode="&#xd5;" horiz-adv-x="1044" d="M417 -24q-218 0 -296.5 186.5t-10.5 537.5q68 350 219 537t369 187t297 -187.5t11 -536.5q-68 -351 -219.5 -537.5t-369.5 -186.5zM431 50q179 0 303.5 163.5t187.5 486.5q62 324 1.5 487t-239.5 163t-303 -163.5t-187 -486.5q-62 -324 -2 -487t239 -163zM659 1820 q45 0 72.5 -22.5t44.5 -75.5q18 -56 33 -78t38 -22q33 0 57.5 40t44.5 135q1 8 7.5 13.5t14.5 5.5h32q19 0 16 -19q-28 -133 -72.5 -189t-107.5 -56q-45 0 -72.5 22.5t-44.5 75.5q-18 57 -32.5 78.5t-37.5 21.5q-33 0 -57.5 -40t-44.5 -135q-1 -8 -8 -13.5t-15 -5.5h-32 q-18 0 -15 19q28 133 72 189t107 56z" />
<glyph unicode="&#xd6;" horiz-adv-x="1044" d="M417 -24q-218 0 -296.5 186.5t-10.5 537.5q68 350 219 537t369 187t297 -187.5t11 -536.5q-68 -351 -219.5 -537.5t-369.5 -186.5zM431 50q179 0 303.5 163.5t187.5 486.5q62 324 1.5 487t-239.5 163t-303 -163.5t-187 -486.5q-62 -324 -2 -487t239 -163zM539 1686 q11 55 26.5 75.5t44.5 20.5t36.5 -20t-3.5 -76q-10 -55 -25.5 -75.5t-44.5 -20.5t-36.5 20t2.5 76zM851 1686q11 55 26.5 75.5t44.5 20.5t36.5 -20t-3.5 -76q-10 -55 -25.5 -75.5t-44.5 -20.5t-36.5 20t2.5 76z" />
<glyph unicode="&#xd7;" d="M560 724l311 322q13 14 27 0l29 -29q13 -13 0 -27l-312 -323l312 -323q13 -14 0 -27l-29 -29q-14 -14 -27 0l-311 322l-311 -322q-13 -14 -27 0l-29 29q-13 13 0 27l312 323l-312 323q-13 14 0 27l29 29q14 14 27 0z" />
<glyph unicode="&#xd8;" horiz-adv-x="1044" d="M417 -24q-140 0 -223 77l-148 -238q-10 -15 -27 -15h-36q-26 0 -12 24l177 284q-118 183 -38 592q68 350 219 537t369 187q138 0 222 -78l150 239q8 15 27 15h36q25 0 11 -24l-178 -285q119 -184 40 -591q-68 -351 -219.5 -537.5t-369.5 -186.5zM431 50 q179 0 303.5 163.5t187.5 486.5q66 345 -8 508l-674 -1080q68 -78 191 -78zM194 700q-67 -345 6 -509l674 1081q-68 78 -190 78q-179 0 -303 -163.5t-187 -486.5z" />
<glyph unicode="&#xd9;" horiz-adv-x="1084" d="M849 480l175 901q4 19 23 19h46q8 0 12.5 -5.5t2.5 -13.5l-176 -905q-51 -261 -176 -380.5t-319 -119.5t-273 120t-28 380l176 905q4 19 23 19h46q8 0 12.5 -5.5t2.5 -13.5l-175 -901q-44 -229 14.5 -329.5t215.5 -100.5q156 0 255 101t143 329zM676 1832l125 -284 q5 -10 0 -17t-18 -7h-29q-23 0 -29 16l-132 281q-5 11 0 19t18 8h38q20 0 27 -16z" />
<glyph unicode="&#xda;" horiz-adv-x="1084" d="M849 480l175 901q4 19 23 19h46q8 0 12.5 -5.5t2.5 -13.5l-176 -905q-51 -261 -176 -380.5t-319 -119.5t-273 120t-28 380l176 905q4 19 23 19h46q8 0 12.5 -5.5t2.5 -13.5l-175 -901q-44 -229 14.5 -329.5t215.5 -100.5q156 0 255 101t143 329zM677 1548l237 284 q13 16 33 16h38q13 0 14.5 -8t-8.5 -19l-240 -281q-13 -16 -35 -16h-29q-13 0 -15.5 7t5.5 17z" />
<glyph unicode="&#xdb;" horiz-adv-x="1084" d="M849 480l175 901q4 19 23 19h46q8 0 12.5 -5.5t2.5 -13.5l-176 -905q-51 -261 -176 -380.5t-319 -119.5t-273 120t-28 380l176 905q4 19 23 19h46q8 0 12.5 -5.5t2.5 -13.5l-175 -901q-44 -229 14.5 -329.5t215.5 -100.5q156 0 255 101t143 329zM770 1848h62q17 0 23 -14 l128 -285q4 -10 -1.5 -17.5t-18.5 -7.5h-34q-19 0 -26 15l-114 247l-210 -247q-12 -15 -32 -15h-34q-13 0 -16 7t6 18l238 285q12 14 29 14z" />
<glyph unicode="&#xdc;" horiz-adv-x="1084" d="M849 480l175 901q4 19 23 19h46q8 0 12.5 -5.5t2.5 -13.5l-176 -905q-51 -261 -176 -380.5t-319 -119.5t-273 120t-28 380l176 905q4 19 23 19h46q8 0 12.5 -5.5t2.5 -13.5l-175 -901q-44 -229 14.5 -329.5t215.5 -100.5q156 0 255 101t143 329zM561 1686 q11 55 26.5 75.5t44.5 20.5t36.5 -20t-3.5 -76q-10 -55 -25.5 -75.5t-44.5 -20.5t-36.5 20t2.5 76zM873 1686q11 55 26.5 75.5t44.5 20.5t36.5 -20t-3.5 -76q-10 -55 -25.5 -75.5t-44.5 -20.5t-36.5 20t2.5 76z" />
<glyph unicode="&#xdd;" horiz-adv-x="956" d="M300 1382l203 -734l489 734q12 18 35 18h39q11 0 13.5 -8t-4.5 -19l-547 -817l-105 -537q-4 -19 -22 -19h-46q-8 0 -13 5.5t-3 13.5l105 537l-231 817q-3 11 3.5 19t17.5 8h39q23 0 27 -18zM605 1548l237 284q13 16 33 16h38q13 0 14.5 -8t-8.5 -19l-240 -281 q-13 -16 -35 -16h-29q-13 0 -15.5 7t5.5 17z" />
<glyph unicode="&#xde;" horiz-adv-x="886" d="M184 290l-53 -271q-4 -19 -22 -19h-46q-8 0 -12.5 6t-3.5 13l265 1362q1 7 8 13t15 6h46q8 0 12.5 -5.5t2.5 -13.5l-49 -251h178q191 0 279.5 -108.5t49.5 -311.5q-40 -205 -170.5 -312.5t-321.5 -107.5h-178zM770 710q33 171 -35.5 258.5t-221.5 87.5h-180l-135 -694 h180q153 0 255.5 88t136.5 260z" />
<glyph unicode="&#xdf;" horiz-adv-x="914" d="M441 695q-8 0 -12.5 5.5t-2.5 13.5l7 35q3 19 22 19q147 4 237 80.5t116 215.5q24 124 -22.5 205t-155.5 81q-240 0 -306 -338l-193 -993q-4 -19 -22 -19h-46q-8 0 -12.5 6t-3.5 13l192 985q40 211 144.5 315.5t260.5 104.5q144 0 212 -98t37 -260q-26 -136 -106 -220 t-197 -112q124 -30 181.5 -127.5t25.5 -260.5q-34 -174 -138.5 -272t-263.5 -98q-94 0 -166 33q-14 6 -9 24l11 36q8 23 29 12q61 -31 141 -31q126 0 205.5 80t106.5 216q31 163 -40 253t-232 96z" />
<glyph unicode="&#xe0;" horiz-adv-x="824" d="M513 1190h60q19 0 22 -20l102 -1145q2 -11 -4 -18t-17 -7h-44q-21 0 -22 18l-25 318h-416l-149 -318q-10 -18 -28 -18h-44q-11 0 -14.5 7t1.5 18l548 1145q9 20 30 20zM525 1096l-322 -686h376zM511 1622l126 -284q4 -10 -1 -17t-18 -7h-29q-23 0 -29 16l-131 281 q-6 11 -1 19t18 8h38q20 0 27 -16z" />
<glyph unicode="&#xe1;" horiz-adv-x="824" d="M513 1190h60q19 0 22 -20l102 -1145q2 -11 -4 -18t-17 -7h-44q-21 0 -22 18l-25 318h-416l-149 -318q-10 -18 -28 -18h-44q-11 0 -14.5 7t1.5 18l548 1145q9 20 30 20zM525 1096l-322 -686h376zM507 1338l236 284q13 16 33 16h38q13 0 15 -8t-8 -19l-241 -281 q-13 -16 -35 -16h-29q-13 0 -15.5 7t6.5 17z" />
<glyph unicode="&#xe2;" horiz-adv-x="824" d="M513 1190h60q19 0 22 -20l102 -1145q2 -11 -4 -18t-17 -7h-44q-21 0 -22 18l-25 318h-416l-149 -318q-10 -18 -28 -18h-44q-11 0 -14.5 7t1.5 18l548 1145q9 20 30 20zM525 1096l-322 -686h376zM599 1638h62q17 0 23 -14l128 -285q4 -10 -1.5 -17.5t-18.5 -7.5h-34 q-19 0 -26 15l-114 247l-210 -247q-12 -15 -32 -15h-34q-13 0 -16 7t6 18l238 285q12 14 29 14z" />
<glyph unicode="&#xe3;" horiz-adv-x="824" d="M513 1190h60q19 0 22 -20l102 -1145q2 -11 -4 -18t-17 -7h-44q-21 0 -22 18l-25 318h-416l-149 -318q-10 -18 -28 -18h-44q-11 0 -14.5 7t1.5 18l548 1145q9 20 30 20zM525 1096l-322 -686h376zM508 1610q45 0 72.5 -22.5t44.5 -75.5q18 -56 33 -78t38 -22q33 0 57.5 40 t44.5 135q1 8 8 13.5t15 5.5h32q18 0 15 -19q-28 -133 -72.5 -189t-107.5 -56q-45 0 -72.5 22.5t-44.5 75.5q-18 57 -32.5 78.5t-37.5 21.5q-33 0 -57.5 -40t-44.5 -135q-1 -8 -8 -13.5t-15 -5.5h-32q-18 0 -15 19q28 133 72 189t107 56z" />
<glyph unicode="&#xe4;" horiz-adv-x="824" d="M513 1190h60q19 0 22 -20l102 -1145q2 -11 -4 -18t-17 -7h-44q-21 0 -22 18l-25 318h-416l-149 -318q-10 -18 -28 -18h-44q-11 0 -14.5 7t1.5 18l548 1145q9 20 30 20zM525 1096l-322 -686h376zM390 1474q10 55 26 75.5t45 20.5t36 -20t-3 -76q-10 -55 -26 -75.5 t-45 -20.5t-36 20t3 76zM702 1474q10 55 26 75.5t45 20.5t36 -20t-3 -76q-10 -55 -26 -75.5t-45 -20.5t-36 20t3 76z" />
<glyph unicode="&#xe5;" horiz-adv-x="824" d="M513 1190h60q19 0 22 -20l102 -1145q2 -11 -4 -18t-17 -7h-44q-21 0 -22 18l-25 318h-416l-149 -318q-10 -18 -28 -18h-44q-11 0 -14.5 7t1.5 18l548 1145q9 20 30 20zM525 1096l-322 -686h376zM638 1678q85 0 132 -59t30 -143q-16 -84 -86 -143t-155 -59t-132 59 t-31 143q17 84 87 143t155 59zM571 1334q58 0 106 41t59 101q12 60 -20 101t-90 41t-106 -41t-60 -101q-11 -60 21 -101t90 -41z" />
<glyph unicode="&#xe6;" horiz-adv-x="1070" d="M194 322l-174 -304q-11 -18 -28 -18h-42q-11 0 -15.5 6t1.5 16l661 1145q14 23 36 23h481q8 0 12.5 -5.5t2.5 -13.5l-7 -35q-4 -20 -23 -20h-365l-90 -464h333q18 0 16 -19l-7 -36q-5 -19 -23 -19h-333l-98 -504h377q8 0 12 -6t3 -14l-7 -35q-4 -19 -22 -19h-440 q-8 0 -12.5 6t-3.5 13l59 303h-304zM652 1116l-416 -720h276z" />
<glyph unicode="&#xe7;" horiz-adv-x="774" d="M317 -172q-21 5 -7 29l70 122q-188 20 -267 186.5t-28 428.5q54 281 212 450.5t372 169.5q92 0 161 -30q16 -7 11 -24l-11 -39q-2 -10 -10 -13.5t-18 1.5q-60 31 -143 31q-179 0 -310.5 -147.5t-179.5 -398.5q-49 -250 25 -397t253 -147q88 0 162 31q12 5 18.5 1.5 t5.5 -13.5l-5 -40q-2 -17 -21 -24q-66 -25 -151 -28l-64 -109q62 -22 91.5 -69t16.5 -113q-14 -73 -73 -117.5t-140 -44.5q-41 0 -67 9q-14 4 -11 20l5 29q4 19 23 13q25 -9 54 -9q51 0 88.5 27.5t47.5 74.5q21 110 -110 140z" />
<glyph unicode="&#xe8;" horiz-adv-x="736" d="M27 19l224 1152q4 19 23 19h506q8 0 12.5 -5.5t2.5 -13.5l-7 -35q-4 -20 -23 -20h-441l-90 -464h408q8 0 13 -5.5t4 -13.5l-7 -36q-5 -19 -24 -19h-408l-98 -504h453q8 0 12 -6t3 -14l-7 -35q-4 -19 -22 -19h-518q-8 0 -13 5.5t-3 13.5zM517 1622l126 -284q4 -10 -1 -17 t-18 -7h-29q-23 0 -29 16l-131 281q-6 11 -1 19t18 8h38q20 0 27 -16z" />
<glyph unicode="&#xe9;" horiz-adv-x="736" d="M27 19l224 1152q4 19 23 19h506q8 0 12.5 -5.5t2.5 -13.5l-7 -35q-4 -20 -23 -20h-441l-90 -464h408q8 0 13 -5.5t4 -13.5l-7 -36q-5 -19 -24 -19h-408l-98 -504h453q8 0 12 -6t3 -14l-7 -35q-4 -19 -22 -19h-518q-8 0 -13 5.5t-3 13.5zM461 1338l236 284q13 16 33 16h38 q13 0 15 -8t-8 -19l-241 -281q-13 -16 -35 -16h-29q-13 0 -15.5 7t6.5 17z" />
<glyph unicode="&#xea;" horiz-adv-x="736" d="M575 1638h62q17 0 23 -14l128 -285q4 -10 -1.5 -17.5t-18.5 -7.5h-34q-19 0 -26 15l-114 247l-210 -247q-12 -15 -32 -15h-34q-13 0 -16 7t6 18l238 285q12 14 29 14zM27 19l224 1152q4 19 23 19h506q8 0 12.5 -5.5t2.5 -13.5l-7 -35q-4 -20 -23 -20h-441l-90 -464h408 q8 0 13 -5.5t4 -13.5l-7 -36q-5 -19 -24 -19h-408l-98 -504h453q8 0 12 -6t3 -14l-7 -35q-4 -19 -22 -19h-518q-8 0 -13 5.5t-3 13.5z" />
<glyph unicode="&#xeb;" horiz-adv-x="736" d="M27 19l224 1152q4 19 23 19h506q8 0 12.5 -5.5t2.5 -13.5l-7 -35q-4 -20 -23 -20h-441l-90 -464h408q8 0 13 -5.5t4 -13.5l-7 -36q-5 -19 -24 -19h-408l-98 -504h453q8 0 12 -6t3 -14l-7 -35q-4 -19 -22 -19h-518q-8 0 -13 5.5t-3 13.5zM364 1474q10 55 26 75.5t45 20.5 t36 -20t-3 -76q-10 -55 -26 -75.5t-45 -20.5t-36 20t3 76zM676 1474q10 55 26 75.5t45 20.5t36 -20t-3 -76q-10 -55 -26 -75.5t-45 -20.5t-36 20t3 76z" />
<glyph unicode="&#xec;" horiz-adv-x="352" d="M285 1190h44q8 0 13 -5.5t3 -13.5l-224 -1152q-4 -19 -23 -19h-44q-8 0 -13.5 5.5t-3.5 13.5l224 1152q2 8 9 13.5t15 5.5zM259 1622l126 -284q4 -10 -1 -17t-18 -7h-29q-23 0 -29 16l-131 281q-6 11 -1 19t18 8h38q20 0 27 -16z" />
<glyph unicode="&#xed;" horiz-adv-x="352" d="M285 1190h44q8 0 13 -5.5t3 -13.5l-224 -1152q-4 -19 -23 -19h-44q-8 0 -13.5 5.5t-3.5 13.5l224 1152q2 8 9 13.5t15 5.5zM287 1338l236 284q13 16 33 16h38q13 0 15 -8t-8 -19l-241 -281q-13 -16 -35 -16h-29q-13 0 -15.5 7t6.5 17z" />
<glyph unicode="&#xee;" horiz-adv-x="352" d="M285 1190h44q8 0 13 -5.5t3 -13.5l-224 -1152q-4 -19 -23 -19h-44q-8 0 -13.5 5.5t-3.5 13.5l224 1152q2 8 9 13.5t15 5.5zM363 1638h62q17 0 23 -14l128 -285q4 -10 -1.5 -17.5t-18.5 -7.5h-34q-19 0 -26 15l-114 247l-210 -247q-12 -15 -32 -15h-34q-13 0 -16 7t6 18 l238 285q12 14 29 14z" />
<glyph unicode="&#xef;" horiz-adv-x="352" d="M285 1190h44q8 0 13 -5.5t3 -13.5l-224 -1152q-4 -19 -23 -19h-44q-8 0 -13.5 5.5t-3.5 13.5l224 1152q2 8 9 13.5t15 5.5zM154 1474q10 55 26 75.5t45 20.5t36 -20t-3 -76q-10 -55 -26 -75.5t-45 -20.5t-36 20t3 76zM466 1474q10 55 26 75.5t45 20.5t36 -20t-3 -76 q-10 -55 -26 -75.5t-45 -20.5t-36 20t3 76z" />
<glyph unicode="&#xf0;" horiz-adv-x="882" d="M236 0h-183q-8 0 -13 5.5t-3 13.5l106 543h-84q-8 0 -13.5 5.5t-3.5 13.5l6 29q4 20 24 20h84l105 541q4 19 23 19h183q240 0 329.5 -146t30.5 -450q-59 -303 -205 -448.5t-386 -145.5zM440 562h-213l-95 -488h118q207 0 324 125.5t169 394.5q52 270 -15.5 396 t-275.5 126h-118l-94 -486h213q8 0 12 -6t3 -14l-6 -29q-4 -19 -22 -19z" />
<glyph unicode="&#xf1;" horiz-adv-x="912" d="M565 19l-250 1061l-206 -1061q-4 -19 -22 -19h-44q-8 0 -13 5.5t-3 13.5l224 1152q4 19 23 19h79q21 0 24 -19l250 -1061l206 1061q1 7 8 13t15 6h44q8 0 12.5 -5.5t2.5 -13.5l-224 -1152q-4 -19 -22 -19h-79q-21 0 -25 19zM552 1610q45 0 72.5 -22.5t44.5 -75.5 q18 -56 33 -78t38 -22q33 0 57.5 40t44.5 135q1 8 8 13.5t15 5.5h32q18 0 15 -19q-28 -133 -72.5 -189t-107.5 -56q-45 0 -72.5 22.5t-44.5 75.5q-18 57 -32.5 78.5t-37.5 21.5q-33 0 -57.5 -40t-44.5 -135q-1 -8 -8 -13.5t-15 -5.5h-32q-18 0 -15 19q28 133 72 189t107 56z " />
<glyph unicode="&#xf2;" horiz-adv-x="904" d="M849 594q-57 -296 -187 -457t-315 -161t-252 161t-10 457q58 297 187.5 458.5t314.5 161.5t252.5 -161.5t9.5 -458.5zM169 594q-52 -270 -3.5 -407t195.5 -137t249.5 137t154.5 407q52 272 3.5 409t-195.5 137t-249.5 -137.5t-154.5 -408.5zM577 1622l126 -284 q4 -10 -1 -17t-18 -7h-29q-23 0 -29 16l-131 281q-6 11 -1 19t18 8h38q20 0 27 -16z" />
<glyph unicode="&#xf3;" horiz-adv-x="904" d="M849 594q-57 -296 -187 -457t-315 -161t-252 161t-10 457q58 297 187.5 458.5t314.5 161.5t252.5 -161.5t9.5 -458.5zM169 594q-52 -270 -3.5 -407t195.5 -137t249.5 137t154.5 407q52 272 3.5 409t-195.5 137t-249.5 -137.5t-154.5 -408.5zM521 1338l236 284 q13 16 33 16h38q13 0 15 -8t-8 -19l-241 -281q-13 -16 -35 -16h-29q-13 0 -15.5 7t6.5 17z" />
<glyph unicode="&#xf4;" horiz-adv-x="904" d="M849 594q-57 -296 -187 -457t-315 -161t-252 161t-10 457q58 297 187.5 458.5t314.5 161.5t252.5 -161.5t9.5 -458.5zM169 594q-52 -270 -3.5 -407t195.5 -137t249.5 137t154.5 407q52 272 3.5 409t-195.5 137t-249.5 -137.5t-154.5 -408.5zM639 1638h62q17 0 23 -14 l128 -285q4 -10 -1.5 -17.5t-18.5 -7.5h-34q-19 0 -26 15l-114 247l-210 -247q-12 -15 -32 -15h-34q-13 0 -16 7t6 18l238 285q12 14 29 14z" />
<glyph unicode="&#xf5;" horiz-adv-x="904" d="M849 594q-57 -296 -187 -457t-315 -161t-252 161t-10 457q58 297 187.5 458.5t314.5 161.5t252.5 -161.5t9.5 -458.5zM169 594q-52 -270 -3.5 -407t195.5 -137t249.5 137t154.5 407q52 272 3.5 409t-195.5 137t-249.5 -137.5t-154.5 -408.5zM548 1610q45 0 72.5 -22.5 t44.5 -75.5q18 -56 33 -78t38 -22q33 0 57.5 40t44.5 135q1 8 8 13.5t15 5.5h32q18 0 15 -19q-28 -133 -72.5 -189t-107.5 -56q-45 0 -72.5 22.5t-44.5 75.5q-18 57 -32.5 78.5t-37.5 21.5q-33 0 -57.5 -40t-44.5 -135q-1 -8 -8 -13.5t-15 -5.5h-32q-18 0 -15 19 q28 133 72 189t107 56z" />
<glyph unicode="&#xf6;" horiz-adv-x="904" d="M849 594q-57 -296 -187 -457t-315 -161t-252 161t-10 457q58 297 187.5 458.5t314.5 161.5t252.5 -161.5t9.5 -458.5zM169 594q-52 -270 -3.5 -407t195.5 -137t249.5 137t154.5 407q52 272 3.5 409t-195.5 137t-249.5 -137.5t-154.5 -408.5zM430 1474q10 55 26 75.5 t45 20.5t36 -20t-3 -76q-10 -55 -26 -75.5t-45 -20.5t-36 20t3 76zM742 1474q10 55 26 75.5t45 20.5t36 -20t-3 -76q-10 -55 -26 -75.5t-45 -20.5t-36 20t3 76z" />
<glyph unicode="&#xf7;" d="M506 262q0 56 12.5 77t41.5 21t41.5 -21t12.5 -77t-12.5 -77t-41.5 -21t-41.5 21t-12.5 77zM506 1066q0 56 12.5 77t41.5 21t41.5 -21t12.5 -77t-12.5 -77t-41.5 -21t-41.5 21t-12.5 77zM133 702h853q8 0 14 -5.5t6 -13.5v-38q0 -8 -6 -13.5t-14 -5.5h-853 q-8 0 -13.5 5.5t-5.5 13.5v38q0 7 6 13t13 6z" />
<glyph unicode="&#xf8;" horiz-adv-x="904" d="M-59 -196l177 288q-99 159 -33 502q58 297 187.5 458.5t314.5 161.5q111 0 183 -61l149 242q8 15 27 15h36q25 0 11 -24l-177 -288q100 -157 33 -504q-57 -296 -187 -457t-315 -161q-113 0 -183 61l-148 -242q-10 -15 -27 -15h-36q-26 0 -12 24zM765 594q55 281 0 420 l-556 -904q54 -60 152 -60q147 0 249.5 137t154.5 407zM169 594q-56 -283 1 -419l554 904q-55 61 -151 61q-147 0 -249.5 -137.5t-154.5 -408.5z" />
<glyph unicode="&#xf9;" horiz-adv-x="932" d="M702 404l149 767q4 19 23 19h45q8 0 13 -5.5t3 -13.5l-149 -769q-44 -222 -151 -324t-274 -102t-235 102t-24 324l149 769q4 19 23 19h46q7 0 12 -5.5t3 -13.5l-149 -767q-37 -187 11 -270.5t178 -83.5t210 83.5t117 270.5zM559 1622l126 -284q4 -10 -1 -17t-18 -7h-29 q-23 0 -29 16l-131 281q-6 11 -1 19t18 8h38q20 0 27 -16z" />
<glyph unicode="&#xfa;" horiz-adv-x="932" d="M702 404l149 767q4 19 23 19h45q8 0 13 -5.5t3 -13.5l-149 -769q-44 -222 -151 -324t-274 -102t-235 102t-24 324l149 769q4 19 23 19h46q7 0 12 -5.5t3 -13.5l-149 -767q-37 -187 11 -270.5t178 -83.5t210 83.5t117 270.5zM567 1338l236 284q13 16 33 16h38q13 0 15 -8 t-8 -19l-241 -281q-13 -16 -35 -16h-29q-13 0 -15.5 7t6.5 17z" />
<glyph unicode="&#xfb;" horiz-adv-x="932" d="M702 404l149 767q4 19 23 19h45q8 0 13 -5.5t3 -13.5l-149 -769q-44 -222 -151 -324t-274 -102t-235 102t-24 324l149 769q4 19 23 19h46q7 0 12 -5.5t3 -13.5l-149 -767q-37 -187 11 -270.5t178 -83.5t210 83.5t117 270.5zM653 1638h62q17 0 23 -14l128 -285 q4 -10 -1.5 -17.5t-18.5 -7.5h-34q-19 0 -26 15l-114 247l-210 -247q-12 -15 -32 -15h-34q-13 0 -16 7t6 18l238 285q12 14 29 14z" />
<glyph unicode="&#xfc;" horiz-adv-x="932" d="M702 404l149 767q4 19 23 19h45q8 0 13 -5.5t3 -13.5l-149 -769q-44 -222 -151 -324t-274 -102t-235 102t-24 324l149 769q4 19 23 19h46q7 0 12 -5.5t3 -13.5l-149 -767q-37 -187 11 -270.5t178 -83.5t210 83.5t117 270.5zM444 1474q10 55 26 75.5t45 20.5t36 -20 t-3 -76q-10 -55 -26 -75.5t-45 -20.5t-36 20t3 76zM756 1474q10 55 26 75.5t45 20.5t36 -20t-3 -76q-10 -55 -26 -75.5t-45 -20.5t-36 20t3 76z" />
<glyph unicode="&#xfd;" horiz-adv-x="820" d="M905 1163l-462 -691l-88 -453q-4 -19 -23 -19h-45q-8 0 -13 5.5t-3 13.5l88 453l-192 691q-4 11 2.5 19t17.5 8h37q23 0 27 -18l168 -610l404 610q12 18 35 18h37q11 0 14 -8t-4 -19zM497 1338l236 284q13 16 33 16h38q13 0 15 -8t-8 -19l-241 -281q-13 -16 -35 -16h-29 q-13 0 -15.5 7t6.5 17z" />
<glyph unicode="&#xfe;" horiz-adv-x="764" d="M155 244l-44 -225q-4 -19 -22 -19h-46q-8 0 -12.5 6t-3.5 13l224 1152q1 7 8 13t15 6h46q7 0 12 -5.5t3 -13.5l-40 -207h150q160 0 234 -93t40 -267q-34 -175 -143.5 -267.5t-270.5 -92.5h-150zM635 604q27 141 -27 213.5t-180 72.5h-148l-111 -572h148q126 0 208.5 72 t109.5 214z" />
<glyph unicode="&#xff;" horiz-adv-x="820" d="M905 1163l-462 -691l-88 -453q-4 -19 -23 -19h-45q-8 0 -13 5.5t-3 13.5l88 453l-192 691q-4 11 2.5 19t17.5 8h37q23 0 27 -18l168 -610l404 610q12 18 35 18h37q11 0 14 -8t-4 -19zM388 1474q10 55 26 75.5t45 20.5t36 -20t-3 -76q-10 -55 -26 -75.5t-45 -20.5t-36 20 t3 76zM700 1474q10 55 26 75.5t45 20.5t36 -20t-3 -76q-10 -55 -26 -75.5t-45 -20.5t-36 20t3 76z" />
<glyph unicode="&#x152;" horiz-adv-x="1216" d="M596 74h449q8 0 12 -6t3 -14l-7 -35q-4 -19 -22 -19h-531q-243 0 -349 184.5t-41 515.5q64 330 241.5 515t420.5 185h516q8 0 13 -5.5t3 -13.5l-7 -35q-1 -8 -8 -14t-13 -6h-437l-110 -566h396q8 0 13 -5.5t4 -13.5l-7 -35q-1 -8 -8 -14t-13 -6h-399zM512 74l243 1252 q-213 -17 -358 -172.5t-203 -453.5q-59 -299 25.5 -454t292.5 -172z" />
<glyph unicode="&#x153;" horiz-adv-x="1056" d="M436 74l202 1040q-179 -11 -300 -140.5t-169 -379.5q-49 -249 20.5 -377.5t246.5 -142.5zM1085 1116h-365l-90 -464h333q7 0 12 -5.5t4 -13.5l-7 -36q-5 -19 -23 -19h-333l-98 -504h376q8 0 13 -6t3 -14l-7 -35q-4 -19 -23 -19h-440q-224 0 -317 155t-38 439 q55 286 208.5 441t377.5 155h429q7 0 12 -6t3 -14l-7 -34q-1 -8 -8 -14t-15 -6z" />
<glyph unicode="&#x178;" horiz-adv-x="956" d="M300 1382l203 -734l489 734q12 18 35 18h39q11 0 13.5 -8t-4.5 -19l-547 -817l-105 -537q-4 -19 -22 -19h-46q-8 0 -13 5.5t-3 13.5l105 537l-231 817q-3 11 3.5 19t17.5 8h39q23 0 27 -18zM497 1686q11 55 26.5 75.5t44.5 20.5t36.5 -20t-3.5 -76q-10 -55 -25.5 -75.5 t-44.5 -20.5t-36.5 20t2.5 76zM809 1686q11 55 26.5 75.5t44.5 20.5t36.5 -20t-3.5 -76q-10 -55 -25.5 -75.5t-44.5 -20.5t-36.5 20t2.5 76z" />
<glyph unicode="&#x2c6;" horiz-adv-x="620" d="M462 1460h62q16 0 24 -14l127 -285q4 -10 -1.5 -17.5t-18.5 -7.5h-34q-19 0 -26 15l-114 247l-210 -247q-12 -15 -32 -15h-34q-13 0 -16 7t6 18l239 285q11 14 28 14z" />
<glyph unicode="&#x2dc;" horiz-adv-x="620" d="M372 1434q45 0 72.5 -22.5t44.5 -75.5q18 -56 33 -78t38 -22q33 0 57.5 40t44.5 135q1 8 7.5 13.5t14.5 5.5h32q19 0 16 -19q-28 -133 -72.5 -189t-107.5 -56q-45 0 -72.5 22.5t-44.5 75.5q-18 57 -32.5 78.5t-37.5 21.5q-33 0 -57.5 -40t-44.5 -135q-5 -19 -23 -19h-32 q-8 0 -12.5 5.5t-2.5 13.5q28 133 72 189t107 56z" />
<glyph unicode="&#x2000;" horiz-adv-x="942" />
<glyph unicode="&#x2001;" horiz-adv-x="1884" />
<glyph unicode="&#x2002;" horiz-adv-x="942" />
<glyph unicode="&#x2003;" horiz-adv-x="1884" />
<glyph unicode="&#x2004;" horiz-adv-x="628" />
<glyph unicode="&#x2005;" horiz-adv-x="471" />
<glyph unicode="&#x2006;" horiz-adv-x="314" />
<glyph unicode="&#x2007;" horiz-adv-x="314" />
<glyph unicode="&#x2008;" horiz-adv-x="235" />
<glyph unicode="&#x2009;" horiz-adv-x="376" />
<glyph unicode="&#x200a;" horiz-adv-x="104" />
<glyph unicode="&#x2010;" horiz-adv-x="712" d="M609 624h-465q-7 0 -12 5.5t-4 13.5l9 42q4 19 22 19h465q8 0 13.5 -5.5t3.5 -13.5l-9 -42q-1 -7 -8 -13t-15 -6z" />
<glyph unicode="&#x2011;" horiz-adv-x="712" d="M609 624h-465q-7 0 -12 5.5t-4 13.5l9 42q4 19 22 19h465q8 0 13.5 -5.5t3.5 -13.5l-9 -42q-1 -7 -8 -13t-15 -6z" />
<glyph unicode="&#x2012;" horiz-adv-x="712" d="M609 624h-465q-7 0 -12 5.5t-4 13.5l9 42q4 19 22 19h465q8 0 13.5 -5.5t3.5 -13.5l-9 -42q-1 -7 -8 -13t-15 -6z" />
<glyph unicode="&#x2013;" horiz-adv-x="1000" d="M1002 626h-961q-19 0 -16 19l7 38q2 8 9 13.5t15 5.5h961q7 0 12 -5.5t3 -13.5l-7 -38q-1 -8 -8 -13.5t-15 -5.5z" />
<glyph unicode="&#x2014;" horiz-adv-x="2000" d="M2002 626h-1961q-19 0 -16 19l7 38q2 8 9 13.5t15 5.5h1961q7 0 12 -5.5t3 -13.5l-7 -38q-1 -8 -8 -13.5t-15 -5.5z" />
<glyph unicode="&#x2018;" horiz-adv-x="436" d="M483 1464q-72 -72 -96 -158q18 -6 23.5 -26t-3.5 -70q-11 -56 -27.5 -77t-45.5 -21t-37.5 20t0.5 70q19 95 51.5 162.5t101.5 134.5q14 14 24 1l12 -18q5 -10 -3 -18z" />
<glyph unicode="&#x2019;" horiz-adv-x="436" d="M262 1162q73 72 96 158q-35 13 -19 96q11 56 27.5 77t45.5 21t37 -20t-1 -70q-19 -95 -51.5 -162t-100.5 -135q-15 -15 -25 -1l-11 18q-7 9 2 18z" />
<glyph unicode="&#x201a;" horiz-adv-x="436" d="M1 -182q74 74 96 158q-18 6 -23 26t3 70q11 55 28 76.5t46 21.5t37 -20t-1 -70q-19 -95 -51.5 -162.5t-101.5 -134.5q-14 -14 -24 -1l-11 18q-7 9 2 18z" />
<glyph unicode="&#x201c;" horiz-adv-x="630" d="M677 1464q-72 -72 -96 -158q18 -6 23.5 -26t-3.5 -70q-11 -56 -27.5 -77t-45.5 -21t-37.5 20t0.5 70q19 95 51.5 162.5t101.5 134.5q14 14 24 1l12 -18q5 -10 -3 -18zM483 1464q-72 -72 -96 -158q18 -6 23.5 -26t-3.5 -70q-11 -56 -27.5 -77t-45.5 -21t-37.5 20t0.5 70 q19 95 51.5 162.5t101.5 134.5q14 14 24 1l12 -18q5 -10 -3 -18z" />
<glyph unicode="&#x201d;" horiz-adv-x="630" d="M456 1162q73 72 96 158q-35 13 -19 96q11 56 27.5 77t45.5 21t37 -20t-1 -70q-19 -95 -51.5 -162t-100.5 -135q-15 -15 -25 -1l-11 18q-7 9 2 18zM262 1162q73 72 96 158q-35 13 -19 96q11 56 27.5 77t45.5 21t37 -20t-1 -70q-19 -95 -51.5 -162t-100.5 -135 q-15 -15 -25 -1l-11 18q-7 9 2 18z" />
<glyph unicode="&#x201e;" horiz-adv-x="630" d="M196 -180q72 72 95 158q-35 13 -19 96q11 56 27.5 77t45.5 21t37 -20t-1 -70q-18 -94 -50.5 -161.5t-101.5 -135.5q-16 -16 -24 -1l-12 18q-6 9 3 18zM2 -180q72 72 95 158q-35 13 -19 96q11 56 27.5 77t45.5 21t37 -20t-1 -70q-18 -94 -50.5 -161.5t-101.5 -135.5 q-16 -16 -24 -1l-12 18q-6 9 3 18z" />
<glyph unicode="&#x2022;" horiz-adv-x="552" d="M168 664q0 84 34 122t104 38t104 -38t34 -122t-34 -122t-104 -38t-104 38t-34 122z" />
<glyph unicode="&#x2026;" horiz-adv-x="1216" d="M467 72q11 55 28 76.5t46 21.5t37 -20.5t-3 -77.5q-10 -55 -27 -76.5t-46 -21.5t-37 20.5t2 77.5zM857 72q11 55 28 76.5t46 21.5t37 -20.5t-3 -77.5q-10 -55 -27 -76.5t-46 -21.5t-37 20.5t2 77.5zM77 72q11 55 28 76.5t46 21.5t37 -20.5t-3 -77.5q-10 -55 -27 -76.5 t-46 -21.5t-37 20.5t2 77.5z" />
<glyph unicode="&#x202f;" horiz-adv-x="376" />
<glyph unicode="&#x2039;" horiz-adv-x="608" d="M141 606l7 32q1 13 14 24l409 341q11 9 19.5 5.5t6.5 -15.5l-8 -40q-4 -19 -23 -35l-358 -296l243 -296q13 -16 9 -35l-8 -40q-2 -12 -12 -15.5t-17 5.5l-276 341q-9 10 -6 24z" />
<glyph unicode="&#x203a;" horiz-adv-x="608" d="M508 638l-7 -32q-3 -14 -14 -24l-410 -341q-10 -9 -18.5 -5.5t-6.5 15.5l8 40q4 19 23 35l357 296l-242 296q-13 16 -9 35l8 40q2 12 12 15.5t16 -5.5l277 -341q8 -9 6 -24z" />
<glyph unicode="&#x205f;" horiz-adv-x="471" />
<glyph unicode="&#x20ac;" horiz-adv-x="904" d="M733 10q-85 -34 -190 -34q-216 0 -318.5 150.5t-83.5 415.5h-73q-8 0 -12 6t-3 14l4 21q1 7 8 13t15 6h67q9 83 37 192h-67q-8 0 -12 6t-3 14l4 21q1 7 8 13t15 6h73q80 265 242 417.5t378 152.5q102 0 173 -36q15 -8 10 -27l-10 -36q-2 -10 -10.5 -13t-18.5 2 q-70 36 -154 36q-182 0 -317 -130.5t-209 -365.5h512q19 0 11 -19l-11 -25q-7 -16 -24 -16h-504q-32 -105 -37 -192h461q19 0 11 -19l-11 -25q-7 -16 -24 -16h-445q-17 -234 67.5 -363t266.5 -129q91 0 175 33q11 5 18 1.5t6 -13.5l-3 -34q-3 -19 -22 -27z" />
<glyph unicode="&#x2122;" horiz-adv-x="1016" d="M206 768v570h-135q-17 0 -17 17v29q0 16 17 16h341q16 0 16 -16v-29q0 -17 -16 -17h-136v-570q0 -16 -16 -16h-38q-16 0 -16 16zM726 992h-12q-16 0 -23 14l-143 286v-526q0 -16 -16 -16h-38q-16 0 -16 16v618q0 16 17 16h53q16 0 23 -14l149 -302l149 302q7 14 23 14h53 q17 0 17 -16v-618q0 -16 -16 -16h-38q-16 0 -16 16v526l-143 -286q-7 -14 -23 -14z" />
<glyph unicode="&#x25fc;" horiz-adv-x="1190" d="M0 1190h1190v-1190h-1190v1190z" />
<glyph unicode="&#xfb02;" horiz-adv-x="1442" d="M27 19l224 1152q4 19 23 19h506q8 0 12.5 -5.5t2.5 -13.5l-7 -35q-4 -20 -23 -20h-441l-90 -464h409q18 0 16 -19l-7 -36q-5 -19 -23 -19h-409l-109 -559q-4 -19 -23 -19h-45q-8 0 -13 5.5t-3 13.5zM741 19l224 1152q1 7 8 13t15 6h46q7 0 12 -5.5t3 -13.5l-213 -1097 h481q8 0 12.5 -6t2.5 -14l-7 -35q-4 -19 -22 -19h-546q-8 0 -12.5 6t-3.5 13z" />
<glyph unicode="&#xfb04;" horiz-adv-x="2156" d="M27 19l224 1152q4 19 23 19h506q8 0 12.5 -5.5t2.5 -13.5l-7 -35q-4 -20 -23 -20h-441l-90 -464h409q18 0 16 -19l-7 -36q-5 -19 -23 -19h-409l-109 -559q-4 -19 -23 -19h-45q-8 0 -13 5.5t-3 13.5zM741 19l224 1152q4 19 23 19h506q8 0 12.5 -5.5t2.5 -13.5l-7 -35 q-4 -20 -23 -20h-441l-90 -464h409q18 0 16 -19l-7 -36q-5 -19 -23 -19h-409l-109 -559q-4 -19 -23 -19h-45q-8 0 -13 5.5t-3 13.5zM1455 19l224 1152q1 7 8 13t15 6h46q7 0 12 -5.5t3 -13.5l-213 -1097h481q8 0 12.5 -6t2.5 -14l-7 -35q-4 -19 -22 -19h-546q-8 0 -12.5 6 t-3.5 13z" />
</font>
</defs>
</svg>
