<?xml version="1.0" standalone="no"?>
<!DOCTYPE svg PUBLIC "-//W3C//DTD SVG 1.1//EN" "http://www.w3.org/Graphics/SVG/1.1/DTD/svg11.dtd" >
<svg xmlns="http://www.w3.org/2000/svg">
<metadata></metadata>
<defs>
<font id="core_sans_nr_63_ex_boldRg" horiz-adv-x="1392" >
<font-face units-per-em="2000" ascent="1600" descent="-400" />
<missing-glyph horiz-adv-x="720" />
<glyph unicode="&#xfb01;" horiz-adv-x="1486" d="M20 861v136q0 16 11.5 27.5t27.5 11.5h187v49q0 184 112.5 279.5t333.5 95.5q102 0 184 -15q16 -3 25.5 -15t7.5 -28l-18 -135q-2 -16 -15 -25.5t-30 -7.5q-52 8 -94 8q-101 0 -146.5 -37t-45.5 -129v-40h281q16 0 27.5 -11.5t11.5 -27.5v-136q0 -16 -11.5 -27.5 t-27.5 -11.5h-281v-783q0 -16 -11.5 -27.5t-27.5 -11.5h-236q-16 0 -27.5 11.5t-11.5 27.5v783h-187q-16 0 -27.5 11.5t-11.5 27.5zM1030 39v958q0 16 11.5 27.5t27.5 11.5h238q16 0 27.5 -11.5t11.5 -27.5v-958q0 -16 -11.5 -27.5t-27.5 -11.5h-238q-16 0 -27.5 11.5 t-11.5 27.5zM1008 1314q0 146 180 146t180 -146t-180 -146t-180 146z" />
<glyph unicode="&#xfb02;" horiz-adv-x="1486" d="M20 861v136q0 16 11.5 27.5t27.5 11.5h187v49q0 184 112.5 279.5t333.5 95.5q102 0 184 -15q16 -3 25.5 -15t7.5 -28l-18 -135q-2 -16 -15 -25.5t-30 -7.5q-52 8 -94 8q-101 0 -146.5 -37t-45.5 -129v-40h281q16 0 27.5 -11.5t11.5 -27.5v-136q0 -16 -11.5 -27.5 t-27.5 -11.5h-281v-783q0 -16 -11.5 -27.5t-27.5 -11.5h-236q-16 0 -27.5 11.5t-11.5 27.5v783h-187q-16 0 -27.5 11.5t-11.5 27.5zM1030 39v1382q0 16 11.5 27.5t27.5 11.5h238q16 0 27.5 -11.5t11.5 -27.5v-1382q0 -16 -11.5 -27.5t-27.5 -11.5h-238q-16 0 -27.5 11.5 t-11.5 27.5z" />
<glyph unicode="&#xfb03;" horiz-adv-x="2336" d="M882 1233q-51 9 -116 9q-109 0 -157.5 -39t-48.5 -129v-38h506v49q0 184 112.5 279.5t333.5 95.5q102 0 184 -15q16 -3 25.5 -15t7.5 -28l-18 -135q-2 -16 -15 -25.5t-30 -7.5q-52 8 -94 8q-101 0 -146.5 -37t-45.5 -129v-40h281q16 0 27.5 -11.5t11.5 -27.5v-136 q0 -16 -11.5 -27.5t-27.5 -11.5h-281v-783q0 -16 -11.5 -27.5t-27.5 -11.5h-236q-16 0 -27.5 11.5t-11.5 27.5v783h-506v-783q0 -16 -11.5 -27.5t-27.5 -11.5h-236q-16 0 -27.5 11.5t-11.5 27.5v783h-187q-16 0 -27.5 11.5t-11.5 27.5v136q0 16 11.5 27.5t27.5 11.5h187v48 q0 182 116 279t346 97q106 0 199 -16q16 -3 26 -15.5t8 -27.5l-18 -135q-2 -17 -13.5 -26t-27.5 -7zM1880 39v958q0 16 11.5 27.5t27.5 11.5h238q16 0 27.5 -11.5t11.5 -27.5v-958q0 -16 -11.5 -27.5t-27.5 -11.5h-238q-16 0 -27.5 11.5t-11.5 27.5zM1858 1314 q0 146 180 146t180 -146t-180 -146t-180 146z" />
<glyph unicode="&#xfb04;" horiz-adv-x="2336" d="M882 1233q-51 9 -116 9q-109 0 -157.5 -39t-48.5 -129v-38h506v49q0 184 112.5 279.5t333.5 95.5q102 0 184 -15q16 -3 25.5 -15t7.5 -28l-18 -135q-2 -16 -15 -25.5t-30 -7.5q-52 8 -94 8q-101 0 -146.5 -37t-45.5 -129v-40h281q16 0 27.5 -11.5t11.5 -27.5v-136 q0 -16 -11.5 -27.5t-27.5 -11.5h-281v-783q0 -16 -11.5 -27.5t-27.5 -11.5h-236q-16 0 -27.5 11.5t-11.5 27.5v783h-506v-783q0 -16 -11.5 -27.5t-27.5 -11.5h-236q-16 0 -27.5 11.5t-11.5 27.5v783h-187q-16 0 -27.5 11.5t-11.5 27.5v136q0 16 11.5 27.5t27.5 11.5h187v48 q0 182 116 279t346 97q106 0 199 -16q16 -3 26 -15.5t8 -27.5l-18 -135q-2 -17 -13.5 -26t-27.5 -7zM1880 39v1382q0 16 11.5 27.5t27.5 11.5h238q16 0 27.5 -11.5t11.5 -27.5v-1382q0 -16 -11.5 -27.5t-27.5 -11.5h-238q-16 0 -27.5 11.5t-11.5 27.5z" />
<glyph horiz-adv-x="666" />
<glyph horiz-adv-x="0" />
<glyph horiz-adv-x="0" />
<glyph unicode="&#xd;" horiz-adv-x="682" />
<glyph unicode=" "  horiz-adv-x="720" />
<glyph unicode="&#x09;" horiz-adv-x="720" />
<glyph unicode="&#xa0;" horiz-adv-x="720" />
<glyph unicode="!" horiz-adv-x="712" d="M228 1400h255q16 0 27.5 -11t11.5 -27v-324l-53 -612q-2 -15 -13 -25.5t-26 -10.5h-148q-14 0 -26 10.5t-13 24.5l-53 612v325q0 16 11 27t27 11zM172 132q0 156 184 156t184 -156t-184 -156t-184 156z" />
<glyph unicode="&#x22;" horiz-adv-x="1164" d="M217 845l-26 515q-1 17 10.5 28.5t28.5 11.5h239q16 0 27 -11t11 -27v-43l-54 -476q-1 -14 -13 -24.5t-26 -10.5h-158q-16 0 -27 11t-12 26zM683 845l-26 515q-1 17 10.5 28.5t28.5 11.5h239q16 0 27 -11t11 -27v-43l-54 -476q-1 -14 -13 -24.5t-26 -10.5h-158 q-16 0 -27 11t-12 26z" />
<glyph unicode="#" horiz-adv-x="1640" d="M1445 316h-254l-58 -285q-2 -13 -13.5 -22t-24.5 -9h-202q-19 0 -30.5 13.5t-7.5 32.5l55 270h-337l-58 -285q-2 -13 -13.5 -22t-24.5 -9h-202q-19 0 -30.5 13.5t-7.5 32.5l55 270h-191q-16 0 -27.5 11.5t-11.5 27.5v152q0 16 11.5 27.5t27.5 11.5h238l61 302h-205 q-16 0 -27.5 11.5t-11.5 27.5v152q0 16 11.5 27.5t27.5 11.5h252l60 291q3 13 14 22t24 9h202q19 0 30.5 -13.5t7.5 -32.5l-57 -276h337l60 291q3 13 14 22t24 9h202q19 0 30.5 -13.5t7.5 -32.5l-57 -276h193q16 0 27.5 -11.5t11.5 -27.5v-152q0 -16 -11.5 -27.5 t-27.5 -11.5h-240l-61 -302h207q16 0 27.5 -11.5t11.5 -27.5v-152q0 -16 -11.5 -27.5t-27.5 -11.5zM681 848l-61 -302h337l61 302h-337z" />
<glyph unicode="$" horiz-adv-x="1330" d="M146 45q-12 5 -20 17.5t-7 25.5l18 177q2 21 18.5 31t35.5 2q166 -72 417 -72v356l-34 10q-246 72 -354 173.5t-108 264.5q0 174 124.5 274t371.5 117v150q0 16 11.5 27.5t27.5 11.5h64q16 0 27.5 -11.5t11.5 -27.5v-148q215 -5 386 -54q15 -4 24 -17t7 -26l-15 -171 q-1 -20 -16 -29.5t-34 -4.5q-159 47 -352 49v-333l10 -3q265 -79 375.5 -180.5t110.5 -263.5q0 -185 -119 -287t-377 -122v-152q0 -16 -11.5 -27.5t-27.5 -11.5h-64q-16 0 -27.5 11.5t-11.5 27.5v147q-258 2 -462 69zM914 376q0 52 -36.5 89.5t-127.5 71.5v-302 q87 14 125.5 49t38.5 92zM444 1042q0 -50 37 -86.5t127 -71.5v279q-90 -11 -127 -41.5t-37 -79.5z" />
<glyph unicode="%" horiz-adv-x="2108" d="M940 1032q0 -168 -107.5 -275t-292.5 -107t-292.5 107t-107.5 275t107.5 275t292.5 107t292.5 -107t107.5 -275zM396 1032q0 -166 144 -166t144 166t-144 166t-144 -166zM1968 368q0 -168 -107.5 -275t-292.5 -107t-292.5 107t-107.5 275t107.5 275t292.5 107t292.5 -107 t107.5 -275zM1424 368q0 -166 144 -166t144 166t-144 166t-144 -166zM1703 1337l-1059 -1301q-30 -36 -79 -36h-130q-26 0 -36 22t7 41l1059 1301q30 36 79 36h130q26 0 36 -22t-7 -41z" />
<glyph unicode="&#x26;" horiz-adv-x="1752" d="M874 1072q0 60 -51 97t-141 37q-85 0 -134.5 -39t-49.5 -89q0 -47 38 -97.5t130 -118.5q108 49 158 100t50 110zM378 372q0 -79 74.5 -125.5t211.5 -46.5q196 0 296 92l-380 304q-202 -86 -202 -224zM1313 19l-151 119q-177 -162 -514 -162q-122 0 -224.5 25t-180 74 t-120.5 126.5t-43 176.5q0 248 300 380q-90 76 -132 151t-42 165q0 155 129 252.5t347 97.5q223 0 351.5 -97t128.5 -255q0 -221 -292 -364l266 -212q56 98 64 253q1 15 12 25t26 10h212q16 0 26.5 -11t9.5 -27q-17 -255 -132 -426l324 -258q21 -16 14.5 -39t-33.5 -23h-287 q-35 0 -59 19z" />
<glyph unicode="'" horiz-adv-x="678" d="M207 845l-26 515q-1 16 10.5 28t28.5 12h238q16 0 27.5 -11t11.5 -27v-43l-54 -476q-2 -14 -13 -24.5t-26 -10.5h-158q-15 0 -26.5 11t-12.5 26z" />
<glyph unicode="(" horiz-adv-x="878" d="M190 621q0 477 335 850q27 29 68 29h147q26 0 36.5 -21t-5.5 -42q-307 -393 -307 -816q0 -425 307 -818q16 -21 5.5 -42t-36.5 -21h-147q-41 0 -68 29q-335 373 -335 852z" />
<glyph unicode=")" horiz-adv-x="878" d="M656 621q0 -479 -335 -852q-27 -29 -68 -29h-147q-26 0 -36.5 21t5.5 42q307 393 307 818q0 423 -307 816q-16 21 -5.5 42t36.5 21h147q41 0 68 -29q335 -373 335 -850z" />
<glyph unicode="*" horiz-adv-x="1112" d="M837 356l-189 134l22 -230q2 -17 -9.5 -29.5t-28.5 -12.5h-167q-17 0 -28.5 12.5t-10.5 29.5l22 230l-188 -134q-14 -10 -30.5 -6.5t-24.5 18.5l-84 144q-8 15 -3.5 31.5t20.5 23.5l210 96l-209 96q-16 8 -21 23.5t4 30.5l83 144q9 15 25.5 19t30.5 -6l187 -133l-22 229 q-1 17 10.5 29.5t28.5 12.5h167q17 0 28.5 -12.5t9.5 -29.5l-22 -230l188 134q14 10 30.5 6t25.5 -19l83 -144q9 -15 4 -30.5t-21 -23.5l-210 -96l211 -96q16 -7 20.5 -23.5t-3.5 -31.5l-84 -144q-8 -15 -24.5 -18.5t-30.5 6.5z" />
<glyph unicode="+" horiz-adv-x="1320" d="M522 201v349h-373q-16 0 -27.5 11.5t-11.5 27.5v148q0 16 12 27.5t29 11.5h371v347q0 16 11.5 27.5t27.5 11.5h198q16 0 27.5 -11.5t11.5 -27.5v-347h373q16 0 27.5 -11.5t11.5 -27.5v-148q0 -16 -11.5 -27.5t-27.5 -11.5h-373v-349q0 -16 -11.5 -27.5t-27.5 -11.5h-198 q-16 0 -27.5 11.5t-11.5 27.5z" />
<glyph unicode="," horiz-adv-x="696" d="M263 -292q-27 -15 -47 13l-31 47q-8 13 -6.5 29t13.5 24q89 62 108 159q-132 18 -132 158q0 162 174 162t174 -170q0 -142 -66.5 -251t-186.5 -171z" />
<glyph unicode="-" horiz-adv-x="858" d="M710 540h-561q-16 0 -27.5 11.5t-11.5 27.5v168q0 16 11.5 27.5t27.5 11.5h561q16 0 27 -11.5t11 -27.5v-168q0 -16 -11 -27.5t-27 -11.5z" />
<glyph unicode="." horiz-adv-x="696" d="M174 138q0 162 174 162t174 -162t-174 -162t-174 162z" />
<glyph unicode="/" horiz-adv-x="1270" d="M273 -191q-18 -29 -50 -29h-199q-25 0 -35.5 19t2.5 40l970 1627q17 30 50 30h199q25 0 35.5 -19t-2.5 -40z" />
<glyph unicode="0" d="M1342 700q0 -215 -72 -376.5t-219.5 -254.5t-354.5 -93t-354.5 93t-219.5 254.5t-72 376.5t72 376.5t219.5 254.5t354.5 93t354.5 -93t219.5 -254.5t72 -376.5zM382 700q0 -472 314 -472t314 472t-314 472t-314 -472z" />
<glyph unicode="1" d="M629 1092l-264 -160q-14 -7 -29.5 -4t-23.5 15l-91 133q-10 14 -7 31t17 26l389 244q35 23 94 23h204q16 0 27.5 -11t11.5 -27v-1323q0 -16 -11.5 -27.5t-27.5 -11.5h-250q-16 0 -27.5 11.5t-11.5 27.5v1053z" />
<glyph unicode="2" d="M241 1112q-20 -8 -36 1.5t-17 31.5l-12 165q-1 11 6.5 23t17.5 16q183 75 420 75q271 0 425.5 -108t154.5 -314q0 -139 -61 -247.5t-197 -232.5q-150 -137 -366 -274h591q16 0 27.5 -11.5t11.5 -27.5v-170q0 -16 -11.5 -27.5t-27.5 -11.5h-1008q-16 0 -27.5 11.5 t-11.5 27.5v166q0 30 23 44q289 190 487 369q128 116 183 200.5t55 183.5q0 90 -75 132t-225 42q-182 0 -327 -64z" />
<glyph unicode="3" d="M168 30q-13 3 -22 15t-8 25l18 185q2 20 22 28t40 0q148 -55 347 -55q171 0 250.5 35.5t79.5 122.5q0 112 -127 163.5t-386 54.5q-16 0 -26.5 11t-10.5 28v170q0 16 10.5 27.5t26.5 11.5q251 2 370 46.5t119 137.5q0 74 -68.5 105t-225.5 31q-187 0 -335 -54 q-19 -7 -35 3t-18 29l-17 167q-1 13 6.5 24.5t19.5 16.5q180 66 427 66q282 0 430 -98t148 -264q0 -131 -68.5 -213.5t-189.5 -118.5q130 -37 206 -125.5t76 -218.5q0 -191 -161.5 -300.5t-466.5 -109.5q-240 0 -431 54z" />
<glyph unicode="4" d="M60 311v170q0 49 36 91l675 800q24 28 61 28h271q16 0 27.5 -11t11.5 -27v-840h153q16 0 27.5 -11.5t11.5 -27.5v-172q0 -17 -11 -28t-28 -11h-153v-233q0 -16 -11.5 -27.5t-27.5 -11.5h-250q-16 0 -27.5 11.5t-11.5 27.5v233h-715q-16 0 -27.5 11.5t-11.5 27.5z M814 1036l-431 -514h431v514z" />
<glyph unicode="5" d="M543 228q188 0 274.5 57t86.5 173q0 102 -88 149t-268 47q-166 0 -292 -34q-19 -5 -33.5 7t-14.5 32v703q0 16 11.5 27t27.5 11h900q16 0 27.5 -11t11.5 -27v-171q0 -16 -11.5 -27.5t-27.5 -11.5h-625v-278q96 22 178 22q249 0 392.5 -117t143.5 -335q0 -213 -165 -340.5 t-480 -127.5q-237 0 -401 52q-12 4 -20 15.5t-7 24.5l16 179q2 20 18 30t34 3q132 -52 312 -52z" />
<glyph unicode="6" d="M730 228q116 0 182 58.5t66 167.5q0 114 -64 173t-190 59q-185 0 -298 -98q17 -360 304 -360zM1129 1124q-122 48 -285 48q-193 0 -292 -77t-120 -257q147 94 354 94q234 0 379 -126.5t145 -347.5q0 -217 -157 -349.5t-417 -132.5q-143 0 -259.5 42t-203.5 125.5 t-135 218t-48 310.5q0 379 190 565.5t550 186.5q189 0 336 -48q13 -4 22.5 -16t8.5 -26l-16 -177q-2 -20 -17.5 -30t-34.5 -3z" />
<glyph unicode="7" d="M1240 1362v-188q0 -25 -13 -49l-563 -1098q-14 -27 -43 -27h-264q-24 0 -34.5 18t0.5 38l567 1096h-710q-16 0 -27 11.5t-11 27.5v171q0 16 11 27t27 11h1022q16 0 27 -11t11 -27z" />
<glyph unicode="8" d="M696 -24q-294 0 -458 112t-164 300q0 119 78.5 212.5t221.5 141.5q-120 56 -176 132.5t-56 179.5q0 174 147 272t407 98q252 0 403 -99t151 -271q0 -99 -62 -177.5t-176 -128.5q156 -67 231 -153t75 -207q0 -188 -163 -300t-459 -112zM666 636q-260 -85 -260 -252 q0 -72 72 -116t218 -44q136 0 213 45.5t77 114.5q0 75 -72 135.5t-248 116.5zM732 838q96 38 151 93.5t55 116.5q0 60 -65.5 100t-176.5 40q-113 0 -177.5 -38.5t-64.5 -101.5q0 -62 60.5 -109t217.5 -101z" />
<glyph unicode="9" d="M662 1172q-116 0 -182 -58.5t-66 -167.5q0 -114 64 -173t190 -59q185 0 298 98q-17 360 -304 360zM263 276q122 -48 285 -48q193 0 292 77t120 257q-147 -94 -354 -94q-234 0 -379 126.5t-145 347.5q0 217 157 349.5t417 132.5q143 0 259.5 -42t203.5 -125.5t135 -218 t48 -310.5q0 -379 -190 -565.5t-550 -186.5q-189 0 -336 48q-13 4 -22.5 16t-8.5 26l16 177q2 20 17.5 30t34.5 3z" />
<glyph unicode=":" horiz-adv-x="696" d="M174 138q0 162 174 162t174 -162t-174 -162t-174 162zM174 898q0 162 174 162t174 -162t-174 -162t-174 162z" />
<glyph unicode=";" horiz-adv-x="696" d="M168 898q0 162 174 162t174 -162t-174 -162t-174 162zM263 -292q-27 -15 -47 13l-31 47q-8 13 -6.5 29t13.5 24q89 62 108 159q-132 18 -132 158q0 162 174 162t174 -170q0 -142 -66.5 -251t-186.5 -171z" />
<glyph unicode="&#x3c;" horiz-adv-x="1320" d="M110 563v198q0 11 8 22t18 14l1021 366q20 7 36.5 -4t16.5 -32v-159q0 -30 -28 -40l-778 -266l778 -266q28 -10 28 -40v-159q0 -21 -16.5 -32t-36.5 -4l-1021 366q-10 3 -18 14t-8 22z" />
<glyph unicode="=" horiz-adv-x="1320" d="M1171 778h-1022q-17 0 -28 11t-11 28v144q0 16 11.5 27.5t27.5 11.5h1022q16 0 27.5 -11.5t11.5 -27.5v-144q0 -16 -11.5 -27.5t-27.5 -11.5zM1171 326h-1022q-16 0 -27.5 11t-11.5 27v145q0 16 11.5 27.5t27.5 11.5h1022q16 0 27.5 -11.5t11.5 -27.5v-145 q0 -16 -11.5 -27t-27.5 -11z" />
<glyph unicode="&#x3e;" horiz-adv-x="1320" d="M1210 761v-198q0 -11 -8 -22t-18 -14l-1021 -366q-20 -7 -36.5 4t-16.5 32v159q0 30 28 40l778 266l-778 266q-28 10 -28 40v159q0 21 16.5 32t36.5 4l1021 -366q10 -3 18 -14t8 -22z" />
<glyph unicode="?" horiz-adv-x="1248" d="M351 132q0 156 184 156t184 -156t-184 -156t-184 156zM377 424v28q0 136 52.5 230t171.5 160q107 60 145.5 105t38.5 105q0 120 -288 120q-184 0 -338 -62q-20 -8 -36 2t-17 31l-15 169q-1 10 6 21t17 16q81 36 193.5 55.5t225.5 19.5q292 0 438 -93t146 -269 q0 -223 -276 -384q-78 -46 -113 -101.5t-35 -132.5v-20q0 -16 -11.5 -27t-27.5 -11h-238q-16 0 -27.5 11t-11.5 27z" />
<glyph unicode="@" horiz-adv-x="1932" d="M872 314q148 0 232 106l64 326q-42 54 -142 54q-114 0 -202 -99.5t-88 -234.5q0 -74 37.5 -113t98.5 -39zM1505 -182q-248 -142 -525 -142q-186 0 -351 65.5t-284.5 179.5t-189 277.5t-69.5 351.5q0 186 68.5 349.5t185.5 278t277 180.5t339 66q150 0 286.5 -39 t246 -113.5t190 -175.5t124 -231.5t43.5 -276.5q0 -223 -105 -358.5t-293 -135.5q-89 0 -155.5 36.5t-102.5 105.5q-129 -132 -346 -132q-163 0 -264.5 98t-101.5 254q0 116 47 220t124 176.5t177.5 115t205.5 42.5q234 0 359 -162q36 -47 25 -102l-66 -342q0 -70 32.5 -109 t87.5 -39q77 0 126.5 94t49.5 238q0 187 -85.5 336t-243.5 234.5t-361 85.5q-140 0 -264 -54t-212.5 -146.5t-140 -221t-51.5 -272.5q0 -197 90.5 -356t249.5 -248.5t356 -89.5q240 0 435 123q16 10 33 5t24 -21l44 -94q7 -14 2.5 -28.5t-17.5 -22.5z" />
<glyph unicode="A" horiz-adv-x="1612" d="M1115 310h-642l-111 -285q-4 -10 -15 -17.5t-21 -7.5h-273q-22 0 -32 16.5t-1 38.5l559 1320q11 25 39 25h352q28 0 39 -25l559 -1320q9 -22 -1 -38.5t-32 -16.5h-273q-10 0 -21 7.5t-15 17.5zM568 558h452l-226 580z" />
<glyph unicode="B" horiz-adv-x="1490" d="M818 0h-628q-16 0 -28 12t-12 28v1320q0 16 12 28t28 12h598q268 0 414 -101.5t146 -274.5q0 -97 -47 -168.5t-133 -111.5q122 -38 190 -126.5t68 -201.5q0 -203 -155 -309.5t-453 -106.5zM746 1160h-268v-318h268q270 0 270 162q0 82 -66 119t-204 37zM478 602v-362h300 q167 0 240.5 42.5t73.5 137.5t-73.5 138.5t-240.5 43.5h-300z" />
<glyph unicode="C" horiz-adv-x="1448" d="M1347 31q-171 -55 -403 -55q-409 0 -636.5 193t-227.5 531q0 334 227.5 529t630.5 195q228 0 399 -55q12 -4 20.5 -16.5t7.5 -25.5l-16 -171q-2 -21 -18 -30.5t-35 -2.5q-143 49 -320 49q-273 0 -418.5 -125t-145.5 -347q0 -228 149 -350t423 -122q185 0 321 53 q20 8 36 -2t18 -31l16 -175q1 -13 -7.5 -25.5t-20.5 -16.5z" />
<glyph unicode="D" horiz-adv-x="1608" d="M656 0h-467q-16 0 -27.5 12t-11.5 28v1320q0 16 11.5 28t27.5 12h467q196 0 355.5 -44.5t275 -131t178.5 -220t63 -304.5q0 -172 -63 -305.5t-178.5 -219.5t-275 -130.5t-355.5 -44.5zM1196 700q0 237 -140 344.5t-426 107.5h-152v-904h152q287 0 426.5 107t139.5 345z " />
<glyph unicode="E" horiz-adv-x="1340" d="M150 40v1320q0 16 11.5 28t27.5 12h1015q16 0 28 -12t12 -28v-169q0 -16 -12 -27.5t-28 -11.5h-726v-310h676q16 0 28 -12t12 -28v-168q0 -16 -12 -28t-28 -12h-676v-346h742q16 0 28 -11.5t12 -27.5v-169q0 -16 -12 -28t-28 -12h-1031q-16 0 -27.5 12t-11.5 28z" />
<glyph unicode="F" horiz-adv-x="1288" d="M438 0h-249q-16 0 -27.5 12t-11.5 28v1320q0 16 11.5 28t27.5 12h1015q16 0 28 -12t12 -28v-169q0 -16 -12 -27.5t-28 -11.5h-726v-310h676q16 0 28 -12t12 -28v-168q0 -16 -12 -28t-28 -12h-676v-554q0 -16 -12 -28t-28 -12z" />
<glyph unicode="G" horiz-adv-x="1670" d="M1436 1101q-184 69 -414 69q-294 0 -452 -122.5t-158 -347.5q0 -231 158 -350.5t448 -119.5q140 0 230 28v300h-355q-16 0 -27.5 12t-11.5 28v168q0 16 11.5 28t27.5 12h607q16 0 28 -12t12 -28v-672q0 -34 -29 -44q-230 -74 -505 -74q-432 0 -679 197.5t-247 526.5 q0 156 59 288t170.5 229t283.5 152t387 55q270 0 499 -70q12 -4 20.5 -16t7.5 -25l-18 -179q-2 -20 -18 -30t-35 -3z" />
<glyph unicode="H" horiz-adv-x="1664" d="M150 40v1320q0 16 11.5 28t27.5 12h249q16 0 28 -12t12 -28v-492h708v492q0 16 12 28t28 12h248q16 0 28 -12t12 -28v-1320q0 -16 -12 -28t-28 -12h-248q-16 0 -28 12t-12 28v580h-708v-580q0 -16 -12 -28t-28 -12h-249q-16 0 -27.5 12t-11.5 28z" />
<glyph unicode="I" horiz-adv-x="648" d="M200 1400h248q16 0 28 -12t12 -28v-1320q0 -16 -12 -28t-28 -12h-248q-16 0 -28 12t-12 28v1320q0 16 12 28t28 12z" />
<glyph unicode="J" horiz-adv-x="1108" d="M628 496v864q0 16 12 28t28 12h248q16 0 28 -12t12 -28v-872q0 -512 -562 -512q-207 0 -351 53q-11 4 -19 16.5t-7 24.5l16 180q1 21 18.5 30.5t37.5 1.5q115 -50 271 -50q136 0 202 61.5t66 202.5z" />
<glyph unicode="K" horiz-adv-x="1530" d="M1118 23l-640 666v-649q0 -16 -12 -28t-28 -12h-248q-16 0 -28 12t-12 28v1320q0 16 12 28t28 12h248q16 0 28 -12t12 -28v-563l572 589q12 14 39 14h275q27 0 37 -24t-9 -43l-573 -589l667 -675q20 -20 10 -44.5t-38 -24.5h-289q-30 0 -51 23z" />
<glyph unicode="L" horiz-adv-x="1338" d="M150 40v1320q0 16 12 28t28 12h248q16 0 28 -12t12 -28v-1112h790q16 0 28 -11.5t12 -27.5v-169q0 -16 -12 -28t-28 -12h-1078q-16 0 -28 12t-12 28z" />
<glyph unicode="M" horiz-adv-x="2024" d="M1093 436h-162q-35 0 -53 26l-410 552v-974q0 -16 -11.5 -28t-27.5 -12h-239q-16 0 -28 12t-12 28v1320q0 16 12 28t28 12h320q28 0 43 -21l459 -621l459 621q15 21 43 21h320q16 0 28 -12t12 -28v-1320q0 -16 -12 -28t-28 -12h-239q-16 0 -27.5 12t-11.5 28v974 l-410 -552q-18 -26 -53 -26z" />
<glyph unicode="N" horiz-adv-x="1680" d="M1118 18l-650 990v-968q0 -16 -12 -28t-28 -12h-238q-16 0 -28 12t-12 28v1320q0 16 12 28t28 12h334q27 0 38 -18l650 -990v968q0 16 12 28t28 12h238q16 0 28 -12t12 -28v-1320q0 -16 -12 -28t-28 -12h-334q-27 0 -38 18z" />
<glyph unicode="O" horiz-adv-x="1704" d="M1624 700q0 -154 -51.5 -286t-147.5 -229.5t-243 -153t-330 -55.5t-330 55.5t-243 153t-147.5 229.5t-51.5 286t51.5 286t147.5 229.5t243 153t330 55.5t330 -55.5t243 -153t147.5 -229.5t51.5 -286zM412 700q0 -226 115 -349t325 -123t325 123t115 349t-115 349 t-325 123t-325 -123t-115 -349z" />
<glyph unicode="P" horiz-adv-x="1420" d="M190 1400h532q300 0 469 -120t169 -344q0 -223 -169 -343.5t-469 -120.5h-244v-432q0 -16 -12 -28t-28 -12h-248q-16 0 -28 12t-12 28v1320q0 16 12 28t28 12zM478 1148v-424h212q174 0 256 48t82 164t-82 164t-256 48h-212z" />
<glyph unicode="Q" horiz-adv-x="1704" d="M1624 700q0 -180 -66.5 -326.5t-201 -247.5t-321.5 -134q11 -59 77.5 -81.5t176.5 -22.5q99 0 180 16q17 3 31 -7t16 -27l19 -138q2 -16 -7 -28.5t-26 -15.5q-111 -20 -240 -20q-445 0 -524 314q-208 22 -358.5 121.5t-225 252.5t-74.5 344q0 154 51.5 286t147.5 229.5 t243 153t330 55.5t330 -55.5t243 -153t147.5 -229.5t51.5 -286zM412 700q0 -226 115 -349t325 -123t325 123t115 349t-115 349t-325 123t-325 -123t-115 -349z" />
<glyph unicode="R" horiz-adv-x="1516" d="M1372 960q0 -139 -76 -240.5t-228 -154.5l387 -501q16 -21 5.5 -42.5t-36.5 -21.5h-261q-33 0 -50 23l-365 497h-270v-480q0 -16 -11.5 -28t-27.5 -12h-250q-16 0 -27.5 12t-11.5 28v1320q0 16 11.5 28t27.5 12h560q183 0 321 -47t220 -147.5t82 -245.5zM1040 960 q0 188 -316 188h-246v-376h246q316 0 316 188z" />
<glyph unicode="S" horiz-adv-x="1304" d="M124 45q-12 5 -20 17.5t-7 25.5l18 177q2 21 18.5 31t35.5 2q168 -72 421 -72q163 0 232.5 37.5t69.5 112.5q0 70 -72 117t-268 99q-244 65 -353 169t-109 269q0 191 149.5 292.5t446.5 101.5q240 0 428 -55q15 -4 24 -17t7 -26l-15 -171q-1 -20 -16 -29.5t-34 -4.5 q-165 49 -366 49q-163 0 -227.5 -32t-64.5 -96q0 -66 68 -110.5t248 -97.5q264 -76 375 -178.5t111 -265.5q0 -208 -150 -311t-482 -103q-261 0 -468 69z" />
<glyph unicode="T" horiz-adv-x="1336" d="M504 40v1110h-444q-16 0 -28 12t-12 28v170q0 16 12 28t28 12h1216q16 0 28 -12t12 -28v-170q0 -16 -12 -28t-28 -12h-444v-1110q0 -16 -12 -28t-28 -12h-248q-16 0 -28 12t-12 28z" />
<glyph unicode="U" horiz-adv-x="1692" d="M846 -24q-156 0 -283 36.5t-219.5 107.5t-143 183.5t-50.5 258.5v798q0 16 12 28t28 12h249q16 0 27.5 -12t11.5 -28v-785q0 -173 88.5 -260t279.5 -87t279.5 87t88.5 260v785q0 16 11.5 28t27.5 12h249q16 0 28 -12t12 -28v-798q0 -146 -50.5 -258.5t-143 -183.5 t-219.5 -107.5t-283 -36.5z" />
<glyph unicode="V" horiz-adv-x="1664" d="M986 0h-332q-38 0 -52 34l-556 1311q-9 22 2.5 38.5t34.5 16.5h269q11 0 22 -7.5t15 -17.5l431 -1113l431 1113q4 10 15 17.5t22 7.5h269q23 0 34.5 -16.5t2.5 -38.5l-556 -1311q-14 -34 -52 -34z" />
<glyph unicode="W" horiz-adv-x="2388" d="M1013 1400h344q12 0 23.5 -9t14.5 -21l268 -1057l335 1060q9 27 45 27h246q22 0 33.5 -17.5t4.5 -37.5l-446 -1314q-10 -31 -50 -31h-352q-13 0 -24.5 9t-14.5 21l-255 1026l-255 -1026q-3 -12 -14.5 -21t-24.5 -9h-352q-40 0 -50 31l-446 1314q-7 20 4.5 37.5t33.5 17.5 h246q36 0 45 -27l335 -1060l268 1057q3 12 14.5 21t23.5 9z" />
<glyph unicode="X" horiz-adv-x="1636" d="M785 489l-394 -463q-21 -26 -60 -26h-254q-26 0 -36.5 23t6.5 43l549 646l-529 622q-17 20 -6.5 43t36.5 23h254q39 0 60 -26l374 -440l374 440q21 26 60 26h254q26 0 36.5 -23t-6.5 -43l-529 -622l549 -646q17 -20 6.5 -43t-36.5 -23h-254q-39 0 -60 26z" />
<glyph unicode="Y" horiz-adv-x="1664" d="M931 0h-250q-16 0 -27.5 11.5t-11.5 28.5v510l-587 787q-16 21 -5 42t37 21h260q32 0 50 -23l409 -563l409 563q18 23 50 23h260q26 0 37 -21t-5 -42l-587 -787v-510q0 -17 -11.5 -28.5t-27.5 -11.5z" />
<glyph unicode="Z" horiz-adv-x="1344" d="M85 285l773 867h-726q-16 0 -28 11.5t-12 27.5v169q0 16 12 28t28 12h1092q16 0 28 -12t12 -28v-183q0 -31 -29 -62l-773 -867h786q16 0 28 -11.5t12 -27.5v-169q0 -16 -12 -28t-28 -12h-1152q-16 0 -28 12t-12 28v183q0 31 29 62z" />
<glyph unicode="[" horiz-adv-x="918" d="M230 -221v1682q0 16 11 27.5t27 11.5h571q17 0 28 -11t11 -28v-144q0 -16 -11.5 -27.5t-27.5 -11.5h-321v-1318h321q16 0 27.5 -11t11.5 -27v-143q0 -16 -11.5 -27.5t-27.5 -11.5h-571q-16 0 -27 11.5t-11 27.5z" />
<glyph unicode="\" horiz-adv-x="1270" d="M961 -191l-970 1628q-13 21 -2.5 40t35.5 19h199q33 0 50 -30l970 -1627q13 -21 2.5 -40t-35.5 -19h-199q-32 0 -50 29z" />
<glyph unicode="]" horiz-adv-x="918" d="M688 1461v-1682q0 -16 -11 -27.5t-27 -11.5h-571q-16 0 -27.5 11.5t-11.5 27.5v143q0 16 11.5 27t27.5 11h321v1318h-321q-16 0 -27.5 11.5t-11.5 27.5v144q0 17 11 28t28 11h571q16 0 27 -11.5t11 -27.5z" />
<glyph unicode="^" horiz-adv-x="1320" d="M514 1400h250q21 0 32 -17l378 -585q14 -21 3.5 -40.5t-35.5 -19.5h-205q-27 0 -42 22l-256 406l-256 -406q-15 -22 -42 -22h-205q-25 0 -35.5 19.5t3.5 40.5l378 585q11 17 32 17z" />
<glyph unicode="_" horiz-adv-x="1000" d="M0 -302v59q0 16 11.5 27.5t27.5 11.5h922q16 0 27.5 -11.5t11.5 -27.5v-59q0 -16 -11.5 -27t-27.5 -11h-922q-16 0 -27.5 11t-11.5 27z" />
<glyph unicode="`" horiz-adv-x="1008" d="M700 1120h-143q-31 0 -53 18l-297 250q-22 18 -16 45t34 27h237q28 0 48 -21l220 -254q17 -20 6.5 -42.5t-36.5 -22.5z" />
<glyph unicode="a" horiz-adv-x="1290" d="M1170 664v-625q0 -16 -11.5 -27.5t-27.5 -11.5h-236q-16 0 -27.5 11.5t-11.5 27.5v47q-128 -110 -356 -110q-195 0 -317.5 87t-122.5 245q0 167 135 261.5t393 94.5h268v42q0 78 -55.5 107t-204.5 29q-188 0 -348 -56q-19 -7 -39.5 1t-22.5 27l-17 138q-4 31 23 39 q205 69 440 69q288 0 413 -91t125 -305zM578 190q190 0 278 88v172h-258q-113 0 -166.5 -33.5t-53.5 -102.5q0 -64 54 -94t146 -30z" />
<glyph unicode="b" horiz-adv-x="1382" d="M444 86v-47q0 -16 -11 -27.5t-27 -11.5h-237q-16 0 -27.5 11.5t-11.5 27.5v1382q0 16 11.5 27.5t27.5 11.5h237q16 0 27 -11.5t11 -27.5v-471q137 110 342 110q231 0 378.5 -146.5t147.5 -395.5t-147.5 -395.5t-378.5 -146.5q-205 0 -342 110zM444 756v-476 q96 -86 244 -86q144 0 225 80.5t81 243.5t-81 243.5t-225 80.5q-148 0 -244 -86z" />
<glyph unicode="c" horiz-adv-x="1168" d="M1079 21q-126 -45 -315 -45q-324 0 -509 144.5t-185 397.5q0 251 180 396.5t490 145.5q182 0 326 -46q12 -4 20 -16t7 -25l-13 -132q-2 -19 -17.5 -29t-34.5 -4q-99 34 -252 34q-182 0 -285 -84.5t-103 -239.5q0 -157 107 -240.5t303 -83.5q146 0 240 34q19 7 35.5 -4 t18.5 -31l13 -131q1 -13 -6.5 -24.5t-19.5 -16.5z" />
<glyph unicode="d" horiz-adv-x="1382" d="M938 39v47q-137 -110 -342 -110q-231 0 -378.5 146.5t-147.5 395.5t147.5 395.5t378.5 146.5q205 0 342 -110v471q0 16 11 27.5t27 11.5h237q16 0 27.5 -11.5t11.5 -27.5v-1382q0 -16 -11.5 -27.5t-27.5 -11.5h-237q-16 0 -27 11.5t-11 27.5zM938 280v476q-96 86 -244 86 q-144 0 -225 -80.5t-81 -243.5t81 -243.5t225 -80.5q148 0 244 86z" />
<glyph unicode="e" horiz-adv-x="1292" d="M654 842q-117 0 -185 -56t-77 -162h526q-9 106 -77.5 162t-186.5 56zM1097 30q-148 -54 -365 -54q-326 0 -494 148t-168 396q0 247 156 393.5t422 146.5q278 0 431 -153t153 -399q0 -42 -1 -63q-1 -15 -11 -25t-26 -10h-802q24 -216 366 -216q170 0 301 48q19 7 34 -3 t17 -30l15 -138q3 -29 -28 -41z" />
<glyph unicode="f" horiz-adv-x="890" d="M20 861v136q0 16 11.5 27.5t27.5 11.5h187v49q0 184 112.5 279.5t333.5 95.5q102 0 184 -15q16 -3 25.5 -15t7.5 -28l-18 -135q-2 -16 -15 -25.5t-30 -7.5q-52 8 -94 8q-101 0 -146.5 -37t-45.5 -129v-40h281q16 0 27.5 -11.5t11.5 -27.5v-136q0 -16 -11.5 -27.5 t-27.5 -11.5h-281v-783q0 -16 -11.5 -27.5t-27.5 -11.5h-236q-16 0 -27.5 11.5t-11.5 27.5v783h-187q-16 0 -27.5 11.5t-11.5 27.5z" />
<glyph unicode="g" horiz-adv-x="1382" d="M237 -343q-12 5 -20 16.5t-7 24.5l11 145q1 21 17.5 30.5t36.5 1.5q140 -57 323 -57q168 0 254 52t86 176v64q-129 -110 -342 -110q-232 0 -379 142.5t-147 387.5t147 387.5t379 142.5q213 0 342 -110v47q0 16 11 27.5t27 11.5h237q16 0 27.5 -11.5t11.5 -27.5v-899 q0 -264 -147.5 -381t-484.5 -117q-212 0 -383 57zM938 304v452q-96 86 -244 86q-144 0 -225 -78t-81 -234t81 -234t225 -78q148 0 244 86z" />
<glyph unicode="h" horiz-adv-x="1394" d="M1274 574v-535q0 -16 -11.5 -27.5t-27.5 -11.5h-237q-16 0 -27 11.5t-11 27.5v525q0 146 -63.5 212t-196.5 66q-75 0 -143.5 -23.5t-112.5 -64.5v-715q0 -16 -11.5 -27.5t-27.5 -11.5h-236q-16 0 -27.5 11.5t-11.5 27.5v1382q0 16 11.5 27.5t27.5 11.5h236 q16 0 27.5 -11.5t11.5 -27.5v-471q132 110 338 110q237 0 364.5 -123.5t127.5 -362.5z" />
<glyph unicode="i" horiz-adv-x="596" d="M140 39v958q0 16 11.5 27.5t27.5 11.5h238q16 0 27.5 -11.5t11.5 -27.5v-958q0 -16 -11.5 -27.5t-27.5 -11.5h-238q-16 0 -27.5 11.5t-11.5 27.5zM118 1314q0 146 180 146t180 -146t-180 -146t-180 146z" />
<glyph unicode="j" horiz-adv-x="670" d="M222 -1v998q0 16 11.5 27.5t27.5 11.5h238q16 0 27.5 -11.5t11.5 -27.5v-992q0 -198 -109 -301.5t-357 -103.5q-75 0 -158 13q-15 2 -24.5 14.5t-7.5 27.5l15 137q2 17 16 27.5t32 6.5q42 -8 89 -8q97 0 142.5 43.5t45.5 137.5zM200 1314q0 146 180 146t180 -146 t-180 -146t-180 146z" />
<glyph unicode="k" horiz-adv-x="1294" d="M941 1036h218q28 0 37.5 -24t-10.5 -43l-414 -395l463 -509q18 -20 8 -42.5t-37 -22.5h-256q-43 0 -67 27l-439 503v-491q0 -16 -11.5 -27.5t-27.5 -11.5h-236q-16 0 -27.5 11.5t-11.5 27.5v1382q0 16 11.5 27.5t27.5 11.5h236q16 0 27.5 -11.5t11.5 -27.5v-804l378 372 q47 47 119 47z" />
<glyph unicode="l" horiz-adv-x="596" d="M140 39v1382q0 16 11.5 27.5t27.5 11.5h238q16 0 27.5 -11.5t11.5 -27.5v-1382q0 -16 -11.5 -27.5t-27.5 -11.5h-238q-16 0 -27.5 11.5t-11.5 27.5z" />
<glyph unicode="m" horiz-adv-x="2116" d="M1996 592v-553q0 -16 -11.5 -27.5t-27.5 -11.5h-236q-16 0 -27.5 11.5t-11.5 27.5v565q0 124 -55 181t-163 57q-154 0 -260 -100q16 -74 16 -150v-553q0 -16 -11.5 -27.5t-27.5 -11.5h-236q-16 0 -27.5 11.5t-11.5 27.5v565q0 125 -54.5 181.5t-163.5 56.5 q-72 0 -137.5 -25.5t-106.5 -62.5v-715q0 -16 -11.5 -27.5t-27.5 -11.5h-236q-16 0 -27.5 11.5t-11.5 27.5v958q0 16 11.5 27.5t27.5 11.5h236q16 0 27.5 -11.5t11.5 -27.5v-47q134 110 326 110q236 0 356 -148q77 68 185 108t223 40q219 0 340.5 -119t121.5 -349z" />
<glyph unicode="n" horiz-adv-x="1394" d="M1274 574v-535q0 -16 -11.5 -27.5t-27.5 -11.5h-237q-16 0 -27 11.5t-11 27.5v525q0 146 -63.5 212t-196.5 66q-75 0 -143.5 -23.5t-112.5 -64.5v-715q0 -16 -11.5 -27.5t-27.5 -11.5h-236q-16 0 -27.5 11.5t-11.5 27.5v958q0 16 11.5 27.5t27.5 11.5h236 q16 0 27.5 -11.5t11.5 -27.5v-47q132 110 338 110q237 0 364.5 -123.5t127.5 -362.5z" />
<glyph unicode="o" horiz-adv-x="1380" d="M1310 518q0 -238 -170 -390t-450 -152t-450 152t-170 390t170 390t450 152t450 -152t170 -390zM388 518q0 -156 80 -240t222 -84t222 84t80 240t-80 240t-222 84t-222 -84t-80 -240z" />
<glyph unicode="p" horiz-adv-x="1382" d="M444 997v-47q137 110 342 110q231 0 378.5 -146.5t147.5 -395.5t-147.5 -395.5t-378.5 -146.5q-205 0 -342 110v-433q0 -16 -11 -27.5t-27 -11.5h-237q-16 0 -27.5 11.5t-11.5 27.5v1344q0 16 11.5 27.5t27.5 11.5h237q16 0 27 -11.5t11 -27.5zM444 756v-476 q96 -86 244 -86q144 0 225 80.5t81 243.5t-81 243.5t-225 80.5q-148 0 -244 -86z" />
<glyph unicode="q" horiz-adv-x="1382" d="M938 950v47q0 16 11 27.5t27 11.5h237q16 0 27.5 -11.5t11.5 -27.5v-1344q0 -16 -11.5 -27.5t-27.5 -11.5h-237q-16 0 -27 11.5t-11 27.5v433q-137 -110 -342 -110q-231 0 -378.5 146.5t-147.5 395.5t147.5 395.5t378.5 146.5q205 0 342 -110zM938 280v476 q-96 86 -244 86q-144 0 -225 -80.5t-81 -243.5t81 -243.5t225 -80.5q148 0 244 86z" />
<glyph unicode="r" horiz-adv-x="932" d="M842 818q-53 12 -114 12q-104 0 -177.5 -45t-106.5 -119v-627q0 -16 -11.5 -27.5t-27.5 -11.5h-237q-16 0 -27 11.5t-11 27.5v958q0 16 11 27.5t27 11.5h237q16 0 27.5 -11.5t11.5 -27.5v-81q52 66 133.5 105t180.5 39q72 0 131 -14q14 -3 23.5 -16.5t7.5 -27.5l-21 -154 q-2 -17 -20.5 -26t-36.5 -4z" />
<glyph unicode="s" horiz-adv-x="1100" d="M106 42q-10 4 -18 15.5t-7 22.5l10 148q2 21 18 31t35 2q153 -67 343 -67q115 0 164.5 22t49.5 76q0 45 -52.5 74.5t-209.5 67.5q-183 45 -268.5 123t-85.5 195q0 308 492 308q197 0 366 -51q13 -4 22.5 -16t8.5 -24l-15 -139q-2 -19 -15 -29.5t-31 -4.5q-146 46 -300 46 q-116 0 -163 -20t-47 -58q0 -43 52 -74.5t196 -65.5q202 -49 285 -125t83 -193q0 -330 -506 -330q-235 0 -407 66z" />
<glyph unicode="t" horiz-adv-x="956" d="M230 422v400h-161q-16 0 -27.5 11.5t-11.5 27.5v136q0 16 11.5 27.5t27.5 11.5h161v271q0 16 11.5 27.5t27.5 11.5h236q16 0 27.5 -11.5t11.5 -27.5v-271h317q16 0 27.5 -11.5t11.5 -27.5v-136q0 -16 -11.5 -27.5t-27.5 -11.5h-317v-404q0 -132 44 -178t156 -46 q51 0 95 8q16 3 29.5 -6.5t15.5 -26.5l17 -136q2 -16 -6.5 -28.5t-24.5 -15.5q-72 -13 -168 -13q-133 0 -224 27t-145.5 84.5t-78.5 138.5t-24 196z" />
<glyph unicode="u" horiz-adv-x="1394" d="M120 462v535q0 16 11.5 27.5t27.5 11.5h237q16 0 27 -11.5t11 -27.5v-525q0 -146 63.5 -212t196.5 -66q75 0 143.5 23.5t112.5 64.5v715q0 16 11.5 27.5t27.5 11.5h236q16 0 27.5 -11.5t11.5 -27.5v-958q0 -16 -11.5 -27.5t-27.5 -11.5h-236q-16 0 -27.5 11.5t-11.5 27.5 v47q-132 -110 -338 -110q-237 0 -364.5 123.5t-127.5 362.5z" />
<glyph unicode="v" horiz-adv-x="1296" d="M796 0h-316q-16 0 -29.5 8.5t-18.5 21.5l-396 952q-9 21 2 37.5t34 16.5h248q10 0 21 -7.5t15 -17.5l282 -752l282 752q4 10 15 17.5t21 7.5h248q23 0 34 -16.5t2 -37.5l-396 -952q-5 -13 -18.5 -21.5t-29.5 -8.5z" />
<glyph unicode="w" horiz-adv-x="1952" d="M827 1036h278q12 0 22.5 -8.5t14.5 -19.5l212 -722l230 719q9 31 44 31h233q22 0 33.5 -17.5t3.5 -37.5l-336 -948q-11 -33 -50 -33h-300q-16 0 -29 10t-17 24l-200 695l-200 -695q-4 -14 -17 -24t-29 -10h-300q-39 0 -50 33l-336 948q-8 20 3.5 37.5t33.5 17.5h233 q35 0 44 -31l230 -719l212 722q4 11 14.5 19.5t22.5 8.5z" />
<glyph unicode="x" horiz-adv-x="1272" d="M605 735l234 277q19 24 54 24h230q26 0 36.5 -22t-6.5 -42l-374 -442l394 -466q17 -20 6.5 -42t-36.5 -22h-230q-35 0 -54 24l-254 300l-254 -300q-19 -24 -54 -24h-230q-26 0 -36.5 22t6.5 42l394 466l-374 442q-17 20 -6.5 42t36.5 22h230q35 0 54 -24z" />
<glyph unicode="y" horiz-adv-x="1344" d="M1016 1036h231q23 0 33.5 -17t1.5 -38l-590 -1324q-18 -43 -61 -43h-230q-23 0 -34.5 17t-2.5 38l144 331l-471 980q-10 21 1 38.5t34 17.5h225q41 0 56 -33l311 -681l296 681q15 33 56 33z" />
<glyph unicode="z" horiz-adv-x="1126" d="M46 39v168q0 5 4 14.5t8 12.5l600 588h-541q-16 0 -27.5 11.5t-11.5 27.5v136q0 16 11.5 27.5t27.5 11.5h900q16 0 27.5 -11.5t11.5 -27.5v-163q0 -18 -11 -27l-602 -593h598q16 0 27.5 -11.5t11.5 -27.5v-136q0 -16 -11.5 -27.5t-27.5 -11.5h-956q-16 0 -27.5 11.5 t-11.5 27.5z" />
<glyph unicode="{" horiz-adv-x="922" d="M610 370v-329q0 -42 17.5 -60.5t57.5 -18.5h158q16 0 27.5 -11.5t11.5 -27.5v-144q0 -17 -11 -28t-28 -11h-235q-131 0 -208.5 64t-77.5 187v322q0 78 -41.5 131t-99.5 67q-12 3 -21.5 14t-9.5 24v142q0 13 9.5 24t21.5 14q58 14 99.5 66.5t41.5 130.5v323 q0 123 77.5 187t208.5 64h235q17 0 28 -11t11 -28v-144q0 -16 -11.5 -27.5t-27.5 -11.5h-158q-40 0 -57.5 -18.5t-17.5 -60.5v-329q0 -104 -47 -164.5t-147 -85.5q100 -25 147 -85.5t47 -164.5z" />
<glyph unicode="|" horiz-adv-x="634" d="M196 -361v1860q0 16 11.5 27.5t27.5 11.5h164q16 0 27.5 -11.5t11.5 -27.5v-1860q0 -16 -11.5 -27.5t-27.5 -11.5h-164q-16 0 -27.5 11.5t-11.5 27.5z" />
<glyph unicode="}" horiz-adv-x="920" d="M310 41v329q0 104 47 164.5t147 85.5q-100 25 -147 85.5t-47 164.5v329q0 42 -17.5 60.5t-57.5 18.5h-158q-16 0 -27.5 11.5t-11.5 27.5v144q0 17 11 28t28 11h235q131 0 208.5 -64t77.5 -187v-323q0 -78 41.5 -130.5t99.5 -66.5q12 -3 21.5 -14t9.5 -24v-142 q0 -13 -9.5 -24t-21.5 -14q-58 -14 -99.5 -67t-41.5 -131v-322q0 -123 -77.5 -187t-208.5 -64h-235q-17 0 -28 11t-11 28v144q0 16 11.5 27.5t27.5 11.5h158q40 0 57.5 18.5t17.5 60.5z" />
<glyph unicode="~" horiz-adv-x="1320" d="M662 536q-116 68 -194 68q-33 0 -58 -22t-33 -70q-2 -14 -14 -25t-26 -11h-186q-18 0 -29.5 14t-9.5 32q11 165 95.5 249.5t214.5 84.5q126 0 236 -64q116 -68 194 -68q33 0 58 22t33 70q2 14 14 25t26 11h186q18 0 29.5 -14t9.5 -32q-11 -165 -95.5 -249.5t-214.5 -84.5 q-126 0 -236 64z" />
<glyph unicode="&#xa1;" horiz-adv-x="712" d="M483 -364h-255q-16 0 -27 11t-11 27v325l53 612q1 14 13 24.5t26 10.5h148q15 0 26 -10.5t13 -25.5l53 -612v-324q0 -16 -11.5 -27t-27.5 -11zM172 904q0 156 184 156t184 -156t-184 -156t-184 156z" />
<glyph unicode="&#xa2;" horiz-adv-x="1168" d="M1079 21q-112 -39 -275 -44v-143q0 -16 -11.5 -27t-27.5 -11h-64q-16 0 -27.5 11t-11.5 27v146q-279 23 -435.5 164t-156.5 374q0 234 158 377.5t434 161.5v145q0 16 11.5 27t27.5 11h64q16 0 27.5 -11t11.5 -27v-144q139 -6 262 -44q12 -4 20 -16t7 -25l-13 -132 q-2 -19 -17.5 -29t-34.5 -4q-92 31 -224 34v-648q142 0 234 34q19 7 35.5 -4t18.5 -31l13 -131q1 -13 -6.5 -24.5t-19.5 -16.5zM388 518q0 -127 70.5 -206.5t203.5 -105.5v626q-130 -24 -202 -105t-72 -209z" />
<glyph unicode="&#xa3;" horiz-adv-x="1368" d="M450 248h829q16 0 27.5 -11.5t11.5 -27.5v-170q0 -16 -11.5 -27.5t-27.5 -11.5h-1180q-16 0 -27.5 11.5t-11.5 27.5v170q0 22 19 33q157 96 157 240v164h-137q-16 0 -27.5 11.5t-11.5 27.5v58q0 16 11.5 27.5t27.5 11.5h137v216q0 426 554 426q228 0 392 -63 q13 -5 23 -16.5t9 -25.5l-13 -167q-1 -21 -17.5 -30.5t-36.5 -1.5q-114 52 -301 52q-153 0 -217.5 -43t-64.5 -141v-206h409q16 0 27.5 -11.5t11.5 -27.5v-58q0 -16 -11.5 -27.5t-27.5 -11.5h-409v-134q0 -171 -114 -264z" />
<glyph unicode="&#xa4;" horiz-adv-x="1460" d="M474 664q0 -111 67 -184.5t175 -73.5t175 73.5t67 184.5t-67 184.5t-175 73.5t-175 -73.5t-67 -184.5zM1228 664q0 -139 -68 -252l113 -113q11 -10 11 -26.5t-11 -27.5l-121 -127q-11 -12 -27.5 -12.5t-27.5 11.5l-116 118q-131 -67 -265 -67t-265 67l-116 -118 q-11 -12 -27.5 -11.5t-27.5 12.5l-121 127q-11 11 -11 27t11 27l113 113q-68 113 -68 252t68 252l-113 113q-11 11 -11 27t11 27l121 127q11 12 27.5 12.5t27.5 -11.5l116 -118q131 67 265 67t265 -67l116 118q11 12 27.5 11.5t27.5 -12.5l121 -127q11 -11 11 -27t-11 -27 l-113 -113q68 -113 68 -252z" />
<glyph unicode="&#xa5;" horiz-adv-x="1524" d="M866 0h-250q-16 0 -27.5 11.5t-11.5 27.5v251h-407q-16 0 -27.5 11.5t-11.5 27.5v58q0 16 11.5 27.5t27.5 11.5h407v122h-407q-16 0 -27.5 11.5t-11.5 27.5v58q0 16 11.5 27.5t27.5 11.5h314l-435 656q-14 21 -3.5 40.5t35.5 19.5h253q40 0 59 -31l348 -554l348 554 q19 31 59 31h253q25 0 35.5 -19.5t-3.5 -40.5l-435 -656h314q16 0 27.5 -11.5t11.5 -27.5v-58q0 -16 -11.5 -27.5t-27.5 -11.5h-407v-122h407q16 0 27.5 -11.5t11.5 -27.5v-58q0 -16 -11.5 -27.5t-27.5 -11.5h-407v-251q0 -16 -11.5 -27.5t-27.5 -11.5z" />
<glyph unicode="&#xa6;" horiz-adv-x="634" d="M235 1382h164q16 0 27.5 -11.5t11.5 -27.5v-587q0 -16 -11.5 -27t-27.5 -11h-164q-16 0 -27.5 11t-11.5 27v587q0 16 11.5 27.5t27.5 11.5zM235 456h164q16 0 27.5 -11.5t11.5 -27.5v-587q0 -16 -11.5 -27t-27.5 -11h-164q-16 0 -27.5 11t-11.5 27v587q0 16 11.5 27.5 t27.5 11.5z" />
<glyph unicode="&#xa7;" horiz-adv-x="1238" d="M620 484q89 15 139.5 55t50.5 95q0 47 -49.5 84.5t-136.5 53.5q-89 -15 -139.5 -55t-50.5 -97q0 -47 49 -83.5t137 -52.5zM210 87q158 -75 346 -75q121 0 175.5 28t54.5 84q0 49 -56 84.5t-198 67.5q-189 43 -291.5 125.5t-102.5 202.5q0 93 56.5 163t149.5 101 q-101 34 -155.5 100.5t-54.5 153.5q0 139 124.5 220.5t373.5 81.5q214 0 386 -63q12 -4 19 -16t5 -25l-16 -130q-2 -21 -17 -30.5t-35 -1.5q-130 52 -310 52q-210 0 -210 -98q0 -42 64 -75.5t206 -70.5q187 -51 282.5 -132t95.5 -200q0 -90 -50.5 -156.5t-145.5 -101.5 q94 -29 146 -97.5t52 -154.5q0 -152 -126.5 -238t-387.5 -86q-228 0 -420 73q-26 9 -24 41l12 141q2 21 17.5 31t34.5 1z" />
<glyph unicode="&#xa8;" horiz-adv-x="1008" d="M108 1290q0 136 146 136t146 -136t-146 -136t-146 136zM608 1290q0 136 146 136t146 -136t-146 -136t-146 136z" />
<glyph unicode="&#xa9;" horiz-adv-x="1660" d="M106 700q0 197 97 363.5t263.5 263.5t363.5 97t363.5 -97t263.5 -263.5t97 -363.5t-97 -363.5t-263.5 -263.5t-363.5 -97t-363.5 97t-263.5 263.5t-97 363.5zM218 700q0 -169 82 -312t223 -225.5t307 -82.5t307 82.5t223 225.5t82 312t-82 312t-223 225.5t-307 82.5 t-307 -82.5t-223 -225.5t-82 -312zM902 436q-114 0 -179 68.5t-65 191.5q0 121 64.5 189.5t175.5 68.5q87 0 163 -35q19 -9 36 0t19 30l9 100q1 11 -6.5 22.5t-18.5 16.5q-110 42 -236 42q-199 0 -324.5 -118.5t-125.5 -315.5q0 -199 126.5 -316.5t329.5 -117.5 q130 0 230 38q11 5 18.5 16.5t6.5 22.5l-9 100q-2 21 -19 30t-36 0q-72 -33 -159 -33z" />
<glyph unicode="&#xaa;" horiz-adv-x="1052" d="M238 1203q-17 -5 -32 4.5t-17 27.5l-12 91q-4 35 19 42q141 48 326 48q202 0 297 -73.5t95 -236.5v-429q0 -16 -11.5 -27.5t-27.5 -11.5h-168q-16 0 -27.5 11.5t-11.5 27.5v13q-93 -68 -256 -68q-134 0 -223 63.5t-89 180.5q0 268 408 268h160q0 60 -38 83t-144 23 q-136 0 -248 -37zM482 794q116 0 186 52v120h-144q-96 0 -141 -22t-45 -68q0 -45 36 -63.5t108 -18.5z" />
<glyph unicode="&#xab;" horiz-adv-x="1090" d="M130 577v90q0 26 20 44l358 332q11 10 26 13.5t27.5 -6.5t12.5 -34v-152q0 -24 -21 -43l-221 -199l221 -199q21 -20 21 -43v-152q0 -24 -12.5 -34t-27.5 -6.5t-26 13.5l-358 332q-20 18 -20 44zM536 577v90q0 26 20 44l358 332q11 10 26 13.5t27.5 -6.5t12.5 -34v-152 q0 -24 -21 -43l-221 -199l221 -199q21 -20 21 -43v-152q0 -24 -12.5 -34t-27.5 -6.5t-26 13.5l-358 332q-20 18 -20 44z" />
<glyph unicode="&#xac;" horiz-adv-x="1320" d="M100 719v148q0 16 11.5 27.5t27.5 11.5h1022q16 0 27.5 -11.5t11.5 -27.5v-517q0 -16 -11.5 -27t-27.5 -11h-198q-16 0 -27.5 11t-11.5 27v330h-785q-16 0 -27.5 11.5t-11.5 27.5z" />
<glyph unicode="&#xad;" horiz-adv-x="858" d="M710 540h-561q-16 0 -27.5 11.5t-11.5 27.5v168q0 16 11.5 27.5t27.5 11.5h561q16 0 27 -11.5t11 -27.5v-168q0 -16 -11 -27.5t-27 -11.5z" />
<glyph unicode="&#xae;" horiz-adv-x="1660" d="M558 1118h270q157 0 248.5 -67t91.5 -193q0 -80 -42 -140.5t-122 -93.5l183 -284q14 -20 3 -40t-36 -20h-132q-8 0 -18.5 6t-14.5 13l-181 293h-84v-273q0 -16 -11.5 -27.5t-27.5 -11.5h-127q-16 0 -27 11.5t-11 27.5v760q0 16 11 27.5t27 11.5zM960 858q0 106 -138 106 h-98v-208h98q138 0 138 102zM106 700q0 197 97 363.5t263.5 263.5t363.5 97t363.5 -97t263.5 -263.5t97 -363.5t-97 -363.5t-263.5 -263.5t-363.5 -97t-363.5 97t-263.5 263.5t-97 363.5zM218 700q0 -169 82 -312t223 -225.5t307 -82.5t307 82.5t223 225.5t82 312t-82 312 t-223 225.5t-307 82.5t-307 -82.5t-223 -225.5t-82 -312z" />
<glyph unicode="&#xaf;" horiz-adv-x="1008" d="M154 1229v121q0 16 11.5 27t27.5 11h622q16 0 27.5 -11t11.5 -27v-121q0 -16 -11.5 -27.5t-27.5 -11.5h-622q-16 0 -27.5 11.5t-11.5 27.5z" />
<glyph unicode="&#xb0;" horiz-adv-x="1008" d="M822 1118q0 -129 -91.5 -217.5t-226.5 -88.5t-226.5 88.5t-91.5 217.5t91.5 217.5t226.5 88.5t226.5 -88.5t91.5 -217.5zM382 1118q0 -56 34.5 -91t87.5 -35t87.5 35t34.5 91t-34.5 91t-87.5 35t-87.5 -35t-34.5 -91z" />
<glyph unicode="&#xb1;" horiz-adv-x="1320" d="M522 350v332h-373q-16 0 -27.5 11t-11.5 27v150q0 16 11.5 27t27.5 11h373v323q0 16 11.5 27.5t27.5 11.5h198q16 0 27.5 -11.5t11.5 -27.5v-323h373q16 0 27.5 -11t11.5 -27v-150q0 -16 -11.5 -27t-27.5 -11h-373v-332q0 -16 -11.5 -27t-27.5 -11h-198q-16 0 -27.5 11 t-11.5 27zM1171 38h-1022q-17 0 -28 11t-11 28v148q0 16 11.5 27.5t27.5 11.5h1022q16 0 27.5 -11.5t11.5 -27.5v-148q0 -16 -11.5 -27.5t-27.5 -11.5z" />
<glyph unicode="&#xb2;" horiz-adv-x="940" d="M434 654h347q16 0 27.5 -11.5t11.5 -27.5v-106q0 -16 -11.5 -27.5t-27.5 -11.5h-658q-16 0 -27.5 11.5t-11.5 27.5v109q0 20 20 33q194 133 314 245q79 72 113.5 122t34.5 102q0 56 -44.5 80t-135.5 24q-112 0 -209 -35q-19 -7 -33 3.5t-16 31.5l-8 102q-1 14 6.5 26.5 t19.5 16.5q130 47 284 47q188 0 286 -73t98 -209q0 -89 -39 -163t-133 -159q-92 -82 -208 -158z" />
<glyph unicode="&#xb3;" horiz-adv-x="940" d="M154 680q99 -38 226 -38q200 0 200 96q0 63 -81 92.5t-253 31.5q-26 1 -26 39v104q0 38 31 39q165 5 240 31t75 77q0 38 -42.5 56t-135.5 18q-124 0 -221 -32q-18 -6 -31 4t-15 30l-12 106q-4 31 21 39q129 43 296 43q184 0 286 -64.5t102 -187.5q0 -70 -41.5 -125 t-120.5 -83q82 -25 129 -83t47 -135q0 -137 -111 -210.5t-313 -73.5q-159 0 -285 37q-12 4 -20.5 15.5t-7.5 24.5l10 117q1 19 17.5 29t35.5 3z" />
<glyph unicode="&#xb4;" horiz-adv-x="1008" d="M430 1120h-143q-26 0 -36.5 22.5t6.5 42.5l220 254q19 21 48 21h237q28 0 34 -27t-16 -45l-297 -250q-22 -18 -53 -18z" />
<glyph unicode="&#xb5;" horiz-adv-x="1404" d="M960 39v41q-42 -49 -110 -76.5t-148 -27.5t-148 27.5t-110 76.5v-427q0 -16 -11.5 -27.5t-27.5 -11.5h-236q-16 0 -27.5 11.5t-11.5 27.5v1344q0 16 11.5 27.5t27.5 11.5h236q16 0 27.5 -11.5t11.5 -27.5v-715q94 -88 258 -88q167 0 258 88v715q0 16 11 27.5t27 11.5h237 q16 0 27.5 -11.5t11.5 -27.5v-958q0 -16 -11.5 -27.5t-27.5 -11.5h-237q-16 0 -27 11.5t-11 27.5z" />
<glyph unicode="&#xb6;" horiz-adv-x="1210" d="M514 1400h487q25 0 42 -14t17 -40v-1569q0 -16 -11.5 -27.5t-27.5 -11.5h-150q-16 0 -27.5 11.5t-11.5 27.5v1417h-76v-1417q0 -16 -11.5 -27.5t-27.5 -11.5h-154q-16 0 -27.5 11.5t-11.5 27.5v755h-10q-201 0 -327.5 115.5t-126.5 318.5t126.5 318.5t327.5 115.5z" />
<glyph unicode="&#xb7;" horiz-adv-x="696" d="M174 664q0 162 174 162t174 -162t-174 -162t-174 162z" />
<glyph unicode="&#xb8;" horiz-adv-x="1008" d="M406 -476q-52 0 -106 7q-15 2 -24.5 12t-9.5 23v76q0 38 38 35q43 -5 86 -5q130 0 130 58q0 68 -173 78q-24 1 -33.5 20.5t3.5 39.5l74 114q10 18 34 18h156q25 0 33 -14t-6 -35l-44 -67q77 -11 126.5 -55.5t49.5 -108.5q0 -98 -80.5 -147t-253.5 -49z" />
<glyph unicode="&#xb9;" horiz-adv-x="940" d="M399 1142l-156 -95q-13 -8 -29 -4.5t-24 16.5l-68 103q-9 14 -5 29t18 24l267 169q29 18 65 18h137q16 0 27.5 -11.5t11.5 -27.5v-854q0 -16 -11.5 -27.5t-27.5 -11.5h-166q-16 0 -27.5 11.5t-11.5 27.5v633z" />
<glyph unicode="&#xba;" horiz-adv-x="1052" d="M980 1020q0 -179 -126.5 -287.5t-327.5 -108.5t-327.5 108.5t-126.5 287.5t126.5 287.5t327.5 108.5t327.5 -108.5t126.5 -287.5zM324 1020q0 -106 55 -163t147 -57t147 57t55 163t-55 163t-147 57t-147 -57t-55 -163z" />
<glyph unicode="&#xbb;" horiz-adv-x="1090" d="M960 667v-90q0 -26 -20 -44l-358 -332q-11 -10 -26 -13.5t-27.5 6.5t-12.5 34v152q0 24 21 43l221 199l-221 199q-21 20 -21 43v152q0 24 12.5 34t27.5 6.5t26 -13.5l358 -332q20 -18 20 -44zM554 667v-90q0 -26 -20 -44l-358 -332q-11 -10 -26 -13.5t-27.5 6.5t-12.5 34 v152q0 24 21 43l221 199l-221 199q-21 19 -21 43v152q0 24 12.5 34t27.5 6.5t26 -13.5l358 -332q20 -18 20 -44z" />
<glyph unicode="&#xbc;" horiz-adv-x="2300" d="M1313 217v103q0 42 27 73l448 517q18 20 46 20h172q16 0 27.5 -11t11.5 -28v-523h85q16 0 27.5 -11.5t11.5 -27.5v-112q0 -16 -11.5 -27.5t-27.5 -11.5h-85v-139q0 -17 -11.5 -28t-27.5 -11h-163q-16 0 -27 11.5t-11 27.5v139h-454q-16 0 -27 11.5t-11 27.5zM1805 662 l-251 -294h251v294zM1643 1370l-885 -1366q-23 -34 -64 -34h-93q-25 0 -35.5 19.5t3.5 40.5l885 1366q23 34 64 34h93q25 0 35.5 -19.5t-3.5 -40.5zM390 1142l-156 -95q-13 -8 -29 -4.5t-24 16.5l-68 103q-9 14 -5 29t18 24l267 169q29 18 65 18h137q16 0 27.5 -11.5 t11.5 -27.5v-854q0 -16 -11.5 -27.5t-27.5 -11.5h-166q-16 0 -27.5 11.5t-11.5 27.5v633z" />
<glyph unicode="&#xbd;" horiz-adv-x="2300" d="M1739 184h347q16 0 27.5 -11.5t11.5 -27.5v-106q0 -16 -11.5 -27.5t-27.5 -11.5h-658q-16 0 -27.5 11.5t-11.5 27.5v109q0 20 20 33q194 133 314 245q79 72 113.5 122t34.5 102q0 56 -44.5 80t-135.5 24q-112 0 -209 -35q-19 -7 -33 3.5t-16 31.5l-8 102q-1 14 6.5 26.5 t19.5 16.5q130 47 284 47q188 0 286 -73t98 -209q0 -89 -39 -163t-133 -159q-92 -82 -208 -158zM1549 1370l-885 -1366q-23 -34 -64 -34h-93q-25 0 -35.5 19.5t3.5 40.5l885 1366q23 34 64 34h93q25 0 35.5 -19.5t-3.5 -40.5zM390 1142l-156 -95q-13 -8 -29 -4.5t-24 16.5 l-68 103q-9 14 -5 29t18 24l267 169q29 18 65 18h137q16 0 27.5 -11.5t11.5 -27.5v-854q0 -16 -11.5 -27.5t-27.5 -11.5h-166q-16 0 -27.5 11.5t-11.5 27.5v633z" />
<glyph unicode="&#xbe;" horiz-adv-x="2300" d="M1676 1370l-885 -1366q-23 -34 -64 -34h-93q-25 0 -35.5 19.5t3.5 40.5l885 1366q23 34 64 34h93q25 0 35.5 -19.5t-3.5 -40.5zM152 680q99 -38 226 -38q200 0 200 96q0 63 -81 92.5t-253 31.5q-26 1 -26 39v104q0 38 31 39q165 5 240 31t75 77q0 38 -42.5 56t-135.5 18 q-124 0 -221 -32q-18 -6 -31 4t-15 30l-12 106q-4 31 21 39q129 43 296 43q184 0 286 -64.5t102 -187.5q0 -70 -41.5 -125t-120.5 -83q82 -25 129 -83t47 -135q0 -137 -111 -210.5t-313 -73.5q-159 0 -285 37q-12 4 -20.5 15.5t-7.5 24.5l10 117q1 19 17.5 29t35.5 3z M1320 217v103q0 42 27 73l448 517q18 20 46 20h172q17 0 28 -11t11 -28v-523h85q16 0 27.5 -11.5t11.5 -27.5v-112q0 -16 -11.5 -27.5t-27.5 -11.5h-85v-139q0 -17 -11 -28t-28 -11h-163q-16 0 -27 11.5t-11 27.5v139h-454q-16 0 -27 11.5t-11 27.5zM1812 662l-251 -294h251 v294z" />
<glyph unicode="&#xbf;" horiz-adv-x="1248" d="M896 904q0 -156 -184 -156t-184 156t184 156t184 -156zM870 612v-28q0 -136 -52.5 -230t-171.5 -160q-107 -60 -145.5 -105t-38.5 -105q0 -120 288 -120q184 0 338 62q20 8 36 -2t17 -31l15 -169q1 -10 -6 -21t-17 -16q-167 -75 -419 -75q-292 0 -438 93t-146 269 q0 223 276 384q78 46 113 101.5t35 132.5v20q0 16 11.5 27t27.5 11h238q16 0 27.5 -11t11.5 -27z" />
<glyph unicode="&#xc0;" horiz-adv-x="1612" d="M473 310h642l111 -285q4 -10 15 -17.5t21 -7.5h273q22 0 32 16.5t1 38.5l-559 1320q-11 25 -39 25h-352q-28 0 -39 -25l-559 -1320q-9 -22 1 -38.5t32 -16.5h273q10 0 21 7.5t15 17.5zM1020 558h-452l226 580zM920 1508h-143q-31 0 -53 18l-297 250q-22 18 -16 45t34 27 h237q28 0 48 -21l220 -254q17 -20 6.5 -42.5t-36.5 -22.5z" />
<glyph unicode="&#xc1;" horiz-adv-x="1612" d="M1115 310h-642l-111 -285q-4 -10 -15 -17.5t-21 -7.5h-273q-22 0 -32 16.5t-1 38.5l559 1320q11 25 39 25h352q28 0 39 -25l559 -1320q9 -22 -1 -38.5t-32 -16.5h-273q-10 0 -21 7.5t-15 17.5zM568 558h452l-226 580zM814 1508h-143q-26 0 -36.5 22.5t6.5 42.5l220 254 q19 21 48 21h237q28 0 34 -27t-16 -45l-297 -250q-22 -18 -53 -18z" />
<glyph unicode="&#xc2;" horiz-adv-x="1612" d="M1115 310h-642l-111 -285q-4 -10 -15 -17.5t-21 -7.5h-273q-22 0 -32 16.5t-1 38.5l559 1320q11 25 39 25h352q28 0 39 -25l559 -1320q9 -22 -1 -38.5t-32 -16.5h-273q-10 0 -21 7.5t-15 17.5zM568 558h452l-226 580zM668 1848h222q30 0 45 -19l222 -262 q17 -20 8.5 -39.5t-34.5 -19.5h-162q-24 0 -40 18l-150 152l-150 -152q-16 -18 -40 -18h-162q-26 0 -34.5 19.5t8.5 39.5l222 262q15 19 45 19z" />
<glyph unicode="&#xc3;" horiz-adv-x="1612" d="M473 310h642l111 -285q4 -10 15 -17.5t21 -7.5h273q22 0 32 16.5t1 38.5l-559 1320q-11 25 -39 25h-352q-28 0 -39 -25l-559 -1320q-9 -22 1 -38.5t32 -16.5h273q10 0 21 7.5t15 17.5zM1020 558h-452l226 580zM812 1574q-73 42 -120 42q-31 0 -47 -10.5t-21 -40.5 q-2 -13 -13 -22t-25 -9h-124q-18 0 -29 9.5t-10 26.5q7 130 65 193t152 63q83 0 162 -44q73 -42 120 -42q31 0 47 10.5t21 40.5q2 13 13 22t25 9h124q18 0 29 -9.5t10 -26.5q-7 -130 -65 -193t-152 -63q-83 0 -162 44z" />
<glyph unicode="&#xc4;" horiz-adv-x="1612" d="M473 310h642l111 -285q4 -10 15 -17.5t21 -7.5h273q22 0 32 16.5t1 38.5l-559 1320q-11 25 -39 25h-352q-28 0 -39 -25l-559 -1320q-9 -22 1 -38.5t32 -16.5h273q10 0 21 7.5t15 17.5zM1020 558h-452l226 580zM410 1678q0 136 146 136t146 -136t-146 -136t-146 136z M910 1678q0 136 146 136t146 -136t-146 -136t-146 136z" />
<glyph unicode="&#xc5;" horiz-adv-x="1612" d="M473 310h642l111 -285q4 -10 15 -17.5t21 -7.5h273q22 0 32 16.5t1 38.5l-559 1320q-11 25 -39 25h-352q-28 0 -39 -25l-559 -1320q-9 -22 1 -38.5t32 -16.5h273q10 0 21 7.5t15 17.5zM1020 558h-452l226 580zM1058 1678q0 -102 -72 -172t-180 -70t-180 70t-72 172 t72 172t180 70t180 -70t72 -172zM722 1678q0 -38 24.5 -62t59.5 -24t59.5 24t24.5 62t-24.5 62t-59.5 24t-59.5 -24t-24.5 -62z" />
<glyph unicode="&#xc6;" horiz-adv-x="2112" d="M1974 0h-917q-16 0 -27.5 12t-11.5 28v270h-480l-162 -289q-12 -21 -36 -21h-280q-25 0 -36.5 19t0.5 40l762 1321q4 8 14.5 14t19.5 6h1136q16 0 28 -12t12 -28v-169q0 -16 -12 -27.5t-28 -11.5h-610v-310h553q16 0 27.5 -11.5t11.5 -28.5v-168q0 -17 -11.5 -28.5 t-27.5 -11.5h-553v-346h628q16 0 28 -11.5t12 -27.5v-169q0 -16 -12 -28t-28 -12zM1018 1166l-342 -608h342v608z" />
<glyph unicode="&#xc7;" horiz-adv-x="1448" d="M788 -476q-52 0 -106 7q-15 2 -24.5 12t-9.5 23v76q0 38 38 35q43 -5 86 -5q130 0 130 58q0 68 -173 78q-24 1 -33.5 20.5t3.5 39.5l75 118q-332 38 -513 225.5t-181 488.5q0 334 227.5 529t630.5 195q228 0 399 -55q12 -4 20.5 -16.5t7.5 -25.5l-16 -171 q-2 -21 -18 -30.5t-35 -2.5q-143 49 -320 49q-273 0 -418.5 -125t-145.5 -347q0 -228 149 -350t423 -122q185 0 321 53q20 8 36 -2t18 -31l16 -175q1 -13 -7.5 -25.5t-20.5 -16.5q-145 -47 -341 -53l-60 -94q77 -11 126.5 -55.5t49.5 -108.5q0 -98 -80.5 -147t-253.5 -49z " />
<glyph unicode="&#xc8;" horiz-adv-x="1340" d="M150 40v1320q0 16 11.5 28t27.5 12h1015q16 0 28 -12t12 -28v-169q0 -16 -12 -27.5t-28 -11.5h-726v-310h676q16 0 28 -12t12 -28v-168q0 -16 -12 -28t-28 -12h-676v-346h742q16 0 28 -11.5t12 -27.5v-169q0 -16 -12 -28t-28 -12h-1031q-16 0 -27.5 12t-11.5 28z M846 1508h-143q-31 0 -53 18l-297 250q-22 18 -16 45t34 27h237q28 0 48 -21l220 -254q17 -20 6.5 -42.5t-36.5 -22.5z" />
<glyph unicode="&#xc9;" horiz-adv-x="1340" d="M150 40v1320q0 16 11.5 28t27.5 12h1015q16 0 28 -12t12 -28v-169q0 -16 -12 -27.5t-28 -11.5h-726v-310h676q16 0 28 -12t12 -28v-168q0 -16 -12 -28t-28 -12h-676v-346h742q16 0 28 -11.5t12 -27.5v-169q0 -16 -12 -28t-28 -12h-1031q-16 0 -27.5 12t-11.5 28z M652 1508h-143q-26 0 -36.5 22.5t6.5 42.5l220 254q19 21 48 21h237q28 0 34 -27t-16 -45l-297 -250q-22 -18 -53 -18z" />
<glyph unicode="&#xca;" horiz-adv-x="1340" d="M150 40v1320q0 16 11.5 28t27.5 12h1015q16 0 28 -12t12 -28v-169q0 -16 -12 -27.5t-28 -11.5h-726v-310h676q16 0 28 -12t12 -28v-168q0 -16 -12 -28t-28 -12h-676v-346h742q16 0 28 -11.5t12 -27.5v-169q0 -16 -12 -28t-28 -12h-1031q-16 0 -27.5 12t-11.5 28z M560 1848h222q30 0 45 -19l222 -262q17 -20 8.5 -39.5t-34.5 -19.5h-162q-24 0 -40 18l-150 152l-150 -152q-16 -18 -40 -18h-162q-26 0 -34.5 19.5t8.5 39.5l222 262q15 19 45 19z" />
<glyph unicode="&#xcb;" horiz-adv-x="1340" d="M150 40v1320q0 16 11.5 28t27.5 12h1015q16 0 28 -12t12 -28v-169q0 -16 -12 -27.5t-28 -11.5h-726v-310h676q16 0 28 -12t12 -28v-168q0 -16 -12 -28t-28 -12h-676v-346h742q16 0 28 -11.5t12 -27.5v-169q0 -16 -12 -28t-28 -12h-1031q-16 0 -27.5 12t-11.5 28z M302 1678q0 136 146 136t146 -136t-146 -136t-146 136zM802 1678q0 136 146 136t146 -136t-146 -136t-146 136z" />
<glyph unicode="&#xcc;" horiz-adv-x="648" d="M200 1400h248q16 0 28 -12t12 -28v-1320q0 -16 -12 -28t-28 -12h-248q-16 0 -28 12t-12 28v1320q0 16 12 28t28 12zM418 1508h-143q-31 0 -53 18l-297 250q-22 18 -16 45t34 27h237q28 0 48 -21l220 -254q17 -20 6.5 -42.5t-36.5 -22.5z" />
<glyph unicode="&#xcd;" horiz-adv-x="648" d="M200 1400h248q16 0 28 -12t12 -28v-1320q0 -16 -12 -28t-28 -12h-248q-16 0 -28 12t-12 28v1320q0 16 12 28t28 12zM352 1508h-143q-26 0 -36.5 22.5t6.5 42.5l220 254q19 21 48 21h237q28 0 34 -27t-16 -45l-297 -250q-22 -18 -53 -18z" />
<glyph unicode="&#xce;" horiz-adv-x="648" d="M173 1400h248q17 0 28.5 -12t11.5 -28v-1320q0 -16 -11.5 -28t-28.5 -12h-248q-17 0 -28.5 12t-11.5 28v1320q0 16 11.5 28t28.5 12zM159 1848h222q30 0 45 -19l222 -262q17 -20 8.5 -39.5t-34.5 -19.5h-162q-24 0 -40 18l-150 152l-150 -152q-16 -18 -40 -18h-162 q-26 0 -34.5 19.5t8.5 39.5l222 262q15 19 45 19z" />
<glyph unicode="&#xcf;" horiz-adv-x="648" d="M200 1400h248q16 0 28 -12t12 -28v-1320q0 -16 -12 -28t-28 -12h-248q-16 0 -28 12t-12 28v1320q0 16 12 28t28 12zM-72 1678q0 136 146 136t146 -136t-146 -136t-146 136zM428 1678q0 136 146 136t146 -136t-146 -136t-146 136z" />
<glyph unicode="&#xd0;" horiz-adv-x="1618" d="M666 0h-467q-16 0 -27.5 12t-11.5 28v580h-99q-16 0 -27.5 11.5t-11.5 27.5v83q0 16 11.5 28t27.5 12h99v578q0 16 11.5 28t27.5 12h467q196 0 355.5 -44.5t275 -131t178.5 -220t63 -304.5q0 -172 -63 -305.5t-178.5 -219.5t-275 -130.5t-355.5 -44.5zM1206 700 q0 237 -140 344.5t-426 107.5h-152v-370h310q16 0 28 -12t12 -28v-83q0 -16 -12 -27.5t-28 -11.5h-310v-372h152q287 0 426.5 107t139.5 345z" />
<glyph unicode="&#xd1;" horiz-adv-x="1680" d="M1118 18l-650 990v-968q0 -16 -12 -28t-28 -12h-238q-16 0 -28 12t-12 28v1320q0 16 12 28t28 12h334q27 0 38 -18l650 -990v968q0 16 12 28t28 12h238q16 0 28 -12t12 -28v-1320q0 -16 -12 -28t-28 -12h-334q-27 0 -38 18zM846 1574q-73 42 -120 42q-31 0 -47 -10.5 t-21 -40.5q-2 -13 -13 -22t-25 -9h-124q-18 0 -29 9.5t-10 26.5q7 130 65 193t152 63q83 0 162 -44q73 -42 120 -42q31 0 47 10.5t21 40.5q2 13 13 22t25 9h124q18 0 29 -9.5t10 -26.5q-7 -130 -65 -193t-152 -63q-83 0 -162 44z" />
<glyph unicode="&#xd2;" horiz-adv-x="1704" d="M1624 700q0 -154 -51.5 -286t-147.5 -229.5t-243 -153t-330 -55.5t-330 55.5t-243 153t-147.5 229.5t-51.5 286t51.5 286t147.5 229.5t243 153t330 55.5t330 -55.5t243 -153t147.5 -229.5t51.5 -286zM412 700q0 -226 115 -349t325 -123t325 123t115 349t-115 349 t-325 123t-325 -123t-115 -349zM1016 1508h-143q-31 0 -53 18l-297 250q-22 18 -16 45t34 27h237q28 0 48 -21l220 -254q17 -20 6.5 -42.5t-36.5 -22.5z" />
<glyph unicode="&#xd3;" horiz-adv-x="1704" d="M1624 700q0 -154 -51.5 -286t-147.5 -229.5t-243 -153t-330 -55.5t-330 55.5t-243 153t-147.5 229.5t-51.5 286t51.5 286t147.5 229.5t243 153t330 55.5t330 -55.5t243 -153t147.5 -229.5t51.5 -286zM412 700q0 -226 115 -349t325 -123t325 123t115 349t-115 349 t-325 123t-325 -123t-115 -349zM810 1508h-143q-26 0 -36.5 22.5t6.5 42.5l220 254q19 21 48 21h237q28 0 34 -27t-16 -45l-297 -250q-22 -18 -53 -18z" />
<glyph unicode="&#xd4;" horiz-adv-x="1704" d="M1624 700q0 -154 -51.5 -286t-147.5 -229.5t-243 -153t-330 -55.5t-330 55.5t-243 153t-147.5 229.5t-51.5 286t51.5 286t147.5 229.5t243 153t330 55.5t330 -55.5t243 -153t147.5 -229.5t51.5 -286zM412 700q0 -226 115 -349t325 -123t325 123t115 349t-115 349 t-325 123t-325 -123t-115 -349zM714 1848h222q30 0 45 -19l222 -262q17 -20 8.5 -39.5t-34.5 -19.5h-162q-24 0 -40 18l-150 152l-150 -152q-16 -18 -40 -18h-162q-26 0 -34.5 19.5t8.5 39.5l222 262q15 19 45 19z" />
<glyph unicode="&#xd5;" horiz-adv-x="1704" d="M1624 700q0 -154 -51.5 -286t-147.5 -229.5t-243 -153t-330 -55.5t-330 55.5t-243 153t-147.5 229.5t-51.5 286t51.5 286t147.5 229.5t243 153t330 55.5t330 -55.5t243 -153t147.5 -229.5t51.5 -286zM412 700q0 -226 115 -349t325 -123t325 123t115 349t-115 349 t-325 123t-325 -123t-115 -349zM858 1574q-73 42 -120 42q-31 0 -47 -10.5t-21 -40.5q-2 -13 -13 -22t-25 -9h-124q-18 0 -29 9.5t-10 26.5q7 130 65 193t152 63q83 0 162 -44q73 -42 120 -42q31 0 47 10.5t21 40.5q2 13 13 22t25 9h124q18 0 29 -9.5t10 -26.5 q-7 -130 -65 -193t-152 -63q-83 0 -162 44z" />
<glyph unicode="&#xd6;" horiz-adv-x="1704" d="M1624 700q0 -154 -51.5 -286t-147.5 -229.5t-243 -153t-330 -55.5t-330 55.5t-243 153t-147.5 229.5t-51.5 286t51.5 286t147.5 229.5t243 153t330 55.5t330 -55.5t243 -153t147.5 -229.5t51.5 -286zM412 700q0 -226 115 -349t325 -123t325 123t115 349t-115 349 t-325 123t-325 -123t-115 -349zM456 1678q0 136 146 136t146 -136t-146 -136t-146 136zM956 1678q0 136 146 136t146 -136t-146 -136t-146 136z" />
<glyph unicode="&#xd7;" horiz-adv-x="1320" d="M647 830l316 283q11 10 27.5 9.5t26.5 -10.5l121 -121q12 -12 11.5 -29t-13.5 -28l-303 -270l302 -269q13 -11 13.5 -28t-11.5 -29l-121 -121q-10 -10 -26.5 -10.5t-27.5 9.5l-315 281l-315 -281q-11 -10 -27.5 -9.5t-26.5 10.5l-121 121q-12 12 -11.5 29t13.5 28 l301 269l-302 270q-13 11 -13.5 28t11.5 29l121 121q10 10 26.5 10.5t27.5 -9.5z" />
<glyph unicode="&#xd8;" horiz-adv-x="1704" d="M1624 700q0 -154 -51.5 -286t-147.5 -229.5t-243 -153t-330 -55.5q-192 0 -350 63l-148 -216q-15 -23 -47 -23h-121q-20 0 -26.5 13.5t5.5 30.5l189 277q-133 97 -203.5 247t-70.5 332q0 154 51.5 286t147.5 229.5t243 153t330 55.5q193 0 351 -64l148 217q15 23 47 23 h121q20 0 26.5 -13.5t-5.5 -30.5l-190 -277q133 -98 203.5 -247.5t70.5 -331.5zM412 700q0 -217 106 -340l531 776q-85 36 -197 36q-210 0 -325 -123t-115 -349zM1292 700q0 216 -106 339l-531 -776q87 -35 197 -35q210 0 325 123t115 349z" />
<glyph unicode="&#xd9;" horiz-adv-x="1692" d="M846 -24q156 0 283 36.5t219.5 107.5t143 183.5t50.5 258.5v798q0 16 -12 28t-28 12h-249q-16 0 -27.5 -12t-11.5 -28v-785q0 -173 -88.5 -260t-279.5 -87t-279.5 87t-88.5 260v785q0 16 -11.5 28t-27.5 12h-249q-16 0 -28 -12t-12 -28v-798q0 -146 50.5 -258.5 t143 -183.5t219.5 -107.5t283 -36.5zM942 1508h-143q-31 0 -53 18l-297 250q-22 18 -16 45t34 27h237q28 0 48 -21l220 -254q17 -20 6.5 -42.5t-36.5 -22.5z" />
<glyph unicode="&#xda;" horiz-adv-x="1692" d="M846 -24q-156 0 -283 36.5t-219.5 107.5t-143 183.5t-50.5 258.5v798q0 16 12 28t28 12h249q16 0 27.5 -12t11.5 -28v-785q0 -173 88.5 -260t279.5 -87t279.5 87t88.5 260v785q0 16 11.5 28t27.5 12h249q16 0 28 -12t12 -28v-798q0 -146 -50.5 -258.5t-143 -183.5 t-219.5 -107.5t-283 -36.5zM872 1508h-143q-26 0 -36.5 22.5t6.5 42.5l220 254q19 21 48 21h237q28 0 34 -27t-16 -45l-297 -250q-22 -18 -53 -18z" />
<glyph unicode="&#xdb;" horiz-adv-x="1692" d="M846 -24q-156 0 -283 36.5t-219.5 107.5t-143 183.5t-50.5 258.5v798q0 16 12 28t28 12h249q16 0 27.5 -12t11.5 -28v-785q0 -173 88.5 -260t279.5 -87t279.5 87t88.5 260v785q0 16 11.5 28t27.5 12h249q16 0 28 -12t12 -28v-798q0 -146 -50.5 -258.5t-143 -183.5 t-219.5 -107.5t-283 -36.5zM708 1848h222q30 0 45 -19l222 -262q17 -20 8.5 -39.5t-34.5 -19.5h-162q-24 0 -40 18l-150 152l-150 -152q-16 -18 -40 -18h-162q-26 0 -34.5 19.5t8.5 39.5l222 262q15 19 45 19z" />
<glyph unicode="&#xdc;" horiz-adv-x="1692" d="M846 -24q156 0 283 36.5t219.5 107.5t143 183.5t50.5 258.5v798q0 16 -12 28t-28 12h-249q-16 0 -27.5 -12t-11.5 -28v-785q0 -173 -88.5 -260t-279.5 -87t-279.5 87t-88.5 260v785q0 16 -11.5 28t-27.5 12h-249q-16 0 -28 -12t-12 -28v-798q0 -146 50.5 -258.5 t143 -183.5t219.5 -107.5t283 -36.5zM450 1678q0 136 146 136t146 -136t-146 -136t-146 136zM950 1678q0 136 146 136t146 -136t-146 -136t-146 136z" />
<glyph unicode="&#xdd;" horiz-adv-x="1664" d="M931 0h-250q-16 0 -27.5 11.5t-11.5 28.5v510l-587 787q-16 21 -5 42t37 21h260q32 0 50 -23l409 -563l409 563q18 23 50 23h260q26 0 37 -21t-5 -42l-587 -787v-510q0 -17 -11.5 -28.5t-27.5 -11.5zM844 1508h-143q-26 0 -36.5 22.5t6.5 42.5l220 254q19 21 48 21h237 q28 0 34 -27t-16 -45l-297 -250q-22 -18 -53 -18z" />
<glyph unicode="&#xde;" horiz-adv-x="1420" d="M478 496h212q174 0 256 48t82 164t-82 164t-256 48h-212v-424zM722 244h-244v-204q0 -16 -12 -28t-28 -12h-248q-16 0 -28 12t-12 28v1320q0 16 12 28t28 12h248q16 0 28 -12t12 -28v-188h244q301 0 469.5 -120t168.5 -344t-168.5 -344t-469.5 -120z" />
<glyph unicode="&#xdf;" horiz-adv-x="1430" d="M730 1172q-133 0 -192.5 -60t-59.5 -189v-884q0 -16 -11.5 -27.5t-27.5 -11.5h-251q-16 0 -27 11.5t-11 27.5v854q0 266 146 398.5t444 132.5q252 0 404 -107t152 -271q0 -234 -242 -318q145 -34 225.5 -126.5t80.5 -221.5q0 -197 -132.5 -300.5t-391.5 -103.5 q-133 0 -251 34q-12 4 -20 16t-6 25l16 176q1 20 18 29t36 3q90 -31 177 -31q222 0 222 164q0 89 -81.5 143.5t-237.5 61.5q-15 1 -26 12.5t-11 26.5v173q0 15 11 26t26 12q255 12 255 183q0 66 -63 104t-171 38z" />
<glyph unicode="&#xe0;" horiz-adv-x="1290" d="M1170 664v-625q0 -16 -11.5 -27.5t-27.5 -11.5h-236q-16 0 -27.5 11.5t-11.5 27.5v47q-128 -110 -356 -110q-195 0 -317.5 87t-122.5 245q0 167 135 261.5t393 94.5h268v42q0 78 -55.5 107t-204.5 29q-188 0 -348 -56q-19 -7 -39.5 1t-22.5 27l-17 138q-4 31 23 39 q205 69 440 69q288 0 413 -91t125 -305zM578 190q190 0 278 88v172h-258q-113 0 -166.5 -33.5t-53.5 -102.5q0 -64 54 -94t146 -30zM792 1160h-143q-31 0 -53 18l-297 250q-22 18 -16 45t34 27h237q28 0 48 -21l220 -254q17 -20 6.5 -42.5t-36.5 -22.5z" />
<glyph unicode="&#xe1;" horiz-adv-x="1290" d="M1170 664v-625q0 -16 -11.5 -27.5t-27.5 -11.5h-236q-16 0 -27.5 11.5t-11.5 27.5v47q-128 -110 -356 -110q-195 0 -317.5 87t-122.5 245q0 167 135 261.5t393 94.5h268v42q0 78 -55.5 107t-204.5 29q-188 0 -348 -56q-19 -7 -39.5 1t-22.5 27l-17 138q-4 31 23 39 q205 69 440 69q288 0 413 -91t125 -305zM578 190q190 0 278 88v172h-258q-113 0 -166.5 -33.5t-53.5 -102.5q0 -64 54 -94t146 -30zM618 1160h-143q-26 0 -36.5 22.5t6.5 42.5l220 254q19 21 48 21h237q28 0 34 -27t-16 -45l-297 -250q-22 -18 -53 -18z" />
<glyph unicode="&#xe2;" horiz-adv-x="1290" d="M1170 664v-625q0 -16 -11.5 -27.5t-27.5 -11.5h-236q-16 0 -27.5 11.5t-11.5 27.5v47q-128 -110 -356 -110q-195 0 -317.5 87t-122.5 245q0 167 135 261.5t393 94.5h268v42q0 78 -55.5 107t-204.5 29q-188 0 -348 -56q-19 -7 -39.5 1t-22.5 27l-17 138q-4 31 23 39 q205 69 440 69q288 0 413 -91t125 -305zM578 190q190 0 278 88v172h-258q-113 0 -166.5 -33.5t-53.5 -102.5q0 -64 54 -94t146 -30zM514 1500h222q30 0 45 -19l222 -262q17 -20 8.5 -39.5t-34.5 -19.5h-162q-24 0 -40 18l-150 152l-150 -152q-16 -18 -40 -18h-162 q-26 0 -34.5 19.5t8.5 39.5l222 262q15 19 45 19z" />
<glyph unicode="&#xe3;" horiz-adv-x="1290" d="M1170 664v-625q0 -16 -11.5 -27.5t-27.5 -11.5h-236q-16 0 -27.5 11.5t-11.5 27.5v47q-128 -110 -356 -110q-195 0 -317.5 87t-122.5 245q0 167 135 261.5t393 94.5h268v42q0 78 -55.5 107t-204.5 29q-188 0 -348 -56q-19 -7 -39.5 1t-22.5 27l-17 138q-4 31 23 39 q205 69 440 69q288 0 413 -91t125 -305zM578 190q190 0 278 88v172h-258q-113 0 -166.5 -33.5t-53.5 -102.5q0 -64 54 -94t146 -30zM658 1224q-73 42 -120 42q-31 0 -47 -10.5t-21 -40.5q-2 -13 -13 -22t-25 -9h-124q-18 0 -29 9.5t-10 26.5q7 130 65 193t152 63 q83 0 162 -44q73 -42 120 -42q31 0 47 10.5t21 40.5q2 13 13 22t25 9h124q18 0 29 -9.5t10 -26.5q-7 -130 -65 -193t-152 -63q-83 0 -162 44z" />
<glyph unicode="&#xe4;" horiz-adv-x="1290" d="M1170 664v-625q0 -16 -11.5 -27.5t-27.5 -11.5h-236q-16 0 -27.5 11.5t-11.5 27.5v47q-128 -110 -356 -110q-195 0 -317.5 87t-122.5 245q0 167 135 261.5t393 94.5h268v42q0 78 -55.5 107t-204.5 29q-188 0 -348 -56q-19 -7 -39.5 1t-22.5 27l-17 138q-4 31 23 39 q205 69 440 69q288 0 413 -91t125 -305zM578 190q190 0 278 88v172h-258q-113 0 -166.5 -33.5t-53.5 -102.5q0 -64 54 -94t146 -30zM256 1330q0 136 146 136t146 -136t-146 -136t-146 136zM756 1330q0 136 146 136t146 -136t-146 -136t-146 136z" />
<glyph unicode="&#xe5;" horiz-adv-x="1290" d="M1170 664v-625q0 -16 -11.5 -27.5t-27.5 -11.5h-236q-16 0 -27.5 11.5t-11.5 27.5v47q-128 -110 -356 -110q-195 0 -317.5 87t-122.5 245q0 167 135 261.5t393 94.5h268v42q0 78 -55.5 107t-204.5 29q-188 0 -348 -56q-19 -7 -39.5 1t-22.5 27l-17 138q-4 31 23 39 q205 69 440 69q288 0 413 -91t125 -305zM578 190q190 0 278 88v172h-258q-113 0 -166.5 -33.5t-53.5 -102.5q0 -64 54 -94t146 -30zM904 1334q0 -102 -72 -172t-180 -70t-180 70t-72 172t72 172t180 70t180 -70t72 -172zM568 1334q0 -38 24.5 -62t59.5 -24t59.5 24t24.5 62 t-24.5 62t-59.5 24t-59.5 -24t-24.5 -62z" />
<glyph unicode="&#xe6;" horiz-adv-x="2036" d="M552 194q222 0 290 130v126h-238q-116 0 -172 -33t-56 -103q0 -60 49 -90t127 -30zM1146 624h536q-9 105 -78 161.5t-190 56.5q-120 0 -188.5 -56.5t-79.5 -161.5zM1845 36q-146 -60 -361 -60q-158 0 -284 47.5t-196 140.5q-71 -93 -197.5 -140.5t-280.5 -47.5 q-212 0 -339 84t-127 250q0 168 134 261t388 93h260q-5 95 -63.5 136.5t-202.5 41.5q-186 0 -341 -58q-18 -6 -33.5 3.5t-18.5 28.5l-19 132q-1 12 6.5 24.5t19.5 17.5q177 70 398 70q141 0 254.5 -38t173.5 -118q67 77 171.5 116.5t228.5 39.5q136 0 243.5 -41.5 t176.5 -116.5t104.5 -175.5t35.5 -220.5q0 -32 -3 -64q-2 -32 -37 -32h-790q40 -216 364 -216q176 0 289 48q19 8 35.5 -2t18.5 -30l16 -134q1 -11 -6 -23t-18 -17z" />
<glyph unicode="&#xe7;" horiz-adv-x="1168" d="M608 -476q-52 0 -106 7q-15 2 -24.5 12t-9.5 23v76q0 38 38 35q43 -5 86 -5q130 0 130 58q0 68 -173 78q-24 1 -33.5 20.5t3.5 39.5l76 120q-250 35 -387.5 173.5t-137.5 356.5q0 251 180 396.5t490 145.5q182 0 326 -46q12 -4 20 -16t7 -25l-13 -132q-2 -19 -17.5 -29 t-34.5 -4q-99 34 -252 34q-182 0 -285 -84.5t-103 -239.5q0 -157 107 -240.5t303 -83.5q146 0 240 34q19 7 35.5 -4t18.5 -31l13 -131q1 -13 -6.5 -24.5t-19.5 -16.5q-109 -38 -252 -44l-61 -93q77 -11 126.5 -55.5t49.5 -108.5q0 -98 -80.5 -147t-253.5 -49z" />
<glyph unicode="&#xe8;" horiz-adv-x="1292" d="M654 842q-117 0 -185 -56t-77 -162h526q-9 106 -77.5 162t-186.5 56zM1097 30q-148 -54 -365 -54q-326 0 -494 148t-168 396q0 247 156 393.5t422 146.5q278 0 431 -153t153 -399q0 -42 -1 -63q-1 -15 -11 -25t-26 -10h-802q24 -216 366 -216q170 0 301 48q19 7 34 -3 t17 -30l15 -138q3 -29 -28 -41zM810 1160h-143q-31 0 -53 18l-297 250q-22 18 -16 45t34 27h237q28 0 48 -21l220 -254q17 -20 6.5 -42.5t-36.5 -22.5z" />
<glyph unicode="&#xe9;" horiz-adv-x="1292" d="M654 842q-117 0 -185 -56t-77 -162h526q-9 106 -77.5 162t-186.5 56zM1097 30q-148 -54 -365 -54q-326 0 -494 148t-168 396q0 247 156 393.5t422 146.5q278 0 431 -153t153 -399q0 -42 -1 -63q-1 -15 -11 -25t-26 -10h-802q24 -216 366 -216q170 0 301 48q19 7 34 -3 t17 -30l15 -138q3 -29 -28 -41zM614 1160h-143q-26 0 -36.5 22.5t6.5 42.5l220 254q19 21 48 21h237q28 0 34 -27t-16 -45l-297 -250q-22 -18 -53 -18z" />
<glyph unicode="&#xea;" horiz-adv-x="1292" d="M654 842q-117 0 -185 -56t-77 -162h526q-9 106 -77.5 162t-186.5 56zM1097 30q-148 -54 -365 -54q-326 0 -494 148t-168 396q0 247 156 393.5t422 146.5q278 0 431 -153t153 -399q0 -42 -1 -63q-1 -15 -11 -25t-26 -10h-802q24 -216 366 -216q170 0 301 48q19 7 34 -3 t17 -30l15 -138q3 -29 -28 -41zM512 1500h222q30 0 45 -19l222 -262q17 -20 8.5 -39.5t-34.5 -19.5h-162q-24 0 -40 18l-150 152l-150 -152q-16 -18 -40 -18h-162q-26 0 -34.5 19.5t8.5 39.5l222 262q15 19 45 19z" />
<glyph unicode="&#xeb;" horiz-adv-x="1292" d="M654 842q-117 0 -185 -56t-77 -162h526q-9 106 -77.5 162t-186.5 56zM1097 30q-148 -54 -365 -54q-326 0 -494 148t-168 396q0 247 156 393.5t422 146.5q278 0 431 -153t153 -399q0 -42 -1 -63q-1 -15 -11 -25t-26 -10h-802q24 -216 366 -216q170 0 301 48q19 7 34 -3 t17 -30l15 -138q3 -29 -28 -41zM254 1330q0 136 146 136t146 -136t-146 -136t-146 136zM754 1330q0 136 146 136t146 -136t-146 -136t-146 136z" />
<glyph unicode="&#xec;" horiz-adv-x="594" d="M140 39v958q0 16 11.5 27.5t27.5 11.5h236q16 0 27.5 -11.5t11.5 -27.5v-958q0 -16 -11.5 -27.5t-27.5 -11.5h-236q-16 0 -27.5 11.5t-11.5 27.5zM382 1160h-143q-31 0 -53 18l-297 250q-22 18 -16 45t34 27h237q28 0 48 -21l220 -254q17 -20 6.5 -42.5t-36.5 -22.5z" />
<glyph unicode="&#xed;" horiz-adv-x="594" d="M140 39v958q0 16 11.5 27.5t27.5 11.5h236q16 0 27.5 -11.5t11.5 -27.5v-958q0 -16 -11.5 -27.5t-27.5 -11.5h-236q-16 0 -27.5 11.5t-11.5 27.5zM334 1160h-143q-26 0 -36.5 22.5t6.5 42.5l220 254q19 21 48 21h237q28 0 34 -27t-16 -45l-297 -250q-22 -18 -53 -18z" />
<glyph unicode="&#xee;" horiz-adv-x="594" d="M140 39v958q0 16 11.5 27.5t27.5 11.5h236q16 0 27.5 -11.5t11.5 -27.5v-958q0 -16 -11.5 -27.5t-27.5 -11.5h-236q-16 0 -27.5 11.5t-11.5 27.5zM158 1500h222q30 0 45 -19l222 -262q17 -20 8.5 -39.5t-34.5 -19.5h-162q-24 0 -40 18l-150 152l-150 -152 q-16 -18 -40 -18h-162q-26 0 -34.5 19.5t8.5 39.5l222 262q15 19 45 19z" />
<glyph unicode="&#xef;" horiz-adv-x="594" d="M140 39v958q0 16 11.5 27.5t27.5 11.5h236q16 0 27.5 -11.5t11.5 -27.5v-958q0 -16 -11.5 -27.5t-27.5 -11.5h-236q-16 0 -27.5 11.5t-11.5 27.5zM-100 1330q0 136 146 136t146 -136t-146 -136t-146 136zM400 1330q0 136 146 136t146 -136t-146 -136t-146 136z" />
<glyph unicode="&#xf0;" horiz-adv-x="1326" d="M730 1116l-383 -102q-15 -4 -29.5 3.5t-18.5 21.5l-22 70q-4 15 4 29.5t23 18.5l210 53q-51 16 -129 30q-14 3 -23 15.5t-8 27.5l15 131q2 16 15.5 26t29.5 7q258 -51 436 -143l255 69q14 4 27.5 -2t17.5 -18l25 -72q5 -16 -3 -30.5t-25 -19.5l-139 -39 q248 -206 248 -550q0 -307 -160 -486.5t-464 -179.5q-120 0 -222 34t-178 97.5t-119 161.5t-43 219q0 158 68.5 272t185.5 170t270 56q190 0 316 -98q-42 149 -180 228zM632 194q140 0 224 109.5t84 350.5q-117 114 -296 114q-119 0 -187.5 -72t-68.5 -208q0 -137 66 -215.5 t178 -78.5z" />
<glyph unicode="&#xf1;" horiz-adv-x="1394" d="M1274 574v-535q0 -16 -11.5 -27.5t-27.5 -11.5h-237q-16 0 -27 11.5t-11 27.5v525q0 146 -63.5 212t-196.5 66q-75 0 -143.5 -23.5t-112.5 -64.5v-715q0 -16 -11.5 -27.5t-27.5 -11.5h-236q-16 0 -27.5 11.5t-11.5 27.5v958q0 16 11.5 27.5t27.5 11.5h236 q16 0 27.5 -11.5t11.5 -27.5v-47q132 110 338 110q237 0 364.5 -123.5t127.5 -362.5zM708 1224q-73 42 -120 42q-31 0 -47 -10.5t-21 -40.5q-2 -13 -13 -22t-25 -9h-124q-18 0 -29 9.5t-10 26.5q7 130 65 193t152 63q83 0 162 -44q73 -42 120 -42q31 0 47 10.5t21 40.5 q2 13 13 22t25 9h124q18 0 29 -9.5t10 -26.5q-7 -130 -65 -193t-152 -63q-83 0 -162 44z" />
<glyph unicode="&#xf2;" horiz-adv-x="1380" d="M1310 518q0 -238 -170 -390t-450 -152t-450 152t-170 390t170 390t450 152t450 -152t170 -390zM388 518q0 -156 80 -240t222 -84t222 84t80 240t-80 240t-222 84t-222 -84t-80 -240zM852 1160h-143q-31 0 -53 18l-297 250q-22 18 -16 45t34 27h237q28 0 48 -21l220 -254 q17 -20 6.5 -42.5t-36.5 -22.5z" />
<glyph unicode="&#xf3;" horiz-adv-x="1380" d="M1310 518q0 -238 -170 -390t-450 -152t-450 152t-170 390t170 390t450 152t450 -152t170 -390zM388 518q0 -156 80 -240t222 -84t222 84t80 240t-80 240t-222 84t-222 -84t-80 -240zM650 1160h-143q-26 0 -36.5 22.5t6.5 42.5l220 254q19 21 48 21h237q28 0 34 -27 t-16 -45l-297 -250q-22 -18 -53 -18z" />
<glyph unicode="&#xf4;" horiz-adv-x="1380" d="M1310 518q0 -238 -170 -390t-450 -152t-450 152t-170 390t170 390t450 152t450 -152t170 -390zM388 518q0 -156 80 -240t222 -84t222 84t80 240t-80 240t-222 84t-222 -84t-80 -240zM552 1500h222q30 0 45 -19l222 -262q17 -20 8.5 -39.5t-34.5 -19.5h-162q-24 0 -40 18 l-150 152l-150 -152q-16 -18 -40 -18h-162q-26 0 -34.5 19.5t8.5 39.5l222 262q15 19 45 19z" />
<glyph unicode="&#xf5;" horiz-adv-x="1380" d="M1310 518q0 -238 -170 -390t-450 -152t-450 152t-170 390t170 390t450 152t450 -152t170 -390zM388 518q0 -156 80 -240t222 -84t222 84t80 240t-80 240t-222 84t-222 -84t-80 -240zM696 1224q-73 42 -120 42q-31 0 -47 -10.5t-21 -40.5q-2 -13 -13 -22t-25 -9h-124 q-18 0 -29 9.5t-10 26.5q7 130 65 193t152 63q83 0 162 -44q73 -42 120 -42q31 0 47 10.5t21 40.5q2 13 13 22t25 9h124q18 0 29 -9.5t10 -26.5q-7 -130 -65 -193t-152 -63q-83 0 -162 44z" />
<glyph unicode="&#xf6;" horiz-adv-x="1380" d="M1310 518q0 -238 -170 -390t-450 -152t-450 152t-170 390t170 390t450 152t450 -152t170 -390zM388 518q0 -156 80 -240t222 -84t222 84t80 240t-80 240t-222 84t-222 -84t-80 -240zM294 1330q0 136 146 136t146 -136t-146 -136t-146 136zM794 1330q0 136 146 136 t146 -136t-146 -136t-146 136z" />
<glyph unicode="&#xf7;" horiz-adv-x="1320" d="M660 88q-160 0 -160 160q0 162 160 162t160 -162q0 -160 -160 -160zM660 916q-160 0 -160 160q0 162 160 162t160 -162q0 -160 -160 -160zM1171 550h-1022q-16 0 -27.5 11.5t-11.5 27.5v148q0 17 11 28t28 11h1022q16 0 27.5 -11.5t11.5 -27.5v-148q0 -16 -11.5 -27.5 t-27.5 -11.5z" />
<glyph unicode="&#xf8;" horiz-adv-x="1380" d="M1310 518q0 -238 -170 -390t-450 -152q-136 0 -256 40l-148 -213q-15 -23 -47 -23h-100q-20 0 -26.5 13.5t5.5 30.5l179 259q-109 73 -168 185.5t-59 249.5q0 238 170 390t450 152q136 0 256 -41l148 214q15 23 47 23h100q20 0 26.5 -13.5t-5.5 -30.5l-180 -260 q109 -73 168.5 -185t59.5 -249zM992 518q0 135 -61 217l-361 -522q51 -19 120 -19q142 0 222 84t80 240zM388 518q0 -135 60 -217l362 522q-57 19 -120 19q-142 0 -222 -84t-80 -240z" />
<glyph unicode="&#xf9;" horiz-adv-x="1394" d="M120 462v535q0 16 11.5 27.5t27.5 11.5h237q16 0 27 -11.5t11 -27.5v-525q0 -146 63.5 -212t196.5 -66q75 0 143.5 23.5t112.5 64.5v715q0 16 11.5 27.5t27.5 11.5h236q16 0 27.5 -11.5t11.5 -27.5v-958q0 -16 -11.5 -27.5t-27.5 -11.5h-236q-16 0 -27.5 11.5t-11.5 27.5 v47q-132 -110 -338 -110q-237 0 -364.5 123.5t-127.5 362.5zM808 1160h-143q-31 0 -53 18l-297 250q-22 18 -16 45t34 27h237q28 0 48 -21l220 -254q17 -20 6.5 -42.5t-36.5 -22.5z" />
<glyph unicode="&#xfa;" horiz-adv-x="1394" d="M120 462v535q0 16 11.5 27.5t27.5 11.5h237q16 0 27 -11.5t11 -27.5v-525q0 -146 63.5 -212t196.5 -66q75 0 143.5 23.5t112.5 64.5v715q0 16 11.5 27.5t27.5 11.5h236q16 0 27.5 -11.5t11.5 -27.5v-958q0 -16 -11.5 -27.5t-27.5 -11.5h-236q-16 0 -27.5 11.5t-11.5 27.5 v47q-132 -110 -338 -110q-237 0 -364.5 123.5t-127.5 362.5zM698 1160h-143q-26 0 -36.5 22.5t6.5 42.5l220 254q19 21 48 21h237q28 0 34 -27t-16 -45l-297 -250q-22 -18 -53 -18z" />
<glyph unicode="&#xfb;" horiz-adv-x="1394" d="M120 462v535q0 16 11.5 27.5t27.5 11.5h237q16 0 27 -11.5t11 -27.5v-525q0 -146 63.5 -212t196.5 -66q75 0 143.5 23.5t112.5 64.5v715q0 16 11.5 27.5t27.5 11.5h236q16 0 27.5 -11.5t11.5 -27.5v-958q0 -16 -11.5 -27.5t-27.5 -11.5h-236q-16 0 -27.5 11.5t-11.5 27.5 v47q-132 -110 -338 -110q-237 0 -364.5 123.5t-127.5 362.5zM554 1500h222q30 0 45 -19l222 -262q17 -20 8.5 -39.5t-34.5 -19.5h-162q-24 0 -40 18l-150 152l-150 -152q-16 -18 -40 -18h-162q-26 0 -34.5 19.5t8.5 39.5l222 262q15 19 45 19z" />
<glyph unicode="&#xfc;" horiz-adv-x="1394" d="M120 462v535q0 16 11.5 27.5t27.5 11.5h237q16 0 27 -11.5t11 -27.5v-525q0 -146 63.5 -212t196.5 -66q75 0 143.5 23.5t112.5 64.5v715q0 16 11.5 27.5t27.5 11.5h236q16 0 27.5 -11.5t11.5 -27.5v-958q0 -16 -11.5 -27.5t-27.5 -11.5h-236q-16 0 -27.5 11.5t-11.5 27.5 v47q-132 -110 -338 -110q-237 0 -364.5 123.5t-127.5 362.5zM296 1330q0 136 146 136t146 -136t-146 -136t-146 136zM796 1330q0 136 146 136t146 -136t-146 -136t-146 136z" />
<glyph unicode="&#xfd;" horiz-adv-x="1344" d="M1016 1036h231q23 0 33.5 -17t1.5 -38l-590 -1324q-18 -43 -61 -43h-230q-23 0 -34.5 17t-2.5 38l144 331l-471 980q-10 21 1 38.5t34 17.5h225q41 0 56 -33l311 -681l296 681q15 33 56 33zM660 1160h-143q-26 0 -36.5 22.5t6.5 42.5l220 254q19 21 48 21h237 q28 0 34 -27t-16 -45l-297 -250q-22 -18 -53 -18z" />
<glyph unicode="&#xfe;" horiz-adv-x="1382" d="M444 1421v-471q137 110 342 110q231 0 378.5 -146.5t147.5 -395.5t-147.5 -395.5t-378.5 -146.5q-205 0 -342 110v-433q0 -16 -11 -27.5t-27 -11.5h-237q-16 0 -27.5 11.5t-11.5 27.5v1768q0 16 11.5 27.5t27.5 11.5h237q16 0 27 -11.5t11 -27.5zM444 756v-476 q96 -86 244 -86q144 0 225 80.5t81 243.5t-81 243.5t-225 80.5q-148 0 -244 -86z" />
<glyph unicode="&#xff;" horiz-adv-x="1344" d="M1016 1036h231q23 0 33.5 -17t1.5 -38l-590 -1324q-18 -43 -61 -43h-230q-23 0 -34.5 17t-2.5 38l144 331l-471 980q-10 21 1 38.5t34 17.5h225q41 0 56 -33l311 -681l296 681q15 33 56 33zM282 1330q0 136 146 136t146 -136t-146 -136t-146 136zM782 1330q0 136 146 136 t146 -136t-146 -136t-146 136z" />
<glyph unicode="&#x152;" horiz-adv-x="2060" d="M1940 0h-955q-445 0 -675 185t-230 515q0 329 230 514.5t675 185.5h937q16 0 28 -12t12 -28v-169q0 -16 -12 -27.5t-28 -11.5h-612v-310h555q16 0 27.5 -11.5t11.5 -28.5v-168q0 -17 -11.5 -28.5t-27.5 -11.5h-555v-346h630q16 0 28 -11.5t12 -27.5v-169q0 -16 -12 -28 t-28 -12zM412 700q0 -452 543 -452h29v904h-29q-543 0 -543 -452z" />
<glyph unicode="&#x153;" horiz-adv-x="2130" d="M654 194q132 0 198 84.5t66 239.5t-66 239.5t-198 84.5t-199 -84.5t-67 -239.5t67 -239.5t199 -84.5zM1240 624h536q-9 105 -78 161.5t-190 56.5q-120 0 -188.5 -56.5t-79.5 -161.5zM1936 33q-142 -57 -368 -57q-163 0 -288.5 50.5t-193.5 149.5q-68 -96 -182.5 -148 t-261.5 -52q-274 0 -423 147t-149 395q0 246 149 394t423 148q140 0 257.5 -53.5t186.5 -148.5q136 202 422 202q269 0 415.5 -149.5t146.5 -402.5q0 -20 -2 -60q-1 -16 -12 -27t-27 -11h-787q16 -107 109.5 -161.5t242.5 -54.5q182 0 296 46q19 8 36.5 -1.5t19.5 -30.5 l16 -132q1 -12 -7 -25t-19 -18z" />
<glyph unicode="&#x178;" horiz-adv-x="1664" d="M931 0h-250q-16 0 -27.5 11.5t-11.5 28.5v510l-587 787q-16 21 -5 42t37 21h260q32 0 50 -23l409 -563l409 563q18 23 50 23h260q26 0 37 -21t-5 -42l-587 -787v-510q0 -17 -11.5 -28.5t-27.5 -11.5zM436 1678q0 136 146 136t146 -136t-146 -136t-146 136zM936 1678 q0 136 146 136t146 -136t-146 -136t-146 136z" />
<glyph unicode="&#x2c6;" horiz-adv-x="1008" d="M366 1460h222q30 0 45 -19l222 -262q17 -20 8.5 -39.5t-34.5 -19.5h-162q-24 0 -40 18l-150 152l-150 -152q-16 -18 -40 -18h-162q-26 0 -34.5 19.5t8.5 39.5l222 262q15 19 45 19z" />
<glyph unicode="&#x2dc;" horiz-adv-x="1008" d="M508 1186q-73 42 -120 42q-31 0 -47 -10.5t-21 -40.5q-2 -13 -13 -22t-25 -9h-124q-18 0 -29 9.5t-10 26.5q7 130 65 193t152 63q83 0 162 -44q73 -42 120 -42q31 0 47 10.5t21 40.5q2 13 13 22t25 9h124q18 0 29 -9.5t10 -26.5q-7 -130 -65 -193t-152 -63q-83 0 -162 44 z" />
<glyph unicode="&#x2000;" horiz-adv-x="960" />
<glyph unicode="&#x2001;" horiz-adv-x="1920" />
<glyph unicode="&#x2002;" horiz-adv-x="960" />
<glyph unicode="&#x2003;" horiz-adv-x="1920" />
<glyph unicode="&#x2004;" horiz-adv-x="640" />
<glyph unicode="&#x2005;" horiz-adv-x="480" />
<glyph unicode="&#x2006;" horiz-adv-x="320" />
<glyph unicode="&#x2007;" horiz-adv-x="320" />
<glyph unicode="&#x2008;" horiz-adv-x="240" />
<glyph unicode="&#x2009;" horiz-adv-x="384" />
<glyph unicode="&#x200a;" horiz-adv-x="106" />
<glyph unicode="&#x2010;" horiz-adv-x="858" d="M710 540h-561q-16 0 -27.5 11.5t-11.5 27.5v168q0 16 11.5 27.5t27.5 11.5h561q16 0 27 -11.5t11 -27.5v-168q0 -16 -11 -27.5t-27 -11.5z" />
<glyph unicode="&#x2011;" horiz-adv-x="858" d="M710 540h-561q-16 0 -27.5 11.5t-11.5 27.5v168q0 16 11.5 27.5t27.5 11.5h561q16 0 27 -11.5t11 -27.5v-168q0 -16 -11 -27.5t-27 -11.5z" />
<glyph unicode="&#x2012;" horiz-adv-x="858" d="M710 540h-561q-16 0 -27.5 11.5t-11.5 27.5v168q0 16 11.5 27.5t27.5 11.5h561q16 0 27 -11.5t11 -27.5v-168q0 -16 -11 -27.5t-27 -11.5z" />
<glyph unicode="&#x2013;" horiz-adv-x="1000" d="M961 550h-922q-16 0 -27.5 11.5t-11.5 27.5v148q0 17 11 28t28 11h922q16 0 27.5 -11.5t11.5 -27.5v-148q0 -16 -11.5 -27.5t-27.5 -11.5z" />
<glyph unicode="&#x2014;" horiz-adv-x="2000" d="M1961 550h-1922q-16 0 -27.5 11.5t-11.5 27.5v148q0 17 11 28t28 11h1922q16 0 27.5 -11.5t11.5 -27.5v-148q0 -16 -11.5 -27.5t-27.5 -11.5z" />
<glyph unicode="&#x2018;" horiz-adv-x="696" d="M427 1530q27 15 47 -13l31 -47q8 -13 6.5 -29t-13.5 -24q-89 -62 -108 -159q132 -18 132 -158q0 -162 -174 -162t-174 170q0 142 66.5 251t186.5 171z" />
<glyph unicode="&#x2019;" horiz-adv-x="696" d="M263 952q-27 -15 -47 13l-31 47q-8 13 -6.5 29t13.5 24q89 62 108 159q-132 18 -132 158q0 162 174 162t174 -170q0 -142 -66.5 -251t-186.5 -171z" />
<glyph unicode="&#x201a;" horiz-adv-x="696" d="M263 -292q-27 -15 -47 13l-31 47q-8 13 -6.5 29t13.5 24q89 62 108 159q-132 18 -132 158q0 162 174 162t174 -170q0 -142 -66.5 -251t-186.5 -171z" />
<glyph unicode="&#x201c;" horiz-adv-x="1164" d="M895 1530q27 15 47 -13l31 -47q8 -13 6.5 -29t-13.5 -24q-89 -62 -108 -159q132 -18 132 -158q0 -162 -174 -162t-174 170q0 142 66.5 251t186.5 171zM427 1530q27 15 47 -13l31 -47q8 -13 6.5 -29t-13.5 -24q-89 -62 -108 -159q132 -18 132 -158q0 -162 -174 -162 t-174 170q0 142 66.5 251t186.5 171z" />
<glyph unicode="&#x201d;" horiz-adv-x="1164" d="M263 952q-27 -15 -47 13l-31 47q-8 13 -6.5 29t13.5 24q89 62 108 159q-132 18 -132 158q0 162 174 162t174 -170q0 -142 -66.5 -251t-186.5 -171zM731 952q-27 -15 -47 13l-31 47q-8 13 -6.5 29t13.5 24q89 62 108 159q-132 18 -132 158q0 162 174 162t174 -170 q0 -142 -66.5 -251t-186.5 -171z" />
<glyph unicode="&#x201e;" horiz-adv-x="1164" d="M263 -292q-27 -15 -47 13l-31 47q-8 13 -6.5 29t13.5 24q89 62 108 159q-132 18 -132 158q0 162 174 162t174 -170q0 -142 -66.5 -251t-186.5 -171zM731 -292q-27 -15 -47 13l-31 47q-8 13 -6.5 29t13.5 24q89 62 108 159q-132 18 -132 158q0 162 174 162t174 -170 q0 -142 -66.5 -251t-186.5 -171z" />
<glyph unicode="&#x2022;" horiz-adv-x="1000" d="M200 664q0 132 77 204t223 72t223 -72t77 -204t-77 -204t-223 -72t-223 72t-77 204z" />
<glyph unicode="&#x2026;" horiz-adv-x="2088" d="M174 138q0 162 174 162t174 -162t-174 -162t-174 162zM870 138q0 162 174 162t174 -162t-174 -162t-174 162zM1566 138q0 162 174 162t174 -162t-174 -162t-174 162z" />
<glyph unicode="&#x202f;" horiz-adv-x="384" />
<glyph unicode="&#x2039;" horiz-adv-x="684" d="M130 577v90q0 26 20 44l358 332q11 10 26 13.5t27.5 -6.5t12.5 -34v-152q0 -24 -21 -43l-221 -199l221 -199q21 -20 21 -43v-152q0 -24 -12.5 -34t-27.5 -6.5t-26 13.5l-358 332q-20 18 -20 44z" />
<glyph unicode="&#x203a;" horiz-adv-x="684" d="M554 667v-90q0 -26 -20 -44l-358 -332q-11 -10 -26 -13.5t-27.5 6.5t-12.5 34v152q0 24 21 43l221 199l-221 199q-21 19 -21 43v152q0 24 12.5 34t27.5 6.5t26 -13.5l358 -332q20 -18 20 -44z" />
<glyph unicode="&#x205f;" horiz-adv-x="480" />
<glyph unicode="&#x20ac;" horiz-adv-x="1478" d="M1103 504h-579q55 -134 183.5 -205t310.5 -71q181 0 319 53q19 7 34.5 -3.5t17.5 -30.5l17 -174q1 -12 -7 -24t-20 -17q-168 -56 -401 -56q-316 0 -526 139.5t-272 388.5h-101q-16 0 -27.5 11.5t-11.5 27.5v64q0 16 11.5 27.5t27.5 11.5h81q-4 53 0 106h-81 q-16 0 -27.5 11.5t-11.5 27.5v64q0 16 11.5 27.5t27.5 11.5h101q62 247 271 388.5t521 141.5q230 0 396 -56q12 -5 20 -17t7 -24l-16 -170q-2 -20 -17.5 -30.5t-34.5 -3.5q-122 49 -317 49q-180 0 -306 -72.5t-180 -205.5h673q21 0 32 -15.5t6 -34.5l-19 -65 q-3 -10 -14.5 -18.5t-22.5 -8.5h-685q-10 -55 0 -106h627q21 0 32 -15.5t6 -34.5l-19 -65q-3 -10 -14.5 -18.5t-22.5 -8.5z" />
<glyph unicode="&#x2122;" horiz-adv-x="1546" d="M224 777v473h-169q-16 0 -27.5 11.5t-11.5 27.5v73q0 16 11.5 27t27.5 11h524q16 0 27.5 -11t11.5 -27v-73q0 -16 -11.5 -27.5t-27.5 -11.5h-169v-473q0 -16 -11.5 -27.5t-27.5 -11.5h-108q-16 0 -27.5 11.5t-11.5 27.5zM1106 930h-96q-18 0 -32 16l-132 178v-347 q0 -16 -11.5 -27.5t-27.5 -11.5h-108q-16 0 -27.5 11.5t-11.5 27.5v585q0 16 11.5 27t27.5 11h126q19 0 32 -15l201 -273l201 273q13 15 32 15h126q16 0 27.5 -11t11.5 -27v-585q0 -16 -11.5 -27.5t-27.5 -11.5h-108q-16 0 -27.5 11.5t-11.5 27.5v347l-132 -178 q-14 -16 -32 -16z" />
</font>
</defs>
</svg>
